<?xml version="1.0" encoding="utf-8" ?>
<NEKTAR>
<POINTS DIM="2" FIELDS="">
203.500000 0.000000
203.500000 0.000418
203.500000 0.001672
203.500000 0.003763
203.500000 0.006689
203.500000 0.010451
203.500000 0.015050
203.500000 0.020485
203.500000 0.026756
203.500000 0.033863
203.500000 0.041806
203.500000 0.050585
203.500000 0.060201
203.500000 0.070652
203.500000 0.081940
203.500000 0.094063
203.500000 0.107023
203.500000 0.120819
203.500000 0.135451
203.500000 0.150919
203.500000 0.167224
203.500000 0.184364
203.500000 0.202341
203.500000 0.221153
203.500000 0.240802
203.500000 0.261287
203.500000 0.282608
203.500000 0.304765
203.500000 0.327758
203.500000 0.351588
203.500000 0.376253
203.500000 0.401755
203.500000 0.428092
203.500000 0.455266
203.500000 0.483276
203.500000 0.512122
203.500000 0.541805
203.500000 0.572323
203.500000 0.603677
203.500000 0.635868
203.500000 0.668894
203.500000 0.702757
203.500000 0.737456
203.500000 0.772991
203.500000 0.809362
203.500000 0.846570
203.500000 0.884613
203.500000 0.923492
203.500000 0.963208
203.500000 1.003760
203.500000 1.045148
203.500000 1.087372
203.500000 1.130432
203.500000 1.174328
203.500000 1.219060
203.500000 1.264629
203.500000 1.311033
203.500000 1.358274
203.500000 1.406351
203.500000 1.455264
203.500000 1.505013
203.500000 1.555598
203.500000 1.607019
203.500000 1.659276
203.500000 1.712370
203.500000 1.766299
203.500000 1.821065
203.500000 1.876667
203.500000 1.933105
203.500000 1.990379
203.500000 2.048489
203.500000 2.107436
203.500000 2.167218
203.500000 2.227837
203.500000 2.289291
203.500000 2.351582
203.500000 2.414709
203.500000 2.478672
203.500000 2.543471
203.500000 2.609106
203.500000 2.675578
203.500000 2.742885
203.500000 2.811029
203.500000 2.880009
203.500000 2.949825
203.500000 3.020477
203.500000 3.091965
203.500000 3.164289
203.500000 3.237449
203.500000 3.311446
203.500000 3.386278
203.500000 3.461947
203.500000 3.538452
203.500000 3.615793
203.500000 3.693970
203.500000 3.772983
203.500000 3.852832
203.500000 3.933517
203.500000 4.015039
203.500000 4.097397
203.500000 4.180590
203.500000 4.264620
203.500000 4.349486
203.500000 4.435188
203.500000 4.521727
203.500000 4.609101
203.500000 4.697311
203.500000 4.786358
203.500000 4.876241
203.500000 4.966959
203.500000 5.058514
203.500000 5.150905
203.500000 5.244133
203.500000 5.338196
203.500000 5.433095
203.500000 5.528831
203.500000 5.625402
203.500000 5.722810
203.500000 5.821054
203.500000 5.920134
203.500000 6.020050
203.500000 6.120802
203.500000 6.222391
203.500000 6.324815
203.500000 6.428076
203.500000 6.532172
203.500000 6.637105
203.500000 6.742874
203.500000 6.849479
203.500000 6.956920
203.500000 7.065198
203.500000 7.174311
203.500000 7.284261
203.500000 7.395046
203.500000 7.506668
203.500000 7.619126
203.500000 7.732420
203.500000 7.846550
203.500000 7.961516
203.500000 8.077319
203.500000 8.193957
203.500000 8.311432
203.500000 8.429742
203.500000 8.548889
203.500000 8.668872
203.500000 8.789691
203.500000 8.911346
203.500000 9.033838
203.500000 9.157165
203.500000 9.281329
203.500000 9.406328
203.500000 9.532164
203.500000 9.658836
203.500000 9.786344
203.500000 9.914688
203.500000 10.043868
203.500000 10.173885
203.500000 10.304737
203.500000 10.436426
203.500000 10.568950
203.500000 10.702311
203.500000 10.836508
203.500000 10.971541
203.500000 11.107411
203.500000 11.244116
203.500000 11.381657
203.500000 11.520035
203.500000 11.659248
203.500000 11.799298
203.500000 11.940184
203.500000 12.081906
203.500000 12.224464
203.500000 12.367859
203.500000 12.512089
203.500000 12.657155
203.500000 12.803058
203.500000 12.949797
203.500000 13.097372
203.500000 13.245782
203.500000 13.395030
203.500000 13.545113
203.500000 13.696032
203.500000 13.847787
203.500000 14.000379
203.500000 14.153807
203.500000 14.308070
203.500000 14.463170
203.500000 14.619106
203.500000 14.775879
203.500000 14.933487
203.500000 15.091931
203.500000 15.251212
203.500000 15.411328
203.500000 15.572281
203.500000 15.734070
203.500000 15.896695
203.500000 16.060156
203.500000 16.224453
203.500000 16.389586
203.500000 16.555556
203.500000 16.722361
203.500000 16.890003
203.500000 17.058481
203.500000 17.227795
203.500000 17.397945
203.500000 17.568931
203.500000 17.740753
203.500000 17.913412
203.500000 18.086906
203.500000 18.261237
203.500000 18.436403
203.500000 18.612406
203.500000 18.789245
203.500000 18.966920
203.500000 19.145432
203.500000 19.324779
203.500000 19.504962
203.500000 19.685982
203.500000 19.867838
203.500000 20.050529
203.500000 20.234057
203.500000 20.418421
203.500000 20.603622
203.500000 20.789658
203.500000 20.976530
203.500000 21.164239
203.500000 21.352783
203.500000 21.542164
203.500000 21.732381
203.500000 21.923434
203.500000 22.115323
203.500000 22.308048
203.500000 22.501610
203.500000 22.696007
203.500000 22.891241
203.500000 23.087310
203.500000 23.284216
203.500000 23.481958
203.500000 23.680536
203.500000 23.879950
203.500000 24.080200
203.500000 24.281287
203.500000 24.483209
203.500000 24.685968
203.500000 24.889563
203.500000 25.093994
203.500000 25.299261
203.500000 25.505364
203.500000 25.712303
203.500000 25.920078
203.500000 26.128690
203.500000 26.338137
203.500000 26.548421
203.500000 26.759541
203.500000 26.971497
203.500000 27.184289
203.500000 27.397917
203.500000 27.612381
203.500000 27.827682
203.500000 28.043818
203.500000 28.260791
203.500000 28.478600
203.500000 28.697244
203.500000 28.916725
203.500000 29.137043
203.500000 29.358196
203.500000 29.580185
203.500000 29.803011
203.500000 30.026672
203.500000 30.251170
203.500000 30.476504
203.500000 30.702674
203.500000 30.929680
203.500000 31.157522
203.500000 31.386200
203.500000 31.615715
203.500000 31.846065
203.500000 32.077252
203.500000 32.309275
203.500000 32.542133
203.500000 32.775828
203.500000 33.010360
203.500000 33.245727
203.500000 33.481930
203.500000 33.718970
203.500000 33.956845
203.500000 34.195557
203.500000 34.435105
203.500000 34.675489
203.500000 34.916709
203.500000 35.158765
203.500000 35.401657
203.500000 35.645386
203.500000 35.889950
203.500000 36.135351
203.500000 36.381588
203.500000 36.628660
203.500000 36.876569
203.500000 37.125315
203.500000 37.374896
203.500000 37.625313
203.500000 37.876567
203.500000 38.128656
203.500000 38.381582
203.500000 38.635344
203.500000 38.889942
203.500000 39.145376
203.500000 39.401646
203.500000 39.658752
203.500000 39.916695
203.500000 40.175473
203.500000 40.435088
203.500000 40.695539
203.500000 40.956826
203.500000 41.218949
203.500000 41.481908
203.500000 41.745703
203.500000 42.010334
203.500000 42.275802
203.500000 42.542106
203.500000 42.809245
203.500000 43.077221
203.500000 43.346033
203.500000 43.615681
203.500000 43.886165
203.500000 44.157486
203.500000 44.429642
203.500000 44.702635
203.500000 44.976463
203.500000 45.251128
203.500000 45.526629
203.500000 45.802966
203.500000 46.080139
203.500000 46.358148
203.500000 46.636994
203.500000 46.916675
203.500000 47.197193
203.500000 47.478547
203.500000 47.760736
203.500000 48.043762
203.500000 48.327625
203.500000 48.612323
203.500000 48.897857
203.500000 49.184227
203.500000 49.471434
203.500000 49.759477
203.500000 50.048355
203.500000 50.338070
203.500000 50.628621
203.500000 50.920009
203.500000 51.212232
203.500000 51.505291
203.500000 51.799187
203.500000 52.093918
203.500000 52.389486
203.500000 52.685890
203.500000 52.983130
203.500000 53.281206
203.500000 53.580118
203.500000 53.879867
203.500000 54.180451
203.500000 54.481872
203.500000 54.784128
203.500000 55.087221
203.500000 55.391150
203.500000 55.695915
203.500000 56.001516
203.500000 56.307953
203.500000 56.615227
203.500000 56.923336
203.500000 57.232282
203.500000 57.542064
203.500000 57.852682
203.500000 58.164136
203.500000 58.476426
203.500000 58.789552
203.500000 59.103514
203.500000 59.418313
203.500000 59.733947
203.500000 60.050418
203.500000 60.367725
203.500000 60.685868
203.500000 61.004847
203.500000 61.324662
203.500000 61.645313
203.500000 61.966801
203.500000 62.289124
203.500000 62.612284
203.500000 62.936279
203.500000 63.261111
203.500000 63.586779
203.500000 63.913283
203.500000 64.240624
203.500000 64.568800
203.500000 64.897812
203.500000 65.227661
203.500000 65.558346
203.500000 65.889867
203.500000 66.222223
203.500000 66.555417
203.500000 66.889446
203.500000 67.224311
203.500000 67.560012
203.500000 67.896550
203.500000 68.233924
203.500000 68.572133
203.500000 68.911179
203.500000 69.251061
203.500000 69.591779
203.500000 69.933334
203.500000 70.275724
203.500000 70.618950
203.500000 70.963013
203.500000 71.307912
203.500000 71.653646
203.500000 72.000217
203.500000 72.347624
203.500000 72.695868
203.500000 73.044947
203.500000 73.394862
203.500000 73.745614
203.500000 74.097202
203.500000 74.449625
203.500000 74.802885
203.500000 75.156981
203.500000 75.511913
203.500000 75.867682
203.500000 76.224286
203.500000 76.581726
203.500000 76.940003
203.500000 77.299116
203.500000 77.659064
203.500000 78.019849
203.500000 78.381471
203.500000 78.743928
203.500000 79.107221
203.500000 79.471350
203.500000 79.836316
203.500000 80.202118
203.500000 80.568755
203.500000 80.936229
203.500000 81.304539
203.500000 81.673685
203.500000 82.043668
203.500000 82.414486
203.500000 82.786141
203.500000 83.158631
203.500000 83.531958
203.500000 83.906121
203.500000 84.281120
203.500000 84.656955
203.500000 85.033626
203.500000 85.411133
203.500000 85.789477
203.500000 86.168656
203.500000 86.548672
203.500000 86.929524
203.500000 87.311212
203.500000 87.693736
203.500000 88.077096
203.500000 88.461292
203.500000 88.846324
203.500000 89.232193
203.500000 89.618897
203.500000 90.006438
203.500000 90.394815
203.500000 90.784028
203.500000 91.174077
203.500000 91.564962
203.500000 91.956684
203.500000 92.349241
203.500000 92.742634
203.500000 93.136864
203.500000 93.531930
203.500000 93.927832
203.500000 94.324570
203.500000 94.722144
203.500000 95.120554
203.500000 95.519801
203.500000 95.919883
203.500000 96.320802
203.500000 96.722557
203.500000 97.125147
203.500000 97.528574
203.500000 97.932837
203.500000 98.337937
203.500000 98.743872
203.500000 99.150643
203.500000 99.558251
203.500000 99.966695
203.500000 100.375974
203.500000 100.786090
203.500000 101.197042
203.500000 101.608831
203.500000 102.021455
203.500000 102.434915
203.500000 102.849212
203.500000 103.264344
203.500000 103.680313
203.500000 104.097118
203.500000 104.514759
203.500000 104.933236
203.500000 105.352549
203.500000 105.772699
203.500000 106.193684
203.500000 106.615506
203.500000 107.038163
203.500000 107.461657
203.500000 107.885987
203.500000 108.311153
203.500000 108.737155
203.500000 109.163993
203.500000 109.591668
203.500000 110.020178
203.500000 110.449525
203.500000 110.879708
203.500000 111.310727
203.500000 111.742582
203.500000 112.175273
203.500000 112.608800
203.500000 113.043163
203.500000 113.478363
203.500000 113.914398
203.500000 114.351270
203.500000 114.788978
203.500000 115.227522
203.500000 115.666902
203.500000 116.107118
203.500000 116.548170
203.500000 116.990059
203.500000 117.432783
203.500000 117.876344
203.500000 118.320740
203.500000 118.765973
203.500000 119.212042
203.500000 119.658947
203.500000 120.106689
203.500000 120.555266
203.500000 121.004679
203.500000 121.454929
203.500000 121.906015
203.500000 122.357937
203.500000 122.810695
203.500000 123.264289
203.500000 123.718719
203.500000 124.173985
203.500000 124.630087
203.500000 125.087026
203.500000 125.544801
203.500000 126.003411
203.500000 126.462858
203.500000 126.923141
203.500000 127.384260
203.500000 127.846216
203.500000 128.309007
203.500000 128.772634
203.500000 129.237098
203.500000 129.702398
203.500000 130.168534
203.500000 130.635505
203.500000 131.103314
203.500000 131.571958
203.500000 132.041438
203.500000 132.511754
203.500000 132.982907
203.500000 133.454896
203.500000 133.927720
203.500000 134.401381
203.500000 134.875878
203.500000 135.351211
203.500000 135.827381
203.500000 136.304386
203.500000 136.782227
203.500000 137.260905
203.500000 137.740419
203.500000 138.220769
203.500000 138.701955
203.500000 139.183977
203.500000 139.666835
203.500000 140.150529
203.500000 140.635060
203.500000 141.120426
203.500000 141.606629
203.500000 142.093668
203.500000 142.581542
203.500000 143.070253
203.500000 143.559801
203.500000 144.050184
203.500000 144.541403
203.500000 145.033459
203.500000 145.526350
203.500000 146.020078
203.500000 146.514642
203.500000 147.010042
203.500000 147.506278
203.500000 148.003350
203.500000 148.501258
203.500000 149.000003
203.500000 149.499583
203.500000 150.000000
</POINTS>
</NEKTAR>

