<?xml version="1.0" encoding="utf-8" ?>
<NEKTAR>
<POINTS DIM="2" FIELDS="">
20.500000 -1.500000
20.500000 -1.499578
20.500000 -1.498311
20.500000 -1.496200
20.500000 -1.493244
20.500000 -1.489444
20.500000 -1.484799
20.500000 -1.479310
20.500000 -1.472977
20.500000 -1.465799
20.500000 -1.457776
20.500000 -1.448909
20.500000 -1.439197
20.500000 -1.428642
20.500000 -1.417241
20.500000 -1.404996
20.500000 -1.391907
20.500000 -1.377973
20.500000 -1.363194
20.500000 -1.347571
20.500000 -1.331104
20.500000 -1.313792
20.500000 -1.295636
20.500000 -1.276635
20.500000 -1.256790
20.500000 -1.236100
20.500000 -1.214566
20.500000 -1.192187
20.500000 -1.168964
20.500000 -1.144896
20.500000 -1.119984
20.500000 -1.094228
20.500000 -1.067627
20.500000 -1.040181
20.500000 -1.011891
20.500000 -0.982756
20.500000 -0.952777
20.500000 -0.921954
20.500000 -0.890286
20.500000 -0.857774
20.500000 -0.824417
20.500000 -0.790215
20.500000 -0.755169
20.500000 -0.719279
20.500000 -0.682544
20.500000 -0.644965
20.500000 -0.606541
20.500000 -0.567273
20.500000 -0.527160
20.500000 -0.486203
20.500000 -0.444401
20.500000 -0.401755
20.500000 -0.358264
20.500000 -0.313929
20.500000 -0.268749
20.500000 -0.222725
20.500000 -0.175857
20.500000 -0.128143
20.500000 -0.079586
20.500000 -0.030184
20.500000 0.020063
20.500000 0.071154
20.500000 0.123089
20.500000 0.175869
20.500000 0.229494
20.500000 0.283962
20.500000 0.339276
20.500000 0.395434
20.500000 0.452436
20.500000 0.510283
20.500000 0.568974
20.500000 0.628510
20.500000 0.688890
20.500000 0.750115
20.500000 0.812184
20.500000 0.875098
20.500000 0.938856
20.500000 1.003459
20.500000 1.068906
20.500000 1.135198
20.500000 1.202334
20.500000 1.270314
20.500000 1.339139
20.500000 1.408809
20.500000 1.479323
20.500000 1.550681
20.500000 1.622884
20.500000 1.695932
20.500000 1.769824
20.500000 1.844560
20.500000 1.920141
20.500000 1.996566
20.500000 2.073836
20.500000 2.151951
20.500000 2.230909
20.500000 2.310713
20.500000 2.391360
20.500000 2.472853
20.500000 2.555189
20.500000 2.638371
20.500000 2.722396
20.500000 2.807266
20.500000 2.892981
20.500000 2.979540
20.500000 3.066944
20.500000 3.155192
20.500000 3.244284
20.500000 3.334221
20.500000 3.425003
20.500000 3.516629
20.500000 3.609099
20.500000 3.702414
20.500000 3.796574
20.500000 3.891578
20.500000 3.987426
20.500000 4.084119
20.500000 4.181656
20.500000 4.280038
20.500000 4.379265
20.500000 4.479335
20.500000 4.580251
20.500000 4.682010
20.500000 4.784615
20.500000 4.888063
20.500000 4.992356
20.500000 5.097494
20.500000 5.203476
20.500000 5.310303
20.500000 5.417974
20.500000 5.526490
20.500000 5.635850
20.500000 5.746054
20.500000 5.857103
20.500000 5.968997
20.500000 6.081735
20.500000 6.195317
20.500000 6.309744
20.500000 6.425016
20.500000 6.541131
20.500000 6.658092
20.500000 6.775897
20.500000 6.894546
20.500000 7.014040
20.500000 7.134378
20.500000 7.255561
20.500000 7.377588
20.500000 7.500460
20.500000 7.624176
20.500000 7.748737
20.500000 7.874142
20.500000 8.000392
20.500000 8.127486
20.500000 8.255424
20.500000 8.384207
20.500000 8.513835
20.500000 8.644307
20.500000 8.775624
20.500000 8.907785
20.500000 9.040790
20.500000 9.174640
20.500000 9.309334
20.500000 9.444873
20.500000 9.581257
20.500000 9.718485
20.500000 9.856557
20.500000 9.995474
20.500000 10.135235
20.500000 10.275841
20.500000 10.417291
20.500000 10.559586
20.500000 10.702725
20.500000 10.846709
20.500000 10.991537
20.500000 11.137210
20.500000 11.283727
20.500000 11.431089
20.500000 11.579295
20.500000 11.728345
20.500000 11.878240
20.500000 12.028980
20.500000 12.180564
20.500000 12.332992
20.500000 12.486265
20.500000 12.640383
20.500000 12.795345
20.500000 12.951151
20.500000 13.107802
20.500000 13.265297
20.500000 13.423637
20.500000 13.582822
20.500000 13.742850
20.500000 13.903724
20.500000 14.065442
20.500000 14.228004
20.500000 14.391411
20.500000 14.555662
20.500000 14.720757
20.500000 14.886698
20.500000 15.053482
20.500000 15.221111
20.500000 15.389585
20.500000 15.558903
20.500000 15.729066
20.500000 15.900073
20.500000 16.071924
20.500000 16.244620
20.500000 16.418161
20.500000 16.592546
20.500000 16.767775
20.500000 16.943849
20.500000 17.120768
20.500000 17.298530
20.500000 17.477138
20.500000 17.656590
20.500000 17.836886
20.500000 18.018027
20.500000 18.200012
20.500000 18.382842
20.500000 18.566516
20.500000 18.751035
20.500000 18.936398
20.500000 19.122606
20.500000 19.309658
20.500000 19.497554
20.500000 19.686295
20.500000 19.875881
20.500000 20.066311
20.500000 20.257586
20.500000 20.449705
20.500000 20.642668
20.500000 20.836476
20.500000 21.031129
20.500000 21.226626
20.500000 21.422967
20.500000 21.620153
20.500000 21.818183
20.500000 22.017058
20.500000 22.216778
20.500000 22.417341
20.500000 22.618750
20.500000 22.821002
20.500000 23.024100
20.500000 23.228041
20.500000 23.432828
20.500000 23.638458
20.500000 23.844934
20.500000 24.052253
20.500000 24.260417
20.500000 24.469426
20.500000 24.679279
20.500000 24.889977
20.500000 25.101519
20.500000 25.313905
20.500000 25.527136
20.500000 25.741212
20.500000 25.956132
20.500000 26.171896
20.500000 26.388505
20.500000 26.605958
20.500000 26.824256
20.500000 27.043399
20.500000 27.263386
20.500000 27.484217
20.500000 27.705893
20.500000 27.928413
20.500000 28.151778
20.500000 28.375987
20.500000 28.601041
20.500000 28.826939
20.500000 29.053682
20.500000 29.281269
20.500000 29.509700
20.500000 29.738976
20.500000 29.969097
20.500000 30.200062
20.500000 30.431872
20.500000 30.664526
20.500000 30.898024
20.500000 31.132367
20.500000 31.367555
20.500000 31.603587
20.500000 31.840463
20.500000 32.078184
20.500000 32.316749
20.500000 32.556159
20.500000 32.796414
20.500000 33.037512
20.500000 33.279456
20.500000 33.522244
20.500000 33.765876
20.500000 34.010353
20.500000 34.255674
20.500000 34.501839
20.500000 34.748850
20.500000 34.996704
20.500000 35.245403
20.500000 35.494947
20.500000 35.745335
20.500000 35.996568
20.500000 36.248645
20.500000 36.501566
20.500000 36.755332
20.500000 37.009943
20.500000 37.265398
20.500000 37.521697
20.500000 37.778841
20.500000 38.036830
20.500000 38.295662
20.500000 38.555340
20.500000 38.815862
20.500000 39.077228
20.500000 39.339439
20.500000 39.602494
20.500000 39.866394
20.500000 40.131138
20.500000 40.396727
20.500000 40.663160
20.500000 40.930438
20.500000 41.198560
20.500000 41.467527
20.500000 41.737338
20.500000 42.007993
20.500000 42.279493
20.500000 42.551838
20.500000 42.825027
20.500000 43.099060
20.500000 43.373938
20.500000 43.649661
20.500000 43.926228
20.500000 44.203639
20.500000 44.481895
20.500000 44.760996
20.500000 45.040941
20.500000 45.321730
20.500000 45.603364
20.500000 45.885842
20.500000 46.169165
20.500000 46.453332
20.500000 46.738344
20.500000 47.024200
20.500000 47.310901
20.500000 47.598446
20.500000 47.886836
20.500000 48.176070
20.500000 48.466148
20.500000 48.757071
20.500000 49.048839
20.500000 49.341451
20.500000 49.634908
20.500000 49.929209
20.500000 50.224354
20.500000 50.520344
20.500000 50.817179
20.500000 51.114858
20.500000 51.413381
20.500000 51.712749
20.500000 52.012961
20.500000 52.314018
20.500000 52.615919
20.500000 52.918665
20.500000 53.222256
20.500000 53.526690
20.500000 53.831970
20.500000 54.138093
20.500000 54.445061
20.500000 54.752874
20.500000 55.061531
20.500000 55.371033
20.500000 55.681379
20.500000 55.992570
20.500000 56.304605
20.500000 56.617484
20.500000 56.931208
20.500000 57.245777
20.500000 57.561190
20.500000 57.877447
20.500000 58.194549
20.500000 58.512496
20.500000 58.831287
20.500000 59.150922
20.500000 59.471402
20.500000 59.792726
20.500000 60.114895
20.500000 60.437908
20.500000 60.761766
20.500000 61.086469
20.500000 61.412015
20.500000 61.738407
20.500000 62.065642
20.500000 62.393722
20.500000 62.722647
20.500000 63.052416
20.500000 63.383030
20.500000 63.714488
20.500000 64.046791
20.500000 64.379938
20.500000 64.713929
20.500000 65.048765
20.500000 65.384446
20.500000 65.720971
20.500000 66.058340
20.500000 66.396554
20.500000 66.735612
20.500000 67.075515
20.500000 67.416263
20.500000 67.757855
20.500000 68.100291
20.500000 68.443572
20.500000 68.787697
20.500000 69.132667
20.500000 69.478481
20.500000 69.825140
20.500000 70.172643
20.500000 70.520991
20.500000 70.870183
20.500000 71.220220
20.500000 71.571101
20.500000 71.922826
20.500000 72.275396
20.500000 72.628811
20.500000 72.983070
20.500000 73.338174
20.500000 73.694122
20.500000 74.050914
20.500000 74.408551
20.500000 74.767032
20.500000 75.126358
20.500000 75.486529
20.500000 75.847544
20.500000 76.209403
20.500000 76.572107
20.500000 76.935655
20.500000 77.300048
20.500000 77.665285
20.500000 78.031367
20.500000 78.398293
20.500000 78.766064
20.500000 79.134679
20.500000 79.504139
20.500000 79.874443
20.500000 80.245592
20.500000 80.617585
20.500000 80.990422
20.500000 81.364104
20.500000 81.738631
20.500000 82.114002
20.500000 82.490217
20.500000 82.867277
20.500000 83.245182
20.500000 83.623931
20.500000 84.003524
20.500000 84.383962
20.500000 84.765245
20.500000 85.147371
20.500000 85.530343
20.500000 85.914159
20.500000 86.298819
20.500000 86.684324
20.500000 87.070673
20.500000 87.457867
20.500000 87.845905
20.500000 88.234788
20.500000 88.624515
20.500000 89.015086
20.500000 89.406502
20.500000 89.798763
20.500000 90.191868
20.500000 90.585818
20.500000 90.980612
20.500000 91.376250
20.500000 91.772733
20.500000 92.170061
20.500000 92.568233
20.500000 92.967249
20.500000 93.367110
20.500000 93.767816
20.500000 94.169365
20.500000 94.571760
20.500000 94.974999
20.500000 95.379082
20.500000 95.784010
20.500000 96.189782
20.500000 96.596399
20.500000 97.003860
20.500000 97.412166
20.500000 97.821316
20.500000 98.231311
20.500000 98.642150
20.500000 99.053833
20.500000 99.466362
20.500000 99.879734
20.500000 100.293951
20.500000 100.709013
20.500000 101.124919
20.500000 101.541669
20.500000 101.959264
20.500000 102.377704
20.500000 102.796988
20.500000 103.217116
20.500000 103.638089
20.500000 104.059906
20.500000 104.482568
20.500000 104.906075
20.500000 105.330426
20.500000 105.755621
20.500000 106.181661
20.500000 106.608545
20.500000 107.036274
20.500000 107.464847
20.500000 107.894265
20.500000 108.324527
20.500000 108.755633
20.500000 109.187584
20.500000 109.620380
20.500000 110.054020
20.500000 110.488505
20.500000 110.923834
20.500000 111.360007
20.500000 111.797025
20.500000 112.234888
20.500000 112.673595
20.500000 113.113146
20.500000 113.553542
20.500000 113.994783
20.500000 114.436868
20.500000 114.879797
20.500000 115.323571
20.500000 115.768189
20.500000 116.213652
20.500000 116.659959
20.500000 117.107111
20.500000 117.555107
20.500000 118.003948
20.500000 118.453633
20.500000 118.904163
20.500000 119.355537
20.500000 119.807756
20.500000 120.260819
20.500000 120.714726
20.500000 121.169478
20.500000 121.625075
20.500000 122.081516
20.500000 122.538801
20.500000 122.996931
20.500000 123.455906
20.500000 123.915725
20.500000 124.376388
20.500000 124.837896
20.500000 125.300249
20.500000 125.763445
20.500000 126.227487
20.500000 126.692373
20.500000 127.158103
20.500000 127.624678
20.500000 128.092097
20.500000 128.560361
20.500000 129.029469
20.500000 129.499422
20.500000 129.970219
20.500000 130.441861
20.500000 130.914347
20.500000 131.387677
20.500000 131.861852
20.500000 132.336872
20.500000 132.812736
20.500000 133.289445
20.500000 133.766998
20.500000 134.245395
20.500000 134.724637
20.500000 135.204724
20.500000 135.685654
20.500000 136.167430
20.500000 136.650050
20.500000 137.133514
20.500000 137.617823
20.500000 138.102976
20.500000 138.588974
20.500000 139.075816
20.500000 139.563503
20.500000 140.052034
20.500000 140.541410
20.500000 141.031630
20.500000 141.522695
20.500000 142.014604
20.500000 142.507358
20.500000 143.000956
20.500000 143.495399
20.500000 143.990686
20.500000 144.486817
20.500000 144.983793
20.500000 145.481614
20.500000 145.980279
20.500000 146.479788
20.500000 146.980142
20.500000 147.481341
20.500000 147.983384
20.500000 148.486271
20.500000 148.990003
20.500000 149.494579
20.500000 150.000000
</POINTS>
</NEKTAR>

