<?xml version="1.0" encoding="utf-8" ?>
<NEKTAR>
<POINTS DIM="2" FIELDS="">
917.500000 0.000000
917.500000 0.000418
917.500000 0.001672
917.500000 0.003763
917.500000 0.006689
917.500000 0.010451
917.500000 0.015050
917.500000 0.020485
917.500000 0.026756
917.500000 0.033863
917.500000 0.041806
917.500000 0.050585
917.500000 0.060201
917.500000 0.070652
917.500000 0.081940
917.500000 0.094063
917.500000 0.107023
917.500000 0.120819
917.500000 0.135451
917.500000 0.150919
917.500000 0.167224
917.500000 0.184364
917.500000 0.202341
917.500000 0.221153
917.500000 0.240802
917.500000 0.261287
917.500000 0.282608
917.500000 0.304765
917.500000 0.327758
917.500000 0.351588
917.500000 0.376253
917.500000 0.401755
917.500000 0.428092
917.500000 0.455266
917.500000 0.483276
917.500000 0.512122
917.500000 0.541805
917.500000 0.572323
917.500000 0.603677
917.500000 0.635868
917.500000 0.668894
917.500000 0.702757
917.500000 0.737456
917.500000 0.772991
917.500000 0.809362
917.500000 0.846570
917.500000 0.884613
917.500000 0.923492
917.500000 0.963208
917.500000 1.003760
917.500000 1.045148
917.500000 1.087372
917.500000 1.130432
917.500000 1.174328
917.500000 1.219060
917.500000 1.264629
917.500000 1.311033
917.500000 1.358274
917.500000 1.406351
917.500000 1.455264
917.500000 1.505013
917.500000 1.555598
917.500000 1.607019
917.500000 1.659276
917.500000 1.712370
917.500000 1.766299
917.500000 1.821065
917.500000 1.876667
917.500000 1.933105
917.500000 1.990379
917.500000 2.048489
917.500000 2.107436
917.500000 2.167218
917.500000 2.227837
917.500000 2.289291
917.500000 2.351582
917.500000 2.414709
917.500000 2.478672
917.500000 2.543471
917.500000 2.609106
917.500000 2.675578
917.500000 2.742885
917.500000 2.811029
917.500000 2.880009
917.500000 2.949825
917.500000 3.020477
917.500000 3.091965
917.500000 3.164289
917.500000 3.237449
917.500000 3.311446
917.500000 3.386278
917.500000 3.461947
917.500000 3.538452
917.500000 3.615793
917.500000 3.693970
917.500000 3.772983
917.500000 3.852832
917.500000 3.933517
917.500000 4.015039
917.500000 4.097397
917.500000 4.180590
917.500000 4.264620
917.500000 4.349486
917.500000 4.435188
917.500000 4.521727
917.500000 4.609101
917.500000 4.697311
917.500000 4.786358
917.500000 4.876241
917.500000 4.966959
917.500000 5.058514
917.500000 5.150905
917.500000 5.244133
917.500000 5.338196
917.500000 5.433095
917.500000 5.528831
917.500000 5.625402
917.500000 5.722810
917.500000 5.821054
917.500000 5.920134
917.500000 6.020050
917.500000 6.120802
917.500000 6.222391
917.500000 6.324815
917.500000 6.428076
917.500000 6.532172
917.500000 6.637105
917.500000 6.742874
917.500000 6.849479
917.500000 6.956920
917.500000 7.065198
917.500000 7.174311
917.500000 7.284261
917.500000 7.395046
917.500000 7.506668
917.500000 7.619126
917.500000 7.732420
917.500000 7.846550
917.500000 7.961516
917.500000 8.077319
917.500000 8.193957
917.500000 8.311432
917.500000 8.429742
917.500000 8.548889
917.500000 8.668872
917.500000 8.789691
917.500000 8.911346
917.500000 9.033838
917.500000 9.157165
917.500000 9.281329
917.500000 9.406328
917.500000 9.532164
917.500000 9.658836
917.500000 9.786344
917.500000 9.914688
917.500000 10.043868
917.500000 10.173885
917.500000 10.304737
917.500000 10.436426
917.500000 10.568950
917.500000 10.702311
917.500000 10.836508
917.500000 10.971541
917.500000 11.107411
917.500000 11.244116
917.500000 11.381657
917.500000 11.520035
917.500000 11.659248
917.500000 11.799298
917.500000 11.940184
917.500000 12.081906
917.500000 12.224464
917.500000 12.367859
917.500000 12.512089
917.500000 12.657155
917.500000 12.803058
917.500000 12.949797
917.500000 13.097372
917.500000 13.245782
917.500000 13.395030
917.500000 13.545113
917.500000 13.696032
917.500000 13.847787
917.500000 14.000379
917.500000 14.153807
917.500000 14.308070
917.500000 14.463170
917.500000 14.619106
917.500000 14.775879
917.500000 14.933487
917.500000 15.091931
917.500000 15.251212
917.500000 15.411328
917.500000 15.572281
917.500000 15.734070
917.500000 15.896695
917.500000 16.060156
917.500000 16.224453
917.500000 16.389586
917.500000 16.555556
917.500000 16.722361
917.500000 16.890003
917.500000 17.058481
917.500000 17.227795
917.500000 17.397945
917.500000 17.568931
917.500000 17.740753
917.500000 17.913412
917.500000 18.086906
917.500000 18.261237
917.500000 18.436403
917.500000 18.612406
917.500000 18.789245
917.500000 18.966920
917.500000 19.145432
917.500000 19.324779
917.500000 19.504962
917.500000 19.685982
917.500000 19.867838
917.500000 20.050529
917.500000 20.234057
917.500000 20.418421
917.500000 20.603622
917.500000 20.789658
917.500000 20.976530
917.500000 21.164239
917.500000 21.352783
917.500000 21.542164
917.500000 21.732381
917.500000 21.923434
917.500000 22.115323
917.500000 22.308048
917.500000 22.501610
917.500000 22.696007
917.500000 22.891241
917.500000 23.087310
917.500000 23.284216
917.500000 23.481958
917.500000 23.680536
917.500000 23.879950
917.500000 24.080200
917.500000 24.281287
917.500000 24.483209
917.500000 24.685968
917.500000 24.889563
917.500000 25.093994
917.500000 25.299261
917.500000 25.505364
917.500000 25.712303
917.500000 25.920078
917.500000 26.128690
917.500000 26.338137
917.500000 26.548421
917.500000 26.759541
917.500000 26.971497
917.500000 27.184289
917.500000 27.397917
917.500000 27.612381
917.500000 27.827682
917.500000 28.043818
917.500000 28.260791
917.500000 28.478600
917.500000 28.697244
917.500000 28.916725
917.500000 29.137043
917.500000 29.358196
917.500000 29.580185
917.500000 29.803011
917.500000 30.026672
917.500000 30.251170
917.500000 30.476504
917.500000 30.702674
917.500000 30.929680
917.500000 31.157522
917.500000 31.386200
917.500000 31.615715
917.500000 31.846065
917.500000 32.077252
917.500000 32.309275
917.500000 32.542133
917.500000 32.775828
917.500000 33.010360
917.500000 33.245727
917.500000 33.481930
917.500000 33.718970
917.500000 33.956845
917.500000 34.195557
917.500000 34.435105
917.500000 34.675489
917.500000 34.916709
917.500000 35.158765
917.500000 35.401657
917.500000 35.645386
917.500000 35.889950
917.500000 36.135351
917.500000 36.381588
917.500000 36.628660
917.500000 36.876569
917.500000 37.125315
917.500000 37.374896
917.500000 37.625313
917.500000 37.876567
917.500000 38.128656
917.500000 38.381582
917.500000 38.635344
917.500000 38.889942
917.500000 39.145376
917.500000 39.401646
917.500000 39.658752
917.500000 39.916695
917.500000 40.175473
917.500000 40.435088
917.500000 40.695539
917.500000 40.956826
917.500000 41.218949
917.500000 41.481908
917.500000 41.745703
917.500000 42.010334
917.500000 42.275802
917.500000 42.542106
917.500000 42.809245
917.500000 43.077221
917.500000 43.346033
917.500000 43.615681
917.500000 43.886165
917.500000 44.157486
917.500000 44.429642
917.500000 44.702635
917.500000 44.976463
917.500000 45.251128
917.500000 45.526629
917.500000 45.802966
917.500000 46.080139
917.500000 46.358148
917.500000 46.636994
917.500000 46.916675
917.500000 47.197193
917.500000 47.478547
917.500000 47.760736
917.500000 48.043762
917.500000 48.327625
917.500000 48.612323
917.500000 48.897857
917.500000 49.184227
917.500000 49.471434
917.500000 49.759477
917.500000 50.048355
917.500000 50.338070
917.500000 50.628621
917.500000 50.920009
917.500000 51.212232
917.500000 51.505291
917.500000 51.799187
917.500000 52.093918
917.500000 52.389486
917.500000 52.685890
917.500000 52.983130
917.500000 53.281206
917.500000 53.580118
917.500000 53.879867
917.500000 54.180451
917.500000 54.481872
917.500000 54.784128
917.500000 55.087221
917.500000 55.391150
917.500000 55.695915
917.500000 56.001516
917.500000 56.307953
917.500000 56.615227
917.500000 56.923336
917.500000 57.232282
917.500000 57.542064
917.500000 57.852682
917.500000 58.164136
917.500000 58.476426
917.500000 58.789552
917.500000 59.103514
917.500000 59.418313
917.500000 59.733947
917.500000 60.050418
917.500000 60.367725
917.500000 60.685868
917.500000 61.004847
917.500000 61.324662
917.500000 61.645313
917.500000 61.966801
917.500000 62.289124
917.500000 62.612284
917.500000 62.936279
917.500000 63.261111
917.500000 63.586779
917.500000 63.913283
917.500000 64.240624
917.500000 64.568800
917.500000 64.897812
917.500000 65.227661
917.500000 65.558346
917.500000 65.889867
917.500000 66.222223
917.500000 66.555417
917.500000 66.889446
917.500000 67.224311
917.500000 67.560012
917.500000 67.896550
917.500000 68.233924
917.500000 68.572133
917.500000 68.911179
917.500000 69.251061
917.500000 69.591779
917.500000 69.933334
917.500000 70.275724
917.500000 70.618950
917.500000 70.963013
917.500000 71.307912
917.500000 71.653646
917.500000 72.000217
917.500000 72.347624
917.500000 72.695868
917.500000 73.044947
917.500000 73.394862
917.500000 73.745614
917.500000 74.097202
917.500000 74.449625
917.500000 74.802885
917.500000 75.156981
917.500000 75.511913
917.500000 75.867682
917.500000 76.224286
917.500000 76.581726
917.500000 76.940003
917.500000 77.299116
917.500000 77.659064
917.500000 78.019849
917.500000 78.381471
917.500000 78.743928
917.500000 79.107221
917.500000 79.471350
917.500000 79.836316
917.500000 80.202118
917.500000 80.568755
917.500000 80.936229
917.500000 81.304539
917.500000 81.673685
917.500000 82.043668
917.500000 82.414486
917.500000 82.786141
917.500000 83.158631
917.500000 83.531958
917.500000 83.906121
917.500000 84.281120
917.500000 84.656955
917.500000 85.033626
917.500000 85.411133
917.500000 85.789477
917.500000 86.168656
917.500000 86.548672
917.500000 86.929524
917.500000 87.311212
917.500000 87.693736
917.500000 88.077096
917.500000 88.461292
917.500000 88.846324
917.500000 89.232193
917.500000 89.618897
917.500000 90.006438
917.500000 90.394815
917.500000 90.784028
917.500000 91.174077
917.500000 91.564962
917.500000 91.956684
917.500000 92.349241
917.500000 92.742634
917.500000 93.136864
917.500000 93.531930
917.500000 93.927832
917.500000 94.324570
917.500000 94.722144
917.500000 95.120554
917.500000 95.519801
917.500000 95.919883
917.500000 96.320802
917.500000 96.722557
917.500000 97.125147
917.500000 97.528574
917.500000 97.932837
917.500000 98.337937
917.500000 98.743872
917.500000 99.150643
917.500000 99.558251
917.500000 99.966695
917.500000 100.375974
917.500000 100.786090
917.500000 101.197042
917.500000 101.608831
917.500000 102.021455
917.500000 102.434915
917.500000 102.849212
917.500000 103.264344
917.500000 103.680313
917.500000 104.097118
917.500000 104.514759
917.500000 104.933236
917.500000 105.352549
917.500000 105.772699
917.500000 106.193684
917.500000 106.615506
917.500000 107.038163
917.500000 107.461657
917.500000 107.885987
917.500000 108.311153
917.500000 108.737155
917.500000 109.163993
917.500000 109.591668
917.500000 110.020178
917.500000 110.449525
917.500000 110.879708
917.500000 111.310727
917.500000 111.742582
917.500000 112.175273
917.500000 112.608800
917.500000 113.043163
917.500000 113.478363
917.500000 113.914398
917.500000 114.351270
917.500000 114.788978
917.500000 115.227522
917.500000 115.666902
917.500000 116.107118
917.500000 116.548170
917.500000 116.990059
917.500000 117.432783
917.500000 117.876344
917.500000 118.320740
917.500000 118.765973
917.500000 119.212042
917.500000 119.658947
917.500000 120.106689
917.500000 120.555266
917.500000 121.004679
917.500000 121.454929
917.500000 121.906015
917.500000 122.357937
917.500000 122.810695
917.500000 123.264289
917.500000 123.718719
917.500000 124.173985
917.500000 124.630087
917.500000 125.087026
917.500000 125.544801
917.500000 126.003411
917.500000 126.462858
917.500000 126.923141
917.500000 127.384260
917.500000 127.846216
917.500000 128.309007
917.500000 128.772634
917.500000 129.237098
917.500000 129.702398
917.500000 130.168534
917.500000 130.635505
917.500000 131.103314
917.500000 131.571958
917.500000 132.041438
917.500000 132.511754
917.500000 132.982907
917.500000 133.454896
917.500000 133.927720
917.500000 134.401381
917.500000 134.875878
917.500000 135.351211
917.500000 135.827381
917.500000 136.304386
917.500000 136.782227
917.500000 137.260905
917.500000 137.740419
917.500000 138.220769
917.500000 138.701955
917.500000 139.183977
917.500000 139.666835
917.500000 140.150529
917.500000 140.635060
917.500000 141.120426
917.500000 141.606629
917.500000 142.093668
917.500000 142.581542
917.500000 143.070253
917.500000 143.559801
917.500000 144.050184
917.500000 144.541403
917.500000 145.033459
917.500000 145.526350
917.500000 146.020078
917.500000 146.514642
917.500000 147.010042
917.500000 147.506278
917.500000 148.003350
917.500000 148.501258
917.500000 149.000003
917.500000 149.499583
917.500000 150.000000
</POINTS>
</NEKTAR>

