<?xml version="1.0" encoding="utf-8" ?>
<NEKTAR>
<POINTS DIM="2" FIELDS="">
637.500000 0.000000
637.500000 0.000418
637.500000 0.001672
637.500000 0.003763
637.500000 0.006689
637.500000 0.010451
637.500000 0.015050
637.500000 0.020485
637.500000 0.026756
637.500000 0.033863
637.500000 0.041806
637.500000 0.050585
637.500000 0.060201
637.500000 0.070652
637.500000 0.081940
637.500000 0.094063
637.500000 0.107023
637.500000 0.120819
637.500000 0.135451
637.500000 0.150919
637.500000 0.167224
637.500000 0.184364
637.500000 0.202341
637.500000 0.221153
637.500000 0.240802
637.500000 0.261287
637.500000 0.282608
637.500000 0.304765
637.500000 0.327758
637.500000 0.351588
637.500000 0.376253
637.500000 0.401755
637.500000 0.428092
637.500000 0.455266
637.500000 0.483276
637.500000 0.512122
637.500000 0.541805
637.500000 0.572323
637.500000 0.603677
637.500000 0.635868
637.500000 0.668894
637.500000 0.702757
637.500000 0.737456
637.500000 0.772991
637.500000 0.809362
637.500000 0.846570
637.500000 0.884613
637.500000 0.923492
637.500000 0.963208
637.500000 1.003760
637.500000 1.045148
637.500000 1.087372
637.500000 1.130432
637.500000 1.174328
637.500000 1.219060
637.500000 1.264629
637.500000 1.311033
637.500000 1.358274
637.500000 1.406351
637.500000 1.455264
637.500000 1.505013
637.500000 1.555598
637.500000 1.607019
637.500000 1.659276
637.500000 1.712370
637.500000 1.766299
637.500000 1.821065
637.500000 1.876667
637.500000 1.933105
637.500000 1.990379
637.500000 2.048489
637.500000 2.107436
637.500000 2.167218
637.500000 2.227837
637.500000 2.289291
637.500000 2.351582
637.500000 2.414709
637.500000 2.478672
637.500000 2.543471
637.500000 2.609106
637.500000 2.675578
637.500000 2.742885
637.500000 2.811029
637.500000 2.880009
637.500000 2.949825
637.500000 3.020477
637.500000 3.091965
637.500000 3.164289
637.500000 3.237449
637.500000 3.311446
637.500000 3.386278
637.500000 3.461947
637.500000 3.538452
637.500000 3.615793
637.500000 3.693970
637.500000 3.772983
637.500000 3.852832
637.500000 3.933517
637.500000 4.015039
637.500000 4.097397
637.500000 4.180590
637.500000 4.264620
637.500000 4.349486
637.500000 4.435188
637.500000 4.521727
637.500000 4.609101
637.500000 4.697311
637.500000 4.786358
637.500000 4.876241
637.500000 4.966959
637.500000 5.058514
637.500000 5.150905
637.500000 5.244133
637.500000 5.338196
637.500000 5.433095
637.500000 5.528831
637.500000 5.625402
637.500000 5.722810
637.500000 5.821054
637.500000 5.920134
637.500000 6.020050
637.500000 6.120802
637.500000 6.222391
637.500000 6.324815
637.500000 6.428076
637.500000 6.532172
637.500000 6.637105
637.500000 6.742874
637.500000 6.849479
637.500000 6.956920
637.500000 7.065198
637.500000 7.174311
637.500000 7.284261
637.500000 7.395046
637.500000 7.506668
637.500000 7.619126
637.500000 7.732420
637.500000 7.846550
637.500000 7.961516
637.500000 8.077319
637.500000 8.193957
637.500000 8.311432
637.500000 8.429742
637.500000 8.548889
637.500000 8.668872
637.500000 8.789691
637.500000 8.911346
637.500000 9.033838
637.500000 9.157165
637.500000 9.281329
637.500000 9.406328
637.500000 9.532164
637.500000 9.658836
637.500000 9.786344
637.500000 9.914688
637.500000 10.043868
637.500000 10.173885
637.500000 10.304737
637.500000 10.436426
637.500000 10.568950
637.500000 10.702311
637.500000 10.836508
637.500000 10.971541
637.500000 11.107411
637.500000 11.244116
637.500000 11.381657
637.500000 11.520035
637.500000 11.659248
637.500000 11.799298
637.500000 11.940184
637.500000 12.081906
637.500000 12.224464
637.500000 12.367859
637.500000 12.512089
637.500000 12.657155
637.500000 12.803058
637.500000 12.949797
637.500000 13.097372
637.500000 13.245782
637.500000 13.395030
637.500000 13.545113
637.500000 13.696032
637.500000 13.847787
637.500000 14.000379
637.500000 14.153807
637.500000 14.308070
637.500000 14.463170
637.500000 14.619106
637.500000 14.775879
637.500000 14.933487
637.500000 15.091931
637.500000 15.251212
637.500000 15.411328
637.500000 15.572281
637.500000 15.734070
637.500000 15.896695
637.500000 16.060156
637.500000 16.224453
637.500000 16.389586
637.500000 16.555556
637.500000 16.722361
637.500000 16.890003
637.500000 17.058481
637.500000 17.227795
637.500000 17.397945
637.500000 17.568931
637.500000 17.740753
637.500000 17.913412
637.500000 18.086906
637.500000 18.261237
637.500000 18.436403
637.500000 18.612406
637.500000 18.789245
637.500000 18.966920
637.500000 19.145432
637.500000 19.324779
637.500000 19.504962
637.500000 19.685982
637.500000 19.867838
637.500000 20.050529
637.500000 20.234057
637.500000 20.418421
637.500000 20.603622
637.500000 20.789658
637.500000 20.976530
637.500000 21.164239
637.500000 21.352783
637.500000 21.542164
637.500000 21.732381
637.500000 21.923434
637.500000 22.115323
637.500000 22.308048
637.500000 22.501610
637.500000 22.696007
637.500000 22.891241
637.500000 23.087310
637.500000 23.284216
637.500000 23.481958
637.500000 23.680536
637.500000 23.879950
637.500000 24.080200
637.500000 24.281287
637.500000 24.483209
637.500000 24.685968
637.500000 24.889563
637.500000 25.093994
637.500000 25.299261
637.500000 25.505364
637.500000 25.712303
637.500000 25.920078
637.500000 26.128690
637.500000 26.338137
637.500000 26.548421
637.500000 26.759541
637.500000 26.971497
637.500000 27.184289
637.500000 27.397917
637.500000 27.612381
637.500000 27.827682
637.500000 28.043818
637.500000 28.260791
637.500000 28.478600
637.500000 28.697244
637.500000 28.916725
637.500000 29.137043
637.500000 29.358196
637.500000 29.580185
637.500000 29.803011
637.500000 30.026672
637.500000 30.251170
637.500000 30.476504
637.500000 30.702674
637.500000 30.929680
637.500000 31.157522
637.500000 31.386200
637.500000 31.615715
637.500000 31.846065
637.500000 32.077252
637.500000 32.309275
637.500000 32.542133
637.500000 32.775828
637.500000 33.010360
637.500000 33.245727
637.500000 33.481930
637.500000 33.718970
637.500000 33.956845
637.500000 34.195557
637.500000 34.435105
637.500000 34.675489
637.500000 34.916709
637.500000 35.158765
637.500000 35.401657
637.500000 35.645386
637.500000 35.889950
637.500000 36.135351
637.500000 36.381588
637.500000 36.628660
637.500000 36.876569
637.500000 37.125315
637.500000 37.374896
637.500000 37.625313
637.500000 37.876567
637.500000 38.128656
637.500000 38.381582
637.500000 38.635344
637.500000 38.889942
637.500000 39.145376
637.500000 39.401646
637.500000 39.658752
637.500000 39.916695
637.500000 40.175473
637.500000 40.435088
637.500000 40.695539
637.500000 40.956826
637.500000 41.218949
637.500000 41.481908
637.500000 41.745703
637.500000 42.010334
637.500000 42.275802
637.500000 42.542106
637.500000 42.809245
637.500000 43.077221
637.500000 43.346033
637.500000 43.615681
637.500000 43.886165
637.500000 44.157486
637.500000 44.429642
637.500000 44.702635
637.500000 44.976463
637.500000 45.251128
637.500000 45.526629
637.500000 45.802966
637.500000 46.080139
637.500000 46.358148
637.500000 46.636994
637.500000 46.916675
637.500000 47.197193
637.500000 47.478547
637.500000 47.760736
637.500000 48.043762
637.500000 48.327625
637.500000 48.612323
637.500000 48.897857
637.500000 49.184227
637.500000 49.471434
637.500000 49.759477
637.500000 50.048355
637.500000 50.338070
637.500000 50.628621
637.500000 50.920009
637.500000 51.212232
637.500000 51.505291
637.500000 51.799187
637.500000 52.093918
637.500000 52.389486
637.500000 52.685890
637.500000 52.983130
637.500000 53.281206
637.500000 53.580118
637.500000 53.879867
637.500000 54.180451
637.500000 54.481872
637.500000 54.784128
637.500000 55.087221
637.500000 55.391150
637.500000 55.695915
637.500000 56.001516
637.500000 56.307953
637.500000 56.615227
637.500000 56.923336
637.500000 57.232282
637.500000 57.542064
637.500000 57.852682
637.500000 58.164136
637.500000 58.476426
637.500000 58.789552
637.500000 59.103514
637.500000 59.418313
637.500000 59.733947
637.500000 60.050418
637.500000 60.367725
637.500000 60.685868
637.500000 61.004847
637.500000 61.324662
637.500000 61.645313
637.500000 61.966801
637.500000 62.289124
637.500000 62.612284
637.500000 62.936279
637.500000 63.261111
637.500000 63.586779
637.500000 63.913283
637.500000 64.240624
637.500000 64.568800
637.500000 64.897812
637.500000 65.227661
637.500000 65.558346
637.500000 65.889867
637.500000 66.222223
637.500000 66.555417
637.500000 66.889446
637.500000 67.224311
637.500000 67.560012
637.500000 67.896550
637.500000 68.233924
637.500000 68.572133
637.500000 68.911179
637.500000 69.251061
637.500000 69.591779
637.500000 69.933334
637.500000 70.275724
637.500000 70.618950
637.500000 70.963013
637.500000 71.307912
637.500000 71.653646
637.500000 72.000217
637.500000 72.347624
637.500000 72.695868
637.500000 73.044947
637.500000 73.394862
637.500000 73.745614
637.500000 74.097202
637.500000 74.449625
637.500000 74.802885
637.500000 75.156981
637.500000 75.511913
637.500000 75.867682
637.500000 76.224286
637.500000 76.581726
637.500000 76.940003
637.500000 77.299116
637.500000 77.659064
637.500000 78.019849
637.500000 78.381471
637.500000 78.743928
637.500000 79.107221
637.500000 79.471350
637.500000 79.836316
637.500000 80.202118
637.500000 80.568755
637.500000 80.936229
637.500000 81.304539
637.500000 81.673685
637.500000 82.043668
637.500000 82.414486
637.500000 82.786141
637.500000 83.158631
637.500000 83.531958
637.500000 83.906121
637.500000 84.281120
637.500000 84.656955
637.500000 85.033626
637.500000 85.411133
637.500000 85.789477
637.500000 86.168656
637.500000 86.548672
637.500000 86.929524
637.500000 87.311212
637.500000 87.693736
637.500000 88.077096
637.500000 88.461292
637.500000 88.846324
637.500000 89.232193
637.500000 89.618897
637.500000 90.006438
637.500000 90.394815
637.500000 90.784028
637.500000 91.174077
637.500000 91.564962
637.500000 91.956684
637.500000 92.349241
637.500000 92.742634
637.500000 93.136864
637.500000 93.531930
637.500000 93.927832
637.500000 94.324570
637.500000 94.722144
637.500000 95.120554
637.500000 95.519801
637.500000 95.919883
637.500000 96.320802
637.500000 96.722557
637.500000 97.125147
637.500000 97.528574
637.500000 97.932837
637.500000 98.337937
637.500000 98.743872
637.500000 99.150643
637.500000 99.558251
637.500000 99.966695
637.500000 100.375974
637.500000 100.786090
637.500000 101.197042
637.500000 101.608831
637.500000 102.021455
637.500000 102.434915
637.500000 102.849212
637.500000 103.264344
637.500000 103.680313
637.500000 104.097118
637.500000 104.514759
637.500000 104.933236
637.500000 105.352549
637.500000 105.772699
637.500000 106.193684
637.500000 106.615506
637.500000 107.038163
637.500000 107.461657
637.500000 107.885987
637.500000 108.311153
637.500000 108.737155
637.500000 109.163993
637.500000 109.591668
637.500000 110.020178
637.500000 110.449525
637.500000 110.879708
637.500000 111.310727
637.500000 111.742582
637.500000 112.175273
637.500000 112.608800
637.500000 113.043163
637.500000 113.478363
637.500000 113.914398
637.500000 114.351270
637.500000 114.788978
637.500000 115.227522
637.500000 115.666902
637.500000 116.107118
637.500000 116.548170
637.500000 116.990059
637.500000 117.432783
637.500000 117.876344
637.500000 118.320740
637.500000 118.765973
637.500000 119.212042
637.500000 119.658947
637.500000 120.106689
637.500000 120.555266
637.500000 121.004679
637.500000 121.454929
637.500000 121.906015
637.500000 122.357937
637.500000 122.810695
637.500000 123.264289
637.500000 123.718719
637.500000 124.173985
637.500000 124.630087
637.500000 125.087026
637.500000 125.544801
637.500000 126.003411
637.500000 126.462858
637.500000 126.923141
637.500000 127.384260
637.500000 127.846216
637.500000 128.309007
637.500000 128.772634
637.500000 129.237098
637.500000 129.702398
637.500000 130.168534
637.500000 130.635505
637.500000 131.103314
637.500000 131.571958
637.500000 132.041438
637.500000 132.511754
637.500000 132.982907
637.500000 133.454896
637.500000 133.927720
637.500000 134.401381
637.500000 134.875878
637.500000 135.351211
637.500000 135.827381
637.500000 136.304386
637.500000 136.782227
637.500000 137.260905
637.500000 137.740419
637.500000 138.220769
637.500000 138.701955
637.500000 139.183977
637.500000 139.666835
637.500000 140.150529
637.500000 140.635060
637.500000 141.120426
637.500000 141.606629
637.500000 142.093668
637.500000 142.581542
637.500000 143.070253
637.500000 143.559801
637.500000 144.050184
637.500000 144.541403
637.500000 145.033459
637.500000 145.526350
637.500000 146.020078
637.500000 146.514642
637.500000 147.010042
637.500000 147.506278
637.500000 148.003350
637.500000 148.501258
637.500000 149.000003
637.500000 149.499583
637.500000 150.000000
</POINTS>
</NEKTAR>

