<?xml version="1.0" encoding="utf-8" ?>
<NEKTAR>
<POINTS DIM="2" FIELDS="">
657.500000 0.000000
657.500000 0.000418
657.500000 0.001672
657.500000 0.003763
657.500000 0.006689
657.500000 0.010451
657.500000 0.015050
657.500000 0.020485
657.500000 0.026756
657.500000 0.033863
657.500000 0.041806
657.500000 0.050585
657.500000 0.060201
657.500000 0.070652
657.500000 0.081940
657.500000 0.094063
657.500000 0.107023
657.500000 0.120819
657.500000 0.135451
657.500000 0.150919
657.500000 0.167224
657.500000 0.184364
657.500000 0.202341
657.500000 0.221153
657.500000 0.240802
657.500000 0.261287
657.500000 0.282608
657.500000 0.304765
657.500000 0.327758
657.500000 0.351588
657.500000 0.376253
657.500000 0.401755
657.500000 0.428092
657.500000 0.455266
657.500000 0.483276
657.500000 0.512122
657.500000 0.541805
657.500000 0.572323
657.500000 0.603677
657.500000 0.635868
657.500000 0.668894
657.500000 0.702757
657.500000 0.737456
657.500000 0.772991
657.500000 0.809362
657.500000 0.846570
657.500000 0.884613
657.500000 0.923492
657.500000 0.963208
657.500000 1.003760
657.500000 1.045148
657.500000 1.087372
657.500000 1.130432
657.500000 1.174328
657.500000 1.219060
657.500000 1.264629
657.500000 1.311033
657.500000 1.358274
657.500000 1.406351
657.500000 1.455264
657.500000 1.505013
657.500000 1.555598
657.500000 1.607019
657.500000 1.659276
657.500000 1.712370
657.500000 1.766299
657.500000 1.821065
657.500000 1.876667
657.500000 1.933105
657.500000 1.990379
657.500000 2.048489
657.500000 2.107436
657.500000 2.167218
657.500000 2.227837
657.500000 2.289291
657.500000 2.351582
657.500000 2.414709
657.500000 2.478672
657.500000 2.543471
657.500000 2.609106
657.500000 2.675578
657.500000 2.742885
657.500000 2.811029
657.500000 2.880009
657.500000 2.949825
657.500000 3.020477
657.500000 3.091965
657.500000 3.164289
657.500000 3.237449
657.500000 3.311446
657.500000 3.386278
657.500000 3.461947
657.500000 3.538452
657.500000 3.615793
657.500000 3.693970
657.500000 3.772983
657.500000 3.852832
657.500000 3.933517
657.500000 4.015039
657.500000 4.097397
657.500000 4.180590
657.500000 4.264620
657.500000 4.349486
657.500000 4.435188
657.500000 4.521727
657.500000 4.609101
657.500000 4.697311
657.500000 4.786358
657.500000 4.876241
657.500000 4.966959
657.500000 5.058514
657.500000 5.150905
657.500000 5.244133
657.500000 5.338196
657.500000 5.433095
657.500000 5.528831
657.500000 5.625402
657.500000 5.722810
657.500000 5.821054
657.500000 5.920134
657.500000 6.020050
657.500000 6.120802
657.500000 6.222391
657.500000 6.324815
657.500000 6.428076
657.500000 6.532172
657.500000 6.637105
657.500000 6.742874
657.500000 6.849479
657.500000 6.956920
657.500000 7.065198
657.500000 7.174311
657.500000 7.284261
657.500000 7.395046
657.500000 7.506668
657.500000 7.619126
657.500000 7.732420
657.500000 7.846550
657.500000 7.961516
657.500000 8.077319
657.500000 8.193957
657.500000 8.311432
657.500000 8.429742
657.500000 8.548889
657.500000 8.668872
657.500000 8.789691
657.500000 8.911346
657.500000 9.033838
657.500000 9.157165
657.500000 9.281329
657.500000 9.406328
657.500000 9.532164
657.500000 9.658836
657.500000 9.786344
657.500000 9.914688
657.500000 10.043868
657.500000 10.173885
657.500000 10.304737
657.500000 10.436426
657.500000 10.568950
657.500000 10.702311
657.500000 10.836508
657.500000 10.971541
657.500000 11.107411
657.500000 11.244116
657.500000 11.381657
657.500000 11.520035
657.500000 11.659248
657.500000 11.799298
657.500000 11.940184
657.500000 12.081906
657.500000 12.224464
657.500000 12.367859
657.500000 12.512089
657.500000 12.657155
657.500000 12.803058
657.500000 12.949797
657.500000 13.097372
657.500000 13.245782
657.500000 13.395030
657.500000 13.545113
657.500000 13.696032
657.500000 13.847787
657.500000 14.000379
657.500000 14.153807
657.500000 14.308070
657.500000 14.463170
657.500000 14.619106
657.500000 14.775879
657.500000 14.933487
657.500000 15.091931
657.500000 15.251212
657.500000 15.411328
657.500000 15.572281
657.500000 15.734070
657.500000 15.896695
657.500000 16.060156
657.500000 16.224453
657.500000 16.389586
657.500000 16.555556
657.500000 16.722361
657.500000 16.890003
657.500000 17.058481
657.500000 17.227795
657.500000 17.397945
657.500000 17.568931
657.500000 17.740753
657.500000 17.913412
657.500000 18.086906
657.500000 18.261237
657.500000 18.436403
657.500000 18.612406
657.500000 18.789245
657.500000 18.966920
657.500000 19.145432
657.500000 19.324779
657.500000 19.504962
657.500000 19.685982
657.500000 19.867838
657.500000 20.050529
657.500000 20.234057
657.500000 20.418421
657.500000 20.603622
657.500000 20.789658
657.500000 20.976530
657.500000 21.164239
657.500000 21.352783
657.500000 21.542164
657.500000 21.732381
657.500000 21.923434
657.500000 22.115323
657.500000 22.308048
657.500000 22.501610
657.500000 22.696007
657.500000 22.891241
657.500000 23.087310
657.500000 23.284216
657.500000 23.481958
657.500000 23.680536
657.500000 23.879950
657.500000 24.080200
657.500000 24.281287
657.500000 24.483209
657.500000 24.685968
657.500000 24.889563
657.500000 25.093994
657.500000 25.299261
657.500000 25.505364
657.500000 25.712303
657.500000 25.920078
657.500000 26.128690
657.500000 26.338137
657.500000 26.548421
657.500000 26.759541
657.500000 26.971497
657.500000 27.184289
657.500000 27.397917
657.500000 27.612381
657.500000 27.827682
657.500000 28.043818
657.500000 28.260791
657.500000 28.478600
657.500000 28.697244
657.500000 28.916725
657.500000 29.137043
657.500000 29.358196
657.500000 29.580185
657.500000 29.803011
657.500000 30.026672
657.500000 30.251170
657.500000 30.476504
657.500000 30.702674
657.500000 30.929680
657.500000 31.157522
657.500000 31.386200
657.500000 31.615715
657.500000 31.846065
657.500000 32.077252
657.500000 32.309275
657.500000 32.542133
657.500000 32.775828
657.500000 33.010360
657.500000 33.245727
657.500000 33.481930
657.500000 33.718970
657.500000 33.956845
657.500000 34.195557
657.500000 34.435105
657.500000 34.675489
657.500000 34.916709
657.500000 35.158765
657.500000 35.401657
657.500000 35.645386
657.500000 35.889950
657.500000 36.135351
657.500000 36.381588
657.500000 36.628660
657.500000 36.876569
657.500000 37.125315
657.500000 37.374896
657.500000 37.625313
657.500000 37.876567
657.500000 38.128656
657.500000 38.381582
657.500000 38.635344
657.500000 38.889942
657.500000 39.145376
657.500000 39.401646
657.500000 39.658752
657.500000 39.916695
657.500000 40.175473
657.500000 40.435088
657.500000 40.695539
657.500000 40.956826
657.500000 41.218949
657.500000 41.481908
657.500000 41.745703
657.500000 42.010334
657.500000 42.275802
657.500000 42.542106
657.500000 42.809245
657.500000 43.077221
657.500000 43.346033
657.500000 43.615681
657.500000 43.886165
657.500000 44.157486
657.500000 44.429642
657.500000 44.702635
657.500000 44.976463
657.500000 45.251128
657.500000 45.526629
657.500000 45.802966
657.500000 46.080139
657.500000 46.358148
657.500000 46.636994
657.500000 46.916675
657.500000 47.197193
657.500000 47.478547
657.500000 47.760736
657.500000 48.043762
657.500000 48.327625
657.500000 48.612323
657.500000 48.897857
657.500000 49.184227
657.500000 49.471434
657.500000 49.759477
657.500000 50.048355
657.500000 50.338070
657.500000 50.628621
657.500000 50.920009
657.500000 51.212232
657.500000 51.505291
657.500000 51.799187
657.500000 52.093918
657.500000 52.389486
657.500000 52.685890
657.500000 52.983130
657.500000 53.281206
657.500000 53.580118
657.500000 53.879867
657.500000 54.180451
657.500000 54.481872
657.500000 54.784128
657.500000 55.087221
657.500000 55.391150
657.500000 55.695915
657.500000 56.001516
657.500000 56.307953
657.500000 56.615227
657.500000 56.923336
657.500000 57.232282
657.500000 57.542064
657.500000 57.852682
657.500000 58.164136
657.500000 58.476426
657.500000 58.789552
657.500000 59.103514
657.500000 59.418313
657.500000 59.733947
657.500000 60.050418
657.500000 60.367725
657.500000 60.685868
657.500000 61.004847
657.500000 61.324662
657.500000 61.645313
657.500000 61.966801
657.500000 62.289124
657.500000 62.612284
657.500000 62.936279
657.500000 63.261111
657.500000 63.586779
657.500000 63.913283
657.500000 64.240624
657.500000 64.568800
657.500000 64.897812
657.500000 65.227661
657.500000 65.558346
657.500000 65.889867
657.500000 66.222223
657.500000 66.555417
657.500000 66.889446
657.500000 67.224311
657.500000 67.560012
657.500000 67.896550
657.500000 68.233924
657.500000 68.572133
657.500000 68.911179
657.500000 69.251061
657.500000 69.591779
657.500000 69.933334
657.500000 70.275724
657.500000 70.618950
657.500000 70.963013
657.500000 71.307912
657.500000 71.653646
657.500000 72.000217
657.500000 72.347624
657.500000 72.695868
657.500000 73.044947
657.500000 73.394862
657.500000 73.745614
657.500000 74.097202
657.500000 74.449625
657.500000 74.802885
657.500000 75.156981
657.500000 75.511913
657.500000 75.867682
657.500000 76.224286
657.500000 76.581726
657.500000 76.940003
657.500000 77.299116
657.500000 77.659064
657.500000 78.019849
657.500000 78.381471
657.500000 78.743928
657.500000 79.107221
657.500000 79.471350
657.500000 79.836316
657.500000 80.202118
657.500000 80.568755
657.500000 80.936229
657.500000 81.304539
657.500000 81.673685
657.500000 82.043668
657.500000 82.414486
657.500000 82.786141
657.500000 83.158631
657.500000 83.531958
657.500000 83.906121
657.500000 84.281120
657.500000 84.656955
657.500000 85.033626
657.500000 85.411133
657.500000 85.789477
657.500000 86.168656
657.500000 86.548672
657.500000 86.929524
657.500000 87.311212
657.500000 87.693736
657.500000 88.077096
657.500000 88.461292
657.500000 88.846324
657.500000 89.232193
657.500000 89.618897
657.500000 90.006438
657.500000 90.394815
657.500000 90.784028
657.500000 91.174077
657.500000 91.564962
657.500000 91.956684
657.500000 92.349241
657.500000 92.742634
657.500000 93.136864
657.500000 93.531930
657.500000 93.927832
657.500000 94.324570
657.500000 94.722144
657.500000 95.120554
657.500000 95.519801
657.500000 95.919883
657.500000 96.320802
657.500000 96.722557
657.500000 97.125147
657.500000 97.528574
657.500000 97.932837
657.500000 98.337937
657.500000 98.743872
657.500000 99.150643
657.500000 99.558251
657.500000 99.966695
657.500000 100.375974
657.500000 100.786090
657.500000 101.197042
657.500000 101.608831
657.500000 102.021455
657.500000 102.434915
657.500000 102.849212
657.500000 103.264344
657.500000 103.680313
657.500000 104.097118
657.500000 104.514759
657.500000 104.933236
657.500000 105.352549
657.500000 105.772699
657.500000 106.193684
657.500000 106.615506
657.500000 107.038163
657.500000 107.461657
657.500000 107.885987
657.500000 108.311153
657.500000 108.737155
657.500000 109.163993
657.500000 109.591668
657.500000 110.020178
657.500000 110.449525
657.500000 110.879708
657.500000 111.310727
657.500000 111.742582
657.500000 112.175273
657.500000 112.608800
657.500000 113.043163
657.500000 113.478363
657.500000 113.914398
657.500000 114.351270
657.500000 114.788978
657.500000 115.227522
657.500000 115.666902
657.500000 116.107118
657.500000 116.548170
657.500000 116.990059
657.500000 117.432783
657.500000 117.876344
657.500000 118.320740
657.500000 118.765973
657.500000 119.212042
657.500000 119.658947
657.500000 120.106689
657.500000 120.555266
657.500000 121.004679
657.500000 121.454929
657.500000 121.906015
657.500000 122.357937
657.500000 122.810695
657.500000 123.264289
657.500000 123.718719
657.500000 124.173985
657.500000 124.630087
657.500000 125.087026
657.500000 125.544801
657.500000 126.003411
657.500000 126.462858
657.500000 126.923141
657.500000 127.384260
657.500000 127.846216
657.500000 128.309007
657.500000 128.772634
657.500000 129.237098
657.500000 129.702398
657.500000 130.168534
657.500000 130.635505
657.500000 131.103314
657.500000 131.571958
657.500000 132.041438
657.500000 132.511754
657.500000 132.982907
657.500000 133.454896
657.500000 133.927720
657.500000 134.401381
657.500000 134.875878
657.500000 135.351211
657.500000 135.827381
657.500000 136.304386
657.500000 136.782227
657.500000 137.260905
657.500000 137.740419
657.500000 138.220769
657.500000 138.701955
657.500000 139.183977
657.500000 139.666835
657.500000 140.150529
657.500000 140.635060
657.500000 141.120426
657.500000 141.606629
657.500000 142.093668
657.500000 142.581542
657.500000 143.070253
657.500000 143.559801
657.500000 144.050184
657.500000 144.541403
657.500000 145.033459
657.500000 145.526350
657.500000 146.020078
657.500000 146.514642
657.500000 147.010042
657.500000 147.506278
657.500000 148.003350
657.500000 148.501258
657.500000 149.000003
657.500000 149.499583
657.500000 150.000000
</POINTS>
</NEKTAR>

