<?xml version="1.0" encoding="utf-8" ?>
<NEKTAR>
<POINTS DIM="2" FIELDS="">
497.500000 0.000000
497.500000 0.000418
497.500000 0.001672
497.500000 0.003763
497.500000 0.006689
497.500000 0.010451
497.500000 0.015050
497.500000 0.020485
497.500000 0.026756
497.500000 0.033863
497.500000 0.041806
497.500000 0.050585
497.500000 0.060201
497.500000 0.070652
497.500000 0.081940
497.500000 0.094063
497.500000 0.107023
497.500000 0.120819
497.500000 0.135451
497.500000 0.150919
497.500000 0.167224
497.500000 0.184364
497.500000 0.202341
497.500000 0.221153
497.500000 0.240802
497.500000 0.261287
497.500000 0.282608
497.500000 0.304765
497.500000 0.327758
497.500000 0.351588
497.500000 0.376253
497.500000 0.401755
497.500000 0.428092
497.500000 0.455266
497.500000 0.483276
497.500000 0.512122
497.500000 0.541805
497.500000 0.572323
497.500000 0.603677
497.500000 0.635868
497.500000 0.668894
497.500000 0.702757
497.500000 0.737456
497.500000 0.772991
497.500000 0.809362
497.500000 0.846570
497.500000 0.884613
497.500000 0.923492
497.500000 0.963208
497.500000 1.003760
497.500000 1.045148
497.500000 1.087372
497.500000 1.130432
497.500000 1.174328
497.500000 1.219060
497.500000 1.264629
497.500000 1.311033
497.500000 1.358274
497.500000 1.406351
497.500000 1.455264
497.500000 1.505013
497.500000 1.555598
497.500000 1.607019
497.500000 1.659276
497.500000 1.712370
497.500000 1.766299
497.500000 1.821065
497.500000 1.876667
497.500000 1.933105
497.500000 1.990379
497.500000 2.048489
497.500000 2.107436
497.500000 2.167218
497.500000 2.227837
497.500000 2.289291
497.500000 2.351582
497.500000 2.414709
497.500000 2.478672
497.500000 2.543471
497.500000 2.609106
497.500000 2.675578
497.500000 2.742885
497.500000 2.811029
497.500000 2.880009
497.500000 2.949825
497.500000 3.020477
497.500000 3.091965
497.500000 3.164289
497.500000 3.237449
497.500000 3.311446
497.500000 3.386278
497.500000 3.461947
497.500000 3.538452
497.500000 3.615793
497.500000 3.693970
497.500000 3.772983
497.500000 3.852832
497.500000 3.933517
497.500000 4.015039
497.500000 4.097397
497.500000 4.180590
497.500000 4.264620
497.500000 4.349486
497.500000 4.435188
497.500000 4.521727
497.500000 4.609101
497.500000 4.697311
497.500000 4.786358
497.500000 4.876241
497.500000 4.966959
497.500000 5.058514
497.500000 5.150905
497.500000 5.244133
497.500000 5.338196
497.500000 5.433095
497.500000 5.528831
497.500000 5.625402
497.500000 5.722810
497.500000 5.821054
497.500000 5.920134
497.500000 6.020050
497.500000 6.120802
497.500000 6.222391
497.500000 6.324815
497.500000 6.428076
497.500000 6.532172
497.500000 6.637105
497.500000 6.742874
497.500000 6.849479
497.500000 6.956920
497.500000 7.065198
497.500000 7.174311
497.500000 7.284261
497.500000 7.395046
497.500000 7.506668
497.500000 7.619126
497.500000 7.732420
497.500000 7.846550
497.500000 7.961516
497.500000 8.077319
497.500000 8.193957
497.500000 8.311432
497.500000 8.429742
497.500000 8.548889
497.500000 8.668872
497.500000 8.789691
497.500000 8.911346
497.500000 9.033838
497.500000 9.157165
497.500000 9.281329
497.500000 9.406328
497.500000 9.532164
497.500000 9.658836
497.500000 9.786344
497.500000 9.914688
497.500000 10.043868
497.500000 10.173885
497.500000 10.304737
497.500000 10.436426
497.500000 10.568950
497.500000 10.702311
497.500000 10.836508
497.500000 10.971541
497.500000 11.107411
497.500000 11.244116
497.500000 11.381657
497.500000 11.520035
497.500000 11.659248
497.500000 11.799298
497.500000 11.940184
497.500000 12.081906
497.500000 12.224464
497.500000 12.367859
497.500000 12.512089
497.500000 12.657155
497.500000 12.803058
497.500000 12.949797
497.500000 13.097372
497.500000 13.245782
497.500000 13.395030
497.500000 13.545113
497.500000 13.696032
497.500000 13.847787
497.500000 14.000379
497.500000 14.153807
497.500000 14.308070
497.500000 14.463170
497.500000 14.619106
497.500000 14.775879
497.500000 14.933487
497.500000 15.091931
497.500000 15.251212
497.500000 15.411328
497.500000 15.572281
497.500000 15.734070
497.500000 15.896695
497.500000 16.060156
497.500000 16.224453
497.500000 16.389586
497.500000 16.555556
497.500000 16.722361
497.500000 16.890003
497.500000 17.058481
497.500000 17.227795
497.500000 17.397945
497.500000 17.568931
497.500000 17.740753
497.500000 17.913412
497.500000 18.086906
497.500000 18.261237
497.500000 18.436403
497.500000 18.612406
497.500000 18.789245
497.500000 18.966920
497.500000 19.145432
497.500000 19.324779
497.500000 19.504962
497.500000 19.685982
497.500000 19.867838
497.500000 20.050529
497.500000 20.234057
497.500000 20.418421
497.500000 20.603622
497.500000 20.789658
497.500000 20.976530
497.500000 21.164239
497.500000 21.352783
497.500000 21.542164
497.500000 21.732381
497.500000 21.923434
497.500000 22.115323
497.500000 22.308048
497.500000 22.501610
497.500000 22.696007
497.500000 22.891241
497.500000 23.087310
497.500000 23.284216
497.500000 23.481958
497.500000 23.680536
497.500000 23.879950
497.500000 24.080200
497.500000 24.281287
497.500000 24.483209
497.500000 24.685968
497.500000 24.889563
497.500000 25.093994
497.500000 25.299261
497.500000 25.505364
497.500000 25.712303
497.500000 25.920078
497.500000 26.128690
497.500000 26.338137
497.500000 26.548421
497.500000 26.759541
497.500000 26.971497
497.500000 27.184289
497.500000 27.397917
497.500000 27.612381
497.500000 27.827682
497.500000 28.043818
497.500000 28.260791
497.500000 28.478600
497.500000 28.697244
497.500000 28.916725
497.500000 29.137043
497.500000 29.358196
497.500000 29.580185
497.500000 29.803011
497.500000 30.026672
497.500000 30.251170
497.500000 30.476504
497.500000 30.702674
497.500000 30.929680
497.500000 31.157522
497.500000 31.386200
497.500000 31.615715
497.500000 31.846065
497.500000 32.077252
497.500000 32.309275
497.500000 32.542133
497.500000 32.775828
497.500000 33.010360
497.500000 33.245727
497.500000 33.481930
497.500000 33.718970
497.500000 33.956845
497.500000 34.195557
497.500000 34.435105
497.500000 34.675489
497.500000 34.916709
497.500000 35.158765
497.500000 35.401657
497.500000 35.645386
497.500000 35.889950
497.500000 36.135351
497.500000 36.381588
497.500000 36.628660
497.500000 36.876569
497.500000 37.125315
497.500000 37.374896
497.500000 37.625313
497.500000 37.876567
497.500000 38.128656
497.500000 38.381582
497.500000 38.635344
497.500000 38.889942
497.500000 39.145376
497.500000 39.401646
497.500000 39.658752
497.500000 39.916695
497.500000 40.175473
497.500000 40.435088
497.500000 40.695539
497.500000 40.956826
497.500000 41.218949
497.500000 41.481908
497.500000 41.745703
497.500000 42.010334
497.500000 42.275802
497.500000 42.542106
497.500000 42.809245
497.500000 43.077221
497.500000 43.346033
497.500000 43.615681
497.500000 43.886165
497.500000 44.157486
497.500000 44.429642
497.500000 44.702635
497.500000 44.976463
497.500000 45.251128
497.500000 45.526629
497.500000 45.802966
497.500000 46.080139
497.500000 46.358148
497.500000 46.636994
497.500000 46.916675
497.500000 47.197193
497.500000 47.478547
497.500000 47.760736
497.500000 48.043762
497.500000 48.327625
497.500000 48.612323
497.500000 48.897857
497.500000 49.184227
497.500000 49.471434
497.500000 49.759477
497.500000 50.048355
497.500000 50.338070
497.500000 50.628621
497.500000 50.920009
497.500000 51.212232
497.500000 51.505291
497.500000 51.799187
497.500000 52.093918
497.500000 52.389486
497.500000 52.685890
497.500000 52.983130
497.500000 53.281206
497.500000 53.580118
497.500000 53.879867
497.500000 54.180451
497.500000 54.481872
497.500000 54.784128
497.500000 55.087221
497.500000 55.391150
497.500000 55.695915
497.500000 56.001516
497.500000 56.307953
497.500000 56.615227
497.500000 56.923336
497.500000 57.232282
497.500000 57.542064
497.500000 57.852682
497.500000 58.164136
497.500000 58.476426
497.500000 58.789552
497.500000 59.103514
497.500000 59.418313
497.500000 59.733947
497.500000 60.050418
497.500000 60.367725
497.500000 60.685868
497.500000 61.004847
497.500000 61.324662
497.500000 61.645313
497.500000 61.966801
497.500000 62.289124
497.500000 62.612284
497.500000 62.936279
497.500000 63.261111
497.500000 63.586779
497.500000 63.913283
497.500000 64.240624
497.500000 64.568800
497.500000 64.897812
497.500000 65.227661
497.500000 65.558346
497.500000 65.889867
497.500000 66.222223
497.500000 66.555417
497.500000 66.889446
497.500000 67.224311
497.500000 67.560012
497.500000 67.896550
497.500000 68.233924
497.500000 68.572133
497.500000 68.911179
497.500000 69.251061
497.500000 69.591779
497.500000 69.933334
497.500000 70.275724
497.500000 70.618950
497.500000 70.963013
497.500000 71.307912
497.500000 71.653646
497.500000 72.000217
497.500000 72.347624
497.500000 72.695868
497.500000 73.044947
497.500000 73.394862
497.500000 73.745614
497.500000 74.097202
497.500000 74.449625
497.500000 74.802885
497.500000 75.156981
497.500000 75.511913
497.500000 75.867682
497.500000 76.224286
497.500000 76.581726
497.500000 76.940003
497.500000 77.299116
497.500000 77.659064
497.500000 78.019849
497.500000 78.381471
497.500000 78.743928
497.500000 79.107221
497.500000 79.471350
497.500000 79.836316
497.500000 80.202118
497.500000 80.568755
497.500000 80.936229
497.500000 81.304539
497.500000 81.673685
497.500000 82.043668
497.500000 82.414486
497.500000 82.786141
497.500000 83.158631
497.500000 83.531958
497.500000 83.906121
497.500000 84.281120
497.500000 84.656955
497.500000 85.033626
497.500000 85.411133
497.500000 85.789477
497.500000 86.168656
497.500000 86.548672
497.500000 86.929524
497.500000 87.311212
497.500000 87.693736
497.500000 88.077096
497.500000 88.461292
497.500000 88.846324
497.500000 89.232193
497.500000 89.618897
497.500000 90.006438
497.500000 90.394815
497.500000 90.784028
497.500000 91.174077
497.500000 91.564962
497.500000 91.956684
497.500000 92.349241
497.500000 92.742634
497.500000 93.136864
497.500000 93.531930
497.500000 93.927832
497.500000 94.324570
497.500000 94.722144
497.500000 95.120554
497.500000 95.519801
497.500000 95.919883
497.500000 96.320802
497.500000 96.722557
497.500000 97.125147
497.500000 97.528574
497.500000 97.932837
497.500000 98.337937
497.500000 98.743872
497.500000 99.150643
497.500000 99.558251
497.500000 99.966695
497.500000 100.375974
497.500000 100.786090
497.500000 101.197042
497.500000 101.608831
497.500000 102.021455
497.500000 102.434915
497.500000 102.849212
497.500000 103.264344
497.500000 103.680313
497.500000 104.097118
497.500000 104.514759
497.500000 104.933236
497.500000 105.352549
497.500000 105.772699
497.500000 106.193684
497.500000 106.615506
497.500000 107.038163
497.500000 107.461657
497.500000 107.885987
497.500000 108.311153
497.500000 108.737155
497.500000 109.163993
497.500000 109.591668
497.500000 110.020178
497.500000 110.449525
497.500000 110.879708
497.500000 111.310727
497.500000 111.742582
497.500000 112.175273
497.500000 112.608800
497.500000 113.043163
497.500000 113.478363
497.500000 113.914398
497.500000 114.351270
497.500000 114.788978
497.500000 115.227522
497.500000 115.666902
497.500000 116.107118
497.500000 116.548170
497.500000 116.990059
497.500000 117.432783
497.500000 117.876344
497.500000 118.320740
497.500000 118.765973
497.500000 119.212042
497.500000 119.658947
497.500000 120.106689
497.500000 120.555266
497.500000 121.004679
497.500000 121.454929
497.500000 121.906015
497.500000 122.357937
497.500000 122.810695
497.500000 123.264289
497.500000 123.718719
497.500000 124.173985
497.500000 124.630087
497.500000 125.087026
497.500000 125.544801
497.500000 126.003411
497.500000 126.462858
497.500000 126.923141
497.500000 127.384260
497.500000 127.846216
497.500000 128.309007
497.500000 128.772634
497.500000 129.237098
497.500000 129.702398
497.500000 130.168534
497.500000 130.635505
497.500000 131.103314
497.500000 131.571958
497.500000 132.041438
497.500000 132.511754
497.500000 132.982907
497.500000 133.454896
497.500000 133.927720
497.500000 134.401381
497.500000 134.875878
497.500000 135.351211
497.500000 135.827381
497.500000 136.304386
497.500000 136.782227
497.500000 137.260905
497.500000 137.740419
497.500000 138.220769
497.500000 138.701955
497.500000 139.183977
497.500000 139.666835
497.500000 140.150529
497.500000 140.635060
497.500000 141.120426
497.500000 141.606629
497.500000 142.093668
497.500000 142.581542
497.500000 143.070253
497.500000 143.559801
497.500000 144.050184
497.500000 144.541403
497.500000 145.033459
497.500000 145.526350
497.500000 146.020078
497.500000 146.514642
497.500000 147.010042
497.500000 147.506278
497.500000 148.003350
497.500000 148.501258
497.500000 149.000003
497.500000 149.499583
497.500000 150.000000
</POINTS>
</NEKTAR>

