<?xml version="1.0" encoding="utf-8" ?>
<NEKTAR>
<POINTS DIM="2" FIELDS="">
837.500000 0.000000
837.500000 0.000418
837.500000 0.001672
837.500000 0.003763
837.500000 0.006689
837.500000 0.010451
837.500000 0.015050
837.500000 0.020485
837.500000 0.026756
837.500000 0.033863
837.500000 0.041806
837.500000 0.050585
837.500000 0.060201
837.500000 0.070652
837.500000 0.081940
837.500000 0.094063
837.500000 0.107023
837.500000 0.120819
837.500000 0.135451
837.500000 0.150919
837.500000 0.167224
837.500000 0.184364
837.500000 0.202341
837.500000 0.221153
837.500000 0.240802
837.500000 0.261287
837.500000 0.282608
837.500000 0.304765
837.500000 0.327758
837.500000 0.351588
837.500000 0.376253
837.500000 0.401755
837.500000 0.428092
837.500000 0.455266
837.500000 0.483276
837.500000 0.512122
837.500000 0.541805
837.500000 0.572323
837.500000 0.603677
837.500000 0.635868
837.500000 0.668894
837.500000 0.702757
837.500000 0.737456
837.500000 0.772991
837.500000 0.809362
837.500000 0.846570
837.500000 0.884613
837.500000 0.923492
837.500000 0.963208
837.500000 1.003760
837.500000 1.045148
837.500000 1.087372
837.500000 1.130432
837.500000 1.174328
837.500000 1.219060
837.500000 1.264629
837.500000 1.311033
837.500000 1.358274
837.500000 1.406351
837.500000 1.455264
837.500000 1.505013
837.500000 1.555598
837.500000 1.607019
837.500000 1.659276
837.500000 1.712370
837.500000 1.766299
837.500000 1.821065
837.500000 1.876667
837.500000 1.933105
837.500000 1.990379
837.500000 2.048489
837.500000 2.107436
837.500000 2.167218
837.500000 2.227837
837.500000 2.289291
837.500000 2.351582
837.500000 2.414709
837.500000 2.478672
837.500000 2.543471
837.500000 2.609106
837.500000 2.675578
837.500000 2.742885
837.500000 2.811029
837.500000 2.880009
837.500000 2.949825
837.500000 3.020477
837.500000 3.091965
837.500000 3.164289
837.500000 3.237449
837.500000 3.311446
837.500000 3.386278
837.500000 3.461947
837.500000 3.538452
837.500000 3.615793
837.500000 3.693970
837.500000 3.772983
837.500000 3.852832
837.500000 3.933517
837.500000 4.015039
837.500000 4.097397
837.500000 4.180590
837.500000 4.264620
837.500000 4.349486
837.500000 4.435188
837.500000 4.521727
837.500000 4.609101
837.500000 4.697311
837.500000 4.786358
837.500000 4.876241
837.500000 4.966959
837.500000 5.058514
837.500000 5.150905
837.500000 5.244133
837.500000 5.338196
837.500000 5.433095
837.500000 5.528831
837.500000 5.625402
837.500000 5.722810
837.500000 5.821054
837.500000 5.920134
837.500000 6.020050
837.500000 6.120802
837.500000 6.222391
837.500000 6.324815
837.500000 6.428076
837.500000 6.532172
837.500000 6.637105
837.500000 6.742874
837.500000 6.849479
837.500000 6.956920
837.500000 7.065198
837.500000 7.174311
837.500000 7.284261
837.500000 7.395046
837.500000 7.506668
837.500000 7.619126
837.500000 7.732420
837.500000 7.846550
837.500000 7.961516
837.500000 8.077319
837.500000 8.193957
837.500000 8.311432
837.500000 8.429742
837.500000 8.548889
837.500000 8.668872
837.500000 8.789691
837.500000 8.911346
837.500000 9.033838
837.500000 9.157165
837.500000 9.281329
837.500000 9.406328
837.500000 9.532164
837.500000 9.658836
837.500000 9.786344
837.500000 9.914688
837.500000 10.043868
837.500000 10.173885
837.500000 10.304737
837.500000 10.436426
837.500000 10.568950
837.500000 10.702311
837.500000 10.836508
837.500000 10.971541
837.500000 11.107411
837.500000 11.244116
837.500000 11.381657
837.500000 11.520035
837.500000 11.659248
837.500000 11.799298
837.500000 11.940184
837.500000 12.081906
837.500000 12.224464
837.500000 12.367859
837.500000 12.512089
837.500000 12.657155
837.500000 12.803058
837.500000 12.949797
837.500000 13.097372
837.500000 13.245782
837.500000 13.395030
837.500000 13.545113
837.500000 13.696032
837.500000 13.847787
837.500000 14.000379
837.500000 14.153807
837.500000 14.308070
837.500000 14.463170
837.500000 14.619106
837.500000 14.775879
837.500000 14.933487
837.500000 15.091931
837.500000 15.251212
837.500000 15.411328
837.500000 15.572281
837.500000 15.734070
837.500000 15.896695
837.500000 16.060156
837.500000 16.224453
837.500000 16.389586
837.500000 16.555556
837.500000 16.722361
837.500000 16.890003
837.500000 17.058481
837.500000 17.227795
837.500000 17.397945
837.500000 17.568931
837.500000 17.740753
837.500000 17.913412
837.500000 18.086906
837.500000 18.261237
837.500000 18.436403
837.500000 18.612406
837.500000 18.789245
837.500000 18.966920
837.500000 19.145432
837.500000 19.324779
837.500000 19.504962
837.500000 19.685982
837.500000 19.867838
837.500000 20.050529
837.500000 20.234057
837.500000 20.418421
837.500000 20.603622
837.500000 20.789658
837.500000 20.976530
837.500000 21.164239
837.500000 21.352783
837.500000 21.542164
837.500000 21.732381
837.500000 21.923434
837.500000 22.115323
837.500000 22.308048
837.500000 22.501610
837.500000 22.696007
837.500000 22.891241
837.500000 23.087310
837.500000 23.284216
837.500000 23.481958
837.500000 23.680536
837.500000 23.879950
837.500000 24.080200
837.500000 24.281287
837.500000 24.483209
837.500000 24.685968
837.500000 24.889563
837.500000 25.093994
837.500000 25.299261
837.500000 25.505364
837.500000 25.712303
837.500000 25.920078
837.500000 26.128690
837.500000 26.338137
837.500000 26.548421
837.500000 26.759541
837.500000 26.971497
837.500000 27.184289
837.500000 27.397917
837.500000 27.612381
837.500000 27.827682
837.500000 28.043818
837.500000 28.260791
837.500000 28.478600
837.500000 28.697244
837.500000 28.916725
837.500000 29.137043
837.500000 29.358196
837.500000 29.580185
837.500000 29.803011
837.500000 30.026672
837.500000 30.251170
837.500000 30.476504
837.500000 30.702674
837.500000 30.929680
837.500000 31.157522
837.500000 31.386200
837.500000 31.615715
837.500000 31.846065
837.500000 32.077252
837.500000 32.309275
837.500000 32.542133
837.500000 32.775828
837.500000 33.010360
837.500000 33.245727
837.500000 33.481930
837.500000 33.718970
837.500000 33.956845
837.500000 34.195557
837.500000 34.435105
837.500000 34.675489
837.500000 34.916709
837.500000 35.158765
837.500000 35.401657
837.500000 35.645386
837.500000 35.889950
837.500000 36.135351
837.500000 36.381588
837.500000 36.628660
837.500000 36.876569
837.500000 37.125315
837.500000 37.374896
837.500000 37.625313
837.500000 37.876567
837.500000 38.128656
837.500000 38.381582
837.500000 38.635344
837.500000 38.889942
837.500000 39.145376
837.500000 39.401646
837.500000 39.658752
837.500000 39.916695
837.500000 40.175473
837.500000 40.435088
837.500000 40.695539
837.500000 40.956826
837.500000 41.218949
837.500000 41.481908
837.500000 41.745703
837.500000 42.010334
837.500000 42.275802
837.500000 42.542106
837.500000 42.809245
837.500000 43.077221
837.500000 43.346033
837.500000 43.615681
837.500000 43.886165
837.500000 44.157486
837.500000 44.429642
837.500000 44.702635
837.500000 44.976463
837.500000 45.251128
837.500000 45.526629
837.500000 45.802966
837.500000 46.080139
837.500000 46.358148
837.500000 46.636994
837.500000 46.916675
837.500000 47.197193
837.500000 47.478547
837.500000 47.760736
837.500000 48.043762
837.500000 48.327625
837.500000 48.612323
837.500000 48.897857
837.500000 49.184227
837.500000 49.471434
837.500000 49.759477
837.500000 50.048355
837.500000 50.338070
837.500000 50.628621
837.500000 50.920009
837.500000 51.212232
837.500000 51.505291
837.500000 51.799187
837.500000 52.093918
837.500000 52.389486
837.500000 52.685890
837.500000 52.983130
837.500000 53.281206
837.500000 53.580118
837.500000 53.879867
837.500000 54.180451
837.500000 54.481872
837.500000 54.784128
837.500000 55.087221
837.500000 55.391150
837.500000 55.695915
837.500000 56.001516
837.500000 56.307953
837.500000 56.615227
837.500000 56.923336
837.500000 57.232282
837.500000 57.542064
837.500000 57.852682
837.500000 58.164136
837.500000 58.476426
837.500000 58.789552
837.500000 59.103514
837.500000 59.418313
837.500000 59.733947
837.500000 60.050418
837.500000 60.367725
837.500000 60.685868
837.500000 61.004847
837.500000 61.324662
837.500000 61.645313
837.500000 61.966801
837.500000 62.289124
837.500000 62.612284
837.500000 62.936279
837.500000 63.261111
837.500000 63.586779
837.500000 63.913283
837.500000 64.240624
837.500000 64.568800
837.500000 64.897812
837.500000 65.227661
837.500000 65.558346
837.500000 65.889867
837.500000 66.222223
837.500000 66.555417
837.500000 66.889446
837.500000 67.224311
837.500000 67.560012
837.500000 67.896550
837.500000 68.233924
837.500000 68.572133
837.500000 68.911179
837.500000 69.251061
837.500000 69.591779
837.500000 69.933334
837.500000 70.275724
837.500000 70.618950
837.500000 70.963013
837.500000 71.307912
837.500000 71.653646
837.500000 72.000217
837.500000 72.347624
837.500000 72.695868
837.500000 73.044947
837.500000 73.394862
837.500000 73.745614
837.500000 74.097202
837.500000 74.449625
837.500000 74.802885
837.500000 75.156981
837.500000 75.511913
837.500000 75.867682
837.500000 76.224286
837.500000 76.581726
837.500000 76.940003
837.500000 77.299116
837.500000 77.659064
837.500000 78.019849
837.500000 78.381471
837.500000 78.743928
837.500000 79.107221
837.500000 79.471350
837.500000 79.836316
837.500000 80.202118
837.500000 80.568755
837.500000 80.936229
837.500000 81.304539
837.500000 81.673685
837.500000 82.043668
837.500000 82.414486
837.500000 82.786141
837.500000 83.158631
837.500000 83.531958
837.500000 83.906121
837.500000 84.281120
837.500000 84.656955
837.500000 85.033626
837.500000 85.411133
837.500000 85.789477
837.500000 86.168656
837.500000 86.548672
837.500000 86.929524
837.500000 87.311212
837.500000 87.693736
837.500000 88.077096
837.500000 88.461292
837.500000 88.846324
837.500000 89.232193
837.500000 89.618897
837.500000 90.006438
837.500000 90.394815
837.500000 90.784028
837.500000 91.174077
837.500000 91.564962
837.500000 91.956684
837.500000 92.349241
837.500000 92.742634
837.500000 93.136864
837.500000 93.531930
837.500000 93.927832
837.500000 94.324570
837.500000 94.722144
837.500000 95.120554
837.500000 95.519801
837.500000 95.919883
837.500000 96.320802
837.500000 96.722557
837.500000 97.125147
837.500000 97.528574
837.500000 97.932837
837.500000 98.337937
837.500000 98.743872
837.500000 99.150643
837.500000 99.558251
837.500000 99.966695
837.500000 100.375974
837.500000 100.786090
837.500000 101.197042
837.500000 101.608831
837.500000 102.021455
837.500000 102.434915
837.500000 102.849212
837.500000 103.264344
837.500000 103.680313
837.500000 104.097118
837.500000 104.514759
837.500000 104.933236
837.500000 105.352549
837.500000 105.772699
837.500000 106.193684
837.500000 106.615506
837.500000 107.038163
837.500000 107.461657
837.500000 107.885987
837.500000 108.311153
837.500000 108.737155
837.500000 109.163993
837.500000 109.591668
837.500000 110.020178
837.500000 110.449525
837.500000 110.879708
837.500000 111.310727
837.500000 111.742582
837.500000 112.175273
837.500000 112.608800
837.500000 113.043163
837.500000 113.478363
837.500000 113.914398
837.500000 114.351270
837.500000 114.788978
837.500000 115.227522
837.500000 115.666902
837.500000 116.107118
837.500000 116.548170
837.500000 116.990059
837.500000 117.432783
837.500000 117.876344
837.500000 118.320740
837.500000 118.765973
837.500000 119.212042
837.500000 119.658947
837.500000 120.106689
837.500000 120.555266
837.500000 121.004679
837.500000 121.454929
837.500000 121.906015
837.500000 122.357937
837.500000 122.810695
837.500000 123.264289
837.500000 123.718719
837.500000 124.173985
837.500000 124.630087
837.500000 125.087026
837.500000 125.544801
837.500000 126.003411
837.500000 126.462858
837.500000 126.923141
837.500000 127.384260
837.500000 127.846216
837.500000 128.309007
837.500000 128.772634
837.500000 129.237098
837.500000 129.702398
837.500000 130.168534
837.500000 130.635505
837.500000 131.103314
837.500000 131.571958
837.500000 132.041438
837.500000 132.511754
837.500000 132.982907
837.500000 133.454896
837.500000 133.927720
837.500000 134.401381
837.500000 134.875878
837.500000 135.351211
837.500000 135.827381
837.500000 136.304386
837.500000 136.782227
837.500000 137.260905
837.500000 137.740419
837.500000 138.220769
837.500000 138.701955
837.500000 139.183977
837.500000 139.666835
837.500000 140.150529
837.500000 140.635060
837.500000 141.120426
837.500000 141.606629
837.500000 142.093668
837.500000 142.581542
837.500000 143.070253
837.500000 143.559801
837.500000 144.050184
837.500000 144.541403
837.500000 145.033459
837.500000 145.526350
837.500000 146.020078
837.500000 146.514642
837.500000 147.010042
837.500000 147.506278
837.500000 148.003350
837.500000 148.501258
837.500000 149.000003
837.500000 149.499583
837.500000 150.000000
</POINTS>
</NEKTAR>

