<?xml version="1.0" encoding="utf-8" ?>
<NEKTAR>
<POINTS DIM="2" FIELDS="">
357.500000 0.000000
357.500000 0.000418
357.500000 0.001672
357.500000 0.003763
357.500000 0.006689
357.500000 0.010451
357.500000 0.015050
357.500000 0.020485
357.500000 0.026756
357.500000 0.033863
357.500000 0.041806
357.500000 0.050585
357.500000 0.060201
357.500000 0.070652
357.500000 0.081940
357.500000 0.094063
357.500000 0.107023
357.500000 0.120819
357.500000 0.135451
357.500000 0.150919
357.500000 0.167224
357.500000 0.184364
357.500000 0.202341
357.500000 0.221153
357.500000 0.240802
357.500000 0.261287
357.500000 0.282608
357.500000 0.304765
357.500000 0.327758
357.500000 0.351588
357.500000 0.376253
357.500000 0.401755
357.500000 0.428092
357.500000 0.455266
357.500000 0.483276
357.500000 0.512122
357.500000 0.541805
357.500000 0.572323
357.500000 0.603677
357.500000 0.635868
357.500000 0.668894
357.500000 0.702757
357.500000 0.737456
357.500000 0.772991
357.500000 0.809362
357.500000 0.846570
357.500000 0.884613
357.500000 0.923492
357.500000 0.963208
357.500000 1.003760
357.500000 1.045148
357.500000 1.087372
357.500000 1.130432
357.500000 1.174328
357.500000 1.219060
357.500000 1.264629
357.500000 1.311033
357.500000 1.358274
357.500000 1.406351
357.500000 1.455264
357.500000 1.505013
357.500000 1.555598
357.500000 1.607019
357.500000 1.659276
357.500000 1.712370
357.500000 1.766299
357.500000 1.821065
357.500000 1.876667
357.500000 1.933105
357.500000 1.990379
357.500000 2.048489
357.500000 2.107436
357.500000 2.167218
357.500000 2.227837
357.500000 2.289291
357.500000 2.351582
357.500000 2.414709
357.500000 2.478672
357.500000 2.543471
357.500000 2.609106
357.500000 2.675578
357.500000 2.742885
357.500000 2.811029
357.500000 2.880009
357.500000 2.949825
357.500000 3.020477
357.500000 3.091965
357.500000 3.164289
357.500000 3.237449
357.500000 3.311446
357.500000 3.386278
357.500000 3.461947
357.500000 3.538452
357.500000 3.615793
357.500000 3.693970
357.500000 3.772983
357.500000 3.852832
357.500000 3.933517
357.500000 4.015039
357.500000 4.097397
357.500000 4.180590
357.500000 4.264620
357.500000 4.349486
357.500000 4.435188
357.500000 4.521727
357.500000 4.609101
357.500000 4.697311
357.500000 4.786358
357.500000 4.876241
357.500000 4.966959
357.500000 5.058514
357.500000 5.150905
357.500000 5.244133
357.500000 5.338196
357.500000 5.433095
357.500000 5.528831
357.500000 5.625402
357.500000 5.722810
357.500000 5.821054
357.500000 5.920134
357.500000 6.020050
357.500000 6.120802
357.500000 6.222391
357.500000 6.324815
357.500000 6.428076
357.500000 6.532172
357.500000 6.637105
357.500000 6.742874
357.500000 6.849479
357.500000 6.956920
357.500000 7.065198
357.500000 7.174311
357.500000 7.284261
357.500000 7.395046
357.500000 7.506668
357.500000 7.619126
357.500000 7.732420
357.500000 7.846550
357.500000 7.961516
357.500000 8.077319
357.500000 8.193957
357.500000 8.311432
357.500000 8.429742
357.500000 8.548889
357.500000 8.668872
357.500000 8.789691
357.500000 8.911346
357.500000 9.033838
357.500000 9.157165
357.500000 9.281329
357.500000 9.406328
357.500000 9.532164
357.500000 9.658836
357.500000 9.786344
357.500000 9.914688
357.500000 10.043868
357.500000 10.173885
357.500000 10.304737
357.500000 10.436426
357.500000 10.568950
357.500000 10.702311
357.500000 10.836508
357.500000 10.971541
357.500000 11.107411
357.500000 11.244116
357.500000 11.381657
357.500000 11.520035
357.500000 11.659248
357.500000 11.799298
357.500000 11.940184
357.500000 12.081906
357.500000 12.224464
357.500000 12.367859
357.500000 12.512089
357.500000 12.657155
357.500000 12.803058
357.500000 12.949797
357.500000 13.097372
357.500000 13.245782
357.500000 13.395030
357.500000 13.545113
357.500000 13.696032
357.500000 13.847787
357.500000 14.000379
357.500000 14.153807
357.500000 14.308070
357.500000 14.463170
357.500000 14.619106
357.500000 14.775879
357.500000 14.933487
357.500000 15.091931
357.500000 15.251212
357.500000 15.411328
357.500000 15.572281
357.500000 15.734070
357.500000 15.896695
357.500000 16.060156
357.500000 16.224453
357.500000 16.389586
357.500000 16.555556
357.500000 16.722361
357.500000 16.890003
357.500000 17.058481
357.500000 17.227795
357.500000 17.397945
357.500000 17.568931
357.500000 17.740753
357.500000 17.913412
357.500000 18.086906
357.500000 18.261237
357.500000 18.436403
357.500000 18.612406
357.500000 18.789245
357.500000 18.966920
357.500000 19.145432
357.500000 19.324779
357.500000 19.504962
357.500000 19.685982
357.500000 19.867838
357.500000 20.050529
357.500000 20.234057
357.500000 20.418421
357.500000 20.603622
357.500000 20.789658
357.500000 20.976530
357.500000 21.164239
357.500000 21.352783
357.500000 21.542164
357.500000 21.732381
357.500000 21.923434
357.500000 22.115323
357.500000 22.308048
357.500000 22.501610
357.500000 22.696007
357.500000 22.891241
357.500000 23.087310
357.500000 23.284216
357.500000 23.481958
357.500000 23.680536
357.500000 23.879950
357.500000 24.080200
357.500000 24.281287
357.500000 24.483209
357.500000 24.685968
357.500000 24.889563
357.500000 25.093994
357.500000 25.299261
357.500000 25.505364
357.500000 25.712303
357.500000 25.920078
357.500000 26.128690
357.500000 26.338137
357.500000 26.548421
357.500000 26.759541
357.500000 26.971497
357.500000 27.184289
357.500000 27.397917
357.500000 27.612381
357.500000 27.827682
357.500000 28.043818
357.500000 28.260791
357.500000 28.478600
357.500000 28.697244
357.500000 28.916725
357.500000 29.137043
357.500000 29.358196
357.500000 29.580185
357.500000 29.803011
357.500000 30.026672
357.500000 30.251170
357.500000 30.476504
357.500000 30.702674
357.500000 30.929680
357.500000 31.157522
357.500000 31.386200
357.500000 31.615715
357.500000 31.846065
357.500000 32.077252
357.500000 32.309275
357.500000 32.542133
357.500000 32.775828
357.500000 33.010360
357.500000 33.245727
357.500000 33.481930
357.500000 33.718970
357.500000 33.956845
357.500000 34.195557
357.500000 34.435105
357.500000 34.675489
357.500000 34.916709
357.500000 35.158765
357.500000 35.401657
357.500000 35.645386
357.500000 35.889950
357.500000 36.135351
357.500000 36.381588
357.500000 36.628660
357.500000 36.876569
357.500000 37.125315
357.500000 37.374896
357.500000 37.625313
357.500000 37.876567
357.500000 38.128656
357.500000 38.381582
357.500000 38.635344
357.500000 38.889942
357.500000 39.145376
357.500000 39.401646
357.500000 39.658752
357.500000 39.916695
357.500000 40.175473
357.500000 40.435088
357.500000 40.695539
357.500000 40.956826
357.500000 41.218949
357.500000 41.481908
357.500000 41.745703
357.500000 42.010334
357.500000 42.275802
357.500000 42.542106
357.500000 42.809245
357.500000 43.077221
357.500000 43.346033
357.500000 43.615681
357.500000 43.886165
357.500000 44.157486
357.500000 44.429642
357.500000 44.702635
357.500000 44.976463
357.500000 45.251128
357.500000 45.526629
357.500000 45.802966
357.500000 46.080139
357.500000 46.358148
357.500000 46.636994
357.500000 46.916675
357.500000 47.197193
357.500000 47.478547
357.500000 47.760736
357.500000 48.043762
357.500000 48.327625
357.500000 48.612323
357.500000 48.897857
357.500000 49.184227
357.500000 49.471434
357.500000 49.759477
357.500000 50.048355
357.500000 50.338070
357.500000 50.628621
357.500000 50.920009
357.500000 51.212232
357.500000 51.505291
357.500000 51.799187
357.500000 52.093918
357.500000 52.389486
357.500000 52.685890
357.500000 52.983130
357.500000 53.281206
357.500000 53.580118
357.500000 53.879867
357.500000 54.180451
357.500000 54.481872
357.500000 54.784128
357.500000 55.087221
357.500000 55.391150
357.500000 55.695915
357.500000 56.001516
357.500000 56.307953
357.500000 56.615227
357.500000 56.923336
357.500000 57.232282
357.500000 57.542064
357.500000 57.852682
357.500000 58.164136
357.500000 58.476426
357.500000 58.789552
357.500000 59.103514
357.500000 59.418313
357.500000 59.733947
357.500000 60.050418
357.500000 60.367725
357.500000 60.685868
357.500000 61.004847
357.500000 61.324662
357.500000 61.645313
357.500000 61.966801
357.500000 62.289124
357.500000 62.612284
357.500000 62.936279
357.500000 63.261111
357.500000 63.586779
357.500000 63.913283
357.500000 64.240624
357.500000 64.568800
357.500000 64.897812
357.500000 65.227661
357.500000 65.558346
357.500000 65.889867
357.500000 66.222223
357.500000 66.555417
357.500000 66.889446
357.500000 67.224311
357.500000 67.560012
357.500000 67.896550
357.500000 68.233924
357.500000 68.572133
357.500000 68.911179
357.500000 69.251061
357.500000 69.591779
357.500000 69.933334
357.500000 70.275724
357.500000 70.618950
357.500000 70.963013
357.500000 71.307912
357.500000 71.653646
357.500000 72.000217
357.500000 72.347624
357.500000 72.695868
357.500000 73.044947
357.500000 73.394862
357.500000 73.745614
357.500000 74.097202
357.500000 74.449625
357.500000 74.802885
357.500000 75.156981
357.500000 75.511913
357.500000 75.867682
357.500000 76.224286
357.500000 76.581726
357.500000 76.940003
357.500000 77.299116
357.500000 77.659064
357.500000 78.019849
357.500000 78.381471
357.500000 78.743928
357.500000 79.107221
357.500000 79.471350
357.500000 79.836316
357.500000 80.202118
357.500000 80.568755
357.500000 80.936229
357.500000 81.304539
357.500000 81.673685
357.500000 82.043668
357.500000 82.414486
357.500000 82.786141
357.500000 83.158631
357.500000 83.531958
357.500000 83.906121
357.500000 84.281120
357.500000 84.656955
357.500000 85.033626
357.500000 85.411133
357.500000 85.789477
357.500000 86.168656
357.500000 86.548672
357.500000 86.929524
357.500000 87.311212
357.500000 87.693736
357.500000 88.077096
357.500000 88.461292
357.500000 88.846324
357.500000 89.232193
357.500000 89.618897
357.500000 90.006438
357.500000 90.394815
357.500000 90.784028
357.500000 91.174077
357.500000 91.564962
357.500000 91.956684
357.500000 92.349241
357.500000 92.742634
357.500000 93.136864
357.500000 93.531930
357.500000 93.927832
357.500000 94.324570
357.500000 94.722144
357.500000 95.120554
357.500000 95.519801
357.500000 95.919883
357.500000 96.320802
357.500000 96.722557
357.500000 97.125147
357.500000 97.528574
357.500000 97.932837
357.500000 98.337937
357.500000 98.743872
357.500000 99.150643
357.500000 99.558251
357.500000 99.966695
357.500000 100.375974
357.500000 100.786090
357.500000 101.197042
357.500000 101.608831
357.500000 102.021455
357.500000 102.434915
357.500000 102.849212
357.500000 103.264344
357.500000 103.680313
357.500000 104.097118
357.500000 104.514759
357.500000 104.933236
357.500000 105.352549
357.500000 105.772699
357.500000 106.193684
357.500000 106.615506
357.500000 107.038163
357.500000 107.461657
357.500000 107.885987
357.500000 108.311153
357.500000 108.737155
357.500000 109.163993
357.500000 109.591668
357.500000 110.020178
357.500000 110.449525
357.500000 110.879708
357.500000 111.310727
357.500000 111.742582
357.500000 112.175273
357.500000 112.608800
357.500000 113.043163
357.500000 113.478363
357.500000 113.914398
357.500000 114.351270
357.500000 114.788978
357.500000 115.227522
357.500000 115.666902
357.500000 116.107118
357.500000 116.548170
357.500000 116.990059
357.500000 117.432783
357.500000 117.876344
357.500000 118.320740
357.500000 118.765973
357.500000 119.212042
357.500000 119.658947
357.500000 120.106689
357.500000 120.555266
357.500000 121.004679
357.500000 121.454929
357.500000 121.906015
357.500000 122.357937
357.500000 122.810695
357.500000 123.264289
357.500000 123.718719
357.500000 124.173985
357.500000 124.630087
357.500000 125.087026
357.500000 125.544801
357.500000 126.003411
357.500000 126.462858
357.500000 126.923141
357.500000 127.384260
357.500000 127.846216
357.500000 128.309007
357.500000 128.772634
357.500000 129.237098
357.500000 129.702398
357.500000 130.168534
357.500000 130.635505
357.500000 131.103314
357.500000 131.571958
357.500000 132.041438
357.500000 132.511754
357.500000 132.982907
357.500000 133.454896
357.500000 133.927720
357.500000 134.401381
357.500000 134.875878
357.500000 135.351211
357.500000 135.827381
357.500000 136.304386
357.500000 136.782227
357.500000 137.260905
357.500000 137.740419
357.500000 138.220769
357.500000 138.701955
357.500000 139.183977
357.500000 139.666835
357.500000 140.150529
357.500000 140.635060
357.500000 141.120426
357.500000 141.606629
357.500000 142.093668
357.500000 142.581542
357.500000 143.070253
357.500000 143.559801
357.500000 144.050184
357.500000 144.541403
357.500000 145.033459
357.500000 145.526350
357.500000 146.020078
357.500000 146.514642
357.500000 147.010042
357.500000 147.506278
357.500000 148.003350
357.500000 148.501258
357.500000 149.000003
357.500000 149.499583
357.500000 150.000000
</POINTS>
</NEKTAR>

