<?xml version="1.0" encoding="utf-8" ?>
<NEKTAR>
<POINTS DIM="2" FIELDS="">
643.500000 -0.250000
643.500000 -0.249581
643.500000 -0.248325
643.500000 -0.246231
643.500000 -0.243300
643.500000 -0.239531
643.500000 -0.234925
643.500000 -0.229481
643.500000 -0.223200
643.500000 -0.216081
643.500000 -0.208124
643.500000 -0.199331
643.500000 -0.189699
643.500000 -0.179230
643.500000 -0.167924
643.500000 -0.155780
643.500000 -0.142799
643.500000 -0.128980
643.500000 -0.114323
643.500000 -0.098829
643.500000 -0.082498
643.500000 -0.065329
643.500000 -0.047322
643.500000 -0.028478
643.500000 -0.008797
643.500000 0.011722
643.500000 0.033079
643.500000 0.055273
643.500000 0.078305
643.500000 0.102174
643.500000 0.126880
643.500000 0.152424
643.500000 0.178806
643.500000 0.206025
643.500000 0.234082
643.500000 0.262976
643.500000 0.292708
643.500000 0.323277
643.500000 0.354683
643.500000 0.386928
643.500000 0.420009
643.500000 0.453929
643.500000 0.488685
643.500000 0.524279
643.500000 0.560711
643.500000 0.597980
643.500000 0.636087
643.500000 0.675032
643.500000 0.714813
643.500000 0.755433
643.500000 0.796890
643.500000 0.839184
643.500000 0.882316
643.500000 0.926285
643.500000 0.971092
643.500000 1.016736
643.500000 1.063218
643.500000 1.110538
643.500000 1.158695
643.500000 1.207689
643.500000 1.257521
643.500000 1.308190
643.500000 1.359697
643.500000 1.412042
643.500000 1.465224
643.500000 1.519243
643.500000 1.574100
643.500000 1.629795
643.500000 1.686327
643.500000 1.743696
643.500000 1.801903
643.500000 1.860948
643.500000 1.920830
643.500000 1.981550
643.500000 2.043107
643.500000 2.105501
643.500000 2.168734
643.500000 2.232803
643.500000 2.297710
643.500000 2.363455
643.500000 2.430037
643.500000 2.497457
643.500000 2.565714
643.500000 2.634809
643.500000 2.704741
643.500000 2.775511
643.500000 2.847118
643.500000 2.919563
643.500000 2.992845
643.500000 3.066965
643.500000 3.141922
643.500000 3.217717
643.500000 3.294349
643.500000 3.371819
643.500000 3.450126
643.500000 3.529271
643.500000 3.609253
643.500000 3.690073
643.500000 3.771731
643.500000 3.854226
643.500000 3.937558
643.500000 4.021728
643.500000 4.106735
643.500000 4.192580
643.500000 4.279263
643.500000 4.366783
643.500000 4.455140
643.500000 4.544335
643.500000 4.634368
643.500000 4.725238
643.500000 4.816945
643.500000 4.909490
643.500000 5.002873
643.500000 5.097093
643.500000 5.192150
643.500000 5.288045
643.500000 5.384778
643.500000 5.482348
643.500000 5.580756
643.500000 5.680001
643.500000 5.780084
643.500000 5.881004
643.500000 5.982761
643.500000 6.085357
643.500000 6.188789
643.500000 6.293059
643.500000 6.398167
643.500000 6.504112
643.500000 6.610895
643.500000 6.718515
643.500000 6.826973
643.500000 6.936268
643.500000 7.046401
643.500000 7.157371
643.500000 7.269179
643.500000 7.381824
643.500000 7.495307
643.500000 7.609628
643.500000 7.724785
643.500000 7.840781
643.500000 7.957614
643.500000 8.075284
643.500000 8.193792
643.500000 8.313137
643.500000 8.433320
643.500000 8.554341
643.500000 8.676199
643.500000 8.798894
643.500000 8.922427
643.500000 9.046798
643.500000 9.172006
643.500000 9.298051
643.500000 9.424934
643.500000 9.552655
643.500000 9.681213
643.500000 9.810608
643.500000 9.940841
643.500000 10.071912
643.500000 10.203820
643.500000 10.336565
643.500000 10.470148
643.500000 10.604569
643.500000 10.739827
643.500000 10.875923
643.500000 11.012856
643.500000 11.150627
643.500000 11.289235
643.500000 11.428681
643.500000 11.568964
643.500000 11.710084
643.500000 11.852043
643.500000 11.994838
643.500000 12.138472
643.500000 12.282942
643.500000 12.428251
643.500000 12.574396
643.500000 12.721380
643.500000 12.869200
643.500000 13.017859
643.500000 13.167355
643.500000 13.317688
643.500000 13.468859
643.500000 13.620867
643.500000 13.773713
643.500000 13.927396
643.500000 14.081917
643.500000 14.237276
643.500000 14.393472
643.500000 14.550505
643.500000 14.708376
643.500000 14.867084
643.500000 15.026630
643.500000 15.187014
643.500000 15.348235
643.500000 15.510293
643.500000 15.673189
643.500000 15.836923
643.500000 16.001494
643.500000 16.166902
643.500000 16.333148
643.500000 16.500232
643.500000 16.668153
643.500000 16.836912
643.500000 17.006508
643.500000 17.176941
643.500000 17.348213
643.500000 17.520321
643.500000 17.693267
643.500000 17.867051
643.500000 18.041672
643.500000 18.217131
643.500000 18.393427
643.500000 18.570561
643.500000 18.748532
643.500000 18.927341
643.500000 19.106987
643.500000 19.287471
643.500000 19.468792
643.500000 19.650951
643.500000 19.833947
643.500000 20.017781
643.500000 20.202452
643.500000 20.387961
643.500000 20.574307
643.500000 20.761491
643.500000 20.949512
643.500000 21.138371
643.500000 21.328068
643.500000 21.518602
643.500000 21.709973
643.500000 21.902182
643.500000 22.095228
643.500000 22.289112
643.500000 22.483834
643.500000 22.679393
643.500000 22.875789
643.500000 23.073023
643.500000 23.271095
643.500000 23.470004
643.500000 23.669750
643.500000 23.870334
643.500000 24.071756
643.500000 24.274015
643.500000 24.477111
643.500000 24.681045
643.500000 24.885817
643.500000 25.091426
643.500000 25.297873
643.500000 25.505157
643.500000 25.713278
643.500000 25.922238
643.500000 26.132034
643.500000 26.342668
643.500000 26.554140
643.500000 26.766449
643.500000 26.979596
643.500000 27.193580
643.500000 27.408402
643.500000 27.624061
643.500000 27.840558
643.500000 28.057892
643.500000 28.276064
643.500000 28.495073
643.500000 28.714920
643.500000 28.935604
643.500000 29.157126
643.500000 29.379485
643.500000 29.602682
643.500000 29.826717
643.500000 30.051588
643.500000 30.277298
643.500000 30.503845
643.500000 30.731229
643.500000 30.959451
643.500000 31.188510
643.500000 31.418407
643.500000 31.649142
643.500000 31.880714
643.500000 32.113123
643.500000 32.346370
643.500000 32.580455
643.500000 32.815377
643.500000 33.051136
643.500000 33.287733
643.500000 33.525168
643.500000 33.763440
643.500000 34.002549
643.500000 34.242497
643.500000 34.483281
643.500000 34.724903
643.500000 34.967363
643.500000 35.210660
643.500000 35.454795
643.500000 35.699767
643.500000 35.945576
643.500000 36.192224
643.500000 36.439708
643.500000 36.688030
643.500000 36.937190
643.500000 37.187187
643.500000 37.438022
643.500000 37.689694
643.500000 37.942204
643.500000 38.195551
643.500000 38.449736
643.500000 38.704758
643.500000 38.960618
643.500000 39.217315
643.500000 39.474850
643.500000 39.733223
643.500000 39.992432
643.500000 40.252480
643.500000 40.513365
643.500000 40.775087
643.500000 41.037647
643.500000 41.301044
643.500000 41.565279
643.500000 41.830352
643.500000 42.096262
643.500000 42.363009
643.500000 42.630594
643.500000 42.899016
643.500000 43.168276
643.500000 43.438374
643.500000 43.709309
643.500000 43.981081
643.500000 44.253691
643.500000 44.527139
643.500000 44.801424
643.500000 45.076547
643.500000 45.352507
643.500000 45.629304
643.500000 45.906939
643.500000 46.185412
643.500000 46.464722
643.500000 46.744870
643.500000 47.025855
643.500000 47.307678
643.500000 47.590338
643.500000 47.873835
643.500000 48.158171
643.500000 48.443343
643.500000 48.729353
643.500000 49.016201
643.500000 49.303886
643.500000 49.592409
643.500000 49.881769
643.500000 50.171967
643.500000 50.463002
643.500000 50.754875
643.500000 51.047586
643.500000 51.341133
643.500000 51.635519
643.500000 51.930742
643.500000 52.226802
643.500000 52.523700
643.500000 52.821435
643.500000 53.120008
643.500000 53.419418
643.500000 53.719666
643.500000 54.020752
643.500000 54.322675
643.500000 54.625435
643.500000 54.929033
643.500000 55.233469
643.500000 55.538742
643.500000 55.844852
643.500000 56.151800
643.500000 56.459586
643.500000 56.768209
643.500000 57.077669
643.500000 57.387967
643.500000 57.699103
643.500000 58.011076
643.500000 58.323886
643.500000 58.637534
643.500000 58.952020
643.500000 59.267343
643.500000 59.583504
643.500000 59.900502
643.500000 60.218338
643.500000 60.537011
643.500000 60.856521
643.500000 61.176870
643.500000 61.498055
643.500000 61.820079
643.500000 62.142939
643.500000 62.466637
643.500000 62.791173
643.500000 63.116546
643.500000 63.442757
643.500000 63.769806
643.500000 64.097691
643.500000 64.426415
643.500000 64.755975
643.500000 65.086374
643.500000 65.417610
643.500000 65.749683
643.500000 66.082594
643.500000 66.416342
643.500000 66.750928
643.500000 67.086351
643.500000 67.422612
643.500000 67.759711
643.500000 68.097647
643.500000 68.436420
643.500000 68.776031
643.500000 69.116480
643.500000 69.457766
643.500000 69.799889
643.500000 70.142850
643.500000 70.486649
643.500000 70.831285
643.500000 71.176758
643.500000 71.523069
643.500000 71.870218
643.500000 72.218204
643.500000 72.567027
643.500000 72.916688
643.500000 73.267187
643.500000 73.618523
643.500000 73.970697
643.500000 74.323708
643.500000 74.677557
643.500000 75.032243
643.500000 75.387766
643.500000 75.744128
643.500000 76.101326
643.500000 76.459363
643.500000 76.818236
643.500000 77.177948
643.500000 77.538496
643.500000 77.899883
643.500000 78.262106
643.500000 78.625168
643.500000 78.989066
643.500000 79.353803
643.500000 79.719376
643.500000 80.085788
643.500000 80.453037
643.500000 80.821123
643.500000 81.190047
643.500000 81.559808
643.500000 81.930407
643.500000 82.301844
643.500000 82.674117
643.500000 83.047229
643.500000 83.421178
643.500000 83.795964
643.500000 84.171588
643.500000 84.548050
643.500000 84.925349
643.500000 85.303485
643.500000 85.682459
643.500000 86.062271
643.500000 86.442920
643.500000 86.824406
643.500000 87.206730
643.500000 87.589892
643.500000 87.973891
643.500000 88.358727
643.500000 88.744401
643.500000 89.130913
643.500000 89.518262
643.500000 89.906449
643.500000 90.295473
643.500000 90.685335
643.500000 91.076034
643.500000 91.467570
643.500000 91.859945
643.500000 92.253156
643.500000 92.647206
643.500000 93.042092
643.500000 93.437817
643.500000 93.834378
643.500000 94.231778
643.500000 94.630014
643.500000 95.029089
643.500000 95.429000
643.500000 95.829750
643.500000 96.231336
643.500000 96.633761
643.500000 97.037023
643.500000 97.441122
643.500000 97.846059
643.500000 98.251833
643.500000 98.658445
643.500000 99.065894
643.500000 99.474181
643.500000 99.883306
643.500000 100.293268
643.500000 100.704067
643.500000 101.115704
643.500000 101.528179
643.500000 101.941491
643.500000 102.355640
643.500000 102.770627
643.500000 103.186452
643.500000 103.603114
643.500000 104.020613
643.500000 104.438950
643.500000 104.858125
643.500000 105.278137
643.500000 105.698986
643.500000 106.120673
643.500000 106.543198
643.500000 106.966560
643.500000 107.390760
643.500000 107.815797
643.500000 108.241672
643.500000 108.668384
643.500000 109.095933
643.500000 109.524321
643.500000 109.953545
643.500000 110.383607
643.500000 110.814507
643.500000 111.246244
643.500000 111.678819
643.500000 112.112231
643.500000 112.546481
643.500000 112.981568
643.500000 113.417493
643.500000 113.854256
643.500000 114.291855
643.500000 114.730293
643.500000 115.169568
643.500000 115.609680
643.500000 116.050630
643.500000 116.492417
643.500000 116.935042
643.500000 117.378504
643.500000 117.822804
643.500000 118.267942
643.500000 118.713917
643.500000 119.160729
643.500000 119.608379
643.500000 120.056866
643.500000 120.506191
643.500000 120.956354
643.500000 121.407354
643.500000 121.859191
643.500000 122.311866
643.500000 122.765379
643.500000 123.219729
643.500000 123.674917
643.500000 124.130942
643.500000 124.587804
643.500000 125.045504
643.500000 125.504042
643.500000 125.963417
643.500000 126.423630
643.500000 126.884680
643.500000 127.346567
643.500000 127.809293
643.500000 128.272855
643.500000 128.737255
643.500000 129.202493
643.500000 129.668568
643.500000 130.135481
643.500000 130.603231
643.500000 131.071819
643.500000 131.541244
643.500000 132.011507
643.500000 132.482607
643.500000 132.954545
643.500000 133.427320
643.500000 133.900933
643.500000 134.375384
643.500000 134.850671
643.500000 135.326797
643.500000 135.803760
643.500000 136.281560
643.500000 136.760198
643.500000 137.239673
643.500000 137.719986
643.500000 138.201137
643.500000 138.683124
643.500000 139.165950
643.500000 139.649613
643.500000 140.134113
643.500000 140.619451
643.500000 141.105627
643.500000 141.592640
643.500000 142.080490
643.500000 142.569178
643.500000 143.058704
643.500000 143.549067
643.500000 144.040267
643.500000 144.532306
643.500000 145.025181
643.500000 145.518894
643.500000 146.013445
643.500000 146.508833
643.500000 147.005059
643.500000 147.502122
643.500000 148.000022
643.500000 148.498760
643.500000 148.998336
643.500000 149.498749
643.500000 150.000000
</POINTS>
</NEKTAR>

