<?xml version="1.0" encoding="utf-8" ?>
<NEKTAR>
<POINTS DIM="2" FIELDS="">
223.500000 -0.250000
223.500000 -0.249581
223.500000 -0.248325
223.500000 -0.246231
223.500000 -0.243300
223.500000 -0.239531
223.500000 -0.234925
223.500000 -0.229481
223.500000 -0.223200
223.500000 -0.216081
223.500000 -0.208124
223.500000 -0.199331
223.500000 -0.189699
223.500000 -0.179230
223.500000 -0.167924
223.500000 -0.155780
223.500000 -0.142799
223.500000 -0.128980
223.500000 -0.114323
223.500000 -0.098829
223.500000 -0.082498
223.500000 -0.065329
223.500000 -0.047322
223.500000 -0.028478
223.500000 -0.008797
223.500000 0.011722
223.500000 0.033079
223.500000 0.055273
223.500000 0.078305
223.500000 0.102174
223.500000 0.126880
223.500000 0.152424
223.500000 0.178806
223.500000 0.206025
223.500000 0.234082
223.500000 0.262976
223.500000 0.292708
223.500000 0.323277
223.500000 0.354683
223.500000 0.386928
223.500000 0.420009
223.500000 0.453929
223.500000 0.488685
223.500000 0.524279
223.500000 0.560711
223.500000 0.597980
223.500000 0.636087
223.500000 0.675032
223.500000 0.714813
223.500000 0.755433
223.500000 0.796890
223.500000 0.839184
223.500000 0.882316
223.500000 0.926285
223.500000 0.971092
223.500000 1.016736
223.500000 1.063218
223.500000 1.110538
223.500000 1.158695
223.500000 1.207689
223.500000 1.257521
223.500000 1.308190
223.500000 1.359697
223.500000 1.412042
223.500000 1.465224
223.500000 1.519243
223.500000 1.574100
223.500000 1.629795
223.500000 1.686327
223.500000 1.743696
223.500000 1.801903
223.500000 1.860948
223.500000 1.920830
223.500000 1.981550
223.500000 2.043107
223.500000 2.105501
223.500000 2.168734
223.500000 2.232803
223.500000 2.297710
223.500000 2.363455
223.500000 2.430037
223.500000 2.497457
223.500000 2.565714
223.500000 2.634809
223.500000 2.704741
223.500000 2.775511
223.500000 2.847118
223.500000 2.919563
223.500000 2.992845
223.500000 3.066965
223.500000 3.141922
223.500000 3.217717
223.500000 3.294349
223.500000 3.371819
223.500000 3.450126
223.500000 3.529271
223.500000 3.609253
223.500000 3.690073
223.500000 3.771731
223.500000 3.854226
223.500000 3.937558
223.500000 4.021728
223.500000 4.106735
223.500000 4.192580
223.500000 4.279263
223.500000 4.366783
223.500000 4.455140
223.500000 4.544335
223.500000 4.634368
223.500000 4.725238
223.500000 4.816945
223.500000 4.909490
223.500000 5.002873
223.500000 5.097093
223.500000 5.192150
223.500000 5.288045
223.500000 5.384778
223.500000 5.482348
223.500000 5.580756
223.500000 5.680001
223.500000 5.780084
223.500000 5.881004
223.500000 5.982761
223.500000 6.085357
223.500000 6.188789
223.500000 6.293059
223.500000 6.398167
223.500000 6.504112
223.500000 6.610895
223.500000 6.718515
223.500000 6.826973
223.500000 6.936268
223.500000 7.046401
223.500000 7.157371
223.500000 7.269179
223.500000 7.381824
223.500000 7.495307
223.500000 7.609628
223.500000 7.724785
223.500000 7.840781
223.500000 7.957614
223.500000 8.075284
223.500000 8.193792
223.500000 8.313137
223.500000 8.433320
223.500000 8.554341
223.500000 8.676199
223.500000 8.798894
223.500000 8.922427
223.500000 9.046798
223.500000 9.172006
223.500000 9.298051
223.500000 9.424934
223.500000 9.552655
223.500000 9.681213
223.500000 9.810608
223.500000 9.940841
223.500000 10.071912
223.500000 10.203820
223.500000 10.336565
223.500000 10.470148
223.500000 10.604569
223.500000 10.739827
223.500000 10.875923
223.500000 11.012856
223.500000 11.150627
223.500000 11.289235
223.500000 11.428681
223.500000 11.568964
223.500000 11.710084
223.500000 11.852043
223.500000 11.994838
223.500000 12.138472
223.500000 12.282942
223.500000 12.428251
223.500000 12.574396
223.500000 12.721380
223.500000 12.869200
223.500000 13.017859
223.500000 13.167355
223.500000 13.317688
223.500000 13.468859
223.500000 13.620867
223.500000 13.773713
223.500000 13.927396
223.500000 14.081917
223.500000 14.237276
223.500000 14.393472
223.500000 14.550505
223.500000 14.708376
223.500000 14.867084
223.500000 15.026630
223.500000 15.187014
223.500000 15.348235
223.500000 15.510293
223.500000 15.673189
223.500000 15.836923
223.500000 16.001494
223.500000 16.166902
223.500000 16.333148
223.500000 16.500232
223.500000 16.668153
223.500000 16.836912
223.500000 17.006508
223.500000 17.176941
223.500000 17.348213
223.500000 17.520321
223.500000 17.693267
223.500000 17.867051
223.500000 18.041672
223.500000 18.217131
223.500000 18.393427
223.500000 18.570561
223.500000 18.748532
223.500000 18.927341
223.500000 19.106987
223.500000 19.287471
223.500000 19.468792
223.500000 19.650951
223.500000 19.833947
223.500000 20.017781
223.500000 20.202452
223.500000 20.387961
223.500000 20.574307
223.500000 20.761491
223.500000 20.949512
223.500000 21.138371
223.500000 21.328068
223.500000 21.518602
223.500000 21.709973
223.500000 21.902182
223.500000 22.095228
223.500000 22.289112
223.500000 22.483834
223.500000 22.679393
223.500000 22.875789
223.500000 23.073023
223.500000 23.271095
223.500000 23.470004
223.500000 23.669750
223.500000 23.870334
223.500000 24.071756
223.500000 24.274015
223.500000 24.477111
223.500000 24.681045
223.500000 24.885817
223.500000 25.091426
223.500000 25.297873
223.500000 25.505157
223.500000 25.713278
223.500000 25.922238
223.500000 26.132034
223.500000 26.342668
223.500000 26.554140
223.500000 26.766449
223.500000 26.979596
223.500000 27.193580
223.500000 27.408402
223.500000 27.624061
223.500000 27.840558
223.500000 28.057892
223.500000 28.276064
223.500000 28.495073
223.500000 28.714920
223.500000 28.935604
223.500000 29.157126
223.500000 29.379485
223.500000 29.602682
223.500000 29.826717
223.500000 30.051588
223.500000 30.277298
223.500000 30.503845
223.500000 30.731229
223.500000 30.959451
223.500000 31.188510
223.500000 31.418407
223.500000 31.649142
223.500000 31.880714
223.500000 32.113123
223.500000 32.346370
223.500000 32.580455
223.500000 32.815377
223.500000 33.051136
223.500000 33.287733
223.500000 33.525168
223.500000 33.763440
223.500000 34.002549
223.500000 34.242497
223.500000 34.483281
223.500000 34.724903
223.500000 34.967363
223.500000 35.210660
223.500000 35.454795
223.500000 35.699767
223.500000 35.945576
223.500000 36.192224
223.500000 36.439708
223.500000 36.688030
223.500000 36.937190
223.500000 37.187187
223.500000 37.438022
223.500000 37.689694
223.500000 37.942204
223.500000 38.195551
223.500000 38.449736
223.500000 38.704758
223.500000 38.960618
223.500000 39.217315
223.500000 39.474850
223.500000 39.733223
223.500000 39.992432
223.500000 40.252480
223.500000 40.513365
223.500000 40.775087
223.500000 41.037647
223.500000 41.301044
223.500000 41.565279
223.500000 41.830352
223.500000 42.096262
223.500000 42.363009
223.500000 42.630594
223.500000 42.899016
223.500000 43.168276
223.500000 43.438374
223.500000 43.709309
223.500000 43.981081
223.500000 44.253691
223.500000 44.527139
223.500000 44.801424
223.500000 45.076547
223.500000 45.352507
223.500000 45.629304
223.500000 45.906939
223.500000 46.185412
223.500000 46.464722
223.500000 46.744870
223.500000 47.025855
223.500000 47.307678
223.500000 47.590338
223.500000 47.873835
223.500000 48.158171
223.500000 48.443343
223.500000 48.729353
223.500000 49.016201
223.500000 49.303886
223.500000 49.592409
223.500000 49.881769
223.500000 50.171967
223.500000 50.463002
223.500000 50.754875
223.500000 51.047586
223.500000 51.341133
223.500000 51.635519
223.500000 51.930742
223.500000 52.226802
223.500000 52.523700
223.500000 52.821435
223.500000 53.120008
223.500000 53.419418
223.500000 53.719666
223.500000 54.020752
223.500000 54.322675
223.500000 54.625435
223.500000 54.929033
223.500000 55.233469
223.500000 55.538742
223.500000 55.844852
223.500000 56.151800
223.500000 56.459586
223.500000 56.768209
223.500000 57.077669
223.500000 57.387967
223.500000 57.699103
223.500000 58.011076
223.500000 58.323886
223.500000 58.637534
223.500000 58.952020
223.500000 59.267343
223.500000 59.583504
223.500000 59.900502
223.500000 60.218338
223.500000 60.537011
223.500000 60.856521
223.500000 61.176870
223.500000 61.498055
223.500000 61.820079
223.500000 62.142939
223.500000 62.466637
223.500000 62.791173
223.500000 63.116546
223.500000 63.442757
223.500000 63.769806
223.500000 64.097691
223.500000 64.426415
223.500000 64.755975
223.500000 65.086374
223.500000 65.417610
223.500000 65.749683
223.500000 66.082594
223.500000 66.416342
223.500000 66.750928
223.500000 67.086351
223.500000 67.422612
223.500000 67.759711
223.500000 68.097647
223.500000 68.436420
223.500000 68.776031
223.500000 69.116480
223.500000 69.457766
223.500000 69.799889
223.500000 70.142850
223.500000 70.486649
223.500000 70.831285
223.500000 71.176758
223.500000 71.523069
223.500000 71.870218
223.500000 72.218204
223.500000 72.567027
223.500000 72.916688
223.500000 73.267187
223.500000 73.618523
223.500000 73.970697
223.500000 74.323708
223.500000 74.677557
223.500000 75.032243
223.500000 75.387766
223.500000 75.744128
223.500000 76.101326
223.500000 76.459363
223.500000 76.818236
223.500000 77.177948
223.500000 77.538496
223.500000 77.899883
223.500000 78.262106
223.500000 78.625168
223.500000 78.989066
223.500000 79.353803
223.500000 79.719376
223.500000 80.085788
223.500000 80.453037
223.500000 80.821123
223.500000 81.190047
223.500000 81.559808
223.500000 81.930407
223.500000 82.301844
223.500000 82.674117
223.500000 83.047229
223.500000 83.421178
223.500000 83.795964
223.500000 84.171588
223.500000 84.548050
223.500000 84.925349
223.500000 85.303485
223.500000 85.682459
223.500000 86.062271
223.500000 86.442920
223.500000 86.824406
223.500000 87.206730
223.500000 87.589892
223.500000 87.973891
223.500000 88.358727
223.500000 88.744401
223.500000 89.130913
223.500000 89.518262
223.500000 89.906449
223.500000 90.295473
223.500000 90.685335
223.500000 91.076034
223.500000 91.467570
223.500000 91.859945
223.500000 92.253156
223.500000 92.647206
223.500000 93.042092
223.500000 93.437817
223.500000 93.834378
223.500000 94.231778
223.500000 94.630014
223.500000 95.029089
223.500000 95.429000
223.500000 95.829750
223.500000 96.231336
223.500000 96.633761
223.500000 97.037023
223.500000 97.441122
223.500000 97.846059
223.500000 98.251833
223.500000 98.658445
223.500000 99.065894
223.500000 99.474181
223.500000 99.883306
223.500000 100.293268
223.500000 100.704067
223.500000 101.115704
223.500000 101.528179
223.500000 101.941491
223.500000 102.355640
223.500000 102.770627
223.500000 103.186452
223.500000 103.603114
223.500000 104.020613
223.500000 104.438950
223.500000 104.858125
223.500000 105.278137
223.500000 105.698986
223.500000 106.120673
223.500000 106.543198
223.500000 106.966560
223.500000 107.390760
223.500000 107.815797
223.500000 108.241672
223.500000 108.668384
223.500000 109.095933
223.500000 109.524321
223.500000 109.953545
223.500000 110.383607
223.500000 110.814507
223.500000 111.246244
223.500000 111.678819
223.500000 112.112231
223.500000 112.546481
223.500000 112.981568
223.500000 113.417493
223.500000 113.854256
223.500000 114.291855
223.500000 114.730293
223.500000 115.169568
223.500000 115.609680
223.500000 116.050630
223.500000 116.492417
223.500000 116.935042
223.500000 117.378504
223.500000 117.822804
223.500000 118.267942
223.500000 118.713917
223.500000 119.160729
223.500000 119.608379
223.500000 120.056866
223.500000 120.506191
223.500000 120.956354
223.500000 121.407354
223.500000 121.859191
223.500000 122.311866
223.500000 122.765379
223.500000 123.219729
223.500000 123.674917
223.500000 124.130942
223.500000 124.587804
223.500000 125.045504
223.500000 125.504042
223.500000 125.963417
223.500000 126.423630
223.500000 126.884680
223.500000 127.346567
223.500000 127.809293
223.500000 128.272855
223.500000 128.737255
223.500000 129.202493
223.500000 129.668568
223.500000 130.135481
223.500000 130.603231
223.500000 131.071819
223.500000 131.541244
223.500000 132.011507
223.500000 132.482607
223.500000 132.954545
223.500000 133.427320
223.500000 133.900933
223.500000 134.375384
223.500000 134.850671
223.500000 135.326797
223.500000 135.803760
223.500000 136.281560
223.500000 136.760198
223.500000 137.239673
223.500000 137.719986
223.500000 138.201137
223.500000 138.683124
223.500000 139.165950
223.500000 139.649613
223.500000 140.134113
223.500000 140.619451
223.500000 141.105627
223.500000 141.592640
223.500000 142.080490
223.500000 142.569178
223.500000 143.058704
223.500000 143.549067
223.500000 144.040267
223.500000 144.532306
223.500000 145.025181
223.500000 145.518894
223.500000 146.013445
223.500000 146.508833
223.500000 147.005059
223.500000 147.502122
223.500000 148.000022
223.500000 148.498760
223.500000 148.998336
223.500000 149.498749
223.500000 150.000000
</POINTS>
</NEKTAR>

