<?xml version="1.0" encoding="utf-8" ?>
<NEKTAR>
<POINTS DIM="2" FIELDS="">
83.500000 -0.250000
83.500000 -0.249581
83.500000 -0.248325
83.500000 -0.246231
83.500000 -0.243300
83.500000 -0.239531
83.500000 -0.234925
83.500000 -0.229481
83.500000 -0.223200
83.500000 -0.216081
83.500000 -0.208124
83.500000 -0.199331
83.500000 -0.189699
83.500000 -0.179230
83.500000 -0.167924
83.500000 -0.155780
83.500000 -0.142799
83.500000 -0.128980
83.500000 -0.114323
83.500000 -0.098829
83.500000 -0.082498
83.500000 -0.065329
83.500000 -0.047322
83.500000 -0.028478
83.500000 -0.008797
83.500000 0.011722
83.500000 0.033079
83.500000 0.055273
83.500000 0.078305
83.500000 0.102174
83.500000 0.126880
83.500000 0.152424
83.500000 0.178806
83.500000 0.206025
83.500000 0.234082
83.500000 0.262976
83.500000 0.292708
83.500000 0.323277
83.500000 0.354683
83.500000 0.386928
83.500000 0.420009
83.500000 0.453929
83.500000 0.488685
83.500000 0.524279
83.500000 0.560711
83.500000 0.597980
83.500000 0.636087
83.500000 0.675032
83.500000 0.714813
83.500000 0.755433
83.500000 0.796890
83.500000 0.839184
83.500000 0.882316
83.500000 0.926285
83.500000 0.971092
83.500000 1.016736
83.500000 1.063218
83.500000 1.110538
83.500000 1.158695
83.500000 1.207689
83.500000 1.257521
83.500000 1.308190
83.500000 1.359697
83.500000 1.412042
83.500000 1.465224
83.500000 1.519243
83.500000 1.574100
83.500000 1.629795
83.500000 1.686327
83.500000 1.743696
83.500000 1.801903
83.500000 1.860948
83.500000 1.920830
83.500000 1.981550
83.500000 2.043107
83.500000 2.105501
83.500000 2.168734
83.500000 2.232803
83.500000 2.297710
83.500000 2.363455
83.500000 2.430037
83.500000 2.497457
83.500000 2.565714
83.500000 2.634809
83.500000 2.704741
83.500000 2.775511
83.500000 2.847118
83.500000 2.919563
83.500000 2.992845
83.500000 3.066965
83.500000 3.141922
83.500000 3.217717
83.500000 3.294349
83.500000 3.371819
83.500000 3.450126
83.500000 3.529271
83.500000 3.609253
83.500000 3.690073
83.500000 3.771731
83.500000 3.854226
83.500000 3.937558
83.500000 4.021728
83.500000 4.106735
83.500000 4.192580
83.500000 4.279263
83.500000 4.366783
83.500000 4.455140
83.500000 4.544335
83.500000 4.634368
83.500000 4.725238
83.500000 4.816945
83.500000 4.909490
83.500000 5.002873
83.500000 5.097093
83.500000 5.192150
83.500000 5.288045
83.500000 5.384778
83.500000 5.482348
83.500000 5.580756
83.500000 5.680001
83.500000 5.780084
83.500000 5.881004
83.500000 5.982761
83.500000 6.085357
83.500000 6.188789
83.500000 6.293059
83.500000 6.398167
83.500000 6.504112
83.500000 6.610895
83.500000 6.718515
83.500000 6.826973
83.500000 6.936268
83.500000 7.046401
83.500000 7.157371
83.500000 7.269179
83.500000 7.381824
83.500000 7.495307
83.500000 7.609628
83.500000 7.724785
83.500000 7.840781
83.500000 7.957614
83.500000 8.075284
83.500000 8.193792
83.500000 8.313137
83.500000 8.433320
83.500000 8.554341
83.500000 8.676199
83.500000 8.798894
83.500000 8.922427
83.500000 9.046798
83.500000 9.172006
83.500000 9.298051
83.500000 9.424934
83.500000 9.552655
83.500000 9.681213
83.500000 9.810608
83.500000 9.940841
83.500000 10.071912
83.500000 10.203820
83.500000 10.336565
83.500000 10.470148
83.500000 10.604569
83.500000 10.739827
83.500000 10.875923
83.500000 11.012856
83.500000 11.150627
83.500000 11.289235
83.500000 11.428681
83.500000 11.568964
83.500000 11.710084
83.500000 11.852043
83.500000 11.994838
83.500000 12.138472
83.500000 12.282942
83.500000 12.428251
83.500000 12.574396
83.500000 12.721380
83.500000 12.869200
83.500000 13.017859
83.500000 13.167355
83.500000 13.317688
83.500000 13.468859
83.500000 13.620867
83.500000 13.773713
83.500000 13.927396
83.500000 14.081917
83.500000 14.237276
83.500000 14.393472
83.500000 14.550505
83.500000 14.708376
83.500000 14.867084
83.500000 15.026630
83.500000 15.187014
83.500000 15.348235
83.500000 15.510293
83.500000 15.673189
83.500000 15.836923
83.500000 16.001494
83.500000 16.166902
83.500000 16.333148
83.500000 16.500232
83.500000 16.668153
83.500000 16.836912
83.500000 17.006508
83.500000 17.176941
83.500000 17.348213
83.500000 17.520321
83.500000 17.693267
83.500000 17.867051
83.500000 18.041672
83.500000 18.217131
83.500000 18.393427
83.500000 18.570561
83.500000 18.748532
83.500000 18.927341
83.500000 19.106987
83.500000 19.287471
83.500000 19.468792
83.500000 19.650951
83.500000 19.833947
83.500000 20.017781
83.500000 20.202452
83.500000 20.387961
83.500000 20.574307
83.500000 20.761491
83.500000 20.949512
83.500000 21.138371
83.500000 21.328068
83.500000 21.518602
83.500000 21.709973
83.500000 21.902182
83.500000 22.095228
83.500000 22.289112
83.500000 22.483834
83.500000 22.679393
83.500000 22.875789
83.500000 23.073023
83.500000 23.271095
83.500000 23.470004
83.500000 23.669750
83.500000 23.870334
83.500000 24.071756
83.500000 24.274015
83.500000 24.477111
83.500000 24.681045
83.500000 24.885817
83.500000 25.091426
83.500000 25.297873
83.500000 25.505157
83.500000 25.713278
83.500000 25.922238
83.500000 26.132034
83.500000 26.342668
83.500000 26.554140
83.500000 26.766449
83.500000 26.979596
83.500000 27.193580
83.500000 27.408402
83.500000 27.624061
83.500000 27.840558
83.500000 28.057892
83.500000 28.276064
83.500000 28.495073
83.500000 28.714920
83.500000 28.935604
83.500000 29.157126
83.500000 29.379485
83.500000 29.602682
83.500000 29.826717
83.500000 30.051588
83.500000 30.277298
83.500000 30.503845
83.500000 30.731229
83.500000 30.959451
83.500000 31.188510
83.500000 31.418407
83.500000 31.649142
83.500000 31.880714
83.500000 32.113123
83.500000 32.346370
83.500000 32.580455
83.500000 32.815377
83.500000 33.051136
83.500000 33.287733
83.500000 33.525168
83.500000 33.763440
83.500000 34.002549
83.500000 34.242497
83.500000 34.483281
83.500000 34.724903
83.500000 34.967363
83.500000 35.210660
83.500000 35.454795
83.500000 35.699767
83.500000 35.945576
83.500000 36.192224
83.500000 36.439708
83.500000 36.688030
83.500000 36.937190
83.500000 37.187187
83.500000 37.438022
83.500000 37.689694
83.500000 37.942204
83.500000 38.195551
83.500000 38.449736
83.500000 38.704758
83.500000 38.960618
83.500000 39.217315
83.500000 39.474850
83.500000 39.733223
83.500000 39.992432
83.500000 40.252480
83.500000 40.513365
83.500000 40.775087
83.500000 41.037647
83.500000 41.301044
83.500000 41.565279
83.500000 41.830352
83.500000 42.096262
83.500000 42.363009
83.500000 42.630594
83.500000 42.899016
83.500000 43.168276
83.500000 43.438374
83.500000 43.709309
83.500000 43.981081
83.500000 44.253691
83.500000 44.527139
83.500000 44.801424
83.500000 45.076547
83.500000 45.352507
83.500000 45.629304
83.500000 45.906939
83.500000 46.185412
83.500000 46.464722
83.500000 46.744870
83.500000 47.025855
83.500000 47.307678
83.500000 47.590338
83.500000 47.873835
83.500000 48.158171
83.500000 48.443343
83.500000 48.729353
83.500000 49.016201
83.500000 49.303886
83.500000 49.592409
83.500000 49.881769
83.500000 50.171967
83.500000 50.463002
83.500000 50.754875
83.500000 51.047586
83.500000 51.341133
83.500000 51.635519
83.500000 51.930742
83.500000 52.226802
83.500000 52.523700
83.500000 52.821435
83.500000 53.120008
83.500000 53.419418
83.500000 53.719666
83.500000 54.020752
83.500000 54.322675
83.500000 54.625435
83.500000 54.929033
83.500000 55.233469
83.500000 55.538742
83.500000 55.844852
83.500000 56.151800
83.500000 56.459586
83.500000 56.768209
83.500000 57.077669
83.500000 57.387967
83.500000 57.699103
83.500000 58.011076
83.500000 58.323886
83.500000 58.637534
83.500000 58.952020
83.500000 59.267343
83.500000 59.583504
83.500000 59.900502
83.500000 60.218338
83.500000 60.537011
83.500000 60.856521
83.500000 61.176870
83.500000 61.498055
83.500000 61.820079
83.500000 62.142939
83.500000 62.466637
83.500000 62.791173
83.500000 63.116546
83.500000 63.442757
83.500000 63.769806
83.500000 64.097691
83.500000 64.426415
83.500000 64.755975
83.500000 65.086374
83.500000 65.417610
83.500000 65.749683
83.500000 66.082594
83.500000 66.416342
83.500000 66.750928
83.500000 67.086351
83.500000 67.422612
83.500000 67.759711
83.500000 68.097647
83.500000 68.436420
83.500000 68.776031
83.500000 69.116480
83.500000 69.457766
83.500000 69.799889
83.500000 70.142850
83.500000 70.486649
83.500000 70.831285
83.500000 71.176758
83.500000 71.523069
83.500000 71.870218
83.500000 72.218204
83.500000 72.567027
83.500000 72.916688
83.500000 73.267187
83.500000 73.618523
83.500000 73.970697
83.500000 74.323708
83.500000 74.677557
83.500000 75.032243
83.500000 75.387766
83.500000 75.744128
83.500000 76.101326
83.500000 76.459363
83.500000 76.818236
83.500000 77.177948
83.500000 77.538496
83.500000 77.899883
83.500000 78.262106
83.500000 78.625168
83.500000 78.989066
83.500000 79.353803
83.500000 79.719376
83.500000 80.085788
83.500000 80.453037
83.500000 80.821123
83.500000 81.190047
83.500000 81.559808
83.500000 81.930407
83.500000 82.301844
83.500000 82.674117
83.500000 83.047229
83.500000 83.421178
83.500000 83.795964
83.500000 84.171588
83.500000 84.548050
83.500000 84.925349
83.500000 85.303485
83.500000 85.682459
83.500000 86.062271
83.500000 86.442920
83.500000 86.824406
83.500000 87.206730
83.500000 87.589892
83.500000 87.973891
83.500000 88.358727
83.500000 88.744401
83.500000 89.130913
83.500000 89.518262
83.500000 89.906449
83.500000 90.295473
83.500000 90.685335
83.500000 91.076034
83.500000 91.467570
83.500000 91.859945
83.500000 92.253156
83.500000 92.647206
83.500000 93.042092
83.500000 93.437817
83.500000 93.834378
83.500000 94.231778
83.500000 94.630014
83.500000 95.029089
83.500000 95.429000
83.500000 95.829750
83.500000 96.231336
83.500000 96.633761
83.500000 97.037023
83.500000 97.441122
83.500000 97.846059
83.500000 98.251833
83.500000 98.658445
83.500000 99.065894
83.500000 99.474181
83.500000 99.883306
83.500000 100.293268
83.500000 100.704067
83.500000 101.115704
83.500000 101.528179
83.500000 101.941491
83.500000 102.355640
83.500000 102.770627
83.500000 103.186452
83.500000 103.603114
83.500000 104.020613
83.500000 104.438950
83.500000 104.858125
83.500000 105.278137
83.500000 105.698986
83.500000 106.120673
83.500000 106.543198
83.500000 106.966560
83.500000 107.390760
83.500000 107.815797
83.500000 108.241672
83.500000 108.668384
83.500000 109.095933
83.500000 109.524321
83.500000 109.953545
83.500000 110.383607
83.500000 110.814507
83.500000 111.246244
83.500000 111.678819
83.500000 112.112231
83.500000 112.546481
83.500000 112.981568
83.500000 113.417493
83.500000 113.854256
83.500000 114.291855
83.500000 114.730293
83.500000 115.169568
83.500000 115.609680
83.500000 116.050630
83.500000 116.492417
83.500000 116.935042
83.500000 117.378504
83.500000 117.822804
83.500000 118.267942
83.500000 118.713917
83.500000 119.160729
83.500000 119.608379
83.500000 120.056866
83.500000 120.506191
83.500000 120.956354
83.500000 121.407354
83.500000 121.859191
83.500000 122.311866
83.500000 122.765379
83.500000 123.219729
83.500000 123.674917
83.500000 124.130942
83.500000 124.587804
83.500000 125.045504
83.500000 125.504042
83.500000 125.963417
83.500000 126.423630
83.500000 126.884680
83.500000 127.346567
83.500000 127.809293
83.500000 128.272855
83.500000 128.737255
83.500000 129.202493
83.500000 129.668568
83.500000 130.135481
83.500000 130.603231
83.500000 131.071819
83.500000 131.541244
83.500000 132.011507
83.500000 132.482607
83.500000 132.954545
83.500000 133.427320
83.500000 133.900933
83.500000 134.375384
83.500000 134.850671
83.500000 135.326797
83.500000 135.803760
83.500000 136.281560
83.500000 136.760198
83.500000 137.239673
83.500000 137.719986
83.500000 138.201137
83.500000 138.683124
83.500000 139.165950
83.500000 139.649613
83.500000 140.134113
83.500000 140.619451
83.500000 141.105627
83.500000 141.592640
83.500000 142.080490
83.500000 142.569178
83.500000 143.058704
83.500000 143.549067
83.500000 144.040267
83.500000 144.532306
83.500000 145.025181
83.500000 145.518894
83.500000 146.013445
83.500000 146.508833
83.500000 147.005059
83.500000 147.502122
83.500000 148.000022
83.500000 148.498760
83.500000 148.998336
83.500000 149.498749
83.500000 150.000000
</POINTS>
</NEKTAR>

