<?xml version="1.0" encoding="utf-8" ?>
<NEKTAR>
<POINTS DIM="2" FIELDS="">
483.500000 -0.250000
483.500000 -0.249581
483.500000 -0.248325
483.500000 -0.246231
483.500000 -0.243300
483.500000 -0.239531
483.500000 -0.234925
483.500000 -0.229481
483.500000 -0.223200
483.500000 -0.216081
483.500000 -0.208124
483.500000 -0.199331
483.500000 -0.189699
483.500000 -0.179230
483.500000 -0.167924
483.500000 -0.155780
483.500000 -0.142799
483.500000 -0.128980
483.500000 -0.114323
483.500000 -0.098829
483.500000 -0.082498
483.500000 -0.065329
483.500000 -0.047322
483.500000 -0.028478
483.500000 -0.008797
483.500000 0.011722
483.500000 0.033079
483.500000 0.055273
483.500000 0.078305
483.500000 0.102174
483.500000 0.126880
483.500000 0.152424
483.500000 0.178806
483.500000 0.206025
483.500000 0.234082
483.500000 0.262976
483.500000 0.292708
483.500000 0.323277
483.500000 0.354683
483.500000 0.386928
483.500000 0.420009
483.500000 0.453929
483.500000 0.488685
483.500000 0.524279
483.500000 0.560711
483.500000 0.597980
483.500000 0.636087
483.500000 0.675032
483.500000 0.714813
483.500000 0.755433
483.500000 0.796890
483.500000 0.839184
483.500000 0.882316
483.500000 0.926285
483.500000 0.971092
483.500000 1.016736
483.500000 1.063218
483.500000 1.110538
483.500000 1.158695
483.500000 1.207689
483.500000 1.257521
483.500000 1.308190
483.500000 1.359697
483.500000 1.412042
483.500000 1.465224
483.500000 1.519243
483.500000 1.574100
483.500000 1.629795
483.500000 1.686327
483.500000 1.743696
483.500000 1.801903
483.500000 1.860948
483.500000 1.920830
483.500000 1.981550
483.500000 2.043107
483.500000 2.105501
483.500000 2.168734
483.500000 2.232803
483.500000 2.297710
483.500000 2.363455
483.500000 2.430037
483.500000 2.497457
483.500000 2.565714
483.500000 2.634809
483.500000 2.704741
483.500000 2.775511
483.500000 2.847118
483.500000 2.919563
483.500000 2.992845
483.500000 3.066965
483.500000 3.141922
483.500000 3.217717
483.500000 3.294349
483.500000 3.371819
483.500000 3.450126
483.500000 3.529271
483.500000 3.609253
483.500000 3.690073
483.500000 3.771731
483.500000 3.854226
483.500000 3.937558
483.500000 4.021728
483.500000 4.106735
483.500000 4.192580
483.500000 4.279263
483.500000 4.366783
483.500000 4.455140
483.500000 4.544335
483.500000 4.634368
483.500000 4.725238
483.500000 4.816945
483.500000 4.909490
483.500000 5.002873
483.500000 5.097093
483.500000 5.192150
483.500000 5.288045
483.500000 5.384778
483.500000 5.482348
483.500000 5.580756
483.500000 5.680001
483.500000 5.780084
483.500000 5.881004
483.500000 5.982761
483.500000 6.085357
483.500000 6.188789
483.500000 6.293059
483.500000 6.398167
483.500000 6.504112
483.500000 6.610895
483.500000 6.718515
483.500000 6.826973
483.500000 6.936268
483.500000 7.046401
483.500000 7.157371
483.500000 7.269179
483.500000 7.381824
483.500000 7.495307
483.500000 7.609628
483.500000 7.724785
483.500000 7.840781
483.500000 7.957614
483.500000 8.075284
483.500000 8.193792
483.500000 8.313137
483.500000 8.433320
483.500000 8.554341
483.500000 8.676199
483.500000 8.798894
483.500000 8.922427
483.500000 9.046798
483.500000 9.172006
483.500000 9.298051
483.500000 9.424934
483.500000 9.552655
483.500000 9.681213
483.500000 9.810608
483.500000 9.940841
483.500000 10.071912
483.500000 10.203820
483.500000 10.336565
483.500000 10.470148
483.500000 10.604569
483.500000 10.739827
483.500000 10.875923
483.500000 11.012856
483.500000 11.150627
483.500000 11.289235
483.500000 11.428681
483.500000 11.568964
483.500000 11.710084
483.500000 11.852043
483.500000 11.994838
483.500000 12.138472
483.500000 12.282942
483.500000 12.428251
483.500000 12.574396
483.500000 12.721380
483.500000 12.869200
483.500000 13.017859
483.500000 13.167355
483.500000 13.317688
483.500000 13.468859
483.500000 13.620867
483.500000 13.773713
483.500000 13.927396
483.500000 14.081917
483.500000 14.237276
483.500000 14.393472
483.500000 14.550505
483.500000 14.708376
483.500000 14.867084
483.500000 15.026630
483.500000 15.187014
483.500000 15.348235
483.500000 15.510293
483.500000 15.673189
483.500000 15.836923
483.500000 16.001494
483.500000 16.166902
483.500000 16.333148
483.500000 16.500232
483.500000 16.668153
483.500000 16.836912
483.500000 17.006508
483.500000 17.176941
483.500000 17.348213
483.500000 17.520321
483.500000 17.693267
483.500000 17.867051
483.500000 18.041672
483.500000 18.217131
483.500000 18.393427
483.500000 18.570561
483.500000 18.748532
483.500000 18.927341
483.500000 19.106987
483.500000 19.287471
483.500000 19.468792
483.500000 19.650951
483.500000 19.833947
483.500000 20.017781
483.500000 20.202452
483.500000 20.387961
483.500000 20.574307
483.500000 20.761491
483.500000 20.949512
483.500000 21.138371
483.500000 21.328068
483.500000 21.518602
483.500000 21.709973
483.500000 21.902182
483.500000 22.095228
483.500000 22.289112
483.500000 22.483834
483.500000 22.679393
483.500000 22.875789
483.500000 23.073023
483.500000 23.271095
483.500000 23.470004
483.500000 23.669750
483.500000 23.870334
483.500000 24.071756
483.500000 24.274015
483.500000 24.477111
483.500000 24.681045
483.500000 24.885817
483.500000 25.091426
483.500000 25.297873
483.500000 25.505157
483.500000 25.713278
483.500000 25.922238
483.500000 26.132034
483.500000 26.342668
483.500000 26.554140
483.500000 26.766449
483.500000 26.979596
483.500000 27.193580
483.500000 27.408402
483.500000 27.624061
483.500000 27.840558
483.500000 28.057892
483.500000 28.276064
483.500000 28.495073
483.500000 28.714920
483.500000 28.935604
483.500000 29.157126
483.500000 29.379485
483.500000 29.602682
483.500000 29.826717
483.500000 30.051588
483.500000 30.277298
483.500000 30.503845
483.500000 30.731229
483.500000 30.959451
483.500000 31.188510
483.500000 31.418407
483.500000 31.649142
483.500000 31.880714
483.500000 32.113123
483.500000 32.346370
483.500000 32.580455
483.500000 32.815377
483.500000 33.051136
483.500000 33.287733
483.500000 33.525168
483.500000 33.763440
483.500000 34.002549
483.500000 34.242497
483.500000 34.483281
483.500000 34.724903
483.500000 34.967363
483.500000 35.210660
483.500000 35.454795
483.500000 35.699767
483.500000 35.945576
483.500000 36.192224
483.500000 36.439708
483.500000 36.688030
483.500000 36.937190
483.500000 37.187187
483.500000 37.438022
483.500000 37.689694
483.500000 37.942204
483.500000 38.195551
483.500000 38.449736
483.500000 38.704758
483.500000 38.960618
483.500000 39.217315
483.500000 39.474850
483.500000 39.733223
483.500000 39.992432
483.500000 40.252480
483.500000 40.513365
483.500000 40.775087
483.500000 41.037647
483.500000 41.301044
483.500000 41.565279
483.500000 41.830352
483.500000 42.096262
483.500000 42.363009
483.500000 42.630594
483.500000 42.899016
483.500000 43.168276
483.500000 43.438374
483.500000 43.709309
483.500000 43.981081
483.500000 44.253691
483.500000 44.527139
483.500000 44.801424
483.500000 45.076547
483.500000 45.352507
483.500000 45.629304
483.500000 45.906939
483.500000 46.185412
483.500000 46.464722
483.500000 46.744870
483.500000 47.025855
483.500000 47.307678
483.500000 47.590338
483.500000 47.873835
483.500000 48.158171
483.500000 48.443343
483.500000 48.729353
483.500000 49.016201
483.500000 49.303886
483.500000 49.592409
483.500000 49.881769
483.500000 50.171967
483.500000 50.463002
483.500000 50.754875
483.500000 51.047586
483.500000 51.341133
483.500000 51.635519
483.500000 51.930742
483.500000 52.226802
483.500000 52.523700
483.500000 52.821435
483.500000 53.120008
483.500000 53.419418
483.500000 53.719666
483.500000 54.020752
483.500000 54.322675
483.500000 54.625435
483.500000 54.929033
483.500000 55.233469
483.500000 55.538742
483.500000 55.844852
483.500000 56.151800
483.500000 56.459586
483.500000 56.768209
483.500000 57.077669
483.500000 57.387967
483.500000 57.699103
483.500000 58.011076
483.500000 58.323886
483.500000 58.637534
483.500000 58.952020
483.500000 59.267343
483.500000 59.583504
483.500000 59.900502
483.500000 60.218338
483.500000 60.537011
483.500000 60.856521
483.500000 61.176870
483.500000 61.498055
483.500000 61.820079
483.500000 62.142939
483.500000 62.466637
483.500000 62.791173
483.500000 63.116546
483.500000 63.442757
483.500000 63.769806
483.500000 64.097691
483.500000 64.426415
483.500000 64.755975
483.500000 65.086374
483.500000 65.417610
483.500000 65.749683
483.500000 66.082594
483.500000 66.416342
483.500000 66.750928
483.500000 67.086351
483.500000 67.422612
483.500000 67.759711
483.500000 68.097647
483.500000 68.436420
483.500000 68.776031
483.500000 69.116480
483.500000 69.457766
483.500000 69.799889
483.500000 70.142850
483.500000 70.486649
483.500000 70.831285
483.500000 71.176758
483.500000 71.523069
483.500000 71.870218
483.500000 72.218204
483.500000 72.567027
483.500000 72.916688
483.500000 73.267187
483.500000 73.618523
483.500000 73.970697
483.500000 74.323708
483.500000 74.677557
483.500000 75.032243
483.500000 75.387766
483.500000 75.744128
483.500000 76.101326
483.500000 76.459363
483.500000 76.818236
483.500000 77.177948
483.500000 77.538496
483.500000 77.899883
483.500000 78.262106
483.500000 78.625168
483.500000 78.989066
483.500000 79.353803
483.500000 79.719376
483.500000 80.085788
483.500000 80.453037
483.500000 80.821123
483.500000 81.190047
483.500000 81.559808
483.500000 81.930407
483.500000 82.301844
483.500000 82.674117
483.500000 83.047229
483.500000 83.421178
483.500000 83.795964
483.500000 84.171588
483.500000 84.548050
483.500000 84.925349
483.500000 85.303485
483.500000 85.682459
483.500000 86.062271
483.500000 86.442920
483.500000 86.824406
483.500000 87.206730
483.500000 87.589892
483.500000 87.973891
483.500000 88.358727
483.500000 88.744401
483.500000 89.130913
483.500000 89.518262
483.500000 89.906449
483.500000 90.295473
483.500000 90.685335
483.500000 91.076034
483.500000 91.467570
483.500000 91.859945
483.500000 92.253156
483.500000 92.647206
483.500000 93.042092
483.500000 93.437817
483.500000 93.834378
483.500000 94.231778
483.500000 94.630014
483.500000 95.029089
483.500000 95.429000
483.500000 95.829750
483.500000 96.231336
483.500000 96.633761
483.500000 97.037023
483.500000 97.441122
483.500000 97.846059
483.500000 98.251833
483.500000 98.658445
483.500000 99.065894
483.500000 99.474181
483.500000 99.883306
483.500000 100.293268
483.500000 100.704067
483.500000 101.115704
483.500000 101.528179
483.500000 101.941491
483.500000 102.355640
483.500000 102.770627
483.500000 103.186452
483.500000 103.603114
483.500000 104.020613
483.500000 104.438950
483.500000 104.858125
483.500000 105.278137
483.500000 105.698986
483.500000 106.120673
483.500000 106.543198
483.500000 106.966560
483.500000 107.390760
483.500000 107.815797
483.500000 108.241672
483.500000 108.668384
483.500000 109.095933
483.500000 109.524321
483.500000 109.953545
483.500000 110.383607
483.500000 110.814507
483.500000 111.246244
483.500000 111.678819
483.500000 112.112231
483.500000 112.546481
483.500000 112.981568
483.500000 113.417493
483.500000 113.854256
483.500000 114.291855
483.500000 114.730293
483.500000 115.169568
483.500000 115.609680
483.500000 116.050630
483.500000 116.492417
483.500000 116.935042
483.500000 117.378504
483.500000 117.822804
483.500000 118.267942
483.500000 118.713917
483.500000 119.160729
483.500000 119.608379
483.500000 120.056866
483.500000 120.506191
483.500000 120.956354
483.500000 121.407354
483.500000 121.859191
483.500000 122.311866
483.500000 122.765379
483.500000 123.219729
483.500000 123.674917
483.500000 124.130942
483.500000 124.587804
483.500000 125.045504
483.500000 125.504042
483.500000 125.963417
483.500000 126.423630
483.500000 126.884680
483.500000 127.346567
483.500000 127.809293
483.500000 128.272855
483.500000 128.737255
483.500000 129.202493
483.500000 129.668568
483.500000 130.135481
483.500000 130.603231
483.500000 131.071819
483.500000 131.541244
483.500000 132.011507
483.500000 132.482607
483.500000 132.954545
483.500000 133.427320
483.500000 133.900933
483.500000 134.375384
483.500000 134.850671
483.500000 135.326797
483.500000 135.803760
483.500000 136.281560
483.500000 136.760198
483.500000 137.239673
483.500000 137.719986
483.500000 138.201137
483.500000 138.683124
483.500000 139.165950
483.500000 139.649613
483.500000 140.134113
483.500000 140.619451
483.500000 141.105627
483.500000 141.592640
483.500000 142.080490
483.500000 142.569178
483.500000 143.058704
483.500000 143.549067
483.500000 144.040267
483.500000 144.532306
483.500000 145.025181
483.500000 145.518894
483.500000 146.013445
483.500000 146.508833
483.500000 147.005059
483.500000 147.502122
483.500000 148.000022
483.500000 148.498760
483.500000 148.998336
483.500000 149.498749
483.500000 150.000000
</POINTS>
</NEKTAR>

