<?xml version="1.0" encoding="utf-8" ?>
<NEKTAR>
<POINTS DIM="2" FIELDS="">
38.500000 -0.250000
38.500000 -0.249581
38.500000 -0.248325
38.500000 -0.246231
38.500000 -0.243300
38.500000 -0.239531
38.500000 -0.234925
38.500000 -0.229481
38.500000 -0.223200
38.500000 -0.216081
38.500000 -0.208124
38.500000 -0.199331
38.500000 -0.189699
38.500000 -0.179230
38.500000 -0.167924
38.500000 -0.155780
38.500000 -0.142799
38.500000 -0.128980
38.500000 -0.114323
38.500000 -0.098829
38.500000 -0.082498
38.500000 -0.065329
38.500000 -0.047322
38.500000 -0.028478
38.500000 -0.008797
38.500000 0.011722
38.500000 0.033079
38.500000 0.055273
38.500000 0.078305
38.500000 0.102174
38.500000 0.126880
38.500000 0.152424
38.500000 0.178806
38.500000 0.206025
38.500000 0.234082
38.500000 0.262976
38.500000 0.292708
38.500000 0.323277
38.500000 0.354683
38.500000 0.386928
38.500000 0.420009
38.500000 0.453929
38.500000 0.488685
38.500000 0.524279
38.500000 0.560711
38.500000 0.597980
38.500000 0.636087
38.500000 0.675032
38.500000 0.714813
38.500000 0.755433
38.500000 0.796890
38.500000 0.839184
38.500000 0.882316
38.500000 0.926285
38.500000 0.971092
38.500000 1.016736
38.500000 1.063218
38.500000 1.110538
38.500000 1.158695
38.500000 1.207689
38.500000 1.257521
38.500000 1.308190
38.500000 1.359697
38.500000 1.412042
38.500000 1.465224
38.500000 1.519243
38.500000 1.574100
38.500000 1.629795
38.500000 1.686327
38.500000 1.743696
38.500000 1.801903
38.500000 1.860948
38.500000 1.920830
38.500000 1.981550
38.500000 2.043107
38.500000 2.105501
38.500000 2.168734
38.500000 2.232803
38.500000 2.297710
38.500000 2.363455
38.500000 2.430037
38.500000 2.497457
38.500000 2.565714
38.500000 2.634809
38.500000 2.704741
38.500000 2.775511
38.500000 2.847118
38.500000 2.919563
38.500000 2.992845
38.500000 3.066965
38.500000 3.141922
38.500000 3.217717
38.500000 3.294349
38.500000 3.371819
38.500000 3.450126
38.500000 3.529271
38.500000 3.609253
38.500000 3.690073
38.500000 3.771731
38.500000 3.854226
38.500000 3.937558
38.500000 4.021728
38.500000 4.106735
38.500000 4.192580
38.500000 4.279263
38.500000 4.366783
38.500000 4.455140
38.500000 4.544335
38.500000 4.634368
38.500000 4.725238
38.500000 4.816945
38.500000 4.909490
38.500000 5.002873
38.500000 5.097093
38.500000 5.192150
38.500000 5.288045
38.500000 5.384778
38.500000 5.482348
38.500000 5.580756
38.500000 5.680001
38.500000 5.780084
38.500000 5.881004
38.500000 5.982761
38.500000 6.085357
38.500000 6.188789
38.500000 6.293059
38.500000 6.398167
38.500000 6.504112
38.500000 6.610895
38.500000 6.718515
38.500000 6.826973
38.500000 6.936268
38.500000 7.046401
38.500000 7.157371
38.500000 7.269179
38.500000 7.381824
38.500000 7.495307
38.500000 7.609628
38.500000 7.724785
38.500000 7.840781
38.500000 7.957614
38.500000 8.075284
38.500000 8.193792
38.500000 8.313137
38.500000 8.433320
38.500000 8.554341
38.500000 8.676199
38.500000 8.798894
38.500000 8.922427
38.500000 9.046798
38.500000 9.172006
38.500000 9.298051
38.500000 9.424934
38.500000 9.552655
38.500000 9.681213
38.500000 9.810608
38.500000 9.940841
38.500000 10.071912
38.500000 10.203820
38.500000 10.336565
38.500000 10.470148
38.500000 10.604569
38.500000 10.739827
38.500000 10.875923
38.500000 11.012856
38.500000 11.150627
38.500000 11.289235
38.500000 11.428681
38.500000 11.568964
38.500000 11.710084
38.500000 11.852043
38.500000 11.994838
38.500000 12.138472
38.500000 12.282942
38.500000 12.428251
38.500000 12.574396
38.500000 12.721380
38.500000 12.869200
38.500000 13.017859
38.500000 13.167355
38.500000 13.317688
38.500000 13.468859
38.500000 13.620867
38.500000 13.773713
38.500000 13.927396
38.500000 14.081917
38.500000 14.237276
38.500000 14.393472
38.500000 14.550505
38.500000 14.708376
38.500000 14.867084
38.500000 15.026630
38.500000 15.187014
38.500000 15.348235
38.500000 15.510293
38.500000 15.673189
38.500000 15.836923
38.500000 16.001494
38.500000 16.166902
38.500000 16.333148
38.500000 16.500232
38.500000 16.668153
38.500000 16.836912
38.500000 17.006508
38.500000 17.176941
38.500000 17.348213
38.500000 17.520321
38.500000 17.693267
38.500000 17.867051
38.500000 18.041672
38.500000 18.217131
38.500000 18.393427
38.500000 18.570561
38.500000 18.748532
38.500000 18.927341
38.500000 19.106987
38.500000 19.287471
38.500000 19.468792
38.500000 19.650951
38.500000 19.833947
38.500000 20.017781
38.500000 20.202452
38.500000 20.387961
38.500000 20.574307
38.500000 20.761491
38.500000 20.949512
38.500000 21.138371
38.500000 21.328068
38.500000 21.518602
38.500000 21.709973
38.500000 21.902182
38.500000 22.095228
38.500000 22.289112
38.500000 22.483834
38.500000 22.679393
38.500000 22.875789
38.500000 23.073023
38.500000 23.271095
38.500000 23.470004
38.500000 23.669750
38.500000 23.870334
38.500000 24.071756
38.500000 24.274015
38.500000 24.477111
38.500000 24.681045
38.500000 24.885817
38.500000 25.091426
38.500000 25.297873
38.500000 25.505157
38.500000 25.713278
38.500000 25.922238
38.500000 26.132034
38.500000 26.342668
38.500000 26.554140
38.500000 26.766449
38.500000 26.979596
38.500000 27.193580
38.500000 27.408402
38.500000 27.624061
38.500000 27.840558
38.500000 28.057892
38.500000 28.276064
38.500000 28.495073
38.500000 28.714920
38.500000 28.935604
38.500000 29.157126
38.500000 29.379485
38.500000 29.602682
38.500000 29.826717
38.500000 30.051588
38.500000 30.277298
38.500000 30.503845
38.500000 30.731229
38.500000 30.959451
38.500000 31.188510
38.500000 31.418407
38.500000 31.649142
38.500000 31.880714
38.500000 32.113123
38.500000 32.346370
38.500000 32.580455
38.500000 32.815377
38.500000 33.051136
38.500000 33.287733
38.500000 33.525168
38.500000 33.763440
38.500000 34.002549
38.500000 34.242497
38.500000 34.483281
38.500000 34.724903
38.500000 34.967363
38.500000 35.210660
38.500000 35.454795
38.500000 35.699767
38.500000 35.945576
38.500000 36.192224
38.500000 36.439708
38.500000 36.688030
38.500000 36.937190
38.500000 37.187187
38.500000 37.438022
38.500000 37.689694
38.500000 37.942204
38.500000 38.195551
38.500000 38.449736
38.500000 38.704758
38.500000 38.960618
38.500000 39.217315
38.500000 39.474850
38.500000 39.733223
38.500000 39.992432
38.500000 40.252480
38.500000 40.513365
38.500000 40.775087
38.500000 41.037647
38.500000 41.301044
38.500000 41.565279
38.500000 41.830352
38.500000 42.096262
38.500000 42.363009
38.500000 42.630594
38.500000 42.899016
38.500000 43.168276
38.500000 43.438374
38.500000 43.709309
38.500000 43.981081
38.500000 44.253691
38.500000 44.527139
38.500000 44.801424
38.500000 45.076547
38.500000 45.352507
38.500000 45.629304
38.500000 45.906939
38.500000 46.185412
38.500000 46.464722
38.500000 46.744870
38.500000 47.025855
38.500000 47.307678
38.500000 47.590338
38.500000 47.873835
38.500000 48.158171
38.500000 48.443343
38.500000 48.729353
38.500000 49.016201
38.500000 49.303886
38.500000 49.592409
38.500000 49.881769
38.500000 50.171967
38.500000 50.463002
38.500000 50.754875
38.500000 51.047586
38.500000 51.341133
38.500000 51.635519
38.500000 51.930742
38.500000 52.226802
38.500000 52.523700
38.500000 52.821435
38.500000 53.120008
38.500000 53.419418
38.500000 53.719666
38.500000 54.020752
38.500000 54.322675
38.500000 54.625435
38.500000 54.929033
38.500000 55.233469
38.500000 55.538742
38.500000 55.844852
38.500000 56.151800
38.500000 56.459586
38.500000 56.768209
38.500000 57.077669
38.500000 57.387967
38.500000 57.699103
38.500000 58.011076
38.500000 58.323886
38.500000 58.637534
38.500000 58.952020
38.500000 59.267343
38.500000 59.583504
38.500000 59.900502
38.500000 60.218338
38.500000 60.537011
38.500000 60.856521
38.500000 61.176870
38.500000 61.498055
38.500000 61.820079
38.500000 62.142939
38.500000 62.466637
38.500000 62.791173
38.500000 63.116546
38.500000 63.442757
38.500000 63.769806
38.500000 64.097691
38.500000 64.426415
38.500000 64.755975
38.500000 65.086374
38.500000 65.417610
38.500000 65.749683
38.500000 66.082594
38.500000 66.416342
38.500000 66.750928
38.500000 67.086351
38.500000 67.422612
38.500000 67.759711
38.500000 68.097647
38.500000 68.436420
38.500000 68.776031
38.500000 69.116480
38.500000 69.457766
38.500000 69.799889
38.500000 70.142850
38.500000 70.486649
38.500000 70.831285
38.500000 71.176758
38.500000 71.523069
38.500000 71.870218
38.500000 72.218204
38.500000 72.567027
38.500000 72.916688
38.500000 73.267187
38.500000 73.618523
38.500000 73.970697
38.500000 74.323708
38.500000 74.677557
38.500000 75.032243
38.500000 75.387766
38.500000 75.744128
38.500000 76.101326
38.500000 76.459363
38.500000 76.818236
38.500000 77.177948
38.500000 77.538496
38.500000 77.899883
38.500000 78.262106
38.500000 78.625168
38.500000 78.989066
38.500000 79.353803
38.500000 79.719376
38.500000 80.085788
38.500000 80.453037
38.500000 80.821123
38.500000 81.190047
38.500000 81.559808
38.500000 81.930407
38.500000 82.301844
38.500000 82.674117
38.500000 83.047229
38.500000 83.421178
38.500000 83.795964
38.500000 84.171588
38.500000 84.548050
38.500000 84.925349
38.500000 85.303485
38.500000 85.682459
38.500000 86.062271
38.500000 86.442920
38.500000 86.824406
38.500000 87.206730
38.500000 87.589892
38.500000 87.973891
38.500000 88.358727
38.500000 88.744401
38.500000 89.130913
38.500000 89.518262
38.500000 89.906449
38.500000 90.295473
38.500000 90.685335
38.500000 91.076034
38.500000 91.467570
38.500000 91.859945
38.500000 92.253156
38.500000 92.647206
38.500000 93.042092
38.500000 93.437817
38.500000 93.834378
38.500000 94.231778
38.500000 94.630014
38.500000 95.029089
38.500000 95.429000
38.500000 95.829750
38.500000 96.231336
38.500000 96.633761
38.500000 97.037023
38.500000 97.441122
38.500000 97.846059
38.500000 98.251833
38.500000 98.658445
38.500000 99.065894
38.500000 99.474181
38.500000 99.883306
38.500000 100.293268
38.500000 100.704067
38.500000 101.115704
38.500000 101.528179
38.500000 101.941491
38.500000 102.355640
38.500000 102.770627
38.500000 103.186452
38.500000 103.603114
38.500000 104.020613
38.500000 104.438950
38.500000 104.858125
38.500000 105.278137
38.500000 105.698986
38.500000 106.120673
38.500000 106.543198
38.500000 106.966560
38.500000 107.390760
38.500000 107.815797
38.500000 108.241672
38.500000 108.668384
38.500000 109.095933
38.500000 109.524321
38.500000 109.953545
38.500000 110.383607
38.500000 110.814507
38.500000 111.246244
38.500000 111.678819
38.500000 112.112231
38.500000 112.546481
38.500000 112.981568
38.500000 113.417493
38.500000 113.854256
38.500000 114.291855
38.500000 114.730293
38.500000 115.169568
38.500000 115.609680
38.500000 116.050630
38.500000 116.492417
38.500000 116.935042
38.500000 117.378504
38.500000 117.822804
38.500000 118.267942
38.500000 118.713917
38.500000 119.160729
38.500000 119.608379
38.500000 120.056866
38.500000 120.506191
38.500000 120.956354
38.500000 121.407354
38.500000 121.859191
38.500000 122.311866
38.500000 122.765379
38.500000 123.219729
38.500000 123.674917
38.500000 124.130942
38.500000 124.587804
38.500000 125.045504
38.500000 125.504042
38.500000 125.963417
38.500000 126.423630
38.500000 126.884680
38.500000 127.346567
38.500000 127.809293
38.500000 128.272855
38.500000 128.737255
38.500000 129.202493
38.500000 129.668568
38.500000 130.135481
38.500000 130.603231
38.500000 131.071819
38.500000 131.541244
38.500000 132.011507
38.500000 132.482607
38.500000 132.954545
38.500000 133.427320
38.500000 133.900933
38.500000 134.375384
38.500000 134.850671
38.500000 135.326797
38.500000 135.803760
38.500000 136.281560
38.500000 136.760198
38.500000 137.239673
38.500000 137.719986
38.500000 138.201137
38.500000 138.683124
38.500000 139.165950
38.500000 139.649613
38.500000 140.134113
38.500000 140.619451
38.500000 141.105627
38.500000 141.592640
38.500000 142.080490
38.500000 142.569178
38.500000 143.058704
38.500000 143.549067
38.500000 144.040267
38.500000 144.532306
38.500000 145.025181
38.500000 145.518894
38.500000 146.013445
38.500000 146.508833
38.500000 147.005059
38.500000 147.502122
38.500000 148.000022
38.500000 148.498760
38.500000 148.998336
38.500000 149.498749
38.500000 150.000000
</POINTS>
</NEKTAR>

