<?xml version="1.0" encoding="utf-8" ?>
<NEKTAR>
<POINTS DIM="2" FIELDS="">
523.500000 -0.250000
523.500000 -0.249581
523.500000 -0.248325
523.500000 -0.246231
523.500000 -0.243300
523.500000 -0.239531
523.500000 -0.234925
523.500000 -0.229481
523.500000 -0.223200
523.500000 -0.216081
523.500000 -0.208124
523.500000 -0.199331
523.500000 -0.189699
523.500000 -0.179230
523.500000 -0.167924
523.500000 -0.155780
523.500000 -0.142799
523.500000 -0.128980
523.500000 -0.114323
523.500000 -0.098829
523.500000 -0.082498
523.500000 -0.065329
523.500000 -0.047322
523.500000 -0.028478
523.500000 -0.008797
523.500000 0.011722
523.500000 0.033079
523.500000 0.055273
523.500000 0.078305
523.500000 0.102174
523.500000 0.126880
523.500000 0.152424
523.500000 0.178806
523.500000 0.206025
523.500000 0.234082
523.500000 0.262976
523.500000 0.292708
523.500000 0.323277
523.500000 0.354683
523.500000 0.386928
523.500000 0.420009
523.500000 0.453929
523.500000 0.488685
523.500000 0.524279
523.500000 0.560711
523.500000 0.597980
523.500000 0.636087
523.500000 0.675032
523.500000 0.714813
523.500000 0.755433
523.500000 0.796890
523.500000 0.839184
523.500000 0.882316
523.500000 0.926285
523.500000 0.971092
523.500000 1.016736
523.500000 1.063218
523.500000 1.110538
523.500000 1.158695
523.500000 1.207689
523.500000 1.257521
523.500000 1.308190
523.500000 1.359697
523.500000 1.412042
523.500000 1.465224
523.500000 1.519243
523.500000 1.574100
523.500000 1.629795
523.500000 1.686327
523.500000 1.743696
523.500000 1.801903
523.500000 1.860948
523.500000 1.920830
523.500000 1.981550
523.500000 2.043107
523.500000 2.105501
523.500000 2.168734
523.500000 2.232803
523.500000 2.297710
523.500000 2.363455
523.500000 2.430037
523.500000 2.497457
523.500000 2.565714
523.500000 2.634809
523.500000 2.704741
523.500000 2.775511
523.500000 2.847118
523.500000 2.919563
523.500000 2.992845
523.500000 3.066965
523.500000 3.141922
523.500000 3.217717
523.500000 3.294349
523.500000 3.371819
523.500000 3.450126
523.500000 3.529271
523.500000 3.609253
523.500000 3.690073
523.500000 3.771731
523.500000 3.854226
523.500000 3.937558
523.500000 4.021728
523.500000 4.106735
523.500000 4.192580
523.500000 4.279263
523.500000 4.366783
523.500000 4.455140
523.500000 4.544335
523.500000 4.634368
523.500000 4.725238
523.500000 4.816945
523.500000 4.909490
523.500000 5.002873
523.500000 5.097093
523.500000 5.192150
523.500000 5.288045
523.500000 5.384778
523.500000 5.482348
523.500000 5.580756
523.500000 5.680001
523.500000 5.780084
523.500000 5.881004
523.500000 5.982761
523.500000 6.085357
523.500000 6.188789
523.500000 6.293059
523.500000 6.398167
523.500000 6.504112
523.500000 6.610895
523.500000 6.718515
523.500000 6.826973
523.500000 6.936268
523.500000 7.046401
523.500000 7.157371
523.500000 7.269179
523.500000 7.381824
523.500000 7.495307
523.500000 7.609628
523.500000 7.724785
523.500000 7.840781
523.500000 7.957614
523.500000 8.075284
523.500000 8.193792
523.500000 8.313137
523.500000 8.433320
523.500000 8.554341
523.500000 8.676199
523.500000 8.798894
523.500000 8.922427
523.500000 9.046798
523.500000 9.172006
523.500000 9.298051
523.500000 9.424934
523.500000 9.552655
523.500000 9.681213
523.500000 9.810608
523.500000 9.940841
523.500000 10.071912
523.500000 10.203820
523.500000 10.336565
523.500000 10.470148
523.500000 10.604569
523.500000 10.739827
523.500000 10.875923
523.500000 11.012856
523.500000 11.150627
523.500000 11.289235
523.500000 11.428681
523.500000 11.568964
523.500000 11.710084
523.500000 11.852043
523.500000 11.994838
523.500000 12.138472
523.500000 12.282942
523.500000 12.428251
523.500000 12.574396
523.500000 12.721380
523.500000 12.869200
523.500000 13.017859
523.500000 13.167355
523.500000 13.317688
523.500000 13.468859
523.500000 13.620867
523.500000 13.773713
523.500000 13.927396
523.500000 14.081917
523.500000 14.237276
523.500000 14.393472
523.500000 14.550505
523.500000 14.708376
523.500000 14.867084
523.500000 15.026630
523.500000 15.187014
523.500000 15.348235
523.500000 15.510293
523.500000 15.673189
523.500000 15.836923
523.500000 16.001494
523.500000 16.166902
523.500000 16.333148
523.500000 16.500232
523.500000 16.668153
523.500000 16.836912
523.500000 17.006508
523.500000 17.176941
523.500000 17.348213
523.500000 17.520321
523.500000 17.693267
523.500000 17.867051
523.500000 18.041672
523.500000 18.217131
523.500000 18.393427
523.500000 18.570561
523.500000 18.748532
523.500000 18.927341
523.500000 19.106987
523.500000 19.287471
523.500000 19.468792
523.500000 19.650951
523.500000 19.833947
523.500000 20.017781
523.500000 20.202452
523.500000 20.387961
523.500000 20.574307
523.500000 20.761491
523.500000 20.949512
523.500000 21.138371
523.500000 21.328068
523.500000 21.518602
523.500000 21.709973
523.500000 21.902182
523.500000 22.095228
523.500000 22.289112
523.500000 22.483834
523.500000 22.679393
523.500000 22.875789
523.500000 23.073023
523.500000 23.271095
523.500000 23.470004
523.500000 23.669750
523.500000 23.870334
523.500000 24.071756
523.500000 24.274015
523.500000 24.477111
523.500000 24.681045
523.500000 24.885817
523.500000 25.091426
523.500000 25.297873
523.500000 25.505157
523.500000 25.713278
523.500000 25.922238
523.500000 26.132034
523.500000 26.342668
523.500000 26.554140
523.500000 26.766449
523.500000 26.979596
523.500000 27.193580
523.500000 27.408402
523.500000 27.624061
523.500000 27.840558
523.500000 28.057892
523.500000 28.276064
523.500000 28.495073
523.500000 28.714920
523.500000 28.935604
523.500000 29.157126
523.500000 29.379485
523.500000 29.602682
523.500000 29.826717
523.500000 30.051588
523.500000 30.277298
523.500000 30.503845
523.500000 30.731229
523.500000 30.959451
523.500000 31.188510
523.500000 31.418407
523.500000 31.649142
523.500000 31.880714
523.500000 32.113123
523.500000 32.346370
523.500000 32.580455
523.500000 32.815377
523.500000 33.051136
523.500000 33.287733
523.500000 33.525168
523.500000 33.763440
523.500000 34.002549
523.500000 34.242497
523.500000 34.483281
523.500000 34.724903
523.500000 34.967363
523.500000 35.210660
523.500000 35.454795
523.500000 35.699767
523.500000 35.945576
523.500000 36.192224
523.500000 36.439708
523.500000 36.688030
523.500000 36.937190
523.500000 37.187187
523.500000 37.438022
523.500000 37.689694
523.500000 37.942204
523.500000 38.195551
523.500000 38.449736
523.500000 38.704758
523.500000 38.960618
523.500000 39.217315
523.500000 39.474850
523.500000 39.733223
523.500000 39.992432
523.500000 40.252480
523.500000 40.513365
523.500000 40.775087
523.500000 41.037647
523.500000 41.301044
523.500000 41.565279
523.500000 41.830352
523.500000 42.096262
523.500000 42.363009
523.500000 42.630594
523.500000 42.899016
523.500000 43.168276
523.500000 43.438374
523.500000 43.709309
523.500000 43.981081
523.500000 44.253691
523.500000 44.527139
523.500000 44.801424
523.500000 45.076547
523.500000 45.352507
523.500000 45.629304
523.500000 45.906939
523.500000 46.185412
523.500000 46.464722
523.500000 46.744870
523.500000 47.025855
523.500000 47.307678
523.500000 47.590338
523.500000 47.873835
523.500000 48.158171
523.500000 48.443343
523.500000 48.729353
523.500000 49.016201
523.500000 49.303886
523.500000 49.592409
523.500000 49.881769
523.500000 50.171967
523.500000 50.463002
523.500000 50.754875
523.500000 51.047586
523.500000 51.341133
523.500000 51.635519
523.500000 51.930742
523.500000 52.226802
523.500000 52.523700
523.500000 52.821435
523.500000 53.120008
523.500000 53.419418
523.500000 53.719666
523.500000 54.020752
523.500000 54.322675
523.500000 54.625435
523.500000 54.929033
523.500000 55.233469
523.500000 55.538742
523.500000 55.844852
523.500000 56.151800
523.500000 56.459586
523.500000 56.768209
523.500000 57.077669
523.500000 57.387967
523.500000 57.699103
523.500000 58.011076
523.500000 58.323886
523.500000 58.637534
523.500000 58.952020
523.500000 59.267343
523.500000 59.583504
523.500000 59.900502
523.500000 60.218338
523.500000 60.537011
523.500000 60.856521
523.500000 61.176870
523.500000 61.498055
523.500000 61.820079
523.500000 62.142939
523.500000 62.466637
523.500000 62.791173
523.500000 63.116546
523.500000 63.442757
523.500000 63.769806
523.500000 64.097691
523.500000 64.426415
523.500000 64.755975
523.500000 65.086374
523.500000 65.417610
523.500000 65.749683
523.500000 66.082594
523.500000 66.416342
523.500000 66.750928
523.500000 67.086351
523.500000 67.422612
523.500000 67.759711
523.500000 68.097647
523.500000 68.436420
523.500000 68.776031
523.500000 69.116480
523.500000 69.457766
523.500000 69.799889
523.500000 70.142850
523.500000 70.486649
523.500000 70.831285
523.500000 71.176758
523.500000 71.523069
523.500000 71.870218
523.500000 72.218204
523.500000 72.567027
523.500000 72.916688
523.500000 73.267187
523.500000 73.618523
523.500000 73.970697
523.500000 74.323708
523.500000 74.677557
523.500000 75.032243
523.500000 75.387766
523.500000 75.744128
523.500000 76.101326
523.500000 76.459363
523.500000 76.818236
523.500000 77.177948
523.500000 77.538496
523.500000 77.899883
523.500000 78.262106
523.500000 78.625168
523.500000 78.989066
523.500000 79.353803
523.500000 79.719376
523.500000 80.085788
523.500000 80.453037
523.500000 80.821123
523.500000 81.190047
523.500000 81.559808
523.500000 81.930407
523.500000 82.301844
523.500000 82.674117
523.500000 83.047229
523.500000 83.421178
523.500000 83.795964
523.500000 84.171588
523.500000 84.548050
523.500000 84.925349
523.500000 85.303485
523.500000 85.682459
523.500000 86.062271
523.500000 86.442920
523.500000 86.824406
523.500000 87.206730
523.500000 87.589892
523.500000 87.973891
523.500000 88.358727
523.500000 88.744401
523.500000 89.130913
523.500000 89.518262
523.500000 89.906449
523.500000 90.295473
523.500000 90.685335
523.500000 91.076034
523.500000 91.467570
523.500000 91.859945
523.500000 92.253156
523.500000 92.647206
523.500000 93.042092
523.500000 93.437817
523.500000 93.834378
523.500000 94.231778
523.500000 94.630014
523.500000 95.029089
523.500000 95.429000
523.500000 95.829750
523.500000 96.231336
523.500000 96.633761
523.500000 97.037023
523.500000 97.441122
523.500000 97.846059
523.500000 98.251833
523.500000 98.658445
523.500000 99.065894
523.500000 99.474181
523.500000 99.883306
523.500000 100.293268
523.500000 100.704067
523.500000 101.115704
523.500000 101.528179
523.500000 101.941491
523.500000 102.355640
523.500000 102.770627
523.500000 103.186452
523.500000 103.603114
523.500000 104.020613
523.500000 104.438950
523.500000 104.858125
523.500000 105.278137
523.500000 105.698986
523.500000 106.120673
523.500000 106.543198
523.500000 106.966560
523.500000 107.390760
523.500000 107.815797
523.500000 108.241672
523.500000 108.668384
523.500000 109.095933
523.500000 109.524321
523.500000 109.953545
523.500000 110.383607
523.500000 110.814507
523.500000 111.246244
523.500000 111.678819
523.500000 112.112231
523.500000 112.546481
523.500000 112.981568
523.500000 113.417493
523.500000 113.854256
523.500000 114.291855
523.500000 114.730293
523.500000 115.169568
523.500000 115.609680
523.500000 116.050630
523.500000 116.492417
523.500000 116.935042
523.500000 117.378504
523.500000 117.822804
523.500000 118.267942
523.500000 118.713917
523.500000 119.160729
523.500000 119.608379
523.500000 120.056866
523.500000 120.506191
523.500000 120.956354
523.500000 121.407354
523.500000 121.859191
523.500000 122.311866
523.500000 122.765379
523.500000 123.219729
523.500000 123.674917
523.500000 124.130942
523.500000 124.587804
523.500000 125.045504
523.500000 125.504042
523.500000 125.963417
523.500000 126.423630
523.500000 126.884680
523.500000 127.346567
523.500000 127.809293
523.500000 128.272855
523.500000 128.737255
523.500000 129.202493
523.500000 129.668568
523.500000 130.135481
523.500000 130.603231
523.500000 131.071819
523.500000 131.541244
523.500000 132.011507
523.500000 132.482607
523.500000 132.954545
523.500000 133.427320
523.500000 133.900933
523.500000 134.375384
523.500000 134.850671
523.500000 135.326797
523.500000 135.803760
523.500000 136.281560
523.500000 136.760198
523.500000 137.239673
523.500000 137.719986
523.500000 138.201137
523.500000 138.683124
523.500000 139.165950
523.500000 139.649613
523.500000 140.134113
523.500000 140.619451
523.500000 141.105627
523.500000 141.592640
523.500000 142.080490
523.500000 142.569178
523.500000 143.058704
523.500000 143.549067
523.500000 144.040267
523.500000 144.532306
523.500000 145.025181
523.500000 145.518894
523.500000 146.013445
523.500000 146.508833
523.500000 147.005059
523.500000 147.502122
523.500000 148.000022
523.500000 148.498760
523.500000 148.998336
523.500000 149.498749
523.500000 150.000000
</POINTS>
</NEKTAR>

