<?xml version="1.0" encoding="utf-8" ?>
<NEKTAR>
<POINTS DIM="2" FIELDS="">
13.500000 -0.250000
13.500000 -0.249581
13.500000 -0.248325
13.500000 -0.246231
13.500000 -0.243300
13.500000 -0.239531
13.500000 -0.234925
13.500000 -0.229481
13.500000 -0.223200
13.500000 -0.216081
13.500000 -0.208124
13.500000 -0.199331
13.500000 -0.189699
13.500000 -0.179230
13.500000 -0.167924
13.500000 -0.155780
13.500000 -0.142799
13.500000 -0.128980
13.500000 -0.114323
13.500000 -0.098829
13.500000 -0.082498
13.500000 -0.065329
13.500000 -0.047322
13.500000 -0.028478
13.500000 -0.008797
13.500000 0.011722
13.500000 0.033079
13.500000 0.055273
13.500000 0.078305
13.500000 0.102174
13.500000 0.126880
13.500000 0.152424
13.500000 0.178806
13.500000 0.206025
13.500000 0.234082
13.500000 0.262976
13.500000 0.292708
13.500000 0.323277
13.500000 0.354683
13.500000 0.386928
13.500000 0.420009
13.500000 0.453929
13.500000 0.488685
13.500000 0.524279
13.500000 0.560711
13.500000 0.597980
13.500000 0.636087
13.500000 0.675032
13.500000 0.714813
13.500000 0.755433
13.500000 0.796890
13.500000 0.839184
13.500000 0.882316
13.500000 0.926285
13.500000 0.971092
13.500000 1.016736
13.500000 1.063218
13.500000 1.110538
13.500000 1.158695
13.500000 1.207689
13.500000 1.257521
13.500000 1.308190
13.500000 1.359697
13.500000 1.412042
13.500000 1.465224
13.500000 1.519243
13.500000 1.574100
13.500000 1.629795
13.500000 1.686327
13.500000 1.743696
13.500000 1.801903
13.500000 1.860948
13.500000 1.920830
13.500000 1.981550
13.500000 2.043107
13.500000 2.105501
13.500000 2.168734
13.500000 2.232803
13.500000 2.297710
13.500000 2.363455
13.500000 2.430037
13.500000 2.497457
13.500000 2.565714
13.500000 2.634809
13.500000 2.704741
13.500000 2.775511
13.500000 2.847118
13.500000 2.919563
13.500000 2.992845
13.500000 3.066965
13.500000 3.141922
13.500000 3.217717
13.500000 3.294349
13.500000 3.371819
13.500000 3.450126
13.500000 3.529271
13.500000 3.609253
13.500000 3.690073
13.500000 3.771731
13.500000 3.854226
13.500000 3.937558
13.500000 4.021728
13.500000 4.106735
13.500000 4.192580
13.500000 4.279263
13.500000 4.366783
13.500000 4.455140
13.500000 4.544335
13.500000 4.634368
13.500000 4.725238
13.500000 4.816945
13.500000 4.909490
13.500000 5.002873
13.500000 5.097093
13.500000 5.192150
13.500000 5.288045
13.500000 5.384778
13.500000 5.482348
13.500000 5.580756
13.500000 5.680001
13.500000 5.780084
13.500000 5.881004
13.500000 5.982761
13.500000 6.085357
13.500000 6.188789
13.500000 6.293059
13.500000 6.398167
13.500000 6.504112
13.500000 6.610895
13.500000 6.718515
13.500000 6.826973
13.500000 6.936268
13.500000 7.046401
13.500000 7.157371
13.500000 7.269179
13.500000 7.381824
13.500000 7.495307
13.500000 7.609628
13.500000 7.724785
13.500000 7.840781
13.500000 7.957614
13.500000 8.075284
13.500000 8.193792
13.500000 8.313137
13.500000 8.433320
13.500000 8.554341
13.500000 8.676199
13.500000 8.798894
13.500000 8.922427
13.500000 9.046798
13.500000 9.172006
13.500000 9.298051
13.500000 9.424934
13.500000 9.552655
13.500000 9.681213
13.500000 9.810608
13.500000 9.940841
13.500000 10.071912
13.500000 10.203820
13.500000 10.336565
13.500000 10.470148
13.500000 10.604569
13.500000 10.739827
13.500000 10.875923
13.500000 11.012856
13.500000 11.150627
13.500000 11.289235
13.500000 11.428681
13.500000 11.568964
13.500000 11.710084
13.500000 11.852043
13.500000 11.994838
13.500000 12.138472
13.500000 12.282942
13.500000 12.428251
13.500000 12.574396
13.500000 12.721380
13.500000 12.869200
13.500000 13.017859
13.500000 13.167355
13.500000 13.317688
13.500000 13.468859
13.500000 13.620867
13.500000 13.773713
13.500000 13.927396
13.500000 14.081917
13.500000 14.237276
13.500000 14.393472
13.500000 14.550505
13.500000 14.708376
13.500000 14.867084
13.500000 15.026630
13.500000 15.187014
13.500000 15.348235
13.500000 15.510293
13.500000 15.673189
13.500000 15.836923
13.500000 16.001494
13.500000 16.166902
13.500000 16.333148
13.500000 16.500232
13.500000 16.668153
13.500000 16.836912
13.500000 17.006508
13.500000 17.176941
13.500000 17.348213
13.500000 17.520321
13.500000 17.693267
13.500000 17.867051
13.500000 18.041672
13.500000 18.217131
13.500000 18.393427
13.500000 18.570561
13.500000 18.748532
13.500000 18.927341
13.500000 19.106987
13.500000 19.287471
13.500000 19.468792
13.500000 19.650951
13.500000 19.833947
13.500000 20.017781
13.500000 20.202452
13.500000 20.387961
13.500000 20.574307
13.500000 20.761491
13.500000 20.949512
13.500000 21.138371
13.500000 21.328068
13.500000 21.518602
13.500000 21.709973
13.500000 21.902182
13.500000 22.095228
13.500000 22.289112
13.500000 22.483834
13.500000 22.679393
13.500000 22.875789
13.500000 23.073023
13.500000 23.271095
13.500000 23.470004
13.500000 23.669750
13.500000 23.870334
13.500000 24.071756
13.500000 24.274015
13.500000 24.477111
13.500000 24.681045
13.500000 24.885817
13.500000 25.091426
13.500000 25.297873
13.500000 25.505157
13.500000 25.713278
13.500000 25.922238
13.500000 26.132034
13.500000 26.342668
13.500000 26.554140
13.500000 26.766449
13.500000 26.979596
13.500000 27.193580
13.500000 27.408402
13.500000 27.624061
13.500000 27.840558
13.500000 28.057892
13.500000 28.276064
13.500000 28.495073
13.500000 28.714920
13.500000 28.935604
13.500000 29.157126
13.500000 29.379485
13.500000 29.602682
13.500000 29.826717
13.500000 30.051588
13.500000 30.277298
13.500000 30.503845
13.500000 30.731229
13.500000 30.959451
13.500000 31.188510
13.500000 31.418407
13.500000 31.649142
13.500000 31.880714
13.500000 32.113123
13.500000 32.346370
13.500000 32.580455
13.500000 32.815377
13.500000 33.051136
13.500000 33.287733
13.500000 33.525168
13.500000 33.763440
13.500000 34.002549
13.500000 34.242497
13.500000 34.483281
13.500000 34.724903
13.500000 34.967363
13.500000 35.210660
13.500000 35.454795
13.500000 35.699767
13.500000 35.945576
13.500000 36.192224
13.500000 36.439708
13.500000 36.688030
13.500000 36.937190
13.500000 37.187187
13.500000 37.438022
13.500000 37.689694
13.500000 37.942204
13.500000 38.195551
13.500000 38.449736
13.500000 38.704758
13.500000 38.960618
13.500000 39.217315
13.500000 39.474850
13.500000 39.733223
13.500000 39.992432
13.500000 40.252480
13.500000 40.513365
13.500000 40.775087
13.500000 41.037647
13.500000 41.301044
13.500000 41.565279
13.500000 41.830352
13.500000 42.096262
13.500000 42.363009
13.500000 42.630594
13.500000 42.899016
13.500000 43.168276
13.500000 43.438374
13.500000 43.709309
13.500000 43.981081
13.500000 44.253691
13.500000 44.527139
13.500000 44.801424
13.500000 45.076547
13.500000 45.352507
13.500000 45.629304
13.500000 45.906939
13.500000 46.185412
13.500000 46.464722
13.500000 46.744870
13.500000 47.025855
13.500000 47.307678
13.500000 47.590338
13.500000 47.873835
13.500000 48.158171
13.500000 48.443343
13.500000 48.729353
13.500000 49.016201
13.500000 49.303886
13.500000 49.592409
13.500000 49.881769
13.500000 50.171967
13.500000 50.463002
13.500000 50.754875
13.500000 51.047586
13.500000 51.341133
13.500000 51.635519
13.500000 51.930742
13.500000 52.226802
13.500000 52.523700
13.500000 52.821435
13.500000 53.120008
13.500000 53.419418
13.500000 53.719666
13.500000 54.020752
13.500000 54.322675
13.500000 54.625435
13.500000 54.929033
13.500000 55.233469
13.500000 55.538742
13.500000 55.844852
13.500000 56.151800
13.500000 56.459586
13.500000 56.768209
13.500000 57.077669
13.500000 57.387967
13.500000 57.699103
13.500000 58.011076
13.500000 58.323886
13.500000 58.637534
13.500000 58.952020
13.500000 59.267343
13.500000 59.583504
13.500000 59.900502
13.500000 60.218338
13.500000 60.537011
13.500000 60.856521
13.500000 61.176870
13.500000 61.498055
13.500000 61.820079
13.500000 62.142939
13.500000 62.466637
13.500000 62.791173
13.500000 63.116546
13.500000 63.442757
13.500000 63.769806
13.500000 64.097691
13.500000 64.426415
13.500000 64.755975
13.500000 65.086374
13.500000 65.417610
13.500000 65.749683
13.500000 66.082594
13.500000 66.416342
13.500000 66.750928
13.500000 67.086351
13.500000 67.422612
13.500000 67.759711
13.500000 68.097647
13.500000 68.436420
13.500000 68.776031
13.500000 69.116480
13.500000 69.457766
13.500000 69.799889
13.500000 70.142850
13.500000 70.486649
13.500000 70.831285
13.500000 71.176758
13.500000 71.523069
13.500000 71.870218
13.500000 72.218204
13.500000 72.567027
13.500000 72.916688
13.500000 73.267187
13.500000 73.618523
13.500000 73.970697
13.500000 74.323708
13.500000 74.677557
13.500000 75.032243
13.500000 75.387766
13.500000 75.744128
13.500000 76.101326
13.500000 76.459363
13.500000 76.818236
13.500000 77.177948
13.500000 77.538496
13.500000 77.899883
13.500000 78.262106
13.500000 78.625168
13.500000 78.989066
13.500000 79.353803
13.500000 79.719376
13.500000 80.085788
13.500000 80.453037
13.500000 80.821123
13.500000 81.190047
13.500000 81.559808
13.500000 81.930407
13.500000 82.301844
13.500000 82.674117
13.500000 83.047229
13.500000 83.421178
13.500000 83.795964
13.500000 84.171588
13.500000 84.548050
13.500000 84.925349
13.500000 85.303485
13.500000 85.682459
13.500000 86.062271
13.500000 86.442920
13.500000 86.824406
13.500000 87.206730
13.500000 87.589892
13.500000 87.973891
13.500000 88.358727
13.500000 88.744401
13.500000 89.130913
13.500000 89.518262
13.500000 89.906449
13.500000 90.295473
13.500000 90.685335
13.500000 91.076034
13.500000 91.467570
13.500000 91.859945
13.500000 92.253156
13.500000 92.647206
13.500000 93.042092
13.500000 93.437817
13.500000 93.834378
13.500000 94.231778
13.500000 94.630014
13.500000 95.029089
13.500000 95.429000
13.500000 95.829750
13.500000 96.231336
13.500000 96.633761
13.500000 97.037023
13.500000 97.441122
13.500000 97.846059
13.500000 98.251833
13.500000 98.658445
13.500000 99.065894
13.500000 99.474181
13.500000 99.883306
13.500000 100.293268
13.500000 100.704067
13.500000 101.115704
13.500000 101.528179
13.500000 101.941491
13.500000 102.355640
13.500000 102.770627
13.500000 103.186452
13.500000 103.603114
13.500000 104.020613
13.500000 104.438950
13.500000 104.858125
13.500000 105.278137
13.500000 105.698986
13.500000 106.120673
13.500000 106.543198
13.500000 106.966560
13.500000 107.390760
13.500000 107.815797
13.500000 108.241672
13.500000 108.668384
13.500000 109.095933
13.500000 109.524321
13.500000 109.953545
13.500000 110.383607
13.500000 110.814507
13.500000 111.246244
13.500000 111.678819
13.500000 112.112231
13.500000 112.546481
13.500000 112.981568
13.500000 113.417493
13.500000 113.854256
13.500000 114.291855
13.500000 114.730293
13.500000 115.169568
13.500000 115.609680
13.500000 116.050630
13.500000 116.492417
13.500000 116.935042
13.500000 117.378504
13.500000 117.822804
13.500000 118.267942
13.500000 118.713917
13.500000 119.160729
13.500000 119.608379
13.500000 120.056866
13.500000 120.506191
13.500000 120.956354
13.500000 121.407354
13.500000 121.859191
13.500000 122.311866
13.500000 122.765379
13.500000 123.219729
13.500000 123.674917
13.500000 124.130942
13.500000 124.587804
13.500000 125.045504
13.500000 125.504042
13.500000 125.963417
13.500000 126.423630
13.500000 126.884680
13.500000 127.346567
13.500000 127.809293
13.500000 128.272855
13.500000 128.737255
13.500000 129.202493
13.500000 129.668568
13.500000 130.135481
13.500000 130.603231
13.500000 131.071819
13.500000 131.541244
13.500000 132.011507
13.500000 132.482607
13.500000 132.954545
13.500000 133.427320
13.500000 133.900933
13.500000 134.375384
13.500000 134.850671
13.500000 135.326797
13.500000 135.803760
13.500000 136.281560
13.500000 136.760198
13.500000 137.239673
13.500000 137.719986
13.500000 138.201137
13.500000 138.683124
13.500000 139.165950
13.500000 139.649613
13.500000 140.134113
13.500000 140.619451
13.500000 141.105627
13.500000 141.592640
13.500000 142.080490
13.500000 142.569178
13.500000 143.058704
13.500000 143.549067
13.500000 144.040267
13.500000 144.532306
13.500000 145.025181
13.500000 145.518894
13.500000 146.013445
13.500000 146.508833
13.500000 147.005059
13.500000 147.502122
13.500000 148.000022
13.500000 148.498760
13.500000 148.998336
13.500000 149.498749
13.500000 150.000000
</POINTS>
</NEKTAR>

