<?xml version="1.0" encoding="utf-8" ?>
<NEKTAR>
<POINTS DIM="2" FIELDS="">
199.500000 0.000000
199.500000 0.000418
199.500000 0.001672
199.500000 0.003763
199.500000 0.006689
199.500000 0.010451
199.500000 0.015050
199.500000 0.020485
199.500000 0.026756
199.500000 0.033863
199.500000 0.041806
199.500000 0.050585
199.500000 0.060201
199.500000 0.070652
199.500000 0.081940
199.500000 0.094063
199.500000 0.107023
199.500000 0.120819
199.500000 0.135451
199.500000 0.150919
199.500000 0.167224
199.500000 0.184364
199.500000 0.202341
199.500000 0.221153
199.500000 0.240802
199.500000 0.261287
199.500000 0.282608
199.500000 0.304765
199.500000 0.327758
199.500000 0.351588
199.500000 0.376253
199.500000 0.401755
199.500000 0.428092
199.500000 0.455266
199.500000 0.483276
199.500000 0.512122
199.500000 0.541805
199.500000 0.572323
199.500000 0.603677
199.500000 0.635868
199.500000 0.668894
199.500000 0.702757
199.500000 0.737456
199.500000 0.772991
199.500000 0.809362
199.500000 0.846570
199.500000 0.884613
199.500000 0.923492
199.500000 0.963208
199.500000 1.003760
199.500000 1.045148
199.500000 1.087372
199.500000 1.130432
199.500000 1.174328
199.500000 1.219060
199.500000 1.264629
199.500000 1.311033
199.500000 1.358274
199.500000 1.406351
199.500000 1.455264
199.500000 1.505013
199.500000 1.555598
199.500000 1.607019
199.500000 1.659276
199.500000 1.712370
199.500000 1.766299
199.500000 1.821065
199.500000 1.876667
199.500000 1.933105
199.500000 1.990379
199.500000 2.048489
199.500000 2.107436
199.500000 2.167218
199.500000 2.227837
199.500000 2.289291
199.500000 2.351582
199.500000 2.414709
199.500000 2.478672
199.500000 2.543471
199.500000 2.609106
199.500000 2.675578
199.500000 2.742885
199.500000 2.811029
199.500000 2.880009
199.500000 2.949825
199.500000 3.020477
199.500000 3.091965
199.500000 3.164289
199.500000 3.237449
199.500000 3.311446
199.500000 3.386278
199.500000 3.461947
199.500000 3.538452
199.500000 3.615793
199.500000 3.693970
199.500000 3.772983
199.500000 3.852832
199.500000 3.933517
199.500000 4.015039
199.500000 4.097397
199.500000 4.180590
199.500000 4.264620
199.500000 4.349486
199.500000 4.435188
199.500000 4.521727
199.500000 4.609101
199.500000 4.697311
199.500000 4.786358
199.500000 4.876241
199.500000 4.966959
199.500000 5.058514
199.500000 5.150905
199.500000 5.244133
199.500000 5.338196
199.500000 5.433095
199.500000 5.528831
199.500000 5.625402
199.500000 5.722810
199.500000 5.821054
199.500000 5.920134
199.500000 6.020050
199.500000 6.120802
199.500000 6.222391
199.500000 6.324815
199.500000 6.428076
199.500000 6.532172
199.500000 6.637105
199.500000 6.742874
199.500000 6.849479
199.500000 6.956920
199.500000 7.065198
199.500000 7.174311
199.500000 7.284261
199.500000 7.395046
199.500000 7.506668
199.500000 7.619126
199.500000 7.732420
199.500000 7.846550
199.500000 7.961516
199.500000 8.077319
199.500000 8.193957
199.500000 8.311432
199.500000 8.429742
199.500000 8.548889
199.500000 8.668872
199.500000 8.789691
199.500000 8.911346
199.500000 9.033838
199.500000 9.157165
199.500000 9.281329
199.500000 9.406328
199.500000 9.532164
199.500000 9.658836
199.500000 9.786344
199.500000 9.914688
199.500000 10.043868
199.500000 10.173885
199.500000 10.304737
199.500000 10.436426
199.500000 10.568950
199.500000 10.702311
199.500000 10.836508
199.500000 10.971541
199.500000 11.107411
199.500000 11.244116
199.500000 11.381657
199.500000 11.520035
199.500000 11.659248
199.500000 11.799298
199.500000 11.940184
199.500000 12.081906
199.500000 12.224464
199.500000 12.367859
199.500000 12.512089
199.500000 12.657155
199.500000 12.803058
199.500000 12.949797
199.500000 13.097372
199.500000 13.245782
199.500000 13.395030
199.500000 13.545113
199.500000 13.696032
199.500000 13.847787
199.500000 14.000379
199.500000 14.153807
199.500000 14.308070
199.500000 14.463170
199.500000 14.619106
199.500000 14.775879
199.500000 14.933487
199.500000 15.091931
199.500000 15.251212
199.500000 15.411328
199.500000 15.572281
199.500000 15.734070
199.500000 15.896695
199.500000 16.060156
199.500000 16.224453
199.500000 16.389586
199.500000 16.555556
199.500000 16.722361
199.500000 16.890003
199.500000 17.058481
199.500000 17.227795
199.500000 17.397945
199.500000 17.568931
199.500000 17.740753
199.500000 17.913412
199.500000 18.086906
199.500000 18.261237
199.500000 18.436403
199.500000 18.612406
199.500000 18.789245
199.500000 18.966920
199.500000 19.145432
199.500000 19.324779
199.500000 19.504962
199.500000 19.685982
199.500000 19.867838
199.500000 20.050529
199.500000 20.234057
199.500000 20.418421
199.500000 20.603622
199.500000 20.789658
199.500000 20.976530
199.500000 21.164239
199.500000 21.352783
199.500000 21.542164
199.500000 21.732381
199.500000 21.923434
199.500000 22.115323
199.500000 22.308048
199.500000 22.501610
199.500000 22.696007
199.500000 22.891241
199.500000 23.087310
199.500000 23.284216
199.500000 23.481958
199.500000 23.680536
199.500000 23.879950
199.500000 24.080200
199.500000 24.281287
199.500000 24.483209
199.500000 24.685968
199.500000 24.889563
199.500000 25.093994
199.500000 25.299261
199.500000 25.505364
199.500000 25.712303
199.500000 25.920078
199.500000 26.128690
199.500000 26.338137
199.500000 26.548421
199.500000 26.759541
199.500000 26.971497
199.500000 27.184289
199.500000 27.397917
199.500000 27.612381
199.500000 27.827682
199.500000 28.043818
199.500000 28.260791
199.500000 28.478600
199.500000 28.697244
199.500000 28.916725
199.500000 29.137043
199.500000 29.358196
199.500000 29.580185
199.500000 29.803011
199.500000 30.026672
199.500000 30.251170
199.500000 30.476504
199.500000 30.702674
199.500000 30.929680
199.500000 31.157522
199.500000 31.386200
199.500000 31.615715
199.500000 31.846065
199.500000 32.077252
199.500000 32.309275
199.500000 32.542133
199.500000 32.775828
199.500000 33.010360
199.500000 33.245727
199.500000 33.481930
199.500000 33.718970
199.500000 33.956845
199.500000 34.195557
199.500000 34.435105
199.500000 34.675489
199.500000 34.916709
199.500000 35.158765
199.500000 35.401657
199.500000 35.645386
199.500000 35.889950
199.500000 36.135351
199.500000 36.381588
199.500000 36.628660
199.500000 36.876569
199.500000 37.125315
199.500000 37.374896
199.500000 37.625313
199.500000 37.876567
199.500000 38.128656
199.500000 38.381582
199.500000 38.635344
199.500000 38.889942
199.500000 39.145376
199.500000 39.401646
199.500000 39.658752
199.500000 39.916695
199.500000 40.175473
199.500000 40.435088
199.500000 40.695539
199.500000 40.956826
199.500000 41.218949
199.500000 41.481908
199.500000 41.745703
199.500000 42.010334
199.500000 42.275802
199.500000 42.542106
199.500000 42.809245
199.500000 43.077221
199.500000 43.346033
199.500000 43.615681
199.500000 43.886165
199.500000 44.157486
199.500000 44.429642
199.500000 44.702635
199.500000 44.976463
199.500000 45.251128
199.500000 45.526629
199.500000 45.802966
199.500000 46.080139
199.500000 46.358148
199.500000 46.636994
199.500000 46.916675
199.500000 47.197193
199.500000 47.478547
199.500000 47.760736
199.500000 48.043762
199.500000 48.327625
199.500000 48.612323
199.500000 48.897857
199.500000 49.184227
199.500000 49.471434
199.500000 49.759477
199.500000 50.048355
199.500000 50.338070
199.500000 50.628621
199.500000 50.920009
199.500000 51.212232
199.500000 51.505291
199.500000 51.799187
199.500000 52.093918
199.500000 52.389486
199.500000 52.685890
199.500000 52.983130
199.500000 53.281206
199.500000 53.580118
199.500000 53.879867
199.500000 54.180451
199.500000 54.481872
199.500000 54.784128
199.500000 55.087221
199.500000 55.391150
199.500000 55.695915
199.500000 56.001516
199.500000 56.307953
199.500000 56.615227
199.500000 56.923336
199.500000 57.232282
199.500000 57.542064
199.500000 57.852682
199.500000 58.164136
199.500000 58.476426
199.500000 58.789552
199.500000 59.103514
199.500000 59.418313
199.500000 59.733947
199.500000 60.050418
199.500000 60.367725
199.500000 60.685868
199.500000 61.004847
199.500000 61.324662
199.500000 61.645313
199.500000 61.966801
199.500000 62.289124
199.500000 62.612284
199.500000 62.936279
199.500000 63.261111
199.500000 63.586779
199.500000 63.913283
199.500000 64.240624
199.500000 64.568800
199.500000 64.897812
199.500000 65.227661
199.500000 65.558346
199.500000 65.889867
199.500000 66.222223
199.500000 66.555417
199.500000 66.889446
199.500000 67.224311
199.500000 67.560012
199.500000 67.896550
199.500000 68.233924
199.500000 68.572133
199.500000 68.911179
199.500000 69.251061
199.500000 69.591779
199.500000 69.933334
199.500000 70.275724
199.500000 70.618950
199.500000 70.963013
199.500000 71.307912
199.500000 71.653646
199.500000 72.000217
199.500000 72.347624
199.500000 72.695868
199.500000 73.044947
199.500000 73.394862
199.500000 73.745614
199.500000 74.097202
199.500000 74.449625
199.500000 74.802885
199.500000 75.156981
199.500000 75.511913
199.500000 75.867682
199.500000 76.224286
199.500000 76.581726
199.500000 76.940003
199.500000 77.299116
199.500000 77.659064
199.500000 78.019849
199.500000 78.381471
199.500000 78.743928
199.500000 79.107221
199.500000 79.471350
199.500000 79.836316
199.500000 80.202118
199.500000 80.568755
199.500000 80.936229
199.500000 81.304539
199.500000 81.673685
199.500000 82.043668
199.500000 82.414486
199.500000 82.786141
199.500000 83.158631
199.500000 83.531958
199.500000 83.906121
199.500000 84.281120
199.500000 84.656955
199.500000 85.033626
199.500000 85.411133
199.500000 85.789477
199.500000 86.168656
199.500000 86.548672
199.500000 86.929524
199.500000 87.311212
199.500000 87.693736
199.500000 88.077096
199.500000 88.461292
199.500000 88.846324
199.500000 89.232193
199.500000 89.618897
199.500000 90.006438
199.500000 90.394815
199.500000 90.784028
199.500000 91.174077
199.500000 91.564962
199.500000 91.956684
199.500000 92.349241
199.500000 92.742634
199.500000 93.136864
199.500000 93.531930
199.500000 93.927832
199.500000 94.324570
199.500000 94.722144
199.500000 95.120554
199.500000 95.519801
199.500000 95.919883
199.500000 96.320802
199.500000 96.722557
199.500000 97.125147
199.500000 97.528574
199.500000 97.932837
199.500000 98.337937
199.500000 98.743872
199.500000 99.150643
199.500000 99.558251
199.500000 99.966695
199.500000 100.375974
199.500000 100.786090
199.500000 101.197042
199.500000 101.608831
199.500000 102.021455
199.500000 102.434915
199.500000 102.849212
199.500000 103.264344
199.500000 103.680313
199.500000 104.097118
199.500000 104.514759
199.500000 104.933236
199.500000 105.352549
199.500000 105.772699
199.500000 106.193684
199.500000 106.615506
199.500000 107.038163
199.500000 107.461657
199.500000 107.885987
199.500000 108.311153
199.500000 108.737155
199.500000 109.163993
199.500000 109.591668
199.500000 110.020178
199.500000 110.449525
199.500000 110.879708
199.500000 111.310727
199.500000 111.742582
199.500000 112.175273
199.500000 112.608800
199.500000 113.043163
199.500000 113.478363
199.500000 113.914398
199.500000 114.351270
199.500000 114.788978
199.500000 115.227522
199.500000 115.666902
199.500000 116.107118
199.500000 116.548170
199.500000 116.990059
199.500000 117.432783
199.500000 117.876344
199.500000 118.320740
199.500000 118.765973
199.500000 119.212042
199.500000 119.658947
199.500000 120.106689
199.500000 120.555266
199.500000 121.004679
199.500000 121.454929
199.500000 121.906015
199.500000 122.357937
199.500000 122.810695
199.500000 123.264289
199.500000 123.718719
199.500000 124.173985
199.500000 124.630087
199.500000 125.087026
199.500000 125.544801
199.500000 126.003411
199.500000 126.462858
199.500000 126.923141
199.500000 127.384260
199.500000 127.846216
199.500000 128.309007
199.500000 128.772634
199.500000 129.237098
199.500000 129.702398
199.500000 130.168534
199.500000 130.635505
199.500000 131.103314
199.500000 131.571958
199.500000 132.041438
199.500000 132.511754
199.500000 132.982907
199.500000 133.454896
199.500000 133.927720
199.500000 134.401381
199.500000 134.875878
199.500000 135.351211
199.500000 135.827381
199.500000 136.304386
199.500000 136.782227
199.500000 137.260905
199.500000 137.740419
199.500000 138.220769
199.500000 138.701955
199.500000 139.183977
199.500000 139.666835
199.500000 140.150529
199.500000 140.635060
199.500000 141.120426
199.500000 141.606629
199.500000 142.093668
199.500000 142.581542
199.500000 143.070253
199.500000 143.559801
199.500000 144.050184
199.500000 144.541403
199.500000 145.033459
199.500000 145.526350
199.500000 146.020078
199.500000 146.514642
199.500000 147.010042
199.500000 147.506278
199.500000 148.003350
199.500000 148.501258
199.500000 149.000003
199.500000 149.499583
199.500000 150.000000
</POINTS>
</NEKTAR>

