<?xml version="1.0" encoding="utf-8" ?>
<NEKTAR>
<POINTS DIM="2" FIELDS="">
599.500000 0.000000
599.500000 0.000418
599.500000 0.001672
599.500000 0.003763
599.500000 0.006689
599.500000 0.010451
599.500000 0.015050
599.500000 0.020485
599.500000 0.026756
599.500000 0.033863
599.500000 0.041806
599.500000 0.050585
599.500000 0.060201
599.500000 0.070652
599.500000 0.081940
599.500000 0.094063
599.500000 0.107023
599.500000 0.120819
599.500000 0.135451
599.500000 0.150919
599.500000 0.167224
599.500000 0.184364
599.500000 0.202341
599.500000 0.221153
599.500000 0.240802
599.500000 0.261287
599.500000 0.282608
599.500000 0.304765
599.500000 0.327758
599.500000 0.351588
599.500000 0.376253
599.500000 0.401755
599.500000 0.428092
599.500000 0.455266
599.500000 0.483276
599.500000 0.512122
599.500000 0.541805
599.500000 0.572323
599.500000 0.603677
599.500000 0.635868
599.500000 0.668894
599.500000 0.702757
599.500000 0.737456
599.500000 0.772991
599.500000 0.809362
599.500000 0.846570
599.500000 0.884613
599.500000 0.923492
599.500000 0.963208
599.500000 1.003760
599.500000 1.045148
599.500000 1.087372
599.500000 1.130432
599.500000 1.174328
599.500000 1.219060
599.500000 1.264629
599.500000 1.311033
599.500000 1.358274
599.500000 1.406351
599.500000 1.455264
599.500000 1.505013
599.500000 1.555598
599.500000 1.607019
599.500000 1.659276
599.500000 1.712370
599.500000 1.766299
599.500000 1.821065
599.500000 1.876667
599.500000 1.933105
599.500000 1.990379
599.500000 2.048489
599.500000 2.107436
599.500000 2.167218
599.500000 2.227837
599.500000 2.289291
599.500000 2.351582
599.500000 2.414709
599.500000 2.478672
599.500000 2.543471
599.500000 2.609106
599.500000 2.675578
599.500000 2.742885
599.500000 2.811029
599.500000 2.880009
599.500000 2.949825
599.500000 3.020477
599.500000 3.091965
599.500000 3.164289
599.500000 3.237449
599.500000 3.311446
599.500000 3.386278
599.500000 3.461947
599.500000 3.538452
599.500000 3.615793
599.500000 3.693970
599.500000 3.772983
599.500000 3.852832
599.500000 3.933517
599.500000 4.015039
599.500000 4.097397
599.500000 4.180590
599.500000 4.264620
599.500000 4.349486
599.500000 4.435188
599.500000 4.521727
599.500000 4.609101
599.500000 4.697311
599.500000 4.786358
599.500000 4.876241
599.500000 4.966959
599.500000 5.058514
599.500000 5.150905
599.500000 5.244133
599.500000 5.338196
599.500000 5.433095
599.500000 5.528831
599.500000 5.625402
599.500000 5.722810
599.500000 5.821054
599.500000 5.920134
599.500000 6.020050
599.500000 6.120802
599.500000 6.222391
599.500000 6.324815
599.500000 6.428076
599.500000 6.532172
599.500000 6.637105
599.500000 6.742874
599.500000 6.849479
599.500000 6.956920
599.500000 7.065198
599.500000 7.174311
599.500000 7.284261
599.500000 7.395046
599.500000 7.506668
599.500000 7.619126
599.500000 7.732420
599.500000 7.846550
599.500000 7.961516
599.500000 8.077319
599.500000 8.193957
599.500000 8.311432
599.500000 8.429742
599.500000 8.548889
599.500000 8.668872
599.500000 8.789691
599.500000 8.911346
599.500000 9.033838
599.500000 9.157165
599.500000 9.281329
599.500000 9.406328
599.500000 9.532164
599.500000 9.658836
599.500000 9.786344
599.500000 9.914688
599.500000 10.043868
599.500000 10.173885
599.500000 10.304737
599.500000 10.436426
599.500000 10.568950
599.500000 10.702311
599.500000 10.836508
599.500000 10.971541
599.500000 11.107411
599.500000 11.244116
599.500000 11.381657
599.500000 11.520035
599.500000 11.659248
599.500000 11.799298
599.500000 11.940184
599.500000 12.081906
599.500000 12.224464
599.500000 12.367859
599.500000 12.512089
599.500000 12.657155
599.500000 12.803058
599.500000 12.949797
599.500000 13.097372
599.500000 13.245782
599.500000 13.395030
599.500000 13.545113
599.500000 13.696032
599.500000 13.847787
599.500000 14.000379
599.500000 14.153807
599.500000 14.308070
599.500000 14.463170
599.500000 14.619106
599.500000 14.775879
599.500000 14.933487
599.500000 15.091931
599.500000 15.251212
599.500000 15.411328
599.500000 15.572281
599.500000 15.734070
599.500000 15.896695
599.500000 16.060156
599.500000 16.224453
599.500000 16.389586
599.500000 16.555556
599.500000 16.722361
599.500000 16.890003
599.500000 17.058481
599.500000 17.227795
599.500000 17.397945
599.500000 17.568931
599.500000 17.740753
599.500000 17.913412
599.500000 18.086906
599.500000 18.261237
599.500000 18.436403
599.500000 18.612406
599.500000 18.789245
599.500000 18.966920
599.500000 19.145432
599.500000 19.324779
599.500000 19.504962
599.500000 19.685982
599.500000 19.867838
599.500000 20.050529
599.500000 20.234057
599.500000 20.418421
599.500000 20.603622
599.500000 20.789658
599.500000 20.976530
599.500000 21.164239
599.500000 21.352783
599.500000 21.542164
599.500000 21.732381
599.500000 21.923434
599.500000 22.115323
599.500000 22.308048
599.500000 22.501610
599.500000 22.696007
599.500000 22.891241
599.500000 23.087310
599.500000 23.284216
599.500000 23.481958
599.500000 23.680536
599.500000 23.879950
599.500000 24.080200
599.500000 24.281287
599.500000 24.483209
599.500000 24.685968
599.500000 24.889563
599.500000 25.093994
599.500000 25.299261
599.500000 25.505364
599.500000 25.712303
599.500000 25.920078
599.500000 26.128690
599.500000 26.338137
599.500000 26.548421
599.500000 26.759541
599.500000 26.971497
599.500000 27.184289
599.500000 27.397917
599.500000 27.612381
599.500000 27.827682
599.500000 28.043818
599.500000 28.260791
599.500000 28.478600
599.500000 28.697244
599.500000 28.916725
599.500000 29.137043
599.500000 29.358196
599.500000 29.580185
599.500000 29.803011
599.500000 30.026672
599.500000 30.251170
599.500000 30.476504
599.500000 30.702674
599.500000 30.929680
599.500000 31.157522
599.500000 31.386200
599.500000 31.615715
599.500000 31.846065
599.500000 32.077252
599.500000 32.309275
599.500000 32.542133
599.500000 32.775828
599.500000 33.010360
599.500000 33.245727
599.500000 33.481930
599.500000 33.718970
599.500000 33.956845
599.500000 34.195557
599.500000 34.435105
599.500000 34.675489
599.500000 34.916709
599.500000 35.158765
599.500000 35.401657
599.500000 35.645386
599.500000 35.889950
599.500000 36.135351
599.500000 36.381588
599.500000 36.628660
599.500000 36.876569
599.500000 37.125315
599.500000 37.374896
599.500000 37.625313
599.500000 37.876567
599.500000 38.128656
599.500000 38.381582
599.500000 38.635344
599.500000 38.889942
599.500000 39.145376
599.500000 39.401646
599.500000 39.658752
599.500000 39.916695
599.500000 40.175473
599.500000 40.435088
599.500000 40.695539
599.500000 40.956826
599.500000 41.218949
599.500000 41.481908
599.500000 41.745703
599.500000 42.010334
599.500000 42.275802
599.500000 42.542106
599.500000 42.809245
599.500000 43.077221
599.500000 43.346033
599.500000 43.615681
599.500000 43.886165
599.500000 44.157486
599.500000 44.429642
599.500000 44.702635
599.500000 44.976463
599.500000 45.251128
599.500000 45.526629
599.500000 45.802966
599.500000 46.080139
599.500000 46.358148
599.500000 46.636994
599.500000 46.916675
599.500000 47.197193
599.500000 47.478547
599.500000 47.760736
599.500000 48.043762
599.500000 48.327625
599.500000 48.612323
599.500000 48.897857
599.500000 49.184227
599.500000 49.471434
599.500000 49.759477
599.500000 50.048355
599.500000 50.338070
599.500000 50.628621
599.500000 50.920009
599.500000 51.212232
599.500000 51.505291
599.500000 51.799187
599.500000 52.093918
599.500000 52.389486
599.500000 52.685890
599.500000 52.983130
599.500000 53.281206
599.500000 53.580118
599.500000 53.879867
599.500000 54.180451
599.500000 54.481872
599.500000 54.784128
599.500000 55.087221
599.500000 55.391150
599.500000 55.695915
599.500000 56.001516
599.500000 56.307953
599.500000 56.615227
599.500000 56.923336
599.500000 57.232282
599.500000 57.542064
599.500000 57.852682
599.500000 58.164136
599.500000 58.476426
599.500000 58.789552
599.500000 59.103514
599.500000 59.418313
599.500000 59.733947
599.500000 60.050418
599.500000 60.367725
599.500000 60.685868
599.500000 61.004847
599.500000 61.324662
599.500000 61.645313
599.500000 61.966801
599.500000 62.289124
599.500000 62.612284
599.500000 62.936279
599.500000 63.261111
599.500000 63.586779
599.500000 63.913283
599.500000 64.240624
599.500000 64.568800
599.500000 64.897812
599.500000 65.227661
599.500000 65.558346
599.500000 65.889867
599.500000 66.222223
599.500000 66.555417
599.500000 66.889446
599.500000 67.224311
599.500000 67.560012
599.500000 67.896550
599.500000 68.233924
599.500000 68.572133
599.500000 68.911179
599.500000 69.251061
599.500000 69.591779
599.500000 69.933334
599.500000 70.275724
599.500000 70.618950
599.500000 70.963013
599.500000 71.307912
599.500000 71.653646
599.500000 72.000217
599.500000 72.347624
599.500000 72.695868
599.500000 73.044947
599.500000 73.394862
599.500000 73.745614
599.500000 74.097202
599.500000 74.449625
599.500000 74.802885
599.500000 75.156981
599.500000 75.511913
599.500000 75.867682
599.500000 76.224286
599.500000 76.581726
599.500000 76.940003
599.500000 77.299116
599.500000 77.659064
599.500000 78.019849
599.500000 78.381471
599.500000 78.743928
599.500000 79.107221
599.500000 79.471350
599.500000 79.836316
599.500000 80.202118
599.500000 80.568755
599.500000 80.936229
599.500000 81.304539
599.500000 81.673685
599.500000 82.043668
599.500000 82.414486
599.500000 82.786141
599.500000 83.158631
599.500000 83.531958
599.500000 83.906121
599.500000 84.281120
599.500000 84.656955
599.500000 85.033626
599.500000 85.411133
599.500000 85.789477
599.500000 86.168656
599.500000 86.548672
599.500000 86.929524
599.500000 87.311212
599.500000 87.693736
599.500000 88.077096
599.500000 88.461292
599.500000 88.846324
599.500000 89.232193
599.500000 89.618897
599.500000 90.006438
599.500000 90.394815
599.500000 90.784028
599.500000 91.174077
599.500000 91.564962
599.500000 91.956684
599.500000 92.349241
599.500000 92.742634
599.500000 93.136864
599.500000 93.531930
599.500000 93.927832
599.500000 94.324570
599.500000 94.722144
599.500000 95.120554
599.500000 95.519801
599.500000 95.919883
599.500000 96.320802
599.500000 96.722557
599.500000 97.125147
599.500000 97.528574
599.500000 97.932837
599.500000 98.337937
599.500000 98.743872
599.500000 99.150643
599.500000 99.558251
599.500000 99.966695
599.500000 100.375974
599.500000 100.786090
599.500000 101.197042
599.500000 101.608831
599.500000 102.021455
599.500000 102.434915
599.500000 102.849212
599.500000 103.264344
599.500000 103.680313
599.500000 104.097118
599.500000 104.514759
599.500000 104.933236
599.500000 105.352549
599.500000 105.772699
599.500000 106.193684
599.500000 106.615506
599.500000 107.038163
599.500000 107.461657
599.500000 107.885987
599.500000 108.311153
599.500000 108.737155
599.500000 109.163993
599.500000 109.591668
599.500000 110.020178
599.500000 110.449525
599.500000 110.879708
599.500000 111.310727
599.500000 111.742582
599.500000 112.175273
599.500000 112.608800
599.500000 113.043163
599.500000 113.478363
599.500000 113.914398
599.500000 114.351270
599.500000 114.788978
599.500000 115.227522
599.500000 115.666902
599.500000 116.107118
599.500000 116.548170
599.500000 116.990059
599.500000 117.432783
599.500000 117.876344
599.500000 118.320740
599.500000 118.765973
599.500000 119.212042
599.500000 119.658947
599.500000 120.106689
599.500000 120.555266
599.500000 121.004679
599.500000 121.454929
599.500000 121.906015
599.500000 122.357937
599.500000 122.810695
599.500000 123.264289
599.500000 123.718719
599.500000 124.173985
599.500000 124.630087
599.500000 125.087026
599.500000 125.544801
599.500000 126.003411
599.500000 126.462858
599.500000 126.923141
599.500000 127.384260
599.500000 127.846216
599.500000 128.309007
599.500000 128.772634
599.500000 129.237098
599.500000 129.702398
599.500000 130.168534
599.500000 130.635505
599.500000 131.103314
599.500000 131.571958
599.500000 132.041438
599.500000 132.511754
599.500000 132.982907
599.500000 133.454896
599.500000 133.927720
599.500000 134.401381
599.500000 134.875878
599.500000 135.351211
599.500000 135.827381
599.500000 136.304386
599.500000 136.782227
599.500000 137.260905
599.500000 137.740419
599.500000 138.220769
599.500000 138.701955
599.500000 139.183977
599.500000 139.666835
599.500000 140.150529
599.500000 140.635060
599.500000 141.120426
599.500000 141.606629
599.500000 142.093668
599.500000 142.581542
599.500000 143.070253
599.500000 143.559801
599.500000 144.050184
599.500000 144.541403
599.500000 145.033459
599.500000 145.526350
599.500000 146.020078
599.500000 146.514642
599.500000 147.010042
599.500000 147.506278
599.500000 148.003350
599.500000 148.501258
599.500000 149.000003
599.500000 149.499583
599.500000 150.000000
</POINTS>
</NEKTAR>

