<?xml version="1.0" encoding="utf-8" ?>
<NEKTAR>
<POINTS DIM="2" FIELDS="">
379.500000 0.000000
379.500000 0.000418
379.500000 0.001672
379.500000 0.003763
379.500000 0.006689
379.500000 0.010451
379.500000 0.015050
379.500000 0.020485
379.500000 0.026756
379.500000 0.033863
379.500000 0.041806
379.500000 0.050585
379.500000 0.060201
379.500000 0.070652
379.500000 0.081940
379.500000 0.094063
379.500000 0.107023
379.500000 0.120819
379.500000 0.135451
379.500000 0.150919
379.500000 0.167224
379.500000 0.184364
379.500000 0.202341
379.500000 0.221153
379.500000 0.240802
379.500000 0.261287
379.500000 0.282608
379.500000 0.304765
379.500000 0.327758
379.500000 0.351588
379.500000 0.376253
379.500000 0.401755
379.500000 0.428092
379.500000 0.455266
379.500000 0.483276
379.500000 0.512122
379.500000 0.541805
379.500000 0.572323
379.500000 0.603677
379.500000 0.635868
379.500000 0.668894
379.500000 0.702757
379.500000 0.737456
379.500000 0.772991
379.500000 0.809362
379.500000 0.846570
379.500000 0.884613
379.500000 0.923492
379.500000 0.963208
379.500000 1.003760
379.500000 1.045148
379.500000 1.087372
379.500000 1.130432
379.500000 1.174328
379.500000 1.219060
379.500000 1.264629
379.500000 1.311033
379.500000 1.358274
379.500000 1.406351
379.500000 1.455264
379.500000 1.505013
379.500000 1.555598
379.500000 1.607019
379.500000 1.659276
379.500000 1.712370
379.500000 1.766299
379.500000 1.821065
379.500000 1.876667
379.500000 1.933105
379.500000 1.990379
379.500000 2.048489
379.500000 2.107436
379.500000 2.167218
379.500000 2.227837
379.500000 2.289291
379.500000 2.351582
379.500000 2.414709
379.500000 2.478672
379.500000 2.543471
379.500000 2.609106
379.500000 2.675578
379.500000 2.742885
379.500000 2.811029
379.500000 2.880009
379.500000 2.949825
379.500000 3.020477
379.500000 3.091965
379.500000 3.164289
379.500000 3.237449
379.500000 3.311446
379.500000 3.386278
379.500000 3.461947
379.500000 3.538452
379.500000 3.615793
379.500000 3.693970
379.500000 3.772983
379.500000 3.852832
379.500000 3.933517
379.500000 4.015039
379.500000 4.097397
379.500000 4.180590
379.500000 4.264620
379.500000 4.349486
379.500000 4.435188
379.500000 4.521727
379.500000 4.609101
379.500000 4.697311
379.500000 4.786358
379.500000 4.876241
379.500000 4.966959
379.500000 5.058514
379.500000 5.150905
379.500000 5.244133
379.500000 5.338196
379.500000 5.433095
379.500000 5.528831
379.500000 5.625402
379.500000 5.722810
379.500000 5.821054
379.500000 5.920134
379.500000 6.020050
379.500000 6.120802
379.500000 6.222391
379.500000 6.324815
379.500000 6.428076
379.500000 6.532172
379.500000 6.637105
379.500000 6.742874
379.500000 6.849479
379.500000 6.956920
379.500000 7.065198
379.500000 7.174311
379.500000 7.284261
379.500000 7.395046
379.500000 7.506668
379.500000 7.619126
379.500000 7.732420
379.500000 7.846550
379.500000 7.961516
379.500000 8.077319
379.500000 8.193957
379.500000 8.311432
379.500000 8.429742
379.500000 8.548889
379.500000 8.668872
379.500000 8.789691
379.500000 8.911346
379.500000 9.033838
379.500000 9.157165
379.500000 9.281329
379.500000 9.406328
379.500000 9.532164
379.500000 9.658836
379.500000 9.786344
379.500000 9.914688
379.500000 10.043868
379.500000 10.173885
379.500000 10.304737
379.500000 10.436426
379.500000 10.568950
379.500000 10.702311
379.500000 10.836508
379.500000 10.971541
379.500000 11.107411
379.500000 11.244116
379.500000 11.381657
379.500000 11.520035
379.500000 11.659248
379.500000 11.799298
379.500000 11.940184
379.500000 12.081906
379.500000 12.224464
379.500000 12.367859
379.500000 12.512089
379.500000 12.657155
379.500000 12.803058
379.500000 12.949797
379.500000 13.097372
379.500000 13.245782
379.500000 13.395030
379.500000 13.545113
379.500000 13.696032
379.500000 13.847787
379.500000 14.000379
379.500000 14.153807
379.500000 14.308070
379.500000 14.463170
379.500000 14.619106
379.500000 14.775879
379.500000 14.933487
379.500000 15.091931
379.500000 15.251212
379.500000 15.411328
379.500000 15.572281
379.500000 15.734070
379.500000 15.896695
379.500000 16.060156
379.500000 16.224453
379.500000 16.389586
379.500000 16.555556
379.500000 16.722361
379.500000 16.890003
379.500000 17.058481
379.500000 17.227795
379.500000 17.397945
379.500000 17.568931
379.500000 17.740753
379.500000 17.913412
379.500000 18.086906
379.500000 18.261237
379.500000 18.436403
379.500000 18.612406
379.500000 18.789245
379.500000 18.966920
379.500000 19.145432
379.500000 19.324779
379.500000 19.504962
379.500000 19.685982
379.500000 19.867838
379.500000 20.050529
379.500000 20.234057
379.500000 20.418421
379.500000 20.603622
379.500000 20.789658
379.500000 20.976530
379.500000 21.164239
379.500000 21.352783
379.500000 21.542164
379.500000 21.732381
379.500000 21.923434
379.500000 22.115323
379.500000 22.308048
379.500000 22.501610
379.500000 22.696007
379.500000 22.891241
379.500000 23.087310
379.500000 23.284216
379.500000 23.481958
379.500000 23.680536
379.500000 23.879950
379.500000 24.080200
379.500000 24.281287
379.500000 24.483209
379.500000 24.685968
379.500000 24.889563
379.500000 25.093994
379.500000 25.299261
379.500000 25.505364
379.500000 25.712303
379.500000 25.920078
379.500000 26.128690
379.500000 26.338137
379.500000 26.548421
379.500000 26.759541
379.500000 26.971497
379.500000 27.184289
379.500000 27.397917
379.500000 27.612381
379.500000 27.827682
379.500000 28.043818
379.500000 28.260791
379.500000 28.478600
379.500000 28.697244
379.500000 28.916725
379.500000 29.137043
379.500000 29.358196
379.500000 29.580185
379.500000 29.803011
379.500000 30.026672
379.500000 30.251170
379.500000 30.476504
379.500000 30.702674
379.500000 30.929680
379.500000 31.157522
379.500000 31.386200
379.500000 31.615715
379.500000 31.846065
379.500000 32.077252
379.500000 32.309275
379.500000 32.542133
379.500000 32.775828
379.500000 33.010360
379.500000 33.245727
379.500000 33.481930
379.500000 33.718970
379.500000 33.956845
379.500000 34.195557
379.500000 34.435105
379.500000 34.675489
379.500000 34.916709
379.500000 35.158765
379.500000 35.401657
379.500000 35.645386
379.500000 35.889950
379.500000 36.135351
379.500000 36.381588
379.500000 36.628660
379.500000 36.876569
379.500000 37.125315
379.500000 37.374896
379.500000 37.625313
379.500000 37.876567
379.500000 38.128656
379.500000 38.381582
379.500000 38.635344
379.500000 38.889942
379.500000 39.145376
379.500000 39.401646
379.500000 39.658752
379.500000 39.916695
379.500000 40.175473
379.500000 40.435088
379.500000 40.695539
379.500000 40.956826
379.500000 41.218949
379.500000 41.481908
379.500000 41.745703
379.500000 42.010334
379.500000 42.275802
379.500000 42.542106
379.500000 42.809245
379.500000 43.077221
379.500000 43.346033
379.500000 43.615681
379.500000 43.886165
379.500000 44.157486
379.500000 44.429642
379.500000 44.702635
379.500000 44.976463
379.500000 45.251128
379.500000 45.526629
379.500000 45.802966
379.500000 46.080139
379.500000 46.358148
379.500000 46.636994
379.500000 46.916675
379.500000 47.197193
379.500000 47.478547
379.500000 47.760736
379.500000 48.043762
379.500000 48.327625
379.500000 48.612323
379.500000 48.897857
379.500000 49.184227
379.500000 49.471434
379.500000 49.759477
379.500000 50.048355
379.500000 50.338070
379.500000 50.628621
379.500000 50.920009
379.500000 51.212232
379.500000 51.505291
379.500000 51.799187
379.500000 52.093918
379.500000 52.389486
379.500000 52.685890
379.500000 52.983130
379.500000 53.281206
379.500000 53.580118
379.500000 53.879867
379.500000 54.180451
379.500000 54.481872
379.500000 54.784128
379.500000 55.087221
379.500000 55.391150
379.500000 55.695915
379.500000 56.001516
379.500000 56.307953
379.500000 56.615227
379.500000 56.923336
379.500000 57.232282
379.500000 57.542064
379.500000 57.852682
379.500000 58.164136
379.500000 58.476426
379.500000 58.789552
379.500000 59.103514
379.500000 59.418313
379.500000 59.733947
379.500000 60.050418
379.500000 60.367725
379.500000 60.685868
379.500000 61.004847
379.500000 61.324662
379.500000 61.645313
379.500000 61.966801
379.500000 62.289124
379.500000 62.612284
379.500000 62.936279
379.500000 63.261111
379.500000 63.586779
379.500000 63.913283
379.500000 64.240624
379.500000 64.568800
379.500000 64.897812
379.500000 65.227661
379.500000 65.558346
379.500000 65.889867
379.500000 66.222223
379.500000 66.555417
379.500000 66.889446
379.500000 67.224311
379.500000 67.560012
379.500000 67.896550
379.500000 68.233924
379.500000 68.572133
379.500000 68.911179
379.500000 69.251061
379.500000 69.591779
379.500000 69.933334
379.500000 70.275724
379.500000 70.618950
379.500000 70.963013
379.500000 71.307912
379.500000 71.653646
379.500000 72.000217
379.500000 72.347624
379.500000 72.695868
379.500000 73.044947
379.500000 73.394862
379.500000 73.745614
379.500000 74.097202
379.500000 74.449625
379.500000 74.802885
379.500000 75.156981
379.500000 75.511913
379.500000 75.867682
379.500000 76.224286
379.500000 76.581726
379.500000 76.940003
379.500000 77.299116
379.500000 77.659064
379.500000 78.019849
379.500000 78.381471
379.500000 78.743928
379.500000 79.107221
379.500000 79.471350
379.500000 79.836316
379.500000 80.202118
379.500000 80.568755
379.500000 80.936229
379.500000 81.304539
379.500000 81.673685
379.500000 82.043668
379.500000 82.414486
379.500000 82.786141
379.500000 83.158631
379.500000 83.531958
379.500000 83.906121
379.500000 84.281120
379.500000 84.656955
379.500000 85.033626
379.500000 85.411133
379.500000 85.789477
379.500000 86.168656
379.500000 86.548672
379.500000 86.929524
379.500000 87.311212
379.500000 87.693736
379.500000 88.077096
379.500000 88.461292
379.500000 88.846324
379.500000 89.232193
379.500000 89.618897
379.500000 90.006438
379.500000 90.394815
379.500000 90.784028
379.500000 91.174077
379.500000 91.564962
379.500000 91.956684
379.500000 92.349241
379.500000 92.742634
379.500000 93.136864
379.500000 93.531930
379.500000 93.927832
379.500000 94.324570
379.500000 94.722144
379.500000 95.120554
379.500000 95.519801
379.500000 95.919883
379.500000 96.320802
379.500000 96.722557
379.500000 97.125147
379.500000 97.528574
379.500000 97.932837
379.500000 98.337937
379.500000 98.743872
379.500000 99.150643
379.500000 99.558251
379.500000 99.966695
379.500000 100.375974
379.500000 100.786090
379.500000 101.197042
379.500000 101.608831
379.500000 102.021455
379.500000 102.434915
379.500000 102.849212
379.500000 103.264344
379.500000 103.680313
379.500000 104.097118
379.500000 104.514759
379.500000 104.933236
379.500000 105.352549
379.500000 105.772699
379.500000 106.193684
379.500000 106.615506
379.500000 107.038163
379.500000 107.461657
379.500000 107.885987
379.500000 108.311153
379.500000 108.737155
379.500000 109.163993
379.500000 109.591668
379.500000 110.020178
379.500000 110.449525
379.500000 110.879708
379.500000 111.310727
379.500000 111.742582
379.500000 112.175273
379.500000 112.608800
379.500000 113.043163
379.500000 113.478363
379.500000 113.914398
379.500000 114.351270
379.500000 114.788978
379.500000 115.227522
379.500000 115.666902
379.500000 116.107118
379.500000 116.548170
379.500000 116.990059
379.500000 117.432783
379.500000 117.876344
379.500000 118.320740
379.500000 118.765973
379.500000 119.212042
379.500000 119.658947
379.500000 120.106689
379.500000 120.555266
379.500000 121.004679
379.500000 121.454929
379.500000 121.906015
379.500000 122.357937
379.500000 122.810695
379.500000 123.264289
379.500000 123.718719
379.500000 124.173985
379.500000 124.630087
379.500000 125.087026
379.500000 125.544801
379.500000 126.003411
379.500000 126.462858
379.500000 126.923141
379.500000 127.384260
379.500000 127.846216
379.500000 128.309007
379.500000 128.772634
379.500000 129.237098
379.500000 129.702398
379.500000 130.168534
379.500000 130.635505
379.500000 131.103314
379.500000 131.571958
379.500000 132.041438
379.500000 132.511754
379.500000 132.982907
379.500000 133.454896
379.500000 133.927720
379.500000 134.401381
379.500000 134.875878
379.500000 135.351211
379.500000 135.827381
379.500000 136.304386
379.500000 136.782227
379.500000 137.260905
379.500000 137.740419
379.500000 138.220769
379.500000 138.701955
379.500000 139.183977
379.500000 139.666835
379.500000 140.150529
379.500000 140.635060
379.500000 141.120426
379.500000 141.606629
379.500000 142.093668
379.500000 142.581542
379.500000 143.070253
379.500000 143.559801
379.500000 144.050184
379.500000 144.541403
379.500000 145.033459
379.500000 145.526350
379.500000 146.020078
379.500000 146.514642
379.500000 147.010042
379.500000 147.506278
379.500000 148.003350
379.500000 148.501258
379.500000 149.000003
379.500000 149.499583
379.500000 150.000000
</POINTS>
</NEKTAR>

