<?xml version="1.0" encoding="utf-8" ?>
<NEKTAR>
<POINTS DIM="2" FIELDS="">
19.500000 0.000000
19.500000 0.000418
19.500000 0.001672
19.500000 0.003763
19.500000 0.006689
19.500000 0.010451
19.500000 0.015050
19.500000 0.020485
19.500000 0.026756
19.500000 0.033863
19.500000 0.041806
19.500000 0.050585
19.500000 0.060201
19.500000 0.070652
19.500000 0.081940
19.500000 0.094063
19.500000 0.107023
19.500000 0.120819
19.500000 0.135451
19.500000 0.150919
19.500000 0.167224
19.500000 0.184364
19.500000 0.202341
19.500000 0.221153
19.500000 0.240802
19.500000 0.261287
19.500000 0.282608
19.500000 0.304765
19.500000 0.327758
19.500000 0.351588
19.500000 0.376253
19.500000 0.401755
19.500000 0.428092
19.500000 0.455266
19.500000 0.483276
19.500000 0.512122
19.500000 0.541805
19.500000 0.572323
19.500000 0.603677
19.500000 0.635868
19.500000 0.668894
19.500000 0.702757
19.500000 0.737456
19.500000 0.772991
19.500000 0.809362
19.500000 0.846570
19.500000 0.884613
19.500000 0.923492
19.500000 0.963208
19.500000 1.003760
19.500000 1.045148
19.500000 1.087372
19.500000 1.130432
19.500000 1.174328
19.500000 1.219060
19.500000 1.264629
19.500000 1.311033
19.500000 1.358274
19.500000 1.406351
19.500000 1.455264
19.500000 1.505013
19.500000 1.555598
19.500000 1.607019
19.500000 1.659276
19.500000 1.712370
19.500000 1.766299
19.500000 1.821065
19.500000 1.876667
19.500000 1.933105
19.500000 1.990379
19.500000 2.048489
19.500000 2.107436
19.500000 2.167218
19.500000 2.227837
19.500000 2.289291
19.500000 2.351582
19.500000 2.414709
19.500000 2.478672
19.500000 2.543471
19.500000 2.609106
19.500000 2.675578
19.500000 2.742885
19.500000 2.811029
19.500000 2.880009
19.500000 2.949825
19.500000 3.020477
19.500000 3.091965
19.500000 3.164289
19.500000 3.237449
19.500000 3.311446
19.500000 3.386278
19.500000 3.461947
19.500000 3.538452
19.500000 3.615793
19.500000 3.693970
19.500000 3.772983
19.500000 3.852832
19.500000 3.933517
19.500000 4.015039
19.500000 4.097397
19.500000 4.180590
19.500000 4.264620
19.500000 4.349486
19.500000 4.435188
19.500000 4.521727
19.500000 4.609101
19.500000 4.697311
19.500000 4.786358
19.500000 4.876241
19.500000 4.966959
19.500000 5.058514
19.500000 5.150905
19.500000 5.244133
19.500000 5.338196
19.500000 5.433095
19.500000 5.528831
19.500000 5.625402
19.500000 5.722810
19.500000 5.821054
19.500000 5.920134
19.500000 6.020050
19.500000 6.120802
19.500000 6.222391
19.500000 6.324815
19.500000 6.428076
19.500000 6.532172
19.500000 6.637105
19.500000 6.742874
19.500000 6.849479
19.500000 6.956920
19.500000 7.065198
19.500000 7.174311
19.500000 7.284261
19.500000 7.395046
19.500000 7.506668
19.500000 7.619126
19.500000 7.732420
19.500000 7.846550
19.500000 7.961516
19.500000 8.077319
19.500000 8.193957
19.500000 8.311432
19.500000 8.429742
19.500000 8.548889
19.500000 8.668872
19.500000 8.789691
19.500000 8.911346
19.500000 9.033838
19.500000 9.157165
19.500000 9.281329
19.500000 9.406328
19.500000 9.532164
19.500000 9.658836
19.500000 9.786344
19.500000 9.914688
19.500000 10.043868
19.500000 10.173885
19.500000 10.304737
19.500000 10.436426
19.500000 10.568950
19.500000 10.702311
19.500000 10.836508
19.500000 10.971541
19.500000 11.107411
19.500000 11.244116
19.500000 11.381657
19.500000 11.520035
19.500000 11.659248
19.500000 11.799298
19.500000 11.940184
19.500000 12.081906
19.500000 12.224464
19.500000 12.367859
19.500000 12.512089
19.500000 12.657155
19.500000 12.803058
19.500000 12.949797
19.500000 13.097372
19.500000 13.245782
19.500000 13.395030
19.500000 13.545113
19.500000 13.696032
19.500000 13.847787
19.500000 14.000379
19.500000 14.153807
19.500000 14.308070
19.500000 14.463170
19.500000 14.619106
19.500000 14.775879
19.500000 14.933487
19.500000 15.091931
19.500000 15.251212
19.500000 15.411328
19.500000 15.572281
19.500000 15.734070
19.500000 15.896695
19.500000 16.060156
19.500000 16.224453
19.500000 16.389586
19.500000 16.555556
19.500000 16.722361
19.500000 16.890003
19.500000 17.058481
19.500000 17.227795
19.500000 17.397945
19.500000 17.568931
19.500000 17.740753
19.500000 17.913412
19.500000 18.086906
19.500000 18.261237
19.500000 18.436403
19.500000 18.612406
19.500000 18.789245
19.500000 18.966920
19.500000 19.145432
19.500000 19.324779
19.500000 19.504962
19.500000 19.685982
19.500000 19.867838
19.500000 20.050529
19.500000 20.234057
19.500000 20.418421
19.500000 20.603622
19.500000 20.789658
19.500000 20.976530
19.500000 21.164239
19.500000 21.352783
19.500000 21.542164
19.500000 21.732381
19.500000 21.923434
19.500000 22.115323
19.500000 22.308048
19.500000 22.501610
19.500000 22.696007
19.500000 22.891241
19.500000 23.087310
19.500000 23.284216
19.500000 23.481958
19.500000 23.680536
19.500000 23.879950
19.500000 24.080200
19.500000 24.281287
19.500000 24.483209
19.500000 24.685968
19.500000 24.889563
19.500000 25.093994
19.500000 25.299261
19.500000 25.505364
19.500000 25.712303
19.500000 25.920078
19.500000 26.128690
19.500000 26.338137
19.500000 26.548421
19.500000 26.759541
19.500000 26.971497
19.500000 27.184289
19.500000 27.397917
19.500000 27.612381
19.500000 27.827682
19.500000 28.043818
19.500000 28.260791
19.500000 28.478600
19.500000 28.697244
19.500000 28.916725
19.500000 29.137043
19.500000 29.358196
19.500000 29.580185
19.500000 29.803011
19.500000 30.026672
19.500000 30.251170
19.500000 30.476504
19.500000 30.702674
19.500000 30.929680
19.500000 31.157522
19.500000 31.386200
19.500000 31.615715
19.500000 31.846065
19.500000 32.077252
19.500000 32.309275
19.500000 32.542133
19.500000 32.775828
19.500000 33.010360
19.500000 33.245727
19.500000 33.481930
19.500000 33.718970
19.500000 33.956845
19.500000 34.195557
19.500000 34.435105
19.500000 34.675489
19.500000 34.916709
19.500000 35.158765
19.500000 35.401657
19.500000 35.645386
19.500000 35.889950
19.500000 36.135351
19.500000 36.381588
19.500000 36.628660
19.500000 36.876569
19.500000 37.125315
19.500000 37.374896
19.500000 37.625313
19.500000 37.876567
19.500000 38.128656
19.500000 38.381582
19.500000 38.635344
19.500000 38.889942
19.500000 39.145376
19.500000 39.401646
19.500000 39.658752
19.500000 39.916695
19.500000 40.175473
19.500000 40.435088
19.500000 40.695539
19.500000 40.956826
19.500000 41.218949
19.500000 41.481908
19.500000 41.745703
19.500000 42.010334
19.500000 42.275802
19.500000 42.542106
19.500000 42.809245
19.500000 43.077221
19.500000 43.346033
19.500000 43.615681
19.500000 43.886165
19.500000 44.157486
19.500000 44.429642
19.500000 44.702635
19.500000 44.976463
19.500000 45.251128
19.500000 45.526629
19.500000 45.802966
19.500000 46.080139
19.500000 46.358148
19.500000 46.636994
19.500000 46.916675
19.500000 47.197193
19.500000 47.478547
19.500000 47.760736
19.500000 48.043762
19.500000 48.327625
19.500000 48.612323
19.500000 48.897857
19.500000 49.184227
19.500000 49.471434
19.500000 49.759477
19.500000 50.048355
19.500000 50.338070
19.500000 50.628621
19.500000 50.920009
19.500000 51.212232
19.500000 51.505291
19.500000 51.799187
19.500000 52.093918
19.500000 52.389486
19.500000 52.685890
19.500000 52.983130
19.500000 53.281206
19.500000 53.580118
19.500000 53.879867
19.500000 54.180451
19.500000 54.481872
19.500000 54.784128
19.500000 55.087221
19.500000 55.391150
19.500000 55.695915
19.500000 56.001516
19.500000 56.307953
19.500000 56.615227
19.500000 56.923336
19.500000 57.232282
19.500000 57.542064
19.500000 57.852682
19.500000 58.164136
19.500000 58.476426
19.500000 58.789552
19.500000 59.103514
19.500000 59.418313
19.500000 59.733947
19.500000 60.050418
19.500000 60.367725
19.500000 60.685868
19.500000 61.004847
19.500000 61.324662
19.500000 61.645313
19.500000 61.966801
19.500000 62.289124
19.500000 62.612284
19.500000 62.936279
19.500000 63.261111
19.500000 63.586779
19.500000 63.913283
19.500000 64.240624
19.500000 64.568800
19.500000 64.897812
19.500000 65.227661
19.500000 65.558346
19.500000 65.889867
19.500000 66.222223
19.500000 66.555417
19.500000 66.889446
19.500000 67.224311
19.500000 67.560012
19.500000 67.896550
19.500000 68.233924
19.500000 68.572133
19.500000 68.911179
19.500000 69.251061
19.500000 69.591779
19.500000 69.933334
19.500000 70.275724
19.500000 70.618950
19.500000 70.963013
19.500000 71.307912
19.500000 71.653646
19.500000 72.000217
19.500000 72.347624
19.500000 72.695868
19.500000 73.044947
19.500000 73.394862
19.500000 73.745614
19.500000 74.097202
19.500000 74.449625
19.500000 74.802885
19.500000 75.156981
19.500000 75.511913
19.500000 75.867682
19.500000 76.224286
19.500000 76.581726
19.500000 76.940003
19.500000 77.299116
19.500000 77.659064
19.500000 78.019849
19.500000 78.381471
19.500000 78.743928
19.500000 79.107221
19.500000 79.471350
19.500000 79.836316
19.500000 80.202118
19.500000 80.568755
19.500000 80.936229
19.500000 81.304539
19.500000 81.673685
19.500000 82.043668
19.500000 82.414486
19.500000 82.786141
19.500000 83.158631
19.500000 83.531958
19.500000 83.906121
19.500000 84.281120
19.500000 84.656955
19.500000 85.033626
19.500000 85.411133
19.500000 85.789477
19.500000 86.168656
19.500000 86.548672
19.500000 86.929524
19.500000 87.311212
19.500000 87.693736
19.500000 88.077096
19.500000 88.461292
19.500000 88.846324
19.500000 89.232193
19.500000 89.618897
19.500000 90.006438
19.500000 90.394815
19.500000 90.784028
19.500000 91.174077
19.500000 91.564962
19.500000 91.956684
19.500000 92.349241
19.500000 92.742634
19.500000 93.136864
19.500000 93.531930
19.500000 93.927832
19.500000 94.324570
19.500000 94.722144
19.500000 95.120554
19.500000 95.519801
19.500000 95.919883
19.500000 96.320802
19.500000 96.722557
19.500000 97.125147
19.500000 97.528574
19.500000 97.932837
19.500000 98.337937
19.500000 98.743872
19.500000 99.150643
19.500000 99.558251
19.500000 99.966695
19.500000 100.375974
19.500000 100.786090
19.500000 101.197042
19.500000 101.608831
19.500000 102.021455
19.500000 102.434915
19.500000 102.849212
19.500000 103.264344
19.500000 103.680313
19.500000 104.097118
19.500000 104.514759
19.500000 104.933236
19.500000 105.352549
19.500000 105.772699
19.500000 106.193684
19.500000 106.615506
19.500000 107.038163
19.500000 107.461657
19.500000 107.885987
19.500000 108.311153
19.500000 108.737155
19.500000 109.163993
19.500000 109.591668
19.500000 110.020178
19.500000 110.449525
19.500000 110.879708
19.500000 111.310727
19.500000 111.742582
19.500000 112.175273
19.500000 112.608800
19.500000 113.043163
19.500000 113.478363
19.500000 113.914398
19.500000 114.351270
19.500000 114.788978
19.500000 115.227522
19.500000 115.666902
19.500000 116.107118
19.500000 116.548170
19.500000 116.990059
19.500000 117.432783
19.500000 117.876344
19.500000 118.320740
19.500000 118.765973
19.500000 119.212042
19.500000 119.658947
19.500000 120.106689
19.500000 120.555266
19.500000 121.004679
19.500000 121.454929
19.500000 121.906015
19.500000 122.357937
19.500000 122.810695
19.500000 123.264289
19.500000 123.718719
19.500000 124.173985
19.500000 124.630087
19.500000 125.087026
19.500000 125.544801
19.500000 126.003411
19.500000 126.462858
19.500000 126.923141
19.500000 127.384260
19.500000 127.846216
19.500000 128.309007
19.500000 128.772634
19.500000 129.237098
19.500000 129.702398
19.500000 130.168534
19.500000 130.635505
19.500000 131.103314
19.500000 131.571958
19.500000 132.041438
19.500000 132.511754
19.500000 132.982907
19.500000 133.454896
19.500000 133.927720
19.500000 134.401381
19.500000 134.875878
19.500000 135.351211
19.500000 135.827381
19.500000 136.304386
19.500000 136.782227
19.500000 137.260905
19.500000 137.740419
19.500000 138.220769
19.500000 138.701955
19.500000 139.183977
19.500000 139.666835
19.500000 140.150529
19.500000 140.635060
19.500000 141.120426
19.500000 141.606629
19.500000 142.093668
19.500000 142.581542
19.500000 143.070253
19.500000 143.559801
19.500000 144.050184
19.500000 144.541403
19.500000 145.033459
19.500000 145.526350
19.500000 146.020078
19.500000 146.514642
19.500000 147.010042
19.500000 147.506278
19.500000 148.003350
19.500000 148.501258
19.500000 149.000003
19.500000 149.499583
19.500000 150.000000
</POINTS>
</NEKTAR>

