<?xml version="1.0" encoding="utf-8" ?>
<NEKTAR>
<POINTS DIM="2" FIELDS="">
15.500000 -3.000000
15.500000 -2.999574
15.500000 -2.998294
15.500000 -2.996162
15.500000 -2.993177
15.500000 -2.989339
15.500000 -2.984649
15.500000 -2.979105
15.500000 -2.972709
15.500000 -2.965460
15.500000 -2.957358
15.500000 -2.948403
15.500000 -2.938595
15.500000 -2.927935
15.500000 -2.916422
15.500000 -2.904055
15.500000 -2.890836
15.500000 -2.876765
15.500000 -2.861840
15.500000 -2.846062
15.500000 -2.829432
15.500000 -2.811949
15.500000 -2.793613
15.500000 -2.774424
15.500000 -2.754382
15.500000 -2.733487
15.500000 -2.711740
15.500000 -2.689140
15.500000 -2.665687
15.500000 -2.641381
15.500000 -2.616222
15.500000 -2.590210
15.500000 -2.563346
15.500000 -2.535628
15.500000 -2.507058
15.500000 -2.477635
15.500000 -2.447359
15.500000 -2.416231
15.500000 -2.384249
15.500000 -2.351415
15.500000 -2.317728
15.500000 -2.283188
15.500000 -2.247795
15.500000 -2.211549
15.500000 -2.174450
15.500000 -2.136499
15.500000 -2.097695
15.500000 -2.058038
15.500000 -2.017528
15.500000 -1.976165
15.500000 -1.933949
15.500000 -1.890881
15.500000 -1.846960
15.500000 -1.802186
15.500000 -1.756559
15.500000 -1.710079
15.500000 -1.662746
15.500000 -1.614561
15.500000 -1.565522
15.500000 -1.515631
15.500000 -1.464887
15.500000 -1.413290
15.500000 -1.360841
15.500000 -1.307538
15.500000 -1.253383
15.500000 -1.198375
15.500000 -1.142514
15.500000 -1.085800
15.500000 -1.028233
15.500000 -0.969813
15.500000 -0.910541
15.500000 -0.850416
15.500000 -0.789438
15.500000 -0.727607
15.500000 -0.664923
15.500000 -0.601386
15.500000 -0.536997
15.500000 -0.471755
15.500000 -0.405659
15.500000 -0.338711
15.500000 -0.270911
15.500000 -0.202257
15.500000 -0.132750
15.500000 -0.062391
15.500000 0.008821
15.500000 0.080886
15.500000 0.153804
15.500000 0.227575
15.500000 0.302198
15.500000 0.377675
15.500000 0.454004
15.500000 0.531186
15.500000 0.609221
15.500000 0.688108
15.500000 0.767849
15.500000 0.848442
15.500000 0.929889
15.500000 1.012188
15.500000 1.095340
15.500000 1.179345
15.500000 1.264202
15.500000 1.349913
15.500000 1.436476
15.500000 1.523892
15.500000 1.612161
15.500000 1.701283
15.500000 1.791258
15.500000 1.882085
15.500000 1.973765
15.500000 2.066299
15.500000 2.159685
15.500000 2.253923
15.500000 2.349015
15.500000 2.444960
15.500000 2.541757
15.500000 2.639407
15.500000 2.737910
15.500000 2.837266
15.500000 2.937475
15.500000 3.038537
15.500000 3.140451
15.500000 3.243218
15.500000 3.346838
15.500000 3.451311
15.500000 3.556637
15.500000 3.662816
15.500000 3.769847
15.500000 3.877732
15.500000 3.986469
15.500000 4.096059
15.500000 4.206502
15.500000 4.317797
15.500000 4.429946
15.500000 4.542947
15.500000 4.656801
15.500000 4.771508
15.500000 4.887068
15.500000 5.003481
15.500000 5.120747
15.500000 5.238865
15.500000 5.357836
15.500000 5.477660
15.500000 5.598337
15.500000 5.719867
15.500000 5.842250
15.500000 5.965485
15.500000 6.089573
15.500000 6.214514
15.500000 6.340308
15.500000 6.466955
15.500000 6.594455
15.500000 6.722807
15.500000 6.852013
15.500000 6.982071
15.500000 7.112982
15.500000 7.244746
15.500000 7.377362
15.500000 7.510832
15.500000 7.645154
15.500000 7.780329
15.500000 7.916358
15.500000 8.053238
15.500000 8.190972
15.500000 8.329559
15.500000 8.468998
15.500000 8.609290
15.500000 8.750435
15.500000 8.892433
15.500000 9.035284
15.500000 9.178988
15.500000 9.323544
15.500000 9.468954
15.500000 9.615216
15.500000 9.762331
15.500000 9.910298
15.500000 10.059119
15.500000 10.208793
15.500000 10.359319
15.500000 10.510698
15.500000 10.662930
15.500000 10.816015
15.500000 10.969953
15.500000 11.124743
15.500000 11.280387
15.500000 11.436883
15.500000 11.594232
15.500000 11.752434
15.500000 11.911489
15.500000 12.071396
15.500000 12.232157
15.500000 12.393770
15.500000 12.556236
15.500000 12.719555
15.500000 12.883727
15.500000 13.048751
15.500000 13.214629
15.500000 13.381359
15.500000 13.548942
15.500000 13.717378
15.500000 13.886667
15.500000 14.056809
15.500000 14.227803
15.500000 14.399651
15.500000 14.572351
15.500000 14.745904
15.500000 14.920310
15.500000 15.095568
15.500000 15.271680
15.500000 15.448644
15.500000 15.626461
15.500000 15.805132
15.500000 15.984654
15.500000 16.165030
15.500000 16.346259
15.500000 16.528340
15.500000 16.711274
15.500000 16.895062
15.500000 17.079702
15.500000 17.265194
15.500000 17.451540
15.500000 17.638738
15.500000 17.826790
15.500000 18.015694
15.500000 18.205451
15.500000 18.396061
15.500000 18.587523
15.500000 18.779839
15.500000 18.973007
15.500000 19.167029
15.500000 19.361903
15.500000 19.557629
15.500000 19.754209
15.500000 19.951642
15.500000 20.149927
15.500000 20.349065
15.500000 20.549056
15.500000 20.749900
15.500000 20.951597
15.500000 21.154147
15.500000 21.357549
15.500000 21.561804
15.500000 21.766913
15.500000 21.972874
15.500000 22.179687
15.500000 22.387354
15.500000 22.595873
15.500000 22.805246
15.500000 23.015471
15.500000 23.226549
15.500000 23.438480
15.500000 23.651264
15.500000 23.864900
15.500000 24.079389
15.500000 24.294732
15.500000 24.510927
15.500000 24.727975
15.500000 24.945875
15.500000 25.164629
15.500000 25.384235
15.500000 25.604695
15.500000 25.826007
15.500000 26.048172
15.500000 26.271189
15.500000 26.495060
15.500000 26.719783
15.500000 26.945360
15.500000 27.171789
15.500000 27.399071
15.500000 27.627206
15.500000 27.856193
15.500000 28.086034
15.500000 28.316727
15.500000 28.548273
15.500000 28.780672
15.500000 29.013924
15.500000 29.248029
15.500000 29.482986
15.500000 29.718797
15.500000 29.955460
15.500000 30.192976
15.500000 30.431345
15.500000 30.670567
15.500000 30.910641
15.500000 31.151569
15.500000 31.393349
15.500000 31.635982
15.500000 31.879468
15.500000 32.123807
15.500000 32.368998
15.500000 32.615043
15.500000 32.861940
15.500000 33.109690
15.500000 33.358293
15.500000 33.607749
15.500000 33.858058
15.500000 34.109219
15.500000 34.361234
15.500000 34.614101
15.500000 34.867821
15.500000 35.122394
15.500000 35.377819
15.500000 35.634098
15.500000 35.891229
15.500000 36.149214
15.500000 36.408051
15.500000 36.667741
15.500000 36.928283
15.500000 37.189679
15.500000 37.451927
15.500000 37.715029
15.500000 37.978983
15.500000 38.243790
15.500000 38.509450
15.500000 38.775962
15.500000 39.043328
15.500000 39.311546
15.500000 39.580617
15.500000 39.850541
15.500000 40.121318
15.500000 40.392948
15.500000 40.665430
15.500000 40.938765
15.500000 41.212954
15.500000 41.487995
15.500000 41.763889
15.500000 42.040635
15.500000 42.318235
15.500000 42.596687
15.500000 42.875993
15.500000 43.156151
15.500000 43.437162
15.500000 43.719025
15.500000 44.001742
15.500000 44.285311
15.500000 44.569734
15.500000 44.855009
15.500000 45.141137
15.500000 45.428118
15.500000 45.715951
15.500000 46.004638
15.500000 46.294177
15.500000 46.584569
15.500000 46.875814
15.500000 47.167912
15.500000 47.460863
15.500000 47.754666
15.500000 48.049323
15.500000 48.344832
15.500000 48.641194
15.500000 48.938409
15.500000 49.236476
15.500000 49.535397
15.500000 49.835170
15.500000 50.135797
15.500000 50.437276
15.500000 50.739608
15.500000 51.042793
15.500000 51.346830
15.500000 51.651721
15.500000 51.957464
15.500000 52.264060
15.500000 52.571509
15.500000 52.879811
15.500000 53.188965
15.500000 53.498973
15.500000 53.809833
15.500000 54.121546
15.500000 54.434113
15.500000 54.747531
15.500000 55.061803
15.500000 55.376928
15.500000 55.692905
15.500000 56.009735
15.500000 56.327418
15.500000 56.645954
15.500000 56.965343
15.500000 57.285584
15.500000 57.606679
15.500000 57.928626
15.500000 58.251426
15.500000 58.575079
15.500000 58.899585
15.500000 59.224944
15.500000 59.551155
15.500000 59.878219
15.500000 60.206137
15.500000 60.534907
15.500000 60.864529
15.500000 61.195005
15.500000 61.526334
15.500000 61.858515
15.500000 62.191549
15.500000 62.525436
15.500000 62.860176
15.500000 63.195769
15.500000 63.532214
15.500000 63.869513
15.500000 64.207664
15.500000 64.546668
15.500000 64.886525
15.500000 65.227235
15.500000 65.568797
15.500000 65.911213
15.500000 66.254481
15.500000 66.598602
15.500000 66.943576
15.500000 67.289403
15.500000 67.636082
15.500000 67.983615
15.500000 68.332000
15.500000 68.681238
15.500000 69.031329
15.500000 69.382273
15.500000 69.734070
15.500000 70.086719
15.500000 70.440222
15.500000 70.794577
15.500000 71.149785
15.500000 71.505846
15.500000 71.862760
15.500000 72.220526
15.500000 72.579146
15.500000 72.938618
15.500000 73.298943
15.500000 73.660121
15.500000 74.022152
15.500000 74.385035
15.500000 74.748772
15.500000 75.113361
15.500000 75.478803
15.500000 75.845098
15.500000 76.212246
15.500000 76.580246
15.500000 76.949100
15.500000 77.318806
15.500000 77.689365
15.500000 78.060777
15.500000 78.433042
15.500000 78.806160
15.500000 79.180130
15.500000 79.554954
15.500000 79.930630
15.500000 80.307159
15.500000 80.684541
15.500000 81.062776
15.500000 81.441863
15.500000 81.821804
15.500000 82.202597
15.500000 82.584243
15.500000 82.966742
15.500000 83.350094
15.500000 83.734298
15.500000 84.119356
15.500000 84.505266
15.500000 84.892029
15.500000 85.279645
15.500000 85.668114
15.500000 86.057436
15.500000 86.447610
15.500000 86.838638
15.500000 87.230518
15.500000 87.623251
15.500000 88.016837
15.500000 88.411275
15.500000 88.806567
15.500000 89.202711
15.500000 89.599708
15.500000 89.997559
15.500000 90.396261
15.500000 90.795817
15.500000 91.196226
15.500000 91.597487
15.500000 91.999601
15.500000 92.402569
15.500000 92.806388
15.500000 93.211061
15.500000 93.616587
15.500000 94.022965
15.500000 94.430197
15.500000 94.838281
15.500000 95.247218
15.500000 95.657008
15.500000 96.067650
15.500000 96.479146
15.500000 96.891494
15.500000 97.304695
15.500000 97.718749
15.500000 98.133656
15.500000 98.549416
15.500000 98.966029
15.500000 99.383494
15.500000 99.801812
15.500000 100.220983
15.500000 100.641007
15.500000 101.061884
15.500000 101.483613
15.500000 101.906196
15.500000 102.329631
15.500000 102.753919
15.500000 103.179060
15.500000 103.605054
15.500000 104.031901
15.500000 104.459600
15.500000 104.888152
15.500000 105.317558
15.500000 105.747816
15.500000 106.178926
15.500000 106.610890
15.500000 107.043707
15.500000 107.477376
15.500000 107.911898
15.500000 108.347273
15.500000 108.783501
15.500000 109.220582
15.500000 109.658515
15.500000 110.097302
15.500000 110.536941
15.500000 110.977433
15.500000 111.418778
15.500000 111.860976
15.500000 112.304026
15.500000 112.747930
15.500000 113.192686
15.500000 113.638295
15.500000 114.084757
15.500000 114.532072
15.500000 114.980240
15.500000 115.429260
15.500000 115.879134
15.500000 116.329860
15.500000 116.781439
15.500000 117.233871
15.500000 117.687155
15.500000 118.141293
15.500000 118.596283
15.500000 119.052126
15.500000 119.508822
15.500000 119.966371
15.500000 120.424773
15.500000 120.884028
15.500000 121.344135
15.500000 121.805095
15.500000 122.266908
15.500000 122.729574
15.500000 123.193093
15.500000 123.657465
15.500000 124.122689
15.500000 124.588766
15.500000 125.055697
15.500000 125.523480
15.500000 125.992115
15.500000 126.461604
15.500000 126.931946
15.500000 127.403140
15.500000 127.875187
15.500000 128.348087
15.500000 128.821840
15.500000 129.296446
15.500000 129.771904
15.500000 130.248216
15.500000 130.725380
15.500000 131.203397
15.500000 131.682267
15.500000 132.161990
15.500000 132.642565
15.500000 133.123994
15.500000 133.606275
15.500000 134.089409
15.500000 134.573396
15.500000 135.058236
15.500000 135.543928
15.500000 136.030474
15.500000 136.517872
15.500000 137.006123
15.500000 137.495227
15.500000 137.985184
15.500000 138.475994
15.500000 138.967656
15.500000 139.460172
15.500000 139.953540
15.500000 140.447761
15.500000 140.942835
15.500000 141.438761
15.500000 141.935541
15.500000 142.433173
15.500000 142.931658
15.500000 143.430997
15.500000 143.931187
15.500000 144.432231
15.500000 144.934128
15.500000 145.436877
15.500000 145.940480
15.500000 146.444935
15.500000 146.950243
15.500000 147.456403
15.500000 147.963417
15.500000 148.471284
15.500000 148.980003
15.500000 149.489575
15.500000 150.000000
</POINTS>
</NEKTAR>

