<?xml version="1.0" encoding="utf-8" ?>
<NEKTAR>
<POINTS DIM="2" FIELDS="">
20.500000 0.000000
20.500000 0.000418
20.500000 0.001672
20.500000 0.003763
20.500000 0.006689
20.500000 0.010451
20.500000 0.015050
20.500000 0.020485
20.500000 0.026756
20.500000 0.033863
20.500000 0.041806
20.500000 0.050585
20.500000 0.060201
20.500000 0.070652
20.500000 0.081940
20.500000 0.094063
20.500000 0.107023
20.500000 0.120819
20.500000 0.135451
20.500000 0.150919
20.500000 0.167224
20.500000 0.184364
20.500000 0.202341
20.500000 0.221153
20.500000 0.240802
20.500000 0.261287
20.500000 0.282608
20.500000 0.304765
20.500000 0.327758
20.500000 0.351588
20.500000 0.376253
20.500000 0.401755
20.500000 0.428092
20.500000 0.455266
20.500000 0.483276
20.500000 0.512122
20.500000 0.541805
20.500000 0.572323
20.500000 0.603677
20.500000 0.635868
20.500000 0.668894
20.500000 0.702757
20.500000 0.737456
20.500000 0.772991
20.500000 0.809362
20.500000 0.846570
20.500000 0.884613
20.500000 0.923492
20.500000 0.963208
20.500000 1.003760
20.500000 1.045148
20.500000 1.087372
20.500000 1.130432
20.500000 1.174328
20.500000 1.219060
20.500000 1.264629
20.500000 1.311033
20.500000 1.358274
20.500000 1.406351
20.500000 1.455264
20.500000 1.505013
20.500000 1.555598
20.500000 1.607019
20.500000 1.659276
20.500000 1.712370
20.500000 1.766299
20.500000 1.821065
20.500000 1.876667
20.500000 1.933105
20.500000 1.990379
20.500000 2.048489
20.500000 2.107436
20.500000 2.167218
20.500000 2.227837
20.500000 2.289291
20.500000 2.351582
20.500000 2.414709
20.500000 2.478672
20.500000 2.543471
20.500000 2.609106
20.500000 2.675578
20.500000 2.742885
20.500000 2.811029
20.500000 2.880009
20.500000 2.949825
20.500000 3.020477
20.500000 3.091965
20.500000 3.164289
20.500000 3.237449
20.500000 3.311446
20.500000 3.386278
20.500000 3.461947
20.500000 3.538452
20.500000 3.615793
20.500000 3.693970
20.500000 3.772983
20.500000 3.852832
20.500000 3.933517
20.500000 4.015039
20.500000 4.097397
20.500000 4.180590
20.500000 4.264620
20.500000 4.349486
20.500000 4.435188
20.500000 4.521727
20.500000 4.609101
20.500000 4.697311
20.500000 4.786358
20.500000 4.876241
20.500000 4.966959
20.500000 5.058514
20.500000 5.150905
20.500000 5.244133
20.500000 5.338196
20.500000 5.433095
20.500000 5.528831
20.500000 5.625402
20.500000 5.722810
20.500000 5.821054
20.500000 5.920134
20.500000 6.020050
20.500000 6.120802
20.500000 6.222391
20.500000 6.324815
20.500000 6.428076
20.500000 6.532172
20.500000 6.637105
20.500000 6.742874
20.500000 6.849479
20.500000 6.956920
20.500000 7.065198
20.500000 7.174311
20.500000 7.284261
20.500000 7.395046
20.500000 7.506668
20.500000 7.619126
20.500000 7.732420
20.500000 7.846550
20.500000 7.961516
20.500000 8.077319
20.500000 8.193957
20.500000 8.311432
20.500000 8.429742
20.500000 8.548889
20.500000 8.668872
20.500000 8.789691
20.500000 8.911346
20.500000 9.033838
20.500000 9.157165
20.500000 9.281329
20.500000 9.406328
20.500000 9.532164
20.500000 9.658836
20.500000 9.786344
20.500000 9.914688
20.500000 10.043868
20.500000 10.173885
20.500000 10.304737
20.500000 10.436426
20.500000 10.568950
20.500000 10.702311
20.500000 10.836508
20.500000 10.971541
20.500000 11.107411
20.500000 11.244116
20.500000 11.381657
20.500000 11.520035
20.500000 11.659248
20.500000 11.799298
20.500000 11.940184
20.500000 12.081906
20.500000 12.224464
20.500000 12.367859
20.500000 12.512089
20.500000 12.657155
20.500000 12.803058
20.500000 12.949797
20.500000 13.097372
20.500000 13.245782
20.500000 13.395030
20.500000 13.545113
20.500000 13.696032
20.500000 13.847787
20.500000 14.000379
20.500000 14.153807
20.500000 14.308070
20.500000 14.463170
20.500000 14.619106
20.500000 14.775879
20.500000 14.933487
20.500000 15.091931
20.500000 15.251212
20.500000 15.411328
20.500000 15.572281
20.500000 15.734070
20.500000 15.896695
20.500000 16.060156
20.500000 16.224453
20.500000 16.389586
20.500000 16.555556
20.500000 16.722361
20.500000 16.890003
20.500000 17.058481
20.500000 17.227795
20.500000 17.397945
20.500000 17.568931
20.500000 17.740753
20.500000 17.913412
20.500000 18.086906
20.500000 18.261237
20.500000 18.436403
20.500000 18.612406
20.500000 18.789245
20.500000 18.966920
20.500000 19.145432
20.500000 19.324779
20.500000 19.504962
20.500000 19.685982
20.500000 19.867838
20.500000 20.050529
20.500000 20.234057
20.500000 20.418421
20.500000 20.603622
20.500000 20.789658
20.500000 20.976530
20.500000 21.164239
20.500000 21.352783
20.500000 21.542164
20.500000 21.732381
20.500000 21.923434
20.500000 22.115323
20.500000 22.308048
20.500000 22.501610
20.500000 22.696007
20.500000 22.891241
20.500000 23.087310
20.500000 23.284216
20.500000 23.481958
20.500000 23.680536
20.500000 23.879950
20.500000 24.080200
20.500000 24.281287
20.500000 24.483209
20.500000 24.685968
20.500000 24.889563
20.500000 25.093994
20.500000 25.299261
20.500000 25.505364
20.500000 25.712303
20.500000 25.920078
20.500000 26.128690
20.500000 26.338137
20.500000 26.548421
20.500000 26.759541
20.500000 26.971497
20.500000 27.184289
20.500000 27.397917
20.500000 27.612381
20.500000 27.827682
20.500000 28.043818
20.500000 28.260791
20.500000 28.478600
20.500000 28.697244
20.500000 28.916725
20.500000 29.137043
20.500000 29.358196
20.500000 29.580185
20.500000 29.803011
20.500000 30.026672
20.500000 30.251170
20.500000 30.476504
20.500000 30.702674
20.500000 30.929680
20.500000 31.157522
20.500000 31.386200
20.500000 31.615715
20.500000 31.846065
20.500000 32.077252
20.500000 32.309275
20.500000 32.542133
20.500000 32.775828
20.500000 33.010360
20.500000 33.245727
20.500000 33.481930
20.500000 33.718970
20.500000 33.956845
20.500000 34.195557
20.500000 34.435105
20.500000 34.675489
20.500000 34.916709
20.500000 35.158765
20.500000 35.401657
20.500000 35.645386
20.500000 35.889950
20.500000 36.135351
20.500000 36.381588
20.500000 36.628660
20.500000 36.876569
20.500000 37.125315
20.500000 37.374896
20.500000 37.625313
20.500000 37.876567
20.500000 38.128656
20.500000 38.381582
20.500000 38.635344
20.500000 38.889942
20.500000 39.145376
20.500000 39.401646
20.500000 39.658752
20.500000 39.916695
20.500000 40.175473
20.500000 40.435088
20.500000 40.695539
20.500000 40.956826
20.500000 41.218949
20.500000 41.481908
20.500000 41.745703
20.500000 42.010334
20.500000 42.275802
20.500000 42.542106
20.500000 42.809245
20.500000 43.077221
20.500000 43.346033
20.500000 43.615681
20.500000 43.886165
20.500000 44.157486
20.500000 44.429642
20.500000 44.702635
20.500000 44.976463
20.500000 45.251128
20.500000 45.526629
20.500000 45.802966
20.500000 46.080139
20.500000 46.358148
20.500000 46.636994
20.500000 46.916675
20.500000 47.197193
20.500000 47.478547
20.500000 47.760736
20.500000 48.043762
20.500000 48.327625
20.500000 48.612323
20.500000 48.897857
20.500000 49.184227
20.500000 49.471434
20.500000 49.759477
20.500000 50.048355
20.500000 50.338070
20.500000 50.628621
20.500000 50.920009
20.500000 51.212232
20.500000 51.505291
20.500000 51.799187
20.500000 52.093918
20.500000 52.389486
20.500000 52.685890
20.500000 52.983130
20.500000 53.281206
20.500000 53.580118
20.500000 53.879867
20.500000 54.180451
20.500000 54.481872
20.500000 54.784128
20.500000 55.087221
20.500000 55.391150
20.500000 55.695915
20.500000 56.001516
20.500000 56.307953
20.500000 56.615227
20.500000 56.923336
20.500000 57.232282
20.500000 57.542064
20.500000 57.852682
20.500000 58.164136
20.500000 58.476426
20.500000 58.789552
20.500000 59.103514
20.500000 59.418313
20.500000 59.733947
20.500000 60.050418
20.500000 60.367725
20.500000 60.685868
20.500000 61.004847
20.500000 61.324662
20.500000 61.645313
20.500000 61.966801
20.500000 62.289124
20.500000 62.612284
20.500000 62.936279
20.500000 63.261111
20.500000 63.586779
20.500000 63.913283
20.500000 64.240624
20.500000 64.568800
20.500000 64.897812
20.500000 65.227661
20.500000 65.558346
20.500000 65.889867
20.500000 66.222223
20.500000 66.555417
20.500000 66.889446
20.500000 67.224311
20.500000 67.560012
20.500000 67.896550
20.500000 68.233924
20.500000 68.572133
20.500000 68.911179
20.500000 69.251061
20.500000 69.591779
20.500000 69.933334
20.500000 70.275724
20.500000 70.618950
20.500000 70.963013
20.500000 71.307912
20.500000 71.653646
20.500000 72.000217
20.500000 72.347624
20.500000 72.695868
20.500000 73.044947
20.500000 73.394862
20.500000 73.745614
20.500000 74.097202
20.500000 74.449625
20.500000 74.802885
20.500000 75.156981
20.500000 75.511913
20.500000 75.867682
20.500000 76.224286
20.500000 76.581726
20.500000 76.940003
20.500000 77.299116
20.500000 77.659064
20.500000 78.019849
20.500000 78.381471
20.500000 78.743928
20.500000 79.107221
20.500000 79.471350
20.500000 79.836316
20.500000 80.202118
20.500000 80.568755
20.500000 80.936229
20.500000 81.304539
20.500000 81.673685
20.500000 82.043668
20.500000 82.414486
20.500000 82.786141
20.500000 83.158631
20.500000 83.531958
20.500000 83.906121
20.500000 84.281120
20.500000 84.656955
20.500000 85.033626
20.500000 85.411133
20.500000 85.789477
20.500000 86.168656
20.500000 86.548672
20.500000 86.929524
20.500000 87.311212
20.500000 87.693736
20.500000 88.077096
20.500000 88.461292
20.500000 88.846324
20.500000 89.232193
20.500000 89.618897
20.500000 90.006438
20.500000 90.394815
20.500000 90.784028
20.500000 91.174077
20.500000 91.564962
20.500000 91.956684
20.500000 92.349241
20.500000 92.742634
20.500000 93.136864
20.500000 93.531930
20.500000 93.927832
20.500000 94.324570
20.500000 94.722144
20.500000 95.120554
20.500000 95.519801
20.500000 95.919883
20.500000 96.320802
20.500000 96.722557
20.500000 97.125147
20.500000 97.528574
20.500000 97.932837
20.500000 98.337937
20.500000 98.743872
20.500000 99.150643
20.500000 99.558251
20.500000 99.966695
20.500000 100.375974
20.500000 100.786090
20.500000 101.197042
20.500000 101.608831
20.500000 102.021455
20.500000 102.434915
20.500000 102.849212
20.500000 103.264344
20.500000 103.680313
20.500000 104.097118
20.500000 104.514759
20.500000 104.933236
20.500000 105.352549
20.500000 105.772699
20.500000 106.193684
20.500000 106.615506
20.500000 107.038163
20.500000 107.461657
20.500000 107.885987
20.500000 108.311153
20.500000 108.737155
20.500000 109.163993
20.500000 109.591668
20.500000 110.020178
20.500000 110.449525
20.500000 110.879708
20.500000 111.310727
20.500000 111.742582
20.500000 112.175273
20.500000 112.608800
20.500000 113.043163
20.500000 113.478363
20.500000 113.914398
20.500000 114.351270
20.500000 114.788978
20.500000 115.227522
20.500000 115.666902
20.500000 116.107118
20.500000 116.548170
20.500000 116.990059
20.500000 117.432783
20.500000 117.876344
20.500000 118.320740
20.500000 118.765973
20.500000 119.212042
20.500000 119.658947
20.500000 120.106689
20.500000 120.555266
20.500000 121.004679
20.500000 121.454929
20.500000 121.906015
20.500000 122.357937
20.500000 122.810695
20.500000 123.264289
20.500000 123.718719
20.500000 124.173985
20.500000 124.630087
20.500000 125.087026
20.500000 125.544801
20.500000 126.003411
20.500000 126.462858
20.500000 126.923141
20.500000 127.384260
20.500000 127.846216
20.500000 128.309007
20.500000 128.772634
20.500000 129.237098
20.500000 129.702398
20.500000 130.168534
20.500000 130.635505
20.500000 131.103314
20.500000 131.571958
20.500000 132.041438
20.500000 132.511754
20.500000 132.982907
20.500000 133.454896
20.500000 133.927720
20.500000 134.401381
20.500000 134.875878
20.500000 135.351211
20.500000 135.827381
20.500000 136.304386
20.500000 136.782227
20.500000 137.260905
20.500000 137.740419
20.500000 138.220769
20.500000 138.701955
20.500000 139.183977
20.500000 139.666835
20.500000 140.150529
20.500000 140.635060
20.500000 141.120426
20.500000 141.606629
20.500000 142.093668
20.500000 142.581542
20.500000 143.070253
20.500000 143.559801
20.500000 144.050184
20.500000 144.541403
20.500000 145.033459
20.500000 145.526350
20.500000 146.020078
20.500000 146.514642
20.500000 147.010042
20.500000 147.506278
20.500000 148.003350
20.500000 148.501258
20.500000 149.000003
20.500000 149.499583
20.500000 150.000000
</POINTS>
</NEKTAR>

