<?xml version="1.0" encoding="utf-8" ?>
<NEKTAR>
<POINTS DIM="2" FIELDS="">
38.500000 0.000000
38.500000 0.000418
38.500000 0.001672
38.500000 0.003763
38.500000 0.006689
38.500000 0.010451
38.500000 0.015050
38.500000 0.020485
38.500000 0.026756
38.500000 0.033863
38.500000 0.041806
38.500000 0.050585
38.500000 0.060201
38.500000 0.070652
38.500000 0.081940
38.500000 0.094063
38.500000 0.107023
38.500000 0.120819
38.500000 0.135451
38.500000 0.150919
38.500000 0.167224
38.500000 0.184364
38.500000 0.202341
38.500000 0.221153
38.500000 0.240802
38.500000 0.261287
38.500000 0.282608
38.500000 0.304765
38.500000 0.327758
38.500000 0.351588
38.500000 0.376253
38.500000 0.401755
38.500000 0.428092
38.500000 0.455266
38.500000 0.483276
38.500000 0.512122
38.500000 0.541805
38.500000 0.572323
38.500000 0.603677
38.500000 0.635868
38.500000 0.668894
38.500000 0.702757
38.500000 0.737456
38.500000 0.772991
38.500000 0.809362
38.500000 0.846570
38.500000 0.884613
38.500000 0.923492
38.500000 0.963208
38.500000 1.003760
38.500000 1.045148
38.500000 1.087372
38.500000 1.130432
38.500000 1.174328
38.500000 1.219060
38.500000 1.264629
38.500000 1.311033
38.500000 1.358274
38.500000 1.406351
38.500000 1.455264
38.500000 1.505013
38.500000 1.555598
38.500000 1.607019
38.500000 1.659276
38.500000 1.712370
38.500000 1.766299
38.500000 1.821065
38.500000 1.876667
38.500000 1.933105
38.500000 1.990379
38.500000 2.048489
38.500000 2.107436
38.500000 2.167218
38.500000 2.227837
38.500000 2.289291
38.500000 2.351582
38.500000 2.414709
38.500000 2.478672
38.500000 2.543471
38.500000 2.609106
38.500000 2.675578
38.500000 2.742885
38.500000 2.811029
38.500000 2.880009
38.500000 2.949825
38.500000 3.020477
38.500000 3.091965
38.500000 3.164289
38.500000 3.237449
38.500000 3.311446
38.500000 3.386278
38.500000 3.461947
38.500000 3.538452
38.500000 3.615793
38.500000 3.693970
38.500000 3.772983
38.500000 3.852832
38.500000 3.933517
38.500000 4.015039
38.500000 4.097397
38.500000 4.180590
38.500000 4.264620
38.500000 4.349486
38.500000 4.435188
38.500000 4.521727
38.500000 4.609101
38.500000 4.697311
38.500000 4.786358
38.500000 4.876241
38.500000 4.966959
38.500000 5.058514
38.500000 5.150905
38.500000 5.244133
38.500000 5.338196
38.500000 5.433095
38.500000 5.528831
38.500000 5.625402
38.500000 5.722810
38.500000 5.821054
38.500000 5.920134
38.500000 6.020050
38.500000 6.120802
38.500000 6.222391
38.500000 6.324815
38.500000 6.428076
38.500000 6.532172
38.500000 6.637105
38.500000 6.742874
38.500000 6.849479
38.500000 6.956920
38.500000 7.065198
38.500000 7.174311
38.500000 7.284261
38.500000 7.395046
38.500000 7.506668
38.500000 7.619126
38.500000 7.732420
38.500000 7.846550
38.500000 7.961516
38.500000 8.077319
38.500000 8.193957
38.500000 8.311432
38.500000 8.429742
38.500000 8.548889
38.500000 8.668872
38.500000 8.789691
38.500000 8.911346
38.500000 9.033838
38.500000 9.157165
38.500000 9.281329
38.500000 9.406328
38.500000 9.532164
38.500000 9.658836
38.500000 9.786344
38.500000 9.914688
38.500000 10.043868
38.500000 10.173885
38.500000 10.304737
38.500000 10.436426
38.500000 10.568950
38.500000 10.702311
38.500000 10.836508
38.500000 10.971541
38.500000 11.107411
38.500000 11.244116
38.500000 11.381657
38.500000 11.520035
38.500000 11.659248
38.500000 11.799298
38.500000 11.940184
38.500000 12.081906
38.500000 12.224464
38.500000 12.367859
38.500000 12.512089
38.500000 12.657155
38.500000 12.803058
38.500000 12.949797
38.500000 13.097372
38.500000 13.245782
38.500000 13.395030
38.500000 13.545113
38.500000 13.696032
38.500000 13.847787
38.500000 14.000379
38.500000 14.153807
38.500000 14.308070
38.500000 14.463170
38.500000 14.619106
38.500000 14.775879
38.500000 14.933487
38.500000 15.091931
38.500000 15.251212
38.500000 15.411328
38.500000 15.572281
38.500000 15.734070
38.500000 15.896695
38.500000 16.060156
38.500000 16.224453
38.500000 16.389586
38.500000 16.555556
38.500000 16.722361
38.500000 16.890003
38.500000 17.058481
38.500000 17.227795
38.500000 17.397945
38.500000 17.568931
38.500000 17.740753
38.500000 17.913412
38.500000 18.086906
38.500000 18.261237
38.500000 18.436403
38.500000 18.612406
38.500000 18.789245
38.500000 18.966920
38.500000 19.145432
38.500000 19.324779
38.500000 19.504962
38.500000 19.685982
38.500000 19.867838
38.500000 20.050529
38.500000 20.234057
38.500000 20.418421
38.500000 20.603622
38.500000 20.789658
38.500000 20.976530
38.500000 21.164239
38.500000 21.352783
38.500000 21.542164
38.500000 21.732381
38.500000 21.923434
38.500000 22.115323
38.500000 22.308048
38.500000 22.501610
38.500000 22.696007
38.500000 22.891241
38.500000 23.087310
38.500000 23.284216
38.500000 23.481958
38.500000 23.680536
38.500000 23.879950
38.500000 24.080200
38.500000 24.281287
38.500000 24.483209
38.500000 24.685968
38.500000 24.889563
38.500000 25.093994
38.500000 25.299261
38.500000 25.505364
38.500000 25.712303
38.500000 25.920078
38.500000 26.128690
38.500000 26.338137
38.500000 26.548421
38.500000 26.759541
38.500000 26.971497
38.500000 27.184289
38.500000 27.397917
38.500000 27.612381
38.500000 27.827682
38.500000 28.043818
38.500000 28.260791
38.500000 28.478600
38.500000 28.697244
38.500000 28.916725
38.500000 29.137043
38.500000 29.358196
38.500000 29.580185
38.500000 29.803011
38.500000 30.026672
38.500000 30.251170
38.500000 30.476504
38.500000 30.702674
38.500000 30.929680
38.500000 31.157522
38.500000 31.386200
38.500000 31.615715
38.500000 31.846065
38.500000 32.077252
38.500000 32.309275
38.500000 32.542133
38.500000 32.775828
38.500000 33.010360
38.500000 33.245727
38.500000 33.481930
38.500000 33.718970
38.500000 33.956845
38.500000 34.195557
38.500000 34.435105
38.500000 34.675489
38.500000 34.916709
38.500000 35.158765
38.500000 35.401657
38.500000 35.645386
38.500000 35.889950
38.500000 36.135351
38.500000 36.381588
38.500000 36.628660
38.500000 36.876569
38.500000 37.125315
38.500000 37.374896
38.500000 37.625313
38.500000 37.876567
38.500000 38.128656
38.500000 38.381582
38.500000 38.635344
38.500000 38.889942
38.500000 39.145376
38.500000 39.401646
38.500000 39.658752
38.500000 39.916695
38.500000 40.175473
38.500000 40.435088
38.500000 40.695539
38.500000 40.956826
38.500000 41.218949
38.500000 41.481908
38.500000 41.745703
38.500000 42.010334
38.500000 42.275802
38.500000 42.542106
38.500000 42.809245
38.500000 43.077221
38.500000 43.346033
38.500000 43.615681
38.500000 43.886165
38.500000 44.157486
38.500000 44.429642
38.500000 44.702635
38.500000 44.976463
38.500000 45.251128
38.500000 45.526629
38.500000 45.802966
38.500000 46.080139
38.500000 46.358148
38.500000 46.636994
38.500000 46.916675
38.500000 47.197193
38.500000 47.478547
38.500000 47.760736
38.500000 48.043762
38.500000 48.327625
38.500000 48.612323
38.500000 48.897857
38.500000 49.184227
38.500000 49.471434
38.500000 49.759477
38.500000 50.048355
38.500000 50.338070
38.500000 50.628621
38.500000 50.920009
38.500000 51.212232
38.500000 51.505291
38.500000 51.799187
38.500000 52.093918
38.500000 52.389486
38.500000 52.685890
38.500000 52.983130
38.500000 53.281206
38.500000 53.580118
38.500000 53.879867
38.500000 54.180451
38.500000 54.481872
38.500000 54.784128
38.500000 55.087221
38.500000 55.391150
38.500000 55.695915
38.500000 56.001516
38.500000 56.307953
38.500000 56.615227
38.500000 56.923336
38.500000 57.232282
38.500000 57.542064
38.500000 57.852682
38.500000 58.164136
38.500000 58.476426
38.500000 58.789552
38.500000 59.103514
38.500000 59.418313
38.500000 59.733947
38.500000 60.050418
38.500000 60.367725
38.500000 60.685868
38.500000 61.004847
38.500000 61.324662
38.500000 61.645313
38.500000 61.966801
38.500000 62.289124
38.500000 62.612284
38.500000 62.936279
38.500000 63.261111
38.500000 63.586779
38.500000 63.913283
38.500000 64.240624
38.500000 64.568800
38.500000 64.897812
38.500000 65.227661
38.500000 65.558346
38.500000 65.889867
38.500000 66.222223
38.500000 66.555417
38.500000 66.889446
38.500000 67.224311
38.500000 67.560012
38.500000 67.896550
38.500000 68.233924
38.500000 68.572133
38.500000 68.911179
38.500000 69.251061
38.500000 69.591779
38.500000 69.933334
38.500000 70.275724
38.500000 70.618950
38.500000 70.963013
38.500000 71.307912
38.500000 71.653646
38.500000 72.000217
38.500000 72.347624
38.500000 72.695868
38.500000 73.044947
38.500000 73.394862
38.500000 73.745614
38.500000 74.097202
38.500000 74.449625
38.500000 74.802885
38.500000 75.156981
38.500000 75.511913
38.500000 75.867682
38.500000 76.224286
38.500000 76.581726
38.500000 76.940003
38.500000 77.299116
38.500000 77.659064
38.500000 78.019849
38.500000 78.381471
38.500000 78.743928
38.500000 79.107221
38.500000 79.471350
38.500000 79.836316
38.500000 80.202118
38.500000 80.568755
38.500000 80.936229
38.500000 81.304539
38.500000 81.673685
38.500000 82.043668
38.500000 82.414486
38.500000 82.786141
38.500000 83.158631
38.500000 83.531958
38.500000 83.906121
38.500000 84.281120
38.500000 84.656955
38.500000 85.033626
38.500000 85.411133
38.500000 85.789477
38.500000 86.168656
38.500000 86.548672
38.500000 86.929524
38.500000 87.311212
38.500000 87.693736
38.500000 88.077096
38.500000 88.461292
38.500000 88.846324
38.500000 89.232193
38.500000 89.618897
38.500000 90.006438
38.500000 90.394815
38.500000 90.784028
38.500000 91.174077
38.500000 91.564962
38.500000 91.956684
38.500000 92.349241
38.500000 92.742634
38.500000 93.136864
38.500000 93.531930
38.500000 93.927832
38.500000 94.324570
38.500000 94.722144
38.500000 95.120554
38.500000 95.519801
38.500000 95.919883
38.500000 96.320802
38.500000 96.722557
38.500000 97.125147
38.500000 97.528574
38.500000 97.932837
38.500000 98.337937
38.500000 98.743872
38.500000 99.150643
38.500000 99.558251
38.500000 99.966695
38.500000 100.375974
38.500000 100.786090
38.500000 101.197042
38.500000 101.608831
38.500000 102.021455
38.500000 102.434915
38.500000 102.849212
38.500000 103.264344
38.500000 103.680313
38.500000 104.097118
38.500000 104.514759
38.500000 104.933236
38.500000 105.352549
38.500000 105.772699
38.500000 106.193684
38.500000 106.615506
38.500000 107.038163
38.500000 107.461657
38.500000 107.885987
38.500000 108.311153
38.500000 108.737155
38.500000 109.163993
38.500000 109.591668
38.500000 110.020178
38.500000 110.449525
38.500000 110.879708
38.500000 111.310727
38.500000 111.742582
38.500000 112.175273
38.500000 112.608800
38.500000 113.043163
38.500000 113.478363
38.500000 113.914398
38.500000 114.351270
38.500000 114.788978
38.500000 115.227522
38.500000 115.666902
38.500000 116.107118
38.500000 116.548170
38.500000 116.990059
38.500000 117.432783
38.500000 117.876344
38.500000 118.320740
38.500000 118.765973
38.500000 119.212042
38.500000 119.658947
38.500000 120.106689
38.500000 120.555266
38.500000 121.004679
38.500000 121.454929
38.500000 121.906015
38.500000 122.357937
38.500000 122.810695
38.500000 123.264289
38.500000 123.718719
38.500000 124.173985
38.500000 124.630087
38.500000 125.087026
38.500000 125.544801
38.500000 126.003411
38.500000 126.462858
38.500000 126.923141
38.500000 127.384260
38.500000 127.846216
38.500000 128.309007
38.500000 128.772634
38.500000 129.237098
38.500000 129.702398
38.500000 130.168534
38.500000 130.635505
38.500000 131.103314
38.500000 131.571958
38.500000 132.041438
38.500000 132.511754
38.500000 132.982907
38.500000 133.454896
38.500000 133.927720
38.500000 134.401381
38.500000 134.875878
38.500000 135.351211
38.500000 135.827381
38.500000 136.304386
38.500000 136.782227
38.500000 137.260905
38.500000 137.740419
38.500000 138.220769
38.500000 138.701955
38.500000 139.183977
38.500000 139.666835
38.500000 140.150529
38.500000 140.635060
38.500000 141.120426
38.500000 141.606629
38.500000 142.093668
38.500000 142.581542
38.500000 143.070253
38.500000 143.559801
38.500000 144.050184
38.500000 144.541403
38.500000 145.033459
38.500000 145.526350
38.500000 146.020078
38.500000 146.514642
38.500000 147.010042
38.500000 147.506278
38.500000 148.003350
38.500000 148.501258
38.500000 149.000003
38.500000 149.499583
38.500000 150.000000
</POINTS>
</NEKTAR>

