<?xml version="1.0" encoding="utf-8" ?>
<NEKTAR>
<POINTS DIM="2" FIELDS="">
639.500000 0.000000
639.500000 0.000418
639.500000 0.001672
639.500000 0.003763
639.500000 0.006689
639.500000 0.010451
639.500000 0.015050
639.500000 0.020485
639.500000 0.026756
639.500000 0.033863
639.500000 0.041806
639.500000 0.050585
639.500000 0.060201
639.500000 0.070652
639.500000 0.081940
639.500000 0.094063
639.500000 0.107023
639.500000 0.120819
639.500000 0.135451
639.500000 0.150919
639.500000 0.167224
639.500000 0.184364
639.500000 0.202341
639.500000 0.221153
639.500000 0.240802
639.500000 0.261287
639.500000 0.282608
639.500000 0.304765
639.500000 0.327758
639.500000 0.351588
639.500000 0.376253
639.500000 0.401755
639.500000 0.428092
639.500000 0.455266
639.500000 0.483276
639.500000 0.512122
639.500000 0.541805
639.500000 0.572323
639.500000 0.603677
639.500000 0.635868
639.500000 0.668894
639.500000 0.702757
639.500000 0.737456
639.500000 0.772991
639.500000 0.809362
639.500000 0.846570
639.500000 0.884613
639.500000 0.923492
639.500000 0.963208
639.500000 1.003760
639.500000 1.045148
639.500000 1.087372
639.500000 1.130432
639.500000 1.174328
639.500000 1.219060
639.500000 1.264629
639.500000 1.311033
639.500000 1.358274
639.500000 1.406351
639.500000 1.455264
639.500000 1.505013
639.500000 1.555598
639.500000 1.607019
639.500000 1.659276
639.500000 1.712370
639.500000 1.766299
639.500000 1.821065
639.500000 1.876667
639.500000 1.933105
639.500000 1.990379
639.500000 2.048489
639.500000 2.107436
639.500000 2.167218
639.500000 2.227837
639.500000 2.289291
639.500000 2.351582
639.500000 2.414709
639.500000 2.478672
639.500000 2.543471
639.500000 2.609106
639.500000 2.675578
639.500000 2.742885
639.500000 2.811029
639.500000 2.880009
639.500000 2.949825
639.500000 3.020477
639.500000 3.091965
639.500000 3.164289
639.500000 3.237449
639.500000 3.311446
639.500000 3.386278
639.500000 3.461947
639.500000 3.538452
639.500000 3.615793
639.500000 3.693970
639.500000 3.772983
639.500000 3.852832
639.500000 3.933517
639.500000 4.015039
639.500000 4.097397
639.500000 4.180590
639.500000 4.264620
639.500000 4.349486
639.500000 4.435188
639.500000 4.521727
639.500000 4.609101
639.500000 4.697311
639.500000 4.786358
639.500000 4.876241
639.500000 4.966959
639.500000 5.058514
639.500000 5.150905
639.500000 5.244133
639.500000 5.338196
639.500000 5.433095
639.500000 5.528831
639.500000 5.625402
639.500000 5.722810
639.500000 5.821054
639.500000 5.920134
639.500000 6.020050
639.500000 6.120802
639.500000 6.222391
639.500000 6.324815
639.500000 6.428076
639.500000 6.532172
639.500000 6.637105
639.500000 6.742874
639.500000 6.849479
639.500000 6.956920
639.500000 7.065198
639.500000 7.174311
639.500000 7.284261
639.500000 7.395046
639.500000 7.506668
639.500000 7.619126
639.500000 7.732420
639.500000 7.846550
639.500000 7.961516
639.500000 8.077319
639.500000 8.193957
639.500000 8.311432
639.500000 8.429742
639.500000 8.548889
639.500000 8.668872
639.500000 8.789691
639.500000 8.911346
639.500000 9.033838
639.500000 9.157165
639.500000 9.281329
639.500000 9.406328
639.500000 9.532164
639.500000 9.658836
639.500000 9.786344
639.500000 9.914688
639.500000 10.043868
639.500000 10.173885
639.500000 10.304737
639.500000 10.436426
639.500000 10.568950
639.500000 10.702311
639.500000 10.836508
639.500000 10.971541
639.500000 11.107411
639.500000 11.244116
639.500000 11.381657
639.500000 11.520035
639.500000 11.659248
639.500000 11.799298
639.500000 11.940184
639.500000 12.081906
639.500000 12.224464
639.500000 12.367859
639.500000 12.512089
639.500000 12.657155
639.500000 12.803058
639.500000 12.949797
639.500000 13.097372
639.500000 13.245782
639.500000 13.395030
639.500000 13.545113
639.500000 13.696032
639.500000 13.847787
639.500000 14.000379
639.500000 14.153807
639.500000 14.308070
639.500000 14.463170
639.500000 14.619106
639.500000 14.775879
639.500000 14.933487
639.500000 15.091931
639.500000 15.251212
639.500000 15.411328
639.500000 15.572281
639.500000 15.734070
639.500000 15.896695
639.500000 16.060156
639.500000 16.224453
639.500000 16.389586
639.500000 16.555556
639.500000 16.722361
639.500000 16.890003
639.500000 17.058481
639.500000 17.227795
639.500000 17.397945
639.500000 17.568931
639.500000 17.740753
639.500000 17.913412
639.500000 18.086906
639.500000 18.261237
639.500000 18.436403
639.500000 18.612406
639.500000 18.789245
639.500000 18.966920
639.500000 19.145432
639.500000 19.324779
639.500000 19.504962
639.500000 19.685982
639.500000 19.867838
639.500000 20.050529
639.500000 20.234057
639.500000 20.418421
639.500000 20.603622
639.500000 20.789658
639.500000 20.976530
639.500000 21.164239
639.500000 21.352783
639.500000 21.542164
639.500000 21.732381
639.500000 21.923434
639.500000 22.115323
639.500000 22.308048
639.500000 22.501610
639.500000 22.696007
639.500000 22.891241
639.500000 23.087310
639.500000 23.284216
639.500000 23.481958
639.500000 23.680536
639.500000 23.879950
639.500000 24.080200
639.500000 24.281287
639.500000 24.483209
639.500000 24.685968
639.500000 24.889563
639.500000 25.093994
639.500000 25.299261
639.500000 25.505364
639.500000 25.712303
639.500000 25.920078
639.500000 26.128690
639.500000 26.338137
639.500000 26.548421
639.500000 26.759541
639.500000 26.971497
639.500000 27.184289
639.500000 27.397917
639.500000 27.612381
639.500000 27.827682
639.500000 28.043818
639.500000 28.260791
639.500000 28.478600
639.500000 28.697244
639.500000 28.916725
639.500000 29.137043
639.500000 29.358196
639.500000 29.580185
639.500000 29.803011
639.500000 30.026672
639.500000 30.251170
639.500000 30.476504
639.500000 30.702674
639.500000 30.929680
639.500000 31.157522
639.500000 31.386200
639.500000 31.615715
639.500000 31.846065
639.500000 32.077252
639.500000 32.309275
639.500000 32.542133
639.500000 32.775828
639.500000 33.010360
639.500000 33.245727
639.500000 33.481930
639.500000 33.718970
639.500000 33.956845
639.500000 34.195557
639.500000 34.435105
639.500000 34.675489
639.500000 34.916709
639.500000 35.158765
639.500000 35.401657
639.500000 35.645386
639.500000 35.889950
639.500000 36.135351
639.500000 36.381588
639.500000 36.628660
639.500000 36.876569
639.500000 37.125315
639.500000 37.374896
639.500000 37.625313
639.500000 37.876567
639.500000 38.128656
639.500000 38.381582
639.500000 38.635344
639.500000 38.889942
639.500000 39.145376
639.500000 39.401646
639.500000 39.658752
639.500000 39.916695
639.500000 40.175473
639.500000 40.435088
639.500000 40.695539
639.500000 40.956826
639.500000 41.218949
639.500000 41.481908
639.500000 41.745703
639.500000 42.010334
639.500000 42.275802
639.500000 42.542106
639.500000 42.809245
639.500000 43.077221
639.500000 43.346033
639.500000 43.615681
639.500000 43.886165
639.500000 44.157486
639.500000 44.429642
639.500000 44.702635
639.500000 44.976463
639.500000 45.251128
639.500000 45.526629
639.500000 45.802966
639.500000 46.080139
639.500000 46.358148
639.500000 46.636994
639.500000 46.916675
639.500000 47.197193
639.500000 47.478547
639.500000 47.760736
639.500000 48.043762
639.500000 48.327625
639.500000 48.612323
639.500000 48.897857
639.500000 49.184227
639.500000 49.471434
639.500000 49.759477
639.500000 50.048355
639.500000 50.338070
639.500000 50.628621
639.500000 50.920009
639.500000 51.212232
639.500000 51.505291
639.500000 51.799187
639.500000 52.093918
639.500000 52.389486
639.500000 52.685890
639.500000 52.983130
639.500000 53.281206
639.500000 53.580118
639.500000 53.879867
639.500000 54.180451
639.500000 54.481872
639.500000 54.784128
639.500000 55.087221
639.500000 55.391150
639.500000 55.695915
639.500000 56.001516
639.500000 56.307953
639.500000 56.615227
639.500000 56.923336
639.500000 57.232282
639.500000 57.542064
639.500000 57.852682
639.500000 58.164136
639.500000 58.476426
639.500000 58.789552
639.500000 59.103514
639.500000 59.418313
639.500000 59.733947
639.500000 60.050418
639.500000 60.367725
639.500000 60.685868
639.500000 61.004847
639.500000 61.324662
639.500000 61.645313
639.500000 61.966801
639.500000 62.289124
639.500000 62.612284
639.500000 62.936279
639.500000 63.261111
639.500000 63.586779
639.500000 63.913283
639.500000 64.240624
639.500000 64.568800
639.500000 64.897812
639.500000 65.227661
639.500000 65.558346
639.500000 65.889867
639.500000 66.222223
639.500000 66.555417
639.500000 66.889446
639.500000 67.224311
639.500000 67.560012
639.500000 67.896550
639.500000 68.233924
639.500000 68.572133
639.500000 68.911179
639.500000 69.251061
639.500000 69.591779
639.500000 69.933334
639.500000 70.275724
639.500000 70.618950
639.500000 70.963013
639.500000 71.307912
639.500000 71.653646
639.500000 72.000217
639.500000 72.347624
639.500000 72.695868
639.500000 73.044947
639.500000 73.394862
639.500000 73.745614
639.500000 74.097202
639.500000 74.449625
639.500000 74.802885
639.500000 75.156981
639.500000 75.511913
639.500000 75.867682
639.500000 76.224286
639.500000 76.581726
639.500000 76.940003
639.500000 77.299116
639.500000 77.659064
639.500000 78.019849
639.500000 78.381471
639.500000 78.743928
639.500000 79.107221
639.500000 79.471350
639.500000 79.836316
639.500000 80.202118
639.500000 80.568755
639.500000 80.936229
639.500000 81.304539
639.500000 81.673685
639.500000 82.043668
639.500000 82.414486
639.500000 82.786141
639.500000 83.158631
639.500000 83.531958
639.500000 83.906121
639.500000 84.281120
639.500000 84.656955
639.500000 85.033626
639.500000 85.411133
639.500000 85.789477
639.500000 86.168656
639.500000 86.548672
639.500000 86.929524
639.500000 87.311212
639.500000 87.693736
639.500000 88.077096
639.500000 88.461292
639.500000 88.846324
639.500000 89.232193
639.500000 89.618897
639.500000 90.006438
639.500000 90.394815
639.500000 90.784028
639.500000 91.174077
639.500000 91.564962
639.500000 91.956684
639.500000 92.349241
639.500000 92.742634
639.500000 93.136864
639.500000 93.531930
639.500000 93.927832
639.500000 94.324570
639.500000 94.722144
639.500000 95.120554
639.500000 95.519801
639.500000 95.919883
639.500000 96.320802
639.500000 96.722557
639.500000 97.125147
639.500000 97.528574
639.500000 97.932837
639.500000 98.337937
639.500000 98.743872
639.500000 99.150643
639.500000 99.558251
639.500000 99.966695
639.500000 100.375974
639.500000 100.786090
639.500000 101.197042
639.500000 101.608831
639.500000 102.021455
639.500000 102.434915
639.500000 102.849212
639.500000 103.264344
639.500000 103.680313
639.500000 104.097118
639.500000 104.514759
639.500000 104.933236
639.500000 105.352549
639.500000 105.772699
639.500000 106.193684
639.500000 106.615506
639.500000 107.038163
639.500000 107.461657
639.500000 107.885987
639.500000 108.311153
639.500000 108.737155
639.500000 109.163993
639.500000 109.591668
639.500000 110.020178
639.500000 110.449525
639.500000 110.879708
639.500000 111.310727
639.500000 111.742582
639.500000 112.175273
639.500000 112.608800
639.500000 113.043163
639.500000 113.478363
639.500000 113.914398
639.500000 114.351270
639.500000 114.788978
639.500000 115.227522
639.500000 115.666902
639.500000 116.107118
639.500000 116.548170
639.500000 116.990059
639.500000 117.432783
639.500000 117.876344
639.500000 118.320740
639.500000 118.765973
639.500000 119.212042
639.500000 119.658947
639.500000 120.106689
639.500000 120.555266
639.500000 121.004679
639.500000 121.454929
639.500000 121.906015
639.500000 122.357937
639.500000 122.810695
639.500000 123.264289
639.500000 123.718719
639.500000 124.173985
639.500000 124.630087
639.500000 125.087026
639.500000 125.544801
639.500000 126.003411
639.500000 126.462858
639.500000 126.923141
639.500000 127.384260
639.500000 127.846216
639.500000 128.309007
639.500000 128.772634
639.500000 129.237098
639.500000 129.702398
639.500000 130.168534
639.500000 130.635505
639.500000 131.103314
639.500000 131.571958
639.500000 132.041438
639.500000 132.511754
639.500000 132.982907
639.500000 133.454896
639.500000 133.927720
639.500000 134.401381
639.500000 134.875878
639.500000 135.351211
639.500000 135.827381
639.500000 136.304386
639.500000 136.782227
639.500000 137.260905
639.500000 137.740419
639.500000 138.220769
639.500000 138.701955
639.500000 139.183977
639.500000 139.666835
639.500000 140.150529
639.500000 140.635060
639.500000 141.120426
639.500000 141.606629
639.500000 142.093668
639.500000 142.581542
639.500000 143.070253
639.500000 143.559801
639.500000 144.050184
639.500000 144.541403
639.500000 145.033459
639.500000 145.526350
639.500000 146.020078
639.500000 146.514642
639.500000 147.010042
639.500000 147.506278
639.500000 148.003350
639.500000 148.501258
639.500000 149.000003
639.500000 149.499583
639.500000 150.000000
</POINTS>
</NEKTAR>

