<?xml version="1.0" encoding="utf-8" ?>
<NEKTAR>
<POINTS DIM="2" FIELDS="">
739.500000 0.000000
739.500000 0.000418
739.500000 0.001672
739.500000 0.003763
739.500000 0.006689
739.500000 0.010451
739.500000 0.015050
739.500000 0.020485
739.500000 0.026756
739.500000 0.033863
739.500000 0.041806
739.500000 0.050585
739.500000 0.060201
739.500000 0.070652
739.500000 0.081940
739.500000 0.094063
739.500000 0.107023
739.500000 0.120819
739.500000 0.135451
739.500000 0.150919
739.500000 0.167224
739.500000 0.184364
739.500000 0.202341
739.500000 0.221153
739.500000 0.240802
739.500000 0.261287
739.500000 0.282608
739.500000 0.304765
739.500000 0.327758
739.500000 0.351588
739.500000 0.376253
739.500000 0.401755
739.500000 0.428092
739.500000 0.455266
739.500000 0.483276
739.500000 0.512122
739.500000 0.541805
739.500000 0.572323
739.500000 0.603677
739.500000 0.635868
739.500000 0.668894
739.500000 0.702757
739.500000 0.737456
739.500000 0.772991
739.500000 0.809362
739.500000 0.846570
739.500000 0.884613
739.500000 0.923492
739.500000 0.963208
739.500000 1.003760
739.500000 1.045148
739.500000 1.087372
739.500000 1.130432
739.500000 1.174328
739.500000 1.219060
739.500000 1.264629
739.500000 1.311033
739.500000 1.358274
739.500000 1.406351
739.500000 1.455264
739.500000 1.505013
739.500000 1.555598
739.500000 1.607019
739.500000 1.659276
739.500000 1.712370
739.500000 1.766299
739.500000 1.821065
739.500000 1.876667
739.500000 1.933105
739.500000 1.990379
739.500000 2.048489
739.500000 2.107436
739.500000 2.167218
739.500000 2.227837
739.500000 2.289291
739.500000 2.351582
739.500000 2.414709
739.500000 2.478672
739.500000 2.543471
739.500000 2.609106
739.500000 2.675578
739.500000 2.742885
739.500000 2.811029
739.500000 2.880009
739.500000 2.949825
739.500000 3.020477
739.500000 3.091965
739.500000 3.164289
739.500000 3.237449
739.500000 3.311446
739.500000 3.386278
739.500000 3.461947
739.500000 3.538452
739.500000 3.615793
739.500000 3.693970
739.500000 3.772983
739.500000 3.852832
739.500000 3.933517
739.500000 4.015039
739.500000 4.097397
739.500000 4.180590
739.500000 4.264620
739.500000 4.349486
739.500000 4.435188
739.500000 4.521727
739.500000 4.609101
739.500000 4.697311
739.500000 4.786358
739.500000 4.876241
739.500000 4.966959
739.500000 5.058514
739.500000 5.150905
739.500000 5.244133
739.500000 5.338196
739.500000 5.433095
739.500000 5.528831
739.500000 5.625402
739.500000 5.722810
739.500000 5.821054
739.500000 5.920134
739.500000 6.020050
739.500000 6.120802
739.500000 6.222391
739.500000 6.324815
739.500000 6.428076
739.500000 6.532172
739.500000 6.637105
739.500000 6.742874
739.500000 6.849479
739.500000 6.956920
739.500000 7.065198
739.500000 7.174311
739.500000 7.284261
739.500000 7.395046
739.500000 7.506668
739.500000 7.619126
739.500000 7.732420
739.500000 7.846550
739.500000 7.961516
739.500000 8.077319
739.500000 8.193957
739.500000 8.311432
739.500000 8.429742
739.500000 8.548889
739.500000 8.668872
739.500000 8.789691
739.500000 8.911346
739.500000 9.033838
739.500000 9.157165
739.500000 9.281329
739.500000 9.406328
739.500000 9.532164
739.500000 9.658836
739.500000 9.786344
739.500000 9.914688
739.500000 10.043868
739.500000 10.173885
739.500000 10.304737
739.500000 10.436426
739.500000 10.568950
739.500000 10.702311
739.500000 10.836508
739.500000 10.971541
739.500000 11.107411
739.500000 11.244116
739.500000 11.381657
739.500000 11.520035
739.500000 11.659248
739.500000 11.799298
739.500000 11.940184
739.500000 12.081906
739.500000 12.224464
739.500000 12.367859
739.500000 12.512089
739.500000 12.657155
739.500000 12.803058
739.500000 12.949797
739.500000 13.097372
739.500000 13.245782
739.500000 13.395030
739.500000 13.545113
739.500000 13.696032
739.500000 13.847787
739.500000 14.000379
739.500000 14.153807
739.500000 14.308070
739.500000 14.463170
739.500000 14.619106
739.500000 14.775879
739.500000 14.933487
739.500000 15.091931
739.500000 15.251212
739.500000 15.411328
739.500000 15.572281
739.500000 15.734070
739.500000 15.896695
739.500000 16.060156
739.500000 16.224453
739.500000 16.389586
739.500000 16.555556
739.500000 16.722361
739.500000 16.890003
739.500000 17.058481
739.500000 17.227795
739.500000 17.397945
739.500000 17.568931
739.500000 17.740753
739.500000 17.913412
739.500000 18.086906
739.500000 18.261237
739.500000 18.436403
739.500000 18.612406
739.500000 18.789245
739.500000 18.966920
739.500000 19.145432
739.500000 19.324779
739.500000 19.504962
739.500000 19.685982
739.500000 19.867838
739.500000 20.050529
739.500000 20.234057
739.500000 20.418421
739.500000 20.603622
739.500000 20.789658
739.500000 20.976530
739.500000 21.164239
739.500000 21.352783
739.500000 21.542164
739.500000 21.732381
739.500000 21.923434
739.500000 22.115323
739.500000 22.308048
739.500000 22.501610
739.500000 22.696007
739.500000 22.891241
739.500000 23.087310
739.500000 23.284216
739.500000 23.481958
739.500000 23.680536
739.500000 23.879950
739.500000 24.080200
739.500000 24.281287
739.500000 24.483209
739.500000 24.685968
739.500000 24.889563
739.500000 25.093994
739.500000 25.299261
739.500000 25.505364
739.500000 25.712303
739.500000 25.920078
739.500000 26.128690
739.500000 26.338137
739.500000 26.548421
739.500000 26.759541
739.500000 26.971497
739.500000 27.184289
739.500000 27.397917
739.500000 27.612381
739.500000 27.827682
739.500000 28.043818
739.500000 28.260791
739.500000 28.478600
739.500000 28.697244
739.500000 28.916725
739.500000 29.137043
739.500000 29.358196
739.500000 29.580185
739.500000 29.803011
739.500000 30.026672
739.500000 30.251170
739.500000 30.476504
739.500000 30.702674
739.500000 30.929680
739.500000 31.157522
739.500000 31.386200
739.500000 31.615715
739.500000 31.846065
739.500000 32.077252
739.500000 32.309275
739.500000 32.542133
739.500000 32.775828
739.500000 33.010360
739.500000 33.245727
739.500000 33.481930
739.500000 33.718970
739.500000 33.956845
739.500000 34.195557
739.500000 34.435105
739.500000 34.675489
739.500000 34.916709
739.500000 35.158765
739.500000 35.401657
739.500000 35.645386
739.500000 35.889950
739.500000 36.135351
739.500000 36.381588
739.500000 36.628660
739.500000 36.876569
739.500000 37.125315
739.500000 37.374896
739.500000 37.625313
739.500000 37.876567
739.500000 38.128656
739.500000 38.381582
739.500000 38.635344
739.500000 38.889942
739.500000 39.145376
739.500000 39.401646
739.500000 39.658752
739.500000 39.916695
739.500000 40.175473
739.500000 40.435088
739.500000 40.695539
739.500000 40.956826
739.500000 41.218949
739.500000 41.481908
739.500000 41.745703
739.500000 42.010334
739.500000 42.275802
739.500000 42.542106
739.500000 42.809245
739.500000 43.077221
739.500000 43.346033
739.500000 43.615681
739.500000 43.886165
739.500000 44.157486
739.500000 44.429642
739.500000 44.702635
739.500000 44.976463
739.500000 45.251128
739.500000 45.526629
739.500000 45.802966
739.500000 46.080139
739.500000 46.358148
739.500000 46.636994
739.500000 46.916675
739.500000 47.197193
739.500000 47.478547
739.500000 47.760736
739.500000 48.043762
739.500000 48.327625
739.500000 48.612323
739.500000 48.897857
739.500000 49.184227
739.500000 49.471434
739.500000 49.759477
739.500000 50.048355
739.500000 50.338070
739.500000 50.628621
739.500000 50.920009
739.500000 51.212232
739.500000 51.505291
739.500000 51.799187
739.500000 52.093918
739.500000 52.389486
739.500000 52.685890
739.500000 52.983130
739.500000 53.281206
739.500000 53.580118
739.500000 53.879867
739.500000 54.180451
739.500000 54.481872
739.500000 54.784128
739.500000 55.087221
739.500000 55.391150
739.500000 55.695915
739.500000 56.001516
739.500000 56.307953
739.500000 56.615227
739.500000 56.923336
739.500000 57.232282
739.500000 57.542064
739.500000 57.852682
739.500000 58.164136
739.500000 58.476426
739.500000 58.789552
739.500000 59.103514
739.500000 59.418313
739.500000 59.733947
739.500000 60.050418
739.500000 60.367725
739.500000 60.685868
739.500000 61.004847
739.500000 61.324662
739.500000 61.645313
739.500000 61.966801
739.500000 62.289124
739.500000 62.612284
739.500000 62.936279
739.500000 63.261111
739.500000 63.586779
739.500000 63.913283
739.500000 64.240624
739.500000 64.568800
739.500000 64.897812
739.500000 65.227661
739.500000 65.558346
739.500000 65.889867
739.500000 66.222223
739.500000 66.555417
739.500000 66.889446
739.500000 67.224311
739.500000 67.560012
739.500000 67.896550
739.500000 68.233924
739.500000 68.572133
739.500000 68.911179
739.500000 69.251061
739.500000 69.591779
739.500000 69.933334
739.500000 70.275724
739.500000 70.618950
739.500000 70.963013
739.500000 71.307912
739.500000 71.653646
739.500000 72.000217
739.500000 72.347624
739.500000 72.695868
739.500000 73.044947
739.500000 73.394862
739.500000 73.745614
739.500000 74.097202
739.500000 74.449625
739.500000 74.802885
739.500000 75.156981
739.500000 75.511913
739.500000 75.867682
739.500000 76.224286
739.500000 76.581726
739.500000 76.940003
739.500000 77.299116
739.500000 77.659064
739.500000 78.019849
739.500000 78.381471
739.500000 78.743928
739.500000 79.107221
739.500000 79.471350
739.500000 79.836316
739.500000 80.202118
739.500000 80.568755
739.500000 80.936229
739.500000 81.304539
739.500000 81.673685
739.500000 82.043668
739.500000 82.414486
739.500000 82.786141
739.500000 83.158631
739.500000 83.531958
739.500000 83.906121
739.500000 84.281120
739.500000 84.656955
739.500000 85.033626
739.500000 85.411133
739.500000 85.789477
739.500000 86.168656
739.500000 86.548672
739.500000 86.929524
739.500000 87.311212
739.500000 87.693736
739.500000 88.077096
739.500000 88.461292
739.500000 88.846324
739.500000 89.232193
739.500000 89.618897
739.500000 90.006438
739.500000 90.394815
739.500000 90.784028
739.500000 91.174077
739.500000 91.564962
739.500000 91.956684
739.500000 92.349241
739.500000 92.742634
739.500000 93.136864
739.500000 93.531930
739.500000 93.927832
739.500000 94.324570
739.500000 94.722144
739.500000 95.120554
739.500000 95.519801
739.500000 95.919883
739.500000 96.320802
739.500000 96.722557
739.500000 97.125147
739.500000 97.528574
739.500000 97.932837
739.500000 98.337937
739.500000 98.743872
739.500000 99.150643
739.500000 99.558251
739.500000 99.966695
739.500000 100.375974
739.500000 100.786090
739.500000 101.197042
739.500000 101.608831
739.500000 102.021455
739.500000 102.434915
739.500000 102.849212
739.500000 103.264344
739.500000 103.680313
739.500000 104.097118
739.500000 104.514759
739.500000 104.933236
739.500000 105.352549
739.500000 105.772699
739.500000 106.193684
739.500000 106.615506
739.500000 107.038163
739.500000 107.461657
739.500000 107.885987
739.500000 108.311153
739.500000 108.737155
739.500000 109.163993
739.500000 109.591668
739.500000 110.020178
739.500000 110.449525
739.500000 110.879708
739.500000 111.310727
739.500000 111.742582
739.500000 112.175273
739.500000 112.608800
739.500000 113.043163
739.500000 113.478363
739.500000 113.914398
739.500000 114.351270
739.500000 114.788978
739.500000 115.227522
739.500000 115.666902
739.500000 116.107118
739.500000 116.548170
739.500000 116.990059
739.500000 117.432783
739.500000 117.876344
739.500000 118.320740
739.500000 118.765973
739.500000 119.212042
739.500000 119.658947
739.500000 120.106689
739.500000 120.555266
739.500000 121.004679
739.500000 121.454929
739.500000 121.906015
739.500000 122.357937
739.500000 122.810695
739.500000 123.264289
739.500000 123.718719
739.500000 124.173985
739.500000 124.630087
739.500000 125.087026
739.500000 125.544801
739.500000 126.003411
739.500000 126.462858
739.500000 126.923141
739.500000 127.384260
739.500000 127.846216
739.500000 128.309007
739.500000 128.772634
739.500000 129.237098
739.500000 129.702398
739.500000 130.168534
739.500000 130.635505
739.500000 131.103314
739.500000 131.571958
739.500000 132.041438
739.500000 132.511754
739.500000 132.982907
739.500000 133.454896
739.500000 133.927720
739.500000 134.401381
739.500000 134.875878
739.500000 135.351211
739.500000 135.827381
739.500000 136.304386
739.500000 136.782227
739.500000 137.260905
739.500000 137.740419
739.500000 138.220769
739.500000 138.701955
739.500000 139.183977
739.500000 139.666835
739.500000 140.150529
739.500000 140.635060
739.500000 141.120426
739.500000 141.606629
739.500000 142.093668
739.500000 142.581542
739.500000 143.070253
739.500000 143.559801
739.500000 144.050184
739.500000 144.541403
739.500000 145.033459
739.500000 145.526350
739.500000 146.020078
739.500000 146.514642
739.500000 147.010042
739.500000 147.506278
739.500000 148.003350
739.500000 148.501258
739.500000 149.000003
739.500000 149.499583
739.500000 150.000000
</POINTS>
</NEKTAR>

