<?xml version="1.0" encoding="utf-8" ?>
<NEKTAR>
<POINTS DIM="2" FIELDS="">
17.500000 0.000000
17.500000 0.000418
17.500000 0.001672
17.500000 0.003763
17.500000 0.006689
17.500000 0.010451
17.500000 0.015050
17.500000 0.020485
17.500000 0.026756
17.500000 0.033863
17.500000 0.041806
17.500000 0.050585
17.500000 0.060201
17.500000 0.070652
17.500000 0.081940
17.500000 0.094063
17.500000 0.107023
17.500000 0.120819
17.500000 0.135451
17.500000 0.150919
17.500000 0.167224
17.500000 0.184364
17.500000 0.202341
17.500000 0.221153
17.500000 0.240802
17.500000 0.261287
17.500000 0.282608
17.500000 0.304765
17.500000 0.327758
17.500000 0.351588
17.500000 0.376253
17.500000 0.401755
17.500000 0.428092
17.500000 0.455266
17.500000 0.483276
17.500000 0.512122
17.500000 0.541805
17.500000 0.572323
17.500000 0.603677
17.500000 0.635868
17.500000 0.668894
17.500000 0.702757
17.500000 0.737456
17.500000 0.772991
17.500000 0.809362
17.500000 0.846570
17.500000 0.884613
17.500000 0.923492
17.500000 0.963208
17.500000 1.003760
17.500000 1.045148
17.500000 1.087372
17.500000 1.130432
17.500000 1.174328
17.500000 1.219060
17.500000 1.264629
17.500000 1.311033
17.500000 1.358274
17.500000 1.406351
17.500000 1.455264
17.500000 1.505013
17.500000 1.555598
17.500000 1.607019
17.500000 1.659276
17.500000 1.712370
17.500000 1.766299
17.500000 1.821065
17.500000 1.876667
17.500000 1.933105
17.500000 1.990379
17.500000 2.048489
17.500000 2.107436
17.500000 2.167218
17.500000 2.227837
17.500000 2.289291
17.500000 2.351582
17.500000 2.414709
17.500000 2.478672
17.500000 2.543471
17.500000 2.609106
17.500000 2.675578
17.500000 2.742885
17.500000 2.811029
17.500000 2.880009
17.500000 2.949825
17.500000 3.020477
17.500000 3.091965
17.500000 3.164289
17.500000 3.237449
17.500000 3.311446
17.500000 3.386278
17.500000 3.461947
17.500000 3.538452
17.500000 3.615793
17.500000 3.693970
17.500000 3.772983
17.500000 3.852832
17.500000 3.933517
17.500000 4.015039
17.500000 4.097397
17.500000 4.180590
17.500000 4.264620
17.500000 4.349486
17.500000 4.435188
17.500000 4.521727
17.500000 4.609101
17.500000 4.697311
17.500000 4.786358
17.500000 4.876241
17.500000 4.966959
17.500000 5.058514
17.500000 5.150905
17.500000 5.244133
17.500000 5.338196
17.500000 5.433095
17.500000 5.528831
17.500000 5.625402
17.500000 5.722810
17.500000 5.821054
17.500000 5.920134
17.500000 6.020050
17.500000 6.120802
17.500000 6.222391
17.500000 6.324815
17.500000 6.428076
17.500000 6.532172
17.500000 6.637105
17.500000 6.742874
17.500000 6.849479
17.500000 6.956920
17.500000 7.065198
17.500000 7.174311
17.500000 7.284261
17.500000 7.395046
17.500000 7.506668
17.500000 7.619126
17.500000 7.732420
17.500000 7.846550
17.500000 7.961516
17.500000 8.077319
17.500000 8.193957
17.500000 8.311432
17.500000 8.429742
17.500000 8.548889
17.500000 8.668872
17.500000 8.789691
17.500000 8.911346
17.500000 9.033838
17.500000 9.157165
17.500000 9.281329
17.500000 9.406328
17.500000 9.532164
17.500000 9.658836
17.500000 9.786344
17.500000 9.914688
17.500000 10.043868
17.500000 10.173885
17.500000 10.304737
17.500000 10.436426
17.500000 10.568950
17.500000 10.702311
17.500000 10.836508
17.500000 10.971541
17.500000 11.107411
17.500000 11.244116
17.500000 11.381657
17.500000 11.520035
17.500000 11.659248
17.500000 11.799298
17.500000 11.940184
17.500000 12.081906
17.500000 12.224464
17.500000 12.367859
17.500000 12.512089
17.500000 12.657155
17.500000 12.803058
17.500000 12.949797
17.500000 13.097372
17.500000 13.245782
17.500000 13.395030
17.500000 13.545113
17.500000 13.696032
17.500000 13.847787
17.500000 14.000379
17.500000 14.153807
17.500000 14.308070
17.500000 14.463170
17.500000 14.619106
17.500000 14.775879
17.500000 14.933487
17.500000 15.091931
17.500000 15.251212
17.500000 15.411328
17.500000 15.572281
17.500000 15.734070
17.500000 15.896695
17.500000 16.060156
17.500000 16.224453
17.500000 16.389586
17.500000 16.555556
17.500000 16.722361
17.500000 16.890003
17.500000 17.058481
17.500000 17.227795
17.500000 17.397945
17.500000 17.568931
17.500000 17.740753
17.500000 17.913412
17.500000 18.086906
17.500000 18.261237
17.500000 18.436403
17.500000 18.612406
17.500000 18.789245
17.500000 18.966920
17.500000 19.145432
17.500000 19.324779
17.500000 19.504962
17.500000 19.685982
17.500000 19.867838
17.500000 20.050529
17.500000 20.234057
17.500000 20.418421
17.500000 20.603622
17.500000 20.789658
17.500000 20.976530
17.500000 21.164239
17.500000 21.352783
17.500000 21.542164
17.500000 21.732381
17.500000 21.923434
17.500000 22.115323
17.500000 22.308048
17.500000 22.501610
17.500000 22.696007
17.500000 22.891241
17.500000 23.087310
17.500000 23.284216
17.500000 23.481958
17.500000 23.680536
17.500000 23.879950
17.500000 24.080200
17.500000 24.281287
17.500000 24.483209
17.500000 24.685968
17.500000 24.889563
17.500000 25.093994
17.500000 25.299261
17.500000 25.505364
17.500000 25.712303
17.500000 25.920078
17.500000 26.128690
17.500000 26.338137
17.500000 26.548421
17.500000 26.759541
17.500000 26.971497
17.500000 27.184289
17.500000 27.397917
17.500000 27.612381
17.500000 27.827682
17.500000 28.043818
17.500000 28.260791
17.500000 28.478600
17.500000 28.697244
17.500000 28.916725
17.500000 29.137043
17.500000 29.358196
17.500000 29.580185
17.500000 29.803011
17.500000 30.026672
17.500000 30.251170
17.500000 30.476504
17.500000 30.702674
17.500000 30.929680
17.500000 31.157522
17.500000 31.386200
17.500000 31.615715
17.500000 31.846065
17.500000 32.077252
17.500000 32.309275
17.500000 32.542133
17.500000 32.775828
17.500000 33.010360
17.500000 33.245727
17.500000 33.481930
17.500000 33.718970
17.500000 33.956845
17.500000 34.195557
17.500000 34.435105
17.500000 34.675489
17.500000 34.916709
17.500000 35.158765
17.500000 35.401657
17.500000 35.645386
17.500000 35.889950
17.500000 36.135351
17.500000 36.381588
17.500000 36.628660
17.500000 36.876569
17.500000 37.125315
17.500000 37.374896
17.500000 37.625313
17.500000 37.876567
17.500000 38.128656
17.500000 38.381582
17.500000 38.635344
17.500000 38.889942
17.500000 39.145376
17.500000 39.401646
17.500000 39.658752
17.500000 39.916695
17.500000 40.175473
17.500000 40.435088
17.500000 40.695539
17.500000 40.956826
17.500000 41.218949
17.500000 41.481908
17.500000 41.745703
17.500000 42.010334
17.500000 42.275802
17.500000 42.542106
17.500000 42.809245
17.500000 43.077221
17.500000 43.346033
17.500000 43.615681
17.500000 43.886165
17.500000 44.157486
17.500000 44.429642
17.500000 44.702635
17.500000 44.976463
17.500000 45.251128
17.500000 45.526629
17.500000 45.802966
17.500000 46.080139
17.500000 46.358148
17.500000 46.636994
17.500000 46.916675
17.500000 47.197193
17.500000 47.478547
17.500000 47.760736
17.500000 48.043762
17.500000 48.327625
17.500000 48.612323
17.500000 48.897857
17.500000 49.184227
17.500000 49.471434
17.500000 49.759477
17.500000 50.048355
17.500000 50.338070
17.500000 50.628621
17.500000 50.920009
17.500000 51.212232
17.500000 51.505291
17.500000 51.799187
17.500000 52.093918
17.500000 52.389486
17.500000 52.685890
17.500000 52.983130
17.500000 53.281206
17.500000 53.580118
17.500000 53.879867
17.500000 54.180451
17.500000 54.481872
17.500000 54.784128
17.500000 55.087221
17.500000 55.391150
17.500000 55.695915
17.500000 56.001516
17.500000 56.307953
17.500000 56.615227
17.500000 56.923336
17.500000 57.232282
17.500000 57.542064
17.500000 57.852682
17.500000 58.164136
17.500000 58.476426
17.500000 58.789552
17.500000 59.103514
17.500000 59.418313
17.500000 59.733947
17.500000 60.050418
17.500000 60.367725
17.500000 60.685868
17.500000 61.004847
17.500000 61.324662
17.500000 61.645313
17.500000 61.966801
17.500000 62.289124
17.500000 62.612284
17.500000 62.936279
17.500000 63.261111
17.500000 63.586779
17.500000 63.913283
17.500000 64.240624
17.500000 64.568800
17.500000 64.897812
17.500000 65.227661
17.500000 65.558346
17.500000 65.889867
17.500000 66.222223
17.500000 66.555417
17.500000 66.889446
17.500000 67.224311
17.500000 67.560012
17.500000 67.896550
17.500000 68.233924
17.500000 68.572133
17.500000 68.911179
17.500000 69.251061
17.500000 69.591779
17.500000 69.933334
17.500000 70.275724
17.500000 70.618950
17.500000 70.963013
17.500000 71.307912
17.500000 71.653646
17.500000 72.000217
17.500000 72.347624
17.500000 72.695868
17.500000 73.044947
17.500000 73.394862
17.500000 73.745614
17.500000 74.097202
17.500000 74.449625
17.500000 74.802885
17.500000 75.156981
17.500000 75.511913
17.500000 75.867682
17.500000 76.224286
17.500000 76.581726
17.500000 76.940003
17.500000 77.299116
17.500000 77.659064
17.500000 78.019849
17.500000 78.381471
17.500000 78.743928
17.500000 79.107221
17.500000 79.471350
17.500000 79.836316
17.500000 80.202118
17.500000 80.568755
17.500000 80.936229
17.500000 81.304539
17.500000 81.673685
17.500000 82.043668
17.500000 82.414486
17.500000 82.786141
17.500000 83.158631
17.500000 83.531958
17.500000 83.906121
17.500000 84.281120
17.500000 84.656955
17.500000 85.033626
17.500000 85.411133
17.500000 85.789477
17.500000 86.168656
17.500000 86.548672
17.500000 86.929524
17.500000 87.311212
17.500000 87.693736
17.500000 88.077096
17.500000 88.461292
17.500000 88.846324
17.500000 89.232193
17.500000 89.618897
17.500000 90.006438
17.500000 90.394815
17.500000 90.784028
17.500000 91.174077
17.500000 91.564962
17.500000 91.956684
17.500000 92.349241
17.500000 92.742634
17.500000 93.136864
17.500000 93.531930
17.500000 93.927832
17.500000 94.324570
17.500000 94.722144
17.500000 95.120554
17.500000 95.519801
17.500000 95.919883
17.500000 96.320802
17.500000 96.722557
17.500000 97.125147
17.500000 97.528574
17.500000 97.932837
17.500000 98.337937
17.500000 98.743872
17.500000 99.150643
17.500000 99.558251
17.500000 99.966695
17.500000 100.375974
17.500000 100.786090
17.500000 101.197042
17.500000 101.608831
17.500000 102.021455
17.500000 102.434915
17.500000 102.849212
17.500000 103.264344
17.500000 103.680313
17.500000 104.097118
17.500000 104.514759
17.500000 104.933236
17.500000 105.352549
17.500000 105.772699
17.500000 106.193684
17.500000 106.615506
17.500000 107.038163
17.500000 107.461657
17.500000 107.885987
17.500000 108.311153
17.500000 108.737155
17.500000 109.163993
17.500000 109.591668
17.500000 110.020178
17.500000 110.449525
17.500000 110.879708
17.500000 111.310727
17.500000 111.742582
17.500000 112.175273
17.500000 112.608800
17.500000 113.043163
17.500000 113.478363
17.500000 113.914398
17.500000 114.351270
17.500000 114.788978
17.500000 115.227522
17.500000 115.666902
17.500000 116.107118
17.500000 116.548170
17.500000 116.990059
17.500000 117.432783
17.500000 117.876344
17.500000 118.320740
17.500000 118.765973
17.500000 119.212042
17.500000 119.658947
17.500000 120.106689
17.500000 120.555266
17.500000 121.004679
17.500000 121.454929
17.500000 121.906015
17.500000 122.357937
17.500000 122.810695
17.500000 123.264289
17.500000 123.718719
17.500000 124.173985
17.500000 124.630087
17.500000 125.087026
17.500000 125.544801
17.500000 126.003411
17.500000 126.462858
17.500000 126.923141
17.500000 127.384260
17.500000 127.846216
17.500000 128.309007
17.500000 128.772634
17.500000 129.237098
17.500000 129.702398
17.500000 130.168534
17.500000 130.635505
17.500000 131.103314
17.500000 131.571958
17.500000 132.041438
17.500000 132.511754
17.500000 132.982907
17.500000 133.454896
17.500000 133.927720
17.500000 134.401381
17.500000 134.875878
17.500000 135.351211
17.500000 135.827381
17.500000 136.304386
17.500000 136.782227
17.500000 137.260905
17.500000 137.740419
17.500000 138.220769
17.500000 138.701955
17.500000 139.183977
17.500000 139.666835
17.500000 140.150529
17.500000 140.635060
17.500000 141.120426
17.500000 141.606629
17.500000 142.093668
17.500000 142.581542
17.500000 143.070253
17.500000 143.559801
17.500000 144.050184
17.500000 144.541403
17.500000 145.033459
17.500000 145.526350
17.500000 146.020078
17.500000 146.514642
17.500000 147.010042
17.500000 147.506278
17.500000 148.003350
17.500000 148.501258
17.500000 149.000003
17.500000 149.499583
17.500000 150.000000
</POINTS>
</NEKTAR>

