$MeshFormat
4.1 0 8
$EndMeshFormat
$Entities
16 19 4 0
1 -100 0 0 0 
2 0 0 0 0 
3 0 -1 0 0 
6 500 -1 0 0 
8 500 150 0 0 
9 -100 150 0 0 
10 -100 0.25 0 0 
11 0 0.25 0 0 
13 6 0 0 0 
15 0 -0.5 0 0 
16 6 -1 0 0 
17 6 -0.5 0 0 
18 -16 0 0 0 
19 -16 0.25 0 0 
22 -100 3.75 0 0 
23 -16 3.75 0 0 
1 -100 0 0 -16 0 0 1 4 2 1 -18 
2 0 -0.5 0 0 0 0 1 4 2 2 -15 
3 0 -1 0 6 -1 0 1 4 2 3 -16 
4 6 -1 0 6 -0.5 0 0 2 16 -17 
8 -100 150 0 500 150 0 1 3 2 8 -9 
9 -100 3.75 0 -100 150 0 1 1 2 9 -22 
10 -100 0.25 0 -16 0.25 0 0 2 10 -19 
11 -100 0 0 -100 0.25 0 1 1 2 10 -1 
14 0 0 0 6 0 0 0 2 2 -13 
15 0 -1 0 0 -0.5 0 1 4 2 15 -3 
17 6 -0.5 0 6 0 0 0 2 17 -13 
20 -16 0 0 0 0 0 1 4 2 18 -2 
23 -16 0.25 0 0 0.25 0 0 2 19 -11 
24 -100 0.25 0 -100 3.75 0 1 1 2 22 -10 
25 500 -1 0 500 150 0 1 2 2 6 -8 
27 -100 3.75 0 -16 3.75 0 0 2 22 -23 
28 -16 0.25 0 -16 3.75 0 0 2 23 -19 
29 6 -1 0 500 -1 0 1 4 2 16 -6 
30 0 0 0 0 0.25 0 0 2 2 -11 
1 -100 0 0 0 0.25 0 1 100 6 -23 -10 11 1 20 30 
2 0 -1 0 6 0 0 1 101 6 2 15 3 4 17 -14 
3 -100 -1 0 500 150 0 1 102 11 23 -30 14 -17 -4 29 25 8 9 27 28 
4 -100 0.25 0 -16 3.75 0 1 101 4 -24 27 28 -10 
$EndEntities
$Nodes
36 987 1 987
0 1 0 1
1
-100 0 0
0 2 0 1
2
0 0 0
0 3 0 1
3
0 -1 0
0 6 0 1
4
500 -1 0
0 8 0 1
5
500 150 0
0 9 0 1
6
-100 150 0
0 10 0 1
7
-100 0.25 0
0 11 0 1
8
0 0.25 0
0 13 0 1
9
6 0 0
0 15 0 1
10
0 -0.5 0
0 16 0 1
11
6 -1 0
0 17 0 1
12
6 -0.5 0
0 18 0 1
13
-16 0 0
0 19 0 1
14
-16 0.25 0
0 22 0 1
15
-100 3.75 0
0 23 0 1
16
-16 3.75 0
1 1 0 20
17
18
19
20
21
22
23
24
25
26
27
28
29
30
31
32
33
34
35
36
-95.58527046937866 0 0
-91.21468823266611 0 0
-86.88781181580126 0 0
-82.60420415867605 0 0
-78.36343257713837 0 0
-74.16506871323423 0 0
-70.00868848650846 0 0
-65.8938720650049 0 0
-61.82020381161699 0 0
-57.78727223817417 0 0
-53.79466997884192 0 0
-49.84199374553916 0 0
-45.92884427781397 0 0
-42.05482630008553 0 0
-38.21954849842778 0 0
-34.42262347905 0 0
-30.66366770896734 0 0
-26.94230149533101 0 0
-23.25814894616619 0 0
-19.61083791980739 0 0
1 2 0 0
1 3 0 4
37
38
39
40
0.4277800446371153 -1 0
1.083855025603928 -1 0
2.090059962921551 -1 0
3.633250017249567 -1 0
1 8 0 8
41
42
43
44
45
46
47
48
433.3333333332818 150 0
366.6666666665635 150 0
299.9999999998453 150 0
233.3333333332776 150 0
166.6666666668749 150 0
100.0000000001561 150 0
33.33333333343739 150 0
-33.3333333332813 150 0
1 9 0 9
49
50
51
52
53
54
55
56
57
-100 117.2315102262166 0
-100 91.01671824689581 0
-100 70.04488465137392 0
-100 53.26741776526552 0
-100 39.84544444243883 0
-100 29.10786584585377 0
-100 20.51780287265106 0
-100 13.6457524076956 0
-100 8.148112073109132 0
1 10 0 20
58
59
60
61
62
63
64
65
66
67
68
69
70
71
72
73
74
75
76
77
-95.58527046937866 0.25 0
-91.21468823266611 0.25 0
-86.88781181580126 0.25 0
-82.60420415867605 0.25 0
-78.36343257713837 0.25 0
-74.16506871323423 0.25 0
-70.00868848650846 0.25 0
-65.8938720650049 0.25 0
-61.82020381161699 0.25 0
-57.78727223817417 0.25 0
-53.79466997884192 0.25 0
-49.84199374553916 0.25 0
-45.92884427781397 0.25 0
-42.05482630008553 0.25 0
-38.21954849842778 0.25 0
-34.42262347905 0.25 0
-30.66366770896734 0.25 0
-26.94230149533101 0.25 0
-23.25814894616619 0.25 0
-19.61083791980739 0.25 0
1 11 0 0
1 14 0 4
78
79
80
81
0.4277800446371153 0 0
1.083855025603928 0 0
2.090059962921551 0 0
3.633250017249567 0 0
1 15 0 0
1 20 0 11
82
83
84
85
86
87
88
89
90
91
92
-12.56387102550211 0 0
-9.814967827483326 0 0
-7.615845275505103 0 0
-5.856547240121069 0 0
-4.449108798773148 0 0
-3.323158057514666 0 0
-2.422397473963761 0 0
-1.70178900303172 0 0
-1.125302221953403 0 0
-0.6641127840878518 0 0
-0.2951612244527322 0 0
1 23 0 11
93
94
95
96
97
98
99
100
101
102
103
-12.56387102550211 0.25 0
-9.814967827483326 0.25 0
-7.615845275505103 0.25 0
-5.856547240121069 0.25 0
-4.449108798773148 0.25 0
-3.323158057514666 0.25 0
-2.422397473963761 0.25 0
-1.70178900303172 0.25 0
-1.125302221953403 0.25 0
-0.6641127840878518 0.25 0
-0.2951612244527322 0.25 0
1 24 0 1
104
-100 1.249999986029832 0
1 25 0 9
105
106
107
108
109
110
111
112
113
500 3.540957016655378 0
500 9.217153217416016 0
500 16.31239850580037 0
500 25.1814549911711 0
500 36.26777545713608 0
500 50.12567609804513 0
500 67.44805211289884 0
500 89.10102208616685 0
500 116.1672344960416 0
1 27 0 20
114
115
116
117
118
119
120
121
122
123
124
125
126
127
128
129
130
131
132
133
-95.58527046937866 3.75 0
-91.21468823266611 3.75 0
-86.88781181580126 3.75 0
-82.60420415867605 3.75 0
-78.36343257713837 3.75 0
-74.16506871323423 3.75 0
-70.00868848650846 3.75 0
-65.8938720650049 3.75 0
-61.82020381161699 3.75 0
-57.78727223817417 3.75 0
-53.79466997884192 3.75 0
-49.84199374553916 3.75 0
-45.92884427781397 3.75 0
-42.05482630008553 3.75 0
-38.21954849842778 3.75 0
-34.42262347905 3.75 0
-30.66366770896734 3.75 0
-26.94230149533101 3.75 0
-23.25814894616619 3.75 0
-19.61083791980739 3.75 0
1 28 0 1
134
-16 1.249999986029832 0
1 29 0 165
135
136
137
138
139
140
141
142
143
144
145
146
147
148
149
150
151
152
153
154
155
156
157
158
159
160
161
162
163
164
165
166
167
168
169
170
171
172
173
174
175
176
177
178
179
180
181
182
183
184
185
186
187
188
189
190
191
192
193
194
195
196
197
198
199
200
201
202
203
204
205
206
207
208
209
210
211
212
213
214
215
216
217
218
219
220
221
222
223
224
225
226
227
228
229
230
231
232
233
234
235
236
237
238
239
240
241
242
243
244
245
246
247
248
249
250
251
252
253
254
255
256
257
258
259
260
261
262
263
264
265
266
267
268
269
270
271
272
273
274
275
276
277
278
279
280
281
282
283
284
285
286
287
288
289
290
291
292
293
294
295
296
297
298
299
7.159513913103592 -1 0
8.330740056251013 -1 0
9.513796780841719 -1 0
10.70880357146325 -1 0
11.91588110496505 -1 0
13.13515135060542 -1 0
14.36673748339041 -1 0
15.61076387176515 -1 0
16.8673561759061 -1 0
18.13664133765473 -1 0
19.41874756786441 -1 0
20.71380437335527 -1 0
22.02194254503958 -1 0
23.34329422191123 -1 0
24.67799288071249 -1 0
26.02617336299513 -1 0
27.38797182861163 -1 0
28.76352581909951 -1 0
30.15297432371388 -1 0
31.55645765944557 -1 0
32.97411757191408 -1 0
34.4060973026773 -1 0
35.85254146979344 -1 0
37.31359617001779 -1 0
38.7894090096916 -1 0
40.28012905986817 -1 0
41.78590688661829 -1 0
43.30689458104274 -1 0
44.84324579049103 -1 0
46.3951157125133 -1 0
47.96266108928228 -1 0
49.54604023873526 -1 0
51.14541312392948 -1 0
52.76094131191434 -1 0
54.39278796859567 -1 0
56.04111792881641 -1 0
57.70609769295718 -1 0
59.38789542329784 -1 0
61.08668097787789 -1 0
62.8026259818614 -1 0
64.53590378919829 -1 0
66.28668944258013 -1 0
68.05515978263051 -1 0
69.84149344744783 -1 0
71.64587090789622 -1 0
73.46847443171134 -1 0
75.30948808115723 -1 0
77.16909782520058 -1 0
79.04749150324226 -1 0
80.94485886270611 -1 0
82.86139156095622 -1 0
84.79728316630722 -1 0
86.75272923434427 -1 0
88.72792727386587 -1 0
90.72307678591788 -1 0
92.73837934190956 -1 0
94.77403851363916 -1 0
96.83025987642723 -1 0
98.90725112458399 -1 0
101.0052220772809 -1 0
103.1243846835742 -1 0
105.2649529918239 -1 0
107.4271431915088 -1 0
109.6111736949155 -1 0
111.8172651070338 -1 0
114.0456402701015 -1 0
116.2965242718328 -1 0
118.5701444535875 -1 0
120.8667304932058 -1 0
123.1865143783161 -1 0
125.5297304151046 -1 0
127.8966153132601 -1 0
130.2874081599258 -1 0
132.7023504306191 -1 0
135.1416860378733 -1 0
137.6056613806173 -1 0
140.0945253573138 -1 0
142.6085293791084 -1 0
145.1479273837414 -1 0
147.7129758864749 -1 0
150.3039339955508 -1 0
152.921063389956 -1 0
155.5646284089495 -1 0
158.2348961061442 -1 0
160.9321362296767 -1 0
163.6566212024515 -1 0
166.4086262134349 -1 0
169.1884292742792 -1 0
171.9963111643354 -1 0
174.8325554867409 -1 0
177.6974487261092 -1 0
180.5912802693548 -1 0
183.5143424273964 -1 0
186.4669304570013 -1 0
189.4493426205165 -1 0
192.4618801725226 -1 0
195.504847382903 -1 0
198.5785516355571 -1 0
201.683303417078 -1 0
204.8194163418718 -1 0
207.9872071789729 -1 0
211.1869958783291 -1 0
214.4191056727799 -1 0
217.6838630700471 -1 0
220.9815978072377 -1 0
224.3126429905501 -1 0
227.6773350902597 -1 0
231.0760139699992 -1 0
234.5090229570314 -1 0
237.9767087996195 -1 0
241.4794217741507 -1 0
245.0175156823503 -1 0
248.5913479220617 -1 0
252.2012794866182 -1 0
255.8476749993374 -1 0
259.5309027882857 -1 0
263.2513348860182 -1 0
267.0093471051413 -1 0
270.8053190402849 -1 0
274.639634144467 -1 0
278.5126796963933 -1 0
282.4248469139154 -1 0
286.3765309984132 -1 0
290.3681310649426 -1 0
294.4000502970196 -1 0
298.4726959916561 -1 0
302.5864795309086 -1 0
306.7418164271645 -1 0
310.9391264444124 -1 0
315.178833535834 -1 0
319.4613659276648 -1 0
323.787156244317 -1 0
328.1566414106452 -1 0
332.5702627759862 -1 0
337.0284662047794 -1 0
341.5317019813542 -1 0
346.0804249735285 -1 0
350.6750946895883 -1 0
355.3161752219697 -1 0
360.0041353410575 -1 0
364.7394485896496 -1 0
369.5225933056313 -1 0
374.3540526068716 -1 0
379.2343145255448 -1 0
384.1638720337078 -1 0
389.1432230311446 -1 0
394.1728704826853 -1 0
399.2533224468165 -1 0
404.3850921036062 -1 0
409.5686978219179 -1 0
414.8046631897154 -1 0
420.0935171199347 -1 0
425.4357938469916 -1 0
430.8320329596643 -1 0
436.2827795103326 -1 0
441.7885840881374 -1 0
447.3500028568174 -1 0
452.9675975927494 -1 0
458.6419357246878 -1 0
464.3735904107263 -1 0
470.1631405807472 -1 0
476.0111710523767 -1 0
481.9182725399718 -1 0
487.8850416979299 -1 0
493.9120812427544 -1 0
2 1 0 0
2 2 0 4
300
301
302
303
0.4277800446371153 -0.5 0
1.083855025603928 -0.5 0
2.090059962921551 -0.5 0
3.633250017249567 -0.5 0
2 3 0 664
304
305
306
307
308
309
310
311
312
313
314
315
316
317
318
319
320
321
322
323
324
325
326
327
328
329
330
331
332
333
334
335
336
337
338
339
340
341
342
343
344
345
346
347
348
349
350
351
352
353
354
355
356
357
358
359
360
361
362
363
364
365
366
367
368
369
370
371
372
373
374
375
376
377
378
379
380
381
382
383
384
385
386
387
388
389
390
391
392
393
394
395
396
397
398
399
400
401
402
403
404
405
406
407
408
409
410
411
412
413
414
415
416
417
418
419
420
421
422
423
424
425
426
427
428
429
430
431
432
433
434
435
436
437
438
439
440
441
442
443
444
445
446
447
448
449
450
451
452
453
454
455
456
457
458
459
460
461
462
463
464
465
466
467
468
469
470
471
472
473
474
475
476
477
478
479
480
481
482
483
484
485
486
487
488
489
490
491
492
493
494
495
496
497
498
499
500
501
502
503
504
505
506
507
508
509
510
511
512
513
514
515
516
517
518
519
520
521
522
523
524
525
526
527
528
529
530
531
532
533
534
535
536
537
538
539
540
541
542
543
544
545
546
547
548
549
550
551
552
553
554
555
556
557
558
559
560
561
562
563
564
565
566
567
568
569
570
571
572
573
574
575
576
577
578
579
580
581
582
583
584
585
586
587
588
589
590
591
592
593
594
595
596
597
598
599
600
601
602
603
604
605
606
607
608
609
610
611
612
613
614
615
616
617
618
619
620
621
622
623
624
625
626
627
628
629
630
631
632
633
634
635
636
637
638
639
640
641
642
643
644
645
646
647
648
649
650
651
652
653
654
655
656
657
658
659
660
661
662
663
664
665
666
667
668
669
670
671
672
673
674
675
676
677
678
679
680
681
682
683
684
685
686
687
688
689
690
691
692
693
694
695
696
697
698
699
700
701
702
703
704
705
706
707
708
709
710
711
712
713
714
715
716
717
718
719
720
721
722
723
724
725
726
727
728
729
730
731
732
733
734
735
736
737
738
739
740
741
742
743
744
745
746
747
748
749
750
751
752
753
754
755
756
757
758
759
760
761
762
763
764
765
766
767
768
769
770
771
772
773
774
775
776
777
778
779
780
781
782
783
784
785
786
787
788
789
790
791
792
793
794
795
796
797
798
799
800
801
802
803
804
805
806
807
808
809
810
811
812
813
814
815
816
817
818
819
820
821
822
823
824
825
826
827
828
829
830
831
832
833
834
835
836
837
838
839
840
841
842
843
844
845
846
847
848
849
850
851
852
853
854
855
856
857
858
859
860
861
862
863
864
865
866
867
868
869
870
871
872
873
874
875
876
877
878
879
880
881
882
883
884
885
886
887
888
889
890
891
892
893
894
895
896
897
898
899
900
901
902
903
904
905
906
907
908
909
910
911
912
913
914
915
916
917
918
919
920
921
922
923
924
925
926
927
928
929
930
931
932
933
934
935
936
937
938
939
940
941
942
943
944
945
946
947
948
949
950
951
952
953
954
955
956
957
958
959
960
961
962
963
964
965
966
967
4.967868483608141 1.344068137998369 0
22.6826183834754 0.1386025039213785 0
34.84842148802048 0.7624806623664454 0
48.88659019972009 0.5166475762961801 0
61.77329830293842 0.2884209227649377 0
76.02706222093983 1.337102246282843 0
91.71943683591287 1.200016058908666 0
106.4130542087769 0.7894406680447208 0
122.1923221125347 1.369296074388332 0
139.1287949072071 2.228755163934914 0
-2.033453474759494 0.8716137200212437 0
154.5093243164854 0.9990095194846238 0
170.8024352972332 1.844803213705117 0
187.6683943602944 1.247576720170902 0
206.5988967441053 1.822506241492365 0
225.8711051656088 1.406101819303459 0
246.804431802206 2.079554356964838 0
13.86549584081576 0.2261397141380131 0
265.2075516191027 2.472566713351549 0
284.7990686408518 1.97368255226068 0
304.7830591944013 2.295859868823136 0
325.9718988274812 2.765164730582555 0
348.3233268536417 2.718612600134013 0
372.2100565530766 3.795897324065971 0
396.7110652069101 3.65953948995383 0
-28.76675602435643 7.111111997942777 0
-43.99079595618733 7.202495613464087 0
-59.7583201604994 6.781907359033795 0
417.4469915742803 3.848608240557605 0
439.0356817992352 3.744325807560361 0
-6.629327297712221 1.908569380117791 0
1.519264334097174 0.7926289375861266 0
-72.0875831586534 7.350737803882859 0
455.8047666587183 3.889550360702119 0
10.09910824122981 0.01924334228806456 0
-86.68857236037873 62.37865089090437 0
486.4985441595413 58.78686410547198 0
-0.5069393507191307 0.5658918020763468 0
473.0971320264575 4.148213761545956 0
-91.79725211752213 35.02029419182383 0
491.1729901897943 31.14089870917036 0
-85.10385811851543 7.556514254516814 0
-4.013727688220313 1.134244613209796 0
-51.81739244670682 7.260156355925671 0
-36.40279943234554 6.817305026165315 0
-21.18672951477016 7.129306819617875 0
485.2725545007787 4.990778966136499 0
428.3871376321749 3.825085085410278 0
-11.28426959250429 2.266735167375871 0
-94.51172702937131 17.09666089297209 0
65.0399373275458 104.0706778812492 0
196.3428484824351 99.22898896553886 0
336.4242196014947 99.8686513859484 0
7.644598051673862 0.007793016930200143 0
493.0272095351375 13.12481997832142 0
-93.16057718736531 7.592477342206465 0
128.3320903451539 101.6051748164892 0
98.82735077507228 57.79179994692381 0
268.3060433695177 113.1344570925474 0
299.2690194521084 54.74791012005799 0
478.9039752022956 102.6341282911042 0
-79.56759176666085 104.1241142365562 0
0.8691335978416508 0.8008393922566379 0
-13.9566051754629 2.403076454486213 0
-9.359402334097854 2.467933912730258 0
-9.876510605947578 3.990008751655774 0
-7.733240230774197 3.779295944762872 0
-9.467402512525164 6.831281018474382 0
-5.343775747488508 3.616046142107132 0
1.103511284372161 1.742826391704999 0
-14.22425208935986 4.983497058897018 0
-16.7974376529879 6.356667663661628 0
-18.11122015437438 10.45310985037068 0
2.418846310674993 1.610350517455583 0
1.928123595747314 3.258386024150693 0
-0.3881876799207218 2.879640378089441 0
0.8146056712159275 5.264197765468008 0
3.673820107922286 5.045080817027226 0
2.992830575715156 8.644981442502649 0
-2.675107838540668 4.802026622351683 0
-1.320808022382835 105.471664567659 0
393.0047419871751 97.54243569842306 0
494.975670658295 6.555854953763714 0
-13.14014607557608 8.107079381388697 0
-13.72939473194272 13.53293726816639 0
-91.81066666709516 25.54943222237889 0
-83.91091547751699 29.85576472850098 0
-87.25407032501033 19.31711509405875 0
-78.93259191166322 22.47690505625666 0
-83.36530645422981 38.05951958508663 0
-74.99288351790415 34.20014279023396 0
-69.65862797086518 25.88390659652745 0
-74.89808214211449 44.59718629392985 0
-64.65569361586364 39.07104886474041 0
-64.3293530247044 52.5813210856398 0
-51.84349862641748 42.63450063482987 0
-53.85774645914005 59.68031481336578 0
-36.96396816050733 57.80882972236793 0
-37.94002679438618 34.66868520066984 0
-23.66757808060257 43.05421742517653 0
-19.63346280972129 16.27464335233747 0
-13.75270050450343 21.05014651571697 0
-7.350759190839426 15.91619392788818 0
-4.909774178121245 25.202754875302 0
-58.4887757692774 30.04138779250082 0
-61.45213064313089 19.27720951035984 0
-52.81126792666947 22.25435290089559 0
-69.98892529841385 16.80118214723351 0
-20.79391040359496 23.17782595858597 0
-26.18803671140417 18.28425644919835 0
-54.22593278326122 15.2469845070304 0
-47.08611877801552 15.83733709382479 0
-69.44962865223218 68.43226881790878 0
-49.9263115952765 81.52237563681118 0
-65.46148168438474 12.33873420985759 0
-88.83856157199658 11.84967670915422 0
-82.01590526817884 15.08069081451099 0
-24.07129968175185 12.28127763118861 0
483.105865795094 78.32645041519245 0
467.992406706211 66.01195595880863 0
471.804130987414 46.18151070707191 0
454.5495725249127 53.26611677557796 0
456.8131802934595 36.74212236506586 0
441.8576370605298 41.79898399592834 0
447.6291911946015 70.26570880703983 0
445.1283031707393 27.18512595391943 0
432.5403421056957 33.0823375111304 0
427.7558287796213 46.58789480885814 0
417.3759216464214 33.62437601788136 0
457.8963118759175 22.21254777073035 0
411.2590125176317 53.01521909115495 0
399.8427081002875 38.59746400369654 0
405.9799600151869 24.73635604048048 0
390.4400622265999 25.17303721510013 0
383.2224145686611 41.00000188492326 0
372.79290129912 26.29010632683814 0
406.7171783044878 2.932546297470333 0
366.0282758074665 42.62087176603807 0
353.9780712881632 28.51197185907247 0
348.3161629686541 44.32485377945721 0
335.4060820469294 32.09641009294447 0
418.9771274998286 19.96807077726305 0
433.4274098815693 17.51184204590973 0
448.7548024647795 15.73744488448229 0
468.7969923121055 30.59333721858066 0
469.1925525467487 19.01890095246987 0
362.0452008231388 16.30080026138777 0
357.9124516311807 3.632131735157554 0
381.1677966754607 16.80163104045639 0
386.6621438702917 3.521342745396814 0
348.4807036165519 15.80450264745931 0
339.1012004107679 3.214606168563813 0
335.6245520617563 16.27449654257717 0
477.8629471009867 24.40419173592343 0
478.3123015330137 14.67086711267284 0
485.7985624656101 18.44766695250064 0
391.3293646166629 13.50029270123151 0
352.6198036087657 65.28620567711752 0
462.5729388884713 13.84234784043971 0
-5.855603003694899 6.275004801198635 0
-1.962892602093881 7.999448675801718 0
-0.8778386677226281 12.40254185687195 0
5.93019570507082 13.34713413942458 0
1.496170120178059 18.79513487299757 0
9.966867687711034 19.03439152095121 0
5.689914473642327 26.75995311782636 0
11.74662278568618 12.2257648828065 0
17.65985330040923 17.20077156669093 0
29.44934548911352 0.6680492494097916 0
32.40842400477658 0.03662319939766512 0
26.56306439463471 0.1835911302355539 0
21.18581217877675 10.87892949639185 0
25.54649892924125 16.07497855876363 0
17.60754155647819 0.2629578730154121 0
19.95928354464032 0.2389326647079437 0
22.88347774376289 25.36471174395668 0
29.67045322254437 10.35244561236829 0
42.42082335412812 0.4458838716553762 0
33.17978651627029 16.18044492284128 0
45.62042577734945 0.2801282166255746 0
39.66267340145723 0.4274362478466309 0
35.205542251286 9.941094904590821 0
40.51429498824558 14.84910842990911 0
55.21695294870604 0.4203581395684437 0
58.68054662615766 1.170787445925318 0
38.199373831878 24.50502795059257 0
30.7430123613405 34.45653431581482 0
46.13519423145286 34.7009019251708 0
44.23607265843217 9.04293934301079 0
47.28166566092321 13.94053248538052 0
39.47212207549195 49.69115762362375 0
20.24481859287324 50.65379876999698 0
49.99339560988896 8.010696732492498 0
54.01774880346419 13.43976187255821 0
68.80073887787206 0.7101163035199352 0
72.55717266980378 0.5705288357076439 0
57.71789238164016 48.43659941301995 0
56.57556016839922 7.337676349322747 0
61.16449976241899 12.5897166678046 0
58.58237854064711 19.35408334272983 0
66.609931790964 18.52512090068101 0
83.37367508727841 1.11693587542041 0
87.54218642261615 0.5721967138420079 0
68.59029726596287 10.61545596155683 0
74.50066615009993 16.35451352852805 0
72.97822211815073 26.60848271616143 0
82.16742868051865 20.98349439966454 0
85.00942716620717 11.32067552696231 0
91.62058821804655 17.57899961303412 0
99.74674338494356 0.5741462260124847 0
16.14229539155565 6.068313017180296 0
-0.2206994694216588 36.36974641598011 0
75.00648439920266 9.333146063366158 0
24.1324924071916 6.098133520274726 0
92.44336266714225 9.276052827585001 0
99.31300647477261 14.21933030887611 0
99.37934025776494 23.70164077368041 0
108.4249403645946 18.23738323992616 0
115.3386314757684 1.280420247429742 0
108.8100632158491 27.72098685162508 0
119.5300229819697 23.64732701265912 0
117.1100608994342 39.51580784509029 0
130.9678995494461 29.17070889516012 0
132.2561806829796 15.98264066234556 0
141.8909498382863 21.00170994425201 0
146.6890088446145 0.9405401590481048 0
146.0261036316743 34.40134612308759 0
157.6945104174716 27.81218617846619 0
162.5690118397287 1.060509090279107 0
129.2971433051347 1.289924961702243 0
133.9259828635293 1.357953552870898 0
161.9191630971047 40.96847844786503 0
175.5959544141078 31.17363774121699 0
169.1986686890315 15.22394039279249 0
179.3530784018251 1.953851307154316 0
186.0017976746965 19.95202678681851 0
197.0416995092301 1.648596436795612 0
188.7348534505548 35.56823852398691 0
199.4606663569438 23.62058804098795 0
203.0556881548624 35.7237569481933 0
214.3140227599277 25.63517105447453 0
216.0445406923615 1.9995519745359 0
218.503801613031 41.92195851615558 0
231.5588917785936 28.22691650861251 0
235.8528168145956 2.139995659738978 0
235.907579231995 47.9345546648006 0
249.5100785935691 30.99366040462181 0
257.5819760400448 50.48340753623948 0
268.9565928781256 34.27354302621579 0
156.3666778977414 12.51623122585452 0
121.5517123894441 13.42299297920915 0
111.8216440084589 10.00153785651008 0
111.124821436687 1.485157153942837 0
140.3242898951029 12.04873091360228 0
262.4568871120385 19.12335394387426 0
276.1597988540034 21.22464284053766 0
249.9982093540893 16.96998611849603 0
62.54810653746667 6.683510884591207 0
65.5444535714589 0.7763211563483635 0
242.5908833298905 69.19283529268907 0
256.1445243764863 10.92881415753504 0
223.0754897453392 16.82604005150369 0
212.6139329126211 13.57339653357482 0
194.2577906790976 13.79275317347136 0
181.6230269192397 10.27077931350155 0
82.42263031242 33.28590775827828 0
32.45800042358249 6.098085832024527 0
146.0505428190556 54.7700107485423 0
36.62356583250463 4.723733716508961 0
254.4143585842458 2.094519099310218 0
27.09387502854116 71.09656962965509 0
270.9209567957315 12.51412180640272 0
276.1998832480578 1.914480006696095 0
98.74793389459663 7.302591937566916 0
95.64005896524259 1.590676776523501 0
193.282708038831 53.30088935976258 0
167.8579270088507 66.46671990493039 0
134.9722560886067 8.296015864894773 0
286.6539848679369 33.08743363836128 0
296.765121763606 21.40189049629406 0
46.49476861269827 5.216827549206736 0
42.53638383417854 4.687197816695917 0
52.95548304949322 4.456604685089378 0
51.81975222618772 0.5406797592781444 0
87.76030387649507 6.632491940361678 0
488.398399894891 43.07292658025746 0
-85.8062949484294 77.78400325307913 0
302.0984109210273 32.62828865322147 0
309.4257960232997 18.80181672273568 0
312.6357123110922 2.172298164378269 0
71.79011599629476 5.852709422457588 0
410.8394164877789 13.49147779256923 0
315.8868724806078 36.13573053405617 0
325.852854717859 57.16454973970481 0
426.8656176342914 65.68425710180114 0
429.0777926405635 90.20988109734425 0
-45.0644909266052 23.51305407815128 0
-40.15891048881277 17.43866654681566 0
-18.86579512241518 60.3494076740015 0
279.7043019587735 11.18417894223412 0
3.763758541261816 2.568846075886611 0
6.154617083989945 2.991823804604999 0
6.57550330145443 6.189229391479896 0
9.19364867001366 3.671025981114944 0
480.5490106140768 33.71530363334432 0
219.8132737001364 9.560148859420794 0
97.16945243692609 35.78493794674429 0
-5.073760787977176 1.633831033495338 0
300.5670900786055 13.45854167200467 0
292.4796211831905 4.11623390735816 0
275.9855574608233 48.84524138585735 0
395.2210420132276 53.25128077714979 0
486.3825718480331 11.92440319001155 0
123.0419865853113 62.7643989071999 0
10.07112708796066 7.018198226009639 0
12.71263165261855 4.536347593548067 0
105.4799133299505 9.131639422096011 0
102.6723919773723 4.264417674098613 0
163.0379169654945 102.287453698784 0
59.45713222974531 4.436017376778963 0
11.2788475394102 2.360177187698833 0
467.2707706857032 4.03606196329842 0
470.1046146365887 10.46963074887557 0
-76.21241024906296 16.04236255085896 0
-78.56289479633293 11.07639120679299 0
203.1079898206197 13.55783614412545 0
479.0291884900166 4.163894062169639 0
227.8978314815291 9.967753303374007 0
233.00127438357 15.99414908011989 0
8.922268418546365 0.0177566925082342 0
9.865468028159654 1.360602754554978 0
11.3633041301797 0.5055992436635228 0
13.17927311356225 1.825381172085926 0
15.11511394261469 1.278010261199021 0
450.1580343530081 3.976936314039497 0
-67.8820105962786 7.646243230374759 0
-69.91456226483123 11.0236296788371 0
461.5038817603354 3.804032158429146 0
-89.04109938526895 6.8997336611755 0
293.2351121962499 11.5483000248553 0
-25.12383365186303 7.030182244039592 0
-2.390576560808424 3.012606881204626 0
-63.85703793831095 7.254483831838527 0
-6.04334595772616 10.11247732063771 0
-55.99662603378632 7.308873161451285 0
249.0834715639496 10.11707291666843 0
258.3647301112352 5.431698805265087 0
-47.88412307480739 7.265698540257209 0
33.87323425363048 3.153605330139183 0
30.87641869246028 2.870300454411353 0
28.03659069219277 5.715798639098439 0
28.00340716028541 2.710531955396171 0
25.11806588151651 3.349175606490724 0
21.63193303264302 3.978870522347377 0
323.4934986022815 21.72757562699043 0
318.0217375411638 12.3396983890294 0
444.5600682442494 3.965831754781761 0
441.761516267179 9.427261389563187 0
434.7639240284666 9.288479758198966 0
197.8337960092688 8.642977402997158 0
192.4339085389102 6.565452701467618 0
200.3505569101822 4.989636142060742 0
216.4811145711568 69.08836971145921 0
263.0955457015141 10.09703392539121 0
492.5428942316353 21.85103266433767 0
-39.89733207435391 7.518640686449652 0
-42.28976969475877 11.84350560044985 0
-27.69039225785935 27.79957639259727 0
-29.88934480090733 12.35592827166762 0
94.63710636637985 5.227090034842834 0
90.82026255436097 4.231880167726209 0
25.06546739604046 0.8099324544589013 0
15.03943423248433 -0.08296319463242759 0
-32.8061139394352 7.722954099980727 0
411.6882670791981 3.720718135676614 0
433.8603111859748 2.971578130233921 0
427.2863850516057 11.36364020725598 0
-89.43264054423631 46.87414581539842 0
139.570192167324 6.547568400484101 0
145.0698434904081 7.999043575339863 0
148.1640027424406 13.16972803847135 0
152.0552071860106 7.570843880308479 0
158.8207421277452 7.167391120534595 0
-96.40650981887033 10.89693224040236 0
381.699093279628 3.297852257960302 0
269.2091641572785 75.7774606116737 0
237.7105645405927 96.07035194565137 0
391.6585869002058 3.426600002161936 0
-49.5041856188175 30.61422388289564 0
-36.43339192404407 11.65653976510546 0
75.78496353711485 4.627060140479698 0
79.83920685761484 0.8403813296201431 0
79.87771975825109 6.565519230504322 0
83.97186697454103 4.479623742305902 0
234.4881934501851 9.724540053900355 0
241.4312760053041 11.82720907069 0
16.1821932532368 0.2155286233796038 0
16.85294974017235 1.835166800695617 0
18.66819478575893 1.30315439228096 0
-49.81174334239861 11.12102491411729 0
334.7993644903824 2.886900531385744 0
-14.29533359537857 32.22138835087787 0
362.2600808321701 2.813749503035004 0
241.0999460230252 20.80238423650805 0
344.1002078911597 3.625876577020243 0
341.883751584494 9.326597440056005 0
366.6206467940899 3.778270803305273 0
368.658086743152 9.583755091139349 0
423.1187654711205 4.451667702398677 0
418.7397252716049 10.24037020600002 0
452.8992914697734 9.484329302893336 0
440.4020146712885 17.4265834475343 0
322.0691937101408 2.261903151044901 0
323.5024742257231 7.041191030283874 0
330.3194937482724 7.621911341373993 0
300.5295877612829 2.586616822894948 0
272.7224765923763 2.342961274894991 0
401.9860976030978 3.932935340635448 0
399.223713740881 9.261920606003894 0
376.6955304049083 2.963521662785284 0
352.5933482033091 3.740466443791989 0
355.1007446828957 9.747818183042668 0
-2.878148283749209 1.301322143818604 0
243.2484687282505 2.084699780027783 0
222.6471203988935 1.904183603847653 0
232.5938501939765 1.361017311797343 0
203.3125073991573 2.21271100532019 0
206.4609065643787 7.04951662105357 0
210.5729355437794 4.275286473982485 0
317.3956210941851 4.197366665000348 0
296.7343389439342 2.436189935189954 0
18.75808175847932 -0.03899101399913679 0
31.23505692219295 0.5531341241603509 0
330.3634520933156 2.796937742682497 0
308.8404714357872 2.610850006052114 0
311.9227132037319 8.067310410394072 0
288.3723310316776 2.433882452961648 0
286.3528709550984 7.068982129655975 0
268.6821635336948 1.945196506538597 0
193.9859453339297 2.174261407785249 0
280.3785019878554 3.857887744392367 0
27.75550607871096 0.5738126500703371 0
184.9151095899138 1.630315929150856 0
186.8038140380557 5.167938393738317 0
182.0397904696041 4.390708990524163 0
177.7132718002071 5.534039452372912 0
151.720587184665 2.353527808997215 0
176.0659196033869 1.928986113045686 0
172.8540874759495 5.012106524377568 0
168.8517508303202 4.709929953843619 0
174.5670730157962 10.23334611439754 0
21.46338209553776 0.3717533363635396 0
20.42084483225837 1.97187028293225 0
37.95193283234013 0.4453865457989823 0
38.79566982377558 2.036855032259506 0
36.48061005907621 1.912101385994979 0
41.02631195231017 1.945683467690922 0
159.5207684692462 2.360664881602434 0
44.18315614097952 0.5948312260642986 0
43.15529681573493 2.080805214109088 0
250.8366257896052 1.627791696735634 0
229.1191299893637 1.785153959955726 0
239.3026557598023 1.663399847495761 0
143.8782283814248 1.213983201972566 0
126.5534850243301 1.318818311032228 0
127.9110069746492 4.074114348086603 0
124.6126573131032 3.309084598313596 0
120.8112280519398 4.730860073066318 0
125.4498091029797 7.663937392058514 0
131.4841227198269 3.724420490970453 0
119.5472299287457 1.429188871746324 0
117.2752818293238 3.477636006966923 0
113.5789347080247 4.309311094873618 0
109.9546615234905 4.824526922593618 0
116.6659535635732 8.529825808184976 0
104.3664891369358 1.346499199548943 0
219.0043038229817 1.511768624482462 0
56.8029802291518 0.4125043453495636 0
56.05378977669885 2.775060557445138 0
53.38832661127549 0.2538951979881586 0
200.1933237742409 1.370188716835309 0
33.60370381939342 0.1689850162737589 0
190.4672141773715 2.192538203860347 0
173.3102618055292 1.357179170225674 0
156.899762257547 1.297170359046421 0
182.0528113483759 1.514643669180199 0
141.5045110991699 1.180519192331214 0
135.90917040929 3.879069206445164 0
41.0351689308764 0.1638007174385859 0
70.53519565595847 0.38828112962956 0
70.12004205391663 2.711842426610965 0
67.10246399712635 2.339297596856032 0
64.44146782873548 3.119155037256315 0
67.43208227991713 5.220328554888155 0
164.8145897780267 1.007081269549969 0
163.8219288631576 4.588265516289059 0
163.4587308787424 10.52444069308805 0
167.798527743857 1.391437326033267 0
136.3736737092459 1.119701765515852 0
67.15790113433358 0.3651470113448661 0
47.07040956088247 0.6244612329287104 0
47.93875061830165 2.535344975453822 0
50.49547343904273 2.193450519958166 0
45.37823020325959 2.414775444766647 0
49.57557426588497 4.48258489244012 0
85.52791804329004 1.271855445124482 0
87.55800665019918 2.98407160247527 0
74.22822902652774 0.5447403686542798 0
78.21848121773853 2.859707357935322 0
81.59050195565293 0.569666751143313 0
149.008454941013 1.228942116673886 0
89.51514942047882 1.164694090492025 0
131.5394014958071 0.8744598011087188 0
60.27959410417843 0.4427704268117229 0
101.6338193503378 1.240989805408106 0
97.86875550050542 0.7867881858490311 0
117.4232133820766 0.9127604249750264 0
113.1810585995231 1.014977699249239 0
124.4149418486777 0.7994397967468312 0
108.5317002725031 1.550199064717784 0
93.5196544773512 0.779889040629509 0
78.06026792494721 0.6074381867676618 0
36.53528901579542 0.2401169697711901 0
50.37865384552305 0.2501555711064981 0
63.36139682383791 0.7789126570051699 0
60.84812829978238 29.65561808064387 0
98.82172355214178 3.16511201510749 0
15.41241662836198 3.331875060231976 0
155.5765710406463 3.850869568783385 0
459.4405783188637 86.82466626108015 0
448.8757191900525 113.369903377993 0
6.584070572885233 -0.2729953127866858 0
6.700311472533951 0.8542351063496845 0
8.080151954152905 1.483872892677173 0
18.31954564226941 3.582389424777429 0
73.45744326921317 2.737987430757382 0
-33.58947303769501 17.89877812420941 0
-36.8886587010717 24.26375206848869 0
384.3271363527691 9.084885991250312 0
245.0332126181822 6.755538195272545 0
476.4859473032327 8.440037931461962 0
298.3856710857164 7.343270529947547 0
142.6148366294845 4.378532593063618 0
39.55948945935686 7.708805265480486 0
-3.849438571440357 2.600711903985324 0
14.27438325876905 35.24477195300652 0
175.5599840228716 18.64389569260265 0
274.6409845379844 6.757196356992084 0
-59.2187266766643 11.26385257317178 0
-80.50455848267273 7.112721579077465 0
115.354855135034 15.40997274402747 0
49.36839776519905 21.49214772671213 0
472.222605545126 126.4342532330278 0
238.7873351534924 5.562381089247321 0
-76.30605805240954 7.336850265431686 0
61.29272492154746 2.452590704050894 0
-48.20025517585202 114.5235785129937 0
481.322223333607 8.812164172363444 0
22.91327931039762 1.524280702041461 0
0.4990723402180829 0.4400901821402388 0
0.1137914865380026 1.157573791979482 0
-0.7903277350329251 1.505171696893729 0
90.55188798113525 26.26699609828033 0
491.4826456145827 3.224843160109222 0
106.2363684081715 3.651120491849948 0
-75.35110375942146 57.08555039993073 0
196.0973366155013 4.928675444761787 0
212.6957960611131 1.77709294882887 0
19.75010143188774 6.639690952891077 0
-53.9379127277106 10.56640038514863 0
5.025701817313982 47.65672901223708 0
-9.032280273546785 48.8954508727863 0
-0.1974177221331007 66.99889768951388 0
33.33333333343742 103.4007084008384 0
-73.8454056366173 11.60519227550618 0
177.108407833908 46.42265950933464 0
326.5123713957512 13.45049718263617 0
-25.03217000064784 83.49978417014586 0
147.4070457166114 3.838039252027258 0
168.8026826135628 8.954990606450822 0
447.6267425597978 8.518360729152013 0
81.14524197517947 2.738639047821569 0
152.235113984989 20.39801622282008 0
12.69182110802564 0.1114240259774923 0
132.6333421802021 44.76158456818678 0
348.4136804720086 7.493978981917371 0
96.04793146507023 87.43707233638325 0
74.91495499054399 64.41250828769921 0
49.59535252286673 73.51803687268091 0
261.3911188371519 1.985597413655417 0
-46.12721260093781 10.6130129254551 0
286.5937666588113 17.35680711295335 0
439.7315694387913 55.52059229784108 0
23.81484847073727 0.0817622965676949 0
129.7997935347791 8.844312085062787 0
376.6240275102811 8.876960627115743 0
372.0727140253 15.8679450558918 0
209.80836628126 1.174977132860744 0
146.026599054724 80.04309330499677 0
299.8435502163506 91.78217149165536 0
93.0023511330098 2.852200351394341 0
364.3232955845817 93.21025030359166 0
405.3458644465094 69.23420486422229 0
14.0948992928589 24.72091998048634 0
13.57290646029804 8.04245429533772 0
71.38036921876821 41.24084748849694 0
85.24327005700763 46.80443182311993 0
336.3456724591346 7.864902404791344 0
39.59095597761058 4.347201132307262 0
30.27471741994398 23.02852960964871 0
225.3417528182111 5.202519611027727 0
26.46242206746143 1.626921561058957 0
379.0180593569034 63.07258021897506 0
53.04223486335138 2.035429614288269 0
456.1498301716259 13.87934870962125 0
218.3978531726942 5.042945486687094 0
207.813352785496 19.15034539802804 0
-74.04489391318718 21.53122896386328 0
496.0740795031265 2.264331026105663 0
263.08380832554 5.523612328292183 0
-96.78328870302829 6.962216198433874 0
435.6890417371386 23.89955783935457 0
7.430855385513981 9.652014718478592 0
188.2240675699999 11.14979007379947 0
-82.44522228324382 10.50471254953699 0
343.3723522533502 23.17184528551336 0
426.9471388564 24.29190023827899 0
464.0960319572691 8.174374048204086 0
160.8878475487223 18.5807430866517 0
166.8093546982182 25.40048025659917 0
304.9220555404036 7.880609433264593 0
400.5731218171658 15.98444833429498 0
406.5424943682322 8.234686146086579 0
-11.99153100856265 4.763612972046325 0
257.9097570640512 1.502363063646144 0
-1.778800812884574 1.914765710154562 0
362.0995352511045 7.642754262844602 0
3.54230687651183 1.186595397068631 0
-67.61801699642865 88.91052453551569 0
485.5852809204206 25.91181873905529 0
127.0592654977797 13.31370634192263 0
413.5423179815895 8.024767650400165 0
268.3362124437062 5.950384130266189 0
-8.118449531951308 1.600929872555653 0
-1.341618905204765 0.9512718286659922 0
414.8317479702954 120.2485980675743 0
-75.8306618563354 27.61215588140583 0
213.6528144469455 8.184538553372013 0
490.0647122444245 8.242249347346323 0
202.2697938586788 9.031641769177284 0
251.710423068777 5.687415031069439 0
-9.946209693721912 10.89999378331107 0
-84.34522642407548 24.19394432936638 0
79.07181148953998 13.08245171038034 0
393.6094030159622 7.502538253981577 0
214.2988762883496 4.400152719678688 0
458.8377901510322 8.845663736714942 0
232.0115585573362 5.106194427005922 0
32.85302267300347 1.396467286539603 0
126.238831778716 20.65464859093712 0
16.67626525810226 10.17598736854973 0
389.3248164192468 7.533110648234119 0
25.31150131237973 9.77806268886641 0
-26.93577909229725 9.919422549460648 0
2 4 0 20
968
969
970
971
972
973
974
975
976
977
978
979
980
981
982
983
984
985
986
987
-19.6108379198074 1.249999986029832 0
-23.25814894616619 1.249999986029832 0
-26.94230149533101 1.249999986029832 0
-30.66366770896734 1.249999986029832 0
-34.42262347905 1.249999986029832 0
-38.21954849842777 1.249999986029832 0
-42.05482630008552 1.249999986029832 0
-45.92884427781397 1.249999986029832 0
-49.84199374553916 1.249999986029832 0
-53.79466997884192 1.249999986029832 0
-57.78727223817417 1.249999986029832 0
-61.82020381161699 1.249999986029832 0
-65.8938720650049 1.249999986029832 0
-70.00868848650846 1.249999986029832 0
-74.16506871323423 1.249999986029832 0
-78.3634325771384 1.249999986029832 0
-82.60420415867605 1.249999986029832 0
-86.88781181580126 1.249999986029832 0
-91.21468823266611 1.249999986029832 0
-95.58527046937866 1.249999986029832 0
$EndNodes
$Elements
15 1887 1 1887
1 1 1 21
1 1 17 
2 17 18 
3 18 19 
4 19 20 
5 20 21 
6 21 22 
7 22 23 
8 23 24 
9 24 25 
10 25 26 
11 26 27 
12 27 28 
13 28 29 
14 29 30 
15 30 31 
16 31 32 
17 32 33 
18 33 34 
19 34 35 
20 35 36 
21 36 13 
1 2 1 1
22 2 10 
1 3 1 5
23 3 37 
24 37 38 
25 38 39 
26 39 40 
27 40 11 
1 8 1 9
28 5 41 
29 41 42 
30 42 43 
31 43 44 
32 44 45 
33 45 46 
34 46 47 
35 47 48 
36 48 6 
1 9 1 10
37 6 49 
38 49 50 
39 50 51 
40 51 52 
41 52 53 
42 53 54 
43 54 55 
44 55 56 
45 56 57 
46 57 15 
1 11 1 1
47 7 1 
1 15 1 1
48 10 3 
1 20 1 12
49 13 82 
50 82 83 
51 83 84 
52 84 85 
53 85 86 
54 86 87 
55 87 88 
56 88 89 
57 89 90 
58 90 91 
59 91 92 
60 92 2 
1 24 1 2
61 15 104 
62 104 7 
1 25 1 10
63 4 105 
64 105 106 
65 106 107 
66 107 108 
67 108 109 
68 109 110 
69 110 111 
70 111 112 
71 112 113 
72 113 5 
1 29 1 166
73 11 135 
74 135 136 
75 136 137 
76 137 138 
77 138 139 
78 139 140 
79 140 141 
80 141 142 
81 142 143 
82 143 144 
83 144 145 
84 145 146 
85 146 147 
86 147 148 
87 148 149 
88 149 150 
89 150 151 
90 151 152 
91 152 153 
92 153 154 
93 154 155 
94 155 156 
95 156 157 
96 157 158 
97 158 159 
98 159 160 
99 160 161 
100 161 162 
101 162 163 
102 163 164 
103 164 165 
104 165 166 
105 166 167 
106 167 168 
107 168 169 
108 169 170 
109 170 171 
110 171 172 
111 172 173 
112 173 174 
113 174 175 
114 175 176 
115 176 177 
116 177 178 
117 178 179 
118 179 180 
119 180 181 
120 181 182 
121 182 183 
122 183 184 
123 184 185 
124 185 186 
125 186 187 
126 187 188 
127 188 189 
128 189 190 
129 190 191 
130 191 192 
131 192 193 
132 193 194 
133 194 195 
134 195 196 
135 196 197 
136 197 198 
137 198 199 
138 199 200 
139 200 201 
140 201 202 
141 202 203 
142 203 204 
143 204 205 
144 205 206 
145 206 207 
146 207 208 
147 208 209 
148 209 210 
149 210 211 
150 211 212 
151 212 213 
152 213 214 
153 214 215 
154 215 216 
155 216 217 
156 217 218 
157 218 219 
158 219 220 
159 220 221 
160 221 222 
161 222 223 
162 223 224 
163 224 225 
164 225 226 
165 226 227 
166 227 228 
167 228 229 
168 229 230 
169 230 231 
170 231 232 
171 232 233 
172 233 234 
173 234 235 
174 235 236 
175 236 237 
176 237 238 
177 238 239 
178 239 240 
179 240 241 
180 241 242 
181 242 243 
182 243 244 
183 244 245 
184 245 246 
185 246 247 
186 247 248 
187 248 249 
188 249 250 
189 250 251 
190 251 252 
191 252 253 
192 253 254 
193 254 255 
194 255 256 
195 256 257 
196 257 258 
197 258 259 
198 259 260 
199 260 261 
200 261 262 
201 262 263 
202 263 264 
203 264 265 
204 265 266 
205 266 267 
206 267 268 
207 268 269 
208 269 270 
209 270 271 
210 271 272 
211 272 273 
212 273 274 
213 274 275 
214 275 276 
215 276 277 
216 277 278 
217 278 279 
218 279 280 
219 280 281 
220 281 282 
221 282 283 
222 283 284 
223 284 285 
224 285 286 
225 286 287 
226 287 288 
227 288 289 
228 289 290 
229 290 291 
230 291 292 
231 292 293 
232 293 294 
233 294 295 
234 295 296 
235 296 297 
236 297 298 
237 298 299 
238 299 4 
2 1 3 33
239 1 17 58 7 
240 17 18 59 58 
241 18 19 60 59 
242 19 20 61 60 
243 20 21 62 61 
244 21 22 63 62 
245 22 23 64 63 
246 23 24 65 64 
247 24 25 66 65 
248 25 26 67 66 
249 26 27 68 67 
250 27 28 69 68 
251 28 29 70 69 
252 29 30 71 70 
253 30 31 72 71 
254 31 32 73 72 
255 32 33 74 73 
256 33 34 75 74 
257 34 35 76 75 
258 35 36 77 76 
259 36 13 14 77 
260 13 82 93 14 
261 82 83 94 93 
262 83 84 95 94 
263 84 85 96 95 
264 85 86 97 96 
265 86 87 98 97 
266 87 88 99 98 
267 88 89 100 99 
268 89 90 101 100 
269 90 91 102 101 
270 91 92 103 102 
271 92 2 8 103 
2 2 3 10
272 3 37 300 10 
273 37 38 301 300 
274 38 39 302 301 
275 39 40 303 302 
276 40 11 12 303 
277 10 300 78 2 
278 300 301 79 78 
279 301 302 80 79 
280 302 303 81 80 
281 303 12 9 81 
2 3 2 1564
282 560 564 558 
283 345 928 419 
284 623 782 488 
285 447 918 433 
286 860 881 384 
287 395 408 397 
288 6 860 48 
289 717 733 716 
290 506 815 810 
291 914 919 728 
292 419 687 359 
293 133 375 349 
294 558 575 559 
295 696 697 511 
296 396 869 681 
297 395 397 394 
298 361 610 525 
299 502 561 507 
300 353 389 55 
301 391 420 392 
302 556 821 776 
303 462 931 626 
304 507 594 516 
305 380 464 383 
306 480 570 485 
307 436 445 432 
308 139 635 138 
309 395 411 409 
310 456 709 454 
311 352 367 93 
312 850 933 537 
313 355 580 579 
314 626 844 458 
315 459 616 358 
316 444 597 596 
317 709 889 454 
318 81 941 80 
319 790 846 313 
320 741 744 323 
321 733 739 593 
322 656 915 655 
323 592 934 739 
324 419 642 345 
325 383 848 645 
326 429 447 433 
327 527 557 528 
328 496 586 501 
329 395 409 408 
330 370 947 334 
331 492 584 496 
332 384 877 47 
333 424 589 340 
334 408 692 399 
335 385 916 906 
336 613 741 740 
337 621 830 818 
338 47 877 354 
339 372 848 383 
340 501 623 561 
341 540 784 665 
342 497 855 493 
343 734 845 613 
344 353 687 419 
345 354 890 46 
346 818 830 513 
347 150 675 149 
348 561 797 507 
349 817 859 488 
350 473 962 736 
351 744 851 576 
352 828 859 308 
353 487 917 783 
354 819 830 578 
355 798 801 799 
356 511 588 518 
357 397 408 399 
358 550 560 558 
359 578 830 673 
360 488 782 781 
361 764 954 320 
362 499 794 793 
363 550 558 552 
364 505 885 813 
365 315 832 750 
366 532 799 761 
367 309 839 811 
368 412 705 671 
369 529 882 767 
370 578 904 824 
371 317 786 747 
372 727 857 766 
373 566 609 565 
374 527 581 557 
375 442 450 439 
376 728 919 780 
377 439 452 437 
378 429 433 426 
379 620 868 777 
380 43 903 356 
381 685 882 750 
382 80 377 335 
383 472 736 653 
384 420 627 392 
385 761 832 788 
386 426 448 424 
387 306 962 785 
388 750 882 814 
389 539 567 542 
390 424 608 589 
391 356 905 42 
392 465 647 464 
393 16 375 133 
394 44 690 362 
395 829 855 503 
396 436 595 445 
397 639 646 418 
398 677 693 348 
399 544 565 547 
400 55 389 54 
401 591 596 363 
402 399 692 402 
403 355 690 44 
404 358 668 459 
405 491 855 829 
406 583 612 592 
407 602 881 401 
408 411 418 409 
409 48 384 47 
410 435 436 432 
411 94 368 352 
412 505 809 697 
413 47 354 46 
414 466 926 470 
415 511 518 512 
416 444 929 442 
417 771 772 554 
418 80 941 377 
419 353 391 389 
420 45 355 44 
421 544 566 565 
422 43 356 42 
423 360 622 45 
424 659 739 733 
425 454 725 450 
426 465 467 406 
427 352 937 367 
428 655 745 472 
429 45 622 355 
430 603 851 744 
431 511 697 588 
432 427 429 426 
433 409 414 410 
434 643 741 613 
435 568 927 539 
436 672 693 677 
437 605 837 607 
438 863 864 8 
439 415 894 670 
440 433 449 448 
441 659 733 717 
442 449 626 458 
443 621 818 779 
444 542 920 544 
445 430 925 429 
446 653 655 472 
447 433 462 449 
448 756 838 702 
449 48 860 384 
450 750 832 685 
451 558 559 552 
452 138 635 338 
453 507 516 508 
454 488 859 623 
455 94 352 93 
456 452 460 437 
457 681 869 339 
458 449 458 457 
459 539 927 567 
460 448 608 424 
461 462 626 449 
462 461 597 443 
463 726 939 645 
464 359 642 419 
465 594 797 794 
466 401 881 417 
467 443 597 444 
468 461 916 905 
469 586 782 501 
470 419 928 420 
471 409 852 414 
472 338 635 634 
473 8 864 341 
474 629 731 566 
475 491 829 500 
476 761 799 686 
477 363 689 614 
478 334 611 372 
479 549 666 546 
480 763 807 585 
481 418 640 639 
482 668 943 459 
483 810 815 674 
484 589 608 344 
485 415 670 601 
486 603 744 741 
487 794 797 795 
488 106 386 105 
489 368 947 370 
490 9 836 304 
491 645 848 726 
492 344 668 108 
493 411 878 640 
494 425 426 424 
495 353 419 391 
496 381 606 382 
497 435 437 436 
498 905 916 385 
499 418 852 409 
500 935 936 595 
501 437 935 436 
502 331 852 646 
503 442 454 450 
504 356 597 461 
505 475 872 517 
506 678 936 440 
507 570 652 572 
508 450 900 439 
509 382 464 380 
510 517 656 654 
511 674 815 310 
512 608 943 344 
513 375 376 349 
514 97 611 96 
515 554 778 771 
516 503 855 497 
517 446 930 680 
518 423 424 340 
519 496 501 497 
520 547 707 550 
521 306 759 652 
522 299 922 867 
523 592 739 659 
524 501 782 623 
525 492 496 493 
526 765 961 914 
527 341 948 101 
528 375 387 376 
529 402 671 403 
530 612 934 592 
531 582 591 363 
532 46 360 45 
533 480 485 482 
534 570 572 485 
535 486 847 492 
536 613 845 643 
537 527 528 526 
538 770 772 771 
539 619 831 514 
540 445 713 680 
541 44 362 43 
542 501 561 502 
543 78 863 8 
544 334 372 370 
545 627 878 411 
546 348 693 669 
547 318 901 732 
548 362 903 43 
549 46 890 360 
550 406 647 465 
551 620 777 555 
552 502 507 504 
553 399 402 401 
554 518 577 519 
555 376 421 349 
556 351 679 662 
557 383 463 372 
558 546 666 579 
559 485 847 486 
560 629 953 731 
561 595 945 713 
562 420 628 627 
563 344 943 668 
564 680 930 445 
565 696 957 516 
566 449 457 448 
567 134 367 16 
568 517 872 657 
569 657 838 756 
570 427 430 429 
571 458 459 457 
572 421 644 349 
573 387 937 371 
574 843 857 727 
575 409 410 408 
576 433 448 426 
577 414 415 410 
578 665 870 540 
579 652 962 306 
580 320 954 843 
581 673 904 578 
582 607 624 619 
583 521 620 555 
584 767 882 846 
585 406 467 407 
586 346 611 97 
587 411 640 418 
588 135 835 11 
589 867 922 386 
590 862 897 675 
591 836 837 605 
592 452 842 460 
593 414 703 415 
594 583 592 591 
595 96 334 95 
596 678 945 936 
597 474 675 150 
598 596 597 363 
599 493 855 486 
600 42 905 385 
601 595 713 445 
602 559 895 582 
603 305 897 862 
604 672 677 329 
605 782 917 487 
606 686 832 761 
607 799 801 753 
608 796 859 828 
609 560 649 564 
610 689 690 563 
611 80 335 79 
612 371 937 369 
613 525 617 361 
614 499 839 794 
615 311 868 779 
616 579 666 355 
617 304 836 605 
618 657 862 656 
619 467 469 407 
620 582 895 583 
621 577 621 620 
622 425 427 426 
623 646 852 418 
624 54 343 53 
625 363 903 689 
626 776 777 556 
627 561 859 796 
628 650 954 573 
629 54 389 343 
630 527 898 581 
631 648 852 331 
632 720 946 742 
633 392 956 391 
634 536 850 539 
635 405 705 412 
636 56 353 55 
637 567 663 629 
638 731 951 566 
639 694 839 309 
640 688 899 723 
641 697 885 505 
642 458 616 459 
643 661 715 662 
644 313 846 682 
645 466 470 468 
646 684 685 553 
647 671 705 403 
648 658 880 456 
649 4 922 299 
650 567 629 542 
651 111 340 110 
652 777 823 556 
653 340 589 110 
654 109 344 108 
655 519 620 521 
656 52 339 51 
657 534 791 773 
658 419 420 391 
659 725 940 450 
660 52 681 339 
661 680 712 351 
662 685 686 553 
663 469 849 515 
664 565 632 547 
665 511 957 696 
666 648 873 852 
667 95 947 94 
668 444 658 456 
669 56 687 353 
670 747 786 664 
671 736 962 653 
672 511 512 510 
673 305 862 755 
674 109 589 344 
675 402 692 600 
676 445 930 432 
677 682 791 313 
678 110 589 109 
679 662 680 351 
680 585 807 584 
681 386 922 105 
682 654 966 517 
683 732 951 731 
684 107 358 106 
685 563 690 666 
686 518 673 577 
687 528 886 530 
688 609 919 914 
689 685 832 686 
690 536 933 850 
691 510 957 511 
692 526 963 527 
693 318 731 730 
694 443 444 442 
695 402 403 401 
696 606 926 382 
697 710 940 706 
698 637 831 636 
699 407 705 405 
700 724 889 326 
701 683 882 685 
702 745 915 474 
703 600 841 402 
704 439 900 452 
705 414 873 703 
706 558 667 575 
707 568 754 749 
708 413 421 404 
709 539 542 541 
710 574 892 877 
711 669 693 670 
712 568 748 747 
713 355 622 580 
714 773 791 581 
715 374 937 387 
716 617 890 361 
717 429 715 447 
718 94 947 368 
719 542 544 543 
720 483 807 762 
721 423 425 424 
722 544 547 546 
723 809 810 697 
724 518 519 512 
725 385 906 599 
726 420 928 628 
727 441 442 439 
728 547 550 549 
729 96 611 334 
730 432 930 430 
731 339 869 416 
732 550 552 551 
733 358 386 106 
734 309 812 694 
735 564 667 558 
736 470 926 618 
737 438 439 437 
738 605 607 606 
739 108 668 107 
740 343 681 53 
741 557 684 528 
742 694 812 696 
743 804 807 483 
744 842 899 688 
745 829 909 500 
746 577 830 621 
747 324 934 719 
748 521 854 524 
749 480 654 570 
750 753 883 799 
751 379 864 373 
752 553 932 886 
753 524 963 526 
754 597 903 363 
755 428 833 599 
756 350 952 616 
757 596 658 444 
758 575 603 559 
759 385 949 42 
760 779 868 621 
761 636 887 321 
762 909 910 891 
763 363 614 582 
764 389 390 343 
765 507 508 504 
766 580 879 579 
767 101 948 100 
768 500 909 891 
769 607 837 634 
770 851 946 720 
771 415 601 600 
772 718 911 456 
773 573 938 650 
774 616 952 358 
775 581 682 557 
776 592 659 658 
777 492 585 584 
778 662 715 446 
779 616 861 350 
780 607 619 618 
781 310 904 674 
782 326 889 708 
783 460 935 437 
784 388 955 406 
785 575 851 603 
786 416 590 339 
787 563 666 549 
788 395 921 411 
789 517 966 475 
790 51 590 50 
791 454 929 456 
792 550 707 560 
793 623 859 561 
794 471 964 475 
795 387 388 376 
796 298 350 297 
797 664 786 743 
798 800 883 537 
799 634 635 624 
800 393 681 343 
801 636 831 619 
802 470 964 471 
803 530 886 531 
804 53 681 52 
805 495 876 874 
806 621 868 620 
807 568 749 748 
808 577 620 519 
809 384 876 574 
810 680 713 712 
811 475 966 476 
812 476 966 480 
813 436 935 595 
814 422 423 340 
815 297 630 296 
816 524 854 554 
817 57 687 56 
818 574 876 495 
819 607 634 624 
820 588 674 518 
821 112 422 111 
822 531 933 535 
823 508 957 510 
824 296 342 295 
825 50 590 365 
826 628 878 627 
827 379 865 864 
828 111 422 340 
829 586 917 782 
830 555 777 776 
831 671 840 413 
832 604 605 381 
833 98 346 97 
834 711 940 710 
835 366 863 79 
836 318 732 731 
837 431 432 430 
838 823 868 311 
839 434 435 432 
840 572 759 758 
841 527 944 898 
842 698 857 699 
843 517 657 656 
844 136 357 135 
845 683 685 684 
846 501 502 497 
847 456 911 709 
848 390 394 393 
849 592 658 596 
850 390 956 392 
851 490 849 479 
852 496 497 493 
853 295 625 294 
854 771 778 775 
855 335 366 79 
856 492 493 486 
857 139 887 635 
858 485 486 482 
859 469 515 407 
860 475 476 471 
861 412 413 404 
862 115 359 114 
863 480 482 476 
864 618 908 470 
865 914 961 631 
866 350 630 297 
867 457 608 448 
868 394 950 395 
869 682 846 683 
870 293 337 292 
871 116 642 115 
872 752 883 753 
873 294 641 293 
874 486 855 489 
875 777 868 823 
876 117 345 116 
877 120 336 119 
878 661 884 447 
879 470 471 468 
880 362 690 689 
881 133 349 132 
882 633 837 357 
883 507 797 594 
884 123 331 122 
885 392 950 390 
886 292 638 291 
887 725 889 724 
888 121 639 120 
889 755 862 756 
890 122 646 121 
891 514 908 619 
892 124 648 123 
893 299 867 298 
894 314 939 726 
895 730 731 665 
896 125 347 124 
897 719 934 845 
898 559 582 552 
899 296 630 342 
900 592 596 591 
901 137 633 136 
902 717 880 659 
903 321 637 636 
904 794 839 594 
905 535 933 536 
906 126 651 125 
907 114 924 15 
908 655 915 745 
909 643 895 741 
910 675 897 149 
911 127 330 126 
912 842 965 460 
913 598 906 434 
914 291 660 290 
915 447 715 661 
916 434 906 615 
917 583 591 582 
918 404 421 376 
919 673 830 577 
920 586 808 806 
921 666 690 355 
922 290 333 289 
923 15 924 57 
924 605 606 381 
925 5 856 113 
926 394 397 396 
927 382 465 464 
928 388 406 405 
929 519 521 520 
930 877 892 354 
931 42 949 41 
932 329 967 672 
933 128 669 127 
934 544 920 566 
935 650 923 667 
936 132 644 131 
937 113 364 112 
938 521 524 523 
939 635 887 636 
940 699 843 649 
941 524 526 525 
942 356 903 597 
943 383 464 463 
944 762 807 763 
945 778 854 555 
946 389 956 390 
947 594 694 516 
948 654 655 653 
949 129 348 128 
950 383 645 379 
951 723 899 327 
952 50 365 49 
953 857 961 548 
954 446 680 662 
955 342 625 295 
956 289 679 288 
957 138 338 137 
958 457 943 608 
959 806 917 586 
960 741 895 603 
961 799 883 800 
962 360 890 617 
963 390 950 394 
964 698 699 632 
965 130 677 129 
966 433 918 462 
967 694 696 516 
968 671 841 840 
969 564 954 650 
970 346 848 611 
971 598 896 428 
972 321 676 637 
973 391 956 389 
974 584 808 496 
975 604 941 304 
976 368 369 352 
977 141 321 140 
978 304 605 604 
979 554 963 524 
980 390 393 343 
981 480 966 654 
982 131 329 130 
983 284 440 283 
984 288 351 287 
985 415 600 410 
986 435 438 437 
987 115 642 359 
988 796 828 562 
989 753 801 316 
990 805 807 804 
991 609 914 631 
992 625 641 294 
993 749 751 538 
994 708 889 709 
995 652 759 572 
996 936 945 595 
997 107 668 358 
998 574 877 384 
999 776 821 522 
1000 279 688 278 
1001 293 641 337 
1002 771 774 312 
1003 371 955 387 
1004 345 642 116 
1005 397 399 398 
1006 379 939 865 
1007 581 898 773 
1008 496 808 586 
1009 537 883 754 
1010 747 927 568 
1011 738 934 324 
1012 136 633 357 
1013 539 541 536 
1014 280 453 279 
1015 456 880 718 
1016 441 443 442 
1017 583 643 612 
1018 699 857 843 
1019 461 905 356 
1020 944 963 554 
1021 631 698 632 
1022 632 707 547 
1023 554 854 778 
1024 656 862 675 
1025 555 854 521 
1026 765 914 319 
1027 748 749 538 
1028 337 638 292 
1029 120 639 336 
1030 427 431 430 
1031 285 678 284 
1032 287 712 286 
1033 283 721 282 
1034 706 940 451 
1035 661 662 333 
1036 534 802 791 
1037 417 881 860 
1038 99 726 98 
1039 770 771 312 
1040 489 491 490 
1041 142 676 141 
1042 542 543 541 
1043 331 646 122 
1044 544 546 543 
1045 458 861 616 
1046 760 912 758 
1047 508 510 509 
1048 547 549 546 
1049 438 441 439 
1050 118 853 117 
1051 121 646 639 
1052 367 937 374 
1053 123 648 331 
1054 278 723 277 
1055 550 551 549 
1056 281 691 280 
1057 795 796 562 
1058 269 704 268 
1059 752 753 316 
1060 795 797 796 
1061 791 802 313 
1062 653 962 652 
1063 843 954 649 
1064 274 451 273 
1065 722 936 935 
1066 270 455 269 
1067 266 716 265 
1068 525 888 617 
1069 347 648 124 
1070 775 776 522 
1071 119 858 118 
1072 143 700 142 
1073 442 929 454 
1074 440 936 721 
1075 849 874 515 
1076 571 902 617 
1077 261 719 260 
1078 663 870 665 
1079 254 720 253 
1080 275 706 274 
1081 246 727 245 
1082 243 729 242 
1083 609 631 565 
1084 339 590 51 
1085 240 728 239 
1086 273 724 272 
1087 234 730 233 
1088 672 840 693 
1089 271 708 270 
1090 231 743 230 
1091 225 751 224 
1092 276 710 275 
1093 228 746 227 
1094 286 332 285 
1095 219 761 218 
1096 216 750 215 
1097 125 651 347 
1098 213 767 212 
1099 377 941 604 
1100 159 757 158 
1101 566 951 609 
1102 268 737 267 
1103 206 768 205 
1104 196 779 195 
1105 203 774 202 
1106 342 626 625 
1107 282 328 281 
1108 277 327 276 
1109 272 326 271 
1110 399 401 400 
1111 645 939 379 
1112 638 660 291 
1113 264 593 263 
1114 265 733 264 
1115 259 613 258 
1116 144 477 143 
1117 153 472 152 
1118 267 325 266 
1119 262 324 261 
1120 257 323 256 
1121 252 322 251 
1122 624 636 619 
1123 255 576 254 
1124 151 474 150 
1125 263 738 262 
1126 146 478 145 
1127 553 886 684 
1128 260 734 259 
1129 249 573 248 
1130 258 740 257 
1131 152 745 151 
1132 256 744 255 
1133 145 735 144 
1134 253 742 252 
1135 148 305 147 
1136 162 481 161 
1137 247 320 246 
1138 241 319 240 
1139 244 548 243 
1140 235 318 234 
1141 147 755 146 
1142 248 764 247 
1143 238 545 237 
1144 154 736 153 
1145 245 766 244 
1146 242 765 241 
1147 170 487 169 
1148 330 651 126 
1149 239 780 238 
1150 168 587 167 
1151 232 540 231 
1152 155 473 154 
1153 229 317 228 
1154 223 316 222 
1155 217 315 216 
1156 664 870 663 
1157 226 538 225 
1158 211 313 210 
1159 161 792 160 
1160 160 484 159 
1161 178 498 177 
1162 233 784 232 
1163 775 778 776 
1164 163 762 162 
1165 169 783 168 
1166 220 532 219 
1167 209 534 208 
1168 509 909 829 
1169 230 786 229 
1170 117 853 345 
1171 176 562 175 
1172 164 483 163 
1173 516 957 508 
1174 224 787 223 
1175 568 850 754 
1176 394 396 393 
1177 349 644 132 
1178 186 505 185 
1179 180 499 179 
1180 227 789 226 
1181 222 801 221 
1182 184 695 183 
1183 218 788 217 
1184 214 529 213 
1185 221 798 220 
1186 171 781 170 
1187 188 506 187 
1188 207 533 206 
1189 172 488 171 
1190 210 802 209 
1191 177 803 176 
1192 212 790 211 
1193 194 513 193 
1194 192 578 191 
1195 179 793 178 
1196 201 522 200 
1197 199 556 198 
1198 204 312 203 
1199 197 311 196 
1200 190 310 189 
1201 215 814 214 
1202 182 309 181 
1203 208 816 207 
1204 185 813 184 
1205 187 809 186 
1206 181 811 180 
1207 428 599 598 
1208 183 825 182 
1209 193 819 192 
1210 189 815 188 
1211 156 785 155 
1212 195 818 194 
1213 167 827 166 
1214 205 822 204 
1215 191 824 190 
1216 202 820 201 
1217 200 821 199 
1218 198 823 197 
1219 412 671 413 
1220 175 828 174 
1221 867 952 350 
1222 158 826 157 
1223 165 804 164 
1224 157 306 156 
1225 173 817 172 
1226 166 307 165 
1227 174 308 173 
1228 413 672 421 
1229 567 664 663 
1230 423 428 425 
1231 495 849 490 
1232 290 660 333 
1233 833 834 599 
1234 670 693 601 
1235 552 614 551 
1236 799 800 686 
1237 629 920 542 
1238 336 858 119 
1239 518 674 673 
1240 435 615 438 
1241 237 871 236 
1242 570 653 652 
1243 570 654 653 
1244 477 702 701 
1245 309 825 812 
1246 631 961 698 
1247 639 640 336 
1248 382 466 465 
1249 127 669 330 
1250 607 618 606 
1251 860 942 417 
1252 304 941 81 
1253 364 422 112 
1254 886 932 531 
1255 700 701 637 
1256 560 699 649 
1257 643 845 612 
1258 477 701 700 
1259 489 855 491 
1260 528 530 526 
1261 382 926 466 
1262 776 778 555 
1263 682 683 557 
1264 812 825 695 
1265 431 434 432 
1266 502 504 503 
1267 454 889 725 
1268 434 615 435 
1269 338 633 137 
1270 421 967 644 
1271 876 881 602 
1272 506 810 809 
1273 298 867 350 
1274 333 679 289 
1275 662 679 333 
1276 337 714 638 
1277 236 901 235 
1278 657 872 838 
1279 566 920 629 
1280 348 669 128 
1281 749 752 751 
1282 872 964 514 
1283 617 902 360 
1284 631 632 565 
1285 380 383 379 
1286 531 535 530 
1287 599 949 385 
1288 686 800 553 
1289 676 700 637 
1290 714 960 918 
1291 410 692 408 
1292 327 899 711 
1293 754 883 752 
1294 703 894 415 
1295 771 775 774 
1296 251 893 250 
1297 358 952 386 
1298 649 954 564 
1299 852 873 414 
1300 140 887 139 
1301 477 735 702 
1302 630 844 342 
1303 538 789 748 
1304 515 875 705 
1305 898 944 772 
1306 622 902 580 
1307 743 870 664 
1308 659 880 658 
1309 758 912 572 
1310 306 826 759 
1311 660 661 333 
1312 494 495 490 
1313 312 822 770 
1314 378 604 381 
1315 450 940 711 
1316 515 705 407 
1317 650 667 564 
1318 336 878 858 
1319 129 677 348 
1320 149 897 148 
1321 491 500 494 
1322 98 726 346 
1323 548 961 729 
1324 537 932 800 
1325 702 735 478 
1326 634 837 633 
1327 539 850 568 
1328 131 644 329 
1329 541 879 536 
1330 748 789 746 
1331 400 416 398 
1332 651 703 347 
1333 357 837 836 
1334 759 826 757 
1335 118 858 853 
1336 397 398 396 
1337 388 404 376 
1338 890 891 361 
1339 683 684 557 
1340 463 647 371 
1341 562 803 795 
1342 569 866 610 
1343 350 861 630 
1344 416 869 398 
1345 325 718 717 
1346 572 847 485 
1347 581 791 682 
1348 770 822 768 
1349 403 602 401 
1350 357 836 835 
1351 368 370 369 
1352 569 909 509 
1353 316 787 752 
1354 466 468 467 
1355 672 967 421 
1356 425 896 427 
1357 478 756 702 
1358 361 910 610 
1359 325 737 718 
1360 689 903 362 
1361 684 886 528 
1362 288 679 351 
1363 846 882 683 
1364 519 520 512 
1365 721 936 722 
1366 695 885 812 
1367 795 803 498 
1368 357 835 135 
1369 594 839 694 
1370 758 759 757 
1371 747 748 746 
1372 796 797 561 
1373 105 922 4 
1374 402 841 671 
1375 329 677 130 
1376 522 820 775 
1377 611 848 372 
1378 718 737 704 
1379 378 381 380 
1380 619 908 618 
1381 406 407 405 
1382 752 787 751 
1383 456 929 444 
1384 451 940 725 
1385 307 827 806 
1386 459 943 457 
1387 307 806 805 
1388 411 921 627 
1389 769 770 768 
1390 431 598 434 
1391 57 924 687 
1392 484 760 758 
1393 711 900 450 
1394 100 314 99 
1395 891 910 361 
1396 484 792 760 
1397 481 763 760 
1398 475 964 872 
1399 590 942 365 
1400 521 523 520 
1401 588 810 674 
1402 524 525 523 
1403 794 795 498 
1404 367 374 16 
1405 599 906 598 
1406 587 917 806 
1407 490 913 489 
1408 806 827 587 
1409 775 820 774 
1410 699 707 632 
1411 647 955 371 
1412 250 938 249 
1413 669 670 330 
1414 739 934 738 
1415 584 807 805 
1416 918 960 462 
1417 533 816 773 
1418 533 773 769 
1419 600 692 410 
1420 601 841 600 
1421 760 792 481 
1422 460 958 722 
1423 767 846 790 
1424 365 942 860 
1425 705 875 403 
1426 320 843 727 
1427 405 412 404 
1428 773 816 534 
1429 760 763 585 
1430 492 847 585 
1431 406 955 647 
1432 378 379 373 
1433 585 912 760 
1434 508 509 504 
1435 614 689 551 
1436 667 946 575 
1437 334 947 95 
1438 141 676 321 
1439 849 907 479 
1440 342 844 626 
1441 284 678 440 
1442 440 721 283 
1443 351 712 287 
1444 469 907 849 
1445 453 688 279 
1446 479 913 490 
1447 464 647 463 
1448 399 400 398 
1449 428 896 425 
1450 388 405 404 
1451 712 713 332 
1452 377 604 378 
1453 530 888 526 
1454 510 569 509 
1455 372 463 370 
1456 635 636 624 
1457 688 723 278 
1458 359 924 114 
1459 805 808 584 
1460 502 503 497 
1461 476 479 471 
1462 441 461 443 
1463 486 489 482 
1464 321 887 140 
1465 582 614 552 
1466 504 829 503 
1467 535 580 571 
1468 280 691 453 
1469 523 610 520 
1470 630 861 844 
1471 422 833 423 
1472 536 879 535 
1473 427 896 431 
1474 400 417 416 
1475 526 888 525 
1476 395 950 921 
1477 772 944 554 
1478 742 946 322 
1479 474 915 675 
1480 834 856 41 
1481 575 946 851 
1482 718 880 717 
1483 551 563 549 
1484 535 571 530 
1485 754 850 537 
1486 338 634 633 
1487 543 579 541 
1488 687 924 359 
1489 840 841 601 
1490 466 467 465 
1491 640 878 336 
1492 374 375 16 
1493 142 700 676 
1494 491 494 490 
1495 664 927 747 
1496 286 712 332 
1497 332 678 285 
1498 721 722 328 
1499 282 721 328 
1500 374 387 375 
1501 627 921 392 
1502 674 904 673 
1503 468 469 467 
1504 696 885 697 
1505 702 838 701 
1506 453 842 688 
1507 722 935 460 
1508 381 382 380 
1509 455 704 269 
1510 274 706 451 
1511 560 707 699 
1512 806 808 805 
1513 452 899 842 
1514 277 723 327 
1515 328 691 281 
1516 626 931 625 
1517 451 724 273 
1518 494 574 495 
1519 603 895 559 
1520 701 831 637 
1521 270 708 455 
1522 921 950 392 
1523 769 772 770 
1524 704 737 268 
1525 580 902 571 
1526 275 710 706 
1527 925 930 446 
1528 891 892 500 
1529 477 700 143 
1530 899 900 711 
1531 272 724 326 
1532 617 888 571 
1533 326 708 271 
1534 865 948 341 
1535 327 710 276 
1536 716 733 265 
1537 113 856 364 
1538 325 716 266 
1539 324 719 261 
1540 719 734 260 
1541 267 737 325 
1542 347 873 648 
1543 864 865 341 
1544 858 878 628 
1545 610 910 569 
1546 720 742 253 
1547 576 720 254 
1548 264 733 593 
1549 593 738 263 
1550 262 738 324 
1551 613 740 258 
1552 259 734 613 
1553 423 833 428 
1554 257 740 323 
1555 320 727 246 
1556 548 729 243 
1557 727 766 245 
1558 472 745 152 
1559 729 765 242 
1560 144 735 477 
1561 323 744 256 
1562 319 728 240 
1563 252 742 322 
1564 370 463 371 
1565 151 745 474 
1566 255 744 576 
1567 728 780 239 
1568 318 730 234 
1569 478 735 145 
1570 153 736 472 
1571 146 755 478 
1572 730 784 233 
1573 429 925 715 
1574 573 764 248 
1575 305 755 147 
1576 749 754 752 
1577 247 764 320 
1578 540 743 231 
1579 743 786 230 
1580 244 766 548 
1581 241 765 319 
1582 751 787 224 
1583 317 746 228 
1584 538 751 225 
1585 746 789 227 
1586 315 750 216 
1587 844 861 458 
1588 481 792 161 
1589 701 838 831 
1590 761 788 218 
1591 532 761 219 
1592 238 780 545 
1593 162 762 481 
1594 484 757 159 
1595 473 736 154 
1596 750 814 215 
1597 767 790 212 
1598 529 767 213 
1599 487 783 169 
1600 853 928 345 
1601 232 784 540 
1602 168 783 587 
1603 160 792 484 
1604 533 768 206 
1605 170 781 487 
1606 229 786 317 
1607 768 822 205 
1608 223 787 316 
1609 779 818 195 
1610 311 779 196 
1611 757 826 158 
1612 312 774 203 
1613 774 820 202 
1614 316 801 222 
1615 226 789 538 
1616 217 788 315 
1617 483 762 163 
1618 313 802 210 
1619 211 790 313 
1620 498 803 177 
1621 178 793 498 
1622 220 798 532 
1623 221 801 798 
1624 545 871 237 
1625 209 802 534 
1626 176 803 562 
1627 587 827 167 
1628 155 785 473 
1629 499 793 179 
1630 488 781 171 
1631 534 816 208 
1632 505 813 185 
1633 214 814 529 
1634 186 809 505 
1635 184 813 695 
1636 207 816 533 
1637 180 811 499 
1638 506 809 187 
1639 695 825 183 
1640 188 815 506 
1641 562 828 175 
1642 164 804 483 
1643 513 819 193 
1644 192 819 578 
1645 194 818 513 
1646 578 824 191 
1647 310 815 189 
1648 309 811 181 
1649 522 821 200 
1650 556 823 198 
1651 201 820 522 
1652 199 821 556 
1653 204 822 312 
1654 190 824 310 
1655 182 825 309 
1656 197 823 311 
1657 337 960 714 
1658 172 817 488 
1659 693 840 601 
1660 756 862 657 
1661 306 785 156 
1662 166 827 307 
1663 157 826 306 
1664 370 371 369 
1665 307 804 165 
1666 174 828 308 
1667 308 817 173 
1668 714 884 638 
1669 398 869 396 
1670 327 711 710 
1671 322 893 251 
1672 638 884 660 
1673 373 864 366 
1674 235 901 318 
1675 416 942 590 
1676 314 948 939 
1677 451 725 724 
1678 831 838 514 
1679 378 380 379 
1680 871 901 236 
1681 364 834 833 
1682 510 866 569 
1683 704 911 718 
1684 148 897 305 
1685 625 931 641 
1686 431 896 598 
1687 708 709 455 
1688 579 879 541 
1689 360 902 622 
1690 330 894 651 
1691 249 938 573 
1692 853 858 628 
1693 812 885 696 
1694 335 377 373 
1695 618 926 606 
1696 452 900 899 
1697 325 717 716 
1698 514 964 908 
1699 387 955 388 
1700 512 866 510 
1701 593 739 738 
1702 447 884 714 
1703 551 689 563 
1704 755 756 478 
1705 698 961 857 
1706 719 845 734 
1707 740 741 323 
1708 660 884 661 
1709 576 851 720 
1710 766 857 548 
1711 413 840 672 
1712 762 763 481 
1713 535 879 580 
1714 484 758 757 
1715 783 917 587 
1716 703 873 347 
1717 781 782 487 
1718 317 747 746 
1719 798 799 532 
1720 788 832 315 
1721 307 805 804 
1722 793 794 498 
1723 814 882 529 
1724 500 892 494 
1725 811 839 499 
1726 509 829 504 
1727 308 859 817 
1728 813 885 695 
1729 513 830 819 
1730 533 769 768 
1731 780 919 545 
1732 540 870 743 
1733 847 912 585 
1734 494 892 574 
1735 572 912 847 
1736 893 938 250 
1737 641 960 337 
1738 569 910 909 
1739 874 876 875 
1740 824 904 310 
1741 100 948 314 
1742 715 925 446 
1743 364 833 422 
1744 651 894 703 
1745 932 933 531 
1746 610 866 520 
1747 571 888 530 
1748 471 907 468 
1749 354 892 891 
1750 322 946 923 
1751 384 881 876 
1752 403 875 602 
1753 709 911 455 
1754 482 913 476 
1755 773 898 769 
1756 670 894 330 
1757 364 856 834 
1758 314 726 99 
1759 663 953 629 
1760 615 916 438 
1761 369 937 352 
1762 609 951 919 
1763 845 934 612 
1764 103 341 102 
1765 800 932 553 
1766 834 949 599 
1767 874 875 515 
1768 697 810 588 
1769 520 866 512 
1770 335 373 366 
1771 583 895 643 
1772 438 916 441 
1773 417 942 416 
1774 835 836 9 
1775 714 918 447 
1776 455 911 704 
1777 468 907 469 
1778 628 928 853 
1779 386 952 867 
1780 931 960 641 
1781 713 945 332 
1782 354 891 890 
1783 319 914 728 
1784 377 378 373 
1785 441 916 461 
1786 567 927 664 
1787 573 954 764 
1788 665 953 663 
1789 785 962 473 
1790 838 872 514 
1791 644 967 329 
1792 875 876 602 
1793 430 930 925 
1794 939 948 865 
1795 731 953 665 
1796 476 913 479 
1797 479 907 471 
1798 332 945 678 
1799 769 898 772 
1800 12 835 9 
1801 722 958 328 
1802 489 913 482 
1803 460 965 958 
1804 453 965 842 
1805 328 958 691 
1806 366 864 863 
1807 322 923 893 
1808 691 965 453 
1809 537 933 932 
1810 732 959 951 
1811 675 915 656 
1812 495 874 849 
1813 665 784 730 
1814 527 963 944 
1815 729 961 765 
1816 908 964 470 
1817 545 959 871 
1818 919 959 545 
1819 462 960 931 
1820 951 959 919 
1821 41 949 834 
1822 958 965 691 
1823 732 901 871 
1824 650 938 893 
1825 893 923 650 
1826 871 959 732 
1827 923 946 667 
1828 41 856 5 
1829 8 341 103 
1830 9 304 81 
1831 2 78 8 
1832 49 365 6 
1833 365 860 6 
1834 11 835 12 
1835 93 367 14 
1836 14 367 134 
1837 79 863 78 
1838 102 341 101 
1839 726 848 346 
1840 396 681 393 
1841 401 417 400 
1842 525 610 523 
1843 546 579 543 
1844 906 916 615 
1845 654 656 655 
2 4 3 42
1846 14 77 968 134 
1847 77 76 969 968 
1848 76 75 970 969 
1849 75 74 971 970 
1850 74 73 972 971 
1851 73 72 973 972 
1852 72 71 974 973 
1853 71 70 975 974 
1854 70 69 976 975 
1855 69 68 977 976 
1856 68 67 978 977 
1857 67 66 979 978 
1858 66 65 980 979 
1859 65 64 981 980 
1860 64 63 982 981 
1861 63 62 983 982 
1862 62 61 984 983 
1863 61 60 985 984 
1864 60 59 986 985 
1865 59 58 987 986 
1866 58 7 104 987 
1867 134 968 133 16 
1868 968 969 132 133 
1869 969 970 131 132 
1870 970 971 130 131 
1871 971 972 129 130 
1872 972 973 128 129 
1873 973 974 127 128 
1874 974 975 126 127 
1875 975 976 125 126 
1876 976 977 124 125 
1877 977 978 123 124 
1878 978 979 122 123 
1879 979 980 121 122 
1880 980 981 120 121 
1881 981 982 119 120 
1882 982 983 118 119 
1883 983 984 117 118 
1884 984 985 116 117 
1885 985 986 115 116 
1886 986 987 114 115 
1887 987 104 15 114 
$EndElements
