<?xml version="1.0" encoding="utf-8" ?>
<NEKTAR>
<POINTS DIM="2" FIELDS="">
208.500000 0.000000
208.500000 0.000418
208.500000 0.001672
208.500000 0.003763
208.500000 0.006689
208.500000 0.010451
208.500000 0.015050
208.500000 0.020485
208.500000 0.026756
208.500000 0.033863
208.500000 0.041806
208.500000 0.050585
208.500000 0.060201
208.500000 0.070652
208.500000 0.081940
208.500000 0.094063
208.500000 0.107023
208.500000 0.120819
208.500000 0.135451
208.500000 0.150919
208.500000 0.167224
208.500000 0.184364
208.500000 0.202341
208.500000 0.221153
208.500000 0.240802
208.500000 0.261287
208.500000 0.282608
208.500000 0.304765
208.500000 0.327758
208.500000 0.351588
208.500000 0.376253
208.500000 0.401755
208.500000 0.428092
208.500000 0.455266
208.500000 0.483276
208.500000 0.512122
208.500000 0.541805
208.500000 0.572323
208.500000 0.603677
208.500000 0.635868
208.500000 0.668894
208.500000 0.702757
208.500000 0.737456
208.500000 0.772991
208.500000 0.809362
208.500000 0.846570
208.500000 0.884613
208.500000 0.923492
208.500000 0.963208
208.500000 1.003760
208.500000 1.045148
208.500000 1.087372
208.500000 1.130432
208.500000 1.174328
208.500000 1.219060
208.500000 1.264629
208.500000 1.311033
208.500000 1.358274
208.500000 1.406351
208.500000 1.455264
208.500000 1.505013
208.500000 1.555598
208.500000 1.607019
208.500000 1.659276
208.500000 1.712370
208.500000 1.766299
208.500000 1.821065
208.500000 1.876667
208.500000 1.933105
208.500000 1.990379
208.500000 2.048489
208.500000 2.107436
208.500000 2.167218
208.500000 2.227837
208.500000 2.289291
208.500000 2.351582
208.500000 2.414709
208.500000 2.478672
208.500000 2.543471
208.500000 2.609106
208.500000 2.675578
208.500000 2.742885
208.500000 2.811029
208.500000 2.880009
208.500000 2.949825
208.500000 3.020477
208.500000 3.091965
208.500000 3.164289
208.500000 3.237449
208.500000 3.311446
208.500000 3.386278
208.500000 3.461947
208.500000 3.538452
208.500000 3.615793
208.500000 3.693970
208.500000 3.772983
208.500000 3.852832
208.500000 3.933517
208.500000 4.015039
208.500000 4.097397
208.500000 4.180590
208.500000 4.264620
208.500000 4.349486
208.500000 4.435188
208.500000 4.521727
208.500000 4.609101
208.500000 4.697311
208.500000 4.786358
208.500000 4.876241
208.500000 4.966959
208.500000 5.058514
208.500000 5.150905
208.500000 5.244133
208.500000 5.338196
208.500000 5.433095
208.500000 5.528831
208.500000 5.625402
208.500000 5.722810
208.500000 5.821054
208.500000 5.920134
208.500000 6.020050
208.500000 6.120802
208.500000 6.222391
208.500000 6.324815
208.500000 6.428076
208.500000 6.532172
208.500000 6.637105
208.500000 6.742874
208.500000 6.849479
208.500000 6.956920
208.500000 7.065198
208.500000 7.174311
208.500000 7.284261
208.500000 7.395046
208.500000 7.506668
208.500000 7.619126
208.500000 7.732420
208.500000 7.846550
208.500000 7.961516
208.500000 8.077319
208.500000 8.193957
208.500000 8.311432
208.500000 8.429742
208.500000 8.548889
208.500000 8.668872
208.500000 8.789691
208.500000 8.911346
208.500000 9.033838
208.500000 9.157165
208.500000 9.281329
208.500000 9.406328
208.500000 9.532164
208.500000 9.658836
208.500000 9.786344
208.500000 9.914688
208.500000 10.043868
208.500000 10.173885
208.500000 10.304737
208.500000 10.436426
208.500000 10.568950
208.500000 10.702311
208.500000 10.836508
208.500000 10.971541
208.500000 11.107411
208.500000 11.244116
208.500000 11.381657
208.500000 11.520035
208.500000 11.659248
208.500000 11.799298
208.500000 11.940184
208.500000 12.081906
208.500000 12.224464
208.500000 12.367859
208.500000 12.512089
208.500000 12.657155
208.500000 12.803058
208.500000 12.949797
208.500000 13.097372
208.500000 13.245782
208.500000 13.395030
208.500000 13.545113
208.500000 13.696032
208.500000 13.847787
208.500000 14.000379
208.500000 14.153807
208.500000 14.308070
208.500000 14.463170
208.500000 14.619106
208.500000 14.775879
208.500000 14.933487
208.500000 15.091931
208.500000 15.251212
208.500000 15.411328
208.500000 15.572281
208.500000 15.734070
208.500000 15.896695
208.500000 16.060156
208.500000 16.224453
208.500000 16.389586
208.500000 16.555556
208.500000 16.722361
208.500000 16.890003
208.500000 17.058481
208.500000 17.227795
208.500000 17.397945
208.500000 17.568931
208.500000 17.740753
208.500000 17.913412
208.500000 18.086906
208.500000 18.261237
208.500000 18.436403
208.500000 18.612406
208.500000 18.789245
208.500000 18.966920
208.500000 19.145432
208.500000 19.324779
208.500000 19.504962
208.500000 19.685982
208.500000 19.867838
208.500000 20.050529
208.500000 20.234057
208.500000 20.418421
208.500000 20.603622
208.500000 20.789658
208.500000 20.976530
208.500000 21.164239
208.500000 21.352783
208.500000 21.542164
208.500000 21.732381
208.500000 21.923434
208.500000 22.115323
208.500000 22.308048
208.500000 22.501610
208.500000 22.696007
208.500000 22.891241
208.500000 23.087310
208.500000 23.284216
208.500000 23.481958
208.500000 23.680536
208.500000 23.879950
208.500000 24.080200
208.500000 24.281287
208.500000 24.483209
208.500000 24.685968
208.500000 24.889563
208.500000 25.093994
208.500000 25.299261
208.500000 25.505364
208.500000 25.712303
208.500000 25.920078
208.500000 26.128690
208.500000 26.338137
208.500000 26.548421
208.500000 26.759541
208.500000 26.971497
208.500000 27.184289
208.500000 27.397917
208.500000 27.612381
208.500000 27.827682
208.500000 28.043818
208.500000 28.260791
208.500000 28.478600
208.500000 28.697244
208.500000 28.916725
208.500000 29.137043
208.500000 29.358196
208.500000 29.580185
208.500000 29.803011
208.500000 30.026672
208.500000 30.251170
208.500000 30.476504
208.500000 30.702674
208.500000 30.929680
208.500000 31.157522
208.500000 31.386200
208.500000 31.615715
208.500000 31.846065
208.500000 32.077252
208.500000 32.309275
208.500000 32.542133
208.500000 32.775828
208.500000 33.010360
208.500000 33.245727
208.500000 33.481930
208.500000 33.718970
208.500000 33.956845
208.500000 34.195557
208.500000 34.435105
208.500000 34.675489
208.500000 34.916709
208.500000 35.158765
208.500000 35.401657
208.500000 35.645386
208.500000 35.889950
208.500000 36.135351
208.500000 36.381588
208.500000 36.628660
208.500000 36.876569
208.500000 37.125315
208.500000 37.374896
208.500000 37.625313
208.500000 37.876567
208.500000 38.128656
208.500000 38.381582
208.500000 38.635344
208.500000 38.889942
208.500000 39.145376
208.500000 39.401646
208.500000 39.658752
208.500000 39.916695
208.500000 40.175473
208.500000 40.435088
208.500000 40.695539
208.500000 40.956826
208.500000 41.218949
208.500000 41.481908
208.500000 41.745703
208.500000 42.010334
208.500000 42.275802
208.500000 42.542106
208.500000 42.809245
208.500000 43.077221
208.500000 43.346033
208.500000 43.615681
208.500000 43.886165
208.500000 44.157486
208.500000 44.429642
208.500000 44.702635
208.500000 44.976463
208.500000 45.251128
208.500000 45.526629
208.500000 45.802966
208.500000 46.080139
208.500000 46.358148
208.500000 46.636994
208.500000 46.916675
208.500000 47.197193
208.500000 47.478547
208.500000 47.760736
208.500000 48.043762
208.500000 48.327625
208.500000 48.612323
208.500000 48.897857
208.500000 49.184227
208.500000 49.471434
208.500000 49.759477
208.500000 50.048355
208.500000 50.338070
208.500000 50.628621
208.500000 50.920009
208.500000 51.212232
208.500000 51.505291
208.500000 51.799187
208.500000 52.093918
208.500000 52.389486
208.500000 52.685890
208.500000 52.983130
208.500000 53.281206
208.500000 53.580118
208.500000 53.879867
208.500000 54.180451
208.500000 54.481872
208.500000 54.784128
208.500000 55.087221
208.500000 55.391150
208.500000 55.695915
208.500000 56.001516
208.500000 56.307953
208.500000 56.615227
208.500000 56.923336
208.500000 57.232282
208.500000 57.542064
208.500000 57.852682
208.500000 58.164136
208.500000 58.476426
208.500000 58.789552
208.500000 59.103514
208.500000 59.418313
208.500000 59.733947
208.500000 60.050418
208.500000 60.367725
208.500000 60.685868
208.500000 61.004847
208.500000 61.324662
208.500000 61.645313
208.500000 61.966801
208.500000 62.289124
208.500000 62.612284
208.500000 62.936279
208.500000 63.261111
208.500000 63.586779
208.500000 63.913283
208.500000 64.240624
208.500000 64.568800
208.500000 64.897812
208.500000 65.227661
208.500000 65.558346
208.500000 65.889867
208.500000 66.222223
208.500000 66.555417
208.500000 66.889446
208.500000 67.224311
208.500000 67.560012
208.500000 67.896550
208.500000 68.233924
208.500000 68.572133
208.500000 68.911179
208.500000 69.251061
208.500000 69.591779
208.500000 69.933334
208.500000 70.275724
208.500000 70.618950
208.500000 70.963013
208.500000 71.307912
208.500000 71.653646
208.500000 72.000217
208.500000 72.347624
208.500000 72.695868
208.500000 73.044947
208.500000 73.394862
208.500000 73.745614
208.500000 74.097202
208.500000 74.449625
208.500000 74.802885
208.500000 75.156981
208.500000 75.511913
208.500000 75.867682
208.500000 76.224286
208.500000 76.581726
208.500000 76.940003
208.500000 77.299116
208.500000 77.659064
208.500000 78.019849
208.500000 78.381471
208.500000 78.743928
208.500000 79.107221
208.500000 79.471350
208.500000 79.836316
208.500000 80.202118
208.500000 80.568755
208.500000 80.936229
208.500000 81.304539
208.500000 81.673685
208.500000 82.043668
208.500000 82.414486
208.500000 82.786141
208.500000 83.158631
208.500000 83.531958
208.500000 83.906121
208.500000 84.281120
208.500000 84.656955
208.500000 85.033626
208.500000 85.411133
208.500000 85.789477
208.500000 86.168656
208.500000 86.548672
208.500000 86.929524
208.500000 87.311212
208.500000 87.693736
208.500000 88.077096
208.500000 88.461292
208.500000 88.846324
208.500000 89.232193
208.500000 89.618897
208.500000 90.006438
208.500000 90.394815
208.500000 90.784028
208.500000 91.174077
208.500000 91.564962
208.500000 91.956684
208.500000 92.349241
208.500000 92.742634
208.500000 93.136864
208.500000 93.531930
208.500000 93.927832
208.500000 94.324570
208.500000 94.722144
208.500000 95.120554
208.500000 95.519801
208.500000 95.919883
208.500000 96.320802
208.500000 96.722557
208.500000 97.125147
208.500000 97.528574
208.500000 97.932837
208.500000 98.337937
208.500000 98.743872
208.500000 99.150643
208.500000 99.558251
208.500000 99.966695
208.500000 100.375974
208.500000 100.786090
208.500000 101.197042
208.500000 101.608831
208.500000 102.021455
208.500000 102.434915
208.500000 102.849212
208.500000 103.264344
208.500000 103.680313
208.500000 104.097118
208.500000 104.514759
208.500000 104.933236
208.500000 105.352549
208.500000 105.772699
208.500000 106.193684
208.500000 106.615506
208.500000 107.038163
208.500000 107.461657
208.500000 107.885987
208.500000 108.311153
208.500000 108.737155
208.500000 109.163993
208.500000 109.591668
208.500000 110.020178
208.500000 110.449525
208.500000 110.879708
208.500000 111.310727
208.500000 111.742582
208.500000 112.175273
208.500000 112.608800
208.500000 113.043163
208.500000 113.478363
208.500000 113.914398
208.500000 114.351270
208.500000 114.788978
208.500000 115.227522
208.500000 115.666902
208.500000 116.107118
208.500000 116.548170
208.500000 116.990059
208.500000 117.432783
208.500000 117.876344
208.500000 118.320740
208.500000 118.765973
208.500000 119.212042
208.500000 119.658947
208.500000 120.106689
208.500000 120.555266
208.500000 121.004679
208.500000 121.454929
208.500000 121.906015
208.500000 122.357937
208.500000 122.810695
208.500000 123.264289
208.500000 123.718719
208.500000 124.173985
208.500000 124.630087
208.500000 125.087026
208.500000 125.544801
208.500000 126.003411
208.500000 126.462858
208.500000 126.923141
208.500000 127.384260
208.500000 127.846216
208.500000 128.309007
208.500000 128.772634
208.500000 129.237098
208.500000 129.702398
208.500000 130.168534
208.500000 130.635505
208.500000 131.103314
208.500000 131.571958
208.500000 132.041438
208.500000 132.511754
208.500000 132.982907
208.500000 133.454896
208.500000 133.927720
208.500000 134.401381
208.500000 134.875878
208.500000 135.351211
208.500000 135.827381
208.500000 136.304386
208.500000 136.782227
208.500000 137.260905
208.500000 137.740419
208.500000 138.220769
208.500000 138.701955
208.500000 139.183977
208.500000 139.666835
208.500000 140.150529
208.500000 140.635060
208.500000 141.120426
208.500000 141.606629
208.500000 142.093668
208.500000 142.581542
208.500000 143.070253
208.500000 143.559801
208.500000 144.050184
208.500000 144.541403
208.500000 145.033459
208.500000 145.526350
208.500000 146.020078
208.500000 146.514642
208.500000 147.010042
208.500000 147.506278
208.500000 148.003350
208.500000 148.501258
208.500000 149.000003
208.500000 149.499583
208.500000 150.000000
</POINTS>
</NEKTAR>

