<?xml version="1.0" encoding="utf-8" ?>
<NEKTAR>
<POINTS DIM="2" FIELDS="">
928.500000 0.000000
928.500000 0.000418
928.500000 0.001672
928.500000 0.003763
928.500000 0.006689
928.500000 0.010451
928.500000 0.015050
928.500000 0.020485
928.500000 0.026756
928.500000 0.033863
928.500000 0.041806
928.500000 0.050585
928.500000 0.060201
928.500000 0.070652
928.500000 0.081940
928.500000 0.094063
928.500000 0.107023
928.500000 0.120819
928.500000 0.135451
928.500000 0.150919
928.500000 0.167224
928.500000 0.184364
928.500000 0.202341
928.500000 0.221153
928.500000 0.240802
928.500000 0.261287
928.500000 0.282608
928.500000 0.304765
928.500000 0.327758
928.500000 0.351588
928.500000 0.376253
928.500000 0.401755
928.500000 0.428092
928.500000 0.455266
928.500000 0.483276
928.500000 0.512122
928.500000 0.541805
928.500000 0.572323
928.500000 0.603677
928.500000 0.635868
928.500000 0.668894
928.500000 0.702757
928.500000 0.737456
928.500000 0.772991
928.500000 0.809362
928.500000 0.846570
928.500000 0.884613
928.500000 0.923492
928.500000 0.963208
928.500000 1.003760
928.500000 1.045148
928.500000 1.087372
928.500000 1.130432
928.500000 1.174328
928.500000 1.219060
928.500000 1.264629
928.500000 1.311033
928.500000 1.358274
928.500000 1.406351
928.500000 1.455264
928.500000 1.505013
928.500000 1.555598
928.500000 1.607019
928.500000 1.659276
928.500000 1.712370
928.500000 1.766299
928.500000 1.821065
928.500000 1.876667
928.500000 1.933105
928.500000 1.990379
928.500000 2.048489
928.500000 2.107436
928.500000 2.167218
928.500000 2.227837
928.500000 2.289291
928.500000 2.351582
928.500000 2.414709
928.500000 2.478672
928.500000 2.543471
928.500000 2.609106
928.500000 2.675578
928.500000 2.742885
928.500000 2.811029
928.500000 2.880009
928.500000 2.949825
928.500000 3.020477
928.500000 3.091965
928.500000 3.164289
928.500000 3.237449
928.500000 3.311446
928.500000 3.386278
928.500000 3.461947
928.500000 3.538452
928.500000 3.615793
928.500000 3.693970
928.500000 3.772983
928.500000 3.852832
928.500000 3.933517
928.500000 4.015039
928.500000 4.097397
928.500000 4.180590
928.500000 4.264620
928.500000 4.349486
928.500000 4.435188
928.500000 4.521727
928.500000 4.609101
928.500000 4.697311
928.500000 4.786358
928.500000 4.876241
928.500000 4.966959
928.500000 5.058514
928.500000 5.150905
928.500000 5.244133
928.500000 5.338196
928.500000 5.433095
928.500000 5.528831
928.500000 5.625402
928.500000 5.722810
928.500000 5.821054
928.500000 5.920134
928.500000 6.020050
928.500000 6.120802
928.500000 6.222391
928.500000 6.324815
928.500000 6.428076
928.500000 6.532172
928.500000 6.637105
928.500000 6.742874
928.500000 6.849479
928.500000 6.956920
928.500000 7.065198
928.500000 7.174311
928.500000 7.284261
928.500000 7.395046
928.500000 7.506668
928.500000 7.619126
928.500000 7.732420
928.500000 7.846550
928.500000 7.961516
928.500000 8.077319
928.500000 8.193957
928.500000 8.311432
928.500000 8.429742
928.500000 8.548889
928.500000 8.668872
928.500000 8.789691
928.500000 8.911346
928.500000 9.033838
928.500000 9.157165
928.500000 9.281329
928.500000 9.406328
928.500000 9.532164
928.500000 9.658836
928.500000 9.786344
928.500000 9.914688
928.500000 10.043868
928.500000 10.173885
928.500000 10.304737
928.500000 10.436426
928.500000 10.568950
928.500000 10.702311
928.500000 10.836508
928.500000 10.971541
928.500000 11.107411
928.500000 11.244116
928.500000 11.381657
928.500000 11.520035
928.500000 11.659248
928.500000 11.799298
928.500000 11.940184
928.500000 12.081906
928.500000 12.224464
928.500000 12.367859
928.500000 12.512089
928.500000 12.657155
928.500000 12.803058
928.500000 12.949797
928.500000 13.097372
928.500000 13.245782
928.500000 13.395030
928.500000 13.545113
928.500000 13.696032
928.500000 13.847787
928.500000 14.000379
928.500000 14.153807
928.500000 14.308070
928.500000 14.463170
928.500000 14.619106
928.500000 14.775879
928.500000 14.933487
928.500000 15.091931
928.500000 15.251212
928.500000 15.411328
928.500000 15.572281
928.500000 15.734070
928.500000 15.896695
928.500000 16.060156
928.500000 16.224453
928.500000 16.389586
928.500000 16.555556
928.500000 16.722361
928.500000 16.890003
928.500000 17.058481
928.500000 17.227795
928.500000 17.397945
928.500000 17.568931
928.500000 17.740753
928.500000 17.913412
928.500000 18.086906
928.500000 18.261237
928.500000 18.436403
928.500000 18.612406
928.500000 18.789245
928.500000 18.966920
928.500000 19.145432
928.500000 19.324779
928.500000 19.504962
928.500000 19.685982
928.500000 19.867838
928.500000 20.050529
928.500000 20.234057
928.500000 20.418421
928.500000 20.603622
928.500000 20.789658
928.500000 20.976530
928.500000 21.164239
928.500000 21.352783
928.500000 21.542164
928.500000 21.732381
928.500000 21.923434
928.500000 22.115323
928.500000 22.308048
928.500000 22.501610
928.500000 22.696007
928.500000 22.891241
928.500000 23.087310
928.500000 23.284216
928.500000 23.481958
928.500000 23.680536
928.500000 23.879950
928.500000 24.080200
928.500000 24.281287
928.500000 24.483209
928.500000 24.685968
928.500000 24.889563
928.500000 25.093994
928.500000 25.299261
928.500000 25.505364
928.500000 25.712303
928.500000 25.920078
928.500000 26.128690
928.500000 26.338137
928.500000 26.548421
928.500000 26.759541
928.500000 26.971497
928.500000 27.184289
928.500000 27.397917
928.500000 27.612381
928.500000 27.827682
928.500000 28.043818
928.500000 28.260791
928.500000 28.478600
928.500000 28.697244
928.500000 28.916725
928.500000 29.137043
928.500000 29.358196
928.500000 29.580185
928.500000 29.803011
928.500000 30.026672
928.500000 30.251170
928.500000 30.476504
928.500000 30.702674
928.500000 30.929680
928.500000 31.157522
928.500000 31.386200
928.500000 31.615715
928.500000 31.846065
928.500000 32.077252
928.500000 32.309275
928.500000 32.542133
928.500000 32.775828
928.500000 33.010360
928.500000 33.245727
928.500000 33.481930
928.500000 33.718970
928.500000 33.956845
928.500000 34.195557
928.500000 34.435105
928.500000 34.675489
928.500000 34.916709
928.500000 35.158765
928.500000 35.401657
928.500000 35.645386
928.500000 35.889950
928.500000 36.135351
928.500000 36.381588
928.500000 36.628660
928.500000 36.876569
928.500000 37.125315
928.500000 37.374896
928.500000 37.625313
928.500000 37.876567
928.500000 38.128656
928.500000 38.381582
928.500000 38.635344
928.500000 38.889942
928.500000 39.145376
928.500000 39.401646
928.500000 39.658752
928.500000 39.916695
928.500000 40.175473
928.500000 40.435088
928.500000 40.695539
928.500000 40.956826
928.500000 41.218949
928.500000 41.481908
928.500000 41.745703
928.500000 42.010334
928.500000 42.275802
928.500000 42.542106
928.500000 42.809245
928.500000 43.077221
928.500000 43.346033
928.500000 43.615681
928.500000 43.886165
928.500000 44.157486
928.500000 44.429642
928.500000 44.702635
928.500000 44.976463
928.500000 45.251128
928.500000 45.526629
928.500000 45.802966
928.500000 46.080139
928.500000 46.358148
928.500000 46.636994
928.500000 46.916675
928.500000 47.197193
928.500000 47.478547
928.500000 47.760736
928.500000 48.043762
928.500000 48.327625
928.500000 48.612323
928.500000 48.897857
928.500000 49.184227
928.500000 49.471434
928.500000 49.759477
928.500000 50.048355
928.500000 50.338070
928.500000 50.628621
928.500000 50.920009
928.500000 51.212232
928.500000 51.505291
928.500000 51.799187
928.500000 52.093918
928.500000 52.389486
928.500000 52.685890
928.500000 52.983130
928.500000 53.281206
928.500000 53.580118
928.500000 53.879867
928.500000 54.180451
928.500000 54.481872
928.500000 54.784128
928.500000 55.087221
928.500000 55.391150
928.500000 55.695915
928.500000 56.001516
928.500000 56.307953
928.500000 56.615227
928.500000 56.923336
928.500000 57.232282
928.500000 57.542064
928.500000 57.852682
928.500000 58.164136
928.500000 58.476426
928.500000 58.789552
928.500000 59.103514
928.500000 59.418313
928.500000 59.733947
928.500000 60.050418
928.500000 60.367725
928.500000 60.685868
928.500000 61.004847
928.500000 61.324662
928.500000 61.645313
928.500000 61.966801
928.500000 62.289124
928.500000 62.612284
928.500000 62.936279
928.500000 63.261111
928.500000 63.586779
928.500000 63.913283
928.500000 64.240624
928.500000 64.568800
928.500000 64.897812
928.500000 65.227661
928.500000 65.558346
928.500000 65.889867
928.500000 66.222223
928.500000 66.555417
928.500000 66.889446
928.500000 67.224311
928.500000 67.560012
928.500000 67.896550
928.500000 68.233924
928.500000 68.572133
928.500000 68.911179
928.500000 69.251061
928.500000 69.591779
928.500000 69.933334
928.500000 70.275724
928.500000 70.618950
928.500000 70.963013
928.500000 71.307912
928.500000 71.653646
928.500000 72.000217
928.500000 72.347624
928.500000 72.695868
928.500000 73.044947
928.500000 73.394862
928.500000 73.745614
928.500000 74.097202
928.500000 74.449625
928.500000 74.802885
928.500000 75.156981
928.500000 75.511913
928.500000 75.867682
928.500000 76.224286
928.500000 76.581726
928.500000 76.940003
928.500000 77.299116
928.500000 77.659064
928.500000 78.019849
928.500000 78.381471
928.500000 78.743928
928.500000 79.107221
928.500000 79.471350
928.500000 79.836316
928.500000 80.202118
928.500000 80.568755
928.500000 80.936229
928.500000 81.304539
928.500000 81.673685
928.500000 82.043668
928.500000 82.414486
928.500000 82.786141
928.500000 83.158631
928.500000 83.531958
928.500000 83.906121
928.500000 84.281120
928.500000 84.656955
928.500000 85.033626
928.500000 85.411133
928.500000 85.789477
928.500000 86.168656
928.500000 86.548672
928.500000 86.929524
928.500000 87.311212
928.500000 87.693736
928.500000 88.077096
928.500000 88.461292
928.500000 88.846324
928.500000 89.232193
928.500000 89.618897
928.500000 90.006438
928.500000 90.394815
928.500000 90.784028
928.500000 91.174077
928.500000 91.564962
928.500000 91.956684
928.500000 92.349241
928.500000 92.742634
928.500000 93.136864
928.500000 93.531930
928.500000 93.927832
928.500000 94.324570
928.500000 94.722144
928.500000 95.120554
928.500000 95.519801
928.500000 95.919883
928.500000 96.320802
928.500000 96.722557
928.500000 97.125147
928.500000 97.528574
928.500000 97.932837
928.500000 98.337937
928.500000 98.743872
928.500000 99.150643
928.500000 99.558251
928.500000 99.966695
928.500000 100.375974
928.500000 100.786090
928.500000 101.197042
928.500000 101.608831
928.500000 102.021455
928.500000 102.434915
928.500000 102.849212
928.500000 103.264344
928.500000 103.680313
928.500000 104.097118
928.500000 104.514759
928.500000 104.933236
928.500000 105.352549
928.500000 105.772699
928.500000 106.193684
928.500000 106.615506
928.500000 107.038163
928.500000 107.461657
928.500000 107.885987
928.500000 108.311153
928.500000 108.737155
928.500000 109.163993
928.500000 109.591668
928.500000 110.020178
928.500000 110.449525
928.500000 110.879708
928.500000 111.310727
928.500000 111.742582
928.500000 112.175273
928.500000 112.608800
928.500000 113.043163
928.500000 113.478363
928.500000 113.914398
928.500000 114.351270
928.500000 114.788978
928.500000 115.227522
928.500000 115.666902
928.500000 116.107118
928.500000 116.548170
928.500000 116.990059
928.500000 117.432783
928.500000 117.876344
928.500000 118.320740
928.500000 118.765973
928.500000 119.212042
928.500000 119.658947
928.500000 120.106689
928.500000 120.555266
928.500000 121.004679
928.500000 121.454929
928.500000 121.906015
928.500000 122.357937
928.500000 122.810695
928.500000 123.264289
928.500000 123.718719
928.500000 124.173985
928.500000 124.630087
928.500000 125.087026
928.500000 125.544801
928.500000 126.003411
928.500000 126.462858
928.500000 126.923141
928.500000 127.384260
928.500000 127.846216
928.500000 128.309007
928.500000 128.772634
928.500000 129.237098
928.500000 129.702398
928.500000 130.168534
928.500000 130.635505
928.500000 131.103314
928.500000 131.571958
928.500000 132.041438
928.500000 132.511754
928.500000 132.982907
928.500000 133.454896
928.500000 133.927720
928.500000 134.401381
928.500000 134.875878
928.500000 135.351211
928.500000 135.827381
928.500000 136.304386
928.500000 136.782227
928.500000 137.260905
928.500000 137.740419
928.500000 138.220769
928.500000 138.701955
928.500000 139.183977
928.500000 139.666835
928.500000 140.150529
928.500000 140.635060
928.500000 141.120426
928.500000 141.606629
928.500000 142.093668
928.500000 142.581542
928.500000 143.070253
928.500000 143.559801
928.500000 144.050184
928.500000 144.541403
928.500000 145.033459
928.500000 145.526350
928.500000 146.020078
928.500000 146.514642
928.500000 147.010042
928.500000 147.506278
928.500000 148.003350
928.500000 148.501258
928.500000 149.000003
928.500000 149.499583
928.500000 150.000000
</POINTS>
</NEKTAR>

