<?xml version="1.0" encoding="utf-8" ?>
<NEKTAR>
<POINTS DIM="2" FIELDS="">
523.500000 0.000000
523.500000 0.000418
523.500000 0.001672
523.500000 0.003763
523.500000 0.006689
523.500000 0.010451
523.500000 0.015050
523.500000 0.020485
523.500000 0.026756
523.500000 0.033863
523.500000 0.041806
523.500000 0.050585
523.500000 0.060201
523.500000 0.070652
523.500000 0.081940
523.500000 0.094063
523.500000 0.107023
523.500000 0.120819
523.500000 0.135451
523.500000 0.150919
523.500000 0.167224
523.500000 0.184364
523.500000 0.202341
523.500000 0.221153
523.500000 0.240802
523.500000 0.261287
523.500000 0.282608
523.500000 0.304765
523.500000 0.327758
523.500000 0.351588
523.500000 0.376253
523.500000 0.401755
523.500000 0.428092
523.500000 0.455266
523.500000 0.483276
523.500000 0.512122
523.500000 0.541805
523.500000 0.572323
523.500000 0.603677
523.500000 0.635868
523.500000 0.668894
523.500000 0.702757
523.500000 0.737456
523.500000 0.772991
523.500000 0.809362
523.500000 0.846570
523.500000 0.884613
523.500000 0.923492
523.500000 0.963208
523.500000 1.003760
523.500000 1.045148
523.500000 1.087372
523.500000 1.130432
523.500000 1.174328
523.500000 1.219060
523.500000 1.264629
523.500000 1.311033
523.500000 1.358274
523.500000 1.406351
523.500000 1.455264
523.500000 1.505013
523.500000 1.555598
523.500000 1.607019
523.500000 1.659276
523.500000 1.712370
523.500000 1.766299
523.500000 1.821065
523.500000 1.876667
523.500000 1.933105
523.500000 1.990379
523.500000 2.048489
523.500000 2.107436
523.500000 2.167218
523.500000 2.227837
523.500000 2.289291
523.500000 2.351582
523.500000 2.414709
523.500000 2.478672
523.500000 2.543471
523.500000 2.609106
523.500000 2.675578
523.500000 2.742885
523.500000 2.811029
523.500000 2.880009
523.500000 2.949825
523.500000 3.020477
523.500000 3.091965
523.500000 3.164289
523.500000 3.237449
523.500000 3.311446
523.500000 3.386278
523.500000 3.461947
523.500000 3.538452
523.500000 3.615793
523.500000 3.693970
523.500000 3.772983
523.500000 3.852832
523.500000 3.933517
523.500000 4.015039
523.500000 4.097397
523.500000 4.180590
523.500000 4.264620
523.500000 4.349486
523.500000 4.435188
523.500000 4.521727
523.500000 4.609101
523.500000 4.697311
523.500000 4.786358
523.500000 4.876241
523.500000 4.966959
523.500000 5.058514
523.500000 5.150905
523.500000 5.244133
523.500000 5.338196
523.500000 5.433095
523.500000 5.528831
523.500000 5.625402
523.500000 5.722810
523.500000 5.821054
523.500000 5.920134
523.500000 6.020050
523.500000 6.120802
523.500000 6.222391
523.500000 6.324815
523.500000 6.428076
523.500000 6.532172
523.500000 6.637105
523.500000 6.742874
523.500000 6.849479
523.500000 6.956920
523.500000 7.065198
523.500000 7.174311
523.500000 7.284261
523.500000 7.395046
523.500000 7.506668
523.500000 7.619126
523.500000 7.732420
523.500000 7.846550
523.500000 7.961516
523.500000 8.077319
523.500000 8.193957
523.500000 8.311432
523.500000 8.429742
523.500000 8.548889
523.500000 8.668872
523.500000 8.789691
523.500000 8.911346
523.500000 9.033838
523.500000 9.157165
523.500000 9.281329
523.500000 9.406328
523.500000 9.532164
523.500000 9.658836
523.500000 9.786344
523.500000 9.914688
523.500000 10.043868
523.500000 10.173885
523.500000 10.304737
523.500000 10.436426
523.500000 10.568950
523.500000 10.702311
523.500000 10.836508
523.500000 10.971541
523.500000 11.107411
523.500000 11.244116
523.500000 11.381657
523.500000 11.520035
523.500000 11.659248
523.500000 11.799298
523.500000 11.940184
523.500000 12.081906
523.500000 12.224464
523.500000 12.367859
523.500000 12.512089
523.500000 12.657155
523.500000 12.803058
523.500000 12.949797
523.500000 13.097372
523.500000 13.245782
523.500000 13.395030
523.500000 13.545113
523.500000 13.696032
523.500000 13.847787
523.500000 14.000379
523.500000 14.153807
523.500000 14.308070
523.500000 14.463170
523.500000 14.619106
523.500000 14.775879
523.500000 14.933487
523.500000 15.091931
523.500000 15.251212
523.500000 15.411328
523.500000 15.572281
523.500000 15.734070
523.500000 15.896695
523.500000 16.060156
523.500000 16.224453
523.500000 16.389586
523.500000 16.555556
523.500000 16.722361
523.500000 16.890003
523.500000 17.058481
523.500000 17.227795
523.500000 17.397945
523.500000 17.568931
523.500000 17.740753
523.500000 17.913412
523.500000 18.086906
523.500000 18.261237
523.500000 18.436403
523.500000 18.612406
523.500000 18.789245
523.500000 18.966920
523.500000 19.145432
523.500000 19.324779
523.500000 19.504962
523.500000 19.685982
523.500000 19.867838
523.500000 20.050529
523.500000 20.234057
523.500000 20.418421
523.500000 20.603622
523.500000 20.789658
523.500000 20.976530
523.500000 21.164239
523.500000 21.352783
523.500000 21.542164
523.500000 21.732381
523.500000 21.923434
523.500000 22.115323
523.500000 22.308048
523.500000 22.501610
523.500000 22.696007
523.500000 22.891241
523.500000 23.087310
523.500000 23.284216
523.500000 23.481958
523.500000 23.680536
523.500000 23.879950
523.500000 24.080200
523.500000 24.281287
523.500000 24.483209
523.500000 24.685968
523.500000 24.889563
523.500000 25.093994
523.500000 25.299261
523.500000 25.505364
523.500000 25.712303
523.500000 25.920078
523.500000 26.128690
523.500000 26.338137
523.500000 26.548421
523.500000 26.759541
523.500000 26.971497
523.500000 27.184289
523.500000 27.397917
523.500000 27.612381
523.500000 27.827682
523.500000 28.043818
523.500000 28.260791
523.500000 28.478600
523.500000 28.697244
523.500000 28.916725
523.500000 29.137043
523.500000 29.358196
523.500000 29.580185
523.500000 29.803011
523.500000 30.026672
523.500000 30.251170
523.500000 30.476504
523.500000 30.702674
523.500000 30.929680
523.500000 31.157522
523.500000 31.386200
523.500000 31.615715
523.500000 31.846065
523.500000 32.077252
523.500000 32.309275
523.500000 32.542133
523.500000 32.775828
523.500000 33.010360
523.500000 33.245727
523.500000 33.481930
523.500000 33.718970
523.500000 33.956845
523.500000 34.195557
523.500000 34.435105
523.500000 34.675489
523.500000 34.916709
523.500000 35.158765
523.500000 35.401657
523.500000 35.645386
523.500000 35.889950
523.500000 36.135351
523.500000 36.381588
523.500000 36.628660
523.500000 36.876569
523.500000 37.125315
523.500000 37.374896
523.500000 37.625313
523.500000 37.876567
523.500000 38.128656
523.500000 38.381582
523.500000 38.635344
523.500000 38.889942
523.500000 39.145376
523.500000 39.401646
523.500000 39.658752
523.500000 39.916695
523.500000 40.175473
523.500000 40.435088
523.500000 40.695539
523.500000 40.956826
523.500000 41.218949
523.500000 41.481908
523.500000 41.745703
523.500000 42.010334
523.500000 42.275802
523.500000 42.542106
523.500000 42.809245
523.500000 43.077221
523.500000 43.346033
523.500000 43.615681
523.500000 43.886165
523.500000 44.157486
523.500000 44.429642
523.500000 44.702635
523.500000 44.976463
523.500000 45.251128
523.500000 45.526629
523.500000 45.802966
523.500000 46.080139
523.500000 46.358148
523.500000 46.636994
523.500000 46.916675
523.500000 47.197193
523.500000 47.478547
523.500000 47.760736
523.500000 48.043762
523.500000 48.327625
523.500000 48.612323
523.500000 48.897857
523.500000 49.184227
523.500000 49.471434
523.500000 49.759477
523.500000 50.048355
523.500000 50.338070
523.500000 50.628621
523.500000 50.920009
523.500000 51.212232
523.500000 51.505291
523.500000 51.799187
523.500000 52.093918
523.500000 52.389486
523.500000 52.685890
523.500000 52.983130
523.500000 53.281206
523.500000 53.580118
523.500000 53.879867
523.500000 54.180451
523.500000 54.481872
523.500000 54.784128
523.500000 55.087221
523.500000 55.391150
523.500000 55.695915
523.500000 56.001516
523.500000 56.307953
523.500000 56.615227
523.500000 56.923336
523.500000 57.232282
523.500000 57.542064
523.500000 57.852682
523.500000 58.164136
523.500000 58.476426
523.500000 58.789552
523.500000 59.103514
523.500000 59.418313
523.500000 59.733947
523.500000 60.050418
523.500000 60.367725
523.500000 60.685868
523.500000 61.004847
523.500000 61.324662
523.500000 61.645313
523.500000 61.966801
523.500000 62.289124
523.500000 62.612284
523.500000 62.936279
523.500000 63.261111
523.500000 63.586779
523.500000 63.913283
523.500000 64.240624
523.500000 64.568800
523.500000 64.897812
523.500000 65.227661
523.500000 65.558346
523.500000 65.889867
523.500000 66.222223
523.500000 66.555417
523.500000 66.889446
523.500000 67.224311
523.500000 67.560012
523.500000 67.896550
523.500000 68.233924
523.500000 68.572133
523.500000 68.911179
523.500000 69.251061
523.500000 69.591779
523.500000 69.933334
523.500000 70.275724
523.500000 70.618950
523.500000 70.963013
523.500000 71.307912
523.500000 71.653646
523.500000 72.000217
523.500000 72.347624
523.500000 72.695868
523.500000 73.044947
523.500000 73.394862
523.500000 73.745614
523.500000 74.097202
523.500000 74.449625
523.500000 74.802885
523.500000 75.156981
523.500000 75.511913
523.500000 75.867682
523.500000 76.224286
523.500000 76.581726
523.500000 76.940003
523.500000 77.299116
523.500000 77.659064
523.500000 78.019849
523.500000 78.381471
523.500000 78.743928
523.500000 79.107221
523.500000 79.471350
523.500000 79.836316
523.500000 80.202118
523.500000 80.568755
523.500000 80.936229
523.500000 81.304539
523.500000 81.673685
523.500000 82.043668
523.500000 82.414486
523.500000 82.786141
523.500000 83.158631
523.500000 83.531958
523.500000 83.906121
523.500000 84.281120
523.500000 84.656955
523.500000 85.033626
523.500000 85.411133
523.500000 85.789477
523.500000 86.168656
523.500000 86.548672
523.500000 86.929524
523.500000 87.311212
523.500000 87.693736
523.500000 88.077096
523.500000 88.461292
523.500000 88.846324
523.500000 89.232193
523.500000 89.618897
523.500000 90.006438
523.500000 90.394815
523.500000 90.784028
523.500000 91.174077
523.500000 91.564962
523.500000 91.956684
523.500000 92.349241
523.500000 92.742634
523.500000 93.136864
523.500000 93.531930
523.500000 93.927832
523.500000 94.324570
523.500000 94.722144
523.500000 95.120554
523.500000 95.519801
523.500000 95.919883
523.500000 96.320802
523.500000 96.722557
523.500000 97.125147
523.500000 97.528574
523.500000 97.932837
523.500000 98.337937
523.500000 98.743872
523.500000 99.150643
523.500000 99.558251
523.500000 99.966695
523.500000 100.375974
523.500000 100.786090
523.500000 101.197042
523.500000 101.608831
523.500000 102.021455
523.500000 102.434915
523.500000 102.849212
523.500000 103.264344
523.500000 103.680313
523.500000 104.097118
523.500000 104.514759
523.500000 104.933236
523.500000 105.352549
523.500000 105.772699
523.500000 106.193684
523.500000 106.615506
523.500000 107.038163
523.500000 107.461657
523.500000 107.885987
523.500000 108.311153
523.500000 108.737155
523.500000 109.163993
523.500000 109.591668
523.500000 110.020178
523.500000 110.449525
523.500000 110.879708
523.500000 111.310727
523.500000 111.742582
523.500000 112.175273
523.500000 112.608800
523.500000 113.043163
523.500000 113.478363
523.500000 113.914398
523.500000 114.351270
523.500000 114.788978
523.500000 115.227522
523.500000 115.666902
523.500000 116.107118
523.500000 116.548170
523.500000 116.990059
523.500000 117.432783
523.500000 117.876344
523.500000 118.320740
523.500000 118.765973
523.500000 119.212042
523.500000 119.658947
523.500000 120.106689
523.500000 120.555266
523.500000 121.004679
523.500000 121.454929
523.500000 121.906015
523.500000 122.357937
523.500000 122.810695
523.500000 123.264289
523.500000 123.718719
523.500000 124.173985
523.500000 124.630087
523.500000 125.087026
523.500000 125.544801
523.500000 126.003411
523.500000 126.462858
523.500000 126.923141
523.500000 127.384260
523.500000 127.846216
523.500000 128.309007
523.500000 128.772634
523.500000 129.237098
523.500000 129.702398
523.500000 130.168534
523.500000 130.635505
523.500000 131.103314
523.500000 131.571958
523.500000 132.041438
523.500000 132.511754
523.500000 132.982907
523.500000 133.454896
523.500000 133.927720
523.500000 134.401381
523.500000 134.875878
523.500000 135.351211
523.500000 135.827381
523.500000 136.304386
523.500000 136.782227
523.500000 137.260905
523.500000 137.740419
523.500000 138.220769
523.500000 138.701955
523.500000 139.183977
523.500000 139.666835
523.500000 140.150529
523.500000 140.635060
523.500000 141.120426
523.500000 141.606629
523.500000 142.093668
523.500000 142.581542
523.500000 143.070253
523.500000 143.559801
523.500000 144.050184
523.500000 144.541403
523.500000 145.033459
523.500000 145.526350
523.500000 146.020078
523.500000 146.514642
523.500000 147.010042
523.500000 147.506278
523.500000 148.003350
523.500000 148.501258
523.500000 149.000003
523.500000 149.499583
523.500000 150.000000
</POINTS>
</NEKTAR>

