<?xml version="1.0" encoding="utf-8" ?>
<NEKTAR>
<POINTS DIM="2" FIELDS="">
20.500000 -0.500000
20.500000 -0.499581
20.500000 -0.498322
20.500000 -0.496225
20.500000 -0.493289
20.500000 -0.489514
20.500000 -0.484900
20.500000 -0.479447
20.500000 -0.473155
20.500000 -0.466024
20.500000 -0.458055
20.500000 -0.449246
20.500000 -0.439599
20.500000 -0.429113
20.500000 -0.417787
20.500000 -0.405623
20.500000 -0.392620
20.500000 -0.378778
20.500000 -0.364097
20.500000 -0.348578
20.500000 -0.332219
20.500000 -0.315021
20.500000 -0.296985
20.500000 -0.278110
20.500000 -0.258395
20.500000 -0.237842
20.500000 -0.216450
20.500000 -0.194219
20.500000 -0.171149
20.500000 -0.147240
20.500000 -0.122493
20.500000 -0.096906
20.500000 -0.070481
20.500000 -0.043216
20.500000 -0.015113
20.500000 0.013829
20.500000 0.043611
20.500000 0.074231
20.500000 0.105690
20.500000 0.137987
20.500000 0.171124
20.500000 0.205100
20.500000 0.239914
20.500000 0.275568
20.500000 0.312060
20.500000 0.349391
20.500000 0.387562
20.500000 0.426571
20.500000 0.466419
20.500000 0.507106
20.500000 0.548631
20.500000 0.590996
20.500000 0.634200
20.500000 0.678242
20.500000 0.723124
20.500000 0.768844
20.500000 0.815403
20.500000 0.862801
20.500000 0.911038
20.500000 0.960114
20.500000 1.010029
20.500000 1.060783
20.500000 1.112376
20.500000 1.164807
20.500000 1.218078
20.500000 1.272187
20.500000 1.327135
20.500000 1.382923
20.500000 1.439549
20.500000 1.497014
20.500000 1.555318
20.500000 1.614460
20.500000 1.674442
20.500000 1.735263
20.500000 1.796922
20.500000 1.859421
20.500000 1.922758
20.500000 1.986934
20.500000 2.051949
20.500000 2.117803
20.500000 2.184496
20.500000 2.252028
20.500000 2.320399
20.500000 2.389609
20.500000 2.459657
20.500000 2.530545
20.500000 2.602271
20.500000 2.674836
20.500000 2.748241
20.500000 2.822484
20.500000 2.897566
20.500000 2.973487
20.500000 3.050247
20.500000 3.127845
20.500000 3.206283
20.500000 3.285559
20.500000 3.365675
20.500000 3.446629
20.500000 3.528422
20.500000 3.611055
20.500000 3.694526
20.500000 3.778836
20.500000 3.863984
20.500000 3.949972
20.500000 4.036799
20.500000 4.124465
20.500000 4.212969
20.500000 4.302312
20.500000 4.392495
20.500000 4.483516
20.500000 4.575376
20.500000 4.668075
20.500000 4.761613
20.500000 4.855990
20.500000 4.951206
20.500000 5.047260
20.500000 5.144154
20.500000 5.241886
20.500000 5.340458
20.500000 5.439868
20.500000 5.540117
20.500000 5.641205
20.500000 5.743132
20.500000 5.845898
20.500000 5.949503
20.500000 6.053946
20.500000 6.159229
20.500000 6.265350
20.500000 6.372311
20.500000 6.480110
20.500000 6.588748
20.500000 6.698225
20.500000 6.808542
20.500000 6.919696
20.500000 7.031690
20.500000 7.144523
20.500000 7.258195
20.500000 7.372705
20.500000 7.488055
20.500000 7.604243
20.500000 7.721270
20.500000 7.839136
20.500000 7.957842
20.500000 8.077386
20.500000 8.197768
20.500000 8.318990
20.500000 8.441051
20.500000 8.563950
20.500000 8.687689
20.500000 8.812266
20.500000 8.937683
20.500000 9.063938
20.500000 9.191032
20.500000 9.318965
20.500000 9.447737
20.500000 9.577348
20.500000 9.707798
20.500000 9.839086
20.500000 9.971214
20.500000 10.104180
20.500000 10.237986
20.500000 10.372630
20.500000 10.508113
20.500000 10.644435
20.500000 10.781596
20.500000 10.919596
20.500000 11.058435
20.500000 11.198113
20.500000 11.338629
20.500000 11.479985
20.500000 11.622179
20.500000 11.765212
20.500000 11.909085
20.500000 12.053796
20.500000 12.199346
20.500000 12.345735
20.500000 12.492963
20.500000 12.641029
20.500000 12.789935
20.500000 12.939680
20.500000 13.090263
20.500000 13.241686
20.500000 13.393947
20.500000 13.547047
20.500000 13.700986
20.500000 13.855764
20.500000 14.011381
20.500000 14.167837
20.500000 14.325131
20.500000 14.483265
20.500000 14.642238
20.500000 14.802049
20.500000 14.962699
20.500000 15.124189
20.500000 15.286517
20.500000 15.449684
20.500000 15.613690
20.500000 15.778535
20.500000 15.944218
20.500000 16.110741
20.500000 16.278103
20.500000 16.446303
20.500000 16.615342
20.500000 16.785221
20.500000 16.955938
20.500000 17.127494
20.500000 17.299889
20.500000 17.473123
20.500000 17.647196
20.500000 17.822108
20.500000 17.997858
20.500000 18.174448
20.500000 18.351876
20.500000 18.530143
20.500000 18.709250
20.500000 18.889195
20.500000 19.069979
20.500000 19.251602
20.500000 19.434064
20.500000 19.617365
20.500000 19.801504
20.500000 19.986483
20.500000 20.172300
20.500000 20.358957
20.500000 20.546452
20.500000 20.734786
20.500000 20.923959
20.500000 21.113971
20.500000 21.304822
20.500000 21.496512
20.500000 21.689041
20.500000 21.882408
20.500000 22.076615
20.500000 22.271660
20.500000 22.467545
20.500000 22.664268
20.500000 22.861830
20.500000 23.060231
20.500000 23.259471
20.500000 23.459550
20.500000 23.660468
20.500000 23.862224
20.500000 24.064820
20.500000 24.268255
20.500000 24.472528
20.500000 24.677640
20.500000 24.883591
20.500000 25.090382
20.500000 25.298011
20.500000 25.506479
20.500000 25.715785
20.500000 25.925931
20.500000 26.136916
20.500000 26.348739
20.500000 26.561402
20.500000 26.774903
20.500000 26.989243
20.500000 27.204423
20.500000 27.420441
20.500000 27.637298
20.500000 27.854993
20.500000 28.073528
20.500000 28.292902
20.500000 28.513115
20.500000 28.734166
20.500000 28.956056
20.500000 29.178786
20.500000 29.402354
20.500000 29.626761
20.500000 29.852007
20.500000 30.078092
20.500000 30.305016
20.500000 30.532779
20.500000 30.761380
20.500000 30.990821
20.500000 31.221100
20.500000 31.452219
20.500000 31.684176
20.500000 31.916972
20.500000 32.150607
20.500000 32.385081
20.500000 32.620394
20.500000 32.856546
20.500000 33.093537
20.500000 33.331366
20.500000 33.570035
20.500000 33.809542
20.500000 34.049888
20.500000 34.291074
20.500000 34.533098
20.500000 34.775961
20.500000 35.019663
20.500000 35.264204
20.500000 35.509583
20.500000 35.755802
20.500000 36.002860
20.500000 36.250756
20.500000 36.499491
20.500000 36.749066
20.500000 36.999479
20.500000 37.250731
20.500000 37.502822
20.500000 37.755752
20.500000 38.009521
20.500000 38.264128
20.500000 38.519575
20.500000 38.775860
20.500000 39.032985
20.500000 39.290948
20.500000 39.549750
20.500000 39.809392
20.500000 40.069872
20.500000 40.331191
20.500000 40.593348
20.500000 40.856345
20.500000 41.120181
20.500000 41.384855
20.500000 41.650369
20.500000 41.916721
20.500000 42.183913
20.500000 42.451943
20.500000 42.720812
20.500000 42.990520
20.500000 43.261067
20.500000 43.532453
20.500000 43.804677
20.500000 44.077741
20.500000 44.351643
20.500000 44.626385
20.500000 44.901965
20.500000 45.178384
20.500000 45.455643
20.500000 45.733740
20.500000 46.012676
20.500000 46.292450
20.500000 46.573064
20.500000 46.854517
20.500000 47.136808
20.500000 47.419939
20.500000 47.703908
20.500000 47.988717
20.500000 48.274364
20.500000 48.560850
20.500000 48.848175
20.500000 49.136339
20.500000 49.425342
20.500000 49.715183
20.500000 50.005864
20.500000 50.297384
20.500000 50.589742
20.500000 50.882939
20.500000 51.176976
20.500000 51.471851
20.500000 51.767565
20.500000 52.064118
20.500000 52.361510
20.500000 52.659740
20.500000 52.958810
20.500000 53.258719
20.500000 53.559466
20.500000 53.861053
20.500000 54.163478
20.500000 54.466742
20.500000 54.770845
20.500000 55.075787
20.500000 55.381568
20.500000 55.688188
20.500000 55.995647
20.500000 56.303944
20.500000 56.613081
20.500000 56.923056
20.500000 57.233871
20.500000 57.545524
20.500000 57.858016
20.500000 58.171347
20.500000 58.485517
20.500000 58.800526
20.500000 59.116374
20.500000 59.433060
20.500000 59.750586
20.500000 60.068950
20.500000 60.388154
20.500000 60.708196
20.500000 61.029077
20.500000 61.350798
20.500000 61.673357
20.500000 61.996754
20.500000 62.320991
20.500000 62.646067
20.500000 62.971982
20.500000 63.298735
20.500000 63.626328
20.500000 63.954759
20.500000 64.284029
20.500000 64.614138
20.500000 64.945087
20.500000 65.276874
20.500000 65.609499
20.500000 65.942964
20.500000 66.277268
20.500000 66.612411
20.500000 66.948392
20.500000 67.285212
20.500000 67.622872
20.500000 67.961370
20.500000 68.300707
20.500000 68.640883
20.500000 68.981898
20.500000 69.323752
20.500000 69.666445
20.500000 70.009976
20.500000 70.354347
20.500000 70.699556
20.500000 71.045605
20.500000 71.392492
20.500000 71.740218
20.500000 72.088783
20.500000 72.438187
20.500000 72.788430
20.500000 73.139512
20.500000 73.491433
20.500000 73.844192
20.500000 74.197791
20.500000 74.552228
20.500000 74.907504
20.500000 75.263620
20.500000 75.620574
20.500000 75.978367
20.500000 76.336999
20.500000 76.696470
20.500000 77.056779
20.500000 77.417928
20.500000 77.779916
20.500000 78.142742
20.500000 78.506407
20.500000 78.870912
20.500000 79.236255
20.500000 79.602437
20.500000 79.969458
20.500000 80.337318
20.500000 80.706017
20.500000 81.075554
20.500000 81.445931
20.500000 81.817147
20.500000 82.189201
20.500000 82.562094
20.500000 82.935827
20.500000 83.310398
20.500000 83.685808
20.500000 84.062057
20.500000 84.439145
20.500000 84.817071
20.500000 85.195837
20.500000 85.575442
20.500000 85.955885
20.500000 86.337167
20.500000 86.719289
20.500000 87.102249
20.500000 87.486048
20.500000 87.870686
20.500000 88.256163
20.500000 88.642479
20.500000 89.029633
20.500000 89.417627
20.500000 89.806460
20.500000 90.196131
20.500000 90.586641
20.500000 90.977991
20.500000 91.370179
20.500000 91.763206
20.500000 92.157072
20.500000 92.551777
20.500000 92.947320
20.500000 93.343703
20.500000 93.740925
20.500000 94.138985
20.500000 94.537885
20.500000 94.937623
20.500000 95.338200
20.500000 95.739616
20.500000 96.141871
20.500000 96.544965
20.500000 96.948898
20.500000 97.353670
20.500000 97.759280
20.500000 98.165730
20.500000 98.573018
20.500000 98.981146
20.500000 99.390112
20.500000 99.799917
20.500000 100.210561
20.500000 100.622044
20.500000 101.034366
20.500000 101.447527
20.500000 101.861526
20.500000 102.276365
20.500000 102.692042
20.500000 103.108559
20.500000 103.525914
20.500000 103.944108
20.500000 104.363141
20.500000 104.783013
20.500000 105.203724
20.500000 105.625274
20.500000 106.047663
20.500000 106.470891
20.500000 106.894957
20.500000 107.319863
20.500000 107.745607
20.500000 108.172190
20.500000 108.599612
20.500000 109.027873
20.500000 109.456973
20.500000 109.886912
20.500000 110.317690
20.500000 110.749307
20.500000 111.181762
20.500000 111.615057
20.500000 112.049190
20.500000 112.484163
20.500000 112.919974
20.500000 113.356624
20.500000 113.794113
20.500000 114.232441
20.500000 114.671608
20.500000 115.111613
20.500000 115.552458
20.500000 115.994142
20.500000 116.436664
20.500000 116.880025
20.500000 117.324226
20.500000 117.769265
20.500000 118.215143
20.500000 118.661860
20.500000 119.109416
20.500000 119.557811
20.500000 120.007044
20.500000 120.457117
20.500000 120.908028
20.500000 121.359779
20.500000 121.812368
20.500000 122.265796
20.500000 122.720063
20.500000 123.175170
20.500000 123.631114
20.500000 124.087898
20.500000 124.545521
20.500000 125.003983
20.500000 125.463283
20.500000 125.923423
20.500000 126.384401
20.500000 126.846218
20.500000 127.308875
20.500000 127.772370
20.500000 128.236704
20.500000 128.701877
20.500000 129.167888
20.500000 129.634739
20.500000 130.102429
20.500000 130.570957
20.500000 131.040325
20.500000 131.510531
20.500000 131.981576
20.500000 132.453460
20.500000 132.926183
20.500000 133.399745
20.500000 133.874146
20.500000 134.349386
20.500000 134.825465
20.500000 135.302382
20.500000 135.780139
20.500000 136.258734
20.500000 136.738168
20.500000 137.218441
20.500000 137.699554
20.500000 138.181505
20.500000 138.664294
20.500000 139.147923
20.500000 139.632391
20.500000 140.117698
20.500000 140.603843
20.500000 141.090828
20.500000 141.578651
20.500000 142.067313
20.500000 142.556814
20.500000 143.047154
20.500000 143.538333
20.500000 144.030351
20.500000 144.523208
20.500000 145.016904
20.500000 145.511438
20.500000 146.006812
20.500000 146.503024
20.500000 147.000075
20.500000 147.497965
20.500000 147.996695
20.500000 148.496263
20.500000 148.996669
20.500000 149.497915
20.500000 150.000000
</POINTS>
</NEKTAR>

