<?xml version="1.0" encoding="utf-8" ?>
<NEKTAR>
<POINTS DIM="2" FIELDS="">
24.500000 -0.500000
24.500000 -0.499581
24.500000 -0.498322
24.500000 -0.496225
24.500000 -0.493289
24.500000 -0.489514
24.500000 -0.484900
24.500000 -0.479447
24.500000 -0.473155
24.500000 -0.466024
24.500000 -0.458055
24.500000 -0.449246
24.500000 -0.439599
24.500000 -0.429113
24.500000 -0.417787
24.500000 -0.405623
24.500000 -0.392620
24.500000 -0.378778
24.500000 -0.364097
24.500000 -0.348578
24.500000 -0.332219
24.500000 -0.315021
24.500000 -0.296985
24.500000 -0.278110
24.500000 -0.258395
24.500000 -0.237842
24.500000 -0.216450
24.500000 -0.194219
24.500000 -0.171149
24.500000 -0.147240
24.500000 -0.122493
24.500000 -0.096906
24.500000 -0.070481
24.500000 -0.043216
24.500000 -0.015113
24.500000 0.013829
24.500000 0.043611
24.500000 0.074231
24.500000 0.105690
24.500000 0.137987
24.500000 0.171124
24.500000 0.205100
24.500000 0.239914
24.500000 0.275568
24.500000 0.312060
24.500000 0.349391
24.500000 0.387562
24.500000 0.426571
24.500000 0.466419
24.500000 0.507106
24.500000 0.548631
24.500000 0.590996
24.500000 0.634200
24.500000 0.678242
24.500000 0.723124
24.500000 0.768844
24.500000 0.815403
24.500000 0.862801
24.500000 0.911038
24.500000 0.960114
24.500000 1.010029
24.500000 1.060783
24.500000 1.112376
24.500000 1.164807
24.500000 1.218078
24.500000 1.272187
24.500000 1.327135
24.500000 1.382923
24.500000 1.439549
24.500000 1.497014
24.500000 1.555318
24.500000 1.614460
24.500000 1.674442
24.500000 1.735263
24.500000 1.796922
24.500000 1.859421
24.500000 1.922758
24.500000 1.986934
24.500000 2.051949
24.500000 2.117803
24.500000 2.184496
24.500000 2.252028
24.500000 2.320399
24.500000 2.389609
24.500000 2.459657
24.500000 2.530545
24.500000 2.602271
24.500000 2.674836
24.500000 2.748241
24.500000 2.822484
24.500000 2.897566
24.500000 2.973487
24.500000 3.050247
24.500000 3.127845
24.500000 3.206283
24.500000 3.285559
24.500000 3.365675
24.500000 3.446629
24.500000 3.528422
24.500000 3.611055
24.500000 3.694526
24.500000 3.778836
24.500000 3.863984
24.500000 3.949972
24.500000 4.036799
24.500000 4.124465
24.500000 4.212969
24.500000 4.302312
24.500000 4.392495
24.500000 4.483516
24.500000 4.575376
24.500000 4.668075
24.500000 4.761613
24.500000 4.855990
24.500000 4.951206
24.500000 5.047260
24.500000 5.144154
24.500000 5.241886
24.500000 5.340458
24.500000 5.439868
24.500000 5.540117
24.500000 5.641205
24.500000 5.743132
24.500000 5.845898
24.500000 5.949503
24.500000 6.053946
24.500000 6.159229
24.500000 6.265350
24.500000 6.372311
24.500000 6.480110
24.500000 6.588748
24.500000 6.698225
24.500000 6.808542
24.500000 6.919696
24.500000 7.031690
24.500000 7.144523
24.500000 7.258195
24.500000 7.372705
24.500000 7.488055
24.500000 7.604243
24.500000 7.721270
24.500000 7.839136
24.500000 7.957842
24.500000 8.077386
24.500000 8.197768
24.500000 8.318990
24.500000 8.441051
24.500000 8.563950
24.500000 8.687689
24.500000 8.812266
24.500000 8.937683
24.500000 9.063938
24.500000 9.191032
24.500000 9.318965
24.500000 9.447737
24.500000 9.577348
24.500000 9.707798
24.500000 9.839086
24.500000 9.971214
24.500000 10.104180
24.500000 10.237986
24.500000 10.372630
24.500000 10.508113
24.500000 10.644435
24.500000 10.781596
24.500000 10.919596
24.500000 11.058435
24.500000 11.198113
24.500000 11.338629
24.500000 11.479985
24.500000 11.622179
24.500000 11.765212
24.500000 11.909085
24.500000 12.053796
24.500000 12.199346
24.500000 12.345735
24.500000 12.492963
24.500000 12.641029
24.500000 12.789935
24.500000 12.939680
24.500000 13.090263
24.500000 13.241686
24.500000 13.393947
24.500000 13.547047
24.500000 13.700986
24.500000 13.855764
24.500000 14.011381
24.500000 14.167837
24.500000 14.325131
24.500000 14.483265
24.500000 14.642238
24.500000 14.802049
24.500000 14.962699
24.500000 15.124189
24.500000 15.286517
24.500000 15.449684
24.500000 15.613690
24.500000 15.778535
24.500000 15.944218
24.500000 16.110741
24.500000 16.278103
24.500000 16.446303
24.500000 16.615342
24.500000 16.785221
24.500000 16.955938
24.500000 17.127494
24.500000 17.299889
24.500000 17.473123
24.500000 17.647196
24.500000 17.822108
24.500000 17.997858
24.500000 18.174448
24.500000 18.351876
24.500000 18.530143
24.500000 18.709250
24.500000 18.889195
24.500000 19.069979
24.500000 19.251602
24.500000 19.434064
24.500000 19.617365
24.500000 19.801504
24.500000 19.986483
24.500000 20.172300
24.500000 20.358957
24.500000 20.546452
24.500000 20.734786
24.500000 20.923959
24.500000 21.113971
24.500000 21.304822
24.500000 21.496512
24.500000 21.689041
24.500000 21.882408
24.500000 22.076615
24.500000 22.271660
24.500000 22.467545
24.500000 22.664268
24.500000 22.861830
24.500000 23.060231
24.500000 23.259471
24.500000 23.459550
24.500000 23.660468
24.500000 23.862224
24.500000 24.064820
24.500000 24.268255
24.500000 24.472528
24.500000 24.677640
24.500000 24.883591
24.500000 25.090382
24.500000 25.298011
24.500000 25.506479
24.500000 25.715785
24.500000 25.925931
24.500000 26.136916
24.500000 26.348739
24.500000 26.561402
24.500000 26.774903
24.500000 26.989243
24.500000 27.204423
24.500000 27.420441
24.500000 27.637298
24.500000 27.854993
24.500000 28.073528
24.500000 28.292902
24.500000 28.513115
24.500000 28.734166
24.500000 28.956056
24.500000 29.178786
24.500000 29.402354
24.500000 29.626761
24.500000 29.852007
24.500000 30.078092
24.500000 30.305016
24.500000 30.532779
24.500000 30.761380
24.500000 30.990821
24.500000 31.221100
24.500000 31.452219
24.500000 31.684176
24.500000 31.916972
24.500000 32.150607
24.500000 32.385081
24.500000 32.620394
24.500000 32.856546
24.500000 33.093537
24.500000 33.331366
24.500000 33.570035
24.500000 33.809542
24.500000 34.049888
24.500000 34.291074
24.500000 34.533098
24.500000 34.775961
24.500000 35.019663
24.500000 35.264204
24.500000 35.509583
24.500000 35.755802
24.500000 36.002860
24.500000 36.250756
24.500000 36.499491
24.500000 36.749066
24.500000 36.999479
24.500000 37.250731
24.500000 37.502822
24.500000 37.755752
24.500000 38.009521
24.500000 38.264128
24.500000 38.519575
24.500000 38.775860
24.500000 39.032985
24.500000 39.290948
24.500000 39.549750
24.500000 39.809392
24.500000 40.069872
24.500000 40.331191
24.500000 40.593348
24.500000 40.856345
24.500000 41.120181
24.500000 41.384855
24.500000 41.650369
24.500000 41.916721
24.500000 42.183913
24.500000 42.451943
24.500000 42.720812
24.500000 42.990520
24.500000 43.261067
24.500000 43.532453
24.500000 43.804677
24.500000 44.077741
24.500000 44.351643
24.500000 44.626385
24.500000 44.901965
24.500000 45.178384
24.500000 45.455643
24.500000 45.733740
24.500000 46.012676
24.500000 46.292450
24.500000 46.573064
24.500000 46.854517
24.500000 47.136808
24.500000 47.419939
24.500000 47.703908
24.500000 47.988717
24.500000 48.274364
24.500000 48.560850
24.500000 48.848175
24.500000 49.136339
24.500000 49.425342
24.500000 49.715183
24.500000 50.005864
24.500000 50.297384
24.500000 50.589742
24.500000 50.882939
24.500000 51.176976
24.500000 51.471851
24.500000 51.767565
24.500000 52.064118
24.500000 52.361510
24.500000 52.659740
24.500000 52.958810
24.500000 53.258719
24.500000 53.559466
24.500000 53.861053
24.500000 54.163478
24.500000 54.466742
24.500000 54.770845
24.500000 55.075787
24.500000 55.381568
24.500000 55.688188
24.500000 55.995647
24.500000 56.303944
24.500000 56.613081
24.500000 56.923056
24.500000 57.233871
24.500000 57.545524
24.500000 57.858016
24.500000 58.171347
24.500000 58.485517
24.500000 58.800526
24.500000 59.116374
24.500000 59.433060
24.500000 59.750586
24.500000 60.068950
24.500000 60.388154
24.500000 60.708196
24.500000 61.029077
24.500000 61.350798
24.500000 61.673357
24.500000 61.996754
24.500000 62.320991
24.500000 62.646067
24.500000 62.971982
24.500000 63.298735
24.500000 63.626328
24.500000 63.954759
24.500000 64.284029
24.500000 64.614138
24.500000 64.945087
24.500000 65.276874
24.500000 65.609499
24.500000 65.942964
24.500000 66.277268
24.500000 66.612411
24.500000 66.948392
24.500000 67.285212
24.500000 67.622872
24.500000 67.961370
24.500000 68.300707
24.500000 68.640883
24.500000 68.981898
24.500000 69.323752
24.500000 69.666445
24.500000 70.009976
24.500000 70.354347
24.500000 70.699556
24.500000 71.045605
24.500000 71.392492
24.500000 71.740218
24.500000 72.088783
24.500000 72.438187
24.500000 72.788430
24.500000 73.139512
24.500000 73.491433
24.500000 73.844192
24.500000 74.197791
24.500000 74.552228
24.500000 74.907504
24.500000 75.263620
24.500000 75.620574
24.500000 75.978367
24.500000 76.336999
24.500000 76.696470
24.500000 77.056779
24.500000 77.417928
24.500000 77.779916
24.500000 78.142742
24.500000 78.506407
24.500000 78.870912
24.500000 79.236255
24.500000 79.602437
24.500000 79.969458
24.500000 80.337318
24.500000 80.706017
24.500000 81.075554
24.500000 81.445931
24.500000 81.817147
24.500000 82.189201
24.500000 82.562094
24.500000 82.935827
24.500000 83.310398
24.500000 83.685808
24.500000 84.062057
24.500000 84.439145
24.500000 84.817071
24.500000 85.195837
24.500000 85.575442
24.500000 85.955885
24.500000 86.337167
24.500000 86.719289
24.500000 87.102249
24.500000 87.486048
24.500000 87.870686
24.500000 88.256163
24.500000 88.642479
24.500000 89.029633
24.500000 89.417627
24.500000 89.806460
24.500000 90.196131
24.500000 90.586641
24.500000 90.977991
24.500000 91.370179
24.500000 91.763206
24.500000 92.157072
24.500000 92.551777
24.500000 92.947320
24.500000 93.343703
24.500000 93.740925
24.500000 94.138985
24.500000 94.537885
24.500000 94.937623
24.500000 95.338200
24.500000 95.739616
24.500000 96.141871
24.500000 96.544965
24.500000 96.948898
24.500000 97.353670
24.500000 97.759280
24.500000 98.165730
24.500000 98.573018
24.500000 98.981146
24.500000 99.390112
24.500000 99.799917
24.500000 100.210561
24.500000 100.622044
24.500000 101.034366
24.500000 101.447527
24.500000 101.861526
24.500000 102.276365
24.500000 102.692042
24.500000 103.108559
24.500000 103.525914
24.500000 103.944108
24.500000 104.363141
24.500000 104.783013
24.500000 105.203724
24.500000 105.625274
24.500000 106.047663
24.500000 106.470891
24.500000 106.894957
24.500000 107.319863
24.500000 107.745607
24.500000 108.172190
24.500000 108.599612
24.500000 109.027873
24.500000 109.456973
24.500000 109.886912
24.500000 110.317690
24.500000 110.749307
24.500000 111.181762
24.500000 111.615057
24.500000 112.049190
24.500000 112.484163
24.500000 112.919974
24.500000 113.356624
24.500000 113.794113
24.500000 114.232441
24.500000 114.671608
24.500000 115.111613
24.500000 115.552458
24.500000 115.994142
24.500000 116.436664
24.500000 116.880025
24.500000 117.324226
24.500000 117.769265
24.500000 118.215143
24.500000 118.661860
24.500000 119.109416
24.500000 119.557811
24.500000 120.007044
24.500000 120.457117
24.500000 120.908028
24.500000 121.359779
24.500000 121.812368
24.500000 122.265796
24.500000 122.720063
24.500000 123.175170
24.500000 123.631114
24.500000 124.087898
24.500000 124.545521
24.500000 125.003983
24.500000 125.463283
24.500000 125.923423
24.500000 126.384401
24.500000 126.846218
24.500000 127.308875
24.500000 127.772370
24.500000 128.236704
24.500000 128.701877
24.500000 129.167888
24.500000 129.634739
24.500000 130.102429
24.500000 130.570957
24.500000 131.040325
24.500000 131.510531
24.500000 131.981576
24.500000 132.453460
24.500000 132.926183
24.500000 133.399745
24.500000 133.874146
24.500000 134.349386
24.500000 134.825465
24.500000 135.302382
24.500000 135.780139
24.500000 136.258734
24.500000 136.738168
24.500000 137.218441
24.500000 137.699554
24.500000 138.181505
24.500000 138.664294
24.500000 139.147923
24.500000 139.632391
24.500000 140.117698
24.500000 140.603843
24.500000 141.090828
24.500000 141.578651
24.500000 142.067313
24.500000 142.556814
24.500000 143.047154
24.500000 143.538333
24.500000 144.030351
24.500000 144.523208
24.500000 145.016904
24.500000 145.511438
24.500000 146.006812
24.500000 146.503024
24.500000 147.000075
24.500000 147.497965
24.500000 147.996695
24.500000 148.496263
24.500000 148.996669
24.500000 149.497915
24.500000 150.000000
</POINTS>
</NEKTAR>

