<?xml version="1.0" encoding="utf-8" ?>
<NEKTAR>
<POINTS DIM="2" FIELDS="">
29.500000 -0.500000
29.500000 -0.499581
29.500000 -0.498322
29.500000 -0.496225
29.500000 -0.493289
29.500000 -0.489514
29.500000 -0.484900
29.500000 -0.479447
29.500000 -0.473155
29.500000 -0.466024
29.500000 -0.458055
29.500000 -0.449246
29.500000 -0.439599
29.500000 -0.429113
29.500000 -0.417787
29.500000 -0.405623
29.500000 -0.392620
29.500000 -0.378778
29.500000 -0.364097
29.500000 -0.348578
29.500000 -0.332219
29.500000 -0.315021
29.500000 -0.296985
29.500000 -0.278110
29.500000 -0.258395
29.500000 -0.237842
29.500000 -0.216450
29.500000 -0.194219
29.500000 -0.171149
29.500000 -0.147240
29.500000 -0.122493
29.500000 -0.096906
29.500000 -0.070481
29.500000 -0.043216
29.500000 -0.015113
29.500000 0.013829
29.500000 0.043611
29.500000 0.074231
29.500000 0.105690
29.500000 0.137987
29.500000 0.171124
29.500000 0.205100
29.500000 0.239914
29.500000 0.275568
29.500000 0.312060
29.500000 0.349391
29.500000 0.387562
29.500000 0.426571
29.500000 0.466419
29.500000 0.507106
29.500000 0.548631
29.500000 0.590996
29.500000 0.634200
29.500000 0.678242
29.500000 0.723124
29.500000 0.768844
29.500000 0.815403
29.500000 0.862801
29.500000 0.911038
29.500000 0.960114
29.500000 1.010029
29.500000 1.060783
29.500000 1.112376
29.500000 1.164807
29.500000 1.218078
29.500000 1.272187
29.500000 1.327135
29.500000 1.382923
29.500000 1.439549
29.500000 1.497014
29.500000 1.555318
29.500000 1.614460
29.500000 1.674442
29.500000 1.735263
29.500000 1.796922
29.500000 1.859421
29.500000 1.922758
29.500000 1.986934
29.500000 2.051949
29.500000 2.117803
29.500000 2.184496
29.500000 2.252028
29.500000 2.320399
29.500000 2.389609
29.500000 2.459657
29.500000 2.530545
29.500000 2.602271
29.500000 2.674836
29.500000 2.748241
29.500000 2.822484
29.500000 2.897566
29.500000 2.973487
29.500000 3.050247
29.500000 3.127845
29.500000 3.206283
29.500000 3.285559
29.500000 3.365675
29.500000 3.446629
29.500000 3.528422
29.500000 3.611055
29.500000 3.694526
29.500000 3.778836
29.500000 3.863984
29.500000 3.949972
29.500000 4.036799
29.500000 4.124465
29.500000 4.212969
29.500000 4.302312
29.500000 4.392495
29.500000 4.483516
29.500000 4.575376
29.500000 4.668075
29.500000 4.761613
29.500000 4.855990
29.500000 4.951206
29.500000 5.047260
29.500000 5.144154
29.500000 5.241886
29.500000 5.340458
29.500000 5.439868
29.500000 5.540117
29.500000 5.641205
29.500000 5.743132
29.500000 5.845898
29.500000 5.949503
29.500000 6.053946
29.500000 6.159229
29.500000 6.265350
29.500000 6.372311
29.500000 6.480110
29.500000 6.588748
29.500000 6.698225
29.500000 6.808542
29.500000 6.919696
29.500000 7.031690
29.500000 7.144523
29.500000 7.258195
29.500000 7.372705
29.500000 7.488055
29.500000 7.604243
29.500000 7.721270
29.500000 7.839136
29.500000 7.957842
29.500000 8.077386
29.500000 8.197768
29.500000 8.318990
29.500000 8.441051
29.500000 8.563950
29.500000 8.687689
29.500000 8.812266
29.500000 8.937683
29.500000 9.063938
29.500000 9.191032
29.500000 9.318965
29.500000 9.447737
29.500000 9.577348
29.500000 9.707798
29.500000 9.839086
29.500000 9.971214
29.500000 10.104180
29.500000 10.237986
29.500000 10.372630
29.500000 10.508113
29.500000 10.644435
29.500000 10.781596
29.500000 10.919596
29.500000 11.058435
29.500000 11.198113
29.500000 11.338629
29.500000 11.479985
29.500000 11.622179
29.500000 11.765212
29.500000 11.909085
29.500000 12.053796
29.500000 12.199346
29.500000 12.345735
29.500000 12.492963
29.500000 12.641029
29.500000 12.789935
29.500000 12.939680
29.500000 13.090263
29.500000 13.241686
29.500000 13.393947
29.500000 13.547047
29.500000 13.700986
29.500000 13.855764
29.500000 14.011381
29.500000 14.167837
29.500000 14.325131
29.500000 14.483265
29.500000 14.642238
29.500000 14.802049
29.500000 14.962699
29.500000 15.124189
29.500000 15.286517
29.500000 15.449684
29.500000 15.613690
29.500000 15.778535
29.500000 15.944218
29.500000 16.110741
29.500000 16.278103
29.500000 16.446303
29.500000 16.615342
29.500000 16.785221
29.500000 16.955938
29.500000 17.127494
29.500000 17.299889
29.500000 17.473123
29.500000 17.647196
29.500000 17.822108
29.500000 17.997858
29.500000 18.174448
29.500000 18.351876
29.500000 18.530143
29.500000 18.709250
29.500000 18.889195
29.500000 19.069979
29.500000 19.251602
29.500000 19.434064
29.500000 19.617365
29.500000 19.801504
29.500000 19.986483
29.500000 20.172300
29.500000 20.358957
29.500000 20.546452
29.500000 20.734786
29.500000 20.923959
29.500000 21.113971
29.500000 21.304822
29.500000 21.496512
29.500000 21.689041
29.500000 21.882408
29.500000 22.076615
29.500000 22.271660
29.500000 22.467545
29.500000 22.664268
29.500000 22.861830
29.500000 23.060231
29.500000 23.259471
29.500000 23.459550
29.500000 23.660468
29.500000 23.862224
29.500000 24.064820
29.500000 24.268255
29.500000 24.472528
29.500000 24.677640
29.500000 24.883591
29.500000 25.090382
29.500000 25.298011
29.500000 25.506479
29.500000 25.715785
29.500000 25.925931
29.500000 26.136916
29.500000 26.348739
29.500000 26.561402
29.500000 26.774903
29.500000 26.989243
29.500000 27.204423
29.500000 27.420441
29.500000 27.637298
29.500000 27.854993
29.500000 28.073528
29.500000 28.292902
29.500000 28.513115
29.500000 28.734166
29.500000 28.956056
29.500000 29.178786
29.500000 29.402354
29.500000 29.626761
29.500000 29.852007
29.500000 30.078092
29.500000 30.305016
29.500000 30.532779
29.500000 30.761380
29.500000 30.990821
29.500000 31.221100
29.500000 31.452219
29.500000 31.684176
29.500000 31.916972
29.500000 32.150607
29.500000 32.385081
29.500000 32.620394
29.500000 32.856546
29.500000 33.093537
29.500000 33.331366
29.500000 33.570035
29.500000 33.809542
29.500000 34.049888
29.500000 34.291074
29.500000 34.533098
29.500000 34.775961
29.500000 35.019663
29.500000 35.264204
29.500000 35.509583
29.500000 35.755802
29.500000 36.002860
29.500000 36.250756
29.500000 36.499491
29.500000 36.749066
29.500000 36.999479
29.500000 37.250731
29.500000 37.502822
29.500000 37.755752
29.500000 38.009521
29.500000 38.264128
29.500000 38.519575
29.500000 38.775860
29.500000 39.032985
29.500000 39.290948
29.500000 39.549750
29.500000 39.809392
29.500000 40.069872
29.500000 40.331191
29.500000 40.593348
29.500000 40.856345
29.500000 41.120181
29.500000 41.384855
29.500000 41.650369
29.500000 41.916721
29.500000 42.183913
29.500000 42.451943
29.500000 42.720812
29.500000 42.990520
29.500000 43.261067
29.500000 43.532453
29.500000 43.804677
29.500000 44.077741
29.500000 44.351643
29.500000 44.626385
29.500000 44.901965
29.500000 45.178384
29.500000 45.455643
29.500000 45.733740
29.500000 46.012676
29.500000 46.292450
29.500000 46.573064
29.500000 46.854517
29.500000 47.136808
29.500000 47.419939
29.500000 47.703908
29.500000 47.988717
29.500000 48.274364
29.500000 48.560850
29.500000 48.848175
29.500000 49.136339
29.500000 49.425342
29.500000 49.715183
29.500000 50.005864
29.500000 50.297384
29.500000 50.589742
29.500000 50.882939
29.500000 51.176976
29.500000 51.471851
29.500000 51.767565
29.500000 52.064118
29.500000 52.361510
29.500000 52.659740
29.500000 52.958810
29.500000 53.258719
29.500000 53.559466
29.500000 53.861053
29.500000 54.163478
29.500000 54.466742
29.500000 54.770845
29.500000 55.075787
29.500000 55.381568
29.500000 55.688188
29.500000 55.995647
29.500000 56.303944
29.500000 56.613081
29.500000 56.923056
29.500000 57.233871
29.500000 57.545524
29.500000 57.858016
29.500000 58.171347
29.500000 58.485517
29.500000 58.800526
29.500000 59.116374
29.500000 59.433060
29.500000 59.750586
29.500000 60.068950
29.500000 60.388154
29.500000 60.708196
29.500000 61.029077
29.500000 61.350798
29.500000 61.673357
29.500000 61.996754
29.500000 62.320991
29.500000 62.646067
29.500000 62.971982
29.500000 63.298735
29.500000 63.626328
29.500000 63.954759
29.500000 64.284029
29.500000 64.614138
29.500000 64.945087
29.500000 65.276874
29.500000 65.609499
29.500000 65.942964
29.500000 66.277268
29.500000 66.612411
29.500000 66.948392
29.500000 67.285212
29.500000 67.622872
29.500000 67.961370
29.500000 68.300707
29.500000 68.640883
29.500000 68.981898
29.500000 69.323752
29.500000 69.666445
29.500000 70.009976
29.500000 70.354347
29.500000 70.699556
29.500000 71.045605
29.500000 71.392492
29.500000 71.740218
29.500000 72.088783
29.500000 72.438187
29.500000 72.788430
29.500000 73.139512
29.500000 73.491433
29.500000 73.844192
29.500000 74.197791
29.500000 74.552228
29.500000 74.907504
29.500000 75.263620
29.500000 75.620574
29.500000 75.978367
29.500000 76.336999
29.500000 76.696470
29.500000 77.056779
29.500000 77.417928
29.500000 77.779916
29.500000 78.142742
29.500000 78.506407
29.500000 78.870912
29.500000 79.236255
29.500000 79.602437
29.500000 79.969458
29.500000 80.337318
29.500000 80.706017
29.500000 81.075554
29.500000 81.445931
29.500000 81.817147
29.500000 82.189201
29.500000 82.562094
29.500000 82.935827
29.500000 83.310398
29.500000 83.685808
29.500000 84.062057
29.500000 84.439145
29.500000 84.817071
29.500000 85.195837
29.500000 85.575442
29.500000 85.955885
29.500000 86.337167
29.500000 86.719289
29.500000 87.102249
29.500000 87.486048
29.500000 87.870686
29.500000 88.256163
29.500000 88.642479
29.500000 89.029633
29.500000 89.417627
29.500000 89.806460
29.500000 90.196131
29.500000 90.586641
29.500000 90.977991
29.500000 91.370179
29.500000 91.763206
29.500000 92.157072
29.500000 92.551777
29.500000 92.947320
29.500000 93.343703
29.500000 93.740925
29.500000 94.138985
29.500000 94.537885
29.500000 94.937623
29.500000 95.338200
29.500000 95.739616
29.500000 96.141871
29.500000 96.544965
29.500000 96.948898
29.500000 97.353670
29.500000 97.759280
29.500000 98.165730
29.500000 98.573018
29.500000 98.981146
29.500000 99.390112
29.500000 99.799917
29.500000 100.210561
29.500000 100.622044
29.500000 101.034366
29.500000 101.447527
29.500000 101.861526
29.500000 102.276365
29.500000 102.692042
29.500000 103.108559
29.500000 103.525914
29.500000 103.944108
29.500000 104.363141
29.500000 104.783013
29.500000 105.203724
29.500000 105.625274
29.500000 106.047663
29.500000 106.470891
29.500000 106.894957
29.500000 107.319863
29.500000 107.745607
29.500000 108.172190
29.500000 108.599612
29.500000 109.027873
29.500000 109.456973
29.500000 109.886912
29.500000 110.317690
29.500000 110.749307
29.500000 111.181762
29.500000 111.615057
29.500000 112.049190
29.500000 112.484163
29.500000 112.919974
29.500000 113.356624
29.500000 113.794113
29.500000 114.232441
29.500000 114.671608
29.500000 115.111613
29.500000 115.552458
29.500000 115.994142
29.500000 116.436664
29.500000 116.880025
29.500000 117.324226
29.500000 117.769265
29.500000 118.215143
29.500000 118.661860
29.500000 119.109416
29.500000 119.557811
29.500000 120.007044
29.500000 120.457117
29.500000 120.908028
29.500000 121.359779
29.500000 121.812368
29.500000 122.265796
29.500000 122.720063
29.500000 123.175170
29.500000 123.631114
29.500000 124.087898
29.500000 124.545521
29.500000 125.003983
29.500000 125.463283
29.500000 125.923423
29.500000 126.384401
29.500000 126.846218
29.500000 127.308875
29.500000 127.772370
29.500000 128.236704
29.500000 128.701877
29.500000 129.167888
29.500000 129.634739
29.500000 130.102429
29.500000 130.570957
29.500000 131.040325
29.500000 131.510531
29.500000 131.981576
29.500000 132.453460
29.500000 132.926183
29.500000 133.399745
29.500000 133.874146
29.500000 134.349386
29.500000 134.825465
29.500000 135.302382
29.500000 135.780139
29.500000 136.258734
29.500000 136.738168
29.500000 137.218441
29.500000 137.699554
29.500000 138.181505
29.500000 138.664294
29.500000 139.147923
29.500000 139.632391
29.500000 140.117698
29.500000 140.603843
29.500000 141.090828
29.500000 141.578651
29.500000 142.067313
29.500000 142.556814
29.500000 143.047154
29.500000 143.538333
29.500000 144.030351
29.500000 144.523208
29.500000 145.016904
29.500000 145.511438
29.500000 146.006812
29.500000 146.503024
29.500000 147.000075
29.500000 147.497965
29.500000 147.996695
29.500000 148.496263
29.500000 148.996669
29.500000 149.497915
29.500000 150.000000
</POINTS>
</NEKTAR>

