<?xml version="1.0" encoding="utf-8" ?>
<NEKTAR>
<POINTS DIM="2" FIELDS="">
41.500000 -1.500000
41.500000 -1.499578
41.500000 -1.498311
41.500000 -1.496200
41.500000 -1.493244
41.500000 -1.489444
41.500000 -1.484799
41.500000 -1.479310
41.500000 -1.472977
41.500000 -1.465799
41.500000 -1.457776
41.500000 -1.448909
41.500000 -1.439197
41.500000 -1.428642
41.500000 -1.417241
41.500000 -1.404996
41.500000 -1.391907
41.500000 -1.377973
41.500000 -1.363194
41.500000 -1.347571
41.500000 -1.331104
41.500000 -1.313792
41.500000 -1.295636
41.500000 -1.276635
41.500000 -1.256790
41.500000 -1.236100
41.500000 -1.214566
41.500000 -1.192187
41.500000 -1.168964
41.500000 -1.144896
41.500000 -1.119984
41.500000 -1.094228
41.500000 -1.067627
41.500000 -1.040181
41.500000 -1.011891
41.500000 -0.982756
41.500000 -0.952777
41.500000 -0.921954
41.500000 -0.890286
41.500000 -0.857774
41.500000 -0.824417
41.500000 -0.790215
41.500000 -0.755169
41.500000 -0.719279
41.500000 -0.682544
41.500000 -0.644965
41.500000 -0.606541
41.500000 -0.567273
41.500000 -0.527160
41.500000 -0.486203
41.500000 -0.444401
41.500000 -0.401755
41.500000 -0.358264
41.500000 -0.313929
41.500000 -0.268749
41.500000 -0.222725
41.500000 -0.175857
41.500000 -0.128143
41.500000 -0.079586
41.500000 -0.030184
41.500000 0.020063
41.500000 0.071154
41.500000 0.123089
41.500000 0.175869
41.500000 0.229494
41.500000 0.283962
41.500000 0.339276
41.500000 0.395434
41.500000 0.452436
41.500000 0.510283
41.500000 0.568974
41.500000 0.628510
41.500000 0.688890
41.500000 0.750115
41.500000 0.812184
41.500000 0.875098
41.500000 0.938856
41.500000 1.003459
41.500000 1.068906
41.500000 1.135198
41.500000 1.202334
41.500000 1.270314
41.500000 1.339139
41.500000 1.408809
41.500000 1.479323
41.500000 1.550681
41.500000 1.622884
41.500000 1.695932
41.500000 1.769824
41.500000 1.844560
41.500000 1.920141
41.500000 1.996566
41.500000 2.073836
41.500000 2.151951
41.500000 2.230909
41.500000 2.310713
41.500000 2.391360
41.500000 2.472853
41.500000 2.555189
41.500000 2.638371
41.500000 2.722396
41.500000 2.807266
41.500000 2.892981
41.500000 2.979540
41.500000 3.066944
41.500000 3.155192
41.500000 3.244284
41.500000 3.334221
41.500000 3.425003
41.500000 3.516629
41.500000 3.609099
41.500000 3.702414
41.500000 3.796574
41.500000 3.891578
41.500000 3.987426
41.500000 4.084119
41.500000 4.181656
41.500000 4.280038
41.500000 4.379265
41.500000 4.479335
41.500000 4.580251
41.500000 4.682010
41.500000 4.784615
41.500000 4.888063
41.500000 4.992356
41.500000 5.097494
41.500000 5.203476
41.500000 5.310303
41.500000 5.417974
41.500000 5.526490
41.500000 5.635850
41.500000 5.746054
41.500000 5.857103
41.500000 5.968997
41.500000 6.081735
41.500000 6.195317
41.500000 6.309744
41.500000 6.425016
41.500000 6.541131
41.500000 6.658092
41.500000 6.775897
41.500000 6.894546
41.500000 7.014040
41.500000 7.134378
41.500000 7.255561
41.500000 7.377588
41.500000 7.500460
41.500000 7.624176
41.500000 7.748737
41.500000 7.874142
41.500000 8.000392
41.500000 8.127486
41.500000 8.255424
41.500000 8.384207
41.500000 8.513835
41.500000 8.644307
41.500000 8.775624
41.500000 8.907785
41.500000 9.040790
41.500000 9.174640
41.500000 9.309334
41.500000 9.444873
41.500000 9.581257
41.500000 9.718485
41.500000 9.856557
41.500000 9.995474
41.500000 10.135235
41.500000 10.275841
41.500000 10.417291
41.500000 10.559586
41.500000 10.702725
41.500000 10.846709
41.500000 10.991537
41.500000 11.137210
41.500000 11.283727
41.500000 11.431089
41.500000 11.579295
41.500000 11.728345
41.500000 11.878240
41.500000 12.028980
41.500000 12.180564
41.500000 12.332992
41.500000 12.486265
41.500000 12.640383
41.500000 12.795345
41.500000 12.951151
41.500000 13.107802
41.500000 13.265297
41.500000 13.423637
41.500000 13.582822
41.500000 13.742850
41.500000 13.903724
41.500000 14.065442
41.500000 14.228004
41.500000 14.391411
41.500000 14.555662
41.500000 14.720757
41.500000 14.886698
41.500000 15.053482
41.500000 15.221111
41.500000 15.389585
41.500000 15.558903
41.500000 15.729066
41.500000 15.900073
41.500000 16.071924
41.500000 16.244620
41.500000 16.418161
41.500000 16.592546
41.500000 16.767775
41.500000 16.943849
41.500000 17.120768
41.500000 17.298530
41.500000 17.477138
41.500000 17.656590
41.500000 17.836886
41.500000 18.018027
41.500000 18.200012
41.500000 18.382842
41.500000 18.566516
41.500000 18.751035
41.500000 18.936398
41.500000 19.122606
41.500000 19.309658
41.500000 19.497554
41.500000 19.686295
41.500000 19.875881
41.500000 20.066311
41.500000 20.257586
41.500000 20.449705
41.500000 20.642668
41.500000 20.836476
41.500000 21.031129
41.500000 21.226626
41.500000 21.422967
41.500000 21.620153
41.500000 21.818183
41.500000 22.017058
41.500000 22.216778
41.500000 22.417341
41.500000 22.618750
41.500000 22.821002
41.500000 23.024100
41.500000 23.228041
41.500000 23.432828
41.500000 23.638458
41.500000 23.844934
41.500000 24.052253
41.500000 24.260417
41.500000 24.469426
41.500000 24.679279
41.500000 24.889977
41.500000 25.101519
41.500000 25.313905
41.500000 25.527136
41.500000 25.741212
41.500000 25.956132
41.500000 26.171896
41.500000 26.388505
41.500000 26.605958
41.500000 26.824256
41.500000 27.043399
41.500000 27.263386
41.500000 27.484217
41.500000 27.705893
41.500000 27.928413
41.500000 28.151778
41.500000 28.375987
41.500000 28.601041
41.500000 28.826939
41.500000 29.053682
41.500000 29.281269
41.500000 29.509700
41.500000 29.738976
41.500000 29.969097
41.500000 30.200062
41.500000 30.431872
41.500000 30.664526
41.500000 30.898024
41.500000 31.132367
41.500000 31.367555
41.500000 31.603587
41.500000 31.840463
41.500000 32.078184
41.500000 32.316749
41.500000 32.556159
41.500000 32.796414
41.500000 33.037512
41.500000 33.279456
41.500000 33.522244
41.500000 33.765876
41.500000 34.010353
41.500000 34.255674
41.500000 34.501839
41.500000 34.748850
41.500000 34.996704
41.500000 35.245403
41.500000 35.494947
41.500000 35.745335
41.500000 35.996568
41.500000 36.248645
41.500000 36.501566
41.500000 36.755332
41.500000 37.009943
41.500000 37.265398
41.500000 37.521697
41.500000 37.778841
41.500000 38.036830
41.500000 38.295662
41.500000 38.555340
41.500000 38.815862
41.500000 39.077228
41.500000 39.339439
41.500000 39.602494
41.500000 39.866394
41.500000 40.131138
41.500000 40.396727
41.500000 40.663160
41.500000 40.930438
41.500000 41.198560
41.500000 41.467527
41.500000 41.737338
41.500000 42.007993
41.500000 42.279493
41.500000 42.551838
41.500000 42.825027
41.500000 43.099060
41.500000 43.373938
41.500000 43.649661
41.500000 43.926228
41.500000 44.203639
41.500000 44.481895
41.500000 44.760996
41.500000 45.040941
41.500000 45.321730
41.500000 45.603364
41.500000 45.885842
41.500000 46.169165
41.500000 46.453332
41.500000 46.738344
41.500000 47.024200
41.500000 47.310901
41.500000 47.598446
41.500000 47.886836
41.500000 48.176070
41.500000 48.466148
41.500000 48.757071
41.500000 49.048839
41.500000 49.341451
41.500000 49.634908
41.500000 49.929209
41.500000 50.224354
41.500000 50.520344
41.500000 50.817179
41.500000 51.114858
41.500000 51.413381
41.500000 51.712749
41.500000 52.012961
41.500000 52.314018
41.500000 52.615919
41.500000 52.918665
41.500000 53.222256
41.500000 53.526690
41.500000 53.831970
41.500000 54.138093
41.500000 54.445061
41.500000 54.752874
41.500000 55.061531
41.500000 55.371033
41.500000 55.681379
41.500000 55.992570
41.500000 56.304605
41.500000 56.617484
41.500000 56.931208
41.500000 57.245777
41.500000 57.561190
41.500000 57.877447
41.500000 58.194549
41.500000 58.512496
41.500000 58.831287
41.500000 59.150922
41.500000 59.471402
41.500000 59.792726
41.500000 60.114895
41.500000 60.437908
41.500000 60.761766
41.500000 61.086469
41.500000 61.412015
41.500000 61.738407
41.500000 62.065642
41.500000 62.393722
41.500000 62.722647
41.500000 63.052416
41.500000 63.383030
41.500000 63.714488
41.500000 64.046791
41.500000 64.379938
41.500000 64.713929
41.500000 65.048765
41.500000 65.384446
41.500000 65.720971
41.500000 66.058340
41.500000 66.396554
41.500000 66.735612
41.500000 67.075515
41.500000 67.416263
41.500000 67.757855
41.500000 68.100291
41.500000 68.443572
41.500000 68.787697
41.500000 69.132667
41.500000 69.478481
41.500000 69.825140
41.500000 70.172643
41.500000 70.520991
41.500000 70.870183
41.500000 71.220220
41.500000 71.571101
41.500000 71.922826
41.500000 72.275396
41.500000 72.628811
41.500000 72.983070
41.500000 73.338174
41.500000 73.694122
41.500000 74.050914
41.500000 74.408551
41.500000 74.767032
41.500000 75.126358
41.500000 75.486529
41.500000 75.847544
41.500000 76.209403
41.500000 76.572107
41.500000 76.935655
41.500000 77.300048
41.500000 77.665285
41.500000 78.031367
41.500000 78.398293
41.500000 78.766064
41.500000 79.134679
41.500000 79.504139
41.500000 79.874443
41.500000 80.245592
41.500000 80.617585
41.500000 80.990422
41.500000 81.364104
41.500000 81.738631
41.500000 82.114002
41.500000 82.490217
41.500000 82.867277
41.500000 83.245182
41.500000 83.623931
41.500000 84.003524
41.500000 84.383962
41.500000 84.765245
41.500000 85.147371
41.500000 85.530343
41.500000 85.914159
41.500000 86.298819
41.500000 86.684324
41.500000 87.070673
41.500000 87.457867
41.500000 87.845905
41.500000 88.234788
41.500000 88.624515
41.500000 89.015086
41.500000 89.406502
41.500000 89.798763
41.500000 90.191868
41.500000 90.585818
41.500000 90.980612
41.500000 91.376250
41.500000 91.772733
41.500000 92.170061
41.500000 92.568233
41.500000 92.967249
41.500000 93.367110
41.500000 93.767816
41.500000 94.169365
41.500000 94.571760
41.500000 94.974999
41.500000 95.379082
41.500000 95.784010
41.500000 96.189782
41.500000 96.596399
41.500000 97.003860
41.500000 97.412166
41.500000 97.821316
41.500000 98.231311
41.500000 98.642150
41.500000 99.053833
41.500000 99.466362
41.500000 99.879734
41.500000 100.293951
41.500000 100.709013
41.500000 101.124919
41.500000 101.541669
41.500000 101.959264
41.500000 102.377704
41.500000 102.796988
41.500000 103.217116
41.500000 103.638089
41.500000 104.059906
41.500000 104.482568
41.500000 104.906075
41.500000 105.330426
41.500000 105.755621
41.500000 106.181661
41.500000 106.608545
41.500000 107.036274
41.500000 107.464847
41.500000 107.894265
41.500000 108.324527
41.500000 108.755633
41.500000 109.187584
41.500000 109.620380
41.500000 110.054020
41.500000 110.488505
41.500000 110.923834
41.500000 111.360007
41.500000 111.797025
41.500000 112.234888
41.500000 112.673595
41.500000 113.113146
41.500000 113.553542
41.500000 113.994783
41.500000 114.436868
41.500000 114.879797
41.500000 115.323571
41.500000 115.768189
41.500000 116.213652
41.500000 116.659959
41.500000 117.107111
41.500000 117.555107
41.500000 118.003948
41.500000 118.453633
41.500000 118.904163
41.500000 119.355537
41.500000 119.807756
41.500000 120.260819
41.500000 120.714726
41.500000 121.169478
41.500000 121.625075
41.500000 122.081516
41.500000 122.538801
41.500000 122.996931
41.500000 123.455906
41.500000 123.915725
41.500000 124.376388
41.500000 124.837896
41.500000 125.300249
41.500000 125.763445
41.500000 126.227487
41.500000 126.692373
41.500000 127.158103
41.500000 127.624678
41.500000 128.092097
41.500000 128.560361
41.500000 129.029469
41.500000 129.499422
41.500000 129.970219
41.500000 130.441861
41.500000 130.914347
41.500000 131.387677
41.500000 131.861852
41.500000 132.336872
41.500000 132.812736
41.500000 133.289445
41.500000 133.766998
41.500000 134.245395
41.500000 134.724637
41.500000 135.204724
41.500000 135.685654
41.500000 136.167430
41.500000 136.650050
41.500000 137.133514
41.500000 137.617823
41.500000 138.102976
41.500000 138.588974
41.500000 139.075816
41.500000 139.563503
41.500000 140.052034
41.500000 140.541410
41.500000 141.031630
41.500000 141.522695
41.500000 142.014604
41.500000 142.507358
41.500000 143.000956
41.500000 143.495399
41.500000 143.990686
41.500000 144.486817
41.500000 144.983793
41.500000 145.481614
41.500000 145.980279
41.500000 146.479788
41.500000 146.980142
41.500000 147.481341
41.500000 147.983384
41.500000 148.486271
41.500000 148.990003
41.500000 149.494579
41.500000 150.000000
</POINTS>
</NEKTAR>

