<?xml version="1.0" encoding="utf-8" ?>
<NEKTAR>
<POINTS DIM="2" FIELDS="">
36.500000 -1.500000
36.500000 -1.499578
36.500000 -1.498311
36.500000 -1.496200
36.500000 -1.493244
36.500000 -1.489444
36.500000 -1.484799
36.500000 -1.479310
36.500000 -1.472977
36.500000 -1.465799
36.500000 -1.457776
36.500000 -1.448909
36.500000 -1.439197
36.500000 -1.428642
36.500000 -1.417241
36.500000 -1.404996
36.500000 -1.391907
36.500000 -1.377973
36.500000 -1.363194
36.500000 -1.347571
36.500000 -1.331104
36.500000 -1.313792
36.500000 -1.295636
36.500000 -1.276635
36.500000 -1.256790
36.500000 -1.236100
36.500000 -1.214566
36.500000 -1.192187
36.500000 -1.168964
36.500000 -1.144896
36.500000 -1.119984
36.500000 -1.094228
36.500000 -1.067627
36.500000 -1.040181
36.500000 -1.011891
36.500000 -0.982756
36.500000 -0.952777
36.500000 -0.921954
36.500000 -0.890286
36.500000 -0.857774
36.500000 -0.824417
36.500000 -0.790215
36.500000 -0.755169
36.500000 -0.719279
36.500000 -0.682544
36.500000 -0.644965
36.500000 -0.606541
36.500000 -0.567273
36.500000 -0.527160
36.500000 -0.486203
36.500000 -0.444401
36.500000 -0.401755
36.500000 -0.358264
36.500000 -0.313929
36.500000 -0.268749
36.500000 -0.222725
36.500000 -0.175857
36.500000 -0.128143
36.500000 -0.079586
36.500000 -0.030184
36.500000 0.020063
36.500000 0.071154
36.500000 0.123089
36.500000 0.175869
36.500000 0.229494
36.500000 0.283962
36.500000 0.339276
36.500000 0.395434
36.500000 0.452436
36.500000 0.510283
36.500000 0.568974
36.500000 0.628510
36.500000 0.688890
36.500000 0.750115
36.500000 0.812184
36.500000 0.875098
36.500000 0.938856
36.500000 1.003459
36.500000 1.068906
36.500000 1.135198
36.500000 1.202334
36.500000 1.270314
36.500000 1.339139
36.500000 1.408809
36.500000 1.479323
36.500000 1.550681
36.500000 1.622884
36.500000 1.695932
36.500000 1.769824
36.500000 1.844560
36.500000 1.920141
36.500000 1.996566
36.500000 2.073836
36.500000 2.151951
36.500000 2.230909
36.500000 2.310713
36.500000 2.391360
36.500000 2.472853
36.500000 2.555189
36.500000 2.638371
36.500000 2.722396
36.500000 2.807266
36.500000 2.892981
36.500000 2.979540
36.500000 3.066944
36.500000 3.155192
36.500000 3.244284
36.500000 3.334221
36.500000 3.425003
36.500000 3.516629
36.500000 3.609099
36.500000 3.702414
36.500000 3.796574
36.500000 3.891578
36.500000 3.987426
36.500000 4.084119
36.500000 4.181656
36.500000 4.280038
36.500000 4.379265
36.500000 4.479335
36.500000 4.580251
36.500000 4.682010
36.500000 4.784615
36.500000 4.888063
36.500000 4.992356
36.500000 5.097494
36.500000 5.203476
36.500000 5.310303
36.500000 5.417974
36.500000 5.526490
36.500000 5.635850
36.500000 5.746054
36.500000 5.857103
36.500000 5.968997
36.500000 6.081735
36.500000 6.195317
36.500000 6.309744
36.500000 6.425016
36.500000 6.541131
36.500000 6.658092
36.500000 6.775897
36.500000 6.894546
36.500000 7.014040
36.500000 7.134378
36.500000 7.255561
36.500000 7.377588
36.500000 7.500460
36.500000 7.624176
36.500000 7.748737
36.500000 7.874142
36.500000 8.000392
36.500000 8.127486
36.500000 8.255424
36.500000 8.384207
36.500000 8.513835
36.500000 8.644307
36.500000 8.775624
36.500000 8.907785
36.500000 9.040790
36.500000 9.174640
36.500000 9.309334
36.500000 9.444873
36.500000 9.581257
36.500000 9.718485
36.500000 9.856557
36.500000 9.995474
36.500000 10.135235
36.500000 10.275841
36.500000 10.417291
36.500000 10.559586
36.500000 10.702725
36.500000 10.846709
36.500000 10.991537
36.500000 11.137210
36.500000 11.283727
36.500000 11.431089
36.500000 11.579295
36.500000 11.728345
36.500000 11.878240
36.500000 12.028980
36.500000 12.180564
36.500000 12.332992
36.500000 12.486265
36.500000 12.640383
36.500000 12.795345
36.500000 12.951151
36.500000 13.107802
36.500000 13.265297
36.500000 13.423637
36.500000 13.582822
36.500000 13.742850
36.500000 13.903724
36.500000 14.065442
36.500000 14.228004
36.500000 14.391411
36.500000 14.555662
36.500000 14.720757
36.500000 14.886698
36.500000 15.053482
36.500000 15.221111
36.500000 15.389585
36.500000 15.558903
36.500000 15.729066
36.500000 15.900073
36.500000 16.071924
36.500000 16.244620
36.500000 16.418161
36.500000 16.592546
36.500000 16.767775
36.500000 16.943849
36.500000 17.120768
36.500000 17.298530
36.500000 17.477138
36.500000 17.656590
36.500000 17.836886
36.500000 18.018027
36.500000 18.200012
36.500000 18.382842
36.500000 18.566516
36.500000 18.751035
36.500000 18.936398
36.500000 19.122606
36.500000 19.309658
36.500000 19.497554
36.500000 19.686295
36.500000 19.875881
36.500000 20.066311
36.500000 20.257586
36.500000 20.449705
36.500000 20.642668
36.500000 20.836476
36.500000 21.031129
36.500000 21.226626
36.500000 21.422967
36.500000 21.620153
36.500000 21.818183
36.500000 22.017058
36.500000 22.216778
36.500000 22.417341
36.500000 22.618750
36.500000 22.821002
36.500000 23.024100
36.500000 23.228041
36.500000 23.432828
36.500000 23.638458
36.500000 23.844934
36.500000 24.052253
36.500000 24.260417
36.500000 24.469426
36.500000 24.679279
36.500000 24.889977
36.500000 25.101519
36.500000 25.313905
36.500000 25.527136
36.500000 25.741212
36.500000 25.956132
36.500000 26.171896
36.500000 26.388505
36.500000 26.605958
36.500000 26.824256
36.500000 27.043399
36.500000 27.263386
36.500000 27.484217
36.500000 27.705893
36.500000 27.928413
36.500000 28.151778
36.500000 28.375987
36.500000 28.601041
36.500000 28.826939
36.500000 29.053682
36.500000 29.281269
36.500000 29.509700
36.500000 29.738976
36.500000 29.969097
36.500000 30.200062
36.500000 30.431872
36.500000 30.664526
36.500000 30.898024
36.500000 31.132367
36.500000 31.367555
36.500000 31.603587
36.500000 31.840463
36.500000 32.078184
36.500000 32.316749
36.500000 32.556159
36.500000 32.796414
36.500000 33.037512
36.500000 33.279456
36.500000 33.522244
36.500000 33.765876
36.500000 34.010353
36.500000 34.255674
36.500000 34.501839
36.500000 34.748850
36.500000 34.996704
36.500000 35.245403
36.500000 35.494947
36.500000 35.745335
36.500000 35.996568
36.500000 36.248645
36.500000 36.501566
36.500000 36.755332
36.500000 37.009943
36.500000 37.265398
36.500000 37.521697
36.500000 37.778841
36.500000 38.036830
36.500000 38.295662
36.500000 38.555340
36.500000 38.815862
36.500000 39.077228
36.500000 39.339439
36.500000 39.602494
36.500000 39.866394
36.500000 40.131138
36.500000 40.396727
36.500000 40.663160
36.500000 40.930438
36.500000 41.198560
36.500000 41.467527
36.500000 41.737338
36.500000 42.007993
36.500000 42.279493
36.500000 42.551838
36.500000 42.825027
36.500000 43.099060
36.500000 43.373938
36.500000 43.649661
36.500000 43.926228
36.500000 44.203639
36.500000 44.481895
36.500000 44.760996
36.500000 45.040941
36.500000 45.321730
36.500000 45.603364
36.500000 45.885842
36.500000 46.169165
36.500000 46.453332
36.500000 46.738344
36.500000 47.024200
36.500000 47.310901
36.500000 47.598446
36.500000 47.886836
36.500000 48.176070
36.500000 48.466148
36.500000 48.757071
36.500000 49.048839
36.500000 49.341451
36.500000 49.634908
36.500000 49.929209
36.500000 50.224354
36.500000 50.520344
36.500000 50.817179
36.500000 51.114858
36.500000 51.413381
36.500000 51.712749
36.500000 52.012961
36.500000 52.314018
36.500000 52.615919
36.500000 52.918665
36.500000 53.222256
36.500000 53.526690
36.500000 53.831970
36.500000 54.138093
36.500000 54.445061
36.500000 54.752874
36.500000 55.061531
36.500000 55.371033
36.500000 55.681379
36.500000 55.992570
36.500000 56.304605
36.500000 56.617484
36.500000 56.931208
36.500000 57.245777
36.500000 57.561190
36.500000 57.877447
36.500000 58.194549
36.500000 58.512496
36.500000 58.831287
36.500000 59.150922
36.500000 59.471402
36.500000 59.792726
36.500000 60.114895
36.500000 60.437908
36.500000 60.761766
36.500000 61.086469
36.500000 61.412015
36.500000 61.738407
36.500000 62.065642
36.500000 62.393722
36.500000 62.722647
36.500000 63.052416
36.500000 63.383030
36.500000 63.714488
36.500000 64.046791
36.500000 64.379938
36.500000 64.713929
36.500000 65.048765
36.500000 65.384446
36.500000 65.720971
36.500000 66.058340
36.500000 66.396554
36.500000 66.735612
36.500000 67.075515
36.500000 67.416263
36.500000 67.757855
36.500000 68.100291
36.500000 68.443572
36.500000 68.787697
36.500000 69.132667
36.500000 69.478481
36.500000 69.825140
36.500000 70.172643
36.500000 70.520991
36.500000 70.870183
36.500000 71.220220
36.500000 71.571101
36.500000 71.922826
36.500000 72.275396
36.500000 72.628811
36.500000 72.983070
36.500000 73.338174
36.500000 73.694122
36.500000 74.050914
36.500000 74.408551
36.500000 74.767032
36.500000 75.126358
36.500000 75.486529
36.500000 75.847544
36.500000 76.209403
36.500000 76.572107
36.500000 76.935655
36.500000 77.300048
36.500000 77.665285
36.500000 78.031367
36.500000 78.398293
36.500000 78.766064
36.500000 79.134679
36.500000 79.504139
36.500000 79.874443
36.500000 80.245592
36.500000 80.617585
36.500000 80.990422
36.500000 81.364104
36.500000 81.738631
36.500000 82.114002
36.500000 82.490217
36.500000 82.867277
36.500000 83.245182
36.500000 83.623931
36.500000 84.003524
36.500000 84.383962
36.500000 84.765245
36.500000 85.147371
36.500000 85.530343
36.500000 85.914159
36.500000 86.298819
36.500000 86.684324
36.500000 87.070673
36.500000 87.457867
36.500000 87.845905
36.500000 88.234788
36.500000 88.624515
36.500000 89.015086
36.500000 89.406502
36.500000 89.798763
36.500000 90.191868
36.500000 90.585818
36.500000 90.980612
36.500000 91.376250
36.500000 91.772733
36.500000 92.170061
36.500000 92.568233
36.500000 92.967249
36.500000 93.367110
36.500000 93.767816
36.500000 94.169365
36.500000 94.571760
36.500000 94.974999
36.500000 95.379082
36.500000 95.784010
36.500000 96.189782
36.500000 96.596399
36.500000 97.003860
36.500000 97.412166
36.500000 97.821316
36.500000 98.231311
36.500000 98.642150
36.500000 99.053833
36.500000 99.466362
36.500000 99.879734
36.500000 100.293951
36.500000 100.709013
36.500000 101.124919
36.500000 101.541669
36.500000 101.959264
36.500000 102.377704
36.500000 102.796988
36.500000 103.217116
36.500000 103.638089
36.500000 104.059906
36.500000 104.482568
36.500000 104.906075
36.500000 105.330426
36.500000 105.755621
36.500000 106.181661
36.500000 106.608545
36.500000 107.036274
36.500000 107.464847
36.500000 107.894265
36.500000 108.324527
36.500000 108.755633
36.500000 109.187584
36.500000 109.620380
36.500000 110.054020
36.500000 110.488505
36.500000 110.923834
36.500000 111.360007
36.500000 111.797025
36.500000 112.234888
36.500000 112.673595
36.500000 113.113146
36.500000 113.553542
36.500000 113.994783
36.500000 114.436868
36.500000 114.879797
36.500000 115.323571
36.500000 115.768189
36.500000 116.213652
36.500000 116.659959
36.500000 117.107111
36.500000 117.555107
36.500000 118.003948
36.500000 118.453633
36.500000 118.904163
36.500000 119.355537
36.500000 119.807756
36.500000 120.260819
36.500000 120.714726
36.500000 121.169478
36.500000 121.625075
36.500000 122.081516
36.500000 122.538801
36.500000 122.996931
36.500000 123.455906
36.500000 123.915725
36.500000 124.376388
36.500000 124.837896
36.500000 125.300249
36.500000 125.763445
36.500000 126.227487
36.500000 126.692373
36.500000 127.158103
36.500000 127.624678
36.500000 128.092097
36.500000 128.560361
36.500000 129.029469
36.500000 129.499422
36.500000 129.970219
36.500000 130.441861
36.500000 130.914347
36.500000 131.387677
36.500000 131.861852
36.500000 132.336872
36.500000 132.812736
36.500000 133.289445
36.500000 133.766998
36.500000 134.245395
36.500000 134.724637
36.500000 135.204724
36.500000 135.685654
36.500000 136.167430
36.500000 136.650050
36.500000 137.133514
36.500000 137.617823
36.500000 138.102976
36.500000 138.588974
36.500000 139.075816
36.500000 139.563503
36.500000 140.052034
36.500000 140.541410
36.500000 141.031630
36.500000 141.522695
36.500000 142.014604
36.500000 142.507358
36.500000 143.000956
36.500000 143.495399
36.500000 143.990686
36.500000 144.486817
36.500000 144.983793
36.500000 145.481614
36.500000 145.980279
36.500000 146.479788
36.500000 146.980142
36.500000 147.481341
36.500000 147.983384
36.500000 148.486271
36.500000 148.990003
36.500000 149.494579
36.500000 150.000000
</POINTS>
</NEKTAR>

