<?xml version="1.0" encoding="utf-8" ?>
<NEKTAR>
<POINTS DIM="2" FIELDS="">
49.500000 -1.500000
49.500000 -1.499578
49.500000 -1.498311
49.500000 -1.496200
49.500000 -1.493244
49.500000 -1.489444
49.500000 -1.484799
49.500000 -1.479310
49.500000 -1.472977
49.500000 -1.465799
49.500000 -1.457776
49.500000 -1.448909
49.500000 -1.439197
49.500000 -1.428642
49.500000 -1.417241
49.500000 -1.404996
49.500000 -1.391907
49.500000 -1.377973
49.500000 -1.363194
49.500000 -1.347571
49.500000 -1.331104
49.500000 -1.313792
49.500000 -1.295636
49.500000 -1.276635
49.500000 -1.256790
49.500000 -1.236100
49.500000 -1.214566
49.500000 -1.192187
49.500000 -1.168964
49.500000 -1.144896
49.500000 -1.119984
49.500000 -1.094228
49.500000 -1.067627
49.500000 -1.040181
49.500000 -1.011891
49.500000 -0.982756
49.500000 -0.952777
49.500000 -0.921954
49.500000 -0.890286
49.500000 -0.857774
49.500000 -0.824417
49.500000 -0.790215
49.500000 -0.755169
49.500000 -0.719279
49.500000 -0.682544
49.500000 -0.644965
49.500000 -0.606541
49.500000 -0.567273
49.500000 -0.527160
49.500000 -0.486203
49.500000 -0.444401
49.500000 -0.401755
49.500000 -0.358264
49.500000 -0.313929
49.500000 -0.268749
49.500000 -0.222725
49.500000 -0.175857
49.500000 -0.128143
49.500000 -0.079586
49.500000 -0.030184
49.500000 0.020063
49.500000 0.071154
49.500000 0.123089
49.500000 0.175869
49.500000 0.229494
49.500000 0.283962
49.500000 0.339276
49.500000 0.395434
49.500000 0.452436
49.500000 0.510283
49.500000 0.568974
49.500000 0.628510
49.500000 0.688890
49.500000 0.750115
49.500000 0.812184
49.500000 0.875098
49.500000 0.938856
49.500000 1.003459
49.500000 1.068906
49.500000 1.135198
49.500000 1.202334
49.500000 1.270314
49.500000 1.339139
49.500000 1.408809
49.500000 1.479323
49.500000 1.550681
49.500000 1.622884
49.500000 1.695932
49.500000 1.769824
49.500000 1.844560
49.500000 1.920141
49.500000 1.996566
49.500000 2.073836
49.500000 2.151951
49.500000 2.230909
49.500000 2.310713
49.500000 2.391360
49.500000 2.472853
49.500000 2.555189
49.500000 2.638371
49.500000 2.722396
49.500000 2.807266
49.500000 2.892981
49.500000 2.979540
49.500000 3.066944
49.500000 3.155192
49.500000 3.244284
49.500000 3.334221
49.500000 3.425003
49.500000 3.516629
49.500000 3.609099
49.500000 3.702414
49.500000 3.796574
49.500000 3.891578
49.500000 3.987426
49.500000 4.084119
49.500000 4.181656
49.500000 4.280038
49.500000 4.379265
49.500000 4.479335
49.500000 4.580251
49.500000 4.682010
49.500000 4.784615
49.500000 4.888063
49.500000 4.992356
49.500000 5.097494
49.500000 5.203476
49.500000 5.310303
49.500000 5.417974
49.500000 5.526490
49.500000 5.635850
49.500000 5.746054
49.500000 5.857103
49.500000 5.968997
49.500000 6.081735
49.500000 6.195317
49.500000 6.309744
49.500000 6.425016
49.500000 6.541131
49.500000 6.658092
49.500000 6.775897
49.500000 6.894546
49.500000 7.014040
49.500000 7.134378
49.500000 7.255561
49.500000 7.377588
49.500000 7.500460
49.500000 7.624176
49.500000 7.748737
49.500000 7.874142
49.500000 8.000392
49.500000 8.127486
49.500000 8.255424
49.500000 8.384207
49.500000 8.513835
49.500000 8.644307
49.500000 8.775624
49.500000 8.907785
49.500000 9.040790
49.500000 9.174640
49.500000 9.309334
49.500000 9.444873
49.500000 9.581257
49.500000 9.718485
49.500000 9.856557
49.500000 9.995474
49.500000 10.135235
49.500000 10.275841
49.500000 10.417291
49.500000 10.559586
49.500000 10.702725
49.500000 10.846709
49.500000 10.991537
49.500000 11.137210
49.500000 11.283727
49.500000 11.431089
49.500000 11.579295
49.500000 11.728345
49.500000 11.878240
49.500000 12.028980
49.500000 12.180564
49.500000 12.332992
49.500000 12.486265
49.500000 12.640383
49.500000 12.795345
49.500000 12.951151
49.500000 13.107802
49.500000 13.265297
49.500000 13.423637
49.500000 13.582822
49.500000 13.742850
49.500000 13.903724
49.500000 14.065442
49.500000 14.228004
49.500000 14.391411
49.500000 14.555662
49.500000 14.720757
49.500000 14.886698
49.500000 15.053482
49.500000 15.221111
49.500000 15.389585
49.500000 15.558903
49.500000 15.729066
49.500000 15.900073
49.500000 16.071924
49.500000 16.244620
49.500000 16.418161
49.500000 16.592546
49.500000 16.767775
49.500000 16.943849
49.500000 17.120768
49.500000 17.298530
49.500000 17.477138
49.500000 17.656590
49.500000 17.836886
49.500000 18.018027
49.500000 18.200012
49.500000 18.382842
49.500000 18.566516
49.500000 18.751035
49.500000 18.936398
49.500000 19.122606
49.500000 19.309658
49.500000 19.497554
49.500000 19.686295
49.500000 19.875881
49.500000 20.066311
49.500000 20.257586
49.500000 20.449705
49.500000 20.642668
49.500000 20.836476
49.500000 21.031129
49.500000 21.226626
49.500000 21.422967
49.500000 21.620153
49.500000 21.818183
49.500000 22.017058
49.500000 22.216778
49.500000 22.417341
49.500000 22.618750
49.500000 22.821002
49.500000 23.024100
49.500000 23.228041
49.500000 23.432828
49.500000 23.638458
49.500000 23.844934
49.500000 24.052253
49.500000 24.260417
49.500000 24.469426
49.500000 24.679279
49.500000 24.889977
49.500000 25.101519
49.500000 25.313905
49.500000 25.527136
49.500000 25.741212
49.500000 25.956132
49.500000 26.171896
49.500000 26.388505
49.500000 26.605958
49.500000 26.824256
49.500000 27.043399
49.500000 27.263386
49.500000 27.484217
49.500000 27.705893
49.500000 27.928413
49.500000 28.151778
49.500000 28.375987
49.500000 28.601041
49.500000 28.826939
49.500000 29.053682
49.500000 29.281269
49.500000 29.509700
49.500000 29.738976
49.500000 29.969097
49.500000 30.200062
49.500000 30.431872
49.500000 30.664526
49.500000 30.898024
49.500000 31.132367
49.500000 31.367555
49.500000 31.603587
49.500000 31.840463
49.500000 32.078184
49.500000 32.316749
49.500000 32.556159
49.500000 32.796414
49.500000 33.037512
49.500000 33.279456
49.500000 33.522244
49.500000 33.765876
49.500000 34.010353
49.500000 34.255674
49.500000 34.501839
49.500000 34.748850
49.500000 34.996704
49.500000 35.245403
49.500000 35.494947
49.500000 35.745335
49.500000 35.996568
49.500000 36.248645
49.500000 36.501566
49.500000 36.755332
49.500000 37.009943
49.500000 37.265398
49.500000 37.521697
49.500000 37.778841
49.500000 38.036830
49.500000 38.295662
49.500000 38.555340
49.500000 38.815862
49.500000 39.077228
49.500000 39.339439
49.500000 39.602494
49.500000 39.866394
49.500000 40.131138
49.500000 40.396727
49.500000 40.663160
49.500000 40.930438
49.500000 41.198560
49.500000 41.467527
49.500000 41.737338
49.500000 42.007993
49.500000 42.279493
49.500000 42.551838
49.500000 42.825027
49.500000 43.099060
49.500000 43.373938
49.500000 43.649661
49.500000 43.926228
49.500000 44.203639
49.500000 44.481895
49.500000 44.760996
49.500000 45.040941
49.500000 45.321730
49.500000 45.603364
49.500000 45.885842
49.500000 46.169165
49.500000 46.453332
49.500000 46.738344
49.500000 47.024200
49.500000 47.310901
49.500000 47.598446
49.500000 47.886836
49.500000 48.176070
49.500000 48.466148
49.500000 48.757071
49.500000 49.048839
49.500000 49.341451
49.500000 49.634908
49.500000 49.929209
49.500000 50.224354
49.500000 50.520344
49.500000 50.817179
49.500000 51.114858
49.500000 51.413381
49.500000 51.712749
49.500000 52.012961
49.500000 52.314018
49.500000 52.615919
49.500000 52.918665
49.500000 53.222256
49.500000 53.526690
49.500000 53.831970
49.500000 54.138093
49.500000 54.445061
49.500000 54.752874
49.500000 55.061531
49.500000 55.371033
49.500000 55.681379
49.500000 55.992570
49.500000 56.304605
49.500000 56.617484
49.500000 56.931208
49.500000 57.245777
49.500000 57.561190
49.500000 57.877447
49.500000 58.194549
49.500000 58.512496
49.500000 58.831287
49.500000 59.150922
49.500000 59.471402
49.500000 59.792726
49.500000 60.114895
49.500000 60.437908
49.500000 60.761766
49.500000 61.086469
49.500000 61.412015
49.500000 61.738407
49.500000 62.065642
49.500000 62.393722
49.500000 62.722647
49.500000 63.052416
49.500000 63.383030
49.500000 63.714488
49.500000 64.046791
49.500000 64.379938
49.500000 64.713929
49.500000 65.048765
49.500000 65.384446
49.500000 65.720971
49.500000 66.058340
49.500000 66.396554
49.500000 66.735612
49.500000 67.075515
49.500000 67.416263
49.500000 67.757855
49.500000 68.100291
49.500000 68.443572
49.500000 68.787697
49.500000 69.132667
49.500000 69.478481
49.500000 69.825140
49.500000 70.172643
49.500000 70.520991
49.500000 70.870183
49.500000 71.220220
49.500000 71.571101
49.500000 71.922826
49.500000 72.275396
49.500000 72.628811
49.500000 72.983070
49.500000 73.338174
49.500000 73.694122
49.500000 74.050914
49.500000 74.408551
49.500000 74.767032
49.500000 75.126358
49.500000 75.486529
49.500000 75.847544
49.500000 76.209403
49.500000 76.572107
49.500000 76.935655
49.500000 77.300048
49.500000 77.665285
49.500000 78.031367
49.500000 78.398293
49.500000 78.766064
49.500000 79.134679
49.500000 79.504139
49.500000 79.874443
49.500000 80.245592
49.500000 80.617585
49.500000 80.990422
49.500000 81.364104
49.500000 81.738631
49.500000 82.114002
49.500000 82.490217
49.500000 82.867277
49.500000 83.245182
49.500000 83.623931
49.500000 84.003524
49.500000 84.383962
49.500000 84.765245
49.500000 85.147371
49.500000 85.530343
49.500000 85.914159
49.500000 86.298819
49.500000 86.684324
49.500000 87.070673
49.500000 87.457867
49.500000 87.845905
49.500000 88.234788
49.500000 88.624515
49.500000 89.015086
49.500000 89.406502
49.500000 89.798763
49.500000 90.191868
49.500000 90.585818
49.500000 90.980612
49.500000 91.376250
49.500000 91.772733
49.500000 92.170061
49.500000 92.568233
49.500000 92.967249
49.500000 93.367110
49.500000 93.767816
49.500000 94.169365
49.500000 94.571760
49.500000 94.974999
49.500000 95.379082
49.500000 95.784010
49.500000 96.189782
49.500000 96.596399
49.500000 97.003860
49.500000 97.412166
49.500000 97.821316
49.500000 98.231311
49.500000 98.642150
49.500000 99.053833
49.500000 99.466362
49.500000 99.879734
49.500000 100.293951
49.500000 100.709013
49.500000 101.124919
49.500000 101.541669
49.500000 101.959264
49.500000 102.377704
49.500000 102.796988
49.500000 103.217116
49.500000 103.638089
49.500000 104.059906
49.500000 104.482568
49.500000 104.906075
49.500000 105.330426
49.500000 105.755621
49.500000 106.181661
49.500000 106.608545
49.500000 107.036274
49.500000 107.464847
49.500000 107.894265
49.500000 108.324527
49.500000 108.755633
49.500000 109.187584
49.500000 109.620380
49.500000 110.054020
49.500000 110.488505
49.500000 110.923834
49.500000 111.360007
49.500000 111.797025
49.500000 112.234888
49.500000 112.673595
49.500000 113.113146
49.500000 113.553542
49.500000 113.994783
49.500000 114.436868
49.500000 114.879797
49.500000 115.323571
49.500000 115.768189
49.500000 116.213652
49.500000 116.659959
49.500000 117.107111
49.500000 117.555107
49.500000 118.003948
49.500000 118.453633
49.500000 118.904163
49.500000 119.355537
49.500000 119.807756
49.500000 120.260819
49.500000 120.714726
49.500000 121.169478
49.500000 121.625075
49.500000 122.081516
49.500000 122.538801
49.500000 122.996931
49.500000 123.455906
49.500000 123.915725
49.500000 124.376388
49.500000 124.837896
49.500000 125.300249
49.500000 125.763445
49.500000 126.227487
49.500000 126.692373
49.500000 127.158103
49.500000 127.624678
49.500000 128.092097
49.500000 128.560361
49.500000 129.029469
49.500000 129.499422
49.500000 129.970219
49.500000 130.441861
49.500000 130.914347
49.500000 131.387677
49.500000 131.861852
49.500000 132.336872
49.500000 132.812736
49.500000 133.289445
49.500000 133.766998
49.500000 134.245395
49.500000 134.724637
49.500000 135.204724
49.500000 135.685654
49.500000 136.167430
49.500000 136.650050
49.500000 137.133514
49.500000 137.617823
49.500000 138.102976
49.500000 138.588974
49.500000 139.075816
49.500000 139.563503
49.500000 140.052034
49.500000 140.541410
49.500000 141.031630
49.500000 141.522695
49.500000 142.014604
49.500000 142.507358
49.500000 143.000956
49.500000 143.495399
49.500000 143.990686
49.500000 144.486817
49.500000 144.983793
49.500000 145.481614
49.500000 145.980279
49.500000 146.479788
49.500000 146.980142
49.500000 147.481341
49.500000 147.983384
49.500000 148.486271
49.500000 148.990003
49.500000 149.494579
49.500000 150.000000
</POINTS>
</NEKTAR>

