<?xml version="1.0" encoding="utf-8" ?>
<NEKTAR>
<POINTS DIM="2" FIELDS="">
61.500000 0.000000
61.500000 0.000418
61.500000 0.001672
61.500000 0.003763
61.500000 0.006689
61.500000 0.010451
61.500000 0.015050
61.500000 0.020485
61.500000 0.026756
61.500000 0.033863
61.500000 0.041806
61.500000 0.050585
61.500000 0.060201
61.500000 0.070652
61.500000 0.081940
61.500000 0.094063
61.500000 0.107023
61.500000 0.120819
61.500000 0.135451
61.500000 0.150919
61.500000 0.167224
61.500000 0.184364
61.500000 0.202341
61.500000 0.221153
61.500000 0.240802
61.500000 0.261287
61.500000 0.282608
61.500000 0.304765
61.500000 0.327758
61.500000 0.351588
61.500000 0.376253
61.500000 0.401755
61.500000 0.428092
61.500000 0.455266
61.500000 0.483276
61.500000 0.512122
61.500000 0.541805
61.500000 0.572323
61.500000 0.603677
61.500000 0.635868
61.500000 0.668894
61.500000 0.702757
61.500000 0.737456
61.500000 0.772991
61.500000 0.809362
61.500000 0.846570
61.500000 0.884613
61.500000 0.923492
61.500000 0.963208
61.500000 1.003760
61.500000 1.045148
61.500000 1.087372
61.500000 1.130432
61.500000 1.174328
61.500000 1.219060
61.500000 1.264629
61.500000 1.311033
61.500000 1.358274
61.500000 1.406351
61.500000 1.455264
61.500000 1.505013
61.500000 1.555598
61.500000 1.607019
61.500000 1.659276
61.500000 1.712370
61.500000 1.766299
61.500000 1.821065
61.500000 1.876667
61.500000 1.933105
61.500000 1.990379
61.500000 2.048489
61.500000 2.107436
61.500000 2.167218
61.500000 2.227837
61.500000 2.289291
61.500000 2.351582
61.500000 2.414709
61.500000 2.478672
61.500000 2.543471
61.500000 2.609106
61.500000 2.675578
61.500000 2.742885
61.500000 2.811029
61.500000 2.880009
61.500000 2.949825
61.500000 3.020477
61.500000 3.091965
61.500000 3.164289
61.500000 3.237449
61.500000 3.311446
61.500000 3.386278
61.500000 3.461947
61.500000 3.538452
61.500000 3.615793
61.500000 3.693970
61.500000 3.772983
61.500000 3.852832
61.500000 3.933517
61.500000 4.015039
61.500000 4.097397
61.500000 4.180590
61.500000 4.264620
61.500000 4.349486
61.500000 4.435188
61.500000 4.521727
61.500000 4.609101
61.500000 4.697311
61.500000 4.786358
61.500000 4.876241
61.500000 4.966959
61.500000 5.058514
61.500000 5.150905
61.500000 5.244133
61.500000 5.338196
61.500000 5.433095
61.500000 5.528831
61.500000 5.625402
61.500000 5.722810
61.500000 5.821054
61.500000 5.920134
61.500000 6.020050
61.500000 6.120802
61.500000 6.222391
61.500000 6.324815
61.500000 6.428076
61.500000 6.532172
61.500000 6.637105
61.500000 6.742874
61.500000 6.849479
61.500000 6.956920
61.500000 7.065198
61.500000 7.174311
61.500000 7.284261
61.500000 7.395046
61.500000 7.506668
61.500000 7.619126
61.500000 7.732420
61.500000 7.846550
61.500000 7.961516
61.500000 8.077319
61.500000 8.193957
61.500000 8.311432
61.500000 8.429742
61.500000 8.548889
61.500000 8.668872
61.500000 8.789691
61.500000 8.911346
61.500000 9.033838
61.500000 9.157165
61.500000 9.281329
61.500000 9.406328
61.500000 9.532164
61.500000 9.658836
61.500000 9.786344
61.500000 9.914688
61.500000 10.043868
61.500000 10.173885
61.500000 10.304737
61.500000 10.436426
61.500000 10.568950
61.500000 10.702311
61.500000 10.836508
61.500000 10.971541
61.500000 11.107411
61.500000 11.244116
61.500000 11.381657
61.500000 11.520035
61.500000 11.659248
61.500000 11.799298
61.500000 11.940184
61.500000 12.081906
61.500000 12.224464
61.500000 12.367859
61.500000 12.512089
61.500000 12.657155
61.500000 12.803058
61.500000 12.949797
61.500000 13.097372
61.500000 13.245782
61.500000 13.395030
61.500000 13.545113
61.500000 13.696032
61.500000 13.847787
61.500000 14.000379
61.500000 14.153807
61.500000 14.308070
61.500000 14.463170
61.500000 14.619106
61.500000 14.775879
61.500000 14.933487
61.500000 15.091931
61.500000 15.251212
61.500000 15.411328
61.500000 15.572281
61.500000 15.734070
61.500000 15.896695
61.500000 16.060156
61.500000 16.224453
61.500000 16.389586
61.500000 16.555556
61.500000 16.722361
61.500000 16.890003
61.500000 17.058481
61.500000 17.227795
61.500000 17.397945
61.500000 17.568931
61.500000 17.740753
61.500000 17.913412
61.500000 18.086906
61.500000 18.261237
61.500000 18.436403
61.500000 18.612406
61.500000 18.789245
61.500000 18.966920
61.500000 19.145432
61.500000 19.324779
61.500000 19.504962
61.500000 19.685982
61.500000 19.867838
61.500000 20.050529
61.500000 20.234057
61.500000 20.418421
61.500000 20.603622
61.500000 20.789658
61.500000 20.976530
61.500000 21.164239
61.500000 21.352783
61.500000 21.542164
61.500000 21.732381
61.500000 21.923434
61.500000 22.115323
61.500000 22.308048
61.500000 22.501610
61.500000 22.696007
61.500000 22.891241
61.500000 23.087310
61.500000 23.284216
61.500000 23.481958
61.500000 23.680536
61.500000 23.879950
61.500000 24.080200
61.500000 24.281287
61.500000 24.483209
61.500000 24.685968
61.500000 24.889563
61.500000 25.093994
61.500000 25.299261
61.500000 25.505364
61.500000 25.712303
61.500000 25.920078
61.500000 26.128690
61.500000 26.338137
61.500000 26.548421
61.500000 26.759541
61.500000 26.971497
61.500000 27.184289
61.500000 27.397917
61.500000 27.612381
61.500000 27.827682
61.500000 28.043818
61.500000 28.260791
61.500000 28.478600
61.500000 28.697244
61.500000 28.916725
61.500000 29.137043
61.500000 29.358196
61.500000 29.580185
61.500000 29.803011
61.500000 30.026672
61.500000 30.251170
61.500000 30.476504
61.500000 30.702674
61.500000 30.929680
61.500000 31.157522
61.500000 31.386200
61.500000 31.615715
61.500000 31.846065
61.500000 32.077252
61.500000 32.309275
61.500000 32.542133
61.500000 32.775828
61.500000 33.010360
61.500000 33.245727
61.500000 33.481930
61.500000 33.718970
61.500000 33.956845
61.500000 34.195557
61.500000 34.435105
61.500000 34.675489
61.500000 34.916709
61.500000 35.158765
61.500000 35.401657
61.500000 35.645386
61.500000 35.889950
61.500000 36.135351
61.500000 36.381588
61.500000 36.628660
61.500000 36.876569
61.500000 37.125315
61.500000 37.374896
61.500000 37.625313
61.500000 37.876567
61.500000 38.128656
61.500000 38.381582
61.500000 38.635344
61.500000 38.889942
61.500000 39.145376
61.500000 39.401646
61.500000 39.658752
61.500000 39.916695
61.500000 40.175473
61.500000 40.435088
61.500000 40.695539
61.500000 40.956826
61.500000 41.218949
61.500000 41.481908
61.500000 41.745703
61.500000 42.010334
61.500000 42.275802
61.500000 42.542106
61.500000 42.809245
61.500000 43.077221
61.500000 43.346033
61.500000 43.615681
61.500000 43.886165
61.500000 44.157486
61.500000 44.429642
61.500000 44.702635
61.500000 44.976463
61.500000 45.251128
61.500000 45.526629
61.500000 45.802966
61.500000 46.080139
61.500000 46.358148
61.500000 46.636994
61.500000 46.916675
61.500000 47.197193
61.500000 47.478547
61.500000 47.760736
61.500000 48.043762
61.500000 48.327625
61.500000 48.612323
61.500000 48.897857
61.500000 49.184227
61.500000 49.471434
61.500000 49.759477
61.500000 50.048355
61.500000 50.338070
61.500000 50.628621
61.500000 50.920009
61.500000 51.212232
61.500000 51.505291
61.500000 51.799187
61.500000 52.093918
61.500000 52.389486
61.500000 52.685890
61.500000 52.983130
61.500000 53.281206
61.500000 53.580118
61.500000 53.879867
61.500000 54.180451
61.500000 54.481872
61.500000 54.784128
61.500000 55.087221
61.500000 55.391150
61.500000 55.695915
61.500000 56.001516
61.500000 56.307953
61.500000 56.615227
61.500000 56.923336
61.500000 57.232282
61.500000 57.542064
61.500000 57.852682
61.500000 58.164136
61.500000 58.476426
61.500000 58.789552
61.500000 59.103514
61.500000 59.418313
61.500000 59.733947
61.500000 60.050418
61.500000 60.367725
61.500000 60.685868
61.500000 61.004847
61.500000 61.324662
61.500000 61.645313
61.500000 61.966801
61.500000 62.289124
61.500000 62.612284
61.500000 62.936279
61.500000 63.261111
61.500000 63.586779
61.500000 63.913283
61.500000 64.240624
61.500000 64.568800
61.500000 64.897812
61.500000 65.227661
61.500000 65.558346
61.500000 65.889867
61.500000 66.222223
61.500000 66.555417
61.500000 66.889446
61.500000 67.224311
61.500000 67.560012
61.500000 67.896550
61.500000 68.233924
61.500000 68.572133
61.500000 68.911179
61.500000 69.251061
61.500000 69.591779
61.500000 69.933334
61.500000 70.275724
61.500000 70.618950
61.500000 70.963013
61.500000 71.307912
61.500000 71.653646
61.500000 72.000217
61.500000 72.347624
61.500000 72.695868
61.500000 73.044947
61.500000 73.394862
61.500000 73.745614
61.500000 74.097202
61.500000 74.449625
61.500000 74.802885
61.500000 75.156981
61.500000 75.511913
61.500000 75.867682
61.500000 76.224286
61.500000 76.581726
61.500000 76.940003
61.500000 77.299116
61.500000 77.659064
61.500000 78.019849
61.500000 78.381471
61.500000 78.743928
61.500000 79.107221
61.500000 79.471350
61.500000 79.836316
61.500000 80.202118
61.500000 80.568755
61.500000 80.936229
61.500000 81.304539
61.500000 81.673685
61.500000 82.043668
61.500000 82.414486
61.500000 82.786141
61.500000 83.158631
61.500000 83.531958
61.500000 83.906121
61.500000 84.281120
61.500000 84.656955
61.500000 85.033626
61.500000 85.411133
61.500000 85.789477
61.500000 86.168656
61.500000 86.548672
61.500000 86.929524
61.500000 87.311212
61.500000 87.693736
61.500000 88.077096
61.500000 88.461292
61.500000 88.846324
61.500000 89.232193
61.500000 89.618897
61.500000 90.006438
61.500000 90.394815
61.500000 90.784028
61.500000 91.174077
61.500000 91.564962
61.500000 91.956684
61.500000 92.349241
61.500000 92.742634
61.500000 93.136864
61.500000 93.531930
61.500000 93.927832
61.500000 94.324570
61.500000 94.722144
61.500000 95.120554
61.500000 95.519801
61.500000 95.919883
61.500000 96.320802
61.500000 96.722557
61.500000 97.125147
61.500000 97.528574
61.500000 97.932837
61.500000 98.337937
61.500000 98.743872
61.500000 99.150643
61.500000 99.558251
61.500000 99.966695
61.500000 100.375974
61.500000 100.786090
61.500000 101.197042
61.500000 101.608831
61.500000 102.021455
61.500000 102.434915
61.500000 102.849212
61.500000 103.264344
61.500000 103.680313
61.500000 104.097118
61.500000 104.514759
61.500000 104.933236
61.500000 105.352549
61.500000 105.772699
61.500000 106.193684
61.500000 106.615506
61.500000 107.038163
61.500000 107.461657
61.500000 107.885987
61.500000 108.311153
61.500000 108.737155
61.500000 109.163993
61.500000 109.591668
61.500000 110.020178
61.500000 110.449525
61.500000 110.879708
61.500000 111.310727
61.500000 111.742582
61.500000 112.175273
61.500000 112.608800
61.500000 113.043163
61.500000 113.478363
61.500000 113.914398
61.500000 114.351270
61.500000 114.788978
61.500000 115.227522
61.500000 115.666902
61.500000 116.107118
61.500000 116.548170
61.500000 116.990059
61.500000 117.432783
61.500000 117.876344
61.500000 118.320740
61.500000 118.765973
61.500000 119.212042
61.500000 119.658947
61.500000 120.106689
61.500000 120.555266
61.500000 121.004679
61.500000 121.454929
61.500000 121.906015
61.500000 122.357937
61.500000 122.810695
61.500000 123.264289
61.500000 123.718719
61.500000 124.173985
61.500000 124.630087
61.500000 125.087026
61.500000 125.544801
61.500000 126.003411
61.500000 126.462858
61.500000 126.923141
61.500000 127.384260
61.500000 127.846216
61.500000 128.309007
61.500000 128.772634
61.500000 129.237098
61.500000 129.702398
61.500000 130.168534
61.500000 130.635505
61.500000 131.103314
61.500000 131.571958
61.500000 132.041438
61.500000 132.511754
61.500000 132.982907
61.500000 133.454896
61.500000 133.927720
61.500000 134.401381
61.500000 134.875878
61.500000 135.351211
61.500000 135.827381
61.500000 136.304386
61.500000 136.782227
61.500000 137.260905
61.500000 137.740419
61.500000 138.220769
61.500000 138.701955
61.500000 139.183977
61.500000 139.666835
61.500000 140.150529
61.500000 140.635060
61.500000 141.120426
61.500000 141.606629
61.500000 142.093668
61.500000 142.581542
61.500000 143.070253
61.500000 143.559801
61.500000 144.050184
61.500000 144.541403
61.500000 145.033459
61.500000 145.526350
61.500000 146.020078
61.500000 146.514642
61.500000 147.010042
61.500000 147.506278
61.500000 148.003350
61.500000 148.501258
61.500000 149.000003
61.500000 149.499583
61.500000 150.000000
</POINTS>
</NEKTAR>

