<?xml version="1.0" encoding="utf-8" ?>
<NEKTAR>
<POINTS DIM="2" FIELDS="">
87.500000 0.000000
87.500000 0.000418
87.500000 0.001672
87.500000 0.003763
87.500000 0.006689
87.500000 0.010451
87.500000 0.015050
87.500000 0.020485
87.500000 0.026756
87.500000 0.033863
87.500000 0.041806
87.500000 0.050585
87.500000 0.060201
87.500000 0.070652
87.500000 0.081940
87.500000 0.094063
87.500000 0.107023
87.500000 0.120819
87.500000 0.135451
87.500000 0.150919
87.500000 0.167224
87.500000 0.184364
87.500000 0.202341
87.500000 0.221153
87.500000 0.240802
87.500000 0.261287
87.500000 0.282608
87.500000 0.304765
87.500000 0.327758
87.500000 0.351588
87.500000 0.376253
87.500000 0.401755
87.500000 0.428092
87.500000 0.455266
87.500000 0.483276
87.500000 0.512122
87.500000 0.541805
87.500000 0.572323
87.500000 0.603677
87.500000 0.635868
87.500000 0.668894
87.500000 0.702757
87.500000 0.737456
87.500000 0.772991
87.500000 0.809362
87.500000 0.846570
87.500000 0.884613
87.500000 0.923492
87.500000 0.963208
87.500000 1.003760
87.500000 1.045148
87.500000 1.087372
87.500000 1.130432
87.500000 1.174328
87.500000 1.219060
87.500000 1.264629
87.500000 1.311033
87.500000 1.358274
87.500000 1.406351
87.500000 1.455264
87.500000 1.505013
87.500000 1.555598
87.500000 1.607019
87.500000 1.659276
87.500000 1.712370
87.500000 1.766299
87.500000 1.821065
87.500000 1.876667
87.500000 1.933105
87.500000 1.990379
87.500000 2.048489
87.500000 2.107436
87.500000 2.167218
87.500000 2.227837
87.500000 2.289291
87.500000 2.351582
87.500000 2.414709
87.500000 2.478672
87.500000 2.543471
87.500000 2.609106
87.500000 2.675578
87.500000 2.742885
87.500000 2.811029
87.500000 2.880009
87.500000 2.949825
87.500000 3.020477
87.500000 3.091965
87.500000 3.164289
87.500000 3.237449
87.500000 3.311446
87.500000 3.386278
87.500000 3.461947
87.500000 3.538452
87.500000 3.615793
87.500000 3.693970
87.500000 3.772983
87.500000 3.852832
87.500000 3.933517
87.500000 4.015039
87.500000 4.097397
87.500000 4.180590
87.500000 4.264620
87.500000 4.349486
87.500000 4.435188
87.500000 4.521727
87.500000 4.609101
87.500000 4.697311
87.500000 4.786358
87.500000 4.876241
87.500000 4.966959
87.500000 5.058514
87.500000 5.150905
87.500000 5.244133
87.500000 5.338196
87.500000 5.433095
87.500000 5.528831
87.500000 5.625402
87.500000 5.722810
87.500000 5.821054
87.500000 5.920134
87.500000 6.020050
87.500000 6.120802
87.500000 6.222391
87.500000 6.324815
87.500000 6.428076
87.500000 6.532172
87.500000 6.637105
87.500000 6.742874
87.500000 6.849479
87.500000 6.956920
87.500000 7.065198
87.500000 7.174311
87.500000 7.284261
87.500000 7.395046
87.500000 7.506668
87.500000 7.619126
87.500000 7.732420
87.500000 7.846550
87.500000 7.961516
87.500000 8.077319
87.500000 8.193957
87.500000 8.311432
87.500000 8.429742
87.500000 8.548889
87.500000 8.668872
87.500000 8.789691
87.500000 8.911346
87.500000 9.033838
87.500000 9.157165
87.500000 9.281329
87.500000 9.406328
87.500000 9.532164
87.500000 9.658836
87.500000 9.786344
87.500000 9.914688
87.500000 10.043868
87.500000 10.173885
87.500000 10.304737
87.500000 10.436426
87.500000 10.568950
87.500000 10.702311
87.500000 10.836508
87.500000 10.971541
87.500000 11.107411
87.500000 11.244116
87.500000 11.381657
87.500000 11.520035
87.500000 11.659248
87.500000 11.799298
87.500000 11.940184
87.500000 12.081906
87.500000 12.224464
87.500000 12.367859
87.500000 12.512089
87.500000 12.657155
87.500000 12.803058
87.500000 12.949797
87.500000 13.097372
87.500000 13.245782
87.500000 13.395030
87.500000 13.545113
87.500000 13.696032
87.500000 13.847787
87.500000 14.000379
87.500000 14.153807
87.500000 14.308070
87.500000 14.463170
87.500000 14.619106
87.500000 14.775879
87.500000 14.933487
87.500000 15.091931
87.500000 15.251212
87.500000 15.411328
87.500000 15.572281
87.500000 15.734070
87.500000 15.896695
87.500000 16.060156
87.500000 16.224453
87.500000 16.389586
87.500000 16.555556
87.500000 16.722361
87.500000 16.890003
87.500000 17.058481
87.500000 17.227795
87.500000 17.397945
87.500000 17.568931
87.500000 17.740753
87.500000 17.913412
87.500000 18.086906
87.500000 18.261237
87.500000 18.436403
87.500000 18.612406
87.500000 18.789245
87.500000 18.966920
87.500000 19.145432
87.500000 19.324779
87.500000 19.504962
87.500000 19.685982
87.500000 19.867838
87.500000 20.050529
87.500000 20.234057
87.500000 20.418421
87.500000 20.603622
87.500000 20.789658
87.500000 20.976530
87.500000 21.164239
87.500000 21.352783
87.500000 21.542164
87.500000 21.732381
87.500000 21.923434
87.500000 22.115323
87.500000 22.308048
87.500000 22.501610
87.500000 22.696007
87.500000 22.891241
87.500000 23.087310
87.500000 23.284216
87.500000 23.481958
87.500000 23.680536
87.500000 23.879950
87.500000 24.080200
87.500000 24.281287
87.500000 24.483209
87.500000 24.685968
87.500000 24.889563
87.500000 25.093994
87.500000 25.299261
87.500000 25.505364
87.500000 25.712303
87.500000 25.920078
87.500000 26.128690
87.500000 26.338137
87.500000 26.548421
87.500000 26.759541
87.500000 26.971497
87.500000 27.184289
87.500000 27.397917
87.500000 27.612381
87.500000 27.827682
87.500000 28.043818
87.500000 28.260791
87.500000 28.478600
87.500000 28.697244
87.500000 28.916725
87.500000 29.137043
87.500000 29.358196
87.500000 29.580185
87.500000 29.803011
87.500000 30.026672
87.500000 30.251170
87.500000 30.476504
87.500000 30.702674
87.500000 30.929680
87.500000 31.157522
87.500000 31.386200
87.500000 31.615715
87.500000 31.846065
87.500000 32.077252
87.500000 32.309275
87.500000 32.542133
87.500000 32.775828
87.500000 33.010360
87.500000 33.245727
87.500000 33.481930
87.500000 33.718970
87.500000 33.956845
87.500000 34.195557
87.500000 34.435105
87.500000 34.675489
87.500000 34.916709
87.500000 35.158765
87.500000 35.401657
87.500000 35.645386
87.500000 35.889950
87.500000 36.135351
87.500000 36.381588
87.500000 36.628660
87.500000 36.876569
87.500000 37.125315
87.500000 37.374896
87.500000 37.625313
87.500000 37.876567
87.500000 38.128656
87.500000 38.381582
87.500000 38.635344
87.500000 38.889942
87.500000 39.145376
87.500000 39.401646
87.500000 39.658752
87.500000 39.916695
87.500000 40.175473
87.500000 40.435088
87.500000 40.695539
87.500000 40.956826
87.500000 41.218949
87.500000 41.481908
87.500000 41.745703
87.500000 42.010334
87.500000 42.275802
87.500000 42.542106
87.500000 42.809245
87.500000 43.077221
87.500000 43.346033
87.500000 43.615681
87.500000 43.886165
87.500000 44.157486
87.500000 44.429642
87.500000 44.702635
87.500000 44.976463
87.500000 45.251128
87.500000 45.526629
87.500000 45.802966
87.500000 46.080139
87.500000 46.358148
87.500000 46.636994
87.500000 46.916675
87.500000 47.197193
87.500000 47.478547
87.500000 47.760736
87.500000 48.043762
87.500000 48.327625
87.500000 48.612323
87.500000 48.897857
87.500000 49.184227
87.500000 49.471434
87.500000 49.759477
87.500000 50.048355
87.500000 50.338070
87.500000 50.628621
87.500000 50.920009
87.500000 51.212232
87.500000 51.505291
87.500000 51.799187
87.500000 52.093918
87.500000 52.389486
87.500000 52.685890
87.500000 52.983130
87.500000 53.281206
87.500000 53.580118
87.500000 53.879867
87.500000 54.180451
87.500000 54.481872
87.500000 54.784128
87.500000 55.087221
87.500000 55.391150
87.500000 55.695915
87.500000 56.001516
87.500000 56.307953
87.500000 56.615227
87.500000 56.923336
87.500000 57.232282
87.500000 57.542064
87.500000 57.852682
87.500000 58.164136
87.500000 58.476426
87.500000 58.789552
87.500000 59.103514
87.500000 59.418313
87.500000 59.733947
87.500000 60.050418
87.500000 60.367725
87.500000 60.685868
87.500000 61.004847
87.500000 61.324662
87.500000 61.645313
87.500000 61.966801
87.500000 62.289124
87.500000 62.612284
87.500000 62.936279
87.500000 63.261111
87.500000 63.586779
87.500000 63.913283
87.500000 64.240624
87.500000 64.568800
87.500000 64.897812
87.500000 65.227661
87.500000 65.558346
87.500000 65.889867
87.500000 66.222223
87.500000 66.555417
87.500000 66.889446
87.500000 67.224311
87.500000 67.560012
87.500000 67.896550
87.500000 68.233924
87.500000 68.572133
87.500000 68.911179
87.500000 69.251061
87.500000 69.591779
87.500000 69.933334
87.500000 70.275724
87.500000 70.618950
87.500000 70.963013
87.500000 71.307912
87.500000 71.653646
87.500000 72.000217
87.500000 72.347624
87.500000 72.695868
87.500000 73.044947
87.500000 73.394862
87.500000 73.745614
87.500000 74.097202
87.500000 74.449625
87.500000 74.802885
87.500000 75.156981
87.500000 75.511913
87.500000 75.867682
87.500000 76.224286
87.500000 76.581726
87.500000 76.940003
87.500000 77.299116
87.500000 77.659064
87.500000 78.019849
87.500000 78.381471
87.500000 78.743928
87.500000 79.107221
87.500000 79.471350
87.500000 79.836316
87.500000 80.202118
87.500000 80.568755
87.500000 80.936229
87.500000 81.304539
87.500000 81.673685
87.500000 82.043668
87.500000 82.414486
87.500000 82.786141
87.500000 83.158631
87.500000 83.531958
87.500000 83.906121
87.500000 84.281120
87.500000 84.656955
87.500000 85.033626
87.500000 85.411133
87.500000 85.789477
87.500000 86.168656
87.500000 86.548672
87.500000 86.929524
87.500000 87.311212
87.500000 87.693736
87.500000 88.077096
87.500000 88.461292
87.500000 88.846324
87.500000 89.232193
87.500000 89.618897
87.500000 90.006438
87.500000 90.394815
87.500000 90.784028
87.500000 91.174077
87.500000 91.564962
87.500000 91.956684
87.500000 92.349241
87.500000 92.742634
87.500000 93.136864
87.500000 93.531930
87.500000 93.927832
87.500000 94.324570
87.500000 94.722144
87.500000 95.120554
87.500000 95.519801
87.500000 95.919883
87.500000 96.320802
87.500000 96.722557
87.500000 97.125147
87.500000 97.528574
87.500000 97.932837
87.500000 98.337937
87.500000 98.743872
87.500000 99.150643
87.500000 99.558251
87.500000 99.966695
87.500000 100.375974
87.500000 100.786090
87.500000 101.197042
87.500000 101.608831
87.500000 102.021455
87.500000 102.434915
87.500000 102.849212
87.500000 103.264344
87.500000 103.680313
87.500000 104.097118
87.500000 104.514759
87.500000 104.933236
87.500000 105.352549
87.500000 105.772699
87.500000 106.193684
87.500000 106.615506
87.500000 107.038163
87.500000 107.461657
87.500000 107.885987
87.500000 108.311153
87.500000 108.737155
87.500000 109.163993
87.500000 109.591668
87.500000 110.020178
87.500000 110.449525
87.500000 110.879708
87.500000 111.310727
87.500000 111.742582
87.500000 112.175273
87.500000 112.608800
87.500000 113.043163
87.500000 113.478363
87.500000 113.914398
87.500000 114.351270
87.500000 114.788978
87.500000 115.227522
87.500000 115.666902
87.500000 116.107118
87.500000 116.548170
87.500000 116.990059
87.500000 117.432783
87.500000 117.876344
87.500000 118.320740
87.500000 118.765973
87.500000 119.212042
87.500000 119.658947
87.500000 120.106689
87.500000 120.555266
87.500000 121.004679
87.500000 121.454929
87.500000 121.906015
87.500000 122.357937
87.500000 122.810695
87.500000 123.264289
87.500000 123.718719
87.500000 124.173985
87.500000 124.630087
87.500000 125.087026
87.500000 125.544801
87.500000 126.003411
87.500000 126.462858
87.500000 126.923141
87.500000 127.384260
87.500000 127.846216
87.500000 128.309007
87.500000 128.772634
87.500000 129.237098
87.500000 129.702398
87.500000 130.168534
87.500000 130.635505
87.500000 131.103314
87.500000 131.571958
87.500000 132.041438
87.500000 132.511754
87.500000 132.982907
87.500000 133.454896
87.500000 133.927720
87.500000 134.401381
87.500000 134.875878
87.500000 135.351211
87.500000 135.827381
87.500000 136.304386
87.500000 136.782227
87.500000 137.260905
87.500000 137.740419
87.500000 138.220769
87.500000 138.701955
87.500000 139.183977
87.500000 139.666835
87.500000 140.150529
87.500000 140.635060
87.500000 141.120426
87.500000 141.606629
87.500000 142.093668
87.500000 142.581542
87.500000 143.070253
87.500000 143.559801
87.500000 144.050184
87.500000 144.541403
87.500000 145.033459
87.500000 145.526350
87.500000 146.020078
87.500000 146.514642
87.500000 147.010042
87.500000 147.506278
87.500000 148.003350
87.500000 148.501258
87.500000 149.000003
87.500000 149.499583
87.500000 150.000000
</POINTS>
</NEKTAR>

