<?xml version="1.0" encoding="utf-8" ?>
<NEKTAR>
<POINTS DIM="2" FIELDS="">
44.500000 -1.500000
44.500000 -1.499578
44.500000 -1.498311
44.500000 -1.496200
44.500000 -1.493244
44.500000 -1.489444
44.500000 -1.484799
44.500000 -1.479310
44.500000 -1.472977
44.500000 -1.465799
44.500000 -1.457776
44.500000 -1.448909
44.500000 -1.439197
44.500000 -1.428642
44.500000 -1.417241
44.500000 -1.404996
44.500000 -1.391907
44.500000 -1.377973
44.500000 -1.363194
44.500000 -1.347571
44.500000 -1.331104
44.500000 -1.313792
44.500000 -1.295636
44.500000 -1.276635
44.500000 -1.256790
44.500000 -1.236100
44.500000 -1.214566
44.500000 -1.192187
44.500000 -1.168964
44.500000 -1.144896
44.500000 -1.119984
44.500000 -1.094228
44.500000 -1.067627
44.500000 -1.040181
44.500000 -1.011891
44.500000 -0.982756
44.500000 -0.952777
44.500000 -0.921954
44.500000 -0.890286
44.500000 -0.857774
44.500000 -0.824417
44.500000 -0.790215
44.500000 -0.755169
44.500000 -0.719279
44.500000 -0.682544
44.500000 -0.644965
44.500000 -0.606541
44.500000 -0.567273
44.500000 -0.527160
44.500000 -0.486203
44.500000 -0.444401
44.500000 -0.401755
44.500000 -0.358264
44.500000 -0.313929
44.500000 -0.268749
44.500000 -0.222725
44.500000 -0.175857
44.500000 -0.128143
44.500000 -0.079586
44.500000 -0.030184
44.500000 0.020063
44.500000 0.071154
44.500000 0.123089
44.500000 0.175869
44.500000 0.229494
44.500000 0.283962
44.500000 0.339276
44.500000 0.395434
44.500000 0.452436
44.500000 0.510283
44.500000 0.568974
44.500000 0.628510
44.500000 0.688890
44.500000 0.750115
44.500000 0.812184
44.500000 0.875098
44.500000 0.938856
44.500000 1.003459
44.500000 1.068906
44.500000 1.135198
44.500000 1.202334
44.500000 1.270314
44.500000 1.339139
44.500000 1.408809
44.500000 1.479323
44.500000 1.550681
44.500000 1.622884
44.500000 1.695932
44.500000 1.769824
44.500000 1.844560
44.500000 1.920141
44.500000 1.996566
44.500000 2.073836
44.500000 2.151951
44.500000 2.230909
44.500000 2.310713
44.500000 2.391360
44.500000 2.472853
44.500000 2.555189
44.500000 2.638371
44.500000 2.722396
44.500000 2.807266
44.500000 2.892981
44.500000 2.979540
44.500000 3.066944
44.500000 3.155192
44.500000 3.244284
44.500000 3.334221
44.500000 3.425003
44.500000 3.516629
44.500000 3.609099
44.500000 3.702414
44.500000 3.796574
44.500000 3.891578
44.500000 3.987426
44.500000 4.084119
44.500000 4.181656
44.500000 4.280038
44.500000 4.379265
44.500000 4.479335
44.500000 4.580251
44.500000 4.682010
44.500000 4.784615
44.500000 4.888063
44.500000 4.992356
44.500000 5.097494
44.500000 5.203476
44.500000 5.310303
44.500000 5.417974
44.500000 5.526490
44.500000 5.635850
44.500000 5.746054
44.500000 5.857103
44.500000 5.968997
44.500000 6.081735
44.500000 6.195317
44.500000 6.309744
44.500000 6.425016
44.500000 6.541131
44.500000 6.658092
44.500000 6.775897
44.500000 6.894546
44.500000 7.014040
44.500000 7.134378
44.500000 7.255561
44.500000 7.377588
44.500000 7.500460
44.500000 7.624176
44.500000 7.748737
44.500000 7.874142
44.500000 8.000392
44.500000 8.127486
44.500000 8.255424
44.500000 8.384207
44.500000 8.513835
44.500000 8.644307
44.500000 8.775624
44.500000 8.907785
44.500000 9.040790
44.500000 9.174640
44.500000 9.309334
44.500000 9.444873
44.500000 9.581257
44.500000 9.718485
44.500000 9.856557
44.500000 9.995474
44.500000 10.135235
44.500000 10.275841
44.500000 10.417291
44.500000 10.559586
44.500000 10.702725
44.500000 10.846709
44.500000 10.991537
44.500000 11.137210
44.500000 11.283727
44.500000 11.431089
44.500000 11.579295
44.500000 11.728345
44.500000 11.878240
44.500000 12.028980
44.500000 12.180564
44.500000 12.332992
44.500000 12.486265
44.500000 12.640383
44.500000 12.795345
44.500000 12.951151
44.500000 13.107802
44.500000 13.265297
44.500000 13.423637
44.500000 13.582822
44.500000 13.742850
44.500000 13.903724
44.500000 14.065442
44.500000 14.228004
44.500000 14.391411
44.500000 14.555662
44.500000 14.720757
44.500000 14.886698
44.500000 15.053482
44.500000 15.221111
44.500000 15.389585
44.500000 15.558903
44.500000 15.729066
44.500000 15.900073
44.500000 16.071924
44.500000 16.244620
44.500000 16.418161
44.500000 16.592546
44.500000 16.767775
44.500000 16.943849
44.500000 17.120768
44.500000 17.298530
44.500000 17.477138
44.500000 17.656590
44.500000 17.836886
44.500000 18.018027
44.500000 18.200012
44.500000 18.382842
44.500000 18.566516
44.500000 18.751035
44.500000 18.936398
44.500000 19.122606
44.500000 19.309658
44.500000 19.497554
44.500000 19.686295
44.500000 19.875881
44.500000 20.066311
44.500000 20.257586
44.500000 20.449705
44.500000 20.642668
44.500000 20.836476
44.500000 21.031129
44.500000 21.226626
44.500000 21.422967
44.500000 21.620153
44.500000 21.818183
44.500000 22.017058
44.500000 22.216778
44.500000 22.417341
44.500000 22.618750
44.500000 22.821002
44.500000 23.024100
44.500000 23.228041
44.500000 23.432828
44.500000 23.638458
44.500000 23.844934
44.500000 24.052253
44.500000 24.260417
44.500000 24.469426
44.500000 24.679279
44.500000 24.889977
44.500000 25.101519
44.500000 25.313905
44.500000 25.527136
44.500000 25.741212
44.500000 25.956132
44.500000 26.171896
44.500000 26.388505
44.500000 26.605958
44.500000 26.824256
44.500000 27.043399
44.500000 27.263386
44.500000 27.484217
44.500000 27.705893
44.500000 27.928413
44.500000 28.151778
44.500000 28.375987
44.500000 28.601041
44.500000 28.826939
44.500000 29.053682
44.500000 29.281269
44.500000 29.509700
44.500000 29.738976
44.500000 29.969097
44.500000 30.200062
44.500000 30.431872
44.500000 30.664526
44.500000 30.898024
44.500000 31.132367
44.500000 31.367555
44.500000 31.603587
44.500000 31.840463
44.500000 32.078184
44.500000 32.316749
44.500000 32.556159
44.500000 32.796414
44.500000 33.037512
44.500000 33.279456
44.500000 33.522244
44.500000 33.765876
44.500000 34.010353
44.500000 34.255674
44.500000 34.501839
44.500000 34.748850
44.500000 34.996704
44.500000 35.245403
44.500000 35.494947
44.500000 35.745335
44.500000 35.996568
44.500000 36.248645
44.500000 36.501566
44.500000 36.755332
44.500000 37.009943
44.500000 37.265398
44.500000 37.521697
44.500000 37.778841
44.500000 38.036830
44.500000 38.295662
44.500000 38.555340
44.500000 38.815862
44.500000 39.077228
44.500000 39.339439
44.500000 39.602494
44.500000 39.866394
44.500000 40.131138
44.500000 40.396727
44.500000 40.663160
44.500000 40.930438
44.500000 41.198560
44.500000 41.467527
44.500000 41.737338
44.500000 42.007993
44.500000 42.279493
44.500000 42.551838
44.500000 42.825027
44.500000 43.099060
44.500000 43.373938
44.500000 43.649661
44.500000 43.926228
44.500000 44.203639
44.500000 44.481895
44.500000 44.760996
44.500000 45.040941
44.500000 45.321730
44.500000 45.603364
44.500000 45.885842
44.500000 46.169165
44.500000 46.453332
44.500000 46.738344
44.500000 47.024200
44.500000 47.310901
44.500000 47.598446
44.500000 47.886836
44.500000 48.176070
44.500000 48.466148
44.500000 48.757071
44.500000 49.048839
44.500000 49.341451
44.500000 49.634908
44.500000 49.929209
44.500000 50.224354
44.500000 50.520344
44.500000 50.817179
44.500000 51.114858
44.500000 51.413381
44.500000 51.712749
44.500000 52.012961
44.500000 52.314018
44.500000 52.615919
44.500000 52.918665
44.500000 53.222256
44.500000 53.526690
44.500000 53.831970
44.500000 54.138093
44.500000 54.445061
44.500000 54.752874
44.500000 55.061531
44.500000 55.371033
44.500000 55.681379
44.500000 55.992570
44.500000 56.304605
44.500000 56.617484
44.500000 56.931208
44.500000 57.245777
44.500000 57.561190
44.500000 57.877447
44.500000 58.194549
44.500000 58.512496
44.500000 58.831287
44.500000 59.150922
44.500000 59.471402
44.500000 59.792726
44.500000 60.114895
44.500000 60.437908
44.500000 60.761766
44.500000 61.086469
44.500000 61.412015
44.500000 61.738407
44.500000 62.065642
44.500000 62.393722
44.500000 62.722647
44.500000 63.052416
44.500000 63.383030
44.500000 63.714488
44.500000 64.046791
44.500000 64.379938
44.500000 64.713929
44.500000 65.048765
44.500000 65.384446
44.500000 65.720971
44.500000 66.058340
44.500000 66.396554
44.500000 66.735612
44.500000 67.075515
44.500000 67.416263
44.500000 67.757855
44.500000 68.100291
44.500000 68.443572
44.500000 68.787697
44.500000 69.132667
44.500000 69.478481
44.500000 69.825140
44.500000 70.172643
44.500000 70.520991
44.500000 70.870183
44.500000 71.220220
44.500000 71.571101
44.500000 71.922826
44.500000 72.275396
44.500000 72.628811
44.500000 72.983070
44.500000 73.338174
44.500000 73.694122
44.500000 74.050914
44.500000 74.408551
44.500000 74.767032
44.500000 75.126358
44.500000 75.486529
44.500000 75.847544
44.500000 76.209403
44.500000 76.572107
44.500000 76.935655
44.500000 77.300048
44.500000 77.665285
44.500000 78.031367
44.500000 78.398293
44.500000 78.766064
44.500000 79.134679
44.500000 79.504139
44.500000 79.874443
44.500000 80.245592
44.500000 80.617585
44.500000 80.990422
44.500000 81.364104
44.500000 81.738631
44.500000 82.114002
44.500000 82.490217
44.500000 82.867277
44.500000 83.245182
44.500000 83.623931
44.500000 84.003524
44.500000 84.383962
44.500000 84.765245
44.500000 85.147371
44.500000 85.530343
44.500000 85.914159
44.500000 86.298819
44.500000 86.684324
44.500000 87.070673
44.500000 87.457867
44.500000 87.845905
44.500000 88.234788
44.500000 88.624515
44.500000 89.015086
44.500000 89.406502
44.500000 89.798763
44.500000 90.191868
44.500000 90.585818
44.500000 90.980612
44.500000 91.376250
44.500000 91.772733
44.500000 92.170061
44.500000 92.568233
44.500000 92.967249
44.500000 93.367110
44.500000 93.767816
44.500000 94.169365
44.500000 94.571760
44.500000 94.974999
44.500000 95.379082
44.500000 95.784010
44.500000 96.189782
44.500000 96.596399
44.500000 97.003860
44.500000 97.412166
44.500000 97.821316
44.500000 98.231311
44.500000 98.642150
44.500000 99.053833
44.500000 99.466362
44.500000 99.879734
44.500000 100.293951
44.500000 100.709013
44.500000 101.124919
44.500000 101.541669
44.500000 101.959264
44.500000 102.377704
44.500000 102.796988
44.500000 103.217116
44.500000 103.638089
44.500000 104.059906
44.500000 104.482568
44.500000 104.906075
44.500000 105.330426
44.500000 105.755621
44.500000 106.181661
44.500000 106.608545
44.500000 107.036274
44.500000 107.464847
44.500000 107.894265
44.500000 108.324527
44.500000 108.755633
44.500000 109.187584
44.500000 109.620380
44.500000 110.054020
44.500000 110.488505
44.500000 110.923834
44.500000 111.360007
44.500000 111.797025
44.500000 112.234888
44.500000 112.673595
44.500000 113.113146
44.500000 113.553542
44.500000 113.994783
44.500000 114.436868
44.500000 114.879797
44.500000 115.323571
44.500000 115.768189
44.500000 116.213652
44.500000 116.659959
44.500000 117.107111
44.500000 117.555107
44.500000 118.003948
44.500000 118.453633
44.500000 118.904163
44.500000 119.355537
44.500000 119.807756
44.500000 120.260819
44.500000 120.714726
44.500000 121.169478
44.500000 121.625075
44.500000 122.081516
44.500000 122.538801
44.500000 122.996931
44.500000 123.455906
44.500000 123.915725
44.500000 124.376388
44.500000 124.837896
44.500000 125.300249
44.500000 125.763445
44.500000 126.227487
44.500000 126.692373
44.500000 127.158103
44.500000 127.624678
44.500000 128.092097
44.500000 128.560361
44.500000 129.029469
44.500000 129.499422
44.500000 129.970219
44.500000 130.441861
44.500000 130.914347
44.500000 131.387677
44.500000 131.861852
44.500000 132.336872
44.500000 132.812736
44.500000 133.289445
44.500000 133.766998
44.500000 134.245395
44.500000 134.724637
44.500000 135.204724
44.500000 135.685654
44.500000 136.167430
44.500000 136.650050
44.500000 137.133514
44.500000 137.617823
44.500000 138.102976
44.500000 138.588974
44.500000 139.075816
44.500000 139.563503
44.500000 140.052034
44.500000 140.541410
44.500000 141.031630
44.500000 141.522695
44.500000 142.014604
44.500000 142.507358
44.500000 143.000956
44.500000 143.495399
44.500000 143.990686
44.500000 144.486817
44.500000 144.983793
44.500000 145.481614
44.500000 145.980279
44.500000 146.479788
44.500000 146.980142
44.500000 147.481341
44.500000 147.983384
44.500000 148.486271
44.500000 148.990003
44.500000 149.494579
44.500000 150.000000
</POINTS>
</NEKTAR>

