<?xml version="1.0" encoding="utf-8" ?>
<NEKTAR>
<POINTS DIM="2" FIELDS="">
16.500000 -2.500000
16.500000 -2.499575
16.500000 -2.498300
16.500000 -2.496175
16.500000 -2.493200
16.500000 -2.489374
16.500000 -2.484699
16.500000 -2.479174
16.500000 -2.472798
16.500000 -2.465573
16.500000 -2.457497
16.500000 -2.448572
16.500000 -2.438796
16.500000 -2.428170
16.500000 -2.416695
16.500000 -2.404369
16.500000 -2.391193
16.500000 -2.377167
16.500000 -2.362291
16.500000 -2.346565
16.500000 -2.329989
16.500000 -2.312563
16.500000 -2.294287
16.500000 -2.275161
16.500000 -2.255185
16.500000 -2.234358
16.500000 -2.212682
16.500000 -2.190156
16.500000 -2.166779
16.500000 -2.142553
16.500000 -2.117476
16.500000 -2.091549
16.500000 -2.064773
16.500000 -2.037146
16.500000 -2.008669
16.500000 -1.979342
16.500000 -1.949165
16.500000 -1.918138
16.500000 -1.886261
16.500000 -1.853534
16.500000 -1.819957
16.500000 -1.785530
16.500000 -1.750253
16.500000 -1.714126
16.500000 -1.677148
16.500000 -1.639321
16.500000 -1.600644
16.500000 -1.561116
16.500000 -1.520739
16.500000 -1.479511
16.500000 -1.437433
16.500000 -1.394506
16.500000 -1.350728
16.500000 -1.306100
16.500000 -1.260622
16.500000 -1.214294
16.500000 -1.167116
16.500000 -1.119088
16.500000 -1.070210
16.500000 -1.020482
16.500000 -0.969904
16.500000 -0.918476
16.500000 -0.866197
16.500000 -0.813069
16.500000 -0.759091
16.500000 -0.704262
16.500000 -0.648584
16.500000 -0.592055
16.500000 -0.534677
16.500000 -0.476448
16.500000 -0.417369
16.500000 -0.357440
16.500000 -0.296662
16.500000 -0.235033
16.500000 -0.172554
16.500000 -0.109225
16.500000 -0.045046
16.500000 0.019983
16.500000 0.085862
16.500000 0.152592
16.500000 0.220171
16.500000 0.288600
16.500000 0.357879
16.500000 0.428009
16.500000 0.498988
16.500000 0.570818
16.500000 0.643497
16.500000 0.717027
16.500000 0.791407
16.500000 0.866636
16.500000 0.942716
16.500000 1.019646
16.500000 1.097426
16.500000 1.176056
16.500000 1.255536
16.500000 1.335866
16.500000 1.417046
16.500000 1.499076
16.500000 1.581956
16.500000 1.665687
16.500000 1.750267
16.500000 1.835697
16.500000 1.921978
16.500000 2.009108
16.500000 2.097089
16.500000 2.185919
16.500000 2.275600
16.500000 2.366131
16.500000 2.457511
16.500000 2.549742
16.500000 2.642823
16.500000 2.736754
16.500000 2.831535
16.500000 2.927166
16.500000 3.023647
16.500000 3.120978
16.500000 3.219159
16.500000 3.318190
16.500000 3.418072
16.500000 3.518803
16.500000 3.620384
16.500000 3.722816
16.500000 3.826097
16.500000 3.930229
16.500000 4.035210
16.500000 4.141042
16.500000 4.247724
16.500000 4.355255
16.500000 4.463637
16.500000 4.572869
16.500000 4.682951
16.500000 4.793883
16.500000 4.905665
16.500000 5.018297
16.500000 5.131779
16.500000 5.246111
16.500000 5.361294
16.500000 5.477326
16.500000 5.594208
16.500000 5.711941
16.500000 5.830523
16.500000 5.949956
16.500000 6.070238
16.500000 6.191371
16.500000 6.313353
16.500000 6.436186
16.500000 6.559869
16.500000 6.684402
16.500000 6.809785
16.500000 6.936017
16.500000 7.063100
16.500000 7.191033
16.500000 7.319817
16.500000 7.449450
16.500000 7.579933
16.500000 7.711266
16.500000 7.843449
16.500000 7.976483
16.500000 8.110366
16.500000 8.245100
16.500000 8.380683
16.500000 8.517117
16.500000 8.654400
16.500000 8.792534
16.500000 8.931518
16.500000 9.071352
16.500000 9.212035
16.500000 9.353569
16.500000 9.495953
16.500000 9.639187
16.500000 9.783271
16.500000 9.928205
16.500000 10.073989
16.500000 10.220624
16.500000 10.368108
16.500000 10.516442
16.500000 10.665627
16.500000 10.815661
16.500000 10.966546
16.500000 11.118280
16.500000 11.270865
16.500000 11.424299
16.500000 11.578584
16.500000 11.733719
16.500000 11.889703
16.500000 12.046538
16.500000 12.204223
16.500000 12.362758
16.500000 12.522143
16.500000 12.682378
16.500000 12.843463
16.500000 13.005399
16.500000 13.168184
16.500000 13.331819
16.500000 13.496304
16.500000 13.661640
16.500000 13.827825
16.500000 13.994861
16.500000 14.162746
16.500000 14.331482
16.500000 14.501067
16.500000 14.671503
16.500000 14.842789
16.500000 15.014925
16.500000 15.187911
16.500000 15.361746
16.500000 15.536432
16.500000 15.711968
16.500000 15.888355
16.500000 16.065591
16.500000 16.243677
16.500000 16.422613
16.500000 16.602399
16.500000 16.783036
16.500000 16.964522
16.500000 17.146859
16.500000 17.330045
16.500000 17.514082
16.500000 17.698968
16.500000 17.884705
16.500000 18.071292
16.500000 18.258728
16.500000 18.447015
16.500000 18.636152
16.500000 18.826139
16.500000 19.016976
16.500000 19.208663
16.500000 19.401200
16.500000 19.594587
16.500000 19.788824
16.500000 19.983912
16.500000 20.179849
16.500000 20.376636
16.500000 20.574274
16.500000 20.772761
16.500000 20.972099
16.500000 21.172286
16.500000 21.373324
16.500000 21.575212
16.500000 21.777949
16.500000 21.981537
16.500000 22.185975
16.500000 22.391263
16.500000 22.597401
16.500000 22.804389
16.500000 23.012227
16.500000 23.220915
16.500000 23.430453
16.500000 23.640841
16.500000 23.852080
16.500000 24.064168
16.500000 24.277106
16.500000 24.490895
16.500000 24.705533
16.500000 24.921022
16.500000 25.137360
16.500000 25.354549
16.500000 25.572588
16.500000 25.791476
16.500000 26.011215
16.500000 26.231804
16.500000 26.453243
16.500000 26.675532
16.500000 26.898671
16.500000 27.122660
16.500000 27.347499
16.500000 27.573188
16.500000 27.799727
16.500000 28.027117
16.500000 28.255356
16.500000 28.484445
16.500000 28.714385
16.500000 28.945174
16.500000 29.176814
16.500000 29.409303
16.500000 29.642643
16.500000 29.876833
16.500000 30.111873
16.500000 30.347762
16.500000 30.584502
16.500000 30.822092
16.500000 31.060532
16.500000 31.299822
16.500000 31.539962
16.500000 31.780952
16.500000 32.022793
16.500000 32.265483
16.500000 32.509023
16.500000 32.753413
16.500000 32.998654
16.500000 33.244744
16.500000 33.491685
16.500000 33.739475
16.500000 33.988116
16.500000 34.237607
16.500000 34.487947
16.500000 34.739138
16.500000 34.991179
16.500000 35.244070
16.500000 35.497811
16.500000 35.752402
16.500000 36.007843
16.500000 36.264134
16.500000 36.521275
16.500000 36.779266
16.500000 37.038107
16.500000 37.297799
16.500000 37.558340
16.500000 37.819732
16.500000 38.081973
16.500000 38.345065
16.500000 38.609006
16.500000 38.873798
16.500000 39.139439
16.500000 39.405931
16.500000 39.673273
16.500000 39.941465
16.500000 40.210507
16.500000 40.480399
16.500000 40.751141
16.500000 41.022733
16.500000 41.295175
16.500000 41.568467
16.500000 41.842609
16.500000 42.117601
16.500000 42.393444
16.500000 42.670136
16.500000 42.947679
16.500000 43.226071
16.500000 43.505314
16.500000 43.785406
16.500000 44.066349
16.500000 44.348141
16.500000 44.630784
16.500000 44.914277
16.500000 45.198620
16.500000 45.483813
16.500000 45.769856
16.500000 46.056749
16.500000 46.344492
16.500000 46.633085
16.500000 46.922528
16.500000 47.212821
16.500000 47.503965
16.500000 47.795958
16.500000 48.088801
16.500000 48.382495
16.500000 48.677038
16.500000 48.972432
16.500000 49.268675
16.500000 49.565769
16.500000 49.863713
16.500000 50.162507
16.500000 50.462150
16.500000 50.762644
16.500000 51.063988
16.500000 51.366182
16.500000 51.669226
16.500000 51.973120
16.500000 52.277864
16.500000 52.583459
16.500000 52.889903
16.500000 53.197197
16.500000 53.505341
16.500000 53.814336
16.500000 54.124180
16.500000 54.434875
16.500000 54.746419
16.500000 55.058814
16.500000 55.372059
16.500000 55.686153
16.500000 56.001098
16.500000 56.316893
16.500000 56.633538
16.500000 56.951033
16.500000 57.269378
16.500000 57.588573
16.500000 57.908618
16.500000 58.229513
16.500000 58.551258
16.500000 58.873853
16.500000 59.197299
16.500000 59.521594
16.500000 59.846740
16.500000 60.172735
16.500000 60.499581
16.500000 60.827276
16.500000 61.155822
16.500000 61.485217
16.500000 61.815463
16.500000 62.146559
16.500000 62.478505
16.500000 62.811301
16.500000 63.144947
16.500000 63.479443
16.500000 63.814789
16.500000 64.150985
16.500000 64.488031
16.500000 64.825927
16.500000 65.164673
16.500000 65.504270
16.500000 65.844716
16.500000 66.186013
16.500000 66.528159
16.500000 66.871156
16.500000 67.215002
16.500000 67.559699
16.500000 67.905246
16.500000 68.251642
16.500000 68.598889
16.500000 68.946986
16.500000 69.295933
16.500000 69.645730
16.500000 69.996377
16.500000 70.347874
16.500000 70.700221
16.500000 71.053418
16.500000 71.407465
16.500000 71.762363
16.500000 72.118110
16.500000 72.474707
16.500000 72.832155
16.500000 73.190452
16.500000 73.549600
16.500000 73.909598
16.500000 74.270445
16.500000 74.632143
16.500000 74.994691
16.500000 75.358088
16.500000 75.722336
16.500000 76.087434
16.500000 76.453382
16.500000 76.820180
16.500000 77.187828
16.500000 77.556326
16.500000 77.925675
16.500000 78.295873
16.500000 78.666921
16.500000 79.038820
16.500000 79.411568
16.500000 79.785166
16.500000 80.159615
16.500000 80.534914
16.500000 80.911062
16.500000 81.288061
16.500000 81.665910
16.500000 82.044608
16.500000 82.424157
16.500000 82.804556
16.500000 83.185805
16.500000 83.567904
16.500000 83.950853
16.500000 84.334652
16.500000 84.719301
16.500000 85.104800
16.500000 85.491150
16.500000 85.878349
16.500000 86.266398
16.500000 86.655298
16.500000 87.045047
16.500000 87.435647
16.500000 87.827096
16.500000 88.219396
16.500000 88.612546
16.500000 89.006545
16.500000 89.401395
16.500000 89.797095
16.500000 90.193645
16.500000 90.591045
16.500000 90.989295
16.500000 91.388395
16.500000 91.788345
16.500000 92.189145
16.500000 92.590795
16.500000 92.993296
16.500000 93.396646
16.500000 93.800846
16.500000 94.205897
16.500000 94.611797
16.500000 95.018548
16.500000 95.426148
16.500000 95.834599
16.500000 96.243900
16.500000 96.654051
16.500000 97.065051
16.500000 97.476902
16.500000 97.889603
16.500000 98.303154
16.500000 98.717555
16.500000 99.132806
16.500000 99.548907
16.500000 99.965859
16.500000 100.383660
16.500000 100.802311
16.500000 101.221812
16.500000 101.642164
16.500000 102.063365
16.500000 102.485417
16.500000 102.908318
16.500000 103.332070
16.500000 103.756672
16.500000 104.182123
16.500000 104.608425
16.500000 105.035577
16.500000 105.463579
16.500000 105.892431
16.500000 106.322133
16.500000 106.752685
16.500000 107.184087
16.500000 107.616339
16.500000 108.049441
16.500000 108.483393
16.500000 108.918196
16.500000 109.353848
16.500000 109.790350
16.500000 110.227703
16.500000 110.665905
16.500000 111.104958
16.500000 111.544861
16.500000 111.985613
16.500000 112.427216
16.500000 112.869669
16.500000 113.312972
16.500000 113.757124
16.500000 114.202127
16.500000 114.647980
16.500000 115.094683
16.500000 115.542237
16.500000 115.990640
16.500000 116.439893
16.500000 116.889996
16.500000 117.340949
16.500000 117.792753
16.500000 118.245406
16.500000 118.698910
16.500000 119.153263
16.500000 119.608467
16.500000 120.064520
16.500000 120.521424
16.500000 120.979178
16.500000 121.437782
16.500000 121.897236
16.500000 122.357539
16.500000 122.818693
16.500000 123.280697
16.500000 123.743551
16.500000 124.207256
16.500000 124.671810
16.500000 125.137214
16.500000 125.603468
16.500000 126.070573
16.500000 126.538527
16.500000 127.007331
16.500000 127.476986
16.500000 127.947490
16.500000 128.418845
16.500000 128.891050
16.500000 129.364104
16.500000 129.838009
16.500000 130.312764
16.500000 130.788369
16.500000 131.264824
16.500000 131.742129
16.500000 132.220284
16.500000 132.699289
16.500000 133.179144
16.500000 133.659849
16.500000 134.141404
16.500000 134.623810
16.500000 135.107065
16.500000 135.591170
16.500000 136.076126
16.500000 136.561931
16.500000 137.048587
16.500000 137.536092
16.500000 138.024448
16.500000 138.513654
16.500000 139.003710
16.500000 139.494615
16.500000 139.986371
16.500000 140.478977
16.500000 140.972433
16.500000 141.466739
16.500000 141.961895
16.500000 142.457901
16.500000 142.954758
16.500000 143.452464
16.500000 143.951020
16.500000 144.450427
16.500000 144.950683
16.500000 145.451789
16.500000 145.953746
16.500000 146.456553
16.500000 146.960209
16.500000 147.464716
16.500000 147.970073
16.500000 148.476279
16.500000 148.983336
16.500000 149.491243
16.500000 150.000000
</POINTS>
</NEKTAR>

