<?xml version="1.0" encoding="utf-8" ?>
<NEKTAR>
<POINTS DIM="2" FIELDS="">
42.500000 0.000000
42.500000 0.000418
42.500000 0.001672
42.500000 0.003763
42.500000 0.006689
42.500000 0.010451
42.500000 0.015050
42.500000 0.020485
42.500000 0.026756
42.500000 0.033863
42.500000 0.041806
42.500000 0.050585
42.500000 0.060201
42.500000 0.070652
42.500000 0.081940
42.500000 0.094063
42.500000 0.107023
42.500000 0.120819
42.500000 0.135451
42.500000 0.150919
42.500000 0.167224
42.500000 0.184364
42.500000 0.202341
42.500000 0.221153
42.500000 0.240802
42.500000 0.261287
42.500000 0.282608
42.500000 0.304765
42.500000 0.327758
42.500000 0.351588
42.500000 0.376253
42.500000 0.401755
42.500000 0.428092
42.500000 0.455266
42.500000 0.483276
42.500000 0.512122
42.500000 0.541805
42.500000 0.572323
42.500000 0.603677
42.500000 0.635868
42.500000 0.668894
42.500000 0.702757
42.500000 0.737456
42.500000 0.772991
42.500000 0.809362
42.500000 0.846570
42.500000 0.884613
42.500000 0.923492
42.500000 0.963208
42.500000 1.003760
42.500000 1.045148
42.500000 1.087372
42.500000 1.130432
42.500000 1.174328
42.500000 1.219060
42.500000 1.264629
42.500000 1.311033
42.500000 1.358274
42.500000 1.406351
42.500000 1.455264
42.500000 1.505013
42.500000 1.555598
42.500000 1.607019
42.500000 1.659276
42.500000 1.712370
42.500000 1.766299
42.500000 1.821065
42.500000 1.876667
42.500000 1.933105
42.500000 1.990379
42.500000 2.048489
42.500000 2.107436
42.500000 2.167218
42.500000 2.227837
42.500000 2.289291
42.500000 2.351582
42.500000 2.414709
42.500000 2.478672
42.500000 2.543471
42.500000 2.609106
42.500000 2.675578
42.500000 2.742885
42.500000 2.811029
42.500000 2.880009
42.500000 2.949825
42.500000 3.020477
42.500000 3.091965
42.500000 3.164289
42.500000 3.237449
42.500000 3.311446
42.500000 3.386278
42.500000 3.461947
42.500000 3.538452
42.500000 3.615793
42.500000 3.693970
42.500000 3.772983
42.500000 3.852832
42.500000 3.933517
42.500000 4.015039
42.500000 4.097397
42.500000 4.180590
42.500000 4.264620
42.500000 4.349486
42.500000 4.435188
42.500000 4.521727
42.500000 4.609101
42.500000 4.697311
42.500000 4.786358
42.500000 4.876241
42.500000 4.966959
42.500000 5.058514
42.500000 5.150905
42.500000 5.244133
42.500000 5.338196
42.500000 5.433095
42.500000 5.528831
42.500000 5.625402
42.500000 5.722810
42.500000 5.821054
42.500000 5.920134
42.500000 6.020050
42.500000 6.120802
42.500000 6.222391
42.500000 6.324815
42.500000 6.428076
42.500000 6.532172
42.500000 6.637105
42.500000 6.742874
42.500000 6.849479
42.500000 6.956920
42.500000 7.065198
42.500000 7.174311
42.500000 7.284261
42.500000 7.395046
42.500000 7.506668
42.500000 7.619126
42.500000 7.732420
42.500000 7.846550
42.500000 7.961516
42.500000 8.077319
42.500000 8.193957
42.500000 8.311432
42.500000 8.429742
42.500000 8.548889
42.500000 8.668872
42.500000 8.789691
42.500000 8.911346
42.500000 9.033838
42.500000 9.157165
42.500000 9.281329
42.500000 9.406328
42.500000 9.532164
42.500000 9.658836
42.500000 9.786344
42.500000 9.914688
42.500000 10.043868
42.500000 10.173885
42.500000 10.304737
42.500000 10.436426
42.500000 10.568950
42.500000 10.702311
42.500000 10.836508
42.500000 10.971541
42.500000 11.107411
42.500000 11.244116
42.500000 11.381657
42.500000 11.520035
42.500000 11.659248
42.500000 11.799298
42.500000 11.940184
42.500000 12.081906
42.500000 12.224464
42.500000 12.367859
42.500000 12.512089
42.500000 12.657155
42.500000 12.803058
42.500000 12.949797
42.500000 13.097372
42.500000 13.245782
42.500000 13.395030
42.500000 13.545113
42.500000 13.696032
42.500000 13.847787
42.500000 14.000379
42.500000 14.153807
42.500000 14.308070
42.500000 14.463170
42.500000 14.619106
42.500000 14.775879
42.500000 14.933487
42.500000 15.091931
42.500000 15.251212
42.500000 15.411328
42.500000 15.572281
42.500000 15.734070
42.500000 15.896695
42.500000 16.060156
42.500000 16.224453
42.500000 16.389586
42.500000 16.555556
42.500000 16.722361
42.500000 16.890003
42.500000 17.058481
42.500000 17.227795
42.500000 17.397945
42.500000 17.568931
42.500000 17.740753
42.500000 17.913412
42.500000 18.086906
42.500000 18.261237
42.500000 18.436403
42.500000 18.612406
42.500000 18.789245
42.500000 18.966920
42.500000 19.145432
42.500000 19.324779
42.500000 19.504962
42.500000 19.685982
42.500000 19.867838
42.500000 20.050529
42.500000 20.234057
42.500000 20.418421
42.500000 20.603622
42.500000 20.789658
42.500000 20.976530
42.500000 21.164239
42.500000 21.352783
42.500000 21.542164
42.500000 21.732381
42.500000 21.923434
42.500000 22.115323
42.500000 22.308048
42.500000 22.501610
42.500000 22.696007
42.500000 22.891241
42.500000 23.087310
42.500000 23.284216
42.500000 23.481958
42.500000 23.680536
42.500000 23.879950
42.500000 24.080200
42.500000 24.281287
42.500000 24.483209
42.500000 24.685968
42.500000 24.889563
42.500000 25.093994
42.500000 25.299261
42.500000 25.505364
42.500000 25.712303
42.500000 25.920078
42.500000 26.128690
42.500000 26.338137
42.500000 26.548421
42.500000 26.759541
42.500000 26.971497
42.500000 27.184289
42.500000 27.397917
42.500000 27.612381
42.500000 27.827682
42.500000 28.043818
42.500000 28.260791
42.500000 28.478600
42.500000 28.697244
42.500000 28.916725
42.500000 29.137043
42.500000 29.358196
42.500000 29.580185
42.500000 29.803011
42.500000 30.026672
42.500000 30.251170
42.500000 30.476504
42.500000 30.702674
42.500000 30.929680
42.500000 31.157522
42.500000 31.386200
42.500000 31.615715
42.500000 31.846065
42.500000 32.077252
42.500000 32.309275
42.500000 32.542133
42.500000 32.775828
42.500000 33.010360
42.500000 33.245727
42.500000 33.481930
42.500000 33.718970
42.500000 33.956845
42.500000 34.195557
42.500000 34.435105
42.500000 34.675489
42.500000 34.916709
42.500000 35.158765
42.500000 35.401657
42.500000 35.645386
42.500000 35.889950
42.500000 36.135351
42.500000 36.381588
42.500000 36.628660
42.500000 36.876569
42.500000 37.125315
42.500000 37.374896
42.500000 37.625313
42.500000 37.876567
42.500000 38.128656
42.500000 38.381582
42.500000 38.635344
42.500000 38.889942
42.500000 39.145376
42.500000 39.401646
42.500000 39.658752
42.500000 39.916695
42.500000 40.175473
42.500000 40.435088
42.500000 40.695539
42.500000 40.956826
42.500000 41.218949
42.500000 41.481908
42.500000 41.745703
42.500000 42.010334
42.500000 42.275802
42.500000 42.542106
42.500000 42.809245
42.500000 43.077221
42.500000 43.346033
42.500000 43.615681
42.500000 43.886165
42.500000 44.157486
42.500000 44.429642
42.500000 44.702635
42.500000 44.976463
42.500000 45.251128
42.500000 45.526629
42.500000 45.802966
42.500000 46.080139
42.500000 46.358148
42.500000 46.636994
42.500000 46.916675
42.500000 47.197193
42.500000 47.478547
42.500000 47.760736
42.500000 48.043762
42.500000 48.327625
42.500000 48.612323
42.500000 48.897857
42.500000 49.184227
42.500000 49.471434
42.500000 49.759477
42.500000 50.048355
42.500000 50.338070
42.500000 50.628621
42.500000 50.920009
42.500000 51.212232
42.500000 51.505291
42.500000 51.799187
42.500000 52.093918
42.500000 52.389486
42.500000 52.685890
42.500000 52.983130
42.500000 53.281206
42.500000 53.580118
42.500000 53.879867
42.500000 54.180451
42.500000 54.481872
42.500000 54.784128
42.500000 55.087221
42.500000 55.391150
42.500000 55.695915
42.500000 56.001516
42.500000 56.307953
42.500000 56.615227
42.500000 56.923336
42.500000 57.232282
42.500000 57.542064
42.500000 57.852682
42.500000 58.164136
42.500000 58.476426
42.500000 58.789552
42.500000 59.103514
42.500000 59.418313
42.500000 59.733947
42.500000 60.050418
42.500000 60.367725
42.500000 60.685868
42.500000 61.004847
42.500000 61.324662
42.500000 61.645313
42.500000 61.966801
42.500000 62.289124
42.500000 62.612284
42.500000 62.936279
42.500000 63.261111
42.500000 63.586779
42.500000 63.913283
42.500000 64.240624
42.500000 64.568800
42.500000 64.897812
42.500000 65.227661
42.500000 65.558346
42.500000 65.889867
42.500000 66.222223
42.500000 66.555417
42.500000 66.889446
42.500000 67.224311
42.500000 67.560012
42.500000 67.896550
42.500000 68.233924
42.500000 68.572133
42.500000 68.911179
42.500000 69.251061
42.500000 69.591779
42.500000 69.933334
42.500000 70.275724
42.500000 70.618950
42.500000 70.963013
42.500000 71.307912
42.500000 71.653646
42.500000 72.000217
42.500000 72.347624
42.500000 72.695868
42.500000 73.044947
42.500000 73.394862
42.500000 73.745614
42.500000 74.097202
42.500000 74.449625
42.500000 74.802885
42.500000 75.156981
42.500000 75.511913
42.500000 75.867682
42.500000 76.224286
42.500000 76.581726
42.500000 76.940003
42.500000 77.299116
42.500000 77.659064
42.500000 78.019849
42.500000 78.381471
42.500000 78.743928
42.500000 79.107221
42.500000 79.471350
42.500000 79.836316
42.500000 80.202118
42.500000 80.568755
42.500000 80.936229
42.500000 81.304539
42.500000 81.673685
42.500000 82.043668
42.500000 82.414486
42.500000 82.786141
42.500000 83.158631
42.500000 83.531958
42.500000 83.906121
42.500000 84.281120
42.500000 84.656955
42.500000 85.033626
42.500000 85.411133
42.500000 85.789477
42.500000 86.168656
42.500000 86.548672
42.500000 86.929524
42.500000 87.311212
42.500000 87.693736
42.500000 88.077096
42.500000 88.461292
42.500000 88.846324
42.500000 89.232193
42.500000 89.618897
42.500000 90.006438
42.500000 90.394815
42.500000 90.784028
42.500000 91.174077
42.500000 91.564962
42.500000 91.956684
42.500000 92.349241
42.500000 92.742634
42.500000 93.136864
42.500000 93.531930
42.500000 93.927832
42.500000 94.324570
42.500000 94.722144
42.500000 95.120554
42.500000 95.519801
42.500000 95.919883
42.500000 96.320802
42.500000 96.722557
42.500000 97.125147
42.500000 97.528574
42.500000 97.932837
42.500000 98.337937
42.500000 98.743872
42.500000 99.150643
42.500000 99.558251
42.500000 99.966695
42.500000 100.375974
42.500000 100.786090
42.500000 101.197042
42.500000 101.608831
42.500000 102.021455
42.500000 102.434915
42.500000 102.849212
42.500000 103.264344
42.500000 103.680313
42.500000 104.097118
42.500000 104.514759
42.500000 104.933236
42.500000 105.352549
42.500000 105.772699
42.500000 106.193684
42.500000 106.615506
42.500000 107.038163
42.500000 107.461657
42.500000 107.885987
42.500000 108.311153
42.500000 108.737155
42.500000 109.163993
42.500000 109.591668
42.500000 110.020178
42.500000 110.449525
42.500000 110.879708
42.500000 111.310727
42.500000 111.742582
42.500000 112.175273
42.500000 112.608800
42.500000 113.043163
42.500000 113.478363
42.500000 113.914398
42.500000 114.351270
42.500000 114.788978
42.500000 115.227522
42.500000 115.666902
42.500000 116.107118
42.500000 116.548170
42.500000 116.990059
42.500000 117.432783
42.500000 117.876344
42.500000 118.320740
42.500000 118.765973
42.500000 119.212042
42.500000 119.658947
42.500000 120.106689
42.500000 120.555266
42.500000 121.004679
42.500000 121.454929
42.500000 121.906015
42.500000 122.357937
42.500000 122.810695
42.500000 123.264289
42.500000 123.718719
42.500000 124.173985
42.500000 124.630087
42.500000 125.087026
42.500000 125.544801
42.500000 126.003411
42.500000 126.462858
42.500000 126.923141
42.500000 127.384260
42.500000 127.846216
42.500000 128.309007
42.500000 128.772634
42.500000 129.237098
42.500000 129.702398
42.500000 130.168534
42.500000 130.635505
42.500000 131.103314
42.500000 131.571958
42.500000 132.041438
42.500000 132.511754
42.500000 132.982907
42.500000 133.454896
42.500000 133.927720
42.500000 134.401381
42.500000 134.875878
42.500000 135.351211
42.500000 135.827381
42.500000 136.304386
42.500000 136.782227
42.500000 137.260905
42.500000 137.740419
42.500000 138.220769
42.500000 138.701955
42.500000 139.183977
42.500000 139.666835
42.500000 140.150529
42.500000 140.635060
42.500000 141.120426
42.500000 141.606629
42.500000 142.093668
42.500000 142.581542
42.500000 143.070253
42.500000 143.559801
42.500000 144.050184
42.500000 144.541403
42.500000 145.033459
42.500000 145.526350
42.500000 146.020078
42.500000 146.514642
42.500000 147.010042
42.500000 147.506278
42.500000 148.003350
42.500000 148.501258
42.500000 149.000003
42.500000 149.499583
42.500000 150.000000
</POINTS>
</NEKTAR>

