<?xml version="1.0" encoding="utf-8" ?>
<NEKTAR>
<POINTS DIM="2" FIELDS="">
80.000000 0.000000
80.000000 0.000417
80.000000 0.001671
80.000000 0.003762
80.000000 0.006687
80.000000 0.010450
80.000000 0.015048
80.000000 0.020484
80.000000 0.026753
80.000000 0.033862
80.000000 0.041803
80.000000 0.050579
80.000000 0.060198
80.000000 0.070646
80.000000 0.081937
80.000000 0.094057
80.000000 0.107021
80.000000 0.120813
80.000000 0.135450
80.000000 0.150914
80.000000 0.167213
80.000000 0.184359
80.000000 0.202330
80.000000 0.221149
80.000000 0.240792
80.000000 0.261284
80.000000 0.282599
80.000000 0.304763
80.000000 0.327750
80.000000 0.351587
80.000000 0.376246
80.000000 0.401740
80.000000 0.428086
80.000000 0.455252
80.000000 0.483271
80.000000 0.512109
80.000000 0.541801
80.000000 0.572311
80.000000 0.603676
80.000000 0.635857
80.000000 0.668875
80.000000 0.702748
80.000000 0.737438
80.000000 0.772984
80.000000 0.809345
80.000000 0.846564
80.000000 0.884597
80.000000 0.923489
80.000000 0.963194
80.000000 1.003759
80.000000 1.045136
80.000000 1.087348
80.000000 1.130422
80.000000 1.174306
80.000000 1.219053
80.000000 1.264609
80.000000 1.311028
80.000000 1.358256
80.000000 1.406349
80.000000 1.455248
80.000000 1.504984
80.000000 1.555585
80.000000 1.606992
80.000000 1.659267
80.000000 1.712346
80.000000 1.766293
80.000000 1.821044
80.000000 1.876664
80.000000 1.933086
80.000000 1.990344
80.000000 2.048473
80.000000 2.107404
80.000000 2.167206
80.000000 2.227807
80.000000 2.289282
80.000000 2.351556
80.000000 2.414704
80.000000 2.478649
80.000000 2.543470
80.000000 2.609087
80.000000 2.675540
80.000000 2.742870
80.000000 2.810995
80.000000 2.879997
80.000000 2.949794
80.000000 3.020469
80.000000 3.091937
80.000000 3.164285
80.000000 3.237426
80.000000 3.311402
80.000000 3.386259
80.000000 3.461907
80.000000 3.538437
80.000000 3.615756
80.000000 3.693959
80.000000 3.772951
80.000000 3.852826
80.000000 3.933490
80.000000 4.015038
80.000000 4.097373
80.000000 4.180544
80.000000 4.264602
80.000000 4.349445
80.000000 4.435175
80.000000 4.521689
80.000000 4.609092
80.000000 4.697279
80.000000 4.786355
80.000000 4.876213
80.000000 4.966907
80.000000 5.058492
80.000000 5.150858
80.000000 5.244115
80.000000 5.338153
80.000000 5.433084
80.000000 5.528793
80.000000 5.625396
80.000000 5.722778
80.000000 5.820995
80.000000 5.920107
80.000000 6.019996
80.000000 6.120781
80.000000 6.222342
80.000000 6.324800
80.000000 6.428033
80.000000 6.532163
80.000000 6.637068
80.000000 6.742872
80.000000 6.849448
80.000000 6.956860
80.000000 7.065172
80.000000 7.174256
80.000000 7.284242
80.000000 7.394997
80.000000 7.506656
80.000000 7.619083
80.000000 7.732414
80.000000 7.846514
80.000000 7.961449
80.000000 8.077289
80.000000 8.193895
80.000000 8.311409
80.000000 8.429687
80.000000 8.548873
80.000000 8.668824
80.000000 8.789682
80.000000 8.911305
80.000000 9.033836
80.000000 9.157130
80.000000 9.281260
80.000000 9.406301
80.000000 9.532102
80.000000 9.658816
80.000000 9.786289
80.000000 9.914675
80.000000 10.043821
80.000000 10.173880
80.000000 10.304697
80.000000 10.436350
80.000000 10.568918
80.000000 10.702242
80.000000 10.836483
80.000000 10.971480
80.000000 11.107394
80.000000 11.244062
80.000000 11.381649
80.000000 11.519989
80.000000 11.659165
80.000000 11.799260
80.000000 11.940108
80.000000 12.081876
80.000000 12.224396
80.000000 12.367837
80.000000 12.512028
80.000000 12.657143
80.000000 12.803006
80.000000 12.949793
80.000000 13.097328
80.000000 13.245698
80.000000 13.394994
80.000000 13.545037
80.000000 13.696006
80.000000 13.847720
80.000000 14.000362
80.000000 14.153748
80.000000 14.308063
80.000000 14.463121
80.000000 14.619014
80.000000 14.775838
80.000000 14.933403
80.000000 15.091900
80.000000 15.251137
80.000000 15.411306
80.000000 15.572215
80.000000 15.734058
80.000000 15.896639
80.000000 16.060153
80.000000 16.224406
80.000000 16.389495
80.000000 16.555519
80.000000 16.722279
80.000000 16.889976
80.000000 17.058408
80.000000 17.227778
80.000000 17.397882
80.000000 17.568924
80.000000 17.740700
80.000000 17.913312
80.000000 18.086863
80.000000 18.261146
80.000000 18.436371
80.000000 18.612326
80.000000 18.789223
80.000000 18.966850
80.000000 19.145420
80.000000 19.324719
80.000000 19.504962
80.000000 19.685932
80.000000 19.867739
80.000000 20.050491
80.000000 20.233969
80.000000 20.418394
80.000000 20.603544
80.000000 20.789641
80.000000 20.976463
80.000000 21.164233
80.000000 21.352727
80.000000 21.542056
80.000000 21.732336
80.000000 21.923337
80.000000 22.115289
80.000000 22.307962
80.000000 22.501587
80.000000 22.695932
80.000000 22.891230
80.000000 23.087247
80.000000 23.284099
80.000000 23.481906
80.000000 23.680430
80.000000 23.879910
80.000000 24.080106
80.000000 24.281259
80.000000 24.483127
80.000000 24.685952
80.000000 24.889492
80.000000 25.093990
80.000000 25.299202
80.000000 25.505249
80.000000 25.712256
80.000000 25.919975
80.000000 26.128655
80.000000 26.338046
80.000000 26.548399
80.000000 26.759462
80.000000 26.971488
80.000000 27.184222
80.000000 27.397793
80.000000 27.612327
80.000000 27.827570
80.000000 28.043777
80.000000 28.260691
80.000000 28.478572
80.000000 28.697157
80.000000 28.916711
80.000000 29.136968
80.000000 29.358194
80.000000 29.580124
80.000000 29.802889
80.000000 30.026624
80.000000 30.251061
80.000000 30.476469
80.000000 30.702578
80.000000 30.929659
80.000000 31.157439
80.000000 31.386193
80.000000 31.615646
80.000000 31.845934
80.000000 32.077196
80.000000 32.309156
80.000000 32.542092
80.000000 32.775724
80.000000 33.010332
80.000000 33.245636
80.000000 33.481917
80.000000 33.718892
80.000000 33.956704
80.000000 34.195494
80.000000 34.434977
80.000000 34.675440
80.000000 34.916595
80.000000 35.158730
80.000000 35.401557
80.000000 35.645366
80.000000 35.889864
80.000000 36.135346
80.000000 36.381516
80.000000 36.628522
80.000000 36.876513
80.000000 37.125191
80.000000 37.374854
80.000000 37.625204
80.000000 37.876540
80.000000 38.128562
80.000000 38.381571
80.000000 38.635264
80.000000 38.889793
80.000000 39.145311
80.000000 39.401512
80.000000 39.658703
80.000000 39.916576
80.000000 40.175439
80.000000 40.434984
80.000000 40.695521
80.000000 40.956737
80.000000 41.218946
80.000000 41.481835
80.000000 41.745559
80.000000 42.010277
80.000000 42.275673
80.000000 42.542064
80.000000 42.809132
80.000000 43.077196
80.000000 43.345935
80.000000 43.615672
80.000000 43.886083
80.000000 44.157330
80.000000 44.429576
80.000000 44.702495
80.000000 44.976414
80.000000 45.251004
80.000000 45.526596
80.000000 45.802858
80.000000 46.080123
80.000000 46.358057
80.000000 46.636827
80.000000 46.916601
80.000000 47.197042
80.000000 47.478489
80.000000 47.760602
80.000000 48.043721
80.000000 48.327507
80.000000 48.612299
80.000000 48.897756
80.000000 49.184221
80.000000 49.471350
80.000000 49.759315
80.000000 50.048289
80.000000 50.337925
80.000000 50.628572
80.000000 50.919881
80.000000 51.212200
80.000000 51.505180
80.000000 51.799173
80.000000 52.093825
80.000000 52.389313
80.000000 52.685814
80.000000 52.982974
80.000000 53.281148
80.000000 53.579979
80.000000 53.879826
80.000000 54.180330
80.000000 54.481850
80.000000 54.784025
80.000000 55.087218
80.000000 55.391065
80.000000 55.695747
80.000000 56.001449
80.000000 56.307803
80.000000 56.615178
80.000000 56.923204
80.000000 57.232252
80.000000 57.541950
80.000000 57.852670
80.000000 58.164040
80.000000 58.476246
80.000000 58.789475
80.000000 59.103353
80.000000 59.418255
80.000000 59.733804
80.000000 60.050379
80.000000 60.367600
80.000000 60.685848
80.000000 61.004741
80.000000 61.324470
80.000000 61.645227
80.000000 61.966627
80.000000 62.289057
80.000000 62.612129
80.000000 62.936232
80.000000 63.260976
80.000000 63.586751
80.000000 63.913167
80.000000 64.240615
80.000000 64.568703
80.000000 64.897627
80.000000 65.227584
80.000000 65.558179
80.000000 65.889809
80.000000 66.222077
80.000000 66.555379
80.000000 66.889318
80.000000 67.224294
80.000000 67.559905
80.000000 67.896352
80.000000 68.233836
80.000000 68.571955
80.000000 68.911112
80.000000 69.250902
80.000000 69.591733
80.000000 69.933195
80.000000 70.275698
80.000000 70.618832
80.000000 70.963008
80.000000 71.307814
80.000000 71.653455
80.000000 72.000140
80.000000 72.347454
80.000000 72.695811
80.000000 73.044796
80.000000 73.394827
80.000000 73.745484
80.000000 74.097188
80.000000 74.449516
80.000000 74.802681
80.000000 75.156893
80.000000 75.511730
80.000000 75.867615
80.000000 76.224123
80.000000 76.581681
80.000000 76.939861
80.000000 77.299093
80.000000 77.658944
80.000000 78.019848
80.000000 78.381372
80.000000 78.743731
80.000000 79.107144
80.000000 79.471175
80.000000 79.836261
80.000000 80.201964
80.000000 80.568723
80.000000 80.936097
80.000000 81.304529
80.000000 81.673576
80.000000 82.043458
80.000000 82.414398
80.000000 82.785952
80.000000 83.158566
80.000000 83.531792
80.000000 83.906078
80.000000 84.280976
80.000000 84.656935
80.000000 85.033504
80.000000 85.410910
80.000000 85.789378
80.000000 86.168455
80.000000 86.548596
80.000000 86.929345
80.000000 87.311158
80.000000 87.693579
80.000000 88.077066
80.000000 88.461158
80.000000 88.846318
80.000000 89.232082
80.000000 89.618682
80.000000 90.006351
80.000000 90.394623
80.000000 90.783964
80.000000 91.173908
80.000000 91.564922
80.000000 91.956538
80.000000 92.349224
80.000000 92.742512
80.000000 93.136635
80.000000 93.531831
80.000000 93.927626
80.000000 94.324495
80.000000 94.721962
80.000000 95.120503
80.000000 95.519642
80.000000 95.919856
80.000000 96.320667
80.000000 96.722554
80.000000 97.125036
80.000000 97.528355
80.000000 97.932751
80.000000 98.337741
80.000000 98.743810
80.000000 99.150471
80.000000 99.558213
80.000000 99.966547
80.000000 100.375962
80.000000 100.785967
80.000000 101.196808
80.000000 101.608732
80.000000 102.021245
80.000000 102.434841
80.000000 102.849026
80.000000 103.264296
80.000000 103.680152
80.000000 104.097094
80.000000 104.514623
80.000000 104.932987
80.000000 105.352438
80.000000 105.772474
80.000000 106.193598
80.000000 106.615306
80.000000 107.038103
80.000000 107.461483
80.000000 107.885952
80.000000 108.311004
80.000000 108.737147
80.000000 109.163870
80.000000 109.591429
80.000000 110.020080
80.000000 110.449311
80.000000 110.879636
80.000000 111.310538
80.000000 111.742536
80.000000 112.175110
80.000000 112.608780
80.000000 113.043027
80.000000 113.478109
80.000000 113.914288
80.000000 114.351042
80.000000 114.788894
80.000000 115.227319
80.000000 115.666844
80.000000 116.106942
80.000000 116.548139
80.000000 116.989909
80.000000 117.432779
80.000000 117.876220
80.000000 118.320497
80.000000 118.765877
80.000000 119.211825
80.000000 119.658878
80.000000 120.106498
80.000000 120.555223
80.000000 121.004516
80.000000 121.454914
80.000000 121.905878
80.000000 122.357678
80.000000 122.810585
80.000000 123.264057
80.000000 123.718636
80.000000 124.173780
80.000000 124.630033
80.000000 125.086848
80.000000 125.544774
80.000000 126.003261
80.000000 126.462584
80.000000 126.923018
80.000000 127.384013
80.000000 127.846120
80.000000 128.308787
80.000000 128.772567
80.000000 129.236906
80.000000 129.702359
80.000000 130.168369
80.000000 130.635495
80.000000 131.103177
80.000000 131.571695
80.000000 132.041329
80.000000 132.511519
80.000000 132.982827
80.000000 133.454688
80.000000 133.927669
80.000000 134.401202
80.000000 134.875855
80.000000 135.351061
80.000000 135.827101
80.000000 136.304264
80.000000 136.781976
80.000000 137.260812
80.000000 137.740196
80.000000 138.220704
80.000000 138.701760
80.000000 139.183941
80.000000 139.666670
80.000000 140.150523
80.000000 140.634923
80.000000 141.120159
80.000000 141.606522
80.000000 142.093429
80.000000 142.581465
80.000000 143.070044
80.000000 143.559753
80.000000 144.050004
80.000000 144.541385
80.000000 145.033308
80.000000 145.526067
80.000000 146.019957
80.000000 146.514387
80.000000 147.009951
80.000000 147.506053
80.000000 148.003289
80.000000 148.501063
80.000000 148.999972
80.000000 149.499418
80.000000 150.000000
</POINTS>
</NEKTAR>
