<?xml version="1.0" encoding="utf-8" ?>
<NEKTAR>
<POINTS DIM="2" FIELDS="">
933.500000 0.000000
933.500000 0.000418
933.500000 0.001672
933.500000 0.003763
933.500000 0.006689
933.500000 0.010451
933.500000 0.015050
933.500000 0.020485
933.500000 0.026756
933.500000 0.033863
933.500000 0.041806
933.500000 0.050585
933.500000 0.060201
933.500000 0.070652
933.500000 0.081940
933.500000 0.094063
933.500000 0.107023
933.500000 0.120819
933.500000 0.135451
933.500000 0.150919
933.500000 0.167224
933.500000 0.184364
933.500000 0.202341
933.500000 0.221153
933.500000 0.240802
933.500000 0.261287
933.500000 0.282608
933.500000 0.304765
933.500000 0.327758
933.500000 0.351588
933.500000 0.376253
933.500000 0.401755
933.500000 0.428092
933.500000 0.455266
933.500000 0.483276
933.500000 0.512122
933.500000 0.541805
933.500000 0.572323
933.500000 0.603677
933.500000 0.635868
933.500000 0.668894
933.500000 0.702757
933.500000 0.737456
933.500000 0.772991
933.500000 0.809362
933.500000 0.846570
933.500000 0.884613
933.500000 0.923492
933.500000 0.963208
933.500000 1.003760
933.500000 1.045148
933.500000 1.087372
933.500000 1.130432
933.500000 1.174328
933.500000 1.219060
933.500000 1.264629
933.500000 1.311033
933.500000 1.358274
933.500000 1.406351
933.500000 1.455264
933.500000 1.505013
933.500000 1.555598
933.500000 1.607019
933.500000 1.659276
933.500000 1.712370
933.500000 1.766299
933.500000 1.821065
933.500000 1.876667
933.500000 1.933105
933.500000 1.990379
933.500000 2.048489
933.500000 2.107436
933.500000 2.167218
933.500000 2.227837
933.500000 2.289291
933.500000 2.351582
933.500000 2.414709
933.500000 2.478672
933.500000 2.543471
933.500000 2.609106
933.500000 2.675578
933.500000 2.742885
933.500000 2.811029
933.500000 2.880009
933.500000 2.949825
933.500000 3.020477
933.500000 3.091965
933.500000 3.164289
933.500000 3.237449
933.500000 3.311446
933.500000 3.386278
933.500000 3.461947
933.500000 3.538452
933.500000 3.615793
933.500000 3.693970
933.500000 3.772983
933.500000 3.852832
933.500000 3.933517
933.500000 4.015039
933.500000 4.097397
933.500000 4.180590
933.500000 4.264620
933.500000 4.349486
933.500000 4.435188
933.500000 4.521727
933.500000 4.609101
933.500000 4.697311
933.500000 4.786358
933.500000 4.876241
933.500000 4.966959
933.500000 5.058514
933.500000 5.150905
933.500000 5.244133
933.500000 5.338196
933.500000 5.433095
933.500000 5.528831
933.500000 5.625402
933.500000 5.722810
933.500000 5.821054
933.500000 5.920134
933.500000 6.020050
933.500000 6.120802
933.500000 6.222391
933.500000 6.324815
933.500000 6.428076
933.500000 6.532172
933.500000 6.637105
933.500000 6.742874
933.500000 6.849479
933.500000 6.956920
933.500000 7.065198
933.500000 7.174311
933.500000 7.284261
933.500000 7.395046
933.500000 7.506668
933.500000 7.619126
933.500000 7.732420
933.500000 7.846550
933.500000 7.961516
933.500000 8.077319
933.500000 8.193957
933.500000 8.311432
933.500000 8.429742
933.500000 8.548889
933.500000 8.668872
933.500000 8.789691
933.500000 8.911346
933.500000 9.033838
933.500000 9.157165
933.500000 9.281329
933.500000 9.406328
933.500000 9.532164
933.500000 9.658836
933.500000 9.786344
933.500000 9.914688
933.500000 10.043868
933.500000 10.173885
933.500000 10.304737
933.500000 10.436426
933.500000 10.568950
933.500000 10.702311
933.500000 10.836508
933.500000 10.971541
933.500000 11.107411
933.500000 11.244116
933.500000 11.381657
933.500000 11.520035
933.500000 11.659248
933.500000 11.799298
933.500000 11.940184
933.500000 12.081906
933.500000 12.224464
933.500000 12.367859
933.500000 12.512089
933.500000 12.657155
933.500000 12.803058
933.500000 12.949797
933.500000 13.097372
933.500000 13.245782
933.500000 13.395030
933.500000 13.545113
933.500000 13.696032
933.500000 13.847787
933.500000 14.000379
933.500000 14.153807
933.500000 14.308070
933.500000 14.463170
933.500000 14.619106
933.500000 14.775879
933.500000 14.933487
933.500000 15.091931
933.500000 15.251212
933.500000 15.411328
933.500000 15.572281
933.500000 15.734070
933.500000 15.896695
933.500000 16.060156
933.500000 16.224453
933.500000 16.389586
933.500000 16.555556
933.500000 16.722361
933.500000 16.890003
933.500000 17.058481
933.500000 17.227795
933.500000 17.397945
933.500000 17.568931
933.500000 17.740753
933.500000 17.913412
933.500000 18.086906
933.500000 18.261237
933.500000 18.436403
933.500000 18.612406
933.500000 18.789245
933.500000 18.966920
933.500000 19.145432
933.500000 19.324779
933.500000 19.504962
933.500000 19.685982
933.500000 19.867838
933.500000 20.050529
933.500000 20.234057
933.500000 20.418421
933.500000 20.603622
933.500000 20.789658
933.500000 20.976530
933.500000 21.164239
933.500000 21.352783
933.500000 21.542164
933.500000 21.732381
933.500000 21.923434
933.500000 22.115323
933.500000 22.308048
933.500000 22.501610
933.500000 22.696007
933.500000 22.891241
933.500000 23.087310
933.500000 23.284216
933.500000 23.481958
933.500000 23.680536
933.500000 23.879950
933.500000 24.080200
933.500000 24.281287
933.500000 24.483209
933.500000 24.685968
933.500000 24.889563
933.500000 25.093994
933.500000 25.299261
933.500000 25.505364
933.500000 25.712303
933.500000 25.920078
933.500000 26.128690
933.500000 26.338137
933.500000 26.548421
933.500000 26.759541
933.500000 26.971497
933.500000 27.184289
933.500000 27.397917
933.500000 27.612381
933.500000 27.827682
933.500000 28.043818
933.500000 28.260791
933.500000 28.478600
933.500000 28.697244
933.500000 28.916725
933.500000 29.137043
933.500000 29.358196
933.500000 29.580185
933.500000 29.803011
933.500000 30.026672
933.500000 30.251170
933.500000 30.476504
933.500000 30.702674
933.500000 30.929680
933.500000 31.157522
933.500000 31.386200
933.500000 31.615715
933.500000 31.846065
933.500000 32.077252
933.500000 32.309275
933.500000 32.542133
933.500000 32.775828
933.500000 33.010360
933.500000 33.245727
933.500000 33.481930
933.500000 33.718970
933.500000 33.956845
933.500000 34.195557
933.500000 34.435105
933.500000 34.675489
933.500000 34.916709
933.500000 35.158765
933.500000 35.401657
933.500000 35.645386
933.500000 35.889950
933.500000 36.135351
933.500000 36.381588
933.500000 36.628660
933.500000 36.876569
933.500000 37.125315
933.500000 37.374896
933.500000 37.625313
933.500000 37.876567
933.500000 38.128656
933.500000 38.381582
933.500000 38.635344
933.500000 38.889942
933.500000 39.145376
933.500000 39.401646
933.500000 39.658752
933.500000 39.916695
933.500000 40.175473
933.500000 40.435088
933.500000 40.695539
933.500000 40.956826
933.500000 41.218949
933.500000 41.481908
933.500000 41.745703
933.500000 42.010334
933.500000 42.275802
933.500000 42.542106
933.500000 42.809245
933.500000 43.077221
933.500000 43.346033
933.500000 43.615681
933.500000 43.886165
933.500000 44.157486
933.500000 44.429642
933.500000 44.702635
933.500000 44.976463
933.500000 45.251128
933.500000 45.526629
933.500000 45.802966
933.500000 46.080139
933.500000 46.358148
933.500000 46.636994
933.500000 46.916675
933.500000 47.197193
933.500000 47.478547
933.500000 47.760736
933.500000 48.043762
933.500000 48.327625
933.500000 48.612323
933.500000 48.897857
933.500000 49.184227
933.500000 49.471434
933.500000 49.759477
933.500000 50.048355
933.500000 50.338070
933.500000 50.628621
933.500000 50.920009
933.500000 51.212232
933.500000 51.505291
933.500000 51.799187
933.500000 52.093918
933.500000 52.389486
933.500000 52.685890
933.500000 52.983130
933.500000 53.281206
933.500000 53.580118
933.500000 53.879867
933.500000 54.180451
933.500000 54.481872
933.500000 54.784128
933.500000 55.087221
933.500000 55.391150
933.500000 55.695915
933.500000 56.001516
933.500000 56.307953
933.500000 56.615227
933.500000 56.923336
933.500000 57.232282
933.500000 57.542064
933.500000 57.852682
933.500000 58.164136
933.500000 58.476426
933.500000 58.789552
933.500000 59.103514
933.500000 59.418313
933.500000 59.733947
933.500000 60.050418
933.500000 60.367725
933.500000 60.685868
933.500000 61.004847
933.500000 61.324662
933.500000 61.645313
933.500000 61.966801
933.500000 62.289124
933.500000 62.612284
933.500000 62.936279
933.500000 63.261111
933.500000 63.586779
933.500000 63.913283
933.500000 64.240624
933.500000 64.568800
933.500000 64.897812
933.500000 65.227661
933.500000 65.558346
933.500000 65.889867
933.500000 66.222223
933.500000 66.555417
933.500000 66.889446
933.500000 67.224311
933.500000 67.560012
933.500000 67.896550
933.500000 68.233924
933.500000 68.572133
933.500000 68.911179
933.500000 69.251061
933.500000 69.591779
933.500000 69.933334
933.500000 70.275724
933.500000 70.618950
933.500000 70.963013
933.500000 71.307912
933.500000 71.653646
933.500000 72.000217
933.500000 72.347624
933.500000 72.695868
933.500000 73.044947
933.500000 73.394862
933.500000 73.745614
933.500000 74.097202
933.500000 74.449625
933.500000 74.802885
933.500000 75.156981
933.500000 75.511913
933.500000 75.867682
933.500000 76.224286
933.500000 76.581726
933.500000 76.940003
933.500000 77.299116
933.500000 77.659064
933.500000 78.019849
933.500000 78.381471
933.500000 78.743928
933.500000 79.107221
933.500000 79.471350
933.500000 79.836316
933.500000 80.202118
933.500000 80.568755
933.500000 80.936229
933.500000 81.304539
933.500000 81.673685
933.500000 82.043668
933.500000 82.414486
933.500000 82.786141
933.500000 83.158631
933.500000 83.531958
933.500000 83.906121
933.500000 84.281120
933.500000 84.656955
933.500000 85.033626
933.500000 85.411133
933.500000 85.789477
933.500000 86.168656
933.500000 86.548672
933.500000 86.929524
933.500000 87.311212
933.500000 87.693736
933.500000 88.077096
933.500000 88.461292
933.500000 88.846324
933.500000 89.232193
933.500000 89.618897
933.500000 90.006438
933.500000 90.394815
933.500000 90.784028
933.500000 91.174077
933.500000 91.564962
933.500000 91.956684
933.500000 92.349241
933.500000 92.742634
933.500000 93.136864
933.500000 93.531930
933.500000 93.927832
933.500000 94.324570
933.500000 94.722144
933.500000 95.120554
933.500000 95.519801
933.500000 95.919883
933.500000 96.320802
933.500000 96.722557
933.500000 97.125147
933.500000 97.528574
933.500000 97.932837
933.500000 98.337937
933.500000 98.743872
933.500000 99.150643
933.500000 99.558251
933.500000 99.966695
933.500000 100.375974
933.500000 100.786090
933.500000 101.197042
933.500000 101.608831
933.500000 102.021455
933.500000 102.434915
933.500000 102.849212
933.500000 103.264344
933.500000 103.680313
933.500000 104.097118
933.500000 104.514759
933.500000 104.933236
933.500000 105.352549
933.500000 105.772699
933.500000 106.193684
933.500000 106.615506
933.500000 107.038163
933.500000 107.461657
933.500000 107.885987
933.500000 108.311153
933.500000 108.737155
933.500000 109.163993
933.500000 109.591668
933.500000 110.020178
933.500000 110.449525
933.500000 110.879708
933.500000 111.310727
933.500000 111.742582
933.500000 112.175273
933.500000 112.608800
933.500000 113.043163
933.500000 113.478363
933.500000 113.914398
933.500000 114.351270
933.500000 114.788978
933.500000 115.227522
933.500000 115.666902
933.500000 116.107118
933.500000 116.548170
933.500000 116.990059
933.500000 117.432783
933.500000 117.876344
933.500000 118.320740
933.500000 118.765973
933.500000 119.212042
933.500000 119.658947
933.500000 120.106689
933.500000 120.555266
933.500000 121.004679
933.500000 121.454929
933.500000 121.906015
933.500000 122.357937
933.500000 122.810695
933.500000 123.264289
933.500000 123.718719
933.500000 124.173985
933.500000 124.630087
933.500000 125.087026
933.500000 125.544801
933.500000 126.003411
933.500000 126.462858
933.500000 126.923141
933.500000 127.384260
933.500000 127.846216
933.500000 128.309007
933.500000 128.772634
933.500000 129.237098
933.500000 129.702398
933.500000 130.168534
933.500000 130.635505
933.500000 131.103314
933.500000 131.571958
933.500000 132.041438
933.500000 132.511754
933.500000 132.982907
933.500000 133.454896
933.500000 133.927720
933.500000 134.401381
933.500000 134.875878
933.500000 135.351211
933.500000 135.827381
933.500000 136.304386
933.500000 136.782227
933.500000 137.260905
933.500000 137.740419
933.500000 138.220769
933.500000 138.701955
933.500000 139.183977
933.500000 139.666835
933.500000 140.150529
933.500000 140.635060
933.500000 141.120426
933.500000 141.606629
933.500000 142.093668
933.500000 142.581542
933.500000 143.070253
933.500000 143.559801
933.500000 144.050184
933.500000 144.541403
933.500000 145.033459
933.500000 145.526350
933.500000 146.020078
933.500000 146.514642
933.500000 147.010042
933.500000 147.506278
933.500000 148.003350
933.500000 148.501258
933.500000 149.000003
933.500000 149.499583
933.500000 150.000000
</POINTS>
</NEKTAR>

