<?xml version="1.0" encoding="utf-8" ?>
<NEKTAR>
<POINTS DIM="2" FIELDS="">
31.500000 -2.000000
31.500000 -1.999576
31.500000 -1.998305
31.500000 -1.996187
31.500000 -1.993222
31.500000 -1.989409
31.500000 -1.984749
31.500000 -1.979242
31.500000 -1.972887
31.500000 -1.965686
31.500000 -1.957637
31.500000 -1.948740
31.500000 -1.938997
31.500000 -1.928406
31.500000 -1.916968
31.500000 -1.904683
31.500000 -1.891550
31.500000 -1.877570
31.500000 -1.862743
31.500000 -1.847068
31.500000 -1.830547
31.500000 -1.813178
31.500000 -1.794962
31.500000 -1.775898
31.500000 -1.755987
31.500000 -1.735229
31.500000 -1.713624
31.500000 -1.691171
31.500000 -1.667872
31.500000 -1.643725
31.500000 -1.618730
31.500000 -1.592889
31.500000 -1.566200
31.500000 -1.538663
31.500000 -1.510280
31.500000 -1.481049
31.500000 -1.450971
31.500000 -1.420046
31.500000 -1.388274
31.500000 -1.355654
31.500000 -1.322187
31.500000 -1.287873
31.500000 -1.252711
31.500000 -1.216702
31.500000 -1.179846
31.500000 -1.142143
31.500000 -1.103592
31.500000 -1.064194
31.500000 -1.023949
31.500000 -0.982857
31.500000 -0.940917
31.500000 -0.898130
31.500000 -0.854496
31.500000 -0.810014
31.500000 -0.764686
31.500000 -0.718510
31.500000 -0.671486
31.500000 -0.623616
31.500000 -0.574898
31.500000 -0.525333
31.500000 -0.474921
31.500000 -0.423661
31.500000 -0.371554
31.500000 -0.318600
31.500000 -0.264799
31.500000 -0.210150
31.500000 -0.154654
31.500000 -0.098311
31.500000 -0.041120
31.500000 0.016917
31.500000 0.075802
31.500000 0.135535
31.500000 0.196114
31.500000 0.257541
31.500000 0.319815
31.500000 0.382937
31.500000 0.446905
31.500000 0.511721
31.500000 0.577384
31.500000 0.643895
31.500000 0.711252
31.500000 0.779457
31.500000 0.848509
31.500000 0.918409
31.500000 0.989156
31.500000 1.060750
31.500000 1.133191
31.500000 1.206479
31.500000 1.280615
31.500000 1.355598
31.500000 1.431429
31.500000 1.508106
31.500000 1.585631
31.500000 1.664003
31.500000 1.743223
31.500000 1.823289
31.500000 1.904203
31.500000 1.985964
31.500000 2.068573
31.500000 2.152029
31.500000 2.236332
31.500000 2.321482
31.500000 2.407479
31.500000 2.494324
31.500000 2.582016
31.500000 2.670556
31.500000 2.759942
31.500000 2.850176
31.500000 2.941257
31.500000 3.033186
31.500000 3.125961
31.500000 3.219584
31.500000 3.314054
31.500000 3.409372
31.500000 3.505536
31.500000 3.602548
31.500000 3.700408
31.500000 3.799114
31.500000 3.898668
31.500000 3.999069
31.500000 4.100317
31.500000 4.202413
31.500000 4.305356
31.500000 4.409146
31.500000 4.513783
31.500000 4.619268
31.500000 4.725600
31.500000 4.832779
31.500000 4.940806
31.500000 5.049679
31.500000 5.159400
31.500000 5.269969
31.500000 5.381384
31.500000 5.493647
31.500000 5.606757
31.500000 5.720714
31.500000 5.835519
31.500000 5.951171
31.500000 6.067670
31.500000 6.185016
31.500000 6.303210
31.500000 6.422251
31.500000 6.542139
31.500000 6.662874
31.500000 6.784457
31.500000 6.906887
31.500000 7.030164
31.500000 7.154289
31.500000 7.279261
31.500000 7.405080
31.500000 7.531746
31.500000 7.659260
31.500000 7.787620
31.500000 7.916829
31.500000 8.046884
31.500000 8.177787
31.500000 8.309536
31.500000 8.442134
31.500000 8.575578
31.500000 8.709870
31.500000 8.845009
31.500000 8.980995
31.500000 9.117829
31.500000 9.255509
31.500000 9.394037
31.500000 9.533413
31.500000 9.673635
31.500000 9.814705
31.500000 9.956622
31.500000 10.099387
31.500000 10.242998
31.500000 10.387457
31.500000 10.532763
31.500000 10.678917
31.500000 10.825917
31.500000 10.973765
31.500000 11.122461
31.500000 11.272003
31.500000 11.422393
31.500000 11.573630
31.500000 11.725714
31.500000 11.878646
31.500000 12.032425
31.500000 12.187051
31.500000 12.342524
31.500000 12.498845
31.500000 12.656013
31.500000 12.814028
31.500000 12.972890
31.500000 13.132600
31.500000 13.293157
31.500000 13.454561
31.500000 13.616813
31.500000 13.779911
31.500000 13.943857
31.500000 14.108651
31.500000 14.274291
31.500000 14.440779
31.500000 14.608114
31.500000 14.776297
31.500000 14.945326
31.500000 15.115203
31.500000 15.285927
31.500000 15.457499
31.500000 15.629917
31.500000 15.803183
31.500000 15.977297
31.500000 16.152257
31.500000 16.328065
31.500000 16.504720
31.500000 16.682222
31.500000 16.860572
31.500000 17.039769
31.500000 17.219813
31.500000 17.400704
31.500000 17.582443
31.500000 17.765029
31.500000 17.948462
31.500000 18.132742
31.500000 18.317870
31.500000 18.503845
31.500000 18.690667
31.500000 18.878336
31.500000 19.066853
31.500000 19.256217
31.500000 19.446429
31.500000 19.637487
31.500000 19.829393
31.500000 20.022146
31.500000 20.215746
31.500000 20.410194
31.500000 20.605489
31.500000 20.801631
31.500000 20.998620
31.500000 21.196457
31.500000 21.395141
31.500000 21.594672
31.500000 21.795051
31.500000 21.996276
31.500000 22.198350
31.500000 22.401270
31.500000 22.605037
31.500000 22.809652
31.500000 23.015114
31.500000 23.221424
31.500000 23.428580
31.500000 23.636584
31.500000 23.845435
31.500000 24.055134
31.500000 24.265679
31.500000 24.477072
31.500000 24.689312
31.500000 24.902400
31.500000 25.116335
31.500000 25.331117
31.500000 25.546746
31.500000 25.763223
31.500000 25.980546
31.500000 26.198717
31.500000 26.417736
31.500000 26.637601
31.500000 26.858314
31.500000 27.079874
31.500000 27.302282
31.500000 27.525536
31.500000 27.749638
31.500000 27.974588
31.500000 28.200384
31.500000 28.427028
31.500000 28.654519
31.500000 28.882857
31.500000 29.112043
31.500000 29.342075
31.500000 29.572955
31.500000 29.804683
31.500000 30.037257
31.500000 30.270679
31.500000 30.504948
31.500000 30.740065
31.500000 30.976028
31.500000 31.212839
31.500000 31.450498
31.500000 31.689003
31.500000 31.928356
31.500000 32.168556
31.500000 32.409603
31.500000 32.651498
31.500000 32.894239
31.500000 33.137828
31.500000 33.382265
31.500000 33.627548
31.500000 33.873679
31.500000 34.120657
31.500000 34.368483
31.500000 34.617155
31.500000 34.866675
31.500000 35.117043
31.500000 35.368257
31.500000 35.620319
31.500000 35.873228
31.500000 36.126984
31.500000 36.381588
31.500000 36.637038
31.500000 36.893336
31.500000 37.150482
31.500000 37.408474
31.500000 37.667314
31.500000 37.927001
31.500000 38.187536
31.500000 38.448917
31.500000 38.711146
31.500000 38.974222
31.500000 39.238146
31.500000 39.502917
31.500000 39.768535
31.500000 40.035000
31.500000 40.302312
31.500000 40.570472
31.500000 40.839479
31.500000 41.109334
31.500000 41.380035
31.500000 41.651584
31.500000 41.923980
31.500000 42.197224
31.500000 42.471314
31.500000 42.746252
31.500000 43.022037
31.500000 43.298670
31.500000 43.576149
31.500000 43.854476
31.500000 44.133651
31.500000 44.413672
31.500000 44.694541
31.500000 44.976257
31.500000 45.258820
31.500000 45.542231
31.500000 45.826489
31.500000 46.111594
31.500000 46.397546
31.500000 46.684346
31.500000 46.971993
31.500000 47.260487
31.500000 47.549828
31.500000 47.840017
31.500000 48.131053
31.500000 48.422936
31.500000 48.715667
31.500000 49.009245
31.500000 49.303670
31.500000 49.598942
31.500000 49.895062
31.500000 50.192028
31.500000 50.489843
31.500000 50.788504
31.500000 51.088013
31.500000 51.388368
31.500000 51.689572
31.500000 51.991622
31.500000 52.294520
31.500000 52.598265
31.500000 52.902857
31.500000 53.208297
31.500000 53.514583
31.500000 53.821717
31.500000 54.129699
31.500000 54.438527
31.500000 54.748203
31.500000 55.058726
31.500000 55.370097
31.500000 55.682314
31.500000 55.995379
31.500000 56.309291
31.500000 56.624051
31.500000 56.939657
31.500000 57.256111
31.500000 57.573413
31.500000 57.891561
31.500000 58.210557
31.500000 58.530400
31.500000 58.851090
31.500000 59.172628
31.500000 59.495013
31.500000 59.818245
31.500000 60.142324
31.500000 60.467251
31.500000 60.793025
31.500000 61.119646
31.500000 61.447114
31.500000 61.775430
31.500000 62.104593
31.500000 62.434603
31.500000 62.765461
31.500000 63.097165
31.500000 63.429717
31.500000 63.763117
31.500000 64.097363
31.500000 64.432457
31.500000 64.768398
31.500000 65.105186
31.500000 65.442822
31.500000 65.781305
31.500000 66.120635
31.500000 66.460813
31.500000 66.801837
31.500000 67.143709
31.500000 67.486428
31.500000 67.829995
31.500000 68.174409
31.500000 68.519670
31.500000 68.865778
31.500000 69.212734
31.500000 69.560536
31.500000 69.909186
31.500000 70.258684
31.500000 70.609028
31.500000 70.960220
31.500000 71.312259
31.500000 71.665146
31.500000 72.018880
31.500000 72.373460
31.500000 72.728889
31.500000 73.085164
31.500000 73.442287
31.500000 73.800257
31.500000 74.159074
31.500000 74.518739
31.500000 74.879251
31.500000 75.240610
31.500000 75.602816
31.500000 75.965870
31.500000 76.329771
31.500000 76.694519
31.500000 77.060114
31.500000 77.426557
31.500000 77.793847
31.500000 78.161984
31.500000 78.530968
31.500000 78.900800
31.500000 79.271479
31.500000 79.643005
31.500000 80.015379
31.500000 80.388600
31.500000 80.762668
31.500000 81.137583
31.500000 81.513346
31.500000 81.889956
31.500000 82.267413
31.500000 82.645717
31.500000 83.024869
31.500000 83.404868
31.500000 83.785714
31.500000 84.167408
31.500000 84.549948
31.500000 84.933336
31.500000 85.317572
31.500000 85.702654
31.500000 86.088584
31.500000 86.475361
31.500000 86.862985
31.500000 87.251457
31.500000 87.640776
31.500000 88.030942
31.500000 88.421955
31.500000 88.813816
31.500000 89.206524
31.500000 89.600079
31.500000 89.994482
31.500000 90.389731
31.500000 90.785828
31.500000 91.182773
31.500000 91.580564
31.500000 91.979203
31.500000 92.378689
31.500000 92.779022
31.500000 93.180203
31.500000 93.582231
31.500000 93.985106
31.500000 94.388828
31.500000 94.793398
31.500000 95.198815
31.500000 95.605079
31.500000 96.012191
31.500000 96.420149
31.500000 96.828955
31.500000 97.238609
31.500000 97.649109
31.500000 98.060457
31.500000 98.472652
31.500000 98.885694
31.500000 99.299584
31.500000 99.714321
31.500000 100.129905
31.500000 100.546336
31.500000 100.963615
31.500000 101.381741
31.500000 101.800714
31.500000 102.220535
31.500000 102.641202
31.500000 103.062717
31.500000 103.485079
31.500000 103.908289
31.500000 104.332346
31.500000 104.757250
31.500000 105.183001
31.500000 105.609600
31.500000 106.037046
31.500000 106.465339
31.500000 106.894479
31.500000 107.324467
31.500000 107.755302
31.500000 108.186984
31.500000 108.619513
31.500000 109.052890
31.500000 109.487114
31.500000 109.922185
31.500000 110.358104
31.500000 110.794870
31.500000 111.232483
31.500000 111.670943
31.500000 112.110251
31.500000 112.550405
31.500000 112.991407
31.500000 113.433257
31.500000 113.875954
31.500000 114.319497
31.500000 114.763889
31.500000 115.209127
31.500000 115.655213
31.500000 116.102146
31.500000 116.549926
31.500000 116.998554
31.500000 117.448028
31.500000 117.898350
31.500000 118.349520
31.500000 118.801536
31.500000 119.254400
31.500000 119.708111
31.500000 120.162670
31.500000 120.618075
31.500000 121.074328
31.500000 121.531428
31.500000 121.989376
31.500000 122.448170
31.500000 122.907812
31.500000 123.368302
31.500000 123.829638
31.500000 124.291822
31.500000 124.754853
31.500000 125.218731
31.500000 125.683457
31.500000 126.149030
31.500000 126.615450
31.500000 127.082717
31.500000 127.550832
31.500000 128.019794
31.500000 128.489603
31.500000 128.960259
31.500000 129.431763
31.500000 129.904114
31.500000 130.377312
31.500000 130.851358
31.500000 131.326250
31.500000 131.801991
31.500000 132.278578
31.500000 132.756012
31.500000 133.234294
31.500000 133.713423
31.500000 134.193400
31.500000 134.674223
31.500000 135.155894
31.500000 135.638412
31.500000 136.121778
31.500000 136.605991
31.500000 137.091050
31.500000 137.576958
31.500000 138.063712
31.500000 138.551314
31.500000 139.039763
31.500000 139.529059
31.500000 140.019203
31.500000 140.510194
31.500000 141.002032
31.500000 141.494717
31.500000 141.988250
31.500000 142.482630
31.500000 142.977857
31.500000 143.473931
31.500000 143.970853
31.500000 144.468622
31.500000 144.967238
31.500000 145.466702
31.500000 145.967012
31.500000 146.468170
31.500000 146.970176
31.500000 147.473028
31.500000 147.976728
31.500000 148.481275
31.500000 148.986669
31.500000 149.492911
31.500000 150.000000
</POINTS>
</NEKTAR>

