<?xml version="1.0" encoding="utf-8" ?>
<NEKTAR>
<POINTS DIM="2" FIELDS="">
984.500000 0.000000
984.500000 0.000418
984.500000 0.001672
984.500000 0.003763
984.500000 0.006689
984.500000 0.010451
984.500000 0.015050
984.500000 0.020485
984.500000 0.026756
984.500000 0.033863
984.500000 0.041806
984.500000 0.050585
984.500000 0.060201
984.500000 0.070652
984.500000 0.081940
984.500000 0.094063
984.500000 0.107023
984.500000 0.120819
984.500000 0.135451
984.500000 0.150919
984.500000 0.167224
984.500000 0.184364
984.500000 0.202341
984.500000 0.221153
984.500000 0.240802
984.500000 0.261287
984.500000 0.282608
984.500000 0.304765
984.500000 0.327758
984.500000 0.351588
984.500000 0.376253
984.500000 0.401755
984.500000 0.428092
984.500000 0.455266
984.500000 0.483276
984.500000 0.512122
984.500000 0.541805
984.500000 0.572323
984.500000 0.603677
984.500000 0.635868
984.500000 0.668894
984.500000 0.702757
984.500000 0.737456
984.500000 0.772991
984.500000 0.809362
984.500000 0.846570
984.500000 0.884613
984.500000 0.923492
984.500000 0.963208
984.500000 1.003760
984.500000 1.045148
984.500000 1.087372
984.500000 1.130432
984.500000 1.174328
984.500000 1.219060
984.500000 1.264629
984.500000 1.311033
984.500000 1.358274
984.500000 1.406351
984.500000 1.455264
984.500000 1.505013
984.500000 1.555598
984.500000 1.607019
984.500000 1.659276
984.500000 1.712370
984.500000 1.766299
984.500000 1.821065
984.500000 1.876667
984.500000 1.933105
984.500000 1.990379
984.500000 2.048489
984.500000 2.107436
984.500000 2.167218
984.500000 2.227837
984.500000 2.289291
984.500000 2.351582
984.500000 2.414709
984.500000 2.478672
984.500000 2.543471
984.500000 2.609106
984.500000 2.675578
984.500000 2.742885
984.500000 2.811029
984.500000 2.880009
984.500000 2.949825
984.500000 3.020477
984.500000 3.091965
984.500000 3.164289
984.500000 3.237449
984.500000 3.311446
984.500000 3.386278
984.500000 3.461947
984.500000 3.538452
984.500000 3.615793
984.500000 3.693970
984.500000 3.772983
984.500000 3.852832
984.500000 3.933517
984.500000 4.015039
984.500000 4.097397
984.500000 4.180590
984.500000 4.264620
984.500000 4.349486
984.500000 4.435188
984.500000 4.521727
984.500000 4.609101
984.500000 4.697311
984.500000 4.786358
984.500000 4.876241
984.500000 4.966959
984.500000 5.058514
984.500000 5.150905
984.500000 5.244133
984.500000 5.338196
984.500000 5.433095
984.500000 5.528831
984.500000 5.625402
984.500000 5.722810
984.500000 5.821054
984.500000 5.920134
984.500000 6.020050
984.500000 6.120802
984.500000 6.222391
984.500000 6.324815
984.500000 6.428076
984.500000 6.532172
984.500000 6.637105
984.500000 6.742874
984.500000 6.849479
984.500000 6.956920
984.500000 7.065198
984.500000 7.174311
984.500000 7.284261
984.500000 7.395046
984.500000 7.506668
984.500000 7.619126
984.500000 7.732420
984.500000 7.846550
984.500000 7.961516
984.500000 8.077319
984.500000 8.193957
984.500000 8.311432
984.500000 8.429742
984.500000 8.548889
984.500000 8.668872
984.500000 8.789691
984.500000 8.911346
984.500000 9.033838
984.500000 9.157165
984.500000 9.281329
984.500000 9.406328
984.500000 9.532164
984.500000 9.658836
984.500000 9.786344
984.500000 9.914688
984.500000 10.043868
984.500000 10.173885
984.500000 10.304737
984.500000 10.436426
984.500000 10.568950
984.500000 10.702311
984.500000 10.836508
984.500000 10.971541
984.500000 11.107411
984.500000 11.244116
984.500000 11.381657
984.500000 11.520035
984.500000 11.659248
984.500000 11.799298
984.500000 11.940184
984.500000 12.081906
984.500000 12.224464
984.500000 12.367859
984.500000 12.512089
984.500000 12.657155
984.500000 12.803058
984.500000 12.949797
984.500000 13.097372
984.500000 13.245782
984.500000 13.395030
984.500000 13.545113
984.500000 13.696032
984.500000 13.847787
984.500000 14.000379
984.500000 14.153807
984.500000 14.308070
984.500000 14.463170
984.500000 14.619106
984.500000 14.775879
984.500000 14.933487
984.500000 15.091931
984.500000 15.251212
984.500000 15.411328
984.500000 15.572281
984.500000 15.734070
984.500000 15.896695
984.500000 16.060156
984.500000 16.224453
984.500000 16.389586
984.500000 16.555556
984.500000 16.722361
984.500000 16.890003
984.500000 17.058481
984.500000 17.227795
984.500000 17.397945
984.500000 17.568931
984.500000 17.740753
984.500000 17.913412
984.500000 18.086906
984.500000 18.261237
984.500000 18.436403
984.500000 18.612406
984.500000 18.789245
984.500000 18.966920
984.500000 19.145432
984.500000 19.324779
984.500000 19.504962
984.500000 19.685982
984.500000 19.867838
984.500000 20.050529
984.500000 20.234057
984.500000 20.418421
984.500000 20.603622
984.500000 20.789658
984.500000 20.976530
984.500000 21.164239
984.500000 21.352783
984.500000 21.542164
984.500000 21.732381
984.500000 21.923434
984.500000 22.115323
984.500000 22.308048
984.500000 22.501610
984.500000 22.696007
984.500000 22.891241
984.500000 23.087310
984.500000 23.284216
984.500000 23.481958
984.500000 23.680536
984.500000 23.879950
984.500000 24.080200
984.500000 24.281287
984.500000 24.483209
984.500000 24.685968
984.500000 24.889563
984.500000 25.093994
984.500000 25.299261
984.500000 25.505364
984.500000 25.712303
984.500000 25.920078
984.500000 26.128690
984.500000 26.338137
984.500000 26.548421
984.500000 26.759541
984.500000 26.971497
984.500000 27.184289
984.500000 27.397917
984.500000 27.612381
984.500000 27.827682
984.500000 28.043818
984.500000 28.260791
984.500000 28.478600
984.500000 28.697244
984.500000 28.916725
984.500000 29.137043
984.500000 29.358196
984.500000 29.580185
984.500000 29.803011
984.500000 30.026672
984.500000 30.251170
984.500000 30.476504
984.500000 30.702674
984.500000 30.929680
984.500000 31.157522
984.500000 31.386200
984.500000 31.615715
984.500000 31.846065
984.500000 32.077252
984.500000 32.309275
984.500000 32.542133
984.500000 32.775828
984.500000 33.010360
984.500000 33.245727
984.500000 33.481930
984.500000 33.718970
984.500000 33.956845
984.500000 34.195557
984.500000 34.435105
984.500000 34.675489
984.500000 34.916709
984.500000 35.158765
984.500000 35.401657
984.500000 35.645386
984.500000 35.889950
984.500000 36.135351
984.500000 36.381588
984.500000 36.628660
984.500000 36.876569
984.500000 37.125315
984.500000 37.374896
984.500000 37.625313
984.500000 37.876567
984.500000 38.128656
984.500000 38.381582
984.500000 38.635344
984.500000 38.889942
984.500000 39.145376
984.500000 39.401646
984.500000 39.658752
984.500000 39.916695
984.500000 40.175473
984.500000 40.435088
984.500000 40.695539
984.500000 40.956826
984.500000 41.218949
984.500000 41.481908
984.500000 41.745703
984.500000 42.010334
984.500000 42.275802
984.500000 42.542106
984.500000 42.809245
984.500000 43.077221
984.500000 43.346033
984.500000 43.615681
984.500000 43.886165
984.500000 44.157486
984.500000 44.429642
984.500000 44.702635
984.500000 44.976463
984.500000 45.251128
984.500000 45.526629
984.500000 45.802966
984.500000 46.080139
984.500000 46.358148
984.500000 46.636994
984.500000 46.916675
984.500000 47.197193
984.500000 47.478547
984.500000 47.760736
984.500000 48.043762
984.500000 48.327625
984.500000 48.612323
984.500000 48.897857
984.500000 49.184227
984.500000 49.471434
984.500000 49.759477
984.500000 50.048355
984.500000 50.338070
984.500000 50.628621
984.500000 50.920009
984.500000 51.212232
984.500000 51.505291
984.500000 51.799187
984.500000 52.093918
984.500000 52.389486
984.500000 52.685890
984.500000 52.983130
984.500000 53.281206
984.500000 53.580118
984.500000 53.879867
984.500000 54.180451
984.500000 54.481872
984.500000 54.784128
984.500000 55.087221
984.500000 55.391150
984.500000 55.695915
984.500000 56.001516
984.500000 56.307953
984.500000 56.615227
984.500000 56.923336
984.500000 57.232282
984.500000 57.542064
984.500000 57.852682
984.500000 58.164136
984.500000 58.476426
984.500000 58.789552
984.500000 59.103514
984.500000 59.418313
984.500000 59.733947
984.500000 60.050418
984.500000 60.367725
984.500000 60.685868
984.500000 61.004847
984.500000 61.324662
984.500000 61.645313
984.500000 61.966801
984.500000 62.289124
984.500000 62.612284
984.500000 62.936279
984.500000 63.261111
984.500000 63.586779
984.500000 63.913283
984.500000 64.240624
984.500000 64.568800
984.500000 64.897812
984.500000 65.227661
984.500000 65.558346
984.500000 65.889867
984.500000 66.222223
984.500000 66.555417
984.500000 66.889446
984.500000 67.224311
984.500000 67.560012
984.500000 67.896550
984.500000 68.233924
984.500000 68.572133
984.500000 68.911179
984.500000 69.251061
984.500000 69.591779
984.500000 69.933334
984.500000 70.275724
984.500000 70.618950
984.500000 70.963013
984.500000 71.307912
984.500000 71.653646
984.500000 72.000217
984.500000 72.347624
984.500000 72.695868
984.500000 73.044947
984.500000 73.394862
984.500000 73.745614
984.500000 74.097202
984.500000 74.449625
984.500000 74.802885
984.500000 75.156981
984.500000 75.511913
984.500000 75.867682
984.500000 76.224286
984.500000 76.581726
984.500000 76.940003
984.500000 77.299116
984.500000 77.659064
984.500000 78.019849
984.500000 78.381471
984.500000 78.743928
984.500000 79.107221
984.500000 79.471350
984.500000 79.836316
984.500000 80.202118
984.500000 80.568755
984.500000 80.936229
984.500000 81.304539
984.500000 81.673685
984.500000 82.043668
984.500000 82.414486
984.500000 82.786141
984.500000 83.158631
984.500000 83.531958
984.500000 83.906121
984.500000 84.281120
984.500000 84.656955
984.500000 85.033626
984.500000 85.411133
984.500000 85.789477
984.500000 86.168656
984.500000 86.548672
984.500000 86.929524
984.500000 87.311212
984.500000 87.693736
984.500000 88.077096
984.500000 88.461292
984.500000 88.846324
984.500000 89.232193
984.500000 89.618897
984.500000 90.006438
984.500000 90.394815
984.500000 90.784028
984.500000 91.174077
984.500000 91.564962
984.500000 91.956684
984.500000 92.349241
984.500000 92.742634
984.500000 93.136864
984.500000 93.531930
984.500000 93.927832
984.500000 94.324570
984.500000 94.722144
984.500000 95.120554
984.500000 95.519801
984.500000 95.919883
984.500000 96.320802
984.500000 96.722557
984.500000 97.125147
984.500000 97.528574
984.500000 97.932837
984.500000 98.337937
984.500000 98.743872
984.500000 99.150643
984.500000 99.558251
984.500000 99.966695
984.500000 100.375974
984.500000 100.786090
984.500000 101.197042
984.500000 101.608831
984.500000 102.021455
984.500000 102.434915
984.500000 102.849212
984.500000 103.264344
984.500000 103.680313
984.500000 104.097118
984.500000 104.514759
984.500000 104.933236
984.500000 105.352549
984.500000 105.772699
984.500000 106.193684
984.500000 106.615506
984.500000 107.038163
984.500000 107.461657
984.500000 107.885987
984.500000 108.311153
984.500000 108.737155
984.500000 109.163993
984.500000 109.591668
984.500000 110.020178
984.500000 110.449525
984.500000 110.879708
984.500000 111.310727
984.500000 111.742582
984.500000 112.175273
984.500000 112.608800
984.500000 113.043163
984.500000 113.478363
984.500000 113.914398
984.500000 114.351270
984.500000 114.788978
984.500000 115.227522
984.500000 115.666902
984.500000 116.107118
984.500000 116.548170
984.500000 116.990059
984.500000 117.432783
984.500000 117.876344
984.500000 118.320740
984.500000 118.765973
984.500000 119.212042
984.500000 119.658947
984.500000 120.106689
984.500000 120.555266
984.500000 121.004679
984.500000 121.454929
984.500000 121.906015
984.500000 122.357937
984.500000 122.810695
984.500000 123.264289
984.500000 123.718719
984.500000 124.173985
984.500000 124.630087
984.500000 125.087026
984.500000 125.544801
984.500000 126.003411
984.500000 126.462858
984.500000 126.923141
984.500000 127.384260
984.500000 127.846216
984.500000 128.309007
984.500000 128.772634
984.500000 129.237098
984.500000 129.702398
984.500000 130.168534
984.500000 130.635505
984.500000 131.103314
984.500000 131.571958
984.500000 132.041438
984.500000 132.511754
984.500000 132.982907
984.500000 133.454896
984.500000 133.927720
984.500000 134.401381
984.500000 134.875878
984.500000 135.351211
984.500000 135.827381
984.500000 136.304386
984.500000 136.782227
984.500000 137.260905
984.500000 137.740419
984.500000 138.220769
984.500000 138.701955
984.500000 139.183977
984.500000 139.666835
984.500000 140.150529
984.500000 140.635060
984.500000 141.120426
984.500000 141.606629
984.500000 142.093668
984.500000 142.581542
984.500000 143.070253
984.500000 143.559801
984.500000 144.050184
984.500000 144.541403
984.500000 145.033459
984.500000 145.526350
984.500000 146.020078
984.500000 146.514642
984.500000 147.010042
984.500000 147.506278
984.500000 148.003350
984.500000 148.501258
984.500000 149.000003
984.500000 149.499583
984.500000 150.000000
</POINTS>
</NEKTAR>

