<?xml version="1.0" encoding="utf-8" ?>
<NEKTAR>
<POINTS DIM="2" FIELDS="">
664.500000 0.000000
664.500000 0.000418
664.500000 0.001672
664.500000 0.003763
664.500000 0.006689
664.500000 0.010451
664.500000 0.015050
664.500000 0.020485
664.500000 0.026756
664.500000 0.033863
664.500000 0.041806
664.500000 0.050585
664.500000 0.060201
664.500000 0.070652
664.500000 0.081940
664.500000 0.094063
664.500000 0.107023
664.500000 0.120819
664.500000 0.135451
664.500000 0.150919
664.500000 0.167224
664.500000 0.184364
664.500000 0.202341
664.500000 0.221153
664.500000 0.240802
664.500000 0.261287
664.500000 0.282608
664.500000 0.304765
664.500000 0.327758
664.500000 0.351588
664.500000 0.376253
664.500000 0.401755
664.500000 0.428092
664.500000 0.455266
664.500000 0.483276
664.500000 0.512122
664.500000 0.541805
664.500000 0.572323
664.500000 0.603677
664.500000 0.635868
664.500000 0.668894
664.500000 0.702757
664.500000 0.737456
664.500000 0.772991
664.500000 0.809362
664.500000 0.846570
664.500000 0.884613
664.500000 0.923492
664.500000 0.963208
664.500000 1.003760
664.500000 1.045148
664.500000 1.087372
664.500000 1.130432
664.500000 1.174328
664.500000 1.219060
664.500000 1.264629
664.500000 1.311033
664.500000 1.358274
664.500000 1.406351
664.500000 1.455264
664.500000 1.505013
664.500000 1.555598
664.500000 1.607019
664.500000 1.659276
664.500000 1.712370
664.500000 1.766299
664.500000 1.821065
664.500000 1.876667
664.500000 1.933105
664.500000 1.990379
664.500000 2.048489
664.500000 2.107436
664.500000 2.167218
664.500000 2.227837
664.500000 2.289291
664.500000 2.351582
664.500000 2.414709
664.500000 2.478672
664.500000 2.543471
664.500000 2.609106
664.500000 2.675578
664.500000 2.742885
664.500000 2.811029
664.500000 2.880009
664.500000 2.949825
664.500000 3.020477
664.500000 3.091965
664.500000 3.164289
664.500000 3.237449
664.500000 3.311446
664.500000 3.386278
664.500000 3.461947
664.500000 3.538452
664.500000 3.615793
664.500000 3.693970
664.500000 3.772983
664.500000 3.852832
664.500000 3.933517
664.500000 4.015039
664.500000 4.097397
664.500000 4.180590
664.500000 4.264620
664.500000 4.349486
664.500000 4.435188
664.500000 4.521727
664.500000 4.609101
664.500000 4.697311
664.500000 4.786358
664.500000 4.876241
664.500000 4.966959
664.500000 5.058514
664.500000 5.150905
664.500000 5.244133
664.500000 5.338196
664.500000 5.433095
664.500000 5.528831
664.500000 5.625402
664.500000 5.722810
664.500000 5.821054
664.500000 5.920134
664.500000 6.020050
664.500000 6.120802
664.500000 6.222391
664.500000 6.324815
664.500000 6.428076
664.500000 6.532172
664.500000 6.637105
664.500000 6.742874
664.500000 6.849479
664.500000 6.956920
664.500000 7.065198
664.500000 7.174311
664.500000 7.284261
664.500000 7.395046
664.500000 7.506668
664.500000 7.619126
664.500000 7.732420
664.500000 7.846550
664.500000 7.961516
664.500000 8.077319
664.500000 8.193957
664.500000 8.311432
664.500000 8.429742
664.500000 8.548889
664.500000 8.668872
664.500000 8.789691
664.500000 8.911346
664.500000 9.033838
664.500000 9.157165
664.500000 9.281329
664.500000 9.406328
664.500000 9.532164
664.500000 9.658836
664.500000 9.786344
664.500000 9.914688
664.500000 10.043868
664.500000 10.173885
664.500000 10.304737
664.500000 10.436426
664.500000 10.568950
664.500000 10.702311
664.500000 10.836508
664.500000 10.971541
664.500000 11.107411
664.500000 11.244116
664.500000 11.381657
664.500000 11.520035
664.500000 11.659248
664.500000 11.799298
664.500000 11.940184
664.500000 12.081906
664.500000 12.224464
664.500000 12.367859
664.500000 12.512089
664.500000 12.657155
664.500000 12.803058
664.500000 12.949797
664.500000 13.097372
664.500000 13.245782
664.500000 13.395030
664.500000 13.545113
664.500000 13.696032
664.500000 13.847787
664.500000 14.000379
664.500000 14.153807
664.500000 14.308070
664.500000 14.463170
664.500000 14.619106
664.500000 14.775879
664.500000 14.933487
664.500000 15.091931
664.500000 15.251212
664.500000 15.411328
664.500000 15.572281
664.500000 15.734070
664.500000 15.896695
664.500000 16.060156
664.500000 16.224453
664.500000 16.389586
664.500000 16.555556
664.500000 16.722361
664.500000 16.890003
664.500000 17.058481
664.500000 17.227795
664.500000 17.397945
664.500000 17.568931
664.500000 17.740753
664.500000 17.913412
664.500000 18.086906
664.500000 18.261237
664.500000 18.436403
664.500000 18.612406
664.500000 18.789245
664.500000 18.966920
664.500000 19.145432
664.500000 19.324779
664.500000 19.504962
664.500000 19.685982
664.500000 19.867838
664.500000 20.050529
664.500000 20.234057
664.500000 20.418421
664.500000 20.603622
664.500000 20.789658
664.500000 20.976530
664.500000 21.164239
664.500000 21.352783
664.500000 21.542164
664.500000 21.732381
664.500000 21.923434
664.500000 22.115323
664.500000 22.308048
664.500000 22.501610
664.500000 22.696007
664.500000 22.891241
664.500000 23.087310
664.500000 23.284216
664.500000 23.481958
664.500000 23.680536
664.500000 23.879950
664.500000 24.080200
664.500000 24.281287
664.500000 24.483209
664.500000 24.685968
664.500000 24.889563
664.500000 25.093994
664.500000 25.299261
664.500000 25.505364
664.500000 25.712303
664.500000 25.920078
664.500000 26.128690
664.500000 26.338137
664.500000 26.548421
664.500000 26.759541
664.500000 26.971497
664.500000 27.184289
664.500000 27.397917
664.500000 27.612381
664.500000 27.827682
664.500000 28.043818
664.500000 28.260791
664.500000 28.478600
664.500000 28.697244
664.500000 28.916725
664.500000 29.137043
664.500000 29.358196
664.500000 29.580185
664.500000 29.803011
664.500000 30.026672
664.500000 30.251170
664.500000 30.476504
664.500000 30.702674
664.500000 30.929680
664.500000 31.157522
664.500000 31.386200
664.500000 31.615715
664.500000 31.846065
664.500000 32.077252
664.500000 32.309275
664.500000 32.542133
664.500000 32.775828
664.500000 33.010360
664.500000 33.245727
664.500000 33.481930
664.500000 33.718970
664.500000 33.956845
664.500000 34.195557
664.500000 34.435105
664.500000 34.675489
664.500000 34.916709
664.500000 35.158765
664.500000 35.401657
664.500000 35.645386
664.500000 35.889950
664.500000 36.135351
664.500000 36.381588
664.500000 36.628660
664.500000 36.876569
664.500000 37.125315
664.500000 37.374896
664.500000 37.625313
664.500000 37.876567
664.500000 38.128656
664.500000 38.381582
664.500000 38.635344
664.500000 38.889942
664.500000 39.145376
664.500000 39.401646
664.500000 39.658752
664.500000 39.916695
664.500000 40.175473
664.500000 40.435088
664.500000 40.695539
664.500000 40.956826
664.500000 41.218949
664.500000 41.481908
664.500000 41.745703
664.500000 42.010334
664.500000 42.275802
664.500000 42.542106
664.500000 42.809245
664.500000 43.077221
664.500000 43.346033
664.500000 43.615681
664.500000 43.886165
664.500000 44.157486
664.500000 44.429642
664.500000 44.702635
664.500000 44.976463
664.500000 45.251128
664.500000 45.526629
664.500000 45.802966
664.500000 46.080139
664.500000 46.358148
664.500000 46.636994
664.500000 46.916675
664.500000 47.197193
664.500000 47.478547
664.500000 47.760736
664.500000 48.043762
664.500000 48.327625
664.500000 48.612323
664.500000 48.897857
664.500000 49.184227
664.500000 49.471434
664.500000 49.759477
664.500000 50.048355
664.500000 50.338070
664.500000 50.628621
664.500000 50.920009
664.500000 51.212232
664.500000 51.505291
664.500000 51.799187
664.500000 52.093918
664.500000 52.389486
664.500000 52.685890
664.500000 52.983130
664.500000 53.281206
664.500000 53.580118
664.500000 53.879867
664.500000 54.180451
664.500000 54.481872
664.500000 54.784128
664.500000 55.087221
664.500000 55.391150
664.500000 55.695915
664.500000 56.001516
664.500000 56.307953
664.500000 56.615227
664.500000 56.923336
664.500000 57.232282
664.500000 57.542064
664.500000 57.852682
664.500000 58.164136
664.500000 58.476426
664.500000 58.789552
664.500000 59.103514
664.500000 59.418313
664.500000 59.733947
664.500000 60.050418
664.500000 60.367725
664.500000 60.685868
664.500000 61.004847
664.500000 61.324662
664.500000 61.645313
664.500000 61.966801
664.500000 62.289124
664.500000 62.612284
664.500000 62.936279
664.500000 63.261111
664.500000 63.586779
664.500000 63.913283
664.500000 64.240624
664.500000 64.568800
664.500000 64.897812
664.500000 65.227661
664.500000 65.558346
664.500000 65.889867
664.500000 66.222223
664.500000 66.555417
664.500000 66.889446
664.500000 67.224311
664.500000 67.560012
664.500000 67.896550
664.500000 68.233924
664.500000 68.572133
664.500000 68.911179
664.500000 69.251061
664.500000 69.591779
664.500000 69.933334
664.500000 70.275724
664.500000 70.618950
664.500000 70.963013
664.500000 71.307912
664.500000 71.653646
664.500000 72.000217
664.500000 72.347624
664.500000 72.695868
664.500000 73.044947
664.500000 73.394862
664.500000 73.745614
664.500000 74.097202
664.500000 74.449625
664.500000 74.802885
664.500000 75.156981
664.500000 75.511913
664.500000 75.867682
664.500000 76.224286
664.500000 76.581726
664.500000 76.940003
664.500000 77.299116
664.500000 77.659064
664.500000 78.019849
664.500000 78.381471
664.500000 78.743928
664.500000 79.107221
664.500000 79.471350
664.500000 79.836316
664.500000 80.202118
664.500000 80.568755
664.500000 80.936229
664.500000 81.304539
664.500000 81.673685
664.500000 82.043668
664.500000 82.414486
664.500000 82.786141
664.500000 83.158631
664.500000 83.531958
664.500000 83.906121
664.500000 84.281120
664.500000 84.656955
664.500000 85.033626
664.500000 85.411133
664.500000 85.789477
664.500000 86.168656
664.500000 86.548672
664.500000 86.929524
664.500000 87.311212
664.500000 87.693736
664.500000 88.077096
664.500000 88.461292
664.500000 88.846324
664.500000 89.232193
664.500000 89.618897
664.500000 90.006438
664.500000 90.394815
664.500000 90.784028
664.500000 91.174077
664.500000 91.564962
664.500000 91.956684
664.500000 92.349241
664.500000 92.742634
664.500000 93.136864
664.500000 93.531930
664.500000 93.927832
664.500000 94.324570
664.500000 94.722144
664.500000 95.120554
664.500000 95.519801
664.500000 95.919883
664.500000 96.320802
664.500000 96.722557
664.500000 97.125147
664.500000 97.528574
664.500000 97.932837
664.500000 98.337937
664.500000 98.743872
664.500000 99.150643
664.500000 99.558251
664.500000 99.966695
664.500000 100.375974
664.500000 100.786090
664.500000 101.197042
664.500000 101.608831
664.500000 102.021455
664.500000 102.434915
664.500000 102.849212
664.500000 103.264344
664.500000 103.680313
664.500000 104.097118
664.500000 104.514759
664.500000 104.933236
664.500000 105.352549
664.500000 105.772699
664.500000 106.193684
664.500000 106.615506
664.500000 107.038163
664.500000 107.461657
664.500000 107.885987
664.500000 108.311153
664.500000 108.737155
664.500000 109.163993
664.500000 109.591668
664.500000 110.020178
664.500000 110.449525
664.500000 110.879708
664.500000 111.310727
664.500000 111.742582
664.500000 112.175273
664.500000 112.608800
664.500000 113.043163
664.500000 113.478363
664.500000 113.914398
664.500000 114.351270
664.500000 114.788978
664.500000 115.227522
664.500000 115.666902
664.500000 116.107118
664.500000 116.548170
664.500000 116.990059
664.500000 117.432783
664.500000 117.876344
664.500000 118.320740
664.500000 118.765973
664.500000 119.212042
664.500000 119.658947
664.500000 120.106689
664.500000 120.555266
664.500000 121.004679
664.500000 121.454929
664.500000 121.906015
664.500000 122.357937
664.500000 122.810695
664.500000 123.264289
664.500000 123.718719
664.500000 124.173985
664.500000 124.630087
664.500000 125.087026
664.500000 125.544801
664.500000 126.003411
664.500000 126.462858
664.500000 126.923141
664.500000 127.384260
664.500000 127.846216
664.500000 128.309007
664.500000 128.772634
664.500000 129.237098
664.500000 129.702398
664.500000 130.168534
664.500000 130.635505
664.500000 131.103314
664.500000 131.571958
664.500000 132.041438
664.500000 132.511754
664.500000 132.982907
664.500000 133.454896
664.500000 133.927720
664.500000 134.401381
664.500000 134.875878
664.500000 135.351211
664.500000 135.827381
664.500000 136.304386
664.500000 136.782227
664.500000 137.260905
664.500000 137.740419
664.500000 138.220769
664.500000 138.701955
664.500000 139.183977
664.500000 139.666835
664.500000 140.150529
664.500000 140.635060
664.500000 141.120426
664.500000 141.606629
664.500000 142.093668
664.500000 142.581542
664.500000 143.070253
664.500000 143.559801
664.500000 144.050184
664.500000 144.541403
664.500000 145.033459
664.500000 145.526350
664.500000 146.020078
664.500000 146.514642
664.500000 147.010042
664.500000 147.506278
664.500000 148.003350
664.500000 148.501258
664.500000 149.000003
664.500000 149.499583
664.500000 150.000000
</POINTS>
</NEKTAR>

