<?xml version="1.0" encoding="utf-8" ?>
<NEKTAR>
<POINTS DIM="2" FIELDS="">
13.500000 -2.000000
13.500000 -1.999576
13.500000 -1.998305
13.500000 -1.996187
13.500000 -1.993222
13.500000 -1.989409
13.500000 -1.984749
13.500000 -1.979242
13.500000 -1.972887
13.500000 -1.965686
13.500000 -1.957637
13.500000 -1.948740
13.500000 -1.938997
13.500000 -1.928406
13.500000 -1.916968
13.500000 -1.904683
13.500000 -1.891550
13.500000 -1.877570
13.500000 -1.862743
13.500000 -1.847068
13.500000 -1.830547
13.500000 -1.813178
13.500000 -1.794962
13.500000 -1.775898
13.500000 -1.755987
13.500000 -1.735229
13.500000 -1.713624
13.500000 -1.691171
13.500000 -1.667872
13.500000 -1.643725
13.500000 -1.618730
13.500000 -1.592889
13.500000 -1.566200
13.500000 -1.538663
13.500000 -1.510280
13.500000 -1.481049
13.500000 -1.450971
13.500000 -1.420046
13.500000 -1.388274
13.500000 -1.355654
13.500000 -1.322187
13.500000 -1.287873
13.500000 -1.252711
13.500000 -1.216702
13.500000 -1.179846
13.500000 -1.142143
13.500000 -1.103592
13.500000 -1.064194
13.500000 -1.023949
13.500000 -0.982857
13.500000 -0.940917
13.500000 -0.898130
13.500000 -0.854496
13.500000 -0.810014
13.500000 -0.764686
13.500000 -0.718510
13.500000 -0.671486
13.500000 -0.623616
13.500000 -0.574898
13.500000 -0.525333
13.500000 -0.474921
13.500000 -0.423661
13.500000 -0.371554
13.500000 -0.318600
13.500000 -0.264799
13.500000 -0.210150
13.500000 -0.154654
13.500000 -0.098311
13.500000 -0.041120
13.500000 0.016917
13.500000 0.075802
13.500000 0.135535
13.500000 0.196114
13.500000 0.257541
13.500000 0.319815
13.500000 0.382937
13.500000 0.446905
13.500000 0.511721
13.500000 0.577384
13.500000 0.643895
13.500000 0.711252
13.500000 0.779457
13.500000 0.848509
13.500000 0.918409
13.500000 0.989156
13.500000 1.060750
13.500000 1.133191
13.500000 1.206479
13.500000 1.280615
13.500000 1.355598
13.500000 1.431429
13.500000 1.508106
13.500000 1.585631
13.500000 1.664003
13.500000 1.743223
13.500000 1.823289
13.500000 1.904203
13.500000 1.985964
13.500000 2.068573
13.500000 2.152029
13.500000 2.236332
13.500000 2.321482
13.500000 2.407479
13.500000 2.494324
13.500000 2.582016
13.500000 2.670556
13.500000 2.759942
13.500000 2.850176
13.500000 2.941257
13.500000 3.033186
13.500000 3.125961
13.500000 3.219584
13.500000 3.314054
13.500000 3.409372
13.500000 3.505536
13.500000 3.602548
13.500000 3.700408
13.500000 3.799114
13.500000 3.898668
13.500000 3.999069
13.500000 4.100317
13.500000 4.202413
13.500000 4.305356
13.500000 4.409146
13.500000 4.513783
13.500000 4.619268
13.500000 4.725600
13.500000 4.832779
13.500000 4.940806
13.500000 5.049679
13.500000 5.159400
13.500000 5.269969
13.500000 5.381384
13.500000 5.493647
13.500000 5.606757
13.500000 5.720714
13.500000 5.835519
13.500000 5.951171
13.500000 6.067670
13.500000 6.185016
13.500000 6.303210
13.500000 6.422251
13.500000 6.542139
13.500000 6.662874
13.500000 6.784457
13.500000 6.906887
13.500000 7.030164
13.500000 7.154289
13.500000 7.279261
13.500000 7.405080
13.500000 7.531746
13.500000 7.659260
13.500000 7.787620
13.500000 7.916829
13.500000 8.046884
13.500000 8.177787
13.500000 8.309536
13.500000 8.442134
13.500000 8.575578
13.500000 8.709870
13.500000 8.845009
13.500000 8.980995
13.500000 9.117829
13.500000 9.255509
13.500000 9.394037
13.500000 9.533413
13.500000 9.673635
13.500000 9.814705
13.500000 9.956622
13.500000 10.099387
13.500000 10.242998
13.500000 10.387457
13.500000 10.532763
13.500000 10.678917
13.500000 10.825917
13.500000 10.973765
13.500000 11.122461
13.500000 11.272003
13.500000 11.422393
13.500000 11.573630
13.500000 11.725714
13.500000 11.878646
13.500000 12.032425
13.500000 12.187051
13.500000 12.342524
13.500000 12.498845
13.500000 12.656013
13.500000 12.814028
13.500000 12.972890
13.500000 13.132600
13.500000 13.293157
13.500000 13.454561
13.500000 13.616813
13.500000 13.779911
13.500000 13.943857
13.500000 14.108651
13.500000 14.274291
13.500000 14.440779
13.500000 14.608114
13.500000 14.776297
13.500000 14.945326
13.500000 15.115203
13.500000 15.285927
13.500000 15.457499
13.500000 15.629917
13.500000 15.803183
13.500000 15.977297
13.500000 16.152257
13.500000 16.328065
13.500000 16.504720
13.500000 16.682222
13.500000 16.860572
13.500000 17.039769
13.500000 17.219813
13.500000 17.400704
13.500000 17.582443
13.500000 17.765029
13.500000 17.948462
13.500000 18.132742
13.500000 18.317870
13.500000 18.503845
13.500000 18.690667
13.500000 18.878336
13.500000 19.066853
13.500000 19.256217
13.500000 19.446429
13.500000 19.637487
13.500000 19.829393
13.500000 20.022146
13.500000 20.215746
13.500000 20.410194
13.500000 20.605489
13.500000 20.801631
13.500000 20.998620
13.500000 21.196457
13.500000 21.395141
13.500000 21.594672
13.500000 21.795051
13.500000 21.996276
13.500000 22.198350
13.500000 22.401270
13.500000 22.605037
13.500000 22.809652
13.500000 23.015114
13.500000 23.221424
13.500000 23.428580
13.500000 23.636584
13.500000 23.845435
13.500000 24.055134
13.500000 24.265679
13.500000 24.477072
13.500000 24.689312
13.500000 24.902400
13.500000 25.116335
13.500000 25.331117
13.500000 25.546746
13.500000 25.763223
13.500000 25.980546
13.500000 26.198717
13.500000 26.417736
13.500000 26.637601
13.500000 26.858314
13.500000 27.079874
13.500000 27.302282
13.500000 27.525536
13.500000 27.749638
13.500000 27.974588
13.500000 28.200384
13.500000 28.427028
13.500000 28.654519
13.500000 28.882857
13.500000 29.112043
13.500000 29.342075
13.500000 29.572955
13.500000 29.804683
13.500000 30.037257
13.500000 30.270679
13.500000 30.504948
13.500000 30.740065
13.500000 30.976028
13.500000 31.212839
13.500000 31.450498
13.500000 31.689003
13.500000 31.928356
13.500000 32.168556
13.500000 32.409603
13.500000 32.651498
13.500000 32.894239
13.500000 33.137828
13.500000 33.382265
13.500000 33.627548
13.500000 33.873679
13.500000 34.120657
13.500000 34.368483
13.500000 34.617155
13.500000 34.866675
13.500000 35.117043
13.500000 35.368257
13.500000 35.620319
13.500000 35.873228
13.500000 36.126984
13.500000 36.381588
13.500000 36.637038
13.500000 36.893336
13.500000 37.150482
13.500000 37.408474
13.500000 37.667314
13.500000 37.927001
13.500000 38.187536
13.500000 38.448917
13.500000 38.711146
13.500000 38.974222
13.500000 39.238146
13.500000 39.502917
13.500000 39.768535
13.500000 40.035000
13.500000 40.302312
13.500000 40.570472
13.500000 40.839479
13.500000 41.109334
13.500000 41.380035
13.500000 41.651584
13.500000 41.923980
13.500000 42.197224
13.500000 42.471314
13.500000 42.746252
13.500000 43.022037
13.500000 43.298670
13.500000 43.576149
13.500000 43.854476
13.500000 44.133651
13.500000 44.413672
13.500000 44.694541
13.500000 44.976257
13.500000 45.258820
13.500000 45.542231
13.500000 45.826489
13.500000 46.111594
13.500000 46.397546
13.500000 46.684346
13.500000 46.971993
13.500000 47.260487
13.500000 47.549828
13.500000 47.840017
13.500000 48.131053
13.500000 48.422936
13.500000 48.715667
13.500000 49.009245
13.500000 49.303670
13.500000 49.598942
13.500000 49.895062
13.500000 50.192028
13.500000 50.489843
13.500000 50.788504
13.500000 51.088013
13.500000 51.388368
13.500000 51.689572
13.500000 51.991622
13.500000 52.294520
13.500000 52.598265
13.500000 52.902857
13.500000 53.208297
13.500000 53.514583
13.500000 53.821717
13.500000 54.129699
13.500000 54.438527
13.500000 54.748203
13.500000 55.058726
13.500000 55.370097
13.500000 55.682314
13.500000 55.995379
13.500000 56.309291
13.500000 56.624051
13.500000 56.939657
13.500000 57.256111
13.500000 57.573413
13.500000 57.891561
13.500000 58.210557
13.500000 58.530400
13.500000 58.851090
13.500000 59.172628
13.500000 59.495013
13.500000 59.818245
13.500000 60.142324
13.500000 60.467251
13.500000 60.793025
13.500000 61.119646
13.500000 61.447114
13.500000 61.775430
13.500000 62.104593
13.500000 62.434603
13.500000 62.765461
13.500000 63.097165
13.500000 63.429717
13.500000 63.763117
13.500000 64.097363
13.500000 64.432457
13.500000 64.768398
13.500000 65.105186
13.500000 65.442822
13.500000 65.781305
13.500000 66.120635
13.500000 66.460813
13.500000 66.801837
13.500000 67.143709
13.500000 67.486428
13.500000 67.829995
13.500000 68.174409
13.500000 68.519670
13.500000 68.865778
13.500000 69.212734
13.500000 69.560536
13.500000 69.909186
13.500000 70.258684
13.500000 70.609028
13.500000 70.960220
13.500000 71.312259
13.500000 71.665146
13.500000 72.018880
13.500000 72.373460
13.500000 72.728889
13.500000 73.085164
13.500000 73.442287
13.500000 73.800257
13.500000 74.159074
13.500000 74.518739
13.500000 74.879251
13.500000 75.240610
13.500000 75.602816
13.500000 75.965870
13.500000 76.329771
13.500000 76.694519
13.500000 77.060114
13.500000 77.426557
13.500000 77.793847
13.500000 78.161984
13.500000 78.530968
13.500000 78.900800
13.500000 79.271479
13.500000 79.643005
13.500000 80.015379
13.500000 80.388600
13.500000 80.762668
13.500000 81.137583
13.500000 81.513346
13.500000 81.889956
13.500000 82.267413
13.500000 82.645717
13.500000 83.024869
13.500000 83.404868
13.500000 83.785714
13.500000 84.167408
13.500000 84.549948
13.500000 84.933336
13.500000 85.317572
13.500000 85.702654
13.500000 86.088584
13.500000 86.475361
13.500000 86.862985
13.500000 87.251457
13.500000 87.640776
13.500000 88.030942
13.500000 88.421955
13.500000 88.813816
13.500000 89.206524
13.500000 89.600079
13.500000 89.994482
13.500000 90.389731
13.500000 90.785828
13.500000 91.182773
13.500000 91.580564
13.500000 91.979203
13.500000 92.378689
13.500000 92.779022
13.500000 93.180203
13.500000 93.582231
13.500000 93.985106
13.500000 94.388828
13.500000 94.793398
13.500000 95.198815
13.500000 95.605079
13.500000 96.012191
13.500000 96.420149
13.500000 96.828955
13.500000 97.238609
13.500000 97.649109
13.500000 98.060457
13.500000 98.472652
13.500000 98.885694
13.500000 99.299584
13.500000 99.714321
13.500000 100.129905
13.500000 100.546336
13.500000 100.963615
13.500000 101.381741
13.500000 101.800714
13.500000 102.220535
13.500000 102.641202
13.500000 103.062717
13.500000 103.485079
13.500000 103.908289
13.500000 104.332346
13.500000 104.757250
13.500000 105.183001
13.500000 105.609600
13.500000 106.037046
13.500000 106.465339
13.500000 106.894479
13.500000 107.324467
13.500000 107.755302
13.500000 108.186984
13.500000 108.619513
13.500000 109.052890
13.500000 109.487114
13.500000 109.922185
13.500000 110.358104
13.500000 110.794870
13.500000 111.232483
13.500000 111.670943
13.500000 112.110251
13.500000 112.550405
13.500000 112.991407
13.500000 113.433257
13.500000 113.875954
13.500000 114.319497
13.500000 114.763889
13.500000 115.209127
13.500000 115.655213
13.500000 116.102146
13.500000 116.549926
13.500000 116.998554
13.500000 117.448028
13.500000 117.898350
13.500000 118.349520
13.500000 118.801536
13.500000 119.254400
13.500000 119.708111
13.500000 120.162670
13.500000 120.618075
13.500000 121.074328
13.500000 121.531428
13.500000 121.989376
13.500000 122.448170
13.500000 122.907812
13.500000 123.368302
13.500000 123.829638
13.500000 124.291822
13.500000 124.754853
13.500000 125.218731
13.500000 125.683457
13.500000 126.149030
13.500000 126.615450
13.500000 127.082717
13.500000 127.550832
13.500000 128.019794
13.500000 128.489603
13.500000 128.960259
13.500000 129.431763
13.500000 129.904114
13.500000 130.377312
13.500000 130.851358
13.500000 131.326250
13.500000 131.801991
13.500000 132.278578
13.500000 132.756012
13.500000 133.234294
13.500000 133.713423
13.500000 134.193400
13.500000 134.674223
13.500000 135.155894
13.500000 135.638412
13.500000 136.121778
13.500000 136.605991
13.500000 137.091050
13.500000 137.576958
13.500000 138.063712
13.500000 138.551314
13.500000 139.039763
13.500000 139.529059
13.500000 140.019203
13.500000 140.510194
13.500000 141.002032
13.500000 141.494717
13.500000 141.988250
13.500000 142.482630
13.500000 142.977857
13.500000 143.473931
13.500000 143.970853
13.500000 144.468622
13.500000 144.967238
13.500000 145.466702
13.500000 145.967012
13.500000 146.468170
13.500000 146.970176
13.500000 147.473028
13.500000 147.976728
13.500000 148.481275
13.500000 148.986669
13.500000 149.492911
13.500000 150.000000
</POINTS>
</NEKTAR>

