<?xml version="1.0" encoding="utf-8" ?>
<NEKTAR>
<POINTS DIM="2" FIELDS="">
644.500000 0.000000
644.500000 0.000418
644.500000 0.001672
644.500000 0.003763
644.500000 0.006689
644.500000 0.010451
644.500000 0.015050
644.500000 0.020485
644.500000 0.026756
644.500000 0.033863
644.500000 0.041806
644.500000 0.050585
644.500000 0.060201
644.500000 0.070652
644.500000 0.081940
644.500000 0.094063
644.500000 0.107023
644.500000 0.120819
644.500000 0.135451
644.500000 0.150919
644.500000 0.167224
644.500000 0.184364
644.500000 0.202341
644.500000 0.221153
644.500000 0.240802
644.500000 0.261287
644.500000 0.282608
644.500000 0.304765
644.500000 0.327758
644.500000 0.351588
644.500000 0.376253
644.500000 0.401755
644.500000 0.428092
644.500000 0.455266
644.500000 0.483276
644.500000 0.512122
644.500000 0.541805
644.500000 0.572323
644.500000 0.603677
644.500000 0.635868
644.500000 0.668894
644.500000 0.702757
644.500000 0.737456
644.500000 0.772991
644.500000 0.809362
644.500000 0.846570
644.500000 0.884613
644.500000 0.923492
644.500000 0.963208
644.500000 1.003760
644.500000 1.045148
644.500000 1.087372
644.500000 1.130432
644.500000 1.174328
644.500000 1.219060
644.500000 1.264629
644.500000 1.311033
644.500000 1.358274
644.500000 1.406351
644.500000 1.455264
644.500000 1.505013
644.500000 1.555598
644.500000 1.607019
644.500000 1.659276
644.500000 1.712370
644.500000 1.766299
644.500000 1.821065
644.500000 1.876667
644.500000 1.933105
644.500000 1.990379
644.500000 2.048489
644.500000 2.107436
644.500000 2.167218
644.500000 2.227837
644.500000 2.289291
644.500000 2.351582
644.500000 2.414709
644.500000 2.478672
644.500000 2.543471
644.500000 2.609106
644.500000 2.675578
644.500000 2.742885
644.500000 2.811029
644.500000 2.880009
644.500000 2.949825
644.500000 3.020477
644.500000 3.091965
644.500000 3.164289
644.500000 3.237449
644.500000 3.311446
644.500000 3.386278
644.500000 3.461947
644.500000 3.538452
644.500000 3.615793
644.500000 3.693970
644.500000 3.772983
644.500000 3.852832
644.500000 3.933517
644.500000 4.015039
644.500000 4.097397
644.500000 4.180590
644.500000 4.264620
644.500000 4.349486
644.500000 4.435188
644.500000 4.521727
644.500000 4.609101
644.500000 4.697311
644.500000 4.786358
644.500000 4.876241
644.500000 4.966959
644.500000 5.058514
644.500000 5.150905
644.500000 5.244133
644.500000 5.338196
644.500000 5.433095
644.500000 5.528831
644.500000 5.625402
644.500000 5.722810
644.500000 5.821054
644.500000 5.920134
644.500000 6.020050
644.500000 6.120802
644.500000 6.222391
644.500000 6.324815
644.500000 6.428076
644.500000 6.532172
644.500000 6.637105
644.500000 6.742874
644.500000 6.849479
644.500000 6.956920
644.500000 7.065198
644.500000 7.174311
644.500000 7.284261
644.500000 7.395046
644.500000 7.506668
644.500000 7.619126
644.500000 7.732420
644.500000 7.846550
644.500000 7.961516
644.500000 8.077319
644.500000 8.193957
644.500000 8.311432
644.500000 8.429742
644.500000 8.548889
644.500000 8.668872
644.500000 8.789691
644.500000 8.911346
644.500000 9.033838
644.500000 9.157165
644.500000 9.281329
644.500000 9.406328
644.500000 9.532164
644.500000 9.658836
644.500000 9.786344
644.500000 9.914688
644.500000 10.043868
644.500000 10.173885
644.500000 10.304737
644.500000 10.436426
644.500000 10.568950
644.500000 10.702311
644.500000 10.836508
644.500000 10.971541
644.500000 11.107411
644.500000 11.244116
644.500000 11.381657
644.500000 11.520035
644.500000 11.659248
644.500000 11.799298
644.500000 11.940184
644.500000 12.081906
644.500000 12.224464
644.500000 12.367859
644.500000 12.512089
644.500000 12.657155
644.500000 12.803058
644.500000 12.949797
644.500000 13.097372
644.500000 13.245782
644.500000 13.395030
644.500000 13.545113
644.500000 13.696032
644.500000 13.847787
644.500000 14.000379
644.500000 14.153807
644.500000 14.308070
644.500000 14.463170
644.500000 14.619106
644.500000 14.775879
644.500000 14.933487
644.500000 15.091931
644.500000 15.251212
644.500000 15.411328
644.500000 15.572281
644.500000 15.734070
644.500000 15.896695
644.500000 16.060156
644.500000 16.224453
644.500000 16.389586
644.500000 16.555556
644.500000 16.722361
644.500000 16.890003
644.500000 17.058481
644.500000 17.227795
644.500000 17.397945
644.500000 17.568931
644.500000 17.740753
644.500000 17.913412
644.500000 18.086906
644.500000 18.261237
644.500000 18.436403
644.500000 18.612406
644.500000 18.789245
644.500000 18.966920
644.500000 19.145432
644.500000 19.324779
644.500000 19.504962
644.500000 19.685982
644.500000 19.867838
644.500000 20.050529
644.500000 20.234057
644.500000 20.418421
644.500000 20.603622
644.500000 20.789658
644.500000 20.976530
644.500000 21.164239
644.500000 21.352783
644.500000 21.542164
644.500000 21.732381
644.500000 21.923434
644.500000 22.115323
644.500000 22.308048
644.500000 22.501610
644.500000 22.696007
644.500000 22.891241
644.500000 23.087310
644.500000 23.284216
644.500000 23.481958
644.500000 23.680536
644.500000 23.879950
644.500000 24.080200
644.500000 24.281287
644.500000 24.483209
644.500000 24.685968
644.500000 24.889563
644.500000 25.093994
644.500000 25.299261
644.500000 25.505364
644.500000 25.712303
644.500000 25.920078
644.500000 26.128690
644.500000 26.338137
644.500000 26.548421
644.500000 26.759541
644.500000 26.971497
644.500000 27.184289
644.500000 27.397917
644.500000 27.612381
644.500000 27.827682
644.500000 28.043818
644.500000 28.260791
644.500000 28.478600
644.500000 28.697244
644.500000 28.916725
644.500000 29.137043
644.500000 29.358196
644.500000 29.580185
644.500000 29.803011
644.500000 30.026672
644.500000 30.251170
644.500000 30.476504
644.500000 30.702674
644.500000 30.929680
644.500000 31.157522
644.500000 31.386200
644.500000 31.615715
644.500000 31.846065
644.500000 32.077252
644.500000 32.309275
644.500000 32.542133
644.500000 32.775828
644.500000 33.010360
644.500000 33.245727
644.500000 33.481930
644.500000 33.718970
644.500000 33.956845
644.500000 34.195557
644.500000 34.435105
644.500000 34.675489
644.500000 34.916709
644.500000 35.158765
644.500000 35.401657
644.500000 35.645386
644.500000 35.889950
644.500000 36.135351
644.500000 36.381588
644.500000 36.628660
644.500000 36.876569
644.500000 37.125315
644.500000 37.374896
644.500000 37.625313
644.500000 37.876567
644.500000 38.128656
644.500000 38.381582
644.500000 38.635344
644.500000 38.889942
644.500000 39.145376
644.500000 39.401646
644.500000 39.658752
644.500000 39.916695
644.500000 40.175473
644.500000 40.435088
644.500000 40.695539
644.500000 40.956826
644.500000 41.218949
644.500000 41.481908
644.500000 41.745703
644.500000 42.010334
644.500000 42.275802
644.500000 42.542106
644.500000 42.809245
644.500000 43.077221
644.500000 43.346033
644.500000 43.615681
644.500000 43.886165
644.500000 44.157486
644.500000 44.429642
644.500000 44.702635
644.500000 44.976463
644.500000 45.251128
644.500000 45.526629
644.500000 45.802966
644.500000 46.080139
644.500000 46.358148
644.500000 46.636994
644.500000 46.916675
644.500000 47.197193
644.500000 47.478547
644.500000 47.760736
644.500000 48.043762
644.500000 48.327625
644.500000 48.612323
644.500000 48.897857
644.500000 49.184227
644.500000 49.471434
644.500000 49.759477
644.500000 50.048355
644.500000 50.338070
644.500000 50.628621
644.500000 50.920009
644.500000 51.212232
644.500000 51.505291
644.500000 51.799187
644.500000 52.093918
644.500000 52.389486
644.500000 52.685890
644.500000 52.983130
644.500000 53.281206
644.500000 53.580118
644.500000 53.879867
644.500000 54.180451
644.500000 54.481872
644.500000 54.784128
644.500000 55.087221
644.500000 55.391150
644.500000 55.695915
644.500000 56.001516
644.500000 56.307953
644.500000 56.615227
644.500000 56.923336
644.500000 57.232282
644.500000 57.542064
644.500000 57.852682
644.500000 58.164136
644.500000 58.476426
644.500000 58.789552
644.500000 59.103514
644.500000 59.418313
644.500000 59.733947
644.500000 60.050418
644.500000 60.367725
644.500000 60.685868
644.500000 61.004847
644.500000 61.324662
644.500000 61.645313
644.500000 61.966801
644.500000 62.289124
644.500000 62.612284
644.500000 62.936279
644.500000 63.261111
644.500000 63.586779
644.500000 63.913283
644.500000 64.240624
644.500000 64.568800
644.500000 64.897812
644.500000 65.227661
644.500000 65.558346
644.500000 65.889867
644.500000 66.222223
644.500000 66.555417
644.500000 66.889446
644.500000 67.224311
644.500000 67.560012
644.500000 67.896550
644.500000 68.233924
644.500000 68.572133
644.500000 68.911179
644.500000 69.251061
644.500000 69.591779
644.500000 69.933334
644.500000 70.275724
644.500000 70.618950
644.500000 70.963013
644.500000 71.307912
644.500000 71.653646
644.500000 72.000217
644.500000 72.347624
644.500000 72.695868
644.500000 73.044947
644.500000 73.394862
644.500000 73.745614
644.500000 74.097202
644.500000 74.449625
644.500000 74.802885
644.500000 75.156981
644.500000 75.511913
644.500000 75.867682
644.500000 76.224286
644.500000 76.581726
644.500000 76.940003
644.500000 77.299116
644.500000 77.659064
644.500000 78.019849
644.500000 78.381471
644.500000 78.743928
644.500000 79.107221
644.500000 79.471350
644.500000 79.836316
644.500000 80.202118
644.500000 80.568755
644.500000 80.936229
644.500000 81.304539
644.500000 81.673685
644.500000 82.043668
644.500000 82.414486
644.500000 82.786141
644.500000 83.158631
644.500000 83.531958
644.500000 83.906121
644.500000 84.281120
644.500000 84.656955
644.500000 85.033626
644.500000 85.411133
644.500000 85.789477
644.500000 86.168656
644.500000 86.548672
644.500000 86.929524
644.500000 87.311212
644.500000 87.693736
644.500000 88.077096
644.500000 88.461292
644.500000 88.846324
644.500000 89.232193
644.500000 89.618897
644.500000 90.006438
644.500000 90.394815
644.500000 90.784028
644.500000 91.174077
644.500000 91.564962
644.500000 91.956684
644.500000 92.349241
644.500000 92.742634
644.500000 93.136864
644.500000 93.531930
644.500000 93.927832
644.500000 94.324570
644.500000 94.722144
644.500000 95.120554
644.500000 95.519801
644.500000 95.919883
644.500000 96.320802
644.500000 96.722557
644.500000 97.125147
644.500000 97.528574
644.500000 97.932837
644.500000 98.337937
644.500000 98.743872
644.500000 99.150643
644.500000 99.558251
644.500000 99.966695
644.500000 100.375974
644.500000 100.786090
644.500000 101.197042
644.500000 101.608831
644.500000 102.021455
644.500000 102.434915
644.500000 102.849212
644.500000 103.264344
644.500000 103.680313
644.500000 104.097118
644.500000 104.514759
644.500000 104.933236
644.500000 105.352549
644.500000 105.772699
644.500000 106.193684
644.500000 106.615506
644.500000 107.038163
644.500000 107.461657
644.500000 107.885987
644.500000 108.311153
644.500000 108.737155
644.500000 109.163993
644.500000 109.591668
644.500000 110.020178
644.500000 110.449525
644.500000 110.879708
644.500000 111.310727
644.500000 111.742582
644.500000 112.175273
644.500000 112.608800
644.500000 113.043163
644.500000 113.478363
644.500000 113.914398
644.500000 114.351270
644.500000 114.788978
644.500000 115.227522
644.500000 115.666902
644.500000 116.107118
644.500000 116.548170
644.500000 116.990059
644.500000 117.432783
644.500000 117.876344
644.500000 118.320740
644.500000 118.765973
644.500000 119.212042
644.500000 119.658947
644.500000 120.106689
644.500000 120.555266
644.500000 121.004679
644.500000 121.454929
644.500000 121.906015
644.500000 122.357937
644.500000 122.810695
644.500000 123.264289
644.500000 123.718719
644.500000 124.173985
644.500000 124.630087
644.500000 125.087026
644.500000 125.544801
644.500000 126.003411
644.500000 126.462858
644.500000 126.923141
644.500000 127.384260
644.500000 127.846216
644.500000 128.309007
644.500000 128.772634
644.500000 129.237098
644.500000 129.702398
644.500000 130.168534
644.500000 130.635505
644.500000 131.103314
644.500000 131.571958
644.500000 132.041438
644.500000 132.511754
644.500000 132.982907
644.500000 133.454896
644.500000 133.927720
644.500000 134.401381
644.500000 134.875878
644.500000 135.351211
644.500000 135.827381
644.500000 136.304386
644.500000 136.782227
644.500000 137.260905
644.500000 137.740419
644.500000 138.220769
644.500000 138.701955
644.500000 139.183977
644.500000 139.666835
644.500000 140.150529
644.500000 140.635060
644.500000 141.120426
644.500000 141.606629
644.500000 142.093668
644.500000 142.581542
644.500000 143.070253
644.500000 143.559801
644.500000 144.050184
644.500000 144.541403
644.500000 145.033459
644.500000 145.526350
644.500000 146.020078
644.500000 146.514642
644.500000 147.010042
644.500000 147.506278
644.500000 148.003350
644.500000 148.501258
644.500000 149.000003
644.500000 149.499583
644.500000 150.000000
</POINTS>
</NEKTAR>

