<?xml version="1.0" encoding="utf-8" ?>
<NEKTAR>
<POINTS DIM="2" FIELDS="">
544.500000 0.000000
544.500000 0.000418
544.500000 0.001672
544.500000 0.003763
544.500000 0.006689
544.500000 0.010451
544.500000 0.015050
544.500000 0.020485
544.500000 0.026756
544.500000 0.033863
544.500000 0.041806
544.500000 0.050585
544.500000 0.060201
544.500000 0.070652
544.500000 0.081940
544.500000 0.094063
544.500000 0.107023
544.500000 0.120819
544.500000 0.135451
544.500000 0.150919
544.500000 0.167224
544.500000 0.184364
544.500000 0.202341
544.500000 0.221153
544.500000 0.240802
544.500000 0.261287
544.500000 0.282608
544.500000 0.304765
544.500000 0.327758
544.500000 0.351588
544.500000 0.376253
544.500000 0.401755
544.500000 0.428092
544.500000 0.455266
544.500000 0.483276
544.500000 0.512122
544.500000 0.541805
544.500000 0.572323
544.500000 0.603677
544.500000 0.635868
544.500000 0.668894
544.500000 0.702757
544.500000 0.737456
544.500000 0.772991
544.500000 0.809362
544.500000 0.846570
544.500000 0.884613
544.500000 0.923492
544.500000 0.963208
544.500000 1.003760
544.500000 1.045148
544.500000 1.087372
544.500000 1.130432
544.500000 1.174328
544.500000 1.219060
544.500000 1.264629
544.500000 1.311033
544.500000 1.358274
544.500000 1.406351
544.500000 1.455264
544.500000 1.505013
544.500000 1.555598
544.500000 1.607019
544.500000 1.659276
544.500000 1.712370
544.500000 1.766299
544.500000 1.821065
544.500000 1.876667
544.500000 1.933105
544.500000 1.990379
544.500000 2.048489
544.500000 2.107436
544.500000 2.167218
544.500000 2.227837
544.500000 2.289291
544.500000 2.351582
544.500000 2.414709
544.500000 2.478672
544.500000 2.543471
544.500000 2.609106
544.500000 2.675578
544.500000 2.742885
544.500000 2.811029
544.500000 2.880009
544.500000 2.949825
544.500000 3.020477
544.500000 3.091965
544.500000 3.164289
544.500000 3.237449
544.500000 3.311446
544.500000 3.386278
544.500000 3.461947
544.500000 3.538452
544.500000 3.615793
544.500000 3.693970
544.500000 3.772983
544.500000 3.852832
544.500000 3.933517
544.500000 4.015039
544.500000 4.097397
544.500000 4.180590
544.500000 4.264620
544.500000 4.349486
544.500000 4.435188
544.500000 4.521727
544.500000 4.609101
544.500000 4.697311
544.500000 4.786358
544.500000 4.876241
544.500000 4.966959
544.500000 5.058514
544.500000 5.150905
544.500000 5.244133
544.500000 5.338196
544.500000 5.433095
544.500000 5.528831
544.500000 5.625402
544.500000 5.722810
544.500000 5.821054
544.500000 5.920134
544.500000 6.020050
544.500000 6.120802
544.500000 6.222391
544.500000 6.324815
544.500000 6.428076
544.500000 6.532172
544.500000 6.637105
544.500000 6.742874
544.500000 6.849479
544.500000 6.956920
544.500000 7.065198
544.500000 7.174311
544.500000 7.284261
544.500000 7.395046
544.500000 7.506668
544.500000 7.619126
544.500000 7.732420
544.500000 7.846550
544.500000 7.961516
544.500000 8.077319
544.500000 8.193957
544.500000 8.311432
544.500000 8.429742
544.500000 8.548889
544.500000 8.668872
544.500000 8.789691
544.500000 8.911346
544.500000 9.033838
544.500000 9.157165
544.500000 9.281329
544.500000 9.406328
544.500000 9.532164
544.500000 9.658836
544.500000 9.786344
544.500000 9.914688
544.500000 10.043868
544.500000 10.173885
544.500000 10.304737
544.500000 10.436426
544.500000 10.568950
544.500000 10.702311
544.500000 10.836508
544.500000 10.971541
544.500000 11.107411
544.500000 11.244116
544.500000 11.381657
544.500000 11.520035
544.500000 11.659248
544.500000 11.799298
544.500000 11.940184
544.500000 12.081906
544.500000 12.224464
544.500000 12.367859
544.500000 12.512089
544.500000 12.657155
544.500000 12.803058
544.500000 12.949797
544.500000 13.097372
544.500000 13.245782
544.500000 13.395030
544.500000 13.545113
544.500000 13.696032
544.500000 13.847787
544.500000 14.000379
544.500000 14.153807
544.500000 14.308070
544.500000 14.463170
544.500000 14.619106
544.500000 14.775879
544.500000 14.933487
544.500000 15.091931
544.500000 15.251212
544.500000 15.411328
544.500000 15.572281
544.500000 15.734070
544.500000 15.896695
544.500000 16.060156
544.500000 16.224453
544.500000 16.389586
544.500000 16.555556
544.500000 16.722361
544.500000 16.890003
544.500000 17.058481
544.500000 17.227795
544.500000 17.397945
544.500000 17.568931
544.500000 17.740753
544.500000 17.913412
544.500000 18.086906
544.500000 18.261237
544.500000 18.436403
544.500000 18.612406
544.500000 18.789245
544.500000 18.966920
544.500000 19.145432
544.500000 19.324779
544.500000 19.504962
544.500000 19.685982
544.500000 19.867838
544.500000 20.050529
544.500000 20.234057
544.500000 20.418421
544.500000 20.603622
544.500000 20.789658
544.500000 20.976530
544.500000 21.164239
544.500000 21.352783
544.500000 21.542164
544.500000 21.732381
544.500000 21.923434
544.500000 22.115323
544.500000 22.308048
544.500000 22.501610
544.500000 22.696007
544.500000 22.891241
544.500000 23.087310
544.500000 23.284216
544.500000 23.481958
544.500000 23.680536
544.500000 23.879950
544.500000 24.080200
544.500000 24.281287
544.500000 24.483209
544.500000 24.685968
544.500000 24.889563
544.500000 25.093994
544.500000 25.299261
544.500000 25.505364
544.500000 25.712303
544.500000 25.920078
544.500000 26.128690
544.500000 26.338137
544.500000 26.548421
544.500000 26.759541
544.500000 26.971497
544.500000 27.184289
544.500000 27.397917
544.500000 27.612381
544.500000 27.827682
544.500000 28.043818
544.500000 28.260791
544.500000 28.478600
544.500000 28.697244
544.500000 28.916725
544.500000 29.137043
544.500000 29.358196
544.500000 29.580185
544.500000 29.803011
544.500000 30.026672
544.500000 30.251170
544.500000 30.476504
544.500000 30.702674
544.500000 30.929680
544.500000 31.157522
544.500000 31.386200
544.500000 31.615715
544.500000 31.846065
544.500000 32.077252
544.500000 32.309275
544.500000 32.542133
544.500000 32.775828
544.500000 33.010360
544.500000 33.245727
544.500000 33.481930
544.500000 33.718970
544.500000 33.956845
544.500000 34.195557
544.500000 34.435105
544.500000 34.675489
544.500000 34.916709
544.500000 35.158765
544.500000 35.401657
544.500000 35.645386
544.500000 35.889950
544.500000 36.135351
544.500000 36.381588
544.500000 36.628660
544.500000 36.876569
544.500000 37.125315
544.500000 37.374896
544.500000 37.625313
544.500000 37.876567
544.500000 38.128656
544.500000 38.381582
544.500000 38.635344
544.500000 38.889942
544.500000 39.145376
544.500000 39.401646
544.500000 39.658752
544.500000 39.916695
544.500000 40.175473
544.500000 40.435088
544.500000 40.695539
544.500000 40.956826
544.500000 41.218949
544.500000 41.481908
544.500000 41.745703
544.500000 42.010334
544.500000 42.275802
544.500000 42.542106
544.500000 42.809245
544.500000 43.077221
544.500000 43.346033
544.500000 43.615681
544.500000 43.886165
544.500000 44.157486
544.500000 44.429642
544.500000 44.702635
544.500000 44.976463
544.500000 45.251128
544.500000 45.526629
544.500000 45.802966
544.500000 46.080139
544.500000 46.358148
544.500000 46.636994
544.500000 46.916675
544.500000 47.197193
544.500000 47.478547
544.500000 47.760736
544.500000 48.043762
544.500000 48.327625
544.500000 48.612323
544.500000 48.897857
544.500000 49.184227
544.500000 49.471434
544.500000 49.759477
544.500000 50.048355
544.500000 50.338070
544.500000 50.628621
544.500000 50.920009
544.500000 51.212232
544.500000 51.505291
544.500000 51.799187
544.500000 52.093918
544.500000 52.389486
544.500000 52.685890
544.500000 52.983130
544.500000 53.281206
544.500000 53.580118
544.500000 53.879867
544.500000 54.180451
544.500000 54.481872
544.500000 54.784128
544.500000 55.087221
544.500000 55.391150
544.500000 55.695915
544.500000 56.001516
544.500000 56.307953
544.500000 56.615227
544.500000 56.923336
544.500000 57.232282
544.500000 57.542064
544.500000 57.852682
544.500000 58.164136
544.500000 58.476426
544.500000 58.789552
544.500000 59.103514
544.500000 59.418313
544.500000 59.733947
544.500000 60.050418
544.500000 60.367725
544.500000 60.685868
544.500000 61.004847
544.500000 61.324662
544.500000 61.645313
544.500000 61.966801
544.500000 62.289124
544.500000 62.612284
544.500000 62.936279
544.500000 63.261111
544.500000 63.586779
544.500000 63.913283
544.500000 64.240624
544.500000 64.568800
544.500000 64.897812
544.500000 65.227661
544.500000 65.558346
544.500000 65.889867
544.500000 66.222223
544.500000 66.555417
544.500000 66.889446
544.500000 67.224311
544.500000 67.560012
544.500000 67.896550
544.500000 68.233924
544.500000 68.572133
544.500000 68.911179
544.500000 69.251061
544.500000 69.591779
544.500000 69.933334
544.500000 70.275724
544.500000 70.618950
544.500000 70.963013
544.500000 71.307912
544.500000 71.653646
544.500000 72.000217
544.500000 72.347624
544.500000 72.695868
544.500000 73.044947
544.500000 73.394862
544.500000 73.745614
544.500000 74.097202
544.500000 74.449625
544.500000 74.802885
544.500000 75.156981
544.500000 75.511913
544.500000 75.867682
544.500000 76.224286
544.500000 76.581726
544.500000 76.940003
544.500000 77.299116
544.500000 77.659064
544.500000 78.019849
544.500000 78.381471
544.500000 78.743928
544.500000 79.107221
544.500000 79.471350
544.500000 79.836316
544.500000 80.202118
544.500000 80.568755
544.500000 80.936229
544.500000 81.304539
544.500000 81.673685
544.500000 82.043668
544.500000 82.414486
544.500000 82.786141
544.500000 83.158631
544.500000 83.531958
544.500000 83.906121
544.500000 84.281120
544.500000 84.656955
544.500000 85.033626
544.500000 85.411133
544.500000 85.789477
544.500000 86.168656
544.500000 86.548672
544.500000 86.929524
544.500000 87.311212
544.500000 87.693736
544.500000 88.077096
544.500000 88.461292
544.500000 88.846324
544.500000 89.232193
544.500000 89.618897
544.500000 90.006438
544.500000 90.394815
544.500000 90.784028
544.500000 91.174077
544.500000 91.564962
544.500000 91.956684
544.500000 92.349241
544.500000 92.742634
544.500000 93.136864
544.500000 93.531930
544.500000 93.927832
544.500000 94.324570
544.500000 94.722144
544.500000 95.120554
544.500000 95.519801
544.500000 95.919883
544.500000 96.320802
544.500000 96.722557
544.500000 97.125147
544.500000 97.528574
544.500000 97.932837
544.500000 98.337937
544.500000 98.743872
544.500000 99.150643
544.500000 99.558251
544.500000 99.966695
544.500000 100.375974
544.500000 100.786090
544.500000 101.197042
544.500000 101.608831
544.500000 102.021455
544.500000 102.434915
544.500000 102.849212
544.500000 103.264344
544.500000 103.680313
544.500000 104.097118
544.500000 104.514759
544.500000 104.933236
544.500000 105.352549
544.500000 105.772699
544.500000 106.193684
544.500000 106.615506
544.500000 107.038163
544.500000 107.461657
544.500000 107.885987
544.500000 108.311153
544.500000 108.737155
544.500000 109.163993
544.500000 109.591668
544.500000 110.020178
544.500000 110.449525
544.500000 110.879708
544.500000 111.310727
544.500000 111.742582
544.500000 112.175273
544.500000 112.608800
544.500000 113.043163
544.500000 113.478363
544.500000 113.914398
544.500000 114.351270
544.500000 114.788978
544.500000 115.227522
544.500000 115.666902
544.500000 116.107118
544.500000 116.548170
544.500000 116.990059
544.500000 117.432783
544.500000 117.876344
544.500000 118.320740
544.500000 118.765973
544.500000 119.212042
544.500000 119.658947
544.500000 120.106689
544.500000 120.555266
544.500000 121.004679
544.500000 121.454929
544.500000 121.906015
544.500000 122.357937
544.500000 122.810695
544.500000 123.264289
544.500000 123.718719
544.500000 124.173985
544.500000 124.630087
544.500000 125.087026
544.500000 125.544801
544.500000 126.003411
544.500000 126.462858
544.500000 126.923141
544.500000 127.384260
544.500000 127.846216
544.500000 128.309007
544.500000 128.772634
544.500000 129.237098
544.500000 129.702398
544.500000 130.168534
544.500000 130.635505
544.500000 131.103314
544.500000 131.571958
544.500000 132.041438
544.500000 132.511754
544.500000 132.982907
544.500000 133.454896
544.500000 133.927720
544.500000 134.401381
544.500000 134.875878
544.500000 135.351211
544.500000 135.827381
544.500000 136.304386
544.500000 136.782227
544.500000 137.260905
544.500000 137.740419
544.500000 138.220769
544.500000 138.701955
544.500000 139.183977
544.500000 139.666835
544.500000 140.150529
544.500000 140.635060
544.500000 141.120426
544.500000 141.606629
544.500000 142.093668
544.500000 142.581542
544.500000 143.070253
544.500000 143.559801
544.500000 144.050184
544.500000 144.541403
544.500000 145.033459
544.500000 145.526350
544.500000 146.020078
544.500000 146.514642
544.500000 147.010042
544.500000 147.506278
544.500000 148.003350
544.500000 148.501258
544.500000 149.000003
544.500000 149.499583
544.500000 150.000000
</POINTS>
</NEKTAR>

