<?xml version="1.0" encoding="utf-8" ?>
<NEKTAR>
<POINTS DIM="2" FIELDS="">
28.500000 -2.000000
28.500000 -1.999576
28.500000 -1.998305
28.500000 -1.996187
28.500000 -1.993222
28.500000 -1.989409
28.500000 -1.984749
28.500000 -1.979242
28.500000 -1.972887
28.500000 -1.965686
28.500000 -1.957637
28.500000 -1.948740
28.500000 -1.938997
28.500000 -1.928406
28.500000 -1.916968
28.500000 -1.904683
28.500000 -1.891550
28.500000 -1.877570
28.500000 -1.862743
28.500000 -1.847068
28.500000 -1.830547
28.500000 -1.813178
28.500000 -1.794962
28.500000 -1.775898
28.500000 -1.755987
28.500000 -1.735229
28.500000 -1.713624
28.500000 -1.691171
28.500000 -1.667872
28.500000 -1.643725
28.500000 -1.618730
28.500000 -1.592889
28.500000 -1.566200
28.500000 -1.538663
28.500000 -1.510280
28.500000 -1.481049
28.500000 -1.450971
28.500000 -1.420046
28.500000 -1.388274
28.500000 -1.355654
28.500000 -1.322187
28.500000 -1.287873
28.500000 -1.252711
28.500000 -1.216702
28.500000 -1.179846
28.500000 -1.142143
28.500000 -1.103592
28.500000 -1.064194
28.500000 -1.023949
28.500000 -0.982857
28.500000 -0.940917
28.500000 -0.898130
28.500000 -0.854496
28.500000 -0.810014
28.500000 -0.764686
28.500000 -0.718510
28.500000 -0.671486
28.500000 -0.623616
28.500000 -0.574898
28.500000 -0.525333
28.500000 -0.474921
28.500000 -0.423661
28.500000 -0.371554
28.500000 -0.318600
28.500000 -0.264799
28.500000 -0.210150
28.500000 -0.154654
28.500000 -0.098311
28.500000 -0.041120
28.500000 0.016917
28.500000 0.075802
28.500000 0.135535
28.500000 0.196114
28.500000 0.257541
28.500000 0.319815
28.500000 0.382937
28.500000 0.446905
28.500000 0.511721
28.500000 0.577384
28.500000 0.643895
28.500000 0.711252
28.500000 0.779457
28.500000 0.848509
28.500000 0.918409
28.500000 0.989156
28.500000 1.060750
28.500000 1.133191
28.500000 1.206479
28.500000 1.280615
28.500000 1.355598
28.500000 1.431429
28.500000 1.508106
28.500000 1.585631
28.500000 1.664003
28.500000 1.743223
28.500000 1.823289
28.500000 1.904203
28.500000 1.985964
28.500000 2.068573
28.500000 2.152029
28.500000 2.236332
28.500000 2.321482
28.500000 2.407479
28.500000 2.494324
28.500000 2.582016
28.500000 2.670556
28.500000 2.759942
28.500000 2.850176
28.500000 2.941257
28.500000 3.033186
28.500000 3.125961
28.500000 3.219584
28.500000 3.314054
28.500000 3.409372
28.500000 3.505536
28.500000 3.602548
28.500000 3.700408
28.500000 3.799114
28.500000 3.898668
28.500000 3.999069
28.500000 4.100317
28.500000 4.202413
28.500000 4.305356
28.500000 4.409146
28.500000 4.513783
28.500000 4.619268
28.500000 4.725600
28.500000 4.832779
28.500000 4.940806
28.500000 5.049679
28.500000 5.159400
28.500000 5.269969
28.500000 5.381384
28.500000 5.493647
28.500000 5.606757
28.500000 5.720714
28.500000 5.835519
28.500000 5.951171
28.500000 6.067670
28.500000 6.185016
28.500000 6.303210
28.500000 6.422251
28.500000 6.542139
28.500000 6.662874
28.500000 6.784457
28.500000 6.906887
28.500000 7.030164
28.500000 7.154289
28.500000 7.279261
28.500000 7.405080
28.500000 7.531746
28.500000 7.659260
28.500000 7.787620
28.500000 7.916829
28.500000 8.046884
28.500000 8.177787
28.500000 8.309536
28.500000 8.442134
28.500000 8.575578
28.500000 8.709870
28.500000 8.845009
28.500000 8.980995
28.500000 9.117829
28.500000 9.255509
28.500000 9.394037
28.500000 9.533413
28.500000 9.673635
28.500000 9.814705
28.500000 9.956622
28.500000 10.099387
28.500000 10.242998
28.500000 10.387457
28.500000 10.532763
28.500000 10.678917
28.500000 10.825917
28.500000 10.973765
28.500000 11.122461
28.500000 11.272003
28.500000 11.422393
28.500000 11.573630
28.500000 11.725714
28.500000 11.878646
28.500000 12.032425
28.500000 12.187051
28.500000 12.342524
28.500000 12.498845
28.500000 12.656013
28.500000 12.814028
28.500000 12.972890
28.500000 13.132600
28.500000 13.293157
28.500000 13.454561
28.500000 13.616813
28.500000 13.779911
28.500000 13.943857
28.500000 14.108651
28.500000 14.274291
28.500000 14.440779
28.500000 14.608114
28.500000 14.776297
28.500000 14.945326
28.500000 15.115203
28.500000 15.285927
28.500000 15.457499
28.500000 15.629917
28.500000 15.803183
28.500000 15.977297
28.500000 16.152257
28.500000 16.328065
28.500000 16.504720
28.500000 16.682222
28.500000 16.860572
28.500000 17.039769
28.500000 17.219813
28.500000 17.400704
28.500000 17.582443
28.500000 17.765029
28.500000 17.948462
28.500000 18.132742
28.500000 18.317870
28.500000 18.503845
28.500000 18.690667
28.500000 18.878336
28.500000 19.066853
28.500000 19.256217
28.500000 19.446429
28.500000 19.637487
28.500000 19.829393
28.500000 20.022146
28.500000 20.215746
28.500000 20.410194
28.500000 20.605489
28.500000 20.801631
28.500000 20.998620
28.500000 21.196457
28.500000 21.395141
28.500000 21.594672
28.500000 21.795051
28.500000 21.996276
28.500000 22.198350
28.500000 22.401270
28.500000 22.605037
28.500000 22.809652
28.500000 23.015114
28.500000 23.221424
28.500000 23.428580
28.500000 23.636584
28.500000 23.845435
28.500000 24.055134
28.500000 24.265679
28.500000 24.477072
28.500000 24.689312
28.500000 24.902400
28.500000 25.116335
28.500000 25.331117
28.500000 25.546746
28.500000 25.763223
28.500000 25.980546
28.500000 26.198717
28.500000 26.417736
28.500000 26.637601
28.500000 26.858314
28.500000 27.079874
28.500000 27.302282
28.500000 27.525536
28.500000 27.749638
28.500000 27.974588
28.500000 28.200384
28.500000 28.427028
28.500000 28.654519
28.500000 28.882857
28.500000 29.112043
28.500000 29.342075
28.500000 29.572955
28.500000 29.804683
28.500000 30.037257
28.500000 30.270679
28.500000 30.504948
28.500000 30.740065
28.500000 30.976028
28.500000 31.212839
28.500000 31.450498
28.500000 31.689003
28.500000 31.928356
28.500000 32.168556
28.500000 32.409603
28.500000 32.651498
28.500000 32.894239
28.500000 33.137828
28.500000 33.382265
28.500000 33.627548
28.500000 33.873679
28.500000 34.120657
28.500000 34.368483
28.500000 34.617155
28.500000 34.866675
28.500000 35.117043
28.500000 35.368257
28.500000 35.620319
28.500000 35.873228
28.500000 36.126984
28.500000 36.381588
28.500000 36.637038
28.500000 36.893336
28.500000 37.150482
28.500000 37.408474
28.500000 37.667314
28.500000 37.927001
28.500000 38.187536
28.500000 38.448917
28.500000 38.711146
28.500000 38.974222
28.500000 39.238146
28.500000 39.502917
28.500000 39.768535
28.500000 40.035000
28.500000 40.302312
28.500000 40.570472
28.500000 40.839479
28.500000 41.109334
28.500000 41.380035
28.500000 41.651584
28.500000 41.923980
28.500000 42.197224
28.500000 42.471314
28.500000 42.746252
28.500000 43.022037
28.500000 43.298670
28.500000 43.576149
28.500000 43.854476
28.500000 44.133651
28.500000 44.413672
28.500000 44.694541
28.500000 44.976257
28.500000 45.258820
28.500000 45.542231
28.500000 45.826489
28.500000 46.111594
28.500000 46.397546
28.500000 46.684346
28.500000 46.971993
28.500000 47.260487
28.500000 47.549828
28.500000 47.840017
28.500000 48.131053
28.500000 48.422936
28.500000 48.715667
28.500000 49.009245
28.500000 49.303670
28.500000 49.598942
28.500000 49.895062
28.500000 50.192028
28.500000 50.489843
28.500000 50.788504
28.500000 51.088013
28.500000 51.388368
28.500000 51.689572
28.500000 51.991622
28.500000 52.294520
28.500000 52.598265
28.500000 52.902857
28.500000 53.208297
28.500000 53.514583
28.500000 53.821717
28.500000 54.129699
28.500000 54.438527
28.500000 54.748203
28.500000 55.058726
28.500000 55.370097
28.500000 55.682314
28.500000 55.995379
28.500000 56.309291
28.500000 56.624051
28.500000 56.939657
28.500000 57.256111
28.500000 57.573413
28.500000 57.891561
28.500000 58.210557
28.500000 58.530400
28.500000 58.851090
28.500000 59.172628
28.500000 59.495013
28.500000 59.818245
28.500000 60.142324
28.500000 60.467251
28.500000 60.793025
28.500000 61.119646
28.500000 61.447114
28.500000 61.775430
28.500000 62.104593
28.500000 62.434603
28.500000 62.765461
28.500000 63.097165
28.500000 63.429717
28.500000 63.763117
28.500000 64.097363
28.500000 64.432457
28.500000 64.768398
28.500000 65.105186
28.500000 65.442822
28.500000 65.781305
28.500000 66.120635
28.500000 66.460813
28.500000 66.801837
28.500000 67.143709
28.500000 67.486428
28.500000 67.829995
28.500000 68.174409
28.500000 68.519670
28.500000 68.865778
28.500000 69.212734
28.500000 69.560536
28.500000 69.909186
28.500000 70.258684
28.500000 70.609028
28.500000 70.960220
28.500000 71.312259
28.500000 71.665146
28.500000 72.018880
28.500000 72.373460
28.500000 72.728889
28.500000 73.085164
28.500000 73.442287
28.500000 73.800257
28.500000 74.159074
28.500000 74.518739
28.500000 74.879251
28.500000 75.240610
28.500000 75.602816
28.500000 75.965870
28.500000 76.329771
28.500000 76.694519
28.500000 77.060114
28.500000 77.426557
28.500000 77.793847
28.500000 78.161984
28.500000 78.530968
28.500000 78.900800
28.500000 79.271479
28.500000 79.643005
28.500000 80.015379
28.500000 80.388600
28.500000 80.762668
28.500000 81.137583
28.500000 81.513346
28.500000 81.889956
28.500000 82.267413
28.500000 82.645717
28.500000 83.024869
28.500000 83.404868
28.500000 83.785714
28.500000 84.167408
28.500000 84.549948
28.500000 84.933336
28.500000 85.317572
28.500000 85.702654
28.500000 86.088584
28.500000 86.475361
28.500000 86.862985
28.500000 87.251457
28.500000 87.640776
28.500000 88.030942
28.500000 88.421955
28.500000 88.813816
28.500000 89.206524
28.500000 89.600079
28.500000 89.994482
28.500000 90.389731
28.500000 90.785828
28.500000 91.182773
28.500000 91.580564
28.500000 91.979203
28.500000 92.378689
28.500000 92.779022
28.500000 93.180203
28.500000 93.582231
28.500000 93.985106
28.500000 94.388828
28.500000 94.793398
28.500000 95.198815
28.500000 95.605079
28.500000 96.012191
28.500000 96.420149
28.500000 96.828955
28.500000 97.238609
28.500000 97.649109
28.500000 98.060457
28.500000 98.472652
28.500000 98.885694
28.500000 99.299584
28.500000 99.714321
28.500000 100.129905
28.500000 100.546336
28.500000 100.963615
28.500000 101.381741
28.500000 101.800714
28.500000 102.220535
28.500000 102.641202
28.500000 103.062717
28.500000 103.485079
28.500000 103.908289
28.500000 104.332346
28.500000 104.757250
28.500000 105.183001
28.500000 105.609600
28.500000 106.037046
28.500000 106.465339
28.500000 106.894479
28.500000 107.324467
28.500000 107.755302
28.500000 108.186984
28.500000 108.619513
28.500000 109.052890
28.500000 109.487114
28.500000 109.922185
28.500000 110.358104
28.500000 110.794870
28.500000 111.232483
28.500000 111.670943
28.500000 112.110251
28.500000 112.550405
28.500000 112.991407
28.500000 113.433257
28.500000 113.875954
28.500000 114.319497
28.500000 114.763889
28.500000 115.209127
28.500000 115.655213
28.500000 116.102146
28.500000 116.549926
28.500000 116.998554
28.500000 117.448028
28.500000 117.898350
28.500000 118.349520
28.500000 118.801536
28.500000 119.254400
28.500000 119.708111
28.500000 120.162670
28.500000 120.618075
28.500000 121.074328
28.500000 121.531428
28.500000 121.989376
28.500000 122.448170
28.500000 122.907812
28.500000 123.368302
28.500000 123.829638
28.500000 124.291822
28.500000 124.754853
28.500000 125.218731
28.500000 125.683457
28.500000 126.149030
28.500000 126.615450
28.500000 127.082717
28.500000 127.550832
28.500000 128.019794
28.500000 128.489603
28.500000 128.960259
28.500000 129.431763
28.500000 129.904114
28.500000 130.377312
28.500000 130.851358
28.500000 131.326250
28.500000 131.801991
28.500000 132.278578
28.500000 132.756012
28.500000 133.234294
28.500000 133.713423
28.500000 134.193400
28.500000 134.674223
28.500000 135.155894
28.500000 135.638412
28.500000 136.121778
28.500000 136.605991
28.500000 137.091050
28.500000 137.576958
28.500000 138.063712
28.500000 138.551314
28.500000 139.039763
28.500000 139.529059
28.500000 140.019203
28.500000 140.510194
28.500000 141.002032
28.500000 141.494717
28.500000 141.988250
28.500000 142.482630
28.500000 142.977857
28.500000 143.473931
28.500000 143.970853
28.500000 144.468622
28.500000 144.967238
28.500000 145.466702
28.500000 145.967012
28.500000 146.468170
28.500000 146.970176
28.500000 147.473028
28.500000 147.976728
28.500000 148.481275
28.500000 148.986669
28.500000 149.492911
28.500000 150.000000
</POINTS>
</NEKTAR>

