<?xml version="1.0" encoding="utf-8" ?>
<NEKTAR>
<POINTS DIM="2" FIELDS="">
36.500000 -2.000000
36.500000 -1.999576
36.500000 -1.998305
36.500000 -1.996187
36.500000 -1.993222
36.500000 -1.989409
36.500000 -1.984749
36.500000 -1.979242
36.500000 -1.972887
36.500000 -1.965686
36.500000 -1.957637
36.500000 -1.948740
36.500000 -1.938997
36.500000 -1.928406
36.500000 -1.916968
36.500000 -1.904683
36.500000 -1.891550
36.500000 -1.877570
36.500000 -1.862743
36.500000 -1.847068
36.500000 -1.830547
36.500000 -1.813178
36.500000 -1.794962
36.500000 -1.775898
36.500000 -1.755987
36.500000 -1.735229
36.500000 -1.713624
36.500000 -1.691171
36.500000 -1.667872
36.500000 -1.643725
36.500000 -1.618730
36.500000 -1.592889
36.500000 -1.566200
36.500000 -1.538663
36.500000 -1.510280
36.500000 -1.481049
36.500000 -1.450971
36.500000 -1.420046
36.500000 -1.388274
36.500000 -1.355654
36.500000 -1.322187
36.500000 -1.287873
36.500000 -1.252711
36.500000 -1.216702
36.500000 -1.179846
36.500000 -1.142143
36.500000 -1.103592
36.500000 -1.064194
36.500000 -1.023949
36.500000 -0.982857
36.500000 -0.940917
36.500000 -0.898130
36.500000 -0.854496
36.500000 -0.810014
36.500000 -0.764686
36.500000 -0.718510
36.500000 -0.671486
36.500000 -0.623616
36.500000 -0.574898
36.500000 -0.525333
36.500000 -0.474921
36.500000 -0.423661
36.500000 -0.371554
36.500000 -0.318600
36.500000 -0.264799
36.500000 -0.210150
36.500000 -0.154654
36.500000 -0.098311
36.500000 -0.041120
36.500000 0.016917
36.500000 0.075802
36.500000 0.135535
36.500000 0.196114
36.500000 0.257541
36.500000 0.319815
36.500000 0.382937
36.500000 0.446905
36.500000 0.511721
36.500000 0.577384
36.500000 0.643895
36.500000 0.711252
36.500000 0.779457
36.500000 0.848509
36.500000 0.918409
36.500000 0.989156
36.500000 1.060750
36.500000 1.133191
36.500000 1.206479
36.500000 1.280615
36.500000 1.355598
36.500000 1.431429
36.500000 1.508106
36.500000 1.585631
36.500000 1.664003
36.500000 1.743223
36.500000 1.823289
36.500000 1.904203
36.500000 1.985964
36.500000 2.068573
36.500000 2.152029
36.500000 2.236332
36.500000 2.321482
36.500000 2.407479
36.500000 2.494324
36.500000 2.582016
36.500000 2.670556
36.500000 2.759942
36.500000 2.850176
36.500000 2.941257
36.500000 3.033186
36.500000 3.125961
36.500000 3.219584
36.500000 3.314054
36.500000 3.409372
36.500000 3.505536
36.500000 3.602548
36.500000 3.700408
36.500000 3.799114
36.500000 3.898668
36.500000 3.999069
36.500000 4.100317
36.500000 4.202413
36.500000 4.305356
36.500000 4.409146
36.500000 4.513783
36.500000 4.619268
36.500000 4.725600
36.500000 4.832779
36.500000 4.940806
36.500000 5.049679
36.500000 5.159400
36.500000 5.269969
36.500000 5.381384
36.500000 5.493647
36.500000 5.606757
36.500000 5.720714
36.500000 5.835519
36.500000 5.951171
36.500000 6.067670
36.500000 6.185016
36.500000 6.303210
36.500000 6.422251
36.500000 6.542139
36.500000 6.662874
36.500000 6.784457
36.500000 6.906887
36.500000 7.030164
36.500000 7.154289
36.500000 7.279261
36.500000 7.405080
36.500000 7.531746
36.500000 7.659260
36.500000 7.787620
36.500000 7.916829
36.500000 8.046884
36.500000 8.177787
36.500000 8.309536
36.500000 8.442134
36.500000 8.575578
36.500000 8.709870
36.500000 8.845009
36.500000 8.980995
36.500000 9.117829
36.500000 9.255509
36.500000 9.394037
36.500000 9.533413
36.500000 9.673635
36.500000 9.814705
36.500000 9.956622
36.500000 10.099387
36.500000 10.242998
36.500000 10.387457
36.500000 10.532763
36.500000 10.678917
36.500000 10.825917
36.500000 10.973765
36.500000 11.122461
36.500000 11.272003
36.500000 11.422393
36.500000 11.573630
36.500000 11.725714
36.500000 11.878646
36.500000 12.032425
36.500000 12.187051
36.500000 12.342524
36.500000 12.498845
36.500000 12.656013
36.500000 12.814028
36.500000 12.972890
36.500000 13.132600
36.500000 13.293157
36.500000 13.454561
36.500000 13.616813
36.500000 13.779911
36.500000 13.943857
36.500000 14.108651
36.500000 14.274291
36.500000 14.440779
36.500000 14.608114
36.500000 14.776297
36.500000 14.945326
36.500000 15.115203
36.500000 15.285927
36.500000 15.457499
36.500000 15.629917
36.500000 15.803183
36.500000 15.977297
36.500000 16.152257
36.500000 16.328065
36.500000 16.504720
36.500000 16.682222
36.500000 16.860572
36.500000 17.039769
36.500000 17.219813
36.500000 17.400704
36.500000 17.582443
36.500000 17.765029
36.500000 17.948462
36.500000 18.132742
36.500000 18.317870
36.500000 18.503845
36.500000 18.690667
36.500000 18.878336
36.500000 19.066853
36.500000 19.256217
36.500000 19.446429
36.500000 19.637487
36.500000 19.829393
36.500000 20.022146
36.500000 20.215746
36.500000 20.410194
36.500000 20.605489
36.500000 20.801631
36.500000 20.998620
36.500000 21.196457
36.500000 21.395141
36.500000 21.594672
36.500000 21.795051
36.500000 21.996276
36.500000 22.198350
36.500000 22.401270
36.500000 22.605037
36.500000 22.809652
36.500000 23.015114
36.500000 23.221424
36.500000 23.428580
36.500000 23.636584
36.500000 23.845435
36.500000 24.055134
36.500000 24.265679
36.500000 24.477072
36.500000 24.689312
36.500000 24.902400
36.500000 25.116335
36.500000 25.331117
36.500000 25.546746
36.500000 25.763223
36.500000 25.980546
36.500000 26.198717
36.500000 26.417736
36.500000 26.637601
36.500000 26.858314
36.500000 27.079874
36.500000 27.302282
36.500000 27.525536
36.500000 27.749638
36.500000 27.974588
36.500000 28.200384
36.500000 28.427028
36.500000 28.654519
36.500000 28.882857
36.500000 29.112043
36.500000 29.342075
36.500000 29.572955
36.500000 29.804683
36.500000 30.037257
36.500000 30.270679
36.500000 30.504948
36.500000 30.740065
36.500000 30.976028
36.500000 31.212839
36.500000 31.450498
36.500000 31.689003
36.500000 31.928356
36.500000 32.168556
36.500000 32.409603
36.500000 32.651498
36.500000 32.894239
36.500000 33.137828
36.500000 33.382265
36.500000 33.627548
36.500000 33.873679
36.500000 34.120657
36.500000 34.368483
36.500000 34.617155
36.500000 34.866675
36.500000 35.117043
36.500000 35.368257
36.500000 35.620319
36.500000 35.873228
36.500000 36.126984
36.500000 36.381588
36.500000 36.637038
36.500000 36.893336
36.500000 37.150482
36.500000 37.408474
36.500000 37.667314
36.500000 37.927001
36.500000 38.187536
36.500000 38.448917
36.500000 38.711146
36.500000 38.974222
36.500000 39.238146
36.500000 39.502917
36.500000 39.768535
36.500000 40.035000
36.500000 40.302312
36.500000 40.570472
36.500000 40.839479
36.500000 41.109334
36.500000 41.380035
36.500000 41.651584
36.500000 41.923980
36.500000 42.197224
36.500000 42.471314
36.500000 42.746252
36.500000 43.022037
36.500000 43.298670
36.500000 43.576149
36.500000 43.854476
36.500000 44.133651
36.500000 44.413672
36.500000 44.694541
36.500000 44.976257
36.500000 45.258820
36.500000 45.542231
36.500000 45.826489
36.500000 46.111594
36.500000 46.397546
36.500000 46.684346
36.500000 46.971993
36.500000 47.260487
36.500000 47.549828
36.500000 47.840017
36.500000 48.131053
36.500000 48.422936
36.500000 48.715667
36.500000 49.009245
36.500000 49.303670
36.500000 49.598942
36.500000 49.895062
36.500000 50.192028
36.500000 50.489843
36.500000 50.788504
36.500000 51.088013
36.500000 51.388368
36.500000 51.689572
36.500000 51.991622
36.500000 52.294520
36.500000 52.598265
36.500000 52.902857
36.500000 53.208297
36.500000 53.514583
36.500000 53.821717
36.500000 54.129699
36.500000 54.438527
36.500000 54.748203
36.500000 55.058726
36.500000 55.370097
36.500000 55.682314
36.500000 55.995379
36.500000 56.309291
36.500000 56.624051
36.500000 56.939657
36.500000 57.256111
36.500000 57.573413
36.500000 57.891561
36.500000 58.210557
36.500000 58.530400
36.500000 58.851090
36.500000 59.172628
36.500000 59.495013
36.500000 59.818245
36.500000 60.142324
36.500000 60.467251
36.500000 60.793025
36.500000 61.119646
36.500000 61.447114
36.500000 61.775430
36.500000 62.104593
36.500000 62.434603
36.500000 62.765461
36.500000 63.097165
36.500000 63.429717
36.500000 63.763117
36.500000 64.097363
36.500000 64.432457
36.500000 64.768398
36.500000 65.105186
36.500000 65.442822
36.500000 65.781305
36.500000 66.120635
36.500000 66.460813
36.500000 66.801837
36.500000 67.143709
36.500000 67.486428
36.500000 67.829995
36.500000 68.174409
36.500000 68.519670
36.500000 68.865778
36.500000 69.212734
36.500000 69.560536
36.500000 69.909186
36.500000 70.258684
36.500000 70.609028
36.500000 70.960220
36.500000 71.312259
36.500000 71.665146
36.500000 72.018880
36.500000 72.373460
36.500000 72.728889
36.500000 73.085164
36.500000 73.442287
36.500000 73.800257
36.500000 74.159074
36.500000 74.518739
36.500000 74.879251
36.500000 75.240610
36.500000 75.602816
36.500000 75.965870
36.500000 76.329771
36.500000 76.694519
36.500000 77.060114
36.500000 77.426557
36.500000 77.793847
36.500000 78.161984
36.500000 78.530968
36.500000 78.900800
36.500000 79.271479
36.500000 79.643005
36.500000 80.015379
36.500000 80.388600
36.500000 80.762668
36.500000 81.137583
36.500000 81.513346
36.500000 81.889956
36.500000 82.267413
36.500000 82.645717
36.500000 83.024869
36.500000 83.404868
36.500000 83.785714
36.500000 84.167408
36.500000 84.549948
36.500000 84.933336
36.500000 85.317572
36.500000 85.702654
36.500000 86.088584
36.500000 86.475361
36.500000 86.862985
36.500000 87.251457
36.500000 87.640776
36.500000 88.030942
36.500000 88.421955
36.500000 88.813816
36.500000 89.206524
36.500000 89.600079
36.500000 89.994482
36.500000 90.389731
36.500000 90.785828
36.500000 91.182773
36.500000 91.580564
36.500000 91.979203
36.500000 92.378689
36.500000 92.779022
36.500000 93.180203
36.500000 93.582231
36.500000 93.985106
36.500000 94.388828
36.500000 94.793398
36.500000 95.198815
36.500000 95.605079
36.500000 96.012191
36.500000 96.420149
36.500000 96.828955
36.500000 97.238609
36.500000 97.649109
36.500000 98.060457
36.500000 98.472652
36.500000 98.885694
36.500000 99.299584
36.500000 99.714321
36.500000 100.129905
36.500000 100.546336
36.500000 100.963615
36.500000 101.381741
36.500000 101.800714
36.500000 102.220535
36.500000 102.641202
36.500000 103.062717
36.500000 103.485079
36.500000 103.908289
36.500000 104.332346
36.500000 104.757250
36.500000 105.183001
36.500000 105.609600
36.500000 106.037046
36.500000 106.465339
36.500000 106.894479
36.500000 107.324467
36.500000 107.755302
36.500000 108.186984
36.500000 108.619513
36.500000 109.052890
36.500000 109.487114
36.500000 109.922185
36.500000 110.358104
36.500000 110.794870
36.500000 111.232483
36.500000 111.670943
36.500000 112.110251
36.500000 112.550405
36.500000 112.991407
36.500000 113.433257
36.500000 113.875954
36.500000 114.319497
36.500000 114.763889
36.500000 115.209127
36.500000 115.655213
36.500000 116.102146
36.500000 116.549926
36.500000 116.998554
36.500000 117.448028
36.500000 117.898350
36.500000 118.349520
36.500000 118.801536
36.500000 119.254400
36.500000 119.708111
36.500000 120.162670
36.500000 120.618075
36.500000 121.074328
36.500000 121.531428
36.500000 121.989376
36.500000 122.448170
36.500000 122.907812
36.500000 123.368302
36.500000 123.829638
36.500000 124.291822
36.500000 124.754853
36.500000 125.218731
36.500000 125.683457
36.500000 126.149030
36.500000 126.615450
36.500000 127.082717
36.500000 127.550832
36.500000 128.019794
36.500000 128.489603
36.500000 128.960259
36.500000 129.431763
36.500000 129.904114
36.500000 130.377312
36.500000 130.851358
36.500000 131.326250
36.500000 131.801991
36.500000 132.278578
36.500000 132.756012
36.500000 133.234294
36.500000 133.713423
36.500000 134.193400
36.500000 134.674223
36.500000 135.155894
36.500000 135.638412
36.500000 136.121778
36.500000 136.605991
36.500000 137.091050
36.500000 137.576958
36.500000 138.063712
36.500000 138.551314
36.500000 139.039763
36.500000 139.529059
36.500000 140.019203
36.500000 140.510194
36.500000 141.002032
36.500000 141.494717
36.500000 141.988250
36.500000 142.482630
36.500000 142.977857
36.500000 143.473931
36.500000 143.970853
36.500000 144.468622
36.500000 144.967238
36.500000 145.466702
36.500000 145.967012
36.500000 146.468170
36.500000 146.970176
36.500000 147.473028
36.500000 147.976728
36.500000 148.481275
36.500000 148.986669
36.500000 149.492911
36.500000 150.000000
</POINTS>
</NEKTAR>

