<?xml version="1.0" encoding="utf-8" ?>
<NEKTAR>
<POINTS DIM="2" FIELDS="">
16.500000 -2.000000
16.500000 -1.999576
16.500000 -1.998305
16.500000 -1.996187
16.500000 -1.993222
16.500000 -1.989409
16.500000 -1.984749
16.500000 -1.979242
16.500000 -1.972887
16.500000 -1.965686
16.500000 -1.957637
16.500000 -1.948740
16.500000 -1.938997
16.500000 -1.928406
16.500000 -1.916968
16.500000 -1.904683
16.500000 -1.891550
16.500000 -1.877570
16.500000 -1.862743
16.500000 -1.847068
16.500000 -1.830547
16.500000 -1.813178
16.500000 -1.794962
16.500000 -1.775898
16.500000 -1.755987
16.500000 -1.735229
16.500000 -1.713624
16.500000 -1.691171
16.500000 -1.667872
16.500000 -1.643725
16.500000 -1.618730
16.500000 -1.592889
16.500000 -1.566200
16.500000 -1.538663
16.500000 -1.510280
16.500000 -1.481049
16.500000 -1.450971
16.500000 -1.420046
16.500000 -1.388274
16.500000 -1.355654
16.500000 -1.322187
16.500000 -1.287873
16.500000 -1.252711
16.500000 -1.216702
16.500000 -1.179846
16.500000 -1.142143
16.500000 -1.103592
16.500000 -1.064194
16.500000 -1.023949
16.500000 -0.982857
16.500000 -0.940917
16.500000 -0.898130
16.500000 -0.854496
16.500000 -0.810014
16.500000 -0.764686
16.500000 -0.718510
16.500000 -0.671486
16.500000 -0.623616
16.500000 -0.574898
16.500000 -0.525333
16.500000 -0.474921
16.500000 -0.423661
16.500000 -0.371554
16.500000 -0.318600
16.500000 -0.264799
16.500000 -0.210150
16.500000 -0.154654
16.500000 -0.098311
16.500000 -0.041120
16.500000 0.016917
16.500000 0.075802
16.500000 0.135535
16.500000 0.196114
16.500000 0.257541
16.500000 0.319815
16.500000 0.382937
16.500000 0.446905
16.500000 0.511721
16.500000 0.577384
16.500000 0.643895
16.500000 0.711252
16.500000 0.779457
16.500000 0.848509
16.500000 0.918409
16.500000 0.989156
16.500000 1.060750
16.500000 1.133191
16.500000 1.206479
16.500000 1.280615
16.500000 1.355598
16.500000 1.431429
16.500000 1.508106
16.500000 1.585631
16.500000 1.664003
16.500000 1.743223
16.500000 1.823289
16.500000 1.904203
16.500000 1.985964
16.500000 2.068573
16.500000 2.152029
16.500000 2.236332
16.500000 2.321482
16.500000 2.407479
16.500000 2.494324
16.500000 2.582016
16.500000 2.670556
16.500000 2.759942
16.500000 2.850176
16.500000 2.941257
16.500000 3.033186
16.500000 3.125961
16.500000 3.219584
16.500000 3.314054
16.500000 3.409372
16.500000 3.505536
16.500000 3.602548
16.500000 3.700408
16.500000 3.799114
16.500000 3.898668
16.500000 3.999069
16.500000 4.100317
16.500000 4.202413
16.500000 4.305356
16.500000 4.409146
16.500000 4.513783
16.500000 4.619268
16.500000 4.725600
16.500000 4.832779
16.500000 4.940806
16.500000 5.049679
16.500000 5.159400
16.500000 5.269969
16.500000 5.381384
16.500000 5.493647
16.500000 5.606757
16.500000 5.720714
16.500000 5.835519
16.500000 5.951171
16.500000 6.067670
16.500000 6.185016
16.500000 6.303210
16.500000 6.422251
16.500000 6.542139
16.500000 6.662874
16.500000 6.784457
16.500000 6.906887
16.500000 7.030164
16.500000 7.154289
16.500000 7.279261
16.500000 7.405080
16.500000 7.531746
16.500000 7.659260
16.500000 7.787620
16.500000 7.916829
16.500000 8.046884
16.500000 8.177787
16.500000 8.309536
16.500000 8.442134
16.500000 8.575578
16.500000 8.709870
16.500000 8.845009
16.500000 8.980995
16.500000 9.117829
16.500000 9.255509
16.500000 9.394037
16.500000 9.533413
16.500000 9.673635
16.500000 9.814705
16.500000 9.956622
16.500000 10.099387
16.500000 10.242998
16.500000 10.387457
16.500000 10.532763
16.500000 10.678917
16.500000 10.825917
16.500000 10.973765
16.500000 11.122461
16.500000 11.272003
16.500000 11.422393
16.500000 11.573630
16.500000 11.725714
16.500000 11.878646
16.500000 12.032425
16.500000 12.187051
16.500000 12.342524
16.500000 12.498845
16.500000 12.656013
16.500000 12.814028
16.500000 12.972890
16.500000 13.132600
16.500000 13.293157
16.500000 13.454561
16.500000 13.616813
16.500000 13.779911
16.500000 13.943857
16.500000 14.108651
16.500000 14.274291
16.500000 14.440779
16.500000 14.608114
16.500000 14.776297
16.500000 14.945326
16.500000 15.115203
16.500000 15.285927
16.500000 15.457499
16.500000 15.629917
16.500000 15.803183
16.500000 15.977297
16.500000 16.152257
16.500000 16.328065
16.500000 16.504720
16.500000 16.682222
16.500000 16.860572
16.500000 17.039769
16.500000 17.219813
16.500000 17.400704
16.500000 17.582443
16.500000 17.765029
16.500000 17.948462
16.500000 18.132742
16.500000 18.317870
16.500000 18.503845
16.500000 18.690667
16.500000 18.878336
16.500000 19.066853
16.500000 19.256217
16.500000 19.446429
16.500000 19.637487
16.500000 19.829393
16.500000 20.022146
16.500000 20.215746
16.500000 20.410194
16.500000 20.605489
16.500000 20.801631
16.500000 20.998620
16.500000 21.196457
16.500000 21.395141
16.500000 21.594672
16.500000 21.795051
16.500000 21.996276
16.500000 22.198350
16.500000 22.401270
16.500000 22.605037
16.500000 22.809652
16.500000 23.015114
16.500000 23.221424
16.500000 23.428580
16.500000 23.636584
16.500000 23.845435
16.500000 24.055134
16.500000 24.265679
16.500000 24.477072
16.500000 24.689312
16.500000 24.902400
16.500000 25.116335
16.500000 25.331117
16.500000 25.546746
16.500000 25.763223
16.500000 25.980546
16.500000 26.198717
16.500000 26.417736
16.500000 26.637601
16.500000 26.858314
16.500000 27.079874
16.500000 27.302282
16.500000 27.525536
16.500000 27.749638
16.500000 27.974588
16.500000 28.200384
16.500000 28.427028
16.500000 28.654519
16.500000 28.882857
16.500000 29.112043
16.500000 29.342075
16.500000 29.572955
16.500000 29.804683
16.500000 30.037257
16.500000 30.270679
16.500000 30.504948
16.500000 30.740065
16.500000 30.976028
16.500000 31.212839
16.500000 31.450498
16.500000 31.689003
16.500000 31.928356
16.500000 32.168556
16.500000 32.409603
16.500000 32.651498
16.500000 32.894239
16.500000 33.137828
16.500000 33.382265
16.500000 33.627548
16.500000 33.873679
16.500000 34.120657
16.500000 34.368483
16.500000 34.617155
16.500000 34.866675
16.500000 35.117043
16.500000 35.368257
16.500000 35.620319
16.500000 35.873228
16.500000 36.126984
16.500000 36.381588
16.500000 36.637038
16.500000 36.893336
16.500000 37.150482
16.500000 37.408474
16.500000 37.667314
16.500000 37.927001
16.500000 38.187536
16.500000 38.448917
16.500000 38.711146
16.500000 38.974222
16.500000 39.238146
16.500000 39.502917
16.500000 39.768535
16.500000 40.035000
16.500000 40.302312
16.500000 40.570472
16.500000 40.839479
16.500000 41.109334
16.500000 41.380035
16.500000 41.651584
16.500000 41.923980
16.500000 42.197224
16.500000 42.471314
16.500000 42.746252
16.500000 43.022037
16.500000 43.298670
16.500000 43.576149
16.500000 43.854476
16.500000 44.133651
16.500000 44.413672
16.500000 44.694541
16.500000 44.976257
16.500000 45.258820
16.500000 45.542231
16.500000 45.826489
16.500000 46.111594
16.500000 46.397546
16.500000 46.684346
16.500000 46.971993
16.500000 47.260487
16.500000 47.549828
16.500000 47.840017
16.500000 48.131053
16.500000 48.422936
16.500000 48.715667
16.500000 49.009245
16.500000 49.303670
16.500000 49.598942
16.500000 49.895062
16.500000 50.192028
16.500000 50.489843
16.500000 50.788504
16.500000 51.088013
16.500000 51.388368
16.500000 51.689572
16.500000 51.991622
16.500000 52.294520
16.500000 52.598265
16.500000 52.902857
16.500000 53.208297
16.500000 53.514583
16.500000 53.821717
16.500000 54.129699
16.500000 54.438527
16.500000 54.748203
16.500000 55.058726
16.500000 55.370097
16.500000 55.682314
16.500000 55.995379
16.500000 56.309291
16.500000 56.624051
16.500000 56.939657
16.500000 57.256111
16.500000 57.573413
16.500000 57.891561
16.500000 58.210557
16.500000 58.530400
16.500000 58.851090
16.500000 59.172628
16.500000 59.495013
16.500000 59.818245
16.500000 60.142324
16.500000 60.467251
16.500000 60.793025
16.500000 61.119646
16.500000 61.447114
16.500000 61.775430
16.500000 62.104593
16.500000 62.434603
16.500000 62.765461
16.500000 63.097165
16.500000 63.429717
16.500000 63.763117
16.500000 64.097363
16.500000 64.432457
16.500000 64.768398
16.500000 65.105186
16.500000 65.442822
16.500000 65.781305
16.500000 66.120635
16.500000 66.460813
16.500000 66.801837
16.500000 67.143709
16.500000 67.486428
16.500000 67.829995
16.500000 68.174409
16.500000 68.519670
16.500000 68.865778
16.500000 69.212734
16.500000 69.560536
16.500000 69.909186
16.500000 70.258684
16.500000 70.609028
16.500000 70.960220
16.500000 71.312259
16.500000 71.665146
16.500000 72.018880
16.500000 72.373460
16.500000 72.728889
16.500000 73.085164
16.500000 73.442287
16.500000 73.800257
16.500000 74.159074
16.500000 74.518739
16.500000 74.879251
16.500000 75.240610
16.500000 75.602816
16.500000 75.965870
16.500000 76.329771
16.500000 76.694519
16.500000 77.060114
16.500000 77.426557
16.500000 77.793847
16.500000 78.161984
16.500000 78.530968
16.500000 78.900800
16.500000 79.271479
16.500000 79.643005
16.500000 80.015379
16.500000 80.388600
16.500000 80.762668
16.500000 81.137583
16.500000 81.513346
16.500000 81.889956
16.500000 82.267413
16.500000 82.645717
16.500000 83.024869
16.500000 83.404868
16.500000 83.785714
16.500000 84.167408
16.500000 84.549948
16.500000 84.933336
16.500000 85.317572
16.500000 85.702654
16.500000 86.088584
16.500000 86.475361
16.500000 86.862985
16.500000 87.251457
16.500000 87.640776
16.500000 88.030942
16.500000 88.421955
16.500000 88.813816
16.500000 89.206524
16.500000 89.600079
16.500000 89.994482
16.500000 90.389731
16.500000 90.785828
16.500000 91.182773
16.500000 91.580564
16.500000 91.979203
16.500000 92.378689
16.500000 92.779022
16.500000 93.180203
16.500000 93.582231
16.500000 93.985106
16.500000 94.388828
16.500000 94.793398
16.500000 95.198815
16.500000 95.605079
16.500000 96.012191
16.500000 96.420149
16.500000 96.828955
16.500000 97.238609
16.500000 97.649109
16.500000 98.060457
16.500000 98.472652
16.500000 98.885694
16.500000 99.299584
16.500000 99.714321
16.500000 100.129905
16.500000 100.546336
16.500000 100.963615
16.500000 101.381741
16.500000 101.800714
16.500000 102.220535
16.500000 102.641202
16.500000 103.062717
16.500000 103.485079
16.500000 103.908289
16.500000 104.332346
16.500000 104.757250
16.500000 105.183001
16.500000 105.609600
16.500000 106.037046
16.500000 106.465339
16.500000 106.894479
16.500000 107.324467
16.500000 107.755302
16.500000 108.186984
16.500000 108.619513
16.500000 109.052890
16.500000 109.487114
16.500000 109.922185
16.500000 110.358104
16.500000 110.794870
16.500000 111.232483
16.500000 111.670943
16.500000 112.110251
16.500000 112.550405
16.500000 112.991407
16.500000 113.433257
16.500000 113.875954
16.500000 114.319497
16.500000 114.763889
16.500000 115.209127
16.500000 115.655213
16.500000 116.102146
16.500000 116.549926
16.500000 116.998554
16.500000 117.448028
16.500000 117.898350
16.500000 118.349520
16.500000 118.801536
16.500000 119.254400
16.500000 119.708111
16.500000 120.162670
16.500000 120.618075
16.500000 121.074328
16.500000 121.531428
16.500000 121.989376
16.500000 122.448170
16.500000 122.907812
16.500000 123.368302
16.500000 123.829638
16.500000 124.291822
16.500000 124.754853
16.500000 125.218731
16.500000 125.683457
16.500000 126.149030
16.500000 126.615450
16.500000 127.082717
16.500000 127.550832
16.500000 128.019794
16.500000 128.489603
16.500000 128.960259
16.500000 129.431763
16.500000 129.904114
16.500000 130.377312
16.500000 130.851358
16.500000 131.326250
16.500000 131.801991
16.500000 132.278578
16.500000 132.756012
16.500000 133.234294
16.500000 133.713423
16.500000 134.193400
16.500000 134.674223
16.500000 135.155894
16.500000 135.638412
16.500000 136.121778
16.500000 136.605991
16.500000 137.091050
16.500000 137.576958
16.500000 138.063712
16.500000 138.551314
16.500000 139.039763
16.500000 139.529059
16.500000 140.019203
16.500000 140.510194
16.500000 141.002032
16.500000 141.494717
16.500000 141.988250
16.500000 142.482630
16.500000 142.977857
16.500000 143.473931
16.500000 143.970853
16.500000 144.468622
16.500000 144.967238
16.500000 145.466702
16.500000 145.967012
16.500000 146.468170
16.500000 146.970176
16.500000 147.473028
16.500000 147.976728
16.500000 148.481275
16.500000 148.986669
16.500000 149.492911
16.500000 150.000000
</POINTS>
</NEKTAR>

