<?xml version="1.0" encoding="utf-8" ?>
<NEKTAR>
<POINTS DIM="2" FIELDS="">
26.500000 -2.000000
26.500000 -1.999576
26.500000 -1.998305
26.500000 -1.996187
26.500000 -1.993222
26.500000 -1.989409
26.500000 -1.984749
26.500000 -1.979242
26.500000 -1.972887
26.500000 -1.965686
26.500000 -1.957637
26.500000 -1.948740
26.500000 -1.938997
26.500000 -1.928406
26.500000 -1.916968
26.500000 -1.904683
26.500000 -1.891550
26.500000 -1.877570
26.500000 -1.862743
26.500000 -1.847068
26.500000 -1.830547
26.500000 -1.813178
26.500000 -1.794962
26.500000 -1.775898
26.500000 -1.755987
26.500000 -1.735229
26.500000 -1.713624
26.500000 -1.691171
26.500000 -1.667872
26.500000 -1.643725
26.500000 -1.618730
26.500000 -1.592889
26.500000 -1.566200
26.500000 -1.538663
26.500000 -1.510280
26.500000 -1.481049
26.500000 -1.450971
26.500000 -1.420046
26.500000 -1.388274
26.500000 -1.355654
26.500000 -1.322187
26.500000 -1.287873
26.500000 -1.252711
26.500000 -1.216702
26.500000 -1.179846
26.500000 -1.142143
26.500000 -1.103592
26.500000 -1.064194
26.500000 -1.023949
26.500000 -0.982857
26.500000 -0.940917
26.500000 -0.898130
26.500000 -0.854496
26.500000 -0.810014
26.500000 -0.764686
26.500000 -0.718510
26.500000 -0.671486
26.500000 -0.623616
26.500000 -0.574898
26.500000 -0.525333
26.500000 -0.474921
26.500000 -0.423661
26.500000 -0.371554
26.500000 -0.318600
26.500000 -0.264799
26.500000 -0.210150
26.500000 -0.154654
26.500000 -0.098311
26.500000 -0.041120
26.500000 0.016917
26.500000 0.075802
26.500000 0.135535
26.500000 0.196114
26.500000 0.257541
26.500000 0.319815
26.500000 0.382937
26.500000 0.446905
26.500000 0.511721
26.500000 0.577384
26.500000 0.643895
26.500000 0.711252
26.500000 0.779457
26.500000 0.848509
26.500000 0.918409
26.500000 0.989156
26.500000 1.060750
26.500000 1.133191
26.500000 1.206479
26.500000 1.280615
26.500000 1.355598
26.500000 1.431429
26.500000 1.508106
26.500000 1.585631
26.500000 1.664003
26.500000 1.743223
26.500000 1.823289
26.500000 1.904203
26.500000 1.985964
26.500000 2.068573
26.500000 2.152029
26.500000 2.236332
26.500000 2.321482
26.500000 2.407479
26.500000 2.494324
26.500000 2.582016
26.500000 2.670556
26.500000 2.759942
26.500000 2.850176
26.500000 2.941257
26.500000 3.033186
26.500000 3.125961
26.500000 3.219584
26.500000 3.314054
26.500000 3.409372
26.500000 3.505536
26.500000 3.602548
26.500000 3.700408
26.500000 3.799114
26.500000 3.898668
26.500000 3.999069
26.500000 4.100317
26.500000 4.202413
26.500000 4.305356
26.500000 4.409146
26.500000 4.513783
26.500000 4.619268
26.500000 4.725600
26.500000 4.832779
26.500000 4.940806
26.500000 5.049679
26.500000 5.159400
26.500000 5.269969
26.500000 5.381384
26.500000 5.493647
26.500000 5.606757
26.500000 5.720714
26.500000 5.835519
26.500000 5.951171
26.500000 6.067670
26.500000 6.185016
26.500000 6.303210
26.500000 6.422251
26.500000 6.542139
26.500000 6.662874
26.500000 6.784457
26.500000 6.906887
26.500000 7.030164
26.500000 7.154289
26.500000 7.279261
26.500000 7.405080
26.500000 7.531746
26.500000 7.659260
26.500000 7.787620
26.500000 7.916829
26.500000 8.046884
26.500000 8.177787
26.500000 8.309536
26.500000 8.442134
26.500000 8.575578
26.500000 8.709870
26.500000 8.845009
26.500000 8.980995
26.500000 9.117829
26.500000 9.255509
26.500000 9.394037
26.500000 9.533413
26.500000 9.673635
26.500000 9.814705
26.500000 9.956622
26.500000 10.099387
26.500000 10.242998
26.500000 10.387457
26.500000 10.532763
26.500000 10.678917
26.500000 10.825917
26.500000 10.973765
26.500000 11.122461
26.500000 11.272003
26.500000 11.422393
26.500000 11.573630
26.500000 11.725714
26.500000 11.878646
26.500000 12.032425
26.500000 12.187051
26.500000 12.342524
26.500000 12.498845
26.500000 12.656013
26.500000 12.814028
26.500000 12.972890
26.500000 13.132600
26.500000 13.293157
26.500000 13.454561
26.500000 13.616813
26.500000 13.779911
26.500000 13.943857
26.500000 14.108651
26.500000 14.274291
26.500000 14.440779
26.500000 14.608114
26.500000 14.776297
26.500000 14.945326
26.500000 15.115203
26.500000 15.285927
26.500000 15.457499
26.500000 15.629917
26.500000 15.803183
26.500000 15.977297
26.500000 16.152257
26.500000 16.328065
26.500000 16.504720
26.500000 16.682222
26.500000 16.860572
26.500000 17.039769
26.500000 17.219813
26.500000 17.400704
26.500000 17.582443
26.500000 17.765029
26.500000 17.948462
26.500000 18.132742
26.500000 18.317870
26.500000 18.503845
26.500000 18.690667
26.500000 18.878336
26.500000 19.066853
26.500000 19.256217
26.500000 19.446429
26.500000 19.637487
26.500000 19.829393
26.500000 20.022146
26.500000 20.215746
26.500000 20.410194
26.500000 20.605489
26.500000 20.801631
26.500000 20.998620
26.500000 21.196457
26.500000 21.395141
26.500000 21.594672
26.500000 21.795051
26.500000 21.996276
26.500000 22.198350
26.500000 22.401270
26.500000 22.605037
26.500000 22.809652
26.500000 23.015114
26.500000 23.221424
26.500000 23.428580
26.500000 23.636584
26.500000 23.845435
26.500000 24.055134
26.500000 24.265679
26.500000 24.477072
26.500000 24.689312
26.500000 24.902400
26.500000 25.116335
26.500000 25.331117
26.500000 25.546746
26.500000 25.763223
26.500000 25.980546
26.500000 26.198717
26.500000 26.417736
26.500000 26.637601
26.500000 26.858314
26.500000 27.079874
26.500000 27.302282
26.500000 27.525536
26.500000 27.749638
26.500000 27.974588
26.500000 28.200384
26.500000 28.427028
26.500000 28.654519
26.500000 28.882857
26.500000 29.112043
26.500000 29.342075
26.500000 29.572955
26.500000 29.804683
26.500000 30.037257
26.500000 30.270679
26.500000 30.504948
26.500000 30.740065
26.500000 30.976028
26.500000 31.212839
26.500000 31.450498
26.500000 31.689003
26.500000 31.928356
26.500000 32.168556
26.500000 32.409603
26.500000 32.651498
26.500000 32.894239
26.500000 33.137828
26.500000 33.382265
26.500000 33.627548
26.500000 33.873679
26.500000 34.120657
26.500000 34.368483
26.500000 34.617155
26.500000 34.866675
26.500000 35.117043
26.500000 35.368257
26.500000 35.620319
26.500000 35.873228
26.500000 36.126984
26.500000 36.381588
26.500000 36.637038
26.500000 36.893336
26.500000 37.150482
26.500000 37.408474
26.500000 37.667314
26.500000 37.927001
26.500000 38.187536
26.500000 38.448917
26.500000 38.711146
26.500000 38.974222
26.500000 39.238146
26.500000 39.502917
26.500000 39.768535
26.500000 40.035000
26.500000 40.302312
26.500000 40.570472
26.500000 40.839479
26.500000 41.109334
26.500000 41.380035
26.500000 41.651584
26.500000 41.923980
26.500000 42.197224
26.500000 42.471314
26.500000 42.746252
26.500000 43.022037
26.500000 43.298670
26.500000 43.576149
26.500000 43.854476
26.500000 44.133651
26.500000 44.413672
26.500000 44.694541
26.500000 44.976257
26.500000 45.258820
26.500000 45.542231
26.500000 45.826489
26.500000 46.111594
26.500000 46.397546
26.500000 46.684346
26.500000 46.971993
26.500000 47.260487
26.500000 47.549828
26.500000 47.840017
26.500000 48.131053
26.500000 48.422936
26.500000 48.715667
26.500000 49.009245
26.500000 49.303670
26.500000 49.598942
26.500000 49.895062
26.500000 50.192028
26.500000 50.489843
26.500000 50.788504
26.500000 51.088013
26.500000 51.388368
26.500000 51.689572
26.500000 51.991622
26.500000 52.294520
26.500000 52.598265
26.500000 52.902857
26.500000 53.208297
26.500000 53.514583
26.500000 53.821717
26.500000 54.129699
26.500000 54.438527
26.500000 54.748203
26.500000 55.058726
26.500000 55.370097
26.500000 55.682314
26.500000 55.995379
26.500000 56.309291
26.500000 56.624051
26.500000 56.939657
26.500000 57.256111
26.500000 57.573413
26.500000 57.891561
26.500000 58.210557
26.500000 58.530400
26.500000 58.851090
26.500000 59.172628
26.500000 59.495013
26.500000 59.818245
26.500000 60.142324
26.500000 60.467251
26.500000 60.793025
26.500000 61.119646
26.500000 61.447114
26.500000 61.775430
26.500000 62.104593
26.500000 62.434603
26.500000 62.765461
26.500000 63.097165
26.500000 63.429717
26.500000 63.763117
26.500000 64.097363
26.500000 64.432457
26.500000 64.768398
26.500000 65.105186
26.500000 65.442822
26.500000 65.781305
26.500000 66.120635
26.500000 66.460813
26.500000 66.801837
26.500000 67.143709
26.500000 67.486428
26.500000 67.829995
26.500000 68.174409
26.500000 68.519670
26.500000 68.865778
26.500000 69.212734
26.500000 69.560536
26.500000 69.909186
26.500000 70.258684
26.500000 70.609028
26.500000 70.960220
26.500000 71.312259
26.500000 71.665146
26.500000 72.018880
26.500000 72.373460
26.500000 72.728889
26.500000 73.085164
26.500000 73.442287
26.500000 73.800257
26.500000 74.159074
26.500000 74.518739
26.500000 74.879251
26.500000 75.240610
26.500000 75.602816
26.500000 75.965870
26.500000 76.329771
26.500000 76.694519
26.500000 77.060114
26.500000 77.426557
26.500000 77.793847
26.500000 78.161984
26.500000 78.530968
26.500000 78.900800
26.500000 79.271479
26.500000 79.643005
26.500000 80.015379
26.500000 80.388600
26.500000 80.762668
26.500000 81.137583
26.500000 81.513346
26.500000 81.889956
26.500000 82.267413
26.500000 82.645717
26.500000 83.024869
26.500000 83.404868
26.500000 83.785714
26.500000 84.167408
26.500000 84.549948
26.500000 84.933336
26.500000 85.317572
26.500000 85.702654
26.500000 86.088584
26.500000 86.475361
26.500000 86.862985
26.500000 87.251457
26.500000 87.640776
26.500000 88.030942
26.500000 88.421955
26.500000 88.813816
26.500000 89.206524
26.500000 89.600079
26.500000 89.994482
26.500000 90.389731
26.500000 90.785828
26.500000 91.182773
26.500000 91.580564
26.500000 91.979203
26.500000 92.378689
26.500000 92.779022
26.500000 93.180203
26.500000 93.582231
26.500000 93.985106
26.500000 94.388828
26.500000 94.793398
26.500000 95.198815
26.500000 95.605079
26.500000 96.012191
26.500000 96.420149
26.500000 96.828955
26.500000 97.238609
26.500000 97.649109
26.500000 98.060457
26.500000 98.472652
26.500000 98.885694
26.500000 99.299584
26.500000 99.714321
26.500000 100.129905
26.500000 100.546336
26.500000 100.963615
26.500000 101.381741
26.500000 101.800714
26.500000 102.220535
26.500000 102.641202
26.500000 103.062717
26.500000 103.485079
26.500000 103.908289
26.500000 104.332346
26.500000 104.757250
26.500000 105.183001
26.500000 105.609600
26.500000 106.037046
26.500000 106.465339
26.500000 106.894479
26.500000 107.324467
26.500000 107.755302
26.500000 108.186984
26.500000 108.619513
26.500000 109.052890
26.500000 109.487114
26.500000 109.922185
26.500000 110.358104
26.500000 110.794870
26.500000 111.232483
26.500000 111.670943
26.500000 112.110251
26.500000 112.550405
26.500000 112.991407
26.500000 113.433257
26.500000 113.875954
26.500000 114.319497
26.500000 114.763889
26.500000 115.209127
26.500000 115.655213
26.500000 116.102146
26.500000 116.549926
26.500000 116.998554
26.500000 117.448028
26.500000 117.898350
26.500000 118.349520
26.500000 118.801536
26.500000 119.254400
26.500000 119.708111
26.500000 120.162670
26.500000 120.618075
26.500000 121.074328
26.500000 121.531428
26.500000 121.989376
26.500000 122.448170
26.500000 122.907812
26.500000 123.368302
26.500000 123.829638
26.500000 124.291822
26.500000 124.754853
26.500000 125.218731
26.500000 125.683457
26.500000 126.149030
26.500000 126.615450
26.500000 127.082717
26.500000 127.550832
26.500000 128.019794
26.500000 128.489603
26.500000 128.960259
26.500000 129.431763
26.500000 129.904114
26.500000 130.377312
26.500000 130.851358
26.500000 131.326250
26.500000 131.801991
26.500000 132.278578
26.500000 132.756012
26.500000 133.234294
26.500000 133.713423
26.500000 134.193400
26.500000 134.674223
26.500000 135.155894
26.500000 135.638412
26.500000 136.121778
26.500000 136.605991
26.500000 137.091050
26.500000 137.576958
26.500000 138.063712
26.500000 138.551314
26.500000 139.039763
26.500000 139.529059
26.500000 140.019203
26.500000 140.510194
26.500000 141.002032
26.500000 141.494717
26.500000 141.988250
26.500000 142.482630
26.500000 142.977857
26.500000 143.473931
26.500000 143.970853
26.500000 144.468622
26.500000 144.967238
26.500000 145.466702
26.500000 145.967012
26.500000 146.468170
26.500000 146.970176
26.500000 147.473028
26.500000 147.976728
26.500000 148.481275
26.500000 148.986669
26.500000 149.492911
26.500000 150.000000
</POINTS>
</NEKTAR>

