<?xml version="1.0" encoding="utf-8" ?>
<NEKTAR>
<POINTS DIM="2" FIELDS="">
579.500000 0.000000
579.500000 0.000418
579.500000 0.001672
579.500000 0.003763
579.500000 0.006689
579.500000 0.010451
579.500000 0.015050
579.500000 0.020485
579.500000 0.026756
579.500000 0.033863
579.500000 0.041806
579.500000 0.050585
579.500000 0.060201
579.500000 0.070652
579.500000 0.081940
579.500000 0.094063
579.500000 0.107023
579.500000 0.120819
579.500000 0.135451
579.500000 0.150919
579.500000 0.167224
579.500000 0.184364
579.500000 0.202341
579.500000 0.221153
579.500000 0.240802
579.500000 0.261287
579.500000 0.282608
579.500000 0.304765
579.500000 0.327758
579.500000 0.351588
579.500000 0.376253
579.500000 0.401755
579.500000 0.428092
579.500000 0.455266
579.500000 0.483276
579.500000 0.512122
579.500000 0.541805
579.500000 0.572323
579.500000 0.603677
579.500000 0.635868
579.500000 0.668894
579.500000 0.702757
579.500000 0.737456
579.500000 0.772991
579.500000 0.809362
579.500000 0.846570
579.500000 0.884613
579.500000 0.923492
579.500000 0.963208
579.500000 1.003760
579.500000 1.045148
579.500000 1.087372
579.500000 1.130432
579.500000 1.174328
579.500000 1.219060
579.500000 1.264629
579.500000 1.311033
579.500000 1.358274
579.500000 1.406351
579.500000 1.455264
579.500000 1.505013
579.500000 1.555598
579.500000 1.607019
579.500000 1.659276
579.500000 1.712370
579.500000 1.766299
579.500000 1.821065
579.500000 1.876667
579.500000 1.933105
579.500000 1.990379
579.500000 2.048489
579.500000 2.107436
579.500000 2.167218
579.500000 2.227837
579.500000 2.289291
579.500000 2.351582
579.500000 2.414709
579.500000 2.478672
579.500000 2.543471
579.500000 2.609106
579.500000 2.675578
579.500000 2.742885
579.500000 2.811029
579.500000 2.880009
579.500000 2.949825
579.500000 3.020477
579.500000 3.091965
579.500000 3.164289
579.500000 3.237449
579.500000 3.311446
579.500000 3.386278
579.500000 3.461947
579.500000 3.538452
579.500000 3.615793
579.500000 3.693970
579.500000 3.772983
579.500000 3.852832
579.500000 3.933517
579.500000 4.015039
579.500000 4.097397
579.500000 4.180590
579.500000 4.264620
579.500000 4.349486
579.500000 4.435188
579.500000 4.521727
579.500000 4.609101
579.500000 4.697311
579.500000 4.786358
579.500000 4.876241
579.500000 4.966959
579.500000 5.058514
579.500000 5.150905
579.500000 5.244133
579.500000 5.338196
579.500000 5.433095
579.500000 5.528831
579.500000 5.625402
579.500000 5.722810
579.500000 5.821054
579.500000 5.920134
579.500000 6.020050
579.500000 6.120802
579.500000 6.222391
579.500000 6.324815
579.500000 6.428076
579.500000 6.532172
579.500000 6.637105
579.500000 6.742874
579.500000 6.849479
579.500000 6.956920
579.500000 7.065198
579.500000 7.174311
579.500000 7.284261
579.500000 7.395046
579.500000 7.506668
579.500000 7.619126
579.500000 7.732420
579.500000 7.846550
579.500000 7.961516
579.500000 8.077319
579.500000 8.193957
579.500000 8.311432
579.500000 8.429742
579.500000 8.548889
579.500000 8.668872
579.500000 8.789691
579.500000 8.911346
579.500000 9.033838
579.500000 9.157165
579.500000 9.281329
579.500000 9.406328
579.500000 9.532164
579.500000 9.658836
579.500000 9.786344
579.500000 9.914688
579.500000 10.043868
579.500000 10.173885
579.500000 10.304737
579.500000 10.436426
579.500000 10.568950
579.500000 10.702311
579.500000 10.836508
579.500000 10.971541
579.500000 11.107411
579.500000 11.244116
579.500000 11.381657
579.500000 11.520035
579.500000 11.659248
579.500000 11.799298
579.500000 11.940184
579.500000 12.081906
579.500000 12.224464
579.500000 12.367859
579.500000 12.512089
579.500000 12.657155
579.500000 12.803058
579.500000 12.949797
579.500000 13.097372
579.500000 13.245782
579.500000 13.395030
579.500000 13.545113
579.500000 13.696032
579.500000 13.847787
579.500000 14.000379
579.500000 14.153807
579.500000 14.308070
579.500000 14.463170
579.500000 14.619106
579.500000 14.775879
579.500000 14.933487
579.500000 15.091931
579.500000 15.251212
579.500000 15.411328
579.500000 15.572281
579.500000 15.734070
579.500000 15.896695
579.500000 16.060156
579.500000 16.224453
579.500000 16.389586
579.500000 16.555556
579.500000 16.722361
579.500000 16.890003
579.500000 17.058481
579.500000 17.227795
579.500000 17.397945
579.500000 17.568931
579.500000 17.740753
579.500000 17.913412
579.500000 18.086906
579.500000 18.261237
579.500000 18.436403
579.500000 18.612406
579.500000 18.789245
579.500000 18.966920
579.500000 19.145432
579.500000 19.324779
579.500000 19.504962
579.500000 19.685982
579.500000 19.867838
579.500000 20.050529
579.500000 20.234057
579.500000 20.418421
579.500000 20.603622
579.500000 20.789658
579.500000 20.976530
579.500000 21.164239
579.500000 21.352783
579.500000 21.542164
579.500000 21.732381
579.500000 21.923434
579.500000 22.115323
579.500000 22.308048
579.500000 22.501610
579.500000 22.696007
579.500000 22.891241
579.500000 23.087310
579.500000 23.284216
579.500000 23.481958
579.500000 23.680536
579.500000 23.879950
579.500000 24.080200
579.500000 24.281287
579.500000 24.483209
579.500000 24.685968
579.500000 24.889563
579.500000 25.093994
579.500000 25.299261
579.500000 25.505364
579.500000 25.712303
579.500000 25.920078
579.500000 26.128690
579.500000 26.338137
579.500000 26.548421
579.500000 26.759541
579.500000 26.971497
579.500000 27.184289
579.500000 27.397917
579.500000 27.612381
579.500000 27.827682
579.500000 28.043818
579.500000 28.260791
579.500000 28.478600
579.500000 28.697244
579.500000 28.916725
579.500000 29.137043
579.500000 29.358196
579.500000 29.580185
579.500000 29.803011
579.500000 30.026672
579.500000 30.251170
579.500000 30.476504
579.500000 30.702674
579.500000 30.929680
579.500000 31.157522
579.500000 31.386200
579.500000 31.615715
579.500000 31.846065
579.500000 32.077252
579.500000 32.309275
579.500000 32.542133
579.500000 32.775828
579.500000 33.010360
579.500000 33.245727
579.500000 33.481930
579.500000 33.718970
579.500000 33.956845
579.500000 34.195557
579.500000 34.435105
579.500000 34.675489
579.500000 34.916709
579.500000 35.158765
579.500000 35.401657
579.500000 35.645386
579.500000 35.889950
579.500000 36.135351
579.500000 36.381588
579.500000 36.628660
579.500000 36.876569
579.500000 37.125315
579.500000 37.374896
579.500000 37.625313
579.500000 37.876567
579.500000 38.128656
579.500000 38.381582
579.500000 38.635344
579.500000 38.889942
579.500000 39.145376
579.500000 39.401646
579.500000 39.658752
579.500000 39.916695
579.500000 40.175473
579.500000 40.435088
579.500000 40.695539
579.500000 40.956826
579.500000 41.218949
579.500000 41.481908
579.500000 41.745703
579.500000 42.010334
579.500000 42.275802
579.500000 42.542106
579.500000 42.809245
579.500000 43.077221
579.500000 43.346033
579.500000 43.615681
579.500000 43.886165
579.500000 44.157486
579.500000 44.429642
579.500000 44.702635
579.500000 44.976463
579.500000 45.251128
579.500000 45.526629
579.500000 45.802966
579.500000 46.080139
579.500000 46.358148
579.500000 46.636994
579.500000 46.916675
579.500000 47.197193
579.500000 47.478547
579.500000 47.760736
579.500000 48.043762
579.500000 48.327625
579.500000 48.612323
579.500000 48.897857
579.500000 49.184227
579.500000 49.471434
579.500000 49.759477
579.500000 50.048355
579.500000 50.338070
579.500000 50.628621
579.500000 50.920009
579.500000 51.212232
579.500000 51.505291
579.500000 51.799187
579.500000 52.093918
579.500000 52.389486
579.500000 52.685890
579.500000 52.983130
579.500000 53.281206
579.500000 53.580118
579.500000 53.879867
579.500000 54.180451
579.500000 54.481872
579.500000 54.784128
579.500000 55.087221
579.500000 55.391150
579.500000 55.695915
579.500000 56.001516
579.500000 56.307953
579.500000 56.615227
579.500000 56.923336
579.500000 57.232282
579.500000 57.542064
579.500000 57.852682
579.500000 58.164136
579.500000 58.476426
579.500000 58.789552
579.500000 59.103514
579.500000 59.418313
579.500000 59.733947
579.500000 60.050418
579.500000 60.367725
579.500000 60.685868
579.500000 61.004847
579.500000 61.324662
579.500000 61.645313
579.500000 61.966801
579.500000 62.289124
579.500000 62.612284
579.500000 62.936279
579.500000 63.261111
579.500000 63.586779
579.500000 63.913283
579.500000 64.240624
579.500000 64.568800
579.500000 64.897812
579.500000 65.227661
579.500000 65.558346
579.500000 65.889867
579.500000 66.222223
579.500000 66.555417
579.500000 66.889446
579.500000 67.224311
579.500000 67.560012
579.500000 67.896550
579.500000 68.233924
579.500000 68.572133
579.500000 68.911179
579.500000 69.251061
579.500000 69.591779
579.500000 69.933334
579.500000 70.275724
579.500000 70.618950
579.500000 70.963013
579.500000 71.307912
579.500000 71.653646
579.500000 72.000217
579.500000 72.347624
579.500000 72.695868
579.500000 73.044947
579.500000 73.394862
579.500000 73.745614
579.500000 74.097202
579.500000 74.449625
579.500000 74.802885
579.500000 75.156981
579.500000 75.511913
579.500000 75.867682
579.500000 76.224286
579.500000 76.581726
579.500000 76.940003
579.500000 77.299116
579.500000 77.659064
579.500000 78.019849
579.500000 78.381471
579.500000 78.743928
579.500000 79.107221
579.500000 79.471350
579.500000 79.836316
579.500000 80.202118
579.500000 80.568755
579.500000 80.936229
579.500000 81.304539
579.500000 81.673685
579.500000 82.043668
579.500000 82.414486
579.500000 82.786141
579.500000 83.158631
579.500000 83.531958
579.500000 83.906121
579.500000 84.281120
579.500000 84.656955
579.500000 85.033626
579.500000 85.411133
579.500000 85.789477
579.500000 86.168656
579.500000 86.548672
579.500000 86.929524
579.500000 87.311212
579.500000 87.693736
579.500000 88.077096
579.500000 88.461292
579.500000 88.846324
579.500000 89.232193
579.500000 89.618897
579.500000 90.006438
579.500000 90.394815
579.500000 90.784028
579.500000 91.174077
579.500000 91.564962
579.500000 91.956684
579.500000 92.349241
579.500000 92.742634
579.500000 93.136864
579.500000 93.531930
579.500000 93.927832
579.500000 94.324570
579.500000 94.722144
579.500000 95.120554
579.500000 95.519801
579.500000 95.919883
579.500000 96.320802
579.500000 96.722557
579.500000 97.125147
579.500000 97.528574
579.500000 97.932837
579.500000 98.337937
579.500000 98.743872
579.500000 99.150643
579.500000 99.558251
579.500000 99.966695
579.500000 100.375974
579.500000 100.786090
579.500000 101.197042
579.500000 101.608831
579.500000 102.021455
579.500000 102.434915
579.500000 102.849212
579.500000 103.264344
579.500000 103.680313
579.500000 104.097118
579.500000 104.514759
579.500000 104.933236
579.500000 105.352549
579.500000 105.772699
579.500000 106.193684
579.500000 106.615506
579.500000 107.038163
579.500000 107.461657
579.500000 107.885987
579.500000 108.311153
579.500000 108.737155
579.500000 109.163993
579.500000 109.591668
579.500000 110.020178
579.500000 110.449525
579.500000 110.879708
579.500000 111.310727
579.500000 111.742582
579.500000 112.175273
579.500000 112.608800
579.500000 113.043163
579.500000 113.478363
579.500000 113.914398
579.500000 114.351270
579.500000 114.788978
579.500000 115.227522
579.500000 115.666902
579.500000 116.107118
579.500000 116.548170
579.500000 116.990059
579.500000 117.432783
579.500000 117.876344
579.500000 118.320740
579.500000 118.765973
579.500000 119.212042
579.500000 119.658947
579.500000 120.106689
579.500000 120.555266
579.500000 121.004679
579.500000 121.454929
579.500000 121.906015
579.500000 122.357937
579.500000 122.810695
579.500000 123.264289
579.500000 123.718719
579.500000 124.173985
579.500000 124.630087
579.500000 125.087026
579.500000 125.544801
579.500000 126.003411
579.500000 126.462858
579.500000 126.923141
579.500000 127.384260
579.500000 127.846216
579.500000 128.309007
579.500000 128.772634
579.500000 129.237098
579.500000 129.702398
579.500000 130.168534
579.500000 130.635505
579.500000 131.103314
579.500000 131.571958
579.500000 132.041438
579.500000 132.511754
579.500000 132.982907
579.500000 133.454896
579.500000 133.927720
579.500000 134.401381
579.500000 134.875878
579.500000 135.351211
579.500000 135.827381
579.500000 136.304386
579.500000 136.782227
579.500000 137.260905
579.500000 137.740419
579.500000 138.220769
579.500000 138.701955
579.500000 139.183977
579.500000 139.666835
579.500000 140.150529
579.500000 140.635060
579.500000 141.120426
579.500000 141.606629
579.500000 142.093668
579.500000 142.581542
579.500000 143.070253
579.500000 143.559801
579.500000 144.050184
579.500000 144.541403
579.500000 145.033459
579.500000 145.526350
579.500000 146.020078
579.500000 146.514642
579.500000 147.010042
579.500000 147.506278
579.500000 148.003350
579.500000 148.501258
579.500000 149.000003
579.500000 149.499583
579.500000 150.000000
</POINTS>
</NEKTAR>

