<?xml version="1.0" encoding="utf-8" ?>
<NEKTAR>
<POINTS DIM="2" FIELDS="">
959.500000 0.000000
959.500000 0.000418
959.500000 0.001672
959.500000 0.003763
959.500000 0.006689
959.500000 0.010451
959.500000 0.015050
959.500000 0.020485
959.500000 0.026756
959.500000 0.033863
959.500000 0.041806
959.500000 0.050585
959.500000 0.060201
959.500000 0.070652
959.500000 0.081940
959.500000 0.094063
959.500000 0.107023
959.500000 0.120819
959.500000 0.135451
959.500000 0.150919
959.500000 0.167224
959.500000 0.184364
959.500000 0.202341
959.500000 0.221153
959.500000 0.240802
959.500000 0.261287
959.500000 0.282608
959.500000 0.304765
959.500000 0.327758
959.500000 0.351588
959.500000 0.376253
959.500000 0.401755
959.500000 0.428092
959.500000 0.455266
959.500000 0.483276
959.500000 0.512122
959.500000 0.541805
959.500000 0.572323
959.500000 0.603677
959.500000 0.635868
959.500000 0.668894
959.500000 0.702757
959.500000 0.737456
959.500000 0.772991
959.500000 0.809362
959.500000 0.846570
959.500000 0.884613
959.500000 0.923492
959.500000 0.963208
959.500000 1.003760
959.500000 1.045148
959.500000 1.087372
959.500000 1.130432
959.500000 1.174328
959.500000 1.219060
959.500000 1.264629
959.500000 1.311033
959.500000 1.358274
959.500000 1.406351
959.500000 1.455264
959.500000 1.505013
959.500000 1.555598
959.500000 1.607019
959.500000 1.659276
959.500000 1.712370
959.500000 1.766299
959.500000 1.821065
959.500000 1.876667
959.500000 1.933105
959.500000 1.990379
959.500000 2.048489
959.500000 2.107436
959.500000 2.167218
959.500000 2.227837
959.500000 2.289291
959.500000 2.351582
959.500000 2.414709
959.500000 2.478672
959.500000 2.543471
959.500000 2.609106
959.500000 2.675578
959.500000 2.742885
959.500000 2.811029
959.500000 2.880009
959.500000 2.949825
959.500000 3.020477
959.500000 3.091965
959.500000 3.164289
959.500000 3.237449
959.500000 3.311446
959.500000 3.386278
959.500000 3.461947
959.500000 3.538452
959.500000 3.615793
959.500000 3.693970
959.500000 3.772983
959.500000 3.852832
959.500000 3.933517
959.500000 4.015039
959.500000 4.097397
959.500000 4.180590
959.500000 4.264620
959.500000 4.349486
959.500000 4.435188
959.500000 4.521727
959.500000 4.609101
959.500000 4.697311
959.500000 4.786358
959.500000 4.876241
959.500000 4.966959
959.500000 5.058514
959.500000 5.150905
959.500000 5.244133
959.500000 5.338196
959.500000 5.433095
959.500000 5.528831
959.500000 5.625402
959.500000 5.722810
959.500000 5.821054
959.500000 5.920134
959.500000 6.020050
959.500000 6.120802
959.500000 6.222391
959.500000 6.324815
959.500000 6.428076
959.500000 6.532172
959.500000 6.637105
959.500000 6.742874
959.500000 6.849479
959.500000 6.956920
959.500000 7.065198
959.500000 7.174311
959.500000 7.284261
959.500000 7.395046
959.500000 7.506668
959.500000 7.619126
959.500000 7.732420
959.500000 7.846550
959.500000 7.961516
959.500000 8.077319
959.500000 8.193957
959.500000 8.311432
959.500000 8.429742
959.500000 8.548889
959.500000 8.668872
959.500000 8.789691
959.500000 8.911346
959.500000 9.033838
959.500000 9.157165
959.500000 9.281329
959.500000 9.406328
959.500000 9.532164
959.500000 9.658836
959.500000 9.786344
959.500000 9.914688
959.500000 10.043868
959.500000 10.173885
959.500000 10.304737
959.500000 10.436426
959.500000 10.568950
959.500000 10.702311
959.500000 10.836508
959.500000 10.971541
959.500000 11.107411
959.500000 11.244116
959.500000 11.381657
959.500000 11.520035
959.500000 11.659248
959.500000 11.799298
959.500000 11.940184
959.500000 12.081906
959.500000 12.224464
959.500000 12.367859
959.500000 12.512089
959.500000 12.657155
959.500000 12.803058
959.500000 12.949797
959.500000 13.097372
959.500000 13.245782
959.500000 13.395030
959.500000 13.545113
959.500000 13.696032
959.500000 13.847787
959.500000 14.000379
959.500000 14.153807
959.500000 14.308070
959.500000 14.463170
959.500000 14.619106
959.500000 14.775879
959.500000 14.933487
959.500000 15.091931
959.500000 15.251212
959.500000 15.411328
959.500000 15.572281
959.500000 15.734070
959.500000 15.896695
959.500000 16.060156
959.500000 16.224453
959.500000 16.389586
959.500000 16.555556
959.500000 16.722361
959.500000 16.890003
959.500000 17.058481
959.500000 17.227795
959.500000 17.397945
959.500000 17.568931
959.500000 17.740753
959.500000 17.913412
959.500000 18.086906
959.500000 18.261237
959.500000 18.436403
959.500000 18.612406
959.500000 18.789245
959.500000 18.966920
959.500000 19.145432
959.500000 19.324779
959.500000 19.504962
959.500000 19.685982
959.500000 19.867838
959.500000 20.050529
959.500000 20.234057
959.500000 20.418421
959.500000 20.603622
959.500000 20.789658
959.500000 20.976530
959.500000 21.164239
959.500000 21.352783
959.500000 21.542164
959.500000 21.732381
959.500000 21.923434
959.500000 22.115323
959.500000 22.308048
959.500000 22.501610
959.500000 22.696007
959.500000 22.891241
959.500000 23.087310
959.500000 23.284216
959.500000 23.481958
959.500000 23.680536
959.500000 23.879950
959.500000 24.080200
959.500000 24.281287
959.500000 24.483209
959.500000 24.685968
959.500000 24.889563
959.500000 25.093994
959.500000 25.299261
959.500000 25.505364
959.500000 25.712303
959.500000 25.920078
959.500000 26.128690
959.500000 26.338137
959.500000 26.548421
959.500000 26.759541
959.500000 26.971497
959.500000 27.184289
959.500000 27.397917
959.500000 27.612381
959.500000 27.827682
959.500000 28.043818
959.500000 28.260791
959.500000 28.478600
959.500000 28.697244
959.500000 28.916725
959.500000 29.137043
959.500000 29.358196
959.500000 29.580185
959.500000 29.803011
959.500000 30.026672
959.500000 30.251170
959.500000 30.476504
959.500000 30.702674
959.500000 30.929680
959.500000 31.157522
959.500000 31.386200
959.500000 31.615715
959.500000 31.846065
959.500000 32.077252
959.500000 32.309275
959.500000 32.542133
959.500000 32.775828
959.500000 33.010360
959.500000 33.245727
959.500000 33.481930
959.500000 33.718970
959.500000 33.956845
959.500000 34.195557
959.500000 34.435105
959.500000 34.675489
959.500000 34.916709
959.500000 35.158765
959.500000 35.401657
959.500000 35.645386
959.500000 35.889950
959.500000 36.135351
959.500000 36.381588
959.500000 36.628660
959.500000 36.876569
959.500000 37.125315
959.500000 37.374896
959.500000 37.625313
959.500000 37.876567
959.500000 38.128656
959.500000 38.381582
959.500000 38.635344
959.500000 38.889942
959.500000 39.145376
959.500000 39.401646
959.500000 39.658752
959.500000 39.916695
959.500000 40.175473
959.500000 40.435088
959.500000 40.695539
959.500000 40.956826
959.500000 41.218949
959.500000 41.481908
959.500000 41.745703
959.500000 42.010334
959.500000 42.275802
959.500000 42.542106
959.500000 42.809245
959.500000 43.077221
959.500000 43.346033
959.500000 43.615681
959.500000 43.886165
959.500000 44.157486
959.500000 44.429642
959.500000 44.702635
959.500000 44.976463
959.500000 45.251128
959.500000 45.526629
959.500000 45.802966
959.500000 46.080139
959.500000 46.358148
959.500000 46.636994
959.500000 46.916675
959.500000 47.197193
959.500000 47.478547
959.500000 47.760736
959.500000 48.043762
959.500000 48.327625
959.500000 48.612323
959.500000 48.897857
959.500000 49.184227
959.500000 49.471434
959.500000 49.759477
959.500000 50.048355
959.500000 50.338070
959.500000 50.628621
959.500000 50.920009
959.500000 51.212232
959.500000 51.505291
959.500000 51.799187
959.500000 52.093918
959.500000 52.389486
959.500000 52.685890
959.500000 52.983130
959.500000 53.281206
959.500000 53.580118
959.500000 53.879867
959.500000 54.180451
959.500000 54.481872
959.500000 54.784128
959.500000 55.087221
959.500000 55.391150
959.500000 55.695915
959.500000 56.001516
959.500000 56.307953
959.500000 56.615227
959.500000 56.923336
959.500000 57.232282
959.500000 57.542064
959.500000 57.852682
959.500000 58.164136
959.500000 58.476426
959.500000 58.789552
959.500000 59.103514
959.500000 59.418313
959.500000 59.733947
959.500000 60.050418
959.500000 60.367725
959.500000 60.685868
959.500000 61.004847
959.500000 61.324662
959.500000 61.645313
959.500000 61.966801
959.500000 62.289124
959.500000 62.612284
959.500000 62.936279
959.500000 63.261111
959.500000 63.586779
959.500000 63.913283
959.500000 64.240624
959.500000 64.568800
959.500000 64.897812
959.500000 65.227661
959.500000 65.558346
959.500000 65.889867
959.500000 66.222223
959.500000 66.555417
959.500000 66.889446
959.500000 67.224311
959.500000 67.560012
959.500000 67.896550
959.500000 68.233924
959.500000 68.572133
959.500000 68.911179
959.500000 69.251061
959.500000 69.591779
959.500000 69.933334
959.500000 70.275724
959.500000 70.618950
959.500000 70.963013
959.500000 71.307912
959.500000 71.653646
959.500000 72.000217
959.500000 72.347624
959.500000 72.695868
959.500000 73.044947
959.500000 73.394862
959.500000 73.745614
959.500000 74.097202
959.500000 74.449625
959.500000 74.802885
959.500000 75.156981
959.500000 75.511913
959.500000 75.867682
959.500000 76.224286
959.500000 76.581726
959.500000 76.940003
959.500000 77.299116
959.500000 77.659064
959.500000 78.019849
959.500000 78.381471
959.500000 78.743928
959.500000 79.107221
959.500000 79.471350
959.500000 79.836316
959.500000 80.202118
959.500000 80.568755
959.500000 80.936229
959.500000 81.304539
959.500000 81.673685
959.500000 82.043668
959.500000 82.414486
959.500000 82.786141
959.500000 83.158631
959.500000 83.531958
959.500000 83.906121
959.500000 84.281120
959.500000 84.656955
959.500000 85.033626
959.500000 85.411133
959.500000 85.789477
959.500000 86.168656
959.500000 86.548672
959.500000 86.929524
959.500000 87.311212
959.500000 87.693736
959.500000 88.077096
959.500000 88.461292
959.500000 88.846324
959.500000 89.232193
959.500000 89.618897
959.500000 90.006438
959.500000 90.394815
959.500000 90.784028
959.500000 91.174077
959.500000 91.564962
959.500000 91.956684
959.500000 92.349241
959.500000 92.742634
959.500000 93.136864
959.500000 93.531930
959.500000 93.927832
959.500000 94.324570
959.500000 94.722144
959.500000 95.120554
959.500000 95.519801
959.500000 95.919883
959.500000 96.320802
959.500000 96.722557
959.500000 97.125147
959.500000 97.528574
959.500000 97.932837
959.500000 98.337937
959.500000 98.743872
959.500000 99.150643
959.500000 99.558251
959.500000 99.966695
959.500000 100.375974
959.500000 100.786090
959.500000 101.197042
959.500000 101.608831
959.500000 102.021455
959.500000 102.434915
959.500000 102.849212
959.500000 103.264344
959.500000 103.680313
959.500000 104.097118
959.500000 104.514759
959.500000 104.933236
959.500000 105.352549
959.500000 105.772699
959.500000 106.193684
959.500000 106.615506
959.500000 107.038163
959.500000 107.461657
959.500000 107.885987
959.500000 108.311153
959.500000 108.737155
959.500000 109.163993
959.500000 109.591668
959.500000 110.020178
959.500000 110.449525
959.500000 110.879708
959.500000 111.310727
959.500000 111.742582
959.500000 112.175273
959.500000 112.608800
959.500000 113.043163
959.500000 113.478363
959.500000 113.914398
959.500000 114.351270
959.500000 114.788978
959.500000 115.227522
959.500000 115.666902
959.500000 116.107118
959.500000 116.548170
959.500000 116.990059
959.500000 117.432783
959.500000 117.876344
959.500000 118.320740
959.500000 118.765973
959.500000 119.212042
959.500000 119.658947
959.500000 120.106689
959.500000 120.555266
959.500000 121.004679
959.500000 121.454929
959.500000 121.906015
959.500000 122.357937
959.500000 122.810695
959.500000 123.264289
959.500000 123.718719
959.500000 124.173985
959.500000 124.630087
959.500000 125.087026
959.500000 125.544801
959.500000 126.003411
959.500000 126.462858
959.500000 126.923141
959.500000 127.384260
959.500000 127.846216
959.500000 128.309007
959.500000 128.772634
959.500000 129.237098
959.500000 129.702398
959.500000 130.168534
959.500000 130.635505
959.500000 131.103314
959.500000 131.571958
959.500000 132.041438
959.500000 132.511754
959.500000 132.982907
959.500000 133.454896
959.500000 133.927720
959.500000 134.401381
959.500000 134.875878
959.500000 135.351211
959.500000 135.827381
959.500000 136.304386
959.500000 136.782227
959.500000 137.260905
959.500000 137.740419
959.500000 138.220769
959.500000 138.701955
959.500000 139.183977
959.500000 139.666835
959.500000 140.150529
959.500000 140.635060
959.500000 141.120426
959.500000 141.606629
959.500000 142.093668
959.500000 142.581542
959.500000 143.070253
959.500000 143.559801
959.500000 144.050184
959.500000 144.541403
959.500000 145.033459
959.500000 145.526350
959.500000 146.020078
959.500000 146.514642
959.500000 147.010042
959.500000 147.506278
959.500000 148.003350
959.500000 148.501258
959.500000 149.000003
959.500000 149.499583
959.500000 150.000000
</POINTS>
</NEKTAR>

