<?xml version="1.0" encoding="utf-8" ?>
<NEKTAR>
<POINTS DIM="2" FIELDS="">
799.500000 0.000000
799.500000 0.000418
799.500000 0.001672
799.500000 0.003763
799.500000 0.006689
799.500000 0.010451
799.500000 0.015050
799.500000 0.020485
799.500000 0.026756
799.500000 0.033863
799.500000 0.041806
799.500000 0.050585
799.500000 0.060201
799.500000 0.070652
799.500000 0.081940
799.500000 0.094063
799.500000 0.107023
799.500000 0.120819
799.500000 0.135451
799.500000 0.150919
799.500000 0.167224
799.500000 0.184364
799.500000 0.202341
799.500000 0.221153
799.500000 0.240802
799.500000 0.261287
799.500000 0.282608
799.500000 0.304765
799.500000 0.327758
799.500000 0.351588
799.500000 0.376253
799.500000 0.401755
799.500000 0.428092
799.500000 0.455266
799.500000 0.483276
799.500000 0.512122
799.500000 0.541805
799.500000 0.572323
799.500000 0.603677
799.500000 0.635868
799.500000 0.668894
799.500000 0.702757
799.500000 0.737456
799.500000 0.772991
799.500000 0.809362
799.500000 0.846570
799.500000 0.884613
799.500000 0.923492
799.500000 0.963208
799.500000 1.003760
799.500000 1.045148
799.500000 1.087372
799.500000 1.130432
799.500000 1.174328
799.500000 1.219060
799.500000 1.264629
799.500000 1.311033
799.500000 1.358274
799.500000 1.406351
799.500000 1.455264
799.500000 1.505013
799.500000 1.555598
799.500000 1.607019
799.500000 1.659276
799.500000 1.712370
799.500000 1.766299
799.500000 1.821065
799.500000 1.876667
799.500000 1.933105
799.500000 1.990379
799.500000 2.048489
799.500000 2.107436
799.500000 2.167218
799.500000 2.227837
799.500000 2.289291
799.500000 2.351582
799.500000 2.414709
799.500000 2.478672
799.500000 2.543471
799.500000 2.609106
799.500000 2.675578
799.500000 2.742885
799.500000 2.811029
799.500000 2.880009
799.500000 2.949825
799.500000 3.020477
799.500000 3.091965
799.500000 3.164289
799.500000 3.237449
799.500000 3.311446
799.500000 3.386278
799.500000 3.461947
799.500000 3.538452
799.500000 3.615793
799.500000 3.693970
799.500000 3.772983
799.500000 3.852832
799.500000 3.933517
799.500000 4.015039
799.500000 4.097397
799.500000 4.180590
799.500000 4.264620
799.500000 4.349486
799.500000 4.435188
799.500000 4.521727
799.500000 4.609101
799.500000 4.697311
799.500000 4.786358
799.500000 4.876241
799.500000 4.966959
799.500000 5.058514
799.500000 5.150905
799.500000 5.244133
799.500000 5.338196
799.500000 5.433095
799.500000 5.528831
799.500000 5.625402
799.500000 5.722810
799.500000 5.821054
799.500000 5.920134
799.500000 6.020050
799.500000 6.120802
799.500000 6.222391
799.500000 6.324815
799.500000 6.428076
799.500000 6.532172
799.500000 6.637105
799.500000 6.742874
799.500000 6.849479
799.500000 6.956920
799.500000 7.065198
799.500000 7.174311
799.500000 7.284261
799.500000 7.395046
799.500000 7.506668
799.500000 7.619126
799.500000 7.732420
799.500000 7.846550
799.500000 7.961516
799.500000 8.077319
799.500000 8.193957
799.500000 8.311432
799.500000 8.429742
799.500000 8.548889
799.500000 8.668872
799.500000 8.789691
799.500000 8.911346
799.500000 9.033838
799.500000 9.157165
799.500000 9.281329
799.500000 9.406328
799.500000 9.532164
799.500000 9.658836
799.500000 9.786344
799.500000 9.914688
799.500000 10.043868
799.500000 10.173885
799.500000 10.304737
799.500000 10.436426
799.500000 10.568950
799.500000 10.702311
799.500000 10.836508
799.500000 10.971541
799.500000 11.107411
799.500000 11.244116
799.500000 11.381657
799.500000 11.520035
799.500000 11.659248
799.500000 11.799298
799.500000 11.940184
799.500000 12.081906
799.500000 12.224464
799.500000 12.367859
799.500000 12.512089
799.500000 12.657155
799.500000 12.803058
799.500000 12.949797
799.500000 13.097372
799.500000 13.245782
799.500000 13.395030
799.500000 13.545113
799.500000 13.696032
799.500000 13.847787
799.500000 14.000379
799.500000 14.153807
799.500000 14.308070
799.500000 14.463170
799.500000 14.619106
799.500000 14.775879
799.500000 14.933487
799.500000 15.091931
799.500000 15.251212
799.500000 15.411328
799.500000 15.572281
799.500000 15.734070
799.500000 15.896695
799.500000 16.060156
799.500000 16.224453
799.500000 16.389586
799.500000 16.555556
799.500000 16.722361
799.500000 16.890003
799.500000 17.058481
799.500000 17.227795
799.500000 17.397945
799.500000 17.568931
799.500000 17.740753
799.500000 17.913412
799.500000 18.086906
799.500000 18.261237
799.500000 18.436403
799.500000 18.612406
799.500000 18.789245
799.500000 18.966920
799.500000 19.145432
799.500000 19.324779
799.500000 19.504962
799.500000 19.685982
799.500000 19.867838
799.500000 20.050529
799.500000 20.234057
799.500000 20.418421
799.500000 20.603622
799.500000 20.789658
799.500000 20.976530
799.500000 21.164239
799.500000 21.352783
799.500000 21.542164
799.500000 21.732381
799.500000 21.923434
799.500000 22.115323
799.500000 22.308048
799.500000 22.501610
799.500000 22.696007
799.500000 22.891241
799.500000 23.087310
799.500000 23.284216
799.500000 23.481958
799.500000 23.680536
799.500000 23.879950
799.500000 24.080200
799.500000 24.281287
799.500000 24.483209
799.500000 24.685968
799.500000 24.889563
799.500000 25.093994
799.500000 25.299261
799.500000 25.505364
799.500000 25.712303
799.500000 25.920078
799.500000 26.128690
799.500000 26.338137
799.500000 26.548421
799.500000 26.759541
799.500000 26.971497
799.500000 27.184289
799.500000 27.397917
799.500000 27.612381
799.500000 27.827682
799.500000 28.043818
799.500000 28.260791
799.500000 28.478600
799.500000 28.697244
799.500000 28.916725
799.500000 29.137043
799.500000 29.358196
799.500000 29.580185
799.500000 29.803011
799.500000 30.026672
799.500000 30.251170
799.500000 30.476504
799.500000 30.702674
799.500000 30.929680
799.500000 31.157522
799.500000 31.386200
799.500000 31.615715
799.500000 31.846065
799.500000 32.077252
799.500000 32.309275
799.500000 32.542133
799.500000 32.775828
799.500000 33.010360
799.500000 33.245727
799.500000 33.481930
799.500000 33.718970
799.500000 33.956845
799.500000 34.195557
799.500000 34.435105
799.500000 34.675489
799.500000 34.916709
799.500000 35.158765
799.500000 35.401657
799.500000 35.645386
799.500000 35.889950
799.500000 36.135351
799.500000 36.381588
799.500000 36.628660
799.500000 36.876569
799.500000 37.125315
799.500000 37.374896
799.500000 37.625313
799.500000 37.876567
799.500000 38.128656
799.500000 38.381582
799.500000 38.635344
799.500000 38.889942
799.500000 39.145376
799.500000 39.401646
799.500000 39.658752
799.500000 39.916695
799.500000 40.175473
799.500000 40.435088
799.500000 40.695539
799.500000 40.956826
799.500000 41.218949
799.500000 41.481908
799.500000 41.745703
799.500000 42.010334
799.500000 42.275802
799.500000 42.542106
799.500000 42.809245
799.500000 43.077221
799.500000 43.346033
799.500000 43.615681
799.500000 43.886165
799.500000 44.157486
799.500000 44.429642
799.500000 44.702635
799.500000 44.976463
799.500000 45.251128
799.500000 45.526629
799.500000 45.802966
799.500000 46.080139
799.500000 46.358148
799.500000 46.636994
799.500000 46.916675
799.500000 47.197193
799.500000 47.478547
799.500000 47.760736
799.500000 48.043762
799.500000 48.327625
799.500000 48.612323
799.500000 48.897857
799.500000 49.184227
799.500000 49.471434
799.500000 49.759477
799.500000 50.048355
799.500000 50.338070
799.500000 50.628621
799.500000 50.920009
799.500000 51.212232
799.500000 51.505291
799.500000 51.799187
799.500000 52.093918
799.500000 52.389486
799.500000 52.685890
799.500000 52.983130
799.500000 53.281206
799.500000 53.580118
799.500000 53.879867
799.500000 54.180451
799.500000 54.481872
799.500000 54.784128
799.500000 55.087221
799.500000 55.391150
799.500000 55.695915
799.500000 56.001516
799.500000 56.307953
799.500000 56.615227
799.500000 56.923336
799.500000 57.232282
799.500000 57.542064
799.500000 57.852682
799.500000 58.164136
799.500000 58.476426
799.500000 58.789552
799.500000 59.103514
799.500000 59.418313
799.500000 59.733947
799.500000 60.050418
799.500000 60.367725
799.500000 60.685868
799.500000 61.004847
799.500000 61.324662
799.500000 61.645313
799.500000 61.966801
799.500000 62.289124
799.500000 62.612284
799.500000 62.936279
799.500000 63.261111
799.500000 63.586779
799.500000 63.913283
799.500000 64.240624
799.500000 64.568800
799.500000 64.897812
799.500000 65.227661
799.500000 65.558346
799.500000 65.889867
799.500000 66.222223
799.500000 66.555417
799.500000 66.889446
799.500000 67.224311
799.500000 67.560012
799.500000 67.896550
799.500000 68.233924
799.500000 68.572133
799.500000 68.911179
799.500000 69.251061
799.500000 69.591779
799.500000 69.933334
799.500000 70.275724
799.500000 70.618950
799.500000 70.963013
799.500000 71.307912
799.500000 71.653646
799.500000 72.000217
799.500000 72.347624
799.500000 72.695868
799.500000 73.044947
799.500000 73.394862
799.500000 73.745614
799.500000 74.097202
799.500000 74.449625
799.500000 74.802885
799.500000 75.156981
799.500000 75.511913
799.500000 75.867682
799.500000 76.224286
799.500000 76.581726
799.500000 76.940003
799.500000 77.299116
799.500000 77.659064
799.500000 78.019849
799.500000 78.381471
799.500000 78.743928
799.500000 79.107221
799.500000 79.471350
799.500000 79.836316
799.500000 80.202118
799.500000 80.568755
799.500000 80.936229
799.500000 81.304539
799.500000 81.673685
799.500000 82.043668
799.500000 82.414486
799.500000 82.786141
799.500000 83.158631
799.500000 83.531958
799.500000 83.906121
799.500000 84.281120
799.500000 84.656955
799.500000 85.033626
799.500000 85.411133
799.500000 85.789477
799.500000 86.168656
799.500000 86.548672
799.500000 86.929524
799.500000 87.311212
799.500000 87.693736
799.500000 88.077096
799.500000 88.461292
799.500000 88.846324
799.500000 89.232193
799.500000 89.618897
799.500000 90.006438
799.500000 90.394815
799.500000 90.784028
799.500000 91.174077
799.500000 91.564962
799.500000 91.956684
799.500000 92.349241
799.500000 92.742634
799.500000 93.136864
799.500000 93.531930
799.500000 93.927832
799.500000 94.324570
799.500000 94.722144
799.500000 95.120554
799.500000 95.519801
799.500000 95.919883
799.500000 96.320802
799.500000 96.722557
799.500000 97.125147
799.500000 97.528574
799.500000 97.932837
799.500000 98.337937
799.500000 98.743872
799.500000 99.150643
799.500000 99.558251
799.500000 99.966695
799.500000 100.375974
799.500000 100.786090
799.500000 101.197042
799.500000 101.608831
799.500000 102.021455
799.500000 102.434915
799.500000 102.849212
799.500000 103.264344
799.500000 103.680313
799.500000 104.097118
799.500000 104.514759
799.500000 104.933236
799.500000 105.352549
799.500000 105.772699
799.500000 106.193684
799.500000 106.615506
799.500000 107.038163
799.500000 107.461657
799.500000 107.885987
799.500000 108.311153
799.500000 108.737155
799.500000 109.163993
799.500000 109.591668
799.500000 110.020178
799.500000 110.449525
799.500000 110.879708
799.500000 111.310727
799.500000 111.742582
799.500000 112.175273
799.500000 112.608800
799.500000 113.043163
799.500000 113.478363
799.500000 113.914398
799.500000 114.351270
799.500000 114.788978
799.500000 115.227522
799.500000 115.666902
799.500000 116.107118
799.500000 116.548170
799.500000 116.990059
799.500000 117.432783
799.500000 117.876344
799.500000 118.320740
799.500000 118.765973
799.500000 119.212042
799.500000 119.658947
799.500000 120.106689
799.500000 120.555266
799.500000 121.004679
799.500000 121.454929
799.500000 121.906015
799.500000 122.357937
799.500000 122.810695
799.500000 123.264289
799.500000 123.718719
799.500000 124.173985
799.500000 124.630087
799.500000 125.087026
799.500000 125.544801
799.500000 126.003411
799.500000 126.462858
799.500000 126.923141
799.500000 127.384260
799.500000 127.846216
799.500000 128.309007
799.500000 128.772634
799.500000 129.237098
799.500000 129.702398
799.500000 130.168534
799.500000 130.635505
799.500000 131.103314
799.500000 131.571958
799.500000 132.041438
799.500000 132.511754
799.500000 132.982907
799.500000 133.454896
799.500000 133.927720
799.500000 134.401381
799.500000 134.875878
799.500000 135.351211
799.500000 135.827381
799.500000 136.304386
799.500000 136.782227
799.500000 137.260905
799.500000 137.740419
799.500000 138.220769
799.500000 138.701955
799.500000 139.183977
799.500000 139.666835
799.500000 140.150529
799.500000 140.635060
799.500000 141.120426
799.500000 141.606629
799.500000 142.093668
799.500000 142.581542
799.500000 143.070253
799.500000 143.559801
799.500000 144.050184
799.500000 144.541403
799.500000 145.033459
799.500000 145.526350
799.500000 146.020078
799.500000 146.514642
799.500000 147.010042
799.500000 147.506278
799.500000 148.003350
799.500000 148.501258
799.500000 149.000003
799.500000 149.499583
799.500000 150.000000
</POINTS>
</NEKTAR>

