<?xml version="1.0" encoding="utf-8" ?>
<NEKTAR>
<POINTS DIM="2" FIELDS="">
559.500000 0.000000
559.500000 0.000418
559.500000 0.001672
559.500000 0.003763
559.500000 0.006689
559.500000 0.010451
559.500000 0.015050
559.500000 0.020485
559.500000 0.026756
559.500000 0.033863
559.500000 0.041806
559.500000 0.050585
559.500000 0.060201
559.500000 0.070652
559.500000 0.081940
559.500000 0.094063
559.500000 0.107023
559.500000 0.120819
559.500000 0.135451
559.500000 0.150919
559.500000 0.167224
559.500000 0.184364
559.500000 0.202341
559.500000 0.221153
559.500000 0.240802
559.500000 0.261287
559.500000 0.282608
559.500000 0.304765
559.500000 0.327758
559.500000 0.351588
559.500000 0.376253
559.500000 0.401755
559.500000 0.428092
559.500000 0.455266
559.500000 0.483276
559.500000 0.512122
559.500000 0.541805
559.500000 0.572323
559.500000 0.603677
559.500000 0.635868
559.500000 0.668894
559.500000 0.702757
559.500000 0.737456
559.500000 0.772991
559.500000 0.809362
559.500000 0.846570
559.500000 0.884613
559.500000 0.923492
559.500000 0.963208
559.500000 1.003760
559.500000 1.045148
559.500000 1.087372
559.500000 1.130432
559.500000 1.174328
559.500000 1.219060
559.500000 1.264629
559.500000 1.311033
559.500000 1.358274
559.500000 1.406351
559.500000 1.455264
559.500000 1.505013
559.500000 1.555598
559.500000 1.607019
559.500000 1.659276
559.500000 1.712370
559.500000 1.766299
559.500000 1.821065
559.500000 1.876667
559.500000 1.933105
559.500000 1.990379
559.500000 2.048489
559.500000 2.107436
559.500000 2.167218
559.500000 2.227837
559.500000 2.289291
559.500000 2.351582
559.500000 2.414709
559.500000 2.478672
559.500000 2.543471
559.500000 2.609106
559.500000 2.675578
559.500000 2.742885
559.500000 2.811029
559.500000 2.880009
559.500000 2.949825
559.500000 3.020477
559.500000 3.091965
559.500000 3.164289
559.500000 3.237449
559.500000 3.311446
559.500000 3.386278
559.500000 3.461947
559.500000 3.538452
559.500000 3.615793
559.500000 3.693970
559.500000 3.772983
559.500000 3.852832
559.500000 3.933517
559.500000 4.015039
559.500000 4.097397
559.500000 4.180590
559.500000 4.264620
559.500000 4.349486
559.500000 4.435188
559.500000 4.521727
559.500000 4.609101
559.500000 4.697311
559.500000 4.786358
559.500000 4.876241
559.500000 4.966959
559.500000 5.058514
559.500000 5.150905
559.500000 5.244133
559.500000 5.338196
559.500000 5.433095
559.500000 5.528831
559.500000 5.625402
559.500000 5.722810
559.500000 5.821054
559.500000 5.920134
559.500000 6.020050
559.500000 6.120802
559.500000 6.222391
559.500000 6.324815
559.500000 6.428076
559.500000 6.532172
559.500000 6.637105
559.500000 6.742874
559.500000 6.849479
559.500000 6.956920
559.500000 7.065198
559.500000 7.174311
559.500000 7.284261
559.500000 7.395046
559.500000 7.506668
559.500000 7.619126
559.500000 7.732420
559.500000 7.846550
559.500000 7.961516
559.500000 8.077319
559.500000 8.193957
559.500000 8.311432
559.500000 8.429742
559.500000 8.548889
559.500000 8.668872
559.500000 8.789691
559.500000 8.911346
559.500000 9.033838
559.500000 9.157165
559.500000 9.281329
559.500000 9.406328
559.500000 9.532164
559.500000 9.658836
559.500000 9.786344
559.500000 9.914688
559.500000 10.043868
559.500000 10.173885
559.500000 10.304737
559.500000 10.436426
559.500000 10.568950
559.500000 10.702311
559.500000 10.836508
559.500000 10.971541
559.500000 11.107411
559.500000 11.244116
559.500000 11.381657
559.500000 11.520035
559.500000 11.659248
559.500000 11.799298
559.500000 11.940184
559.500000 12.081906
559.500000 12.224464
559.500000 12.367859
559.500000 12.512089
559.500000 12.657155
559.500000 12.803058
559.500000 12.949797
559.500000 13.097372
559.500000 13.245782
559.500000 13.395030
559.500000 13.545113
559.500000 13.696032
559.500000 13.847787
559.500000 14.000379
559.500000 14.153807
559.500000 14.308070
559.500000 14.463170
559.500000 14.619106
559.500000 14.775879
559.500000 14.933487
559.500000 15.091931
559.500000 15.251212
559.500000 15.411328
559.500000 15.572281
559.500000 15.734070
559.500000 15.896695
559.500000 16.060156
559.500000 16.224453
559.500000 16.389586
559.500000 16.555556
559.500000 16.722361
559.500000 16.890003
559.500000 17.058481
559.500000 17.227795
559.500000 17.397945
559.500000 17.568931
559.500000 17.740753
559.500000 17.913412
559.500000 18.086906
559.500000 18.261237
559.500000 18.436403
559.500000 18.612406
559.500000 18.789245
559.500000 18.966920
559.500000 19.145432
559.500000 19.324779
559.500000 19.504962
559.500000 19.685982
559.500000 19.867838
559.500000 20.050529
559.500000 20.234057
559.500000 20.418421
559.500000 20.603622
559.500000 20.789658
559.500000 20.976530
559.500000 21.164239
559.500000 21.352783
559.500000 21.542164
559.500000 21.732381
559.500000 21.923434
559.500000 22.115323
559.500000 22.308048
559.500000 22.501610
559.500000 22.696007
559.500000 22.891241
559.500000 23.087310
559.500000 23.284216
559.500000 23.481958
559.500000 23.680536
559.500000 23.879950
559.500000 24.080200
559.500000 24.281287
559.500000 24.483209
559.500000 24.685968
559.500000 24.889563
559.500000 25.093994
559.500000 25.299261
559.500000 25.505364
559.500000 25.712303
559.500000 25.920078
559.500000 26.128690
559.500000 26.338137
559.500000 26.548421
559.500000 26.759541
559.500000 26.971497
559.500000 27.184289
559.500000 27.397917
559.500000 27.612381
559.500000 27.827682
559.500000 28.043818
559.500000 28.260791
559.500000 28.478600
559.500000 28.697244
559.500000 28.916725
559.500000 29.137043
559.500000 29.358196
559.500000 29.580185
559.500000 29.803011
559.500000 30.026672
559.500000 30.251170
559.500000 30.476504
559.500000 30.702674
559.500000 30.929680
559.500000 31.157522
559.500000 31.386200
559.500000 31.615715
559.500000 31.846065
559.500000 32.077252
559.500000 32.309275
559.500000 32.542133
559.500000 32.775828
559.500000 33.010360
559.500000 33.245727
559.500000 33.481930
559.500000 33.718970
559.500000 33.956845
559.500000 34.195557
559.500000 34.435105
559.500000 34.675489
559.500000 34.916709
559.500000 35.158765
559.500000 35.401657
559.500000 35.645386
559.500000 35.889950
559.500000 36.135351
559.500000 36.381588
559.500000 36.628660
559.500000 36.876569
559.500000 37.125315
559.500000 37.374896
559.500000 37.625313
559.500000 37.876567
559.500000 38.128656
559.500000 38.381582
559.500000 38.635344
559.500000 38.889942
559.500000 39.145376
559.500000 39.401646
559.500000 39.658752
559.500000 39.916695
559.500000 40.175473
559.500000 40.435088
559.500000 40.695539
559.500000 40.956826
559.500000 41.218949
559.500000 41.481908
559.500000 41.745703
559.500000 42.010334
559.500000 42.275802
559.500000 42.542106
559.500000 42.809245
559.500000 43.077221
559.500000 43.346033
559.500000 43.615681
559.500000 43.886165
559.500000 44.157486
559.500000 44.429642
559.500000 44.702635
559.500000 44.976463
559.500000 45.251128
559.500000 45.526629
559.500000 45.802966
559.500000 46.080139
559.500000 46.358148
559.500000 46.636994
559.500000 46.916675
559.500000 47.197193
559.500000 47.478547
559.500000 47.760736
559.500000 48.043762
559.500000 48.327625
559.500000 48.612323
559.500000 48.897857
559.500000 49.184227
559.500000 49.471434
559.500000 49.759477
559.500000 50.048355
559.500000 50.338070
559.500000 50.628621
559.500000 50.920009
559.500000 51.212232
559.500000 51.505291
559.500000 51.799187
559.500000 52.093918
559.500000 52.389486
559.500000 52.685890
559.500000 52.983130
559.500000 53.281206
559.500000 53.580118
559.500000 53.879867
559.500000 54.180451
559.500000 54.481872
559.500000 54.784128
559.500000 55.087221
559.500000 55.391150
559.500000 55.695915
559.500000 56.001516
559.500000 56.307953
559.500000 56.615227
559.500000 56.923336
559.500000 57.232282
559.500000 57.542064
559.500000 57.852682
559.500000 58.164136
559.500000 58.476426
559.500000 58.789552
559.500000 59.103514
559.500000 59.418313
559.500000 59.733947
559.500000 60.050418
559.500000 60.367725
559.500000 60.685868
559.500000 61.004847
559.500000 61.324662
559.500000 61.645313
559.500000 61.966801
559.500000 62.289124
559.500000 62.612284
559.500000 62.936279
559.500000 63.261111
559.500000 63.586779
559.500000 63.913283
559.500000 64.240624
559.500000 64.568800
559.500000 64.897812
559.500000 65.227661
559.500000 65.558346
559.500000 65.889867
559.500000 66.222223
559.500000 66.555417
559.500000 66.889446
559.500000 67.224311
559.500000 67.560012
559.500000 67.896550
559.500000 68.233924
559.500000 68.572133
559.500000 68.911179
559.500000 69.251061
559.500000 69.591779
559.500000 69.933334
559.500000 70.275724
559.500000 70.618950
559.500000 70.963013
559.500000 71.307912
559.500000 71.653646
559.500000 72.000217
559.500000 72.347624
559.500000 72.695868
559.500000 73.044947
559.500000 73.394862
559.500000 73.745614
559.500000 74.097202
559.500000 74.449625
559.500000 74.802885
559.500000 75.156981
559.500000 75.511913
559.500000 75.867682
559.500000 76.224286
559.500000 76.581726
559.500000 76.940003
559.500000 77.299116
559.500000 77.659064
559.500000 78.019849
559.500000 78.381471
559.500000 78.743928
559.500000 79.107221
559.500000 79.471350
559.500000 79.836316
559.500000 80.202118
559.500000 80.568755
559.500000 80.936229
559.500000 81.304539
559.500000 81.673685
559.500000 82.043668
559.500000 82.414486
559.500000 82.786141
559.500000 83.158631
559.500000 83.531958
559.500000 83.906121
559.500000 84.281120
559.500000 84.656955
559.500000 85.033626
559.500000 85.411133
559.500000 85.789477
559.500000 86.168656
559.500000 86.548672
559.500000 86.929524
559.500000 87.311212
559.500000 87.693736
559.500000 88.077096
559.500000 88.461292
559.500000 88.846324
559.500000 89.232193
559.500000 89.618897
559.500000 90.006438
559.500000 90.394815
559.500000 90.784028
559.500000 91.174077
559.500000 91.564962
559.500000 91.956684
559.500000 92.349241
559.500000 92.742634
559.500000 93.136864
559.500000 93.531930
559.500000 93.927832
559.500000 94.324570
559.500000 94.722144
559.500000 95.120554
559.500000 95.519801
559.500000 95.919883
559.500000 96.320802
559.500000 96.722557
559.500000 97.125147
559.500000 97.528574
559.500000 97.932837
559.500000 98.337937
559.500000 98.743872
559.500000 99.150643
559.500000 99.558251
559.500000 99.966695
559.500000 100.375974
559.500000 100.786090
559.500000 101.197042
559.500000 101.608831
559.500000 102.021455
559.500000 102.434915
559.500000 102.849212
559.500000 103.264344
559.500000 103.680313
559.500000 104.097118
559.500000 104.514759
559.500000 104.933236
559.500000 105.352549
559.500000 105.772699
559.500000 106.193684
559.500000 106.615506
559.500000 107.038163
559.500000 107.461657
559.500000 107.885987
559.500000 108.311153
559.500000 108.737155
559.500000 109.163993
559.500000 109.591668
559.500000 110.020178
559.500000 110.449525
559.500000 110.879708
559.500000 111.310727
559.500000 111.742582
559.500000 112.175273
559.500000 112.608800
559.500000 113.043163
559.500000 113.478363
559.500000 113.914398
559.500000 114.351270
559.500000 114.788978
559.500000 115.227522
559.500000 115.666902
559.500000 116.107118
559.500000 116.548170
559.500000 116.990059
559.500000 117.432783
559.500000 117.876344
559.500000 118.320740
559.500000 118.765973
559.500000 119.212042
559.500000 119.658947
559.500000 120.106689
559.500000 120.555266
559.500000 121.004679
559.500000 121.454929
559.500000 121.906015
559.500000 122.357937
559.500000 122.810695
559.500000 123.264289
559.500000 123.718719
559.500000 124.173985
559.500000 124.630087
559.500000 125.087026
559.500000 125.544801
559.500000 126.003411
559.500000 126.462858
559.500000 126.923141
559.500000 127.384260
559.500000 127.846216
559.500000 128.309007
559.500000 128.772634
559.500000 129.237098
559.500000 129.702398
559.500000 130.168534
559.500000 130.635505
559.500000 131.103314
559.500000 131.571958
559.500000 132.041438
559.500000 132.511754
559.500000 132.982907
559.500000 133.454896
559.500000 133.927720
559.500000 134.401381
559.500000 134.875878
559.500000 135.351211
559.500000 135.827381
559.500000 136.304386
559.500000 136.782227
559.500000 137.260905
559.500000 137.740419
559.500000 138.220769
559.500000 138.701955
559.500000 139.183977
559.500000 139.666835
559.500000 140.150529
559.500000 140.635060
559.500000 141.120426
559.500000 141.606629
559.500000 142.093668
559.500000 142.581542
559.500000 143.070253
559.500000 143.559801
559.500000 144.050184
559.500000 144.541403
559.500000 145.033459
559.500000 145.526350
559.500000 146.020078
559.500000 146.514642
559.500000 147.010042
559.500000 147.506278
559.500000 148.003350
559.500000 148.501258
559.500000 149.000003
559.500000 149.499583
559.500000 150.000000
</POINTS>
</NEKTAR>

