<?xml version="1.0" encoding="utf-8" ?>
<NEKTAR>
<POINTS DIM="2" FIELDS="">
13.500000 -3.000000
13.500000 -2.999574
13.500000 -2.998294
13.500000 -2.996162
13.500000 -2.993177
13.500000 -2.989339
13.500000 -2.984649
13.500000 -2.979105
13.500000 -2.972709
13.500000 -2.965460
13.500000 -2.957358
13.500000 -2.948403
13.500000 -2.938595
13.500000 -2.927935
13.500000 -2.916422
13.500000 -2.904055
13.500000 -2.890836
13.500000 -2.876765
13.500000 -2.861840
13.500000 -2.846062
13.500000 -2.829432
13.500000 -2.811949
13.500000 -2.793613
13.500000 -2.774424
13.500000 -2.754382
13.500000 -2.733487
13.500000 -2.711740
13.500000 -2.689140
13.500000 -2.665687
13.500000 -2.641381
13.500000 -2.616222
13.500000 -2.590210
13.500000 -2.563346
13.500000 -2.535628
13.500000 -2.507058
13.500000 -2.477635
13.500000 -2.447359
13.500000 -2.416231
13.500000 -2.384249
13.500000 -2.351415
13.500000 -2.317728
13.500000 -2.283188
13.500000 -2.247795
13.500000 -2.211549
13.500000 -2.174450
13.500000 -2.136499
13.500000 -2.097695
13.500000 -2.058038
13.500000 -2.017528
13.500000 -1.976165
13.500000 -1.933949
13.500000 -1.890881
13.500000 -1.846960
13.500000 -1.802186
13.500000 -1.756559
13.500000 -1.710079
13.500000 -1.662746
13.500000 -1.614561
13.500000 -1.565522
13.500000 -1.515631
13.500000 -1.464887
13.500000 -1.413290
13.500000 -1.360841
13.500000 -1.307538
13.500000 -1.253383
13.500000 -1.198375
13.500000 -1.142514
13.500000 -1.085800
13.500000 -1.028233
13.500000 -0.969813
13.500000 -0.910541
13.500000 -0.850416
13.500000 -0.789438
13.500000 -0.727607
13.500000 -0.664923
13.500000 -0.601386
13.500000 -0.536997
13.500000 -0.471755
13.500000 -0.405659
13.500000 -0.338711
13.500000 -0.270911
13.500000 -0.202257
13.500000 -0.132750
13.500000 -0.062391
13.500000 0.008821
13.500000 0.080886
13.500000 0.153804
13.500000 0.227575
13.500000 0.302198
13.500000 0.377675
13.500000 0.454004
13.500000 0.531186
13.500000 0.609221
13.500000 0.688108
13.500000 0.767849
13.500000 0.848442
13.500000 0.929889
13.500000 1.012188
13.500000 1.095340
13.500000 1.179345
13.500000 1.264202
13.500000 1.349913
13.500000 1.436476
13.500000 1.523892
13.500000 1.612161
13.500000 1.701283
13.500000 1.791258
13.500000 1.882085
13.500000 1.973765
13.500000 2.066299
13.500000 2.159685
13.500000 2.253923
13.500000 2.349015
13.500000 2.444960
13.500000 2.541757
13.500000 2.639407
13.500000 2.737910
13.500000 2.837266
13.500000 2.937475
13.500000 3.038537
13.500000 3.140451
13.500000 3.243218
13.500000 3.346838
13.500000 3.451311
13.500000 3.556637
13.500000 3.662816
13.500000 3.769847
13.500000 3.877732
13.500000 3.986469
13.500000 4.096059
13.500000 4.206502
13.500000 4.317797
13.500000 4.429946
13.500000 4.542947
13.500000 4.656801
13.500000 4.771508
13.500000 4.887068
13.500000 5.003481
13.500000 5.120747
13.500000 5.238865
13.500000 5.357836
13.500000 5.477660
13.500000 5.598337
13.500000 5.719867
13.500000 5.842250
13.500000 5.965485
13.500000 6.089573
13.500000 6.214514
13.500000 6.340308
13.500000 6.466955
13.500000 6.594455
13.500000 6.722807
13.500000 6.852013
13.500000 6.982071
13.500000 7.112982
13.500000 7.244746
13.500000 7.377362
13.500000 7.510832
13.500000 7.645154
13.500000 7.780329
13.500000 7.916358
13.500000 8.053238
13.500000 8.190972
13.500000 8.329559
13.500000 8.468998
13.500000 8.609290
13.500000 8.750435
13.500000 8.892433
13.500000 9.035284
13.500000 9.178988
13.500000 9.323544
13.500000 9.468954
13.500000 9.615216
13.500000 9.762331
13.500000 9.910298
13.500000 10.059119
13.500000 10.208793
13.500000 10.359319
13.500000 10.510698
13.500000 10.662930
13.500000 10.816015
13.500000 10.969953
13.500000 11.124743
13.500000 11.280387
13.500000 11.436883
13.500000 11.594232
13.500000 11.752434
13.500000 11.911489
13.500000 12.071396
13.500000 12.232157
13.500000 12.393770
13.500000 12.556236
13.500000 12.719555
13.500000 12.883727
13.500000 13.048751
13.500000 13.214629
13.500000 13.381359
13.500000 13.548942
13.500000 13.717378
13.500000 13.886667
13.500000 14.056809
13.500000 14.227803
13.500000 14.399651
13.500000 14.572351
13.500000 14.745904
13.500000 14.920310
13.500000 15.095568
13.500000 15.271680
13.500000 15.448644
13.500000 15.626461
13.500000 15.805132
13.500000 15.984654
13.500000 16.165030
13.500000 16.346259
13.500000 16.528340
13.500000 16.711274
13.500000 16.895062
13.500000 17.079702
13.500000 17.265194
13.500000 17.451540
13.500000 17.638738
13.500000 17.826790
13.500000 18.015694
13.500000 18.205451
13.500000 18.396061
13.500000 18.587523
13.500000 18.779839
13.500000 18.973007
13.500000 19.167029
13.500000 19.361903
13.500000 19.557629
13.500000 19.754209
13.500000 19.951642
13.500000 20.149927
13.500000 20.349065
13.500000 20.549056
13.500000 20.749900
13.500000 20.951597
13.500000 21.154147
13.500000 21.357549
13.500000 21.561804
13.500000 21.766913
13.500000 21.972874
13.500000 22.179687
13.500000 22.387354
13.500000 22.595873
13.500000 22.805246
13.500000 23.015471
13.500000 23.226549
13.500000 23.438480
13.500000 23.651264
13.500000 23.864900
13.500000 24.079389
13.500000 24.294732
13.500000 24.510927
13.500000 24.727975
13.500000 24.945875
13.500000 25.164629
13.500000 25.384235
13.500000 25.604695
13.500000 25.826007
13.500000 26.048172
13.500000 26.271189
13.500000 26.495060
13.500000 26.719783
13.500000 26.945360
13.500000 27.171789
13.500000 27.399071
13.500000 27.627206
13.500000 27.856193
13.500000 28.086034
13.500000 28.316727
13.500000 28.548273
13.500000 28.780672
13.500000 29.013924
13.500000 29.248029
13.500000 29.482986
13.500000 29.718797
13.500000 29.955460
13.500000 30.192976
13.500000 30.431345
13.500000 30.670567
13.500000 30.910641
13.500000 31.151569
13.500000 31.393349
13.500000 31.635982
13.500000 31.879468
13.500000 32.123807
13.500000 32.368998
13.500000 32.615043
13.500000 32.861940
13.500000 33.109690
13.500000 33.358293
13.500000 33.607749
13.500000 33.858058
13.500000 34.109219
13.500000 34.361234
13.500000 34.614101
13.500000 34.867821
13.500000 35.122394
13.500000 35.377819
13.500000 35.634098
13.500000 35.891229
13.500000 36.149214
13.500000 36.408051
13.500000 36.667741
13.500000 36.928283
13.500000 37.189679
13.500000 37.451927
13.500000 37.715029
13.500000 37.978983
13.500000 38.243790
13.500000 38.509450
13.500000 38.775962
13.500000 39.043328
13.500000 39.311546
13.500000 39.580617
13.500000 39.850541
13.500000 40.121318
13.500000 40.392948
13.500000 40.665430
13.500000 40.938765
13.500000 41.212954
13.500000 41.487995
13.500000 41.763889
13.500000 42.040635
13.500000 42.318235
13.500000 42.596687
13.500000 42.875993
13.500000 43.156151
13.500000 43.437162
13.500000 43.719025
13.500000 44.001742
13.500000 44.285311
13.500000 44.569734
13.500000 44.855009
13.500000 45.141137
13.500000 45.428118
13.500000 45.715951
13.500000 46.004638
13.500000 46.294177
13.500000 46.584569
13.500000 46.875814
13.500000 47.167912
13.500000 47.460863
13.500000 47.754666
13.500000 48.049323
13.500000 48.344832
13.500000 48.641194
13.500000 48.938409
13.500000 49.236476
13.500000 49.535397
13.500000 49.835170
13.500000 50.135797
13.500000 50.437276
13.500000 50.739608
13.500000 51.042793
13.500000 51.346830
13.500000 51.651721
13.500000 51.957464
13.500000 52.264060
13.500000 52.571509
13.500000 52.879811
13.500000 53.188965
13.500000 53.498973
13.500000 53.809833
13.500000 54.121546
13.500000 54.434113
13.500000 54.747531
13.500000 55.061803
13.500000 55.376928
13.500000 55.692905
13.500000 56.009735
13.500000 56.327418
13.500000 56.645954
13.500000 56.965343
13.500000 57.285584
13.500000 57.606679
13.500000 57.928626
13.500000 58.251426
13.500000 58.575079
13.500000 58.899585
13.500000 59.224944
13.500000 59.551155
13.500000 59.878219
13.500000 60.206137
13.500000 60.534907
13.500000 60.864529
13.500000 61.195005
13.500000 61.526334
13.500000 61.858515
13.500000 62.191549
13.500000 62.525436
13.500000 62.860176
13.500000 63.195769
13.500000 63.532214
13.500000 63.869513
13.500000 64.207664
13.500000 64.546668
13.500000 64.886525
13.500000 65.227235
13.500000 65.568797
13.500000 65.911213
13.500000 66.254481
13.500000 66.598602
13.500000 66.943576
13.500000 67.289403
13.500000 67.636082
13.500000 67.983615
13.500000 68.332000
13.500000 68.681238
13.500000 69.031329
13.500000 69.382273
13.500000 69.734070
13.500000 70.086719
13.500000 70.440222
13.500000 70.794577
13.500000 71.149785
13.500000 71.505846
13.500000 71.862760
13.500000 72.220526
13.500000 72.579146
13.500000 72.938618
13.500000 73.298943
13.500000 73.660121
13.500000 74.022152
13.500000 74.385035
13.500000 74.748772
13.500000 75.113361
13.500000 75.478803
13.500000 75.845098
13.500000 76.212246
13.500000 76.580246
13.500000 76.949100
13.500000 77.318806
13.500000 77.689365
13.500000 78.060777
13.500000 78.433042
13.500000 78.806160
13.500000 79.180130
13.500000 79.554954
13.500000 79.930630
13.500000 80.307159
13.500000 80.684541
13.500000 81.062776
13.500000 81.441863
13.500000 81.821804
13.500000 82.202597
13.500000 82.584243
13.500000 82.966742
13.500000 83.350094
13.500000 83.734298
13.500000 84.119356
13.500000 84.505266
13.500000 84.892029
13.500000 85.279645
13.500000 85.668114
13.500000 86.057436
13.500000 86.447610
13.500000 86.838638
13.500000 87.230518
13.500000 87.623251
13.500000 88.016837
13.500000 88.411275
13.500000 88.806567
13.500000 89.202711
13.500000 89.599708
13.500000 89.997559
13.500000 90.396261
13.500000 90.795817
13.500000 91.196226
13.500000 91.597487
13.500000 91.999601
13.500000 92.402569
13.500000 92.806388
13.500000 93.211061
13.500000 93.616587
13.500000 94.022965
13.500000 94.430197
13.500000 94.838281
13.500000 95.247218
13.500000 95.657008
13.500000 96.067650
13.500000 96.479146
13.500000 96.891494
13.500000 97.304695
13.500000 97.718749
13.500000 98.133656
13.500000 98.549416
13.500000 98.966029
13.500000 99.383494
13.500000 99.801812
13.500000 100.220983
13.500000 100.641007
13.500000 101.061884
13.500000 101.483613
13.500000 101.906196
13.500000 102.329631
13.500000 102.753919
13.500000 103.179060
13.500000 103.605054
13.500000 104.031901
13.500000 104.459600
13.500000 104.888152
13.500000 105.317558
13.500000 105.747816
13.500000 106.178926
13.500000 106.610890
13.500000 107.043707
13.500000 107.477376
13.500000 107.911898
13.500000 108.347273
13.500000 108.783501
13.500000 109.220582
13.500000 109.658515
13.500000 110.097302
13.500000 110.536941
13.500000 110.977433
13.500000 111.418778
13.500000 111.860976
13.500000 112.304026
13.500000 112.747930
13.500000 113.192686
13.500000 113.638295
13.500000 114.084757
13.500000 114.532072
13.500000 114.980240
13.500000 115.429260
13.500000 115.879134
13.500000 116.329860
13.500000 116.781439
13.500000 117.233871
13.500000 117.687155
13.500000 118.141293
13.500000 118.596283
13.500000 119.052126
13.500000 119.508822
13.500000 119.966371
13.500000 120.424773
13.500000 120.884028
13.500000 121.344135
13.500000 121.805095
13.500000 122.266908
13.500000 122.729574
13.500000 123.193093
13.500000 123.657465
13.500000 124.122689
13.500000 124.588766
13.500000 125.055697
13.500000 125.523480
13.500000 125.992115
13.500000 126.461604
13.500000 126.931946
13.500000 127.403140
13.500000 127.875187
13.500000 128.348087
13.500000 128.821840
13.500000 129.296446
13.500000 129.771904
13.500000 130.248216
13.500000 130.725380
13.500000 131.203397
13.500000 131.682267
13.500000 132.161990
13.500000 132.642565
13.500000 133.123994
13.500000 133.606275
13.500000 134.089409
13.500000 134.573396
13.500000 135.058236
13.500000 135.543928
13.500000 136.030474
13.500000 136.517872
13.500000 137.006123
13.500000 137.495227
13.500000 137.985184
13.500000 138.475994
13.500000 138.967656
13.500000 139.460172
13.500000 139.953540
13.500000 140.447761
13.500000 140.942835
13.500000 141.438761
13.500000 141.935541
13.500000 142.433173
13.500000 142.931658
13.500000 143.430997
13.500000 143.931187
13.500000 144.432231
13.500000 144.934128
13.500000 145.436877
13.500000 145.940480
13.500000 146.444935
13.500000 146.950243
13.500000 147.456403
13.500000 147.963417
13.500000 148.471284
13.500000 148.980003
13.500000 149.489575
13.500000 150.000000
</POINTS>
</NEKTAR>

