<?xml version="1.0" encoding="utf-8" ?>
<NEKTAR>
<POINTS DIM="2" FIELDS="">
459.500000 0.000000
459.500000 0.000418
459.500000 0.001672
459.500000 0.003763
459.500000 0.006689
459.500000 0.010451
459.500000 0.015050
459.500000 0.020485
459.500000 0.026756
459.500000 0.033863
459.500000 0.041806
459.500000 0.050585
459.500000 0.060201
459.500000 0.070652
459.500000 0.081940
459.500000 0.094063
459.500000 0.107023
459.500000 0.120819
459.500000 0.135451
459.500000 0.150919
459.500000 0.167224
459.500000 0.184364
459.500000 0.202341
459.500000 0.221153
459.500000 0.240802
459.500000 0.261287
459.500000 0.282608
459.500000 0.304765
459.500000 0.327758
459.500000 0.351588
459.500000 0.376253
459.500000 0.401755
459.500000 0.428092
459.500000 0.455266
459.500000 0.483276
459.500000 0.512122
459.500000 0.541805
459.500000 0.572323
459.500000 0.603677
459.500000 0.635868
459.500000 0.668894
459.500000 0.702757
459.500000 0.737456
459.500000 0.772991
459.500000 0.809362
459.500000 0.846570
459.500000 0.884613
459.500000 0.923492
459.500000 0.963208
459.500000 1.003760
459.500000 1.045148
459.500000 1.087372
459.500000 1.130432
459.500000 1.174328
459.500000 1.219060
459.500000 1.264629
459.500000 1.311033
459.500000 1.358274
459.500000 1.406351
459.500000 1.455264
459.500000 1.505013
459.500000 1.555598
459.500000 1.607019
459.500000 1.659276
459.500000 1.712370
459.500000 1.766299
459.500000 1.821065
459.500000 1.876667
459.500000 1.933105
459.500000 1.990379
459.500000 2.048489
459.500000 2.107436
459.500000 2.167218
459.500000 2.227837
459.500000 2.289291
459.500000 2.351582
459.500000 2.414709
459.500000 2.478672
459.500000 2.543471
459.500000 2.609106
459.500000 2.675578
459.500000 2.742885
459.500000 2.811029
459.500000 2.880009
459.500000 2.949825
459.500000 3.020477
459.500000 3.091965
459.500000 3.164289
459.500000 3.237449
459.500000 3.311446
459.500000 3.386278
459.500000 3.461947
459.500000 3.538452
459.500000 3.615793
459.500000 3.693970
459.500000 3.772983
459.500000 3.852832
459.500000 3.933517
459.500000 4.015039
459.500000 4.097397
459.500000 4.180590
459.500000 4.264620
459.500000 4.349486
459.500000 4.435188
459.500000 4.521727
459.500000 4.609101
459.500000 4.697311
459.500000 4.786358
459.500000 4.876241
459.500000 4.966959
459.500000 5.058514
459.500000 5.150905
459.500000 5.244133
459.500000 5.338196
459.500000 5.433095
459.500000 5.528831
459.500000 5.625402
459.500000 5.722810
459.500000 5.821054
459.500000 5.920134
459.500000 6.020050
459.500000 6.120802
459.500000 6.222391
459.500000 6.324815
459.500000 6.428076
459.500000 6.532172
459.500000 6.637105
459.500000 6.742874
459.500000 6.849479
459.500000 6.956920
459.500000 7.065198
459.500000 7.174311
459.500000 7.284261
459.500000 7.395046
459.500000 7.506668
459.500000 7.619126
459.500000 7.732420
459.500000 7.846550
459.500000 7.961516
459.500000 8.077319
459.500000 8.193957
459.500000 8.311432
459.500000 8.429742
459.500000 8.548889
459.500000 8.668872
459.500000 8.789691
459.500000 8.911346
459.500000 9.033838
459.500000 9.157165
459.500000 9.281329
459.500000 9.406328
459.500000 9.532164
459.500000 9.658836
459.500000 9.786344
459.500000 9.914688
459.500000 10.043868
459.500000 10.173885
459.500000 10.304737
459.500000 10.436426
459.500000 10.568950
459.500000 10.702311
459.500000 10.836508
459.500000 10.971541
459.500000 11.107411
459.500000 11.244116
459.500000 11.381657
459.500000 11.520035
459.500000 11.659248
459.500000 11.799298
459.500000 11.940184
459.500000 12.081906
459.500000 12.224464
459.500000 12.367859
459.500000 12.512089
459.500000 12.657155
459.500000 12.803058
459.500000 12.949797
459.500000 13.097372
459.500000 13.245782
459.500000 13.395030
459.500000 13.545113
459.500000 13.696032
459.500000 13.847787
459.500000 14.000379
459.500000 14.153807
459.500000 14.308070
459.500000 14.463170
459.500000 14.619106
459.500000 14.775879
459.500000 14.933487
459.500000 15.091931
459.500000 15.251212
459.500000 15.411328
459.500000 15.572281
459.500000 15.734070
459.500000 15.896695
459.500000 16.060156
459.500000 16.224453
459.500000 16.389586
459.500000 16.555556
459.500000 16.722361
459.500000 16.890003
459.500000 17.058481
459.500000 17.227795
459.500000 17.397945
459.500000 17.568931
459.500000 17.740753
459.500000 17.913412
459.500000 18.086906
459.500000 18.261237
459.500000 18.436403
459.500000 18.612406
459.500000 18.789245
459.500000 18.966920
459.500000 19.145432
459.500000 19.324779
459.500000 19.504962
459.500000 19.685982
459.500000 19.867838
459.500000 20.050529
459.500000 20.234057
459.500000 20.418421
459.500000 20.603622
459.500000 20.789658
459.500000 20.976530
459.500000 21.164239
459.500000 21.352783
459.500000 21.542164
459.500000 21.732381
459.500000 21.923434
459.500000 22.115323
459.500000 22.308048
459.500000 22.501610
459.500000 22.696007
459.500000 22.891241
459.500000 23.087310
459.500000 23.284216
459.500000 23.481958
459.500000 23.680536
459.500000 23.879950
459.500000 24.080200
459.500000 24.281287
459.500000 24.483209
459.500000 24.685968
459.500000 24.889563
459.500000 25.093994
459.500000 25.299261
459.500000 25.505364
459.500000 25.712303
459.500000 25.920078
459.500000 26.128690
459.500000 26.338137
459.500000 26.548421
459.500000 26.759541
459.500000 26.971497
459.500000 27.184289
459.500000 27.397917
459.500000 27.612381
459.500000 27.827682
459.500000 28.043818
459.500000 28.260791
459.500000 28.478600
459.500000 28.697244
459.500000 28.916725
459.500000 29.137043
459.500000 29.358196
459.500000 29.580185
459.500000 29.803011
459.500000 30.026672
459.500000 30.251170
459.500000 30.476504
459.500000 30.702674
459.500000 30.929680
459.500000 31.157522
459.500000 31.386200
459.500000 31.615715
459.500000 31.846065
459.500000 32.077252
459.500000 32.309275
459.500000 32.542133
459.500000 32.775828
459.500000 33.010360
459.500000 33.245727
459.500000 33.481930
459.500000 33.718970
459.500000 33.956845
459.500000 34.195557
459.500000 34.435105
459.500000 34.675489
459.500000 34.916709
459.500000 35.158765
459.500000 35.401657
459.500000 35.645386
459.500000 35.889950
459.500000 36.135351
459.500000 36.381588
459.500000 36.628660
459.500000 36.876569
459.500000 37.125315
459.500000 37.374896
459.500000 37.625313
459.500000 37.876567
459.500000 38.128656
459.500000 38.381582
459.500000 38.635344
459.500000 38.889942
459.500000 39.145376
459.500000 39.401646
459.500000 39.658752
459.500000 39.916695
459.500000 40.175473
459.500000 40.435088
459.500000 40.695539
459.500000 40.956826
459.500000 41.218949
459.500000 41.481908
459.500000 41.745703
459.500000 42.010334
459.500000 42.275802
459.500000 42.542106
459.500000 42.809245
459.500000 43.077221
459.500000 43.346033
459.500000 43.615681
459.500000 43.886165
459.500000 44.157486
459.500000 44.429642
459.500000 44.702635
459.500000 44.976463
459.500000 45.251128
459.500000 45.526629
459.500000 45.802966
459.500000 46.080139
459.500000 46.358148
459.500000 46.636994
459.500000 46.916675
459.500000 47.197193
459.500000 47.478547
459.500000 47.760736
459.500000 48.043762
459.500000 48.327625
459.500000 48.612323
459.500000 48.897857
459.500000 49.184227
459.500000 49.471434
459.500000 49.759477
459.500000 50.048355
459.500000 50.338070
459.500000 50.628621
459.500000 50.920009
459.500000 51.212232
459.500000 51.505291
459.500000 51.799187
459.500000 52.093918
459.500000 52.389486
459.500000 52.685890
459.500000 52.983130
459.500000 53.281206
459.500000 53.580118
459.500000 53.879867
459.500000 54.180451
459.500000 54.481872
459.500000 54.784128
459.500000 55.087221
459.500000 55.391150
459.500000 55.695915
459.500000 56.001516
459.500000 56.307953
459.500000 56.615227
459.500000 56.923336
459.500000 57.232282
459.500000 57.542064
459.500000 57.852682
459.500000 58.164136
459.500000 58.476426
459.500000 58.789552
459.500000 59.103514
459.500000 59.418313
459.500000 59.733947
459.500000 60.050418
459.500000 60.367725
459.500000 60.685868
459.500000 61.004847
459.500000 61.324662
459.500000 61.645313
459.500000 61.966801
459.500000 62.289124
459.500000 62.612284
459.500000 62.936279
459.500000 63.261111
459.500000 63.586779
459.500000 63.913283
459.500000 64.240624
459.500000 64.568800
459.500000 64.897812
459.500000 65.227661
459.500000 65.558346
459.500000 65.889867
459.500000 66.222223
459.500000 66.555417
459.500000 66.889446
459.500000 67.224311
459.500000 67.560012
459.500000 67.896550
459.500000 68.233924
459.500000 68.572133
459.500000 68.911179
459.500000 69.251061
459.500000 69.591779
459.500000 69.933334
459.500000 70.275724
459.500000 70.618950
459.500000 70.963013
459.500000 71.307912
459.500000 71.653646
459.500000 72.000217
459.500000 72.347624
459.500000 72.695868
459.500000 73.044947
459.500000 73.394862
459.500000 73.745614
459.500000 74.097202
459.500000 74.449625
459.500000 74.802885
459.500000 75.156981
459.500000 75.511913
459.500000 75.867682
459.500000 76.224286
459.500000 76.581726
459.500000 76.940003
459.500000 77.299116
459.500000 77.659064
459.500000 78.019849
459.500000 78.381471
459.500000 78.743928
459.500000 79.107221
459.500000 79.471350
459.500000 79.836316
459.500000 80.202118
459.500000 80.568755
459.500000 80.936229
459.500000 81.304539
459.500000 81.673685
459.500000 82.043668
459.500000 82.414486
459.500000 82.786141
459.500000 83.158631
459.500000 83.531958
459.500000 83.906121
459.500000 84.281120
459.500000 84.656955
459.500000 85.033626
459.500000 85.411133
459.500000 85.789477
459.500000 86.168656
459.500000 86.548672
459.500000 86.929524
459.500000 87.311212
459.500000 87.693736
459.500000 88.077096
459.500000 88.461292
459.500000 88.846324
459.500000 89.232193
459.500000 89.618897
459.500000 90.006438
459.500000 90.394815
459.500000 90.784028
459.500000 91.174077
459.500000 91.564962
459.500000 91.956684
459.500000 92.349241
459.500000 92.742634
459.500000 93.136864
459.500000 93.531930
459.500000 93.927832
459.500000 94.324570
459.500000 94.722144
459.500000 95.120554
459.500000 95.519801
459.500000 95.919883
459.500000 96.320802
459.500000 96.722557
459.500000 97.125147
459.500000 97.528574
459.500000 97.932837
459.500000 98.337937
459.500000 98.743872
459.500000 99.150643
459.500000 99.558251
459.500000 99.966695
459.500000 100.375974
459.500000 100.786090
459.500000 101.197042
459.500000 101.608831
459.500000 102.021455
459.500000 102.434915
459.500000 102.849212
459.500000 103.264344
459.500000 103.680313
459.500000 104.097118
459.500000 104.514759
459.500000 104.933236
459.500000 105.352549
459.500000 105.772699
459.500000 106.193684
459.500000 106.615506
459.500000 107.038163
459.500000 107.461657
459.500000 107.885987
459.500000 108.311153
459.500000 108.737155
459.500000 109.163993
459.500000 109.591668
459.500000 110.020178
459.500000 110.449525
459.500000 110.879708
459.500000 111.310727
459.500000 111.742582
459.500000 112.175273
459.500000 112.608800
459.500000 113.043163
459.500000 113.478363
459.500000 113.914398
459.500000 114.351270
459.500000 114.788978
459.500000 115.227522
459.500000 115.666902
459.500000 116.107118
459.500000 116.548170
459.500000 116.990059
459.500000 117.432783
459.500000 117.876344
459.500000 118.320740
459.500000 118.765973
459.500000 119.212042
459.500000 119.658947
459.500000 120.106689
459.500000 120.555266
459.500000 121.004679
459.500000 121.454929
459.500000 121.906015
459.500000 122.357937
459.500000 122.810695
459.500000 123.264289
459.500000 123.718719
459.500000 124.173985
459.500000 124.630087
459.500000 125.087026
459.500000 125.544801
459.500000 126.003411
459.500000 126.462858
459.500000 126.923141
459.500000 127.384260
459.500000 127.846216
459.500000 128.309007
459.500000 128.772634
459.500000 129.237098
459.500000 129.702398
459.500000 130.168534
459.500000 130.635505
459.500000 131.103314
459.500000 131.571958
459.500000 132.041438
459.500000 132.511754
459.500000 132.982907
459.500000 133.454896
459.500000 133.927720
459.500000 134.401381
459.500000 134.875878
459.500000 135.351211
459.500000 135.827381
459.500000 136.304386
459.500000 136.782227
459.500000 137.260905
459.500000 137.740419
459.500000 138.220769
459.500000 138.701955
459.500000 139.183977
459.500000 139.666835
459.500000 140.150529
459.500000 140.635060
459.500000 141.120426
459.500000 141.606629
459.500000 142.093668
459.500000 142.581542
459.500000 143.070253
459.500000 143.559801
459.500000 144.050184
459.500000 144.541403
459.500000 145.033459
459.500000 145.526350
459.500000 146.020078
459.500000 146.514642
459.500000 147.010042
459.500000 147.506278
459.500000 148.003350
459.500000 148.501258
459.500000 149.000003
459.500000 149.499583
459.500000 150.000000
</POINTS>
</NEKTAR>

