<?xml version="1.0" encoding="utf-8" ?>
<NEKTAR>
<POINTS DIM="2" FIELDS="">
69.500000 -0.500000
69.500000 -0.499581
69.500000 -0.498322
69.500000 -0.496225
69.500000 -0.493289
69.500000 -0.489514
69.500000 -0.484900
69.500000 -0.479447
69.500000 -0.473155
69.500000 -0.466024
69.500000 -0.458055
69.500000 -0.449246
69.500000 -0.439599
69.500000 -0.429113
69.500000 -0.417787
69.500000 -0.405623
69.500000 -0.392620
69.500000 -0.378778
69.500000 -0.364097
69.500000 -0.348578
69.500000 -0.332219
69.500000 -0.315021
69.500000 -0.296985
69.500000 -0.278110
69.500000 -0.258395
69.500000 -0.237842
69.500000 -0.216450
69.500000 -0.194219
69.500000 -0.171149
69.500000 -0.147240
69.500000 -0.122493
69.500000 -0.096906
69.500000 -0.070481
69.500000 -0.043216
69.500000 -0.015113
69.500000 0.013829
69.500000 0.043611
69.500000 0.074231
69.500000 0.105690
69.500000 0.137987
69.500000 0.171124
69.500000 0.205100
69.500000 0.239914
69.500000 0.275568
69.500000 0.312060
69.500000 0.349391
69.500000 0.387562
69.500000 0.426571
69.500000 0.466419
69.500000 0.507106
69.500000 0.548631
69.500000 0.590996
69.500000 0.634200
69.500000 0.678242
69.500000 0.723124
69.500000 0.768844
69.500000 0.815403
69.500000 0.862801
69.500000 0.911038
69.500000 0.960114
69.500000 1.010029
69.500000 1.060783
69.500000 1.112376
69.500000 1.164807
69.500000 1.218078
69.500000 1.272187
69.500000 1.327135
69.500000 1.382923
69.500000 1.439549
69.500000 1.497014
69.500000 1.555318
69.500000 1.614460
69.500000 1.674442
69.500000 1.735263
69.500000 1.796922
69.500000 1.859421
69.500000 1.922758
69.500000 1.986934
69.500000 2.051949
69.500000 2.117803
69.500000 2.184496
69.500000 2.252028
69.500000 2.320399
69.500000 2.389609
69.500000 2.459657
69.500000 2.530545
69.500000 2.602271
69.500000 2.674836
69.500000 2.748241
69.500000 2.822484
69.500000 2.897566
69.500000 2.973487
69.500000 3.050247
69.500000 3.127845
69.500000 3.206283
69.500000 3.285559
69.500000 3.365675
69.500000 3.446629
69.500000 3.528422
69.500000 3.611055
69.500000 3.694526
69.500000 3.778836
69.500000 3.863984
69.500000 3.949972
69.500000 4.036799
69.500000 4.124465
69.500000 4.212969
69.500000 4.302312
69.500000 4.392495
69.500000 4.483516
69.500000 4.575376
69.500000 4.668075
69.500000 4.761613
69.500000 4.855990
69.500000 4.951206
69.500000 5.047260
69.500000 5.144154
69.500000 5.241886
69.500000 5.340458
69.500000 5.439868
69.500000 5.540117
69.500000 5.641205
69.500000 5.743132
69.500000 5.845898
69.500000 5.949503
69.500000 6.053946
69.500000 6.159229
69.500000 6.265350
69.500000 6.372311
69.500000 6.480110
69.500000 6.588748
69.500000 6.698225
69.500000 6.808542
69.500000 6.919696
69.500000 7.031690
69.500000 7.144523
69.500000 7.258195
69.500000 7.372705
69.500000 7.488055
69.500000 7.604243
69.500000 7.721270
69.500000 7.839136
69.500000 7.957842
69.500000 8.077386
69.500000 8.197768
69.500000 8.318990
69.500000 8.441051
69.500000 8.563950
69.500000 8.687689
69.500000 8.812266
69.500000 8.937683
69.500000 9.063938
69.500000 9.191032
69.500000 9.318965
69.500000 9.447737
69.500000 9.577348
69.500000 9.707798
69.500000 9.839086
69.500000 9.971214
69.500000 10.104180
69.500000 10.237986
69.500000 10.372630
69.500000 10.508113
69.500000 10.644435
69.500000 10.781596
69.500000 10.919596
69.500000 11.058435
69.500000 11.198113
69.500000 11.338629
69.500000 11.479985
69.500000 11.622179
69.500000 11.765212
69.500000 11.909085
69.500000 12.053796
69.500000 12.199346
69.500000 12.345735
69.500000 12.492963
69.500000 12.641029
69.500000 12.789935
69.500000 12.939680
69.500000 13.090263
69.500000 13.241686
69.500000 13.393947
69.500000 13.547047
69.500000 13.700986
69.500000 13.855764
69.500000 14.011381
69.500000 14.167837
69.500000 14.325131
69.500000 14.483265
69.500000 14.642238
69.500000 14.802049
69.500000 14.962699
69.500000 15.124189
69.500000 15.286517
69.500000 15.449684
69.500000 15.613690
69.500000 15.778535
69.500000 15.944218
69.500000 16.110741
69.500000 16.278103
69.500000 16.446303
69.500000 16.615342
69.500000 16.785221
69.500000 16.955938
69.500000 17.127494
69.500000 17.299889
69.500000 17.473123
69.500000 17.647196
69.500000 17.822108
69.500000 17.997858
69.500000 18.174448
69.500000 18.351876
69.500000 18.530143
69.500000 18.709250
69.500000 18.889195
69.500000 19.069979
69.500000 19.251602
69.500000 19.434064
69.500000 19.617365
69.500000 19.801504
69.500000 19.986483
69.500000 20.172300
69.500000 20.358957
69.500000 20.546452
69.500000 20.734786
69.500000 20.923959
69.500000 21.113971
69.500000 21.304822
69.500000 21.496512
69.500000 21.689041
69.500000 21.882408
69.500000 22.076615
69.500000 22.271660
69.500000 22.467545
69.500000 22.664268
69.500000 22.861830
69.500000 23.060231
69.500000 23.259471
69.500000 23.459550
69.500000 23.660468
69.500000 23.862224
69.500000 24.064820
69.500000 24.268255
69.500000 24.472528
69.500000 24.677640
69.500000 24.883591
69.500000 25.090382
69.500000 25.298011
69.500000 25.506479
69.500000 25.715785
69.500000 25.925931
69.500000 26.136916
69.500000 26.348739
69.500000 26.561402
69.500000 26.774903
69.500000 26.989243
69.500000 27.204423
69.500000 27.420441
69.500000 27.637298
69.500000 27.854993
69.500000 28.073528
69.500000 28.292902
69.500000 28.513115
69.500000 28.734166
69.500000 28.956056
69.500000 29.178786
69.500000 29.402354
69.500000 29.626761
69.500000 29.852007
69.500000 30.078092
69.500000 30.305016
69.500000 30.532779
69.500000 30.761380
69.500000 30.990821
69.500000 31.221100
69.500000 31.452219
69.500000 31.684176
69.500000 31.916972
69.500000 32.150607
69.500000 32.385081
69.500000 32.620394
69.500000 32.856546
69.500000 33.093537
69.500000 33.331366
69.500000 33.570035
69.500000 33.809542
69.500000 34.049888
69.500000 34.291074
69.500000 34.533098
69.500000 34.775961
69.500000 35.019663
69.500000 35.264204
69.500000 35.509583
69.500000 35.755802
69.500000 36.002860
69.500000 36.250756
69.500000 36.499491
69.500000 36.749066
69.500000 36.999479
69.500000 37.250731
69.500000 37.502822
69.500000 37.755752
69.500000 38.009521
69.500000 38.264128
69.500000 38.519575
69.500000 38.775860
69.500000 39.032985
69.500000 39.290948
69.500000 39.549750
69.500000 39.809392
69.500000 40.069872
69.500000 40.331191
69.500000 40.593348
69.500000 40.856345
69.500000 41.120181
69.500000 41.384855
69.500000 41.650369
69.500000 41.916721
69.500000 42.183913
69.500000 42.451943
69.500000 42.720812
69.500000 42.990520
69.500000 43.261067
69.500000 43.532453
69.500000 43.804677
69.500000 44.077741
69.500000 44.351643
69.500000 44.626385
69.500000 44.901965
69.500000 45.178384
69.500000 45.455643
69.500000 45.733740
69.500000 46.012676
69.500000 46.292450
69.500000 46.573064
69.500000 46.854517
69.500000 47.136808
69.500000 47.419939
69.500000 47.703908
69.500000 47.988717
69.500000 48.274364
69.500000 48.560850
69.500000 48.848175
69.500000 49.136339
69.500000 49.425342
69.500000 49.715183
69.500000 50.005864
69.500000 50.297384
69.500000 50.589742
69.500000 50.882939
69.500000 51.176976
69.500000 51.471851
69.500000 51.767565
69.500000 52.064118
69.500000 52.361510
69.500000 52.659740
69.500000 52.958810
69.500000 53.258719
69.500000 53.559466
69.500000 53.861053
69.500000 54.163478
69.500000 54.466742
69.500000 54.770845
69.500000 55.075787
69.500000 55.381568
69.500000 55.688188
69.500000 55.995647
69.500000 56.303944
69.500000 56.613081
69.500000 56.923056
69.500000 57.233871
69.500000 57.545524
69.500000 57.858016
69.500000 58.171347
69.500000 58.485517
69.500000 58.800526
69.500000 59.116374
69.500000 59.433060
69.500000 59.750586
69.500000 60.068950
69.500000 60.388154
69.500000 60.708196
69.500000 61.029077
69.500000 61.350798
69.500000 61.673357
69.500000 61.996754
69.500000 62.320991
69.500000 62.646067
69.500000 62.971982
69.500000 63.298735
69.500000 63.626328
69.500000 63.954759
69.500000 64.284029
69.500000 64.614138
69.500000 64.945087
69.500000 65.276874
69.500000 65.609499
69.500000 65.942964
69.500000 66.277268
69.500000 66.612411
69.500000 66.948392
69.500000 67.285212
69.500000 67.622872
69.500000 67.961370
69.500000 68.300707
69.500000 68.640883
69.500000 68.981898
69.500000 69.323752
69.500000 69.666445
69.500000 70.009976
69.500000 70.354347
69.500000 70.699556
69.500000 71.045605
69.500000 71.392492
69.500000 71.740218
69.500000 72.088783
69.500000 72.438187
69.500000 72.788430
69.500000 73.139512
69.500000 73.491433
69.500000 73.844192
69.500000 74.197791
69.500000 74.552228
69.500000 74.907504
69.500000 75.263620
69.500000 75.620574
69.500000 75.978367
69.500000 76.336999
69.500000 76.696470
69.500000 77.056779
69.500000 77.417928
69.500000 77.779916
69.500000 78.142742
69.500000 78.506407
69.500000 78.870912
69.500000 79.236255
69.500000 79.602437
69.500000 79.969458
69.500000 80.337318
69.500000 80.706017
69.500000 81.075554
69.500000 81.445931
69.500000 81.817147
69.500000 82.189201
69.500000 82.562094
69.500000 82.935827
69.500000 83.310398
69.500000 83.685808
69.500000 84.062057
69.500000 84.439145
69.500000 84.817071
69.500000 85.195837
69.500000 85.575442
69.500000 85.955885
69.500000 86.337167
69.500000 86.719289
69.500000 87.102249
69.500000 87.486048
69.500000 87.870686
69.500000 88.256163
69.500000 88.642479
69.500000 89.029633
69.500000 89.417627
69.500000 89.806460
69.500000 90.196131
69.500000 90.586641
69.500000 90.977991
69.500000 91.370179
69.500000 91.763206
69.500000 92.157072
69.500000 92.551777
69.500000 92.947320
69.500000 93.343703
69.500000 93.740925
69.500000 94.138985
69.500000 94.537885
69.500000 94.937623
69.500000 95.338200
69.500000 95.739616
69.500000 96.141871
69.500000 96.544965
69.500000 96.948898
69.500000 97.353670
69.500000 97.759280
69.500000 98.165730
69.500000 98.573018
69.500000 98.981146
69.500000 99.390112
69.500000 99.799917
69.500000 100.210561
69.500000 100.622044
69.500000 101.034366
69.500000 101.447527
69.500000 101.861526
69.500000 102.276365
69.500000 102.692042
69.500000 103.108559
69.500000 103.525914
69.500000 103.944108
69.500000 104.363141
69.500000 104.783013
69.500000 105.203724
69.500000 105.625274
69.500000 106.047663
69.500000 106.470891
69.500000 106.894957
69.500000 107.319863
69.500000 107.745607
69.500000 108.172190
69.500000 108.599612
69.500000 109.027873
69.500000 109.456973
69.500000 109.886912
69.500000 110.317690
69.500000 110.749307
69.500000 111.181762
69.500000 111.615057
69.500000 112.049190
69.500000 112.484163
69.500000 112.919974
69.500000 113.356624
69.500000 113.794113
69.500000 114.232441
69.500000 114.671608
69.500000 115.111613
69.500000 115.552458
69.500000 115.994142
69.500000 116.436664
69.500000 116.880025
69.500000 117.324226
69.500000 117.769265
69.500000 118.215143
69.500000 118.661860
69.500000 119.109416
69.500000 119.557811
69.500000 120.007044
69.500000 120.457117
69.500000 120.908028
69.500000 121.359779
69.500000 121.812368
69.500000 122.265796
69.500000 122.720063
69.500000 123.175170
69.500000 123.631114
69.500000 124.087898
69.500000 124.545521
69.500000 125.003983
69.500000 125.463283
69.500000 125.923423
69.500000 126.384401
69.500000 126.846218
69.500000 127.308875
69.500000 127.772370
69.500000 128.236704
69.500000 128.701877
69.500000 129.167888
69.500000 129.634739
69.500000 130.102429
69.500000 130.570957
69.500000 131.040325
69.500000 131.510531
69.500000 131.981576
69.500000 132.453460
69.500000 132.926183
69.500000 133.399745
69.500000 133.874146
69.500000 134.349386
69.500000 134.825465
69.500000 135.302382
69.500000 135.780139
69.500000 136.258734
69.500000 136.738168
69.500000 137.218441
69.500000 137.699554
69.500000 138.181505
69.500000 138.664294
69.500000 139.147923
69.500000 139.632391
69.500000 140.117698
69.500000 140.603843
69.500000 141.090828
69.500000 141.578651
69.500000 142.067313
69.500000 142.556814
69.500000 143.047154
69.500000 143.538333
69.500000 144.030351
69.500000 144.523208
69.500000 145.016904
69.500000 145.511438
69.500000 146.006812
69.500000 146.503024
69.500000 147.000075
69.500000 147.497965
69.500000 147.996695
69.500000 148.496263
69.500000 148.996669
69.500000 149.497915
69.500000 150.000000
</POINTS>
</NEKTAR>

