<?xml version="1.0" encoding="utf-8" ?>
<NEKTAR>
<POINTS DIM="2" FIELDS="">
117.500000 0.000000
117.500000 0.000418
117.500000 0.001672
117.500000 0.003763
117.500000 0.006689
117.500000 0.010451
117.500000 0.015050
117.500000 0.020485
117.500000 0.026756
117.500000 0.033863
117.500000 0.041806
117.500000 0.050585
117.500000 0.060201
117.500000 0.070652
117.500000 0.081940
117.500000 0.094063
117.500000 0.107023
117.500000 0.120819
117.500000 0.135451
117.500000 0.150919
117.500000 0.167224
117.500000 0.184364
117.500000 0.202341
117.500000 0.221153
117.500000 0.240802
117.500000 0.261287
117.500000 0.282608
117.500000 0.304765
117.500000 0.327758
117.500000 0.351588
117.500000 0.376253
117.500000 0.401755
117.500000 0.428092
117.500000 0.455266
117.500000 0.483276
117.500000 0.512122
117.500000 0.541805
117.500000 0.572323
117.500000 0.603677
117.500000 0.635868
117.500000 0.668894
117.500000 0.702757
117.500000 0.737456
117.500000 0.772991
117.500000 0.809362
117.500000 0.846570
117.500000 0.884613
117.500000 0.923492
117.500000 0.963208
117.500000 1.003760
117.500000 1.045148
117.500000 1.087372
117.500000 1.130432
117.500000 1.174328
117.500000 1.219060
117.500000 1.264629
117.500000 1.311033
117.500000 1.358274
117.500000 1.406351
117.500000 1.455264
117.500000 1.505013
117.500000 1.555598
117.500000 1.607019
117.500000 1.659276
117.500000 1.712370
117.500000 1.766299
117.500000 1.821065
117.500000 1.876667
117.500000 1.933105
117.500000 1.990379
117.500000 2.048489
117.500000 2.107436
117.500000 2.167218
117.500000 2.227837
117.500000 2.289291
117.500000 2.351582
117.500000 2.414709
117.500000 2.478672
117.500000 2.543471
117.500000 2.609106
117.500000 2.675578
117.500000 2.742885
117.500000 2.811029
117.500000 2.880009
117.500000 2.949825
117.500000 3.020477
117.500000 3.091965
117.500000 3.164289
117.500000 3.237449
117.500000 3.311446
117.500000 3.386278
117.500000 3.461947
117.500000 3.538452
117.500000 3.615793
117.500000 3.693970
117.500000 3.772983
117.500000 3.852832
117.500000 3.933517
117.500000 4.015039
117.500000 4.097397
117.500000 4.180590
117.500000 4.264620
117.500000 4.349486
117.500000 4.435188
117.500000 4.521727
117.500000 4.609101
117.500000 4.697311
117.500000 4.786358
117.500000 4.876241
117.500000 4.966959
117.500000 5.058514
117.500000 5.150905
117.500000 5.244133
117.500000 5.338196
117.500000 5.433095
117.500000 5.528831
117.500000 5.625402
117.500000 5.722810
117.500000 5.821054
117.500000 5.920134
117.500000 6.020050
117.500000 6.120802
117.500000 6.222391
117.500000 6.324815
117.500000 6.428076
117.500000 6.532172
117.500000 6.637105
117.500000 6.742874
117.500000 6.849479
117.500000 6.956920
117.500000 7.065198
117.500000 7.174311
117.500000 7.284261
117.500000 7.395046
117.500000 7.506668
117.500000 7.619126
117.500000 7.732420
117.500000 7.846550
117.500000 7.961516
117.500000 8.077319
117.500000 8.193957
117.500000 8.311432
117.500000 8.429742
117.500000 8.548889
117.500000 8.668872
117.500000 8.789691
117.500000 8.911346
117.500000 9.033838
117.500000 9.157165
117.500000 9.281329
117.500000 9.406328
117.500000 9.532164
117.500000 9.658836
117.500000 9.786344
117.500000 9.914688
117.500000 10.043868
117.500000 10.173885
117.500000 10.304737
117.500000 10.436426
117.500000 10.568950
117.500000 10.702311
117.500000 10.836508
117.500000 10.971541
117.500000 11.107411
117.500000 11.244116
117.500000 11.381657
117.500000 11.520035
117.500000 11.659248
117.500000 11.799298
117.500000 11.940184
117.500000 12.081906
117.500000 12.224464
117.500000 12.367859
117.500000 12.512089
117.500000 12.657155
117.500000 12.803058
117.500000 12.949797
117.500000 13.097372
117.500000 13.245782
117.500000 13.395030
117.500000 13.545113
117.500000 13.696032
117.500000 13.847787
117.500000 14.000379
117.500000 14.153807
117.500000 14.308070
117.500000 14.463170
117.500000 14.619106
117.500000 14.775879
117.500000 14.933487
117.500000 15.091931
117.500000 15.251212
117.500000 15.411328
117.500000 15.572281
117.500000 15.734070
117.500000 15.896695
117.500000 16.060156
117.500000 16.224453
117.500000 16.389586
117.500000 16.555556
117.500000 16.722361
117.500000 16.890003
117.500000 17.058481
117.500000 17.227795
117.500000 17.397945
117.500000 17.568931
117.500000 17.740753
117.500000 17.913412
117.500000 18.086906
117.500000 18.261237
117.500000 18.436403
117.500000 18.612406
117.500000 18.789245
117.500000 18.966920
117.500000 19.145432
117.500000 19.324779
117.500000 19.504962
117.500000 19.685982
117.500000 19.867838
117.500000 20.050529
117.500000 20.234057
117.500000 20.418421
117.500000 20.603622
117.500000 20.789658
117.500000 20.976530
117.500000 21.164239
117.500000 21.352783
117.500000 21.542164
117.500000 21.732381
117.500000 21.923434
117.500000 22.115323
117.500000 22.308048
117.500000 22.501610
117.500000 22.696007
117.500000 22.891241
117.500000 23.087310
117.500000 23.284216
117.500000 23.481958
117.500000 23.680536
117.500000 23.879950
117.500000 24.080200
117.500000 24.281287
117.500000 24.483209
117.500000 24.685968
117.500000 24.889563
117.500000 25.093994
117.500000 25.299261
117.500000 25.505364
117.500000 25.712303
117.500000 25.920078
117.500000 26.128690
117.500000 26.338137
117.500000 26.548421
117.500000 26.759541
117.500000 26.971497
117.500000 27.184289
117.500000 27.397917
117.500000 27.612381
117.500000 27.827682
117.500000 28.043818
117.500000 28.260791
117.500000 28.478600
117.500000 28.697244
117.500000 28.916725
117.500000 29.137043
117.500000 29.358196
117.500000 29.580185
117.500000 29.803011
117.500000 30.026672
117.500000 30.251170
117.500000 30.476504
117.500000 30.702674
117.500000 30.929680
117.500000 31.157522
117.500000 31.386200
117.500000 31.615715
117.500000 31.846065
117.500000 32.077252
117.500000 32.309275
117.500000 32.542133
117.500000 32.775828
117.500000 33.010360
117.500000 33.245727
117.500000 33.481930
117.500000 33.718970
117.500000 33.956845
117.500000 34.195557
117.500000 34.435105
117.500000 34.675489
117.500000 34.916709
117.500000 35.158765
117.500000 35.401657
117.500000 35.645386
117.500000 35.889950
117.500000 36.135351
117.500000 36.381588
117.500000 36.628660
117.500000 36.876569
117.500000 37.125315
117.500000 37.374896
117.500000 37.625313
117.500000 37.876567
117.500000 38.128656
117.500000 38.381582
117.500000 38.635344
117.500000 38.889942
117.500000 39.145376
117.500000 39.401646
117.500000 39.658752
117.500000 39.916695
117.500000 40.175473
117.500000 40.435088
117.500000 40.695539
117.500000 40.956826
117.500000 41.218949
117.500000 41.481908
117.500000 41.745703
117.500000 42.010334
117.500000 42.275802
117.500000 42.542106
117.500000 42.809245
117.500000 43.077221
117.500000 43.346033
117.500000 43.615681
117.500000 43.886165
117.500000 44.157486
117.500000 44.429642
117.500000 44.702635
117.500000 44.976463
117.500000 45.251128
117.500000 45.526629
117.500000 45.802966
117.500000 46.080139
117.500000 46.358148
117.500000 46.636994
117.500000 46.916675
117.500000 47.197193
117.500000 47.478547
117.500000 47.760736
117.500000 48.043762
117.500000 48.327625
117.500000 48.612323
117.500000 48.897857
117.500000 49.184227
117.500000 49.471434
117.500000 49.759477
117.500000 50.048355
117.500000 50.338070
117.500000 50.628621
117.500000 50.920009
117.500000 51.212232
117.500000 51.505291
117.500000 51.799187
117.500000 52.093918
117.500000 52.389486
117.500000 52.685890
117.500000 52.983130
117.500000 53.281206
117.500000 53.580118
117.500000 53.879867
117.500000 54.180451
117.500000 54.481872
117.500000 54.784128
117.500000 55.087221
117.500000 55.391150
117.500000 55.695915
117.500000 56.001516
117.500000 56.307953
117.500000 56.615227
117.500000 56.923336
117.500000 57.232282
117.500000 57.542064
117.500000 57.852682
117.500000 58.164136
117.500000 58.476426
117.500000 58.789552
117.500000 59.103514
117.500000 59.418313
117.500000 59.733947
117.500000 60.050418
117.500000 60.367725
117.500000 60.685868
117.500000 61.004847
117.500000 61.324662
117.500000 61.645313
117.500000 61.966801
117.500000 62.289124
117.500000 62.612284
117.500000 62.936279
117.500000 63.261111
117.500000 63.586779
117.500000 63.913283
117.500000 64.240624
117.500000 64.568800
117.500000 64.897812
117.500000 65.227661
117.500000 65.558346
117.500000 65.889867
117.500000 66.222223
117.500000 66.555417
117.500000 66.889446
117.500000 67.224311
117.500000 67.560012
117.500000 67.896550
117.500000 68.233924
117.500000 68.572133
117.500000 68.911179
117.500000 69.251061
117.500000 69.591779
117.500000 69.933334
117.500000 70.275724
117.500000 70.618950
117.500000 70.963013
117.500000 71.307912
117.500000 71.653646
117.500000 72.000217
117.500000 72.347624
117.500000 72.695868
117.500000 73.044947
117.500000 73.394862
117.500000 73.745614
117.500000 74.097202
117.500000 74.449625
117.500000 74.802885
117.500000 75.156981
117.500000 75.511913
117.500000 75.867682
117.500000 76.224286
117.500000 76.581726
117.500000 76.940003
117.500000 77.299116
117.500000 77.659064
117.500000 78.019849
117.500000 78.381471
117.500000 78.743928
117.500000 79.107221
117.500000 79.471350
117.500000 79.836316
117.500000 80.202118
117.500000 80.568755
117.500000 80.936229
117.500000 81.304539
117.500000 81.673685
117.500000 82.043668
117.500000 82.414486
117.500000 82.786141
117.500000 83.158631
117.500000 83.531958
117.500000 83.906121
117.500000 84.281120
117.500000 84.656955
117.500000 85.033626
117.500000 85.411133
117.500000 85.789477
117.500000 86.168656
117.500000 86.548672
117.500000 86.929524
117.500000 87.311212
117.500000 87.693736
117.500000 88.077096
117.500000 88.461292
117.500000 88.846324
117.500000 89.232193
117.500000 89.618897
117.500000 90.006438
117.500000 90.394815
117.500000 90.784028
117.500000 91.174077
117.500000 91.564962
117.500000 91.956684
117.500000 92.349241
117.500000 92.742634
117.500000 93.136864
117.500000 93.531930
117.500000 93.927832
117.500000 94.324570
117.500000 94.722144
117.500000 95.120554
117.500000 95.519801
117.500000 95.919883
117.500000 96.320802
117.500000 96.722557
117.500000 97.125147
117.500000 97.528574
117.500000 97.932837
117.500000 98.337937
117.500000 98.743872
117.500000 99.150643
117.500000 99.558251
117.500000 99.966695
117.500000 100.375974
117.500000 100.786090
117.500000 101.197042
117.500000 101.608831
117.500000 102.021455
117.500000 102.434915
117.500000 102.849212
117.500000 103.264344
117.500000 103.680313
117.500000 104.097118
117.500000 104.514759
117.500000 104.933236
117.500000 105.352549
117.500000 105.772699
117.500000 106.193684
117.500000 106.615506
117.500000 107.038163
117.500000 107.461657
117.500000 107.885987
117.500000 108.311153
117.500000 108.737155
117.500000 109.163993
117.500000 109.591668
117.500000 110.020178
117.500000 110.449525
117.500000 110.879708
117.500000 111.310727
117.500000 111.742582
117.500000 112.175273
117.500000 112.608800
117.500000 113.043163
117.500000 113.478363
117.500000 113.914398
117.500000 114.351270
117.500000 114.788978
117.500000 115.227522
117.500000 115.666902
117.500000 116.107118
117.500000 116.548170
117.500000 116.990059
117.500000 117.432783
117.500000 117.876344
117.500000 118.320740
117.500000 118.765973
117.500000 119.212042
117.500000 119.658947
117.500000 120.106689
117.500000 120.555266
117.500000 121.004679
117.500000 121.454929
117.500000 121.906015
117.500000 122.357937
117.500000 122.810695
117.500000 123.264289
117.500000 123.718719
117.500000 124.173985
117.500000 124.630087
117.500000 125.087026
117.500000 125.544801
117.500000 126.003411
117.500000 126.462858
117.500000 126.923141
117.500000 127.384260
117.500000 127.846216
117.500000 128.309007
117.500000 128.772634
117.500000 129.237098
117.500000 129.702398
117.500000 130.168534
117.500000 130.635505
117.500000 131.103314
117.500000 131.571958
117.500000 132.041438
117.500000 132.511754
117.500000 132.982907
117.500000 133.454896
117.500000 133.927720
117.500000 134.401381
117.500000 134.875878
117.500000 135.351211
117.500000 135.827381
117.500000 136.304386
117.500000 136.782227
117.500000 137.260905
117.500000 137.740419
117.500000 138.220769
117.500000 138.701955
117.500000 139.183977
117.500000 139.666835
117.500000 140.150529
117.500000 140.635060
117.500000 141.120426
117.500000 141.606629
117.500000 142.093668
117.500000 142.581542
117.500000 143.070253
117.500000 143.559801
117.500000 144.050184
117.500000 144.541403
117.500000 145.033459
117.500000 145.526350
117.500000 146.020078
117.500000 146.514642
117.500000 147.010042
117.500000 147.506278
117.500000 148.003350
117.500000 148.501258
117.500000 149.000003
117.500000 149.499583
117.500000 150.000000
</POINTS>
</NEKTAR>

