<?xml version="1.0" encoding="utf-8" ?>
<NEKTAR>
<POINTS DIM="2" FIELDS="">
883.500000 0.000000
883.500000 0.000418
883.500000 0.001672
883.500000 0.003763
883.500000 0.006689
883.500000 0.010451
883.500000 0.015050
883.500000 0.020485
883.500000 0.026756
883.500000 0.033863
883.500000 0.041806
883.500000 0.050585
883.500000 0.060201
883.500000 0.070652
883.500000 0.081940
883.500000 0.094063
883.500000 0.107023
883.500000 0.120819
883.500000 0.135451
883.500000 0.150919
883.500000 0.167224
883.500000 0.184364
883.500000 0.202341
883.500000 0.221153
883.500000 0.240802
883.500000 0.261287
883.500000 0.282608
883.500000 0.304765
883.500000 0.327758
883.500000 0.351588
883.500000 0.376253
883.500000 0.401755
883.500000 0.428092
883.500000 0.455266
883.500000 0.483276
883.500000 0.512122
883.500000 0.541805
883.500000 0.572323
883.500000 0.603677
883.500000 0.635868
883.500000 0.668894
883.500000 0.702757
883.500000 0.737456
883.500000 0.772991
883.500000 0.809362
883.500000 0.846570
883.500000 0.884613
883.500000 0.923492
883.500000 0.963208
883.500000 1.003760
883.500000 1.045148
883.500000 1.087372
883.500000 1.130432
883.500000 1.174328
883.500000 1.219060
883.500000 1.264629
883.500000 1.311033
883.500000 1.358274
883.500000 1.406351
883.500000 1.455264
883.500000 1.505013
883.500000 1.555598
883.500000 1.607019
883.500000 1.659276
883.500000 1.712370
883.500000 1.766299
883.500000 1.821065
883.500000 1.876667
883.500000 1.933105
883.500000 1.990379
883.500000 2.048489
883.500000 2.107436
883.500000 2.167218
883.500000 2.227837
883.500000 2.289291
883.500000 2.351582
883.500000 2.414709
883.500000 2.478672
883.500000 2.543471
883.500000 2.609106
883.500000 2.675578
883.500000 2.742885
883.500000 2.811029
883.500000 2.880009
883.500000 2.949825
883.500000 3.020477
883.500000 3.091965
883.500000 3.164289
883.500000 3.237449
883.500000 3.311446
883.500000 3.386278
883.500000 3.461947
883.500000 3.538452
883.500000 3.615793
883.500000 3.693970
883.500000 3.772983
883.500000 3.852832
883.500000 3.933517
883.500000 4.015039
883.500000 4.097397
883.500000 4.180590
883.500000 4.264620
883.500000 4.349486
883.500000 4.435188
883.500000 4.521727
883.500000 4.609101
883.500000 4.697311
883.500000 4.786358
883.500000 4.876241
883.500000 4.966959
883.500000 5.058514
883.500000 5.150905
883.500000 5.244133
883.500000 5.338196
883.500000 5.433095
883.500000 5.528831
883.500000 5.625402
883.500000 5.722810
883.500000 5.821054
883.500000 5.920134
883.500000 6.020050
883.500000 6.120802
883.500000 6.222391
883.500000 6.324815
883.500000 6.428076
883.500000 6.532172
883.500000 6.637105
883.500000 6.742874
883.500000 6.849479
883.500000 6.956920
883.500000 7.065198
883.500000 7.174311
883.500000 7.284261
883.500000 7.395046
883.500000 7.506668
883.500000 7.619126
883.500000 7.732420
883.500000 7.846550
883.500000 7.961516
883.500000 8.077319
883.500000 8.193957
883.500000 8.311432
883.500000 8.429742
883.500000 8.548889
883.500000 8.668872
883.500000 8.789691
883.500000 8.911346
883.500000 9.033838
883.500000 9.157165
883.500000 9.281329
883.500000 9.406328
883.500000 9.532164
883.500000 9.658836
883.500000 9.786344
883.500000 9.914688
883.500000 10.043868
883.500000 10.173885
883.500000 10.304737
883.500000 10.436426
883.500000 10.568950
883.500000 10.702311
883.500000 10.836508
883.500000 10.971541
883.500000 11.107411
883.500000 11.244116
883.500000 11.381657
883.500000 11.520035
883.500000 11.659248
883.500000 11.799298
883.500000 11.940184
883.500000 12.081906
883.500000 12.224464
883.500000 12.367859
883.500000 12.512089
883.500000 12.657155
883.500000 12.803058
883.500000 12.949797
883.500000 13.097372
883.500000 13.245782
883.500000 13.395030
883.500000 13.545113
883.500000 13.696032
883.500000 13.847787
883.500000 14.000379
883.500000 14.153807
883.500000 14.308070
883.500000 14.463170
883.500000 14.619106
883.500000 14.775879
883.500000 14.933487
883.500000 15.091931
883.500000 15.251212
883.500000 15.411328
883.500000 15.572281
883.500000 15.734070
883.500000 15.896695
883.500000 16.060156
883.500000 16.224453
883.500000 16.389586
883.500000 16.555556
883.500000 16.722361
883.500000 16.890003
883.500000 17.058481
883.500000 17.227795
883.500000 17.397945
883.500000 17.568931
883.500000 17.740753
883.500000 17.913412
883.500000 18.086906
883.500000 18.261237
883.500000 18.436403
883.500000 18.612406
883.500000 18.789245
883.500000 18.966920
883.500000 19.145432
883.500000 19.324779
883.500000 19.504962
883.500000 19.685982
883.500000 19.867838
883.500000 20.050529
883.500000 20.234057
883.500000 20.418421
883.500000 20.603622
883.500000 20.789658
883.500000 20.976530
883.500000 21.164239
883.500000 21.352783
883.500000 21.542164
883.500000 21.732381
883.500000 21.923434
883.500000 22.115323
883.500000 22.308048
883.500000 22.501610
883.500000 22.696007
883.500000 22.891241
883.500000 23.087310
883.500000 23.284216
883.500000 23.481958
883.500000 23.680536
883.500000 23.879950
883.500000 24.080200
883.500000 24.281287
883.500000 24.483209
883.500000 24.685968
883.500000 24.889563
883.500000 25.093994
883.500000 25.299261
883.500000 25.505364
883.500000 25.712303
883.500000 25.920078
883.500000 26.128690
883.500000 26.338137
883.500000 26.548421
883.500000 26.759541
883.500000 26.971497
883.500000 27.184289
883.500000 27.397917
883.500000 27.612381
883.500000 27.827682
883.500000 28.043818
883.500000 28.260791
883.500000 28.478600
883.500000 28.697244
883.500000 28.916725
883.500000 29.137043
883.500000 29.358196
883.500000 29.580185
883.500000 29.803011
883.500000 30.026672
883.500000 30.251170
883.500000 30.476504
883.500000 30.702674
883.500000 30.929680
883.500000 31.157522
883.500000 31.386200
883.500000 31.615715
883.500000 31.846065
883.500000 32.077252
883.500000 32.309275
883.500000 32.542133
883.500000 32.775828
883.500000 33.010360
883.500000 33.245727
883.500000 33.481930
883.500000 33.718970
883.500000 33.956845
883.500000 34.195557
883.500000 34.435105
883.500000 34.675489
883.500000 34.916709
883.500000 35.158765
883.500000 35.401657
883.500000 35.645386
883.500000 35.889950
883.500000 36.135351
883.500000 36.381588
883.500000 36.628660
883.500000 36.876569
883.500000 37.125315
883.500000 37.374896
883.500000 37.625313
883.500000 37.876567
883.500000 38.128656
883.500000 38.381582
883.500000 38.635344
883.500000 38.889942
883.500000 39.145376
883.500000 39.401646
883.500000 39.658752
883.500000 39.916695
883.500000 40.175473
883.500000 40.435088
883.500000 40.695539
883.500000 40.956826
883.500000 41.218949
883.500000 41.481908
883.500000 41.745703
883.500000 42.010334
883.500000 42.275802
883.500000 42.542106
883.500000 42.809245
883.500000 43.077221
883.500000 43.346033
883.500000 43.615681
883.500000 43.886165
883.500000 44.157486
883.500000 44.429642
883.500000 44.702635
883.500000 44.976463
883.500000 45.251128
883.500000 45.526629
883.500000 45.802966
883.500000 46.080139
883.500000 46.358148
883.500000 46.636994
883.500000 46.916675
883.500000 47.197193
883.500000 47.478547
883.500000 47.760736
883.500000 48.043762
883.500000 48.327625
883.500000 48.612323
883.500000 48.897857
883.500000 49.184227
883.500000 49.471434
883.500000 49.759477
883.500000 50.048355
883.500000 50.338070
883.500000 50.628621
883.500000 50.920009
883.500000 51.212232
883.500000 51.505291
883.500000 51.799187
883.500000 52.093918
883.500000 52.389486
883.500000 52.685890
883.500000 52.983130
883.500000 53.281206
883.500000 53.580118
883.500000 53.879867
883.500000 54.180451
883.500000 54.481872
883.500000 54.784128
883.500000 55.087221
883.500000 55.391150
883.500000 55.695915
883.500000 56.001516
883.500000 56.307953
883.500000 56.615227
883.500000 56.923336
883.500000 57.232282
883.500000 57.542064
883.500000 57.852682
883.500000 58.164136
883.500000 58.476426
883.500000 58.789552
883.500000 59.103514
883.500000 59.418313
883.500000 59.733947
883.500000 60.050418
883.500000 60.367725
883.500000 60.685868
883.500000 61.004847
883.500000 61.324662
883.500000 61.645313
883.500000 61.966801
883.500000 62.289124
883.500000 62.612284
883.500000 62.936279
883.500000 63.261111
883.500000 63.586779
883.500000 63.913283
883.500000 64.240624
883.500000 64.568800
883.500000 64.897812
883.500000 65.227661
883.500000 65.558346
883.500000 65.889867
883.500000 66.222223
883.500000 66.555417
883.500000 66.889446
883.500000 67.224311
883.500000 67.560012
883.500000 67.896550
883.500000 68.233924
883.500000 68.572133
883.500000 68.911179
883.500000 69.251061
883.500000 69.591779
883.500000 69.933334
883.500000 70.275724
883.500000 70.618950
883.500000 70.963013
883.500000 71.307912
883.500000 71.653646
883.500000 72.000217
883.500000 72.347624
883.500000 72.695868
883.500000 73.044947
883.500000 73.394862
883.500000 73.745614
883.500000 74.097202
883.500000 74.449625
883.500000 74.802885
883.500000 75.156981
883.500000 75.511913
883.500000 75.867682
883.500000 76.224286
883.500000 76.581726
883.500000 76.940003
883.500000 77.299116
883.500000 77.659064
883.500000 78.019849
883.500000 78.381471
883.500000 78.743928
883.500000 79.107221
883.500000 79.471350
883.500000 79.836316
883.500000 80.202118
883.500000 80.568755
883.500000 80.936229
883.500000 81.304539
883.500000 81.673685
883.500000 82.043668
883.500000 82.414486
883.500000 82.786141
883.500000 83.158631
883.500000 83.531958
883.500000 83.906121
883.500000 84.281120
883.500000 84.656955
883.500000 85.033626
883.500000 85.411133
883.500000 85.789477
883.500000 86.168656
883.500000 86.548672
883.500000 86.929524
883.500000 87.311212
883.500000 87.693736
883.500000 88.077096
883.500000 88.461292
883.500000 88.846324
883.500000 89.232193
883.500000 89.618897
883.500000 90.006438
883.500000 90.394815
883.500000 90.784028
883.500000 91.174077
883.500000 91.564962
883.500000 91.956684
883.500000 92.349241
883.500000 92.742634
883.500000 93.136864
883.500000 93.531930
883.500000 93.927832
883.500000 94.324570
883.500000 94.722144
883.500000 95.120554
883.500000 95.519801
883.500000 95.919883
883.500000 96.320802
883.500000 96.722557
883.500000 97.125147
883.500000 97.528574
883.500000 97.932837
883.500000 98.337937
883.500000 98.743872
883.500000 99.150643
883.500000 99.558251
883.500000 99.966695
883.500000 100.375974
883.500000 100.786090
883.500000 101.197042
883.500000 101.608831
883.500000 102.021455
883.500000 102.434915
883.500000 102.849212
883.500000 103.264344
883.500000 103.680313
883.500000 104.097118
883.500000 104.514759
883.500000 104.933236
883.500000 105.352549
883.500000 105.772699
883.500000 106.193684
883.500000 106.615506
883.500000 107.038163
883.500000 107.461657
883.500000 107.885987
883.500000 108.311153
883.500000 108.737155
883.500000 109.163993
883.500000 109.591668
883.500000 110.020178
883.500000 110.449525
883.500000 110.879708
883.500000 111.310727
883.500000 111.742582
883.500000 112.175273
883.500000 112.608800
883.500000 113.043163
883.500000 113.478363
883.500000 113.914398
883.500000 114.351270
883.500000 114.788978
883.500000 115.227522
883.500000 115.666902
883.500000 116.107118
883.500000 116.548170
883.500000 116.990059
883.500000 117.432783
883.500000 117.876344
883.500000 118.320740
883.500000 118.765973
883.500000 119.212042
883.500000 119.658947
883.500000 120.106689
883.500000 120.555266
883.500000 121.004679
883.500000 121.454929
883.500000 121.906015
883.500000 122.357937
883.500000 122.810695
883.500000 123.264289
883.500000 123.718719
883.500000 124.173985
883.500000 124.630087
883.500000 125.087026
883.500000 125.544801
883.500000 126.003411
883.500000 126.462858
883.500000 126.923141
883.500000 127.384260
883.500000 127.846216
883.500000 128.309007
883.500000 128.772634
883.500000 129.237098
883.500000 129.702398
883.500000 130.168534
883.500000 130.635505
883.500000 131.103314
883.500000 131.571958
883.500000 132.041438
883.500000 132.511754
883.500000 132.982907
883.500000 133.454896
883.500000 133.927720
883.500000 134.401381
883.500000 134.875878
883.500000 135.351211
883.500000 135.827381
883.500000 136.304386
883.500000 136.782227
883.500000 137.260905
883.500000 137.740419
883.500000 138.220769
883.500000 138.701955
883.500000 139.183977
883.500000 139.666835
883.500000 140.150529
883.500000 140.635060
883.500000 141.120426
883.500000 141.606629
883.500000 142.093668
883.500000 142.581542
883.500000 143.070253
883.500000 143.559801
883.500000 144.050184
883.500000 144.541403
883.500000 145.033459
883.500000 145.526350
883.500000 146.020078
883.500000 146.514642
883.500000 147.010042
883.500000 147.506278
883.500000 148.003350
883.500000 148.501258
883.500000 149.000003
883.500000 149.499583
883.500000 150.000000
</POINTS>
</NEKTAR>

