<?xml version="1.0" encoding="utf-8" ?>
<NEKTAR>
<POINTS DIM="2" FIELDS="">
141.500000 0.000000
141.500000 0.000418
141.500000 0.001672
141.500000 0.003763
141.500000 0.006689
141.500000 0.010451
141.500000 0.015050
141.500000 0.020485
141.500000 0.026756
141.500000 0.033863
141.500000 0.041806
141.500000 0.050585
141.500000 0.060201
141.500000 0.070652
141.500000 0.081940
141.500000 0.094063
141.500000 0.107023
141.500000 0.120819
141.500000 0.135451
141.500000 0.150919
141.500000 0.167224
141.500000 0.184364
141.500000 0.202341
141.500000 0.221153
141.500000 0.240802
141.500000 0.261287
141.500000 0.282608
141.500000 0.304765
141.500000 0.327758
141.500000 0.351588
141.500000 0.376253
141.500000 0.401755
141.500000 0.428092
141.500000 0.455266
141.500000 0.483276
141.500000 0.512122
141.500000 0.541805
141.500000 0.572323
141.500000 0.603677
141.500000 0.635868
141.500000 0.668894
141.500000 0.702757
141.500000 0.737456
141.500000 0.772991
141.500000 0.809362
141.500000 0.846570
141.500000 0.884613
141.500000 0.923492
141.500000 0.963208
141.500000 1.003760
141.500000 1.045148
141.500000 1.087372
141.500000 1.130432
141.500000 1.174328
141.500000 1.219060
141.500000 1.264629
141.500000 1.311033
141.500000 1.358274
141.500000 1.406351
141.500000 1.455264
141.500000 1.505013
141.500000 1.555598
141.500000 1.607019
141.500000 1.659276
141.500000 1.712370
141.500000 1.766299
141.500000 1.821065
141.500000 1.876667
141.500000 1.933105
141.500000 1.990379
141.500000 2.048489
141.500000 2.107436
141.500000 2.167218
141.500000 2.227837
141.500000 2.289291
141.500000 2.351582
141.500000 2.414709
141.500000 2.478672
141.500000 2.543471
141.500000 2.609106
141.500000 2.675578
141.500000 2.742885
141.500000 2.811029
141.500000 2.880009
141.500000 2.949825
141.500000 3.020477
141.500000 3.091965
141.500000 3.164289
141.500000 3.237449
141.500000 3.311446
141.500000 3.386278
141.500000 3.461947
141.500000 3.538452
141.500000 3.615793
141.500000 3.693970
141.500000 3.772983
141.500000 3.852832
141.500000 3.933517
141.500000 4.015039
141.500000 4.097397
141.500000 4.180590
141.500000 4.264620
141.500000 4.349486
141.500000 4.435188
141.500000 4.521727
141.500000 4.609101
141.500000 4.697311
141.500000 4.786358
141.500000 4.876241
141.500000 4.966959
141.500000 5.058514
141.500000 5.150905
141.500000 5.244133
141.500000 5.338196
141.500000 5.433095
141.500000 5.528831
141.500000 5.625402
141.500000 5.722810
141.500000 5.821054
141.500000 5.920134
141.500000 6.020050
141.500000 6.120802
141.500000 6.222391
141.500000 6.324815
141.500000 6.428076
141.500000 6.532172
141.500000 6.637105
141.500000 6.742874
141.500000 6.849479
141.500000 6.956920
141.500000 7.065198
141.500000 7.174311
141.500000 7.284261
141.500000 7.395046
141.500000 7.506668
141.500000 7.619126
141.500000 7.732420
141.500000 7.846550
141.500000 7.961516
141.500000 8.077319
141.500000 8.193957
141.500000 8.311432
141.500000 8.429742
141.500000 8.548889
141.500000 8.668872
141.500000 8.789691
141.500000 8.911346
141.500000 9.033838
141.500000 9.157165
141.500000 9.281329
141.500000 9.406328
141.500000 9.532164
141.500000 9.658836
141.500000 9.786344
141.500000 9.914688
141.500000 10.043868
141.500000 10.173885
141.500000 10.304737
141.500000 10.436426
141.500000 10.568950
141.500000 10.702311
141.500000 10.836508
141.500000 10.971541
141.500000 11.107411
141.500000 11.244116
141.500000 11.381657
141.500000 11.520035
141.500000 11.659248
141.500000 11.799298
141.500000 11.940184
141.500000 12.081906
141.500000 12.224464
141.500000 12.367859
141.500000 12.512089
141.500000 12.657155
141.500000 12.803058
141.500000 12.949797
141.500000 13.097372
141.500000 13.245782
141.500000 13.395030
141.500000 13.545113
141.500000 13.696032
141.500000 13.847787
141.500000 14.000379
141.500000 14.153807
141.500000 14.308070
141.500000 14.463170
141.500000 14.619106
141.500000 14.775879
141.500000 14.933487
141.500000 15.091931
141.500000 15.251212
141.500000 15.411328
141.500000 15.572281
141.500000 15.734070
141.500000 15.896695
141.500000 16.060156
141.500000 16.224453
141.500000 16.389586
141.500000 16.555556
141.500000 16.722361
141.500000 16.890003
141.500000 17.058481
141.500000 17.227795
141.500000 17.397945
141.500000 17.568931
141.500000 17.740753
141.500000 17.913412
141.500000 18.086906
141.500000 18.261237
141.500000 18.436403
141.500000 18.612406
141.500000 18.789245
141.500000 18.966920
141.500000 19.145432
141.500000 19.324779
141.500000 19.504962
141.500000 19.685982
141.500000 19.867838
141.500000 20.050529
141.500000 20.234057
141.500000 20.418421
141.500000 20.603622
141.500000 20.789658
141.500000 20.976530
141.500000 21.164239
141.500000 21.352783
141.500000 21.542164
141.500000 21.732381
141.500000 21.923434
141.500000 22.115323
141.500000 22.308048
141.500000 22.501610
141.500000 22.696007
141.500000 22.891241
141.500000 23.087310
141.500000 23.284216
141.500000 23.481958
141.500000 23.680536
141.500000 23.879950
141.500000 24.080200
141.500000 24.281287
141.500000 24.483209
141.500000 24.685968
141.500000 24.889563
141.500000 25.093994
141.500000 25.299261
141.500000 25.505364
141.500000 25.712303
141.500000 25.920078
141.500000 26.128690
141.500000 26.338137
141.500000 26.548421
141.500000 26.759541
141.500000 26.971497
141.500000 27.184289
141.500000 27.397917
141.500000 27.612381
141.500000 27.827682
141.500000 28.043818
141.500000 28.260791
141.500000 28.478600
141.500000 28.697244
141.500000 28.916725
141.500000 29.137043
141.500000 29.358196
141.500000 29.580185
141.500000 29.803011
141.500000 30.026672
141.500000 30.251170
141.500000 30.476504
141.500000 30.702674
141.500000 30.929680
141.500000 31.157522
141.500000 31.386200
141.500000 31.615715
141.500000 31.846065
141.500000 32.077252
141.500000 32.309275
141.500000 32.542133
141.500000 32.775828
141.500000 33.010360
141.500000 33.245727
141.500000 33.481930
141.500000 33.718970
141.500000 33.956845
141.500000 34.195557
141.500000 34.435105
141.500000 34.675489
141.500000 34.916709
141.500000 35.158765
141.500000 35.401657
141.500000 35.645386
141.500000 35.889950
141.500000 36.135351
141.500000 36.381588
141.500000 36.628660
141.500000 36.876569
141.500000 37.125315
141.500000 37.374896
141.500000 37.625313
141.500000 37.876567
141.500000 38.128656
141.500000 38.381582
141.500000 38.635344
141.500000 38.889942
141.500000 39.145376
141.500000 39.401646
141.500000 39.658752
141.500000 39.916695
141.500000 40.175473
141.500000 40.435088
141.500000 40.695539
141.500000 40.956826
141.500000 41.218949
141.500000 41.481908
141.500000 41.745703
141.500000 42.010334
141.500000 42.275802
141.500000 42.542106
141.500000 42.809245
141.500000 43.077221
141.500000 43.346033
141.500000 43.615681
141.500000 43.886165
141.500000 44.157486
141.500000 44.429642
141.500000 44.702635
141.500000 44.976463
141.500000 45.251128
141.500000 45.526629
141.500000 45.802966
141.500000 46.080139
141.500000 46.358148
141.500000 46.636994
141.500000 46.916675
141.500000 47.197193
141.500000 47.478547
141.500000 47.760736
141.500000 48.043762
141.500000 48.327625
141.500000 48.612323
141.500000 48.897857
141.500000 49.184227
141.500000 49.471434
141.500000 49.759477
141.500000 50.048355
141.500000 50.338070
141.500000 50.628621
141.500000 50.920009
141.500000 51.212232
141.500000 51.505291
141.500000 51.799187
141.500000 52.093918
141.500000 52.389486
141.500000 52.685890
141.500000 52.983130
141.500000 53.281206
141.500000 53.580118
141.500000 53.879867
141.500000 54.180451
141.500000 54.481872
141.500000 54.784128
141.500000 55.087221
141.500000 55.391150
141.500000 55.695915
141.500000 56.001516
141.500000 56.307953
141.500000 56.615227
141.500000 56.923336
141.500000 57.232282
141.500000 57.542064
141.500000 57.852682
141.500000 58.164136
141.500000 58.476426
141.500000 58.789552
141.500000 59.103514
141.500000 59.418313
141.500000 59.733947
141.500000 60.050418
141.500000 60.367725
141.500000 60.685868
141.500000 61.004847
141.500000 61.324662
141.500000 61.645313
141.500000 61.966801
141.500000 62.289124
141.500000 62.612284
141.500000 62.936279
141.500000 63.261111
141.500000 63.586779
141.500000 63.913283
141.500000 64.240624
141.500000 64.568800
141.500000 64.897812
141.500000 65.227661
141.500000 65.558346
141.500000 65.889867
141.500000 66.222223
141.500000 66.555417
141.500000 66.889446
141.500000 67.224311
141.500000 67.560012
141.500000 67.896550
141.500000 68.233924
141.500000 68.572133
141.500000 68.911179
141.500000 69.251061
141.500000 69.591779
141.500000 69.933334
141.500000 70.275724
141.500000 70.618950
141.500000 70.963013
141.500000 71.307912
141.500000 71.653646
141.500000 72.000217
141.500000 72.347624
141.500000 72.695868
141.500000 73.044947
141.500000 73.394862
141.500000 73.745614
141.500000 74.097202
141.500000 74.449625
141.500000 74.802885
141.500000 75.156981
141.500000 75.511913
141.500000 75.867682
141.500000 76.224286
141.500000 76.581726
141.500000 76.940003
141.500000 77.299116
141.500000 77.659064
141.500000 78.019849
141.500000 78.381471
141.500000 78.743928
141.500000 79.107221
141.500000 79.471350
141.500000 79.836316
141.500000 80.202118
141.500000 80.568755
141.500000 80.936229
141.500000 81.304539
141.500000 81.673685
141.500000 82.043668
141.500000 82.414486
141.500000 82.786141
141.500000 83.158631
141.500000 83.531958
141.500000 83.906121
141.500000 84.281120
141.500000 84.656955
141.500000 85.033626
141.500000 85.411133
141.500000 85.789477
141.500000 86.168656
141.500000 86.548672
141.500000 86.929524
141.500000 87.311212
141.500000 87.693736
141.500000 88.077096
141.500000 88.461292
141.500000 88.846324
141.500000 89.232193
141.500000 89.618897
141.500000 90.006438
141.500000 90.394815
141.500000 90.784028
141.500000 91.174077
141.500000 91.564962
141.500000 91.956684
141.500000 92.349241
141.500000 92.742634
141.500000 93.136864
141.500000 93.531930
141.500000 93.927832
141.500000 94.324570
141.500000 94.722144
141.500000 95.120554
141.500000 95.519801
141.500000 95.919883
141.500000 96.320802
141.500000 96.722557
141.500000 97.125147
141.500000 97.528574
141.500000 97.932837
141.500000 98.337937
141.500000 98.743872
141.500000 99.150643
141.500000 99.558251
141.500000 99.966695
141.500000 100.375974
141.500000 100.786090
141.500000 101.197042
141.500000 101.608831
141.500000 102.021455
141.500000 102.434915
141.500000 102.849212
141.500000 103.264344
141.500000 103.680313
141.500000 104.097118
141.500000 104.514759
141.500000 104.933236
141.500000 105.352549
141.500000 105.772699
141.500000 106.193684
141.500000 106.615506
141.500000 107.038163
141.500000 107.461657
141.500000 107.885987
141.500000 108.311153
141.500000 108.737155
141.500000 109.163993
141.500000 109.591668
141.500000 110.020178
141.500000 110.449525
141.500000 110.879708
141.500000 111.310727
141.500000 111.742582
141.500000 112.175273
141.500000 112.608800
141.500000 113.043163
141.500000 113.478363
141.500000 113.914398
141.500000 114.351270
141.500000 114.788978
141.500000 115.227522
141.500000 115.666902
141.500000 116.107118
141.500000 116.548170
141.500000 116.990059
141.500000 117.432783
141.500000 117.876344
141.500000 118.320740
141.500000 118.765973
141.500000 119.212042
141.500000 119.658947
141.500000 120.106689
141.500000 120.555266
141.500000 121.004679
141.500000 121.454929
141.500000 121.906015
141.500000 122.357937
141.500000 122.810695
141.500000 123.264289
141.500000 123.718719
141.500000 124.173985
141.500000 124.630087
141.500000 125.087026
141.500000 125.544801
141.500000 126.003411
141.500000 126.462858
141.500000 126.923141
141.500000 127.384260
141.500000 127.846216
141.500000 128.309007
141.500000 128.772634
141.500000 129.237098
141.500000 129.702398
141.500000 130.168534
141.500000 130.635505
141.500000 131.103314
141.500000 131.571958
141.500000 132.041438
141.500000 132.511754
141.500000 132.982907
141.500000 133.454896
141.500000 133.927720
141.500000 134.401381
141.500000 134.875878
141.500000 135.351211
141.500000 135.827381
141.500000 136.304386
141.500000 136.782227
141.500000 137.260905
141.500000 137.740419
141.500000 138.220769
141.500000 138.701955
141.500000 139.183977
141.500000 139.666835
141.500000 140.150529
141.500000 140.635060
141.500000 141.120426
141.500000 141.606629
141.500000 142.093668
141.500000 142.581542
141.500000 143.070253
141.500000 143.559801
141.500000 144.050184
141.500000 144.541403
141.500000 145.033459
141.500000 145.526350
141.500000 146.020078
141.500000 146.514642
141.500000 147.010042
141.500000 147.506278
141.500000 148.003350
141.500000 148.501258
141.500000 149.000003
141.500000 149.499583
141.500000 150.000000
</POINTS>
</NEKTAR>

