<?xml version="1.0" encoding="utf-8" ?>
<NEKTAR>
<POINTS DIM="2" FIELDS="">
941.500000 0.000000
941.500000 0.000418
941.500000 0.001672
941.500000 0.003763
941.500000 0.006689
941.500000 0.010451
941.500000 0.015050
941.500000 0.020485
941.500000 0.026756
941.500000 0.033863
941.500000 0.041806
941.500000 0.050585
941.500000 0.060201
941.500000 0.070652
941.500000 0.081940
941.500000 0.094063
941.500000 0.107023
941.500000 0.120819
941.500000 0.135451
941.500000 0.150919
941.500000 0.167224
941.500000 0.184364
941.500000 0.202341
941.500000 0.221153
941.500000 0.240802
941.500000 0.261287
941.500000 0.282608
941.500000 0.304765
941.500000 0.327758
941.500000 0.351588
941.500000 0.376253
941.500000 0.401755
941.500000 0.428092
941.500000 0.455266
941.500000 0.483276
941.500000 0.512122
941.500000 0.541805
941.500000 0.572323
941.500000 0.603677
941.500000 0.635868
941.500000 0.668894
941.500000 0.702757
941.500000 0.737456
941.500000 0.772991
941.500000 0.809362
941.500000 0.846570
941.500000 0.884613
941.500000 0.923492
941.500000 0.963208
941.500000 1.003760
941.500000 1.045148
941.500000 1.087372
941.500000 1.130432
941.500000 1.174328
941.500000 1.219060
941.500000 1.264629
941.500000 1.311033
941.500000 1.358274
941.500000 1.406351
941.500000 1.455264
941.500000 1.505013
941.500000 1.555598
941.500000 1.607019
941.500000 1.659276
941.500000 1.712370
941.500000 1.766299
941.500000 1.821065
941.500000 1.876667
941.500000 1.933105
941.500000 1.990379
941.500000 2.048489
941.500000 2.107436
941.500000 2.167218
941.500000 2.227837
941.500000 2.289291
941.500000 2.351582
941.500000 2.414709
941.500000 2.478672
941.500000 2.543471
941.500000 2.609106
941.500000 2.675578
941.500000 2.742885
941.500000 2.811029
941.500000 2.880009
941.500000 2.949825
941.500000 3.020477
941.500000 3.091965
941.500000 3.164289
941.500000 3.237449
941.500000 3.311446
941.500000 3.386278
941.500000 3.461947
941.500000 3.538452
941.500000 3.615793
941.500000 3.693970
941.500000 3.772983
941.500000 3.852832
941.500000 3.933517
941.500000 4.015039
941.500000 4.097397
941.500000 4.180590
941.500000 4.264620
941.500000 4.349486
941.500000 4.435188
941.500000 4.521727
941.500000 4.609101
941.500000 4.697311
941.500000 4.786358
941.500000 4.876241
941.500000 4.966959
941.500000 5.058514
941.500000 5.150905
941.500000 5.244133
941.500000 5.338196
941.500000 5.433095
941.500000 5.528831
941.500000 5.625402
941.500000 5.722810
941.500000 5.821054
941.500000 5.920134
941.500000 6.020050
941.500000 6.120802
941.500000 6.222391
941.500000 6.324815
941.500000 6.428076
941.500000 6.532172
941.500000 6.637105
941.500000 6.742874
941.500000 6.849479
941.500000 6.956920
941.500000 7.065198
941.500000 7.174311
941.500000 7.284261
941.500000 7.395046
941.500000 7.506668
941.500000 7.619126
941.500000 7.732420
941.500000 7.846550
941.500000 7.961516
941.500000 8.077319
941.500000 8.193957
941.500000 8.311432
941.500000 8.429742
941.500000 8.548889
941.500000 8.668872
941.500000 8.789691
941.500000 8.911346
941.500000 9.033838
941.500000 9.157165
941.500000 9.281329
941.500000 9.406328
941.500000 9.532164
941.500000 9.658836
941.500000 9.786344
941.500000 9.914688
941.500000 10.043868
941.500000 10.173885
941.500000 10.304737
941.500000 10.436426
941.500000 10.568950
941.500000 10.702311
941.500000 10.836508
941.500000 10.971541
941.500000 11.107411
941.500000 11.244116
941.500000 11.381657
941.500000 11.520035
941.500000 11.659248
941.500000 11.799298
941.500000 11.940184
941.500000 12.081906
941.500000 12.224464
941.500000 12.367859
941.500000 12.512089
941.500000 12.657155
941.500000 12.803058
941.500000 12.949797
941.500000 13.097372
941.500000 13.245782
941.500000 13.395030
941.500000 13.545113
941.500000 13.696032
941.500000 13.847787
941.500000 14.000379
941.500000 14.153807
941.500000 14.308070
941.500000 14.463170
941.500000 14.619106
941.500000 14.775879
941.500000 14.933487
941.500000 15.091931
941.500000 15.251212
941.500000 15.411328
941.500000 15.572281
941.500000 15.734070
941.500000 15.896695
941.500000 16.060156
941.500000 16.224453
941.500000 16.389586
941.500000 16.555556
941.500000 16.722361
941.500000 16.890003
941.500000 17.058481
941.500000 17.227795
941.500000 17.397945
941.500000 17.568931
941.500000 17.740753
941.500000 17.913412
941.500000 18.086906
941.500000 18.261237
941.500000 18.436403
941.500000 18.612406
941.500000 18.789245
941.500000 18.966920
941.500000 19.145432
941.500000 19.324779
941.500000 19.504962
941.500000 19.685982
941.500000 19.867838
941.500000 20.050529
941.500000 20.234057
941.500000 20.418421
941.500000 20.603622
941.500000 20.789658
941.500000 20.976530
941.500000 21.164239
941.500000 21.352783
941.500000 21.542164
941.500000 21.732381
941.500000 21.923434
941.500000 22.115323
941.500000 22.308048
941.500000 22.501610
941.500000 22.696007
941.500000 22.891241
941.500000 23.087310
941.500000 23.284216
941.500000 23.481958
941.500000 23.680536
941.500000 23.879950
941.500000 24.080200
941.500000 24.281287
941.500000 24.483209
941.500000 24.685968
941.500000 24.889563
941.500000 25.093994
941.500000 25.299261
941.500000 25.505364
941.500000 25.712303
941.500000 25.920078
941.500000 26.128690
941.500000 26.338137
941.500000 26.548421
941.500000 26.759541
941.500000 26.971497
941.500000 27.184289
941.500000 27.397917
941.500000 27.612381
941.500000 27.827682
941.500000 28.043818
941.500000 28.260791
941.500000 28.478600
941.500000 28.697244
941.500000 28.916725
941.500000 29.137043
941.500000 29.358196
941.500000 29.580185
941.500000 29.803011
941.500000 30.026672
941.500000 30.251170
941.500000 30.476504
941.500000 30.702674
941.500000 30.929680
941.500000 31.157522
941.500000 31.386200
941.500000 31.615715
941.500000 31.846065
941.500000 32.077252
941.500000 32.309275
941.500000 32.542133
941.500000 32.775828
941.500000 33.010360
941.500000 33.245727
941.500000 33.481930
941.500000 33.718970
941.500000 33.956845
941.500000 34.195557
941.500000 34.435105
941.500000 34.675489
941.500000 34.916709
941.500000 35.158765
941.500000 35.401657
941.500000 35.645386
941.500000 35.889950
941.500000 36.135351
941.500000 36.381588
941.500000 36.628660
941.500000 36.876569
941.500000 37.125315
941.500000 37.374896
941.500000 37.625313
941.500000 37.876567
941.500000 38.128656
941.500000 38.381582
941.500000 38.635344
941.500000 38.889942
941.500000 39.145376
941.500000 39.401646
941.500000 39.658752
941.500000 39.916695
941.500000 40.175473
941.500000 40.435088
941.500000 40.695539
941.500000 40.956826
941.500000 41.218949
941.500000 41.481908
941.500000 41.745703
941.500000 42.010334
941.500000 42.275802
941.500000 42.542106
941.500000 42.809245
941.500000 43.077221
941.500000 43.346033
941.500000 43.615681
941.500000 43.886165
941.500000 44.157486
941.500000 44.429642
941.500000 44.702635
941.500000 44.976463
941.500000 45.251128
941.500000 45.526629
941.500000 45.802966
941.500000 46.080139
941.500000 46.358148
941.500000 46.636994
941.500000 46.916675
941.500000 47.197193
941.500000 47.478547
941.500000 47.760736
941.500000 48.043762
941.500000 48.327625
941.500000 48.612323
941.500000 48.897857
941.500000 49.184227
941.500000 49.471434
941.500000 49.759477
941.500000 50.048355
941.500000 50.338070
941.500000 50.628621
941.500000 50.920009
941.500000 51.212232
941.500000 51.505291
941.500000 51.799187
941.500000 52.093918
941.500000 52.389486
941.500000 52.685890
941.500000 52.983130
941.500000 53.281206
941.500000 53.580118
941.500000 53.879867
941.500000 54.180451
941.500000 54.481872
941.500000 54.784128
941.500000 55.087221
941.500000 55.391150
941.500000 55.695915
941.500000 56.001516
941.500000 56.307953
941.500000 56.615227
941.500000 56.923336
941.500000 57.232282
941.500000 57.542064
941.500000 57.852682
941.500000 58.164136
941.500000 58.476426
941.500000 58.789552
941.500000 59.103514
941.500000 59.418313
941.500000 59.733947
941.500000 60.050418
941.500000 60.367725
941.500000 60.685868
941.500000 61.004847
941.500000 61.324662
941.500000 61.645313
941.500000 61.966801
941.500000 62.289124
941.500000 62.612284
941.500000 62.936279
941.500000 63.261111
941.500000 63.586779
941.500000 63.913283
941.500000 64.240624
941.500000 64.568800
941.500000 64.897812
941.500000 65.227661
941.500000 65.558346
941.500000 65.889867
941.500000 66.222223
941.500000 66.555417
941.500000 66.889446
941.500000 67.224311
941.500000 67.560012
941.500000 67.896550
941.500000 68.233924
941.500000 68.572133
941.500000 68.911179
941.500000 69.251061
941.500000 69.591779
941.500000 69.933334
941.500000 70.275724
941.500000 70.618950
941.500000 70.963013
941.500000 71.307912
941.500000 71.653646
941.500000 72.000217
941.500000 72.347624
941.500000 72.695868
941.500000 73.044947
941.500000 73.394862
941.500000 73.745614
941.500000 74.097202
941.500000 74.449625
941.500000 74.802885
941.500000 75.156981
941.500000 75.511913
941.500000 75.867682
941.500000 76.224286
941.500000 76.581726
941.500000 76.940003
941.500000 77.299116
941.500000 77.659064
941.500000 78.019849
941.500000 78.381471
941.500000 78.743928
941.500000 79.107221
941.500000 79.471350
941.500000 79.836316
941.500000 80.202118
941.500000 80.568755
941.500000 80.936229
941.500000 81.304539
941.500000 81.673685
941.500000 82.043668
941.500000 82.414486
941.500000 82.786141
941.500000 83.158631
941.500000 83.531958
941.500000 83.906121
941.500000 84.281120
941.500000 84.656955
941.500000 85.033626
941.500000 85.411133
941.500000 85.789477
941.500000 86.168656
941.500000 86.548672
941.500000 86.929524
941.500000 87.311212
941.500000 87.693736
941.500000 88.077096
941.500000 88.461292
941.500000 88.846324
941.500000 89.232193
941.500000 89.618897
941.500000 90.006438
941.500000 90.394815
941.500000 90.784028
941.500000 91.174077
941.500000 91.564962
941.500000 91.956684
941.500000 92.349241
941.500000 92.742634
941.500000 93.136864
941.500000 93.531930
941.500000 93.927832
941.500000 94.324570
941.500000 94.722144
941.500000 95.120554
941.500000 95.519801
941.500000 95.919883
941.500000 96.320802
941.500000 96.722557
941.500000 97.125147
941.500000 97.528574
941.500000 97.932837
941.500000 98.337937
941.500000 98.743872
941.500000 99.150643
941.500000 99.558251
941.500000 99.966695
941.500000 100.375974
941.500000 100.786090
941.500000 101.197042
941.500000 101.608831
941.500000 102.021455
941.500000 102.434915
941.500000 102.849212
941.500000 103.264344
941.500000 103.680313
941.500000 104.097118
941.500000 104.514759
941.500000 104.933236
941.500000 105.352549
941.500000 105.772699
941.500000 106.193684
941.500000 106.615506
941.500000 107.038163
941.500000 107.461657
941.500000 107.885987
941.500000 108.311153
941.500000 108.737155
941.500000 109.163993
941.500000 109.591668
941.500000 110.020178
941.500000 110.449525
941.500000 110.879708
941.500000 111.310727
941.500000 111.742582
941.500000 112.175273
941.500000 112.608800
941.500000 113.043163
941.500000 113.478363
941.500000 113.914398
941.500000 114.351270
941.500000 114.788978
941.500000 115.227522
941.500000 115.666902
941.500000 116.107118
941.500000 116.548170
941.500000 116.990059
941.500000 117.432783
941.500000 117.876344
941.500000 118.320740
941.500000 118.765973
941.500000 119.212042
941.500000 119.658947
941.500000 120.106689
941.500000 120.555266
941.500000 121.004679
941.500000 121.454929
941.500000 121.906015
941.500000 122.357937
941.500000 122.810695
941.500000 123.264289
941.500000 123.718719
941.500000 124.173985
941.500000 124.630087
941.500000 125.087026
941.500000 125.544801
941.500000 126.003411
941.500000 126.462858
941.500000 126.923141
941.500000 127.384260
941.500000 127.846216
941.500000 128.309007
941.500000 128.772634
941.500000 129.237098
941.500000 129.702398
941.500000 130.168534
941.500000 130.635505
941.500000 131.103314
941.500000 131.571958
941.500000 132.041438
941.500000 132.511754
941.500000 132.982907
941.500000 133.454896
941.500000 133.927720
941.500000 134.401381
941.500000 134.875878
941.500000 135.351211
941.500000 135.827381
941.500000 136.304386
941.500000 136.782227
941.500000 137.260905
941.500000 137.740419
941.500000 138.220769
941.500000 138.701955
941.500000 139.183977
941.500000 139.666835
941.500000 140.150529
941.500000 140.635060
941.500000 141.120426
941.500000 141.606629
941.500000 142.093668
941.500000 142.581542
941.500000 143.070253
941.500000 143.559801
941.500000 144.050184
941.500000 144.541403
941.500000 145.033459
941.500000 145.526350
941.500000 146.020078
941.500000 146.514642
941.500000 147.010042
941.500000 147.506278
941.500000 148.003350
941.500000 148.501258
941.500000 149.000003
941.500000 149.499583
941.500000 150.000000
</POINTS>
</NEKTAR>

