<?xml version="1.0" encoding="utf-8" ?>
<NEKTAR>
<POINTS DIM="2" FIELDS="">
661.500000 0.000000
661.500000 0.000418
661.500000 0.001672
661.500000 0.003763
661.500000 0.006689
661.500000 0.010451
661.500000 0.015050
661.500000 0.020485
661.500000 0.026756
661.500000 0.033863
661.500000 0.041806
661.500000 0.050585
661.500000 0.060201
661.500000 0.070652
661.500000 0.081940
661.500000 0.094063
661.500000 0.107023
661.500000 0.120819
661.500000 0.135451
661.500000 0.150919
661.500000 0.167224
661.500000 0.184364
661.500000 0.202341
661.500000 0.221153
661.500000 0.240802
661.500000 0.261287
661.500000 0.282608
661.500000 0.304765
661.500000 0.327758
661.500000 0.351588
661.500000 0.376253
661.500000 0.401755
661.500000 0.428092
661.500000 0.455266
661.500000 0.483276
661.500000 0.512122
661.500000 0.541805
661.500000 0.572323
661.500000 0.603677
661.500000 0.635868
661.500000 0.668894
661.500000 0.702757
661.500000 0.737456
661.500000 0.772991
661.500000 0.809362
661.500000 0.846570
661.500000 0.884613
661.500000 0.923492
661.500000 0.963208
661.500000 1.003760
661.500000 1.045148
661.500000 1.087372
661.500000 1.130432
661.500000 1.174328
661.500000 1.219060
661.500000 1.264629
661.500000 1.311033
661.500000 1.358274
661.500000 1.406351
661.500000 1.455264
661.500000 1.505013
661.500000 1.555598
661.500000 1.607019
661.500000 1.659276
661.500000 1.712370
661.500000 1.766299
661.500000 1.821065
661.500000 1.876667
661.500000 1.933105
661.500000 1.990379
661.500000 2.048489
661.500000 2.107436
661.500000 2.167218
661.500000 2.227837
661.500000 2.289291
661.500000 2.351582
661.500000 2.414709
661.500000 2.478672
661.500000 2.543471
661.500000 2.609106
661.500000 2.675578
661.500000 2.742885
661.500000 2.811029
661.500000 2.880009
661.500000 2.949825
661.500000 3.020477
661.500000 3.091965
661.500000 3.164289
661.500000 3.237449
661.500000 3.311446
661.500000 3.386278
661.500000 3.461947
661.500000 3.538452
661.500000 3.615793
661.500000 3.693970
661.500000 3.772983
661.500000 3.852832
661.500000 3.933517
661.500000 4.015039
661.500000 4.097397
661.500000 4.180590
661.500000 4.264620
661.500000 4.349486
661.500000 4.435188
661.500000 4.521727
661.500000 4.609101
661.500000 4.697311
661.500000 4.786358
661.500000 4.876241
661.500000 4.966959
661.500000 5.058514
661.500000 5.150905
661.500000 5.244133
661.500000 5.338196
661.500000 5.433095
661.500000 5.528831
661.500000 5.625402
661.500000 5.722810
661.500000 5.821054
661.500000 5.920134
661.500000 6.020050
661.500000 6.120802
661.500000 6.222391
661.500000 6.324815
661.500000 6.428076
661.500000 6.532172
661.500000 6.637105
661.500000 6.742874
661.500000 6.849479
661.500000 6.956920
661.500000 7.065198
661.500000 7.174311
661.500000 7.284261
661.500000 7.395046
661.500000 7.506668
661.500000 7.619126
661.500000 7.732420
661.500000 7.846550
661.500000 7.961516
661.500000 8.077319
661.500000 8.193957
661.500000 8.311432
661.500000 8.429742
661.500000 8.548889
661.500000 8.668872
661.500000 8.789691
661.500000 8.911346
661.500000 9.033838
661.500000 9.157165
661.500000 9.281329
661.500000 9.406328
661.500000 9.532164
661.500000 9.658836
661.500000 9.786344
661.500000 9.914688
661.500000 10.043868
661.500000 10.173885
661.500000 10.304737
661.500000 10.436426
661.500000 10.568950
661.500000 10.702311
661.500000 10.836508
661.500000 10.971541
661.500000 11.107411
661.500000 11.244116
661.500000 11.381657
661.500000 11.520035
661.500000 11.659248
661.500000 11.799298
661.500000 11.940184
661.500000 12.081906
661.500000 12.224464
661.500000 12.367859
661.500000 12.512089
661.500000 12.657155
661.500000 12.803058
661.500000 12.949797
661.500000 13.097372
661.500000 13.245782
661.500000 13.395030
661.500000 13.545113
661.500000 13.696032
661.500000 13.847787
661.500000 14.000379
661.500000 14.153807
661.500000 14.308070
661.500000 14.463170
661.500000 14.619106
661.500000 14.775879
661.500000 14.933487
661.500000 15.091931
661.500000 15.251212
661.500000 15.411328
661.500000 15.572281
661.500000 15.734070
661.500000 15.896695
661.500000 16.060156
661.500000 16.224453
661.500000 16.389586
661.500000 16.555556
661.500000 16.722361
661.500000 16.890003
661.500000 17.058481
661.500000 17.227795
661.500000 17.397945
661.500000 17.568931
661.500000 17.740753
661.500000 17.913412
661.500000 18.086906
661.500000 18.261237
661.500000 18.436403
661.500000 18.612406
661.500000 18.789245
661.500000 18.966920
661.500000 19.145432
661.500000 19.324779
661.500000 19.504962
661.500000 19.685982
661.500000 19.867838
661.500000 20.050529
661.500000 20.234057
661.500000 20.418421
661.500000 20.603622
661.500000 20.789658
661.500000 20.976530
661.500000 21.164239
661.500000 21.352783
661.500000 21.542164
661.500000 21.732381
661.500000 21.923434
661.500000 22.115323
661.500000 22.308048
661.500000 22.501610
661.500000 22.696007
661.500000 22.891241
661.500000 23.087310
661.500000 23.284216
661.500000 23.481958
661.500000 23.680536
661.500000 23.879950
661.500000 24.080200
661.500000 24.281287
661.500000 24.483209
661.500000 24.685968
661.500000 24.889563
661.500000 25.093994
661.500000 25.299261
661.500000 25.505364
661.500000 25.712303
661.500000 25.920078
661.500000 26.128690
661.500000 26.338137
661.500000 26.548421
661.500000 26.759541
661.500000 26.971497
661.500000 27.184289
661.500000 27.397917
661.500000 27.612381
661.500000 27.827682
661.500000 28.043818
661.500000 28.260791
661.500000 28.478600
661.500000 28.697244
661.500000 28.916725
661.500000 29.137043
661.500000 29.358196
661.500000 29.580185
661.500000 29.803011
661.500000 30.026672
661.500000 30.251170
661.500000 30.476504
661.500000 30.702674
661.500000 30.929680
661.500000 31.157522
661.500000 31.386200
661.500000 31.615715
661.500000 31.846065
661.500000 32.077252
661.500000 32.309275
661.500000 32.542133
661.500000 32.775828
661.500000 33.010360
661.500000 33.245727
661.500000 33.481930
661.500000 33.718970
661.500000 33.956845
661.500000 34.195557
661.500000 34.435105
661.500000 34.675489
661.500000 34.916709
661.500000 35.158765
661.500000 35.401657
661.500000 35.645386
661.500000 35.889950
661.500000 36.135351
661.500000 36.381588
661.500000 36.628660
661.500000 36.876569
661.500000 37.125315
661.500000 37.374896
661.500000 37.625313
661.500000 37.876567
661.500000 38.128656
661.500000 38.381582
661.500000 38.635344
661.500000 38.889942
661.500000 39.145376
661.500000 39.401646
661.500000 39.658752
661.500000 39.916695
661.500000 40.175473
661.500000 40.435088
661.500000 40.695539
661.500000 40.956826
661.500000 41.218949
661.500000 41.481908
661.500000 41.745703
661.500000 42.010334
661.500000 42.275802
661.500000 42.542106
661.500000 42.809245
661.500000 43.077221
661.500000 43.346033
661.500000 43.615681
661.500000 43.886165
661.500000 44.157486
661.500000 44.429642
661.500000 44.702635
661.500000 44.976463
661.500000 45.251128
661.500000 45.526629
661.500000 45.802966
661.500000 46.080139
661.500000 46.358148
661.500000 46.636994
661.500000 46.916675
661.500000 47.197193
661.500000 47.478547
661.500000 47.760736
661.500000 48.043762
661.500000 48.327625
661.500000 48.612323
661.500000 48.897857
661.500000 49.184227
661.500000 49.471434
661.500000 49.759477
661.500000 50.048355
661.500000 50.338070
661.500000 50.628621
661.500000 50.920009
661.500000 51.212232
661.500000 51.505291
661.500000 51.799187
661.500000 52.093918
661.500000 52.389486
661.500000 52.685890
661.500000 52.983130
661.500000 53.281206
661.500000 53.580118
661.500000 53.879867
661.500000 54.180451
661.500000 54.481872
661.500000 54.784128
661.500000 55.087221
661.500000 55.391150
661.500000 55.695915
661.500000 56.001516
661.500000 56.307953
661.500000 56.615227
661.500000 56.923336
661.500000 57.232282
661.500000 57.542064
661.500000 57.852682
661.500000 58.164136
661.500000 58.476426
661.500000 58.789552
661.500000 59.103514
661.500000 59.418313
661.500000 59.733947
661.500000 60.050418
661.500000 60.367725
661.500000 60.685868
661.500000 61.004847
661.500000 61.324662
661.500000 61.645313
661.500000 61.966801
661.500000 62.289124
661.500000 62.612284
661.500000 62.936279
661.500000 63.261111
661.500000 63.586779
661.500000 63.913283
661.500000 64.240624
661.500000 64.568800
661.500000 64.897812
661.500000 65.227661
661.500000 65.558346
661.500000 65.889867
661.500000 66.222223
661.500000 66.555417
661.500000 66.889446
661.500000 67.224311
661.500000 67.560012
661.500000 67.896550
661.500000 68.233924
661.500000 68.572133
661.500000 68.911179
661.500000 69.251061
661.500000 69.591779
661.500000 69.933334
661.500000 70.275724
661.500000 70.618950
661.500000 70.963013
661.500000 71.307912
661.500000 71.653646
661.500000 72.000217
661.500000 72.347624
661.500000 72.695868
661.500000 73.044947
661.500000 73.394862
661.500000 73.745614
661.500000 74.097202
661.500000 74.449625
661.500000 74.802885
661.500000 75.156981
661.500000 75.511913
661.500000 75.867682
661.500000 76.224286
661.500000 76.581726
661.500000 76.940003
661.500000 77.299116
661.500000 77.659064
661.500000 78.019849
661.500000 78.381471
661.500000 78.743928
661.500000 79.107221
661.500000 79.471350
661.500000 79.836316
661.500000 80.202118
661.500000 80.568755
661.500000 80.936229
661.500000 81.304539
661.500000 81.673685
661.500000 82.043668
661.500000 82.414486
661.500000 82.786141
661.500000 83.158631
661.500000 83.531958
661.500000 83.906121
661.500000 84.281120
661.500000 84.656955
661.500000 85.033626
661.500000 85.411133
661.500000 85.789477
661.500000 86.168656
661.500000 86.548672
661.500000 86.929524
661.500000 87.311212
661.500000 87.693736
661.500000 88.077096
661.500000 88.461292
661.500000 88.846324
661.500000 89.232193
661.500000 89.618897
661.500000 90.006438
661.500000 90.394815
661.500000 90.784028
661.500000 91.174077
661.500000 91.564962
661.500000 91.956684
661.500000 92.349241
661.500000 92.742634
661.500000 93.136864
661.500000 93.531930
661.500000 93.927832
661.500000 94.324570
661.500000 94.722144
661.500000 95.120554
661.500000 95.519801
661.500000 95.919883
661.500000 96.320802
661.500000 96.722557
661.500000 97.125147
661.500000 97.528574
661.500000 97.932837
661.500000 98.337937
661.500000 98.743872
661.500000 99.150643
661.500000 99.558251
661.500000 99.966695
661.500000 100.375974
661.500000 100.786090
661.500000 101.197042
661.500000 101.608831
661.500000 102.021455
661.500000 102.434915
661.500000 102.849212
661.500000 103.264344
661.500000 103.680313
661.500000 104.097118
661.500000 104.514759
661.500000 104.933236
661.500000 105.352549
661.500000 105.772699
661.500000 106.193684
661.500000 106.615506
661.500000 107.038163
661.500000 107.461657
661.500000 107.885987
661.500000 108.311153
661.500000 108.737155
661.500000 109.163993
661.500000 109.591668
661.500000 110.020178
661.500000 110.449525
661.500000 110.879708
661.500000 111.310727
661.500000 111.742582
661.500000 112.175273
661.500000 112.608800
661.500000 113.043163
661.500000 113.478363
661.500000 113.914398
661.500000 114.351270
661.500000 114.788978
661.500000 115.227522
661.500000 115.666902
661.500000 116.107118
661.500000 116.548170
661.500000 116.990059
661.500000 117.432783
661.500000 117.876344
661.500000 118.320740
661.500000 118.765973
661.500000 119.212042
661.500000 119.658947
661.500000 120.106689
661.500000 120.555266
661.500000 121.004679
661.500000 121.454929
661.500000 121.906015
661.500000 122.357937
661.500000 122.810695
661.500000 123.264289
661.500000 123.718719
661.500000 124.173985
661.500000 124.630087
661.500000 125.087026
661.500000 125.544801
661.500000 126.003411
661.500000 126.462858
661.500000 126.923141
661.500000 127.384260
661.500000 127.846216
661.500000 128.309007
661.500000 128.772634
661.500000 129.237098
661.500000 129.702398
661.500000 130.168534
661.500000 130.635505
661.500000 131.103314
661.500000 131.571958
661.500000 132.041438
661.500000 132.511754
661.500000 132.982907
661.500000 133.454896
661.500000 133.927720
661.500000 134.401381
661.500000 134.875878
661.500000 135.351211
661.500000 135.827381
661.500000 136.304386
661.500000 136.782227
661.500000 137.260905
661.500000 137.740419
661.500000 138.220769
661.500000 138.701955
661.500000 139.183977
661.500000 139.666835
661.500000 140.150529
661.500000 140.635060
661.500000 141.120426
661.500000 141.606629
661.500000 142.093668
661.500000 142.581542
661.500000 143.070253
661.500000 143.559801
661.500000 144.050184
661.500000 144.541403
661.500000 145.033459
661.500000 145.526350
661.500000 146.020078
661.500000 146.514642
661.500000 147.010042
661.500000 147.506278
661.500000 148.003350
661.500000 148.501258
661.500000 149.000003
661.500000 149.499583
661.500000 150.000000
</POINTS>
</NEKTAR>

