<?xml version="1.0" encoding="utf-8" ?>
<NEKTAR>
<POINTS DIM="2" FIELDS="">
781.500000 0.000000
781.500000 0.000418
781.500000 0.001672
781.500000 0.003763
781.500000 0.006689
781.500000 0.010451
781.500000 0.015050
781.500000 0.020485
781.500000 0.026756
781.500000 0.033863
781.500000 0.041806
781.500000 0.050585
781.500000 0.060201
781.500000 0.070652
781.500000 0.081940
781.500000 0.094063
781.500000 0.107023
781.500000 0.120819
781.500000 0.135451
781.500000 0.150919
781.500000 0.167224
781.500000 0.184364
781.500000 0.202341
781.500000 0.221153
781.500000 0.240802
781.500000 0.261287
781.500000 0.282608
781.500000 0.304765
781.500000 0.327758
781.500000 0.351588
781.500000 0.376253
781.500000 0.401755
781.500000 0.428092
781.500000 0.455266
781.500000 0.483276
781.500000 0.512122
781.500000 0.541805
781.500000 0.572323
781.500000 0.603677
781.500000 0.635868
781.500000 0.668894
781.500000 0.702757
781.500000 0.737456
781.500000 0.772991
781.500000 0.809362
781.500000 0.846570
781.500000 0.884613
781.500000 0.923492
781.500000 0.963208
781.500000 1.003760
781.500000 1.045148
781.500000 1.087372
781.500000 1.130432
781.500000 1.174328
781.500000 1.219060
781.500000 1.264629
781.500000 1.311033
781.500000 1.358274
781.500000 1.406351
781.500000 1.455264
781.500000 1.505013
781.500000 1.555598
781.500000 1.607019
781.500000 1.659276
781.500000 1.712370
781.500000 1.766299
781.500000 1.821065
781.500000 1.876667
781.500000 1.933105
781.500000 1.990379
781.500000 2.048489
781.500000 2.107436
781.500000 2.167218
781.500000 2.227837
781.500000 2.289291
781.500000 2.351582
781.500000 2.414709
781.500000 2.478672
781.500000 2.543471
781.500000 2.609106
781.500000 2.675578
781.500000 2.742885
781.500000 2.811029
781.500000 2.880009
781.500000 2.949825
781.500000 3.020477
781.500000 3.091965
781.500000 3.164289
781.500000 3.237449
781.500000 3.311446
781.500000 3.386278
781.500000 3.461947
781.500000 3.538452
781.500000 3.615793
781.500000 3.693970
781.500000 3.772983
781.500000 3.852832
781.500000 3.933517
781.500000 4.015039
781.500000 4.097397
781.500000 4.180590
781.500000 4.264620
781.500000 4.349486
781.500000 4.435188
781.500000 4.521727
781.500000 4.609101
781.500000 4.697311
781.500000 4.786358
781.500000 4.876241
781.500000 4.966959
781.500000 5.058514
781.500000 5.150905
781.500000 5.244133
781.500000 5.338196
781.500000 5.433095
781.500000 5.528831
781.500000 5.625402
781.500000 5.722810
781.500000 5.821054
781.500000 5.920134
781.500000 6.020050
781.500000 6.120802
781.500000 6.222391
781.500000 6.324815
781.500000 6.428076
781.500000 6.532172
781.500000 6.637105
781.500000 6.742874
781.500000 6.849479
781.500000 6.956920
781.500000 7.065198
781.500000 7.174311
781.500000 7.284261
781.500000 7.395046
781.500000 7.506668
781.500000 7.619126
781.500000 7.732420
781.500000 7.846550
781.500000 7.961516
781.500000 8.077319
781.500000 8.193957
781.500000 8.311432
781.500000 8.429742
781.500000 8.548889
781.500000 8.668872
781.500000 8.789691
781.500000 8.911346
781.500000 9.033838
781.500000 9.157165
781.500000 9.281329
781.500000 9.406328
781.500000 9.532164
781.500000 9.658836
781.500000 9.786344
781.500000 9.914688
781.500000 10.043868
781.500000 10.173885
781.500000 10.304737
781.500000 10.436426
781.500000 10.568950
781.500000 10.702311
781.500000 10.836508
781.500000 10.971541
781.500000 11.107411
781.500000 11.244116
781.500000 11.381657
781.500000 11.520035
781.500000 11.659248
781.500000 11.799298
781.500000 11.940184
781.500000 12.081906
781.500000 12.224464
781.500000 12.367859
781.500000 12.512089
781.500000 12.657155
781.500000 12.803058
781.500000 12.949797
781.500000 13.097372
781.500000 13.245782
781.500000 13.395030
781.500000 13.545113
781.500000 13.696032
781.500000 13.847787
781.500000 14.000379
781.500000 14.153807
781.500000 14.308070
781.500000 14.463170
781.500000 14.619106
781.500000 14.775879
781.500000 14.933487
781.500000 15.091931
781.500000 15.251212
781.500000 15.411328
781.500000 15.572281
781.500000 15.734070
781.500000 15.896695
781.500000 16.060156
781.500000 16.224453
781.500000 16.389586
781.500000 16.555556
781.500000 16.722361
781.500000 16.890003
781.500000 17.058481
781.500000 17.227795
781.500000 17.397945
781.500000 17.568931
781.500000 17.740753
781.500000 17.913412
781.500000 18.086906
781.500000 18.261237
781.500000 18.436403
781.500000 18.612406
781.500000 18.789245
781.500000 18.966920
781.500000 19.145432
781.500000 19.324779
781.500000 19.504962
781.500000 19.685982
781.500000 19.867838
781.500000 20.050529
781.500000 20.234057
781.500000 20.418421
781.500000 20.603622
781.500000 20.789658
781.500000 20.976530
781.500000 21.164239
781.500000 21.352783
781.500000 21.542164
781.500000 21.732381
781.500000 21.923434
781.500000 22.115323
781.500000 22.308048
781.500000 22.501610
781.500000 22.696007
781.500000 22.891241
781.500000 23.087310
781.500000 23.284216
781.500000 23.481958
781.500000 23.680536
781.500000 23.879950
781.500000 24.080200
781.500000 24.281287
781.500000 24.483209
781.500000 24.685968
781.500000 24.889563
781.500000 25.093994
781.500000 25.299261
781.500000 25.505364
781.500000 25.712303
781.500000 25.920078
781.500000 26.128690
781.500000 26.338137
781.500000 26.548421
781.500000 26.759541
781.500000 26.971497
781.500000 27.184289
781.500000 27.397917
781.500000 27.612381
781.500000 27.827682
781.500000 28.043818
781.500000 28.260791
781.500000 28.478600
781.500000 28.697244
781.500000 28.916725
781.500000 29.137043
781.500000 29.358196
781.500000 29.580185
781.500000 29.803011
781.500000 30.026672
781.500000 30.251170
781.500000 30.476504
781.500000 30.702674
781.500000 30.929680
781.500000 31.157522
781.500000 31.386200
781.500000 31.615715
781.500000 31.846065
781.500000 32.077252
781.500000 32.309275
781.500000 32.542133
781.500000 32.775828
781.500000 33.010360
781.500000 33.245727
781.500000 33.481930
781.500000 33.718970
781.500000 33.956845
781.500000 34.195557
781.500000 34.435105
781.500000 34.675489
781.500000 34.916709
781.500000 35.158765
781.500000 35.401657
781.500000 35.645386
781.500000 35.889950
781.500000 36.135351
781.500000 36.381588
781.500000 36.628660
781.500000 36.876569
781.500000 37.125315
781.500000 37.374896
781.500000 37.625313
781.500000 37.876567
781.500000 38.128656
781.500000 38.381582
781.500000 38.635344
781.500000 38.889942
781.500000 39.145376
781.500000 39.401646
781.500000 39.658752
781.500000 39.916695
781.500000 40.175473
781.500000 40.435088
781.500000 40.695539
781.500000 40.956826
781.500000 41.218949
781.500000 41.481908
781.500000 41.745703
781.500000 42.010334
781.500000 42.275802
781.500000 42.542106
781.500000 42.809245
781.500000 43.077221
781.500000 43.346033
781.500000 43.615681
781.500000 43.886165
781.500000 44.157486
781.500000 44.429642
781.500000 44.702635
781.500000 44.976463
781.500000 45.251128
781.500000 45.526629
781.500000 45.802966
781.500000 46.080139
781.500000 46.358148
781.500000 46.636994
781.500000 46.916675
781.500000 47.197193
781.500000 47.478547
781.500000 47.760736
781.500000 48.043762
781.500000 48.327625
781.500000 48.612323
781.500000 48.897857
781.500000 49.184227
781.500000 49.471434
781.500000 49.759477
781.500000 50.048355
781.500000 50.338070
781.500000 50.628621
781.500000 50.920009
781.500000 51.212232
781.500000 51.505291
781.500000 51.799187
781.500000 52.093918
781.500000 52.389486
781.500000 52.685890
781.500000 52.983130
781.500000 53.281206
781.500000 53.580118
781.500000 53.879867
781.500000 54.180451
781.500000 54.481872
781.500000 54.784128
781.500000 55.087221
781.500000 55.391150
781.500000 55.695915
781.500000 56.001516
781.500000 56.307953
781.500000 56.615227
781.500000 56.923336
781.500000 57.232282
781.500000 57.542064
781.500000 57.852682
781.500000 58.164136
781.500000 58.476426
781.500000 58.789552
781.500000 59.103514
781.500000 59.418313
781.500000 59.733947
781.500000 60.050418
781.500000 60.367725
781.500000 60.685868
781.500000 61.004847
781.500000 61.324662
781.500000 61.645313
781.500000 61.966801
781.500000 62.289124
781.500000 62.612284
781.500000 62.936279
781.500000 63.261111
781.500000 63.586779
781.500000 63.913283
781.500000 64.240624
781.500000 64.568800
781.500000 64.897812
781.500000 65.227661
781.500000 65.558346
781.500000 65.889867
781.500000 66.222223
781.500000 66.555417
781.500000 66.889446
781.500000 67.224311
781.500000 67.560012
781.500000 67.896550
781.500000 68.233924
781.500000 68.572133
781.500000 68.911179
781.500000 69.251061
781.500000 69.591779
781.500000 69.933334
781.500000 70.275724
781.500000 70.618950
781.500000 70.963013
781.500000 71.307912
781.500000 71.653646
781.500000 72.000217
781.500000 72.347624
781.500000 72.695868
781.500000 73.044947
781.500000 73.394862
781.500000 73.745614
781.500000 74.097202
781.500000 74.449625
781.500000 74.802885
781.500000 75.156981
781.500000 75.511913
781.500000 75.867682
781.500000 76.224286
781.500000 76.581726
781.500000 76.940003
781.500000 77.299116
781.500000 77.659064
781.500000 78.019849
781.500000 78.381471
781.500000 78.743928
781.500000 79.107221
781.500000 79.471350
781.500000 79.836316
781.500000 80.202118
781.500000 80.568755
781.500000 80.936229
781.500000 81.304539
781.500000 81.673685
781.500000 82.043668
781.500000 82.414486
781.500000 82.786141
781.500000 83.158631
781.500000 83.531958
781.500000 83.906121
781.500000 84.281120
781.500000 84.656955
781.500000 85.033626
781.500000 85.411133
781.500000 85.789477
781.500000 86.168656
781.500000 86.548672
781.500000 86.929524
781.500000 87.311212
781.500000 87.693736
781.500000 88.077096
781.500000 88.461292
781.500000 88.846324
781.500000 89.232193
781.500000 89.618897
781.500000 90.006438
781.500000 90.394815
781.500000 90.784028
781.500000 91.174077
781.500000 91.564962
781.500000 91.956684
781.500000 92.349241
781.500000 92.742634
781.500000 93.136864
781.500000 93.531930
781.500000 93.927832
781.500000 94.324570
781.500000 94.722144
781.500000 95.120554
781.500000 95.519801
781.500000 95.919883
781.500000 96.320802
781.500000 96.722557
781.500000 97.125147
781.500000 97.528574
781.500000 97.932837
781.500000 98.337937
781.500000 98.743872
781.500000 99.150643
781.500000 99.558251
781.500000 99.966695
781.500000 100.375974
781.500000 100.786090
781.500000 101.197042
781.500000 101.608831
781.500000 102.021455
781.500000 102.434915
781.500000 102.849212
781.500000 103.264344
781.500000 103.680313
781.500000 104.097118
781.500000 104.514759
781.500000 104.933236
781.500000 105.352549
781.500000 105.772699
781.500000 106.193684
781.500000 106.615506
781.500000 107.038163
781.500000 107.461657
781.500000 107.885987
781.500000 108.311153
781.500000 108.737155
781.500000 109.163993
781.500000 109.591668
781.500000 110.020178
781.500000 110.449525
781.500000 110.879708
781.500000 111.310727
781.500000 111.742582
781.500000 112.175273
781.500000 112.608800
781.500000 113.043163
781.500000 113.478363
781.500000 113.914398
781.500000 114.351270
781.500000 114.788978
781.500000 115.227522
781.500000 115.666902
781.500000 116.107118
781.500000 116.548170
781.500000 116.990059
781.500000 117.432783
781.500000 117.876344
781.500000 118.320740
781.500000 118.765973
781.500000 119.212042
781.500000 119.658947
781.500000 120.106689
781.500000 120.555266
781.500000 121.004679
781.500000 121.454929
781.500000 121.906015
781.500000 122.357937
781.500000 122.810695
781.500000 123.264289
781.500000 123.718719
781.500000 124.173985
781.500000 124.630087
781.500000 125.087026
781.500000 125.544801
781.500000 126.003411
781.500000 126.462858
781.500000 126.923141
781.500000 127.384260
781.500000 127.846216
781.500000 128.309007
781.500000 128.772634
781.500000 129.237098
781.500000 129.702398
781.500000 130.168534
781.500000 130.635505
781.500000 131.103314
781.500000 131.571958
781.500000 132.041438
781.500000 132.511754
781.500000 132.982907
781.500000 133.454896
781.500000 133.927720
781.500000 134.401381
781.500000 134.875878
781.500000 135.351211
781.500000 135.827381
781.500000 136.304386
781.500000 136.782227
781.500000 137.260905
781.500000 137.740419
781.500000 138.220769
781.500000 138.701955
781.500000 139.183977
781.500000 139.666835
781.500000 140.150529
781.500000 140.635060
781.500000 141.120426
781.500000 141.606629
781.500000 142.093668
781.500000 142.581542
781.500000 143.070253
781.500000 143.559801
781.500000 144.050184
781.500000 144.541403
781.500000 145.033459
781.500000 145.526350
781.500000 146.020078
781.500000 146.514642
781.500000 147.010042
781.500000 147.506278
781.500000 148.003350
781.500000 148.501258
781.500000 149.000003
781.500000 149.499583
781.500000 150.000000
</POINTS>
</NEKTAR>

