<?xml version="1.0" encoding="utf-8" ?>
<NEKTAR>
<POINTS DIM="2" FIELDS="">
681.500000 0.000000
681.500000 0.000418
681.500000 0.001672
681.500000 0.003763
681.500000 0.006689
681.500000 0.010451
681.500000 0.015050
681.500000 0.020485
681.500000 0.026756
681.500000 0.033863
681.500000 0.041806
681.500000 0.050585
681.500000 0.060201
681.500000 0.070652
681.500000 0.081940
681.500000 0.094063
681.500000 0.107023
681.500000 0.120819
681.500000 0.135451
681.500000 0.150919
681.500000 0.167224
681.500000 0.184364
681.500000 0.202341
681.500000 0.221153
681.500000 0.240802
681.500000 0.261287
681.500000 0.282608
681.500000 0.304765
681.500000 0.327758
681.500000 0.351588
681.500000 0.376253
681.500000 0.401755
681.500000 0.428092
681.500000 0.455266
681.500000 0.483276
681.500000 0.512122
681.500000 0.541805
681.500000 0.572323
681.500000 0.603677
681.500000 0.635868
681.500000 0.668894
681.500000 0.702757
681.500000 0.737456
681.500000 0.772991
681.500000 0.809362
681.500000 0.846570
681.500000 0.884613
681.500000 0.923492
681.500000 0.963208
681.500000 1.003760
681.500000 1.045148
681.500000 1.087372
681.500000 1.130432
681.500000 1.174328
681.500000 1.219060
681.500000 1.264629
681.500000 1.311033
681.500000 1.358274
681.500000 1.406351
681.500000 1.455264
681.500000 1.505013
681.500000 1.555598
681.500000 1.607019
681.500000 1.659276
681.500000 1.712370
681.500000 1.766299
681.500000 1.821065
681.500000 1.876667
681.500000 1.933105
681.500000 1.990379
681.500000 2.048489
681.500000 2.107436
681.500000 2.167218
681.500000 2.227837
681.500000 2.289291
681.500000 2.351582
681.500000 2.414709
681.500000 2.478672
681.500000 2.543471
681.500000 2.609106
681.500000 2.675578
681.500000 2.742885
681.500000 2.811029
681.500000 2.880009
681.500000 2.949825
681.500000 3.020477
681.500000 3.091965
681.500000 3.164289
681.500000 3.237449
681.500000 3.311446
681.500000 3.386278
681.500000 3.461947
681.500000 3.538452
681.500000 3.615793
681.500000 3.693970
681.500000 3.772983
681.500000 3.852832
681.500000 3.933517
681.500000 4.015039
681.500000 4.097397
681.500000 4.180590
681.500000 4.264620
681.500000 4.349486
681.500000 4.435188
681.500000 4.521727
681.500000 4.609101
681.500000 4.697311
681.500000 4.786358
681.500000 4.876241
681.500000 4.966959
681.500000 5.058514
681.500000 5.150905
681.500000 5.244133
681.500000 5.338196
681.500000 5.433095
681.500000 5.528831
681.500000 5.625402
681.500000 5.722810
681.500000 5.821054
681.500000 5.920134
681.500000 6.020050
681.500000 6.120802
681.500000 6.222391
681.500000 6.324815
681.500000 6.428076
681.500000 6.532172
681.500000 6.637105
681.500000 6.742874
681.500000 6.849479
681.500000 6.956920
681.500000 7.065198
681.500000 7.174311
681.500000 7.284261
681.500000 7.395046
681.500000 7.506668
681.500000 7.619126
681.500000 7.732420
681.500000 7.846550
681.500000 7.961516
681.500000 8.077319
681.500000 8.193957
681.500000 8.311432
681.500000 8.429742
681.500000 8.548889
681.500000 8.668872
681.500000 8.789691
681.500000 8.911346
681.500000 9.033838
681.500000 9.157165
681.500000 9.281329
681.500000 9.406328
681.500000 9.532164
681.500000 9.658836
681.500000 9.786344
681.500000 9.914688
681.500000 10.043868
681.500000 10.173885
681.500000 10.304737
681.500000 10.436426
681.500000 10.568950
681.500000 10.702311
681.500000 10.836508
681.500000 10.971541
681.500000 11.107411
681.500000 11.244116
681.500000 11.381657
681.500000 11.520035
681.500000 11.659248
681.500000 11.799298
681.500000 11.940184
681.500000 12.081906
681.500000 12.224464
681.500000 12.367859
681.500000 12.512089
681.500000 12.657155
681.500000 12.803058
681.500000 12.949797
681.500000 13.097372
681.500000 13.245782
681.500000 13.395030
681.500000 13.545113
681.500000 13.696032
681.500000 13.847787
681.500000 14.000379
681.500000 14.153807
681.500000 14.308070
681.500000 14.463170
681.500000 14.619106
681.500000 14.775879
681.500000 14.933487
681.500000 15.091931
681.500000 15.251212
681.500000 15.411328
681.500000 15.572281
681.500000 15.734070
681.500000 15.896695
681.500000 16.060156
681.500000 16.224453
681.500000 16.389586
681.500000 16.555556
681.500000 16.722361
681.500000 16.890003
681.500000 17.058481
681.500000 17.227795
681.500000 17.397945
681.500000 17.568931
681.500000 17.740753
681.500000 17.913412
681.500000 18.086906
681.500000 18.261237
681.500000 18.436403
681.500000 18.612406
681.500000 18.789245
681.500000 18.966920
681.500000 19.145432
681.500000 19.324779
681.500000 19.504962
681.500000 19.685982
681.500000 19.867838
681.500000 20.050529
681.500000 20.234057
681.500000 20.418421
681.500000 20.603622
681.500000 20.789658
681.500000 20.976530
681.500000 21.164239
681.500000 21.352783
681.500000 21.542164
681.500000 21.732381
681.500000 21.923434
681.500000 22.115323
681.500000 22.308048
681.500000 22.501610
681.500000 22.696007
681.500000 22.891241
681.500000 23.087310
681.500000 23.284216
681.500000 23.481958
681.500000 23.680536
681.500000 23.879950
681.500000 24.080200
681.500000 24.281287
681.500000 24.483209
681.500000 24.685968
681.500000 24.889563
681.500000 25.093994
681.500000 25.299261
681.500000 25.505364
681.500000 25.712303
681.500000 25.920078
681.500000 26.128690
681.500000 26.338137
681.500000 26.548421
681.500000 26.759541
681.500000 26.971497
681.500000 27.184289
681.500000 27.397917
681.500000 27.612381
681.500000 27.827682
681.500000 28.043818
681.500000 28.260791
681.500000 28.478600
681.500000 28.697244
681.500000 28.916725
681.500000 29.137043
681.500000 29.358196
681.500000 29.580185
681.500000 29.803011
681.500000 30.026672
681.500000 30.251170
681.500000 30.476504
681.500000 30.702674
681.500000 30.929680
681.500000 31.157522
681.500000 31.386200
681.500000 31.615715
681.500000 31.846065
681.500000 32.077252
681.500000 32.309275
681.500000 32.542133
681.500000 32.775828
681.500000 33.010360
681.500000 33.245727
681.500000 33.481930
681.500000 33.718970
681.500000 33.956845
681.500000 34.195557
681.500000 34.435105
681.500000 34.675489
681.500000 34.916709
681.500000 35.158765
681.500000 35.401657
681.500000 35.645386
681.500000 35.889950
681.500000 36.135351
681.500000 36.381588
681.500000 36.628660
681.500000 36.876569
681.500000 37.125315
681.500000 37.374896
681.500000 37.625313
681.500000 37.876567
681.500000 38.128656
681.500000 38.381582
681.500000 38.635344
681.500000 38.889942
681.500000 39.145376
681.500000 39.401646
681.500000 39.658752
681.500000 39.916695
681.500000 40.175473
681.500000 40.435088
681.500000 40.695539
681.500000 40.956826
681.500000 41.218949
681.500000 41.481908
681.500000 41.745703
681.500000 42.010334
681.500000 42.275802
681.500000 42.542106
681.500000 42.809245
681.500000 43.077221
681.500000 43.346033
681.500000 43.615681
681.500000 43.886165
681.500000 44.157486
681.500000 44.429642
681.500000 44.702635
681.500000 44.976463
681.500000 45.251128
681.500000 45.526629
681.500000 45.802966
681.500000 46.080139
681.500000 46.358148
681.500000 46.636994
681.500000 46.916675
681.500000 47.197193
681.500000 47.478547
681.500000 47.760736
681.500000 48.043762
681.500000 48.327625
681.500000 48.612323
681.500000 48.897857
681.500000 49.184227
681.500000 49.471434
681.500000 49.759477
681.500000 50.048355
681.500000 50.338070
681.500000 50.628621
681.500000 50.920009
681.500000 51.212232
681.500000 51.505291
681.500000 51.799187
681.500000 52.093918
681.500000 52.389486
681.500000 52.685890
681.500000 52.983130
681.500000 53.281206
681.500000 53.580118
681.500000 53.879867
681.500000 54.180451
681.500000 54.481872
681.500000 54.784128
681.500000 55.087221
681.500000 55.391150
681.500000 55.695915
681.500000 56.001516
681.500000 56.307953
681.500000 56.615227
681.500000 56.923336
681.500000 57.232282
681.500000 57.542064
681.500000 57.852682
681.500000 58.164136
681.500000 58.476426
681.500000 58.789552
681.500000 59.103514
681.500000 59.418313
681.500000 59.733947
681.500000 60.050418
681.500000 60.367725
681.500000 60.685868
681.500000 61.004847
681.500000 61.324662
681.500000 61.645313
681.500000 61.966801
681.500000 62.289124
681.500000 62.612284
681.500000 62.936279
681.500000 63.261111
681.500000 63.586779
681.500000 63.913283
681.500000 64.240624
681.500000 64.568800
681.500000 64.897812
681.500000 65.227661
681.500000 65.558346
681.500000 65.889867
681.500000 66.222223
681.500000 66.555417
681.500000 66.889446
681.500000 67.224311
681.500000 67.560012
681.500000 67.896550
681.500000 68.233924
681.500000 68.572133
681.500000 68.911179
681.500000 69.251061
681.500000 69.591779
681.500000 69.933334
681.500000 70.275724
681.500000 70.618950
681.500000 70.963013
681.500000 71.307912
681.500000 71.653646
681.500000 72.000217
681.500000 72.347624
681.500000 72.695868
681.500000 73.044947
681.500000 73.394862
681.500000 73.745614
681.500000 74.097202
681.500000 74.449625
681.500000 74.802885
681.500000 75.156981
681.500000 75.511913
681.500000 75.867682
681.500000 76.224286
681.500000 76.581726
681.500000 76.940003
681.500000 77.299116
681.500000 77.659064
681.500000 78.019849
681.500000 78.381471
681.500000 78.743928
681.500000 79.107221
681.500000 79.471350
681.500000 79.836316
681.500000 80.202118
681.500000 80.568755
681.500000 80.936229
681.500000 81.304539
681.500000 81.673685
681.500000 82.043668
681.500000 82.414486
681.500000 82.786141
681.500000 83.158631
681.500000 83.531958
681.500000 83.906121
681.500000 84.281120
681.500000 84.656955
681.500000 85.033626
681.500000 85.411133
681.500000 85.789477
681.500000 86.168656
681.500000 86.548672
681.500000 86.929524
681.500000 87.311212
681.500000 87.693736
681.500000 88.077096
681.500000 88.461292
681.500000 88.846324
681.500000 89.232193
681.500000 89.618897
681.500000 90.006438
681.500000 90.394815
681.500000 90.784028
681.500000 91.174077
681.500000 91.564962
681.500000 91.956684
681.500000 92.349241
681.500000 92.742634
681.500000 93.136864
681.500000 93.531930
681.500000 93.927832
681.500000 94.324570
681.500000 94.722144
681.500000 95.120554
681.500000 95.519801
681.500000 95.919883
681.500000 96.320802
681.500000 96.722557
681.500000 97.125147
681.500000 97.528574
681.500000 97.932837
681.500000 98.337937
681.500000 98.743872
681.500000 99.150643
681.500000 99.558251
681.500000 99.966695
681.500000 100.375974
681.500000 100.786090
681.500000 101.197042
681.500000 101.608831
681.500000 102.021455
681.500000 102.434915
681.500000 102.849212
681.500000 103.264344
681.500000 103.680313
681.500000 104.097118
681.500000 104.514759
681.500000 104.933236
681.500000 105.352549
681.500000 105.772699
681.500000 106.193684
681.500000 106.615506
681.500000 107.038163
681.500000 107.461657
681.500000 107.885987
681.500000 108.311153
681.500000 108.737155
681.500000 109.163993
681.500000 109.591668
681.500000 110.020178
681.500000 110.449525
681.500000 110.879708
681.500000 111.310727
681.500000 111.742582
681.500000 112.175273
681.500000 112.608800
681.500000 113.043163
681.500000 113.478363
681.500000 113.914398
681.500000 114.351270
681.500000 114.788978
681.500000 115.227522
681.500000 115.666902
681.500000 116.107118
681.500000 116.548170
681.500000 116.990059
681.500000 117.432783
681.500000 117.876344
681.500000 118.320740
681.500000 118.765973
681.500000 119.212042
681.500000 119.658947
681.500000 120.106689
681.500000 120.555266
681.500000 121.004679
681.500000 121.454929
681.500000 121.906015
681.500000 122.357937
681.500000 122.810695
681.500000 123.264289
681.500000 123.718719
681.500000 124.173985
681.500000 124.630087
681.500000 125.087026
681.500000 125.544801
681.500000 126.003411
681.500000 126.462858
681.500000 126.923141
681.500000 127.384260
681.500000 127.846216
681.500000 128.309007
681.500000 128.772634
681.500000 129.237098
681.500000 129.702398
681.500000 130.168534
681.500000 130.635505
681.500000 131.103314
681.500000 131.571958
681.500000 132.041438
681.500000 132.511754
681.500000 132.982907
681.500000 133.454896
681.500000 133.927720
681.500000 134.401381
681.500000 134.875878
681.500000 135.351211
681.500000 135.827381
681.500000 136.304386
681.500000 136.782227
681.500000 137.260905
681.500000 137.740419
681.500000 138.220769
681.500000 138.701955
681.500000 139.183977
681.500000 139.666835
681.500000 140.150529
681.500000 140.635060
681.500000 141.120426
681.500000 141.606629
681.500000 142.093668
681.500000 142.581542
681.500000 143.070253
681.500000 143.559801
681.500000 144.050184
681.500000 144.541403
681.500000 145.033459
681.500000 145.526350
681.500000 146.020078
681.500000 146.514642
681.500000 147.010042
681.500000 147.506278
681.500000 148.003350
681.500000 148.501258
681.500000 149.000003
681.500000 149.499583
681.500000 150.000000
</POINTS>
</NEKTAR>

