<?xml version="1.0" encoding="utf-8" ?>
<NEKTAR>
<POINTS DIM="2" FIELDS="">
201.500000 0.000000
201.500000 0.000418
201.500000 0.001672
201.500000 0.003763
201.500000 0.006689
201.500000 0.010451
201.500000 0.015050
201.500000 0.020485
201.500000 0.026756
201.500000 0.033863
201.500000 0.041806
201.500000 0.050585
201.500000 0.060201
201.500000 0.070652
201.500000 0.081940
201.500000 0.094063
201.500000 0.107023
201.500000 0.120819
201.500000 0.135451
201.500000 0.150919
201.500000 0.167224
201.500000 0.184364
201.500000 0.202341
201.500000 0.221153
201.500000 0.240802
201.500000 0.261287
201.500000 0.282608
201.500000 0.304765
201.500000 0.327758
201.500000 0.351588
201.500000 0.376253
201.500000 0.401755
201.500000 0.428092
201.500000 0.455266
201.500000 0.483276
201.500000 0.512122
201.500000 0.541805
201.500000 0.572323
201.500000 0.603677
201.500000 0.635868
201.500000 0.668894
201.500000 0.702757
201.500000 0.737456
201.500000 0.772991
201.500000 0.809362
201.500000 0.846570
201.500000 0.884613
201.500000 0.923492
201.500000 0.963208
201.500000 1.003760
201.500000 1.045148
201.500000 1.087372
201.500000 1.130432
201.500000 1.174328
201.500000 1.219060
201.500000 1.264629
201.500000 1.311033
201.500000 1.358274
201.500000 1.406351
201.500000 1.455264
201.500000 1.505013
201.500000 1.555598
201.500000 1.607019
201.500000 1.659276
201.500000 1.712370
201.500000 1.766299
201.500000 1.821065
201.500000 1.876667
201.500000 1.933105
201.500000 1.990379
201.500000 2.048489
201.500000 2.107436
201.500000 2.167218
201.500000 2.227837
201.500000 2.289291
201.500000 2.351582
201.500000 2.414709
201.500000 2.478672
201.500000 2.543471
201.500000 2.609106
201.500000 2.675578
201.500000 2.742885
201.500000 2.811029
201.500000 2.880009
201.500000 2.949825
201.500000 3.020477
201.500000 3.091965
201.500000 3.164289
201.500000 3.237449
201.500000 3.311446
201.500000 3.386278
201.500000 3.461947
201.500000 3.538452
201.500000 3.615793
201.500000 3.693970
201.500000 3.772983
201.500000 3.852832
201.500000 3.933517
201.500000 4.015039
201.500000 4.097397
201.500000 4.180590
201.500000 4.264620
201.500000 4.349486
201.500000 4.435188
201.500000 4.521727
201.500000 4.609101
201.500000 4.697311
201.500000 4.786358
201.500000 4.876241
201.500000 4.966959
201.500000 5.058514
201.500000 5.150905
201.500000 5.244133
201.500000 5.338196
201.500000 5.433095
201.500000 5.528831
201.500000 5.625402
201.500000 5.722810
201.500000 5.821054
201.500000 5.920134
201.500000 6.020050
201.500000 6.120802
201.500000 6.222391
201.500000 6.324815
201.500000 6.428076
201.500000 6.532172
201.500000 6.637105
201.500000 6.742874
201.500000 6.849479
201.500000 6.956920
201.500000 7.065198
201.500000 7.174311
201.500000 7.284261
201.500000 7.395046
201.500000 7.506668
201.500000 7.619126
201.500000 7.732420
201.500000 7.846550
201.500000 7.961516
201.500000 8.077319
201.500000 8.193957
201.500000 8.311432
201.500000 8.429742
201.500000 8.548889
201.500000 8.668872
201.500000 8.789691
201.500000 8.911346
201.500000 9.033838
201.500000 9.157165
201.500000 9.281329
201.500000 9.406328
201.500000 9.532164
201.500000 9.658836
201.500000 9.786344
201.500000 9.914688
201.500000 10.043868
201.500000 10.173885
201.500000 10.304737
201.500000 10.436426
201.500000 10.568950
201.500000 10.702311
201.500000 10.836508
201.500000 10.971541
201.500000 11.107411
201.500000 11.244116
201.500000 11.381657
201.500000 11.520035
201.500000 11.659248
201.500000 11.799298
201.500000 11.940184
201.500000 12.081906
201.500000 12.224464
201.500000 12.367859
201.500000 12.512089
201.500000 12.657155
201.500000 12.803058
201.500000 12.949797
201.500000 13.097372
201.500000 13.245782
201.500000 13.395030
201.500000 13.545113
201.500000 13.696032
201.500000 13.847787
201.500000 14.000379
201.500000 14.153807
201.500000 14.308070
201.500000 14.463170
201.500000 14.619106
201.500000 14.775879
201.500000 14.933487
201.500000 15.091931
201.500000 15.251212
201.500000 15.411328
201.500000 15.572281
201.500000 15.734070
201.500000 15.896695
201.500000 16.060156
201.500000 16.224453
201.500000 16.389586
201.500000 16.555556
201.500000 16.722361
201.500000 16.890003
201.500000 17.058481
201.500000 17.227795
201.500000 17.397945
201.500000 17.568931
201.500000 17.740753
201.500000 17.913412
201.500000 18.086906
201.500000 18.261237
201.500000 18.436403
201.500000 18.612406
201.500000 18.789245
201.500000 18.966920
201.500000 19.145432
201.500000 19.324779
201.500000 19.504962
201.500000 19.685982
201.500000 19.867838
201.500000 20.050529
201.500000 20.234057
201.500000 20.418421
201.500000 20.603622
201.500000 20.789658
201.500000 20.976530
201.500000 21.164239
201.500000 21.352783
201.500000 21.542164
201.500000 21.732381
201.500000 21.923434
201.500000 22.115323
201.500000 22.308048
201.500000 22.501610
201.500000 22.696007
201.500000 22.891241
201.500000 23.087310
201.500000 23.284216
201.500000 23.481958
201.500000 23.680536
201.500000 23.879950
201.500000 24.080200
201.500000 24.281287
201.500000 24.483209
201.500000 24.685968
201.500000 24.889563
201.500000 25.093994
201.500000 25.299261
201.500000 25.505364
201.500000 25.712303
201.500000 25.920078
201.500000 26.128690
201.500000 26.338137
201.500000 26.548421
201.500000 26.759541
201.500000 26.971497
201.500000 27.184289
201.500000 27.397917
201.500000 27.612381
201.500000 27.827682
201.500000 28.043818
201.500000 28.260791
201.500000 28.478600
201.500000 28.697244
201.500000 28.916725
201.500000 29.137043
201.500000 29.358196
201.500000 29.580185
201.500000 29.803011
201.500000 30.026672
201.500000 30.251170
201.500000 30.476504
201.500000 30.702674
201.500000 30.929680
201.500000 31.157522
201.500000 31.386200
201.500000 31.615715
201.500000 31.846065
201.500000 32.077252
201.500000 32.309275
201.500000 32.542133
201.500000 32.775828
201.500000 33.010360
201.500000 33.245727
201.500000 33.481930
201.500000 33.718970
201.500000 33.956845
201.500000 34.195557
201.500000 34.435105
201.500000 34.675489
201.500000 34.916709
201.500000 35.158765
201.500000 35.401657
201.500000 35.645386
201.500000 35.889950
201.500000 36.135351
201.500000 36.381588
201.500000 36.628660
201.500000 36.876569
201.500000 37.125315
201.500000 37.374896
201.500000 37.625313
201.500000 37.876567
201.500000 38.128656
201.500000 38.381582
201.500000 38.635344
201.500000 38.889942
201.500000 39.145376
201.500000 39.401646
201.500000 39.658752
201.500000 39.916695
201.500000 40.175473
201.500000 40.435088
201.500000 40.695539
201.500000 40.956826
201.500000 41.218949
201.500000 41.481908
201.500000 41.745703
201.500000 42.010334
201.500000 42.275802
201.500000 42.542106
201.500000 42.809245
201.500000 43.077221
201.500000 43.346033
201.500000 43.615681
201.500000 43.886165
201.500000 44.157486
201.500000 44.429642
201.500000 44.702635
201.500000 44.976463
201.500000 45.251128
201.500000 45.526629
201.500000 45.802966
201.500000 46.080139
201.500000 46.358148
201.500000 46.636994
201.500000 46.916675
201.500000 47.197193
201.500000 47.478547
201.500000 47.760736
201.500000 48.043762
201.500000 48.327625
201.500000 48.612323
201.500000 48.897857
201.500000 49.184227
201.500000 49.471434
201.500000 49.759477
201.500000 50.048355
201.500000 50.338070
201.500000 50.628621
201.500000 50.920009
201.500000 51.212232
201.500000 51.505291
201.500000 51.799187
201.500000 52.093918
201.500000 52.389486
201.500000 52.685890
201.500000 52.983130
201.500000 53.281206
201.500000 53.580118
201.500000 53.879867
201.500000 54.180451
201.500000 54.481872
201.500000 54.784128
201.500000 55.087221
201.500000 55.391150
201.500000 55.695915
201.500000 56.001516
201.500000 56.307953
201.500000 56.615227
201.500000 56.923336
201.500000 57.232282
201.500000 57.542064
201.500000 57.852682
201.500000 58.164136
201.500000 58.476426
201.500000 58.789552
201.500000 59.103514
201.500000 59.418313
201.500000 59.733947
201.500000 60.050418
201.500000 60.367725
201.500000 60.685868
201.500000 61.004847
201.500000 61.324662
201.500000 61.645313
201.500000 61.966801
201.500000 62.289124
201.500000 62.612284
201.500000 62.936279
201.500000 63.261111
201.500000 63.586779
201.500000 63.913283
201.500000 64.240624
201.500000 64.568800
201.500000 64.897812
201.500000 65.227661
201.500000 65.558346
201.500000 65.889867
201.500000 66.222223
201.500000 66.555417
201.500000 66.889446
201.500000 67.224311
201.500000 67.560012
201.500000 67.896550
201.500000 68.233924
201.500000 68.572133
201.500000 68.911179
201.500000 69.251061
201.500000 69.591779
201.500000 69.933334
201.500000 70.275724
201.500000 70.618950
201.500000 70.963013
201.500000 71.307912
201.500000 71.653646
201.500000 72.000217
201.500000 72.347624
201.500000 72.695868
201.500000 73.044947
201.500000 73.394862
201.500000 73.745614
201.500000 74.097202
201.500000 74.449625
201.500000 74.802885
201.500000 75.156981
201.500000 75.511913
201.500000 75.867682
201.500000 76.224286
201.500000 76.581726
201.500000 76.940003
201.500000 77.299116
201.500000 77.659064
201.500000 78.019849
201.500000 78.381471
201.500000 78.743928
201.500000 79.107221
201.500000 79.471350
201.500000 79.836316
201.500000 80.202118
201.500000 80.568755
201.500000 80.936229
201.500000 81.304539
201.500000 81.673685
201.500000 82.043668
201.500000 82.414486
201.500000 82.786141
201.500000 83.158631
201.500000 83.531958
201.500000 83.906121
201.500000 84.281120
201.500000 84.656955
201.500000 85.033626
201.500000 85.411133
201.500000 85.789477
201.500000 86.168656
201.500000 86.548672
201.500000 86.929524
201.500000 87.311212
201.500000 87.693736
201.500000 88.077096
201.500000 88.461292
201.500000 88.846324
201.500000 89.232193
201.500000 89.618897
201.500000 90.006438
201.500000 90.394815
201.500000 90.784028
201.500000 91.174077
201.500000 91.564962
201.500000 91.956684
201.500000 92.349241
201.500000 92.742634
201.500000 93.136864
201.500000 93.531930
201.500000 93.927832
201.500000 94.324570
201.500000 94.722144
201.500000 95.120554
201.500000 95.519801
201.500000 95.919883
201.500000 96.320802
201.500000 96.722557
201.500000 97.125147
201.500000 97.528574
201.500000 97.932837
201.500000 98.337937
201.500000 98.743872
201.500000 99.150643
201.500000 99.558251
201.500000 99.966695
201.500000 100.375974
201.500000 100.786090
201.500000 101.197042
201.500000 101.608831
201.500000 102.021455
201.500000 102.434915
201.500000 102.849212
201.500000 103.264344
201.500000 103.680313
201.500000 104.097118
201.500000 104.514759
201.500000 104.933236
201.500000 105.352549
201.500000 105.772699
201.500000 106.193684
201.500000 106.615506
201.500000 107.038163
201.500000 107.461657
201.500000 107.885987
201.500000 108.311153
201.500000 108.737155
201.500000 109.163993
201.500000 109.591668
201.500000 110.020178
201.500000 110.449525
201.500000 110.879708
201.500000 111.310727
201.500000 111.742582
201.500000 112.175273
201.500000 112.608800
201.500000 113.043163
201.500000 113.478363
201.500000 113.914398
201.500000 114.351270
201.500000 114.788978
201.500000 115.227522
201.500000 115.666902
201.500000 116.107118
201.500000 116.548170
201.500000 116.990059
201.500000 117.432783
201.500000 117.876344
201.500000 118.320740
201.500000 118.765973
201.500000 119.212042
201.500000 119.658947
201.500000 120.106689
201.500000 120.555266
201.500000 121.004679
201.500000 121.454929
201.500000 121.906015
201.500000 122.357937
201.500000 122.810695
201.500000 123.264289
201.500000 123.718719
201.500000 124.173985
201.500000 124.630087
201.500000 125.087026
201.500000 125.544801
201.500000 126.003411
201.500000 126.462858
201.500000 126.923141
201.500000 127.384260
201.500000 127.846216
201.500000 128.309007
201.500000 128.772634
201.500000 129.237098
201.500000 129.702398
201.500000 130.168534
201.500000 130.635505
201.500000 131.103314
201.500000 131.571958
201.500000 132.041438
201.500000 132.511754
201.500000 132.982907
201.500000 133.454896
201.500000 133.927720
201.500000 134.401381
201.500000 134.875878
201.500000 135.351211
201.500000 135.827381
201.500000 136.304386
201.500000 136.782227
201.500000 137.260905
201.500000 137.740419
201.500000 138.220769
201.500000 138.701955
201.500000 139.183977
201.500000 139.666835
201.500000 140.150529
201.500000 140.635060
201.500000 141.120426
201.500000 141.606629
201.500000 142.093668
201.500000 142.581542
201.500000 143.070253
201.500000 143.559801
201.500000 144.050184
201.500000 144.541403
201.500000 145.033459
201.500000 145.526350
201.500000 146.020078
201.500000 146.514642
201.500000 147.010042
201.500000 147.506278
201.500000 148.003350
201.500000 148.501258
201.500000 149.000003
201.500000 149.499583
201.500000 150.000000
</POINTS>
</NEKTAR>

