<?xml version="1.0" encoding="utf-8" ?>
<NEKTAR>
<POINTS DIM="2" FIELDS="">
501.500000 0.000000
501.500000 0.000418
501.500000 0.001672
501.500000 0.003763
501.500000 0.006689
501.500000 0.010451
501.500000 0.015050
501.500000 0.020485
501.500000 0.026756
501.500000 0.033863
501.500000 0.041806
501.500000 0.050585
501.500000 0.060201
501.500000 0.070652
501.500000 0.081940
501.500000 0.094063
501.500000 0.107023
501.500000 0.120819
501.500000 0.135451
501.500000 0.150919
501.500000 0.167224
501.500000 0.184364
501.500000 0.202341
501.500000 0.221153
501.500000 0.240802
501.500000 0.261287
501.500000 0.282608
501.500000 0.304765
501.500000 0.327758
501.500000 0.351588
501.500000 0.376253
501.500000 0.401755
501.500000 0.428092
501.500000 0.455266
501.500000 0.483276
501.500000 0.512122
501.500000 0.541805
501.500000 0.572323
501.500000 0.603677
501.500000 0.635868
501.500000 0.668894
501.500000 0.702757
501.500000 0.737456
501.500000 0.772991
501.500000 0.809362
501.500000 0.846570
501.500000 0.884613
501.500000 0.923492
501.500000 0.963208
501.500000 1.003760
501.500000 1.045148
501.500000 1.087372
501.500000 1.130432
501.500000 1.174328
501.500000 1.219060
501.500000 1.264629
501.500000 1.311033
501.500000 1.358274
501.500000 1.406351
501.500000 1.455264
501.500000 1.505013
501.500000 1.555598
501.500000 1.607019
501.500000 1.659276
501.500000 1.712370
501.500000 1.766299
501.500000 1.821065
501.500000 1.876667
501.500000 1.933105
501.500000 1.990379
501.500000 2.048489
501.500000 2.107436
501.500000 2.167218
501.500000 2.227837
501.500000 2.289291
501.500000 2.351582
501.500000 2.414709
501.500000 2.478672
501.500000 2.543471
501.500000 2.609106
501.500000 2.675578
501.500000 2.742885
501.500000 2.811029
501.500000 2.880009
501.500000 2.949825
501.500000 3.020477
501.500000 3.091965
501.500000 3.164289
501.500000 3.237449
501.500000 3.311446
501.500000 3.386278
501.500000 3.461947
501.500000 3.538452
501.500000 3.615793
501.500000 3.693970
501.500000 3.772983
501.500000 3.852832
501.500000 3.933517
501.500000 4.015039
501.500000 4.097397
501.500000 4.180590
501.500000 4.264620
501.500000 4.349486
501.500000 4.435188
501.500000 4.521727
501.500000 4.609101
501.500000 4.697311
501.500000 4.786358
501.500000 4.876241
501.500000 4.966959
501.500000 5.058514
501.500000 5.150905
501.500000 5.244133
501.500000 5.338196
501.500000 5.433095
501.500000 5.528831
501.500000 5.625402
501.500000 5.722810
501.500000 5.821054
501.500000 5.920134
501.500000 6.020050
501.500000 6.120802
501.500000 6.222391
501.500000 6.324815
501.500000 6.428076
501.500000 6.532172
501.500000 6.637105
501.500000 6.742874
501.500000 6.849479
501.500000 6.956920
501.500000 7.065198
501.500000 7.174311
501.500000 7.284261
501.500000 7.395046
501.500000 7.506668
501.500000 7.619126
501.500000 7.732420
501.500000 7.846550
501.500000 7.961516
501.500000 8.077319
501.500000 8.193957
501.500000 8.311432
501.500000 8.429742
501.500000 8.548889
501.500000 8.668872
501.500000 8.789691
501.500000 8.911346
501.500000 9.033838
501.500000 9.157165
501.500000 9.281329
501.500000 9.406328
501.500000 9.532164
501.500000 9.658836
501.500000 9.786344
501.500000 9.914688
501.500000 10.043868
501.500000 10.173885
501.500000 10.304737
501.500000 10.436426
501.500000 10.568950
501.500000 10.702311
501.500000 10.836508
501.500000 10.971541
501.500000 11.107411
501.500000 11.244116
501.500000 11.381657
501.500000 11.520035
501.500000 11.659248
501.500000 11.799298
501.500000 11.940184
501.500000 12.081906
501.500000 12.224464
501.500000 12.367859
501.500000 12.512089
501.500000 12.657155
501.500000 12.803058
501.500000 12.949797
501.500000 13.097372
501.500000 13.245782
501.500000 13.395030
501.500000 13.545113
501.500000 13.696032
501.500000 13.847787
501.500000 14.000379
501.500000 14.153807
501.500000 14.308070
501.500000 14.463170
501.500000 14.619106
501.500000 14.775879
501.500000 14.933487
501.500000 15.091931
501.500000 15.251212
501.500000 15.411328
501.500000 15.572281
501.500000 15.734070
501.500000 15.896695
501.500000 16.060156
501.500000 16.224453
501.500000 16.389586
501.500000 16.555556
501.500000 16.722361
501.500000 16.890003
501.500000 17.058481
501.500000 17.227795
501.500000 17.397945
501.500000 17.568931
501.500000 17.740753
501.500000 17.913412
501.500000 18.086906
501.500000 18.261237
501.500000 18.436403
501.500000 18.612406
501.500000 18.789245
501.500000 18.966920
501.500000 19.145432
501.500000 19.324779
501.500000 19.504962
501.500000 19.685982
501.500000 19.867838
501.500000 20.050529
501.500000 20.234057
501.500000 20.418421
501.500000 20.603622
501.500000 20.789658
501.500000 20.976530
501.500000 21.164239
501.500000 21.352783
501.500000 21.542164
501.500000 21.732381
501.500000 21.923434
501.500000 22.115323
501.500000 22.308048
501.500000 22.501610
501.500000 22.696007
501.500000 22.891241
501.500000 23.087310
501.500000 23.284216
501.500000 23.481958
501.500000 23.680536
501.500000 23.879950
501.500000 24.080200
501.500000 24.281287
501.500000 24.483209
501.500000 24.685968
501.500000 24.889563
501.500000 25.093994
501.500000 25.299261
501.500000 25.505364
501.500000 25.712303
501.500000 25.920078
501.500000 26.128690
501.500000 26.338137
501.500000 26.548421
501.500000 26.759541
501.500000 26.971497
501.500000 27.184289
501.500000 27.397917
501.500000 27.612381
501.500000 27.827682
501.500000 28.043818
501.500000 28.260791
501.500000 28.478600
501.500000 28.697244
501.500000 28.916725
501.500000 29.137043
501.500000 29.358196
501.500000 29.580185
501.500000 29.803011
501.500000 30.026672
501.500000 30.251170
501.500000 30.476504
501.500000 30.702674
501.500000 30.929680
501.500000 31.157522
501.500000 31.386200
501.500000 31.615715
501.500000 31.846065
501.500000 32.077252
501.500000 32.309275
501.500000 32.542133
501.500000 32.775828
501.500000 33.010360
501.500000 33.245727
501.500000 33.481930
501.500000 33.718970
501.500000 33.956845
501.500000 34.195557
501.500000 34.435105
501.500000 34.675489
501.500000 34.916709
501.500000 35.158765
501.500000 35.401657
501.500000 35.645386
501.500000 35.889950
501.500000 36.135351
501.500000 36.381588
501.500000 36.628660
501.500000 36.876569
501.500000 37.125315
501.500000 37.374896
501.500000 37.625313
501.500000 37.876567
501.500000 38.128656
501.500000 38.381582
501.500000 38.635344
501.500000 38.889942
501.500000 39.145376
501.500000 39.401646
501.500000 39.658752
501.500000 39.916695
501.500000 40.175473
501.500000 40.435088
501.500000 40.695539
501.500000 40.956826
501.500000 41.218949
501.500000 41.481908
501.500000 41.745703
501.500000 42.010334
501.500000 42.275802
501.500000 42.542106
501.500000 42.809245
501.500000 43.077221
501.500000 43.346033
501.500000 43.615681
501.500000 43.886165
501.500000 44.157486
501.500000 44.429642
501.500000 44.702635
501.500000 44.976463
501.500000 45.251128
501.500000 45.526629
501.500000 45.802966
501.500000 46.080139
501.500000 46.358148
501.500000 46.636994
501.500000 46.916675
501.500000 47.197193
501.500000 47.478547
501.500000 47.760736
501.500000 48.043762
501.500000 48.327625
501.500000 48.612323
501.500000 48.897857
501.500000 49.184227
501.500000 49.471434
501.500000 49.759477
501.500000 50.048355
501.500000 50.338070
501.500000 50.628621
501.500000 50.920009
501.500000 51.212232
501.500000 51.505291
501.500000 51.799187
501.500000 52.093918
501.500000 52.389486
501.500000 52.685890
501.500000 52.983130
501.500000 53.281206
501.500000 53.580118
501.500000 53.879867
501.500000 54.180451
501.500000 54.481872
501.500000 54.784128
501.500000 55.087221
501.500000 55.391150
501.500000 55.695915
501.500000 56.001516
501.500000 56.307953
501.500000 56.615227
501.500000 56.923336
501.500000 57.232282
501.500000 57.542064
501.500000 57.852682
501.500000 58.164136
501.500000 58.476426
501.500000 58.789552
501.500000 59.103514
501.500000 59.418313
501.500000 59.733947
501.500000 60.050418
501.500000 60.367725
501.500000 60.685868
501.500000 61.004847
501.500000 61.324662
501.500000 61.645313
501.500000 61.966801
501.500000 62.289124
501.500000 62.612284
501.500000 62.936279
501.500000 63.261111
501.500000 63.586779
501.500000 63.913283
501.500000 64.240624
501.500000 64.568800
501.500000 64.897812
501.500000 65.227661
501.500000 65.558346
501.500000 65.889867
501.500000 66.222223
501.500000 66.555417
501.500000 66.889446
501.500000 67.224311
501.500000 67.560012
501.500000 67.896550
501.500000 68.233924
501.500000 68.572133
501.500000 68.911179
501.500000 69.251061
501.500000 69.591779
501.500000 69.933334
501.500000 70.275724
501.500000 70.618950
501.500000 70.963013
501.500000 71.307912
501.500000 71.653646
501.500000 72.000217
501.500000 72.347624
501.500000 72.695868
501.500000 73.044947
501.500000 73.394862
501.500000 73.745614
501.500000 74.097202
501.500000 74.449625
501.500000 74.802885
501.500000 75.156981
501.500000 75.511913
501.500000 75.867682
501.500000 76.224286
501.500000 76.581726
501.500000 76.940003
501.500000 77.299116
501.500000 77.659064
501.500000 78.019849
501.500000 78.381471
501.500000 78.743928
501.500000 79.107221
501.500000 79.471350
501.500000 79.836316
501.500000 80.202118
501.500000 80.568755
501.500000 80.936229
501.500000 81.304539
501.500000 81.673685
501.500000 82.043668
501.500000 82.414486
501.500000 82.786141
501.500000 83.158631
501.500000 83.531958
501.500000 83.906121
501.500000 84.281120
501.500000 84.656955
501.500000 85.033626
501.500000 85.411133
501.500000 85.789477
501.500000 86.168656
501.500000 86.548672
501.500000 86.929524
501.500000 87.311212
501.500000 87.693736
501.500000 88.077096
501.500000 88.461292
501.500000 88.846324
501.500000 89.232193
501.500000 89.618897
501.500000 90.006438
501.500000 90.394815
501.500000 90.784028
501.500000 91.174077
501.500000 91.564962
501.500000 91.956684
501.500000 92.349241
501.500000 92.742634
501.500000 93.136864
501.500000 93.531930
501.500000 93.927832
501.500000 94.324570
501.500000 94.722144
501.500000 95.120554
501.500000 95.519801
501.500000 95.919883
501.500000 96.320802
501.500000 96.722557
501.500000 97.125147
501.500000 97.528574
501.500000 97.932837
501.500000 98.337937
501.500000 98.743872
501.500000 99.150643
501.500000 99.558251
501.500000 99.966695
501.500000 100.375974
501.500000 100.786090
501.500000 101.197042
501.500000 101.608831
501.500000 102.021455
501.500000 102.434915
501.500000 102.849212
501.500000 103.264344
501.500000 103.680313
501.500000 104.097118
501.500000 104.514759
501.500000 104.933236
501.500000 105.352549
501.500000 105.772699
501.500000 106.193684
501.500000 106.615506
501.500000 107.038163
501.500000 107.461657
501.500000 107.885987
501.500000 108.311153
501.500000 108.737155
501.500000 109.163993
501.500000 109.591668
501.500000 110.020178
501.500000 110.449525
501.500000 110.879708
501.500000 111.310727
501.500000 111.742582
501.500000 112.175273
501.500000 112.608800
501.500000 113.043163
501.500000 113.478363
501.500000 113.914398
501.500000 114.351270
501.500000 114.788978
501.500000 115.227522
501.500000 115.666902
501.500000 116.107118
501.500000 116.548170
501.500000 116.990059
501.500000 117.432783
501.500000 117.876344
501.500000 118.320740
501.500000 118.765973
501.500000 119.212042
501.500000 119.658947
501.500000 120.106689
501.500000 120.555266
501.500000 121.004679
501.500000 121.454929
501.500000 121.906015
501.500000 122.357937
501.500000 122.810695
501.500000 123.264289
501.500000 123.718719
501.500000 124.173985
501.500000 124.630087
501.500000 125.087026
501.500000 125.544801
501.500000 126.003411
501.500000 126.462858
501.500000 126.923141
501.500000 127.384260
501.500000 127.846216
501.500000 128.309007
501.500000 128.772634
501.500000 129.237098
501.500000 129.702398
501.500000 130.168534
501.500000 130.635505
501.500000 131.103314
501.500000 131.571958
501.500000 132.041438
501.500000 132.511754
501.500000 132.982907
501.500000 133.454896
501.500000 133.927720
501.500000 134.401381
501.500000 134.875878
501.500000 135.351211
501.500000 135.827381
501.500000 136.304386
501.500000 136.782227
501.500000 137.260905
501.500000 137.740419
501.500000 138.220769
501.500000 138.701955
501.500000 139.183977
501.500000 139.666835
501.500000 140.150529
501.500000 140.635060
501.500000 141.120426
501.500000 141.606629
501.500000 142.093668
501.500000 142.581542
501.500000 143.070253
501.500000 143.559801
501.500000 144.050184
501.500000 144.541403
501.500000 145.033459
501.500000 145.526350
501.500000 146.020078
501.500000 146.514642
501.500000 147.010042
501.500000 147.506278
501.500000 148.003350
501.500000 148.501258
501.500000 149.000003
501.500000 149.499583
501.500000 150.000000
</POINTS>
</NEKTAR>

