<?xml version="1.0" encoding="utf-8" ?>
<NEKTAR>
<POINTS DIM="2" FIELDS="">
881.500000 0.000000
881.500000 0.000418
881.500000 0.001672
881.500000 0.003763
881.500000 0.006689
881.500000 0.010451
881.500000 0.015050
881.500000 0.020485
881.500000 0.026756
881.500000 0.033863
881.500000 0.041806
881.500000 0.050585
881.500000 0.060201
881.500000 0.070652
881.500000 0.081940
881.500000 0.094063
881.500000 0.107023
881.500000 0.120819
881.500000 0.135451
881.500000 0.150919
881.500000 0.167224
881.500000 0.184364
881.500000 0.202341
881.500000 0.221153
881.500000 0.240802
881.500000 0.261287
881.500000 0.282608
881.500000 0.304765
881.500000 0.327758
881.500000 0.351588
881.500000 0.376253
881.500000 0.401755
881.500000 0.428092
881.500000 0.455266
881.500000 0.483276
881.500000 0.512122
881.500000 0.541805
881.500000 0.572323
881.500000 0.603677
881.500000 0.635868
881.500000 0.668894
881.500000 0.702757
881.500000 0.737456
881.500000 0.772991
881.500000 0.809362
881.500000 0.846570
881.500000 0.884613
881.500000 0.923492
881.500000 0.963208
881.500000 1.003760
881.500000 1.045148
881.500000 1.087372
881.500000 1.130432
881.500000 1.174328
881.500000 1.219060
881.500000 1.264629
881.500000 1.311033
881.500000 1.358274
881.500000 1.406351
881.500000 1.455264
881.500000 1.505013
881.500000 1.555598
881.500000 1.607019
881.500000 1.659276
881.500000 1.712370
881.500000 1.766299
881.500000 1.821065
881.500000 1.876667
881.500000 1.933105
881.500000 1.990379
881.500000 2.048489
881.500000 2.107436
881.500000 2.167218
881.500000 2.227837
881.500000 2.289291
881.500000 2.351582
881.500000 2.414709
881.500000 2.478672
881.500000 2.543471
881.500000 2.609106
881.500000 2.675578
881.500000 2.742885
881.500000 2.811029
881.500000 2.880009
881.500000 2.949825
881.500000 3.020477
881.500000 3.091965
881.500000 3.164289
881.500000 3.237449
881.500000 3.311446
881.500000 3.386278
881.500000 3.461947
881.500000 3.538452
881.500000 3.615793
881.500000 3.693970
881.500000 3.772983
881.500000 3.852832
881.500000 3.933517
881.500000 4.015039
881.500000 4.097397
881.500000 4.180590
881.500000 4.264620
881.500000 4.349486
881.500000 4.435188
881.500000 4.521727
881.500000 4.609101
881.500000 4.697311
881.500000 4.786358
881.500000 4.876241
881.500000 4.966959
881.500000 5.058514
881.500000 5.150905
881.500000 5.244133
881.500000 5.338196
881.500000 5.433095
881.500000 5.528831
881.500000 5.625402
881.500000 5.722810
881.500000 5.821054
881.500000 5.920134
881.500000 6.020050
881.500000 6.120802
881.500000 6.222391
881.500000 6.324815
881.500000 6.428076
881.500000 6.532172
881.500000 6.637105
881.500000 6.742874
881.500000 6.849479
881.500000 6.956920
881.500000 7.065198
881.500000 7.174311
881.500000 7.284261
881.500000 7.395046
881.500000 7.506668
881.500000 7.619126
881.500000 7.732420
881.500000 7.846550
881.500000 7.961516
881.500000 8.077319
881.500000 8.193957
881.500000 8.311432
881.500000 8.429742
881.500000 8.548889
881.500000 8.668872
881.500000 8.789691
881.500000 8.911346
881.500000 9.033838
881.500000 9.157165
881.500000 9.281329
881.500000 9.406328
881.500000 9.532164
881.500000 9.658836
881.500000 9.786344
881.500000 9.914688
881.500000 10.043868
881.500000 10.173885
881.500000 10.304737
881.500000 10.436426
881.500000 10.568950
881.500000 10.702311
881.500000 10.836508
881.500000 10.971541
881.500000 11.107411
881.500000 11.244116
881.500000 11.381657
881.500000 11.520035
881.500000 11.659248
881.500000 11.799298
881.500000 11.940184
881.500000 12.081906
881.500000 12.224464
881.500000 12.367859
881.500000 12.512089
881.500000 12.657155
881.500000 12.803058
881.500000 12.949797
881.500000 13.097372
881.500000 13.245782
881.500000 13.395030
881.500000 13.545113
881.500000 13.696032
881.500000 13.847787
881.500000 14.000379
881.500000 14.153807
881.500000 14.308070
881.500000 14.463170
881.500000 14.619106
881.500000 14.775879
881.500000 14.933487
881.500000 15.091931
881.500000 15.251212
881.500000 15.411328
881.500000 15.572281
881.500000 15.734070
881.500000 15.896695
881.500000 16.060156
881.500000 16.224453
881.500000 16.389586
881.500000 16.555556
881.500000 16.722361
881.500000 16.890003
881.500000 17.058481
881.500000 17.227795
881.500000 17.397945
881.500000 17.568931
881.500000 17.740753
881.500000 17.913412
881.500000 18.086906
881.500000 18.261237
881.500000 18.436403
881.500000 18.612406
881.500000 18.789245
881.500000 18.966920
881.500000 19.145432
881.500000 19.324779
881.500000 19.504962
881.500000 19.685982
881.500000 19.867838
881.500000 20.050529
881.500000 20.234057
881.500000 20.418421
881.500000 20.603622
881.500000 20.789658
881.500000 20.976530
881.500000 21.164239
881.500000 21.352783
881.500000 21.542164
881.500000 21.732381
881.500000 21.923434
881.500000 22.115323
881.500000 22.308048
881.500000 22.501610
881.500000 22.696007
881.500000 22.891241
881.500000 23.087310
881.500000 23.284216
881.500000 23.481958
881.500000 23.680536
881.500000 23.879950
881.500000 24.080200
881.500000 24.281287
881.500000 24.483209
881.500000 24.685968
881.500000 24.889563
881.500000 25.093994
881.500000 25.299261
881.500000 25.505364
881.500000 25.712303
881.500000 25.920078
881.500000 26.128690
881.500000 26.338137
881.500000 26.548421
881.500000 26.759541
881.500000 26.971497
881.500000 27.184289
881.500000 27.397917
881.500000 27.612381
881.500000 27.827682
881.500000 28.043818
881.500000 28.260791
881.500000 28.478600
881.500000 28.697244
881.500000 28.916725
881.500000 29.137043
881.500000 29.358196
881.500000 29.580185
881.500000 29.803011
881.500000 30.026672
881.500000 30.251170
881.500000 30.476504
881.500000 30.702674
881.500000 30.929680
881.500000 31.157522
881.500000 31.386200
881.500000 31.615715
881.500000 31.846065
881.500000 32.077252
881.500000 32.309275
881.500000 32.542133
881.500000 32.775828
881.500000 33.010360
881.500000 33.245727
881.500000 33.481930
881.500000 33.718970
881.500000 33.956845
881.500000 34.195557
881.500000 34.435105
881.500000 34.675489
881.500000 34.916709
881.500000 35.158765
881.500000 35.401657
881.500000 35.645386
881.500000 35.889950
881.500000 36.135351
881.500000 36.381588
881.500000 36.628660
881.500000 36.876569
881.500000 37.125315
881.500000 37.374896
881.500000 37.625313
881.500000 37.876567
881.500000 38.128656
881.500000 38.381582
881.500000 38.635344
881.500000 38.889942
881.500000 39.145376
881.500000 39.401646
881.500000 39.658752
881.500000 39.916695
881.500000 40.175473
881.500000 40.435088
881.500000 40.695539
881.500000 40.956826
881.500000 41.218949
881.500000 41.481908
881.500000 41.745703
881.500000 42.010334
881.500000 42.275802
881.500000 42.542106
881.500000 42.809245
881.500000 43.077221
881.500000 43.346033
881.500000 43.615681
881.500000 43.886165
881.500000 44.157486
881.500000 44.429642
881.500000 44.702635
881.500000 44.976463
881.500000 45.251128
881.500000 45.526629
881.500000 45.802966
881.500000 46.080139
881.500000 46.358148
881.500000 46.636994
881.500000 46.916675
881.500000 47.197193
881.500000 47.478547
881.500000 47.760736
881.500000 48.043762
881.500000 48.327625
881.500000 48.612323
881.500000 48.897857
881.500000 49.184227
881.500000 49.471434
881.500000 49.759477
881.500000 50.048355
881.500000 50.338070
881.500000 50.628621
881.500000 50.920009
881.500000 51.212232
881.500000 51.505291
881.500000 51.799187
881.500000 52.093918
881.500000 52.389486
881.500000 52.685890
881.500000 52.983130
881.500000 53.281206
881.500000 53.580118
881.500000 53.879867
881.500000 54.180451
881.500000 54.481872
881.500000 54.784128
881.500000 55.087221
881.500000 55.391150
881.500000 55.695915
881.500000 56.001516
881.500000 56.307953
881.500000 56.615227
881.500000 56.923336
881.500000 57.232282
881.500000 57.542064
881.500000 57.852682
881.500000 58.164136
881.500000 58.476426
881.500000 58.789552
881.500000 59.103514
881.500000 59.418313
881.500000 59.733947
881.500000 60.050418
881.500000 60.367725
881.500000 60.685868
881.500000 61.004847
881.500000 61.324662
881.500000 61.645313
881.500000 61.966801
881.500000 62.289124
881.500000 62.612284
881.500000 62.936279
881.500000 63.261111
881.500000 63.586779
881.500000 63.913283
881.500000 64.240624
881.500000 64.568800
881.500000 64.897812
881.500000 65.227661
881.500000 65.558346
881.500000 65.889867
881.500000 66.222223
881.500000 66.555417
881.500000 66.889446
881.500000 67.224311
881.500000 67.560012
881.500000 67.896550
881.500000 68.233924
881.500000 68.572133
881.500000 68.911179
881.500000 69.251061
881.500000 69.591779
881.500000 69.933334
881.500000 70.275724
881.500000 70.618950
881.500000 70.963013
881.500000 71.307912
881.500000 71.653646
881.500000 72.000217
881.500000 72.347624
881.500000 72.695868
881.500000 73.044947
881.500000 73.394862
881.500000 73.745614
881.500000 74.097202
881.500000 74.449625
881.500000 74.802885
881.500000 75.156981
881.500000 75.511913
881.500000 75.867682
881.500000 76.224286
881.500000 76.581726
881.500000 76.940003
881.500000 77.299116
881.500000 77.659064
881.500000 78.019849
881.500000 78.381471
881.500000 78.743928
881.500000 79.107221
881.500000 79.471350
881.500000 79.836316
881.500000 80.202118
881.500000 80.568755
881.500000 80.936229
881.500000 81.304539
881.500000 81.673685
881.500000 82.043668
881.500000 82.414486
881.500000 82.786141
881.500000 83.158631
881.500000 83.531958
881.500000 83.906121
881.500000 84.281120
881.500000 84.656955
881.500000 85.033626
881.500000 85.411133
881.500000 85.789477
881.500000 86.168656
881.500000 86.548672
881.500000 86.929524
881.500000 87.311212
881.500000 87.693736
881.500000 88.077096
881.500000 88.461292
881.500000 88.846324
881.500000 89.232193
881.500000 89.618897
881.500000 90.006438
881.500000 90.394815
881.500000 90.784028
881.500000 91.174077
881.500000 91.564962
881.500000 91.956684
881.500000 92.349241
881.500000 92.742634
881.500000 93.136864
881.500000 93.531930
881.500000 93.927832
881.500000 94.324570
881.500000 94.722144
881.500000 95.120554
881.500000 95.519801
881.500000 95.919883
881.500000 96.320802
881.500000 96.722557
881.500000 97.125147
881.500000 97.528574
881.500000 97.932837
881.500000 98.337937
881.500000 98.743872
881.500000 99.150643
881.500000 99.558251
881.500000 99.966695
881.500000 100.375974
881.500000 100.786090
881.500000 101.197042
881.500000 101.608831
881.500000 102.021455
881.500000 102.434915
881.500000 102.849212
881.500000 103.264344
881.500000 103.680313
881.500000 104.097118
881.500000 104.514759
881.500000 104.933236
881.500000 105.352549
881.500000 105.772699
881.500000 106.193684
881.500000 106.615506
881.500000 107.038163
881.500000 107.461657
881.500000 107.885987
881.500000 108.311153
881.500000 108.737155
881.500000 109.163993
881.500000 109.591668
881.500000 110.020178
881.500000 110.449525
881.500000 110.879708
881.500000 111.310727
881.500000 111.742582
881.500000 112.175273
881.500000 112.608800
881.500000 113.043163
881.500000 113.478363
881.500000 113.914398
881.500000 114.351270
881.500000 114.788978
881.500000 115.227522
881.500000 115.666902
881.500000 116.107118
881.500000 116.548170
881.500000 116.990059
881.500000 117.432783
881.500000 117.876344
881.500000 118.320740
881.500000 118.765973
881.500000 119.212042
881.500000 119.658947
881.500000 120.106689
881.500000 120.555266
881.500000 121.004679
881.500000 121.454929
881.500000 121.906015
881.500000 122.357937
881.500000 122.810695
881.500000 123.264289
881.500000 123.718719
881.500000 124.173985
881.500000 124.630087
881.500000 125.087026
881.500000 125.544801
881.500000 126.003411
881.500000 126.462858
881.500000 126.923141
881.500000 127.384260
881.500000 127.846216
881.500000 128.309007
881.500000 128.772634
881.500000 129.237098
881.500000 129.702398
881.500000 130.168534
881.500000 130.635505
881.500000 131.103314
881.500000 131.571958
881.500000 132.041438
881.500000 132.511754
881.500000 132.982907
881.500000 133.454896
881.500000 133.927720
881.500000 134.401381
881.500000 134.875878
881.500000 135.351211
881.500000 135.827381
881.500000 136.304386
881.500000 136.782227
881.500000 137.260905
881.500000 137.740419
881.500000 138.220769
881.500000 138.701955
881.500000 139.183977
881.500000 139.666835
881.500000 140.150529
881.500000 140.635060
881.500000 141.120426
881.500000 141.606629
881.500000 142.093668
881.500000 142.581542
881.500000 143.070253
881.500000 143.559801
881.500000 144.050184
881.500000 144.541403
881.500000 145.033459
881.500000 145.526350
881.500000 146.020078
881.500000 146.514642
881.500000 147.010042
881.500000 147.506278
881.500000 148.003350
881.500000 148.501258
881.500000 149.000003
881.500000 149.499583
881.500000 150.000000
</POINTS>
</NEKTAR>

