<?xml version="1.0" encoding="utf-8" ?>
<NEKTAR>
<POINTS DIM="2" FIELDS="">
961.500000 0.000000
961.500000 0.000418
961.500000 0.001672
961.500000 0.003763
961.500000 0.006689
961.500000 0.010451
961.500000 0.015050
961.500000 0.020485
961.500000 0.026756
961.500000 0.033863
961.500000 0.041806
961.500000 0.050585
961.500000 0.060201
961.500000 0.070652
961.500000 0.081940
961.500000 0.094063
961.500000 0.107023
961.500000 0.120819
961.500000 0.135451
961.500000 0.150919
961.500000 0.167224
961.500000 0.184364
961.500000 0.202341
961.500000 0.221153
961.500000 0.240802
961.500000 0.261287
961.500000 0.282608
961.500000 0.304765
961.500000 0.327758
961.500000 0.351588
961.500000 0.376253
961.500000 0.401755
961.500000 0.428092
961.500000 0.455266
961.500000 0.483276
961.500000 0.512122
961.500000 0.541805
961.500000 0.572323
961.500000 0.603677
961.500000 0.635868
961.500000 0.668894
961.500000 0.702757
961.500000 0.737456
961.500000 0.772991
961.500000 0.809362
961.500000 0.846570
961.500000 0.884613
961.500000 0.923492
961.500000 0.963208
961.500000 1.003760
961.500000 1.045148
961.500000 1.087372
961.500000 1.130432
961.500000 1.174328
961.500000 1.219060
961.500000 1.264629
961.500000 1.311033
961.500000 1.358274
961.500000 1.406351
961.500000 1.455264
961.500000 1.505013
961.500000 1.555598
961.500000 1.607019
961.500000 1.659276
961.500000 1.712370
961.500000 1.766299
961.500000 1.821065
961.500000 1.876667
961.500000 1.933105
961.500000 1.990379
961.500000 2.048489
961.500000 2.107436
961.500000 2.167218
961.500000 2.227837
961.500000 2.289291
961.500000 2.351582
961.500000 2.414709
961.500000 2.478672
961.500000 2.543471
961.500000 2.609106
961.500000 2.675578
961.500000 2.742885
961.500000 2.811029
961.500000 2.880009
961.500000 2.949825
961.500000 3.020477
961.500000 3.091965
961.500000 3.164289
961.500000 3.237449
961.500000 3.311446
961.500000 3.386278
961.500000 3.461947
961.500000 3.538452
961.500000 3.615793
961.500000 3.693970
961.500000 3.772983
961.500000 3.852832
961.500000 3.933517
961.500000 4.015039
961.500000 4.097397
961.500000 4.180590
961.500000 4.264620
961.500000 4.349486
961.500000 4.435188
961.500000 4.521727
961.500000 4.609101
961.500000 4.697311
961.500000 4.786358
961.500000 4.876241
961.500000 4.966959
961.500000 5.058514
961.500000 5.150905
961.500000 5.244133
961.500000 5.338196
961.500000 5.433095
961.500000 5.528831
961.500000 5.625402
961.500000 5.722810
961.500000 5.821054
961.500000 5.920134
961.500000 6.020050
961.500000 6.120802
961.500000 6.222391
961.500000 6.324815
961.500000 6.428076
961.500000 6.532172
961.500000 6.637105
961.500000 6.742874
961.500000 6.849479
961.500000 6.956920
961.500000 7.065198
961.500000 7.174311
961.500000 7.284261
961.500000 7.395046
961.500000 7.506668
961.500000 7.619126
961.500000 7.732420
961.500000 7.846550
961.500000 7.961516
961.500000 8.077319
961.500000 8.193957
961.500000 8.311432
961.500000 8.429742
961.500000 8.548889
961.500000 8.668872
961.500000 8.789691
961.500000 8.911346
961.500000 9.033838
961.500000 9.157165
961.500000 9.281329
961.500000 9.406328
961.500000 9.532164
961.500000 9.658836
961.500000 9.786344
961.500000 9.914688
961.500000 10.043868
961.500000 10.173885
961.500000 10.304737
961.500000 10.436426
961.500000 10.568950
961.500000 10.702311
961.500000 10.836508
961.500000 10.971541
961.500000 11.107411
961.500000 11.244116
961.500000 11.381657
961.500000 11.520035
961.500000 11.659248
961.500000 11.799298
961.500000 11.940184
961.500000 12.081906
961.500000 12.224464
961.500000 12.367859
961.500000 12.512089
961.500000 12.657155
961.500000 12.803058
961.500000 12.949797
961.500000 13.097372
961.500000 13.245782
961.500000 13.395030
961.500000 13.545113
961.500000 13.696032
961.500000 13.847787
961.500000 14.000379
961.500000 14.153807
961.500000 14.308070
961.500000 14.463170
961.500000 14.619106
961.500000 14.775879
961.500000 14.933487
961.500000 15.091931
961.500000 15.251212
961.500000 15.411328
961.500000 15.572281
961.500000 15.734070
961.500000 15.896695
961.500000 16.060156
961.500000 16.224453
961.500000 16.389586
961.500000 16.555556
961.500000 16.722361
961.500000 16.890003
961.500000 17.058481
961.500000 17.227795
961.500000 17.397945
961.500000 17.568931
961.500000 17.740753
961.500000 17.913412
961.500000 18.086906
961.500000 18.261237
961.500000 18.436403
961.500000 18.612406
961.500000 18.789245
961.500000 18.966920
961.500000 19.145432
961.500000 19.324779
961.500000 19.504962
961.500000 19.685982
961.500000 19.867838
961.500000 20.050529
961.500000 20.234057
961.500000 20.418421
961.500000 20.603622
961.500000 20.789658
961.500000 20.976530
961.500000 21.164239
961.500000 21.352783
961.500000 21.542164
961.500000 21.732381
961.500000 21.923434
961.500000 22.115323
961.500000 22.308048
961.500000 22.501610
961.500000 22.696007
961.500000 22.891241
961.500000 23.087310
961.500000 23.284216
961.500000 23.481958
961.500000 23.680536
961.500000 23.879950
961.500000 24.080200
961.500000 24.281287
961.500000 24.483209
961.500000 24.685968
961.500000 24.889563
961.500000 25.093994
961.500000 25.299261
961.500000 25.505364
961.500000 25.712303
961.500000 25.920078
961.500000 26.128690
961.500000 26.338137
961.500000 26.548421
961.500000 26.759541
961.500000 26.971497
961.500000 27.184289
961.500000 27.397917
961.500000 27.612381
961.500000 27.827682
961.500000 28.043818
961.500000 28.260791
961.500000 28.478600
961.500000 28.697244
961.500000 28.916725
961.500000 29.137043
961.500000 29.358196
961.500000 29.580185
961.500000 29.803011
961.500000 30.026672
961.500000 30.251170
961.500000 30.476504
961.500000 30.702674
961.500000 30.929680
961.500000 31.157522
961.500000 31.386200
961.500000 31.615715
961.500000 31.846065
961.500000 32.077252
961.500000 32.309275
961.500000 32.542133
961.500000 32.775828
961.500000 33.010360
961.500000 33.245727
961.500000 33.481930
961.500000 33.718970
961.500000 33.956845
961.500000 34.195557
961.500000 34.435105
961.500000 34.675489
961.500000 34.916709
961.500000 35.158765
961.500000 35.401657
961.500000 35.645386
961.500000 35.889950
961.500000 36.135351
961.500000 36.381588
961.500000 36.628660
961.500000 36.876569
961.500000 37.125315
961.500000 37.374896
961.500000 37.625313
961.500000 37.876567
961.500000 38.128656
961.500000 38.381582
961.500000 38.635344
961.500000 38.889942
961.500000 39.145376
961.500000 39.401646
961.500000 39.658752
961.500000 39.916695
961.500000 40.175473
961.500000 40.435088
961.500000 40.695539
961.500000 40.956826
961.500000 41.218949
961.500000 41.481908
961.500000 41.745703
961.500000 42.010334
961.500000 42.275802
961.500000 42.542106
961.500000 42.809245
961.500000 43.077221
961.500000 43.346033
961.500000 43.615681
961.500000 43.886165
961.500000 44.157486
961.500000 44.429642
961.500000 44.702635
961.500000 44.976463
961.500000 45.251128
961.500000 45.526629
961.500000 45.802966
961.500000 46.080139
961.500000 46.358148
961.500000 46.636994
961.500000 46.916675
961.500000 47.197193
961.500000 47.478547
961.500000 47.760736
961.500000 48.043762
961.500000 48.327625
961.500000 48.612323
961.500000 48.897857
961.500000 49.184227
961.500000 49.471434
961.500000 49.759477
961.500000 50.048355
961.500000 50.338070
961.500000 50.628621
961.500000 50.920009
961.500000 51.212232
961.500000 51.505291
961.500000 51.799187
961.500000 52.093918
961.500000 52.389486
961.500000 52.685890
961.500000 52.983130
961.500000 53.281206
961.500000 53.580118
961.500000 53.879867
961.500000 54.180451
961.500000 54.481872
961.500000 54.784128
961.500000 55.087221
961.500000 55.391150
961.500000 55.695915
961.500000 56.001516
961.500000 56.307953
961.500000 56.615227
961.500000 56.923336
961.500000 57.232282
961.500000 57.542064
961.500000 57.852682
961.500000 58.164136
961.500000 58.476426
961.500000 58.789552
961.500000 59.103514
961.500000 59.418313
961.500000 59.733947
961.500000 60.050418
961.500000 60.367725
961.500000 60.685868
961.500000 61.004847
961.500000 61.324662
961.500000 61.645313
961.500000 61.966801
961.500000 62.289124
961.500000 62.612284
961.500000 62.936279
961.500000 63.261111
961.500000 63.586779
961.500000 63.913283
961.500000 64.240624
961.500000 64.568800
961.500000 64.897812
961.500000 65.227661
961.500000 65.558346
961.500000 65.889867
961.500000 66.222223
961.500000 66.555417
961.500000 66.889446
961.500000 67.224311
961.500000 67.560012
961.500000 67.896550
961.500000 68.233924
961.500000 68.572133
961.500000 68.911179
961.500000 69.251061
961.500000 69.591779
961.500000 69.933334
961.500000 70.275724
961.500000 70.618950
961.500000 70.963013
961.500000 71.307912
961.500000 71.653646
961.500000 72.000217
961.500000 72.347624
961.500000 72.695868
961.500000 73.044947
961.500000 73.394862
961.500000 73.745614
961.500000 74.097202
961.500000 74.449625
961.500000 74.802885
961.500000 75.156981
961.500000 75.511913
961.500000 75.867682
961.500000 76.224286
961.500000 76.581726
961.500000 76.940003
961.500000 77.299116
961.500000 77.659064
961.500000 78.019849
961.500000 78.381471
961.500000 78.743928
961.500000 79.107221
961.500000 79.471350
961.500000 79.836316
961.500000 80.202118
961.500000 80.568755
961.500000 80.936229
961.500000 81.304539
961.500000 81.673685
961.500000 82.043668
961.500000 82.414486
961.500000 82.786141
961.500000 83.158631
961.500000 83.531958
961.500000 83.906121
961.500000 84.281120
961.500000 84.656955
961.500000 85.033626
961.500000 85.411133
961.500000 85.789477
961.500000 86.168656
961.500000 86.548672
961.500000 86.929524
961.500000 87.311212
961.500000 87.693736
961.500000 88.077096
961.500000 88.461292
961.500000 88.846324
961.500000 89.232193
961.500000 89.618897
961.500000 90.006438
961.500000 90.394815
961.500000 90.784028
961.500000 91.174077
961.500000 91.564962
961.500000 91.956684
961.500000 92.349241
961.500000 92.742634
961.500000 93.136864
961.500000 93.531930
961.500000 93.927832
961.500000 94.324570
961.500000 94.722144
961.500000 95.120554
961.500000 95.519801
961.500000 95.919883
961.500000 96.320802
961.500000 96.722557
961.500000 97.125147
961.500000 97.528574
961.500000 97.932837
961.500000 98.337937
961.500000 98.743872
961.500000 99.150643
961.500000 99.558251
961.500000 99.966695
961.500000 100.375974
961.500000 100.786090
961.500000 101.197042
961.500000 101.608831
961.500000 102.021455
961.500000 102.434915
961.500000 102.849212
961.500000 103.264344
961.500000 103.680313
961.500000 104.097118
961.500000 104.514759
961.500000 104.933236
961.500000 105.352549
961.500000 105.772699
961.500000 106.193684
961.500000 106.615506
961.500000 107.038163
961.500000 107.461657
961.500000 107.885987
961.500000 108.311153
961.500000 108.737155
961.500000 109.163993
961.500000 109.591668
961.500000 110.020178
961.500000 110.449525
961.500000 110.879708
961.500000 111.310727
961.500000 111.742582
961.500000 112.175273
961.500000 112.608800
961.500000 113.043163
961.500000 113.478363
961.500000 113.914398
961.500000 114.351270
961.500000 114.788978
961.500000 115.227522
961.500000 115.666902
961.500000 116.107118
961.500000 116.548170
961.500000 116.990059
961.500000 117.432783
961.500000 117.876344
961.500000 118.320740
961.500000 118.765973
961.500000 119.212042
961.500000 119.658947
961.500000 120.106689
961.500000 120.555266
961.500000 121.004679
961.500000 121.454929
961.500000 121.906015
961.500000 122.357937
961.500000 122.810695
961.500000 123.264289
961.500000 123.718719
961.500000 124.173985
961.500000 124.630087
961.500000 125.087026
961.500000 125.544801
961.500000 126.003411
961.500000 126.462858
961.500000 126.923141
961.500000 127.384260
961.500000 127.846216
961.500000 128.309007
961.500000 128.772634
961.500000 129.237098
961.500000 129.702398
961.500000 130.168534
961.500000 130.635505
961.500000 131.103314
961.500000 131.571958
961.500000 132.041438
961.500000 132.511754
961.500000 132.982907
961.500000 133.454896
961.500000 133.927720
961.500000 134.401381
961.500000 134.875878
961.500000 135.351211
961.500000 135.827381
961.500000 136.304386
961.500000 136.782227
961.500000 137.260905
961.500000 137.740419
961.500000 138.220769
961.500000 138.701955
961.500000 139.183977
961.500000 139.666835
961.500000 140.150529
961.500000 140.635060
961.500000 141.120426
961.500000 141.606629
961.500000 142.093668
961.500000 142.581542
961.500000 143.070253
961.500000 143.559801
961.500000 144.050184
961.500000 144.541403
961.500000 145.033459
961.500000 145.526350
961.500000 146.020078
961.500000 146.514642
961.500000 147.010042
961.500000 147.506278
961.500000 148.003350
961.500000 148.501258
961.500000 149.000003
961.500000 149.499583
961.500000 150.000000
</POINTS>
</NEKTAR>

