<?xml version="1.0" encoding="utf-8" ?>
<NEKTAR>
<POINTS DIM="2" FIELDS="">
31.500000 -0.500000
31.500000 -0.499581
31.500000 -0.498322
31.500000 -0.496225
31.500000 -0.493289
31.500000 -0.489514
31.500000 -0.484900
31.500000 -0.479447
31.500000 -0.473155
31.500000 -0.466024
31.500000 -0.458055
31.500000 -0.449246
31.500000 -0.439599
31.500000 -0.429113
31.500000 -0.417787
31.500000 -0.405623
31.500000 -0.392620
31.500000 -0.378778
31.500000 -0.364097
31.500000 -0.348578
31.500000 -0.332219
31.500000 -0.315021
31.500000 -0.296985
31.500000 -0.278110
31.500000 -0.258395
31.500000 -0.237842
31.500000 -0.216450
31.500000 -0.194219
31.500000 -0.171149
31.500000 -0.147240
31.500000 -0.122493
31.500000 -0.096906
31.500000 -0.070481
31.500000 -0.043216
31.500000 -0.015113
31.500000 0.013829
31.500000 0.043611
31.500000 0.074231
31.500000 0.105690
31.500000 0.137987
31.500000 0.171124
31.500000 0.205100
31.500000 0.239914
31.500000 0.275568
31.500000 0.312060
31.500000 0.349391
31.500000 0.387562
31.500000 0.426571
31.500000 0.466419
31.500000 0.507106
31.500000 0.548631
31.500000 0.590996
31.500000 0.634200
31.500000 0.678242
31.500000 0.723124
31.500000 0.768844
31.500000 0.815403
31.500000 0.862801
31.500000 0.911038
31.500000 0.960114
31.500000 1.010029
31.500000 1.060783
31.500000 1.112376
31.500000 1.164807
31.500000 1.218078
31.500000 1.272187
31.500000 1.327135
31.500000 1.382923
31.500000 1.439549
31.500000 1.497014
31.500000 1.555318
31.500000 1.614460
31.500000 1.674442
31.500000 1.735263
31.500000 1.796922
31.500000 1.859421
31.500000 1.922758
31.500000 1.986934
31.500000 2.051949
31.500000 2.117803
31.500000 2.184496
31.500000 2.252028
31.500000 2.320399
31.500000 2.389609
31.500000 2.459657
31.500000 2.530545
31.500000 2.602271
31.500000 2.674836
31.500000 2.748241
31.500000 2.822484
31.500000 2.897566
31.500000 2.973487
31.500000 3.050247
31.500000 3.127845
31.500000 3.206283
31.500000 3.285559
31.500000 3.365675
31.500000 3.446629
31.500000 3.528422
31.500000 3.611055
31.500000 3.694526
31.500000 3.778836
31.500000 3.863984
31.500000 3.949972
31.500000 4.036799
31.500000 4.124465
31.500000 4.212969
31.500000 4.302312
31.500000 4.392495
31.500000 4.483516
31.500000 4.575376
31.500000 4.668075
31.500000 4.761613
31.500000 4.855990
31.500000 4.951206
31.500000 5.047260
31.500000 5.144154
31.500000 5.241886
31.500000 5.340458
31.500000 5.439868
31.500000 5.540117
31.500000 5.641205
31.500000 5.743132
31.500000 5.845898
31.500000 5.949503
31.500000 6.053946
31.500000 6.159229
31.500000 6.265350
31.500000 6.372311
31.500000 6.480110
31.500000 6.588748
31.500000 6.698225
31.500000 6.808542
31.500000 6.919696
31.500000 7.031690
31.500000 7.144523
31.500000 7.258195
31.500000 7.372705
31.500000 7.488055
31.500000 7.604243
31.500000 7.721270
31.500000 7.839136
31.500000 7.957842
31.500000 8.077386
31.500000 8.197768
31.500000 8.318990
31.500000 8.441051
31.500000 8.563950
31.500000 8.687689
31.500000 8.812266
31.500000 8.937683
31.500000 9.063938
31.500000 9.191032
31.500000 9.318965
31.500000 9.447737
31.500000 9.577348
31.500000 9.707798
31.500000 9.839086
31.500000 9.971214
31.500000 10.104180
31.500000 10.237986
31.500000 10.372630
31.500000 10.508113
31.500000 10.644435
31.500000 10.781596
31.500000 10.919596
31.500000 11.058435
31.500000 11.198113
31.500000 11.338629
31.500000 11.479985
31.500000 11.622179
31.500000 11.765212
31.500000 11.909085
31.500000 12.053796
31.500000 12.199346
31.500000 12.345735
31.500000 12.492963
31.500000 12.641029
31.500000 12.789935
31.500000 12.939680
31.500000 13.090263
31.500000 13.241686
31.500000 13.393947
31.500000 13.547047
31.500000 13.700986
31.500000 13.855764
31.500000 14.011381
31.500000 14.167837
31.500000 14.325131
31.500000 14.483265
31.500000 14.642238
31.500000 14.802049
31.500000 14.962699
31.500000 15.124189
31.500000 15.286517
31.500000 15.449684
31.500000 15.613690
31.500000 15.778535
31.500000 15.944218
31.500000 16.110741
31.500000 16.278103
31.500000 16.446303
31.500000 16.615342
31.500000 16.785221
31.500000 16.955938
31.500000 17.127494
31.500000 17.299889
31.500000 17.473123
31.500000 17.647196
31.500000 17.822108
31.500000 17.997858
31.500000 18.174448
31.500000 18.351876
31.500000 18.530143
31.500000 18.709250
31.500000 18.889195
31.500000 19.069979
31.500000 19.251602
31.500000 19.434064
31.500000 19.617365
31.500000 19.801504
31.500000 19.986483
31.500000 20.172300
31.500000 20.358957
31.500000 20.546452
31.500000 20.734786
31.500000 20.923959
31.500000 21.113971
31.500000 21.304822
31.500000 21.496512
31.500000 21.689041
31.500000 21.882408
31.500000 22.076615
31.500000 22.271660
31.500000 22.467545
31.500000 22.664268
31.500000 22.861830
31.500000 23.060231
31.500000 23.259471
31.500000 23.459550
31.500000 23.660468
31.500000 23.862224
31.500000 24.064820
31.500000 24.268255
31.500000 24.472528
31.500000 24.677640
31.500000 24.883591
31.500000 25.090382
31.500000 25.298011
31.500000 25.506479
31.500000 25.715785
31.500000 25.925931
31.500000 26.136916
31.500000 26.348739
31.500000 26.561402
31.500000 26.774903
31.500000 26.989243
31.500000 27.204423
31.500000 27.420441
31.500000 27.637298
31.500000 27.854993
31.500000 28.073528
31.500000 28.292902
31.500000 28.513115
31.500000 28.734166
31.500000 28.956056
31.500000 29.178786
31.500000 29.402354
31.500000 29.626761
31.500000 29.852007
31.500000 30.078092
31.500000 30.305016
31.500000 30.532779
31.500000 30.761380
31.500000 30.990821
31.500000 31.221100
31.500000 31.452219
31.500000 31.684176
31.500000 31.916972
31.500000 32.150607
31.500000 32.385081
31.500000 32.620394
31.500000 32.856546
31.500000 33.093537
31.500000 33.331366
31.500000 33.570035
31.500000 33.809542
31.500000 34.049888
31.500000 34.291074
31.500000 34.533098
31.500000 34.775961
31.500000 35.019663
31.500000 35.264204
31.500000 35.509583
31.500000 35.755802
31.500000 36.002860
31.500000 36.250756
31.500000 36.499491
31.500000 36.749066
31.500000 36.999479
31.500000 37.250731
31.500000 37.502822
31.500000 37.755752
31.500000 38.009521
31.500000 38.264128
31.500000 38.519575
31.500000 38.775860
31.500000 39.032985
31.500000 39.290948
31.500000 39.549750
31.500000 39.809392
31.500000 40.069872
31.500000 40.331191
31.500000 40.593348
31.500000 40.856345
31.500000 41.120181
31.500000 41.384855
31.500000 41.650369
31.500000 41.916721
31.500000 42.183913
31.500000 42.451943
31.500000 42.720812
31.500000 42.990520
31.500000 43.261067
31.500000 43.532453
31.500000 43.804677
31.500000 44.077741
31.500000 44.351643
31.500000 44.626385
31.500000 44.901965
31.500000 45.178384
31.500000 45.455643
31.500000 45.733740
31.500000 46.012676
31.500000 46.292450
31.500000 46.573064
31.500000 46.854517
31.500000 47.136808
31.500000 47.419939
31.500000 47.703908
31.500000 47.988717
31.500000 48.274364
31.500000 48.560850
31.500000 48.848175
31.500000 49.136339
31.500000 49.425342
31.500000 49.715183
31.500000 50.005864
31.500000 50.297384
31.500000 50.589742
31.500000 50.882939
31.500000 51.176976
31.500000 51.471851
31.500000 51.767565
31.500000 52.064118
31.500000 52.361510
31.500000 52.659740
31.500000 52.958810
31.500000 53.258719
31.500000 53.559466
31.500000 53.861053
31.500000 54.163478
31.500000 54.466742
31.500000 54.770845
31.500000 55.075787
31.500000 55.381568
31.500000 55.688188
31.500000 55.995647
31.500000 56.303944
31.500000 56.613081
31.500000 56.923056
31.500000 57.233871
31.500000 57.545524
31.500000 57.858016
31.500000 58.171347
31.500000 58.485517
31.500000 58.800526
31.500000 59.116374
31.500000 59.433060
31.500000 59.750586
31.500000 60.068950
31.500000 60.388154
31.500000 60.708196
31.500000 61.029077
31.500000 61.350798
31.500000 61.673357
31.500000 61.996754
31.500000 62.320991
31.500000 62.646067
31.500000 62.971982
31.500000 63.298735
31.500000 63.626328
31.500000 63.954759
31.500000 64.284029
31.500000 64.614138
31.500000 64.945087
31.500000 65.276874
31.500000 65.609499
31.500000 65.942964
31.500000 66.277268
31.500000 66.612411
31.500000 66.948392
31.500000 67.285212
31.500000 67.622872
31.500000 67.961370
31.500000 68.300707
31.500000 68.640883
31.500000 68.981898
31.500000 69.323752
31.500000 69.666445
31.500000 70.009976
31.500000 70.354347
31.500000 70.699556
31.500000 71.045605
31.500000 71.392492
31.500000 71.740218
31.500000 72.088783
31.500000 72.438187
31.500000 72.788430
31.500000 73.139512
31.500000 73.491433
31.500000 73.844192
31.500000 74.197791
31.500000 74.552228
31.500000 74.907504
31.500000 75.263620
31.500000 75.620574
31.500000 75.978367
31.500000 76.336999
31.500000 76.696470
31.500000 77.056779
31.500000 77.417928
31.500000 77.779916
31.500000 78.142742
31.500000 78.506407
31.500000 78.870912
31.500000 79.236255
31.500000 79.602437
31.500000 79.969458
31.500000 80.337318
31.500000 80.706017
31.500000 81.075554
31.500000 81.445931
31.500000 81.817147
31.500000 82.189201
31.500000 82.562094
31.500000 82.935827
31.500000 83.310398
31.500000 83.685808
31.500000 84.062057
31.500000 84.439145
31.500000 84.817071
31.500000 85.195837
31.500000 85.575442
31.500000 85.955885
31.500000 86.337167
31.500000 86.719289
31.500000 87.102249
31.500000 87.486048
31.500000 87.870686
31.500000 88.256163
31.500000 88.642479
31.500000 89.029633
31.500000 89.417627
31.500000 89.806460
31.500000 90.196131
31.500000 90.586641
31.500000 90.977991
31.500000 91.370179
31.500000 91.763206
31.500000 92.157072
31.500000 92.551777
31.500000 92.947320
31.500000 93.343703
31.500000 93.740925
31.500000 94.138985
31.500000 94.537885
31.500000 94.937623
31.500000 95.338200
31.500000 95.739616
31.500000 96.141871
31.500000 96.544965
31.500000 96.948898
31.500000 97.353670
31.500000 97.759280
31.500000 98.165730
31.500000 98.573018
31.500000 98.981146
31.500000 99.390112
31.500000 99.799917
31.500000 100.210561
31.500000 100.622044
31.500000 101.034366
31.500000 101.447527
31.500000 101.861526
31.500000 102.276365
31.500000 102.692042
31.500000 103.108559
31.500000 103.525914
31.500000 103.944108
31.500000 104.363141
31.500000 104.783013
31.500000 105.203724
31.500000 105.625274
31.500000 106.047663
31.500000 106.470891
31.500000 106.894957
31.500000 107.319863
31.500000 107.745607
31.500000 108.172190
31.500000 108.599612
31.500000 109.027873
31.500000 109.456973
31.500000 109.886912
31.500000 110.317690
31.500000 110.749307
31.500000 111.181762
31.500000 111.615057
31.500000 112.049190
31.500000 112.484163
31.500000 112.919974
31.500000 113.356624
31.500000 113.794113
31.500000 114.232441
31.500000 114.671608
31.500000 115.111613
31.500000 115.552458
31.500000 115.994142
31.500000 116.436664
31.500000 116.880025
31.500000 117.324226
31.500000 117.769265
31.500000 118.215143
31.500000 118.661860
31.500000 119.109416
31.500000 119.557811
31.500000 120.007044
31.500000 120.457117
31.500000 120.908028
31.500000 121.359779
31.500000 121.812368
31.500000 122.265796
31.500000 122.720063
31.500000 123.175170
31.500000 123.631114
31.500000 124.087898
31.500000 124.545521
31.500000 125.003983
31.500000 125.463283
31.500000 125.923423
31.500000 126.384401
31.500000 126.846218
31.500000 127.308875
31.500000 127.772370
31.500000 128.236704
31.500000 128.701877
31.500000 129.167888
31.500000 129.634739
31.500000 130.102429
31.500000 130.570957
31.500000 131.040325
31.500000 131.510531
31.500000 131.981576
31.500000 132.453460
31.500000 132.926183
31.500000 133.399745
31.500000 133.874146
31.500000 134.349386
31.500000 134.825465
31.500000 135.302382
31.500000 135.780139
31.500000 136.258734
31.500000 136.738168
31.500000 137.218441
31.500000 137.699554
31.500000 138.181505
31.500000 138.664294
31.500000 139.147923
31.500000 139.632391
31.500000 140.117698
31.500000 140.603843
31.500000 141.090828
31.500000 141.578651
31.500000 142.067313
31.500000 142.556814
31.500000 143.047154
31.500000 143.538333
31.500000 144.030351
31.500000 144.523208
31.500000 145.016904
31.500000 145.511438
31.500000 146.006812
31.500000 146.503024
31.500000 147.000075
31.500000 147.497965
31.500000 147.996695
31.500000 148.496263
31.500000 148.996669
31.500000 149.497915
31.500000 150.000000
</POINTS>
</NEKTAR>

