<?xml version="1.0" encoding="utf-8" ?>
<NEKTAR>
<POINTS DIM="2" FIELDS="">
30.500000 -0.500000
30.500000 -0.499581
30.500000 -0.498322
30.500000 -0.496225
30.500000 -0.493289
30.500000 -0.489514
30.500000 -0.484900
30.500000 -0.479447
30.500000 -0.473155
30.500000 -0.466024
30.500000 -0.458055
30.500000 -0.449246
30.500000 -0.439599
30.500000 -0.429113
30.500000 -0.417787
30.500000 -0.405623
30.500000 -0.392620
30.500000 -0.378778
30.500000 -0.364097
30.500000 -0.348578
30.500000 -0.332219
30.500000 -0.315021
30.500000 -0.296985
30.500000 -0.278110
30.500000 -0.258395
30.500000 -0.237842
30.500000 -0.216450
30.500000 -0.194219
30.500000 -0.171149
30.500000 -0.147240
30.500000 -0.122493
30.500000 -0.096906
30.500000 -0.070481
30.500000 -0.043216
30.500000 -0.015113
30.500000 0.013829
30.500000 0.043611
30.500000 0.074231
30.500000 0.105690
30.500000 0.137987
30.500000 0.171124
30.500000 0.205100
30.500000 0.239914
30.500000 0.275568
30.500000 0.312060
30.500000 0.349391
30.500000 0.387562
30.500000 0.426571
30.500000 0.466419
30.500000 0.507106
30.500000 0.548631
30.500000 0.590996
30.500000 0.634200
30.500000 0.678242
30.500000 0.723124
30.500000 0.768844
30.500000 0.815403
30.500000 0.862801
30.500000 0.911038
30.500000 0.960114
30.500000 1.010029
30.500000 1.060783
30.500000 1.112376
30.500000 1.164807
30.500000 1.218078
30.500000 1.272187
30.500000 1.327135
30.500000 1.382923
30.500000 1.439549
30.500000 1.497014
30.500000 1.555318
30.500000 1.614460
30.500000 1.674442
30.500000 1.735263
30.500000 1.796922
30.500000 1.859421
30.500000 1.922758
30.500000 1.986934
30.500000 2.051949
30.500000 2.117803
30.500000 2.184496
30.500000 2.252028
30.500000 2.320399
30.500000 2.389609
30.500000 2.459657
30.500000 2.530545
30.500000 2.602271
30.500000 2.674836
30.500000 2.748241
30.500000 2.822484
30.500000 2.897566
30.500000 2.973487
30.500000 3.050247
30.500000 3.127845
30.500000 3.206283
30.500000 3.285559
30.500000 3.365675
30.500000 3.446629
30.500000 3.528422
30.500000 3.611055
30.500000 3.694526
30.500000 3.778836
30.500000 3.863984
30.500000 3.949972
30.500000 4.036799
30.500000 4.124465
30.500000 4.212969
30.500000 4.302312
30.500000 4.392495
30.500000 4.483516
30.500000 4.575376
30.500000 4.668075
30.500000 4.761613
30.500000 4.855990
30.500000 4.951206
30.500000 5.047260
30.500000 5.144154
30.500000 5.241886
30.500000 5.340458
30.500000 5.439868
30.500000 5.540117
30.500000 5.641205
30.500000 5.743132
30.500000 5.845898
30.500000 5.949503
30.500000 6.053946
30.500000 6.159229
30.500000 6.265350
30.500000 6.372311
30.500000 6.480110
30.500000 6.588748
30.500000 6.698225
30.500000 6.808542
30.500000 6.919696
30.500000 7.031690
30.500000 7.144523
30.500000 7.258195
30.500000 7.372705
30.500000 7.488055
30.500000 7.604243
30.500000 7.721270
30.500000 7.839136
30.500000 7.957842
30.500000 8.077386
30.500000 8.197768
30.500000 8.318990
30.500000 8.441051
30.500000 8.563950
30.500000 8.687689
30.500000 8.812266
30.500000 8.937683
30.500000 9.063938
30.500000 9.191032
30.500000 9.318965
30.500000 9.447737
30.500000 9.577348
30.500000 9.707798
30.500000 9.839086
30.500000 9.971214
30.500000 10.104180
30.500000 10.237986
30.500000 10.372630
30.500000 10.508113
30.500000 10.644435
30.500000 10.781596
30.500000 10.919596
30.500000 11.058435
30.500000 11.198113
30.500000 11.338629
30.500000 11.479985
30.500000 11.622179
30.500000 11.765212
30.500000 11.909085
30.500000 12.053796
30.500000 12.199346
30.500000 12.345735
30.500000 12.492963
30.500000 12.641029
30.500000 12.789935
30.500000 12.939680
30.500000 13.090263
30.500000 13.241686
30.500000 13.393947
30.500000 13.547047
30.500000 13.700986
30.500000 13.855764
30.500000 14.011381
30.500000 14.167837
30.500000 14.325131
30.500000 14.483265
30.500000 14.642238
30.500000 14.802049
30.500000 14.962699
30.500000 15.124189
30.500000 15.286517
30.500000 15.449684
30.500000 15.613690
30.500000 15.778535
30.500000 15.944218
30.500000 16.110741
30.500000 16.278103
30.500000 16.446303
30.500000 16.615342
30.500000 16.785221
30.500000 16.955938
30.500000 17.127494
30.500000 17.299889
30.500000 17.473123
30.500000 17.647196
30.500000 17.822108
30.500000 17.997858
30.500000 18.174448
30.500000 18.351876
30.500000 18.530143
30.500000 18.709250
30.500000 18.889195
30.500000 19.069979
30.500000 19.251602
30.500000 19.434064
30.500000 19.617365
30.500000 19.801504
30.500000 19.986483
30.500000 20.172300
30.500000 20.358957
30.500000 20.546452
30.500000 20.734786
30.500000 20.923959
30.500000 21.113971
30.500000 21.304822
30.500000 21.496512
30.500000 21.689041
30.500000 21.882408
30.500000 22.076615
30.500000 22.271660
30.500000 22.467545
30.500000 22.664268
30.500000 22.861830
30.500000 23.060231
30.500000 23.259471
30.500000 23.459550
30.500000 23.660468
30.500000 23.862224
30.500000 24.064820
30.500000 24.268255
30.500000 24.472528
30.500000 24.677640
30.500000 24.883591
30.500000 25.090382
30.500000 25.298011
30.500000 25.506479
30.500000 25.715785
30.500000 25.925931
30.500000 26.136916
30.500000 26.348739
30.500000 26.561402
30.500000 26.774903
30.500000 26.989243
30.500000 27.204423
30.500000 27.420441
30.500000 27.637298
30.500000 27.854993
30.500000 28.073528
30.500000 28.292902
30.500000 28.513115
30.500000 28.734166
30.500000 28.956056
30.500000 29.178786
30.500000 29.402354
30.500000 29.626761
30.500000 29.852007
30.500000 30.078092
30.500000 30.305016
30.500000 30.532779
30.500000 30.761380
30.500000 30.990821
30.500000 31.221100
30.500000 31.452219
30.500000 31.684176
30.500000 31.916972
30.500000 32.150607
30.500000 32.385081
30.500000 32.620394
30.500000 32.856546
30.500000 33.093537
30.500000 33.331366
30.500000 33.570035
30.500000 33.809542
30.500000 34.049888
30.500000 34.291074
30.500000 34.533098
30.500000 34.775961
30.500000 35.019663
30.500000 35.264204
30.500000 35.509583
30.500000 35.755802
30.500000 36.002860
30.500000 36.250756
30.500000 36.499491
30.500000 36.749066
30.500000 36.999479
30.500000 37.250731
30.500000 37.502822
30.500000 37.755752
30.500000 38.009521
30.500000 38.264128
30.500000 38.519575
30.500000 38.775860
30.500000 39.032985
30.500000 39.290948
30.500000 39.549750
30.500000 39.809392
30.500000 40.069872
30.500000 40.331191
30.500000 40.593348
30.500000 40.856345
30.500000 41.120181
30.500000 41.384855
30.500000 41.650369
30.500000 41.916721
30.500000 42.183913
30.500000 42.451943
30.500000 42.720812
30.500000 42.990520
30.500000 43.261067
30.500000 43.532453
30.500000 43.804677
30.500000 44.077741
30.500000 44.351643
30.500000 44.626385
30.500000 44.901965
30.500000 45.178384
30.500000 45.455643
30.500000 45.733740
30.500000 46.012676
30.500000 46.292450
30.500000 46.573064
30.500000 46.854517
30.500000 47.136808
30.500000 47.419939
30.500000 47.703908
30.500000 47.988717
30.500000 48.274364
30.500000 48.560850
30.500000 48.848175
30.500000 49.136339
30.500000 49.425342
30.500000 49.715183
30.500000 50.005864
30.500000 50.297384
30.500000 50.589742
30.500000 50.882939
30.500000 51.176976
30.500000 51.471851
30.500000 51.767565
30.500000 52.064118
30.500000 52.361510
30.500000 52.659740
30.500000 52.958810
30.500000 53.258719
30.500000 53.559466
30.500000 53.861053
30.500000 54.163478
30.500000 54.466742
30.500000 54.770845
30.500000 55.075787
30.500000 55.381568
30.500000 55.688188
30.500000 55.995647
30.500000 56.303944
30.500000 56.613081
30.500000 56.923056
30.500000 57.233871
30.500000 57.545524
30.500000 57.858016
30.500000 58.171347
30.500000 58.485517
30.500000 58.800526
30.500000 59.116374
30.500000 59.433060
30.500000 59.750586
30.500000 60.068950
30.500000 60.388154
30.500000 60.708196
30.500000 61.029077
30.500000 61.350798
30.500000 61.673357
30.500000 61.996754
30.500000 62.320991
30.500000 62.646067
30.500000 62.971982
30.500000 63.298735
30.500000 63.626328
30.500000 63.954759
30.500000 64.284029
30.500000 64.614138
30.500000 64.945087
30.500000 65.276874
30.500000 65.609499
30.500000 65.942964
30.500000 66.277268
30.500000 66.612411
30.500000 66.948392
30.500000 67.285212
30.500000 67.622872
30.500000 67.961370
30.500000 68.300707
30.500000 68.640883
30.500000 68.981898
30.500000 69.323752
30.500000 69.666445
30.500000 70.009976
30.500000 70.354347
30.500000 70.699556
30.500000 71.045605
30.500000 71.392492
30.500000 71.740218
30.500000 72.088783
30.500000 72.438187
30.500000 72.788430
30.500000 73.139512
30.500000 73.491433
30.500000 73.844192
30.500000 74.197791
30.500000 74.552228
30.500000 74.907504
30.500000 75.263620
30.500000 75.620574
30.500000 75.978367
30.500000 76.336999
30.500000 76.696470
30.500000 77.056779
30.500000 77.417928
30.500000 77.779916
30.500000 78.142742
30.500000 78.506407
30.500000 78.870912
30.500000 79.236255
30.500000 79.602437
30.500000 79.969458
30.500000 80.337318
30.500000 80.706017
30.500000 81.075554
30.500000 81.445931
30.500000 81.817147
30.500000 82.189201
30.500000 82.562094
30.500000 82.935827
30.500000 83.310398
30.500000 83.685808
30.500000 84.062057
30.500000 84.439145
30.500000 84.817071
30.500000 85.195837
30.500000 85.575442
30.500000 85.955885
30.500000 86.337167
30.500000 86.719289
30.500000 87.102249
30.500000 87.486048
30.500000 87.870686
30.500000 88.256163
30.500000 88.642479
30.500000 89.029633
30.500000 89.417627
30.500000 89.806460
30.500000 90.196131
30.500000 90.586641
30.500000 90.977991
30.500000 91.370179
30.500000 91.763206
30.500000 92.157072
30.500000 92.551777
30.500000 92.947320
30.500000 93.343703
30.500000 93.740925
30.500000 94.138985
30.500000 94.537885
30.500000 94.937623
30.500000 95.338200
30.500000 95.739616
30.500000 96.141871
30.500000 96.544965
30.500000 96.948898
30.500000 97.353670
30.500000 97.759280
30.500000 98.165730
30.500000 98.573018
30.500000 98.981146
30.500000 99.390112
30.500000 99.799917
30.500000 100.210561
30.500000 100.622044
30.500000 101.034366
30.500000 101.447527
30.500000 101.861526
30.500000 102.276365
30.500000 102.692042
30.500000 103.108559
30.500000 103.525914
30.500000 103.944108
30.500000 104.363141
30.500000 104.783013
30.500000 105.203724
30.500000 105.625274
30.500000 106.047663
30.500000 106.470891
30.500000 106.894957
30.500000 107.319863
30.500000 107.745607
30.500000 108.172190
30.500000 108.599612
30.500000 109.027873
30.500000 109.456973
30.500000 109.886912
30.500000 110.317690
30.500000 110.749307
30.500000 111.181762
30.500000 111.615057
30.500000 112.049190
30.500000 112.484163
30.500000 112.919974
30.500000 113.356624
30.500000 113.794113
30.500000 114.232441
30.500000 114.671608
30.500000 115.111613
30.500000 115.552458
30.500000 115.994142
30.500000 116.436664
30.500000 116.880025
30.500000 117.324226
30.500000 117.769265
30.500000 118.215143
30.500000 118.661860
30.500000 119.109416
30.500000 119.557811
30.500000 120.007044
30.500000 120.457117
30.500000 120.908028
30.500000 121.359779
30.500000 121.812368
30.500000 122.265796
30.500000 122.720063
30.500000 123.175170
30.500000 123.631114
30.500000 124.087898
30.500000 124.545521
30.500000 125.003983
30.500000 125.463283
30.500000 125.923423
30.500000 126.384401
30.500000 126.846218
30.500000 127.308875
30.500000 127.772370
30.500000 128.236704
30.500000 128.701877
30.500000 129.167888
30.500000 129.634739
30.500000 130.102429
30.500000 130.570957
30.500000 131.040325
30.500000 131.510531
30.500000 131.981576
30.500000 132.453460
30.500000 132.926183
30.500000 133.399745
30.500000 133.874146
30.500000 134.349386
30.500000 134.825465
30.500000 135.302382
30.500000 135.780139
30.500000 136.258734
30.500000 136.738168
30.500000 137.218441
30.500000 137.699554
30.500000 138.181505
30.500000 138.664294
30.500000 139.147923
30.500000 139.632391
30.500000 140.117698
30.500000 140.603843
30.500000 141.090828
30.500000 141.578651
30.500000 142.067313
30.500000 142.556814
30.500000 143.047154
30.500000 143.538333
30.500000 144.030351
30.500000 144.523208
30.500000 145.016904
30.500000 145.511438
30.500000 146.006812
30.500000 146.503024
30.500000 147.000075
30.500000 147.497965
30.500000 147.996695
30.500000 148.496263
30.500000 148.996669
30.500000 149.497915
30.500000 150.000000
</POINTS>
</NEKTAR>

