<?xml version="1.0" encoding="utf-8" ?>
<NEKTAR>
<POINTS DIM="2" FIELDS="">
16.500000 -0.500000
16.500000 -0.499581
16.500000 -0.498322
16.500000 -0.496225
16.500000 -0.493289
16.500000 -0.489514
16.500000 -0.484900
16.500000 -0.479447
16.500000 -0.473155
16.500000 -0.466024
16.500000 -0.458055
16.500000 -0.449246
16.500000 -0.439599
16.500000 -0.429113
16.500000 -0.417787
16.500000 -0.405623
16.500000 -0.392620
16.500000 -0.378778
16.500000 -0.364097
16.500000 -0.348578
16.500000 -0.332219
16.500000 -0.315021
16.500000 -0.296985
16.500000 -0.278110
16.500000 -0.258395
16.500000 -0.237842
16.500000 -0.216450
16.500000 -0.194219
16.500000 -0.171149
16.500000 -0.147240
16.500000 -0.122493
16.500000 -0.096906
16.500000 -0.070481
16.500000 -0.043216
16.500000 -0.015113
16.500000 0.013829
16.500000 0.043611
16.500000 0.074231
16.500000 0.105690
16.500000 0.137987
16.500000 0.171124
16.500000 0.205100
16.500000 0.239914
16.500000 0.275568
16.500000 0.312060
16.500000 0.349391
16.500000 0.387562
16.500000 0.426571
16.500000 0.466419
16.500000 0.507106
16.500000 0.548631
16.500000 0.590996
16.500000 0.634200
16.500000 0.678242
16.500000 0.723124
16.500000 0.768844
16.500000 0.815403
16.500000 0.862801
16.500000 0.911038
16.500000 0.960114
16.500000 1.010029
16.500000 1.060783
16.500000 1.112376
16.500000 1.164807
16.500000 1.218078
16.500000 1.272187
16.500000 1.327135
16.500000 1.382923
16.500000 1.439549
16.500000 1.497014
16.500000 1.555318
16.500000 1.614460
16.500000 1.674442
16.500000 1.735263
16.500000 1.796922
16.500000 1.859421
16.500000 1.922758
16.500000 1.986934
16.500000 2.051949
16.500000 2.117803
16.500000 2.184496
16.500000 2.252028
16.500000 2.320399
16.500000 2.389609
16.500000 2.459657
16.500000 2.530545
16.500000 2.602271
16.500000 2.674836
16.500000 2.748241
16.500000 2.822484
16.500000 2.897566
16.500000 2.973487
16.500000 3.050247
16.500000 3.127845
16.500000 3.206283
16.500000 3.285559
16.500000 3.365675
16.500000 3.446629
16.500000 3.528422
16.500000 3.611055
16.500000 3.694526
16.500000 3.778836
16.500000 3.863984
16.500000 3.949972
16.500000 4.036799
16.500000 4.124465
16.500000 4.212969
16.500000 4.302312
16.500000 4.392495
16.500000 4.483516
16.500000 4.575376
16.500000 4.668075
16.500000 4.761613
16.500000 4.855990
16.500000 4.951206
16.500000 5.047260
16.500000 5.144154
16.500000 5.241886
16.500000 5.340458
16.500000 5.439868
16.500000 5.540117
16.500000 5.641205
16.500000 5.743132
16.500000 5.845898
16.500000 5.949503
16.500000 6.053946
16.500000 6.159229
16.500000 6.265350
16.500000 6.372311
16.500000 6.480110
16.500000 6.588748
16.500000 6.698225
16.500000 6.808542
16.500000 6.919696
16.500000 7.031690
16.500000 7.144523
16.500000 7.258195
16.500000 7.372705
16.500000 7.488055
16.500000 7.604243
16.500000 7.721270
16.500000 7.839136
16.500000 7.957842
16.500000 8.077386
16.500000 8.197768
16.500000 8.318990
16.500000 8.441051
16.500000 8.563950
16.500000 8.687689
16.500000 8.812266
16.500000 8.937683
16.500000 9.063938
16.500000 9.191032
16.500000 9.318965
16.500000 9.447737
16.500000 9.577348
16.500000 9.707798
16.500000 9.839086
16.500000 9.971214
16.500000 10.104180
16.500000 10.237986
16.500000 10.372630
16.500000 10.508113
16.500000 10.644435
16.500000 10.781596
16.500000 10.919596
16.500000 11.058435
16.500000 11.198113
16.500000 11.338629
16.500000 11.479985
16.500000 11.622179
16.500000 11.765212
16.500000 11.909085
16.500000 12.053796
16.500000 12.199346
16.500000 12.345735
16.500000 12.492963
16.500000 12.641029
16.500000 12.789935
16.500000 12.939680
16.500000 13.090263
16.500000 13.241686
16.500000 13.393947
16.500000 13.547047
16.500000 13.700986
16.500000 13.855764
16.500000 14.011381
16.500000 14.167837
16.500000 14.325131
16.500000 14.483265
16.500000 14.642238
16.500000 14.802049
16.500000 14.962699
16.500000 15.124189
16.500000 15.286517
16.500000 15.449684
16.500000 15.613690
16.500000 15.778535
16.500000 15.944218
16.500000 16.110741
16.500000 16.278103
16.500000 16.446303
16.500000 16.615342
16.500000 16.785221
16.500000 16.955938
16.500000 17.127494
16.500000 17.299889
16.500000 17.473123
16.500000 17.647196
16.500000 17.822108
16.500000 17.997858
16.500000 18.174448
16.500000 18.351876
16.500000 18.530143
16.500000 18.709250
16.500000 18.889195
16.500000 19.069979
16.500000 19.251602
16.500000 19.434064
16.500000 19.617365
16.500000 19.801504
16.500000 19.986483
16.500000 20.172300
16.500000 20.358957
16.500000 20.546452
16.500000 20.734786
16.500000 20.923959
16.500000 21.113971
16.500000 21.304822
16.500000 21.496512
16.500000 21.689041
16.500000 21.882408
16.500000 22.076615
16.500000 22.271660
16.500000 22.467545
16.500000 22.664268
16.500000 22.861830
16.500000 23.060231
16.500000 23.259471
16.500000 23.459550
16.500000 23.660468
16.500000 23.862224
16.500000 24.064820
16.500000 24.268255
16.500000 24.472528
16.500000 24.677640
16.500000 24.883591
16.500000 25.090382
16.500000 25.298011
16.500000 25.506479
16.500000 25.715785
16.500000 25.925931
16.500000 26.136916
16.500000 26.348739
16.500000 26.561402
16.500000 26.774903
16.500000 26.989243
16.500000 27.204423
16.500000 27.420441
16.500000 27.637298
16.500000 27.854993
16.500000 28.073528
16.500000 28.292902
16.500000 28.513115
16.500000 28.734166
16.500000 28.956056
16.500000 29.178786
16.500000 29.402354
16.500000 29.626761
16.500000 29.852007
16.500000 30.078092
16.500000 30.305016
16.500000 30.532779
16.500000 30.761380
16.500000 30.990821
16.500000 31.221100
16.500000 31.452219
16.500000 31.684176
16.500000 31.916972
16.500000 32.150607
16.500000 32.385081
16.500000 32.620394
16.500000 32.856546
16.500000 33.093537
16.500000 33.331366
16.500000 33.570035
16.500000 33.809542
16.500000 34.049888
16.500000 34.291074
16.500000 34.533098
16.500000 34.775961
16.500000 35.019663
16.500000 35.264204
16.500000 35.509583
16.500000 35.755802
16.500000 36.002860
16.500000 36.250756
16.500000 36.499491
16.500000 36.749066
16.500000 36.999479
16.500000 37.250731
16.500000 37.502822
16.500000 37.755752
16.500000 38.009521
16.500000 38.264128
16.500000 38.519575
16.500000 38.775860
16.500000 39.032985
16.500000 39.290948
16.500000 39.549750
16.500000 39.809392
16.500000 40.069872
16.500000 40.331191
16.500000 40.593348
16.500000 40.856345
16.500000 41.120181
16.500000 41.384855
16.500000 41.650369
16.500000 41.916721
16.500000 42.183913
16.500000 42.451943
16.500000 42.720812
16.500000 42.990520
16.500000 43.261067
16.500000 43.532453
16.500000 43.804677
16.500000 44.077741
16.500000 44.351643
16.500000 44.626385
16.500000 44.901965
16.500000 45.178384
16.500000 45.455643
16.500000 45.733740
16.500000 46.012676
16.500000 46.292450
16.500000 46.573064
16.500000 46.854517
16.500000 47.136808
16.500000 47.419939
16.500000 47.703908
16.500000 47.988717
16.500000 48.274364
16.500000 48.560850
16.500000 48.848175
16.500000 49.136339
16.500000 49.425342
16.500000 49.715183
16.500000 50.005864
16.500000 50.297384
16.500000 50.589742
16.500000 50.882939
16.500000 51.176976
16.500000 51.471851
16.500000 51.767565
16.500000 52.064118
16.500000 52.361510
16.500000 52.659740
16.500000 52.958810
16.500000 53.258719
16.500000 53.559466
16.500000 53.861053
16.500000 54.163478
16.500000 54.466742
16.500000 54.770845
16.500000 55.075787
16.500000 55.381568
16.500000 55.688188
16.500000 55.995647
16.500000 56.303944
16.500000 56.613081
16.500000 56.923056
16.500000 57.233871
16.500000 57.545524
16.500000 57.858016
16.500000 58.171347
16.500000 58.485517
16.500000 58.800526
16.500000 59.116374
16.500000 59.433060
16.500000 59.750586
16.500000 60.068950
16.500000 60.388154
16.500000 60.708196
16.500000 61.029077
16.500000 61.350798
16.500000 61.673357
16.500000 61.996754
16.500000 62.320991
16.500000 62.646067
16.500000 62.971982
16.500000 63.298735
16.500000 63.626328
16.500000 63.954759
16.500000 64.284029
16.500000 64.614138
16.500000 64.945087
16.500000 65.276874
16.500000 65.609499
16.500000 65.942964
16.500000 66.277268
16.500000 66.612411
16.500000 66.948392
16.500000 67.285212
16.500000 67.622872
16.500000 67.961370
16.500000 68.300707
16.500000 68.640883
16.500000 68.981898
16.500000 69.323752
16.500000 69.666445
16.500000 70.009976
16.500000 70.354347
16.500000 70.699556
16.500000 71.045605
16.500000 71.392492
16.500000 71.740218
16.500000 72.088783
16.500000 72.438187
16.500000 72.788430
16.500000 73.139512
16.500000 73.491433
16.500000 73.844192
16.500000 74.197791
16.500000 74.552228
16.500000 74.907504
16.500000 75.263620
16.500000 75.620574
16.500000 75.978367
16.500000 76.336999
16.500000 76.696470
16.500000 77.056779
16.500000 77.417928
16.500000 77.779916
16.500000 78.142742
16.500000 78.506407
16.500000 78.870912
16.500000 79.236255
16.500000 79.602437
16.500000 79.969458
16.500000 80.337318
16.500000 80.706017
16.500000 81.075554
16.500000 81.445931
16.500000 81.817147
16.500000 82.189201
16.500000 82.562094
16.500000 82.935827
16.500000 83.310398
16.500000 83.685808
16.500000 84.062057
16.500000 84.439145
16.500000 84.817071
16.500000 85.195837
16.500000 85.575442
16.500000 85.955885
16.500000 86.337167
16.500000 86.719289
16.500000 87.102249
16.500000 87.486048
16.500000 87.870686
16.500000 88.256163
16.500000 88.642479
16.500000 89.029633
16.500000 89.417627
16.500000 89.806460
16.500000 90.196131
16.500000 90.586641
16.500000 90.977991
16.500000 91.370179
16.500000 91.763206
16.500000 92.157072
16.500000 92.551777
16.500000 92.947320
16.500000 93.343703
16.500000 93.740925
16.500000 94.138985
16.500000 94.537885
16.500000 94.937623
16.500000 95.338200
16.500000 95.739616
16.500000 96.141871
16.500000 96.544965
16.500000 96.948898
16.500000 97.353670
16.500000 97.759280
16.500000 98.165730
16.500000 98.573018
16.500000 98.981146
16.500000 99.390112
16.500000 99.799917
16.500000 100.210561
16.500000 100.622044
16.500000 101.034366
16.500000 101.447527
16.500000 101.861526
16.500000 102.276365
16.500000 102.692042
16.500000 103.108559
16.500000 103.525914
16.500000 103.944108
16.500000 104.363141
16.500000 104.783013
16.500000 105.203724
16.500000 105.625274
16.500000 106.047663
16.500000 106.470891
16.500000 106.894957
16.500000 107.319863
16.500000 107.745607
16.500000 108.172190
16.500000 108.599612
16.500000 109.027873
16.500000 109.456973
16.500000 109.886912
16.500000 110.317690
16.500000 110.749307
16.500000 111.181762
16.500000 111.615057
16.500000 112.049190
16.500000 112.484163
16.500000 112.919974
16.500000 113.356624
16.500000 113.794113
16.500000 114.232441
16.500000 114.671608
16.500000 115.111613
16.500000 115.552458
16.500000 115.994142
16.500000 116.436664
16.500000 116.880025
16.500000 117.324226
16.500000 117.769265
16.500000 118.215143
16.500000 118.661860
16.500000 119.109416
16.500000 119.557811
16.500000 120.007044
16.500000 120.457117
16.500000 120.908028
16.500000 121.359779
16.500000 121.812368
16.500000 122.265796
16.500000 122.720063
16.500000 123.175170
16.500000 123.631114
16.500000 124.087898
16.500000 124.545521
16.500000 125.003983
16.500000 125.463283
16.500000 125.923423
16.500000 126.384401
16.500000 126.846218
16.500000 127.308875
16.500000 127.772370
16.500000 128.236704
16.500000 128.701877
16.500000 129.167888
16.500000 129.634739
16.500000 130.102429
16.500000 130.570957
16.500000 131.040325
16.500000 131.510531
16.500000 131.981576
16.500000 132.453460
16.500000 132.926183
16.500000 133.399745
16.500000 133.874146
16.500000 134.349386
16.500000 134.825465
16.500000 135.302382
16.500000 135.780139
16.500000 136.258734
16.500000 136.738168
16.500000 137.218441
16.500000 137.699554
16.500000 138.181505
16.500000 138.664294
16.500000 139.147923
16.500000 139.632391
16.500000 140.117698
16.500000 140.603843
16.500000 141.090828
16.500000 141.578651
16.500000 142.067313
16.500000 142.556814
16.500000 143.047154
16.500000 143.538333
16.500000 144.030351
16.500000 144.523208
16.500000 145.016904
16.500000 145.511438
16.500000 146.006812
16.500000 146.503024
16.500000 147.000075
16.500000 147.497965
16.500000 147.996695
16.500000 148.496263
16.500000 148.996669
16.500000 149.497915
16.500000 150.000000
</POINTS>
</NEKTAR>

