<?xml version="1.0" encoding="utf-8" ?>
<NEKTAR>
<POINTS DIM="2" FIELDS="">
13.500000 -1.250000
13.500000 -1.249578
13.500000 -1.248314
13.500000 -1.246206
13.500000 -1.243255
13.500000 -1.239461
13.500000 -1.234824
13.500000 -1.229344
13.500000 -1.223021
13.500000 -1.215855
13.500000 -1.207846
13.500000 -1.198993
13.500000 -1.189298
13.500000 -1.178759
13.500000 -1.167378
13.500000 -1.155153
13.500000 -1.142085
13.500000 -1.128174
13.500000 -1.113420
13.500000 -1.097823
13.500000 -1.081383
13.500000 -1.064100
13.500000 -1.045973
13.500000 -1.027004
13.500000 -1.007191
13.500000 -0.986536
13.500000 -0.965037
13.500000 -0.942695
13.500000 -0.919510
13.500000 -0.895482
13.500000 -0.870611
13.500000 -0.844897
13.500000 -0.818340
13.500000 -0.790940
13.500000 -0.762696
13.500000 -0.733610
13.500000 -0.703680
13.500000 -0.672908
13.500000 -0.641292
13.500000 -0.608833
13.500000 -0.575531
13.500000 -0.541386
13.500000 -0.506398
13.500000 -0.470567
13.500000 -0.433893
13.500000 -0.396376
13.500000 -0.358015
13.500000 -0.318812
13.500000 -0.278765
13.500000 -0.237876
13.500000 -0.196143
13.500000 -0.153567
13.500000 -0.110148
13.500000 -0.065886
13.500000 -0.020781
13.500000 0.025167
13.500000 0.071958
13.500000 0.119593
13.500000 0.168070
13.500000 0.217391
13.500000 0.267554
13.500000 0.318561
13.500000 0.370411
13.500000 0.423104
13.500000 0.476640
13.500000 0.531019
13.500000 0.586241
13.500000 0.642306
13.500000 0.699214
13.500000 0.756966
13.500000 0.815560
13.500000 0.874998
13.500000 0.935278
13.500000 0.996402
13.500000 1.058369
13.500000 1.121179
13.500000 1.184832
13.500000 1.249328
13.500000 1.314667
13.500000 1.380849
13.500000 1.447874
13.500000 1.515743
13.500000 1.584454
13.500000 1.654009
13.500000 1.724406
13.500000 1.795647
13.500000 1.867731
13.500000 1.940658
13.500000 2.014428
13.500000 2.089041
13.500000 2.164497
13.500000 2.240796
13.500000 2.317939
13.500000 2.395924
13.500000 2.474753
13.500000 2.554424
13.500000 2.634939
13.500000 2.716297
13.500000 2.798498
13.500000 2.881542
13.500000 2.965429
13.500000 3.050159
13.500000 3.135732
13.500000 3.222148
13.500000 3.309408
13.500000 3.397510
13.500000 3.486456
13.500000 3.576244
13.500000 3.666876
13.500000 3.758351
13.500000 3.850669
13.500000 3.943830
13.500000 4.037834
13.500000 4.132681
13.500000 4.228371
13.500000 4.324904
13.500000 4.422281
13.500000 4.520500
13.500000 4.619563
13.500000 4.719468
13.500000 4.820217
13.500000 4.921809
13.500000 5.024244
13.500000 5.127522
13.500000 5.231643
13.500000 5.336607
13.500000 5.442414
13.500000 5.549065
13.500000 5.656558
13.500000 5.764895
13.500000 5.874074
13.500000 5.984097
13.500000 6.094963
13.500000 6.206672
13.500000 6.319224
13.500000 6.432619
13.500000 6.546857
13.500000 6.661938
13.500000 6.777862
13.500000 6.894630
13.500000 7.012240
13.500000 7.130694
13.500000 7.249990
13.500000 7.370130
13.500000 7.491113
13.500000 7.612939
13.500000 7.735608
13.500000 7.859120
13.500000 7.983475
13.500000 8.108673
13.500000 8.234714
13.500000 8.361599
13.500000 8.489326
13.500000 8.617897
13.500000 8.747310
13.500000 8.877567
13.500000 9.008667
13.500000 9.140610
13.500000 9.273396
13.500000 9.407025
13.500000 9.541497
13.500000 9.676812
13.500000 9.812971
13.500000 9.949972
13.500000 10.087817
13.500000 10.226504
13.500000 10.366035
13.500000 10.506409
13.500000 10.647626
13.500000 10.789686
13.500000 10.932589
13.500000 11.076335
13.500000 11.220924
13.500000 11.366356
13.500000 11.512632
13.500000 11.659750
13.500000 11.807712
13.500000 11.956516
13.500000 12.106164
13.500000 12.256655
13.500000 12.407989
13.500000 12.560166
13.500000 12.713186
13.500000 12.867049
13.500000 13.021755
13.500000 13.177304
13.500000 13.333697
13.500000 13.490932
13.500000 13.649011
13.500000 13.807933
13.500000 13.967697
13.500000 14.128305
13.500000 14.289756
13.500000 14.452050
13.500000 14.615187
13.500000 14.779167
13.500000 14.943991
13.500000 15.109657
13.500000 15.276166
13.500000 15.443519
13.500000 15.611714
13.500000 15.780753
13.500000 15.950635
13.500000 16.121360
13.500000 16.292928
13.500000 16.465339
13.500000 16.638593
13.500000 16.812690
13.500000 16.987630
13.500000 17.163414
13.500000 17.340040
13.500000 17.517510
13.500000 17.695822
13.500000 17.874978
13.500000 18.054977
13.500000 18.235819
13.500000 18.417504
13.500000 18.600032
13.500000 18.783403
13.500000 18.967617
13.500000 19.152674
13.500000 19.338575
13.500000 19.525318
13.500000 19.712905
13.500000 19.901335
13.500000 20.090607
13.500000 20.280723
13.500000 20.471682
13.500000 20.663484
13.500000 20.856129
13.500000 21.049617
13.500000 21.243949
13.500000 21.439123
13.500000 21.635140
13.500000 21.832001
13.500000 22.029704
13.500000 22.228251
13.500000 22.427641
13.500000 22.627874
13.500000 22.828950
13.500000 23.030869
13.500000 23.233631
13.500000 23.437236
13.500000 23.641684
13.500000 23.846976
13.500000 24.053110
13.500000 24.260088
13.500000 24.467908
13.500000 24.676572
13.500000 24.886079
13.500000 25.096429
13.500000 25.307622
13.500000 25.519658
13.500000 25.732537
13.500000 25.946259
13.500000 26.160825
13.500000 26.376233
13.500000 26.592484
13.500000 26.809579
13.500000 27.027517
13.500000 27.246297
13.500000 27.465921
13.500000 27.686388
13.500000 27.907698
13.500000 28.129851
13.500000 28.352847
13.500000 28.576687
13.500000 28.801369
13.500000 29.026894
13.500000 29.253263
13.500000 29.480475
13.500000 29.708529
13.500000 29.937427
13.500000 30.167168
13.500000 30.397752
13.500000 30.629179
13.500000 30.861449
13.500000 31.094562
13.500000 31.328518
13.500000 31.563318
13.500000 31.798960
13.500000 32.035446
13.500000 32.272774
13.500000 32.510946
13.500000 32.749961
13.500000 32.989819
13.500000 33.230520
13.500000 33.472064
13.500000 33.714451
13.500000 33.957681
13.500000 34.201755
13.500000 34.446671
13.500000 34.692430
13.500000 34.939033
13.500000 35.186479
13.500000 35.434767
13.500000 35.683899
13.500000 35.933874
13.500000 36.184692
13.500000 36.436353
13.500000 36.688857
13.500000 36.942205
13.500000 37.196395
13.500000 37.451429
13.500000 37.707305
13.500000 37.964025
13.500000 38.221587
13.500000 38.479993
13.500000 38.739242
13.500000 38.999334
13.500000 39.260269
13.500000 39.522047
13.500000 39.784668
13.500000 40.048133
13.500000 40.312440
13.500000 40.577590
13.500000 40.843584
13.500000 41.110421
13.500000 41.378100
13.500000 41.646623
13.500000 41.915989
13.500000 42.186198
13.500000 42.457250
13.500000 42.729145
13.500000 43.001883
13.500000 43.275465
13.500000 43.549889
13.500000 43.825157
13.500000 44.101267
13.500000 44.378221
13.500000 44.656018
13.500000 44.934657
13.500000 45.214140
13.500000 45.494466
13.500000 45.775635
13.500000 46.057648
13.500000 46.340503
13.500000 46.624201
13.500000 46.908743
13.500000 47.194127
13.500000 47.480355
13.500000 47.767425
13.500000 48.055339
13.500000 48.344096
13.500000 48.633696
13.500000 48.924139
13.500000 49.215425
13.500000 49.507554
13.500000 49.800527
13.500000 50.094342
13.500000 50.389000
13.500000 50.684502
13.500000 50.980847
13.500000 51.278034
13.500000 51.576065
13.500000 51.874939
13.500000 52.174656
13.500000 52.475216
13.500000 52.776619
13.500000 53.078865
13.500000 53.381955
13.500000 53.685887
13.500000 53.990663
13.500000 54.296281
13.500000 54.602743
13.500000 54.910048
13.500000 55.218195
13.500000 55.527186
13.500000 55.837020
13.500000 56.147697
13.500000 56.459218
13.500000 56.771581
13.500000 57.084787
13.500000 57.398837
13.500000 57.713729
13.500000 58.029465
13.500000 58.346043
13.500000 58.663465
13.500000 58.981730
13.500000 59.300838
13.500000 59.620789
13.500000 59.941583
13.500000 60.263220
13.500000 60.585701
13.500000 60.909024
13.500000 61.233191
13.500000 61.558200
13.500000 61.884053
13.500000 62.210748
13.500000 62.538287
13.500000 62.866669
13.500000 63.195894
13.500000 63.525962
13.500000 63.856873
13.500000 64.188628
13.500000 64.521225
13.500000 64.854665
13.500000 65.188949
13.500000 65.524075
13.500000 65.860045
13.500000 66.196858
13.500000 66.534514
13.500000 66.873012
13.500000 67.212354
13.500000 67.552540
13.500000 67.893568
13.500000 68.235439
13.500000 68.578153
13.500000 68.921711
13.500000 69.266111
13.500000 69.611355
13.500000 69.957442
13.500000 70.304371
13.500000 70.652144
13.500000 71.000760
13.500000 71.350219
13.500000 71.700521
13.500000 72.051667
13.500000 72.403655
13.500000 72.756486
13.500000 73.110161
13.500000 73.464678
13.500000 73.820039
13.500000 74.176243
13.500000 74.533289
13.500000 74.891179
13.500000 75.249912
13.500000 75.609488
13.500000 75.969907
13.500000 76.331170
13.500000 76.693275
13.500000 77.056223
13.500000 77.420015
13.500000 77.784649
13.500000 78.150127
13.500000 78.516448
13.500000 78.883612
13.500000 79.251619
13.500000 79.620469
13.500000 79.990162
13.500000 80.360698
13.500000 80.732077
13.500000 81.104299
13.500000 81.477365
13.500000 81.851273
13.500000 82.226025
13.500000 82.601620
13.500000 82.978057
13.500000 83.355338
13.500000 83.733462
13.500000 84.112429
13.500000 84.492239
13.500000 84.872893
13.500000 85.254389
13.500000 85.636728
13.500000 86.019911
13.500000 86.403936
13.500000 86.788805
13.500000 87.174517
13.500000 87.561071
13.500000 87.948469
13.500000 88.336710
13.500000 88.725794
13.500000 89.115722
13.500000 89.506492
13.500000 89.898105
13.500000 90.290561
13.500000 90.683861
13.500000 91.078004
13.500000 91.472989
13.500000 91.868818
13.500000 92.265490
13.500000 92.663005
13.500000 93.061363
13.500000 93.460564
13.500000 93.860608
13.500000 94.261495
13.500000 94.663226
13.500000 95.065799
13.500000 95.469216
13.500000 95.873475
13.500000 96.278578
13.500000 96.684524
13.500000 97.091312
13.500000 97.498944
13.500000 97.907419
13.500000 98.316738
13.500000 98.726899
13.500000 99.137903
13.500000 99.549750
13.500000 99.962441
13.500000 100.375974
13.500000 100.790351
13.500000 101.205571
13.500000 101.621634
13.500000 102.038539
13.500000 102.456288
13.500000 102.874881
13.500000 103.294316
13.500000 103.714594
13.500000 104.135715
13.500000 104.557680
13.500000 104.980487
13.500000 105.404138
13.500000 105.828631
13.500000 106.253968
13.500000 106.680148
13.500000 107.107171
13.500000 107.535037
13.500000 107.963746
13.500000 108.393298
13.500000 108.823693
13.500000 109.254932
13.500000 109.687013
13.500000 110.119938
13.500000 110.553705
13.500000 110.988316
13.500000 111.423770
13.500000 111.860067
13.500000 112.297207
13.500000 112.735190
13.500000 113.174016
13.500000 113.613685
13.500000 114.054197
13.500000 114.495553
13.500000 114.937751
13.500000 115.380793
13.500000 115.824677
13.500000 116.269405
13.500000 116.714976
13.500000 117.161390
13.500000 117.608647
13.500000 118.056747
13.500000 118.505690
13.500000 118.955476
13.500000 119.406105
13.500000 119.857578
13.500000 120.309893
13.500000 120.763052
13.500000 121.217053
13.500000 121.671898
13.500000 122.127586
13.500000 122.584117
13.500000 123.041491
13.500000 123.499708
13.500000 123.958768
13.500000 124.418671
13.500000 124.879418
13.500000 125.341007
13.500000 125.803440
13.500000 126.266715
13.500000 126.730834
13.500000 127.195796
13.500000 127.661601
13.500000 128.128249
13.500000 128.595740
13.500000 129.064074
13.500000 129.533251
13.500000 130.003271
13.500000 130.474135
13.500000 130.945841
13.500000 131.418391
13.500000 131.891783
13.500000 132.366019
13.500000 132.841098
13.500000 133.317020
13.500000 133.793785
13.500000 134.271393
13.500000 134.749844
13.500000 135.229138
13.500000 135.709275
13.500000 136.190256
13.500000 136.672079
13.500000 137.154746
13.500000 137.638256
13.500000 138.122608
13.500000 138.607804
13.500000 139.093843
13.500000 139.580725
13.500000 140.068450
13.500000 140.557018
13.500000 141.046430
13.500000 141.536684
13.500000 142.027781
13.500000 142.519722
13.500000 143.012506
13.500000 143.506132
13.500000 144.000602
13.500000 144.495915
13.500000 144.992071
13.500000 145.489070
13.500000 145.986912
13.500000 146.485597
13.500000 146.985125
13.500000 147.485497
13.500000 147.986711
13.500000 148.488769
13.500000 148.991669
13.500000 149.495413
13.500000 150.000000
</POINTS>
</NEKTAR>

