<?xml version="1.0" encoding="utf-8" ?>
<NEKTAR>
<POINTS DIM="2" FIELDS="">
443.500000 -1.250000
443.500000 -1.249578
443.500000 -1.248314
443.500000 -1.246206
443.500000 -1.243255
443.500000 -1.239461
443.500000 -1.234824
443.500000 -1.229344
443.500000 -1.223021
443.500000 -1.215855
443.500000 -1.207846
443.500000 -1.198993
443.500000 -1.189298
443.500000 -1.178759
443.500000 -1.167378
443.500000 -1.155153
443.500000 -1.142085
443.500000 -1.128174
443.500000 -1.113420
443.500000 -1.097823
443.500000 -1.081383
443.500000 -1.064100
443.500000 -1.045973
443.500000 -1.027004
443.500000 -1.007191
443.500000 -0.986536
443.500000 -0.965037
443.500000 -0.942695
443.500000 -0.919510
443.500000 -0.895482
443.500000 -0.870611
443.500000 -0.844897
443.500000 -0.818340
443.500000 -0.790940
443.500000 -0.762696
443.500000 -0.733610
443.500000 -0.703680
443.500000 -0.672908
443.500000 -0.641292
443.500000 -0.608833
443.500000 -0.575531
443.500000 -0.541386
443.500000 -0.506398
443.500000 -0.470567
443.500000 -0.433893
443.500000 -0.396376
443.500000 -0.358015
443.500000 -0.318812
443.500000 -0.278765
443.500000 -0.237876
443.500000 -0.196143
443.500000 -0.153567
443.500000 -0.110148
443.500000 -0.065886
443.500000 -0.020781
443.500000 0.025167
443.500000 0.071958
443.500000 0.119593
443.500000 0.168070
443.500000 0.217391
443.500000 0.267554
443.500000 0.318561
443.500000 0.370411
443.500000 0.423104
443.500000 0.476640
443.500000 0.531019
443.500000 0.586241
443.500000 0.642306
443.500000 0.699214
443.500000 0.756966
443.500000 0.815560
443.500000 0.874998
443.500000 0.935278
443.500000 0.996402
443.500000 1.058369
443.500000 1.121179
443.500000 1.184832
443.500000 1.249328
443.500000 1.314667
443.500000 1.380849
443.500000 1.447874
443.500000 1.515743
443.500000 1.584454
443.500000 1.654009
443.500000 1.724406
443.500000 1.795647
443.500000 1.867731
443.500000 1.940658
443.500000 2.014428
443.500000 2.089041
443.500000 2.164497
443.500000 2.240796
443.500000 2.317939
443.500000 2.395924
443.500000 2.474753
443.500000 2.554424
443.500000 2.634939
443.500000 2.716297
443.500000 2.798498
443.500000 2.881542
443.500000 2.965429
443.500000 3.050159
443.500000 3.135732
443.500000 3.222148
443.500000 3.309408
443.500000 3.397510
443.500000 3.486456
443.500000 3.576244
443.500000 3.666876
443.500000 3.758351
443.500000 3.850669
443.500000 3.943830
443.500000 4.037834
443.500000 4.132681
443.500000 4.228371
443.500000 4.324904
443.500000 4.422281
443.500000 4.520500
443.500000 4.619563
443.500000 4.719468
443.500000 4.820217
443.500000 4.921809
443.500000 5.024244
443.500000 5.127522
443.500000 5.231643
443.500000 5.336607
443.500000 5.442414
443.500000 5.549065
443.500000 5.656558
443.500000 5.764895
443.500000 5.874074
443.500000 5.984097
443.500000 6.094963
443.500000 6.206672
443.500000 6.319224
443.500000 6.432619
443.500000 6.546857
443.500000 6.661938
443.500000 6.777862
443.500000 6.894630
443.500000 7.012240
443.500000 7.130694
443.500000 7.249990
443.500000 7.370130
443.500000 7.491113
443.500000 7.612939
443.500000 7.735608
443.500000 7.859120
443.500000 7.983475
443.500000 8.108673
443.500000 8.234714
443.500000 8.361599
443.500000 8.489326
443.500000 8.617897
443.500000 8.747310
443.500000 8.877567
443.500000 9.008667
443.500000 9.140610
443.500000 9.273396
443.500000 9.407025
443.500000 9.541497
443.500000 9.676812
443.500000 9.812971
443.500000 9.949972
443.500000 10.087817
443.500000 10.226504
443.500000 10.366035
443.500000 10.506409
443.500000 10.647626
443.500000 10.789686
443.500000 10.932589
443.500000 11.076335
443.500000 11.220924
443.500000 11.366356
443.500000 11.512632
443.500000 11.659750
443.500000 11.807712
443.500000 11.956516
443.500000 12.106164
443.500000 12.256655
443.500000 12.407989
443.500000 12.560166
443.500000 12.713186
443.500000 12.867049
443.500000 13.021755
443.500000 13.177304
443.500000 13.333697
443.500000 13.490932
443.500000 13.649011
443.500000 13.807933
443.500000 13.967697
443.500000 14.128305
443.500000 14.289756
443.500000 14.452050
443.500000 14.615187
443.500000 14.779167
443.500000 14.943991
443.500000 15.109657
443.500000 15.276166
443.500000 15.443519
443.500000 15.611714
443.500000 15.780753
443.500000 15.950635
443.500000 16.121360
443.500000 16.292928
443.500000 16.465339
443.500000 16.638593
443.500000 16.812690
443.500000 16.987630
443.500000 17.163414
443.500000 17.340040
443.500000 17.517510
443.500000 17.695822
443.500000 17.874978
443.500000 18.054977
443.500000 18.235819
443.500000 18.417504
443.500000 18.600032
443.500000 18.783403
443.500000 18.967617
443.500000 19.152674
443.500000 19.338575
443.500000 19.525318
443.500000 19.712905
443.500000 19.901335
443.500000 20.090607
443.500000 20.280723
443.500000 20.471682
443.500000 20.663484
443.500000 20.856129
443.500000 21.049617
443.500000 21.243949
443.500000 21.439123
443.500000 21.635140
443.500000 21.832001
443.500000 22.029704
443.500000 22.228251
443.500000 22.427641
443.500000 22.627874
443.500000 22.828950
443.500000 23.030869
443.500000 23.233631
443.500000 23.437236
443.500000 23.641684
443.500000 23.846976
443.500000 24.053110
443.500000 24.260088
443.500000 24.467908
443.500000 24.676572
443.500000 24.886079
443.500000 25.096429
443.500000 25.307622
443.500000 25.519658
443.500000 25.732537
443.500000 25.946259
443.500000 26.160825
443.500000 26.376233
443.500000 26.592484
443.500000 26.809579
443.500000 27.027517
443.500000 27.246297
443.500000 27.465921
443.500000 27.686388
443.500000 27.907698
443.500000 28.129851
443.500000 28.352847
443.500000 28.576687
443.500000 28.801369
443.500000 29.026894
443.500000 29.253263
443.500000 29.480475
443.500000 29.708529
443.500000 29.937427
443.500000 30.167168
443.500000 30.397752
443.500000 30.629179
443.500000 30.861449
443.500000 31.094562
443.500000 31.328518
443.500000 31.563318
443.500000 31.798960
443.500000 32.035446
443.500000 32.272774
443.500000 32.510946
443.500000 32.749961
443.500000 32.989819
443.500000 33.230520
443.500000 33.472064
443.500000 33.714451
443.500000 33.957681
443.500000 34.201755
443.500000 34.446671
443.500000 34.692430
443.500000 34.939033
443.500000 35.186479
443.500000 35.434767
443.500000 35.683899
443.500000 35.933874
443.500000 36.184692
443.500000 36.436353
443.500000 36.688857
443.500000 36.942205
443.500000 37.196395
443.500000 37.451429
443.500000 37.707305
443.500000 37.964025
443.500000 38.221587
443.500000 38.479993
443.500000 38.739242
443.500000 38.999334
443.500000 39.260269
443.500000 39.522047
443.500000 39.784668
443.500000 40.048133
443.500000 40.312440
443.500000 40.577590
443.500000 40.843584
443.500000 41.110421
443.500000 41.378100
443.500000 41.646623
443.500000 41.915989
443.500000 42.186198
443.500000 42.457250
443.500000 42.729145
443.500000 43.001883
443.500000 43.275465
443.500000 43.549889
443.500000 43.825157
443.500000 44.101267
443.500000 44.378221
443.500000 44.656018
443.500000 44.934657
443.500000 45.214140
443.500000 45.494466
443.500000 45.775635
443.500000 46.057648
443.500000 46.340503
443.500000 46.624201
443.500000 46.908743
443.500000 47.194127
443.500000 47.480355
443.500000 47.767425
443.500000 48.055339
443.500000 48.344096
443.500000 48.633696
443.500000 48.924139
443.500000 49.215425
443.500000 49.507554
443.500000 49.800527
443.500000 50.094342
443.500000 50.389000
443.500000 50.684502
443.500000 50.980847
443.500000 51.278034
443.500000 51.576065
443.500000 51.874939
443.500000 52.174656
443.500000 52.475216
443.500000 52.776619
443.500000 53.078865
443.500000 53.381955
443.500000 53.685887
443.500000 53.990663
443.500000 54.296281
443.500000 54.602743
443.500000 54.910048
443.500000 55.218195
443.500000 55.527186
443.500000 55.837020
443.500000 56.147697
443.500000 56.459218
443.500000 56.771581
443.500000 57.084787
443.500000 57.398837
443.500000 57.713729
443.500000 58.029465
443.500000 58.346043
443.500000 58.663465
443.500000 58.981730
443.500000 59.300838
443.500000 59.620789
443.500000 59.941583
443.500000 60.263220
443.500000 60.585701
443.500000 60.909024
443.500000 61.233191
443.500000 61.558200
443.500000 61.884053
443.500000 62.210748
443.500000 62.538287
443.500000 62.866669
443.500000 63.195894
443.500000 63.525962
443.500000 63.856873
443.500000 64.188628
443.500000 64.521225
443.500000 64.854665
443.500000 65.188949
443.500000 65.524075
443.500000 65.860045
443.500000 66.196858
443.500000 66.534514
443.500000 66.873012
443.500000 67.212354
443.500000 67.552540
443.500000 67.893568
443.500000 68.235439
443.500000 68.578153
443.500000 68.921711
443.500000 69.266111
443.500000 69.611355
443.500000 69.957442
443.500000 70.304371
443.500000 70.652144
443.500000 71.000760
443.500000 71.350219
443.500000 71.700521
443.500000 72.051667
443.500000 72.403655
443.500000 72.756486
443.500000 73.110161
443.500000 73.464678
443.500000 73.820039
443.500000 74.176243
443.500000 74.533289
443.500000 74.891179
443.500000 75.249912
443.500000 75.609488
443.500000 75.969907
443.500000 76.331170
443.500000 76.693275
443.500000 77.056223
443.500000 77.420015
443.500000 77.784649
443.500000 78.150127
443.500000 78.516448
443.500000 78.883612
443.500000 79.251619
443.500000 79.620469
443.500000 79.990162
443.500000 80.360698
443.500000 80.732077
443.500000 81.104299
443.500000 81.477365
443.500000 81.851273
443.500000 82.226025
443.500000 82.601620
443.500000 82.978057
443.500000 83.355338
443.500000 83.733462
443.500000 84.112429
443.500000 84.492239
443.500000 84.872893
443.500000 85.254389
443.500000 85.636728
443.500000 86.019911
443.500000 86.403936
443.500000 86.788805
443.500000 87.174517
443.500000 87.561071
443.500000 87.948469
443.500000 88.336710
443.500000 88.725794
443.500000 89.115722
443.500000 89.506492
443.500000 89.898105
443.500000 90.290561
443.500000 90.683861
443.500000 91.078004
443.500000 91.472989
443.500000 91.868818
443.500000 92.265490
443.500000 92.663005
443.500000 93.061363
443.500000 93.460564
443.500000 93.860608
443.500000 94.261495
443.500000 94.663226
443.500000 95.065799
443.500000 95.469216
443.500000 95.873475
443.500000 96.278578
443.500000 96.684524
443.500000 97.091312
443.500000 97.498944
443.500000 97.907419
443.500000 98.316738
443.500000 98.726899
443.500000 99.137903
443.500000 99.549750
443.500000 99.962441
443.500000 100.375974
443.500000 100.790351
443.500000 101.205571
443.500000 101.621634
443.500000 102.038539
443.500000 102.456288
443.500000 102.874881
443.500000 103.294316
443.500000 103.714594
443.500000 104.135715
443.500000 104.557680
443.500000 104.980487
443.500000 105.404138
443.500000 105.828631
443.500000 106.253968
443.500000 106.680148
443.500000 107.107171
443.500000 107.535037
443.500000 107.963746
443.500000 108.393298
443.500000 108.823693
443.500000 109.254932
443.500000 109.687013
443.500000 110.119938
443.500000 110.553705
443.500000 110.988316
443.500000 111.423770
443.500000 111.860067
443.500000 112.297207
443.500000 112.735190
443.500000 113.174016
443.500000 113.613685
443.500000 114.054197
443.500000 114.495553
443.500000 114.937751
443.500000 115.380793
443.500000 115.824677
443.500000 116.269405
443.500000 116.714976
443.500000 117.161390
443.500000 117.608647
443.500000 118.056747
443.500000 118.505690
443.500000 118.955476
443.500000 119.406105
443.500000 119.857578
443.500000 120.309893
443.500000 120.763052
443.500000 121.217053
443.500000 121.671898
443.500000 122.127586
443.500000 122.584117
443.500000 123.041491
443.500000 123.499708
443.500000 123.958768
443.500000 124.418671
443.500000 124.879418
443.500000 125.341007
443.500000 125.803440
443.500000 126.266715
443.500000 126.730834
443.500000 127.195796
443.500000 127.661601
443.500000 128.128249
443.500000 128.595740
443.500000 129.064074
443.500000 129.533251
443.500000 130.003271
443.500000 130.474135
443.500000 130.945841
443.500000 131.418391
443.500000 131.891783
443.500000 132.366019
443.500000 132.841098
443.500000 133.317020
443.500000 133.793785
443.500000 134.271393
443.500000 134.749844
443.500000 135.229138
443.500000 135.709275
443.500000 136.190256
443.500000 136.672079
443.500000 137.154746
443.500000 137.638256
443.500000 138.122608
443.500000 138.607804
443.500000 139.093843
443.500000 139.580725
443.500000 140.068450
443.500000 140.557018
443.500000 141.046430
443.500000 141.536684
443.500000 142.027781
443.500000 142.519722
443.500000 143.012506
443.500000 143.506132
443.500000 144.000602
443.500000 144.495915
443.500000 144.992071
443.500000 145.489070
443.500000 145.986912
443.500000 146.485597
443.500000 146.985125
443.500000 147.485497
443.500000 147.986711
443.500000 148.488769
443.500000 148.991669
443.500000 149.495413
443.500000 150.000000
</POINTS>
</NEKTAR>

