<?xml version="1.0" encoding="utf-8" ?>
<NEKTAR>
<POINTS DIM="2" FIELDS="">
343.500000 -1.250000
343.500000 -1.249578
343.500000 -1.248314
343.500000 -1.246206
343.500000 -1.243255
343.500000 -1.239461
343.500000 -1.234824
343.500000 -1.229344
343.500000 -1.223021
343.500000 -1.215855
343.500000 -1.207846
343.500000 -1.198993
343.500000 -1.189298
343.500000 -1.178759
343.500000 -1.167378
343.500000 -1.155153
343.500000 -1.142085
343.500000 -1.128174
343.500000 -1.113420
343.500000 -1.097823
343.500000 -1.081383
343.500000 -1.064100
343.500000 -1.045973
343.500000 -1.027004
343.500000 -1.007191
343.500000 -0.986536
343.500000 -0.965037
343.500000 -0.942695
343.500000 -0.919510
343.500000 -0.895482
343.500000 -0.870611
343.500000 -0.844897
343.500000 -0.818340
343.500000 -0.790940
343.500000 -0.762696
343.500000 -0.733610
343.500000 -0.703680
343.500000 -0.672908
343.500000 -0.641292
343.500000 -0.608833
343.500000 -0.575531
343.500000 -0.541386
343.500000 -0.506398
343.500000 -0.470567
343.500000 -0.433893
343.500000 -0.396376
343.500000 -0.358015
343.500000 -0.318812
343.500000 -0.278765
343.500000 -0.237876
343.500000 -0.196143
343.500000 -0.153567
343.500000 -0.110148
343.500000 -0.065886
343.500000 -0.020781
343.500000 0.025167
343.500000 0.071958
343.500000 0.119593
343.500000 0.168070
343.500000 0.217391
343.500000 0.267554
343.500000 0.318561
343.500000 0.370411
343.500000 0.423104
343.500000 0.476640
343.500000 0.531019
343.500000 0.586241
343.500000 0.642306
343.500000 0.699214
343.500000 0.756966
343.500000 0.815560
343.500000 0.874998
343.500000 0.935278
343.500000 0.996402
343.500000 1.058369
343.500000 1.121179
343.500000 1.184832
343.500000 1.249328
343.500000 1.314667
343.500000 1.380849
343.500000 1.447874
343.500000 1.515743
343.500000 1.584454
343.500000 1.654009
343.500000 1.724406
343.500000 1.795647
343.500000 1.867731
343.500000 1.940658
343.500000 2.014428
343.500000 2.089041
343.500000 2.164497
343.500000 2.240796
343.500000 2.317939
343.500000 2.395924
343.500000 2.474753
343.500000 2.554424
343.500000 2.634939
343.500000 2.716297
343.500000 2.798498
343.500000 2.881542
343.500000 2.965429
343.500000 3.050159
343.500000 3.135732
343.500000 3.222148
343.500000 3.309408
343.500000 3.397510
343.500000 3.486456
343.500000 3.576244
343.500000 3.666876
343.500000 3.758351
343.500000 3.850669
343.500000 3.943830
343.500000 4.037834
343.500000 4.132681
343.500000 4.228371
343.500000 4.324904
343.500000 4.422281
343.500000 4.520500
343.500000 4.619563
343.500000 4.719468
343.500000 4.820217
343.500000 4.921809
343.500000 5.024244
343.500000 5.127522
343.500000 5.231643
343.500000 5.336607
343.500000 5.442414
343.500000 5.549065
343.500000 5.656558
343.500000 5.764895
343.500000 5.874074
343.500000 5.984097
343.500000 6.094963
343.500000 6.206672
343.500000 6.319224
343.500000 6.432619
343.500000 6.546857
343.500000 6.661938
343.500000 6.777862
343.500000 6.894630
343.500000 7.012240
343.500000 7.130694
343.500000 7.249990
343.500000 7.370130
343.500000 7.491113
343.500000 7.612939
343.500000 7.735608
343.500000 7.859120
343.500000 7.983475
343.500000 8.108673
343.500000 8.234714
343.500000 8.361599
343.500000 8.489326
343.500000 8.617897
343.500000 8.747310
343.500000 8.877567
343.500000 9.008667
343.500000 9.140610
343.500000 9.273396
343.500000 9.407025
343.500000 9.541497
343.500000 9.676812
343.500000 9.812971
343.500000 9.949972
343.500000 10.087817
343.500000 10.226504
343.500000 10.366035
343.500000 10.506409
343.500000 10.647626
343.500000 10.789686
343.500000 10.932589
343.500000 11.076335
343.500000 11.220924
343.500000 11.366356
343.500000 11.512632
343.500000 11.659750
343.500000 11.807712
343.500000 11.956516
343.500000 12.106164
343.500000 12.256655
343.500000 12.407989
343.500000 12.560166
343.500000 12.713186
343.500000 12.867049
343.500000 13.021755
343.500000 13.177304
343.500000 13.333697
343.500000 13.490932
343.500000 13.649011
343.500000 13.807933
343.500000 13.967697
343.500000 14.128305
343.500000 14.289756
343.500000 14.452050
343.500000 14.615187
343.500000 14.779167
343.500000 14.943991
343.500000 15.109657
343.500000 15.276166
343.500000 15.443519
343.500000 15.611714
343.500000 15.780753
343.500000 15.950635
343.500000 16.121360
343.500000 16.292928
343.500000 16.465339
343.500000 16.638593
343.500000 16.812690
343.500000 16.987630
343.500000 17.163414
343.500000 17.340040
343.500000 17.517510
343.500000 17.695822
343.500000 17.874978
343.500000 18.054977
343.500000 18.235819
343.500000 18.417504
343.500000 18.600032
343.500000 18.783403
343.500000 18.967617
343.500000 19.152674
343.500000 19.338575
343.500000 19.525318
343.500000 19.712905
343.500000 19.901335
343.500000 20.090607
343.500000 20.280723
343.500000 20.471682
343.500000 20.663484
343.500000 20.856129
343.500000 21.049617
343.500000 21.243949
343.500000 21.439123
343.500000 21.635140
343.500000 21.832001
343.500000 22.029704
343.500000 22.228251
343.500000 22.427641
343.500000 22.627874
343.500000 22.828950
343.500000 23.030869
343.500000 23.233631
343.500000 23.437236
343.500000 23.641684
343.500000 23.846976
343.500000 24.053110
343.500000 24.260088
343.500000 24.467908
343.500000 24.676572
343.500000 24.886079
343.500000 25.096429
343.500000 25.307622
343.500000 25.519658
343.500000 25.732537
343.500000 25.946259
343.500000 26.160825
343.500000 26.376233
343.500000 26.592484
343.500000 26.809579
343.500000 27.027517
343.500000 27.246297
343.500000 27.465921
343.500000 27.686388
343.500000 27.907698
343.500000 28.129851
343.500000 28.352847
343.500000 28.576687
343.500000 28.801369
343.500000 29.026894
343.500000 29.253263
343.500000 29.480475
343.500000 29.708529
343.500000 29.937427
343.500000 30.167168
343.500000 30.397752
343.500000 30.629179
343.500000 30.861449
343.500000 31.094562
343.500000 31.328518
343.500000 31.563318
343.500000 31.798960
343.500000 32.035446
343.500000 32.272774
343.500000 32.510946
343.500000 32.749961
343.500000 32.989819
343.500000 33.230520
343.500000 33.472064
343.500000 33.714451
343.500000 33.957681
343.500000 34.201755
343.500000 34.446671
343.500000 34.692430
343.500000 34.939033
343.500000 35.186479
343.500000 35.434767
343.500000 35.683899
343.500000 35.933874
343.500000 36.184692
343.500000 36.436353
343.500000 36.688857
343.500000 36.942205
343.500000 37.196395
343.500000 37.451429
343.500000 37.707305
343.500000 37.964025
343.500000 38.221587
343.500000 38.479993
343.500000 38.739242
343.500000 38.999334
343.500000 39.260269
343.500000 39.522047
343.500000 39.784668
343.500000 40.048133
343.500000 40.312440
343.500000 40.577590
343.500000 40.843584
343.500000 41.110421
343.500000 41.378100
343.500000 41.646623
343.500000 41.915989
343.500000 42.186198
343.500000 42.457250
343.500000 42.729145
343.500000 43.001883
343.500000 43.275465
343.500000 43.549889
343.500000 43.825157
343.500000 44.101267
343.500000 44.378221
343.500000 44.656018
343.500000 44.934657
343.500000 45.214140
343.500000 45.494466
343.500000 45.775635
343.500000 46.057648
343.500000 46.340503
343.500000 46.624201
343.500000 46.908743
343.500000 47.194127
343.500000 47.480355
343.500000 47.767425
343.500000 48.055339
343.500000 48.344096
343.500000 48.633696
343.500000 48.924139
343.500000 49.215425
343.500000 49.507554
343.500000 49.800527
343.500000 50.094342
343.500000 50.389000
343.500000 50.684502
343.500000 50.980847
343.500000 51.278034
343.500000 51.576065
343.500000 51.874939
343.500000 52.174656
343.500000 52.475216
343.500000 52.776619
343.500000 53.078865
343.500000 53.381955
343.500000 53.685887
343.500000 53.990663
343.500000 54.296281
343.500000 54.602743
343.500000 54.910048
343.500000 55.218195
343.500000 55.527186
343.500000 55.837020
343.500000 56.147697
343.500000 56.459218
343.500000 56.771581
343.500000 57.084787
343.500000 57.398837
343.500000 57.713729
343.500000 58.029465
343.500000 58.346043
343.500000 58.663465
343.500000 58.981730
343.500000 59.300838
343.500000 59.620789
343.500000 59.941583
343.500000 60.263220
343.500000 60.585701
343.500000 60.909024
343.500000 61.233191
343.500000 61.558200
343.500000 61.884053
343.500000 62.210748
343.500000 62.538287
343.500000 62.866669
343.500000 63.195894
343.500000 63.525962
343.500000 63.856873
343.500000 64.188628
343.500000 64.521225
343.500000 64.854665
343.500000 65.188949
343.500000 65.524075
343.500000 65.860045
343.500000 66.196858
343.500000 66.534514
343.500000 66.873012
343.500000 67.212354
343.500000 67.552540
343.500000 67.893568
343.500000 68.235439
343.500000 68.578153
343.500000 68.921711
343.500000 69.266111
343.500000 69.611355
343.500000 69.957442
343.500000 70.304371
343.500000 70.652144
343.500000 71.000760
343.500000 71.350219
343.500000 71.700521
343.500000 72.051667
343.500000 72.403655
343.500000 72.756486
343.500000 73.110161
343.500000 73.464678
343.500000 73.820039
343.500000 74.176243
343.500000 74.533289
343.500000 74.891179
343.500000 75.249912
343.500000 75.609488
343.500000 75.969907
343.500000 76.331170
343.500000 76.693275
343.500000 77.056223
343.500000 77.420015
343.500000 77.784649
343.500000 78.150127
343.500000 78.516448
343.500000 78.883612
343.500000 79.251619
343.500000 79.620469
343.500000 79.990162
343.500000 80.360698
343.500000 80.732077
343.500000 81.104299
343.500000 81.477365
343.500000 81.851273
343.500000 82.226025
343.500000 82.601620
343.500000 82.978057
343.500000 83.355338
343.500000 83.733462
343.500000 84.112429
343.500000 84.492239
343.500000 84.872893
343.500000 85.254389
343.500000 85.636728
343.500000 86.019911
343.500000 86.403936
343.500000 86.788805
343.500000 87.174517
343.500000 87.561071
343.500000 87.948469
343.500000 88.336710
343.500000 88.725794
343.500000 89.115722
343.500000 89.506492
343.500000 89.898105
343.500000 90.290561
343.500000 90.683861
343.500000 91.078004
343.500000 91.472989
343.500000 91.868818
343.500000 92.265490
343.500000 92.663005
343.500000 93.061363
343.500000 93.460564
343.500000 93.860608
343.500000 94.261495
343.500000 94.663226
343.500000 95.065799
343.500000 95.469216
343.500000 95.873475
343.500000 96.278578
343.500000 96.684524
343.500000 97.091312
343.500000 97.498944
343.500000 97.907419
343.500000 98.316738
343.500000 98.726899
343.500000 99.137903
343.500000 99.549750
343.500000 99.962441
343.500000 100.375974
343.500000 100.790351
343.500000 101.205571
343.500000 101.621634
343.500000 102.038539
343.500000 102.456288
343.500000 102.874881
343.500000 103.294316
343.500000 103.714594
343.500000 104.135715
343.500000 104.557680
343.500000 104.980487
343.500000 105.404138
343.500000 105.828631
343.500000 106.253968
343.500000 106.680148
343.500000 107.107171
343.500000 107.535037
343.500000 107.963746
343.500000 108.393298
343.500000 108.823693
343.500000 109.254932
343.500000 109.687013
343.500000 110.119938
343.500000 110.553705
343.500000 110.988316
343.500000 111.423770
343.500000 111.860067
343.500000 112.297207
343.500000 112.735190
343.500000 113.174016
343.500000 113.613685
343.500000 114.054197
343.500000 114.495553
343.500000 114.937751
343.500000 115.380793
343.500000 115.824677
343.500000 116.269405
343.500000 116.714976
343.500000 117.161390
343.500000 117.608647
343.500000 118.056747
343.500000 118.505690
343.500000 118.955476
343.500000 119.406105
343.500000 119.857578
343.500000 120.309893
343.500000 120.763052
343.500000 121.217053
343.500000 121.671898
343.500000 122.127586
343.500000 122.584117
343.500000 123.041491
343.500000 123.499708
343.500000 123.958768
343.500000 124.418671
343.500000 124.879418
343.500000 125.341007
343.500000 125.803440
343.500000 126.266715
343.500000 126.730834
343.500000 127.195796
343.500000 127.661601
343.500000 128.128249
343.500000 128.595740
343.500000 129.064074
343.500000 129.533251
343.500000 130.003271
343.500000 130.474135
343.500000 130.945841
343.500000 131.418391
343.500000 131.891783
343.500000 132.366019
343.500000 132.841098
343.500000 133.317020
343.500000 133.793785
343.500000 134.271393
343.500000 134.749844
343.500000 135.229138
343.500000 135.709275
343.500000 136.190256
343.500000 136.672079
343.500000 137.154746
343.500000 137.638256
343.500000 138.122608
343.500000 138.607804
343.500000 139.093843
343.500000 139.580725
343.500000 140.068450
343.500000 140.557018
343.500000 141.046430
343.500000 141.536684
343.500000 142.027781
343.500000 142.519722
343.500000 143.012506
343.500000 143.506132
343.500000 144.000602
343.500000 144.495915
343.500000 144.992071
343.500000 145.489070
343.500000 145.986912
343.500000 146.485597
343.500000 146.985125
343.500000 147.485497
343.500000 147.986711
343.500000 148.488769
343.500000 148.991669
343.500000 149.495413
343.500000 150.000000
</POINTS>
</NEKTAR>

