<?xml version="1.0" encoding="utf-8" ?>
<NEKTAR>
<POINTS DIM="2" FIELDS="">
723.500000 -1.250000
723.500000 -1.249578
723.500000 -1.248314
723.500000 -1.246206
723.500000 -1.243255
723.500000 -1.239461
723.500000 -1.234824
723.500000 -1.229344
723.500000 -1.223021
723.500000 -1.215855
723.500000 -1.207846
723.500000 -1.198993
723.500000 -1.189298
723.500000 -1.178759
723.500000 -1.167378
723.500000 -1.155153
723.500000 -1.142085
723.500000 -1.128174
723.500000 -1.113420
723.500000 -1.097823
723.500000 -1.081383
723.500000 -1.064100
723.500000 -1.045973
723.500000 -1.027004
723.500000 -1.007191
723.500000 -0.986536
723.500000 -0.965037
723.500000 -0.942695
723.500000 -0.919510
723.500000 -0.895482
723.500000 -0.870611
723.500000 -0.844897
723.500000 -0.818340
723.500000 -0.790940
723.500000 -0.762696
723.500000 -0.733610
723.500000 -0.703680
723.500000 -0.672908
723.500000 -0.641292
723.500000 -0.608833
723.500000 -0.575531
723.500000 -0.541386
723.500000 -0.506398
723.500000 -0.470567
723.500000 -0.433893
723.500000 -0.396376
723.500000 -0.358015
723.500000 -0.318812
723.500000 -0.278765
723.500000 -0.237876
723.500000 -0.196143
723.500000 -0.153567
723.500000 -0.110148
723.500000 -0.065886
723.500000 -0.020781
723.500000 0.025167
723.500000 0.071958
723.500000 0.119593
723.500000 0.168070
723.500000 0.217391
723.500000 0.267554
723.500000 0.318561
723.500000 0.370411
723.500000 0.423104
723.500000 0.476640
723.500000 0.531019
723.500000 0.586241
723.500000 0.642306
723.500000 0.699214
723.500000 0.756966
723.500000 0.815560
723.500000 0.874998
723.500000 0.935278
723.500000 0.996402
723.500000 1.058369
723.500000 1.121179
723.500000 1.184832
723.500000 1.249328
723.500000 1.314667
723.500000 1.380849
723.500000 1.447874
723.500000 1.515743
723.500000 1.584454
723.500000 1.654009
723.500000 1.724406
723.500000 1.795647
723.500000 1.867731
723.500000 1.940658
723.500000 2.014428
723.500000 2.089041
723.500000 2.164497
723.500000 2.240796
723.500000 2.317939
723.500000 2.395924
723.500000 2.474753
723.500000 2.554424
723.500000 2.634939
723.500000 2.716297
723.500000 2.798498
723.500000 2.881542
723.500000 2.965429
723.500000 3.050159
723.500000 3.135732
723.500000 3.222148
723.500000 3.309408
723.500000 3.397510
723.500000 3.486456
723.500000 3.576244
723.500000 3.666876
723.500000 3.758351
723.500000 3.850669
723.500000 3.943830
723.500000 4.037834
723.500000 4.132681
723.500000 4.228371
723.500000 4.324904
723.500000 4.422281
723.500000 4.520500
723.500000 4.619563
723.500000 4.719468
723.500000 4.820217
723.500000 4.921809
723.500000 5.024244
723.500000 5.127522
723.500000 5.231643
723.500000 5.336607
723.500000 5.442414
723.500000 5.549065
723.500000 5.656558
723.500000 5.764895
723.500000 5.874074
723.500000 5.984097
723.500000 6.094963
723.500000 6.206672
723.500000 6.319224
723.500000 6.432619
723.500000 6.546857
723.500000 6.661938
723.500000 6.777862
723.500000 6.894630
723.500000 7.012240
723.500000 7.130694
723.500000 7.249990
723.500000 7.370130
723.500000 7.491113
723.500000 7.612939
723.500000 7.735608
723.500000 7.859120
723.500000 7.983475
723.500000 8.108673
723.500000 8.234714
723.500000 8.361599
723.500000 8.489326
723.500000 8.617897
723.500000 8.747310
723.500000 8.877567
723.500000 9.008667
723.500000 9.140610
723.500000 9.273396
723.500000 9.407025
723.500000 9.541497
723.500000 9.676812
723.500000 9.812971
723.500000 9.949972
723.500000 10.087817
723.500000 10.226504
723.500000 10.366035
723.500000 10.506409
723.500000 10.647626
723.500000 10.789686
723.500000 10.932589
723.500000 11.076335
723.500000 11.220924
723.500000 11.366356
723.500000 11.512632
723.500000 11.659750
723.500000 11.807712
723.500000 11.956516
723.500000 12.106164
723.500000 12.256655
723.500000 12.407989
723.500000 12.560166
723.500000 12.713186
723.500000 12.867049
723.500000 13.021755
723.500000 13.177304
723.500000 13.333697
723.500000 13.490932
723.500000 13.649011
723.500000 13.807933
723.500000 13.967697
723.500000 14.128305
723.500000 14.289756
723.500000 14.452050
723.500000 14.615187
723.500000 14.779167
723.500000 14.943991
723.500000 15.109657
723.500000 15.276166
723.500000 15.443519
723.500000 15.611714
723.500000 15.780753
723.500000 15.950635
723.500000 16.121360
723.500000 16.292928
723.500000 16.465339
723.500000 16.638593
723.500000 16.812690
723.500000 16.987630
723.500000 17.163414
723.500000 17.340040
723.500000 17.517510
723.500000 17.695822
723.500000 17.874978
723.500000 18.054977
723.500000 18.235819
723.500000 18.417504
723.500000 18.600032
723.500000 18.783403
723.500000 18.967617
723.500000 19.152674
723.500000 19.338575
723.500000 19.525318
723.500000 19.712905
723.500000 19.901335
723.500000 20.090607
723.500000 20.280723
723.500000 20.471682
723.500000 20.663484
723.500000 20.856129
723.500000 21.049617
723.500000 21.243949
723.500000 21.439123
723.500000 21.635140
723.500000 21.832001
723.500000 22.029704
723.500000 22.228251
723.500000 22.427641
723.500000 22.627874
723.500000 22.828950
723.500000 23.030869
723.500000 23.233631
723.500000 23.437236
723.500000 23.641684
723.500000 23.846976
723.500000 24.053110
723.500000 24.260088
723.500000 24.467908
723.500000 24.676572
723.500000 24.886079
723.500000 25.096429
723.500000 25.307622
723.500000 25.519658
723.500000 25.732537
723.500000 25.946259
723.500000 26.160825
723.500000 26.376233
723.500000 26.592484
723.500000 26.809579
723.500000 27.027517
723.500000 27.246297
723.500000 27.465921
723.500000 27.686388
723.500000 27.907698
723.500000 28.129851
723.500000 28.352847
723.500000 28.576687
723.500000 28.801369
723.500000 29.026894
723.500000 29.253263
723.500000 29.480475
723.500000 29.708529
723.500000 29.937427
723.500000 30.167168
723.500000 30.397752
723.500000 30.629179
723.500000 30.861449
723.500000 31.094562
723.500000 31.328518
723.500000 31.563318
723.500000 31.798960
723.500000 32.035446
723.500000 32.272774
723.500000 32.510946
723.500000 32.749961
723.500000 32.989819
723.500000 33.230520
723.500000 33.472064
723.500000 33.714451
723.500000 33.957681
723.500000 34.201755
723.500000 34.446671
723.500000 34.692430
723.500000 34.939033
723.500000 35.186479
723.500000 35.434767
723.500000 35.683899
723.500000 35.933874
723.500000 36.184692
723.500000 36.436353
723.500000 36.688857
723.500000 36.942205
723.500000 37.196395
723.500000 37.451429
723.500000 37.707305
723.500000 37.964025
723.500000 38.221587
723.500000 38.479993
723.500000 38.739242
723.500000 38.999334
723.500000 39.260269
723.500000 39.522047
723.500000 39.784668
723.500000 40.048133
723.500000 40.312440
723.500000 40.577590
723.500000 40.843584
723.500000 41.110421
723.500000 41.378100
723.500000 41.646623
723.500000 41.915989
723.500000 42.186198
723.500000 42.457250
723.500000 42.729145
723.500000 43.001883
723.500000 43.275465
723.500000 43.549889
723.500000 43.825157
723.500000 44.101267
723.500000 44.378221
723.500000 44.656018
723.500000 44.934657
723.500000 45.214140
723.500000 45.494466
723.500000 45.775635
723.500000 46.057648
723.500000 46.340503
723.500000 46.624201
723.500000 46.908743
723.500000 47.194127
723.500000 47.480355
723.500000 47.767425
723.500000 48.055339
723.500000 48.344096
723.500000 48.633696
723.500000 48.924139
723.500000 49.215425
723.500000 49.507554
723.500000 49.800527
723.500000 50.094342
723.500000 50.389000
723.500000 50.684502
723.500000 50.980847
723.500000 51.278034
723.500000 51.576065
723.500000 51.874939
723.500000 52.174656
723.500000 52.475216
723.500000 52.776619
723.500000 53.078865
723.500000 53.381955
723.500000 53.685887
723.500000 53.990663
723.500000 54.296281
723.500000 54.602743
723.500000 54.910048
723.500000 55.218195
723.500000 55.527186
723.500000 55.837020
723.500000 56.147697
723.500000 56.459218
723.500000 56.771581
723.500000 57.084787
723.500000 57.398837
723.500000 57.713729
723.500000 58.029465
723.500000 58.346043
723.500000 58.663465
723.500000 58.981730
723.500000 59.300838
723.500000 59.620789
723.500000 59.941583
723.500000 60.263220
723.500000 60.585701
723.500000 60.909024
723.500000 61.233191
723.500000 61.558200
723.500000 61.884053
723.500000 62.210748
723.500000 62.538287
723.500000 62.866669
723.500000 63.195894
723.500000 63.525962
723.500000 63.856873
723.500000 64.188628
723.500000 64.521225
723.500000 64.854665
723.500000 65.188949
723.500000 65.524075
723.500000 65.860045
723.500000 66.196858
723.500000 66.534514
723.500000 66.873012
723.500000 67.212354
723.500000 67.552540
723.500000 67.893568
723.500000 68.235439
723.500000 68.578153
723.500000 68.921711
723.500000 69.266111
723.500000 69.611355
723.500000 69.957442
723.500000 70.304371
723.500000 70.652144
723.500000 71.000760
723.500000 71.350219
723.500000 71.700521
723.500000 72.051667
723.500000 72.403655
723.500000 72.756486
723.500000 73.110161
723.500000 73.464678
723.500000 73.820039
723.500000 74.176243
723.500000 74.533289
723.500000 74.891179
723.500000 75.249912
723.500000 75.609488
723.500000 75.969907
723.500000 76.331170
723.500000 76.693275
723.500000 77.056223
723.500000 77.420015
723.500000 77.784649
723.500000 78.150127
723.500000 78.516448
723.500000 78.883612
723.500000 79.251619
723.500000 79.620469
723.500000 79.990162
723.500000 80.360698
723.500000 80.732077
723.500000 81.104299
723.500000 81.477365
723.500000 81.851273
723.500000 82.226025
723.500000 82.601620
723.500000 82.978057
723.500000 83.355338
723.500000 83.733462
723.500000 84.112429
723.500000 84.492239
723.500000 84.872893
723.500000 85.254389
723.500000 85.636728
723.500000 86.019911
723.500000 86.403936
723.500000 86.788805
723.500000 87.174517
723.500000 87.561071
723.500000 87.948469
723.500000 88.336710
723.500000 88.725794
723.500000 89.115722
723.500000 89.506492
723.500000 89.898105
723.500000 90.290561
723.500000 90.683861
723.500000 91.078004
723.500000 91.472989
723.500000 91.868818
723.500000 92.265490
723.500000 92.663005
723.500000 93.061363
723.500000 93.460564
723.500000 93.860608
723.500000 94.261495
723.500000 94.663226
723.500000 95.065799
723.500000 95.469216
723.500000 95.873475
723.500000 96.278578
723.500000 96.684524
723.500000 97.091312
723.500000 97.498944
723.500000 97.907419
723.500000 98.316738
723.500000 98.726899
723.500000 99.137903
723.500000 99.549750
723.500000 99.962441
723.500000 100.375974
723.500000 100.790351
723.500000 101.205571
723.500000 101.621634
723.500000 102.038539
723.500000 102.456288
723.500000 102.874881
723.500000 103.294316
723.500000 103.714594
723.500000 104.135715
723.500000 104.557680
723.500000 104.980487
723.500000 105.404138
723.500000 105.828631
723.500000 106.253968
723.500000 106.680148
723.500000 107.107171
723.500000 107.535037
723.500000 107.963746
723.500000 108.393298
723.500000 108.823693
723.500000 109.254932
723.500000 109.687013
723.500000 110.119938
723.500000 110.553705
723.500000 110.988316
723.500000 111.423770
723.500000 111.860067
723.500000 112.297207
723.500000 112.735190
723.500000 113.174016
723.500000 113.613685
723.500000 114.054197
723.500000 114.495553
723.500000 114.937751
723.500000 115.380793
723.500000 115.824677
723.500000 116.269405
723.500000 116.714976
723.500000 117.161390
723.500000 117.608647
723.500000 118.056747
723.500000 118.505690
723.500000 118.955476
723.500000 119.406105
723.500000 119.857578
723.500000 120.309893
723.500000 120.763052
723.500000 121.217053
723.500000 121.671898
723.500000 122.127586
723.500000 122.584117
723.500000 123.041491
723.500000 123.499708
723.500000 123.958768
723.500000 124.418671
723.500000 124.879418
723.500000 125.341007
723.500000 125.803440
723.500000 126.266715
723.500000 126.730834
723.500000 127.195796
723.500000 127.661601
723.500000 128.128249
723.500000 128.595740
723.500000 129.064074
723.500000 129.533251
723.500000 130.003271
723.500000 130.474135
723.500000 130.945841
723.500000 131.418391
723.500000 131.891783
723.500000 132.366019
723.500000 132.841098
723.500000 133.317020
723.500000 133.793785
723.500000 134.271393
723.500000 134.749844
723.500000 135.229138
723.500000 135.709275
723.500000 136.190256
723.500000 136.672079
723.500000 137.154746
723.500000 137.638256
723.500000 138.122608
723.500000 138.607804
723.500000 139.093843
723.500000 139.580725
723.500000 140.068450
723.500000 140.557018
723.500000 141.046430
723.500000 141.536684
723.500000 142.027781
723.500000 142.519722
723.500000 143.012506
723.500000 143.506132
723.500000 144.000602
723.500000 144.495915
723.500000 144.992071
723.500000 145.489070
723.500000 145.986912
723.500000 146.485597
723.500000 146.985125
723.500000 147.485497
723.500000 147.986711
723.500000 148.488769
723.500000 148.991669
723.500000 149.495413
723.500000 150.000000
</POINTS>
</NEKTAR>

