<?xml version="1.0" encoding="utf-8" ?>
<NEKTAR>
<POINTS DIM="2" FIELDS="">
623.500000 -1.250000
623.500000 -1.249578
623.500000 -1.248314
623.500000 -1.246206
623.500000 -1.243255
623.500000 -1.239461
623.500000 -1.234824
623.500000 -1.229344
623.500000 -1.223021
623.500000 -1.215855
623.500000 -1.207846
623.500000 -1.198993
623.500000 -1.189298
623.500000 -1.178759
623.500000 -1.167378
623.500000 -1.155153
623.500000 -1.142085
623.500000 -1.128174
623.500000 -1.113420
623.500000 -1.097823
623.500000 -1.081383
623.500000 -1.064100
623.500000 -1.045973
623.500000 -1.027004
623.500000 -1.007191
623.500000 -0.986536
623.500000 -0.965037
623.500000 -0.942695
623.500000 -0.919510
623.500000 -0.895482
623.500000 -0.870611
623.500000 -0.844897
623.500000 -0.818340
623.500000 -0.790940
623.500000 -0.762696
623.500000 -0.733610
623.500000 -0.703680
623.500000 -0.672908
623.500000 -0.641292
623.500000 -0.608833
623.500000 -0.575531
623.500000 -0.541386
623.500000 -0.506398
623.500000 -0.470567
623.500000 -0.433893
623.500000 -0.396376
623.500000 -0.358015
623.500000 -0.318812
623.500000 -0.278765
623.500000 -0.237876
623.500000 -0.196143
623.500000 -0.153567
623.500000 -0.110148
623.500000 -0.065886
623.500000 -0.020781
623.500000 0.025167
623.500000 0.071958
623.500000 0.119593
623.500000 0.168070
623.500000 0.217391
623.500000 0.267554
623.500000 0.318561
623.500000 0.370411
623.500000 0.423104
623.500000 0.476640
623.500000 0.531019
623.500000 0.586241
623.500000 0.642306
623.500000 0.699214
623.500000 0.756966
623.500000 0.815560
623.500000 0.874998
623.500000 0.935278
623.500000 0.996402
623.500000 1.058369
623.500000 1.121179
623.500000 1.184832
623.500000 1.249328
623.500000 1.314667
623.500000 1.380849
623.500000 1.447874
623.500000 1.515743
623.500000 1.584454
623.500000 1.654009
623.500000 1.724406
623.500000 1.795647
623.500000 1.867731
623.500000 1.940658
623.500000 2.014428
623.500000 2.089041
623.500000 2.164497
623.500000 2.240796
623.500000 2.317939
623.500000 2.395924
623.500000 2.474753
623.500000 2.554424
623.500000 2.634939
623.500000 2.716297
623.500000 2.798498
623.500000 2.881542
623.500000 2.965429
623.500000 3.050159
623.500000 3.135732
623.500000 3.222148
623.500000 3.309408
623.500000 3.397510
623.500000 3.486456
623.500000 3.576244
623.500000 3.666876
623.500000 3.758351
623.500000 3.850669
623.500000 3.943830
623.500000 4.037834
623.500000 4.132681
623.500000 4.228371
623.500000 4.324904
623.500000 4.422281
623.500000 4.520500
623.500000 4.619563
623.500000 4.719468
623.500000 4.820217
623.500000 4.921809
623.500000 5.024244
623.500000 5.127522
623.500000 5.231643
623.500000 5.336607
623.500000 5.442414
623.500000 5.549065
623.500000 5.656558
623.500000 5.764895
623.500000 5.874074
623.500000 5.984097
623.500000 6.094963
623.500000 6.206672
623.500000 6.319224
623.500000 6.432619
623.500000 6.546857
623.500000 6.661938
623.500000 6.777862
623.500000 6.894630
623.500000 7.012240
623.500000 7.130694
623.500000 7.249990
623.500000 7.370130
623.500000 7.491113
623.500000 7.612939
623.500000 7.735608
623.500000 7.859120
623.500000 7.983475
623.500000 8.108673
623.500000 8.234714
623.500000 8.361599
623.500000 8.489326
623.500000 8.617897
623.500000 8.747310
623.500000 8.877567
623.500000 9.008667
623.500000 9.140610
623.500000 9.273396
623.500000 9.407025
623.500000 9.541497
623.500000 9.676812
623.500000 9.812971
623.500000 9.949972
623.500000 10.087817
623.500000 10.226504
623.500000 10.366035
623.500000 10.506409
623.500000 10.647626
623.500000 10.789686
623.500000 10.932589
623.500000 11.076335
623.500000 11.220924
623.500000 11.366356
623.500000 11.512632
623.500000 11.659750
623.500000 11.807712
623.500000 11.956516
623.500000 12.106164
623.500000 12.256655
623.500000 12.407989
623.500000 12.560166
623.500000 12.713186
623.500000 12.867049
623.500000 13.021755
623.500000 13.177304
623.500000 13.333697
623.500000 13.490932
623.500000 13.649011
623.500000 13.807933
623.500000 13.967697
623.500000 14.128305
623.500000 14.289756
623.500000 14.452050
623.500000 14.615187
623.500000 14.779167
623.500000 14.943991
623.500000 15.109657
623.500000 15.276166
623.500000 15.443519
623.500000 15.611714
623.500000 15.780753
623.500000 15.950635
623.500000 16.121360
623.500000 16.292928
623.500000 16.465339
623.500000 16.638593
623.500000 16.812690
623.500000 16.987630
623.500000 17.163414
623.500000 17.340040
623.500000 17.517510
623.500000 17.695822
623.500000 17.874978
623.500000 18.054977
623.500000 18.235819
623.500000 18.417504
623.500000 18.600032
623.500000 18.783403
623.500000 18.967617
623.500000 19.152674
623.500000 19.338575
623.500000 19.525318
623.500000 19.712905
623.500000 19.901335
623.500000 20.090607
623.500000 20.280723
623.500000 20.471682
623.500000 20.663484
623.500000 20.856129
623.500000 21.049617
623.500000 21.243949
623.500000 21.439123
623.500000 21.635140
623.500000 21.832001
623.500000 22.029704
623.500000 22.228251
623.500000 22.427641
623.500000 22.627874
623.500000 22.828950
623.500000 23.030869
623.500000 23.233631
623.500000 23.437236
623.500000 23.641684
623.500000 23.846976
623.500000 24.053110
623.500000 24.260088
623.500000 24.467908
623.500000 24.676572
623.500000 24.886079
623.500000 25.096429
623.500000 25.307622
623.500000 25.519658
623.500000 25.732537
623.500000 25.946259
623.500000 26.160825
623.500000 26.376233
623.500000 26.592484
623.500000 26.809579
623.500000 27.027517
623.500000 27.246297
623.500000 27.465921
623.500000 27.686388
623.500000 27.907698
623.500000 28.129851
623.500000 28.352847
623.500000 28.576687
623.500000 28.801369
623.500000 29.026894
623.500000 29.253263
623.500000 29.480475
623.500000 29.708529
623.500000 29.937427
623.500000 30.167168
623.500000 30.397752
623.500000 30.629179
623.500000 30.861449
623.500000 31.094562
623.500000 31.328518
623.500000 31.563318
623.500000 31.798960
623.500000 32.035446
623.500000 32.272774
623.500000 32.510946
623.500000 32.749961
623.500000 32.989819
623.500000 33.230520
623.500000 33.472064
623.500000 33.714451
623.500000 33.957681
623.500000 34.201755
623.500000 34.446671
623.500000 34.692430
623.500000 34.939033
623.500000 35.186479
623.500000 35.434767
623.500000 35.683899
623.500000 35.933874
623.500000 36.184692
623.500000 36.436353
623.500000 36.688857
623.500000 36.942205
623.500000 37.196395
623.500000 37.451429
623.500000 37.707305
623.500000 37.964025
623.500000 38.221587
623.500000 38.479993
623.500000 38.739242
623.500000 38.999334
623.500000 39.260269
623.500000 39.522047
623.500000 39.784668
623.500000 40.048133
623.500000 40.312440
623.500000 40.577590
623.500000 40.843584
623.500000 41.110421
623.500000 41.378100
623.500000 41.646623
623.500000 41.915989
623.500000 42.186198
623.500000 42.457250
623.500000 42.729145
623.500000 43.001883
623.500000 43.275465
623.500000 43.549889
623.500000 43.825157
623.500000 44.101267
623.500000 44.378221
623.500000 44.656018
623.500000 44.934657
623.500000 45.214140
623.500000 45.494466
623.500000 45.775635
623.500000 46.057648
623.500000 46.340503
623.500000 46.624201
623.500000 46.908743
623.500000 47.194127
623.500000 47.480355
623.500000 47.767425
623.500000 48.055339
623.500000 48.344096
623.500000 48.633696
623.500000 48.924139
623.500000 49.215425
623.500000 49.507554
623.500000 49.800527
623.500000 50.094342
623.500000 50.389000
623.500000 50.684502
623.500000 50.980847
623.500000 51.278034
623.500000 51.576065
623.500000 51.874939
623.500000 52.174656
623.500000 52.475216
623.500000 52.776619
623.500000 53.078865
623.500000 53.381955
623.500000 53.685887
623.500000 53.990663
623.500000 54.296281
623.500000 54.602743
623.500000 54.910048
623.500000 55.218195
623.500000 55.527186
623.500000 55.837020
623.500000 56.147697
623.500000 56.459218
623.500000 56.771581
623.500000 57.084787
623.500000 57.398837
623.500000 57.713729
623.500000 58.029465
623.500000 58.346043
623.500000 58.663465
623.500000 58.981730
623.500000 59.300838
623.500000 59.620789
623.500000 59.941583
623.500000 60.263220
623.500000 60.585701
623.500000 60.909024
623.500000 61.233191
623.500000 61.558200
623.500000 61.884053
623.500000 62.210748
623.500000 62.538287
623.500000 62.866669
623.500000 63.195894
623.500000 63.525962
623.500000 63.856873
623.500000 64.188628
623.500000 64.521225
623.500000 64.854665
623.500000 65.188949
623.500000 65.524075
623.500000 65.860045
623.500000 66.196858
623.500000 66.534514
623.500000 66.873012
623.500000 67.212354
623.500000 67.552540
623.500000 67.893568
623.500000 68.235439
623.500000 68.578153
623.500000 68.921711
623.500000 69.266111
623.500000 69.611355
623.500000 69.957442
623.500000 70.304371
623.500000 70.652144
623.500000 71.000760
623.500000 71.350219
623.500000 71.700521
623.500000 72.051667
623.500000 72.403655
623.500000 72.756486
623.500000 73.110161
623.500000 73.464678
623.500000 73.820039
623.500000 74.176243
623.500000 74.533289
623.500000 74.891179
623.500000 75.249912
623.500000 75.609488
623.500000 75.969907
623.500000 76.331170
623.500000 76.693275
623.500000 77.056223
623.500000 77.420015
623.500000 77.784649
623.500000 78.150127
623.500000 78.516448
623.500000 78.883612
623.500000 79.251619
623.500000 79.620469
623.500000 79.990162
623.500000 80.360698
623.500000 80.732077
623.500000 81.104299
623.500000 81.477365
623.500000 81.851273
623.500000 82.226025
623.500000 82.601620
623.500000 82.978057
623.500000 83.355338
623.500000 83.733462
623.500000 84.112429
623.500000 84.492239
623.500000 84.872893
623.500000 85.254389
623.500000 85.636728
623.500000 86.019911
623.500000 86.403936
623.500000 86.788805
623.500000 87.174517
623.500000 87.561071
623.500000 87.948469
623.500000 88.336710
623.500000 88.725794
623.500000 89.115722
623.500000 89.506492
623.500000 89.898105
623.500000 90.290561
623.500000 90.683861
623.500000 91.078004
623.500000 91.472989
623.500000 91.868818
623.500000 92.265490
623.500000 92.663005
623.500000 93.061363
623.500000 93.460564
623.500000 93.860608
623.500000 94.261495
623.500000 94.663226
623.500000 95.065799
623.500000 95.469216
623.500000 95.873475
623.500000 96.278578
623.500000 96.684524
623.500000 97.091312
623.500000 97.498944
623.500000 97.907419
623.500000 98.316738
623.500000 98.726899
623.500000 99.137903
623.500000 99.549750
623.500000 99.962441
623.500000 100.375974
623.500000 100.790351
623.500000 101.205571
623.500000 101.621634
623.500000 102.038539
623.500000 102.456288
623.500000 102.874881
623.500000 103.294316
623.500000 103.714594
623.500000 104.135715
623.500000 104.557680
623.500000 104.980487
623.500000 105.404138
623.500000 105.828631
623.500000 106.253968
623.500000 106.680148
623.500000 107.107171
623.500000 107.535037
623.500000 107.963746
623.500000 108.393298
623.500000 108.823693
623.500000 109.254932
623.500000 109.687013
623.500000 110.119938
623.500000 110.553705
623.500000 110.988316
623.500000 111.423770
623.500000 111.860067
623.500000 112.297207
623.500000 112.735190
623.500000 113.174016
623.500000 113.613685
623.500000 114.054197
623.500000 114.495553
623.500000 114.937751
623.500000 115.380793
623.500000 115.824677
623.500000 116.269405
623.500000 116.714976
623.500000 117.161390
623.500000 117.608647
623.500000 118.056747
623.500000 118.505690
623.500000 118.955476
623.500000 119.406105
623.500000 119.857578
623.500000 120.309893
623.500000 120.763052
623.500000 121.217053
623.500000 121.671898
623.500000 122.127586
623.500000 122.584117
623.500000 123.041491
623.500000 123.499708
623.500000 123.958768
623.500000 124.418671
623.500000 124.879418
623.500000 125.341007
623.500000 125.803440
623.500000 126.266715
623.500000 126.730834
623.500000 127.195796
623.500000 127.661601
623.500000 128.128249
623.500000 128.595740
623.500000 129.064074
623.500000 129.533251
623.500000 130.003271
623.500000 130.474135
623.500000 130.945841
623.500000 131.418391
623.500000 131.891783
623.500000 132.366019
623.500000 132.841098
623.500000 133.317020
623.500000 133.793785
623.500000 134.271393
623.500000 134.749844
623.500000 135.229138
623.500000 135.709275
623.500000 136.190256
623.500000 136.672079
623.500000 137.154746
623.500000 137.638256
623.500000 138.122608
623.500000 138.607804
623.500000 139.093843
623.500000 139.580725
623.500000 140.068450
623.500000 140.557018
623.500000 141.046430
623.500000 141.536684
623.500000 142.027781
623.500000 142.519722
623.500000 143.012506
623.500000 143.506132
623.500000 144.000602
623.500000 144.495915
623.500000 144.992071
623.500000 145.489070
623.500000 145.986912
623.500000 146.485597
623.500000 146.985125
623.500000 147.485497
623.500000 147.986711
623.500000 148.488769
623.500000 148.991669
623.500000 149.495413
623.500000 150.000000
</POINTS>
</NEKTAR>

