<?xml version="1.0" encoding="utf-8" ?>
<NEKTAR>
<POINTS DIM="2" FIELDS="">
423.500000 -1.250000
423.500000 -1.249578
423.500000 -1.248314
423.500000 -1.246206
423.500000 -1.243255
423.500000 -1.239461
423.500000 -1.234824
423.500000 -1.229344
423.500000 -1.223021
423.500000 -1.215855
423.500000 -1.207846
423.500000 -1.198993
423.500000 -1.189298
423.500000 -1.178759
423.500000 -1.167378
423.500000 -1.155153
423.500000 -1.142085
423.500000 -1.128174
423.500000 -1.113420
423.500000 -1.097823
423.500000 -1.081383
423.500000 -1.064100
423.500000 -1.045973
423.500000 -1.027004
423.500000 -1.007191
423.500000 -0.986536
423.500000 -0.965037
423.500000 -0.942695
423.500000 -0.919510
423.500000 -0.895482
423.500000 -0.870611
423.500000 -0.844897
423.500000 -0.818340
423.500000 -0.790940
423.500000 -0.762696
423.500000 -0.733610
423.500000 -0.703680
423.500000 -0.672908
423.500000 -0.641292
423.500000 -0.608833
423.500000 -0.575531
423.500000 -0.541386
423.500000 -0.506398
423.500000 -0.470567
423.500000 -0.433893
423.500000 -0.396376
423.500000 -0.358015
423.500000 -0.318812
423.500000 -0.278765
423.500000 -0.237876
423.500000 -0.196143
423.500000 -0.153567
423.500000 -0.110148
423.500000 -0.065886
423.500000 -0.020781
423.500000 0.025167
423.500000 0.071958
423.500000 0.119593
423.500000 0.168070
423.500000 0.217391
423.500000 0.267554
423.500000 0.318561
423.500000 0.370411
423.500000 0.423104
423.500000 0.476640
423.500000 0.531019
423.500000 0.586241
423.500000 0.642306
423.500000 0.699214
423.500000 0.756966
423.500000 0.815560
423.500000 0.874998
423.500000 0.935278
423.500000 0.996402
423.500000 1.058369
423.500000 1.121179
423.500000 1.184832
423.500000 1.249328
423.500000 1.314667
423.500000 1.380849
423.500000 1.447874
423.500000 1.515743
423.500000 1.584454
423.500000 1.654009
423.500000 1.724406
423.500000 1.795647
423.500000 1.867731
423.500000 1.940658
423.500000 2.014428
423.500000 2.089041
423.500000 2.164497
423.500000 2.240796
423.500000 2.317939
423.500000 2.395924
423.500000 2.474753
423.500000 2.554424
423.500000 2.634939
423.500000 2.716297
423.500000 2.798498
423.500000 2.881542
423.500000 2.965429
423.500000 3.050159
423.500000 3.135732
423.500000 3.222148
423.500000 3.309408
423.500000 3.397510
423.500000 3.486456
423.500000 3.576244
423.500000 3.666876
423.500000 3.758351
423.500000 3.850669
423.500000 3.943830
423.500000 4.037834
423.500000 4.132681
423.500000 4.228371
423.500000 4.324904
423.500000 4.422281
423.500000 4.520500
423.500000 4.619563
423.500000 4.719468
423.500000 4.820217
423.500000 4.921809
423.500000 5.024244
423.500000 5.127522
423.500000 5.231643
423.500000 5.336607
423.500000 5.442414
423.500000 5.549065
423.500000 5.656558
423.500000 5.764895
423.500000 5.874074
423.500000 5.984097
423.500000 6.094963
423.500000 6.206672
423.500000 6.319224
423.500000 6.432619
423.500000 6.546857
423.500000 6.661938
423.500000 6.777862
423.500000 6.894630
423.500000 7.012240
423.500000 7.130694
423.500000 7.249990
423.500000 7.370130
423.500000 7.491113
423.500000 7.612939
423.500000 7.735608
423.500000 7.859120
423.500000 7.983475
423.500000 8.108673
423.500000 8.234714
423.500000 8.361599
423.500000 8.489326
423.500000 8.617897
423.500000 8.747310
423.500000 8.877567
423.500000 9.008667
423.500000 9.140610
423.500000 9.273396
423.500000 9.407025
423.500000 9.541497
423.500000 9.676812
423.500000 9.812971
423.500000 9.949972
423.500000 10.087817
423.500000 10.226504
423.500000 10.366035
423.500000 10.506409
423.500000 10.647626
423.500000 10.789686
423.500000 10.932589
423.500000 11.076335
423.500000 11.220924
423.500000 11.366356
423.500000 11.512632
423.500000 11.659750
423.500000 11.807712
423.500000 11.956516
423.500000 12.106164
423.500000 12.256655
423.500000 12.407989
423.500000 12.560166
423.500000 12.713186
423.500000 12.867049
423.500000 13.021755
423.500000 13.177304
423.500000 13.333697
423.500000 13.490932
423.500000 13.649011
423.500000 13.807933
423.500000 13.967697
423.500000 14.128305
423.500000 14.289756
423.500000 14.452050
423.500000 14.615187
423.500000 14.779167
423.500000 14.943991
423.500000 15.109657
423.500000 15.276166
423.500000 15.443519
423.500000 15.611714
423.500000 15.780753
423.500000 15.950635
423.500000 16.121360
423.500000 16.292928
423.500000 16.465339
423.500000 16.638593
423.500000 16.812690
423.500000 16.987630
423.500000 17.163414
423.500000 17.340040
423.500000 17.517510
423.500000 17.695822
423.500000 17.874978
423.500000 18.054977
423.500000 18.235819
423.500000 18.417504
423.500000 18.600032
423.500000 18.783403
423.500000 18.967617
423.500000 19.152674
423.500000 19.338575
423.500000 19.525318
423.500000 19.712905
423.500000 19.901335
423.500000 20.090607
423.500000 20.280723
423.500000 20.471682
423.500000 20.663484
423.500000 20.856129
423.500000 21.049617
423.500000 21.243949
423.500000 21.439123
423.500000 21.635140
423.500000 21.832001
423.500000 22.029704
423.500000 22.228251
423.500000 22.427641
423.500000 22.627874
423.500000 22.828950
423.500000 23.030869
423.500000 23.233631
423.500000 23.437236
423.500000 23.641684
423.500000 23.846976
423.500000 24.053110
423.500000 24.260088
423.500000 24.467908
423.500000 24.676572
423.500000 24.886079
423.500000 25.096429
423.500000 25.307622
423.500000 25.519658
423.500000 25.732537
423.500000 25.946259
423.500000 26.160825
423.500000 26.376233
423.500000 26.592484
423.500000 26.809579
423.500000 27.027517
423.500000 27.246297
423.500000 27.465921
423.500000 27.686388
423.500000 27.907698
423.500000 28.129851
423.500000 28.352847
423.500000 28.576687
423.500000 28.801369
423.500000 29.026894
423.500000 29.253263
423.500000 29.480475
423.500000 29.708529
423.500000 29.937427
423.500000 30.167168
423.500000 30.397752
423.500000 30.629179
423.500000 30.861449
423.500000 31.094562
423.500000 31.328518
423.500000 31.563318
423.500000 31.798960
423.500000 32.035446
423.500000 32.272774
423.500000 32.510946
423.500000 32.749961
423.500000 32.989819
423.500000 33.230520
423.500000 33.472064
423.500000 33.714451
423.500000 33.957681
423.500000 34.201755
423.500000 34.446671
423.500000 34.692430
423.500000 34.939033
423.500000 35.186479
423.500000 35.434767
423.500000 35.683899
423.500000 35.933874
423.500000 36.184692
423.500000 36.436353
423.500000 36.688857
423.500000 36.942205
423.500000 37.196395
423.500000 37.451429
423.500000 37.707305
423.500000 37.964025
423.500000 38.221587
423.500000 38.479993
423.500000 38.739242
423.500000 38.999334
423.500000 39.260269
423.500000 39.522047
423.500000 39.784668
423.500000 40.048133
423.500000 40.312440
423.500000 40.577590
423.500000 40.843584
423.500000 41.110421
423.500000 41.378100
423.500000 41.646623
423.500000 41.915989
423.500000 42.186198
423.500000 42.457250
423.500000 42.729145
423.500000 43.001883
423.500000 43.275465
423.500000 43.549889
423.500000 43.825157
423.500000 44.101267
423.500000 44.378221
423.500000 44.656018
423.500000 44.934657
423.500000 45.214140
423.500000 45.494466
423.500000 45.775635
423.500000 46.057648
423.500000 46.340503
423.500000 46.624201
423.500000 46.908743
423.500000 47.194127
423.500000 47.480355
423.500000 47.767425
423.500000 48.055339
423.500000 48.344096
423.500000 48.633696
423.500000 48.924139
423.500000 49.215425
423.500000 49.507554
423.500000 49.800527
423.500000 50.094342
423.500000 50.389000
423.500000 50.684502
423.500000 50.980847
423.500000 51.278034
423.500000 51.576065
423.500000 51.874939
423.500000 52.174656
423.500000 52.475216
423.500000 52.776619
423.500000 53.078865
423.500000 53.381955
423.500000 53.685887
423.500000 53.990663
423.500000 54.296281
423.500000 54.602743
423.500000 54.910048
423.500000 55.218195
423.500000 55.527186
423.500000 55.837020
423.500000 56.147697
423.500000 56.459218
423.500000 56.771581
423.500000 57.084787
423.500000 57.398837
423.500000 57.713729
423.500000 58.029465
423.500000 58.346043
423.500000 58.663465
423.500000 58.981730
423.500000 59.300838
423.500000 59.620789
423.500000 59.941583
423.500000 60.263220
423.500000 60.585701
423.500000 60.909024
423.500000 61.233191
423.500000 61.558200
423.500000 61.884053
423.500000 62.210748
423.500000 62.538287
423.500000 62.866669
423.500000 63.195894
423.500000 63.525962
423.500000 63.856873
423.500000 64.188628
423.500000 64.521225
423.500000 64.854665
423.500000 65.188949
423.500000 65.524075
423.500000 65.860045
423.500000 66.196858
423.500000 66.534514
423.500000 66.873012
423.500000 67.212354
423.500000 67.552540
423.500000 67.893568
423.500000 68.235439
423.500000 68.578153
423.500000 68.921711
423.500000 69.266111
423.500000 69.611355
423.500000 69.957442
423.500000 70.304371
423.500000 70.652144
423.500000 71.000760
423.500000 71.350219
423.500000 71.700521
423.500000 72.051667
423.500000 72.403655
423.500000 72.756486
423.500000 73.110161
423.500000 73.464678
423.500000 73.820039
423.500000 74.176243
423.500000 74.533289
423.500000 74.891179
423.500000 75.249912
423.500000 75.609488
423.500000 75.969907
423.500000 76.331170
423.500000 76.693275
423.500000 77.056223
423.500000 77.420015
423.500000 77.784649
423.500000 78.150127
423.500000 78.516448
423.500000 78.883612
423.500000 79.251619
423.500000 79.620469
423.500000 79.990162
423.500000 80.360698
423.500000 80.732077
423.500000 81.104299
423.500000 81.477365
423.500000 81.851273
423.500000 82.226025
423.500000 82.601620
423.500000 82.978057
423.500000 83.355338
423.500000 83.733462
423.500000 84.112429
423.500000 84.492239
423.500000 84.872893
423.500000 85.254389
423.500000 85.636728
423.500000 86.019911
423.500000 86.403936
423.500000 86.788805
423.500000 87.174517
423.500000 87.561071
423.500000 87.948469
423.500000 88.336710
423.500000 88.725794
423.500000 89.115722
423.500000 89.506492
423.500000 89.898105
423.500000 90.290561
423.500000 90.683861
423.500000 91.078004
423.500000 91.472989
423.500000 91.868818
423.500000 92.265490
423.500000 92.663005
423.500000 93.061363
423.500000 93.460564
423.500000 93.860608
423.500000 94.261495
423.500000 94.663226
423.500000 95.065799
423.500000 95.469216
423.500000 95.873475
423.500000 96.278578
423.500000 96.684524
423.500000 97.091312
423.500000 97.498944
423.500000 97.907419
423.500000 98.316738
423.500000 98.726899
423.500000 99.137903
423.500000 99.549750
423.500000 99.962441
423.500000 100.375974
423.500000 100.790351
423.500000 101.205571
423.500000 101.621634
423.500000 102.038539
423.500000 102.456288
423.500000 102.874881
423.500000 103.294316
423.500000 103.714594
423.500000 104.135715
423.500000 104.557680
423.500000 104.980487
423.500000 105.404138
423.500000 105.828631
423.500000 106.253968
423.500000 106.680148
423.500000 107.107171
423.500000 107.535037
423.500000 107.963746
423.500000 108.393298
423.500000 108.823693
423.500000 109.254932
423.500000 109.687013
423.500000 110.119938
423.500000 110.553705
423.500000 110.988316
423.500000 111.423770
423.500000 111.860067
423.500000 112.297207
423.500000 112.735190
423.500000 113.174016
423.500000 113.613685
423.500000 114.054197
423.500000 114.495553
423.500000 114.937751
423.500000 115.380793
423.500000 115.824677
423.500000 116.269405
423.500000 116.714976
423.500000 117.161390
423.500000 117.608647
423.500000 118.056747
423.500000 118.505690
423.500000 118.955476
423.500000 119.406105
423.500000 119.857578
423.500000 120.309893
423.500000 120.763052
423.500000 121.217053
423.500000 121.671898
423.500000 122.127586
423.500000 122.584117
423.500000 123.041491
423.500000 123.499708
423.500000 123.958768
423.500000 124.418671
423.500000 124.879418
423.500000 125.341007
423.500000 125.803440
423.500000 126.266715
423.500000 126.730834
423.500000 127.195796
423.500000 127.661601
423.500000 128.128249
423.500000 128.595740
423.500000 129.064074
423.500000 129.533251
423.500000 130.003271
423.500000 130.474135
423.500000 130.945841
423.500000 131.418391
423.500000 131.891783
423.500000 132.366019
423.500000 132.841098
423.500000 133.317020
423.500000 133.793785
423.500000 134.271393
423.500000 134.749844
423.500000 135.229138
423.500000 135.709275
423.500000 136.190256
423.500000 136.672079
423.500000 137.154746
423.500000 137.638256
423.500000 138.122608
423.500000 138.607804
423.500000 139.093843
423.500000 139.580725
423.500000 140.068450
423.500000 140.557018
423.500000 141.046430
423.500000 141.536684
423.500000 142.027781
423.500000 142.519722
423.500000 143.012506
423.500000 143.506132
423.500000 144.000602
423.500000 144.495915
423.500000 144.992071
423.500000 145.489070
423.500000 145.986912
423.500000 146.485597
423.500000 146.985125
423.500000 147.485497
423.500000 147.986711
423.500000 148.488769
423.500000 148.991669
423.500000 149.495413
423.500000 150.000000
</POINTS>
</NEKTAR>

