<?xml version="1.0" encoding="utf-8" ?>
<NEKTAR>
<POINTS DIM="2" FIELDS="">
503.500000 -1.250000
503.500000 -1.249578
503.500000 -1.248314
503.500000 -1.246206
503.500000 -1.243255
503.500000 -1.239461
503.500000 -1.234824
503.500000 -1.229344
503.500000 -1.223021
503.500000 -1.215855
503.500000 -1.207846
503.500000 -1.198993
503.500000 -1.189298
503.500000 -1.178759
503.500000 -1.167378
503.500000 -1.155153
503.500000 -1.142085
503.500000 -1.128174
503.500000 -1.113420
503.500000 -1.097823
503.500000 -1.081383
503.500000 -1.064100
503.500000 -1.045973
503.500000 -1.027004
503.500000 -1.007191
503.500000 -0.986536
503.500000 -0.965037
503.500000 -0.942695
503.500000 -0.919510
503.500000 -0.895482
503.500000 -0.870611
503.500000 -0.844897
503.500000 -0.818340
503.500000 -0.790940
503.500000 -0.762696
503.500000 -0.733610
503.500000 -0.703680
503.500000 -0.672908
503.500000 -0.641292
503.500000 -0.608833
503.500000 -0.575531
503.500000 -0.541386
503.500000 -0.506398
503.500000 -0.470567
503.500000 -0.433893
503.500000 -0.396376
503.500000 -0.358015
503.500000 -0.318812
503.500000 -0.278765
503.500000 -0.237876
503.500000 -0.196143
503.500000 -0.153567
503.500000 -0.110148
503.500000 -0.065886
503.500000 -0.020781
503.500000 0.025167
503.500000 0.071958
503.500000 0.119593
503.500000 0.168070
503.500000 0.217391
503.500000 0.267554
503.500000 0.318561
503.500000 0.370411
503.500000 0.423104
503.500000 0.476640
503.500000 0.531019
503.500000 0.586241
503.500000 0.642306
503.500000 0.699214
503.500000 0.756966
503.500000 0.815560
503.500000 0.874998
503.500000 0.935278
503.500000 0.996402
503.500000 1.058369
503.500000 1.121179
503.500000 1.184832
503.500000 1.249328
503.500000 1.314667
503.500000 1.380849
503.500000 1.447874
503.500000 1.515743
503.500000 1.584454
503.500000 1.654009
503.500000 1.724406
503.500000 1.795647
503.500000 1.867731
503.500000 1.940658
503.500000 2.014428
503.500000 2.089041
503.500000 2.164497
503.500000 2.240796
503.500000 2.317939
503.500000 2.395924
503.500000 2.474753
503.500000 2.554424
503.500000 2.634939
503.500000 2.716297
503.500000 2.798498
503.500000 2.881542
503.500000 2.965429
503.500000 3.050159
503.500000 3.135732
503.500000 3.222148
503.500000 3.309408
503.500000 3.397510
503.500000 3.486456
503.500000 3.576244
503.500000 3.666876
503.500000 3.758351
503.500000 3.850669
503.500000 3.943830
503.500000 4.037834
503.500000 4.132681
503.500000 4.228371
503.500000 4.324904
503.500000 4.422281
503.500000 4.520500
503.500000 4.619563
503.500000 4.719468
503.500000 4.820217
503.500000 4.921809
503.500000 5.024244
503.500000 5.127522
503.500000 5.231643
503.500000 5.336607
503.500000 5.442414
503.500000 5.549065
503.500000 5.656558
503.500000 5.764895
503.500000 5.874074
503.500000 5.984097
503.500000 6.094963
503.500000 6.206672
503.500000 6.319224
503.500000 6.432619
503.500000 6.546857
503.500000 6.661938
503.500000 6.777862
503.500000 6.894630
503.500000 7.012240
503.500000 7.130694
503.500000 7.249990
503.500000 7.370130
503.500000 7.491113
503.500000 7.612939
503.500000 7.735608
503.500000 7.859120
503.500000 7.983475
503.500000 8.108673
503.500000 8.234714
503.500000 8.361599
503.500000 8.489326
503.500000 8.617897
503.500000 8.747310
503.500000 8.877567
503.500000 9.008667
503.500000 9.140610
503.500000 9.273396
503.500000 9.407025
503.500000 9.541497
503.500000 9.676812
503.500000 9.812971
503.500000 9.949972
503.500000 10.087817
503.500000 10.226504
503.500000 10.366035
503.500000 10.506409
503.500000 10.647626
503.500000 10.789686
503.500000 10.932589
503.500000 11.076335
503.500000 11.220924
503.500000 11.366356
503.500000 11.512632
503.500000 11.659750
503.500000 11.807712
503.500000 11.956516
503.500000 12.106164
503.500000 12.256655
503.500000 12.407989
503.500000 12.560166
503.500000 12.713186
503.500000 12.867049
503.500000 13.021755
503.500000 13.177304
503.500000 13.333697
503.500000 13.490932
503.500000 13.649011
503.500000 13.807933
503.500000 13.967697
503.500000 14.128305
503.500000 14.289756
503.500000 14.452050
503.500000 14.615187
503.500000 14.779167
503.500000 14.943991
503.500000 15.109657
503.500000 15.276166
503.500000 15.443519
503.500000 15.611714
503.500000 15.780753
503.500000 15.950635
503.500000 16.121360
503.500000 16.292928
503.500000 16.465339
503.500000 16.638593
503.500000 16.812690
503.500000 16.987630
503.500000 17.163414
503.500000 17.340040
503.500000 17.517510
503.500000 17.695822
503.500000 17.874978
503.500000 18.054977
503.500000 18.235819
503.500000 18.417504
503.500000 18.600032
503.500000 18.783403
503.500000 18.967617
503.500000 19.152674
503.500000 19.338575
503.500000 19.525318
503.500000 19.712905
503.500000 19.901335
503.500000 20.090607
503.500000 20.280723
503.500000 20.471682
503.500000 20.663484
503.500000 20.856129
503.500000 21.049617
503.500000 21.243949
503.500000 21.439123
503.500000 21.635140
503.500000 21.832001
503.500000 22.029704
503.500000 22.228251
503.500000 22.427641
503.500000 22.627874
503.500000 22.828950
503.500000 23.030869
503.500000 23.233631
503.500000 23.437236
503.500000 23.641684
503.500000 23.846976
503.500000 24.053110
503.500000 24.260088
503.500000 24.467908
503.500000 24.676572
503.500000 24.886079
503.500000 25.096429
503.500000 25.307622
503.500000 25.519658
503.500000 25.732537
503.500000 25.946259
503.500000 26.160825
503.500000 26.376233
503.500000 26.592484
503.500000 26.809579
503.500000 27.027517
503.500000 27.246297
503.500000 27.465921
503.500000 27.686388
503.500000 27.907698
503.500000 28.129851
503.500000 28.352847
503.500000 28.576687
503.500000 28.801369
503.500000 29.026894
503.500000 29.253263
503.500000 29.480475
503.500000 29.708529
503.500000 29.937427
503.500000 30.167168
503.500000 30.397752
503.500000 30.629179
503.500000 30.861449
503.500000 31.094562
503.500000 31.328518
503.500000 31.563318
503.500000 31.798960
503.500000 32.035446
503.500000 32.272774
503.500000 32.510946
503.500000 32.749961
503.500000 32.989819
503.500000 33.230520
503.500000 33.472064
503.500000 33.714451
503.500000 33.957681
503.500000 34.201755
503.500000 34.446671
503.500000 34.692430
503.500000 34.939033
503.500000 35.186479
503.500000 35.434767
503.500000 35.683899
503.500000 35.933874
503.500000 36.184692
503.500000 36.436353
503.500000 36.688857
503.500000 36.942205
503.500000 37.196395
503.500000 37.451429
503.500000 37.707305
503.500000 37.964025
503.500000 38.221587
503.500000 38.479993
503.500000 38.739242
503.500000 38.999334
503.500000 39.260269
503.500000 39.522047
503.500000 39.784668
503.500000 40.048133
503.500000 40.312440
503.500000 40.577590
503.500000 40.843584
503.500000 41.110421
503.500000 41.378100
503.500000 41.646623
503.500000 41.915989
503.500000 42.186198
503.500000 42.457250
503.500000 42.729145
503.500000 43.001883
503.500000 43.275465
503.500000 43.549889
503.500000 43.825157
503.500000 44.101267
503.500000 44.378221
503.500000 44.656018
503.500000 44.934657
503.500000 45.214140
503.500000 45.494466
503.500000 45.775635
503.500000 46.057648
503.500000 46.340503
503.500000 46.624201
503.500000 46.908743
503.500000 47.194127
503.500000 47.480355
503.500000 47.767425
503.500000 48.055339
503.500000 48.344096
503.500000 48.633696
503.500000 48.924139
503.500000 49.215425
503.500000 49.507554
503.500000 49.800527
503.500000 50.094342
503.500000 50.389000
503.500000 50.684502
503.500000 50.980847
503.500000 51.278034
503.500000 51.576065
503.500000 51.874939
503.500000 52.174656
503.500000 52.475216
503.500000 52.776619
503.500000 53.078865
503.500000 53.381955
503.500000 53.685887
503.500000 53.990663
503.500000 54.296281
503.500000 54.602743
503.500000 54.910048
503.500000 55.218195
503.500000 55.527186
503.500000 55.837020
503.500000 56.147697
503.500000 56.459218
503.500000 56.771581
503.500000 57.084787
503.500000 57.398837
503.500000 57.713729
503.500000 58.029465
503.500000 58.346043
503.500000 58.663465
503.500000 58.981730
503.500000 59.300838
503.500000 59.620789
503.500000 59.941583
503.500000 60.263220
503.500000 60.585701
503.500000 60.909024
503.500000 61.233191
503.500000 61.558200
503.500000 61.884053
503.500000 62.210748
503.500000 62.538287
503.500000 62.866669
503.500000 63.195894
503.500000 63.525962
503.500000 63.856873
503.500000 64.188628
503.500000 64.521225
503.500000 64.854665
503.500000 65.188949
503.500000 65.524075
503.500000 65.860045
503.500000 66.196858
503.500000 66.534514
503.500000 66.873012
503.500000 67.212354
503.500000 67.552540
503.500000 67.893568
503.500000 68.235439
503.500000 68.578153
503.500000 68.921711
503.500000 69.266111
503.500000 69.611355
503.500000 69.957442
503.500000 70.304371
503.500000 70.652144
503.500000 71.000760
503.500000 71.350219
503.500000 71.700521
503.500000 72.051667
503.500000 72.403655
503.500000 72.756486
503.500000 73.110161
503.500000 73.464678
503.500000 73.820039
503.500000 74.176243
503.500000 74.533289
503.500000 74.891179
503.500000 75.249912
503.500000 75.609488
503.500000 75.969907
503.500000 76.331170
503.500000 76.693275
503.500000 77.056223
503.500000 77.420015
503.500000 77.784649
503.500000 78.150127
503.500000 78.516448
503.500000 78.883612
503.500000 79.251619
503.500000 79.620469
503.500000 79.990162
503.500000 80.360698
503.500000 80.732077
503.500000 81.104299
503.500000 81.477365
503.500000 81.851273
503.500000 82.226025
503.500000 82.601620
503.500000 82.978057
503.500000 83.355338
503.500000 83.733462
503.500000 84.112429
503.500000 84.492239
503.500000 84.872893
503.500000 85.254389
503.500000 85.636728
503.500000 86.019911
503.500000 86.403936
503.500000 86.788805
503.500000 87.174517
503.500000 87.561071
503.500000 87.948469
503.500000 88.336710
503.500000 88.725794
503.500000 89.115722
503.500000 89.506492
503.500000 89.898105
503.500000 90.290561
503.500000 90.683861
503.500000 91.078004
503.500000 91.472989
503.500000 91.868818
503.500000 92.265490
503.500000 92.663005
503.500000 93.061363
503.500000 93.460564
503.500000 93.860608
503.500000 94.261495
503.500000 94.663226
503.500000 95.065799
503.500000 95.469216
503.500000 95.873475
503.500000 96.278578
503.500000 96.684524
503.500000 97.091312
503.500000 97.498944
503.500000 97.907419
503.500000 98.316738
503.500000 98.726899
503.500000 99.137903
503.500000 99.549750
503.500000 99.962441
503.500000 100.375974
503.500000 100.790351
503.500000 101.205571
503.500000 101.621634
503.500000 102.038539
503.500000 102.456288
503.500000 102.874881
503.500000 103.294316
503.500000 103.714594
503.500000 104.135715
503.500000 104.557680
503.500000 104.980487
503.500000 105.404138
503.500000 105.828631
503.500000 106.253968
503.500000 106.680148
503.500000 107.107171
503.500000 107.535037
503.500000 107.963746
503.500000 108.393298
503.500000 108.823693
503.500000 109.254932
503.500000 109.687013
503.500000 110.119938
503.500000 110.553705
503.500000 110.988316
503.500000 111.423770
503.500000 111.860067
503.500000 112.297207
503.500000 112.735190
503.500000 113.174016
503.500000 113.613685
503.500000 114.054197
503.500000 114.495553
503.500000 114.937751
503.500000 115.380793
503.500000 115.824677
503.500000 116.269405
503.500000 116.714976
503.500000 117.161390
503.500000 117.608647
503.500000 118.056747
503.500000 118.505690
503.500000 118.955476
503.500000 119.406105
503.500000 119.857578
503.500000 120.309893
503.500000 120.763052
503.500000 121.217053
503.500000 121.671898
503.500000 122.127586
503.500000 122.584117
503.500000 123.041491
503.500000 123.499708
503.500000 123.958768
503.500000 124.418671
503.500000 124.879418
503.500000 125.341007
503.500000 125.803440
503.500000 126.266715
503.500000 126.730834
503.500000 127.195796
503.500000 127.661601
503.500000 128.128249
503.500000 128.595740
503.500000 129.064074
503.500000 129.533251
503.500000 130.003271
503.500000 130.474135
503.500000 130.945841
503.500000 131.418391
503.500000 131.891783
503.500000 132.366019
503.500000 132.841098
503.500000 133.317020
503.500000 133.793785
503.500000 134.271393
503.500000 134.749844
503.500000 135.229138
503.500000 135.709275
503.500000 136.190256
503.500000 136.672079
503.500000 137.154746
503.500000 137.638256
503.500000 138.122608
503.500000 138.607804
503.500000 139.093843
503.500000 139.580725
503.500000 140.068450
503.500000 140.557018
503.500000 141.046430
503.500000 141.536684
503.500000 142.027781
503.500000 142.519722
503.500000 143.012506
503.500000 143.506132
503.500000 144.000602
503.500000 144.495915
503.500000 144.992071
503.500000 145.489070
503.500000 145.986912
503.500000 146.485597
503.500000 146.985125
503.500000 147.485497
503.500000 147.986711
503.500000 148.488769
503.500000 148.991669
503.500000 149.495413
503.500000 150.000000
</POINTS>
</NEKTAR>

