<?xml version="1.0" encoding="utf-8" ?>
<NEKTAR>
<POINTS DIM="2" FIELDS="">
70.500000 -0.750000
70.500000 -0.749580
70.500000 -0.748319
70.500000 -0.746219
70.500000 -0.743278
70.500000 -0.739496
70.500000 -0.734875
70.500000 -0.729413
70.500000 -0.723110
70.500000 -0.715968
70.500000 -0.707985
70.500000 -0.699162
70.500000 -0.689498
70.500000 -0.678995
70.500000 -0.667651
70.500000 -0.655466
70.500000 -0.642442
70.500000 -0.628577
70.500000 -0.613872
70.500000 -0.598326
70.500000 -0.581940
70.500000 -0.564714
70.500000 -0.546648
70.500000 -0.527741
70.500000 -0.507994
70.500000 -0.487407
70.500000 -0.465979
70.500000 -0.443711
70.500000 -0.420603
70.500000 -0.396654
70.500000 -0.371866
70.500000 -0.346236
70.500000 -0.319767
70.500000 -0.292457
70.500000 -0.264307
70.500000 -0.235317
70.500000 -0.205486
70.500000 -0.174816
70.500000 -0.143304
70.500000 -0.110953
70.500000 -0.077761
70.500000 -0.043729
70.500000 -0.008857
70.500000 0.026856
70.500000 0.063409
70.500000 0.100802
70.500000 0.139036
70.500000 0.178110
70.500000 0.218024
70.500000 0.258779
70.500000 0.300373
70.500000 0.342808
70.500000 0.386084
70.500000 0.430199
70.500000 0.475155
70.500000 0.520952
70.500000 0.567588
70.500000 0.615065
70.500000 0.663382
70.500000 0.712540
70.500000 0.762538
70.500000 0.813376
70.500000 0.865054
70.500000 0.917573
70.500000 0.970932
70.500000 1.025131
70.500000 1.080170
70.500000 1.136050
70.500000 1.192771
70.500000 1.250331
70.500000 1.308732
70.500000 1.367973
70.500000 1.428054
70.500000 1.488976
70.500000 1.550738
70.500000 1.613340
70.500000 1.676783
70.500000 1.741065
70.500000 1.806189
70.500000 1.872152
70.500000 1.938956
70.500000 2.006600
70.500000 2.075084
70.500000 2.144409
70.500000 2.214574
70.500000 2.285579
70.500000 2.357424
70.500000 2.430110
70.500000 2.503636
70.500000 2.578003
70.500000 2.653210
70.500000 2.729257
70.500000 2.806144
70.500000 2.883872
70.500000 2.962439
70.500000 3.041848
70.500000 3.122096
70.500000 3.203185
70.500000 3.285114
70.500000 3.367884
70.500000 3.451493
70.500000 3.535943
70.500000 3.621234
70.500000 3.707364
70.500000 3.794335
70.500000 3.882146
70.500000 3.970798
70.500000 4.060290
70.500000 4.150622
70.500000 4.241794
70.500000 4.333807
70.500000 4.426660
70.500000 4.520353
70.500000 4.614887
70.500000 4.710261
70.500000 4.806475
70.500000 4.903529
70.500000 5.001424
70.500000 5.100159
70.500000 5.199735
70.500000 5.300150
70.500000 5.401406
70.500000 5.503503
70.500000 5.606439
70.500000 5.710216
70.500000 5.814833
70.500000 5.920291
70.500000 6.026589
70.500000 6.133727
70.500000 6.241705
70.500000 6.350524
70.500000 6.460183
70.500000 6.570682
70.500000 6.682022
70.500000 6.794201
70.500000 6.907222
70.500000 7.021082
70.500000 7.135783
70.500000 7.251324
70.500000 7.367705
70.500000 7.484927
70.500000 7.602989
70.500000 7.721891
70.500000 7.841634
70.500000 7.962217
70.500000 8.083640
70.500000 8.205903
70.500000 8.329007
70.500000 8.452951
70.500000 8.577735
70.500000 8.703360
70.500000 8.829825
70.500000 8.957130
70.500000 9.085276
70.500000 9.214262
70.500000 9.344088
70.500000 9.474754
70.500000 9.606261
70.500000 9.738608
70.500000 9.871795
70.500000 10.005823
70.500000 10.140691
70.500000 10.276399
70.500000 10.412948
70.500000 10.550336
70.500000 10.688566
70.500000 10.827635
70.500000 10.967545
70.500000 11.108295
70.500000 11.249885
70.500000 11.392316
70.500000 11.535587
70.500000 11.679698
70.500000 11.824649
70.500000 11.970441
70.500000 12.117073
70.500000 12.264546
70.500000 12.412858
70.500000 12.562011
70.500000 12.712005
70.500000 12.862838
70.500000 13.014512
70.500000 13.167026
70.500000 13.320381
70.500000 13.474576
70.500000 13.629611
70.500000 13.785486
70.500000 13.942202
70.500000 14.099758
70.500000 14.258154
70.500000 14.417391
70.500000 14.577468
70.500000 14.738385
70.500000 14.900142
70.500000 15.062740
70.500000 15.226178
70.500000 15.390457
70.500000 15.555575
70.500000 15.721534
70.500000 15.888334
70.500000 16.055973
70.500000 16.224453
70.500000 16.393773
70.500000 16.563934
70.500000 16.734935
70.500000 16.906776
70.500000 17.079457
70.500000 17.252979
70.500000 17.427341
70.500000 17.602543
70.500000 17.778585
70.500000 17.955468
70.500000 18.133192
70.500000 18.311755
70.500000 18.491159
70.500000 18.671403
70.500000 18.852487
70.500000 19.034412
70.500000 19.217177
70.500000 19.400782
70.500000 19.585228
70.500000 19.770513
70.500000 19.956640
70.500000 20.143606
70.500000 20.331413
70.500000 20.520060
70.500000 20.709547
70.500000 20.899875
70.500000 21.091043
70.500000 21.283051
70.500000 21.475900
70.500000 21.669588
70.500000 21.864118
70.500000 22.059487
70.500000 22.255697
70.500000 22.452747
70.500000 22.650637
70.500000 22.849368
70.500000 23.048939
70.500000 23.249350
70.500000 23.450601
70.500000 23.652693
70.500000 23.855625
70.500000 24.059398
70.500000 24.264011
70.500000 24.469464
70.500000 24.675757
70.500000 24.882891
70.500000 25.090864
70.500000 25.299679
70.500000 25.509333
70.500000 25.719828
70.500000 25.931163
70.500000 26.143339
70.500000 26.356354
70.500000 26.570210
70.500000 26.784907
70.500000 27.000443
70.500000 27.216820
70.500000 27.434037
70.500000 27.652095
70.500000 27.870993
70.500000 28.090731
70.500000 28.311309
70.500000 28.532728
70.500000 28.754987
70.500000 28.978086
70.500000 29.202026
70.500000 29.426806
70.500000 29.652426
70.500000 29.878886
70.500000 30.106187
70.500000 30.334328
70.500000 30.563309
70.500000 30.793131
70.500000 31.023793
70.500000 31.255295
70.500000 31.487638
70.500000 31.720821
70.500000 31.954844
70.500000 32.189708
70.500000 32.425411
70.500000 32.661955
70.500000 32.899340
70.500000 33.137564
70.500000 33.376629
70.500000 33.616535
70.500000 33.857280
70.500000 34.098866
70.500000 34.341292
70.500000 34.584559
70.500000 34.828665
70.500000 35.073613
70.500000 35.319400
70.500000 35.566028
70.500000 35.813496
70.500000 36.061804
70.500000 36.310952
70.500000 36.560941
70.500000 36.811770
70.500000 37.063440
70.500000 37.315950
70.500000 37.569300
70.500000 37.823490
70.500000 38.078521
70.500000 38.334391
70.500000 38.591103
70.500000 38.848654
70.500000 39.107046
70.500000 39.366278
70.500000 39.626351
70.500000 39.887263
70.500000 40.149016
70.500000 40.411610
70.500000 40.675043
70.500000 40.939317
70.500000 41.204432
70.500000 41.470386
70.500000 41.737181
70.500000 42.004816
70.500000 42.273291
70.500000 42.542607
70.500000 42.812763
70.500000 43.083760
70.500000 43.355596
70.500000 43.628273
70.500000 43.901790
70.500000 44.176148
70.500000 44.451346
70.500000 44.727384
70.500000 45.004262
70.500000 45.281981
70.500000 45.560540
70.500000 45.839939
70.500000 46.120179
70.500000 46.401259
70.500000 46.683179
70.500000 46.965939
70.500000 47.249540
70.500000 47.533981
70.500000 47.819263
70.500000 48.105384
70.500000 48.392346
70.500000 48.680149
70.500000 48.968791
70.500000 49.258274
70.500000 49.548597
70.500000 49.839761
70.500000 50.131765
70.500000 50.424609
70.500000 50.718293
70.500000 51.012818
70.500000 51.308183
70.500000 51.604388
70.500000 51.901434
70.500000 52.199319
70.500000 52.498046
70.500000 52.797612
70.500000 53.098019
70.500000 53.399266
70.500000 53.701353
70.500000 54.004281
70.500000 54.308049
70.500000 54.612657
70.500000 54.918106
70.500000 55.224395
70.500000 55.531524
70.500000 55.839493
70.500000 56.148303
70.500000 56.457953
70.500000 56.768443
70.500000 57.079774
70.500000 57.391945
70.500000 57.704956
70.500000 58.018808
70.500000 58.333500
70.500000 58.649032
70.500000 58.965404
70.500000 59.282617
70.500000 59.600670
70.500000 59.919563
70.500000 60.239297
70.500000 60.559871
70.500000 60.881285
70.500000 61.203540
70.500000 61.526635
70.500000 61.850570
70.500000 62.175345
70.500000 62.500961
70.500000 62.827417
70.500000 63.154713
70.500000 63.482850
70.500000 63.811827
70.500000 64.141644
70.500000 64.472301
70.500000 64.803799
70.500000 65.136137
70.500000 65.469316
70.500000 65.803335
70.500000 66.138194
70.500000 66.473893
70.500000 66.810433
70.500000 67.147812
70.500000 67.486033
70.500000 67.825093
70.500000 68.164994
70.500000 68.505735
70.500000 68.847316
70.500000 69.189738
70.500000 69.533000
70.500000 69.877102
70.500000 70.222045
70.500000 70.567828
70.500000 70.914451
70.500000 71.261915
70.500000 71.610218
70.500000 71.959363
70.500000 72.309347
70.500000 72.660172
70.500000 73.011837
70.500000 73.364342
70.500000 73.717688
70.500000 74.071873
70.500000 74.426900
70.500000 74.782766
70.500000 75.139473
70.500000 75.497020
70.500000 75.855407
70.500000 76.214635
70.500000 76.574703
70.500000 76.935611
70.500000 77.297360
70.500000 77.659949
70.500000 78.023378
70.500000 78.387647
70.500000 78.752757
70.500000 79.118707
70.500000 79.485498
70.500000 79.853128
70.500000 80.221599
70.500000 80.590910
70.500000 80.961062
70.500000 81.332054
70.500000 81.703886
70.500000 82.076558
70.500000 82.450071
70.500000 82.824424
70.500000 83.199618
70.500000 83.575651
70.500000 83.952525
70.500000 84.330239
70.500000 84.708794
70.500000 85.088189
70.500000 85.468424
70.500000 85.849499
70.500000 86.231415
70.500000 86.614171
70.500000 86.997768
70.500000 87.382204
70.500000 87.767481
70.500000 88.153598
70.500000 88.540556
70.500000 88.928354
70.500000 89.316992
70.500000 89.706470
70.500000 90.096789
70.500000 90.487948
70.500000 90.879947
70.500000 91.272787
70.500000 91.666467
70.500000 92.060987
70.500000 92.456348
70.500000 92.852548
70.500000 93.249590
70.500000 93.647471
70.500000 94.046193
70.500000 94.445755
70.500000 94.846157
70.500000 95.247400
70.500000 95.649483
70.500000 96.052406
70.500000 96.456169
70.500000 96.860773
70.500000 97.266217
70.500000 97.672502
70.500000 98.079626
70.500000 98.487591
70.500000 98.896397
70.500000 99.306042
70.500000 99.716528
70.500000 100.127854
70.500000 100.540021
70.500000 100.953028
70.500000 101.366875
70.500000 101.781562
70.500000 102.197090
70.500000 102.613458
70.500000 103.030666
70.500000 103.448715
70.500000 103.867603
70.500000 104.287333
70.500000 104.707902
70.500000 105.129312
70.500000 105.551562
70.500000 105.974652
70.500000 106.398583
70.500000 106.823354
70.500000 107.248965
70.500000 107.675417
70.500000 108.102709
70.500000 108.530841
70.500000 108.959813
70.500000 109.389626
70.500000 109.820279
70.500000 110.251773
70.500000 110.684106
70.500000 111.117280
70.500000 111.551294
70.500000 111.986149
70.500000 112.421844
70.500000 112.858379
70.500000 113.295754
70.500000 113.733970
70.500000 114.173026
70.500000 114.612923
70.500000 115.053659
70.500000 115.495236
70.500000 115.937653
70.500000 116.380911
70.500000 116.825009
70.500000 117.269947
70.500000 117.715725
70.500000 118.162344
70.500000 118.609803
70.500000 119.058103
70.500000 119.507242
70.500000 119.957222
70.500000 120.408042
70.500000 120.859703
70.500000 121.312204
70.500000 121.765545
70.500000 122.219726
70.500000 122.674748
70.500000 123.130610
70.500000 123.587312
70.500000 124.044855
70.500000 124.503238
70.500000 124.962461
70.500000 125.422525
70.500000 125.883428
70.500000 126.345173
70.500000 126.807757
70.500000 127.271182
70.500000 127.735447
70.500000 128.200552
70.500000 128.666498
70.500000 129.133283
70.500000 129.600910
70.500000 130.069376
70.500000 130.538683
70.500000 131.008830
70.500000 131.479818
70.500000 131.951645
70.500000 132.424313
70.500000 132.897821
70.500000 133.372170
70.500000 133.847359
70.500000 134.323388
70.500000 134.800258
70.500000 135.277967
70.500000 135.756518
70.500000 136.235908
70.500000 136.716139
70.500000 137.197210
70.500000 137.679121
70.500000 138.161872
70.500000 138.645464
70.500000 139.129897
70.500000 139.615169
70.500000 140.101282
70.500000 140.588235
70.500000 141.076028
70.500000 141.564662
70.500000 142.054136
70.500000 142.544450
70.500000 143.035605
70.500000 143.527600
70.500000 144.020435
70.500000 144.514110
70.500000 145.008626
70.500000 145.503982
70.500000 146.000178
70.500000 146.497215
70.500000 146.995092
70.500000 147.493809
70.500000 147.993367
70.500000 148.493765
70.500000 148.995003
70.500000 149.497081
70.500000 150.000000
</POINTS>
</NEKTAR>

