<?xml version="1.0" encoding="utf-8" ?>
<NEKTAR>
<POINTS DIM="2" FIELDS="">
40.500000 -0.750000
40.500000 -0.749580
40.500000 -0.748319
40.500000 -0.746219
40.500000 -0.743278
40.500000 -0.739496
40.500000 -0.734875
40.500000 -0.729413
40.500000 -0.723110
40.500000 -0.715968
40.500000 -0.707985
40.500000 -0.699162
40.500000 -0.689498
40.500000 -0.678995
40.500000 -0.667651
40.500000 -0.655466
40.500000 -0.642442
40.500000 -0.628577
40.500000 -0.613872
40.500000 -0.598326
40.500000 -0.581940
40.500000 -0.564714
40.500000 -0.546648
40.500000 -0.527741
40.500000 -0.507994
40.500000 -0.487407
40.500000 -0.465979
40.500000 -0.443711
40.500000 -0.420603
40.500000 -0.396654
40.500000 -0.371866
40.500000 -0.346236
40.500000 -0.319767
40.500000 -0.292457
40.500000 -0.264307
40.500000 -0.235317
40.500000 -0.205486
40.500000 -0.174816
40.500000 -0.143304
40.500000 -0.110953
40.500000 -0.077761
40.500000 -0.043729
40.500000 -0.008857
40.500000 0.026856
40.500000 0.063409
40.500000 0.100802
40.500000 0.139036
40.500000 0.178110
40.500000 0.218024
40.500000 0.258779
40.500000 0.300373
40.500000 0.342808
40.500000 0.386084
40.500000 0.430199
40.500000 0.475155
40.500000 0.520952
40.500000 0.567588
40.500000 0.615065
40.500000 0.663382
40.500000 0.712540
40.500000 0.762538
40.500000 0.813376
40.500000 0.865054
40.500000 0.917573
40.500000 0.970932
40.500000 1.025131
40.500000 1.080170
40.500000 1.136050
40.500000 1.192771
40.500000 1.250331
40.500000 1.308732
40.500000 1.367973
40.500000 1.428054
40.500000 1.488976
40.500000 1.550738
40.500000 1.613340
40.500000 1.676783
40.500000 1.741065
40.500000 1.806189
40.500000 1.872152
40.500000 1.938956
40.500000 2.006600
40.500000 2.075084
40.500000 2.144409
40.500000 2.214574
40.500000 2.285579
40.500000 2.357424
40.500000 2.430110
40.500000 2.503636
40.500000 2.578003
40.500000 2.653210
40.500000 2.729257
40.500000 2.806144
40.500000 2.883872
40.500000 2.962439
40.500000 3.041848
40.500000 3.122096
40.500000 3.203185
40.500000 3.285114
40.500000 3.367884
40.500000 3.451493
40.500000 3.535943
40.500000 3.621234
40.500000 3.707364
40.500000 3.794335
40.500000 3.882146
40.500000 3.970798
40.500000 4.060290
40.500000 4.150622
40.500000 4.241794
40.500000 4.333807
40.500000 4.426660
40.500000 4.520353
40.500000 4.614887
40.500000 4.710261
40.500000 4.806475
40.500000 4.903529
40.500000 5.001424
40.500000 5.100159
40.500000 5.199735
40.500000 5.300150
40.500000 5.401406
40.500000 5.503503
40.500000 5.606439
40.500000 5.710216
40.500000 5.814833
40.500000 5.920291
40.500000 6.026589
40.500000 6.133727
40.500000 6.241705
40.500000 6.350524
40.500000 6.460183
40.500000 6.570682
40.500000 6.682022
40.500000 6.794201
40.500000 6.907222
40.500000 7.021082
40.500000 7.135783
40.500000 7.251324
40.500000 7.367705
40.500000 7.484927
40.500000 7.602989
40.500000 7.721891
40.500000 7.841634
40.500000 7.962217
40.500000 8.083640
40.500000 8.205903
40.500000 8.329007
40.500000 8.452951
40.500000 8.577735
40.500000 8.703360
40.500000 8.829825
40.500000 8.957130
40.500000 9.085276
40.500000 9.214262
40.500000 9.344088
40.500000 9.474754
40.500000 9.606261
40.500000 9.738608
40.500000 9.871795
40.500000 10.005823
40.500000 10.140691
40.500000 10.276399
40.500000 10.412948
40.500000 10.550336
40.500000 10.688566
40.500000 10.827635
40.500000 10.967545
40.500000 11.108295
40.500000 11.249885
40.500000 11.392316
40.500000 11.535587
40.500000 11.679698
40.500000 11.824649
40.500000 11.970441
40.500000 12.117073
40.500000 12.264546
40.500000 12.412858
40.500000 12.562011
40.500000 12.712005
40.500000 12.862838
40.500000 13.014512
40.500000 13.167026
40.500000 13.320381
40.500000 13.474576
40.500000 13.629611
40.500000 13.785486
40.500000 13.942202
40.500000 14.099758
40.500000 14.258154
40.500000 14.417391
40.500000 14.577468
40.500000 14.738385
40.500000 14.900142
40.500000 15.062740
40.500000 15.226178
40.500000 15.390457
40.500000 15.555575
40.500000 15.721534
40.500000 15.888334
40.500000 16.055973
40.500000 16.224453
40.500000 16.393773
40.500000 16.563934
40.500000 16.734935
40.500000 16.906776
40.500000 17.079457
40.500000 17.252979
40.500000 17.427341
40.500000 17.602543
40.500000 17.778585
40.500000 17.955468
40.500000 18.133192
40.500000 18.311755
40.500000 18.491159
40.500000 18.671403
40.500000 18.852487
40.500000 19.034412
40.500000 19.217177
40.500000 19.400782
40.500000 19.585228
40.500000 19.770513
40.500000 19.956640
40.500000 20.143606
40.500000 20.331413
40.500000 20.520060
40.500000 20.709547
40.500000 20.899875
40.500000 21.091043
40.500000 21.283051
40.500000 21.475900
40.500000 21.669588
40.500000 21.864118
40.500000 22.059487
40.500000 22.255697
40.500000 22.452747
40.500000 22.650637
40.500000 22.849368
40.500000 23.048939
40.500000 23.249350
40.500000 23.450601
40.500000 23.652693
40.500000 23.855625
40.500000 24.059398
40.500000 24.264011
40.500000 24.469464
40.500000 24.675757
40.500000 24.882891
40.500000 25.090864
40.500000 25.299679
40.500000 25.509333
40.500000 25.719828
40.500000 25.931163
40.500000 26.143339
40.500000 26.356354
40.500000 26.570210
40.500000 26.784907
40.500000 27.000443
40.500000 27.216820
40.500000 27.434037
40.500000 27.652095
40.500000 27.870993
40.500000 28.090731
40.500000 28.311309
40.500000 28.532728
40.500000 28.754987
40.500000 28.978086
40.500000 29.202026
40.500000 29.426806
40.500000 29.652426
40.500000 29.878886
40.500000 30.106187
40.500000 30.334328
40.500000 30.563309
40.500000 30.793131
40.500000 31.023793
40.500000 31.255295
40.500000 31.487638
40.500000 31.720821
40.500000 31.954844
40.500000 32.189708
40.500000 32.425411
40.500000 32.661955
40.500000 32.899340
40.500000 33.137564
40.500000 33.376629
40.500000 33.616535
40.500000 33.857280
40.500000 34.098866
40.500000 34.341292
40.500000 34.584559
40.500000 34.828665
40.500000 35.073613
40.500000 35.319400
40.500000 35.566028
40.500000 35.813496
40.500000 36.061804
40.500000 36.310952
40.500000 36.560941
40.500000 36.811770
40.500000 37.063440
40.500000 37.315950
40.500000 37.569300
40.500000 37.823490
40.500000 38.078521
40.500000 38.334391
40.500000 38.591103
40.500000 38.848654
40.500000 39.107046
40.500000 39.366278
40.500000 39.626351
40.500000 39.887263
40.500000 40.149016
40.500000 40.411610
40.500000 40.675043
40.500000 40.939317
40.500000 41.204432
40.500000 41.470386
40.500000 41.737181
40.500000 42.004816
40.500000 42.273291
40.500000 42.542607
40.500000 42.812763
40.500000 43.083760
40.500000 43.355596
40.500000 43.628273
40.500000 43.901790
40.500000 44.176148
40.500000 44.451346
40.500000 44.727384
40.500000 45.004262
40.500000 45.281981
40.500000 45.560540
40.500000 45.839939
40.500000 46.120179
40.500000 46.401259
40.500000 46.683179
40.500000 46.965939
40.500000 47.249540
40.500000 47.533981
40.500000 47.819263
40.500000 48.105384
40.500000 48.392346
40.500000 48.680149
40.500000 48.968791
40.500000 49.258274
40.500000 49.548597
40.500000 49.839761
40.500000 50.131765
40.500000 50.424609
40.500000 50.718293
40.500000 51.012818
40.500000 51.308183
40.500000 51.604388
40.500000 51.901434
40.500000 52.199319
40.500000 52.498046
40.500000 52.797612
40.500000 53.098019
40.500000 53.399266
40.500000 53.701353
40.500000 54.004281
40.500000 54.308049
40.500000 54.612657
40.500000 54.918106
40.500000 55.224395
40.500000 55.531524
40.500000 55.839493
40.500000 56.148303
40.500000 56.457953
40.500000 56.768443
40.500000 57.079774
40.500000 57.391945
40.500000 57.704956
40.500000 58.018808
40.500000 58.333500
40.500000 58.649032
40.500000 58.965404
40.500000 59.282617
40.500000 59.600670
40.500000 59.919563
40.500000 60.239297
40.500000 60.559871
40.500000 60.881285
40.500000 61.203540
40.500000 61.526635
40.500000 61.850570
40.500000 62.175345
40.500000 62.500961
40.500000 62.827417
40.500000 63.154713
40.500000 63.482850
40.500000 63.811827
40.500000 64.141644
40.500000 64.472301
40.500000 64.803799
40.500000 65.136137
40.500000 65.469316
40.500000 65.803335
40.500000 66.138194
40.500000 66.473893
40.500000 66.810433
40.500000 67.147812
40.500000 67.486033
40.500000 67.825093
40.500000 68.164994
40.500000 68.505735
40.500000 68.847316
40.500000 69.189738
40.500000 69.533000
40.500000 69.877102
40.500000 70.222045
40.500000 70.567828
40.500000 70.914451
40.500000 71.261915
40.500000 71.610218
40.500000 71.959363
40.500000 72.309347
40.500000 72.660172
40.500000 73.011837
40.500000 73.364342
40.500000 73.717688
40.500000 74.071873
40.500000 74.426900
40.500000 74.782766
40.500000 75.139473
40.500000 75.497020
40.500000 75.855407
40.500000 76.214635
40.500000 76.574703
40.500000 76.935611
40.500000 77.297360
40.500000 77.659949
40.500000 78.023378
40.500000 78.387647
40.500000 78.752757
40.500000 79.118707
40.500000 79.485498
40.500000 79.853128
40.500000 80.221599
40.500000 80.590910
40.500000 80.961062
40.500000 81.332054
40.500000 81.703886
40.500000 82.076558
40.500000 82.450071
40.500000 82.824424
40.500000 83.199618
40.500000 83.575651
40.500000 83.952525
40.500000 84.330239
40.500000 84.708794
40.500000 85.088189
40.500000 85.468424
40.500000 85.849499
40.500000 86.231415
40.500000 86.614171
40.500000 86.997768
40.500000 87.382204
40.500000 87.767481
40.500000 88.153598
40.500000 88.540556
40.500000 88.928354
40.500000 89.316992
40.500000 89.706470
40.500000 90.096789
40.500000 90.487948
40.500000 90.879947
40.500000 91.272787
40.500000 91.666467
40.500000 92.060987
40.500000 92.456348
40.500000 92.852548
40.500000 93.249590
40.500000 93.647471
40.500000 94.046193
40.500000 94.445755
40.500000 94.846157
40.500000 95.247400
40.500000 95.649483
40.500000 96.052406
40.500000 96.456169
40.500000 96.860773
40.500000 97.266217
40.500000 97.672502
40.500000 98.079626
40.500000 98.487591
40.500000 98.896397
40.500000 99.306042
40.500000 99.716528
40.500000 100.127854
40.500000 100.540021
40.500000 100.953028
40.500000 101.366875
40.500000 101.781562
40.500000 102.197090
40.500000 102.613458
40.500000 103.030666
40.500000 103.448715
40.500000 103.867603
40.500000 104.287333
40.500000 104.707902
40.500000 105.129312
40.500000 105.551562
40.500000 105.974652
40.500000 106.398583
40.500000 106.823354
40.500000 107.248965
40.500000 107.675417
40.500000 108.102709
40.500000 108.530841
40.500000 108.959813
40.500000 109.389626
40.500000 109.820279
40.500000 110.251773
40.500000 110.684106
40.500000 111.117280
40.500000 111.551294
40.500000 111.986149
40.500000 112.421844
40.500000 112.858379
40.500000 113.295754
40.500000 113.733970
40.500000 114.173026
40.500000 114.612923
40.500000 115.053659
40.500000 115.495236
40.500000 115.937653
40.500000 116.380911
40.500000 116.825009
40.500000 117.269947
40.500000 117.715725
40.500000 118.162344
40.500000 118.609803
40.500000 119.058103
40.500000 119.507242
40.500000 119.957222
40.500000 120.408042
40.500000 120.859703
40.500000 121.312204
40.500000 121.765545
40.500000 122.219726
40.500000 122.674748
40.500000 123.130610
40.500000 123.587312
40.500000 124.044855
40.500000 124.503238
40.500000 124.962461
40.500000 125.422525
40.500000 125.883428
40.500000 126.345173
40.500000 126.807757
40.500000 127.271182
40.500000 127.735447
40.500000 128.200552
40.500000 128.666498
40.500000 129.133283
40.500000 129.600910
40.500000 130.069376
40.500000 130.538683
40.500000 131.008830
40.500000 131.479818
40.500000 131.951645
40.500000 132.424313
40.500000 132.897821
40.500000 133.372170
40.500000 133.847359
40.500000 134.323388
40.500000 134.800258
40.500000 135.277967
40.500000 135.756518
40.500000 136.235908
40.500000 136.716139
40.500000 137.197210
40.500000 137.679121
40.500000 138.161872
40.500000 138.645464
40.500000 139.129897
40.500000 139.615169
40.500000 140.101282
40.500000 140.588235
40.500000 141.076028
40.500000 141.564662
40.500000 142.054136
40.500000 142.544450
40.500000 143.035605
40.500000 143.527600
40.500000 144.020435
40.500000 144.514110
40.500000 145.008626
40.500000 145.503982
40.500000 146.000178
40.500000 146.497215
40.500000 146.995092
40.500000 147.493809
40.500000 147.993367
40.500000 148.493765
40.500000 148.995003
40.500000 149.497081
40.500000 150.000000
</POINTS>
</NEKTAR>

