<?xml version="1.0" encoding="utf-8" ?>
<NEKTAR>
<POINTS DIM="2" FIELDS="">
836.500000 0.000000
836.500000 0.000418
836.500000 0.001672
836.500000 0.003763
836.500000 0.006689
836.500000 0.010451
836.500000 0.015050
836.500000 0.020485
836.500000 0.026756
836.500000 0.033863
836.500000 0.041806
836.500000 0.050585
836.500000 0.060201
836.500000 0.070652
836.500000 0.081940
836.500000 0.094063
836.500000 0.107023
836.500000 0.120819
836.500000 0.135451
836.500000 0.150919
836.500000 0.167224
836.500000 0.184364
836.500000 0.202341
836.500000 0.221153
836.500000 0.240802
836.500000 0.261287
836.500000 0.282608
836.500000 0.304765
836.500000 0.327758
836.500000 0.351588
836.500000 0.376253
836.500000 0.401755
836.500000 0.428092
836.500000 0.455266
836.500000 0.483276
836.500000 0.512122
836.500000 0.541805
836.500000 0.572323
836.500000 0.603677
836.500000 0.635868
836.500000 0.668894
836.500000 0.702757
836.500000 0.737456
836.500000 0.772991
836.500000 0.809362
836.500000 0.846570
836.500000 0.884613
836.500000 0.923492
836.500000 0.963208
836.500000 1.003760
836.500000 1.045148
836.500000 1.087372
836.500000 1.130432
836.500000 1.174328
836.500000 1.219060
836.500000 1.264629
836.500000 1.311033
836.500000 1.358274
836.500000 1.406351
836.500000 1.455264
836.500000 1.505013
836.500000 1.555598
836.500000 1.607019
836.500000 1.659276
836.500000 1.712370
836.500000 1.766299
836.500000 1.821065
836.500000 1.876667
836.500000 1.933105
836.500000 1.990379
836.500000 2.048489
836.500000 2.107436
836.500000 2.167218
836.500000 2.227837
836.500000 2.289291
836.500000 2.351582
836.500000 2.414709
836.500000 2.478672
836.500000 2.543471
836.500000 2.609106
836.500000 2.675578
836.500000 2.742885
836.500000 2.811029
836.500000 2.880009
836.500000 2.949825
836.500000 3.020477
836.500000 3.091965
836.500000 3.164289
836.500000 3.237449
836.500000 3.311446
836.500000 3.386278
836.500000 3.461947
836.500000 3.538452
836.500000 3.615793
836.500000 3.693970
836.500000 3.772983
836.500000 3.852832
836.500000 3.933517
836.500000 4.015039
836.500000 4.097397
836.500000 4.180590
836.500000 4.264620
836.500000 4.349486
836.500000 4.435188
836.500000 4.521727
836.500000 4.609101
836.500000 4.697311
836.500000 4.786358
836.500000 4.876241
836.500000 4.966959
836.500000 5.058514
836.500000 5.150905
836.500000 5.244133
836.500000 5.338196
836.500000 5.433095
836.500000 5.528831
836.500000 5.625402
836.500000 5.722810
836.500000 5.821054
836.500000 5.920134
836.500000 6.020050
836.500000 6.120802
836.500000 6.222391
836.500000 6.324815
836.500000 6.428076
836.500000 6.532172
836.500000 6.637105
836.500000 6.742874
836.500000 6.849479
836.500000 6.956920
836.500000 7.065198
836.500000 7.174311
836.500000 7.284261
836.500000 7.395046
836.500000 7.506668
836.500000 7.619126
836.500000 7.732420
836.500000 7.846550
836.500000 7.961516
836.500000 8.077319
836.500000 8.193957
836.500000 8.311432
836.500000 8.429742
836.500000 8.548889
836.500000 8.668872
836.500000 8.789691
836.500000 8.911346
836.500000 9.033838
836.500000 9.157165
836.500000 9.281329
836.500000 9.406328
836.500000 9.532164
836.500000 9.658836
836.500000 9.786344
836.500000 9.914688
836.500000 10.043868
836.500000 10.173885
836.500000 10.304737
836.500000 10.436426
836.500000 10.568950
836.500000 10.702311
836.500000 10.836508
836.500000 10.971541
836.500000 11.107411
836.500000 11.244116
836.500000 11.381657
836.500000 11.520035
836.500000 11.659248
836.500000 11.799298
836.500000 11.940184
836.500000 12.081906
836.500000 12.224464
836.500000 12.367859
836.500000 12.512089
836.500000 12.657155
836.500000 12.803058
836.500000 12.949797
836.500000 13.097372
836.500000 13.245782
836.500000 13.395030
836.500000 13.545113
836.500000 13.696032
836.500000 13.847787
836.500000 14.000379
836.500000 14.153807
836.500000 14.308070
836.500000 14.463170
836.500000 14.619106
836.500000 14.775879
836.500000 14.933487
836.500000 15.091931
836.500000 15.251212
836.500000 15.411328
836.500000 15.572281
836.500000 15.734070
836.500000 15.896695
836.500000 16.060156
836.500000 16.224453
836.500000 16.389586
836.500000 16.555556
836.500000 16.722361
836.500000 16.890003
836.500000 17.058481
836.500000 17.227795
836.500000 17.397945
836.500000 17.568931
836.500000 17.740753
836.500000 17.913412
836.500000 18.086906
836.500000 18.261237
836.500000 18.436403
836.500000 18.612406
836.500000 18.789245
836.500000 18.966920
836.500000 19.145432
836.500000 19.324779
836.500000 19.504962
836.500000 19.685982
836.500000 19.867838
836.500000 20.050529
836.500000 20.234057
836.500000 20.418421
836.500000 20.603622
836.500000 20.789658
836.500000 20.976530
836.500000 21.164239
836.500000 21.352783
836.500000 21.542164
836.500000 21.732381
836.500000 21.923434
836.500000 22.115323
836.500000 22.308048
836.500000 22.501610
836.500000 22.696007
836.500000 22.891241
836.500000 23.087310
836.500000 23.284216
836.500000 23.481958
836.500000 23.680536
836.500000 23.879950
836.500000 24.080200
836.500000 24.281287
836.500000 24.483209
836.500000 24.685968
836.500000 24.889563
836.500000 25.093994
836.500000 25.299261
836.500000 25.505364
836.500000 25.712303
836.500000 25.920078
836.500000 26.128690
836.500000 26.338137
836.500000 26.548421
836.500000 26.759541
836.500000 26.971497
836.500000 27.184289
836.500000 27.397917
836.500000 27.612381
836.500000 27.827682
836.500000 28.043818
836.500000 28.260791
836.500000 28.478600
836.500000 28.697244
836.500000 28.916725
836.500000 29.137043
836.500000 29.358196
836.500000 29.580185
836.500000 29.803011
836.500000 30.026672
836.500000 30.251170
836.500000 30.476504
836.500000 30.702674
836.500000 30.929680
836.500000 31.157522
836.500000 31.386200
836.500000 31.615715
836.500000 31.846065
836.500000 32.077252
836.500000 32.309275
836.500000 32.542133
836.500000 32.775828
836.500000 33.010360
836.500000 33.245727
836.500000 33.481930
836.500000 33.718970
836.500000 33.956845
836.500000 34.195557
836.500000 34.435105
836.500000 34.675489
836.500000 34.916709
836.500000 35.158765
836.500000 35.401657
836.500000 35.645386
836.500000 35.889950
836.500000 36.135351
836.500000 36.381588
836.500000 36.628660
836.500000 36.876569
836.500000 37.125315
836.500000 37.374896
836.500000 37.625313
836.500000 37.876567
836.500000 38.128656
836.500000 38.381582
836.500000 38.635344
836.500000 38.889942
836.500000 39.145376
836.500000 39.401646
836.500000 39.658752
836.500000 39.916695
836.500000 40.175473
836.500000 40.435088
836.500000 40.695539
836.500000 40.956826
836.500000 41.218949
836.500000 41.481908
836.500000 41.745703
836.500000 42.010334
836.500000 42.275802
836.500000 42.542106
836.500000 42.809245
836.500000 43.077221
836.500000 43.346033
836.500000 43.615681
836.500000 43.886165
836.500000 44.157486
836.500000 44.429642
836.500000 44.702635
836.500000 44.976463
836.500000 45.251128
836.500000 45.526629
836.500000 45.802966
836.500000 46.080139
836.500000 46.358148
836.500000 46.636994
836.500000 46.916675
836.500000 47.197193
836.500000 47.478547
836.500000 47.760736
836.500000 48.043762
836.500000 48.327625
836.500000 48.612323
836.500000 48.897857
836.500000 49.184227
836.500000 49.471434
836.500000 49.759477
836.500000 50.048355
836.500000 50.338070
836.500000 50.628621
836.500000 50.920009
836.500000 51.212232
836.500000 51.505291
836.500000 51.799187
836.500000 52.093918
836.500000 52.389486
836.500000 52.685890
836.500000 52.983130
836.500000 53.281206
836.500000 53.580118
836.500000 53.879867
836.500000 54.180451
836.500000 54.481872
836.500000 54.784128
836.500000 55.087221
836.500000 55.391150
836.500000 55.695915
836.500000 56.001516
836.500000 56.307953
836.500000 56.615227
836.500000 56.923336
836.500000 57.232282
836.500000 57.542064
836.500000 57.852682
836.500000 58.164136
836.500000 58.476426
836.500000 58.789552
836.500000 59.103514
836.500000 59.418313
836.500000 59.733947
836.500000 60.050418
836.500000 60.367725
836.500000 60.685868
836.500000 61.004847
836.500000 61.324662
836.500000 61.645313
836.500000 61.966801
836.500000 62.289124
836.500000 62.612284
836.500000 62.936279
836.500000 63.261111
836.500000 63.586779
836.500000 63.913283
836.500000 64.240624
836.500000 64.568800
836.500000 64.897812
836.500000 65.227661
836.500000 65.558346
836.500000 65.889867
836.500000 66.222223
836.500000 66.555417
836.500000 66.889446
836.500000 67.224311
836.500000 67.560012
836.500000 67.896550
836.500000 68.233924
836.500000 68.572133
836.500000 68.911179
836.500000 69.251061
836.500000 69.591779
836.500000 69.933334
836.500000 70.275724
836.500000 70.618950
836.500000 70.963013
836.500000 71.307912
836.500000 71.653646
836.500000 72.000217
836.500000 72.347624
836.500000 72.695868
836.500000 73.044947
836.500000 73.394862
836.500000 73.745614
836.500000 74.097202
836.500000 74.449625
836.500000 74.802885
836.500000 75.156981
836.500000 75.511913
836.500000 75.867682
836.500000 76.224286
836.500000 76.581726
836.500000 76.940003
836.500000 77.299116
836.500000 77.659064
836.500000 78.019849
836.500000 78.381471
836.500000 78.743928
836.500000 79.107221
836.500000 79.471350
836.500000 79.836316
836.500000 80.202118
836.500000 80.568755
836.500000 80.936229
836.500000 81.304539
836.500000 81.673685
836.500000 82.043668
836.500000 82.414486
836.500000 82.786141
836.500000 83.158631
836.500000 83.531958
836.500000 83.906121
836.500000 84.281120
836.500000 84.656955
836.500000 85.033626
836.500000 85.411133
836.500000 85.789477
836.500000 86.168656
836.500000 86.548672
836.500000 86.929524
836.500000 87.311212
836.500000 87.693736
836.500000 88.077096
836.500000 88.461292
836.500000 88.846324
836.500000 89.232193
836.500000 89.618897
836.500000 90.006438
836.500000 90.394815
836.500000 90.784028
836.500000 91.174077
836.500000 91.564962
836.500000 91.956684
836.500000 92.349241
836.500000 92.742634
836.500000 93.136864
836.500000 93.531930
836.500000 93.927832
836.500000 94.324570
836.500000 94.722144
836.500000 95.120554
836.500000 95.519801
836.500000 95.919883
836.500000 96.320802
836.500000 96.722557
836.500000 97.125147
836.500000 97.528574
836.500000 97.932837
836.500000 98.337937
836.500000 98.743872
836.500000 99.150643
836.500000 99.558251
836.500000 99.966695
836.500000 100.375974
836.500000 100.786090
836.500000 101.197042
836.500000 101.608831
836.500000 102.021455
836.500000 102.434915
836.500000 102.849212
836.500000 103.264344
836.500000 103.680313
836.500000 104.097118
836.500000 104.514759
836.500000 104.933236
836.500000 105.352549
836.500000 105.772699
836.500000 106.193684
836.500000 106.615506
836.500000 107.038163
836.500000 107.461657
836.500000 107.885987
836.500000 108.311153
836.500000 108.737155
836.500000 109.163993
836.500000 109.591668
836.500000 110.020178
836.500000 110.449525
836.500000 110.879708
836.500000 111.310727
836.500000 111.742582
836.500000 112.175273
836.500000 112.608800
836.500000 113.043163
836.500000 113.478363
836.500000 113.914398
836.500000 114.351270
836.500000 114.788978
836.500000 115.227522
836.500000 115.666902
836.500000 116.107118
836.500000 116.548170
836.500000 116.990059
836.500000 117.432783
836.500000 117.876344
836.500000 118.320740
836.500000 118.765973
836.500000 119.212042
836.500000 119.658947
836.500000 120.106689
836.500000 120.555266
836.500000 121.004679
836.500000 121.454929
836.500000 121.906015
836.500000 122.357937
836.500000 122.810695
836.500000 123.264289
836.500000 123.718719
836.500000 124.173985
836.500000 124.630087
836.500000 125.087026
836.500000 125.544801
836.500000 126.003411
836.500000 126.462858
836.500000 126.923141
836.500000 127.384260
836.500000 127.846216
836.500000 128.309007
836.500000 128.772634
836.500000 129.237098
836.500000 129.702398
836.500000 130.168534
836.500000 130.635505
836.500000 131.103314
836.500000 131.571958
836.500000 132.041438
836.500000 132.511754
836.500000 132.982907
836.500000 133.454896
836.500000 133.927720
836.500000 134.401381
836.500000 134.875878
836.500000 135.351211
836.500000 135.827381
836.500000 136.304386
836.500000 136.782227
836.500000 137.260905
836.500000 137.740419
836.500000 138.220769
836.500000 138.701955
836.500000 139.183977
836.500000 139.666835
836.500000 140.150529
836.500000 140.635060
836.500000 141.120426
836.500000 141.606629
836.500000 142.093668
836.500000 142.581542
836.500000 143.070253
836.500000 143.559801
836.500000 144.050184
836.500000 144.541403
836.500000 145.033459
836.500000 145.526350
836.500000 146.020078
836.500000 146.514642
836.500000 147.010042
836.500000 147.506278
836.500000 148.003350
836.500000 148.501258
836.500000 149.000003
836.500000 149.499583
836.500000 150.000000
</POINTS>
</NEKTAR>

