<?xml version="1.0" encoding="utf-8" ?>
<NEKTAR>
<POINTS DIM="2" FIELDS="">
52.500000 -0.750000
52.500000 -0.749580
52.500000 -0.748319
52.500000 -0.746219
52.500000 -0.743278
52.500000 -0.739496
52.500000 -0.734875
52.500000 -0.729413
52.500000 -0.723110
52.500000 -0.715968
52.500000 -0.707985
52.500000 -0.699162
52.500000 -0.689498
52.500000 -0.678995
52.500000 -0.667651
52.500000 -0.655466
52.500000 -0.642442
52.500000 -0.628577
52.500000 -0.613872
52.500000 -0.598326
52.500000 -0.581940
52.500000 -0.564714
52.500000 -0.546648
52.500000 -0.527741
52.500000 -0.507994
52.500000 -0.487407
52.500000 -0.465979
52.500000 -0.443711
52.500000 -0.420603
52.500000 -0.396654
52.500000 -0.371866
52.500000 -0.346236
52.500000 -0.319767
52.500000 -0.292457
52.500000 -0.264307
52.500000 -0.235317
52.500000 -0.205486
52.500000 -0.174816
52.500000 -0.143304
52.500000 -0.110953
52.500000 -0.077761
52.500000 -0.043729
52.500000 -0.008857
52.500000 0.026856
52.500000 0.063409
52.500000 0.100802
52.500000 0.139036
52.500000 0.178110
52.500000 0.218024
52.500000 0.258779
52.500000 0.300373
52.500000 0.342808
52.500000 0.386084
52.500000 0.430199
52.500000 0.475155
52.500000 0.520952
52.500000 0.567588
52.500000 0.615065
52.500000 0.663382
52.500000 0.712540
52.500000 0.762538
52.500000 0.813376
52.500000 0.865054
52.500000 0.917573
52.500000 0.970932
52.500000 1.025131
52.500000 1.080170
52.500000 1.136050
52.500000 1.192771
52.500000 1.250331
52.500000 1.308732
52.500000 1.367973
52.500000 1.428054
52.500000 1.488976
52.500000 1.550738
52.500000 1.613340
52.500000 1.676783
52.500000 1.741065
52.500000 1.806189
52.500000 1.872152
52.500000 1.938956
52.500000 2.006600
52.500000 2.075084
52.500000 2.144409
52.500000 2.214574
52.500000 2.285579
52.500000 2.357424
52.500000 2.430110
52.500000 2.503636
52.500000 2.578003
52.500000 2.653210
52.500000 2.729257
52.500000 2.806144
52.500000 2.883872
52.500000 2.962439
52.500000 3.041848
52.500000 3.122096
52.500000 3.203185
52.500000 3.285114
52.500000 3.367884
52.500000 3.451493
52.500000 3.535943
52.500000 3.621234
52.500000 3.707364
52.500000 3.794335
52.500000 3.882146
52.500000 3.970798
52.500000 4.060290
52.500000 4.150622
52.500000 4.241794
52.500000 4.333807
52.500000 4.426660
52.500000 4.520353
52.500000 4.614887
52.500000 4.710261
52.500000 4.806475
52.500000 4.903529
52.500000 5.001424
52.500000 5.100159
52.500000 5.199735
52.500000 5.300150
52.500000 5.401406
52.500000 5.503503
52.500000 5.606439
52.500000 5.710216
52.500000 5.814833
52.500000 5.920291
52.500000 6.026589
52.500000 6.133727
52.500000 6.241705
52.500000 6.350524
52.500000 6.460183
52.500000 6.570682
52.500000 6.682022
52.500000 6.794201
52.500000 6.907222
52.500000 7.021082
52.500000 7.135783
52.500000 7.251324
52.500000 7.367705
52.500000 7.484927
52.500000 7.602989
52.500000 7.721891
52.500000 7.841634
52.500000 7.962217
52.500000 8.083640
52.500000 8.205903
52.500000 8.329007
52.500000 8.452951
52.500000 8.577735
52.500000 8.703360
52.500000 8.829825
52.500000 8.957130
52.500000 9.085276
52.500000 9.214262
52.500000 9.344088
52.500000 9.474754
52.500000 9.606261
52.500000 9.738608
52.500000 9.871795
52.500000 10.005823
52.500000 10.140691
52.500000 10.276399
52.500000 10.412948
52.500000 10.550336
52.500000 10.688566
52.500000 10.827635
52.500000 10.967545
52.500000 11.108295
52.500000 11.249885
52.500000 11.392316
52.500000 11.535587
52.500000 11.679698
52.500000 11.824649
52.500000 11.970441
52.500000 12.117073
52.500000 12.264546
52.500000 12.412858
52.500000 12.562011
52.500000 12.712005
52.500000 12.862838
52.500000 13.014512
52.500000 13.167026
52.500000 13.320381
52.500000 13.474576
52.500000 13.629611
52.500000 13.785486
52.500000 13.942202
52.500000 14.099758
52.500000 14.258154
52.500000 14.417391
52.500000 14.577468
52.500000 14.738385
52.500000 14.900142
52.500000 15.062740
52.500000 15.226178
52.500000 15.390457
52.500000 15.555575
52.500000 15.721534
52.500000 15.888334
52.500000 16.055973
52.500000 16.224453
52.500000 16.393773
52.500000 16.563934
52.500000 16.734935
52.500000 16.906776
52.500000 17.079457
52.500000 17.252979
52.500000 17.427341
52.500000 17.602543
52.500000 17.778585
52.500000 17.955468
52.500000 18.133192
52.500000 18.311755
52.500000 18.491159
52.500000 18.671403
52.500000 18.852487
52.500000 19.034412
52.500000 19.217177
52.500000 19.400782
52.500000 19.585228
52.500000 19.770513
52.500000 19.956640
52.500000 20.143606
52.500000 20.331413
52.500000 20.520060
52.500000 20.709547
52.500000 20.899875
52.500000 21.091043
52.500000 21.283051
52.500000 21.475900
52.500000 21.669588
52.500000 21.864118
52.500000 22.059487
52.500000 22.255697
52.500000 22.452747
52.500000 22.650637
52.500000 22.849368
52.500000 23.048939
52.500000 23.249350
52.500000 23.450601
52.500000 23.652693
52.500000 23.855625
52.500000 24.059398
52.500000 24.264011
52.500000 24.469464
52.500000 24.675757
52.500000 24.882891
52.500000 25.090864
52.500000 25.299679
52.500000 25.509333
52.500000 25.719828
52.500000 25.931163
52.500000 26.143339
52.500000 26.356354
52.500000 26.570210
52.500000 26.784907
52.500000 27.000443
52.500000 27.216820
52.500000 27.434037
52.500000 27.652095
52.500000 27.870993
52.500000 28.090731
52.500000 28.311309
52.500000 28.532728
52.500000 28.754987
52.500000 28.978086
52.500000 29.202026
52.500000 29.426806
52.500000 29.652426
52.500000 29.878886
52.500000 30.106187
52.500000 30.334328
52.500000 30.563309
52.500000 30.793131
52.500000 31.023793
52.500000 31.255295
52.500000 31.487638
52.500000 31.720821
52.500000 31.954844
52.500000 32.189708
52.500000 32.425411
52.500000 32.661955
52.500000 32.899340
52.500000 33.137564
52.500000 33.376629
52.500000 33.616535
52.500000 33.857280
52.500000 34.098866
52.500000 34.341292
52.500000 34.584559
52.500000 34.828665
52.500000 35.073613
52.500000 35.319400
52.500000 35.566028
52.500000 35.813496
52.500000 36.061804
52.500000 36.310952
52.500000 36.560941
52.500000 36.811770
52.500000 37.063440
52.500000 37.315950
52.500000 37.569300
52.500000 37.823490
52.500000 38.078521
52.500000 38.334391
52.500000 38.591103
52.500000 38.848654
52.500000 39.107046
52.500000 39.366278
52.500000 39.626351
52.500000 39.887263
52.500000 40.149016
52.500000 40.411610
52.500000 40.675043
52.500000 40.939317
52.500000 41.204432
52.500000 41.470386
52.500000 41.737181
52.500000 42.004816
52.500000 42.273291
52.500000 42.542607
52.500000 42.812763
52.500000 43.083760
52.500000 43.355596
52.500000 43.628273
52.500000 43.901790
52.500000 44.176148
52.500000 44.451346
52.500000 44.727384
52.500000 45.004262
52.500000 45.281981
52.500000 45.560540
52.500000 45.839939
52.500000 46.120179
52.500000 46.401259
52.500000 46.683179
52.500000 46.965939
52.500000 47.249540
52.500000 47.533981
52.500000 47.819263
52.500000 48.105384
52.500000 48.392346
52.500000 48.680149
52.500000 48.968791
52.500000 49.258274
52.500000 49.548597
52.500000 49.839761
52.500000 50.131765
52.500000 50.424609
52.500000 50.718293
52.500000 51.012818
52.500000 51.308183
52.500000 51.604388
52.500000 51.901434
52.500000 52.199319
52.500000 52.498046
52.500000 52.797612
52.500000 53.098019
52.500000 53.399266
52.500000 53.701353
52.500000 54.004281
52.500000 54.308049
52.500000 54.612657
52.500000 54.918106
52.500000 55.224395
52.500000 55.531524
52.500000 55.839493
52.500000 56.148303
52.500000 56.457953
52.500000 56.768443
52.500000 57.079774
52.500000 57.391945
52.500000 57.704956
52.500000 58.018808
52.500000 58.333500
52.500000 58.649032
52.500000 58.965404
52.500000 59.282617
52.500000 59.600670
52.500000 59.919563
52.500000 60.239297
52.500000 60.559871
52.500000 60.881285
52.500000 61.203540
52.500000 61.526635
52.500000 61.850570
52.500000 62.175345
52.500000 62.500961
52.500000 62.827417
52.500000 63.154713
52.500000 63.482850
52.500000 63.811827
52.500000 64.141644
52.500000 64.472301
52.500000 64.803799
52.500000 65.136137
52.500000 65.469316
52.500000 65.803335
52.500000 66.138194
52.500000 66.473893
52.500000 66.810433
52.500000 67.147812
52.500000 67.486033
52.500000 67.825093
52.500000 68.164994
52.500000 68.505735
52.500000 68.847316
52.500000 69.189738
52.500000 69.533000
52.500000 69.877102
52.500000 70.222045
52.500000 70.567828
52.500000 70.914451
52.500000 71.261915
52.500000 71.610218
52.500000 71.959363
52.500000 72.309347
52.500000 72.660172
52.500000 73.011837
52.500000 73.364342
52.500000 73.717688
52.500000 74.071873
52.500000 74.426900
52.500000 74.782766
52.500000 75.139473
52.500000 75.497020
52.500000 75.855407
52.500000 76.214635
52.500000 76.574703
52.500000 76.935611
52.500000 77.297360
52.500000 77.659949
52.500000 78.023378
52.500000 78.387647
52.500000 78.752757
52.500000 79.118707
52.500000 79.485498
52.500000 79.853128
52.500000 80.221599
52.500000 80.590910
52.500000 80.961062
52.500000 81.332054
52.500000 81.703886
52.500000 82.076558
52.500000 82.450071
52.500000 82.824424
52.500000 83.199618
52.500000 83.575651
52.500000 83.952525
52.500000 84.330239
52.500000 84.708794
52.500000 85.088189
52.500000 85.468424
52.500000 85.849499
52.500000 86.231415
52.500000 86.614171
52.500000 86.997768
52.500000 87.382204
52.500000 87.767481
52.500000 88.153598
52.500000 88.540556
52.500000 88.928354
52.500000 89.316992
52.500000 89.706470
52.500000 90.096789
52.500000 90.487948
52.500000 90.879947
52.500000 91.272787
52.500000 91.666467
52.500000 92.060987
52.500000 92.456348
52.500000 92.852548
52.500000 93.249590
52.500000 93.647471
52.500000 94.046193
52.500000 94.445755
52.500000 94.846157
52.500000 95.247400
52.500000 95.649483
52.500000 96.052406
52.500000 96.456169
52.500000 96.860773
52.500000 97.266217
52.500000 97.672502
52.500000 98.079626
52.500000 98.487591
52.500000 98.896397
52.500000 99.306042
52.500000 99.716528
52.500000 100.127854
52.500000 100.540021
52.500000 100.953028
52.500000 101.366875
52.500000 101.781562
52.500000 102.197090
52.500000 102.613458
52.500000 103.030666
52.500000 103.448715
52.500000 103.867603
52.500000 104.287333
52.500000 104.707902
52.500000 105.129312
52.500000 105.551562
52.500000 105.974652
52.500000 106.398583
52.500000 106.823354
52.500000 107.248965
52.500000 107.675417
52.500000 108.102709
52.500000 108.530841
52.500000 108.959813
52.500000 109.389626
52.500000 109.820279
52.500000 110.251773
52.500000 110.684106
52.500000 111.117280
52.500000 111.551294
52.500000 111.986149
52.500000 112.421844
52.500000 112.858379
52.500000 113.295754
52.500000 113.733970
52.500000 114.173026
52.500000 114.612923
52.500000 115.053659
52.500000 115.495236
52.500000 115.937653
52.500000 116.380911
52.500000 116.825009
52.500000 117.269947
52.500000 117.715725
52.500000 118.162344
52.500000 118.609803
52.500000 119.058103
52.500000 119.507242
52.500000 119.957222
52.500000 120.408042
52.500000 120.859703
52.500000 121.312204
52.500000 121.765545
52.500000 122.219726
52.500000 122.674748
52.500000 123.130610
52.500000 123.587312
52.500000 124.044855
52.500000 124.503238
52.500000 124.962461
52.500000 125.422525
52.500000 125.883428
52.500000 126.345173
52.500000 126.807757
52.500000 127.271182
52.500000 127.735447
52.500000 128.200552
52.500000 128.666498
52.500000 129.133283
52.500000 129.600910
52.500000 130.069376
52.500000 130.538683
52.500000 131.008830
52.500000 131.479818
52.500000 131.951645
52.500000 132.424313
52.500000 132.897821
52.500000 133.372170
52.500000 133.847359
52.500000 134.323388
52.500000 134.800258
52.500000 135.277967
52.500000 135.756518
52.500000 136.235908
52.500000 136.716139
52.500000 137.197210
52.500000 137.679121
52.500000 138.161872
52.500000 138.645464
52.500000 139.129897
52.500000 139.615169
52.500000 140.101282
52.500000 140.588235
52.500000 141.076028
52.500000 141.564662
52.500000 142.054136
52.500000 142.544450
52.500000 143.035605
52.500000 143.527600
52.500000 144.020435
52.500000 144.514110
52.500000 145.008626
52.500000 145.503982
52.500000 146.000178
52.500000 146.497215
52.500000 146.995092
52.500000 147.493809
52.500000 147.993367
52.500000 148.493765
52.500000 148.995003
52.500000 149.497081
52.500000 150.000000
</POINTS>
</NEKTAR>

