<?xml version="1.0" encoding="utf-8" ?>
<NEKTAR>
<POINTS DIM="2" FIELDS="">
596.500000 0.000000
596.500000 0.000418
596.500000 0.001672
596.500000 0.003763
596.500000 0.006689
596.500000 0.010451
596.500000 0.015050
596.500000 0.020485
596.500000 0.026756
596.500000 0.033863
596.500000 0.041806
596.500000 0.050585
596.500000 0.060201
596.500000 0.070652
596.500000 0.081940
596.500000 0.094063
596.500000 0.107023
596.500000 0.120819
596.500000 0.135451
596.500000 0.150919
596.500000 0.167224
596.500000 0.184364
596.500000 0.202341
596.500000 0.221153
596.500000 0.240802
596.500000 0.261287
596.500000 0.282608
596.500000 0.304765
596.500000 0.327758
596.500000 0.351588
596.500000 0.376253
596.500000 0.401755
596.500000 0.428092
596.500000 0.455266
596.500000 0.483276
596.500000 0.512122
596.500000 0.541805
596.500000 0.572323
596.500000 0.603677
596.500000 0.635868
596.500000 0.668894
596.500000 0.702757
596.500000 0.737456
596.500000 0.772991
596.500000 0.809362
596.500000 0.846570
596.500000 0.884613
596.500000 0.923492
596.500000 0.963208
596.500000 1.003760
596.500000 1.045148
596.500000 1.087372
596.500000 1.130432
596.500000 1.174328
596.500000 1.219060
596.500000 1.264629
596.500000 1.311033
596.500000 1.358274
596.500000 1.406351
596.500000 1.455264
596.500000 1.505013
596.500000 1.555598
596.500000 1.607019
596.500000 1.659276
596.500000 1.712370
596.500000 1.766299
596.500000 1.821065
596.500000 1.876667
596.500000 1.933105
596.500000 1.990379
596.500000 2.048489
596.500000 2.107436
596.500000 2.167218
596.500000 2.227837
596.500000 2.289291
596.500000 2.351582
596.500000 2.414709
596.500000 2.478672
596.500000 2.543471
596.500000 2.609106
596.500000 2.675578
596.500000 2.742885
596.500000 2.811029
596.500000 2.880009
596.500000 2.949825
596.500000 3.020477
596.500000 3.091965
596.500000 3.164289
596.500000 3.237449
596.500000 3.311446
596.500000 3.386278
596.500000 3.461947
596.500000 3.538452
596.500000 3.615793
596.500000 3.693970
596.500000 3.772983
596.500000 3.852832
596.500000 3.933517
596.500000 4.015039
596.500000 4.097397
596.500000 4.180590
596.500000 4.264620
596.500000 4.349486
596.500000 4.435188
596.500000 4.521727
596.500000 4.609101
596.500000 4.697311
596.500000 4.786358
596.500000 4.876241
596.500000 4.966959
596.500000 5.058514
596.500000 5.150905
596.500000 5.244133
596.500000 5.338196
596.500000 5.433095
596.500000 5.528831
596.500000 5.625402
596.500000 5.722810
596.500000 5.821054
596.500000 5.920134
596.500000 6.020050
596.500000 6.120802
596.500000 6.222391
596.500000 6.324815
596.500000 6.428076
596.500000 6.532172
596.500000 6.637105
596.500000 6.742874
596.500000 6.849479
596.500000 6.956920
596.500000 7.065198
596.500000 7.174311
596.500000 7.284261
596.500000 7.395046
596.500000 7.506668
596.500000 7.619126
596.500000 7.732420
596.500000 7.846550
596.500000 7.961516
596.500000 8.077319
596.500000 8.193957
596.500000 8.311432
596.500000 8.429742
596.500000 8.548889
596.500000 8.668872
596.500000 8.789691
596.500000 8.911346
596.500000 9.033838
596.500000 9.157165
596.500000 9.281329
596.500000 9.406328
596.500000 9.532164
596.500000 9.658836
596.500000 9.786344
596.500000 9.914688
596.500000 10.043868
596.500000 10.173885
596.500000 10.304737
596.500000 10.436426
596.500000 10.568950
596.500000 10.702311
596.500000 10.836508
596.500000 10.971541
596.500000 11.107411
596.500000 11.244116
596.500000 11.381657
596.500000 11.520035
596.500000 11.659248
596.500000 11.799298
596.500000 11.940184
596.500000 12.081906
596.500000 12.224464
596.500000 12.367859
596.500000 12.512089
596.500000 12.657155
596.500000 12.803058
596.500000 12.949797
596.500000 13.097372
596.500000 13.245782
596.500000 13.395030
596.500000 13.545113
596.500000 13.696032
596.500000 13.847787
596.500000 14.000379
596.500000 14.153807
596.500000 14.308070
596.500000 14.463170
596.500000 14.619106
596.500000 14.775879
596.500000 14.933487
596.500000 15.091931
596.500000 15.251212
596.500000 15.411328
596.500000 15.572281
596.500000 15.734070
596.500000 15.896695
596.500000 16.060156
596.500000 16.224453
596.500000 16.389586
596.500000 16.555556
596.500000 16.722361
596.500000 16.890003
596.500000 17.058481
596.500000 17.227795
596.500000 17.397945
596.500000 17.568931
596.500000 17.740753
596.500000 17.913412
596.500000 18.086906
596.500000 18.261237
596.500000 18.436403
596.500000 18.612406
596.500000 18.789245
596.500000 18.966920
596.500000 19.145432
596.500000 19.324779
596.500000 19.504962
596.500000 19.685982
596.500000 19.867838
596.500000 20.050529
596.500000 20.234057
596.500000 20.418421
596.500000 20.603622
596.500000 20.789658
596.500000 20.976530
596.500000 21.164239
596.500000 21.352783
596.500000 21.542164
596.500000 21.732381
596.500000 21.923434
596.500000 22.115323
596.500000 22.308048
596.500000 22.501610
596.500000 22.696007
596.500000 22.891241
596.500000 23.087310
596.500000 23.284216
596.500000 23.481958
596.500000 23.680536
596.500000 23.879950
596.500000 24.080200
596.500000 24.281287
596.500000 24.483209
596.500000 24.685968
596.500000 24.889563
596.500000 25.093994
596.500000 25.299261
596.500000 25.505364
596.500000 25.712303
596.500000 25.920078
596.500000 26.128690
596.500000 26.338137
596.500000 26.548421
596.500000 26.759541
596.500000 26.971497
596.500000 27.184289
596.500000 27.397917
596.500000 27.612381
596.500000 27.827682
596.500000 28.043818
596.500000 28.260791
596.500000 28.478600
596.500000 28.697244
596.500000 28.916725
596.500000 29.137043
596.500000 29.358196
596.500000 29.580185
596.500000 29.803011
596.500000 30.026672
596.500000 30.251170
596.500000 30.476504
596.500000 30.702674
596.500000 30.929680
596.500000 31.157522
596.500000 31.386200
596.500000 31.615715
596.500000 31.846065
596.500000 32.077252
596.500000 32.309275
596.500000 32.542133
596.500000 32.775828
596.500000 33.010360
596.500000 33.245727
596.500000 33.481930
596.500000 33.718970
596.500000 33.956845
596.500000 34.195557
596.500000 34.435105
596.500000 34.675489
596.500000 34.916709
596.500000 35.158765
596.500000 35.401657
596.500000 35.645386
596.500000 35.889950
596.500000 36.135351
596.500000 36.381588
596.500000 36.628660
596.500000 36.876569
596.500000 37.125315
596.500000 37.374896
596.500000 37.625313
596.500000 37.876567
596.500000 38.128656
596.500000 38.381582
596.500000 38.635344
596.500000 38.889942
596.500000 39.145376
596.500000 39.401646
596.500000 39.658752
596.500000 39.916695
596.500000 40.175473
596.500000 40.435088
596.500000 40.695539
596.500000 40.956826
596.500000 41.218949
596.500000 41.481908
596.500000 41.745703
596.500000 42.010334
596.500000 42.275802
596.500000 42.542106
596.500000 42.809245
596.500000 43.077221
596.500000 43.346033
596.500000 43.615681
596.500000 43.886165
596.500000 44.157486
596.500000 44.429642
596.500000 44.702635
596.500000 44.976463
596.500000 45.251128
596.500000 45.526629
596.500000 45.802966
596.500000 46.080139
596.500000 46.358148
596.500000 46.636994
596.500000 46.916675
596.500000 47.197193
596.500000 47.478547
596.500000 47.760736
596.500000 48.043762
596.500000 48.327625
596.500000 48.612323
596.500000 48.897857
596.500000 49.184227
596.500000 49.471434
596.500000 49.759477
596.500000 50.048355
596.500000 50.338070
596.500000 50.628621
596.500000 50.920009
596.500000 51.212232
596.500000 51.505291
596.500000 51.799187
596.500000 52.093918
596.500000 52.389486
596.500000 52.685890
596.500000 52.983130
596.500000 53.281206
596.500000 53.580118
596.500000 53.879867
596.500000 54.180451
596.500000 54.481872
596.500000 54.784128
596.500000 55.087221
596.500000 55.391150
596.500000 55.695915
596.500000 56.001516
596.500000 56.307953
596.500000 56.615227
596.500000 56.923336
596.500000 57.232282
596.500000 57.542064
596.500000 57.852682
596.500000 58.164136
596.500000 58.476426
596.500000 58.789552
596.500000 59.103514
596.500000 59.418313
596.500000 59.733947
596.500000 60.050418
596.500000 60.367725
596.500000 60.685868
596.500000 61.004847
596.500000 61.324662
596.500000 61.645313
596.500000 61.966801
596.500000 62.289124
596.500000 62.612284
596.500000 62.936279
596.500000 63.261111
596.500000 63.586779
596.500000 63.913283
596.500000 64.240624
596.500000 64.568800
596.500000 64.897812
596.500000 65.227661
596.500000 65.558346
596.500000 65.889867
596.500000 66.222223
596.500000 66.555417
596.500000 66.889446
596.500000 67.224311
596.500000 67.560012
596.500000 67.896550
596.500000 68.233924
596.500000 68.572133
596.500000 68.911179
596.500000 69.251061
596.500000 69.591779
596.500000 69.933334
596.500000 70.275724
596.500000 70.618950
596.500000 70.963013
596.500000 71.307912
596.500000 71.653646
596.500000 72.000217
596.500000 72.347624
596.500000 72.695868
596.500000 73.044947
596.500000 73.394862
596.500000 73.745614
596.500000 74.097202
596.500000 74.449625
596.500000 74.802885
596.500000 75.156981
596.500000 75.511913
596.500000 75.867682
596.500000 76.224286
596.500000 76.581726
596.500000 76.940003
596.500000 77.299116
596.500000 77.659064
596.500000 78.019849
596.500000 78.381471
596.500000 78.743928
596.500000 79.107221
596.500000 79.471350
596.500000 79.836316
596.500000 80.202118
596.500000 80.568755
596.500000 80.936229
596.500000 81.304539
596.500000 81.673685
596.500000 82.043668
596.500000 82.414486
596.500000 82.786141
596.500000 83.158631
596.500000 83.531958
596.500000 83.906121
596.500000 84.281120
596.500000 84.656955
596.500000 85.033626
596.500000 85.411133
596.500000 85.789477
596.500000 86.168656
596.500000 86.548672
596.500000 86.929524
596.500000 87.311212
596.500000 87.693736
596.500000 88.077096
596.500000 88.461292
596.500000 88.846324
596.500000 89.232193
596.500000 89.618897
596.500000 90.006438
596.500000 90.394815
596.500000 90.784028
596.500000 91.174077
596.500000 91.564962
596.500000 91.956684
596.500000 92.349241
596.500000 92.742634
596.500000 93.136864
596.500000 93.531930
596.500000 93.927832
596.500000 94.324570
596.500000 94.722144
596.500000 95.120554
596.500000 95.519801
596.500000 95.919883
596.500000 96.320802
596.500000 96.722557
596.500000 97.125147
596.500000 97.528574
596.500000 97.932837
596.500000 98.337937
596.500000 98.743872
596.500000 99.150643
596.500000 99.558251
596.500000 99.966695
596.500000 100.375974
596.500000 100.786090
596.500000 101.197042
596.500000 101.608831
596.500000 102.021455
596.500000 102.434915
596.500000 102.849212
596.500000 103.264344
596.500000 103.680313
596.500000 104.097118
596.500000 104.514759
596.500000 104.933236
596.500000 105.352549
596.500000 105.772699
596.500000 106.193684
596.500000 106.615506
596.500000 107.038163
596.500000 107.461657
596.500000 107.885987
596.500000 108.311153
596.500000 108.737155
596.500000 109.163993
596.500000 109.591668
596.500000 110.020178
596.500000 110.449525
596.500000 110.879708
596.500000 111.310727
596.500000 111.742582
596.500000 112.175273
596.500000 112.608800
596.500000 113.043163
596.500000 113.478363
596.500000 113.914398
596.500000 114.351270
596.500000 114.788978
596.500000 115.227522
596.500000 115.666902
596.500000 116.107118
596.500000 116.548170
596.500000 116.990059
596.500000 117.432783
596.500000 117.876344
596.500000 118.320740
596.500000 118.765973
596.500000 119.212042
596.500000 119.658947
596.500000 120.106689
596.500000 120.555266
596.500000 121.004679
596.500000 121.454929
596.500000 121.906015
596.500000 122.357937
596.500000 122.810695
596.500000 123.264289
596.500000 123.718719
596.500000 124.173985
596.500000 124.630087
596.500000 125.087026
596.500000 125.544801
596.500000 126.003411
596.500000 126.462858
596.500000 126.923141
596.500000 127.384260
596.500000 127.846216
596.500000 128.309007
596.500000 128.772634
596.500000 129.237098
596.500000 129.702398
596.500000 130.168534
596.500000 130.635505
596.500000 131.103314
596.500000 131.571958
596.500000 132.041438
596.500000 132.511754
596.500000 132.982907
596.500000 133.454896
596.500000 133.927720
596.500000 134.401381
596.500000 134.875878
596.500000 135.351211
596.500000 135.827381
596.500000 136.304386
596.500000 136.782227
596.500000 137.260905
596.500000 137.740419
596.500000 138.220769
596.500000 138.701955
596.500000 139.183977
596.500000 139.666835
596.500000 140.150529
596.500000 140.635060
596.500000 141.120426
596.500000 141.606629
596.500000 142.093668
596.500000 142.581542
596.500000 143.070253
596.500000 143.559801
596.500000 144.050184
596.500000 144.541403
596.500000 145.033459
596.500000 145.526350
596.500000 146.020078
596.500000 146.514642
596.500000 147.010042
596.500000 147.506278
596.500000 148.003350
596.500000 148.501258
596.500000 149.000003
596.500000 149.499583
596.500000 150.000000
</POINTS>
</NEKTAR>

