<?xml version="1.0" encoding="utf-8" ?>
<NEKTAR>
<POINTS DIM="2" FIELDS="">
29.500000 -0.750000
29.500000 -0.749580
29.500000 -0.748319
29.500000 -0.746219
29.500000 -0.743278
29.500000 -0.739496
29.500000 -0.734875
29.500000 -0.729413
29.500000 -0.723110
29.500000 -0.715968
29.500000 -0.707985
29.500000 -0.699162
29.500000 -0.689498
29.500000 -0.678995
29.500000 -0.667651
29.500000 -0.655466
29.500000 -0.642442
29.500000 -0.628577
29.500000 -0.613872
29.500000 -0.598326
29.500000 -0.581940
29.500000 -0.564714
29.500000 -0.546648
29.500000 -0.527741
29.500000 -0.507994
29.500000 -0.487407
29.500000 -0.465979
29.500000 -0.443711
29.500000 -0.420603
29.500000 -0.396654
29.500000 -0.371866
29.500000 -0.346236
29.500000 -0.319767
29.500000 -0.292457
29.500000 -0.264307
29.500000 -0.235317
29.500000 -0.205486
29.500000 -0.174816
29.500000 -0.143304
29.500000 -0.110953
29.500000 -0.077761
29.500000 -0.043729
29.500000 -0.008857
29.500000 0.026856
29.500000 0.063409
29.500000 0.100802
29.500000 0.139036
29.500000 0.178110
29.500000 0.218024
29.500000 0.258779
29.500000 0.300373
29.500000 0.342808
29.500000 0.386084
29.500000 0.430199
29.500000 0.475155
29.500000 0.520952
29.500000 0.567588
29.500000 0.615065
29.500000 0.663382
29.500000 0.712540
29.500000 0.762538
29.500000 0.813376
29.500000 0.865054
29.500000 0.917573
29.500000 0.970932
29.500000 1.025131
29.500000 1.080170
29.500000 1.136050
29.500000 1.192771
29.500000 1.250331
29.500000 1.308732
29.500000 1.367973
29.500000 1.428054
29.500000 1.488976
29.500000 1.550738
29.500000 1.613340
29.500000 1.676783
29.500000 1.741065
29.500000 1.806189
29.500000 1.872152
29.500000 1.938956
29.500000 2.006600
29.500000 2.075084
29.500000 2.144409
29.500000 2.214574
29.500000 2.285579
29.500000 2.357424
29.500000 2.430110
29.500000 2.503636
29.500000 2.578003
29.500000 2.653210
29.500000 2.729257
29.500000 2.806144
29.500000 2.883872
29.500000 2.962439
29.500000 3.041848
29.500000 3.122096
29.500000 3.203185
29.500000 3.285114
29.500000 3.367884
29.500000 3.451493
29.500000 3.535943
29.500000 3.621234
29.500000 3.707364
29.500000 3.794335
29.500000 3.882146
29.500000 3.970798
29.500000 4.060290
29.500000 4.150622
29.500000 4.241794
29.500000 4.333807
29.500000 4.426660
29.500000 4.520353
29.500000 4.614887
29.500000 4.710261
29.500000 4.806475
29.500000 4.903529
29.500000 5.001424
29.500000 5.100159
29.500000 5.199735
29.500000 5.300150
29.500000 5.401406
29.500000 5.503503
29.500000 5.606439
29.500000 5.710216
29.500000 5.814833
29.500000 5.920291
29.500000 6.026589
29.500000 6.133727
29.500000 6.241705
29.500000 6.350524
29.500000 6.460183
29.500000 6.570682
29.500000 6.682022
29.500000 6.794201
29.500000 6.907222
29.500000 7.021082
29.500000 7.135783
29.500000 7.251324
29.500000 7.367705
29.500000 7.484927
29.500000 7.602989
29.500000 7.721891
29.500000 7.841634
29.500000 7.962217
29.500000 8.083640
29.500000 8.205903
29.500000 8.329007
29.500000 8.452951
29.500000 8.577735
29.500000 8.703360
29.500000 8.829825
29.500000 8.957130
29.500000 9.085276
29.500000 9.214262
29.500000 9.344088
29.500000 9.474754
29.500000 9.606261
29.500000 9.738608
29.500000 9.871795
29.500000 10.005823
29.500000 10.140691
29.500000 10.276399
29.500000 10.412948
29.500000 10.550336
29.500000 10.688566
29.500000 10.827635
29.500000 10.967545
29.500000 11.108295
29.500000 11.249885
29.500000 11.392316
29.500000 11.535587
29.500000 11.679698
29.500000 11.824649
29.500000 11.970441
29.500000 12.117073
29.500000 12.264546
29.500000 12.412858
29.500000 12.562011
29.500000 12.712005
29.500000 12.862838
29.500000 13.014512
29.500000 13.167026
29.500000 13.320381
29.500000 13.474576
29.500000 13.629611
29.500000 13.785486
29.500000 13.942202
29.500000 14.099758
29.500000 14.258154
29.500000 14.417391
29.500000 14.577468
29.500000 14.738385
29.500000 14.900142
29.500000 15.062740
29.500000 15.226178
29.500000 15.390457
29.500000 15.555575
29.500000 15.721534
29.500000 15.888334
29.500000 16.055973
29.500000 16.224453
29.500000 16.393773
29.500000 16.563934
29.500000 16.734935
29.500000 16.906776
29.500000 17.079457
29.500000 17.252979
29.500000 17.427341
29.500000 17.602543
29.500000 17.778585
29.500000 17.955468
29.500000 18.133192
29.500000 18.311755
29.500000 18.491159
29.500000 18.671403
29.500000 18.852487
29.500000 19.034412
29.500000 19.217177
29.500000 19.400782
29.500000 19.585228
29.500000 19.770513
29.500000 19.956640
29.500000 20.143606
29.500000 20.331413
29.500000 20.520060
29.500000 20.709547
29.500000 20.899875
29.500000 21.091043
29.500000 21.283051
29.500000 21.475900
29.500000 21.669588
29.500000 21.864118
29.500000 22.059487
29.500000 22.255697
29.500000 22.452747
29.500000 22.650637
29.500000 22.849368
29.500000 23.048939
29.500000 23.249350
29.500000 23.450601
29.500000 23.652693
29.500000 23.855625
29.500000 24.059398
29.500000 24.264011
29.500000 24.469464
29.500000 24.675757
29.500000 24.882891
29.500000 25.090864
29.500000 25.299679
29.500000 25.509333
29.500000 25.719828
29.500000 25.931163
29.500000 26.143339
29.500000 26.356354
29.500000 26.570210
29.500000 26.784907
29.500000 27.000443
29.500000 27.216820
29.500000 27.434037
29.500000 27.652095
29.500000 27.870993
29.500000 28.090731
29.500000 28.311309
29.500000 28.532728
29.500000 28.754987
29.500000 28.978086
29.500000 29.202026
29.500000 29.426806
29.500000 29.652426
29.500000 29.878886
29.500000 30.106187
29.500000 30.334328
29.500000 30.563309
29.500000 30.793131
29.500000 31.023793
29.500000 31.255295
29.500000 31.487638
29.500000 31.720821
29.500000 31.954844
29.500000 32.189708
29.500000 32.425411
29.500000 32.661955
29.500000 32.899340
29.500000 33.137564
29.500000 33.376629
29.500000 33.616535
29.500000 33.857280
29.500000 34.098866
29.500000 34.341292
29.500000 34.584559
29.500000 34.828665
29.500000 35.073613
29.500000 35.319400
29.500000 35.566028
29.500000 35.813496
29.500000 36.061804
29.500000 36.310952
29.500000 36.560941
29.500000 36.811770
29.500000 37.063440
29.500000 37.315950
29.500000 37.569300
29.500000 37.823490
29.500000 38.078521
29.500000 38.334391
29.500000 38.591103
29.500000 38.848654
29.500000 39.107046
29.500000 39.366278
29.500000 39.626351
29.500000 39.887263
29.500000 40.149016
29.500000 40.411610
29.500000 40.675043
29.500000 40.939317
29.500000 41.204432
29.500000 41.470386
29.500000 41.737181
29.500000 42.004816
29.500000 42.273291
29.500000 42.542607
29.500000 42.812763
29.500000 43.083760
29.500000 43.355596
29.500000 43.628273
29.500000 43.901790
29.500000 44.176148
29.500000 44.451346
29.500000 44.727384
29.500000 45.004262
29.500000 45.281981
29.500000 45.560540
29.500000 45.839939
29.500000 46.120179
29.500000 46.401259
29.500000 46.683179
29.500000 46.965939
29.500000 47.249540
29.500000 47.533981
29.500000 47.819263
29.500000 48.105384
29.500000 48.392346
29.500000 48.680149
29.500000 48.968791
29.500000 49.258274
29.500000 49.548597
29.500000 49.839761
29.500000 50.131765
29.500000 50.424609
29.500000 50.718293
29.500000 51.012818
29.500000 51.308183
29.500000 51.604388
29.500000 51.901434
29.500000 52.199319
29.500000 52.498046
29.500000 52.797612
29.500000 53.098019
29.500000 53.399266
29.500000 53.701353
29.500000 54.004281
29.500000 54.308049
29.500000 54.612657
29.500000 54.918106
29.500000 55.224395
29.500000 55.531524
29.500000 55.839493
29.500000 56.148303
29.500000 56.457953
29.500000 56.768443
29.500000 57.079774
29.500000 57.391945
29.500000 57.704956
29.500000 58.018808
29.500000 58.333500
29.500000 58.649032
29.500000 58.965404
29.500000 59.282617
29.500000 59.600670
29.500000 59.919563
29.500000 60.239297
29.500000 60.559871
29.500000 60.881285
29.500000 61.203540
29.500000 61.526635
29.500000 61.850570
29.500000 62.175345
29.500000 62.500961
29.500000 62.827417
29.500000 63.154713
29.500000 63.482850
29.500000 63.811827
29.500000 64.141644
29.500000 64.472301
29.500000 64.803799
29.500000 65.136137
29.500000 65.469316
29.500000 65.803335
29.500000 66.138194
29.500000 66.473893
29.500000 66.810433
29.500000 67.147812
29.500000 67.486033
29.500000 67.825093
29.500000 68.164994
29.500000 68.505735
29.500000 68.847316
29.500000 69.189738
29.500000 69.533000
29.500000 69.877102
29.500000 70.222045
29.500000 70.567828
29.500000 70.914451
29.500000 71.261915
29.500000 71.610218
29.500000 71.959363
29.500000 72.309347
29.500000 72.660172
29.500000 73.011837
29.500000 73.364342
29.500000 73.717688
29.500000 74.071873
29.500000 74.426900
29.500000 74.782766
29.500000 75.139473
29.500000 75.497020
29.500000 75.855407
29.500000 76.214635
29.500000 76.574703
29.500000 76.935611
29.500000 77.297360
29.500000 77.659949
29.500000 78.023378
29.500000 78.387647
29.500000 78.752757
29.500000 79.118707
29.500000 79.485498
29.500000 79.853128
29.500000 80.221599
29.500000 80.590910
29.500000 80.961062
29.500000 81.332054
29.500000 81.703886
29.500000 82.076558
29.500000 82.450071
29.500000 82.824424
29.500000 83.199618
29.500000 83.575651
29.500000 83.952525
29.500000 84.330239
29.500000 84.708794
29.500000 85.088189
29.500000 85.468424
29.500000 85.849499
29.500000 86.231415
29.500000 86.614171
29.500000 86.997768
29.500000 87.382204
29.500000 87.767481
29.500000 88.153598
29.500000 88.540556
29.500000 88.928354
29.500000 89.316992
29.500000 89.706470
29.500000 90.096789
29.500000 90.487948
29.500000 90.879947
29.500000 91.272787
29.500000 91.666467
29.500000 92.060987
29.500000 92.456348
29.500000 92.852548
29.500000 93.249590
29.500000 93.647471
29.500000 94.046193
29.500000 94.445755
29.500000 94.846157
29.500000 95.247400
29.500000 95.649483
29.500000 96.052406
29.500000 96.456169
29.500000 96.860773
29.500000 97.266217
29.500000 97.672502
29.500000 98.079626
29.500000 98.487591
29.500000 98.896397
29.500000 99.306042
29.500000 99.716528
29.500000 100.127854
29.500000 100.540021
29.500000 100.953028
29.500000 101.366875
29.500000 101.781562
29.500000 102.197090
29.500000 102.613458
29.500000 103.030666
29.500000 103.448715
29.500000 103.867603
29.500000 104.287333
29.500000 104.707902
29.500000 105.129312
29.500000 105.551562
29.500000 105.974652
29.500000 106.398583
29.500000 106.823354
29.500000 107.248965
29.500000 107.675417
29.500000 108.102709
29.500000 108.530841
29.500000 108.959813
29.500000 109.389626
29.500000 109.820279
29.500000 110.251773
29.500000 110.684106
29.500000 111.117280
29.500000 111.551294
29.500000 111.986149
29.500000 112.421844
29.500000 112.858379
29.500000 113.295754
29.500000 113.733970
29.500000 114.173026
29.500000 114.612923
29.500000 115.053659
29.500000 115.495236
29.500000 115.937653
29.500000 116.380911
29.500000 116.825009
29.500000 117.269947
29.500000 117.715725
29.500000 118.162344
29.500000 118.609803
29.500000 119.058103
29.500000 119.507242
29.500000 119.957222
29.500000 120.408042
29.500000 120.859703
29.500000 121.312204
29.500000 121.765545
29.500000 122.219726
29.500000 122.674748
29.500000 123.130610
29.500000 123.587312
29.500000 124.044855
29.500000 124.503238
29.500000 124.962461
29.500000 125.422525
29.500000 125.883428
29.500000 126.345173
29.500000 126.807757
29.500000 127.271182
29.500000 127.735447
29.500000 128.200552
29.500000 128.666498
29.500000 129.133283
29.500000 129.600910
29.500000 130.069376
29.500000 130.538683
29.500000 131.008830
29.500000 131.479818
29.500000 131.951645
29.500000 132.424313
29.500000 132.897821
29.500000 133.372170
29.500000 133.847359
29.500000 134.323388
29.500000 134.800258
29.500000 135.277967
29.500000 135.756518
29.500000 136.235908
29.500000 136.716139
29.500000 137.197210
29.500000 137.679121
29.500000 138.161872
29.500000 138.645464
29.500000 139.129897
29.500000 139.615169
29.500000 140.101282
29.500000 140.588235
29.500000 141.076028
29.500000 141.564662
29.500000 142.054136
29.500000 142.544450
29.500000 143.035605
29.500000 143.527600
29.500000 144.020435
29.500000 144.514110
29.500000 145.008626
29.500000 145.503982
29.500000 146.000178
29.500000 146.497215
29.500000 146.995092
29.500000 147.493809
29.500000 147.993367
29.500000 148.493765
29.500000 148.995003
29.500000 149.497081
29.500000 150.000000
</POINTS>
</NEKTAR>

