<?xml version="1.0" encoding="utf-8" ?>
<NEKTAR>
<POINTS DIM="2" FIELDS="">
736.500000 0.000000
736.500000 0.000418
736.500000 0.001672
736.500000 0.003763
736.500000 0.006689
736.500000 0.010451
736.500000 0.015050
736.500000 0.020485
736.500000 0.026756
736.500000 0.033863
736.500000 0.041806
736.500000 0.050585
736.500000 0.060201
736.500000 0.070652
736.500000 0.081940
736.500000 0.094063
736.500000 0.107023
736.500000 0.120819
736.500000 0.135451
736.500000 0.150919
736.500000 0.167224
736.500000 0.184364
736.500000 0.202341
736.500000 0.221153
736.500000 0.240802
736.500000 0.261287
736.500000 0.282608
736.500000 0.304765
736.500000 0.327758
736.500000 0.351588
736.500000 0.376253
736.500000 0.401755
736.500000 0.428092
736.500000 0.455266
736.500000 0.483276
736.500000 0.512122
736.500000 0.541805
736.500000 0.572323
736.500000 0.603677
736.500000 0.635868
736.500000 0.668894
736.500000 0.702757
736.500000 0.737456
736.500000 0.772991
736.500000 0.809362
736.500000 0.846570
736.500000 0.884613
736.500000 0.923492
736.500000 0.963208
736.500000 1.003760
736.500000 1.045148
736.500000 1.087372
736.500000 1.130432
736.500000 1.174328
736.500000 1.219060
736.500000 1.264629
736.500000 1.311033
736.500000 1.358274
736.500000 1.406351
736.500000 1.455264
736.500000 1.505013
736.500000 1.555598
736.500000 1.607019
736.500000 1.659276
736.500000 1.712370
736.500000 1.766299
736.500000 1.821065
736.500000 1.876667
736.500000 1.933105
736.500000 1.990379
736.500000 2.048489
736.500000 2.107436
736.500000 2.167218
736.500000 2.227837
736.500000 2.289291
736.500000 2.351582
736.500000 2.414709
736.500000 2.478672
736.500000 2.543471
736.500000 2.609106
736.500000 2.675578
736.500000 2.742885
736.500000 2.811029
736.500000 2.880009
736.500000 2.949825
736.500000 3.020477
736.500000 3.091965
736.500000 3.164289
736.500000 3.237449
736.500000 3.311446
736.500000 3.386278
736.500000 3.461947
736.500000 3.538452
736.500000 3.615793
736.500000 3.693970
736.500000 3.772983
736.500000 3.852832
736.500000 3.933517
736.500000 4.015039
736.500000 4.097397
736.500000 4.180590
736.500000 4.264620
736.500000 4.349486
736.500000 4.435188
736.500000 4.521727
736.500000 4.609101
736.500000 4.697311
736.500000 4.786358
736.500000 4.876241
736.500000 4.966959
736.500000 5.058514
736.500000 5.150905
736.500000 5.244133
736.500000 5.338196
736.500000 5.433095
736.500000 5.528831
736.500000 5.625402
736.500000 5.722810
736.500000 5.821054
736.500000 5.920134
736.500000 6.020050
736.500000 6.120802
736.500000 6.222391
736.500000 6.324815
736.500000 6.428076
736.500000 6.532172
736.500000 6.637105
736.500000 6.742874
736.500000 6.849479
736.500000 6.956920
736.500000 7.065198
736.500000 7.174311
736.500000 7.284261
736.500000 7.395046
736.500000 7.506668
736.500000 7.619126
736.500000 7.732420
736.500000 7.846550
736.500000 7.961516
736.500000 8.077319
736.500000 8.193957
736.500000 8.311432
736.500000 8.429742
736.500000 8.548889
736.500000 8.668872
736.500000 8.789691
736.500000 8.911346
736.500000 9.033838
736.500000 9.157165
736.500000 9.281329
736.500000 9.406328
736.500000 9.532164
736.500000 9.658836
736.500000 9.786344
736.500000 9.914688
736.500000 10.043868
736.500000 10.173885
736.500000 10.304737
736.500000 10.436426
736.500000 10.568950
736.500000 10.702311
736.500000 10.836508
736.500000 10.971541
736.500000 11.107411
736.500000 11.244116
736.500000 11.381657
736.500000 11.520035
736.500000 11.659248
736.500000 11.799298
736.500000 11.940184
736.500000 12.081906
736.500000 12.224464
736.500000 12.367859
736.500000 12.512089
736.500000 12.657155
736.500000 12.803058
736.500000 12.949797
736.500000 13.097372
736.500000 13.245782
736.500000 13.395030
736.500000 13.545113
736.500000 13.696032
736.500000 13.847787
736.500000 14.000379
736.500000 14.153807
736.500000 14.308070
736.500000 14.463170
736.500000 14.619106
736.500000 14.775879
736.500000 14.933487
736.500000 15.091931
736.500000 15.251212
736.500000 15.411328
736.500000 15.572281
736.500000 15.734070
736.500000 15.896695
736.500000 16.060156
736.500000 16.224453
736.500000 16.389586
736.500000 16.555556
736.500000 16.722361
736.500000 16.890003
736.500000 17.058481
736.500000 17.227795
736.500000 17.397945
736.500000 17.568931
736.500000 17.740753
736.500000 17.913412
736.500000 18.086906
736.500000 18.261237
736.500000 18.436403
736.500000 18.612406
736.500000 18.789245
736.500000 18.966920
736.500000 19.145432
736.500000 19.324779
736.500000 19.504962
736.500000 19.685982
736.500000 19.867838
736.500000 20.050529
736.500000 20.234057
736.500000 20.418421
736.500000 20.603622
736.500000 20.789658
736.500000 20.976530
736.500000 21.164239
736.500000 21.352783
736.500000 21.542164
736.500000 21.732381
736.500000 21.923434
736.500000 22.115323
736.500000 22.308048
736.500000 22.501610
736.500000 22.696007
736.500000 22.891241
736.500000 23.087310
736.500000 23.284216
736.500000 23.481958
736.500000 23.680536
736.500000 23.879950
736.500000 24.080200
736.500000 24.281287
736.500000 24.483209
736.500000 24.685968
736.500000 24.889563
736.500000 25.093994
736.500000 25.299261
736.500000 25.505364
736.500000 25.712303
736.500000 25.920078
736.500000 26.128690
736.500000 26.338137
736.500000 26.548421
736.500000 26.759541
736.500000 26.971497
736.500000 27.184289
736.500000 27.397917
736.500000 27.612381
736.500000 27.827682
736.500000 28.043818
736.500000 28.260791
736.500000 28.478600
736.500000 28.697244
736.500000 28.916725
736.500000 29.137043
736.500000 29.358196
736.500000 29.580185
736.500000 29.803011
736.500000 30.026672
736.500000 30.251170
736.500000 30.476504
736.500000 30.702674
736.500000 30.929680
736.500000 31.157522
736.500000 31.386200
736.500000 31.615715
736.500000 31.846065
736.500000 32.077252
736.500000 32.309275
736.500000 32.542133
736.500000 32.775828
736.500000 33.010360
736.500000 33.245727
736.500000 33.481930
736.500000 33.718970
736.500000 33.956845
736.500000 34.195557
736.500000 34.435105
736.500000 34.675489
736.500000 34.916709
736.500000 35.158765
736.500000 35.401657
736.500000 35.645386
736.500000 35.889950
736.500000 36.135351
736.500000 36.381588
736.500000 36.628660
736.500000 36.876569
736.500000 37.125315
736.500000 37.374896
736.500000 37.625313
736.500000 37.876567
736.500000 38.128656
736.500000 38.381582
736.500000 38.635344
736.500000 38.889942
736.500000 39.145376
736.500000 39.401646
736.500000 39.658752
736.500000 39.916695
736.500000 40.175473
736.500000 40.435088
736.500000 40.695539
736.500000 40.956826
736.500000 41.218949
736.500000 41.481908
736.500000 41.745703
736.500000 42.010334
736.500000 42.275802
736.500000 42.542106
736.500000 42.809245
736.500000 43.077221
736.500000 43.346033
736.500000 43.615681
736.500000 43.886165
736.500000 44.157486
736.500000 44.429642
736.500000 44.702635
736.500000 44.976463
736.500000 45.251128
736.500000 45.526629
736.500000 45.802966
736.500000 46.080139
736.500000 46.358148
736.500000 46.636994
736.500000 46.916675
736.500000 47.197193
736.500000 47.478547
736.500000 47.760736
736.500000 48.043762
736.500000 48.327625
736.500000 48.612323
736.500000 48.897857
736.500000 49.184227
736.500000 49.471434
736.500000 49.759477
736.500000 50.048355
736.500000 50.338070
736.500000 50.628621
736.500000 50.920009
736.500000 51.212232
736.500000 51.505291
736.500000 51.799187
736.500000 52.093918
736.500000 52.389486
736.500000 52.685890
736.500000 52.983130
736.500000 53.281206
736.500000 53.580118
736.500000 53.879867
736.500000 54.180451
736.500000 54.481872
736.500000 54.784128
736.500000 55.087221
736.500000 55.391150
736.500000 55.695915
736.500000 56.001516
736.500000 56.307953
736.500000 56.615227
736.500000 56.923336
736.500000 57.232282
736.500000 57.542064
736.500000 57.852682
736.500000 58.164136
736.500000 58.476426
736.500000 58.789552
736.500000 59.103514
736.500000 59.418313
736.500000 59.733947
736.500000 60.050418
736.500000 60.367725
736.500000 60.685868
736.500000 61.004847
736.500000 61.324662
736.500000 61.645313
736.500000 61.966801
736.500000 62.289124
736.500000 62.612284
736.500000 62.936279
736.500000 63.261111
736.500000 63.586779
736.500000 63.913283
736.500000 64.240624
736.500000 64.568800
736.500000 64.897812
736.500000 65.227661
736.500000 65.558346
736.500000 65.889867
736.500000 66.222223
736.500000 66.555417
736.500000 66.889446
736.500000 67.224311
736.500000 67.560012
736.500000 67.896550
736.500000 68.233924
736.500000 68.572133
736.500000 68.911179
736.500000 69.251061
736.500000 69.591779
736.500000 69.933334
736.500000 70.275724
736.500000 70.618950
736.500000 70.963013
736.500000 71.307912
736.500000 71.653646
736.500000 72.000217
736.500000 72.347624
736.500000 72.695868
736.500000 73.044947
736.500000 73.394862
736.500000 73.745614
736.500000 74.097202
736.500000 74.449625
736.500000 74.802885
736.500000 75.156981
736.500000 75.511913
736.500000 75.867682
736.500000 76.224286
736.500000 76.581726
736.500000 76.940003
736.500000 77.299116
736.500000 77.659064
736.500000 78.019849
736.500000 78.381471
736.500000 78.743928
736.500000 79.107221
736.500000 79.471350
736.500000 79.836316
736.500000 80.202118
736.500000 80.568755
736.500000 80.936229
736.500000 81.304539
736.500000 81.673685
736.500000 82.043668
736.500000 82.414486
736.500000 82.786141
736.500000 83.158631
736.500000 83.531958
736.500000 83.906121
736.500000 84.281120
736.500000 84.656955
736.500000 85.033626
736.500000 85.411133
736.500000 85.789477
736.500000 86.168656
736.500000 86.548672
736.500000 86.929524
736.500000 87.311212
736.500000 87.693736
736.500000 88.077096
736.500000 88.461292
736.500000 88.846324
736.500000 89.232193
736.500000 89.618897
736.500000 90.006438
736.500000 90.394815
736.500000 90.784028
736.500000 91.174077
736.500000 91.564962
736.500000 91.956684
736.500000 92.349241
736.500000 92.742634
736.500000 93.136864
736.500000 93.531930
736.500000 93.927832
736.500000 94.324570
736.500000 94.722144
736.500000 95.120554
736.500000 95.519801
736.500000 95.919883
736.500000 96.320802
736.500000 96.722557
736.500000 97.125147
736.500000 97.528574
736.500000 97.932837
736.500000 98.337937
736.500000 98.743872
736.500000 99.150643
736.500000 99.558251
736.500000 99.966695
736.500000 100.375974
736.500000 100.786090
736.500000 101.197042
736.500000 101.608831
736.500000 102.021455
736.500000 102.434915
736.500000 102.849212
736.500000 103.264344
736.500000 103.680313
736.500000 104.097118
736.500000 104.514759
736.500000 104.933236
736.500000 105.352549
736.500000 105.772699
736.500000 106.193684
736.500000 106.615506
736.500000 107.038163
736.500000 107.461657
736.500000 107.885987
736.500000 108.311153
736.500000 108.737155
736.500000 109.163993
736.500000 109.591668
736.500000 110.020178
736.500000 110.449525
736.500000 110.879708
736.500000 111.310727
736.500000 111.742582
736.500000 112.175273
736.500000 112.608800
736.500000 113.043163
736.500000 113.478363
736.500000 113.914398
736.500000 114.351270
736.500000 114.788978
736.500000 115.227522
736.500000 115.666902
736.500000 116.107118
736.500000 116.548170
736.500000 116.990059
736.500000 117.432783
736.500000 117.876344
736.500000 118.320740
736.500000 118.765973
736.500000 119.212042
736.500000 119.658947
736.500000 120.106689
736.500000 120.555266
736.500000 121.004679
736.500000 121.454929
736.500000 121.906015
736.500000 122.357937
736.500000 122.810695
736.500000 123.264289
736.500000 123.718719
736.500000 124.173985
736.500000 124.630087
736.500000 125.087026
736.500000 125.544801
736.500000 126.003411
736.500000 126.462858
736.500000 126.923141
736.500000 127.384260
736.500000 127.846216
736.500000 128.309007
736.500000 128.772634
736.500000 129.237098
736.500000 129.702398
736.500000 130.168534
736.500000 130.635505
736.500000 131.103314
736.500000 131.571958
736.500000 132.041438
736.500000 132.511754
736.500000 132.982907
736.500000 133.454896
736.500000 133.927720
736.500000 134.401381
736.500000 134.875878
736.500000 135.351211
736.500000 135.827381
736.500000 136.304386
736.500000 136.782227
736.500000 137.260905
736.500000 137.740419
736.500000 138.220769
736.500000 138.701955
736.500000 139.183977
736.500000 139.666835
736.500000 140.150529
736.500000 140.635060
736.500000 141.120426
736.500000 141.606629
736.500000 142.093668
736.500000 142.581542
736.500000 143.070253
736.500000 143.559801
736.500000 144.050184
736.500000 144.541403
736.500000 145.033459
736.500000 145.526350
736.500000 146.020078
736.500000 146.514642
736.500000 147.010042
736.500000 147.506278
736.500000 148.003350
736.500000 148.501258
736.500000 149.000003
736.500000 149.499583
736.500000 150.000000
</POINTS>
</NEKTAR>

