<?xml version="1.0" encoding="utf-8" ?>
<NEKTAR>
<POINTS DIM="2" FIELDS="">
77.500000 -0.750000
77.500000 -0.749580
77.500000 -0.748319
77.500000 -0.746219
77.500000 -0.743278
77.500000 -0.739496
77.500000 -0.734875
77.500000 -0.729413
77.500000 -0.723110
77.500000 -0.715968
77.500000 -0.707985
77.500000 -0.699162
77.500000 -0.689498
77.500000 -0.678995
77.500000 -0.667651
77.500000 -0.655466
77.500000 -0.642442
77.500000 -0.628577
77.500000 -0.613872
77.500000 -0.598326
77.500000 -0.581940
77.500000 -0.564714
77.500000 -0.546648
77.500000 -0.527741
77.500000 -0.507994
77.500000 -0.487407
77.500000 -0.465979
77.500000 -0.443711
77.500000 -0.420603
77.500000 -0.396654
77.500000 -0.371866
77.500000 -0.346236
77.500000 -0.319767
77.500000 -0.292457
77.500000 -0.264307
77.500000 -0.235317
77.500000 -0.205486
77.500000 -0.174816
77.500000 -0.143304
77.500000 -0.110953
77.500000 -0.077761
77.500000 -0.043729
77.500000 -0.008857
77.500000 0.026856
77.500000 0.063409
77.500000 0.100802
77.500000 0.139036
77.500000 0.178110
77.500000 0.218024
77.500000 0.258779
77.500000 0.300373
77.500000 0.342808
77.500000 0.386084
77.500000 0.430199
77.500000 0.475155
77.500000 0.520952
77.500000 0.567588
77.500000 0.615065
77.500000 0.663382
77.500000 0.712540
77.500000 0.762538
77.500000 0.813376
77.500000 0.865054
77.500000 0.917573
77.500000 0.970932
77.500000 1.025131
77.500000 1.080170
77.500000 1.136050
77.500000 1.192771
77.500000 1.250331
77.500000 1.308732
77.500000 1.367973
77.500000 1.428054
77.500000 1.488976
77.500000 1.550738
77.500000 1.613340
77.500000 1.676783
77.500000 1.741065
77.500000 1.806189
77.500000 1.872152
77.500000 1.938956
77.500000 2.006600
77.500000 2.075084
77.500000 2.144409
77.500000 2.214574
77.500000 2.285579
77.500000 2.357424
77.500000 2.430110
77.500000 2.503636
77.500000 2.578003
77.500000 2.653210
77.500000 2.729257
77.500000 2.806144
77.500000 2.883872
77.500000 2.962439
77.500000 3.041848
77.500000 3.122096
77.500000 3.203185
77.500000 3.285114
77.500000 3.367884
77.500000 3.451493
77.500000 3.535943
77.500000 3.621234
77.500000 3.707364
77.500000 3.794335
77.500000 3.882146
77.500000 3.970798
77.500000 4.060290
77.500000 4.150622
77.500000 4.241794
77.500000 4.333807
77.500000 4.426660
77.500000 4.520353
77.500000 4.614887
77.500000 4.710261
77.500000 4.806475
77.500000 4.903529
77.500000 5.001424
77.500000 5.100159
77.500000 5.199735
77.500000 5.300150
77.500000 5.401406
77.500000 5.503503
77.500000 5.606439
77.500000 5.710216
77.500000 5.814833
77.500000 5.920291
77.500000 6.026589
77.500000 6.133727
77.500000 6.241705
77.500000 6.350524
77.500000 6.460183
77.500000 6.570682
77.500000 6.682022
77.500000 6.794201
77.500000 6.907222
77.500000 7.021082
77.500000 7.135783
77.500000 7.251324
77.500000 7.367705
77.500000 7.484927
77.500000 7.602989
77.500000 7.721891
77.500000 7.841634
77.500000 7.962217
77.500000 8.083640
77.500000 8.205903
77.500000 8.329007
77.500000 8.452951
77.500000 8.577735
77.500000 8.703360
77.500000 8.829825
77.500000 8.957130
77.500000 9.085276
77.500000 9.214262
77.500000 9.344088
77.500000 9.474754
77.500000 9.606261
77.500000 9.738608
77.500000 9.871795
77.500000 10.005823
77.500000 10.140691
77.500000 10.276399
77.500000 10.412948
77.500000 10.550336
77.500000 10.688566
77.500000 10.827635
77.500000 10.967545
77.500000 11.108295
77.500000 11.249885
77.500000 11.392316
77.500000 11.535587
77.500000 11.679698
77.500000 11.824649
77.500000 11.970441
77.500000 12.117073
77.500000 12.264546
77.500000 12.412858
77.500000 12.562011
77.500000 12.712005
77.500000 12.862838
77.500000 13.014512
77.500000 13.167026
77.500000 13.320381
77.500000 13.474576
77.500000 13.629611
77.500000 13.785486
77.500000 13.942202
77.500000 14.099758
77.500000 14.258154
77.500000 14.417391
77.500000 14.577468
77.500000 14.738385
77.500000 14.900142
77.500000 15.062740
77.500000 15.226178
77.500000 15.390457
77.500000 15.555575
77.500000 15.721534
77.500000 15.888334
77.500000 16.055973
77.500000 16.224453
77.500000 16.393773
77.500000 16.563934
77.500000 16.734935
77.500000 16.906776
77.500000 17.079457
77.500000 17.252979
77.500000 17.427341
77.500000 17.602543
77.500000 17.778585
77.500000 17.955468
77.500000 18.133192
77.500000 18.311755
77.500000 18.491159
77.500000 18.671403
77.500000 18.852487
77.500000 19.034412
77.500000 19.217177
77.500000 19.400782
77.500000 19.585228
77.500000 19.770513
77.500000 19.956640
77.500000 20.143606
77.500000 20.331413
77.500000 20.520060
77.500000 20.709547
77.500000 20.899875
77.500000 21.091043
77.500000 21.283051
77.500000 21.475900
77.500000 21.669588
77.500000 21.864118
77.500000 22.059487
77.500000 22.255697
77.500000 22.452747
77.500000 22.650637
77.500000 22.849368
77.500000 23.048939
77.500000 23.249350
77.500000 23.450601
77.500000 23.652693
77.500000 23.855625
77.500000 24.059398
77.500000 24.264011
77.500000 24.469464
77.500000 24.675757
77.500000 24.882891
77.500000 25.090864
77.500000 25.299679
77.500000 25.509333
77.500000 25.719828
77.500000 25.931163
77.500000 26.143339
77.500000 26.356354
77.500000 26.570210
77.500000 26.784907
77.500000 27.000443
77.500000 27.216820
77.500000 27.434037
77.500000 27.652095
77.500000 27.870993
77.500000 28.090731
77.500000 28.311309
77.500000 28.532728
77.500000 28.754987
77.500000 28.978086
77.500000 29.202026
77.500000 29.426806
77.500000 29.652426
77.500000 29.878886
77.500000 30.106187
77.500000 30.334328
77.500000 30.563309
77.500000 30.793131
77.500000 31.023793
77.500000 31.255295
77.500000 31.487638
77.500000 31.720821
77.500000 31.954844
77.500000 32.189708
77.500000 32.425411
77.500000 32.661955
77.500000 32.899340
77.500000 33.137564
77.500000 33.376629
77.500000 33.616535
77.500000 33.857280
77.500000 34.098866
77.500000 34.341292
77.500000 34.584559
77.500000 34.828665
77.500000 35.073613
77.500000 35.319400
77.500000 35.566028
77.500000 35.813496
77.500000 36.061804
77.500000 36.310952
77.500000 36.560941
77.500000 36.811770
77.500000 37.063440
77.500000 37.315950
77.500000 37.569300
77.500000 37.823490
77.500000 38.078521
77.500000 38.334391
77.500000 38.591103
77.500000 38.848654
77.500000 39.107046
77.500000 39.366278
77.500000 39.626351
77.500000 39.887263
77.500000 40.149016
77.500000 40.411610
77.500000 40.675043
77.500000 40.939317
77.500000 41.204432
77.500000 41.470386
77.500000 41.737181
77.500000 42.004816
77.500000 42.273291
77.500000 42.542607
77.500000 42.812763
77.500000 43.083760
77.500000 43.355596
77.500000 43.628273
77.500000 43.901790
77.500000 44.176148
77.500000 44.451346
77.500000 44.727384
77.500000 45.004262
77.500000 45.281981
77.500000 45.560540
77.500000 45.839939
77.500000 46.120179
77.500000 46.401259
77.500000 46.683179
77.500000 46.965939
77.500000 47.249540
77.500000 47.533981
77.500000 47.819263
77.500000 48.105384
77.500000 48.392346
77.500000 48.680149
77.500000 48.968791
77.500000 49.258274
77.500000 49.548597
77.500000 49.839761
77.500000 50.131765
77.500000 50.424609
77.500000 50.718293
77.500000 51.012818
77.500000 51.308183
77.500000 51.604388
77.500000 51.901434
77.500000 52.199319
77.500000 52.498046
77.500000 52.797612
77.500000 53.098019
77.500000 53.399266
77.500000 53.701353
77.500000 54.004281
77.500000 54.308049
77.500000 54.612657
77.500000 54.918106
77.500000 55.224395
77.500000 55.531524
77.500000 55.839493
77.500000 56.148303
77.500000 56.457953
77.500000 56.768443
77.500000 57.079774
77.500000 57.391945
77.500000 57.704956
77.500000 58.018808
77.500000 58.333500
77.500000 58.649032
77.500000 58.965404
77.500000 59.282617
77.500000 59.600670
77.500000 59.919563
77.500000 60.239297
77.500000 60.559871
77.500000 60.881285
77.500000 61.203540
77.500000 61.526635
77.500000 61.850570
77.500000 62.175345
77.500000 62.500961
77.500000 62.827417
77.500000 63.154713
77.500000 63.482850
77.500000 63.811827
77.500000 64.141644
77.500000 64.472301
77.500000 64.803799
77.500000 65.136137
77.500000 65.469316
77.500000 65.803335
77.500000 66.138194
77.500000 66.473893
77.500000 66.810433
77.500000 67.147812
77.500000 67.486033
77.500000 67.825093
77.500000 68.164994
77.500000 68.505735
77.500000 68.847316
77.500000 69.189738
77.500000 69.533000
77.500000 69.877102
77.500000 70.222045
77.500000 70.567828
77.500000 70.914451
77.500000 71.261915
77.500000 71.610218
77.500000 71.959363
77.500000 72.309347
77.500000 72.660172
77.500000 73.011837
77.500000 73.364342
77.500000 73.717688
77.500000 74.071873
77.500000 74.426900
77.500000 74.782766
77.500000 75.139473
77.500000 75.497020
77.500000 75.855407
77.500000 76.214635
77.500000 76.574703
77.500000 76.935611
77.500000 77.297360
77.500000 77.659949
77.500000 78.023378
77.500000 78.387647
77.500000 78.752757
77.500000 79.118707
77.500000 79.485498
77.500000 79.853128
77.500000 80.221599
77.500000 80.590910
77.500000 80.961062
77.500000 81.332054
77.500000 81.703886
77.500000 82.076558
77.500000 82.450071
77.500000 82.824424
77.500000 83.199618
77.500000 83.575651
77.500000 83.952525
77.500000 84.330239
77.500000 84.708794
77.500000 85.088189
77.500000 85.468424
77.500000 85.849499
77.500000 86.231415
77.500000 86.614171
77.500000 86.997768
77.500000 87.382204
77.500000 87.767481
77.500000 88.153598
77.500000 88.540556
77.500000 88.928354
77.500000 89.316992
77.500000 89.706470
77.500000 90.096789
77.500000 90.487948
77.500000 90.879947
77.500000 91.272787
77.500000 91.666467
77.500000 92.060987
77.500000 92.456348
77.500000 92.852548
77.500000 93.249590
77.500000 93.647471
77.500000 94.046193
77.500000 94.445755
77.500000 94.846157
77.500000 95.247400
77.500000 95.649483
77.500000 96.052406
77.500000 96.456169
77.500000 96.860773
77.500000 97.266217
77.500000 97.672502
77.500000 98.079626
77.500000 98.487591
77.500000 98.896397
77.500000 99.306042
77.500000 99.716528
77.500000 100.127854
77.500000 100.540021
77.500000 100.953028
77.500000 101.366875
77.500000 101.781562
77.500000 102.197090
77.500000 102.613458
77.500000 103.030666
77.500000 103.448715
77.500000 103.867603
77.500000 104.287333
77.500000 104.707902
77.500000 105.129312
77.500000 105.551562
77.500000 105.974652
77.500000 106.398583
77.500000 106.823354
77.500000 107.248965
77.500000 107.675417
77.500000 108.102709
77.500000 108.530841
77.500000 108.959813
77.500000 109.389626
77.500000 109.820279
77.500000 110.251773
77.500000 110.684106
77.500000 111.117280
77.500000 111.551294
77.500000 111.986149
77.500000 112.421844
77.500000 112.858379
77.500000 113.295754
77.500000 113.733970
77.500000 114.173026
77.500000 114.612923
77.500000 115.053659
77.500000 115.495236
77.500000 115.937653
77.500000 116.380911
77.500000 116.825009
77.500000 117.269947
77.500000 117.715725
77.500000 118.162344
77.500000 118.609803
77.500000 119.058103
77.500000 119.507242
77.500000 119.957222
77.500000 120.408042
77.500000 120.859703
77.500000 121.312204
77.500000 121.765545
77.500000 122.219726
77.500000 122.674748
77.500000 123.130610
77.500000 123.587312
77.500000 124.044855
77.500000 124.503238
77.500000 124.962461
77.500000 125.422525
77.500000 125.883428
77.500000 126.345173
77.500000 126.807757
77.500000 127.271182
77.500000 127.735447
77.500000 128.200552
77.500000 128.666498
77.500000 129.133283
77.500000 129.600910
77.500000 130.069376
77.500000 130.538683
77.500000 131.008830
77.500000 131.479818
77.500000 131.951645
77.500000 132.424313
77.500000 132.897821
77.500000 133.372170
77.500000 133.847359
77.500000 134.323388
77.500000 134.800258
77.500000 135.277967
77.500000 135.756518
77.500000 136.235908
77.500000 136.716139
77.500000 137.197210
77.500000 137.679121
77.500000 138.161872
77.500000 138.645464
77.500000 139.129897
77.500000 139.615169
77.500000 140.101282
77.500000 140.588235
77.500000 141.076028
77.500000 141.564662
77.500000 142.054136
77.500000 142.544450
77.500000 143.035605
77.500000 143.527600
77.500000 144.020435
77.500000 144.514110
77.500000 145.008626
77.500000 145.503982
77.500000 146.000178
77.500000 146.497215
77.500000 146.995092
77.500000 147.493809
77.500000 147.993367
77.500000 148.493765
77.500000 148.995003
77.500000 149.497081
77.500000 150.000000
</POINTS>
</NEKTAR>

