<?xml version="1.0" encoding="utf-8" ?>
<NEKTAR>
<POINTS DIM="2" FIELDS="">
716.500000 0.000000
716.500000 0.000418
716.500000 0.001672
716.500000 0.003763
716.500000 0.006689
716.500000 0.010451
716.500000 0.015050
716.500000 0.020485
716.500000 0.026756
716.500000 0.033863
716.500000 0.041806
716.500000 0.050585
716.500000 0.060201
716.500000 0.070652
716.500000 0.081940
716.500000 0.094063
716.500000 0.107023
716.500000 0.120819
716.500000 0.135451
716.500000 0.150919
716.500000 0.167224
716.500000 0.184364
716.500000 0.202341
716.500000 0.221153
716.500000 0.240802
716.500000 0.261287
716.500000 0.282608
716.500000 0.304765
716.500000 0.327758
716.500000 0.351588
716.500000 0.376253
716.500000 0.401755
716.500000 0.428092
716.500000 0.455266
716.500000 0.483276
716.500000 0.512122
716.500000 0.541805
716.500000 0.572323
716.500000 0.603677
716.500000 0.635868
716.500000 0.668894
716.500000 0.702757
716.500000 0.737456
716.500000 0.772991
716.500000 0.809362
716.500000 0.846570
716.500000 0.884613
716.500000 0.923492
716.500000 0.963208
716.500000 1.003760
716.500000 1.045148
716.500000 1.087372
716.500000 1.130432
716.500000 1.174328
716.500000 1.219060
716.500000 1.264629
716.500000 1.311033
716.500000 1.358274
716.500000 1.406351
716.500000 1.455264
716.500000 1.505013
716.500000 1.555598
716.500000 1.607019
716.500000 1.659276
716.500000 1.712370
716.500000 1.766299
716.500000 1.821065
716.500000 1.876667
716.500000 1.933105
716.500000 1.990379
716.500000 2.048489
716.500000 2.107436
716.500000 2.167218
716.500000 2.227837
716.500000 2.289291
716.500000 2.351582
716.500000 2.414709
716.500000 2.478672
716.500000 2.543471
716.500000 2.609106
716.500000 2.675578
716.500000 2.742885
716.500000 2.811029
716.500000 2.880009
716.500000 2.949825
716.500000 3.020477
716.500000 3.091965
716.500000 3.164289
716.500000 3.237449
716.500000 3.311446
716.500000 3.386278
716.500000 3.461947
716.500000 3.538452
716.500000 3.615793
716.500000 3.693970
716.500000 3.772983
716.500000 3.852832
716.500000 3.933517
716.500000 4.015039
716.500000 4.097397
716.500000 4.180590
716.500000 4.264620
716.500000 4.349486
716.500000 4.435188
716.500000 4.521727
716.500000 4.609101
716.500000 4.697311
716.500000 4.786358
716.500000 4.876241
716.500000 4.966959
716.500000 5.058514
716.500000 5.150905
716.500000 5.244133
716.500000 5.338196
716.500000 5.433095
716.500000 5.528831
716.500000 5.625402
716.500000 5.722810
716.500000 5.821054
716.500000 5.920134
716.500000 6.020050
716.500000 6.120802
716.500000 6.222391
716.500000 6.324815
716.500000 6.428076
716.500000 6.532172
716.500000 6.637105
716.500000 6.742874
716.500000 6.849479
716.500000 6.956920
716.500000 7.065198
716.500000 7.174311
716.500000 7.284261
716.500000 7.395046
716.500000 7.506668
716.500000 7.619126
716.500000 7.732420
716.500000 7.846550
716.500000 7.961516
716.500000 8.077319
716.500000 8.193957
716.500000 8.311432
716.500000 8.429742
716.500000 8.548889
716.500000 8.668872
716.500000 8.789691
716.500000 8.911346
716.500000 9.033838
716.500000 9.157165
716.500000 9.281329
716.500000 9.406328
716.500000 9.532164
716.500000 9.658836
716.500000 9.786344
716.500000 9.914688
716.500000 10.043868
716.500000 10.173885
716.500000 10.304737
716.500000 10.436426
716.500000 10.568950
716.500000 10.702311
716.500000 10.836508
716.500000 10.971541
716.500000 11.107411
716.500000 11.244116
716.500000 11.381657
716.500000 11.520035
716.500000 11.659248
716.500000 11.799298
716.500000 11.940184
716.500000 12.081906
716.500000 12.224464
716.500000 12.367859
716.500000 12.512089
716.500000 12.657155
716.500000 12.803058
716.500000 12.949797
716.500000 13.097372
716.500000 13.245782
716.500000 13.395030
716.500000 13.545113
716.500000 13.696032
716.500000 13.847787
716.500000 14.000379
716.500000 14.153807
716.500000 14.308070
716.500000 14.463170
716.500000 14.619106
716.500000 14.775879
716.500000 14.933487
716.500000 15.091931
716.500000 15.251212
716.500000 15.411328
716.500000 15.572281
716.500000 15.734070
716.500000 15.896695
716.500000 16.060156
716.500000 16.224453
716.500000 16.389586
716.500000 16.555556
716.500000 16.722361
716.500000 16.890003
716.500000 17.058481
716.500000 17.227795
716.500000 17.397945
716.500000 17.568931
716.500000 17.740753
716.500000 17.913412
716.500000 18.086906
716.500000 18.261237
716.500000 18.436403
716.500000 18.612406
716.500000 18.789245
716.500000 18.966920
716.500000 19.145432
716.500000 19.324779
716.500000 19.504962
716.500000 19.685982
716.500000 19.867838
716.500000 20.050529
716.500000 20.234057
716.500000 20.418421
716.500000 20.603622
716.500000 20.789658
716.500000 20.976530
716.500000 21.164239
716.500000 21.352783
716.500000 21.542164
716.500000 21.732381
716.500000 21.923434
716.500000 22.115323
716.500000 22.308048
716.500000 22.501610
716.500000 22.696007
716.500000 22.891241
716.500000 23.087310
716.500000 23.284216
716.500000 23.481958
716.500000 23.680536
716.500000 23.879950
716.500000 24.080200
716.500000 24.281287
716.500000 24.483209
716.500000 24.685968
716.500000 24.889563
716.500000 25.093994
716.500000 25.299261
716.500000 25.505364
716.500000 25.712303
716.500000 25.920078
716.500000 26.128690
716.500000 26.338137
716.500000 26.548421
716.500000 26.759541
716.500000 26.971497
716.500000 27.184289
716.500000 27.397917
716.500000 27.612381
716.500000 27.827682
716.500000 28.043818
716.500000 28.260791
716.500000 28.478600
716.500000 28.697244
716.500000 28.916725
716.500000 29.137043
716.500000 29.358196
716.500000 29.580185
716.500000 29.803011
716.500000 30.026672
716.500000 30.251170
716.500000 30.476504
716.500000 30.702674
716.500000 30.929680
716.500000 31.157522
716.500000 31.386200
716.500000 31.615715
716.500000 31.846065
716.500000 32.077252
716.500000 32.309275
716.500000 32.542133
716.500000 32.775828
716.500000 33.010360
716.500000 33.245727
716.500000 33.481930
716.500000 33.718970
716.500000 33.956845
716.500000 34.195557
716.500000 34.435105
716.500000 34.675489
716.500000 34.916709
716.500000 35.158765
716.500000 35.401657
716.500000 35.645386
716.500000 35.889950
716.500000 36.135351
716.500000 36.381588
716.500000 36.628660
716.500000 36.876569
716.500000 37.125315
716.500000 37.374896
716.500000 37.625313
716.500000 37.876567
716.500000 38.128656
716.500000 38.381582
716.500000 38.635344
716.500000 38.889942
716.500000 39.145376
716.500000 39.401646
716.500000 39.658752
716.500000 39.916695
716.500000 40.175473
716.500000 40.435088
716.500000 40.695539
716.500000 40.956826
716.500000 41.218949
716.500000 41.481908
716.500000 41.745703
716.500000 42.010334
716.500000 42.275802
716.500000 42.542106
716.500000 42.809245
716.500000 43.077221
716.500000 43.346033
716.500000 43.615681
716.500000 43.886165
716.500000 44.157486
716.500000 44.429642
716.500000 44.702635
716.500000 44.976463
716.500000 45.251128
716.500000 45.526629
716.500000 45.802966
716.500000 46.080139
716.500000 46.358148
716.500000 46.636994
716.500000 46.916675
716.500000 47.197193
716.500000 47.478547
716.500000 47.760736
716.500000 48.043762
716.500000 48.327625
716.500000 48.612323
716.500000 48.897857
716.500000 49.184227
716.500000 49.471434
716.500000 49.759477
716.500000 50.048355
716.500000 50.338070
716.500000 50.628621
716.500000 50.920009
716.500000 51.212232
716.500000 51.505291
716.500000 51.799187
716.500000 52.093918
716.500000 52.389486
716.500000 52.685890
716.500000 52.983130
716.500000 53.281206
716.500000 53.580118
716.500000 53.879867
716.500000 54.180451
716.500000 54.481872
716.500000 54.784128
716.500000 55.087221
716.500000 55.391150
716.500000 55.695915
716.500000 56.001516
716.500000 56.307953
716.500000 56.615227
716.500000 56.923336
716.500000 57.232282
716.500000 57.542064
716.500000 57.852682
716.500000 58.164136
716.500000 58.476426
716.500000 58.789552
716.500000 59.103514
716.500000 59.418313
716.500000 59.733947
716.500000 60.050418
716.500000 60.367725
716.500000 60.685868
716.500000 61.004847
716.500000 61.324662
716.500000 61.645313
716.500000 61.966801
716.500000 62.289124
716.500000 62.612284
716.500000 62.936279
716.500000 63.261111
716.500000 63.586779
716.500000 63.913283
716.500000 64.240624
716.500000 64.568800
716.500000 64.897812
716.500000 65.227661
716.500000 65.558346
716.500000 65.889867
716.500000 66.222223
716.500000 66.555417
716.500000 66.889446
716.500000 67.224311
716.500000 67.560012
716.500000 67.896550
716.500000 68.233924
716.500000 68.572133
716.500000 68.911179
716.500000 69.251061
716.500000 69.591779
716.500000 69.933334
716.500000 70.275724
716.500000 70.618950
716.500000 70.963013
716.500000 71.307912
716.500000 71.653646
716.500000 72.000217
716.500000 72.347624
716.500000 72.695868
716.500000 73.044947
716.500000 73.394862
716.500000 73.745614
716.500000 74.097202
716.500000 74.449625
716.500000 74.802885
716.500000 75.156981
716.500000 75.511913
716.500000 75.867682
716.500000 76.224286
716.500000 76.581726
716.500000 76.940003
716.500000 77.299116
716.500000 77.659064
716.500000 78.019849
716.500000 78.381471
716.500000 78.743928
716.500000 79.107221
716.500000 79.471350
716.500000 79.836316
716.500000 80.202118
716.500000 80.568755
716.500000 80.936229
716.500000 81.304539
716.500000 81.673685
716.500000 82.043668
716.500000 82.414486
716.500000 82.786141
716.500000 83.158631
716.500000 83.531958
716.500000 83.906121
716.500000 84.281120
716.500000 84.656955
716.500000 85.033626
716.500000 85.411133
716.500000 85.789477
716.500000 86.168656
716.500000 86.548672
716.500000 86.929524
716.500000 87.311212
716.500000 87.693736
716.500000 88.077096
716.500000 88.461292
716.500000 88.846324
716.500000 89.232193
716.500000 89.618897
716.500000 90.006438
716.500000 90.394815
716.500000 90.784028
716.500000 91.174077
716.500000 91.564962
716.500000 91.956684
716.500000 92.349241
716.500000 92.742634
716.500000 93.136864
716.500000 93.531930
716.500000 93.927832
716.500000 94.324570
716.500000 94.722144
716.500000 95.120554
716.500000 95.519801
716.500000 95.919883
716.500000 96.320802
716.500000 96.722557
716.500000 97.125147
716.500000 97.528574
716.500000 97.932837
716.500000 98.337937
716.500000 98.743872
716.500000 99.150643
716.500000 99.558251
716.500000 99.966695
716.500000 100.375974
716.500000 100.786090
716.500000 101.197042
716.500000 101.608831
716.500000 102.021455
716.500000 102.434915
716.500000 102.849212
716.500000 103.264344
716.500000 103.680313
716.500000 104.097118
716.500000 104.514759
716.500000 104.933236
716.500000 105.352549
716.500000 105.772699
716.500000 106.193684
716.500000 106.615506
716.500000 107.038163
716.500000 107.461657
716.500000 107.885987
716.500000 108.311153
716.500000 108.737155
716.500000 109.163993
716.500000 109.591668
716.500000 110.020178
716.500000 110.449525
716.500000 110.879708
716.500000 111.310727
716.500000 111.742582
716.500000 112.175273
716.500000 112.608800
716.500000 113.043163
716.500000 113.478363
716.500000 113.914398
716.500000 114.351270
716.500000 114.788978
716.500000 115.227522
716.500000 115.666902
716.500000 116.107118
716.500000 116.548170
716.500000 116.990059
716.500000 117.432783
716.500000 117.876344
716.500000 118.320740
716.500000 118.765973
716.500000 119.212042
716.500000 119.658947
716.500000 120.106689
716.500000 120.555266
716.500000 121.004679
716.500000 121.454929
716.500000 121.906015
716.500000 122.357937
716.500000 122.810695
716.500000 123.264289
716.500000 123.718719
716.500000 124.173985
716.500000 124.630087
716.500000 125.087026
716.500000 125.544801
716.500000 126.003411
716.500000 126.462858
716.500000 126.923141
716.500000 127.384260
716.500000 127.846216
716.500000 128.309007
716.500000 128.772634
716.500000 129.237098
716.500000 129.702398
716.500000 130.168534
716.500000 130.635505
716.500000 131.103314
716.500000 131.571958
716.500000 132.041438
716.500000 132.511754
716.500000 132.982907
716.500000 133.454896
716.500000 133.927720
716.500000 134.401381
716.500000 134.875878
716.500000 135.351211
716.500000 135.827381
716.500000 136.304386
716.500000 136.782227
716.500000 137.260905
716.500000 137.740419
716.500000 138.220769
716.500000 138.701955
716.500000 139.183977
716.500000 139.666835
716.500000 140.150529
716.500000 140.635060
716.500000 141.120426
716.500000 141.606629
716.500000 142.093668
716.500000 142.581542
716.500000 143.070253
716.500000 143.559801
716.500000 144.050184
716.500000 144.541403
716.500000 145.033459
716.500000 145.526350
716.500000 146.020078
716.500000 146.514642
716.500000 147.010042
716.500000 147.506278
716.500000 148.003350
716.500000 148.501258
716.500000 149.000003
716.500000 149.499583
716.500000 150.000000
</POINTS>
</NEKTAR>

