<?xml version="1.0" encoding="utf-8" ?>
<NEKTAR>
<POINTS DIM="2" FIELDS="">
61.500000 -0.750000
61.500000 -0.749580
61.500000 -0.748319
61.500000 -0.746219
61.500000 -0.743278
61.500000 -0.739496
61.500000 -0.734875
61.500000 -0.729413
61.500000 -0.723110
61.500000 -0.715968
61.500000 -0.707985
61.500000 -0.699162
61.500000 -0.689498
61.500000 -0.678995
61.500000 -0.667651
61.500000 -0.655466
61.500000 -0.642442
61.500000 -0.628577
61.500000 -0.613872
61.500000 -0.598326
61.500000 -0.581940
61.500000 -0.564714
61.500000 -0.546648
61.500000 -0.527741
61.500000 -0.507994
61.500000 -0.487407
61.500000 -0.465979
61.500000 -0.443711
61.500000 -0.420603
61.500000 -0.396654
61.500000 -0.371866
61.500000 -0.346236
61.500000 -0.319767
61.500000 -0.292457
61.500000 -0.264307
61.500000 -0.235317
61.500000 -0.205486
61.500000 -0.174816
61.500000 -0.143304
61.500000 -0.110953
61.500000 -0.077761
61.500000 -0.043729
61.500000 -0.008857
61.500000 0.026856
61.500000 0.063409
61.500000 0.100802
61.500000 0.139036
61.500000 0.178110
61.500000 0.218024
61.500000 0.258779
61.500000 0.300373
61.500000 0.342808
61.500000 0.386084
61.500000 0.430199
61.500000 0.475155
61.500000 0.520952
61.500000 0.567588
61.500000 0.615065
61.500000 0.663382
61.500000 0.712540
61.500000 0.762538
61.500000 0.813376
61.500000 0.865054
61.500000 0.917573
61.500000 0.970932
61.500000 1.025131
61.500000 1.080170
61.500000 1.136050
61.500000 1.192771
61.500000 1.250331
61.500000 1.308732
61.500000 1.367973
61.500000 1.428054
61.500000 1.488976
61.500000 1.550738
61.500000 1.613340
61.500000 1.676783
61.500000 1.741065
61.500000 1.806189
61.500000 1.872152
61.500000 1.938956
61.500000 2.006600
61.500000 2.075084
61.500000 2.144409
61.500000 2.214574
61.500000 2.285579
61.500000 2.357424
61.500000 2.430110
61.500000 2.503636
61.500000 2.578003
61.500000 2.653210
61.500000 2.729257
61.500000 2.806144
61.500000 2.883872
61.500000 2.962439
61.500000 3.041848
61.500000 3.122096
61.500000 3.203185
61.500000 3.285114
61.500000 3.367884
61.500000 3.451493
61.500000 3.535943
61.500000 3.621234
61.500000 3.707364
61.500000 3.794335
61.500000 3.882146
61.500000 3.970798
61.500000 4.060290
61.500000 4.150622
61.500000 4.241794
61.500000 4.333807
61.500000 4.426660
61.500000 4.520353
61.500000 4.614887
61.500000 4.710261
61.500000 4.806475
61.500000 4.903529
61.500000 5.001424
61.500000 5.100159
61.500000 5.199735
61.500000 5.300150
61.500000 5.401406
61.500000 5.503503
61.500000 5.606439
61.500000 5.710216
61.500000 5.814833
61.500000 5.920291
61.500000 6.026589
61.500000 6.133727
61.500000 6.241705
61.500000 6.350524
61.500000 6.460183
61.500000 6.570682
61.500000 6.682022
61.500000 6.794201
61.500000 6.907222
61.500000 7.021082
61.500000 7.135783
61.500000 7.251324
61.500000 7.367705
61.500000 7.484927
61.500000 7.602989
61.500000 7.721891
61.500000 7.841634
61.500000 7.962217
61.500000 8.083640
61.500000 8.205903
61.500000 8.329007
61.500000 8.452951
61.500000 8.577735
61.500000 8.703360
61.500000 8.829825
61.500000 8.957130
61.500000 9.085276
61.500000 9.214262
61.500000 9.344088
61.500000 9.474754
61.500000 9.606261
61.500000 9.738608
61.500000 9.871795
61.500000 10.005823
61.500000 10.140691
61.500000 10.276399
61.500000 10.412948
61.500000 10.550336
61.500000 10.688566
61.500000 10.827635
61.500000 10.967545
61.500000 11.108295
61.500000 11.249885
61.500000 11.392316
61.500000 11.535587
61.500000 11.679698
61.500000 11.824649
61.500000 11.970441
61.500000 12.117073
61.500000 12.264546
61.500000 12.412858
61.500000 12.562011
61.500000 12.712005
61.500000 12.862838
61.500000 13.014512
61.500000 13.167026
61.500000 13.320381
61.500000 13.474576
61.500000 13.629611
61.500000 13.785486
61.500000 13.942202
61.500000 14.099758
61.500000 14.258154
61.500000 14.417391
61.500000 14.577468
61.500000 14.738385
61.500000 14.900142
61.500000 15.062740
61.500000 15.226178
61.500000 15.390457
61.500000 15.555575
61.500000 15.721534
61.500000 15.888334
61.500000 16.055973
61.500000 16.224453
61.500000 16.393773
61.500000 16.563934
61.500000 16.734935
61.500000 16.906776
61.500000 17.079457
61.500000 17.252979
61.500000 17.427341
61.500000 17.602543
61.500000 17.778585
61.500000 17.955468
61.500000 18.133192
61.500000 18.311755
61.500000 18.491159
61.500000 18.671403
61.500000 18.852487
61.500000 19.034412
61.500000 19.217177
61.500000 19.400782
61.500000 19.585228
61.500000 19.770513
61.500000 19.956640
61.500000 20.143606
61.500000 20.331413
61.500000 20.520060
61.500000 20.709547
61.500000 20.899875
61.500000 21.091043
61.500000 21.283051
61.500000 21.475900
61.500000 21.669588
61.500000 21.864118
61.500000 22.059487
61.500000 22.255697
61.500000 22.452747
61.500000 22.650637
61.500000 22.849368
61.500000 23.048939
61.500000 23.249350
61.500000 23.450601
61.500000 23.652693
61.500000 23.855625
61.500000 24.059398
61.500000 24.264011
61.500000 24.469464
61.500000 24.675757
61.500000 24.882891
61.500000 25.090864
61.500000 25.299679
61.500000 25.509333
61.500000 25.719828
61.500000 25.931163
61.500000 26.143339
61.500000 26.356354
61.500000 26.570210
61.500000 26.784907
61.500000 27.000443
61.500000 27.216820
61.500000 27.434037
61.500000 27.652095
61.500000 27.870993
61.500000 28.090731
61.500000 28.311309
61.500000 28.532728
61.500000 28.754987
61.500000 28.978086
61.500000 29.202026
61.500000 29.426806
61.500000 29.652426
61.500000 29.878886
61.500000 30.106187
61.500000 30.334328
61.500000 30.563309
61.500000 30.793131
61.500000 31.023793
61.500000 31.255295
61.500000 31.487638
61.500000 31.720821
61.500000 31.954844
61.500000 32.189708
61.500000 32.425411
61.500000 32.661955
61.500000 32.899340
61.500000 33.137564
61.500000 33.376629
61.500000 33.616535
61.500000 33.857280
61.500000 34.098866
61.500000 34.341292
61.500000 34.584559
61.500000 34.828665
61.500000 35.073613
61.500000 35.319400
61.500000 35.566028
61.500000 35.813496
61.500000 36.061804
61.500000 36.310952
61.500000 36.560941
61.500000 36.811770
61.500000 37.063440
61.500000 37.315950
61.500000 37.569300
61.500000 37.823490
61.500000 38.078521
61.500000 38.334391
61.500000 38.591103
61.500000 38.848654
61.500000 39.107046
61.500000 39.366278
61.500000 39.626351
61.500000 39.887263
61.500000 40.149016
61.500000 40.411610
61.500000 40.675043
61.500000 40.939317
61.500000 41.204432
61.500000 41.470386
61.500000 41.737181
61.500000 42.004816
61.500000 42.273291
61.500000 42.542607
61.500000 42.812763
61.500000 43.083760
61.500000 43.355596
61.500000 43.628273
61.500000 43.901790
61.500000 44.176148
61.500000 44.451346
61.500000 44.727384
61.500000 45.004262
61.500000 45.281981
61.500000 45.560540
61.500000 45.839939
61.500000 46.120179
61.500000 46.401259
61.500000 46.683179
61.500000 46.965939
61.500000 47.249540
61.500000 47.533981
61.500000 47.819263
61.500000 48.105384
61.500000 48.392346
61.500000 48.680149
61.500000 48.968791
61.500000 49.258274
61.500000 49.548597
61.500000 49.839761
61.500000 50.131765
61.500000 50.424609
61.500000 50.718293
61.500000 51.012818
61.500000 51.308183
61.500000 51.604388
61.500000 51.901434
61.500000 52.199319
61.500000 52.498046
61.500000 52.797612
61.500000 53.098019
61.500000 53.399266
61.500000 53.701353
61.500000 54.004281
61.500000 54.308049
61.500000 54.612657
61.500000 54.918106
61.500000 55.224395
61.500000 55.531524
61.500000 55.839493
61.500000 56.148303
61.500000 56.457953
61.500000 56.768443
61.500000 57.079774
61.500000 57.391945
61.500000 57.704956
61.500000 58.018808
61.500000 58.333500
61.500000 58.649032
61.500000 58.965404
61.500000 59.282617
61.500000 59.600670
61.500000 59.919563
61.500000 60.239297
61.500000 60.559871
61.500000 60.881285
61.500000 61.203540
61.500000 61.526635
61.500000 61.850570
61.500000 62.175345
61.500000 62.500961
61.500000 62.827417
61.500000 63.154713
61.500000 63.482850
61.500000 63.811827
61.500000 64.141644
61.500000 64.472301
61.500000 64.803799
61.500000 65.136137
61.500000 65.469316
61.500000 65.803335
61.500000 66.138194
61.500000 66.473893
61.500000 66.810433
61.500000 67.147812
61.500000 67.486033
61.500000 67.825093
61.500000 68.164994
61.500000 68.505735
61.500000 68.847316
61.500000 69.189738
61.500000 69.533000
61.500000 69.877102
61.500000 70.222045
61.500000 70.567828
61.500000 70.914451
61.500000 71.261915
61.500000 71.610218
61.500000 71.959363
61.500000 72.309347
61.500000 72.660172
61.500000 73.011837
61.500000 73.364342
61.500000 73.717688
61.500000 74.071873
61.500000 74.426900
61.500000 74.782766
61.500000 75.139473
61.500000 75.497020
61.500000 75.855407
61.500000 76.214635
61.500000 76.574703
61.500000 76.935611
61.500000 77.297360
61.500000 77.659949
61.500000 78.023378
61.500000 78.387647
61.500000 78.752757
61.500000 79.118707
61.500000 79.485498
61.500000 79.853128
61.500000 80.221599
61.500000 80.590910
61.500000 80.961062
61.500000 81.332054
61.500000 81.703886
61.500000 82.076558
61.500000 82.450071
61.500000 82.824424
61.500000 83.199618
61.500000 83.575651
61.500000 83.952525
61.500000 84.330239
61.500000 84.708794
61.500000 85.088189
61.500000 85.468424
61.500000 85.849499
61.500000 86.231415
61.500000 86.614171
61.500000 86.997768
61.500000 87.382204
61.500000 87.767481
61.500000 88.153598
61.500000 88.540556
61.500000 88.928354
61.500000 89.316992
61.500000 89.706470
61.500000 90.096789
61.500000 90.487948
61.500000 90.879947
61.500000 91.272787
61.500000 91.666467
61.500000 92.060987
61.500000 92.456348
61.500000 92.852548
61.500000 93.249590
61.500000 93.647471
61.500000 94.046193
61.500000 94.445755
61.500000 94.846157
61.500000 95.247400
61.500000 95.649483
61.500000 96.052406
61.500000 96.456169
61.500000 96.860773
61.500000 97.266217
61.500000 97.672502
61.500000 98.079626
61.500000 98.487591
61.500000 98.896397
61.500000 99.306042
61.500000 99.716528
61.500000 100.127854
61.500000 100.540021
61.500000 100.953028
61.500000 101.366875
61.500000 101.781562
61.500000 102.197090
61.500000 102.613458
61.500000 103.030666
61.500000 103.448715
61.500000 103.867603
61.500000 104.287333
61.500000 104.707902
61.500000 105.129312
61.500000 105.551562
61.500000 105.974652
61.500000 106.398583
61.500000 106.823354
61.500000 107.248965
61.500000 107.675417
61.500000 108.102709
61.500000 108.530841
61.500000 108.959813
61.500000 109.389626
61.500000 109.820279
61.500000 110.251773
61.500000 110.684106
61.500000 111.117280
61.500000 111.551294
61.500000 111.986149
61.500000 112.421844
61.500000 112.858379
61.500000 113.295754
61.500000 113.733970
61.500000 114.173026
61.500000 114.612923
61.500000 115.053659
61.500000 115.495236
61.500000 115.937653
61.500000 116.380911
61.500000 116.825009
61.500000 117.269947
61.500000 117.715725
61.500000 118.162344
61.500000 118.609803
61.500000 119.058103
61.500000 119.507242
61.500000 119.957222
61.500000 120.408042
61.500000 120.859703
61.500000 121.312204
61.500000 121.765545
61.500000 122.219726
61.500000 122.674748
61.500000 123.130610
61.500000 123.587312
61.500000 124.044855
61.500000 124.503238
61.500000 124.962461
61.500000 125.422525
61.500000 125.883428
61.500000 126.345173
61.500000 126.807757
61.500000 127.271182
61.500000 127.735447
61.500000 128.200552
61.500000 128.666498
61.500000 129.133283
61.500000 129.600910
61.500000 130.069376
61.500000 130.538683
61.500000 131.008830
61.500000 131.479818
61.500000 131.951645
61.500000 132.424313
61.500000 132.897821
61.500000 133.372170
61.500000 133.847359
61.500000 134.323388
61.500000 134.800258
61.500000 135.277967
61.500000 135.756518
61.500000 136.235908
61.500000 136.716139
61.500000 137.197210
61.500000 137.679121
61.500000 138.161872
61.500000 138.645464
61.500000 139.129897
61.500000 139.615169
61.500000 140.101282
61.500000 140.588235
61.500000 141.076028
61.500000 141.564662
61.500000 142.054136
61.500000 142.544450
61.500000 143.035605
61.500000 143.527600
61.500000 144.020435
61.500000 144.514110
61.500000 145.008626
61.500000 145.503982
61.500000 146.000178
61.500000 146.497215
61.500000 146.995092
61.500000 147.493809
61.500000 147.993367
61.500000 148.493765
61.500000 148.995003
61.500000 149.497081
61.500000 150.000000
</POINTS>
</NEKTAR>

