<?xml version="1.0" encoding="utf-8" ?>
<NEKTAR>
<POINTS DIM="2" FIELDS="">
896.500000 0.000000
896.500000 0.000418
896.500000 0.001672
896.500000 0.003763
896.500000 0.006689
896.500000 0.010451
896.500000 0.015050
896.500000 0.020485
896.500000 0.026756
896.500000 0.033863
896.500000 0.041806
896.500000 0.050585
896.500000 0.060201
896.500000 0.070652
896.500000 0.081940
896.500000 0.094063
896.500000 0.107023
896.500000 0.120819
896.500000 0.135451
896.500000 0.150919
896.500000 0.167224
896.500000 0.184364
896.500000 0.202341
896.500000 0.221153
896.500000 0.240802
896.500000 0.261287
896.500000 0.282608
896.500000 0.304765
896.500000 0.327758
896.500000 0.351588
896.500000 0.376253
896.500000 0.401755
896.500000 0.428092
896.500000 0.455266
896.500000 0.483276
896.500000 0.512122
896.500000 0.541805
896.500000 0.572323
896.500000 0.603677
896.500000 0.635868
896.500000 0.668894
896.500000 0.702757
896.500000 0.737456
896.500000 0.772991
896.500000 0.809362
896.500000 0.846570
896.500000 0.884613
896.500000 0.923492
896.500000 0.963208
896.500000 1.003760
896.500000 1.045148
896.500000 1.087372
896.500000 1.130432
896.500000 1.174328
896.500000 1.219060
896.500000 1.264629
896.500000 1.311033
896.500000 1.358274
896.500000 1.406351
896.500000 1.455264
896.500000 1.505013
896.500000 1.555598
896.500000 1.607019
896.500000 1.659276
896.500000 1.712370
896.500000 1.766299
896.500000 1.821065
896.500000 1.876667
896.500000 1.933105
896.500000 1.990379
896.500000 2.048489
896.500000 2.107436
896.500000 2.167218
896.500000 2.227837
896.500000 2.289291
896.500000 2.351582
896.500000 2.414709
896.500000 2.478672
896.500000 2.543471
896.500000 2.609106
896.500000 2.675578
896.500000 2.742885
896.500000 2.811029
896.500000 2.880009
896.500000 2.949825
896.500000 3.020477
896.500000 3.091965
896.500000 3.164289
896.500000 3.237449
896.500000 3.311446
896.500000 3.386278
896.500000 3.461947
896.500000 3.538452
896.500000 3.615793
896.500000 3.693970
896.500000 3.772983
896.500000 3.852832
896.500000 3.933517
896.500000 4.015039
896.500000 4.097397
896.500000 4.180590
896.500000 4.264620
896.500000 4.349486
896.500000 4.435188
896.500000 4.521727
896.500000 4.609101
896.500000 4.697311
896.500000 4.786358
896.500000 4.876241
896.500000 4.966959
896.500000 5.058514
896.500000 5.150905
896.500000 5.244133
896.500000 5.338196
896.500000 5.433095
896.500000 5.528831
896.500000 5.625402
896.500000 5.722810
896.500000 5.821054
896.500000 5.920134
896.500000 6.020050
896.500000 6.120802
896.500000 6.222391
896.500000 6.324815
896.500000 6.428076
896.500000 6.532172
896.500000 6.637105
896.500000 6.742874
896.500000 6.849479
896.500000 6.956920
896.500000 7.065198
896.500000 7.174311
896.500000 7.284261
896.500000 7.395046
896.500000 7.506668
896.500000 7.619126
896.500000 7.732420
896.500000 7.846550
896.500000 7.961516
896.500000 8.077319
896.500000 8.193957
896.500000 8.311432
896.500000 8.429742
896.500000 8.548889
896.500000 8.668872
896.500000 8.789691
896.500000 8.911346
896.500000 9.033838
896.500000 9.157165
896.500000 9.281329
896.500000 9.406328
896.500000 9.532164
896.500000 9.658836
896.500000 9.786344
896.500000 9.914688
896.500000 10.043868
896.500000 10.173885
896.500000 10.304737
896.500000 10.436426
896.500000 10.568950
896.500000 10.702311
896.500000 10.836508
896.500000 10.971541
896.500000 11.107411
896.500000 11.244116
896.500000 11.381657
896.500000 11.520035
896.500000 11.659248
896.500000 11.799298
896.500000 11.940184
896.500000 12.081906
896.500000 12.224464
896.500000 12.367859
896.500000 12.512089
896.500000 12.657155
896.500000 12.803058
896.500000 12.949797
896.500000 13.097372
896.500000 13.245782
896.500000 13.395030
896.500000 13.545113
896.500000 13.696032
896.500000 13.847787
896.500000 14.000379
896.500000 14.153807
896.500000 14.308070
896.500000 14.463170
896.500000 14.619106
896.500000 14.775879
896.500000 14.933487
896.500000 15.091931
896.500000 15.251212
896.500000 15.411328
896.500000 15.572281
896.500000 15.734070
896.500000 15.896695
896.500000 16.060156
896.500000 16.224453
896.500000 16.389586
896.500000 16.555556
896.500000 16.722361
896.500000 16.890003
896.500000 17.058481
896.500000 17.227795
896.500000 17.397945
896.500000 17.568931
896.500000 17.740753
896.500000 17.913412
896.500000 18.086906
896.500000 18.261237
896.500000 18.436403
896.500000 18.612406
896.500000 18.789245
896.500000 18.966920
896.500000 19.145432
896.500000 19.324779
896.500000 19.504962
896.500000 19.685982
896.500000 19.867838
896.500000 20.050529
896.500000 20.234057
896.500000 20.418421
896.500000 20.603622
896.500000 20.789658
896.500000 20.976530
896.500000 21.164239
896.500000 21.352783
896.500000 21.542164
896.500000 21.732381
896.500000 21.923434
896.500000 22.115323
896.500000 22.308048
896.500000 22.501610
896.500000 22.696007
896.500000 22.891241
896.500000 23.087310
896.500000 23.284216
896.500000 23.481958
896.500000 23.680536
896.500000 23.879950
896.500000 24.080200
896.500000 24.281287
896.500000 24.483209
896.500000 24.685968
896.500000 24.889563
896.500000 25.093994
896.500000 25.299261
896.500000 25.505364
896.500000 25.712303
896.500000 25.920078
896.500000 26.128690
896.500000 26.338137
896.500000 26.548421
896.500000 26.759541
896.500000 26.971497
896.500000 27.184289
896.500000 27.397917
896.500000 27.612381
896.500000 27.827682
896.500000 28.043818
896.500000 28.260791
896.500000 28.478600
896.500000 28.697244
896.500000 28.916725
896.500000 29.137043
896.500000 29.358196
896.500000 29.580185
896.500000 29.803011
896.500000 30.026672
896.500000 30.251170
896.500000 30.476504
896.500000 30.702674
896.500000 30.929680
896.500000 31.157522
896.500000 31.386200
896.500000 31.615715
896.500000 31.846065
896.500000 32.077252
896.500000 32.309275
896.500000 32.542133
896.500000 32.775828
896.500000 33.010360
896.500000 33.245727
896.500000 33.481930
896.500000 33.718970
896.500000 33.956845
896.500000 34.195557
896.500000 34.435105
896.500000 34.675489
896.500000 34.916709
896.500000 35.158765
896.500000 35.401657
896.500000 35.645386
896.500000 35.889950
896.500000 36.135351
896.500000 36.381588
896.500000 36.628660
896.500000 36.876569
896.500000 37.125315
896.500000 37.374896
896.500000 37.625313
896.500000 37.876567
896.500000 38.128656
896.500000 38.381582
896.500000 38.635344
896.500000 38.889942
896.500000 39.145376
896.500000 39.401646
896.500000 39.658752
896.500000 39.916695
896.500000 40.175473
896.500000 40.435088
896.500000 40.695539
896.500000 40.956826
896.500000 41.218949
896.500000 41.481908
896.500000 41.745703
896.500000 42.010334
896.500000 42.275802
896.500000 42.542106
896.500000 42.809245
896.500000 43.077221
896.500000 43.346033
896.500000 43.615681
896.500000 43.886165
896.500000 44.157486
896.500000 44.429642
896.500000 44.702635
896.500000 44.976463
896.500000 45.251128
896.500000 45.526629
896.500000 45.802966
896.500000 46.080139
896.500000 46.358148
896.500000 46.636994
896.500000 46.916675
896.500000 47.197193
896.500000 47.478547
896.500000 47.760736
896.500000 48.043762
896.500000 48.327625
896.500000 48.612323
896.500000 48.897857
896.500000 49.184227
896.500000 49.471434
896.500000 49.759477
896.500000 50.048355
896.500000 50.338070
896.500000 50.628621
896.500000 50.920009
896.500000 51.212232
896.500000 51.505291
896.500000 51.799187
896.500000 52.093918
896.500000 52.389486
896.500000 52.685890
896.500000 52.983130
896.500000 53.281206
896.500000 53.580118
896.500000 53.879867
896.500000 54.180451
896.500000 54.481872
896.500000 54.784128
896.500000 55.087221
896.500000 55.391150
896.500000 55.695915
896.500000 56.001516
896.500000 56.307953
896.500000 56.615227
896.500000 56.923336
896.500000 57.232282
896.500000 57.542064
896.500000 57.852682
896.500000 58.164136
896.500000 58.476426
896.500000 58.789552
896.500000 59.103514
896.500000 59.418313
896.500000 59.733947
896.500000 60.050418
896.500000 60.367725
896.500000 60.685868
896.500000 61.004847
896.500000 61.324662
896.500000 61.645313
896.500000 61.966801
896.500000 62.289124
896.500000 62.612284
896.500000 62.936279
896.500000 63.261111
896.500000 63.586779
896.500000 63.913283
896.500000 64.240624
896.500000 64.568800
896.500000 64.897812
896.500000 65.227661
896.500000 65.558346
896.500000 65.889867
896.500000 66.222223
896.500000 66.555417
896.500000 66.889446
896.500000 67.224311
896.500000 67.560012
896.500000 67.896550
896.500000 68.233924
896.500000 68.572133
896.500000 68.911179
896.500000 69.251061
896.500000 69.591779
896.500000 69.933334
896.500000 70.275724
896.500000 70.618950
896.500000 70.963013
896.500000 71.307912
896.500000 71.653646
896.500000 72.000217
896.500000 72.347624
896.500000 72.695868
896.500000 73.044947
896.500000 73.394862
896.500000 73.745614
896.500000 74.097202
896.500000 74.449625
896.500000 74.802885
896.500000 75.156981
896.500000 75.511913
896.500000 75.867682
896.500000 76.224286
896.500000 76.581726
896.500000 76.940003
896.500000 77.299116
896.500000 77.659064
896.500000 78.019849
896.500000 78.381471
896.500000 78.743928
896.500000 79.107221
896.500000 79.471350
896.500000 79.836316
896.500000 80.202118
896.500000 80.568755
896.500000 80.936229
896.500000 81.304539
896.500000 81.673685
896.500000 82.043668
896.500000 82.414486
896.500000 82.786141
896.500000 83.158631
896.500000 83.531958
896.500000 83.906121
896.500000 84.281120
896.500000 84.656955
896.500000 85.033626
896.500000 85.411133
896.500000 85.789477
896.500000 86.168656
896.500000 86.548672
896.500000 86.929524
896.500000 87.311212
896.500000 87.693736
896.500000 88.077096
896.500000 88.461292
896.500000 88.846324
896.500000 89.232193
896.500000 89.618897
896.500000 90.006438
896.500000 90.394815
896.500000 90.784028
896.500000 91.174077
896.500000 91.564962
896.500000 91.956684
896.500000 92.349241
896.500000 92.742634
896.500000 93.136864
896.500000 93.531930
896.500000 93.927832
896.500000 94.324570
896.500000 94.722144
896.500000 95.120554
896.500000 95.519801
896.500000 95.919883
896.500000 96.320802
896.500000 96.722557
896.500000 97.125147
896.500000 97.528574
896.500000 97.932837
896.500000 98.337937
896.500000 98.743872
896.500000 99.150643
896.500000 99.558251
896.500000 99.966695
896.500000 100.375974
896.500000 100.786090
896.500000 101.197042
896.500000 101.608831
896.500000 102.021455
896.500000 102.434915
896.500000 102.849212
896.500000 103.264344
896.500000 103.680313
896.500000 104.097118
896.500000 104.514759
896.500000 104.933236
896.500000 105.352549
896.500000 105.772699
896.500000 106.193684
896.500000 106.615506
896.500000 107.038163
896.500000 107.461657
896.500000 107.885987
896.500000 108.311153
896.500000 108.737155
896.500000 109.163993
896.500000 109.591668
896.500000 110.020178
896.500000 110.449525
896.500000 110.879708
896.500000 111.310727
896.500000 111.742582
896.500000 112.175273
896.500000 112.608800
896.500000 113.043163
896.500000 113.478363
896.500000 113.914398
896.500000 114.351270
896.500000 114.788978
896.500000 115.227522
896.500000 115.666902
896.500000 116.107118
896.500000 116.548170
896.500000 116.990059
896.500000 117.432783
896.500000 117.876344
896.500000 118.320740
896.500000 118.765973
896.500000 119.212042
896.500000 119.658947
896.500000 120.106689
896.500000 120.555266
896.500000 121.004679
896.500000 121.454929
896.500000 121.906015
896.500000 122.357937
896.500000 122.810695
896.500000 123.264289
896.500000 123.718719
896.500000 124.173985
896.500000 124.630087
896.500000 125.087026
896.500000 125.544801
896.500000 126.003411
896.500000 126.462858
896.500000 126.923141
896.500000 127.384260
896.500000 127.846216
896.500000 128.309007
896.500000 128.772634
896.500000 129.237098
896.500000 129.702398
896.500000 130.168534
896.500000 130.635505
896.500000 131.103314
896.500000 131.571958
896.500000 132.041438
896.500000 132.511754
896.500000 132.982907
896.500000 133.454896
896.500000 133.927720
896.500000 134.401381
896.500000 134.875878
896.500000 135.351211
896.500000 135.827381
896.500000 136.304386
896.500000 136.782227
896.500000 137.260905
896.500000 137.740419
896.500000 138.220769
896.500000 138.701955
896.500000 139.183977
896.500000 139.666835
896.500000 140.150529
896.500000 140.635060
896.500000 141.120426
896.500000 141.606629
896.500000 142.093668
896.500000 142.581542
896.500000 143.070253
896.500000 143.559801
896.500000 144.050184
896.500000 144.541403
896.500000 145.033459
896.500000 145.526350
896.500000 146.020078
896.500000 146.514642
896.500000 147.010042
896.500000 147.506278
896.500000 148.003350
896.500000 148.501258
896.500000 149.000003
896.500000 149.499583
896.500000 150.000000
</POINTS>
</NEKTAR>

