<?xml version="1.0" encoding="utf-8" ?>
<NEKTAR>
<POINTS DIM="2" FIELDS="">
42.500000 -0.750000
42.500000 -0.749580
42.500000 -0.748319
42.500000 -0.746219
42.500000 -0.743278
42.500000 -0.739496
42.500000 -0.734875
42.500000 -0.729413
42.500000 -0.723110
42.500000 -0.715968
42.500000 -0.707985
42.500000 -0.699162
42.500000 -0.689498
42.500000 -0.678995
42.500000 -0.667651
42.500000 -0.655466
42.500000 -0.642442
42.500000 -0.628577
42.500000 -0.613872
42.500000 -0.598326
42.500000 -0.581940
42.500000 -0.564714
42.500000 -0.546648
42.500000 -0.527741
42.500000 -0.507994
42.500000 -0.487407
42.500000 -0.465979
42.500000 -0.443711
42.500000 -0.420603
42.500000 -0.396654
42.500000 -0.371866
42.500000 -0.346236
42.500000 -0.319767
42.500000 -0.292457
42.500000 -0.264307
42.500000 -0.235317
42.500000 -0.205486
42.500000 -0.174816
42.500000 -0.143304
42.500000 -0.110953
42.500000 -0.077761
42.500000 -0.043729
42.500000 -0.008857
42.500000 0.026856
42.500000 0.063409
42.500000 0.100802
42.500000 0.139036
42.500000 0.178110
42.500000 0.218024
42.500000 0.258779
42.500000 0.300373
42.500000 0.342808
42.500000 0.386084
42.500000 0.430199
42.500000 0.475155
42.500000 0.520952
42.500000 0.567588
42.500000 0.615065
42.500000 0.663382
42.500000 0.712540
42.500000 0.762538
42.500000 0.813376
42.500000 0.865054
42.500000 0.917573
42.500000 0.970932
42.500000 1.025131
42.500000 1.080170
42.500000 1.136050
42.500000 1.192771
42.500000 1.250331
42.500000 1.308732
42.500000 1.367973
42.500000 1.428054
42.500000 1.488976
42.500000 1.550738
42.500000 1.613340
42.500000 1.676783
42.500000 1.741065
42.500000 1.806189
42.500000 1.872152
42.500000 1.938956
42.500000 2.006600
42.500000 2.075084
42.500000 2.144409
42.500000 2.214574
42.500000 2.285579
42.500000 2.357424
42.500000 2.430110
42.500000 2.503636
42.500000 2.578003
42.500000 2.653210
42.500000 2.729257
42.500000 2.806144
42.500000 2.883872
42.500000 2.962439
42.500000 3.041848
42.500000 3.122096
42.500000 3.203185
42.500000 3.285114
42.500000 3.367884
42.500000 3.451493
42.500000 3.535943
42.500000 3.621234
42.500000 3.707364
42.500000 3.794335
42.500000 3.882146
42.500000 3.970798
42.500000 4.060290
42.500000 4.150622
42.500000 4.241794
42.500000 4.333807
42.500000 4.426660
42.500000 4.520353
42.500000 4.614887
42.500000 4.710261
42.500000 4.806475
42.500000 4.903529
42.500000 5.001424
42.500000 5.100159
42.500000 5.199735
42.500000 5.300150
42.500000 5.401406
42.500000 5.503503
42.500000 5.606439
42.500000 5.710216
42.500000 5.814833
42.500000 5.920291
42.500000 6.026589
42.500000 6.133727
42.500000 6.241705
42.500000 6.350524
42.500000 6.460183
42.500000 6.570682
42.500000 6.682022
42.500000 6.794201
42.500000 6.907222
42.500000 7.021082
42.500000 7.135783
42.500000 7.251324
42.500000 7.367705
42.500000 7.484927
42.500000 7.602989
42.500000 7.721891
42.500000 7.841634
42.500000 7.962217
42.500000 8.083640
42.500000 8.205903
42.500000 8.329007
42.500000 8.452951
42.500000 8.577735
42.500000 8.703360
42.500000 8.829825
42.500000 8.957130
42.500000 9.085276
42.500000 9.214262
42.500000 9.344088
42.500000 9.474754
42.500000 9.606261
42.500000 9.738608
42.500000 9.871795
42.500000 10.005823
42.500000 10.140691
42.500000 10.276399
42.500000 10.412948
42.500000 10.550336
42.500000 10.688566
42.500000 10.827635
42.500000 10.967545
42.500000 11.108295
42.500000 11.249885
42.500000 11.392316
42.500000 11.535587
42.500000 11.679698
42.500000 11.824649
42.500000 11.970441
42.500000 12.117073
42.500000 12.264546
42.500000 12.412858
42.500000 12.562011
42.500000 12.712005
42.500000 12.862838
42.500000 13.014512
42.500000 13.167026
42.500000 13.320381
42.500000 13.474576
42.500000 13.629611
42.500000 13.785486
42.500000 13.942202
42.500000 14.099758
42.500000 14.258154
42.500000 14.417391
42.500000 14.577468
42.500000 14.738385
42.500000 14.900142
42.500000 15.062740
42.500000 15.226178
42.500000 15.390457
42.500000 15.555575
42.500000 15.721534
42.500000 15.888334
42.500000 16.055973
42.500000 16.224453
42.500000 16.393773
42.500000 16.563934
42.500000 16.734935
42.500000 16.906776
42.500000 17.079457
42.500000 17.252979
42.500000 17.427341
42.500000 17.602543
42.500000 17.778585
42.500000 17.955468
42.500000 18.133192
42.500000 18.311755
42.500000 18.491159
42.500000 18.671403
42.500000 18.852487
42.500000 19.034412
42.500000 19.217177
42.500000 19.400782
42.500000 19.585228
42.500000 19.770513
42.500000 19.956640
42.500000 20.143606
42.500000 20.331413
42.500000 20.520060
42.500000 20.709547
42.500000 20.899875
42.500000 21.091043
42.500000 21.283051
42.500000 21.475900
42.500000 21.669588
42.500000 21.864118
42.500000 22.059487
42.500000 22.255697
42.500000 22.452747
42.500000 22.650637
42.500000 22.849368
42.500000 23.048939
42.500000 23.249350
42.500000 23.450601
42.500000 23.652693
42.500000 23.855625
42.500000 24.059398
42.500000 24.264011
42.500000 24.469464
42.500000 24.675757
42.500000 24.882891
42.500000 25.090864
42.500000 25.299679
42.500000 25.509333
42.500000 25.719828
42.500000 25.931163
42.500000 26.143339
42.500000 26.356354
42.500000 26.570210
42.500000 26.784907
42.500000 27.000443
42.500000 27.216820
42.500000 27.434037
42.500000 27.652095
42.500000 27.870993
42.500000 28.090731
42.500000 28.311309
42.500000 28.532728
42.500000 28.754987
42.500000 28.978086
42.500000 29.202026
42.500000 29.426806
42.500000 29.652426
42.500000 29.878886
42.500000 30.106187
42.500000 30.334328
42.500000 30.563309
42.500000 30.793131
42.500000 31.023793
42.500000 31.255295
42.500000 31.487638
42.500000 31.720821
42.500000 31.954844
42.500000 32.189708
42.500000 32.425411
42.500000 32.661955
42.500000 32.899340
42.500000 33.137564
42.500000 33.376629
42.500000 33.616535
42.500000 33.857280
42.500000 34.098866
42.500000 34.341292
42.500000 34.584559
42.500000 34.828665
42.500000 35.073613
42.500000 35.319400
42.500000 35.566028
42.500000 35.813496
42.500000 36.061804
42.500000 36.310952
42.500000 36.560941
42.500000 36.811770
42.500000 37.063440
42.500000 37.315950
42.500000 37.569300
42.500000 37.823490
42.500000 38.078521
42.500000 38.334391
42.500000 38.591103
42.500000 38.848654
42.500000 39.107046
42.500000 39.366278
42.500000 39.626351
42.500000 39.887263
42.500000 40.149016
42.500000 40.411610
42.500000 40.675043
42.500000 40.939317
42.500000 41.204432
42.500000 41.470386
42.500000 41.737181
42.500000 42.004816
42.500000 42.273291
42.500000 42.542607
42.500000 42.812763
42.500000 43.083760
42.500000 43.355596
42.500000 43.628273
42.500000 43.901790
42.500000 44.176148
42.500000 44.451346
42.500000 44.727384
42.500000 45.004262
42.500000 45.281981
42.500000 45.560540
42.500000 45.839939
42.500000 46.120179
42.500000 46.401259
42.500000 46.683179
42.500000 46.965939
42.500000 47.249540
42.500000 47.533981
42.500000 47.819263
42.500000 48.105384
42.500000 48.392346
42.500000 48.680149
42.500000 48.968791
42.500000 49.258274
42.500000 49.548597
42.500000 49.839761
42.500000 50.131765
42.500000 50.424609
42.500000 50.718293
42.500000 51.012818
42.500000 51.308183
42.500000 51.604388
42.500000 51.901434
42.500000 52.199319
42.500000 52.498046
42.500000 52.797612
42.500000 53.098019
42.500000 53.399266
42.500000 53.701353
42.500000 54.004281
42.500000 54.308049
42.500000 54.612657
42.500000 54.918106
42.500000 55.224395
42.500000 55.531524
42.500000 55.839493
42.500000 56.148303
42.500000 56.457953
42.500000 56.768443
42.500000 57.079774
42.500000 57.391945
42.500000 57.704956
42.500000 58.018808
42.500000 58.333500
42.500000 58.649032
42.500000 58.965404
42.500000 59.282617
42.500000 59.600670
42.500000 59.919563
42.500000 60.239297
42.500000 60.559871
42.500000 60.881285
42.500000 61.203540
42.500000 61.526635
42.500000 61.850570
42.500000 62.175345
42.500000 62.500961
42.500000 62.827417
42.500000 63.154713
42.500000 63.482850
42.500000 63.811827
42.500000 64.141644
42.500000 64.472301
42.500000 64.803799
42.500000 65.136137
42.500000 65.469316
42.500000 65.803335
42.500000 66.138194
42.500000 66.473893
42.500000 66.810433
42.500000 67.147812
42.500000 67.486033
42.500000 67.825093
42.500000 68.164994
42.500000 68.505735
42.500000 68.847316
42.500000 69.189738
42.500000 69.533000
42.500000 69.877102
42.500000 70.222045
42.500000 70.567828
42.500000 70.914451
42.500000 71.261915
42.500000 71.610218
42.500000 71.959363
42.500000 72.309347
42.500000 72.660172
42.500000 73.011837
42.500000 73.364342
42.500000 73.717688
42.500000 74.071873
42.500000 74.426900
42.500000 74.782766
42.500000 75.139473
42.500000 75.497020
42.500000 75.855407
42.500000 76.214635
42.500000 76.574703
42.500000 76.935611
42.500000 77.297360
42.500000 77.659949
42.500000 78.023378
42.500000 78.387647
42.500000 78.752757
42.500000 79.118707
42.500000 79.485498
42.500000 79.853128
42.500000 80.221599
42.500000 80.590910
42.500000 80.961062
42.500000 81.332054
42.500000 81.703886
42.500000 82.076558
42.500000 82.450071
42.500000 82.824424
42.500000 83.199618
42.500000 83.575651
42.500000 83.952525
42.500000 84.330239
42.500000 84.708794
42.500000 85.088189
42.500000 85.468424
42.500000 85.849499
42.500000 86.231415
42.500000 86.614171
42.500000 86.997768
42.500000 87.382204
42.500000 87.767481
42.500000 88.153598
42.500000 88.540556
42.500000 88.928354
42.500000 89.316992
42.500000 89.706470
42.500000 90.096789
42.500000 90.487948
42.500000 90.879947
42.500000 91.272787
42.500000 91.666467
42.500000 92.060987
42.500000 92.456348
42.500000 92.852548
42.500000 93.249590
42.500000 93.647471
42.500000 94.046193
42.500000 94.445755
42.500000 94.846157
42.500000 95.247400
42.500000 95.649483
42.500000 96.052406
42.500000 96.456169
42.500000 96.860773
42.500000 97.266217
42.500000 97.672502
42.500000 98.079626
42.500000 98.487591
42.500000 98.896397
42.500000 99.306042
42.500000 99.716528
42.500000 100.127854
42.500000 100.540021
42.500000 100.953028
42.500000 101.366875
42.500000 101.781562
42.500000 102.197090
42.500000 102.613458
42.500000 103.030666
42.500000 103.448715
42.500000 103.867603
42.500000 104.287333
42.500000 104.707902
42.500000 105.129312
42.500000 105.551562
42.500000 105.974652
42.500000 106.398583
42.500000 106.823354
42.500000 107.248965
42.500000 107.675417
42.500000 108.102709
42.500000 108.530841
42.500000 108.959813
42.500000 109.389626
42.500000 109.820279
42.500000 110.251773
42.500000 110.684106
42.500000 111.117280
42.500000 111.551294
42.500000 111.986149
42.500000 112.421844
42.500000 112.858379
42.500000 113.295754
42.500000 113.733970
42.500000 114.173026
42.500000 114.612923
42.500000 115.053659
42.500000 115.495236
42.500000 115.937653
42.500000 116.380911
42.500000 116.825009
42.500000 117.269947
42.500000 117.715725
42.500000 118.162344
42.500000 118.609803
42.500000 119.058103
42.500000 119.507242
42.500000 119.957222
42.500000 120.408042
42.500000 120.859703
42.500000 121.312204
42.500000 121.765545
42.500000 122.219726
42.500000 122.674748
42.500000 123.130610
42.500000 123.587312
42.500000 124.044855
42.500000 124.503238
42.500000 124.962461
42.500000 125.422525
42.500000 125.883428
42.500000 126.345173
42.500000 126.807757
42.500000 127.271182
42.500000 127.735447
42.500000 128.200552
42.500000 128.666498
42.500000 129.133283
42.500000 129.600910
42.500000 130.069376
42.500000 130.538683
42.500000 131.008830
42.500000 131.479818
42.500000 131.951645
42.500000 132.424313
42.500000 132.897821
42.500000 133.372170
42.500000 133.847359
42.500000 134.323388
42.500000 134.800258
42.500000 135.277967
42.500000 135.756518
42.500000 136.235908
42.500000 136.716139
42.500000 137.197210
42.500000 137.679121
42.500000 138.161872
42.500000 138.645464
42.500000 139.129897
42.500000 139.615169
42.500000 140.101282
42.500000 140.588235
42.500000 141.076028
42.500000 141.564662
42.500000 142.054136
42.500000 142.544450
42.500000 143.035605
42.500000 143.527600
42.500000 144.020435
42.500000 144.514110
42.500000 145.008626
42.500000 145.503982
42.500000 146.000178
42.500000 146.497215
42.500000 146.995092
42.500000 147.493809
42.500000 147.993367
42.500000 148.493765
42.500000 148.995003
42.500000 149.497081
42.500000 150.000000
</POINTS>
</NEKTAR>

