<?xml version="1.0" encoding="utf-8" ?>
<NEKTAR>
<POINTS DIM="2" FIELDS="">
104.500000 0.000000
104.500000 0.000418
104.500000 0.001672
104.500000 0.003763
104.500000 0.006689
104.500000 0.010451
104.500000 0.015050
104.500000 0.020485
104.500000 0.026756
104.500000 0.033863
104.500000 0.041806
104.500000 0.050585
104.500000 0.060201
104.500000 0.070652
104.500000 0.081940
104.500000 0.094063
104.500000 0.107023
104.500000 0.120819
104.500000 0.135451
104.500000 0.150919
104.500000 0.167224
104.500000 0.184364
104.500000 0.202341
104.500000 0.221153
104.500000 0.240802
104.500000 0.261287
104.500000 0.282608
104.500000 0.304765
104.500000 0.327758
104.500000 0.351588
104.500000 0.376253
104.500000 0.401755
104.500000 0.428092
104.500000 0.455266
104.500000 0.483276
104.500000 0.512122
104.500000 0.541805
104.500000 0.572323
104.500000 0.603677
104.500000 0.635868
104.500000 0.668894
104.500000 0.702757
104.500000 0.737456
104.500000 0.772991
104.500000 0.809362
104.500000 0.846570
104.500000 0.884613
104.500000 0.923492
104.500000 0.963208
104.500000 1.003760
104.500000 1.045148
104.500000 1.087372
104.500000 1.130432
104.500000 1.174328
104.500000 1.219060
104.500000 1.264629
104.500000 1.311033
104.500000 1.358274
104.500000 1.406351
104.500000 1.455264
104.500000 1.505013
104.500000 1.555598
104.500000 1.607019
104.500000 1.659276
104.500000 1.712370
104.500000 1.766299
104.500000 1.821065
104.500000 1.876667
104.500000 1.933105
104.500000 1.990379
104.500000 2.048489
104.500000 2.107436
104.500000 2.167218
104.500000 2.227837
104.500000 2.289291
104.500000 2.351582
104.500000 2.414709
104.500000 2.478672
104.500000 2.543471
104.500000 2.609106
104.500000 2.675578
104.500000 2.742885
104.500000 2.811029
104.500000 2.880009
104.500000 2.949825
104.500000 3.020477
104.500000 3.091965
104.500000 3.164289
104.500000 3.237449
104.500000 3.311446
104.500000 3.386278
104.500000 3.461947
104.500000 3.538452
104.500000 3.615793
104.500000 3.693970
104.500000 3.772983
104.500000 3.852832
104.500000 3.933517
104.500000 4.015039
104.500000 4.097397
104.500000 4.180590
104.500000 4.264620
104.500000 4.349486
104.500000 4.435188
104.500000 4.521727
104.500000 4.609101
104.500000 4.697311
104.500000 4.786358
104.500000 4.876241
104.500000 4.966959
104.500000 5.058514
104.500000 5.150905
104.500000 5.244133
104.500000 5.338196
104.500000 5.433095
104.500000 5.528831
104.500000 5.625402
104.500000 5.722810
104.500000 5.821054
104.500000 5.920134
104.500000 6.020050
104.500000 6.120802
104.500000 6.222391
104.500000 6.324815
104.500000 6.428076
104.500000 6.532172
104.500000 6.637105
104.500000 6.742874
104.500000 6.849479
104.500000 6.956920
104.500000 7.065198
104.500000 7.174311
104.500000 7.284261
104.500000 7.395046
104.500000 7.506668
104.500000 7.619126
104.500000 7.732420
104.500000 7.846550
104.500000 7.961516
104.500000 8.077319
104.500000 8.193957
104.500000 8.311432
104.500000 8.429742
104.500000 8.548889
104.500000 8.668872
104.500000 8.789691
104.500000 8.911346
104.500000 9.033838
104.500000 9.157165
104.500000 9.281329
104.500000 9.406328
104.500000 9.532164
104.500000 9.658836
104.500000 9.786344
104.500000 9.914688
104.500000 10.043868
104.500000 10.173885
104.500000 10.304737
104.500000 10.436426
104.500000 10.568950
104.500000 10.702311
104.500000 10.836508
104.500000 10.971541
104.500000 11.107411
104.500000 11.244116
104.500000 11.381657
104.500000 11.520035
104.500000 11.659248
104.500000 11.799298
104.500000 11.940184
104.500000 12.081906
104.500000 12.224464
104.500000 12.367859
104.500000 12.512089
104.500000 12.657155
104.500000 12.803058
104.500000 12.949797
104.500000 13.097372
104.500000 13.245782
104.500000 13.395030
104.500000 13.545113
104.500000 13.696032
104.500000 13.847787
104.500000 14.000379
104.500000 14.153807
104.500000 14.308070
104.500000 14.463170
104.500000 14.619106
104.500000 14.775879
104.500000 14.933487
104.500000 15.091931
104.500000 15.251212
104.500000 15.411328
104.500000 15.572281
104.500000 15.734070
104.500000 15.896695
104.500000 16.060156
104.500000 16.224453
104.500000 16.389586
104.500000 16.555556
104.500000 16.722361
104.500000 16.890003
104.500000 17.058481
104.500000 17.227795
104.500000 17.397945
104.500000 17.568931
104.500000 17.740753
104.500000 17.913412
104.500000 18.086906
104.500000 18.261237
104.500000 18.436403
104.500000 18.612406
104.500000 18.789245
104.500000 18.966920
104.500000 19.145432
104.500000 19.324779
104.500000 19.504962
104.500000 19.685982
104.500000 19.867838
104.500000 20.050529
104.500000 20.234057
104.500000 20.418421
104.500000 20.603622
104.500000 20.789658
104.500000 20.976530
104.500000 21.164239
104.500000 21.352783
104.500000 21.542164
104.500000 21.732381
104.500000 21.923434
104.500000 22.115323
104.500000 22.308048
104.500000 22.501610
104.500000 22.696007
104.500000 22.891241
104.500000 23.087310
104.500000 23.284216
104.500000 23.481958
104.500000 23.680536
104.500000 23.879950
104.500000 24.080200
104.500000 24.281287
104.500000 24.483209
104.500000 24.685968
104.500000 24.889563
104.500000 25.093994
104.500000 25.299261
104.500000 25.505364
104.500000 25.712303
104.500000 25.920078
104.500000 26.128690
104.500000 26.338137
104.500000 26.548421
104.500000 26.759541
104.500000 26.971497
104.500000 27.184289
104.500000 27.397917
104.500000 27.612381
104.500000 27.827682
104.500000 28.043818
104.500000 28.260791
104.500000 28.478600
104.500000 28.697244
104.500000 28.916725
104.500000 29.137043
104.500000 29.358196
104.500000 29.580185
104.500000 29.803011
104.500000 30.026672
104.500000 30.251170
104.500000 30.476504
104.500000 30.702674
104.500000 30.929680
104.500000 31.157522
104.500000 31.386200
104.500000 31.615715
104.500000 31.846065
104.500000 32.077252
104.500000 32.309275
104.500000 32.542133
104.500000 32.775828
104.500000 33.010360
104.500000 33.245727
104.500000 33.481930
104.500000 33.718970
104.500000 33.956845
104.500000 34.195557
104.500000 34.435105
104.500000 34.675489
104.500000 34.916709
104.500000 35.158765
104.500000 35.401657
104.500000 35.645386
104.500000 35.889950
104.500000 36.135351
104.500000 36.381588
104.500000 36.628660
104.500000 36.876569
104.500000 37.125315
104.500000 37.374896
104.500000 37.625313
104.500000 37.876567
104.500000 38.128656
104.500000 38.381582
104.500000 38.635344
104.500000 38.889942
104.500000 39.145376
104.500000 39.401646
104.500000 39.658752
104.500000 39.916695
104.500000 40.175473
104.500000 40.435088
104.500000 40.695539
104.500000 40.956826
104.500000 41.218949
104.500000 41.481908
104.500000 41.745703
104.500000 42.010334
104.500000 42.275802
104.500000 42.542106
104.500000 42.809245
104.500000 43.077221
104.500000 43.346033
104.500000 43.615681
104.500000 43.886165
104.500000 44.157486
104.500000 44.429642
104.500000 44.702635
104.500000 44.976463
104.500000 45.251128
104.500000 45.526629
104.500000 45.802966
104.500000 46.080139
104.500000 46.358148
104.500000 46.636994
104.500000 46.916675
104.500000 47.197193
104.500000 47.478547
104.500000 47.760736
104.500000 48.043762
104.500000 48.327625
104.500000 48.612323
104.500000 48.897857
104.500000 49.184227
104.500000 49.471434
104.500000 49.759477
104.500000 50.048355
104.500000 50.338070
104.500000 50.628621
104.500000 50.920009
104.500000 51.212232
104.500000 51.505291
104.500000 51.799187
104.500000 52.093918
104.500000 52.389486
104.500000 52.685890
104.500000 52.983130
104.500000 53.281206
104.500000 53.580118
104.500000 53.879867
104.500000 54.180451
104.500000 54.481872
104.500000 54.784128
104.500000 55.087221
104.500000 55.391150
104.500000 55.695915
104.500000 56.001516
104.500000 56.307953
104.500000 56.615227
104.500000 56.923336
104.500000 57.232282
104.500000 57.542064
104.500000 57.852682
104.500000 58.164136
104.500000 58.476426
104.500000 58.789552
104.500000 59.103514
104.500000 59.418313
104.500000 59.733947
104.500000 60.050418
104.500000 60.367725
104.500000 60.685868
104.500000 61.004847
104.500000 61.324662
104.500000 61.645313
104.500000 61.966801
104.500000 62.289124
104.500000 62.612284
104.500000 62.936279
104.500000 63.261111
104.500000 63.586779
104.500000 63.913283
104.500000 64.240624
104.500000 64.568800
104.500000 64.897812
104.500000 65.227661
104.500000 65.558346
104.500000 65.889867
104.500000 66.222223
104.500000 66.555417
104.500000 66.889446
104.500000 67.224311
104.500000 67.560012
104.500000 67.896550
104.500000 68.233924
104.500000 68.572133
104.500000 68.911179
104.500000 69.251061
104.500000 69.591779
104.500000 69.933334
104.500000 70.275724
104.500000 70.618950
104.500000 70.963013
104.500000 71.307912
104.500000 71.653646
104.500000 72.000217
104.500000 72.347624
104.500000 72.695868
104.500000 73.044947
104.500000 73.394862
104.500000 73.745614
104.500000 74.097202
104.500000 74.449625
104.500000 74.802885
104.500000 75.156981
104.500000 75.511913
104.500000 75.867682
104.500000 76.224286
104.500000 76.581726
104.500000 76.940003
104.500000 77.299116
104.500000 77.659064
104.500000 78.019849
104.500000 78.381471
104.500000 78.743928
104.500000 79.107221
104.500000 79.471350
104.500000 79.836316
104.500000 80.202118
104.500000 80.568755
104.500000 80.936229
104.500000 81.304539
104.500000 81.673685
104.500000 82.043668
104.500000 82.414486
104.500000 82.786141
104.500000 83.158631
104.500000 83.531958
104.500000 83.906121
104.500000 84.281120
104.500000 84.656955
104.500000 85.033626
104.500000 85.411133
104.500000 85.789477
104.500000 86.168656
104.500000 86.548672
104.500000 86.929524
104.500000 87.311212
104.500000 87.693736
104.500000 88.077096
104.500000 88.461292
104.500000 88.846324
104.500000 89.232193
104.500000 89.618897
104.500000 90.006438
104.500000 90.394815
104.500000 90.784028
104.500000 91.174077
104.500000 91.564962
104.500000 91.956684
104.500000 92.349241
104.500000 92.742634
104.500000 93.136864
104.500000 93.531930
104.500000 93.927832
104.500000 94.324570
104.500000 94.722144
104.500000 95.120554
104.500000 95.519801
104.500000 95.919883
104.500000 96.320802
104.500000 96.722557
104.500000 97.125147
104.500000 97.528574
104.500000 97.932837
104.500000 98.337937
104.500000 98.743872
104.500000 99.150643
104.500000 99.558251
104.500000 99.966695
104.500000 100.375974
104.500000 100.786090
104.500000 101.197042
104.500000 101.608831
104.500000 102.021455
104.500000 102.434915
104.500000 102.849212
104.500000 103.264344
104.500000 103.680313
104.500000 104.097118
104.500000 104.514759
104.500000 104.933236
104.500000 105.352549
104.500000 105.772699
104.500000 106.193684
104.500000 106.615506
104.500000 107.038163
104.500000 107.461657
104.500000 107.885987
104.500000 108.311153
104.500000 108.737155
104.500000 109.163993
104.500000 109.591668
104.500000 110.020178
104.500000 110.449525
104.500000 110.879708
104.500000 111.310727
104.500000 111.742582
104.500000 112.175273
104.500000 112.608800
104.500000 113.043163
104.500000 113.478363
104.500000 113.914398
104.500000 114.351270
104.500000 114.788978
104.500000 115.227522
104.500000 115.666902
104.500000 116.107118
104.500000 116.548170
104.500000 116.990059
104.500000 117.432783
104.500000 117.876344
104.500000 118.320740
104.500000 118.765973
104.500000 119.212042
104.500000 119.658947
104.500000 120.106689
104.500000 120.555266
104.500000 121.004679
104.500000 121.454929
104.500000 121.906015
104.500000 122.357937
104.500000 122.810695
104.500000 123.264289
104.500000 123.718719
104.500000 124.173985
104.500000 124.630087
104.500000 125.087026
104.500000 125.544801
104.500000 126.003411
104.500000 126.462858
104.500000 126.923141
104.500000 127.384260
104.500000 127.846216
104.500000 128.309007
104.500000 128.772634
104.500000 129.237098
104.500000 129.702398
104.500000 130.168534
104.500000 130.635505
104.500000 131.103314
104.500000 131.571958
104.500000 132.041438
104.500000 132.511754
104.500000 132.982907
104.500000 133.454896
104.500000 133.927720
104.500000 134.401381
104.500000 134.875878
104.500000 135.351211
104.500000 135.827381
104.500000 136.304386
104.500000 136.782227
104.500000 137.260905
104.500000 137.740419
104.500000 138.220769
104.500000 138.701955
104.500000 139.183977
104.500000 139.666835
104.500000 140.150529
104.500000 140.635060
104.500000 141.120426
104.500000 141.606629
104.500000 142.093668
104.500000 142.581542
104.500000 143.070253
104.500000 143.559801
104.500000 144.050184
104.500000 144.541403
104.500000 145.033459
104.500000 145.526350
104.500000 146.020078
104.500000 146.514642
104.500000 147.010042
104.500000 147.506278
104.500000 148.003350
104.500000 148.501258
104.500000 149.000003
104.500000 149.499583
104.500000 150.000000
</POINTS>
</NEKTAR>

