<?xml version="1.0" encoding="utf-8" ?>
<NEKTAR>
<POINTS DIM="2" FIELDS="">
11.500000 -0.750000
11.500000 -0.749580
11.500000 -0.748319
11.500000 -0.746219
11.500000 -0.743278
11.500000 -0.739496
11.500000 -0.734875
11.500000 -0.729413
11.500000 -0.723110
11.500000 -0.715968
11.500000 -0.707985
11.500000 -0.699162
11.500000 -0.689498
11.500000 -0.678995
11.500000 -0.667651
11.500000 -0.655466
11.500000 -0.642442
11.500000 -0.628577
11.500000 -0.613872
11.500000 -0.598326
11.500000 -0.581940
11.500000 -0.564714
11.500000 -0.546648
11.500000 -0.527741
11.500000 -0.507994
11.500000 -0.487407
11.500000 -0.465979
11.500000 -0.443711
11.500000 -0.420603
11.500000 -0.396654
11.500000 -0.371866
11.500000 -0.346236
11.500000 -0.319767
11.500000 -0.292457
11.500000 -0.264307
11.500000 -0.235317
11.500000 -0.205486
11.500000 -0.174816
11.500000 -0.143304
11.500000 -0.110953
11.500000 -0.077761
11.500000 -0.043729
11.500000 -0.008857
11.500000 0.026856
11.500000 0.063409
11.500000 0.100802
11.500000 0.139036
11.500000 0.178110
11.500000 0.218024
11.500000 0.258779
11.500000 0.300373
11.500000 0.342808
11.500000 0.386084
11.500000 0.430199
11.500000 0.475155
11.500000 0.520952
11.500000 0.567588
11.500000 0.615065
11.500000 0.663382
11.500000 0.712540
11.500000 0.762538
11.500000 0.813376
11.500000 0.865054
11.500000 0.917573
11.500000 0.970932
11.500000 1.025131
11.500000 1.080170
11.500000 1.136050
11.500000 1.192771
11.500000 1.250331
11.500000 1.308732
11.500000 1.367973
11.500000 1.428054
11.500000 1.488976
11.500000 1.550738
11.500000 1.613340
11.500000 1.676783
11.500000 1.741065
11.500000 1.806189
11.500000 1.872152
11.500000 1.938956
11.500000 2.006600
11.500000 2.075084
11.500000 2.144409
11.500000 2.214574
11.500000 2.285579
11.500000 2.357424
11.500000 2.430110
11.500000 2.503636
11.500000 2.578003
11.500000 2.653210
11.500000 2.729257
11.500000 2.806144
11.500000 2.883872
11.500000 2.962439
11.500000 3.041848
11.500000 3.122096
11.500000 3.203185
11.500000 3.285114
11.500000 3.367884
11.500000 3.451493
11.500000 3.535943
11.500000 3.621234
11.500000 3.707364
11.500000 3.794335
11.500000 3.882146
11.500000 3.970798
11.500000 4.060290
11.500000 4.150622
11.500000 4.241794
11.500000 4.333807
11.500000 4.426660
11.500000 4.520353
11.500000 4.614887
11.500000 4.710261
11.500000 4.806475
11.500000 4.903529
11.500000 5.001424
11.500000 5.100159
11.500000 5.199735
11.500000 5.300150
11.500000 5.401406
11.500000 5.503503
11.500000 5.606439
11.500000 5.710216
11.500000 5.814833
11.500000 5.920291
11.500000 6.026589
11.500000 6.133727
11.500000 6.241705
11.500000 6.350524
11.500000 6.460183
11.500000 6.570682
11.500000 6.682022
11.500000 6.794201
11.500000 6.907222
11.500000 7.021082
11.500000 7.135783
11.500000 7.251324
11.500000 7.367705
11.500000 7.484927
11.500000 7.602989
11.500000 7.721891
11.500000 7.841634
11.500000 7.962217
11.500000 8.083640
11.500000 8.205903
11.500000 8.329007
11.500000 8.452951
11.500000 8.577735
11.500000 8.703360
11.500000 8.829825
11.500000 8.957130
11.500000 9.085276
11.500000 9.214262
11.500000 9.344088
11.500000 9.474754
11.500000 9.606261
11.500000 9.738608
11.500000 9.871795
11.500000 10.005823
11.500000 10.140691
11.500000 10.276399
11.500000 10.412948
11.500000 10.550336
11.500000 10.688566
11.500000 10.827635
11.500000 10.967545
11.500000 11.108295
11.500000 11.249885
11.500000 11.392316
11.500000 11.535587
11.500000 11.679698
11.500000 11.824649
11.500000 11.970441
11.500000 12.117073
11.500000 12.264546
11.500000 12.412858
11.500000 12.562011
11.500000 12.712005
11.500000 12.862838
11.500000 13.014512
11.500000 13.167026
11.500000 13.320381
11.500000 13.474576
11.500000 13.629611
11.500000 13.785486
11.500000 13.942202
11.500000 14.099758
11.500000 14.258154
11.500000 14.417391
11.500000 14.577468
11.500000 14.738385
11.500000 14.900142
11.500000 15.062740
11.500000 15.226178
11.500000 15.390457
11.500000 15.555575
11.500000 15.721534
11.500000 15.888334
11.500000 16.055973
11.500000 16.224453
11.500000 16.393773
11.500000 16.563934
11.500000 16.734935
11.500000 16.906776
11.500000 17.079457
11.500000 17.252979
11.500000 17.427341
11.500000 17.602543
11.500000 17.778585
11.500000 17.955468
11.500000 18.133192
11.500000 18.311755
11.500000 18.491159
11.500000 18.671403
11.500000 18.852487
11.500000 19.034412
11.500000 19.217177
11.500000 19.400782
11.500000 19.585228
11.500000 19.770513
11.500000 19.956640
11.500000 20.143606
11.500000 20.331413
11.500000 20.520060
11.500000 20.709547
11.500000 20.899875
11.500000 21.091043
11.500000 21.283051
11.500000 21.475900
11.500000 21.669588
11.500000 21.864118
11.500000 22.059487
11.500000 22.255697
11.500000 22.452747
11.500000 22.650637
11.500000 22.849368
11.500000 23.048939
11.500000 23.249350
11.500000 23.450601
11.500000 23.652693
11.500000 23.855625
11.500000 24.059398
11.500000 24.264011
11.500000 24.469464
11.500000 24.675757
11.500000 24.882891
11.500000 25.090864
11.500000 25.299679
11.500000 25.509333
11.500000 25.719828
11.500000 25.931163
11.500000 26.143339
11.500000 26.356354
11.500000 26.570210
11.500000 26.784907
11.500000 27.000443
11.500000 27.216820
11.500000 27.434037
11.500000 27.652095
11.500000 27.870993
11.500000 28.090731
11.500000 28.311309
11.500000 28.532728
11.500000 28.754987
11.500000 28.978086
11.500000 29.202026
11.500000 29.426806
11.500000 29.652426
11.500000 29.878886
11.500000 30.106187
11.500000 30.334328
11.500000 30.563309
11.500000 30.793131
11.500000 31.023793
11.500000 31.255295
11.500000 31.487638
11.500000 31.720821
11.500000 31.954844
11.500000 32.189708
11.500000 32.425411
11.500000 32.661955
11.500000 32.899340
11.500000 33.137564
11.500000 33.376629
11.500000 33.616535
11.500000 33.857280
11.500000 34.098866
11.500000 34.341292
11.500000 34.584559
11.500000 34.828665
11.500000 35.073613
11.500000 35.319400
11.500000 35.566028
11.500000 35.813496
11.500000 36.061804
11.500000 36.310952
11.500000 36.560941
11.500000 36.811770
11.500000 37.063440
11.500000 37.315950
11.500000 37.569300
11.500000 37.823490
11.500000 38.078521
11.500000 38.334391
11.500000 38.591103
11.500000 38.848654
11.500000 39.107046
11.500000 39.366278
11.500000 39.626351
11.500000 39.887263
11.500000 40.149016
11.500000 40.411610
11.500000 40.675043
11.500000 40.939317
11.500000 41.204432
11.500000 41.470386
11.500000 41.737181
11.500000 42.004816
11.500000 42.273291
11.500000 42.542607
11.500000 42.812763
11.500000 43.083760
11.500000 43.355596
11.500000 43.628273
11.500000 43.901790
11.500000 44.176148
11.500000 44.451346
11.500000 44.727384
11.500000 45.004262
11.500000 45.281981
11.500000 45.560540
11.500000 45.839939
11.500000 46.120179
11.500000 46.401259
11.500000 46.683179
11.500000 46.965939
11.500000 47.249540
11.500000 47.533981
11.500000 47.819263
11.500000 48.105384
11.500000 48.392346
11.500000 48.680149
11.500000 48.968791
11.500000 49.258274
11.500000 49.548597
11.500000 49.839761
11.500000 50.131765
11.500000 50.424609
11.500000 50.718293
11.500000 51.012818
11.500000 51.308183
11.500000 51.604388
11.500000 51.901434
11.500000 52.199319
11.500000 52.498046
11.500000 52.797612
11.500000 53.098019
11.500000 53.399266
11.500000 53.701353
11.500000 54.004281
11.500000 54.308049
11.500000 54.612657
11.500000 54.918106
11.500000 55.224395
11.500000 55.531524
11.500000 55.839493
11.500000 56.148303
11.500000 56.457953
11.500000 56.768443
11.500000 57.079774
11.500000 57.391945
11.500000 57.704956
11.500000 58.018808
11.500000 58.333500
11.500000 58.649032
11.500000 58.965404
11.500000 59.282617
11.500000 59.600670
11.500000 59.919563
11.500000 60.239297
11.500000 60.559871
11.500000 60.881285
11.500000 61.203540
11.500000 61.526635
11.500000 61.850570
11.500000 62.175345
11.500000 62.500961
11.500000 62.827417
11.500000 63.154713
11.500000 63.482850
11.500000 63.811827
11.500000 64.141644
11.500000 64.472301
11.500000 64.803799
11.500000 65.136137
11.500000 65.469316
11.500000 65.803335
11.500000 66.138194
11.500000 66.473893
11.500000 66.810433
11.500000 67.147812
11.500000 67.486033
11.500000 67.825093
11.500000 68.164994
11.500000 68.505735
11.500000 68.847316
11.500000 69.189738
11.500000 69.533000
11.500000 69.877102
11.500000 70.222045
11.500000 70.567828
11.500000 70.914451
11.500000 71.261915
11.500000 71.610218
11.500000 71.959363
11.500000 72.309347
11.500000 72.660172
11.500000 73.011837
11.500000 73.364342
11.500000 73.717688
11.500000 74.071873
11.500000 74.426900
11.500000 74.782766
11.500000 75.139473
11.500000 75.497020
11.500000 75.855407
11.500000 76.214635
11.500000 76.574703
11.500000 76.935611
11.500000 77.297360
11.500000 77.659949
11.500000 78.023378
11.500000 78.387647
11.500000 78.752757
11.500000 79.118707
11.500000 79.485498
11.500000 79.853128
11.500000 80.221599
11.500000 80.590910
11.500000 80.961062
11.500000 81.332054
11.500000 81.703886
11.500000 82.076558
11.500000 82.450071
11.500000 82.824424
11.500000 83.199618
11.500000 83.575651
11.500000 83.952525
11.500000 84.330239
11.500000 84.708794
11.500000 85.088189
11.500000 85.468424
11.500000 85.849499
11.500000 86.231415
11.500000 86.614171
11.500000 86.997768
11.500000 87.382204
11.500000 87.767481
11.500000 88.153598
11.500000 88.540556
11.500000 88.928354
11.500000 89.316992
11.500000 89.706470
11.500000 90.096789
11.500000 90.487948
11.500000 90.879947
11.500000 91.272787
11.500000 91.666467
11.500000 92.060987
11.500000 92.456348
11.500000 92.852548
11.500000 93.249590
11.500000 93.647471
11.500000 94.046193
11.500000 94.445755
11.500000 94.846157
11.500000 95.247400
11.500000 95.649483
11.500000 96.052406
11.500000 96.456169
11.500000 96.860773
11.500000 97.266217
11.500000 97.672502
11.500000 98.079626
11.500000 98.487591
11.500000 98.896397
11.500000 99.306042
11.500000 99.716528
11.500000 100.127854
11.500000 100.540021
11.500000 100.953028
11.500000 101.366875
11.500000 101.781562
11.500000 102.197090
11.500000 102.613458
11.500000 103.030666
11.500000 103.448715
11.500000 103.867603
11.500000 104.287333
11.500000 104.707902
11.500000 105.129312
11.500000 105.551562
11.500000 105.974652
11.500000 106.398583
11.500000 106.823354
11.500000 107.248965
11.500000 107.675417
11.500000 108.102709
11.500000 108.530841
11.500000 108.959813
11.500000 109.389626
11.500000 109.820279
11.500000 110.251773
11.500000 110.684106
11.500000 111.117280
11.500000 111.551294
11.500000 111.986149
11.500000 112.421844
11.500000 112.858379
11.500000 113.295754
11.500000 113.733970
11.500000 114.173026
11.500000 114.612923
11.500000 115.053659
11.500000 115.495236
11.500000 115.937653
11.500000 116.380911
11.500000 116.825009
11.500000 117.269947
11.500000 117.715725
11.500000 118.162344
11.500000 118.609803
11.500000 119.058103
11.500000 119.507242
11.500000 119.957222
11.500000 120.408042
11.500000 120.859703
11.500000 121.312204
11.500000 121.765545
11.500000 122.219726
11.500000 122.674748
11.500000 123.130610
11.500000 123.587312
11.500000 124.044855
11.500000 124.503238
11.500000 124.962461
11.500000 125.422525
11.500000 125.883428
11.500000 126.345173
11.500000 126.807757
11.500000 127.271182
11.500000 127.735447
11.500000 128.200552
11.500000 128.666498
11.500000 129.133283
11.500000 129.600910
11.500000 130.069376
11.500000 130.538683
11.500000 131.008830
11.500000 131.479818
11.500000 131.951645
11.500000 132.424313
11.500000 132.897821
11.500000 133.372170
11.500000 133.847359
11.500000 134.323388
11.500000 134.800258
11.500000 135.277967
11.500000 135.756518
11.500000 136.235908
11.500000 136.716139
11.500000 137.197210
11.500000 137.679121
11.500000 138.161872
11.500000 138.645464
11.500000 139.129897
11.500000 139.615169
11.500000 140.101282
11.500000 140.588235
11.500000 141.076028
11.500000 141.564662
11.500000 142.054136
11.500000 142.544450
11.500000 143.035605
11.500000 143.527600
11.500000 144.020435
11.500000 144.514110
11.500000 145.008626
11.500000 145.503982
11.500000 146.000178
11.500000 146.497215
11.500000 146.995092
11.500000 147.493809
11.500000 147.993367
11.500000 148.493765
11.500000 148.995003
11.500000 149.497081
11.500000 150.000000
</POINTS>
</NEKTAR>

