<?xml version="1.0" encoding="utf-8" ?>
<NEKTAR>
<POINTS DIM="2" FIELDS="">
48.500000 -0.750000
48.500000 -0.749580
48.500000 -0.748319
48.500000 -0.746219
48.500000 -0.743278
48.500000 -0.739496
48.500000 -0.734875
48.500000 -0.729413
48.500000 -0.723110
48.500000 -0.715968
48.500000 -0.707985
48.500000 -0.699162
48.500000 -0.689498
48.500000 -0.678995
48.500000 -0.667651
48.500000 -0.655466
48.500000 -0.642442
48.500000 -0.628577
48.500000 -0.613872
48.500000 -0.598326
48.500000 -0.581940
48.500000 -0.564714
48.500000 -0.546648
48.500000 -0.527741
48.500000 -0.507994
48.500000 -0.487407
48.500000 -0.465979
48.500000 -0.443711
48.500000 -0.420603
48.500000 -0.396654
48.500000 -0.371866
48.500000 -0.346236
48.500000 -0.319767
48.500000 -0.292457
48.500000 -0.264307
48.500000 -0.235317
48.500000 -0.205486
48.500000 -0.174816
48.500000 -0.143304
48.500000 -0.110953
48.500000 -0.077761
48.500000 -0.043729
48.500000 -0.008857
48.500000 0.026856
48.500000 0.063409
48.500000 0.100802
48.500000 0.139036
48.500000 0.178110
48.500000 0.218024
48.500000 0.258779
48.500000 0.300373
48.500000 0.342808
48.500000 0.386084
48.500000 0.430199
48.500000 0.475155
48.500000 0.520952
48.500000 0.567588
48.500000 0.615065
48.500000 0.663382
48.500000 0.712540
48.500000 0.762538
48.500000 0.813376
48.500000 0.865054
48.500000 0.917573
48.500000 0.970932
48.500000 1.025131
48.500000 1.080170
48.500000 1.136050
48.500000 1.192771
48.500000 1.250331
48.500000 1.308732
48.500000 1.367973
48.500000 1.428054
48.500000 1.488976
48.500000 1.550738
48.500000 1.613340
48.500000 1.676783
48.500000 1.741065
48.500000 1.806189
48.500000 1.872152
48.500000 1.938956
48.500000 2.006600
48.500000 2.075084
48.500000 2.144409
48.500000 2.214574
48.500000 2.285579
48.500000 2.357424
48.500000 2.430110
48.500000 2.503636
48.500000 2.578003
48.500000 2.653210
48.500000 2.729257
48.500000 2.806144
48.500000 2.883872
48.500000 2.962439
48.500000 3.041848
48.500000 3.122096
48.500000 3.203185
48.500000 3.285114
48.500000 3.367884
48.500000 3.451493
48.500000 3.535943
48.500000 3.621234
48.500000 3.707364
48.500000 3.794335
48.500000 3.882146
48.500000 3.970798
48.500000 4.060290
48.500000 4.150622
48.500000 4.241794
48.500000 4.333807
48.500000 4.426660
48.500000 4.520353
48.500000 4.614887
48.500000 4.710261
48.500000 4.806475
48.500000 4.903529
48.500000 5.001424
48.500000 5.100159
48.500000 5.199735
48.500000 5.300150
48.500000 5.401406
48.500000 5.503503
48.500000 5.606439
48.500000 5.710216
48.500000 5.814833
48.500000 5.920291
48.500000 6.026589
48.500000 6.133727
48.500000 6.241705
48.500000 6.350524
48.500000 6.460183
48.500000 6.570682
48.500000 6.682022
48.500000 6.794201
48.500000 6.907222
48.500000 7.021082
48.500000 7.135783
48.500000 7.251324
48.500000 7.367705
48.500000 7.484927
48.500000 7.602989
48.500000 7.721891
48.500000 7.841634
48.500000 7.962217
48.500000 8.083640
48.500000 8.205903
48.500000 8.329007
48.500000 8.452951
48.500000 8.577735
48.500000 8.703360
48.500000 8.829825
48.500000 8.957130
48.500000 9.085276
48.500000 9.214262
48.500000 9.344088
48.500000 9.474754
48.500000 9.606261
48.500000 9.738608
48.500000 9.871795
48.500000 10.005823
48.500000 10.140691
48.500000 10.276399
48.500000 10.412948
48.500000 10.550336
48.500000 10.688566
48.500000 10.827635
48.500000 10.967545
48.500000 11.108295
48.500000 11.249885
48.500000 11.392316
48.500000 11.535587
48.500000 11.679698
48.500000 11.824649
48.500000 11.970441
48.500000 12.117073
48.500000 12.264546
48.500000 12.412858
48.500000 12.562011
48.500000 12.712005
48.500000 12.862838
48.500000 13.014512
48.500000 13.167026
48.500000 13.320381
48.500000 13.474576
48.500000 13.629611
48.500000 13.785486
48.500000 13.942202
48.500000 14.099758
48.500000 14.258154
48.500000 14.417391
48.500000 14.577468
48.500000 14.738385
48.500000 14.900142
48.500000 15.062740
48.500000 15.226178
48.500000 15.390457
48.500000 15.555575
48.500000 15.721534
48.500000 15.888334
48.500000 16.055973
48.500000 16.224453
48.500000 16.393773
48.500000 16.563934
48.500000 16.734935
48.500000 16.906776
48.500000 17.079457
48.500000 17.252979
48.500000 17.427341
48.500000 17.602543
48.500000 17.778585
48.500000 17.955468
48.500000 18.133192
48.500000 18.311755
48.500000 18.491159
48.500000 18.671403
48.500000 18.852487
48.500000 19.034412
48.500000 19.217177
48.500000 19.400782
48.500000 19.585228
48.500000 19.770513
48.500000 19.956640
48.500000 20.143606
48.500000 20.331413
48.500000 20.520060
48.500000 20.709547
48.500000 20.899875
48.500000 21.091043
48.500000 21.283051
48.500000 21.475900
48.500000 21.669588
48.500000 21.864118
48.500000 22.059487
48.500000 22.255697
48.500000 22.452747
48.500000 22.650637
48.500000 22.849368
48.500000 23.048939
48.500000 23.249350
48.500000 23.450601
48.500000 23.652693
48.500000 23.855625
48.500000 24.059398
48.500000 24.264011
48.500000 24.469464
48.500000 24.675757
48.500000 24.882891
48.500000 25.090864
48.500000 25.299679
48.500000 25.509333
48.500000 25.719828
48.500000 25.931163
48.500000 26.143339
48.500000 26.356354
48.500000 26.570210
48.500000 26.784907
48.500000 27.000443
48.500000 27.216820
48.500000 27.434037
48.500000 27.652095
48.500000 27.870993
48.500000 28.090731
48.500000 28.311309
48.500000 28.532728
48.500000 28.754987
48.500000 28.978086
48.500000 29.202026
48.500000 29.426806
48.500000 29.652426
48.500000 29.878886
48.500000 30.106187
48.500000 30.334328
48.500000 30.563309
48.500000 30.793131
48.500000 31.023793
48.500000 31.255295
48.500000 31.487638
48.500000 31.720821
48.500000 31.954844
48.500000 32.189708
48.500000 32.425411
48.500000 32.661955
48.500000 32.899340
48.500000 33.137564
48.500000 33.376629
48.500000 33.616535
48.500000 33.857280
48.500000 34.098866
48.500000 34.341292
48.500000 34.584559
48.500000 34.828665
48.500000 35.073613
48.500000 35.319400
48.500000 35.566028
48.500000 35.813496
48.500000 36.061804
48.500000 36.310952
48.500000 36.560941
48.500000 36.811770
48.500000 37.063440
48.500000 37.315950
48.500000 37.569300
48.500000 37.823490
48.500000 38.078521
48.500000 38.334391
48.500000 38.591103
48.500000 38.848654
48.500000 39.107046
48.500000 39.366278
48.500000 39.626351
48.500000 39.887263
48.500000 40.149016
48.500000 40.411610
48.500000 40.675043
48.500000 40.939317
48.500000 41.204432
48.500000 41.470386
48.500000 41.737181
48.500000 42.004816
48.500000 42.273291
48.500000 42.542607
48.500000 42.812763
48.500000 43.083760
48.500000 43.355596
48.500000 43.628273
48.500000 43.901790
48.500000 44.176148
48.500000 44.451346
48.500000 44.727384
48.500000 45.004262
48.500000 45.281981
48.500000 45.560540
48.500000 45.839939
48.500000 46.120179
48.500000 46.401259
48.500000 46.683179
48.500000 46.965939
48.500000 47.249540
48.500000 47.533981
48.500000 47.819263
48.500000 48.105384
48.500000 48.392346
48.500000 48.680149
48.500000 48.968791
48.500000 49.258274
48.500000 49.548597
48.500000 49.839761
48.500000 50.131765
48.500000 50.424609
48.500000 50.718293
48.500000 51.012818
48.500000 51.308183
48.500000 51.604388
48.500000 51.901434
48.500000 52.199319
48.500000 52.498046
48.500000 52.797612
48.500000 53.098019
48.500000 53.399266
48.500000 53.701353
48.500000 54.004281
48.500000 54.308049
48.500000 54.612657
48.500000 54.918106
48.500000 55.224395
48.500000 55.531524
48.500000 55.839493
48.500000 56.148303
48.500000 56.457953
48.500000 56.768443
48.500000 57.079774
48.500000 57.391945
48.500000 57.704956
48.500000 58.018808
48.500000 58.333500
48.500000 58.649032
48.500000 58.965404
48.500000 59.282617
48.500000 59.600670
48.500000 59.919563
48.500000 60.239297
48.500000 60.559871
48.500000 60.881285
48.500000 61.203540
48.500000 61.526635
48.500000 61.850570
48.500000 62.175345
48.500000 62.500961
48.500000 62.827417
48.500000 63.154713
48.500000 63.482850
48.500000 63.811827
48.500000 64.141644
48.500000 64.472301
48.500000 64.803799
48.500000 65.136137
48.500000 65.469316
48.500000 65.803335
48.500000 66.138194
48.500000 66.473893
48.500000 66.810433
48.500000 67.147812
48.500000 67.486033
48.500000 67.825093
48.500000 68.164994
48.500000 68.505735
48.500000 68.847316
48.500000 69.189738
48.500000 69.533000
48.500000 69.877102
48.500000 70.222045
48.500000 70.567828
48.500000 70.914451
48.500000 71.261915
48.500000 71.610218
48.500000 71.959363
48.500000 72.309347
48.500000 72.660172
48.500000 73.011837
48.500000 73.364342
48.500000 73.717688
48.500000 74.071873
48.500000 74.426900
48.500000 74.782766
48.500000 75.139473
48.500000 75.497020
48.500000 75.855407
48.500000 76.214635
48.500000 76.574703
48.500000 76.935611
48.500000 77.297360
48.500000 77.659949
48.500000 78.023378
48.500000 78.387647
48.500000 78.752757
48.500000 79.118707
48.500000 79.485498
48.500000 79.853128
48.500000 80.221599
48.500000 80.590910
48.500000 80.961062
48.500000 81.332054
48.500000 81.703886
48.500000 82.076558
48.500000 82.450071
48.500000 82.824424
48.500000 83.199618
48.500000 83.575651
48.500000 83.952525
48.500000 84.330239
48.500000 84.708794
48.500000 85.088189
48.500000 85.468424
48.500000 85.849499
48.500000 86.231415
48.500000 86.614171
48.500000 86.997768
48.500000 87.382204
48.500000 87.767481
48.500000 88.153598
48.500000 88.540556
48.500000 88.928354
48.500000 89.316992
48.500000 89.706470
48.500000 90.096789
48.500000 90.487948
48.500000 90.879947
48.500000 91.272787
48.500000 91.666467
48.500000 92.060987
48.500000 92.456348
48.500000 92.852548
48.500000 93.249590
48.500000 93.647471
48.500000 94.046193
48.500000 94.445755
48.500000 94.846157
48.500000 95.247400
48.500000 95.649483
48.500000 96.052406
48.500000 96.456169
48.500000 96.860773
48.500000 97.266217
48.500000 97.672502
48.500000 98.079626
48.500000 98.487591
48.500000 98.896397
48.500000 99.306042
48.500000 99.716528
48.500000 100.127854
48.500000 100.540021
48.500000 100.953028
48.500000 101.366875
48.500000 101.781562
48.500000 102.197090
48.500000 102.613458
48.500000 103.030666
48.500000 103.448715
48.500000 103.867603
48.500000 104.287333
48.500000 104.707902
48.500000 105.129312
48.500000 105.551562
48.500000 105.974652
48.500000 106.398583
48.500000 106.823354
48.500000 107.248965
48.500000 107.675417
48.500000 108.102709
48.500000 108.530841
48.500000 108.959813
48.500000 109.389626
48.500000 109.820279
48.500000 110.251773
48.500000 110.684106
48.500000 111.117280
48.500000 111.551294
48.500000 111.986149
48.500000 112.421844
48.500000 112.858379
48.500000 113.295754
48.500000 113.733970
48.500000 114.173026
48.500000 114.612923
48.500000 115.053659
48.500000 115.495236
48.500000 115.937653
48.500000 116.380911
48.500000 116.825009
48.500000 117.269947
48.500000 117.715725
48.500000 118.162344
48.500000 118.609803
48.500000 119.058103
48.500000 119.507242
48.500000 119.957222
48.500000 120.408042
48.500000 120.859703
48.500000 121.312204
48.500000 121.765545
48.500000 122.219726
48.500000 122.674748
48.500000 123.130610
48.500000 123.587312
48.500000 124.044855
48.500000 124.503238
48.500000 124.962461
48.500000 125.422525
48.500000 125.883428
48.500000 126.345173
48.500000 126.807757
48.500000 127.271182
48.500000 127.735447
48.500000 128.200552
48.500000 128.666498
48.500000 129.133283
48.500000 129.600910
48.500000 130.069376
48.500000 130.538683
48.500000 131.008830
48.500000 131.479818
48.500000 131.951645
48.500000 132.424313
48.500000 132.897821
48.500000 133.372170
48.500000 133.847359
48.500000 134.323388
48.500000 134.800258
48.500000 135.277967
48.500000 135.756518
48.500000 136.235908
48.500000 136.716139
48.500000 137.197210
48.500000 137.679121
48.500000 138.161872
48.500000 138.645464
48.500000 139.129897
48.500000 139.615169
48.500000 140.101282
48.500000 140.588235
48.500000 141.076028
48.500000 141.564662
48.500000 142.054136
48.500000 142.544450
48.500000 143.035605
48.500000 143.527600
48.500000 144.020435
48.500000 144.514110
48.500000 145.008626
48.500000 145.503982
48.500000 146.000178
48.500000 146.497215
48.500000 146.995092
48.500000 147.493809
48.500000 147.993367
48.500000 148.493765
48.500000 148.995003
48.500000 149.497081
48.500000 150.000000
</POINTS>
</NEKTAR>

