<?xml version="1.0" encoding="utf-8" ?>
<NEKTAR>
<POINTS DIM="2" FIELDS="">
704.500000 0.000000
704.500000 0.000418
704.500000 0.001672
704.500000 0.003763
704.500000 0.006689
704.500000 0.010451
704.500000 0.015050
704.500000 0.020485
704.500000 0.026756
704.500000 0.033863
704.500000 0.041806
704.500000 0.050585
704.500000 0.060201
704.500000 0.070652
704.500000 0.081940
704.500000 0.094063
704.500000 0.107023
704.500000 0.120819
704.500000 0.135451
704.500000 0.150919
704.500000 0.167224
704.500000 0.184364
704.500000 0.202341
704.500000 0.221153
704.500000 0.240802
704.500000 0.261287
704.500000 0.282608
704.500000 0.304765
704.500000 0.327758
704.500000 0.351588
704.500000 0.376253
704.500000 0.401755
704.500000 0.428092
704.500000 0.455266
704.500000 0.483276
704.500000 0.512122
704.500000 0.541805
704.500000 0.572323
704.500000 0.603677
704.500000 0.635868
704.500000 0.668894
704.500000 0.702757
704.500000 0.737456
704.500000 0.772991
704.500000 0.809362
704.500000 0.846570
704.500000 0.884613
704.500000 0.923492
704.500000 0.963208
704.500000 1.003760
704.500000 1.045148
704.500000 1.087372
704.500000 1.130432
704.500000 1.174328
704.500000 1.219060
704.500000 1.264629
704.500000 1.311033
704.500000 1.358274
704.500000 1.406351
704.500000 1.455264
704.500000 1.505013
704.500000 1.555598
704.500000 1.607019
704.500000 1.659276
704.500000 1.712370
704.500000 1.766299
704.500000 1.821065
704.500000 1.876667
704.500000 1.933105
704.500000 1.990379
704.500000 2.048489
704.500000 2.107436
704.500000 2.167218
704.500000 2.227837
704.500000 2.289291
704.500000 2.351582
704.500000 2.414709
704.500000 2.478672
704.500000 2.543471
704.500000 2.609106
704.500000 2.675578
704.500000 2.742885
704.500000 2.811029
704.500000 2.880009
704.500000 2.949825
704.500000 3.020477
704.500000 3.091965
704.500000 3.164289
704.500000 3.237449
704.500000 3.311446
704.500000 3.386278
704.500000 3.461947
704.500000 3.538452
704.500000 3.615793
704.500000 3.693970
704.500000 3.772983
704.500000 3.852832
704.500000 3.933517
704.500000 4.015039
704.500000 4.097397
704.500000 4.180590
704.500000 4.264620
704.500000 4.349486
704.500000 4.435188
704.500000 4.521727
704.500000 4.609101
704.500000 4.697311
704.500000 4.786358
704.500000 4.876241
704.500000 4.966959
704.500000 5.058514
704.500000 5.150905
704.500000 5.244133
704.500000 5.338196
704.500000 5.433095
704.500000 5.528831
704.500000 5.625402
704.500000 5.722810
704.500000 5.821054
704.500000 5.920134
704.500000 6.020050
704.500000 6.120802
704.500000 6.222391
704.500000 6.324815
704.500000 6.428076
704.500000 6.532172
704.500000 6.637105
704.500000 6.742874
704.500000 6.849479
704.500000 6.956920
704.500000 7.065198
704.500000 7.174311
704.500000 7.284261
704.500000 7.395046
704.500000 7.506668
704.500000 7.619126
704.500000 7.732420
704.500000 7.846550
704.500000 7.961516
704.500000 8.077319
704.500000 8.193957
704.500000 8.311432
704.500000 8.429742
704.500000 8.548889
704.500000 8.668872
704.500000 8.789691
704.500000 8.911346
704.500000 9.033838
704.500000 9.157165
704.500000 9.281329
704.500000 9.406328
704.500000 9.532164
704.500000 9.658836
704.500000 9.786344
704.500000 9.914688
704.500000 10.043868
704.500000 10.173885
704.500000 10.304737
704.500000 10.436426
704.500000 10.568950
704.500000 10.702311
704.500000 10.836508
704.500000 10.971541
704.500000 11.107411
704.500000 11.244116
704.500000 11.381657
704.500000 11.520035
704.500000 11.659248
704.500000 11.799298
704.500000 11.940184
704.500000 12.081906
704.500000 12.224464
704.500000 12.367859
704.500000 12.512089
704.500000 12.657155
704.500000 12.803058
704.500000 12.949797
704.500000 13.097372
704.500000 13.245782
704.500000 13.395030
704.500000 13.545113
704.500000 13.696032
704.500000 13.847787
704.500000 14.000379
704.500000 14.153807
704.500000 14.308070
704.500000 14.463170
704.500000 14.619106
704.500000 14.775879
704.500000 14.933487
704.500000 15.091931
704.500000 15.251212
704.500000 15.411328
704.500000 15.572281
704.500000 15.734070
704.500000 15.896695
704.500000 16.060156
704.500000 16.224453
704.500000 16.389586
704.500000 16.555556
704.500000 16.722361
704.500000 16.890003
704.500000 17.058481
704.500000 17.227795
704.500000 17.397945
704.500000 17.568931
704.500000 17.740753
704.500000 17.913412
704.500000 18.086906
704.500000 18.261237
704.500000 18.436403
704.500000 18.612406
704.500000 18.789245
704.500000 18.966920
704.500000 19.145432
704.500000 19.324779
704.500000 19.504962
704.500000 19.685982
704.500000 19.867838
704.500000 20.050529
704.500000 20.234057
704.500000 20.418421
704.500000 20.603622
704.500000 20.789658
704.500000 20.976530
704.500000 21.164239
704.500000 21.352783
704.500000 21.542164
704.500000 21.732381
704.500000 21.923434
704.500000 22.115323
704.500000 22.308048
704.500000 22.501610
704.500000 22.696007
704.500000 22.891241
704.500000 23.087310
704.500000 23.284216
704.500000 23.481958
704.500000 23.680536
704.500000 23.879950
704.500000 24.080200
704.500000 24.281287
704.500000 24.483209
704.500000 24.685968
704.500000 24.889563
704.500000 25.093994
704.500000 25.299261
704.500000 25.505364
704.500000 25.712303
704.500000 25.920078
704.500000 26.128690
704.500000 26.338137
704.500000 26.548421
704.500000 26.759541
704.500000 26.971497
704.500000 27.184289
704.500000 27.397917
704.500000 27.612381
704.500000 27.827682
704.500000 28.043818
704.500000 28.260791
704.500000 28.478600
704.500000 28.697244
704.500000 28.916725
704.500000 29.137043
704.500000 29.358196
704.500000 29.580185
704.500000 29.803011
704.500000 30.026672
704.500000 30.251170
704.500000 30.476504
704.500000 30.702674
704.500000 30.929680
704.500000 31.157522
704.500000 31.386200
704.500000 31.615715
704.500000 31.846065
704.500000 32.077252
704.500000 32.309275
704.500000 32.542133
704.500000 32.775828
704.500000 33.010360
704.500000 33.245727
704.500000 33.481930
704.500000 33.718970
704.500000 33.956845
704.500000 34.195557
704.500000 34.435105
704.500000 34.675489
704.500000 34.916709
704.500000 35.158765
704.500000 35.401657
704.500000 35.645386
704.500000 35.889950
704.500000 36.135351
704.500000 36.381588
704.500000 36.628660
704.500000 36.876569
704.500000 37.125315
704.500000 37.374896
704.500000 37.625313
704.500000 37.876567
704.500000 38.128656
704.500000 38.381582
704.500000 38.635344
704.500000 38.889942
704.500000 39.145376
704.500000 39.401646
704.500000 39.658752
704.500000 39.916695
704.500000 40.175473
704.500000 40.435088
704.500000 40.695539
704.500000 40.956826
704.500000 41.218949
704.500000 41.481908
704.500000 41.745703
704.500000 42.010334
704.500000 42.275802
704.500000 42.542106
704.500000 42.809245
704.500000 43.077221
704.500000 43.346033
704.500000 43.615681
704.500000 43.886165
704.500000 44.157486
704.500000 44.429642
704.500000 44.702635
704.500000 44.976463
704.500000 45.251128
704.500000 45.526629
704.500000 45.802966
704.500000 46.080139
704.500000 46.358148
704.500000 46.636994
704.500000 46.916675
704.500000 47.197193
704.500000 47.478547
704.500000 47.760736
704.500000 48.043762
704.500000 48.327625
704.500000 48.612323
704.500000 48.897857
704.500000 49.184227
704.500000 49.471434
704.500000 49.759477
704.500000 50.048355
704.500000 50.338070
704.500000 50.628621
704.500000 50.920009
704.500000 51.212232
704.500000 51.505291
704.500000 51.799187
704.500000 52.093918
704.500000 52.389486
704.500000 52.685890
704.500000 52.983130
704.500000 53.281206
704.500000 53.580118
704.500000 53.879867
704.500000 54.180451
704.500000 54.481872
704.500000 54.784128
704.500000 55.087221
704.500000 55.391150
704.500000 55.695915
704.500000 56.001516
704.500000 56.307953
704.500000 56.615227
704.500000 56.923336
704.500000 57.232282
704.500000 57.542064
704.500000 57.852682
704.500000 58.164136
704.500000 58.476426
704.500000 58.789552
704.500000 59.103514
704.500000 59.418313
704.500000 59.733947
704.500000 60.050418
704.500000 60.367725
704.500000 60.685868
704.500000 61.004847
704.500000 61.324662
704.500000 61.645313
704.500000 61.966801
704.500000 62.289124
704.500000 62.612284
704.500000 62.936279
704.500000 63.261111
704.500000 63.586779
704.500000 63.913283
704.500000 64.240624
704.500000 64.568800
704.500000 64.897812
704.500000 65.227661
704.500000 65.558346
704.500000 65.889867
704.500000 66.222223
704.500000 66.555417
704.500000 66.889446
704.500000 67.224311
704.500000 67.560012
704.500000 67.896550
704.500000 68.233924
704.500000 68.572133
704.500000 68.911179
704.500000 69.251061
704.500000 69.591779
704.500000 69.933334
704.500000 70.275724
704.500000 70.618950
704.500000 70.963013
704.500000 71.307912
704.500000 71.653646
704.500000 72.000217
704.500000 72.347624
704.500000 72.695868
704.500000 73.044947
704.500000 73.394862
704.500000 73.745614
704.500000 74.097202
704.500000 74.449625
704.500000 74.802885
704.500000 75.156981
704.500000 75.511913
704.500000 75.867682
704.500000 76.224286
704.500000 76.581726
704.500000 76.940003
704.500000 77.299116
704.500000 77.659064
704.500000 78.019849
704.500000 78.381471
704.500000 78.743928
704.500000 79.107221
704.500000 79.471350
704.500000 79.836316
704.500000 80.202118
704.500000 80.568755
704.500000 80.936229
704.500000 81.304539
704.500000 81.673685
704.500000 82.043668
704.500000 82.414486
704.500000 82.786141
704.500000 83.158631
704.500000 83.531958
704.500000 83.906121
704.500000 84.281120
704.500000 84.656955
704.500000 85.033626
704.500000 85.411133
704.500000 85.789477
704.500000 86.168656
704.500000 86.548672
704.500000 86.929524
704.500000 87.311212
704.500000 87.693736
704.500000 88.077096
704.500000 88.461292
704.500000 88.846324
704.500000 89.232193
704.500000 89.618897
704.500000 90.006438
704.500000 90.394815
704.500000 90.784028
704.500000 91.174077
704.500000 91.564962
704.500000 91.956684
704.500000 92.349241
704.500000 92.742634
704.500000 93.136864
704.500000 93.531930
704.500000 93.927832
704.500000 94.324570
704.500000 94.722144
704.500000 95.120554
704.500000 95.519801
704.500000 95.919883
704.500000 96.320802
704.500000 96.722557
704.500000 97.125147
704.500000 97.528574
704.500000 97.932837
704.500000 98.337937
704.500000 98.743872
704.500000 99.150643
704.500000 99.558251
704.500000 99.966695
704.500000 100.375974
704.500000 100.786090
704.500000 101.197042
704.500000 101.608831
704.500000 102.021455
704.500000 102.434915
704.500000 102.849212
704.500000 103.264344
704.500000 103.680313
704.500000 104.097118
704.500000 104.514759
704.500000 104.933236
704.500000 105.352549
704.500000 105.772699
704.500000 106.193684
704.500000 106.615506
704.500000 107.038163
704.500000 107.461657
704.500000 107.885987
704.500000 108.311153
704.500000 108.737155
704.500000 109.163993
704.500000 109.591668
704.500000 110.020178
704.500000 110.449525
704.500000 110.879708
704.500000 111.310727
704.500000 111.742582
704.500000 112.175273
704.500000 112.608800
704.500000 113.043163
704.500000 113.478363
704.500000 113.914398
704.500000 114.351270
704.500000 114.788978
704.500000 115.227522
704.500000 115.666902
704.500000 116.107118
704.500000 116.548170
704.500000 116.990059
704.500000 117.432783
704.500000 117.876344
704.500000 118.320740
704.500000 118.765973
704.500000 119.212042
704.500000 119.658947
704.500000 120.106689
704.500000 120.555266
704.500000 121.004679
704.500000 121.454929
704.500000 121.906015
704.500000 122.357937
704.500000 122.810695
704.500000 123.264289
704.500000 123.718719
704.500000 124.173985
704.500000 124.630087
704.500000 125.087026
704.500000 125.544801
704.500000 126.003411
704.500000 126.462858
704.500000 126.923141
704.500000 127.384260
704.500000 127.846216
704.500000 128.309007
704.500000 128.772634
704.500000 129.237098
704.500000 129.702398
704.500000 130.168534
704.500000 130.635505
704.500000 131.103314
704.500000 131.571958
704.500000 132.041438
704.500000 132.511754
704.500000 132.982907
704.500000 133.454896
704.500000 133.927720
704.500000 134.401381
704.500000 134.875878
704.500000 135.351211
704.500000 135.827381
704.500000 136.304386
704.500000 136.782227
704.500000 137.260905
704.500000 137.740419
704.500000 138.220769
704.500000 138.701955
704.500000 139.183977
704.500000 139.666835
704.500000 140.150529
704.500000 140.635060
704.500000 141.120426
704.500000 141.606629
704.500000 142.093668
704.500000 142.581542
704.500000 143.070253
704.500000 143.559801
704.500000 144.050184
704.500000 144.541403
704.500000 145.033459
704.500000 145.526350
704.500000 146.020078
704.500000 146.514642
704.500000 147.010042
704.500000 147.506278
704.500000 148.003350
704.500000 148.501258
704.500000 149.000003
704.500000 149.499583
704.500000 150.000000
</POINTS>
</NEKTAR>

