<?xml version="1.0" encoding="utf-8" ?>
<NEKTAR>
<POINTS DIM="2" FIELDS="">
624.500000 0.000000
624.500000 0.000418
624.500000 0.001672
624.500000 0.003763
624.500000 0.006689
624.500000 0.010451
624.500000 0.015050
624.500000 0.020485
624.500000 0.026756
624.500000 0.033863
624.500000 0.041806
624.500000 0.050585
624.500000 0.060201
624.500000 0.070652
624.500000 0.081940
624.500000 0.094063
624.500000 0.107023
624.500000 0.120819
624.500000 0.135451
624.500000 0.150919
624.500000 0.167224
624.500000 0.184364
624.500000 0.202341
624.500000 0.221153
624.500000 0.240802
624.500000 0.261287
624.500000 0.282608
624.500000 0.304765
624.500000 0.327758
624.500000 0.351588
624.500000 0.376253
624.500000 0.401755
624.500000 0.428092
624.500000 0.455266
624.500000 0.483276
624.500000 0.512122
624.500000 0.541805
624.500000 0.572323
624.500000 0.603677
624.500000 0.635868
624.500000 0.668894
624.500000 0.702757
624.500000 0.737456
624.500000 0.772991
624.500000 0.809362
624.500000 0.846570
624.500000 0.884613
624.500000 0.923492
624.500000 0.963208
624.500000 1.003760
624.500000 1.045148
624.500000 1.087372
624.500000 1.130432
624.500000 1.174328
624.500000 1.219060
624.500000 1.264629
624.500000 1.311033
624.500000 1.358274
624.500000 1.406351
624.500000 1.455264
624.500000 1.505013
624.500000 1.555598
624.500000 1.607019
624.500000 1.659276
624.500000 1.712370
624.500000 1.766299
624.500000 1.821065
624.500000 1.876667
624.500000 1.933105
624.500000 1.990379
624.500000 2.048489
624.500000 2.107436
624.500000 2.167218
624.500000 2.227837
624.500000 2.289291
624.500000 2.351582
624.500000 2.414709
624.500000 2.478672
624.500000 2.543471
624.500000 2.609106
624.500000 2.675578
624.500000 2.742885
624.500000 2.811029
624.500000 2.880009
624.500000 2.949825
624.500000 3.020477
624.500000 3.091965
624.500000 3.164289
624.500000 3.237449
624.500000 3.311446
624.500000 3.386278
624.500000 3.461947
624.500000 3.538452
624.500000 3.615793
624.500000 3.693970
624.500000 3.772983
624.500000 3.852832
624.500000 3.933517
624.500000 4.015039
624.500000 4.097397
624.500000 4.180590
624.500000 4.264620
624.500000 4.349486
624.500000 4.435188
624.500000 4.521727
624.500000 4.609101
624.500000 4.697311
624.500000 4.786358
624.500000 4.876241
624.500000 4.966959
624.500000 5.058514
624.500000 5.150905
624.500000 5.244133
624.500000 5.338196
624.500000 5.433095
624.500000 5.528831
624.500000 5.625402
624.500000 5.722810
624.500000 5.821054
624.500000 5.920134
624.500000 6.020050
624.500000 6.120802
624.500000 6.222391
624.500000 6.324815
624.500000 6.428076
624.500000 6.532172
624.500000 6.637105
624.500000 6.742874
624.500000 6.849479
624.500000 6.956920
624.500000 7.065198
624.500000 7.174311
624.500000 7.284261
624.500000 7.395046
624.500000 7.506668
624.500000 7.619126
624.500000 7.732420
624.500000 7.846550
624.500000 7.961516
624.500000 8.077319
624.500000 8.193957
624.500000 8.311432
624.500000 8.429742
624.500000 8.548889
624.500000 8.668872
624.500000 8.789691
624.500000 8.911346
624.500000 9.033838
624.500000 9.157165
624.500000 9.281329
624.500000 9.406328
624.500000 9.532164
624.500000 9.658836
624.500000 9.786344
624.500000 9.914688
624.500000 10.043868
624.500000 10.173885
624.500000 10.304737
624.500000 10.436426
624.500000 10.568950
624.500000 10.702311
624.500000 10.836508
624.500000 10.971541
624.500000 11.107411
624.500000 11.244116
624.500000 11.381657
624.500000 11.520035
624.500000 11.659248
624.500000 11.799298
624.500000 11.940184
624.500000 12.081906
624.500000 12.224464
624.500000 12.367859
624.500000 12.512089
624.500000 12.657155
624.500000 12.803058
624.500000 12.949797
624.500000 13.097372
624.500000 13.245782
624.500000 13.395030
624.500000 13.545113
624.500000 13.696032
624.500000 13.847787
624.500000 14.000379
624.500000 14.153807
624.500000 14.308070
624.500000 14.463170
624.500000 14.619106
624.500000 14.775879
624.500000 14.933487
624.500000 15.091931
624.500000 15.251212
624.500000 15.411328
624.500000 15.572281
624.500000 15.734070
624.500000 15.896695
624.500000 16.060156
624.500000 16.224453
624.500000 16.389586
624.500000 16.555556
624.500000 16.722361
624.500000 16.890003
624.500000 17.058481
624.500000 17.227795
624.500000 17.397945
624.500000 17.568931
624.500000 17.740753
624.500000 17.913412
624.500000 18.086906
624.500000 18.261237
624.500000 18.436403
624.500000 18.612406
624.500000 18.789245
624.500000 18.966920
624.500000 19.145432
624.500000 19.324779
624.500000 19.504962
624.500000 19.685982
624.500000 19.867838
624.500000 20.050529
624.500000 20.234057
624.500000 20.418421
624.500000 20.603622
624.500000 20.789658
624.500000 20.976530
624.500000 21.164239
624.500000 21.352783
624.500000 21.542164
624.500000 21.732381
624.500000 21.923434
624.500000 22.115323
624.500000 22.308048
624.500000 22.501610
624.500000 22.696007
624.500000 22.891241
624.500000 23.087310
624.500000 23.284216
624.500000 23.481958
624.500000 23.680536
624.500000 23.879950
624.500000 24.080200
624.500000 24.281287
624.500000 24.483209
624.500000 24.685968
624.500000 24.889563
624.500000 25.093994
624.500000 25.299261
624.500000 25.505364
624.500000 25.712303
624.500000 25.920078
624.500000 26.128690
624.500000 26.338137
624.500000 26.548421
624.500000 26.759541
624.500000 26.971497
624.500000 27.184289
624.500000 27.397917
624.500000 27.612381
624.500000 27.827682
624.500000 28.043818
624.500000 28.260791
624.500000 28.478600
624.500000 28.697244
624.500000 28.916725
624.500000 29.137043
624.500000 29.358196
624.500000 29.580185
624.500000 29.803011
624.500000 30.026672
624.500000 30.251170
624.500000 30.476504
624.500000 30.702674
624.500000 30.929680
624.500000 31.157522
624.500000 31.386200
624.500000 31.615715
624.500000 31.846065
624.500000 32.077252
624.500000 32.309275
624.500000 32.542133
624.500000 32.775828
624.500000 33.010360
624.500000 33.245727
624.500000 33.481930
624.500000 33.718970
624.500000 33.956845
624.500000 34.195557
624.500000 34.435105
624.500000 34.675489
624.500000 34.916709
624.500000 35.158765
624.500000 35.401657
624.500000 35.645386
624.500000 35.889950
624.500000 36.135351
624.500000 36.381588
624.500000 36.628660
624.500000 36.876569
624.500000 37.125315
624.500000 37.374896
624.500000 37.625313
624.500000 37.876567
624.500000 38.128656
624.500000 38.381582
624.500000 38.635344
624.500000 38.889942
624.500000 39.145376
624.500000 39.401646
624.500000 39.658752
624.500000 39.916695
624.500000 40.175473
624.500000 40.435088
624.500000 40.695539
624.500000 40.956826
624.500000 41.218949
624.500000 41.481908
624.500000 41.745703
624.500000 42.010334
624.500000 42.275802
624.500000 42.542106
624.500000 42.809245
624.500000 43.077221
624.500000 43.346033
624.500000 43.615681
624.500000 43.886165
624.500000 44.157486
624.500000 44.429642
624.500000 44.702635
624.500000 44.976463
624.500000 45.251128
624.500000 45.526629
624.500000 45.802966
624.500000 46.080139
624.500000 46.358148
624.500000 46.636994
624.500000 46.916675
624.500000 47.197193
624.500000 47.478547
624.500000 47.760736
624.500000 48.043762
624.500000 48.327625
624.500000 48.612323
624.500000 48.897857
624.500000 49.184227
624.500000 49.471434
624.500000 49.759477
624.500000 50.048355
624.500000 50.338070
624.500000 50.628621
624.500000 50.920009
624.500000 51.212232
624.500000 51.505291
624.500000 51.799187
624.500000 52.093918
624.500000 52.389486
624.500000 52.685890
624.500000 52.983130
624.500000 53.281206
624.500000 53.580118
624.500000 53.879867
624.500000 54.180451
624.500000 54.481872
624.500000 54.784128
624.500000 55.087221
624.500000 55.391150
624.500000 55.695915
624.500000 56.001516
624.500000 56.307953
624.500000 56.615227
624.500000 56.923336
624.500000 57.232282
624.500000 57.542064
624.500000 57.852682
624.500000 58.164136
624.500000 58.476426
624.500000 58.789552
624.500000 59.103514
624.500000 59.418313
624.500000 59.733947
624.500000 60.050418
624.500000 60.367725
624.500000 60.685868
624.500000 61.004847
624.500000 61.324662
624.500000 61.645313
624.500000 61.966801
624.500000 62.289124
624.500000 62.612284
624.500000 62.936279
624.500000 63.261111
624.500000 63.586779
624.500000 63.913283
624.500000 64.240624
624.500000 64.568800
624.500000 64.897812
624.500000 65.227661
624.500000 65.558346
624.500000 65.889867
624.500000 66.222223
624.500000 66.555417
624.500000 66.889446
624.500000 67.224311
624.500000 67.560012
624.500000 67.896550
624.500000 68.233924
624.500000 68.572133
624.500000 68.911179
624.500000 69.251061
624.500000 69.591779
624.500000 69.933334
624.500000 70.275724
624.500000 70.618950
624.500000 70.963013
624.500000 71.307912
624.500000 71.653646
624.500000 72.000217
624.500000 72.347624
624.500000 72.695868
624.500000 73.044947
624.500000 73.394862
624.500000 73.745614
624.500000 74.097202
624.500000 74.449625
624.500000 74.802885
624.500000 75.156981
624.500000 75.511913
624.500000 75.867682
624.500000 76.224286
624.500000 76.581726
624.500000 76.940003
624.500000 77.299116
624.500000 77.659064
624.500000 78.019849
624.500000 78.381471
624.500000 78.743928
624.500000 79.107221
624.500000 79.471350
624.500000 79.836316
624.500000 80.202118
624.500000 80.568755
624.500000 80.936229
624.500000 81.304539
624.500000 81.673685
624.500000 82.043668
624.500000 82.414486
624.500000 82.786141
624.500000 83.158631
624.500000 83.531958
624.500000 83.906121
624.500000 84.281120
624.500000 84.656955
624.500000 85.033626
624.500000 85.411133
624.500000 85.789477
624.500000 86.168656
624.500000 86.548672
624.500000 86.929524
624.500000 87.311212
624.500000 87.693736
624.500000 88.077096
624.500000 88.461292
624.500000 88.846324
624.500000 89.232193
624.500000 89.618897
624.500000 90.006438
624.500000 90.394815
624.500000 90.784028
624.500000 91.174077
624.500000 91.564962
624.500000 91.956684
624.500000 92.349241
624.500000 92.742634
624.500000 93.136864
624.500000 93.531930
624.500000 93.927832
624.500000 94.324570
624.500000 94.722144
624.500000 95.120554
624.500000 95.519801
624.500000 95.919883
624.500000 96.320802
624.500000 96.722557
624.500000 97.125147
624.500000 97.528574
624.500000 97.932837
624.500000 98.337937
624.500000 98.743872
624.500000 99.150643
624.500000 99.558251
624.500000 99.966695
624.500000 100.375974
624.500000 100.786090
624.500000 101.197042
624.500000 101.608831
624.500000 102.021455
624.500000 102.434915
624.500000 102.849212
624.500000 103.264344
624.500000 103.680313
624.500000 104.097118
624.500000 104.514759
624.500000 104.933236
624.500000 105.352549
624.500000 105.772699
624.500000 106.193684
624.500000 106.615506
624.500000 107.038163
624.500000 107.461657
624.500000 107.885987
624.500000 108.311153
624.500000 108.737155
624.500000 109.163993
624.500000 109.591668
624.500000 110.020178
624.500000 110.449525
624.500000 110.879708
624.500000 111.310727
624.500000 111.742582
624.500000 112.175273
624.500000 112.608800
624.500000 113.043163
624.500000 113.478363
624.500000 113.914398
624.500000 114.351270
624.500000 114.788978
624.500000 115.227522
624.500000 115.666902
624.500000 116.107118
624.500000 116.548170
624.500000 116.990059
624.500000 117.432783
624.500000 117.876344
624.500000 118.320740
624.500000 118.765973
624.500000 119.212042
624.500000 119.658947
624.500000 120.106689
624.500000 120.555266
624.500000 121.004679
624.500000 121.454929
624.500000 121.906015
624.500000 122.357937
624.500000 122.810695
624.500000 123.264289
624.500000 123.718719
624.500000 124.173985
624.500000 124.630087
624.500000 125.087026
624.500000 125.544801
624.500000 126.003411
624.500000 126.462858
624.500000 126.923141
624.500000 127.384260
624.500000 127.846216
624.500000 128.309007
624.500000 128.772634
624.500000 129.237098
624.500000 129.702398
624.500000 130.168534
624.500000 130.635505
624.500000 131.103314
624.500000 131.571958
624.500000 132.041438
624.500000 132.511754
624.500000 132.982907
624.500000 133.454896
624.500000 133.927720
624.500000 134.401381
624.500000 134.875878
624.500000 135.351211
624.500000 135.827381
624.500000 136.304386
624.500000 136.782227
624.500000 137.260905
624.500000 137.740419
624.500000 138.220769
624.500000 138.701955
624.500000 139.183977
624.500000 139.666835
624.500000 140.150529
624.500000 140.635060
624.500000 141.120426
624.500000 141.606629
624.500000 142.093668
624.500000 142.581542
624.500000 143.070253
624.500000 143.559801
624.500000 144.050184
624.500000 144.541403
624.500000 145.033459
624.500000 145.526350
624.500000 146.020078
624.500000 146.514642
624.500000 147.010042
624.500000 147.506278
624.500000 148.003350
624.500000 148.501258
624.500000 149.000003
624.500000 149.499583
624.500000 150.000000
</POINTS>
</NEKTAR>

