<?xml version="1.0" encoding="utf-8" ?>
<NEKTAR>
<POINTS DIM="2" FIELDS="">
964.500000 0.000000
964.500000 0.000418
964.500000 0.001672
964.500000 0.003763
964.500000 0.006689
964.500000 0.010451
964.500000 0.015050
964.500000 0.020485
964.500000 0.026756
964.500000 0.033863
964.500000 0.041806
964.500000 0.050585
964.500000 0.060201
964.500000 0.070652
964.500000 0.081940
964.500000 0.094063
964.500000 0.107023
964.500000 0.120819
964.500000 0.135451
964.500000 0.150919
964.500000 0.167224
964.500000 0.184364
964.500000 0.202341
964.500000 0.221153
964.500000 0.240802
964.500000 0.261287
964.500000 0.282608
964.500000 0.304765
964.500000 0.327758
964.500000 0.351588
964.500000 0.376253
964.500000 0.401755
964.500000 0.428092
964.500000 0.455266
964.500000 0.483276
964.500000 0.512122
964.500000 0.541805
964.500000 0.572323
964.500000 0.603677
964.500000 0.635868
964.500000 0.668894
964.500000 0.702757
964.500000 0.737456
964.500000 0.772991
964.500000 0.809362
964.500000 0.846570
964.500000 0.884613
964.500000 0.923492
964.500000 0.963208
964.500000 1.003760
964.500000 1.045148
964.500000 1.087372
964.500000 1.130432
964.500000 1.174328
964.500000 1.219060
964.500000 1.264629
964.500000 1.311033
964.500000 1.358274
964.500000 1.406351
964.500000 1.455264
964.500000 1.505013
964.500000 1.555598
964.500000 1.607019
964.500000 1.659276
964.500000 1.712370
964.500000 1.766299
964.500000 1.821065
964.500000 1.876667
964.500000 1.933105
964.500000 1.990379
964.500000 2.048489
964.500000 2.107436
964.500000 2.167218
964.500000 2.227837
964.500000 2.289291
964.500000 2.351582
964.500000 2.414709
964.500000 2.478672
964.500000 2.543471
964.500000 2.609106
964.500000 2.675578
964.500000 2.742885
964.500000 2.811029
964.500000 2.880009
964.500000 2.949825
964.500000 3.020477
964.500000 3.091965
964.500000 3.164289
964.500000 3.237449
964.500000 3.311446
964.500000 3.386278
964.500000 3.461947
964.500000 3.538452
964.500000 3.615793
964.500000 3.693970
964.500000 3.772983
964.500000 3.852832
964.500000 3.933517
964.500000 4.015039
964.500000 4.097397
964.500000 4.180590
964.500000 4.264620
964.500000 4.349486
964.500000 4.435188
964.500000 4.521727
964.500000 4.609101
964.500000 4.697311
964.500000 4.786358
964.500000 4.876241
964.500000 4.966959
964.500000 5.058514
964.500000 5.150905
964.500000 5.244133
964.500000 5.338196
964.500000 5.433095
964.500000 5.528831
964.500000 5.625402
964.500000 5.722810
964.500000 5.821054
964.500000 5.920134
964.500000 6.020050
964.500000 6.120802
964.500000 6.222391
964.500000 6.324815
964.500000 6.428076
964.500000 6.532172
964.500000 6.637105
964.500000 6.742874
964.500000 6.849479
964.500000 6.956920
964.500000 7.065198
964.500000 7.174311
964.500000 7.284261
964.500000 7.395046
964.500000 7.506668
964.500000 7.619126
964.500000 7.732420
964.500000 7.846550
964.500000 7.961516
964.500000 8.077319
964.500000 8.193957
964.500000 8.311432
964.500000 8.429742
964.500000 8.548889
964.500000 8.668872
964.500000 8.789691
964.500000 8.911346
964.500000 9.033838
964.500000 9.157165
964.500000 9.281329
964.500000 9.406328
964.500000 9.532164
964.500000 9.658836
964.500000 9.786344
964.500000 9.914688
964.500000 10.043868
964.500000 10.173885
964.500000 10.304737
964.500000 10.436426
964.500000 10.568950
964.500000 10.702311
964.500000 10.836508
964.500000 10.971541
964.500000 11.107411
964.500000 11.244116
964.500000 11.381657
964.500000 11.520035
964.500000 11.659248
964.500000 11.799298
964.500000 11.940184
964.500000 12.081906
964.500000 12.224464
964.500000 12.367859
964.500000 12.512089
964.500000 12.657155
964.500000 12.803058
964.500000 12.949797
964.500000 13.097372
964.500000 13.245782
964.500000 13.395030
964.500000 13.545113
964.500000 13.696032
964.500000 13.847787
964.500000 14.000379
964.500000 14.153807
964.500000 14.308070
964.500000 14.463170
964.500000 14.619106
964.500000 14.775879
964.500000 14.933487
964.500000 15.091931
964.500000 15.251212
964.500000 15.411328
964.500000 15.572281
964.500000 15.734070
964.500000 15.896695
964.500000 16.060156
964.500000 16.224453
964.500000 16.389586
964.500000 16.555556
964.500000 16.722361
964.500000 16.890003
964.500000 17.058481
964.500000 17.227795
964.500000 17.397945
964.500000 17.568931
964.500000 17.740753
964.500000 17.913412
964.500000 18.086906
964.500000 18.261237
964.500000 18.436403
964.500000 18.612406
964.500000 18.789245
964.500000 18.966920
964.500000 19.145432
964.500000 19.324779
964.500000 19.504962
964.500000 19.685982
964.500000 19.867838
964.500000 20.050529
964.500000 20.234057
964.500000 20.418421
964.500000 20.603622
964.500000 20.789658
964.500000 20.976530
964.500000 21.164239
964.500000 21.352783
964.500000 21.542164
964.500000 21.732381
964.500000 21.923434
964.500000 22.115323
964.500000 22.308048
964.500000 22.501610
964.500000 22.696007
964.500000 22.891241
964.500000 23.087310
964.500000 23.284216
964.500000 23.481958
964.500000 23.680536
964.500000 23.879950
964.500000 24.080200
964.500000 24.281287
964.500000 24.483209
964.500000 24.685968
964.500000 24.889563
964.500000 25.093994
964.500000 25.299261
964.500000 25.505364
964.500000 25.712303
964.500000 25.920078
964.500000 26.128690
964.500000 26.338137
964.500000 26.548421
964.500000 26.759541
964.500000 26.971497
964.500000 27.184289
964.500000 27.397917
964.500000 27.612381
964.500000 27.827682
964.500000 28.043818
964.500000 28.260791
964.500000 28.478600
964.500000 28.697244
964.500000 28.916725
964.500000 29.137043
964.500000 29.358196
964.500000 29.580185
964.500000 29.803011
964.500000 30.026672
964.500000 30.251170
964.500000 30.476504
964.500000 30.702674
964.500000 30.929680
964.500000 31.157522
964.500000 31.386200
964.500000 31.615715
964.500000 31.846065
964.500000 32.077252
964.500000 32.309275
964.500000 32.542133
964.500000 32.775828
964.500000 33.010360
964.500000 33.245727
964.500000 33.481930
964.500000 33.718970
964.500000 33.956845
964.500000 34.195557
964.500000 34.435105
964.500000 34.675489
964.500000 34.916709
964.500000 35.158765
964.500000 35.401657
964.500000 35.645386
964.500000 35.889950
964.500000 36.135351
964.500000 36.381588
964.500000 36.628660
964.500000 36.876569
964.500000 37.125315
964.500000 37.374896
964.500000 37.625313
964.500000 37.876567
964.500000 38.128656
964.500000 38.381582
964.500000 38.635344
964.500000 38.889942
964.500000 39.145376
964.500000 39.401646
964.500000 39.658752
964.500000 39.916695
964.500000 40.175473
964.500000 40.435088
964.500000 40.695539
964.500000 40.956826
964.500000 41.218949
964.500000 41.481908
964.500000 41.745703
964.500000 42.010334
964.500000 42.275802
964.500000 42.542106
964.500000 42.809245
964.500000 43.077221
964.500000 43.346033
964.500000 43.615681
964.500000 43.886165
964.500000 44.157486
964.500000 44.429642
964.500000 44.702635
964.500000 44.976463
964.500000 45.251128
964.500000 45.526629
964.500000 45.802966
964.500000 46.080139
964.500000 46.358148
964.500000 46.636994
964.500000 46.916675
964.500000 47.197193
964.500000 47.478547
964.500000 47.760736
964.500000 48.043762
964.500000 48.327625
964.500000 48.612323
964.500000 48.897857
964.500000 49.184227
964.500000 49.471434
964.500000 49.759477
964.500000 50.048355
964.500000 50.338070
964.500000 50.628621
964.500000 50.920009
964.500000 51.212232
964.500000 51.505291
964.500000 51.799187
964.500000 52.093918
964.500000 52.389486
964.500000 52.685890
964.500000 52.983130
964.500000 53.281206
964.500000 53.580118
964.500000 53.879867
964.500000 54.180451
964.500000 54.481872
964.500000 54.784128
964.500000 55.087221
964.500000 55.391150
964.500000 55.695915
964.500000 56.001516
964.500000 56.307953
964.500000 56.615227
964.500000 56.923336
964.500000 57.232282
964.500000 57.542064
964.500000 57.852682
964.500000 58.164136
964.500000 58.476426
964.500000 58.789552
964.500000 59.103514
964.500000 59.418313
964.500000 59.733947
964.500000 60.050418
964.500000 60.367725
964.500000 60.685868
964.500000 61.004847
964.500000 61.324662
964.500000 61.645313
964.500000 61.966801
964.500000 62.289124
964.500000 62.612284
964.500000 62.936279
964.500000 63.261111
964.500000 63.586779
964.500000 63.913283
964.500000 64.240624
964.500000 64.568800
964.500000 64.897812
964.500000 65.227661
964.500000 65.558346
964.500000 65.889867
964.500000 66.222223
964.500000 66.555417
964.500000 66.889446
964.500000 67.224311
964.500000 67.560012
964.500000 67.896550
964.500000 68.233924
964.500000 68.572133
964.500000 68.911179
964.500000 69.251061
964.500000 69.591779
964.500000 69.933334
964.500000 70.275724
964.500000 70.618950
964.500000 70.963013
964.500000 71.307912
964.500000 71.653646
964.500000 72.000217
964.500000 72.347624
964.500000 72.695868
964.500000 73.044947
964.500000 73.394862
964.500000 73.745614
964.500000 74.097202
964.500000 74.449625
964.500000 74.802885
964.500000 75.156981
964.500000 75.511913
964.500000 75.867682
964.500000 76.224286
964.500000 76.581726
964.500000 76.940003
964.500000 77.299116
964.500000 77.659064
964.500000 78.019849
964.500000 78.381471
964.500000 78.743928
964.500000 79.107221
964.500000 79.471350
964.500000 79.836316
964.500000 80.202118
964.500000 80.568755
964.500000 80.936229
964.500000 81.304539
964.500000 81.673685
964.500000 82.043668
964.500000 82.414486
964.500000 82.786141
964.500000 83.158631
964.500000 83.531958
964.500000 83.906121
964.500000 84.281120
964.500000 84.656955
964.500000 85.033626
964.500000 85.411133
964.500000 85.789477
964.500000 86.168656
964.500000 86.548672
964.500000 86.929524
964.500000 87.311212
964.500000 87.693736
964.500000 88.077096
964.500000 88.461292
964.500000 88.846324
964.500000 89.232193
964.500000 89.618897
964.500000 90.006438
964.500000 90.394815
964.500000 90.784028
964.500000 91.174077
964.500000 91.564962
964.500000 91.956684
964.500000 92.349241
964.500000 92.742634
964.500000 93.136864
964.500000 93.531930
964.500000 93.927832
964.500000 94.324570
964.500000 94.722144
964.500000 95.120554
964.500000 95.519801
964.500000 95.919883
964.500000 96.320802
964.500000 96.722557
964.500000 97.125147
964.500000 97.528574
964.500000 97.932837
964.500000 98.337937
964.500000 98.743872
964.500000 99.150643
964.500000 99.558251
964.500000 99.966695
964.500000 100.375974
964.500000 100.786090
964.500000 101.197042
964.500000 101.608831
964.500000 102.021455
964.500000 102.434915
964.500000 102.849212
964.500000 103.264344
964.500000 103.680313
964.500000 104.097118
964.500000 104.514759
964.500000 104.933236
964.500000 105.352549
964.500000 105.772699
964.500000 106.193684
964.500000 106.615506
964.500000 107.038163
964.500000 107.461657
964.500000 107.885987
964.500000 108.311153
964.500000 108.737155
964.500000 109.163993
964.500000 109.591668
964.500000 110.020178
964.500000 110.449525
964.500000 110.879708
964.500000 111.310727
964.500000 111.742582
964.500000 112.175273
964.500000 112.608800
964.500000 113.043163
964.500000 113.478363
964.500000 113.914398
964.500000 114.351270
964.500000 114.788978
964.500000 115.227522
964.500000 115.666902
964.500000 116.107118
964.500000 116.548170
964.500000 116.990059
964.500000 117.432783
964.500000 117.876344
964.500000 118.320740
964.500000 118.765973
964.500000 119.212042
964.500000 119.658947
964.500000 120.106689
964.500000 120.555266
964.500000 121.004679
964.500000 121.454929
964.500000 121.906015
964.500000 122.357937
964.500000 122.810695
964.500000 123.264289
964.500000 123.718719
964.500000 124.173985
964.500000 124.630087
964.500000 125.087026
964.500000 125.544801
964.500000 126.003411
964.500000 126.462858
964.500000 126.923141
964.500000 127.384260
964.500000 127.846216
964.500000 128.309007
964.500000 128.772634
964.500000 129.237098
964.500000 129.702398
964.500000 130.168534
964.500000 130.635505
964.500000 131.103314
964.500000 131.571958
964.500000 132.041438
964.500000 132.511754
964.500000 132.982907
964.500000 133.454896
964.500000 133.927720
964.500000 134.401381
964.500000 134.875878
964.500000 135.351211
964.500000 135.827381
964.500000 136.304386
964.500000 136.782227
964.500000 137.260905
964.500000 137.740419
964.500000 138.220769
964.500000 138.701955
964.500000 139.183977
964.500000 139.666835
964.500000 140.150529
964.500000 140.635060
964.500000 141.120426
964.500000 141.606629
964.500000 142.093668
964.500000 142.581542
964.500000 143.070253
964.500000 143.559801
964.500000 144.050184
964.500000 144.541403
964.500000 145.033459
964.500000 145.526350
964.500000 146.020078
964.500000 146.514642
964.500000 147.010042
964.500000 147.506278
964.500000 148.003350
964.500000 148.501258
964.500000 149.000003
964.500000 149.499583
964.500000 150.000000
</POINTS>
</NEKTAR>

