<?xml version="1.0" encoding="utf-8" ?>
<NEKTAR>
<POINTS DIM="2" FIELDS="">
9.500000 -3.500000
9.500000 -3.499572
9.500000 -3.498289
9.500000 -3.496150
9.500000 -3.493155
9.500000 -3.489305
9.500000 -3.484599
9.500000 -3.479037
9.500000 -3.472620
9.500000 -3.465347
9.500000 -3.457219
9.500000 -3.448235
9.500000 -3.438395
9.500000 -3.427699
9.500000 -3.416149
9.500000 -3.403742
9.500000 -3.390480
9.500000 -3.376362
9.500000 -3.361388
9.500000 -3.345559
9.500000 -3.328875
9.500000 -3.311334
9.500000 -3.292938
9.500000 -3.273687
9.500000 -3.253579
9.500000 -3.232616
9.500000 -3.210798
9.500000 -3.188124
9.500000 -3.164594
9.500000 -3.140209
9.500000 -3.114968
9.500000 -3.088871
9.500000 -3.061919
9.500000 -3.034111
9.500000 -3.005447
9.500000 -2.975928
9.500000 -2.945553
9.500000 -2.914323
9.500000 -2.882237
9.500000 -2.849295
9.500000 -2.815498
9.500000 -2.780845
9.500000 -2.745337
9.500000 -2.708972
9.500000 -2.671753
9.500000 -2.633677
9.500000 -2.594746
9.500000 -2.554959
9.500000 -2.514317
9.500000 -2.472819
9.500000 -2.430466
9.500000 -2.387256
9.500000 -2.343192
9.500000 -2.298271
9.500000 -2.252495
9.500000 -2.205863
9.500000 -2.158376
9.500000 -2.110033
9.500000 -2.060835
9.500000 -2.010780
9.500000 -1.959871
9.500000 -1.908105
9.500000 -1.855484
9.500000 -1.802007
9.500000 -1.747675
9.500000 -1.692487
9.500000 -1.636443
9.500000 -1.579544
9.500000 -1.521789
9.500000 -1.463179
9.500000 -1.403713
9.500000 -1.343391
9.500000 -1.282214
9.500000 -1.220181
9.500000 -1.157292
9.500000 -1.093548
9.500000 -1.028948
9.500000 -0.963492
9.500000 -0.897181
9.500000 -0.830014
9.500000 -0.761992
9.500000 -0.693114
9.500000 -0.623380
9.500000 -0.552791
9.500000 -0.481346
9.500000 -0.409046
9.500000 -0.335890
9.500000 -0.261878
9.500000 -0.187010
9.500000 -0.111287
9.500000 -0.034709
9.500000 0.042726
9.500000 0.121016
9.500000 0.200161
9.500000 0.280162
9.500000 0.361019
9.500000 0.442731
9.500000 0.525300
9.500000 0.608723
9.500000 0.693003
9.500000 0.778137
9.500000 0.864128
9.500000 0.950974
9.500000 1.038676
9.500000 1.127233
9.500000 1.216647
9.500000 1.306915
9.500000 1.398040
9.500000 1.490020
9.500000 1.582855
9.500000 1.676546
9.500000 1.771093
9.500000 1.866496
9.500000 1.962754
9.500000 2.059867
9.500000 2.157837
9.500000 2.256662
9.500000 2.356342
9.500000 2.456879
9.500000 2.558270
9.500000 2.660518
9.500000 2.763621
9.500000 2.867580
9.500000 2.972394
9.500000 3.078064
9.500000 3.184590
9.500000 3.291971
9.500000 3.400208
9.500000 3.509300
9.500000 3.619249
9.500000 3.730052
9.500000 3.841712
9.500000 3.954227
9.500000 4.067597
9.500000 4.181824
9.500000 4.296906
9.500000 4.412843
9.500000 4.529636
9.500000 4.647285
9.500000 4.765789
9.500000 4.885149
9.500000 5.005365
9.500000 5.126436
9.500000 5.248363
9.500000 5.371146
9.500000 5.494784
9.500000 5.619278
9.500000 5.744627
9.500000 5.870832
9.500000 5.997893
9.500000 6.125809
9.500000 6.254581
9.500000 6.384209
9.500000 6.514692
9.500000 6.646031
9.500000 6.778225
9.500000 6.911275
9.500000 7.045181
9.500000 7.179942
9.500000 7.315559
9.500000 7.452032
9.500000 7.589360
9.500000 7.727544
9.500000 7.866583
9.500000 8.006479
9.500000 8.147229
9.500000 8.288836
9.500000 8.431298
9.500000 8.574615
9.500000 8.718788
9.500000 8.863817
9.500000 9.009702
9.500000 9.156442
9.500000 9.304038
9.500000 9.452489
9.500000 9.601796
9.500000 9.751959
9.500000 9.902977
9.500000 10.054851
9.500000 10.207580
9.500000 10.361165
9.500000 10.515606
9.500000 10.670903
9.500000 10.827055
9.500000 10.984062
9.500000 11.141925
9.500000 11.300644
9.500000 11.460219
9.500000 11.620649
9.500000 11.781935
9.500000 11.944076
9.500000 12.107073
9.500000 12.270926
9.500000 12.435634
9.500000 12.601198
9.500000 12.767618
9.500000 12.934893
9.500000 13.103024
9.500000 13.272010
9.500000 13.441852
9.500000 13.612550
9.500000 13.784103
9.500000 13.956512
9.500000 14.129777
9.500000 14.303897
9.500000 14.478873
9.500000 14.654704
9.500000 14.831391
9.500000 15.008934
9.500000 15.187332
9.500000 15.366586
9.500000 15.546696
9.500000 15.727661
9.500000 15.909482
9.500000 16.092158
9.500000 16.275690
9.500000 16.460078
9.500000 16.645322
9.500000 16.831420
9.500000 17.018375
9.500000 17.206185
9.500000 17.394851
9.500000 17.584373
9.500000 17.774750
9.500000 17.965983
9.500000 18.158071
9.500000 18.351015
9.500000 18.544815
9.500000 18.739470
9.500000 18.934981
9.500000 19.131347
9.500000 19.328569
9.500000 19.526647
9.500000 19.725580
9.500000 19.925369
9.500000 20.126014
9.500000 20.327514
9.500000 20.529870
9.500000 20.733082
9.500000 20.937149
9.500000 21.142072
9.500000 21.347850
9.500000 21.554484
9.500000 21.761974
9.500000 21.970319
9.500000 22.179520
9.500000 22.389577
9.500000 22.600489
9.500000 22.812257
9.500000 23.024880
9.500000 23.238359
9.500000 23.452694
9.500000 23.667884
9.500000 23.883930
9.500000 24.100832
9.500000 24.318589
9.500000 24.537202
9.500000 24.756670
9.500000 24.976994
9.500000 25.198174
9.500000 25.420209
9.500000 25.643100
9.500000 25.866847
9.500000 26.091449
9.500000 26.316907
9.500000 26.543220
9.500000 26.770389
9.500000 26.998414
9.500000 27.227295
9.500000 27.457030
9.500000 27.687622
9.500000 27.919069
9.500000 28.151372
9.500000 28.384531
9.500000 28.618545
9.500000 28.853415
9.500000 29.089140
9.500000 29.325721
9.500000 29.563158
9.500000 29.801450
9.500000 30.040598
9.500000 30.280601
9.500000 30.521460
9.500000 30.763175
9.500000 31.005746
9.500000 31.249172
9.500000 31.493453
9.500000 31.738590
9.500000 31.984583
9.500000 32.231432
9.500000 32.479136
9.500000 32.727696
9.500000 32.977111
9.500000 33.227382
9.500000 33.478509
9.500000 33.730491
9.500000 33.983329
9.500000 34.237023
9.500000 34.491572
9.500000 34.746977
9.500000 35.003237
9.500000 35.260353
9.500000 35.518325
9.500000 35.777152
9.500000 36.036835
9.500000 36.297374
9.500000 36.558768
9.500000 36.821018
9.500000 37.084123
9.500000 37.348084
9.500000 37.612901
9.500000 37.878573
9.500000 38.145101
9.500000 38.412485
9.500000 38.680724
9.500000 38.949819
9.500000 39.219769
9.500000 39.490576
9.500000 39.762237
9.500000 40.034755
9.500000 40.308128
9.500000 40.582356
9.500000 40.857440
9.500000 41.133380
9.500000 41.410176
9.500000 41.687827
9.500000 41.966334
9.500000 42.245696
9.500000 42.525914
9.500000 42.806988
9.500000 43.088917
9.500000 43.371702
9.500000 43.655342
9.500000 43.939839
9.500000 44.225190
9.500000 44.511398
9.500000 44.798461
9.500000 45.086379
9.500000 45.375154
9.500000 45.664784
9.500000 45.955269
9.500000 46.246610
9.500000 46.538807
9.500000 46.831859
9.500000 47.125767
9.500000 47.420531
9.500000 47.716150
9.500000 48.012625
9.500000 48.309956
9.500000 48.608142
9.500000 48.907184
9.500000 49.207081
9.500000 49.507834
9.500000 49.809443
9.500000 50.111907
9.500000 50.415227
9.500000 50.719403
9.500000 51.024434
9.500000 51.330321
9.500000 51.637063
9.500000 51.944662
9.500000 52.253115
9.500000 52.562425
9.500000 52.872590
9.500000 53.183610
9.500000 53.495486
9.500000 53.808218
9.500000 54.121806
9.500000 54.436249
9.500000 54.751548
9.500000 55.067702
9.500000 55.384712
9.500000 55.702577
9.500000 56.021299
9.500000 56.340876
9.500000 56.661308
9.500000 56.982596
9.500000 57.304740
9.500000 57.627739
9.500000 57.951594
9.500000 58.276305
9.500000 58.601871
9.500000 58.928293
9.500000 59.255571
9.500000 59.583704
9.500000 59.912693
9.500000 60.242537
9.500000 60.573237
9.500000 60.904793
9.500000 61.237204
9.500000 61.570471
9.500000 61.904593
9.500000 62.239572
9.500000 62.575405
9.500000 62.912095
9.500000 63.249640
9.500000 63.588040
9.500000 63.927297
9.500000 64.267409
9.500000 64.608376
9.500000 64.950199
9.500000 65.292878
9.500000 65.636413
9.500000 65.980803
9.500000 66.326048
9.500000 66.672150
9.500000 67.019107
9.500000 67.366919
9.500000 67.715587
9.500000 68.065111
9.500000 68.415491
9.500000 68.766726
9.500000 69.118817
9.500000 69.471763
9.500000 69.825565
9.500000 70.180222
9.500000 70.535736
9.500000 70.892105
9.500000 71.249329
9.500000 71.607409
9.500000 71.966345
9.500000 72.326136
9.500000 72.686783
9.500000 73.048286
9.500000 73.410644
9.500000 73.773858
9.500000 74.137927
9.500000 74.502853
9.500000 74.868633
9.500000 75.235270
9.500000 75.602762
9.500000 75.971109
9.500000 76.340313
9.500000 76.710371
9.500000 77.081286
9.500000 77.453056
9.500000 77.825682
9.500000 78.199163
9.500000 78.573500
9.500000 78.948693
9.500000 79.324741
9.500000 79.701645
9.500000 80.079405
9.500000 80.458020
9.500000 80.837491
9.500000 81.217817
9.500000 81.598999
9.500000 81.981037
9.500000 82.363930
9.500000 82.747679
9.500000 83.132284
9.500000 83.517744
9.500000 83.904060
9.500000 84.291231
9.500000 84.679258
9.500000 85.068141
9.500000 85.457879
9.500000 85.848473
9.500000 86.239923
9.500000 86.632228
9.500000 87.025389
9.500000 87.419405
9.500000 87.814277
9.500000 88.210005
9.500000 88.606588
9.500000 89.004027
9.500000 89.402322
9.500000 89.801472
9.500000 90.201478
9.500000 90.602339
9.500000 91.004057
9.500000 91.406629
9.500000 91.810058
9.500000 92.214342
9.500000 92.619481
9.500000 93.025477
9.500000 93.432327
9.500000 93.840034
9.500000 94.248596
9.500000 94.658014
9.500000 95.068287
9.500000 95.479416
9.500000 95.891401
9.500000 96.304241
9.500000 96.717937
9.500000 97.132488
9.500000 97.547896
9.500000 97.964158
9.500000 98.381277
9.500000 98.799251
9.500000 99.218080
9.500000 99.637766
9.500000 100.058307
9.500000 100.479703
9.500000 100.901955
9.500000 101.325063
9.500000 101.749027
9.500000 102.173846
9.500000 102.599520
9.500000 103.026051
9.500000 103.453437
9.500000 103.881678
9.500000 104.310775
9.500000 104.740728
9.500000 105.171537
9.500000 105.603201
9.500000 106.035720
9.500000 106.469096
9.500000 106.903327
9.500000 107.338413
9.500000 107.774355
9.500000 108.211153
9.500000 108.648807
9.500000 109.087316
9.500000 109.526681
9.500000 109.966901
9.500000 110.407977
9.500000 110.849908
9.500000 111.292696
9.500000 111.736339
9.500000 112.180837
9.500000 112.626191
9.500000 113.072401
9.500000 113.519466
9.500000 113.967387
9.500000 114.416164
9.500000 114.865796
9.500000 115.316284
9.500000 115.767627
9.500000 116.219827
9.500000 116.672881
9.500000 117.126792
9.500000 117.581558
9.500000 118.037179
9.500000 118.493657
9.500000 118.950990
9.500000 119.409178
9.500000 119.868222
9.500000 120.328122
9.500000 120.788877
9.500000 121.250488
9.500000 121.712955
9.500000 122.176277
9.500000 122.640455
9.500000 123.105489
9.500000 123.571378
9.500000 124.038123
9.500000 124.505723
9.500000 124.974179
9.500000 125.443491
9.500000 125.913658
9.500000 126.384681
9.500000 126.856560
9.500000 127.329294
9.500000 127.802884
9.500000 128.277329
9.500000 128.752630
9.500000 129.228787
9.500000 129.705799
9.500000 130.183667
9.500000 130.662391
9.500000 131.141970
9.500000 131.622405
9.500000 132.103695
9.500000 132.585841
9.500000 133.068843
9.500000 133.552701
9.500000 134.037413
9.500000 134.522982
9.500000 135.009406
9.500000 135.496686
9.500000 135.984822
9.500000 136.473813
9.500000 136.963660
9.500000 137.454362
9.500000 137.945920
9.500000 138.438334
9.500000 138.931603
9.500000 139.425728
9.500000 139.920708
9.500000 140.416544
9.500000 140.913236
9.500000 141.410783
9.500000 141.909186
9.500000 142.408445
9.500000 142.908559
9.500000 143.409529
9.500000 143.911355
9.500000 144.414036
9.500000 144.917573
9.500000 145.421965
9.500000 145.927213
9.500000 146.433317
9.500000 146.940276
9.500000 147.448091
9.500000 147.956762
9.500000 148.466288
9.500000 148.976670
9.500000 149.487907
9.500000 150.000000
</POINTS>
</NEKTAR>

