<?xml version="1.0" encoding="utf-8" ?>
<NEKTAR>
<POINTS DIM="2" FIELDS="">
484.500000 0.000000
484.500000 0.000418
484.500000 0.001672
484.500000 0.003763
484.500000 0.006689
484.500000 0.010451
484.500000 0.015050
484.500000 0.020485
484.500000 0.026756
484.500000 0.033863
484.500000 0.041806
484.500000 0.050585
484.500000 0.060201
484.500000 0.070652
484.500000 0.081940
484.500000 0.094063
484.500000 0.107023
484.500000 0.120819
484.500000 0.135451
484.500000 0.150919
484.500000 0.167224
484.500000 0.184364
484.500000 0.202341
484.500000 0.221153
484.500000 0.240802
484.500000 0.261287
484.500000 0.282608
484.500000 0.304765
484.500000 0.327758
484.500000 0.351588
484.500000 0.376253
484.500000 0.401755
484.500000 0.428092
484.500000 0.455266
484.500000 0.483276
484.500000 0.512122
484.500000 0.541805
484.500000 0.572323
484.500000 0.603677
484.500000 0.635868
484.500000 0.668894
484.500000 0.702757
484.500000 0.737456
484.500000 0.772991
484.500000 0.809362
484.500000 0.846570
484.500000 0.884613
484.500000 0.923492
484.500000 0.963208
484.500000 1.003760
484.500000 1.045148
484.500000 1.087372
484.500000 1.130432
484.500000 1.174328
484.500000 1.219060
484.500000 1.264629
484.500000 1.311033
484.500000 1.358274
484.500000 1.406351
484.500000 1.455264
484.500000 1.505013
484.500000 1.555598
484.500000 1.607019
484.500000 1.659276
484.500000 1.712370
484.500000 1.766299
484.500000 1.821065
484.500000 1.876667
484.500000 1.933105
484.500000 1.990379
484.500000 2.048489
484.500000 2.107436
484.500000 2.167218
484.500000 2.227837
484.500000 2.289291
484.500000 2.351582
484.500000 2.414709
484.500000 2.478672
484.500000 2.543471
484.500000 2.609106
484.500000 2.675578
484.500000 2.742885
484.500000 2.811029
484.500000 2.880009
484.500000 2.949825
484.500000 3.020477
484.500000 3.091965
484.500000 3.164289
484.500000 3.237449
484.500000 3.311446
484.500000 3.386278
484.500000 3.461947
484.500000 3.538452
484.500000 3.615793
484.500000 3.693970
484.500000 3.772983
484.500000 3.852832
484.500000 3.933517
484.500000 4.015039
484.500000 4.097397
484.500000 4.180590
484.500000 4.264620
484.500000 4.349486
484.500000 4.435188
484.500000 4.521727
484.500000 4.609101
484.500000 4.697311
484.500000 4.786358
484.500000 4.876241
484.500000 4.966959
484.500000 5.058514
484.500000 5.150905
484.500000 5.244133
484.500000 5.338196
484.500000 5.433095
484.500000 5.528831
484.500000 5.625402
484.500000 5.722810
484.500000 5.821054
484.500000 5.920134
484.500000 6.020050
484.500000 6.120802
484.500000 6.222391
484.500000 6.324815
484.500000 6.428076
484.500000 6.532172
484.500000 6.637105
484.500000 6.742874
484.500000 6.849479
484.500000 6.956920
484.500000 7.065198
484.500000 7.174311
484.500000 7.284261
484.500000 7.395046
484.500000 7.506668
484.500000 7.619126
484.500000 7.732420
484.500000 7.846550
484.500000 7.961516
484.500000 8.077319
484.500000 8.193957
484.500000 8.311432
484.500000 8.429742
484.500000 8.548889
484.500000 8.668872
484.500000 8.789691
484.500000 8.911346
484.500000 9.033838
484.500000 9.157165
484.500000 9.281329
484.500000 9.406328
484.500000 9.532164
484.500000 9.658836
484.500000 9.786344
484.500000 9.914688
484.500000 10.043868
484.500000 10.173885
484.500000 10.304737
484.500000 10.436426
484.500000 10.568950
484.500000 10.702311
484.500000 10.836508
484.500000 10.971541
484.500000 11.107411
484.500000 11.244116
484.500000 11.381657
484.500000 11.520035
484.500000 11.659248
484.500000 11.799298
484.500000 11.940184
484.500000 12.081906
484.500000 12.224464
484.500000 12.367859
484.500000 12.512089
484.500000 12.657155
484.500000 12.803058
484.500000 12.949797
484.500000 13.097372
484.500000 13.245782
484.500000 13.395030
484.500000 13.545113
484.500000 13.696032
484.500000 13.847787
484.500000 14.000379
484.500000 14.153807
484.500000 14.308070
484.500000 14.463170
484.500000 14.619106
484.500000 14.775879
484.500000 14.933487
484.500000 15.091931
484.500000 15.251212
484.500000 15.411328
484.500000 15.572281
484.500000 15.734070
484.500000 15.896695
484.500000 16.060156
484.500000 16.224453
484.500000 16.389586
484.500000 16.555556
484.500000 16.722361
484.500000 16.890003
484.500000 17.058481
484.500000 17.227795
484.500000 17.397945
484.500000 17.568931
484.500000 17.740753
484.500000 17.913412
484.500000 18.086906
484.500000 18.261237
484.500000 18.436403
484.500000 18.612406
484.500000 18.789245
484.500000 18.966920
484.500000 19.145432
484.500000 19.324779
484.500000 19.504962
484.500000 19.685982
484.500000 19.867838
484.500000 20.050529
484.500000 20.234057
484.500000 20.418421
484.500000 20.603622
484.500000 20.789658
484.500000 20.976530
484.500000 21.164239
484.500000 21.352783
484.500000 21.542164
484.500000 21.732381
484.500000 21.923434
484.500000 22.115323
484.500000 22.308048
484.500000 22.501610
484.500000 22.696007
484.500000 22.891241
484.500000 23.087310
484.500000 23.284216
484.500000 23.481958
484.500000 23.680536
484.500000 23.879950
484.500000 24.080200
484.500000 24.281287
484.500000 24.483209
484.500000 24.685968
484.500000 24.889563
484.500000 25.093994
484.500000 25.299261
484.500000 25.505364
484.500000 25.712303
484.500000 25.920078
484.500000 26.128690
484.500000 26.338137
484.500000 26.548421
484.500000 26.759541
484.500000 26.971497
484.500000 27.184289
484.500000 27.397917
484.500000 27.612381
484.500000 27.827682
484.500000 28.043818
484.500000 28.260791
484.500000 28.478600
484.500000 28.697244
484.500000 28.916725
484.500000 29.137043
484.500000 29.358196
484.500000 29.580185
484.500000 29.803011
484.500000 30.026672
484.500000 30.251170
484.500000 30.476504
484.500000 30.702674
484.500000 30.929680
484.500000 31.157522
484.500000 31.386200
484.500000 31.615715
484.500000 31.846065
484.500000 32.077252
484.500000 32.309275
484.500000 32.542133
484.500000 32.775828
484.500000 33.010360
484.500000 33.245727
484.500000 33.481930
484.500000 33.718970
484.500000 33.956845
484.500000 34.195557
484.500000 34.435105
484.500000 34.675489
484.500000 34.916709
484.500000 35.158765
484.500000 35.401657
484.500000 35.645386
484.500000 35.889950
484.500000 36.135351
484.500000 36.381588
484.500000 36.628660
484.500000 36.876569
484.500000 37.125315
484.500000 37.374896
484.500000 37.625313
484.500000 37.876567
484.500000 38.128656
484.500000 38.381582
484.500000 38.635344
484.500000 38.889942
484.500000 39.145376
484.500000 39.401646
484.500000 39.658752
484.500000 39.916695
484.500000 40.175473
484.500000 40.435088
484.500000 40.695539
484.500000 40.956826
484.500000 41.218949
484.500000 41.481908
484.500000 41.745703
484.500000 42.010334
484.500000 42.275802
484.500000 42.542106
484.500000 42.809245
484.500000 43.077221
484.500000 43.346033
484.500000 43.615681
484.500000 43.886165
484.500000 44.157486
484.500000 44.429642
484.500000 44.702635
484.500000 44.976463
484.500000 45.251128
484.500000 45.526629
484.500000 45.802966
484.500000 46.080139
484.500000 46.358148
484.500000 46.636994
484.500000 46.916675
484.500000 47.197193
484.500000 47.478547
484.500000 47.760736
484.500000 48.043762
484.500000 48.327625
484.500000 48.612323
484.500000 48.897857
484.500000 49.184227
484.500000 49.471434
484.500000 49.759477
484.500000 50.048355
484.500000 50.338070
484.500000 50.628621
484.500000 50.920009
484.500000 51.212232
484.500000 51.505291
484.500000 51.799187
484.500000 52.093918
484.500000 52.389486
484.500000 52.685890
484.500000 52.983130
484.500000 53.281206
484.500000 53.580118
484.500000 53.879867
484.500000 54.180451
484.500000 54.481872
484.500000 54.784128
484.500000 55.087221
484.500000 55.391150
484.500000 55.695915
484.500000 56.001516
484.500000 56.307953
484.500000 56.615227
484.500000 56.923336
484.500000 57.232282
484.500000 57.542064
484.500000 57.852682
484.500000 58.164136
484.500000 58.476426
484.500000 58.789552
484.500000 59.103514
484.500000 59.418313
484.500000 59.733947
484.500000 60.050418
484.500000 60.367725
484.500000 60.685868
484.500000 61.004847
484.500000 61.324662
484.500000 61.645313
484.500000 61.966801
484.500000 62.289124
484.500000 62.612284
484.500000 62.936279
484.500000 63.261111
484.500000 63.586779
484.500000 63.913283
484.500000 64.240624
484.500000 64.568800
484.500000 64.897812
484.500000 65.227661
484.500000 65.558346
484.500000 65.889867
484.500000 66.222223
484.500000 66.555417
484.500000 66.889446
484.500000 67.224311
484.500000 67.560012
484.500000 67.896550
484.500000 68.233924
484.500000 68.572133
484.500000 68.911179
484.500000 69.251061
484.500000 69.591779
484.500000 69.933334
484.500000 70.275724
484.500000 70.618950
484.500000 70.963013
484.500000 71.307912
484.500000 71.653646
484.500000 72.000217
484.500000 72.347624
484.500000 72.695868
484.500000 73.044947
484.500000 73.394862
484.500000 73.745614
484.500000 74.097202
484.500000 74.449625
484.500000 74.802885
484.500000 75.156981
484.500000 75.511913
484.500000 75.867682
484.500000 76.224286
484.500000 76.581726
484.500000 76.940003
484.500000 77.299116
484.500000 77.659064
484.500000 78.019849
484.500000 78.381471
484.500000 78.743928
484.500000 79.107221
484.500000 79.471350
484.500000 79.836316
484.500000 80.202118
484.500000 80.568755
484.500000 80.936229
484.500000 81.304539
484.500000 81.673685
484.500000 82.043668
484.500000 82.414486
484.500000 82.786141
484.500000 83.158631
484.500000 83.531958
484.500000 83.906121
484.500000 84.281120
484.500000 84.656955
484.500000 85.033626
484.500000 85.411133
484.500000 85.789477
484.500000 86.168656
484.500000 86.548672
484.500000 86.929524
484.500000 87.311212
484.500000 87.693736
484.500000 88.077096
484.500000 88.461292
484.500000 88.846324
484.500000 89.232193
484.500000 89.618897
484.500000 90.006438
484.500000 90.394815
484.500000 90.784028
484.500000 91.174077
484.500000 91.564962
484.500000 91.956684
484.500000 92.349241
484.500000 92.742634
484.500000 93.136864
484.500000 93.531930
484.500000 93.927832
484.500000 94.324570
484.500000 94.722144
484.500000 95.120554
484.500000 95.519801
484.500000 95.919883
484.500000 96.320802
484.500000 96.722557
484.500000 97.125147
484.500000 97.528574
484.500000 97.932837
484.500000 98.337937
484.500000 98.743872
484.500000 99.150643
484.500000 99.558251
484.500000 99.966695
484.500000 100.375974
484.500000 100.786090
484.500000 101.197042
484.500000 101.608831
484.500000 102.021455
484.500000 102.434915
484.500000 102.849212
484.500000 103.264344
484.500000 103.680313
484.500000 104.097118
484.500000 104.514759
484.500000 104.933236
484.500000 105.352549
484.500000 105.772699
484.500000 106.193684
484.500000 106.615506
484.500000 107.038163
484.500000 107.461657
484.500000 107.885987
484.500000 108.311153
484.500000 108.737155
484.500000 109.163993
484.500000 109.591668
484.500000 110.020178
484.500000 110.449525
484.500000 110.879708
484.500000 111.310727
484.500000 111.742582
484.500000 112.175273
484.500000 112.608800
484.500000 113.043163
484.500000 113.478363
484.500000 113.914398
484.500000 114.351270
484.500000 114.788978
484.500000 115.227522
484.500000 115.666902
484.500000 116.107118
484.500000 116.548170
484.500000 116.990059
484.500000 117.432783
484.500000 117.876344
484.500000 118.320740
484.500000 118.765973
484.500000 119.212042
484.500000 119.658947
484.500000 120.106689
484.500000 120.555266
484.500000 121.004679
484.500000 121.454929
484.500000 121.906015
484.500000 122.357937
484.500000 122.810695
484.500000 123.264289
484.500000 123.718719
484.500000 124.173985
484.500000 124.630087
484.500000 125.087026
484.500000 125.544801
484.500000 126.003411
484.500000 126.462858
484.500000 126.923141
484.500000 127.384260
484.500000 127.846216
484.500000 128.309007
484.500000 128.772634
484.500000 129.237098
484.500000 129.702398
484.500000 130.168534
484.500000 130.635505
484.500000 131.103314
484.500000 131.571958
484.500000 132.041438
484.500000 132.511754
484.500000 132.982907
484.500000 133.454896
484.500000 133.927720
484.500000 134.401381
484.500000 134.875878
484.500000 135.351211
484.500000 135.827381
484.500000 136.304386
484.500000 136.782227
484.500000 137.260905
484.500000 137.740419
484.500000 138.220769
484.500000 138.701955
484.500000 139.183977
484.500000 139.666835
484.500000 140.150529
484.500000 140.635060
484.500000 141.120426
484.500000 141.606629
484.500000 142.093668
484.500000 142.581542
484.500000 143.070253
484.500000 143.559801
484.500000 144.050184
484.500000 144.541403
484.500000 145.033459
484.500000 145.526350
484.500000 146.020078
484.500000 146.514642
484.500000 147.010042
484.500000 147.506278
484.500000 148.003350
484.500000 148.501258
484.500000 149.000003
484.500000 149.499583
484.500000 150.000000
</POINTS>
</NEKTAR>

