<?xml version="1.0" encoding="utf-8" ?>
<NEKTAR>
<POINTS DIM="2" FIELDS="">
18.500000 -3.500000
18.500000 -3.499572
18.500000 -3.498289
18.500000 -3.496150
18.500000 -3.493155
18.500000 -3.489305
18.500000 -3.484599
18.500000 -3.479037
18.500000 -3.472620
18.500000 -3.465347
18.500000 -3.457219
18.500000 -3.448235
18.500000 -3.438395
18.500000 -3.427699
18.500000 -3.416149
18.500000 -3.403742
18.500000 -3.390480
18.500000 -3.376362
18.500000 -3.361388
18.500000 -3.345559
18.500000 -3.328875
18.500000 -3.311334
18.500000 -3.292938
18.500000 -3.273687
18.500000 -3.253579
18.500000 -3.232616
18.500000 -3.210798
18.500000 -3.188124
18.500000 -3.164594
18.500000 -3.140209
18.500000 -3.114968
18.500000 -3.088871
18.500000 -3.061919
18.500000 -3.034111
18.500000 -3.005447
18.500000 -2.975928
18.500000 -2.945553
18.500000 -2.914323
18.500000 -2.882237
18.500000 -2.849295
18.500000 -2.815498
18.500000 -2.780845
18.500000 -2.745337
18.500000 -2.708972
18.500000 -2.671753
18.500000 -2.633677
18.500000 -2.594746
18.500000 -2.554959
18.500000 -2.514317
18.500000 -2.472819
18.500000 -2.430466
18.500000 -2.387256
18.500000 -2.343192
18.500000 -2.298271
18.500000 -2.252495
18.500000 -2.205863
18.500000 -2.158376
18.500000 -2.110033
18.500000 -2.060835
18.500000 -2.010780
18.500000 -1.959871
18.500000 -1.908105
18.500000 -1.855484
18.500000 -1.802007
18.500000 -1.747675
18.500000 -1.692487
18.500000 -1.636443
18.500000 -1.579544
18.500000 -1.521789
18.500000 -1.463179
18.500000 -1.403713
18.500000 -1.343391
18.500000 -1.282214
18.500000 -1.220181
18.500000 -1.157292
18.500000 -1.093548
18.500000 -1.028948
18.500000 -0.963492
18.500000 -0.897181
18.500000 -0.830014
18.500000 -0.761992
18.500000 -0.693114
18.500000 -0.623380
18.500000 -0.552791
18.500000 -0.481346
18.500000 -0.409046
18.500000 -0.335890
18.500000 -0.261878
18.500000 -0.187010
18.500000 -0.111287
18.500000 -0.034709
18.500000 0.042726
18.500000 0.121016
18.500000 0.200161
18.500000 0.280162
18.500000 0.361019
18.500000 0.442731
18.500000 0.525300
18.500000 0.608723
18.500000 0.693003
18.500000 0.778137
18.500000 0.864128
18.500000 0.950974
18.500000 1.038676
18.500000 1.127233
18.500000 1.216647
18.500000 1.306915
18.500000 1.398040
18.500000 1.490020
18.500000 1.582855
18.500000 1.676546
18.500000 1.771093
18.500000 1.866496
18.500000 1.962754
18.500000 2.059867
18.500000 2.157837
18.500000 2.256662
18.500000 2.356342
18.500000 2.456879
18.500000 2.558270
18.500000 2.660518
18.500000 2.763621
18.500000 2.867580
18.500000 2.972394
18.500000 3.078064
18.500000 3.184590
18.500000 3.291971
18.500000 3.400208
18.500000 3.509300
18.500000 3.619249
18.500000 3.730052
18.500000 3.841712
18.500000 3.954227
18.500000 4.067597
18.500000 4.181824
18.500000 4.296906
18.500000 4.412843
18.500000 4.529636
18.500000 4.647285
18.500000 4.765789
18.500000 4.885149
18.500000 5.005365
18.500000 5.126436
18.500000 5.248363
18.500000 5.371146
18.500000 5.494784
18.500000 5.619278
18.500000 5.744627
18.500000 5.870832
18.500000 5.997893
18.500000 6.125809
18.500000 6.254581
18.500000 6.384209
18.500000 6.514692
18.500000 6.646031
18.500000 6.778225
18.500000 6.911275
18.500000 7.045181
18.500000 7.179942
18.500000 7.315559
18.500000 7.452032
18.500000 7.589360
18.500000 7.727544
18.500000 7.866583
18.500000 8.006479
18.500000 8.147229
18.500000 8.288836
18.500000 8.431298
18.500000 8.574615
18.500000 8.718788
18.500000 8.863817
18.500000 9.009702
18.500000 9.156442
18.500000 9.304038
18.500000 9.452489
18.500000 9.601796
18.500000 9.751959
18.500000 9.902977
18.500000 10.054851
18.500000 10.207580
18.500000 10.361165
18.500000 10.515606
18.500000 10.670903
18.500000 10.827055
18.500000 10.984062
18.500000 11.141925
18.500000 11.300644
18.500000 11.460219
18.500000 11.620649
18.500000 11.781935
18.500000 11.944076
18.500000 12.107073
18.500000 12.270926
18.500000 12.435634
18.500000 12.601198
18.500000 12.767618
18.500000 12.934893
18.500000 13.103024
18.500000 13.272010
18.500000 13.441852
18.500000 13.612550
18.500000 13.784103
18.500000 13.956512
18.500000 14.129777
18.500000 14.303897
18.500000 14.478873
18.500000 14.654704
18.500000 14.831391
18.500000 15.008934
18.500000 15.187332
18.500000 15.366586
18.500000 15.546696
18.500000 15.727661
18.500000 15.909482
18.500000 16.092158
18.500000 16.275690
18.500000 16.460078
18.500000 16.645322
18.500000 16.831420
18.500000 17.018375
18.500000 17.206185
18.500000 17.394851
18.500000 17.584373
18.500000 17.774750
18.500000 17.965983
18.500000 18.158071
18.500000 18.351015
18.500000 18.544815
18.500000 18.739470
18.500000 18.934981
18.500000 19.131347
18.500000 19.328569
18.500000 19.526647
18.500000 19.725580
18.500000 19.925369
18.500000 20.126014
18.500000 20.327514
18.500000 20.529870
18.500000 20.733082
18.500000 20.937149
18.500000 21.142072
18.500000 21.347850
18.500000 21.554484
18.500000 21.761974
18.500000 21.970319
18.500000 22.179520
18.500000 22.389577
18.500000 22.600489
18.500000 22.812257
18.500000 23.024880
18.500000 23.238359
18.500000 23.452694
18.500000 23.667884
18.500000 23.883930
18.500000 24.100832
18.500000 24.318589
18.500000 24.537202
18.500000 24.756670
18.500000 24.976994
18.500000 25.198174
18.500000 25.420209
18.500000 25.643100
18.500000 25.866847
18.500000 26.091449
18.500000 26.316907
18.500000 26.543220
18.500000 26.770389
18.500000 26.998414
18.500000 27.227295
18.500000 27.457030
18.500000 27.687622
18.500000 27.919069
18.500000 28.151372
18.500000 28.384531
18.500000 28.618545
18.500000 28.853415
18.500000 29.089140
18.500000 29.325721
18.500000 29.563158
18.500000 29.801450
18.500000 30.040598
18.500000 30.280601
18.500000 30.521460
18.500000 30.763175
18.500000 31.005746
18.500000 31.249172
18.500000 31.493453
18.500000 31.738590
18.500000 31.984583
18.500000 32.231432
18.500000 32.479136
18.500000 32.727696
18.500000 32.977111
18.500000 33.227382
18.500000 33.478509
18.500000 33.730491
18.500000 33.983329
18.500000 34.237023
18.500000 34.491572
18.500000 34.746977
18.500000 35.003237
18.500000 35.260353
18.500000 35.518325
18.500000 35.777152
18.500000 36.036835
18.500000 36.297374
18.500000 36.558768
18.500000 36.821018
18.500000 37.084123
18.500000 37.348084
18.500000 37.612901
18.500000 37.878573
18.500000 38.145101
18.500000 38.412485
18.500000 38.680724
18.500000 38.949819
18.500000 39.219769
18.500000 39.490576
18.500000 39.762237
18.500000 40.034755
18.500000 40.308128
18.500000 40.582356
18.500000 40.857440
18.500000 41.133380
18.500000 41.410176
18.500000 41.687827
18.500000 41.966334
18.500000 42.245696
18.500000 42.525914
18.500000 42.806988
18.500000 43.088917
18.500000 43.371702
18.500000 43.655342
18.500000 43.939839
18.500000 44.225190
18.500000 44.511398
18.500000 44.798461
18.500000 45.086379
18.500000 45.375154
18.500000 45.664784
18.500000 45.955269
18.500000 46.246610
18.500000 46.538807
18.500000 46.831859
18.500000 47.125767
18.500000 47.420531
18.500000 47.716150
18.500000 48.012625
18.500000 48.309956
18.500000 48.608142
18.500000 48.907184
18.500000 49.207081
18.500000 49.507834
18.500000 49.809443
18.500000 50.111907
18.500000 50.415227
18.500000 50.719403
18.500000 51.024434
18.500000 51.330321
18.500000 51.637063
18.500000 51.944662
18.500000 52.253115
18.500000 52.562425
18.500000 52.872590
18.500000 53.183610
18.500000 53.495486
18.500000 53.808218
18.500000 54.121806
18.500000 54.436249
18.500000 54.751548
18.500000 55.067702
18.500000 55.384712
18.500000 55.702577
18.500000 56.021299
18.500000 56.340876
18.500000 56.661308
18.500000 56.982596
18.500000 57.304740
18.500000 57.627739
18.500000 57.951594
18.500000 58.276305
18.500000 58.601871
18.500000 58.928293
18.500000 59.255571
18.500000 59.583704
18.500000 59.912693
18.500000 60.242537
18.500000 60.573237
18.500000 60.904793
18.500000 61.237204
18.500000 61.570471
18.500000 61.904593
18.500000 62.239572
18.500000 62.575405
18.500000 62.912095
18.500000 63.249640
18.500000 63.588040
18.500000 63.927297
18.500000 64.267409
18.500000 64.608376
18.500000 64.950199
18.500000 65.292878
18.500000 65.636413
18.500000 65.980803
18.500000 66.326048
18.500000 66.672150
18.500000 67.019107
18.500000 67.366919
18.500000 67.715587
18.500000 68.065111
18.500000 68.415491
18.500000 68.766726
18.500000 69.118817
18.500000 69.471763
18.500000 69.825565
18.500000 70.180222
18.500000 70.535736
18.500000 70.892105
18.500000 71.249329
18.500000 71.607409
18.500000 71.966345
18.500000 72.326136
18.500000 72.686783
18.500000 73.048286
18.500000 73.410644
18.500000 73.773858
18.500000 74.137927
18.500000 74.502853
18.500000 74.868633
18.500000 75.235270
18.500000 75.602762
18.500000 75.971109
18.500000 76.340313
18.500000 76.710371
18.500000 77.081286
18.500000 77.453056
18.500000 77.825682
18.500000 78.199163
18.500000 78.573500
18.500000 78.948693
18.500000 79.324741
18.500000 79.701645
18.500000 80.079405
18.500000 80.458020
18.500000 80.837491
18.500000 81.217817
18.500000 81.598999
18.500000 81.981037
18.500000 82.363930
18.500000 82.747679
18.500000 83.132284
18.500000 83.517744
18.500000 83.904060
18.500000 84.291231
18.500000 84.679258
18.500000 85.068141
18.500000 85.457879
18.500000 85.848473
18.500000 86.239923
18.500000 86.632228
18.500000 87.025389
18.500000 87.419405
18.500000 87.814277
18.500000 88.210005
18.500000 88.606588
18.500000 89.004027
18.500000 89.402322
18.500000 89.801472
18.500000 90.201478
18.500000 90.602339
18.500000 91.004057
18.500000 91.406629
18.500000 91.810058
18.500000 92.214342
18.500000 92.619481
18.500000 93.025477
18.500000 93.432327
18.500000 93.840034
18.500000 94.248596
18.500000 94.658014
18.500000 95.068287
18.500000 95.479416
18.500000 95.891401
18.500000 96.304241
18.500000 96.717937
18.500000 97.132488
18.500000 97.547896
18.500000 97.964158
18.500000 98.381277
18.500000 98.799251
18.500000 99.218080
18.500000 99.637766
18.500000 100.058307
18.500000 100.479703
18.500000 100.901955
18.500000 101.325063
18.500000 101.749027
18.500000 102.173846
18.500000 102.599520
18.500000 103.026051
18.500000 103.453437
18.500000 103.881678
18.500000 104.310775
18.500000 104.740728
18.500000 105.171537
18.500000 105.603201
18.500000 106.035720
18.500000 106.469096
18.500000 106.903327
18.500000 107.338413
18.500000 107.774355
18.500000 108.211153
18.500000 108.648807
18.500000 109.087316
18.500000 109.526681
18.500000 109.966901
18.500000 110.407977
18.500000 110.849908
18.500000 111.292696
18.500000 111.736339
18.500000 112.180837
18.500000 112.626191
18.500000 113.072401
18.500000 113.519466
18.500000 113.967387
18.500000 114.416164
18.500000 114.865796
18.500000 115.316284
18.500000 115.767627
18.500000 116.219827
18.500000 116.672881
18.500000 117.126792
18.500000 117.581558
18.500000 118.037179
18.500000 118.493657
18.500000 118.950990
18.500000 119.409178
18.500000 119.868222
18.500000 120.328122
18.500000 120.788877
18.500000 121.250488
18.500000 121.712955
18.500000 122.176277
18.500000 122.640455
18.500000 123.105489
18.500000 123.571378
18.500000 124.038123
18.500000 124.505723
18.500000 124.974179
18.500000 125.443491
18.500000 125.913658
18.500000 126.384681
18.500000 126.856560
18.500000 127.329294
18.500000 127.802884
18.500000 128.277329
18.500000 128.752630
18.500000 129.228787
18.500000 129.705799
18.500000 130.183667
18.500000 130.662391
18.500000 131.141970
18.500000 131.622405
18.500000 132.103695
18.500000 132.585841
18.500000 133.068843
18.500000 133.552701
18.500000 134.037413
18.500000 134.522982
18.500000 135.009406
18.500000 135.496686
18.500000 135.984822
18.500000 136.473813
18.500000 136.963660
18.500000 137.454362
18.500000 137.945920
18.500000 138.438334
18.500000 138.931603
18.500000 139.425728
18.500000 139.920708
18.500000 140.416544
18.500000 140.913236
18.500000 141.410783
18.500000 141.909186
18.500000 142.408445
18.500000 142.908559
18.500000 143.409529
18.500000 143.911355
18.500000 144.414036
18.500000 144.917573
18.500000 145.421965
18.500000 145.927213
18.500000 146.433317
18.500000 146.940276
18.500000 147.448091
18.500000 147.956762
18.500000 148.466288
18.500000 148.976670
18.500000 149.487907
18.500000 150.000000
</POINTS>
</NEKTAR>

