<?xml version="1.0" encoding="utf-8" ?>
<NEKTAR>
<POINTS DIM="2" FIELDS="">
17.500000 -3.500000
17.500000 -3.499572
17.500000 -3.498289
17.500000 -3.496150
17.500000 -3.493155
17.500000 -3.489305
17.500000 -3.484599
17.500000 -3.479037
17.500000 -3.472620
17.500000 -3.465347
17.500000 -3.457219
17.500000 -3.448235
17.500000 -3.438395
17.500000 -3.427699
17.500000 -3.416149
17.500000 -3.403742
17.500000 -3.390480
17.500000 -3.376362
17.500000 -3.361388
17.500000 -3.345559
17.500000 -3.328875
17.500000 -3.311334
17.500000 -3.292938
17.500000 -3.273687
17.500000 -3.253579
17.500000 -3.232616
17.500000 -3.210798
17.500000 -3.188124
17.500000 -3.164594
17.500000 -3.140209
17.500000 -3.114968
17.500000 -3.088871
17.500000 -3.061919
17.500000 -3.034111
17.500000 -3.005447
17.500000 -2.975928
17.500000 -2.945553
17.500000 -2.914323
17.500000 -2.882237
17.500000 -2.849295
17.500000 -2.815498
17.500000 -2.780845
17.500000 -2.745337
17.500000 -2.708972
17.500000 -2.671753
17.500000 -2.633677
17.500000 -2.594746
17.500000 -2.554959
17.500000 -2.514317
17.500000 -2.472819
17.500000 -2.430466
17.500000 -2.387256
17.500000 -2.343192
17.500000 -2.298271
17.500000 -2.252495
17.500000 -2.205863
17.500000 -2.158376
17.500000 -2.110033
17.500000 -2.060835
17.500000 -2.010780
17.500000 -1.959871
17.500000 -1.908105
17.500000 -1.855484
17.500000 -1.802007
17.500000 -1.747675
17.500000 -1.692487
17.500000 -1.636443
17.500000 -1.579544
17.500000 -1.521789
17.500000 -1.463179
17.500000 -1.403713
17.500000 -1.343391
17.500000 -1.282214
17.500000 -1.220181
17.500000 -1.157292
17.500000 -1.093548
17.500000 -1.028948
17.500000 -0.963492
17.500000 -0.897181
17.500000 -0.830014
17.500000 -0.761992
17.500000 -0.693114
17.500000 -0.623380
17.500000 -0.552791
17.500000 -0.481346
17.500000 -0.409046
17.500000 -0.335890
17.500000 -0.261878
17.500000 -0.187010
17.500000 -0.111287
17.500000 -0.034709
17.500000 0.042726
17.500000 0.121016
17.500000 0.200161
17.500000 0.280162
17.500000 0.361019
17.500000 0.442731
17.500000 0.525300
17.500000 0.608723
17.500000 0.693003
17.500000 0.778137
17.500000 0.864128
17.500000 0.950974
17.500000 1.038676
17.500000 1.127233
17.500000 1.216647
17.500000 1.306915
17.500000 1.398040
17.500000 1.490020
17.500000 1.582855
17.500000 1.676546
17.500000 1.771093
17.500000 1.866496
17.500000 1.962754
17.500000 2.059867
17.500000 2.157837
17.500000 2.256662
17.500000 2.356342
17.500000 2.456879
17.500000 2.558270
17.500000 2.660518
17.500000 2.763621
17.500000 2.867580
17.500000 2.972394
17.500000 3.078064
17.500000 3.184590
17.500000 3.291971
17.500000 3.400208
17.500000 3.509300
17.500000 3.619249
17.500000 3.730052
17.500000 3.841712
17.500000 3.954227
17.500000 4.067597
17.500000 4.181824
17.500000 4.296906
17.500000 4.412843
17.500000 4.529636
17.500000 4.647285
17.500000 4.765789
17.500000 4.885149
17.500000 5.005365
17.500000 5.126436
17.500000 5.248363
17.500000 5.371146
17.500000 5.494784
17.500000 5.619278
17.500000 5.744627
17.500000 5.870832
17.500000 5.997893
17.500000 6.125809
17.500000 6.254581
17.500000 6.384209
17.500000 6.514692
17.500000 6.646031
17.500000 6.778225
17.500000 6.911275
17.500000 7.045181
17.500000 7.179942
17.500000 7.315559
17.500000 7.452032
17.500000 7.589360
17.500000 7.727544
17.500000 7.866583
17.500000 8.006479
17.500000 8.147229
17.500000 8.288836
17.500000 8.431298
17.500000 8.574615
17.500000 8.718788
17.500000 8.863817
17.500000 9.009702
17.500000 9.156442
17.500000 9.304038
17.500000 9.452489
17.500000 9.601796
17.500000 9.751959
17.500000 9.902977
17.500000 10.054851
17.500000 10.207580
17.500000 10.361165
17.500000 10.515606
17.500000 10.670903
17.500000 10.827055
17.500000 10.984062
17.500000 11.141925
17.500000 11.300644
17.500000 11.460219
17.500000 11.620649
17.500000 11.781935
17.500000 11.944076
17.500000 12.107073
17.500000 12.270926
17.500000 12.435634
17.500000 12.601198
17.500000 12.767618
17.500000 12.934893
17.500000 13.103024
17.500000 13.272010
17.500000 13.441852
17.500000 13.612550
17.500000 13.784103
17.500000 13.956512
17.500000 14.129777
17.500000 14.303897
17.500000 14.478873
17.500000 14.654704
17.500000 14.831391
17.500000 15.008934
17.500000 15.187332
17.500000 15.366586
17.500000 15.546696
17.500000 15.727661
17.500000 15.909482
17.500000 16.092158
17.500000 16.275690
17.500000 16.460078
17.500000 16.645322
17.500000 16.831420
17.500000 17.018375
17.500000 17.206185
17.500000 17.394851
17.500000 17.584373
17.500000 17.774750
17.500000 17.965983
17.500000 18.158071
17.500000 18.351015
17.500000 18.544815
17.500000 18.739470
17.500000 18.934981
17.500000 19.131347
17.500000 19.328569
17.500000 19.526647
17.500000 19.725580
17.500000 19.925369
17.500000 20.126014
17.500000 20.327514
17.500000 20.529870
17.500000 20.733082
17.500000 20.937149
17.500000 21.142072
17.500000 21.347850
17.500000 21.554484
17.500000 21.761974
17.500000 21.970319
17.500000 22.179520
17.500000 22.389577
17.500000 22.600489
17.500000 22.812257
17.500000 23.024880
17.500000 23.238359
17.500000 23.452694
17.500000 23.667884
17.500000 23.883930
17.500000 24.100832
17.500000 24.318589
17.500000 24.537202
17.500000 24.756670
17.500000 24.976994
17.500000 25.198174
17.500000 25.420209
17.500000 25.643100
17.500000 25.866847
17.500000 26.091449
17.500000 26.316907
17.500000 26.543220
17.500000 26.770389
17.500000 26.998414
17.500000 27.227295
17.500000 27.457030
17.500000 27.687622
17.500000 27.919069
17.500000 28.151372
17.500000 28.384531
17.500000 28.618545
17.500000 28.853415
17.500000 29.089140
17.500000 29.325721
17.500000 29.563158
17.500000 29.801450
17.500000 30.040598
17.500000 30.280601
17.500000 30.521460
17.500000 30.763175
17.500000 31.005746
17.500000 31.249172
17.500000 31.493453
17.500000 31.738590
17.500000 31.984583
17.500000 32.231432
17.500000 32.479136
17.500000 32.727696
17.500000 32.977111
17.500000 33.227382
17.500000 33.478509
17.500000 33.730491
17.500000 33.983329
17.500000 34.237023
17.500000 34.491572
17.500000 34.746977
17.500000 35.003237
17.500000 35.260353
17.500000 35.518325
17.500000 35.777152
17.500000 36.036835
17.500000 36.297374
17.500000 36.558768
17.500000 36.821018
17.500000 37.084123
17.500000 37.348084
17.500000 37.612901
17.500000 37.878573
17.500000 38.145101
17.500000 38.412485
17.500000 38.680724
17.500000 38.949819
17.500000 39.219769
17.500000 39.490576
17.500000 39.762237
17.500000 40.034755
17.500000 40.308128
17.500000 40.582356
17.500000 40.857440
17.500000 41.133380
17.500000 41.410176
17.500000 41.687827
17.500000 41.966334
17.500000 42.245696
17.500000 42.525914
17.500000 42.806988
17.500000 43.088917
17.500000 43.371702
17.500000 43.655342
17.500000 43.939839
17.500000 44.225190
17.500000 44.511398
17.500000 44.798461
17.500000 45.086379
17.500000 45.375154
17.500000 45.664784
17.500000 45.955269
17.500000 46.246610
17.500000 46.538807
17.500000 46.831859
17.500000 47.125767
17.500000 47.420531
17.500000 47.716150
17.500000 48.012625
17.500000 48.309956
17.500000 48.608142
17.500000 48.907184
17.500000 49.207081
17.500000 49.507834
17.500000 49.809443
17.500000 50.111907
17.500000 50.415227
17.500000 50.719403
17.500000 51.024434
17.500000 51.330321
17.500000 51.637063
17.500000 51.944662
17.500000 52.253115
17.500000 52.562425
17.500000 52.872590
17.500000 53.183610
17.500000 53.495486
17.500000 53.808218
17.500000 54.121806
17.500000 54.436249
17.500000 54.751548
17.500000 55.067702
17.500000 55.384712
17.500000 55.702577
17.500000 56.021299
17.500000 56.340876
17.500000 56.661308
17.500000 56.982596
17.500000 57.304740
17.500000 57.627739
17.500000 57.951594
17.500000 58.276305
17.500000 58.601871
17.500000 58.928293
17.500000 59.255571
17.500000 59.583704
17.500000 59.912693
17.500000 60.242537
17.500000 60.573237
17.500000 60.904793
17.500000 61.237204
17.500000 61.570471
17.500000 61.904593
17.500000 62.239572
17.500000 62.575405
17.500000 62.912095
17.500000 63.249640
17.500000 63.588040
17.500000 63.927297
17.500000 64.267409
17.500000 64.608376
17.500000 64.950199
17.500000 65.292878
17.500000 65.636413
17.500000 65.980803
17.500000 66.326048
17.500000 66.672150
17.500000 67.019107
17.500000 67.366919
17.500000 67.715587
17.500000 68.065111
17.500000 68.415491
17.500000 68.766726
17.500000 69.118817
17.500000 69.471763
17.500000 69.825565
17.500000 70.180222
17.500000 70.535736
17.500000 70.892105
17.500000 71.249329
17.500000 71.607409
17.500000 71.966345
17.500000 72.326136
17.500000 72.686783
17.500000 73.048286
17.500000 73.410644
17.500000 73.773858
17.500000 74.137927
17.500000 74.502853
17.500000 74.868633
17.500000 75.235270
17.500000 75.602762
17.500000 75.971109
17.500000 76.340313
17.500000 76.710371
17.500000 77.081286
17.500000 77.453056
17.500000 77.825682
17.500000 78.199163
17.500000 78.573500
17.500000 78.948693
17.500000 79.324741
17.500000 79.701645
17.500000 80.079405
17.500000 80.458020
17.500000 80.837491
17.500000 81.217817
17.500000 81.598999
17.500000 81.981037
17.500000 82.363930
17.500000 82.747679
17.500000 83.132284
17.500000 83.517744
17.500000 83.904060
17.500000 84.291231
17.500000 84.679258
17.500000 85.068141
17.500000 85.457879
17.500000 85.848473
17.500000 86.239923
17.500000 86.632228
17.500000 87.025389
17.500000 87.419405
17.500000 87.814277
17.500000 88.210005
17.500000 88.606588
17.500000 89.004027
17.500000 89.402322
17.500000 89.801472
17.500000 90.201478
17.500000 90.602339
17.500000 91.004057
17.500000 91.406629
17.500000 91.810058
17.500000 92.214342
17.500000 92.619481
17.500000 93.025477
17.500000 93.432327
17.500000 93.840034
17.500000 94.248596
17.500000 94.658014
17.500000 95.068287
17.500000 95.479416
17.500000 95.891401
17.500000 96.304241
17.500000 96.717937
17.500000 97.132488
17.500000 97.547896
17.500000 97.964158
17.500000 98.381277
17.500000 98.799251
17.500000 99.218080
17.500000 99.637766
17.500000 100.058307
17.500000 100.479703
17.500000 100.901955
17.500000 101.325063
17.500000 101.749027
17.500000 102.173846
17.500000 102.599520
17.500000 103.026051
17.500000 103.453437
17.500000 103.881678
17.500000 104.310775
17.500000 104.740728
17.500000 105.171537
17.500000 105.603201
17.500000 106.035720
17.500000 106.469096
17.500000 106.903327
17.500000 107.338413
17.500000 107.774355
17.500000 108.211153
17.500000 108.648807
17.500000 109.087316
17.500000 109.526681
17.500000 109.966901
17.500000 110.407977
17.500000 110.849908
17.500000 111.292696
17.500000 111.736339
17.500000 112.180837
17.500000 112.626191
17.500000 113.072401
17.500000 113.519466
17.500000 113.967387
17.500000 114.416164
17.500000 114.865796
17.500000 115.316284
17.500000 115.767627
17.500000 116.219827
17.500000 116.672881
17.500000 117.126792
17.500000 117.581558
17.500000 118.037179
17.500000 118.493657
17.500000 118.950990
17.500000 119.409178
17.500000 119.868222
17.500000 120.328122
17.500000 120.788877
17.500000 121.250488
17.500000 121.712955
17.500000 122.176277
17.500000 122.640455
17.500000 123.105489
17.500000 123.571378
17.500000 124.038123
17.500000 124.505723
17.500000 124.974179
17.500000 125.443491
17.500000 125.913658
17.500000 126.384681
17.500000 126.856560
17.500000 127.329294
17.500000 127.802884
17.500000 128.277329
17.500000 128.752630
17.500000 129.228787
17.500000 129.705799
17.500000 130.183667
17.500000 130.662391
17.500000 131.141970
17.500000 131.622405
17.500000 132.103695
17.500000 132.585841
17.500000 133.068843
17.500000 133.552701
17.500000 134.037413
17.500000 134.522982
17.500000 135.009406
17.500000 135.496686
17.500000 135.984822
17.500000 136.473813
17.500000 136.963660
17.500000 137.454362
17.500000 137.945920
17.500000 138.438334
17.500000 138.931603
17.500000 139.425728
17.500000 139.920708
17.500000 140.416544
17.500000 140.913236
17.500000 141.410783
17.500000 141.909186
17.500000 142.408445
17.500000 142.908559
17.500000 143.409529
17.500000 143.911355
17.500000 144.414036
17.500000 144.917573
17.500000 145.421965
17.500000 145.927213
17.500000 146.433317
17.500000 146.940276
17.500000 147.448091
17.500000 147.956762
17.500000 148.466288
17.500000 148.976670
17.500000 149.487907
17.500000 150.000000
</POINTS>
</NEKTAR>

