<?xml version="1.0" encoding="utf-8" ?>
<NEKTAR>
<POINTS DIM="2" FIELDS="">
-100.000000 0.000000
-100.000000 0.000046
-100.000000 0.000187
-100.000000 0.000422
-100.000000 0.000751
-100.000000 0.001174
-100.000000 0.001691
-100.000000 0.002302
-100.000000 0.003007
-100.000000 0.003806
-100.000000 0.004698
-100.000000 0.005685
-100.000000 0.006766
-100.000000 0.007941
-100.000000 0.009209
-100.000000 0.010572
-100.000000 0.012030
-100.000000 0.013580
-100.000000 0.015225
-100.000000 0.016963
-100.000000 0.018796
-100.000000 0.020722
-100.000000 0.022743
-100.000000 0.024857
-100.000000 0.027066
-100.000000 0.029370
-100.000000 0.031765
-100.000000 0.034256
-100.000000 0.036840
-100.000000 0.039519
-100.000000 0.042291
-100.000000 0.045158
-100.000000 0.048120
-100.000000 0.051173
-100.000000 0.054322
-100.000000 0.057563
-100.000000 0.060901
-100.000000 0.064330
-100.000000 0.067855
-100.000000 0.071475
-100.000000 0.075186
-100.000000 0.078993
-100.000000 0.082892
-100.000000 0.086888
-100.000000 0.090974
-100.000000 0.095158
-100.000000 0.099432
-100.000000 0.103804
-100.000000 0.108270
-100.000000 0.112826
-100.000000 0.117480
-100.000000 0.122224
-100.000000 0.127066
-100.000000 0.131998
-100.000000 0.137027
-100.000000 0.142151
-100.000000 0.147365
-100.000000 0.152677
-100.000000 0.158079
-100.000000 0.163579
-100.000000 0.169168
-100.000000 0.174856
-100.000000 0.180634
-100.000000 0.186510
-100.000000 0.192480
-100.000000 0.198539
-100.000000 0.204697
-100.000000 0.210944
-100.000000 0.217290
-100.000000 0.223725
-100.000000 0.230260
-100.000000 0.236888
-100.000000 0.243605
-100.000000 0.250421
-100.000000 0.257326
-100.000000 0.264330
-100.000000 0.271423
-100.000000 0.278615
-100.000000 0.285901
-100.000000 0.293276
-100.000000 0.300750
-100.000000 0.308312
-100.000000 0.315975
-100.000000 0.323725
-100.000000 0.331575
-100.000000 0.339513
-100.000000 0.347552
-100.000000 0.355684
-100.000000 0.363904
-100.000000 0.372225
-100.000000 0.380633
-100.000000 0.389141
-100.000000 0.397737
-100.000000 0.406433
-100.000000 0.415224
-100.000000 0.424102
-100.000000 0.433080
-100.000000 0.442146
-100.000000 0.451312
-100.000000 0.460566
-100.000000 0.469920
-100.000000 0.479369
-100.000000 0.488904
-100.000000 0.498541
-100.000000 0.508264
-100.000000 0.518089
-100.000000 0.528000
-100.000000 0.538012
-100.000000 0.548111
-100.000000 0.558312
-100.000000 0.568607
-100.000000 0.578987
-100.000000 0.589470
-100.000000 0.600039
-100.000000 0.610710
-100.000000 0.621466
-100.000000 0.632325
-100.000000 0.643278
-100.000000 0.654316
-100.000000 0.665457
-100.000000 0.676684
-100.000000 0.688013
-100.000000 0.699427
-100.000000 0.710944
-100.000000 0.722546
-100.000000 0.734251
-100.000000 0.746050
-100.000000 0.757934
-100.000000 0.769921
-100.000000 0.781992
-100.000000 0.794167
-100.000000 0.806427
-100.000000 0.818790
-100.000000 0.831247
-100.000000 0.843789
-100.000000 0.856434
-100.000000 0.869163
-100.000000 0.881997
-100.000000 0.894914
-100.000000 0.907935
-100.000000 0.921050
-100.000000 0.934249
-100.000000 0.947553
-100.000000 0.960940
-100.000000 0.974431
-100.000000 0.988006
-100.000000 1.001685
-100.000000 1.015448
-100.000000 1.029315
-100.000000 1.043277
-100.000000 1.057321
-100.000000 1.071471
-100.000000 1.085703
-100.000000 1.100041
-100.000000 1.114461
-100.000000 1.128986
-100.000000 1.143606
-100.000000 1.158308
-100.000000 1.173116
-100.000000 1.188006
-100.000000 1.203001
-100.000000 1.218079
-100.000000 1.233263
-100.000000 1.248541
-100.000000 1.263900
-100.000000 1.279366
-100.000000 1.294914
-100.000000 1.310567
-100.000000 1.326303
-100.000000 1.342145
-100.000000 1.358068
-100.000000 1.374098
-100.000000 1.390222
-100.000000 1.406427
-100.000000 1.422739
-100.000000 1.439132
-100.000000 1.455632
-100.000000 1.472213
-100.000000 1.488901
-100.000000 1.505683
-100.000000 1.522545
-100.000000 1.539516
-100.000000 1.556566
-100.000000 1.573724
-100.000000 1.590963
-100.000000 1.608309
-100.000000 1.625735
-100.000000 1.643269
-100.000000 1.660897
-100.000000 1.678606
-100.000000 1.696422
-100.000000 1.714318
-100.000000 1.732322
-100.000000 1.750406
-100.000000 1.768598
-100.000000 1.786885
-100.000000 1.805251
-100.000000 1.823725
-100.000000 1.842279
-100.000000 1.860941
-100.000000 1.879682
-100.000000 1.898533
-100.000000 1.917477
-100.000000 1.936501
-100.000000 1.955633
-100.000000 1.974844
-100.000000 1.994165
-100.000000 2.013564
-100.000000 2.033073
-100.000000 2.052660
-100.000000 2.072356
-100.000000 2.092147
-100.000000 2.112016
-100.000000 2.131994
-100.000000 2.152051
-100.000000 2.172218
-100.000000 2.192462
-100.000000 2.212817
-100.000000 2.233266
-100.000000 2.253792
-100.000000 2.274429
-100.000000 2.295143
-100.000000 2.315968
-100.000000 2.336870
-100.000000 2.357883
-100.000000 2.378990
-100.000000 2.400174
-100.000000 2.421469
-100.000000 2.442841
-100.000000 2.464324
-100.000000 2.485884
-100.000000 2.507555
-100.000000 2.529302
-100.000000 2.551161
-100.000000 2.573114
-100.000000 2.595144
-100.000000 2.617285
-100.000000 2.639502
-100.000000 2.661831
-100.000000 2.684237
-100.000000 2.706754
-100.000000 2.729365
-100.000000 2.752052
-100.000000 2.774851
-100.000000 2.797726
-100.000000 2.820713
-100.000000 2.843776
-100.000000 2.866951
-100.000000 2.890202
-100.000000 2.913565
-100.000000 2.937023
-100.000000 2.960555
-100.000000 2.984201
-100.000000 3.007921
-100.000000 3.031755
-100.000000 3.055663
-100.000000 3.079684
-100.000000 3.103800
-100.000000 3.127990
-100.000000 3.152293
-100.000000 3.176671
-100.000000 3.201163
-100.000000 3.225729
-100.000000 3.250408
-100.000000 3.275182
-100.000000 3.300030
-100.000000 3.324991
-100.000000 3.350027
-100.000000 3.375177
-100.000000 3.400400
-100.000000 3.425738
-100.000000 3.451149
-100.000000 3.476675
-100.000000 3.502295
-100.000000 3.527988
-100.000000 3.553796
-100.000000 3.579677
-100.000000 3.605673
-100.000000 3.631742
-100.000000 3.657925
-100.000000 3.684203
-100.000000 3.710554
-100.000000 3.737020
-100.000000 3.763559
-100.000000 3.790213
-100.000000 3.816939
-100.000000 3.843781
-100.000000 3.870696
-100.000000 3.897726
-100.000000 3.924850
-100.000000 3.952046
-100.000000 3.979358
-100.000000 4.006742
-100.000000 4.034242
-100.000000 4.061814
-100.000000 4.089502
-100.000000 4.117285
-100.000000 4.145138
-100.000000 4.173109
-100.000000 4.201150
-100.000000 4.229309
-100.000000 4.257538
-100.000000 4.285884
-100.000000 4.314325
-100.000000 4.342836
-100.000000 4.371465
-100.000000 4.400164
-100.000000 4.428980
-100.000000 4.457868
-100.000000 4.486872
-100.000000 4.515947
-100.000000 4.545139
-100.000000 4.574426
-100.000000 4.603783
-100.000000 4.633257
-100.000000 4.662802
-100.000000 4.692465
-100.000000 4.722197
-100.000000 4.752048
-100.000000 4.781992
-100.000000 4.812007
-100.000000 4.842140
-100.000000 4.872342
-100.000000 4.902663
-100.000000 4.933053
-100.000000 4.963562
-100.000000 4.994164
-100.000000 5.024836
-100.000000 5.055627
-100.000000 5.086487
-100.000000 5.117466
-100.000000 5.148514
-100.000000 5.179681
-100.000000 5.210916
-100.000000 5.242271
-100.000000 5.273720
-100.000000 5.305238
-100.000000 5.336875
-100.000000 5.368580
-100.000000 5.400405
-100.000000 5.432298
-100.000000 5.464311
-100.000000 5.496418
-100.000000 5.528594
-100.000000 5.560889
-100.000000 5.593252
-100.000000 5.625735
-100.000000 5.658286
-100.000000 5.690957
-100.000000 5.723696
-100.000000 5.756555
-100.000000 5.789508
-100.000000 5.822529
-100.000000 5.855670
-100.000000 5.888878
-100.000000 5.922207
-100.000000 5.955604
-100.000000 5.989121
-100.000000 6.022732
-100.000000 6.056411
-100.000000 6.090210
-100.000000 6.124076
-100.000000 6.158064
-100.000000 6.192118
-100.000000 6.226293
-100.000000 6.260562
-100.000000 6.294898
-100.000000 6.329356
-100.000000 6.363879
-100.000000 6.398525
-100.000000 6.433237
-100.000000 6.468070
-100.000000 6.502970
-100.000000 6.537991
-100.000000 6.573107
-100.000000 6.608288
-100.000000 6.643591
-100.000000 6.678961
-100.000000 6.714452
-100.000000 6.750009
-100.000000 6.785689
-100.000000 6.821463
-100.000000 6.857302
-100.000000 6.893263
-100.000000 6.929290
-100.000000 6.965440
-100.000000 7.001655
-100.000000 7.037992
-100.000000 7.074424
-100.000000 7.110921
-100.000000 7.147541
-100.000000 7.184225
-100.000000 7.221033
-100.000000 7.257905
-100.000000 7.294901
-100.000000 7.331961
-100.000000 7.369145
-100.000000 7.406423
-100.000000 7.443765
-100.000000 7.481231
-100.000000 7.518761
-100.000000 7.556415
-100.000000 7.594133
-100.000000 7.631975
-100.000000 7.669911
-100.000000 7.707911
-100.000000 7.746035
-100.000000 7.784222
-100.000000 7.822535
-100.000000 7.860910
-100.000000 7.899410
-100.000000 7.937973
-100.000000 7.976662
-100.000000 8.015444
-100.000000 8.054289
-100.000000 8.093259
-100.000000 8.132292
-100.000000 8.171450
-100.000000 8.210671
-100.000000 8.250018
-100.000000 8.289458
-100.000000 8.328961
-100.000000 8.368589
-100.000000 8.408280
-100.000000 8.448096
-100.000000 8.487975
-100.000000 8.527979
-100.000000 8.568077
-100.000000 8.608238
-100.000000 8.648524
-100.000000 8.688873
-100.000000 8.729347
-100.000000 8.769883
-100.000000 8.810546
-100.000000 8.851270
-100.000000 8.892120
-100.000000 8.933065
-100.000000 8.974071
-100.000000 9.015203
-100.000000 9.056397
-100.000000 9.097718
-100.000000 9.139099
-100.000000 9.180608
-100.000000 9.222211
-100.000000 9.263874
-100.000000 9.305665
-100.000000 9.347516
-100.000000 9.389495
-100.000000 9.431534
-100.000000 9.473701
-100.000000 9.515962
-100.000000 9.558283
-100.000000 9.600732
-100.000000 9.643241
-100.000000 9.685878
-100.000000 9.728574
-100.000000 9.771399
-100.000000 9.814284
-100.000000 9.857297
-100.000000 9.900404
-100.000000 9.943571
-100.000000 9.986866
-100.000000 10.030220
-100.000000 10.073703
-100.000000 10.117245
-100.000000 10.160916
-100.000000 10.204681
-100.000000 10.248506
-100.000000 10.292459
-100.000000 10.336471
-100.000000 10.380612
-100.000000 10.424812
-100.000000 10.469141
-100.000000 10.513529
-100.000000 10.558046
-100.000000 10.602657
-100.000000 10.647327
-100.000000 10.692126
-100.000000 10.736984
-100.000000 10.781971
-100.000000 10.827016
-100.000000 10.872192
-100.000000 10.917461
-100.000000 10.962788
-100.000000 11.008246
-100.000000 11.053761
-100.000000 11.099406
-100.000000 11.145109
-100.000000 11.190943
-100.000000 11.236870
-100.000000 11.282855
-100.000000 11.328971
-100.000000 11.375143
-100.000000 11.421447
-100.000000 11.467807
-100.000000 11.514299
-100.000000 11.560848
-100.000000 11.607527
-100.000000 11.654301
-100.000000 11.701131
-100.000000 11.748093
-100.000000 11.795111
-100.000000 11.842261
-100.000000 11.889467
-100.000000 11.936805
-100.000000 11.984236
-100.000000 12.031724
-100.000000 12.079344
-100.000000 12.127020
-100.000000 12.174828
-100.000000 12.222691
-100.000000 12.270687
-100.000000 12.318777
-100.000000 12.366923
-100.000000 12.415201
-100.000000 12.463534
-100.000000 12.512000
-100.000000 12.560521
-100.000000 12.609175
-100.000000 12.657884
-100.000000 12.706726
-100.000000 12.755662
-100.000000 12.804653
-100.000000 12.853777
-100.000000 12.902956
-100.000000 12.952268
-100.000000 13.001635
-100.000000 13.051135
-100.000000 13.100730
-100.000000 13.150378
-100.000000 13.200160
-100.000000 13.249997
-100.000000 13.299967
-100.000000 13.349991
-100.000000 13.400150
-100.000000 13.450362
-100.000000 13.500708
-100.000000 13.551149
-100.000000 13.601643
-100.000000 13.652271
-100.000000 13.702953
-100.000000 13.753769
-100.000000 13.804639
-100.000000 13.855644
-100.000000 13.906742
-100.000000 13.957894
-100.000000 14.009180
-100.000000 14.060520
-100.000000 14.111994
-100.000000 14.163522
-100.000000 14.215184
-100.000000 14.266941
-100.000000 14.318750
-100.000000 14.370695
-100.000000 14.422692
-100.000000 14.474824
-100.000000 14.527009
-100.000000 14.579330
-100.000000 14.631703
-100.000000 14.684212
-100.000000 14.736815
-100.000000 14.789469
-100.000000 14.842260
-100.000000 14.895103
-100.000000 14.948081
-100.000000 15.001112
-100.000000 15.054279
-100.000000 15.107540
-100.000000 15.160852
-100.000000 15.214301
-100.000000 15.267801
-100.000000 15.321438
-100.000000 15.375126
-100.000000 15.428951
-100.000000 15.482827
-100.000000 15.536840
-100.000000 15.590947
-100.000000 15.645105
-100.000000 15.699400
-100.000000 15.753746
-100.000000 15.808229
-100.000000 15.862762
-100.000000 15.917433
-100.000000 15.972199
-100.000000 16.027014
-100.000000 16.081967
-100.000000 16.136970
-100.000000 16.192112
-100.000000 16.247303
-100.000000 16.302632
-100.000000 16.358055
-100.000000 16.413528
-100.000000 16.469140
-100.000000 16.524800
-100.000000 16.580600
-100.000000 16.636449
-100.000000 16.692436
-100.000000 16.748473
-100.000000 16.804648
-100.000000 16.860917
-100.000000 16.917236
-100.000000 16.973693
-100.000000 17.030200
-100.000000 17.086845
-100.000000 17.143539
-100.000000 17.200373
-100.000000 17.257301
-100.000000 17.314277
-100.000000 17.371392
-100.000000 17.428556
-100.000000 17.485860
-100.000000 17.543212
-100.000000 17.600703
-100.000000 17.658289
-100.000000 17.715923
-100.000000 17.773696
-100.000000 17.831518
-100.000000 17.889480
-100.000000 17.947489
-100.000000 18.005639
-100.000000 18.063836
-100.000000 18.122174
-100.000000 18.180606
-100.000000 18.239085
-100.000000 18.297705
-100.000000 18.356372
-100.000000 18.415180
-100.000000 18.474035
-100.000000 18.533031
-100.000000 18.592121
-100.000000 18.651257
-100.000000 18.710535
-100.000000 18.769860
-100.000000 18.829326
-100.000000 18.888839
-100.000000 18.948493
-100.000000 19.008193
-100.000000 19.068035
-100.000000 19.127971
-100.000000 19.187953
-100.000000 19.248078
-100.000000 19.308248
-100.000000 19.368560
-100.000000 19.428918
-100.000000 19.489418
-100.000000 19.550012
-100.000000 19.610652
-100.000000 19.671434
-100.000000 19.732262
-100.000000 19.793232
-100.000000 19.854248
-100.000000 19.915406
-100.000000 19.976659
-100.000000 20.037956
-100.000000 20.099397
-100.000000 20.160882
-100.000000 20.222510
-100.000000 20.284183
-100.000000 20.346000
-100.000000 20.407861
-100.000000 20.469865
-100.000000 20.531964
-100.000000 20.594107
-100.000000 20.656393
-100.000000 20.718724
-100.000000 20.781199
-100.000000 20.843717
-100.000000 20.906380
-100.000000 20.969137
-100.000000 21.031937
-100.000000 21.094882
-100.000000 21.157870
-100.000000 21.221003
-100.000000 21.284179
-100.000000 21.347500
-100.000000 21.410915
-100.000000 21.474373
-100.000000 21.537976
-100.000000 21.601622
-100.000000 21.665413
-100.000000 21.729246
-100.000000 21.793225
-100.000000 21.857247
-100.000000 21.921414
-100.000000 21.985675
-100.000000 22.049978
-100.000000 22.114427
-100.000000 22.178919
-100.000000 22.243556
-100.000000 22.308235
-100.000000 22.373060
-100.000000 22.437979
-100.000000 22.502940
-100.000000 22.568048
-100.000000 22.633197
-100.000000 22.698492
-100.000000 22.763829
-100.000000 22.829312
-100.000000 22.894837
-100.000000 22.960508
-100.000000 23.026273
-100.000000 23.092080
-100.000000 23.158033
-100.000000 23.224027
-100.000000 23.290169
-100.000000 23.356351
-100.000000 23.422680
-100.000000 23.489104
-100.000000 23.555568
-100.000000 23.622179
-100.000000 23.688831
-100.000000 23.755631
-100.000000 23.822471
-100.000000 23.889458
-100.000000 23.956540
-100.000000 24.023662
-100.000000 24.090931
-100.000000 24.158241
-100.000000 24.225698
-100.000000 24.293196
-100.000000 24.360842
-100.000000 24.428527
-100.000000 24.496361
-100.000000 24.564288
-100.000000 24.632256
-100.000000 24.700371
-100.000000 24.768526
-100.000000 24.836830
-100.000000 24.905173
-100.000000 24.973665
-100.000000 25.042251
-100.000000 25.110876
-100.000000 25.179649
-100.000000 25.248462
-100.000000 25.317424
-100.000000 25.386425
-100.000000 25.455574
-100.000000 25.524818
-100.000000 25.594101
-100.000000 25.663533
-100.000000 25.733003
-100.000000 25.802623
-100.000000 25.872281
-100.000000 25.942089
-100.000000 26.011935
-100.000000 26.081931
-100.000000 26.152022
-100.000000 26.222150
-100.000000 26.292428
-100.000000 26.362743
-100.000000 26.433210
-100.000000 26.503713
-100.000000 26.574367
-100.000000 26.645116
-100.000000 26.715901
-100.000000 26.786837
-100.000000 26.857811
-100.000000 26.928935
-100.000000 27.000096
-100.000000 27.071409
-100.000000 27.142758
-100.000000 27.214258
-100.000000 27.285852
-100.000000 27.357483
-100.000000 27.429266
-100.000000 27.501085
-100.000000 27.573055
-100.000000 27.645062
-100.000000 27.717220
-100.000000 27.789473
-100.000000 27.861761
-100.000000 27.934202
-100.000000 28.006679
-100.000000 28.079307
-100.000000 28.151971
-100.000000 28.224788
-100.000000 28.297699
-100.000000 28.370645
-100.000000 28.443743
-100.000000 28.516878
-100.000000 28.590164
-100.000000 28.663486
-100.000000 28.736961
-100.000000 28.810471
-100.000000 28.884133
-100.000000 28.957890
-100.000000 29.031682
-100.000000 29.105627
-100.000000 29.179606
-100.000000 29.253739
-100.000000 29.327907
-100.000000 29.402227
-100.000000 29.476642
-100.000000 29.551092
-100.000000 29.625694
-100.000000 29.700332
-100.000000 29.775123
-100.000000 29.849948
-100.000000 29.924927
-100.000000 30.000000
-75.000000 0.000000
-75.000000 0.000046
-75.000000 0.000187
-75.000000 0.000422
-75.000000 0.000751
-75.000000 0.001174
-75.000000 0.001691
-75.000000 0.002302
-75.000000 0.003007
-75.000000 0.003806
-75.000000 0.004698
-75.000000 0.005685
-75.000000 0.006766
-75.000000 0.007941
-75.000000 0.009209
-75.000000 0.010572
-75.000000 0.012030
-75.000000 0.013580
-75.000000 0.015225
-75.000000 0.016963
-75.000000 0.018796
-75.000000 0.020722
-75.000000 0.022743
-75.000000 0.024857
-75.000000 0.027066
-75.000000 0.029370
-75.000000 0.031765
-75.000000 0.034256
-75.000000 0.036840
-75.000000 0.039519
-75.000000 0.042291
-75.000000 0.045158
-75.000000 0.048120
-75.000000 0.051173
-75.000000 0.054322
-75.000000 0.057563
-75.000000 0.060901
-75.000000 0.064330
-75.000000 0.067855
-75.000000 0.071475
-75.000000 0.075186
-75.000000 0.078993
-75.000000 0.082892
-75.000000 0.086888
-75.000000 0.090974
-75.000000 0.095158
-75.000000 0.099432
-75.000000 0.103804
-75.000000 0.108270
-75.000000 0.112826
-75.000000 0.117480
-75.000000 0.122224
-75.000000 0.127066
-75.000000 0.131998
-75.000000 0.137027
-75.000000 0.142151
-75.000000 0.147365
-75.000000 0.152677
-75.000000 0.158079
-75.000000 0.163579
-75.000000 0.169168
-75.000000 0.174856
-75.000000 0.180634
-75.000000 0.186510
-75.000000 0.192480
-75.000000 0.198539
-75.000000 0.204697
-75.000000 0.210944
-75.000000 0.217290
-75.000000 0.223725
-75.000000 0.230260
-75.000000 0.236888
-75.000000 0.243605
-75.000000 0.250421
-75.000000 0.257326
-75.000000 0.264330
-75.000000 0.271423
-75.000000 0.278615
-75.000000 0.285901
-75.000000 0.293276
-75.000000 0.300750
-75.000000 0.308312
-75.000000 0.315975
-75.000000 0.323725
-75.000000 0.331575
-75.000000 0.339513
-75.000000 0.347552
-75.000000 0.355684
-75.000000 0.363904
-75.000000 0.372225
-75.000000 0.380633
-75.000000 0.389141
-75.000000 0.397737
-75.000000 0.406433
-75.000000 0.415224
-75.000000 0.424102
-75.000000 0.433080
-75.000000 0.442146
-75.000000 0.451312
-75.000000 0.460566
-75.000000 0.469920
-75.000000 0.479369
-75.000000 0.488904
-75.000000 0.498541
-75.000000 0.508264
-75.000000 0.518089
-75.000000 0.528000
-75.000000 0.538012
-75.000000 0.548111
-75.000000 0.558312
-75.000000 0.568607
-75.000000 0.578987
-75.000000 0.589470
-75.000000 0.600039
-75.000000 0.610710
-75.000000 0.621466
-75.000000 0.632325
-75.000000 0.643278
-75.000000 0.654316
-75.000000 0.665457
-75.000000 0.676684
-75.000000 0.688013
-75.000000 0.699427
-75.000000 0.710944
-75.000000 0.722546
-75.000000 0.734251
-75.000000 0.746050
-75.000000 0.757934
-75.000000 0.769921
-75.000000 0.781992
-75.000000 0.794167
-75.000000 0.806427
-75.000000 0.818790
-75.000000 0.831247
-75.000000 0.843789
-75.000000 0.856434
-75.000000 0.869163
-75.000000 0.881997
-75.000000 0.894914
-75.000000 0.907935
-75.000000 0.921050
-75.000000 0.934249
-75.000000 0.947553
-75.000000 0.960940
-75.000000 0.974431
-75.000000 0.988006
-75.000000 1.001685
-75.000000 1.015448
-75.000000 1.029315
-75.000000 1.043277
-75.000000 1.057321
-75.000000 1.071471
-75.000000 1.085703
-75.000000 1.100041
-75.000000 1.114461
-75.000000 1.128986
-75.000000 1.143606
-75.000000 1.158308
-75.000000 1.173116
-75.000000 1.188006
-75.000000 1.203001
-75.000000 1.218079
-75.000000 1.233263
-75.000000 1.248541
-75.000000 1.263900
-75.000000 1.279366
-75.000000 1.294914
-75.000000 1.310567
-75.000000 1.326303
-75.000000 1.342145
-75.000000 1.358068
-75.000000 1.374098
-75.000000 1.390222
-75.000000 1.406427
-75.000000 1.422739
-75.000000 1.439132
-75.000000 1.455632
-75.000000 1.472213
-75.000000 1.488901
-75.000000 1.505683
-75.000000 1.522545
-75.000000 1.539516
-75.000000 1.556566
-75.000000 1.573724
-75.000000 1.590963
-75.000000 1.608309
-75.000000 1.625735
-75.000000 1.643269
-75.000000 1.660897
-75.000000 1.678606
-75.000000 1.696422
-75.000000 1.714318
-75.000000 1.732322
-75.000000 1.750406
-75.000000 1.768598
-75.000000 1.786885
-75.000000 1.805251
-75.000000 1.823725
-75.000000 1.842279
-75.000000 1.860941
-75.000000 1.879682
-75.000000 1.898533
-75.000000 1.917477
-75.000000 1.936501
-75.000000 1.955633
-75.000000 1.974844
-75.000000 1.994165
-75.000000 2.013564
-75.000000 2.033073
-75.000000 2.052660
-75.000000 2.072356
-75.000000 2.092147
-75.000000 2.112016
-75.000000 2.131994
-75.000000 2.152051
-75.000000 2.172218
-75.000000 2.192462
-75.000000 2.212817
-75.000000 2.233266
-75.000000 2.253792
-75.000000 2.274429
-75.000000 2.295143
-75.000000 2.315968
-75.000000 2.336870
-75.000000 2.357883
-75.000000 2.378990
-75.000000 2.400174
-75.000000 2.421469
-75.000000 2.442841
-75.000000 2.464324
-75.000000 2.485884
-75.000000 2.507555
-75.000000 2.529302
-75.000000 2.551161
-75.000000 2.573114
-75.000000 2.595144
-75.000000 2.617285
-75.000000 2.639502
-75.000000 2.661831
-75.000000 2.684237
-75.000000 2.706754
-75.000000 2.729365
-75.000000 2.752052
-75.000000 2.774851
-75.000000 2.797726
-75.000000 2.820713
-75.000000 2.843776
-75.000000 2.866951
-75.000000 2.890202
-75.000000 2.913565
-75.000000 2.937023
-75.000000 2.960555
-75.000000 2.984201
-75.000000 3.007921
-75.000000 3.031755
-75.000000 3.055663
-75.000000 3.079684
-75.000000 3.103800
-75.000000 3.127990
-75.000000 3.152293
-75.000000 3.176671
-75.000000 3.201163
-75.000000 3.225729
-75.000000 3.250408
-75.000000 3.275182
-75.000000 3.300030
-75.000000 3.324991
-75.000000 3.350027
-75.000000 3.375177
-75.000000 3.400400
-75.000000 3.425738
-75.000000 3.451149
-75.000000 3.476675
-75.000000 3.502295
-75.000000 3.527988
-75.000000 3.553796
-75.000000 3.579677
-75.000000 3.605673
-75.000000 3.631742
-75.000000 3.657925
-75.000000 3.684203
-75.000000 3.710554
-75.000000 3.737020
-75.000000 3.763559
-75.000000 3.790213
-75.000000 3.816939
-75.000000 3.843781
-75.000000 3.870696
-75.000000 3.897726
-75.000000 3.924850
-75.000000 3.952046
-75.000000 3.979358
-75.000000 4.006742
-75.000000 4.034242
-75.000000 4.061814
-75.000000 4.089502
-75.000000 4.117285
-75.000000 4.145138
-75.000000 4.173109
-75.000000 4.201150
-75.000000 4.229309
-75.000000 4.257538
-75.000000 4.285884
-75.000000 4.314325
-75.000000 4.342836
-75.000000 4.371465
-75.000000 4.400164
-75.000000 4.428980
-75.000000 4.457868
-75.000000 4.486872
-75.000000 4.515947
-75.000000 4.545139
-75.000000 4.574426
-75.000000 4.603783
-75.000000 4.633257
-75.000000 4.662802
-75.000000 4.692465
-75.000000 4.722197
-75.000000 4.752048
-75.000000 4.781992
-75.000000 4.812007
-75.000000 4.842140
-75.000000 4.872342
-75.000000 4.902663
-75.000000 4.933053
-75.000000 4.963562
-75.000000 4.994164
-75.000000 5.024836
-75.000000 5.055627
-75.000000 5.086487
-75.000000 5.117466
-75.000000 5.148514
-75.000000 5.179681
-75.000000 5.210916
-75.000000 5.242271
-75.000000 5.273720
-75.000000 5.305238
-75.000000 5.336875
-75.000000 5.368580
-75.000000 5.400405
-75.000000 5.432298
-75.000000 5.464311
-75.000000 5.496418
-75.000000 5.528594
-75.000000 5.560889
-75.000000 5.593252
-75.000000 5.625735
-75.000000 5.658286
-75.000000 5.690957
-75.000000 5.723696
-75.000000 5.756555
-75.000000 5.789508
-75.000000 5.822529
-75.000000 5.855670
-75.000000 5.888878
-75.000000 5.922207
-75.000000 5.955604
-75.000000 5.989121
-75.000000 6.022732
-75.000000 6.056411
-75.000000 6.090210
-75.000000 6.124076
-75.000000 6.158064
-75.000000 6.192118
-75.000000 6.226293
-75.000000 6.260562
-75.000000 6.294898
-75.000000 6.329356
-75.000000 6.363879
-75.000000 6.398525
-75.000000 6.433237
-75.000000 6.468070
-75.000000 6.502970
-75.000000 6.537991
-75.000000 6.573107
-75.000000 6.608288
-75.000000 6.643591
-75.000000 6.678961
-75.000000 6.714452
-75.000000 6.750009
-75.000000 6.785689
-75.000000 6.821463
-75.000000 6.857302
-75.000000 6.893263
-75.000000 6.929290
-75.000000 6.965440
-75.000000 7.001655
-75.000000 7.037992
-75.000000 7.074424
-75.000000 7.110921
-75.000000 7.147541
-75.000000 7.184225
-75.000000 7.221033
-75.000000 7.257905
-75.000000 7.294901
-75.000000 7.331961
-75.000000 7.369145
-75.000000 7.406423
-75.000000 7.443765
-75.000000 7.481231
-75.000000 7.518761
-75.000000 7.556415
-75.000000 7.594133
-75.000000 7.631975
-75.000000 7.669911
-75.000000 7.707911
-75.000000 7.746035
-75.000000 7.784222
-75.000000 7.822535
-75.000000 7.860910
-75.000000 7.899410
-75.000000 7.937973
-75.000000 7.976662
-75.000000 8.015444
-75.000000 8.054289
-75.000000 8.093259
-75.000000 8.132292
-75.000000 8.171450
-75.000000 8.210671
-75.000000 8.250018
-75.000000 8.289458
-75.000000 8.328961
-75.000000 8.368589
-75.000000 8.408280
-75.000000 8.448096
-75.000000 8.487975
-75.000000 8.527979
-75.000000 8.568077
-75.000000 8.608238
-75.000000 8.648524
-75.000000 8.688873
-75.000000 8.729347
-75.000000 8.769883
-75.000000 8.810546
-75.000000 8.851270
-75.000000 8.892120
-75.000000 8.933065
-75.000000 8.974071
-75.000000 9.015203
-75.000000 9.056397
-75.000000 9.097718
-75.000000 9.139099
-75.000000 9.180608
-75.000000 9.222211
-75.000000 9.263874
-75.000000 9.305665
-75.000000 9.347516
-75.000000 9.389495
-75.000000 9.431534
-75.000000 9.473701
-75.000000 9.515962
-75.000000 9.558283
-75.000000 9.600732
-75.000000 9.643241
-75.000000 9.685878
-75.000000 9.728574
-75.000000 9.771399
-75.000000 9.814284
-75.000000 9.857297
-75.000000 9.900404
-75.000000 9.943571
-75.000000 9.986866
-75.000000 10.030220
-75.000000 10.073703
-75.000000 10.117245
-75.000000 10.160916
-75.000000 10.204681
-75.000000 10.248506
-75.000000 10.292459
-75.000000 10.336471
-75.000000 10.380612
-75.000000 10.424812
-75.000000 10.469141
-75.000000 10.513529
-75.000000 10.558046
-75.000000 10.602657
-75.000000 10.647327
-75.000000 10.692126
-75.000000 10.736984
-75.000000 10.781971
-75.000000 10.827016
-75.000000 10.872192
-75.000000 10.917461
-75.000000 10.962788
-75.000000 11.008246
-75.000000 11.053761
-75.000000 11.099406
-75.000000 11.145109
-75.000000 11.190943
-75.000000 11.236870
-75.000000 11.282855
-75.000000 11.328971
-75.000000 11.375143
-75.000000 11.421447
-75.000000 11.467807
-75.000000 11.514299
-75.000000 11.560848
-75.000000 11.607527
-75.000000 11.654301
-75.000000 11.701131
-75.000000 11.748093
-75.000000 11.795111
-75.000000 11.842261
-75.000000 11.889467
-75.000000 11.936805
-75.000000 11.984236
-75.000000 12.031724
-75.000000 12.079344
-75.000000 12.127020
-75.000000 12.174828
-75.000000 12.222691
-75.000000 12.270687
-75.000000 12.318777
-75.000000 12.366923
-75.000000 12.415201
-75.000000 12.463534
-75.000000 12.512000
-75.000000 12.560521
-75.000000 12.609175
-75.000000 12.657884
-75.000000 12.706726
-75.000000 12.755662
-75.000000 12.804653
-75.000000 12.853777
-75.000000 12.902956
-75.000000 12.952268
-75.000000 13.001635
-75.000000 13.051135
-75.000000 13.100730
-75.000000 13.150378
-75.000000 13.200160
-75.000000 13.249997
-75.000000 13.299967
-75.000000 13.349991
-75.000000 13.400150
-75.000000 13.450362
-75.000000 13.500708
-75.000000 13.551149
-75.000000 13.601643
-75.000000 13.652271
-75.000000 13.702953
-75.000000 13.753769
-75.000000 13.804639
-75.000000 13.855644
-75.000000 13.906742
-75.000000 13.957894
-75.000000 14.009180
-75.000000 14.060520
-75.000000 14.111994
-75.000000 14.163522
-75.000000 14.215184
-75.000000 14.266941
-75.000000 14.318750
-75.000000 14.370695
-75.000000 14.422692
-75.000000 14.474824
-75.000000 14.527009
-75.000000 14.579330
-75.000000 14.631703
-75.000000 14.684212
-75.000000 14.736815
-75.000000 14.789469
-75.000000 14.842260
-75.000000 14.895103
-75.000000 14.948081
-75.000000 15.001112
-75.000000 15.054279
-75.000000 15.107540
-75.000000 15.160852
-75.000000 15.214301
-75.000000 15.267801
-75.000000 15.321438
-75.000000 15.375126
-75.000000 15.428951
-75.000000 15.482827
-75.000000 15.536840
-75.000000 15.590947
-75.000000 15.645105
-75.000000 15.699400
-75.000000 15.753746
-75.000000 15.808229
-75.000000 15.862762
-75.000000 15.917433
-75.000000 15.972199
-75.000000 16.027014
-75.000000 16.081967
-75.000000 16.136970
-75.000000 16.192112
-75.000000 16.247303
-75.000000 16.302632
-75.000000 16.358055
-75.000000 16.413528
-75.000000 16.469140
-75.000000 16.524800
-75.000000 16.580600
-75.000000 16.636449
-75.000000 16.692436
-75.000000 16.748473
-75.000000 16.804648
-75.000000 16.860917
-75.000000 16.917236
-75.000000 16.973693
-75.000000 17.030200
-75.000000 17.086845
-75.000000 17.143539
-75.000000 17.200373
-75.000000 17.257301
-75.000000 17.314277
-75.000000 17.371392
-75.000000 17.428556
-75.000000 17.485860
-75.000000 17.543212
-75.000000 17.600703
-75.000000 17.658289
-75.000000 17.715923
-75.000000 17.773696
-75.000000 17.831518
-75.000000 17.889480
-75.000000 17.947489
-75.000000 18.005639
-75.000000 18.063836
-75.000000 18.122174
-75.000000 18.180606
-75.000000 18.239085
-75.000000 18.297705
-75.000000 18.356372
-75.000000 18.415180
-75.000000 18.474035
-75.000000 18.533031
-75.000000 18.592121
-75.000000 18.651257
-75.000000 18.710535
-75.000000 18.769860
-75.000000 18.829326
-75.000000 18.888839
-75.000000 18.948493
-75.000000 19.008193
-75.000000 19.068035
-75.000000 19.127971
-75.000000 19.187953
-75.000000 19.248078
-75.000000 19.308248
-75.000000 19.368560
-75.000000 19.428918
-75.000000 19.489418
-75.000000 19.550012
-75.000000 19.610652
-75.000000 19.671434
-75.000000 19.732262
-75.000000 19.793232
-75.000000 19.854248
-75.000000 19.915406
-75.000000 19.976659
-75.000000 20.037956
-75.000000 20.099397
-75.000000 20.160882
-75.000000 20.222510
-75.000000 20.284183
-75.000000 20.346000
-75.000000 20.407861
-75.000000 20.469865
-75.000000 20.531964
-75.000000 20.594107
-75.000000 20.656393
-75.000000 20.718724
-75.000000 20.781199
-75.000000 20.843717
-75.000000 20.906380
-75.000000 20.969137
-75.000000 21.031937
-75.000000 21.094882
-75.000000 21.157870
-75.000000 21.221003
-75.000000 21.284179
-75.000000 21.347500
-75.000000 21.410915
-75.000000 21.474373
-75.000000 21.537976
-75.000000 21.601622
-75.000000 21.665413
-75.000000 21.729246
-75.000000 21.793225
-75.000000 21.857247
-75.000000 21.921414
-75.000000 21.985675
-75.000000 22.049978
-75.000000 22.114427
-75.000000 22.178919
-75.000000 22.243556
-75.000000 22.308235
-75.000000 22.373060
-75.000000 22.437979
-75.000000 22.502940
-75.000000 22.568048
-75.000000 22.633197
-75.000000 22.698492
-75.000000 22.763829
-75.000000 22.829312
-75.000000 22.894837
-75.000000 22.960508
-75.000000 23.026273
-75.000000 23.092080
-75.000000 23.158033
-75.000000 23.224027
-75.000000 23.290169
-75.000000 23.356351
-75.000000 23.422680
-75.000000 23.489104
-75.000000 23.555568
-75.000000 23.622179
-75.000000 23.688831
-75.000000 23.755631
-75.000000 23.822471
-75.000000 23.889458
-75.000000 23.956540
-75.000000 24.023662
-75.000000 24.090931
-75.000000 24.158241
-75.000000 24.225698
-75.000000 24.293196
-75.000000 24.360842
-75.000000 24.428527
-75.000000 24.496361
-75.000000 24.564288
-75.000000 24.632256
-75.000000 24.700371
-75.000000 24.768526
-75.000000 24.836830
-75.000000 24.905173
-75.000000 24.973665
-75.000000 25.042251
-75.000000 25.110876
-75.000000 25.179649
-75.000000 25.248462
-75.000000 25.317424
-75.000000 25.386425
-75.000000 25.455574
-75.000000 25.524818
-75.000000 25.594101
-75.000000 25.663533
-75.000000 25.733003
-75.000000 25.802623
-75.000000 25.872281
-75.000000 25.942089
-75.000000 26.011935
-75.000000 26.081931
-75.000000 26.152022
-75.000000 26.222150
-75.000000 26.292428
-75.000000 26.362743
-75.000000 26.433210
-75.000000 26.503713
-75.000000 26.574367
-75.000000 26.645116
-75.000000 26.715901
-75.000000 26.786837
-75.000000 26.857811
-75.000000 26.928935
-75.000000 27.000096
-75.000000 27.071409
-75.000000 27.142758
-75.000000 27.214258
-75.000000 27.285852
-75.000000 27.357483
-75.000000 27.429266
-75.000000 27.501085
-75.000000 27.573055
-75.000000 27.645062
-75.000000 27.717220
-75.000000 27.789473
-75.000000 27.861761
-75.000000 27.934202
-75.000000 28.006679
-75.000000 28.079307
-75.000000 28.151971
-75.000000 28.224788
-75.000000 28.297699
-75.000000 28.370645
-75.000000 28.443743
-75.000000 28.516878
-75.000000 28.590164
-75.000000 28.663486
-75.000000 28.736961
-75.000000 28.810471
-75.000000 28.884133
-75.000000 28.957890
-75.000000 29.031682
-75.000000 29.105627
-75.000000 29.179606
-75.000000 29.253739
-75.000000 29.327907
-75.000000 29.402227
-75.000000 29.476642
-75.000000 29.551092
-75.000000 29.625694
-75.000000 29.700332
-75.000000 29.775123
-75.000000 29.849948
-75.000000 29.924927
-75.000000 30.000000
</POINTS>
</NEKTAR>
