<?xml version="1.0" encoding="utf-8" ?>
<NEKTAR>
<POINTS DIM="2" FIELDS="">
766.500000 0.000000
766.500000 0.000418
766.500000 0.001672
766.500000 0.003763
766.500000 0.006689
766.500000 0.010451
766.500000 0.015050
766.500000 0.020485
766.500000 0.026756
766.500000 0.033863
766.500000 0.041806
766.500000 0.050585
766.500000 0.060201
766.500000 0.070652
766.500000 0.081940
766.500000 0.094063
766.500000 0.107023
766.500000 0.120819
766.500000 0.135451
766.500000 0.150919
766.500000 0.167224
766.500000 0.184364
766.500000 0.202341
766.500000 0.221153
766.500000 0.240802
766.500000 0.261287
766.500000 0.282608
766.500000 0.304765
766.500000 0.327758
766.500000 0.351588
766.500000 0.376253
766.500000 0.401755
766.500000 0.428092
766.500000 0.455266
766.500000 0.483276
766.500000 0.512122
766.500000 0.541805
766.500000 0.572323
766.500000 0.603677
766.500000 0.635868
766.500000 0.668894
766.500000 0.702757
766.500000 0.737456
766.500000 0.772991
766.500000 0.809362
766.500000 0.846570
766.500000 0.884613
766.500000 0.923492
766.500000 0.963208
766.500000 1.003760
766.500000 1.045148
766.500000 1.087372
766.500000 1.130432
766.500000 1.174328
766.500000 1.219060
766.500000 1.264629
766.500000 1.311033
766.500000 1.358274
766.500000 1.406351
766.500000 1.455264
766.500000 1.505013
766.500000 1.555598
766.500000 1.607019
766.500000 1.659276
766.500000 1.712370
766.500000 1.766299
766.500000 1.821065
766.500000 1.876667
766.500000 1.933105
766.500000 1.990379
766.500000 2.048489
766.500000 2.107436
766.500000 2.167218
766.500000 2.227837
766.500000 2.289291
766.500000 2.351582
766.500000 2.414709
766.500000 2.478672
766.500000 2.543471
766.500000 2.609106
766.500000 2.675578
766.500000 2.742885
766.500000 2.811029
766.500000 2.880009
766.500000 2.949825
766.500000 3.020477
766.500000 3.091965
766.500000 3.164289
766.500000 3.237449
766.500000 3.311446
766.500000 3.386278
766.500000 3.461947
766.500000 3.538452
766.500000 3.615793
766.500000 3.693970
766.500000 3.772983
766.500000 3.852832
766.500000 3.933517
766.500000 4.015039
766.500000 4.097397
766.500000 4.180590
766.500000 4.264620
766.500000 4.349486
766.500000 4.435188
766.500000 4.521727
766.500000 4.609101
766.500000 4.697311
766.500000 4.786358
766.500000 4.876241
766.500000 4.966959
766.500000 5.058514
766.500000 5.150905
766.500000 5.244133
766.500000 5.338196
766.500000 5.433095
766.500000 5.528831
766.500000 5.625402
766.500000 5.722810
766.500000 5.821054
766.500000 5.920134
766.500000 6.020050
766.500000 6.120802
766.500000 6.222391
766.500000 6.324815
766.500000 6.428076
766.500000 6.532172
766.500000 6.637105
766.500000 6.742874
766.500000 6.849479
766.500000 6.956920
766.500000 7.065198
766.500000 7.174311
766.500000 7.284261
766.500000 7.395046
766.500000 7.506668
766.500000 7.619126
766.500000 7.732420
766.500000 7.846550
766.500000 7.961516
766.500000 8.077319
766.500000 8.193957
766.500000 8.311432
766.500000 8.429742
766.500000 8.548889
766.500000 8.668872
766.500000 8.789691
766.500000 8.911346
766.500000 9.033838
766.500000 9.157165
766.500000 9.281329
766.500000 9.406328
766.500000 9.532164
766.500000 9.658836
766.500000 9.786344
766.500000 9.914688
766.500000 10.043868
766.500000 10.173885
766.500000 10.304737
766.500000 10.436426
766.500000 10.568950
766.500000 10.702311
766.500000 10.836508
766.500000 10.971541
766.500000 11.107411
766.500000 11.244116
766.500000 11.381657
766.500000 11.520035
766.500000 11.659248
766.500000 11.799298
766.500000 11.940184
766.500000 12.081906
766.500000 12.224464
766.500000 12.367859
766.500000 12.512089
766.500000 12.657155
766.500000 12.803058
766.500000 12.949797
766.500000 13.097372
766.500000 13.245782
766.500000 13.395030
766.500000 13.545113
766.500000 13.696032
766.500000 13.847787
766.500000 14.000379
766.500000 14.153807
766.500000 14.308070
766.500000 14.463170
766.500000 14.619106
766.500000 14.775879
766.500000 14.933487
766.500000 15.091931
766.500000 15.251212
766.500000 15.411328
766.500000 15.572281
766.500000 15.734070
766.500000 15.896695
766.500000 16.060156
766.500000 16.224453
766.500000 16.389586
766.500000 16.555556
766.500000 16.722361
766.500000 16.890003
766.500000 17.058481
766.500000 17.227795
766.500000 17.397945
766.500000 17.568931
766.500000 17.740753
766.500000 17.913412
766.500000 18.086906
766.500000 18.261237
766.500000 18.436403
766.500000 18.612406
766.500000 18.789245
766.500000 18.966920
766.500000 19.145432
766.500000 19.324779
766.500000 19.504962
766.500000 19.685982
766.500000 19.867838
766.500000 20.050529
766.500000 20.234057
766.500000 20.418421
766.500000 20.603622
766.500000 20.789658
766.500000 20.976530
766.500000 21.164239
766.500000 21.352783
766.500000 21.542164
766.500000 21.732381
766.500000 21.923434
766.500000 22.115323
766.500000 22.308048
766.500000 22.501610
766.500000 22.696007
766.500000 22.891241
766.500000 23.087310
766.500000 23.284216
766.500000 23.481958
766.500000 23.680536
766.500000 23.879950
766.500000 24.080200
766.500000 24.281287
766.500000 24.483209
766.500000 24.685968
766.500000 24.889563
766.500000 25.093994
766.500000 25.299261
766.500000 25.505364
766.500000 25.712303
766.500000 25.920078
766.500000 26.128690
766.500000 26.338137
766.500000 26.548421
766.500000 26.759541
766.500000 26.971497
766.500000 27.184289
766.500000 27.397917
766.500000 27.612381
766.500000 27.827682
766.500000 28.043818
766.500000 28.260791
766.500000 28.478600
766.500000 28.697244
766.500000 28.916725
766.500000 29.137043
766.500000 29.358196
766.500000 29.580185
766.500000 29.803011
766.500000 30.026672
766.500000 30.251170
766.500000 30.476504
766.500000 30.702674
766.500000 30.929680
766.500000 31.157522
766.500000 31.386200
766.500000 31.615715
766.500000 31.846065
766.500000 32.077252
766.500000 32.309275
766.500000 32.542133
766.500000 32.775828
766.500000 33.010360
766.500000 33.245727
766.500000 33.481930
766.500000 33.718970
766.500000 33.956845
766.500000 34.195557
766.500000 34.435105
766.500000 34.675489
766.500000 34.916709
766.500000 35.158765
766.500000 35.401657
766.500000 35.645386
766.500000 35.889950
766.500000 36.135351
766.500000 36.381588
766.500000 36.628660
766.500000 36.876569
766.500000 37.125315
766.500000 37.374896
766.500000 37.625313
766.500000 37.876567
766.500000 38.128656
766.500000 38.381582
766.500000 38.635344
766.500000 38.889942
766.500000 39.145376
766.500000 39.401646
766.500000 39.658752
766.500000 39.916695
766.500000 40.175473
766.500000 40.435088
766.500000 40.695539
766.500000 40.956826
766.500000 41.218949
766.500000 41.481908
766.500000 41.745703
766.500000 42.010334
766.500000 42.275802
766.500000 42.542106
766.500000 42.809245
766.500000 43.077221
766.500000 43.346033
766.500000 43.615681
766.500000 43.886165
766.500000 44.157486
766.500000 44.429642
766.500000 44.702635
766.500000 44.976463
766.500000 45.251128
766.500000 45.526629
766.500000 45.802966
766.500000 46.080139
766.500000 46.358148
766.500000 46.636994
766.500000 46.916675
766.500000 47.197193
766.500000 47.478547
766.500000 47.760736
766.500000 48.043762
766.500000 48.327625
766.500000 48.612323
766.500000 48.897857
766.500000 49.184227
766.500000 49.471434
766.500000 49.759477
766.500000 50.048355
766.500000 50.338070
766.500000 50.628621
766.500000 50.920009
766.500000 51.212232
766.500000 51.505291
766.500000 51.799187
766.500000 52.093918
766.500000 52.389486
766.500000 52.685890
766.500000 52.983130
766.500000 53.281206
766.500000 53.580118
766.500000 53.879867
766.500000 54.180451
766.500000 54.481872
766.500000 54.784128
766.500000 55.087221
766.500000 55.391150
766.500000 55.695915
766.500000 56.001516
766.500000 56.307953
766.500000 56.615227
766.500000 56.923336
766.500000 57.232282
766.500000 57.542064
766.500000 57.852682
766.500000 58.164136
766.500000 58.476426
766.500000 58.789552
766.500000 59.103514
766.500000 59.418313
766.500000 59.733947
766.500000 60.050418
766.500000 60.367725
766.500000 60.685868
766.500000 61.004847
766.500000 61.324662
766.500000 61.645313
766.500000 61.966801
766.500000 62.289124
766.500000 62.612284
766.500000 62.936279
766.500000 63.261111
766.500000 63.586779
766.500000 63.913283
766.500000 64.240624
766.500000 64.568800
766.500000 64.897812
766.500000 65.227661
766.500000 65.558346
766.500000 65.889867
766.500000 66.222223
766.500000 66.555417
766.500000 66.889446
766.500000 67.224311
766.500000 67.560012
766.500000 67.896550
766.500000 68.233924
766.500000 68.572133
766.500000 68.911179
766.500000 69.251061
766.500000 69.591779
766.500000 69.933334
766.500000 70.275724
766.500000 70.618950
766.500000 70.963013
766.500000 71.307912
766.500000 71.653646
766.500000 72.000217
766.500000 72.347624
766.500000 72.695868
766.500000 73.044947
766.500000 73.394862
766.500000 73.745614
766.500000 74.097202
766.500000 74.449625
766.500000 74.802885
766.500000 75.156981
766.500000 75.511913
766.500000 75.867682
766.500000 76.224286
766.500000 76.581726
766.500000 76.940003
766.500000 77.299116
766.500000 77.659064
766.500000 78.019849
766.500000 78.381471
766.500000 78.743928
766.500000 79.107221
766.500000 79.471350
766.500000 79.836316
766.500000 80.202118
766.500000 80.568755
766.500000 80.936229
766.500000 81.304539
766.500000 81.673685
766.500000 82.043668
766.500000 82.414486
766.500000 82.786141
766.500000 83.158631
766.500000 83.531958
766.500000 83.906121
766.500000 84.281120
766.500000 84.656955
766.500000 85.033626
766.500000 85.411133
766.500000 85.789477
766.500000 86.168656
766.500000 86.548672
766.500000 86.929524
766.500000 87.311212
766.500000 87.693736
766.500000 88.077096
766.500000 88.461292
766.500000 88.846324
766.500000 89.232193
766.500000 89.618897
766.500000 90.006438
766.500000 90.394815
766.500000 90.784028
766.500000 91.174077
766.500000 91.564962
766.500000 91.956684
766.500000 92.349241
766.500000 92.742634
766.500000 93.136864
766.500000 93.531930
766.500000 93.927832
766.500000 94.324570
766.500000 94.722144
766.500000 95.120554
766.500000 95.519801
766.500000 95.919883
766.500000 96.320802
766.500000 96.722557
766.500000 97.125147
766.500000 97.528574
766.500000 97.932837
766.500000 98.337937
766.500000 98.743872
766.500000 99.150643
766.500000 99.558251
766.500000 99.966695
766.500000 100.375974
766.500000 100.786090
766.500000 101.197042
766.500000 101.608831
766.500000 102.021455
766.500000 102.434915
766.500000 102.849212
766.500000 103.264344
766.500000 103.680313
766.500000 104.097118
766.500000 104.514759
766.500000 104.933236
766.500000 105.352549
766.500000 105.772699
766.500000 106.193684
766.500000 106.615506
766.500000 107.038163
766.500000 107.461657
766.500000 107.885987
766.500000 108.311153
766.500000 108.737155
766.500000 109.163993
766.500000 109.591668
766.500000 110.020178
766.500000 110.449525
766.500000 110.879708
766.500000 111.310727
766.500000 111.742582
766.500000 112.175273
766.500000 112.608800
766.500000 113.043163
766.500000 113.478363
766.500000 113.914398
766.500000 114.351270
766.500000 114.788978
766.500000 115.227522
766.500000 115.666902
766.500000 116.107118
766.500000 116.548170
766.500000 116.990059
766.500000 117.432783
766.500000 117.876344
766.500000 118.320740
766.500000 118.765973
766.500000 119.212042
766.500000 119.658947
766.500000 120.106689
766.500000 120.555266
766.500000 121.004679
766.500000 121.454929
766.500000 121.906015
766.500000 122.357937
766.500000 122.810695
766.500000 123.264289
766.500000 123.718719
766.500000 124.173985
766.500000 124.630087
766.500000 125.087026
766.500000 125.544801
766.500000 126.003411
766.500000 126.462858
766.500000 126.923141
766.500000 127.384260
766.500000 127.846216
766.500000 128.309007
766.500000 128.772634
766.500000 129.237098
766.500000 129.702398
766.500000 130.168534
766.500000 130.635505
766.500000 131.103314
766.500000 131.571958
766.500000 132.041438
766.500000 132.511754
766.500000 132.982907
766.500000 133.454896
766.500000 133.927720
766.500000 134.401381
766.500000 134.875878
766.500000 135.351211
766.500000 135.827381
766.500000 136.304386
766.500000 136.782227
766.500000 137.260905
766.500000 137.740419
766.500000 138.220769
766.500000 138.701955
766.500000 139.183977
766.500000 139.666835
766.500000 140.150529
766.500000 140.635060
766.500000 141.120426
766.500000 141.606629
766.500000 142.093668
766.500000 142.581542
766.500000 143.070253
766.500000 143.559801
766.500000 144.050184
766.500000 144.541403
766.500000 145.033459
766.500000 145.526350
766.500000 146.020078
766.500000 146.514642
766.500000 147.010042
766.500000 147.506278
766.500000 148.003350
766.500000 148.501258
766.500000 149.000003
766.500000 149.499583
766.500000 150.000000
</POINTS>
</NEKTAR>

