<?xml version="1.0" encoding="utf-8" ?>
<NEKTAR>
<POINTS DIM="2" FIELDS="">
946.500000 0.000000
946.500000 0.000418
946.500000 0.001672
946.500000 0.003763
946.500000 0.006689
946.500000 0.010451
946.500000 0.015050
946.500000 0.020485
946.500000 0.026756
946.500000 0.033863
946.500000 0.041806
946.500000 0.050585
946.500000 0.060201
946.500000 0.070652
946.500000 0.081940
946.500000 0.094063
946.500000 0.107023
946.500000 0.120819
946.500000 0.135451
946.500000 0.150919
946.500000 0.167224
946.500000 0.184364
946.500000 0.202341
946.500000 0.221153
946.500000 0.240802
946.500000 0.261287
946.500000 0.282608
946.500000 0.304765
946.500000 0.327758
946.500000 0.351588
946.500000 0.376253
946.500000 0.401755
946.500000 0.428092
946.500000 0.455266
946.500000 0.483276
946.500000 0.512122
946.500000 0.541805
946.500000 0.572323
946.500000 0.603677
946.500000 0.635868
946.500000 0.668894
946.500000 0.702757
946.500000 0.737456
946.500000 0.772991
946.500000 0.809362
946.500000 0.846570
946.500000 0.884613
946.500000 0.923492
946.500000 0.963208
946.500000 1.003760
946.500000 1.045148
946.500000 1.087372
946.500000 1.130432
946.500000 1.174328
946.500000 1.219060
946.500000 1.264629
946.500000 1.311033
946.500000 1.358274
946.500000 1.406351
946.500000 1.455264
946.500000 1.505013
946.500000 1.555598
946.500000 1.607019
946.500000 1.659276
946.500000 1.712370
946.500000 1.766299
946.500000 1.821065
946.500000 1.876667
946.500000 1.933105
946.500000 1.990379
946.500000 2.048489
946.500000 2.107436
946.500000 2.167218
946.500000 2.227837
946.500000 2.289291
946.500000 2.351582
946.500000 2.414709
946.500000 2.478672
946.500000 2.543471
946.500000 2.609106
946.500000 2.675578
946.500000 2.742885
946.500000 2.811029
946.500000 2.880009
946.500000 2.949825
946.500000 3.020477
946.500000 3.091965
946.500000 3.164289
946.500000 3.237449
946.500000 3.311446
946.500000 3.386278
946.500000 3.461947
946.500000 3.538452
946.500000 3.615793
946.500000 3.693970
946.500000 3.772983
946.500000 3.852832
946.500000 3.933517
946.500000 4.015039
946.500000 4.097397
946.500000 4.180590
946.500000 4.264620
946.500000 4.349486
946.500000 4.435188
946.500000 4.521727
946.500000 4.609101
946.500000 4.697311
946.500000 4.786358
946.500000 4.876241
946.500000 4.966959
946.500000 5.058514
946.500000 5.150905
946.500000 5.244133
946.500000 5.338196
946.500000 5.433095
946.500000 5.528831
946.500000 5.625402
946.500000 5.722810
946.500000 5.821054
946.500000 5.920134
946.500000 6.020050
946.500000 6.120802
946.500000 6.222391
946.500000 6.324815
946.500000 6.428076
946.500000 6.532172
946.500000 6.637105
946.500000 6.742874
946.500000 6.849479
946.500000 6.956920
946.500000 7.065198
946.500000 7.174311
946.500000 7.284261
946.500000 7.395046
946.500000 7.506668
946.500000 7.619126
946.500000 7.732420
946.500000 7.846550
946.500000 7.961516
946.500000 8.077319
946.500000 8.193957
946.500000 8.311432
946.500000 8.429742
946.500000 8.548889
946.500000 8.668872
946.500000 8.789691
946.500000 8.911346
946.500000 9.033838
946.500000 9.157165
946.500000 9.281329
946.500000 9.406328
946.500000 9.532164
946.500000 9.658836
946.500000 9.786344
946.500000 9.914688
946.500000 10.043868
946.500000 10.173885
946.500000 10.304737
946.500000 10.436426
946.500000 10.568950
946.500000 10.702311
946.500000 10.836508
946.500000 10.971541
946.500000 11.107411
946.500000 11.244116
946.500000 11.381657
946.500000 11.520035
946.500000 11.659248
946.500000 11.799298
946.500000 11.940184
946.500000 12.081906
946.500000 12.224464
946.500000 12.367859
946.500000 12.512089
946.500000 12.657155
946.500000 12.803058
946.500000 12.949797
946.500000 13.097372
946.500000 13.245782
946.500000 13.395030
946.500000 13.545113
946.500000 13.696032
946.500000 13.847787
946.500000 14.000379
946.500000 14.153807
946.500000 14.308070
946.500000 14.463170
946.500000 14.619106
946.500000 14.775879
946.500000 14.933487
946.500000 15.091931
946.500000 15.251212
946.500000 15.411328
946.500000 15.572281
946.500000 15.734070
946.500000 15.896695
946.500000 16.060156
946.500000 16.224453
946.500000 16.389586
946.500000 16.555556
946.500000 16.722361
946.500000 16.890003
946.500000 17.058481
946.500000 17.227795
946.500000 17.397945
946.500000 17.568931
946.500000 17.740753
946.500000 17.913412
946.500000 18.086906
946.500000 18.261237
946.500000 18.436403
946.500000 18.612406
946.500000 18.789245
946.500000 18.966920
946.500000 19.145432
946.500000 19.324779
946.500000 19.504962
946.500000 19.685982
946.500000 19.867838
946.500000 20.050529
946.500000 20.234057
946.500000 20.418421
946.500000 20.603622
946.500000 20.789658
946.500000 20.976530
946.500000 21.164239
946.500000 21.352783
946.500000 21.542164
946.500000 21.732381
946.500000 21.923434
946.500000 22.115323
946.500000 22.308048
946.500000 22.501610
946.500000 22.696007
946.500000 22.891241
946.500000 23.087310
946.500000 23.284216
946.500000 23.481958
946.500000 23.680536
946.500000 23.879950
946.500000 24.080200
946.500000 24.281287
946.500000 24.483209
946.500000 24.685968
946.500000 24.889563
946.500000 25.093994
946.500000 25.299261
946.500000 25.505364
946.500000 25.712303
946.500000 25.920078
946.500000 26.128690
946.500000 26.338137
946.500000 26.548421
946.500000 26.759541
946.500000 26.971497
946.500000 27.184289
946.500000 27.397917
946.500000 27.612381
946.500000 27.827682
946.500000 28.043818
946.500000 28.260791
946.500000 28.478600
946.500000 28.697244
946.500000 28.916725
946.500000 29.137043
946.500000 29.358196
946.500000 29.580185
946.500000 29.803011
946.500000 30.026672
946.500000 30.251170
946.500000 30.476504
946.500000 30.702674
946.500000 30.929680
946.500000 31.157522
946.500000 31.386200
946.500000 31.615715
946.500000 31.846065
946.500000 32.077252
946.500000 32.309275
946.500000 32.542133
946.500000 32.775828
946.500000 33.010360
946.500000 33.245727
946.500000 33.481930
946.500000 33.718970
946.500000 33.956845
946.500000 34.195557
946.500000 34.435105
946.500000 34.675489
946.500000 34.916709
946.500000 35.158765
946.500000 35.401657
946.500000 35.645386
946.500000 35.889950
946.500000 36.135351
946.500000 36.381588
946.500000 36.628660
946.500000 36.876569
946.500000 37.125315
946.500000 37.374896
946.500000 37.625313
946.500000 37.876567
946.500000 38.128656
946.500000 38.381582
946.500000 38.635344
946.500000 38.889942
946.500000 39.145376
946.500000 39.401646
946.500000 39.658752
946.500000 39.916695
946.500000 40.175473
946.500000 40.435088
946.500000 40.695539
946.500000 40.956826
946.500000 41.218949
946.500000 41.481908
946.500000 41.745703
946.500000 42.010334
946.500000 42.275802
946.500000 42.542106
946.500000 42.809245
946.500000 43.077221
946.500000 43.346033
946.500000 43.615681
946.500000 43.886165
946.500000 44.157486
946.500000 44.429642
946.500000 44.702635
946.500000 44.976463
946.500000 45.251128
946.500000 45.526629
946.500000 45.802966
946.500000 46.080139
946.500000 46.358148
946.500000 46.636994
946.500000 46.916675
946.500000 47.197193
946.500000 47.478547
946.500000 47.760736
946.500000 48.043762
946.500000 48.327625
946.500000 48.612323
946.500000 48.897857
946.500000 49.184227
946.500000 49.471434
946.500000 49.759477
946.500000 50.048355
946.500000 50.338070
946.500000 50.628621
946.500000 50.920009
946.500000 51.212232
946.500000 51.505291
946.500000 51.799187
946.500000 52.093918
946.500000 52.389486
946.500000 52.685890
946.500000 52.983130
946.500000 53.281206
946.500000 53.580118
946.500000 53.879867
946.500000 54.180451
946.500000 54.481872
946.500000 54.784128
946.500000 55.087221
946.500000 55.391150
946.500000 55.695915
946.500000 56.001516
946.500000 56.307953
946.500000 56.615227
946.500000 56.923336
946.500000 57.232282
946.500000 57.542064
946.500000 57.852682
946.500000 58.164136
946.500000 58.476426
946.500000 58.789552
946.500000 59.103514
946.500000 59.418313
946.500000 59.733947
946.500000 60.050418
946.500000 60.367725
946.500000 60.685868
946.500000 61.004847
946.500000 61.324662
946.500000 61.645313
946.500000 61.966801
946.500000 62.289124
946.500000 62.612284
946.500000 62.936279
946.500000 63.261111
946.500000 63.586779
946.500000 63.913283
946.500000 64.240624
946.500000 64.568800
946.500000 64.897812
946.500000 65.227661
946.500000 65.558346
946.500000 65.889867
946.500000 66.222223
946.500000 66.555417
946.500000 66.889446
946.500000 67.224311
946.500000 67.560012
946.500000 67.896550
946.500000 68.233924
946.500000 68.572133
946.500000 68.911179
946.500000 69.251061
946.500000 69.591779
946.500000 69.933334
946.500000 70.275724
946.500000 70.618950
946.500000 70.963013
946.500000 71.307912
946.500000 71.653646
946.500000 72.000217
946.500000 72.347624
946.500000 72.695868
946.500000 73.044947
946.500000 73.394862
946.500000 73.745614
946.500000 74.097202
946.500000 74.449625
946.500000 74.802885
946.500000 75.156981
946.500000 75.511913
946.500000 75.867682
946.500000 76.224286
946.500000 76.581726
946.500000 76.940003
946.500000 77.299116
946.500000 77.659064
946.500000 78.019849
946.500000 78.381471
946.500000 78.743928
946.500000 79.107221
946.500000 79.471350
946.500000 79.836316
946.500000 80.202118
946.500000 80.568755
946.500000 80.936229
946.500000 81.304539
946.500000 81.673685
946.500000 82.043668
946.500000 82.414486
946.500000 82.786141
946.500000 83.158631
946.500000 83.531958
946.500000 83.906121
946.500000 84.281120
946.500000 84.656955
946.500000 85.033626
946.500000 85.411133
946.500000 85.789477
946.500000 86.168656
946.500000 86.548672
946.500000 86.929524
946.500000 87.311212
946.500000 87.693736
946.500000 88.077096
946.500000 88.461292
946.500000 88.846324
946.500000 89.232193
946.500000 89.618897
946.500000 90.006438
946.500000 90.394815
946.500000 90.784028
946.500000 91.174077
946.500000 91.564962
946.500000 91.956684
946.500000 92.349241
946.500000 92.742634
946.500000 93.136864
946.500000 93.531930
946.500000 93.927832
946.500000 94.324570
946.500000 94.722144
946.500000 95.120554
946.500000 95.519801
946.500000 95.919883
946.500000 96.320802
946.500000 96.722557
946.500000 97.125147
946.500000 97.528574
946.500000 97.932837
946.500000 98.337937
946.500000 98.743872
946.500000 99.150643
946.500000 99.558251
946.500000 99.966695
946.500000 100.375974
946.500000 100.786090
946.500000 101.197042
946.500000 101.608831
946.500000 102.021455
946.500000 102.434915
946.500000 102.849212
946.500000 103.264344
946.500000 103.680313
946.500000 104.097118
946.500000 104.514759
946.500000 104.933236
946.500000 105.352549
946.500000 105.772699
946.500000 106.193684
946.500000 106.615506
946.500000 107.038163
946.500000 107.461657
946.500000 107.885987
946.500000 108.311153
946.500000 108.737155
946.500000 109.163993
946.500000 109.591668
946.500000 110.020178
946.500000 110.449525
946.500000 110.879708
946.500000 111.310727
946.500000 111.742582
946.500000 112.175273
946.500000 112.608800
946.500000 113.043163
946.500000 113.478363
946.500000 113.914398
946.500000 114.351270
946.500000 114.788978
946.500000 115.227522
946.500000 115.666902
946.500000 116.107118
946.500000 116.548170
946.500000 116.990059
946.500000 117.432783
946.500000 117.876344
946.500000 118.320740
946.500000 118.765973
946.500000 119.212042
946.500000 119.658947
946.500000 120.106689
946.500000 120.555266
946.500000 121.004679
946.500000 121.454929
946.500000 121.906015
946.500000 122.357937
946.500000 122.810695
946.500000 123.264289
946.500000 123.718719
946.500000 124.173985
946.500000 124.630087
946.500000 125.087026
946.500000 125.544801
946.500000 126.003411
946.500000 126.462858
946.500000 126.923141
946.500000 127.384260
946.500000 127.846216
946.500000 128.309007
946.500000 128.772634
946.500000 129.237098
946.500000 129.702398
946.500000 130.168534
946.500000 130.635505
946.500000 131.103314
946.500000 131.571958
946.500000 132.041438
946.500000 132.511754
946.500000 132.982907
946.500000 133.454896
946.500000 133.927720
946.500000 134.401381
946.500000 134.875878
946.500000 135.351211
946.500000 135.827381
946.500000 136.304386
946.500000 136.782227
946.500000 137.260905
946.500000 137.740419
946.500000 138.220769
946.500000 138.701955
946.500000 139.183977
946.500000 139.666835
946.500000 140.150529
946.500000 140.635060
946.500000 141.120426
946.500000 141.606629
946.500000 142.093668
946.500000 142.581542
946.500000 143.070253
946.500000 143.559801
946.500000 144.050184
946.500000 144.541403
946.500000 145.033459
946.500000 145.526350
946.500000 146.020078
946.500000 146.514642
946.500000 147.010042
946.500000 147.506278
946.500000 148.003350
946.500000 148.501258
946.500000 149.000003
946.500000 149.499583
946.500000 150.000000
</POINTS>
</NEKTAR>

