<?xml version="1.0" encoding="utf-8" ?>
<NEKTAR>
<POINTS DIM="2" FIELDS="">
986.500000 0.000000
986.500000 0.000418
986.500000 0.001672
986.500000 0.003763
986.500000 0.006689
986.500000 0.010451
986.500000 0.015050
986.500000 0.020485
986.500000 0.026756
986.500000 0.033863
986.500000 0.041806
986.500000 0.050585
986.500000 0.060201
986.500000 0.070652
986.500000 0.081940
986.500000 0.094063
986.500000 0.107023
986.500000 0.120819
986.500000 0.135451
986.500000 0.150919
986.500000 0.167224
986.500000 0.184364
986.500000 0.202341
986.500000 0.221153
986.500000 0.240802
986.500000 0.261287
986.500000 0.282608
986.500000 0.304765
986.500000 0.327758
986.500000 0.351588
986.500000 0.376253
986.500000 0.401755
986.500000 0.428092
986.500000 0.455266
986.500000 0.483276
986.500000 0.512122
986.500000 0.541805
986.500000 0.572323
986.500000 0.603677
986.500000 0.635868
986.500000 0.668894
986.500000 0.702757
986.500000 0.737456
986.500000 0.772991
986.500000 0.809362
986.500000 0.846570
986.500000 0.884613
986.500000 0.923492
986.500000 0.963208
986.500000 1.003760
986.500000 1.045148
986.500000 1.087372
986.500000 1.130432
986.500000 1.174328
986.500000 1.219060
986.500000 1.264629
986.500000 1.311033
986.500000 1.358274
986.500000 1.406351
986.500000 1.455264
986.500000 1.505013
986.500000 1.555598
986.500000 1.607019
986.500000 1.659276
986.500000 1.712370
986.500000 1.766299
986.500000 1.821065
986.500000 1.876667
986.500000 1.933105
986.500000 1.990379
986.500000 2.048489
986.500000 2.107436
986.500000 2.167218
986.500000 2.227837
986.500000 2.289291
986.500000 2.351582
986.500000 2.414709
986.500000 2.478672
986.500000 2.543471
986.500000 2.609106
986.500000 2.675578
986.500000 2.742885
986.500000 2.811029
986.500000 2.880009
986.500000 2.949825
986.500000 3.020477
986.500000 3.091965
986.500000 3.164289
986.500000 3.237449
986.500000 3.311446
986.500000 3.386278
986.500000 3.461947
986.500000 3.538452
986.500000 3.615793
986.500000 3.693970
986.500000 3.772983
986.500000 3.852832
986.500000 3.933517
986.500000 4.015039
986.500000 4.097397
986.500000 4.180590
986.500000 4.264620
986.500000 4.349486
986.500000 4.435188
986.500000 4.521727
986.500000 4.609101
986.500000 4.697311
986.500000 4.786358
986.500000 4.876241
986.500000 4.966959
986.500000 5.058514
986.500000 5.150905
986.500000 5.244133
986.500000 5.338196
986.500000 5.433095
986.500000 5.528831
986.500000 5.625402
986.500000 5.722810
986.500000 5.821054
986.500000 5.920134
986.500000 6.020050
986.500000 6.120802
986.500000 6.222391
986.500000 6.324815
986.500000 6.428076
986.500000 6.532172
986.500000 6.637105
986.500000 6.742874
986.500000 6.849479
986.500000 6.956920
986.500000 7.065198
986.500000 7.174311
986.500000 7.284261
986.500000 7.395046
986.500000 7.506668
986.500000 7.619126
986.500000 7.732420
986.500000 7.846550
986.500000 7.961516
986.500000 8.077319
986.500000 8.193957
986.500000 8.311432
986.500000 8.429742
986.500000 8.548889
986.500000 8.668872
986.500000 8.789691
986.500000 8.911346
986.500000 9.033838
986.500000 9.157165
986.500000 9.281329
986.500000 9.406328
986.500000 9.532164
986.500000 9.658836
986.500000 9.786344
986.500000 9.914688
986.500000 10.043868
986.500000 10.173885
986.500000 10.304737
986.500000 10.436426
986.500000 10.568950
986.500000 10.702311
986.500000 10.836508
986.500000 10.971541
986.500000 11.107411
986.500000 11.244116
986.500000 11.381657
986.500000 11.520035
986.500000 11.659248
986.500000 11.799298
986.500000 11.940184
986.500000 12.081906
986.500000 12.224464
986.500000 12.367859
986.500000 12.512089
986.500000 12.657155
986.500000 12.803058
986.500000 12.949797
986.500000 13.097372
986.500000 13.245782
986.500000 13.395030
986.500000 13.545113
986.500000 13.696032
986.500000 13.847787
986.500000 14.000379
986.500000 14.153807
986.500000 14.308070
986.500000 14.463170
986.500000 14.619106
986.500000 14.775879
986.500000 14.933487
986.500000 15.091931
986.500000 15.251212
986.500000 15.411328
986.500000 15.572281
986.500000 15.734070
986.500000 15.896695
986.500000 16.060156
986.500000 16.224453
986.500000 16.389586
986.500000 16.555556
986.500000 16.722361
986.500000 16.890003
986.500000 17.058481
986.500000 17.227795
986.500000 17.397945
986.500000 17.568931
986.500000 17.740753
986.500000 17.913412
986.500000 18.086906
986.500000 18.261237
986.500000 18.436403
986.500000 18.612406
986.500000 18.789245
986.500000 18.966920
986.500000 19.145432
986.500000 19.324779
986.500000 19.504962
986.500000 19.685982
986.500000 19.867838
986.500000 20.050529
986.500000 20.234057
986.500000 20.418421
986.500000 20.603622
986.500000 20.789658
986.500000 20.976530
986.500000 21.164239
986.500000 21.352783
986.500000 21.542164
986.500000 21.732381
986.500000 21.923434
986.500000 22.115323
986.500000 22.308048
986.500000 22.501610
986.500000 22.696007
986.500000 22.891241
986.500000 23.087310
986.500000 23.284216
986.500000 23.481958
986.500000 23.680536
986.500000 23.879950
986.500000 24.080200
986.500000 24.281287
986.500000 24.483209
986.500000 24.685968
986.500000 24.889563
986.500000 25.093994
986.500000 25.299261
986.500000 25.505364
986.500000 25.712303
986.500000 25.920078
986.500000 26.128690
986.500000 26.338137
986.500000 26.548421
986.500000 26.759541
986.500000 26.971497
986.500000 27.184289
986.500000 27.397917
986.500000 27.612381
986.500000 27.827682
986.500000 28.043818
986.500000 28.260791
986.500000 28.478600
986.500000 28.697244
986.500000 28.916725
986.500000 29.137043
986.500000 29.358196
986.500000 29.580185
986.500000 29.803011
986.500000 30.026672
986.500000 30.251170
986.500000 30.476504
986.500000 30.702674
986.500000 30.929680
986.500000 31.157522
986.500000 31.386200
986.500000 31.615715
986.500000 31.846065
986.500000 32.077252
986.500000 32.309275
986.500000 32.542133
986.500000 32.775828
986.500000 33.010360
986.500000 33.245727
986.500000 33.481930
986.500000 33.718970
986.500000 33.956845
986.500000 34.195557
986.500000 34.435105
986.500000 34.675489
986.500000 34.916709
986.500000 35.158765
986.500000 35.401657
986.500000 35.645386
986.500000 35.889950
986.500000 36.135351
986.500000 36.381588
986.500000 36.628660
986.500000 36.876569
986.500000 37.125315
986.500000 37.374896
986.500000 37.625313
986.500000 37.876567
986.500000 38.128656
986.500000 38.381582
986.500000 38.635344
986.500000 38.889942
986.500000 39.145376
986.500000 39.401646
986.500000 39.658752
986.500000 39.916695
986.500000 40.175473
986.500000 40.435088
986.500000 40.695539
986.500000 40.956826
986.500000 41.218949
986.500000 41.481908
986.500000 41.745703
986.500000 42.010334
986.500000 42.275802
986.500000 42.542106
986.500000 42.809245
986.500000 43.077221
986.500000 43.346033
986.500000 43.615681
986.500000 43.886165
986.500000 44.157486
986.500000 44.429642
986.500000 44.702635
986.500000 44.976463
986.500000 45.251128
986.500000 45.526629
986.500000 45.802966
986.500000 46.080139
986.500000 46.358148
986.500000 46.636994
986.500000 46.916675
986.500000 47.197193
986.500000 47.478547
986.500000 47.760736
986.500000 48.043762
986.500000 48.327625
986.500000 48.612323
986.500000 48.897857
986.500000 49.184227
986.500000 49.471434
986.500000 49.759477
986.500000 50.048355
986.500000 50.338070
986.500000 50.628621
986.500000 50.920009
986.500000 51.212232
986.500000 51.505291
986.500000 51.799187
986.500000 52.093918
986.500000 52.389486
986.500000 52.685890
986.500000 52.983130
986.500000 53.281206
986.500000 53.580118
986.500000 53.879867
986.500000 54.180451
986.500000 54.481872
986.500000 54.784128
986.500000 55.087221
986.500000 55.391150
986.500000 55.695915
986.500000 56.001516
986.500000 56.307953
986.500000 56.615227
986.500000 56.923336
986.500000 57.232282
986.500000 57.542064
986.500000 57.852682
986.500000 58.164136
986.500000 58.476426
986.500000 58.789552
986.500000 59.103514
986.500000 59.418313
986.500000 59.733947
986.500000 60.050418
986.500000 60.367725
986.500000 60.685868
986.500000 61.004847
986.500000 61.324662
986.500000 61.645313
986.500000 61.966801
986.500000 62.289124
986.500000 62.612284
986.500000 62.936279
986.500000 63.261111
986.500000 63.586779
986.500000 63.913283
986.500000 64.240624
986.500000 64.568800
986.500000 64.897812
986.500000 65.227661
986.500000 65.558346
986.500000 65.889867
986.500000 66.222223
986.500000 66.555417
986.500000 66.889446
986.500000 67.224311
986.500000 67.560012
986.500000 67.896550
986.500000 68.233924
986.500000 68.572133
986.500000 68.911179
986.500000 69.251061
986.500000 69.591779
986.500000 69.933334
986.500000 70.275724
986.500000 70.618950
986.500000 70.963013
986.500000 71.307912
986.500000 71.653646
986.500000 72.000217
986.500000 72.347624
986.500000 72.695868
986.500000 73.044947
986.500000 73.394862
986.500000 73.745614
986.500000 74.097202
986.500000 74.449625
986.500000 74.802885
986.500000 75.156981
986.500000 75.511913
986.500000 75.867682
986.500000 76.224286
986.500000 76.581726
986.500000 76.940003
986.500000 77.299116
986.500000 77.659064
986.500000 78.019849
986.500000 78.381471
986.500000 78.743928
986.500000 79.107221
986.500000 79.471350
986.500000 79.836316
986.500000 80.202118
986.500000 80.568755
986.500000 80.936229
986.500000 81.304539
986.500000 81.673685
986.500000 82.043668
986.500000 82.414486
986.500000 82.786141
986.500000 83.158631
986.500000 83.531958
986.500000 83.906121
986.500000 84.281120
986.500000 84.656955
986.500000 85.033626
986.500000 85.411133
986.500000 85.789477
986.500000 86.168656
986.500000 86.548672
986.500000 86.929524
986.500000 87.311212
986.500000 87.693736
986.500000 88.077096
986.500000 88.461292
986.500000 88.846324
986.500000 89.232193
986.500000 89.618897
986.500000 90.006438
986.500000 90.394815
986.500000 90.784028
986.500000 91.174077
986.500000 91.564962
986.500000 91.956684
986.500000 92.349241
986.500000 92.742634
986.500000 93.136864
986.500000 93.531930
986.500000 93.927832
986.500000 94.324570
986.500000 94.722144
986.500000 95.120554
986.500000 95.519801
986.500000 95.919883
986.500000 96.320802
986.500000 96.722557
986.500000 97.125147
986.500000 97.528574
986.500000 97.932837
986.500000 98.337937
986.500000 98.743872
986.500000 99.150643
986.500000 99.558251
986.500000 99.966695
986.500000 100.375974
986.500000 100.786090
986.500000 101.197042
986.500000 101.608831
986.500000 102.021455
986.500000 102.434915
986.500000 102.849212
986.500000 103.264344
986.500000 103.680313
986.500000 104.097118
986.500000 104.514759
986.500000 104.933236
986.500000 105.352549
986.500000 105.772699
986.500000 106.193684
986.500000 106.615506
986.500000 107.038163
986.500000 107.461657
986.500000 107.885987
986.500000 108.311153
986.500000 108.737155
986.500000 109.163993
986.500000 109.591668
986.500000 110.020178
986.500000 110.449525
986.500000 110.879708
986.500000 111.310727
986.500000 111.742582
986.500000 112.175273
986.500000 112.608800
986.500000 113.043163
986.500000 113.478363
986.500000 113.914398
986.500000 114.351270
986.500000 114.788978
986.500000 115.227522
986.500000 115.666902
986.500000 116.107118
986.500000 116.548170
986.500000 116.990059
986.500000 117.432783
986.500000 117.876344
986.500000 118.320740
986.500000 118.765973
986.500000 119.212042
986.500000 119.658947
986.500000 120.106689
986.500000 120.555266
986.500000 121.004679
986.500000 121.454929
986.500000 121.906015
986.500000 122.357937
986.500000 122.810695
986.500000 123.264289
986.500000 123.718719
986.500000 124.173985
986.500000 124.630087
986.500000 125.087026
986.500000 125.544801
986.500000 126.003411
986.500000 126.462858
986.500000 126.923141
986.500000 127.384260
986.500000 127.846216
986.500000 128.309007
986.500000 128.772634
986.500000 129.237098
986.500000 129.702398
986.500000 130.168534
986.500000 130.635505
986.500000 131.103314
986.500000 131.571958
986.500000 132.041438
986.500000 132.511754
986.500000 132.982907
986.500000 133.454896
986.500000 133.927720
986.500000 134.401381
986.500000 134.875878
986.500000 135.351211
986.500000 135.827381
986.500000 136.304386
986.500000 136.782227
986.500000 137.260905
986.500000 137.740419
986.500000 138.220769
986.500000 138.701955
986.500000 139.183977
986.500000 139.666835
986.500000 140.150529
986.500000 140.635060
986.500000 141.120426
986.500000 141.606629
986.500000 142.093668
986.500000 142.581542
986.500000 143.070253
986.500000 143.559801
986.500000 144.050184
986.500000 144.541403
986.500000 145.033459
986.500000 145.526350
986.500000 146.020078
986.500000 146.514642
986.500000 147.010042
986.500000 147.506278
986.500000 148.003350
986.500000 148.501258
986.500000 149.000003
986.500000 149.499583
986.500000 150.000000
</POINTS>
</NEKTAR>

