<?xml version="1.0" encoding="utf-8" ?>
<NEKTAR>
<POINTS DIM="2" FIELDS="">
466.500000 0.000000
466.500000 0.000418
466.500000 0.001672
466.500000 0.003763
466.500000 0.006689
466.500000 0.010451
466.500000 0.015050
466.500000 0.020485
466.500000 0.026756
466.500000 0.033863
466.500000 0.041806
466.500000 0.050585
466.500000 0.060201
466.500000 0.070652
466.500000 0.081940
466.500000 0.094063
466.500000 0.107023
466.500000 0.120819
466.500000 0.135451
466.500000 0.150919
466.500000 0.167224
466.500000 0.184364
466.500000 0.202341
466.500000 0.221153
466.500000 0.240802
466.500000 0.261287
466.500000 0.282608
466.500000 0.304765
466.500000 0.327758
466.500000 0.351588
466.500000 0.376253
466.500000 0.401755
466.500000 0.428092
466.500000 0.455266
466.500000 0.483276
466.500000 0.512122
466.500000 0.541805
466.500000 0.572323
466.500000 0.603677
466.500000 0.635868
466.500000 0.668894
466.500000 0.702757
466.500000 0.737456
466.500000 0.772991
466.500000 0.809362
466.500000 0.846570
466.500000 0.884613
466.500000 0.923492
466.500000 0.963208
466.500000 1.003760
466.500000 1.045148
466.500000 1.087372
466.500000 1.130432
466.500000 1.174328
466.500000 1.219060
466.500000 1.264629
466.500000 1.311033
466.500000 1.358274
466.500000 1.406351
466.500000 1.455264
466.500000 1.505013
466.500000 1.555598
466.500000 1.607019
466.500000 1.659276
466.500000 1.712370
466.500000 1.766299
466.500000 1.821065
466.500000 1.876667
466.500000 1.933105
466.500000 1.990379
466.500000 2.048489
466.500000 2.107436
466.500000 2.167218
466.500000 2.227837
466.500000 2.289291
466.500000 2.351582
466.500000 2.414709
466.500000 2.478672
466.500000 2.543471
466.500000 2.609106
466.500000 2.675578
466.500000 2.742885
466.500000 2.811029
466.500000 2.880009
466.500000 2.949825
466.500000 3.020477
466.500000 3.091965
466.500000 3.164289
466.500000 3.237449
466.500000 3.311446
466.500000 3.386278
466.500000 3.461947
466.500000 3.538452
466.500000 3.615793
466.500000 3.693970
466.500000 3.772983
466.500000 3.852832
466.500000 3.933517
466.500000 4.015039
466.500000 4.097397
466.500000 4.180590
466.500000 4.264620
466.500000 4.349486
466.500000 4.435188
466.500000 4.521727
466.500000 4.609101
466.500000 4.697311
466.500000 4.786358
466.500000 4.876241
466.500000 4.966959
466.500000 5.058514
466.500000 5.150905
466.500000 5.244133
466.500000 5.338196
466.500000 5.433095
466.500000 5.528831
466.500000 5.625402
466.500000 5.722810
466.500000 5.821054
466.500000 5.920134
466.500000 6.020050
466.500000 6.120802
466.500000 6.222391
466.500000 6.324815
466.500000 6.428076
466.500000 6.532172
466.500000 6.637105
466.500000 6.742874
466.500000 6.849479
466.500000 6.956920
466.500000 7.065198
466.500000 7.174311
466.500000 7.284261
466.500000 7.395046
466.500000 7.506668
466.500000 7.619126
466.500000 7.732420
466.500000 7.846550
466.500000 7.961516
466.500000 8.077319
466.500000 8.193957
466.500000 8.311432
466.500000 8.429742
466.500000 8.548889
466.500000 8.668872
466.500000 8.789691
466.500000 8.911346
466.500000 9.033838
466.500000 9.157165
466.500000 9.281329
466.500000 9.406328
466.500000 9.532164
466.500000 9.658836
466.500000 9.786344
466.500000 9.914688
466.500000 10.043868
466.500000 10.173885
466.500000 10.304737
466.500000 10.436426
466.500000 10.568950
466.500000 10.702311
466.500000 10.836508
466.500000 10.971541
466.500000 11.107411
466.500000 11.244116
466.500000 11.381657
466.500000 11.520035
466.500000 11.659248
466.500000 11.799298
466.500000 11.940184
466.500000 12.081906
466.500000 12.224464
466.500000 12.367859
466.500000 12.512089
466.500000 12.657155
466.500000 12.803058
466.500000 12.949797
466.500000 13.097372
466.500000 13.245782
466.500000 13.395030
466.500000 13.545113
466.500000 13.696032
466.500000 13.847787
466.500000 14.000379
466.500000 14.153807
466.500000 14.308070
466.500000 14.463170
466.500000 14.619106
466.500000 14.775879
466.500000 14.933487
466.500000 15.091931
466.500000 15.251212
466.500000 15.411328
466.500000 15.572281
466.500000 15.734070
466.500000 15.896695
466.500000 16.060156
466.500000 16.224453
466.500000 16.389586
466.500000 16.555556
466.500000 16.722361
466.500000 16.890003
466.500000 17.058481
466.500000 17.227795
466.500000 17.397945
466.500000 17.568931
466.500000 17.740753
466.500000 17.913412
466.500000 18.086906
466.500000 18.261237
466.500000 18.436403
466.500000 18.612406
466.500000 18.789245
466.500000 18.966920
466.500000 19.145432
466.500000 19.324779
466.500000 19.504962
466.500000 19.685982
466.500000 19.867838
466.500000 20.050529
466.500000 20.234057
466.500000 20.418421
466.500000 20.603622
466.500000 20.789658
466.500000 20.976530
466.500000 21.164239
466.500000 21.352783
466.500000 21.542164
466.500000 21.732381
466.500000 21.923434
466.500000 22.115323
466.500000 22.308048
466.500000 22.501610
466.500000 22.696007
466.500000 22.891241
466.500000 23.087310
466.500000 23.284216
466.500000 23.481958
466.500000 23.680536
466.500000 23.879950
466.500000 24.080200
466.500000 24.281287
466.500000 24.483209
466.500000 24.685968
466.500000 24.889563
466.500000 25.093994
466.500000 25.299261
466.500000 25.505364
466.500000 25.712303
466.500000 25.920078
466.500000 26.128690
466.500000 26.338137
466.500000 26.548421
466.500000 26.759541
466.500000 26.971497
466.500000 27.184289
466.500000 27.397917
466.500000 27.612381
466.500000 27.827682
466.500000 28.043818
466.500000 28.260791
466.500000 28.478600
466.500000 28.697244
466.500000 28.916725
466.500000 29.137043
466.500000 29.358196
466.500000 29.580185
466.500000 29.803011
466.500000 30.026672
466.500000 30.251170
466.500000 30.476504
466.500000 30.702674
466.500000 30.929680
466.500000 31.157522
466.500000 31.386200
466.500000 31.615715
466.500000 31.846065
466.500000 32.077252
466.500000 32.309275
466.500000 32.542133
466.500000 32.775828
466.500000 33.010360
466.500000 33.245727
466.500000 33.481930
466.500000 33.718970
466.500000 33.956845
466.500000 34.195557
466.500000 34.435105
466.500000 34.675489
466.500000 34.916709
466.500000 35.158765
466.500000 35.401657
466.500000 35.645386
466.500000 35.889950
466.500000 36.135351
466.500000 36.381588
466.500000 36.628660
466.500000 36.876569
466.500000 37.125315
466.500000 37.374896
466.500000 37.625313
466.500000 37.876567
466.500000 38.128656
466.500000 38.381582
466.500000 38.635344
466.500000 38.889942
466.500000 39.145376
466.500000 39.401646
466.500000 39.658752
466.500000 39.916695
466.500000 40.175473
466.500000 40.435088
466.500000 40.695539
466.500000 40.956826
466.500000 41.218949
466.500000 41.481908
466.500000 41.745703
466.500000 42.010334
466.500000 42.275802
466.500000 42.542106
466.500000 42.809245
466.500000 43.077221
466.500000 43.346033
466.500000 43.615681
466.500000 43.886165
466.500000 44.157486
466.500000 44.429642
466.500000 44.702635
466.500000 44.976463
466.500000 45.251128
466.500000 45.526629
466.500000 45.802966
466.500000 46.080139
466.500000 46.358148
466.500000 46.636994
466.500000 46.916675
466.500000 47.197193
466.500000 47.478547
466.500000 47.760736
466.500000 48.043762
466.500000 48.327625
466.500000 48.612323
466.500000 48.897857
466.500000 49.184227
466.500000 49.471434
466.500000 49.759477
466.500000 50.048355
466.500000 50.338070
466.500000 50.628621
466.500000 50.920009
466.500000 51.212232
466.500000 51.505291
466.500000 51.799187
466.500000 52.093918
466.500000 52.389486
466.500000 52.685890
466.500000 52.983130
466.500000 53.281206
466.500000 53.580118
466.500000 53.879867
466.500000 54.180451
466.500000 54.481872
466.500000 54.784128
466.500000 55.087221
466.500000 55.391150
466.500000 55.695915
466.500000 56.001516
466.500000 56.307953
466.500000 56.615227
466.500000 56.923336
466.500000 57.232282
466.500000 57.542064
466.500000 57.852682
466.500000 58.164136
466.500000 58.476426
466.500000 58.789552
466.500000 59.103514
466.500000 59.418313
466.500000 59.733947
466.500000 60.050418
466.500000 60.367725
466.500000 60.685868
466.500000 61.004847
466.500000 61.324662
466.500000 61.645313
466.500000 61.966801
466.500000 62.289124
466.500000 62.612284
466.500000 62.936279
466.500000 63.261111
466.500000 63.586779
466.500000 63.913283
466.500000 64.240624
466.500000 64.568800
466.500000 64.897812
466.500000 65.227661
466.500000 65.558346
466.500000 65.889867
466.500000 66.222223
466.500000 66.555417
466.500000 66.889446
466.500000 67.224311
466.500000 67.560012
466.500000 67.896550
466.500000 68.233924
466.500000 68.572133
466.500000 68.911179
466.500000 69.251061
466.500000 69.591779
466.500000 69.933334
466.500000 70.275724
466.500000 70.618950
466.500000 70.963013
466.500000 71.307912
466.500000 71.653646
466.500000 72.000217
466.500000 72.347624
466.500000 72.695868
466.500000 73.044947
466.500000 73.394862
466.500000 73.745614
466.500000 74.097202
466.500000 74.449625
466.500000 74.802885
466.500000 75.156981
466.500000 75.511913
466.500000 75.867682
466.500000 76.224286
466.500000 76.581726
466.500000 76.940003
466.500000 77.299116
466.500000 77.659064
466.500000 78.019849
466.500000 78.381471
466.500000 78.743928
466.500000 79.107221
466.500000 79.471350
466.500000 79.836316
466.500000 80.202118
466.500000 80.568755
466.500000 80.936229
466.500000 81.304539
466.500000 81.673685
466.500000 82.043668
466.500000 82.414486
466.500000 82.786141
466.500000 83.158631
466.500000 83.531958
466.500000 83.906121
466.500000 84.281120
466.500000 84.656955
466.500000 85.033626
466.500000 85.411133
466.500000 85.789477
466.500000 86.168656
466.500000 86.548672
466.500000 86.929524
466.500000 87.311212
466.500000 87.693736
466.500000 88.077096
466.500000 88.461292
466.500000 88.846324
466.500000 89.232193
466.500000 89.618897
466.500000 90.006438
466.500000 90.394815
466.500000 90.784028
466.500000 91.174077
466.500000 91.564962
466.500000 91.956684
466.500000 92.349241
466.500000 92.742634
466.500000 93.136864
466.500000 93.531930
466.500000 93.927832
466.500000 94.324570
466.500000 94.722144
466.500000 95.120554
466.500000 95.519801
466.500000 95.919883
466.500000 96.320802
466.500000 96.722557
466.500000 97.125147
466.500000 97.528574
466.500000 97.932837
466.500000 98.337937
466.500000 98.743872
466.500000 99.150643
466.500000 99.558251
466.500000 99.966695
466.500000 100.375974
466.500000 100.786090
466.500000 101.197042
466.500000 101.608831
466.500000 102.021455
466.500000 102.434915
466.500000 102.849212
466.500000 103.264344
466.500000 103.680313
466.500000 104.097118
466.500000 104.514759
466.500000 104.933236
466.500000 105.352549
466.500000 105.772699
466.500000 106.193684
466.500000 106.615506
466.500000 107.038163
466.500000 107.461657
466.500000 107.885987
466.500000 108.311153
466.500000 108.737155
466.500000 109.163993
466.500000 109.591668
466.500000 110.020178
466.500000 110.449525
466.500000 110.879708
466.500000 111.310727
466.500000 111.742582
466.500000 112.175273
466.500000 112.608800
466.500000 113.043163
466.500000 113.478363
466.500000 113.914398
466.500000 114.351270
466.500000 114.788978
466.500000 115.227522
466.500000 115.666902
466.500000 116.107118
466.500000 116.548170
466.500000 116.990059
466.500000 117.432783
466.500000 117.876344
466.500000 118.320740
466.500000 118.765973
466.500000 119.212042
466.500000 119.658947
466.500000 120.106689
466.500000 120.555266
466.500000 121.004679
466.500000 121.454929
466.500000 121.906015
466.500000 122.357937
466.500000 122.810695
466.500000 123.264289
466.500000 123.718719
466.500000 124.173985
466.500000 124.630087
466.500000 125.087026
466.500000 125.544801
466.500000 126.003411
466.500000 126.462858
466.500000 126.923141
466.500000 127.384260
466.500000 127.846216
466.500000 128.309007
466.500000 128.772634
466.500000 129.237098
466.500000 129.702398
466.500000 130.168534
466.500000 130.635505
466.500000 131.103314
466.500000 131.571958
466.500000 132.041438
466.500000 132.511754
466.500000 132.982907
466.500000 133.454896
466.500000 133.927720
466.500000 134.401381
466.500000 134.875878
466.500000 135.351211
466.500000 135.827381
466.500000 136.304386
466.500000 136.782227
466.500000 137.260905
466.500000 137.740419
466.500000 138.220769
466.500000 138.701955
466.500000 139.183977
466.500000 139.666835
466.500000 140.150529
466.500000 140.635060
466.500000 141.120426
466.500000 141.606629
466.500000 142.093668
466.500000 142.581542
466.500000 143.070253
466.500000 143.559801
466.500000 144.050184
466.500000 144.541403
466.500000 145.033459
466.500000 145.526350
466.500000 146.020078
466.500000 146.514642
466.500000 147.010042
466.500000 147.506278
466.500000 148.003350
466.500000 148.501258
466.500000 149.000003
466.500000 149.499583
466.500000 150.000000
</POINTS>
</NEKTAR>

