<?xml version="1.0" encoding="utf-8" ?>
<NEKTAR>
<POINTS DIM="2" FIELDS="">
60.500000 -1.500000
60.500000 -1.499578
60.500000 -1.498311
60.500000 -1.496200
60.500000 -1.493244
60.500000 -1.489444
60.500000 -1.484799
60.500000 -1.479310
60.500000 -1.472977
60.500000 -1.465799
60.500000 -1.457776
60.500000 -1.448909
60.500000 -1.439197
60.500000 -1.428642
60.500000 -1.417241
60.500000 -1.404996
60.500000 -1.391907
60.500000 -1.377973
60.500000 -1.363194
60.500000 -1.347571
60.500000 -1.331104
60.500000 -1.313792
60.500000 -1.295636
60.500000 -1.276635
60.500000 -1.256790
60.500000 -1.236100
60.500000 -1.214566
60.500000 -1.192187
60.500000 -1.168964
60.500000 -1.144896
60.500000 -1.119984
60.500000 -1.094228
60.500000 -1.067627
60.500000 -1.040181
60.500000 -1.011891
60.500000 -0.982756
60.500000 -0.952777
60.500000 -0.921954
60.500000 -0.890286
60.500000 -0.857774
60.500000 -0.824417
60.500000 -0.790215
60.500000 -0.755169
60.500000 -0.719279
60.500000 -0.682544
60.500000 -0.644965
60.500000 -0.606541
60.500000 -0.567273
60.500000 -0.527160
60.500000 -0.486203
60.500000 -0.444401
60.500000 -0.401755
60.500000 -0.358264
60.500000 -0.313929
60.500000 -0.268749
60.500000 -0.222725
60.500000 -0.175857
60.500000 -0.128143
60.500000 -0.079586
60.500000 -0.030184
60.500000 0.020063
60.500000 0.071154
60.500000 0.123089
60.500000 0.175869
60.500000 0.229494
60.500000 0.283962
60.500000 0.339276
60.500000 0.395434
60.500000 0.452436
60.500000 0.510283
60.500000 0.568974
60.500000 0.628510
60.500000 0.688890
60.500000 0.750115
60.500000 0.812184
60.500000 0.875098
60.500000 0.938856
60.500000 1.003459
60.500000 1.068906
60.500000 1.135198
60.500000 1.202334
60.500000 1.270314
60.500000 1.339139
60.500000 1.408809
60.500000 1.479323
60.500000 1.550681
60.500000 1.622884
60.500000 1.695932
60.500000 1.769824
60.500000 1.844560
60.500000 1.920141
60.500000 1.996566
60.500000 2.073836
60.500000 2.151951
60.500000 2.230909
60.500000 2.310713
60.500000 2.391360
60.500000 2.472853
60.500000 2.555189
60.500000 2.638371
60.500000 2.722396
60.500000 2.807266
60.500000 2.892981
60.500000 2.979540
60.500000 3.066944
60.500000 3.155192
60.500000 3.244284
60.500000 3.334221
60.500000 3.425003
60.500000 3.516629
60.500000 3.609099
60.500000 3.702414
60.500000 3.796574
60.500000 3.891578
60.500000 3.987426
60.500000 4.084119
60.500000 4.181656
60.500000 4.280038
60.500000 4.379265
60.500000 4.479335
60.500000 4.580251
60.500000 4.682010
60.500000 4.784615
60.500000 4.888063
60.500000 4.992356
60.500000 5.097494
60.500000 5.203476
60.500000 5.310303
60.500000 5.417974
60.500000 5.526490
60.500000 5.635850
60.500000 5.746054
60.500000 5.857103
60.500000 5.968997
60.500000 6.081735
60.500000 6.195317
60.500000 6.309744
60.500000 6.425016
60.500000 6.541131
60.500000 6.658092
60.500000 6.775897
60.500000 6.894546
60.500000 7.014040
60.500000 7.134378
60.500000 7.255561
60.500000 7.377588
60.500000 7.500460
60.500000 7.624176
60.500000 7.748737
60.500000 7.874142
60.500000 8.000392
60.500000 8.127486
60.500000 8.255424
60.500000 8.384207
60.500000 8.513835
60.500000 8.644307
60.500000 8.775624
60.500000 8.907785
60.500000 9.040790
60.500000 9.174640
60.500000 9.309334
60.500000 9.444873
60.500000 9.581257
60.500000 9.718485
60.500000 9.856557
60.500000 9.995474
60.500000 10.135235
60.500000 10.275841
60.500000 10.417291
60.500000 10.559586
60.500000 10.702725
60.500000 10.846709
60.500000 10.991537
60.500000 11.137210
60.500000 11.283727
60.500000 11.431089
60.500000 11.579295
60.500000 11.728345
60.500000 11.878240
60.500000 12.028980
60.500000 12.180564
60.500000 12.332992
60.500000 12.486265
60.500000 12.640383
60.500000 12.795345
60.500000 12.951151
60.500000 13.107802
60.500000 13.265297
60.500000 13.423637
60.500000 13.582822
60.500000 13.742850
60.500000 13.903724
60.500000 14.065442
60.500000 14.228004
60.500000 14.391411
60.500000 14.555662
60.500000 14.720757
60.500000 14.886698
60.500000 15.053482
60.500000 15.221111
60.500000 15.389585
60.500000 15.558903
60.500000 15.729066
60.500000 15.900073
60.500000 16.071924
60.500000 16.244620
60.500000 16.418161
60.500000 16.592546
60.500000 16.767775
60.500000 16.943849
60.500000 17.120768
60.500000 17.298530
60.500000 17.477138
60.500000 17.656590
60.500000 17.836886
60.500000 18.018027
60.500000 18.200012
60.500000 18.382842
60.500000 18.566516
60.500000 18.751035
60.500000 18.936398
60.500000 19.122606
60.500000 19.309658
60.500000 19.497554
60.500000 19.686295
60.500000 19.875881
60.500000 20.066311
60.500000 20.257586
60.500000 20.449705
60.500000 20.642668
60.500000 20.836476
60.500000 21.031129
60.500000 21.226626
60.500000 21.422967
60.500000 21.620153
60.500000 21.818183
60.500000 22.017058
60.500000 22.216778
60.500000 22.417341
60.500000 22.618750
60.500000 22.821002
60.500000 23.024100
60.500000 23.228041
60.500000 23.432828
60.500000 23.638458
60.500000 23.844934
60.500000 24.052253
60.500000 24.260417
60.500000 24.469426
60.500000 24.679279
60.500000 24.889977
60.500000 25.101519
60.500000 25.313905
60.500000 25.527136
60.500000 25.741212
60.500000 25.956132
60.500000 26.171896
60.500000 26.388505
60.500000 26.605958
60.500000 26.824256
60.500000 27.043399
60.500000 27.263386
60.500000 27.484217
60.500000 27.705893
60.500000 27.928413
60.500000 28.151778
60.500000 28.375987
60.500000 28.601041
60.500000 28.826939
60.500000 29.053682
60.500000 29.281269
60.500000 29.509700
60.500000 29.738976
60.500000 29.969097
60.500000 30.200062
60.500000 30.431872
60.500000 30.664526
60.500000 30.898024
60.500000 31.132367
60.500000 31.367555
60.500000 31.603587
60.500000 31.840463
60.500000 32.078184
60.500000 32.316749
60.500000 32.556159
60.500000 32.796414
60.500000 33.037512
60.500000 33.279456
60.500000 33.522244
60.500000 33.765876
60.500000 34.010353
60.500000 34.255674
60.500000 34.501839
60.500000 34.748850
60.500000 34.996704
60.500000 35.245403
60.500000 35.494947
60.500000 35.745335
60.500000 35.996568
60.500000 36.248645
60.500000 36.501566
60.500000 36.755332
60.500000 37.009943
60.500000 37.265398
60.500000 37.521697
60.500000 37.778841
60.500000 38.036830
60.500000 38.295662
60.500000 38.555340
60.500000 38.815862
60.500000 39.077228
60.500000 39.339439
60.500000 39.602494
60.500000 39.866394
60.500000 40.131138
60.500000 40.396727
60.500000 40.663160
60.500000 40.930438
60.500000 41.198560
60.500000 41.467527
60.500000 41.737338
60.500000 42.007993
60.500000 42.279493
60.500000 42.551838
60.500000 42.825027
60.500000 43.099060
60.500000 43.373938
60.500000 43.649661
60.500000 43.926228
60.500000 44.203639
60.500000 44.481895
60.500000 44.760996
60.500000 45.040941
60.500000 45.321730
60.500000 45.603364
60.500000 45.885842
60.500000 46.169165
60.500000 46.453332
60.500000 46.738344
60.500000 47.024200
60.500000 47.310901
60.500000 47.598446
60.500000 47.886836
60.500000 48.176070
60.500000 48.466148
60.500000 48.757071
60.500000 49.048839
60.500000 49.341451
60.500000 49.634908
60.500000 49.929209
60.500000 50.224354
60.500000 50.520344
60.500000 50.817179
60.500000 51.114858
60.500000 51.413381
60.500000 51.712749
60.500000 52.012961
60.500000 52.314018
60.500000 52.615919
60.500000 52.918665
60.500000 53.222256
60.500000 53.526690
60.500000 53.831970
60.500000 54.138093
60.500000 54.445061
60.500000 54.752874
60.500000 55.061531
60.500000 55.371033
60.500000 55.681379
60.500000 55.992570
60.500000 56.304605
60.500000 56.617484
60.500000 56.931208
60.500000 57.245777
60.500000 57.561190
60.500000 57.877447
60.500000 58.194549
60.500000 58.512496
60.500000 58.831287
60.500000 59.150922
60.500000 59.471402
60.500000 59.792726
60.500000 60.114895
60.500000 60.437908
60.500000 60.761766
60.500000 61.086469
60.500000 61.412015
60.500000 61.738407
60.500000 62.065642
60.500000 62.393722
60.500000 62.722647
60.500000 63.052416
60.500000 63.383030
60.500000 63.714488
60.500000 64.046791
60.500000 64.379938
60.500000 64.713929
60.500000 65.048765
60.500000 65.384446
60.500000 65.720971
60.500000 66.058340
60.500000 66.396554
60.500000 66.735612
60.500000 67.075515
60.500000 67.416263
60.500000 67.757855
60.500000 68.100291
60.500000 68.443572
60.500000 68.787697
60.500000 69.132667
60.500000 69.478481
60.500000 69.825140
60.500000 70.172643
60.500000 70.520991
60.500000 70.870183
60.500000 71.220220
60.500000 71.571101
60.500000 71.922826
60.500000 72.275396
60.500000 72.628811
60.500000 72.983070
60.500000 73.338174
60.500000 73.694122
60.500000 74.050914
60.500000 74.408551
60.500000 74.767032
60.500000 75.126358
60.500000 75.486529
60.500000 75.847544
60.500000 76.209403
60.500000 76.572107
60.500000 76.935655
60.500000 77.300048
60.500000 77.665285
60.500000 78.031367
60.500000 78.398293
60.500000 78.766064
60.500000 79.134679
60.500000 79.504139
60.500000 79.874443
60.500000 80.245592
60.500000 80.617585
60.500000 80.990422
60.500000 81.364104
60.500000 81.738631
60.500000 82.114002
60.500000 82.490217
60.500000 82.867277
60.500000 83.245182
60.500000 83.623931
60.500000 84.003524
60.500000 84.383962
60.500000 84.765245
60.500000 85.147371
60.500000 85.530343
60.500000 85.914159
60.500000 86.298819
60.500000 86.684324
60.500000 87.070673
60.500000 87.457867
60.500000 87.845905
60.500000 88.234788
60.500000 88.624515
60.500000 89.015086
60.500000 89.406502
60.500000 89.798763
60.500000 90.191868
60.500000 90.585818
60.500000 90.980612
60.500000 91.376250
60.500000 91.772733
60.500000 92.170061
60.500000 92.568233
60.500000 92.967249
60.500000 93.367110
60.500000 93.767816
60.500000 94.169365
60.500000 94.571760
60.500000 94.974999
60.500000 95.379082
60.500000 95.784010
60.500000 96.189782
60.500000 96.596399
60.500000 97.003860
60.500000 97.412166
60.500000 97.821316
60.500000 98.231311
60.500000 98.642150
60.500000 99.053833
60.500000 99.466362
60.500000 99.879734
60.500000 100.293951
60.500000 100.709013
60.500000 101.124919
60.500000 101.541669
60.500000 101.959264
60.500000 102.377704
60.500000 102.796988
60.500000 103.217116
60.500000 103.638089
60.500000 104.059906
60.500000 104.482568
60.500000 104.906075
60.500000 105.330426
60.500000 105.755621
60.500000 106.181661
60.500000 106.608545
60.500000 107.036274
60.500000 107.464847
60.500000 107.894265
60.500000 108.324527
60.500000 108.755633
60.500000 109.187584
60.500000 109.620380
60.500000 110.054020
60.500000 110.488505
60.500000 110.923834
60.500000 111.360007
60.500000 111.797025
60.500000 112.234888
60.500000 112.673595
60.500000 113.113146
60.500000 113.553542
60.500000 113.994783
60.500000 114.436868
60.500000 114.879797
60.500000 115.323571
60.500000 115.768189
60.500000 116.213652
60.500000 116.659959
60.500000 117.107111
60.500000 117.555107
60.500000 118.003948
60.500000 118.453633
60.500000 118.904163
60.500000 119.355537
60.500000 119.807756
60.500000 120.260819
60.500000 120.714726
60.500000 121.169478
60.500000 121.625075
60.500000 122.081516
60.500000 122.538801
60.500000 122.996931
60.500000 123.455906
60.500000 123.915725
60.500000 124.376388
60.500000 124.837896
60.500000 125.300249
60.500000 125.763445
60.500000 126.227487
60.500000 126.692373
60.500000 127.158103
60.500000 127.624678
60.500000 128.092097
60.500000 128.560361
60.500000 129.029469
60.500000 129.499422
60.500000 129.970219
60.500000 130.441861
60.500000 130.914347
60.500000 131.387677
60.500000 131.861852
60.500000 132.336872
60.500000 132.812736
60.500000 133.289445
60.500000 133.766998
60.500000 134.245395
60.500000 134.724637
60.500000 135.204724
60.500000 135.685654
60.500000 136.167430
60.500000 136.650050
60.500000 137.133514
60.500000 137.617823
60.500000 138.102976
60.500000 138.588974
60.500000 139.075816
60.500000 139.563503
60.500000 140.052034
60.500000 140.541410
60.500000 141.031630
60.500000 141.522695
60.500000 142.014604
60.500000 142.507358
60.500000 143.000956
60.500000 143.495399
60.500000 143.990686
60.500000 144.486817
60.500000 144.983793
60.500000 145.481614
60.500000 145.980279
60.500000 146.479788
60.500000 146.980142
60.500000 147.481341
60.500000 147.983384
60.500000 148.486271
60.500000 148.990003
60.500000 149.494579
60.500000 150.000000
</POINTS>
</NEKTAR>

