<?xml version="1.0" encoding="utf-8" ?>
<NEKTAR>
<POINTS DIM="2" FIELDS="">
50.500000 -1.500000
50.500000 -1.499578
50.500000 -1.498311
50.500000 -1.496200
50.500000 -1.493244
50.500000 -1.489444
50.500000 -1.484799
50.500000 -1.479310
50.500000 -1.472977
50.500000 -1.465799
50.500000 -1.457776
50.500000 -1.448909
50.500000 -1.439197
50.500000 -1.428642
50.500000 -1.417241
50.500000 -1.404996
50.500000 -1.391907
50.500000 -1.377973
50.500000 -1.363194
50.500000 -1.347571
50.500000 -1.331104
50.500000 -1.313792
50.500000 -1.295636
50.500000 -1.276635
50.500000 -1.256790
50.500000 -1.236100
50.500000 -1.214566
50.500000 -1.192187
50.500000 -1.168964
50.500000 -1.144896
50.500000 -1.119984
50.500000 -1.094228
50.500000 -1.067627
50.500000 -1.040181
50.500000 -1.011891
50.500000 -0.982756
50.500000 -0.952777
50.500000 -0.921954
50.500000 -0.890286
50.500000 -0.857774
50.500000 -0.824417
50.500000 -0.790215
50.500000 -0.755169
50.500000 -0.719279
50.500000 -0.682544
50.500000 -0.644965
50.500000 -0.606541
50.500000 -0.567273
50.500000 -0.527160
50.500000 -0.486203
50.500000 -0.444401
50.500000 -0.401755
50.500000 -0.358264
50.500000 -0.313929
50.500000 -0.268749
50.500000 -0.222725
50.500000 -0.175857
50.500000 -0.128143
50.500000 -0.079586
50.500000 -0.030184
50.500000 0.020063
50.500000 0.071154
50.500000 0.123089
50.500000 0.175869
50.500000 0.229494
50.500000 0.283962
50.500000 0.339276
50.500000 0.395434
50.500000 0.452436
50.500000 0.510283
50.500000 0.568974
50.500000 0.628510
50.500000 0.688890
50.500000 0.750115
50.500000 0.812184
50.500000 0.875098
50.500000 0.938856
50.500000 1.003459
50.500000 1.068906
50.500000 1.135198
50.500000 1.202334
50.500000 1.270314
50.500000 1.339139
50.500000 1.408809
50.500000 1.479323
50.500000 1.550681
50.500000 1.622884
50.500000 1.695932
50.500000 1.769824
50.500000 1.844560
50.500000 1.920141
50.500000 1.996566
50.500000 2.073836
50.500000 2.151951
50.500000 2.230909
50.500000 2.310713
50.500000 2.391360
50.500000 2.472853
50.500000 2.555189
50.500000 2.638371
50.500000 2.722396
50.500000 2.807266
50.500000 2.892981
50.500000 2.979540
50.500000 3.066944
50.500000 3.155192
50.500000 3.244284
50.500000 3.334221
50.500000 3.425003
50.500000 3.516629
50.500000 3.609099
50.500000 3.702414
50.500000 3.796574
50.500000 3.891578
50.500000 3.987426
50.500000 4.084119
50.500000 4.181656
50.500000 4.280038
50.500000 4.379265
50.500000 4.479335
50.500000 4.580251
50.500000 4.682010
50.500000 4.784615
50.500000 4.888063
50.500000 4.992356
50.500000 5.097494
50.500000 5.203476
50.500000 5.310303
50.500000 5.417974
50.500000 5.526490
50.500000 5.635850
50.500000 5.746054
50.500000 5.857103
50.500000 5.968997
50.500000 6.081735
50.500000 6.195317
50.500000 6.309744
50.500000 6.425016
50.500000 6.541131
50.500000 6.658092
50.500000 6.775897
50.500000 6.894546
50.500000 7.014040
50.500000 7.134378
50.500000 7.255561
50.500000 7.377588
50.500000 7.500460
50.500000 7.624176
50.500000 7.748737
50.500000 7.874142
50.500000 8.000392
50.500000 8.127486
50.500000 8.255424
50.500000 8.384207
50.500000 8.513835
50.500000 8.644307
50.500000 8.775624
50.500000 8.907785
50.500000 9.040790
50.500000 9.174640
50.500000 9.309334
50.500000 9.444873
50.500000 9.581257
50.500000 9.718485
50.500000 9.856557
50.500000 9.995474
50.500000 10.135235
50.500000 10.275841
50.500000 10.417291
50.500000 10.559586
50.500000 10.702725
50.500000 10.846709
50.500000 10.991537
50.500000 11.137210
50.500000 11.283727
50.500000 11.431089
50.500000 11.579295
50.500000 11.728345
50.500000 11.878240
50.500000 12.028980
50.500000 12.180564
50.500000 12.332992
50.500000 12.486265
50.500000 12.640383
50.500000 12.795345
50.500000 12.951151
50.500000 13.107802
50.500000 13.265297
50.500000 13.423637
50.500000 13.582822
50.500000 13.742850
50.500000 13.903724
50.500000 14.065442
50.500000 14.228004
50.500000 14.391411
50.500000 14.555662
50.500000 14.720757
50.500000 14.886698
50.500000 15.053482
50.500000 15.221111
50.500000 15.389585
50.500000 15.558903
50.500000 15.729066
50.500000 15.900073
50.500000 16.071924
50.500000 16.244620
50.500000 16.418161
50.500000 16.592546
50.500000 16.767775
50.500000 16.943849
50.500000 17.120768
50.500000 17.298530
50.500000 17.477138
50.500000 17.656590
50.500000 17.836886
50.500000 18.018027
50.500000 18.200012
50.500000 18.382842
50.500000 18.566516
50.500000 18.751035
50.500000 18.936398
50.500000 19.122606
50.500000 19.309658
50.500000 19.497554
50.500000 19.686295
50.500000 19.875881
50.500000 20.066311
50.500000 20.257586
50.500000 20.449705
50.500000 20.642668
50.500000 20.836476
50.500000 21.031129
50.500000 21.226626
50.500000 21.422967
50.500000 21.620153
50.500000 21.818183
50.500000 22.017058
50.500000 22.216778
50.500000 22.417341
50.500000 22.618750
50.500000 22.821002
50.500000 23.024100
50.500000 23.228041
50.500000 23.432828
50.500000 23.638458
50.500000 23.844934
50.500000 24.052253
50.500000 24.260417
50.500000 24.469426
50.500000 24.679279
50.500000 24.889977
50.500000 25.101519
50.500000 25.313905
50.500000 25.527136
50.500000 25.741212
50.500000 25.956132
50.500000 26.171896
50.500000 26.388505
50.500000 26.605958
50.500000 26.824256
50.500000 27.043399
50.500000 27.263386
50.500000 27.484217
50.500000 27.705893
50.500000 27.928413
50.500000 28.151778
50.500000 28.375987
50.500000 28.601041
50.500000 28.826939
50.500000 29.053682
50.500000 29.281269
50.500000 29.509700
50.500000 29.738976
50.500000 29.969097
50.500000 30.200062
50.500000 30.431872
50.500000 30.664526
50.500000 30.898024
50.500000 31.132367
50.500000 31.367555
50.500000 31.603587
50.500000 31.840463
50.500000 32.078184
50.500000 32.316749
50.500000 32.556159
50.500000 32.796414
50.500000 33.037512
50.500000 33.279456
50.500000 33.522244
50.500000 33.765876
50.500000 34.010353
50.500000 34.255674
50.500000 34.501839
50.500000 34.748850
50.500000 34.996704
50.500000 35.245403
50.500000 35.494947
50.500000 35.745335
50.500000 35.996568
50.500000 36.248645
50.500000 36.501566
50.500000 36.755332
50.500000 37.009943
50.500000 37.265398
50.500000 37.521697
50.500000 37.778841
50.500000 38.036830
50.500000 38.295662
50.500000 38.555340
50.500000 38.815862
50.500000 39.077228
50.500000 39.339439
50.500000 39.602494
50.500000 39.866394
50.500000 40.131138
50.500000 40.396727
50.500000 40.663160
50.500000 40.930438
50.500000 41.198560
50.500000 41.467527
50.500000 41.737338
50.500000 42.007993
50.500000 42.279493
50.500000 42.551838
50.500000 42.825027
50.500000 43.099060
50.500000 43.373938
50.500000 43.649661
50.500000 43.926228
50.500000 44.203639
50.500000 44.481895
50.500000 44.760996
50.500000 45.040941
50.500000 45.321730
50.500000 45.603364
50.500000 45.885842
50.500000 46.169165
50.500000 46.453332
50.500000 46.738344
50.500000 47.024200
50.500000 47.310901
50.500000 47.598446
50.500000 47.886836
50.500000 48.176070
50.500000 48.466148
50.500000 48.757071
50.500000 49.048839
50.500000 49.341451
50.500000 49.634908
50.500000 49.929209
50.500000 50.224354
50.500000 50.520344
50.500000 50.817179
50.500000 51.114858
50.500000 51.413381
50.500000 51.712749
50.500000 52.012961
50.500000 52.314018
50.500000 52.615919
50.500000 52.918665
50.500000 53.222256
50.500000 53.526690
50.500000 53.831970
50.500000 54.138093
50.500000 54.445061
50.500000 54.752874
50.500000 55.061531
50.500000 55.371033
50.500000 55.681379
50.500000 55.992570
50.500000 56.304605
50.500000 56.617484
50.500000 56.931208
50.500000 57.245777
50.500000 57.561190
50.500000 57.877447
50.500000 58.194549
50.500000 58.512496
50.500000 58.831287
50.500000 59.150922
50.500000 59.471402
50.500000 59.792726
50.500000 60.114895
50.500000 60.437908
50.500000 60.761766
50.500000 61.086469
50.500000 61.412015
50.500000 61.738407
50.500000 62.065642
50.500000 62.393722
50.500000 62.722647
50.500000 63.052416
50.500000 63.383030
50.500000 63.714488
50.500000 64.046791
50.500000 64.379938
50.500000 64.713929
50.500000 65.048765
50.500000 65.384446
50.500000 65.720971
50.500000 66.058340
50.500000 66.396554
50.500000 66.735612
50.500000 67.075515
50.500000 67.416263
50.500000 67.757855
50.500000 68.100291
50.500000 68.443572
50.500000 68.787697
50.500000 69.132667
50.500000 69.478481
50.500000 69.825140
50.500000 70.172643
50.500000 70.520991
50.500000 70.870183
50.500000 71.220220
50.500000 71.571101
50.500000 71.922826
50.500000 72.275396
50.500000 72.628811
50.500000 72.983070
50.500000 73.338174
50.500000 73.694122
50.500000 74.050914
50.500000 74.408551
50.500000 74.767032
50.500000 75.126358
50.500000 75.486529
50.500000 75.847544
50.500000 76.209403
50.500000 76.572107
50.500000 76.935655
50.500000 77.300048
50.500000 77.665285
50.500000 78.031367
50.500000 78.398293
50.500000 78.766064
50.500000 79.134679
50.500000 79.504139
50.500000 79.874443
50.500000 80.245592
50.500000 80.617585
50.500000 80.990422
50.500000 81.364104
50.500000 81.738631
50.500000 82.114002
50.500000 82.490217
50.500000 82.867277
50.500000 83.245182
50.500000 83.623931
50.500000 84.003524
50.500000 84.383962
50.500000 84.765245
50.500000 85.147371
50.500000 85.530343
50.500000 85.914159
50.500000 86.298819
50.500000 86.684324
50.500000 87.070673
50.500000 87.457867
50.500000 87.845905
50.500000 88.234788
50.500000 88.624515
50.500000 89.015086
50.500000 89.406502
50.500000 89.798763
50.500000 90.191868
50.500000 90.585818
50.500000 90.980612
50.500000 91.376250
50.500000 91.772733
50.500000 92.170061
50.500000 92.568233
50.500000 92.967249
50.500000 93.367110
50.500000 93.767816
50.500000 94.169365
50.500000 94.571760
50.500000 94.974999
50.500000 95.379082
50.500000 95.784010
50.500000 96.189782
50.500000 96.596399
50.500000 97.003860
50.500000 97.412166
50.500000 97.821316
50.500000 98.231311
50.500000 98.642150
50.500000 99.053833
50.500000 99.466362
50.500000 99.879734
50.500000 100.293951
50.500000 100.709013
50.500000 101.124919
50.500000 101.541669
50.500000 101.959264
50.500000 102.377704
50.500000 102.796988
50.500000 103.217116
50.500000 103.638089
50.500000 104.059906
50.500000 104.482568
50.500000 104.906075
50.500000 105.330426
50.500000 105.755621
50.500000 106.181661
50.500000 106.608545
50.500000 107.036274
50.500000 107.464847
50.500000 107.894265
50.500000 108.324527
50.500000 108.755633
50.500000 109.187584
50.500000 109.620380
50.500000 110.054020
50.500000 110.488505
50.500000 110.923834
50.500000 111.360007
50.500000 111.797025
50.500000 112.234888
50.500000 112.673595
50.500000 113.113146
50.500000 113.553542
50.500000 113.994783
50.500000 114.436868
50.500000 114.879797
50.500000 115.323571
50.500000 115.768189
50.500000 116.213652
50.500000 116.659959
50.500000 117.107111
50.500000 117.555107
50.500000 118.003948
50.500000 118.453633
50.500000 118.904163
50.500000 119.355537
50.500000 119.807756
50.500000 120.260819
50.500000 120.714726
50.500000 121.169478
50.500000 121.625075
50.500000 122.081516
50.500000 122.538801
50.500000 122.996931
50.500000 123.455906
50.500000 123.915725
50.500000 124.376388
50.500000 124.837896
50.500000 125.300249
50.500000 125.763445
50.500000 126.227487
50.500000 126.692373
50.500000 127.158103
50.500000 127.624678
50.500000 128.092097
50.500000 128.560361
50.500000 129.029469
50.500000 129.499422
50.500000 129.970219
50.500000 130.441861
50.500000 130.914347
50.500000 131.387677
50.500000 131.861852
50.500000 132.336872
50.500000 132.812736
50.500000 133.289445
50.500000 133.766998
50.500000 134.245395
50.500000 134.724637
50.500000 135.204724
50.500000 135.685654
50.500000 136.167430
50.500000 136.650050
50.500000 137.133514
50.500000 137.617823
50.500000 138.102976
50.500000 138.588974
50.500000 139.075816
50.500000 139.563503
50.500000 140.052034
50.500000 140.541410
50.500000 141.031630
50.500000 141.522695
50.500000 142.014604
50.500000 142.507358
50.500000 143.000956
50.500000 143.495399
50.500000 143.990686
50.500000 144.486817
50.500000 144.983793
50.500000 145.481614
50.500000 145.980279
50.500000 146.479788
50.500000 146.980142
50.500000 147.481341
50.500000 147.983384
50.500000 148.486271
50.500000 148.990003
50.500000 149.494579
50.500000 150.000000
</POINTS>
</NEKTAR>

