<?xml version="1.0" encoding="utf-8" ?>
<NEKTAR>
<POINTS DIM="2" FIELDS="">
91.500000 0.000000
91.500000 0.000418
91.500000 0.001672
91.500000 0.003763
91.500000 0.006689
91.500000 0.010451
91.500000 0.015050
91.500000 0.020485
91.500000 0.026756
91.500000 0.033863
91.500000 0.041806
91.500000 0.050585
91.500000 0.060201
91.500000 0.070652
91.500000 0.081940
91.500000 0.094063
91.500000 0.107023
91.500000 0.120819
91.500000 0.135451
91.500000 0.150919
91.500000 0.167224
91.500000 0.184364
91.500000 0.202341
91.500000 0.221153
91.500000 0.240802
91.500000 0.261287
91.500000 0.282608
91.500000 0.304765
91.500000 0.327758
91.500000 0.351588
91.500000 0.376253
91.500000 0.401755
91.500000 0.428092
91.500000 0.455266
91.500000 0.483276
91.500000 0.512122
91.500000 0.541805
91.500000 0.572323
91.500000 0.603677
91.500000 0.635868
91.500000 0.668894
91.500000 0.702757
91.500000 0.737456
91.500000 0.772991
91.500000 0.809362
91.500000 0.846570
91.500000 0.884613
91.500000 0.923492
91.500000 0.963208
91.500000 1.003760
91.500000 1.045148
91.500000 1.087372
91.500000 1.130432
91.500000 1.174328
91.500000 1.219060
91.500000 1.264629
91.500000 1.311033
91.500000 1.358274
91.500000 1.406351
91.500000 1.455264
91.500000 1.505013
91.500000 1.555598
91.500000 1.607019
91.500000 1.659276
91.500000 1.712370
91.500000 1.766299
91.500000 1.821065
91.500000 1.876667
91.500000 1.933105
91.500000 1.990379
91.500000 2.048489
91.500000 2.107436
91.500000 2.167218
91.500000 2.227837
91.500000 2.289291
91.500000 2.351582
91.500000 2.414709
91.500000 2.478672
91.500000 2.543471
91.500000 2.609106
91.500000 2.675578
91.500000 2.742885
91.500000 2.811029
91.500000 2.880009
91.500000 2.949825
91.500000 3.020477
91.500000 3.091965
91.500000 3.164289
91.500000 3.237449
91.500000 3.311446
91.500000 3.386278
91.500000 3.461947
91.500000 3.538452
91.500000 3.615793
91.500000 3.693970
91.500000 3.772983
91.500000 3.852832
91.500000 3.933517
91.500000 4.015039
91.500000 4.097397
91.500000 4.180590
91.500000 4.264620
91.500000 4.349486
91.500000 4.435188
91.500000 4.521727
91.500000 4.609101
91.500000 4.697311
91.500000 4.786358
91.500000 4.876241
91.500000 4.966959
91.500000 5.058514
91.500000 5.150905
91.500000 5.244133
91.500000 5.338196
91.500000 5.433095
91.500000 5.528831
91.500000 5.625402
91.500000 5.722810
91.500000 5.821054
91.500000 5.920134
91.500000 6.020050
91.500000 6.120802
91.500000 6.222391
91.500000 6.324815
91.500000 6.428076
91.500000 6.532172
91.500000 6.637105
91.500000 6.742874
91.500000 6.849479
91.500000 6.956920
91.500000 7.065198
91.500000 7.174311
91.500000 7.284261
91.500000 7.395046
91.500000 7.506668
91.500000 7.619126
91.500000 7.732420
91.500000 7.846550
91.500000 7.961516
91.500000 8.077319
91.500000 8.193957
91.500000 8.311432
91.500000 8.429742
91.500000 8.548889
91.500000 8.668872
91.500000 8.789691
91.500000 8.911346
91.500000 9.033838
91.500000 9.157165
91.500000 9.281329
91.500000 9.406328
91.500000 9.532164
91.500000 9.658836
91.500000 9.786344
91.500000 9.914688
91.500000 10.043868
91.500000 10.173885
91.500000 10.304737
91.500000 10.436426
91.500000 10.568950
91.500000 10.702311
91.500000 10.836508
91.500000 10.971541
91.500000 11.107411
91.500000 11.244116
91.500000 11.381657
91.500000 11.520035
91.500000 11.659248
91.500000 11.799298
91.500000 11.940184
91.500000 12.081906
91.500000 12.224464
91.500000 12.367859
91.500000 12.512089
91.500000 12.657155
91.500000 12.803058
91.500000 12.949797
91.500000 13.097372
91.500000 13.245782
91.500000 13.395030
91.500000 13.545113
91.500000 13.696032
91.500000 13.847787
91.500000 14.000379
91.500000 14.153807
91.500000 14.308070
91.500000 14.463170
91.500000 14.619106
91.500000 14.775879
91.500000 14.933487
91.500000 15.091931
91.500000 15.251212
91.500000 15.411328
91.500000 15.572281
91.500000 15.734070
91.500000 15.896695
91.500000 16.060156
91.500000 16.224453
91.500000 16.389586
91.500000 16.555556
91.500000 16.722361
91.500000 16.890003
91.500000 17.058481
91.500000 17.227795
91.500000 17.397945
91.500000 17.568931
91.500000 17.740753
91.500000 17.913412
91.500000 18.086906
91.500000 18.261237
91.500000 18.436403
91.500000 18.612406
91.500000 18.789245
91.500000 18.966920
91.500000 19.145432
91.500000 19.324779
91.500000 19.504962
91.500000 19.685982
91.500000 19.867838
91.500000 20.050529
91.500000 20.234057
91.500000 20.418421
91.500000 20.603622
91.500000 20.789658
91.500000 20.976530
91.500000 21.164239
91.500000 21.352783
91.500000 21.542164
91.500000 21.732381
91.500000 21.923434
91.500000 22.115323
91.500000 22.308048
91.500000 22.501610
91.500000 22.696007
91.500000 22.891241
91.500000 23.087310
91.500000 23.284216
91.500000 23.481958
91.500000 23.680536
91.500000 23.879950
91.500000 24.080200
91.500000 24.281287
91.500000 24.483209
91.500000 24.685968
91.500000 24.889563
91.500000 25.093994
91.500000 25.299261
91.500000 25.505364
91.500000 25.712303
91.500000 25.920078
91.500000 26.128690
91.500000 26.338137
91.500000 26.548421
91.500000 26.759541
91.500000 26.971497
91.500000 27.184289
91.500000 27.397917
91.500000 27.612381
91.500000 27.827682
91.500000 28.043818
91.500000 28.260791
91.500000 28.478600
91.500000 28.697244
91.500000 28.916725
91.500000 29.137043
91.500000 29.358196
91.500000 29.580185
91.500000 29.803011
91.500000 30.026672
91.500000 30.251170
91.500000 30.476504
91.500000 30.702674
91.500000 30.929680
91.500000 31.157522
91.500000 31.386200
91.500000 31.615715
91.500000 31.846065
91.500000 32.077252
91.500000 32.309275
91.500000 32.542133
91.500000 32.775828
91.500000 33.010360
91.500000 33.245727
91.500000 33.481930
91.500000 33.718970
91.500000 33.956845
91.500000 34.195557
91.500000 34.435105
91.500000 34.675489
91.500000 34.916709
91.500000 35.158765
91.500000 35.401657
91.500000 35.645386
91.500000 35.889950
91.500000 36.135351
91.500000 36.381588
91.500000 36.628660
91.500000 36.876569
91.500000 37.125315
91.500000 37.374896
91.500000 37.625313
91.500000 37.876567
91.500000 38.128656
91.500000 38.381582
91.500000 38.635344
91.500000 38.889942
91.500000 39.145376
91.500000 39.401646
91.500000 39.658752
91.500000 39.916695
91.500000 40.175473
91.500000 40.435088
91.500000 40.695539
91.500000 40.956826
91.500000 41.218949
91.500000 41.481908
91.500000 41.745703
91.500000 42.010334
91.500000 42.275802
91.500000 42.542106
91.500000 42.809245
91.500000 43.077221
91.500000 43.346033
91.500000 43.615681
91.500000 43.886165
91.500000 44.157486
91.500000 44.429642
91.500000 44.702635
91.500000 44.976463
91.500000 45.251128
91.500000 45.526629
91.500000 45.802966
91.500000 46.080139
91.500000 46.358148
91.500000 46.636994
91.500000 46.916675
91.500000 47.197193
91.500000 47.478547
91.500000 47.760736
91.500000 48.043762
91.500000 48.327625
91.500000 48.612323
91.500000 48.897857
91.500000 49.184227
91.500000 49.471434
91.500000 49.759477
91.500000 50.048355
91.500000 50.338070
91.500000 50.628621
91.500000 50.920009
91.500000 51.212232
91.500000 51.505291
91.500000 51.799187
91.500000 52.093918
91.500000 52.389486
91.500000 52.685890
91.500000 52.983130
91.500000 53.281206
91.500000 53.580118
91.500000 53.879867
91.500000 54.180451
91.500000 54.481872
91.500000 54.784128
91.500000 55.087221
91.500000 55.391150
91.500000 55.695915
91.500000 56.001516
91.500000 56.307953
91.500000 56.615227
91.500000 56.923336
91.500000 57.232282
91.500000 57.542064
91.500000 57.852682
91.500000 58.164136
91.500000 58.476426
91.500000 58.789552
91.500000 59.103514
91.500000 59.418313
91.500000 59.733947
91.500000 60.050418
91.500000 60.367725
91.500000 60.685868
91.500000 61.004847
91.500000 61.324662
91.500000 61.645313
91.500000 61.966801
91.500000 62.289124
91.500000 62.612284
91.500000 62.936279
91.500000 63.261111
91.500000 63.586779
91.500000 63.913283
91.500000 64.240624
91.500000 64.568800
91.500000 64.897812
91.500000 65.227661
91.500000 65.558346
91.500000 65.889867
91.500000 66.222223
91.500000 66.555417
91.500000 66.889446
91.500000 67.224311
91.500000 67.560012
91.500000 67.896550
91.500000 68.233924
91.500000 68.572133
91.500000 68.911179
91.500000 69.251061
91.500000 69.591779
91.500000 69.933334
91.500000 70.275724
91.500000 70.618950
91.500000 70.963013
91.500000 71.307912
91.500000 71.653646
91.500000 72.000217
91.500000 72.347624
91.500000 72.695868
91.500000 73.044947
91.500000 73.394862
91.500000 73.745614
91.500000 74.097202
91.500000 74.449625
91.500000 74.802885
91.500000 75.156981
91.500000 75.511913
91.500000 75.867682
91.500000 76.224286
91.500000 76.581726
91.500000 76.940003
91.500000 77.299116
91.500000 77.659064
91.500000 78.019849
91.500000 78.381471
91.500000 78.743928
91.500000 79.107221
91.500000 79.471350
91.500000 79.836316
91.500000 80.202118
91.500000 80.568755
91.500000 80.936229
91.500000 81.304539
91.500000 81.673685
91.500000 82.043668
91.500000 82.414486
91.500000 82.786141
91.500000 83.158631
91.500000 83.531958
91.500000 83.906121
91.500000 84.281120
91.500000 84.656955
91.500000 85.033626
91.500000 85.411133
91.500000 85.789477
91.500000 86.168656
91.500000 86.548672
91.500000 86.929524
91.500000 87.311212
91.500000 87.693736
91.500000 88.077096
91.500000 88.461292
91.500000 88.846324
91.500000 89.232193
91.500000 89.618897
91.500000 90.006438
91.500000 90.394815
91.500000 90.784028
91.500000 91.174077
91.500000 91.564962
91.500000 91.956684
91.500000 92.349241
91.500000 92.742634
91.500000 93.136864
91.500000 93.531930
91.500000 93.927832
91.500000 94.324570
91.500000 94.722144
91.500000 95.120554
91.500000 95.519801
91.500000 95.919883
91.500000 96.320802
91.500000 96.722557
91.500000 97.125147
91.500000 97.528574
91.500000 97.932837
91.500000 98.337937
91.500000 98.743872
91.500000 99.150643
91.500000 99.558251
91.500000 99.966695
91.500000 100.375974
91.500000 100.786090
91.500000 101.197042
91.500000 101.608831
91.500000 102.021455
91.500000 102.434915
91.500000 102.849212
91.500000 103.264344
91.500000 103.680313
91.500000 104.097118
91.500000 104.514759
91.500000 104.933236
91.500000 105.352549
91.500000 105.772699
91.500000 106.193684
91.500000 106.615506
91.500000 107.038163
91.500000 107.461657
91.500000 107.885987
91.500000 108.311153
91.500000 108.737155
91.500000 109.163993
91.500000 109.591668
91.500000 110.020178
91.500000 110.449525
91.500000 110.879708
91.500000 111.310727
91.500000 111.742582
91.500000 112.175273
91.500000 112.608800
91.500000 113.043163
91.500000 113.478363
91.500000 113.914398
91.500000 114.351270
91.500000 114.788978
91.500000 115.227522
91.500000 115.666902
91.500000 116.107118
91.500000 116.548170
91.500000 116.990059
91.500000 117.432783
91.500000 117.876344
91.500000 118.320740
91.500000 118.765973
91.500000 119.212042
91.500000 119.658947
91.500000 120.106689
91.500000 120.555266
91.500000 121.004679
91.500000 121.454929
91.500000 121.906015
91.500000 122.357937
91.500000 122.810695
91.500000 123.264289
91.500000 123.718719
91.500000 124.173985
91.500000 124.630087
91.500000 125.087026
91.500000 125.544801
91.500000 126.003411
91.500000 126.462858
91.500000 126.923141
91.500000 127.384260
91.500000 127.846216
91.500000 128.309007
91.500000 128.772634
91.500000 129.237098
91.500000 129.702398
91.500000 130.168534
91.500000 130.635505
91.500000 131.103314
91.500000 131.571958
91.500000 132.041438
91.500000 132.511754
91.500000 132.982907
91.500000 133.454896
91.500000 133.927720
91.500000 134.401381
91.500000 134.875878
91.500000 135.351211
91.500000 135.827381
91.500000 136.304386
91.500000 136.782227
91.500000 137.260905
91.500000 137.740419
91.500000 138.220769
91.500000 138.701955
91.500000 139.183977
91.500000 139.666835
91.500000 140.150529
91.500000 140.635060
91.500000 141.120426
91.500000 141.606629
91.500000 142.093668
91.500000 142.581542
91.500000 143.070253
91.500000 143.559801
91.500000 144.050184
91.500000 144.541403
91.500000 145.033459
91.500000 145.526350
91.500000 146.020078
91.500000 146.514642
91.500000 147.010042
91.500000 147.506278
91.500000 148.003350
91.500000 148.501258
91.500000 149.000003
91.500000 149.499583
91.500000 150.000000
</POINTS>
</NEKTAR>

