<?xml version="1.0" encoding="utf-8" ?>
<NEKTAR>
<POINTS DIM="2" FIELDS="">
14.500000 -2.000000
14.500000 -1.999576
14.500000 -1.998305
14.500000 -1.996187
14.500000 -1.993222
14.500000 -1.989409
14.500000 -1.984749
14.500000 -1.979242
14.500000 -1.972887
14.500000 -1.965686
14.500000 -1.957637
14.500000 -1.948740
14.500000 -1.938997
14.500000 -1.928406
14.500000 -1.916968
14.500000 -1.904683
14.500000 -1.891550
14.500000 -1.877570
14.500000 -1.862743
14.500000 -1.847068
14.500000 -1.830547
14.500000 -1.813178
14.500000 -1.794962
14.500000 -1.775898
14.500000 -1.755987
14.500000 -1.735229
14.500000 -1.713624
14.500000 -1.691171
14.500000 -1.667872
14.500000 -1.643725
14.500000 -1.618730
14.500000 -1.592889
14.500000 -1.566200
14.500000 -1.538663
14.500000 -1.510280
14.500000 -1.481049
14.500000 -1.450971
14.500000 -1.420046
14.500000 -1.388274
14.500000 -1.355654
14.500000 -1.322187
14.500000 -1.287873
14.500000 -1.252711
14.500000 -1.216702
14.500000 -1.179846
14.500000 -1.142143
14.500000 -1.103592
14.500000 -1.064194
14.500000 -1.023949
14.500000 -0.982857
14.500000 -0.940917
14.500000 -0.898130
14.500000 -0.854496
14.500000 -0.810014
14.500000 -0.764686
14.500000 -0.718510
14.500000 -0.671486
14.500000 -0.623616
14.500000 -0.574898
14.500000 -0.525333
14.500000 -0.474921
14.500000 -0.423661
14.500000 -0.371554
14.500000 -0.318600
14.500000 -0.264799
14.500000 -0.210150
14.500000 -0.154654
14.500000 -0.098311
14.500000 -0.041120
14.500000 0.016917
14.500000 0.075802
14.500000 0.135535
14.500000 0.196114
14.500000 0.257541
14.500000 0.319815
14.500000 0.382937
14.500000 0.446905
14.500000 0.511721
14.500000 0.577384
14.500000 0.643895
14.500000 0.711252
14.500000 0.779457
14.500000 0.848509
14.500000 0.918409
14.500000 0.989156
14.500000 1.060750
14.500000 1.133191
14.500000 1.206479
14.500000 1.280615
14.500000 1.355598
14.500000 1.431429
14.500000 1.508106
14.500000 1.585631
14.500000 1.664003
14.500000 1.743223
14.500000 1.823289
14.500000 1.904203
14.500000 1.985964
14.500000 2.068573
14.500000 2.152029
14.500000 2.236332
14.500000 2.321482
14.500000 2.407479
14.500000 2.494324
14.500000 2.582016
14.500000 2.670556
14.500000 2.759942
14.500000 2.850176
14.500000 2.941257
14.500000 3.033186
14.500000 3.125961
14.500000 3.219584
14.500000 3.314054
14.500000 3.409372
14.500000 3.505536
14.500000 3.602548
14.500000 3.700408
14.500000 3.799114
14.500000 3.898668
14.500000 3.999069
14.500000 4.100317
14.500000 4.202413
14.500000 4.305356
14.500000 4.409146
14.500000 4.513783
14.500000 4.619268
14.500000 4.725600
14.500000 4.832779
14.500000 4.940806
14.500000 5.049679
14.500000 5.159400
14.500000 5.269969
14.500000 5.381384
14.500000 5.493647
14.500000 5.606757
14.500000 5.720714
14.500000 5.835519
14.500000 5.951171
14.500000 6.067670
14.500000 6.185016
14.500000 6.303210
14.500000 6.422251
14.500000 6.542139
14.500000 6.662874
14.500000 6.784457
14.500000 6.906887
14.500000 7.030164
14.500000 7.154289
14.500000 7.279261
14.500000 7.405080
14.500000 7.531746
14.500000 7.659260
14.500000 7.787620
14.500000 7.916829
14.500000 8.046884
14.500000 8.177787
14.500000 8.309536
14.500000 8.442134
14.500000 8.575578
14.500000 8.709870
14.500000 8.845009
14.500000 8.980995
14.500000 9.117829
14.500000 9.255509
14.500000 9.394037
14.500000 9.533413
14.500000 9.673635
14.500000 9.814705
14.500000 9.956622
14.500000 10.099387
14.500000 10.242998
14.500000 10.387457
14.500000 10.532763
14.500000 10.678917
14.500000 10.825917
14.500000 10.973765
14.500000 11.122461
14.500000 11.272003
14.500000 11.422393
14.500000 11.573630
14.500000 11.725714
14.500000 11.878646
14.500000 12.032425
14.500000 12.187051
14.500000 12.342524
14.500000 12.498845
14.500000 12.656013
14.500000 12.814028
14.500000 12.972890
14.500000 13.132600
14.500000 13.293157
14.500000 13.454561
14.500000 13.616813
14.500000 13.779911
14.500000 13.943857
14.500000 14.108651
14.500000 14.274291
14.500000 14.440779
14.500000 14.608114
14.500000 14.776297
14.500000 14.945326
14.500000 15.115203
14.500000 15.285927
14.500000 15.457499
14.500000 15.629917
14.500000 15.803183
14.500000 15.977297
14.500000 16.152257
14.500000 16.328065
14.500000 16.504720
14.500000 16.682222
14.500000 16.860572
14.500000 17.039769
14.500000 17.219813
14.500000 17.400704
14.500000 17.582443
14.500000 17.765029
14.500000 17.948462
14.500000 18.132742
14.500000 18.317870
14.500000 18.503845
14.500000 18.690667
14.500000 18.878336
14.500000 19.066853
14.500000 19.256217
14.500000 19.446429
14.500000 19.637487
14.500000 19.829393
14.500000 20.022146
14.500000 20.215746
14.500000 20.410194
14.500000 20.605489
14.500000 20.801631
14.500000 20.998620
14.500000 21.196457
14.500000 21.395141
14.500000 21.594672
14.500000 21.795051
14.500000 21.996276
14.500000 22.198350
14.500000 22.401270
14.500000 22.605037
14.500000 22.809652
14.500000 23.015114
14.500000 23.221424
14.500000 23.428580
14.500000 23.636584
14.500000 23.845435
14.500000 24.055134
14.500000 24.265679
14.500000 24.477072
14.500000 24.689312
14.500000 24.902400
14.500000 25.116335
14.500000 25.331117
14.500000 25.546746
14.500000 25.763223
14.500000 25.980546
14.500000 26.198717
14.500000 26.417736
14.500000 26.637601
14.500000 26.858314
14.500000 27.079874
14.500000 27.302282
14.500000 27.525536
14.500000 27.749638
14.500000 27.974588
14.500000 28.200384
14.500000 28.427028
14.500000 28.654519
14.500000 28.882857
14.500000 29.112043
14.500000 29.342075
14.500000 29.572955
14.500000 29.804683
14.500000 30.037257
14.500000 30.270679
14.500000 30.504948
14.500000 30.740065
14.500000 30.976028
14.500000 31.212839
14.500000 31.450498
14.500000 31.689003
14.500000 31.928356
14.500000 32.168556
14.500000 32.409603
14.500000 32.651498
14.500000 32.894239
14.500000 33.137828
14.500000 33.382265
14.500000 33.627548
14.500000 33.873679
14.500000 34.120657
14.500000 34.368483
14.500000 34.617155
14.500000 34.866675
14.500000 35.117043
14.500000 35.368257
14.500000 35.620319
14.500000 35.873228
14.500000 36.126984
14.500000 36.381588
14.500000 36.637038
14.500000 36.893336
14.500000 37.150482
14.500000 37.408474
14.500000 37.667314
14.500000 37.927001
14.500000 38.187536
14.500000 38.448917
14.500000 38.711146
14.500000 38.974222
14.500000 39.238146
14.500000 39.502917
14.500000 39.768535
14.500000 40.035000
14.500000 40.302312
14.500000 40.570472
14.500000 40.839479
14.500000 41.109334
14.500000 41.380035
14.500000 41.651584
14.500000 41.923980
14.500000 42.197224
14.500000 42.471314
14.500000 42.746252
14.500000 43.022037
14.500000 43.298670
14.500000 43.576149
14.500000 43.854476
14.500000 44.133651
14.500000 44.413672
14.500000 44.694541
14.500000 44.976257
14.500000 45.258820
14.500000 45.542231
14.500000 45.826489
14.500000 46.111594
14.500000 46.397546
14.500000 46.684346
14.500000 46.971993
14.500000 47.260487
14.500000 47.549828
14.500000 47.840017
14.500000 48.131053
14.500000 48.422936
14.500000 48.715667
14.500000 49.009245
14.500000 49.303670
14.500000 49.598942
14.500000 49.895062
14.500000 50.192028
14.500000 50.489843
14.500000 50.788504
14.500000 51.088013
14.500000 51.388368
14.500000 51.689572
14.500000 51.991622
14.500000 52.294520
14.500000 52.598265
14.500000 52.902857
14.500000 53.208297
14.500000 53.514583
14.500000 53.821717
14.500000 54.129699
14.500000 54.438527
14.500000 54.748203
14.500000 55.058726
14.500000 55.370097
14.500000 55.682314
14.500000 55.995379
14.500000 56.309291
14.500000 56.624051
14.500000 56.939657
14.500000 57.256111
14.500000 57.573413
14.500000 57.891561
14.500000 58.210557
14.500000 58.530400
14.500000 58.851090
14.500000 59.172628
14.500000 59.495013
14.500000 59.818245
14.500000 60.142324
14.500000 60.467251
14.500000 60.793025
14.500000 61.119646
14.500000 61.447114
14.500000 61.775430
14.500000 62.104593
14.500000 62.434603
14.500000 62.765461
14.500000 63.097165
14.500000 63.429717
14.500000 63.763117
14.500000 64.097363
14.500000 64.432457
14.500000 64.768398
14.500000 65.105186
14.500000 65.442822
14.500000 65.781305
14.500000 66.120635
14.500000 66.460813
14.500000 66.801837
14.500000 67.143709
14.500000 67.486428
14.500000 67.829995
14.500000 68.174409
14.500000 68.519670
14.500000 68.865778
14.500000 69.212734
14.500000 69.560536
14.500000 69.909186
14.500000 70.258684
14.500000 70.609028
14.500000 70.960220
14.500000 71.312259
14.500000 71.665146
14.500000 72.018880
14.500000 72.373460
14.500000 72.728889
14.500000 73.085164
14.500000 73.442287
14.500000 73.800257
14.500000 74.159074
14.500000 74.518739
14.500000 74.879251
14.500000 75.240610
14.500000 75.602816
14.500000 75.965870
14.500000 76.329771
14.500000 76.694519
14.500000 77.060114
14.500000 77.426557
14.500000 77.793847
14.500000 78.161984
14.500000 78.530968
14.500000 78.900800
14.500000 79.271479
14.500000 79.643005
14.500000 80.015379
14.500000 80.388600
14.500000 80.762668
14.500000 81.137583
14.500000 81.513346
14.500000 81.889956
14.500000 82.267413
14.500000 82.645717
14.500000 83.024869
14.500000 83.404868
14.500000 83.785714
14.500000 84.167408
14.500000 84.549948
14.500000 84.933336
14.500000 85.317572
14.500000 85.702654
14.500000 86.088584
14.500000 86.475361
14.500000 86.862985
14.500000 87.251457
14.500000 87.640776
14.500000 88.030942
14.500000 88.421955
14.500000 88.813816
14.500000 89.206524
14.500000 89.600079
14.500000 89.994482
14.500000 90.389731
14.500000 90.785828
14.500000 91.182773
14.500000 91.580564
14.500000 91.979203
14.500000 92.378689
14.500000 92.779022
14.500000 93.180203
14.500000 93.582231
14.500000 93.985106
14.500000 94.388828
14.500000 94.793398
14.500000 95.198815
14.500000 95.605079
14.500000 96.012191
14.500000 96.420149
14.500000 96.828955
14.500000 97.238609
14.500000 97.649109
14.500000 98.060457
14.500000 98.472652
14.500000 98.885694
14.500000 99.299584
14.500000 99.714321
14.500000 100.129905
14.500000 100.546336
14.500000 100.963615
14.500000 101.381741
14.500000 101.800714
14.500000 102.220535
14.500000 102.641202
14.500000 103.062717
14.500000 103.485079
14.500000 103.908289
14.500000 104.332346
14.500000 104.757250
14.500000 105.183001
14.500000 105.609600
14.500000 106.037046
14.500000 106.465339
14.500000 106.894479
14.500000 107.324467
14.500000 107.755302
14.500000 108.186984
14.500000 108.619513
14.500000 109.052890
14.500000 109.487114
14.500000 109.922185
14.500000 110.358104
14.500000 110.794870
14.500000 111.232483
14.500000 111.670943
14.500000 112.110251
14.500000 112.550405
14.500000 112.991407
14.500000 113.433257
14.500000 113.875954
14.500000 114.319497
14.500000 114.763889
14.500000 115.209127
14.500000 115.655213
14.500000 116.102146
14.500000 116.549926
14.500000 116.998554
14.500000 117.448028
14.500000 117.898350
14.500000 118.349520
14.500000 118.801536
14.500000 119.254400
14.500000 119.708111
14.500000 120.162670
14.500000 120.618075
14.500000 121.074328
14.500000 121.531428
14.500000 121.989376
14.500000 122.448170
14.500000 122.907812
14.500000 123.368302
14.500000 123.829638
14.500000 124.291822
14.500000 124.754853
14.500000 125.218731
14.500000 125.683457
14.500000 126.149030
14.500000 126.615450
14.500000 127.082717
14.500000 127.550832
14.500000 128.019794
14.500000 128.489603
14.500000 128.960259
14.500000 129.431763
14.500000 129.904114
14.500000 130.377312
14.500000 130.851358
14.500000 131.326250
14.500000 131.801991
14.500000 132.278578
14.500000 132.756012
14.500000 133.234294
14.500000 133.713423
14.500000 134.193400
14.500000 134.674223
14.500000 135.155894
14.500000 135.638412
14.500000 136.121778
14.500000 136.605991
14.500000 137.091050
14.500000 137.576958
14.500000 138.063712
14.500000 138.551314
14.500000 139.039763
14.500000 139.529059
14.500000 140.019203
14.500000 140.510194
14.500000 141.002032
14.500000 141.494717
14.500000 141.988250
14.500000 142.482630
14.500000 142.977857
14.500000 143.473931
14.500000 143.970853
14.500000 144.468622
14.500000 144.967238
14.500000 145.466702
14.500000 145.967012
14.500000 146.468170
14.500000 146.970176
14.500000 147.473028
14.500000 147.976728
14.500000 148.481275
14.500000 148.986669
14.500000 149.492911
14.500000 150.000000
</POINTS>
</NEKTAR>

