<?xml version="1.0" encoding="utf-8" ?>
<NEKTAR>
<POINTS DIM="2" FIELDS="">
183.500000 -1.000000
183.500000 -0.999579
183.500000 -0.998317
183.500000 -0.996212
183.500000 -0.993266
183.500000 -0.989479
183.500000 -0.984850
183.500000 -0.979379
183.500000 -0.973066
183.500000 -0.965911
183.500000 -0.957915
183.500000 -0.949078
183.500000 -0.939398
183.500000 -0.928877
183.500000 -0.917514
183.500000 -0.905310
183.500000 -0.892263
183.500000 -0.878375
183.500000 -0.863646
183.500000 -0.848075
183.500000 -0.831662
183.500000 -0.814407
183.500000 -0.796310
183.500000 -0.777372
183.500000 -0.757593
183.500000 -0.736971
183.500000 -0.715508
183.500000 -0.693203
183.500000 -0.670057
183.500000 -0.646068
183.500000 -0.621239
183.500000 -0.595567
183.500000 -0.569054
183.500000 -0.541699
183.500000 -0.513502
183.500000 -0.484464
183.500000 -0.454583
183.500000 -0.423862
183.500000 -0.392298
183.500000 -0.359893
183.500000 -0.326646
183.500000 -0.292558
183.500000 -0.257627
183.500000 -0.221856
183.500000 -0.185242
183.500000 -0.147787
183.500000 -0.109490
183.500000 -0.070351
183.500000 -0.030371
183.500000 0.010451
183.500000 0.052115
183.500000 0.094621
183.500000 0.137968
183.500000 0.182157
183.500000 0.227187
183.500000 0.273059
183.500000 0.319773
183.500000 0.367329
183.500000 0.415726
183.500000 0.464965
183.500000 0.515046
183.500000 0.565968
183.500000 0.617732
183.500000 0.670338
183.500000 0.723786
183.500000 0.778075
183.500000 0.833206
183.500000 0.889178
183.500000 0.945992
183.500000 1.003648
183.500000 1.062146
183.500000 1.121485
183.500000 1.181666
183.500000 1.242689
183.500000 1.304553
183.500000 1.367259
183.500000 1.430807
183.500000 1.495197
183.500000 1.560428
183.500000 1.626500
183.500000 1.693415
183.500000 1.761171
183.500000 1.829769
183.500000 1.899209
183.500000 1.969490
183.500000 2.040613
183.500000 2.112578
183.500000 2.185384
183.500000 2.259032
183.500000 2.333522
183.500000 2.408853
183.500000 2.485027
183.500000 2.562041
183.500000 2.639898
183.500000 2.718596
183.500000 2.798136
183.500000 2.878518
183.500000 2.959741
183.500000 3.041806
183.500000 3.124713
183.500000 3.208461
183.500000 3.293051
183.500000 3.378483
183.500000 3.464756
183.500000 3.551871
183.500000 3.639828
183.500000 3.728627
183.500000 3.818267
183.500000 3.908749
183.500000 4.000072
183.500000 4.092238
183.500000 4.185245
183.500000 4.279093
183.500000 4.373784
183.500000 4.469316
183.500000 4.565690
183.500000 4.662905
183.500000 4.760962
183.500000 4.859861
183.500000 4.959602
183.500000 5.060184
183.500000 5.161608
183.500000 5.263873
183.500000 5.366981
183.500000 5.470930
183.500000 5.575720
183.500000 5.681353
183.500000 5.787827
183.500000 5.895142
183.500000 6.003300
183.500000 6.112299
183.500000 6.222140
183.500000 6.332822
183.500000 6.444347
183.500000 6.556712
183.500000 6.669920
183.500000 6.783969
183.500000 6.898860
183.500000 7.014593
183.500000 7.131167
183.500000 7.248583
183.500000 7.366841
183.500000 7.485941
183.500000 7.605882
183.500000 7.726665
183.500000 7.848289
183.500000 7.970755
183.500000 8.094063
183.500000 8.218213
183.500000 8.343204
183.500000 8.469037
183.500000 8.595712
183.500000 8.723228
183.500000 8.851586
183.500000 8.980786
183.500000 9.110827
183.500000 9.241711
183.500000 9.373435
183.500000 9.506002
183.500000 9.639410
183.500000 9.773660
183.500000 9.908752
183.500000 10.044685
183.500000 10.181460
183.500000 10.319077
183.500000 10.457535
183.500000 10.596835
183.500000 10.736977
183.500000 10.877960
183.500000 11.019785
183.500000 11.162452
183.500000 11.305961
183.500000 11.450311
183.500000 11.595503
183.500000 11.741536
183.500000 11.888412
183.500000 12.036129
183.500000 12.184687
183.500000 12.334088
183.500000 12.484330
183.500000 12.635414
183.500000 12.787339
183.500000 12.940106
183.500000 13.093715
183.500000 13.248165
183.500000 13.403458
183.500000 13.559592
183.500000 13.716567
183.500000 13.874384
183.500000 14.033043
183.500000 14.192544
183.500000 14.352886
183.500000 14.514070
183.500000 14.676096
183.500000 14.838964
183.500000 15.002673
183.500000 15.167224
183.500000 15.332616
183.500000 15.498850
183.500000 15.665926
183.500000 15.833844
183.500000 16.002603
183.500000 16.172204
183.500000 16.342647
183.500000 16.513931
183.500000 16.686057
183.500000 16.859025
183.500000 17.032834
183.500000 17.207485
183.500000 17.382978
183.500000 17.559313
183.500000 17.736489
183.500000 17.914507
183.500000 18.093367
183.500000 18.273068
183.500000 18.453611
183.500000 18.634995
183.500000 18.817222
183.500000 19.000290
183.500000 19.184200
183.500000 19.368951
183.500000 19.554544
183.500000 19.740979
183.500000 19.928255
183.500000 20.116374
183.500000 20.305334
183.500000 20.495135
183.500000 20.685778
183.500000 20.877263
183.500000 21.069590
183.500000 21.262758
183.500000 21.456769
183.500000 21.651620
183.500000 21.847314
183.500000 22.043849
183.500000 22.241226
183.500000 22.439444
183.500000 22.638504
183.500000 22.838406
183.500000 23.039150
183.500000 23.240735
183.500000 23.443162
183.500000 23.646431
183.500000 23.850541
183.500000 24.055493
183.500000 24.261287
183.500000 24.467922
183.500000 24.675399
183.500000 24.883718
183.500000 25.092879
183.500000 25.302881
183.500000 25.513725
183.500000 25.725410
183.500000 25.937938
183.500000 26.151307
183.500000 26.365517
183.500000 26.580570
183.500000 26.796464
183.500000 27.013200
183.500000 27.230777
183.500000 27.449196
183.500000 27.668457
183.500000 27.888559
183.500000 28.109504
183.500000 28.331289
183.500000 28.553917
183.500000 28.777386
183.500000 29.001697
183.500000 29.226850
183.500000 29.452844
183.500000 29.679680
183.500000 29.907358
183.500000 30.135878
183.500000 30.365239
183.500000 30.595441
183.500000 30.826486
183.500000 31.058372
183.500000 31.291100
183.500000 31.524670
183.500000 31.759081
183.500000 31.994334
183.500000 32.230429
183.500000 32.467365
183.500000 32.705143
183.500000 32.943763
183.500000 33.183224
183.500000 33.423527
183.500000 33.664672
183.500000 33.906659
183.500000 34.149487
183.500000 34.393157
183.500000 34.637668
183.500000 34.883022
183.500000 35.129216
183.500000 35.376253
183.500000 35.624131
183.500000 35.872852
183.500000 36.122413
183.500000 36.372817
183.500000 36.624062
183.500000 36.876149
183.500000 37.129077
183.500000 37.382847
183.500000 37.637459
183.500000 37.892913
183.500000 38.149208
183.500000 38.406345
183.500000 38.664324
183.500000 38.923144
183.500000 39.182806
183.500000 39.443310
183.500000 39.704655
183.500000 39.966842
183.500000 40.229871
183.500000 40.493742
183.500000 40.758454
183.500000 41.024008
183.500000 41.290403
183.500000 41.557641
183.500000 41.825720
183.500000 42.094640
183.500000 42.364403
183.500000 42.635007
183.500000 42.906452
183.500000 43.178740
183.500000 43.451869
183.500000 43.725840
183.500000 44.000652
183.500000 44.276306
183.500000 44.552802
183.500000 44.830140
183.500000 45.108319
183.500000 45.387340
183.500000 45.667203
183.500000 45.947907
183.500000 46.229453
183.500000 46.511841
183.500000 46.795070
183.500000 47.079141
183.500000 47.364054
183.500000 47.649809
183.500000 47.936405
183.500000 48.223843
183.500000 48.512122
183.500000 48.801244
183.500000 49.091207
183.500000 49.382011
183.500000 49.673658
183.500000 49.966146
183.500000 50.259475
183.500000 50.553647
183.500000 50.848660
183.500000 51.144515
183.500000 51.441211
183.500000 51.738749
183.500000 52.037129
183.500000 52.336351
183.500000 52.636414
183.500000 52.937319
183.500000 53.239066
183.500000 53.541654
183.500000 53.845084
183.500000 54.149356
183.500000 54.454469
183.500000 54.760424
183.500000 55.067221
183.500000 55.374860
183.500000 55.683340
183.500000 55.992662
183.500000 56.302825
183.500000 56.613831
183.500000 56.925677
183.500000 57.238366
183.500000 57.551896
183.500000 57.866268
183.500000 58.181482
183.500000 58.497538
183.500000 58.814435
183.500000 59.132174
183.500000 59.450754
183.500000 59.770176
183.500000 60.090440
183.500000 60.411546
183.500000 60.733493
183.500000 61.056282
183.500000 61.379913
183.500000 61.704385
183.500000 62.029699
183.500000 62.355855
183.500000 62.682852
183.500000 63.010691
183.500000 63.339372
183.500000 63.668894
183.500000 63.999259
183.500000 64.330465
183.500000 64.662512
183.500000 64.995401
183.500000 65.329132
183.500000 65.663705
183.500000 65.999119
183.500000 66.335375
183.500000 66.672473
183.500000 67.010412
183.500000 67.349194
183.500000 67.688816
183.500000 68.029281
183.500000 68.370587
183.500000 68.712735
183.500000 69.055724
183.500000 69.399556
183.500000 69.744229
183.500000 70.089743
183.500000 70.436100
183.500000 70.783298
183.500000 71.131337
183.500000 71.480219
183.500000 71.829942
183.500000 72.180507
183.500000 72.531913
183.500000 72.884161
183.500000 73.237251
183.500000 73.591183
183.500000 73.945956
183.500000 74.301571
183.500000 74.658028
183.500000 75.015326
183.500000 75.373466
183.500000 75.732448
183.500000 76.092271
183.500000 76.452936
183.500000 76.814443
183.500000 77.176792
183.500000 77.539982
183.500000 77.904014
183.500000 78.268887
183.500000 78.634602
183.500000 79.001159
183.500000 79.368558
183.500000 79.736798
183.500000 80.105880
183.500000 80.475804
183.500000 80.846570
183.500000 81.218177
183.500000 81.590625
183.500000 81.963916
183.500000 82.338048
183.500000 82.713022
183.500000 83.088838
183.500000 83.465495
183.500000 83.842994
183.500000 84.221334
183.500000 84.600517
183.500000 84.980541
183.500000 85.361406
183.500000 85.743114
183.500000 86.125663
183.500000 86.509054
183.500000 86.893286
183.500000 87.278360
183.500000 87.664276
183.500000 88.051034
183.500000 88.438633
183.500000 88.827074
183.500000 89.216357
183.500000 89.606481
183.500000 89.997447
183.500000 90.389255
183.500000 90.781904
183.500000 91.175395
183.500000 91.569728
183.500000 91.964903
183.500000 92.360919
183.500000 92.757777
183.500000 93.155476
183.500000 93.554017
183.500000 93.953400
183.500000 94.353625
183.500000 94.754691
183.500000 95.156599
183.500000 95.559349
183.500000 95.962940
183.500000 96.367374
183.500000 96.772648
183.500000 97.178765
183.500000 97.585723
183.500000 97.993523
183.500000 98.402164
183.500000 98.811648
183.500000 99.221973
183.500000 99.633139
183.500000 100.045148
183.500000 100.457998
183.500000 100.871689
183.500000 101.286223
183.500000 101.701598
183.500000 102.117815
183.500000 102.534873
183.500000 102.952773
183.500000 103.371515
183.500000 103.791099
183.500000 104.211524
183.500000 104.632791
183.500000 105.054900
183.500000 105.477850
183.500000 105.901642
183.500000 106.326276
183.500000 106.751751
183.500000 107.178068
183.500000 107.605227
183.500000 108.033227
183.500000 108.462070
183.500000 108.891753
183.500000 109.322279
183.500000 109.753646
183.500000 110.185855
183.500000 110.618906
183.500000 111.052798
183.500000 111.487532
183.500000 111.923108
183.500000 112.359525
183.500000 112.796784
183.500000 113.234885
183.500000 113.673828
183.500000 114.113612
183.500000 114.554238
183.500000 114.995705
183.500000 115.438014
183.500000 115.881165
183.500000 116.325158
183.500000 116.769992
183.500000 117.215668
183.500000 117.662186
183.500000 118.109545
183.500000 118.557746
183.500000 119.006789
183.500000 119.456674
183.500000 119.907400
183.500000 120.358968
183.500000 120.811377
183.500000 121.264629
183.500000 121.718722
183.500000 122.173656
183.500000 122.629432
183.500000 123.086050
183.500000 123.543510
183.500000 124.001812
183.500000 124.460955
183.500000 124.920939
183.500000 125.381766
183.500000 125.843434
183.500000 126.305944
183.500000 126.769296
183.500000 127.233489
183.500000 127.698524
183.500000 128.164400
183.500000 128.631119
183.500000 129.098679
183.500000 129.567080
183.500000 130.036324
183.500000 130.506409
183.500000 130.977336
183.500000 131.449104
183.500000 131.921714
183.500000 132.395166
183.500000 132.869460
183.500000 133.344595
183.500000 133.820572
183.500000 134.297390
183.500000 134.775051
183.500000 135.253553
183.500000 135.732897
183.500000 136.213082
183.500000 136.694109
183.500000 137.175978
183.500000 137.658688
183.500000 138.142240
183.500000 138.626634
183.500000 139.111870
183.500000 139.597947
183.500000 140.084866
183.500000 140.572627
183.500000 141.061229
183.500000 141.550673
183.500000 142.040959
183.500000 142.532086
183.500000 143.024055
183.500000 143.516866
183.500000 144.010518
183.500000 144.505013
183.500000 145.000348
183.500000 145.496526
183.500000 145.993545
183.500000 146.491406
183.500000 146.990109
183.500000 147.489653
183.500000 147.990039
183.500000 148.491267
183.500000 148.993336
183.500000 149.496247
183.500000 150.000000
</POINTS>
</NEKTAR>

