<?xml version="1.0" encoding="utf-8" ?>
<NEKTAR>
<POINTS DIM="2" FIELDS="">
983.500000 -1.000000
983.500000 -0.999579
983.500000 -0.998317
983.500000 -0.996212
983.500000 -0.993266
983.500000 -0.989479
983.500000 -0.984850
983.500000 -0.979379
983.500000 -0.973066
983.500000 -0.965911
983.500000 -0.957915
983.500000 -0.949078
983.500000 -0.939398
983.500000 -0.928877
983.500000 -0.917514
983.500000 -0.905310
983.500000 -0.892263
983.500000 -0.878375
983.500000 -0.863646
983.500000 -0.848075
983.500000 -0.831662
983.500000 -0.814407
983.500000 -0.796310
983.500000 -0.777372
983.500000 -0.757593
983.500000 -0.736971
983.500000 -0.715508
983.500000 -0.693203
983.500000 -0.670057
983.500000 -0.646068
983.500000 -0.621239
983.500000 -0.595567
983.500000 -0.569054
983.500000 -0.541699
983.500000 -0.513502
983.500000 -0.484464
983.500000 -0.454583
983.500000 -0.423862
983.500000 -0.392298
983.500000 -0.359893
983.500000 -0.326646
983.500000 -0.292558
983.500000 -0.257627
983.500000 -0.221856
983.500000 -0.185242
983.500000 -0.147787
983.500000 -0.109490
983.500000 -0.070351
983.500000 -0.030371
983.500000 0.010451
983.500000 0.052115
983.500000 0.094621
983.500000 0.137968
983.500000 0.182157
983.500000 0.227187
983.500000 0.273059
983.500000 0.319773
983.500000 0.367329
983.500000 0.415726
983.500000 0.464965
983.500000 0.515046
983.500000 0.565968
983.500000 0.617732
983.500000 0.670338
983.500000 0.723786
983.500000 0.778075
983.500000 0.833206
983.500000 0.889178
983.500000 0.945992
983.500000 1.003648
983.500000 1.062146
983.500000 1.121485
983.500000 1.181666
983.500000 1.242689
983.500000 1.304553
983.500000 1.367259
983.500000 1.430807
983.500000 1.495197
983.500000 1.560428
983.500000 1.626500
983.500000 1.693415
983.500000 1.761171
983.500000 1.829769
983.500000 1.899209
983.500000 1.969490
983.500000 2.040613
983.500000 2.112578
983.500000 2.185384
983.500000 2.259032
983.500000 2.333522
983.500000 2.408853
983.500000 2.485027
983.500000 2.562041
983.500000 2.639898
983.500000 2.718596
983.500000 2.798136
983.500000 2.878518
983.500000 2.959741
983.500000 3.041806
983.500000 3.124713
983.500000 3.208461
983.500000 3.293051
983.500000 3.378483
983.500000 3.464756
983.500000 3.551871
983.500000 3.639828
983.500000 3.728627
983.500000 3.818267
983.500000 3.908749
983.500000 4.000072
983.500000 4.092238
983.500000 4.185245
983.500000 4.279093
983.500000 4.373784
983.500000 4.469316
983.500000 4.565690
983.500000 4.662905
983.500000 4.760962
983.500000 4.859861
983.500000 4.959602
983.500000 5.060184
983.500000 5.161608
983.500000 5.263873
983.500000 5.366981
983.500000 5.470930
983.500000 5.575720
983.500000 5.681353
983.500000 5.787827
983.500000 5.895142
983.500000 6.003300
983.500000 6.112299
983.500000 6.222140
983.500000 6.332822
983.500000 6.444347
983.500000 6.556712
983.500000 6.669920
983.500000 6.783969
983.500000 6.898860
983.500000 7.014593
983.500000 7.131167
983.500000 7.248583
983.500000 7.366841
983.500000 7.485941
983.500000 7.605882
983.500000 7.726665
983.500000 7.848289
983.500000 7.970755
983.500000 8.094063
983.500000 8.218213
983.500000 8.343204
983.500000 8.469037
983.500000 8.595712
983.500000 8.723228
983.500000 8.851586
983.500000 8.980786
983.500000 9.110827
983.500000 9.241711
983.500000 9.373435
983.500000 9.506002
983.500000 9.639410
983.500000 9.773660
983.500000 9.908752
983.500000 10.044685
983.500000 10.181460
983.500000 10.319077
983.500000 10.457535
983.500000 10.596835
983.500000 10.736977
983.500000 10.877960
983.500000 11.019785
983.500000 11.162452
983.500000 11.305961
983.500000 11.450311
983.500000 11.595503
983.500000 11.741536
983.500000 11.888412
983.500000 12.036129
983.500000 12.184687
983.500000 12.334088
983.500000 12.484330
983.500000 12.635414
983.500000 12.787339
983.500000 12.940106
983.500000 13.093715
983.500000 13.248165
983.500000 13.403458
983.500000 13.559592
983.500000 13.716567
983.500000 13.874384
983.500000 14.033043
983.500000 14.192544
983.500000 14.352886
983.500000 14.514070
983.500000 14.676096
983.500000 14.838964
983.500000 15.002673
983.500000 15.167224
983.500000 15.332616
983.500000 15.498850
983.500000 15.665926
983.500000 15.833844
983.500000 16.002603
983.500000 16.172204
983.500000 16.342647
983.500000 16.513931
983.500000 16.686057
983.500000 16.859025
983.500000 17.032834
983.500000 17.207485
983.500000 17.382978
983.500000 17.559313
983.500000 17.736489
983.500000 17.914507
983.500000 18.093367
983.500000 18.273068
983.500000 18.453611
983.500000 18.634995
983.500000 18.817222
983.500000 19.000290
983.500000 19.184200
983.500000 19.368951
983.500000 19.554544
983.500000 19.740979
983.500000 19.928255
983.500000 20.116374
983.500000 20.305334
983.500000 20.495135
983.500000 20.685778
983.500000 20.877263
983.500000 21.069590
983.500000 21.262758
983.500000 21.456769
983.500000 21.651620
983.500000 21.847314
983.500000 22.043849
983.500000 22.241226
983.500000 22.439444
983.500000 22.638504
983.500000 22.838406
983.500000 23.039150
983.500000 23.240735
983.500000 23.443162
983.500000 23.646431
983.500000 23.850541
983.500000 24.055493
983.500000 24.261287
983.500000 24.467922
983.500000 24.675399
983.500000 24.883718
983.500000 25.092879
983.500000 25.302881
983.500000 25.513725
983.500000 25.725410
983.500000 25.937938
983.500000 26.151307
983.500000 26.365517
983.500000 26.580570
983.500000 26.796464
983.500000 27.013200
983.500000 27.230777
983.500000 27.449196
983.500000 27.668457
983.500000 27.888559
983.500000 28.109504
983.500000 28.331289
983.500000 28.553917
983.500000 28.777386
983.500000 29.001697
983.500000 29.226850
983.500000 29.452844
983.500000 29.679680
983.500000 29.907358
983.500000 30.135878
983.500000 30.365239
983.500000 30.595441
983.500000 30.826486
983.500000 31.058372
983.500000 31.291100
983.500000 31.524670
983.500000 31.759081
983.500000 31.994334
983.500000 32.230429
983.500000 32.467365
983.500000 32.705143
983.500000 32.943763
983.500000 33.183224
983.500000 33.423527
983.500000 33.664672
983.500000 33.906659
983.500000 34.149487
983.500000 34.393157
983.500000 34.637668
983.500000 34.883022
983.500000 35.129216
983.500000 35.376253
983.500000 35.624131
983.500000 35.872852
983.500000 36.122413
983.500000 36.372817
983.500000 36.624062
983.500000 36.876149
983.500000 37.129077
983.500000 37.382847
983.500000 37.637459
983.500000 37.892913
983.500000 38.149208
983.500000 38.406345
983.500000 38.664324
983.500000 38.923144
983.500000 39.182806
983.500000 39.443310
983.500000 39.704655
983.500000 39.966842
983.500000 40.229871
983.500000 40.493742
983.500000 40.758454
983.500000 41.024008
983.500000 41.290403
983.500000 41.557641
983.500000 41.825720
983.500000 42.094640
983.500000 42.364403
983.500000 42.635007
983.500000 42.906452
983.500000 43.178740
983.500000 43.451869
983.500000 43.725840
983.500000 44.000652
983.500000 44.276306
983.500000 44.552802
983.500000 44.830140
983.500000 45.108319
983.500000 45.387340
983.500000 45.667203
983.500000 45.947907
983.500000 46.229453
983.500000 46.511841
983.500000 46.795070
983.500000 47.079141
983.500000 47.364054
983.500000 47.649809
983.500000 47.936405
983.500000 48.223843
983.500000 48.512122
983.500000 48.801244
983.500000 49.091207
983.500000 49.382011
983.500000 49.673658
983.500000 49.966146
983.500000 50.259475
983.500000 50.553647
983.500000 50.848660
983.500000 51.144515
983.500000 51.441211
983.500000 51.738749
983.500000 52.037129
983.500000 52.336351
983.500000 52.636414
983.500000 52.937319
983.500000 53.239066
983.500000 53.541654
983.500000 53.845084
983.500000 54.149356
983.500000 54.454469
983.500000 54.760424
983.500000 55.067221
983.500000 55.374860
983.500000 55.683340
983.500000 55.992662
983.500000 56.302825
983.500000 56.613831
983.500000 56.925677
983.500000 57.238366
983.500000 57.551896
983.500000 57.866268
983.500000 58.181482
983.500000 58.497538
983.500000 58.814435
983.500000 59.132174
983.500000 59.450754
983.500000 59.770176
983.500000 60.090440
983.500000 60.411546
983.500000 60.733493
983.500000 61.056282
983.500000 61.379913
983.500000 61.704385
983.500000 62.029699
983.500000 62.355855
983.500000 62.682852
983.500000 63.010691
983.500000 63.339372
983.500000 63.668894
983.500000 63.999259
983.500000 64.330465
983.500000 64.662512
983.500000 64.995401
983.500000 65.329132
983.500000 65.663705
983.500000 65.999119
983.500000 66.335375
983.500000 66.672473
983.500000 67.010412
983.500000 67.349194
983.500000 67.688816
983.500000 68.029281
983.500000 68.370587
983.500000 68.712735
983.500000 69.055724
983.500000 69.399556
983.500000 69.744229
983.500000 70.089743
983.500000 70.436100
983.500000 70.783298
983.500000 71.131337
983.500000 71.480219
983.500000 71.829942
983.500000 72.180507
983.500000 72.531913
983.500000 72.884161
983.500000 73.237251
983.500000 73.591183
983.500000 73.945956
983.500000 74.301571
983.500000 74.658028
983.500000 75.015326
983.500000 75.373466
983.500000 75.732448
983.500000 76.092271
983.500000 76.452936
983.500000 76.814443
983.500000 77.176792
983.500000 77.539982
983.500000 77.904014
983.500000 78.268887
983.500000 78.634602
983.500000 79.001159
983.500000 79.368558
983.500000 79.736798
983.500000 80.105880
983.500000 80.475804
983.500000 80.846570
983.500000 81.218177
983.500000 81.590625
983.500000 81.963916
983.500000 82.338048
983.500000 82.713022
983.500000 83.088838
983.500000 83.465495
983.500000 83.842994
983.500000 84.221334
983.500000 84.600517
983.500000 84.980541
983.500000 85.361406
983.500000 85.743114
983.500000 86.125663
983.500000 86.509054
983.500000 86.893286
983.500000 87.278360
983.500000 87.664276
983.500000 88.051034
983.500000 88.438633
983.500000 88.827074
983.500000 89.216357
983.500000 89.606481
983.500000 89.997447
983.500000 90.389255
983.500000 90.781904
983.500000 91.175395
983.500000 91.569728
983.500000 91.964903
983.500000 92.360919
983.500000 92.757777
983.500000 93.155476
983.500000 93.554017
983.500000 93.953400
983.500000 94.353625
983.500000 94.754691
983.500000 95.156599
983.500000 95.559349
983.500000 95.962940
983.500000 96.367374
983.500000 96.772648
983.500000 97.178765
983.500000 97.585723
983.500000 97.993523
983.500000 98.402164
983.500000 98.811648
983.500000 99.221973
983.500000 99.633139
983.500000 100.045148
983.500000 100.457998
983.500000 100.871689
983.500000 101.286223
983.500000 101.701598
983.500000 102.117815
983.500000 102.534873
983.500000 102.952773
983.500000 103.371515
983.500000 103.791099
983.500000 104.211524
983.500000 104.632791
983.500000 105.054900
983.500000 105.477850
983.500000 105.901642
983.500000 106.326276
983.500000 106.751751
983.500000 107.178068
983.500000 107.605227
983.500000 108.033227
983.500000 108.462070
983.500000 108.891753
983.500000 109.322279
983.500000 109.753646
983.500000 110.185855
983.500000 110.618906
983.500000 111.052798
983.500000 111.487532
983.500000 111.923108
983.500000 112.359525
983.500000 112.796784
983.500000 113.234885
983.500000 113.673828
983.500000 114.113612
983.500000 114.554238
983.500000 114.995705
983.500000 115.438014
983.500000 115.881165
983.500000 116.325158
983.500000 116.769992
983.500000 117.215668
983.500000 117.662186
983.500000 118.109545
983.500000 118.557746
983.500000 119.006789
983.500000 119.456674
983.500000 119.907400
983.500000 120.358968
983.500000 120.811377
983.500000 121.264629
983.500000 121.718722
983.500000 122.173656
983.500000 122.629432
983.500000 123.086050
983.500000 123.543510
983.500000 124.001812
983.500000 124.460955
983.500000 124.920939
983.500000 125.381766
983.500000 125.843434
983.500000 126.305944
983.500000 126.769296
983.500000 127.233489
983.500000 127.698524
983.500000 128.164400
983.500000 128.631119
983.500000 129.098679
983.500000 129.567080
983.500000 130.036324
983.500000 130.506409
983.500000 130.977336
983.500000 131.449104
983.500000 131.921714
983.500000 132.395166
983.500000 132.869460
983.500000 133.344595
983.500000 133.820572
983.500000 134.297390
983.500000 134.775051
983.500000 135.253553
983.500000 135.732897
983.500000 136.213082
983.500000 136.694109
983.500000 137.175978
983.500000 137.658688
983.500000 138.142240
983.500000 138.626634
983.500000 139.111870
983.500000 139.597947
983.500000 140.084866
983.500000 140.572627
983.500000 141.061229
983.500000 141.550673
983.500000 142.040959
983.500000 142.532086
983.500000 143.024055
983.500000 143.516866
983.500000 144.010518
983.500000 144.505013
983.500000 145.000348
983.500000 145.496526
983.500000 145.993545
983.500000 146.491406
983.500000 146.990109
983.500000 147.489653
983.500000 147.990039
983.500000 148.491267
983.500000 148.993336
983.500000 149.496247
983.500000 150.000000
</POINTS>
</NEKTAR>

