<?xml version="1.0" encoding="utf-8" ?>
<NEKTAR>
<POINTS DIM="2" FIELDS="">
343.500000 -1.000000
343.500000 -0.999579
343.500000 -0.998317
343.500000 -0.996212
343.500000 -0.993266
343.500000 -0.989479
343.500000 -0.984850
343.500000 -0.979379
343.500000 -0.973066
343.500000 -0.965911
343.500000 -0.957915
343.500000 -0.949078
343.500000 -0.939398
343.500000 -0.928877
343.500000 -0.917514
343.500000 -0.905310
343.500000 -0.892263
343.500000 -0.878375
343.500000 -0.863646
343.500000 -0.848075
343.500000 -0.831662
343.500000 -0.814407
343.500000 -0.796310
343.500000 -0.777372
343.500000 -0.757593
343.500000 -0.736971
343.500000 -0.715508
343.500000 -0.693203
343.500000 -0.670057
343.500000 -0.646068
343.500000 -0.621239
343.500000 -0.595567
343.500000 -0.569054
343.500000 -0.541699
343.500000 -0.513502
343.500000 -0.484464
343.500000 -0.454583
343.500000 -0.423862
343.500000 -0.392298
343.500000 -0.359893
343.500000 -0.326646
343.500000 -0.292558
343.500000 -0.257627
343.500000 -0.221856
343.500000 -0.185242
343.500000 -0.147787
343.500000 -0.109490
343.500000 -0.070351
343.500000 -0.030371
343.500000 0.010451
343.500000 0.052115
343.500000 0.094621
343.500000 0.137968
343.500000 0.182157
343.500000 0.227187
343.500000 0.273059
343.500000 0.319773
343.500000 0.367329
343.500000 0.415726
343.500000 0.464965
343.500000 0.515046
343.500000 0.565968
343.500000 0.617732
343.500000 0.670338
343.500000 0.723786
343.500000 0.778075
343.500000 0.833206
343.500000 0.889178
343.500000 0.945992
343.500000 1.003648
343.500000 1.062146
343.500000 1.121485
343.500000 1.181666
343.500000 1.242689
343.500000 1.304553
343.500000 1.367259
343.500000 1.430807
343.500000 1.495197
343.500000 1.560428
343.500000 1.626500
343.500000 1.693415
343.500000 1.761171
343.500000 1.829769
343.500000 1.899209
343.500000 1.969490
343.500000 2.040613
343.500000 2.112578
343.500000 2.185384
343.500000 2.259032
343.500000 2.333522
343.500000 2.408853
343.500000 2.485027
343.500000 2.562041
343.500000 2.639898
343.500000 2.718596
343.500000 2.798136
343.500000 2.878518
343.500000 2.959741
343.500000 3.041806
343.500000 3.124713
343.500000 3.208461
343.500000 3.293051
343.500000 3.378483
343.500000 3.464756
343.500000 3.551871
343.500000 3.639828
343.500000 3.728627
343.500000 3.818267
343.500000 3.908749
343.500000 4.000072
343.500000 4.092238
343.500000 4.185245
343.500000 4.279093
343.500000 4.373784
343.500000 4.469316
343.500000 4.565690
343.500000 4.662905
343.500000 4.760962
343.500000 4.859861
343.500000 4.959602
343.500000 5.060184
343.500000 5.161608
343.500000 5.263873
343.500000 5.366981
343.500000 5.470930
343.500000 5.575720
343.500000 5.681353
343.500000 5.787827
343.500000 5.895142
343.500000 6.003300
343.500000 6.112299
343.500000 6.222140
343.500000 6.332822
343.500000 6.444347
343.500000 6.556712
343.500000 6.669920
343.500000 6.783969
343.500000 6.898860
343.500000 7.014593
343.500000 7.131167
343.500000 7.248583
343.500000 7.366841
343.500000 7.485941
343.500000 7.605882
343.500000 7.726665
343.500000 7.848289
343.500000 7.970755
343.500000 8.094063
343.500000 8.218213
343.500000 8.343204
343.500000 8.469037
343.500000 8.595712
343.500000 8.723228
343.500000 8.851586
343.500000 8.980786
343.500000 9.110827
343.500000 9.241711
343.500000 9.373435
343.500000 9.506002
343.500000 9.639410
343.500000 9.773660
343.500000 9.908752
343.500000 10.044685
343.500000 10.181460
343.500000 10.319077
343.500000 10.457535
343.500000 10.596835
343.500000 10.736977
343.500000 10.877960
343.500000 11.019785
343.500000 11.162452
343.500000 11.305961
343.500000 11.450311
343.500000 11.595503
343.500000 11.741536
343.500000 11.888412
343.500000 12.036129
343.500000 12.184687
343.500000 12.334088
343.500000 12.484330
343.500000 12.635414
343.500000 12.787339
343.500000 12.940106
343.500000 13.093715
343.500000 13.248165
343.500000 13.403458
343.500000 13.559592
343.500000 13.716567
343.500000 13.874384
343.500000 14.033043
343.500000 14.192544
343.500000 14.352886
343.500000 14.514070
343.500000 14.676096
343.500000 14.838964
343.500000 15.002673
343.500000 15.167224
343.500000 15.332616
343.500000 15.498850
343.500000 15.665926
343.500000 15.833844
343.500000 16.002603
343.500000 16.172204
343.500000 16.342647
343.500000 16.513931
343.500000 16.686057
343.500000 16.859025
343.500000 17.032834
343.500000 17.207485
343.500000 17.382978
343.500000 17.559313
343.500000 17.736489
343.500000 17.914507
343.500000 18.093367
343.500000 18.273068
343.500000 18.453611
343.500000 18.634995
343.500000 18.817222
343.500000 19.000290
343.500000 19.184200
343.500000 19.368951
343.500000 19.554544
343.500000 19.740979
343.500000 19.928255
343.500000 20.116374
343.500000 20.305334
343.500000 20.495135
343.500000 20.685778
343.500000 20.877263
343.500000 21.069590
343.500000 21.262758
343.500000 21.456769
343.500000 21.651620
343.500000 21.847314
343.500000 22.043849
343.500000 22.241226
343.500000 22.439444
343.500000 22.638504
343.500000 22.838406
343.500000 23.039150
343.500000 23.240735
343.500000 23.443162
343.500000 23.646431
343.500000 23.850541
343.500000 24.055493
343.500000 24.261287
343.500000 24.467922
343.500000 24.675399
343.500000 24.883718
343.500000 25.092879
343.500000 25.302881
343.500000 25.513725
343.500000 25.725410
343.500000 25.937938
343.500000 26.151307
343.500000 26.365517
343.500000 26.580570
343.500000 26.796464
343.500000 27.013200
343.500000 27.230777
343.500000 27.449196
343.500000 27.668457
343.500000 27.888559
343.500000 28.109504
343.500000 28.331289
343.500000 28.553917
343.500000 28.777386
343.500000 29.001697
343.500000 29.226850
343.500000 29.452844
343.500000 29.679680
343.500000 29.907358
343.500000 30.135878
343.500000 30.365239
343.500000 30.595441
343.500000 30.826486
343.500000 31.058372
343.500000 31.291100
343.500000 31.524670
343.500000 31.759081
343.500000 31.994334
343.500000 32.230429
343.500000 32.467365
343.500000 32.705143
343.500000 32.943763
343.500000 33.183224
343.500000 33.423527
343.500000 33.664672
343.500000 33.906659
343.500000 34.149487
343.500000 34.393157
343.500000 34.637668
343.500000 34.883022
343.500000 35.129216
343.500000 35.376253
343.500000 35.624131
343.500000 35.872852
343.500000 36.122413
343.500000 36.372817
343.500000 36.624062
343.500000 36.876149
343.500000 37.129077
343.500000 37.382847
343.500000 37.637459
343.500000 37.892913
343.500000 38.149208
343.500000 38.406345
343.500000 38.664324
343.500000 38.923144
343.500000 39.182806
343.500000 39.443310
343.500000 39.704655
343.500000 39.966842
343.500000 40.229871
343.500000 40.493742
343.500000 40.758454
343.500000 41.024008
343.500000 41.290403
343.500000 41.557641
343.500000 41.825720
343.500000 42.094640
343.500000 42.364403
343.500000 42.635007
343.500000 42.906452
343.500000 43.178740
343.500000 43.451869
343.500000 43.725840
343.500000 44.000652
343.500000 44.276306
343.500000 44.552802
343.500000 44.830140
343.500000 45.108319
343.500000 45.387340
343.500000 45.667203
343.500000 45.947907
343.500000 46.229453
343.500000 46.511841
343.500000 46.795070
343.500000 47.079141
343.500000 47.364054
343.500000 47.649809
343.500000 47.936405
343.500000 48.223843
343.500000 48.512122
343.500000 48.801244
343.500000 49.091207
343.500000 49.382011
343.500000 49.673658
343.500000 49.966146
343.500000 50.259475
343.500000 50.553647
343.500000 50.848660
343.500000 51.144515
343.500000 51.441211
343.500000 51.738749
343.500000 52.037129
343.500000 52.336351
343.500000 52.636414
343.500000 52.937319
343.500000 53.239066
343.500000 53.541654
343.500000 53.845084
343.500000 54.149356
343.500000 54.454469
343.500000 54.760424
343.500000 55.067221
343.500000 55.374860
343.500000 55.683340
343.500000 55.992662
343.500000 56.302825
343.500000 56.613831
343.500000 56.925677
343.500000 57.238366
343.500000 57.551896
343.500000 57.866268
343.500000 58.181482
343.500000 58.497538
343.500000 58.814435
343.500000 59.132174
343.500000 59.450754
343.500000 59.770176
343.500000 60.090440
343.500000 60.411546
343.500000 60.733493
343.500000 61.056282
343.500000 61.379913
343.500000 61.704385
343.500000 62.029699
343.500000 62.355855
343.500000 62.682852
343.500000 63.010691
343.500000 63.339372
343.500000 63.668894
343.500000 63.999259
343.500000 64.330465
343.500000 64.662512
343.500000 64.995401
343.500000 65.329132
343.500000 65.663705
343.500000 65.999119
343.500000 66.335375
343.500000 66.672473
343.500000 67.010412
343.500000 67.349194
343.500000 67.688816
343.500000 68.029281
343.500000 68.370587
343.500000 68.712735
343.500000 69.055724
343.500000 69.399556
343.500000 69.744229
343.500000 70.089743
343.500000 70.436100
343.500000 70.783298
343.500000 71.131337
343.500000 71.480219
343.500000 71.829942
343.500000 72.180507
343.500000 72.531913
343.500000 72.884161
343.500000 73.237251
343.500000 73.591183
343.500000 73.945956
343.500000 74.301571
343.500000 74.658028
343.500000 75.015326
343.500000 75.373466
343.500000 75.732448
343.500000 76.092271
343.500000 76.452936
343.500000 76.814443
343.500000 77.176792
343.500000 77.539982
343.500000 77.904014
343.500000 78.268887
343.500000 78.634602
343.500000 79.001159
343.500000 79.368558
343.500000 79.736798
343.500000 80.105880
343.500000 80.475804
343.500000 80.846570
343.500000 81.218177
343.500000 81.590625
343.500000 81.963916
343.500000 82.338048
343.500000 82.713022
343.500000 83.088838
343.500000 83.465495
343.500000 83.842994
343.500000 84.221334
343.500000 84.600517
343.500000 84.980541
343.500000 85.361406
343.500000 85.743114
343.500000 86.125663
343.500000 86.509054
343.500000 86.893286
343.500000 87.278360
343.500000 87.664276
343.500000 88.051034
343.500000 88.438633
343.500000 88.827074
343.500000 89.216357
343.500000 89.606481
343.500000 89.997447
343.500000 90.389255
343.500000 90.781904
343.500000 91.175395
343.500000 91.569728
343.500000 91.964903
343.500000 92.360919
343.500000 92.757777
343.500000 93.155476
343.500000 93.554017
343.500000 93.953400
343.500000 94.353625
343.500000 94.754691
343.500000 95.156599
343.500000 95.559349
343.500000 95.962940
343.500000 96.367374
343.500000 96.772648
343.500000 97.178765
343.500000 97.585723
343.500000 97.993523
343.500000 98.402164
343.500000 98.811648
343.500000 99.221973
343.500000 99.633139
343.500000 100.045148
343.500000 100.457998
343.500000 100.871689
343.500000 101.286223
343.500000 101.701598
343.500000 102.117815
343.500000 102.534873
343.500000 102.952773
343.500000 103.371515
343.500000 103.791099
343.500000 104.211524
343.500000 104.632791
343.500000 105.054900
343.500000 105.477850
343.500000 105.901642
343.500000 106.326276
343.500000 106.751751
343.500000 107.178068
343.500000 107.605227
343.500000 108.033227
343.500000 108.462070
343.500000 108.891753
343.500000 109.322279
343.500000 109.753646
343.500000 110.185855
343.500000 110.618906
343.500000 111.052798
343.500000 111.487532
343.500000 111.923108
343.500000 112.359525
343.500000 112.796784
343.500000 113.234885
343.500000 113.673828
343.500000 114.113612
343.500000 114.554238
343.500000 114.995705
343.500000 115.438014
343.500000 115.881165
343.500000 116.325158
343.500000 116.769992
343.500000 117.215668
343.500000 117.662186
343.500000 118.109545
343.500000 118.557746
343.500000 119.006789
343.500000 119.456674
343.500000 119.907400
343.500000 120.358968
343.500000 120.811377
343.500000 121.264629
343.500000 121.718722
343.500000 122.173656
343.500000 122.629432
343.500000 123.086050
343.500000 123.543510
343.500000 124.001812
343.500000 124.460955
343.500000 124.920939
343.500000 125.381766
343.500000 125.843434
343.500000 126.305944
343.500000 126.769296
343.500000 127.233489
343.500000 127.698524
343.500000 128.164400
343.500000 128.631119
343.500000 129.098679
343.500000 129.567080
343.500000 130.036324
343.500000 130.506409
343.500000 130.977336
343.500000 131.449104
343.500000 131.921714
343.500000 132.395166
343.500000 132.869460
343.500000 133.344595
343.500000 133.820572
343.500000 134.297390
343.500000 134.775051
343.500000 135.253553
343.500000 135.732897
343.500000 136.213082
343.500000 136.694109
343.500000 137.175978
343.500000 137.658688
343.500000 138.142240
343.500000 138.626634
343.500000 139.111870
343.500000 139.597947
343.500000 140.084866
343.500000 140.572627
343.500000 141.061229
343.500000 141.550673
343.500000 142.040959
343.500000 142.532086
343.500000 143.024055
343.500000 143.516866
343.500000 144.010518
343.500000 144.505013
343.500000 145.000348
343.500000 145.496526
343.500000 145.993545
343.500000 146.491406
343.500000 146.990109
343.500000 147.489653
343.500000 147.990039
343.500000 148.491267
343.500000 148.993336
343.500000 149.496247
343.500000 150.000000
</POINTS>
</NEKTAR>

