<?xml version="1.0" encoding="utf-8" ?>
<NEKTAR>
<POINTS DIM="2" FIELDS="">
583.500000 -1.000000
583.500000 -0.999579
583.500000 -0.998317
583.500000 -0.996212
583.500000 -0.993266
583.500000 -0.989479
583.500000 -0.984850
583.500000 -0.979379
583.500000 -0.973066
583.500000 -0.965911
583.500000 -0.957915
583.500000 -0.949078
583.500000 -0.939398
583.500000 -0.928877
583.500000 -0.917514
583.500000 -0.905310
583.500000 -0.892263
583.500000 -0.878375
583.500000 -0.863646
583.500000 -0.848075
583.500000 -0.831662
583.500000 -0.814407
583.500000 -0.796310
583.500000 -0.777372
583.500000 -0.757593
583.500000 -0.736971
583.500000 -0.715508
583.500000 -0.693203
583.500000 -0.670057
583.500000 -0.646068
583.500000 -0.621239
583.500000 -0.595567
583.500000 -0.569054
583.500000 -0.541699
583.500000 -0.513502
583.500000 -0.484464
583.500000 -0.454583
583.500000 -0.423862
583.500000 -0.392298
583.500000 -0.359893
583.500000 -0.326646
583.500000 -0.292558
583.500000 -0.257627
583.500000 -0.221856
583.500000 -0.185242
583.500000 -0.147787
583.500000 -0.109490
583.500000 -0.070351
583.500000 -0.030371
583.500000 0.010451
583.500000 0.052115
583.500000 0.094621
583.500000 0.137968
583.500000 0.182157
583.500000 0.227187
583.500000 0.273059
583.500000 0.319773
583.500000 0.367329
583.500000 0.415726
583.500000 0.464965
583.500000 0.515046
583.500000 0.565968
583.500000 0.617732
583.500000 0.670338
583.500000 0.723786
583.500000 0.778075
583.500000 0.833206
583.500000 0.889178
583.500000 0.945992
583.500000 1.003648
583.500000 1.062146
583.500000 1.121485
583.500000 1.181666
583.500000 1.242689
583.500000 1.304553
583.500000 1.367259
583.500000 1.430807
583.500000 1.495197
583.500000 1.560428
583.500000 1.626500
583.500000 1.693415
583.500000 1.761171
583.500000 1.829769
583.500000 1.899209
583.500000 1.969490
583.500000 2.040613
583.500000 2.112578
583.500000 2.185384
583.500000 2.259032
583.500000 2.333522
583.500000 2.408853
583.500000 2.485027
583.500000 2.562041
583.500000 2.639898
583.500000 2.718596
583.500000 2.798136
583.500000 2.878518
583.500000 2.959741
583.500000 3.041806
583.500000 3.124713
583.500000 3.208461
583.500000 3.293051
583.500000 3.378483
583.500000 3.464756
583.500000 3.551871
583.500000 3.639828
583.500000 3.728627
583.500000 3.818267
583.500000 3.908749
583.500000 4.000072
583.500000 4.092238
583.500000 4.185245
583.500000 4.279093
583.500000 4.373784
583.500000 4.469316
583.500000 4.565690
583.500000 4.662905
583.500000 4.760962
583.500000 4.859861
583.500000 4.959602
583.500000 5.060184
583.500000 5.161608
583.500000 5.263873
583.500000 5.366981
583.500000 5.470930
583.500000 5.575720
583.500000 5.681353
583.500000 5.787827
583.500000 5.895142
583.500000 6.003300
583.500000 6.112299
583.500000 6.222140
583.500000 6.332822
583.500000 6.444347
583.500000 6.556712
583.500000 6.669920
583.500000 6.783969
583.500000 6.898860
583.500000 7.014593
583.500000 7.131167
583.500000 7.248583
583.500000 7.366841
583.500000 7.485941
583.500000 7.605882
583.500000 7.726665
583.500000 7.848289
583.500000 7.970755
583.500000 8.094063
583.500000 8.218213
583.500000 8.343204
583.500000 8.469037
583.500000 8.595712
583.500000 8.723228
583.500000 8.851586
583.500000 8.980786
583.500000 9.110827
583.500000 9.241711
583.500000 9.373435
583.500000 9.506002
583.500000 9.639410
583.500000 9.773660
583.500000 9.908752
583.500000 10.044685
583.500000 10.181460
583.500000 10.319077
583.500000 10.457535
583.500000 10.596835
583.500000 10.736977
583.500000 10.877960
583.500000 11.019785
583.500000 11.162452
583.500000 11.305961
583.500000 11.450311
583.500000 11.595503
583.500000 11.741536
583.500000 11.888412
583.500000 12.036129
583.500000 12.184687
583.500000 12.334088
583.500000 12.484330
583.500000 12.635414
583.500000 12.787339
583.500000 12.940106
583.500000 13.093715
583.500000 13.248165
583.500000 13.403458
583.500000 13.559592
583.500000 13.716567
583.500000 13.874384
583.500000 14.033043
583.500000 14.192544
583.500000 14.352886
583.500000 14.514070
583.500000 14.676096
583.500000 14.838964
583.500000 15.002673
583.500000 15.167224
583.500000 15.332616
583.500000 15.498850
583.500000 15.665926
583.500000 15.833844
583.500000 16.002603
583.500000 16.172204
583.500000 16.342647
583.500000 16.513931
583.500000 16.686057
583.500000 16.859025
583.500000 17.032834
583.500000 17.207485
583.500000 17.382978
583.500000 17.559313
583.500000 17.736489
583.500000 17.914507
583.500000 18.093367
583.500000 18.273068
583.500000 18.453611
583.500000 18.634995
583.500000 18.817222
583.500000 19.000290
583.500000 19.184200
583.500000 19.368951
583.500000 19.554544
583.500000 19.740979
583.500000 19.928255
583.500000 20.116374
583.500000 20.305334
583.500000 20.495135
583.500000 20.685778
583.500000 20.877263
583.500000 21.069590
583.500000 21.262758
583.500000 21.456769
583.500000 21.651620
583.500000 21.847314
583.500000 22.043849
583.500000 22.241226
583.500000 22.439444
583.500000 22.638504
583.500000 22.838406
583.500000 23.039150
583.500000 23.240735
583.500000 23.443162
583.500000 23.646431
583.500000 23.850541
583.500000 24.055493
583.500000 24.261287
583.500000 24.467922
583.500000 24.675399
583.500000 24.883718
583.500000 25.092879
583.500000 25.302881
583.500000 25.513725
583.500000 25.725410
583.500000 25.937938
583.500000 26.151307
583.500000 26.365517
583.500000 26.580570
583.500000 26.796464
583.500000 27.013200
583.500000 27.230777
583.500000 27.449196
583.500000 27.668457
583.500000 27.888559
583.500000 28.109504
583.500000 28.331289
583.500000 28.553917
583.500000 28.777386
583.500000 29.001697
583.500000 29.226850
583.500000 29.452844
583.500000 29.679680
583.500000 29.907358
583.500000 30.135878
583.500000 30.365239
583.500000 30.595441
583.500000 30.826486
583.500000 31.058372
583.500000 31.291100
583.500000 31.524670
583.500000 31.759081
583.500000 31.994334
583.500000 32.230429
583.500000 32.467365
583.500000 32.705143
583.500000 32.943763
583.500000 33.183224
583.500000 33.423527
583.500000 33.664672
583.500000 33.906659
583.500000 34.149487
583.500000 34.393157
583.500000 34.637668
583.500000 34.883022
583.500000 35.129216
583.500000 35.376253
583.500000 35.624131
583.500000 35.872852
583.500000 36.122413
583.500000 36.372817
583.500000 36.624062
583.500000 36.876149
583.500000 37.129077
583.500000 37.382847
583.500000 37.637459
583.500000 37.892913
583.500000 38.149208
583.500000 38.406345
583.500000 38.664324
583.500000 38.923144
583.500000 39.182806
583.500000 39.443310
583.500000 39.704655
583.500000 39.966842
583.500000 40.229871
583.500000 40.493742
583.500000 40.758454
583.500000 41.024008
583.500000 41.290403
583.500000 41.557641
583.500000 41.825720
583.500000 42.094640
583.500000 42.364403
583.500000 42.635007
583.500000 42.906452
583.500000 43.178740
583.500000 43.451869
583.500000 43.725840
583.500000 44.000652
583.500000 44.276306
583.500000 44.552802
583.500000 44.830140
583.500000 45.108319
583.500000 45.387340
583.500000 45.667203
583.500000 45.947907
583.500000 46.229453
583.500000 46.511841
583.500000 46.795070
583.500000 47.079141
583.500000 47.364054
583.500000 47.649809
583.500000 47.936405
583.500000 48.223843
583.500000 48.512122
583.500000 48.801244
583.500000 49.091207
583.500000 49.382011
583.500000 49.673658
583.500000 49.966146
583.500000 50.259475
583.500000 50.553647
583.500000 50.848660
583.500000 51.144515
583.500000 51.441211
583.500000 51.738749
583.500000 52.037129
583.500000 52.336351
583.500000 52.636414
583.500000 52.937319
583.500000 53.239066
583.500000 53.541654
583.500000 53.845084
583.500000 54.149356
583.500000 54.454469
583.500000 54.760424
583.500000 55.067221
583.500000 55.374860
583.500000 55.683340
583.500000 55.992662
583.500000 56.302825
583.500000 56.613831
583.500000 56.925677
583.500000 57.238366
583.500000 57.551896
583.500000 57.866268
583.500000 58.181482
583.500000 58.497538
583.500000 58.814435
583.500000 59.132174
583.500000 59.450754
583.500000 59.770176
583.500000 60.090440
583.500000 60.411546
583.500000 60.733493
583.500000 61.056282
583.500000 61.379913
583.500000 61.704385
583.500000 62.029699
583.500000 62.355855
583.500000 62.682852
583.500000 63.010691
583.500000 63.339372
583.500000 63.668894
583.500000 63.999259
583.500000 64.330465
583.500000 64.662512
583.500000 64.995401
583.500000 65.329132
583.500000 65.663705
583.500000 65.999119
583.500000 66.335375
583.500000 66.672473
583.500000 67.010412
583.500000 67.349194
583.500000 67.688816
583.500000 68.029281
583.500000 68.370587
583.500000 68.712735
583.500000 69.055724
583.500000 69.399556
583.500000 69.744229
583.500000 70.089743
583.500000 70.436100
583.500000 70.783298
583.500000 71.131337
583.500000 71.480219
583.500000 71.829942
583.500000 72.180507
583.500000 72.531913
583.500000 72.884161
583.500000 73.237251
583.500000 73.591183
583.500000 73.945956
583.500000 74.301571
583.500000 74.658028
583.500000 75.015326
583.500000 75.373466
583.500000 75.732448
583.500000 76.092271
583.500000 76.452936
583.500000 76.814443
583.500000 77.176792
583.500000 77.539982
583.500000 77.904014
583.500000 78.268887
583.500000 78.634602
583.500000 79.001159
583.500000 79.368558
583.500000 79.736798
583.500000 80.105880
583.500000 80.475804
583.500000 80.846570
583.500000 81.218177
583.500000 81.590625
583.500000 81.963916
583.500000 82.338048
583.500000 82.713022
583.500000 83.088838
583.500000 83.465495
583.500000 83.842994
583.500000 84.221334
583.500000 84.600517
583.500000 84.980541
583.500000 85.361406
583.500000 85.743114
583.500000 86.125663
583.500000 86.509054
583.500000 86.893286
583.500000 87.278360
583.500000 87.664276
583.500000 88.051034
583.500000 88.438633
583.500000 88.827074
583.500000 89.216357
583.500000 89.606481
583.500000 89.997447
583.500000 90.389255
583.500000 90.781904
583.500000 91.175395
583.500000 91.569728
583.500000 91.964903
583.500000 92.360919
583.500000 92.757777
583.500000 93.155476
583.500000 93.554017
583.500000 93.953400
583.500000 94.353625
583.500000 94.754691
583.500000 95.156599
583.500000 95.559349
583.500000 95.962940
583.500000 96.367374
583.500000 96.772648
583.500000 97.178765
583.500000 97.585723
583.500000 97.993523
583.500000 98.402164
583.500000 98.811648
583.500000 99.221973
583.500000 99.633139
583.500000 100.045148
583.500000 100.457998
583.500000 100.871689
583.500000 101.286223
583.500000 101.701598
583.500000 102.117815
583.500000 102.534873
583.500000 102.952773
583.500000 103.371515
583.500000 103.791099
583.500000 104.211524
583.500000 104.632791
583.500000 105.054900
583.500000 105.477850
583.500000 105.901642
583.500000 106.326276
583.500000 106.751751
583.500000 107.178068
583.500000 107.605227
583.500000 108.033227
583.500000 108.462070
583.500000 108.891753
583.500000 109.322279
583.500000 109.753646
583.500000 110.185855
583.500000 110.618906
583.500000 111.052798
583.500000 111.487532
583.500000 111.923108
583.500000 112.359525
583.500000 112.796784
583.500000 113.234885
583.500000 113.673828
583.500000 114.113612
583.500000 114.554238
583.500000 114.995705
583.500000 115.438014
583.500000 115.881165
583.500000 116.325158
583.500000 116.769992
583.500000 117.215668
583.500000 117.662186
583.500000 118.109545
583.500000 118.557746
583.500000 119.006789
583.500000 119.456674
583.500000 119.907400
583.500000 120.358968
583.500000 120.811377
583.500000 121.264629
583.500000 121.718722
583.500000 122.173656
583.500000 122.629432
583.500000 123.086050
583.500000 123.543510
583.500000 124.001812
583.500000 124.460955
583.500000 124.920939
583.500000 125.381766
583.500000 125.843434
583.500000 126.305944
583.500000 126.769296
583.500000 127.233489
583.500000 127.698524
583.500000 128.164400
583.500000 128.631119
583.500000 129.098679
583.500000 129.567080
583.500000 130.036324
583.500000 130.506409
583.500000 130.977336
583.500000 131.449104
583.500000 131.921714
583.500000 132.395166
583.500000 132.869460
583.500000 133.344595
583.500000 133.820572
583.500000 134.297390
583.500000 134.775051
583.500000 135.253553
583.500000 135.732897
583.500000 136.213082
583.500000 136.694109
583.500000 137.175978
583.500000 137.658688
583.500000 138.142240
583.500000 138.626634
583.500000 139.111870
583.500000 139.597947
583.500000 140.084866
583.500000 140.572627
583.500000 141.061229
583.500000 141.550673
583.500000 142.040959
583.500000 142.532086
583.500000 143.024055
583.500000 143.516866
583.500000 144.010518
583.500000 144.505013
583.500000 145.000348
583.500000 145.496526
583.500000 145.993545
583.500000 146.491406
583.500000 146.990109
583.500000 147.489653
583.500000 147.990039
583.500000 148.491267
583.500000 148.993336
583.500000 149.496247
583.500000 150.000000
</POINTS>
</NEKTAR>

