<?xml version="1.0" encoding="utf-8" ?>
<NEKTAR>
<POINTS DIM="2" FIELDS="">
323.500000 -1.000000
323.500000 -0.999579
323.500000 -0.998317
323.500000 -0.996212
323.500000 -0.993266
323.500000 -0.989479
323.500000 -0.984850
323.500000 -0.979379
323.500000 -0.973066
323.500000 -0.965911
323.500000 -0.957915
323.500000 -0.949078
323.500000 -0.939398
323.500000 -0.928877
323.500000 -0.917514
323.500000 -0.905310
323.500000 -0.892263
323.500000 -0.878375
323.500000 -0.863646
323.500000 -0.848075
323.500000 -0.831662
323.500000 -0.814407
323.500000 -0.796310
323.500000 -0.777372
323.500000 -0.757593
323.500000 -0.736971
323.500000 -0.715508
323.500000 -0.693203
323.500000 -0.670057
323.500000 -0.646068
323.500000 -0.621239
323.500000 -0.595567
323.500000 -0.569054
323.500000 -0.541699
323.500000 -0.513502
323.500000 -0.484464
323.500000 -0.454583
323.500000 -0.423862
323.500000 -0.392298
323.500000 -0.359893
323.500000 -0.326646
323.500000 -0.292558
323.500000 -0.257627
323.500000 -0.221856
323.500000 -0.185242
323.500000 -0.147787
323.500000 -0.109490
323.500000 -0.070351
323.500000 -0.030371
323.500000 0.010451
323.500000 0.052115
323.500000 0.094621
323.500000 0.137968
323.500000 0.182157
323.500000 0.227187
323.500000 0.273059
323.500000 0.319773
323.500000 0.367329
323.500000 0.415726
323.500000 0.464965
323.500000 0.515046
323.500000 0.565968
323.500000 0.617732
323.500000 0.670338
323.500000 0.723786
323.500000 0.778075
323.500000 0.833206
323.500000 0.889178
323.500000 0.945992
323.500000 1.003648
323.500000 1.062146
323.500000 1.121485
323.500000 1.181666
323.500000 1.242689
323.500000 1.304553
323.500000 1.367259
323.500000 1.430807
323.500000 1.495197
323.500000 1.560428
323.500000 1.626500
323.500000 1.693415
323.500000 1.761171
323.500000 1.829769
323.500000 1.899209
323.500000 1.969490
323.500000 2.040613
323.500000 2.112578
323.500000 2.185384
323.500000 2.259032
323.500000 2.333522
323.500000 2.408853
323.500000 2.485027
323.500000 2.562041
323.500000 2.639898
323.500000 2.718596
323.500000 2.798136
323.500000 2.878518
323.500000 2.959741
323.500000 3.041806
323.500000 3.124713
323.500000 3.208461
323.500000 3.293051
323.500000 3.378483
323.500000 3.464756
323.500000 3.551871
323.500000 3.639828
323.500000 3.728627
323.500000 3.818267
323.500000 3.908749
323.500000 4.000072
323.500000 4.092238
323.500000 4.185245
323.500000 4.279093
323.500000 4.373784
323.500000 4.469316
323.500000 4.565690
323.500000 4.662905
323.500000 4.760962
323.500000 4.859861
323.500000 4.959602
323.500000 5.060184
323.500000 5.161608
323.500000 5.263873
323.500000 5.366981
323.500000 5.470930
323.500000 5.575720
323.500000 5.681353
323.500000 5.787827
323.500000 5.895142
323.500000 6.003300
323.500000 6.112299
323.500000 6.222140
323.500000 6.332822
323.500000 6.444347
323.500000 6.556712
323.500000 6.669920
323.500000 6.783969
323.500000 6.898860
323.500000 7.014593
323.500000 7.131167
323.500000 7.248583
323.500000 7.366841
323.500000 7.485941
323.500000 7.605882
323.500000 7.726665
323.500000 7.848289
323.500000 7.970755
323.500000 8.094063
323.500000 8.218213
323.500000 8.343204
323.500000 8.469037
323.500000 8.595712
323.500000 8.723228
323.500000 8.851586
323.500000 8.980786
323.500000 9.110827
323.500000 9.241711
323.500000 9.373435
323.500000 9.506002
323.500000 9.639410
323.500000 9.773660
323.500000 9.908752
323.500000 10.044685
323.500000 10.181460
323.500000 10.319077
323.500000 10.457535
323.500000 10.596835
323.500000 10.736977
323.500000 10.877960
323.500000 11.019785
323.500000 11.162452
323.500000 11.305961
323.500000 11.450311
323.500000 11.595503
323.500000 11.741536
323.500000 11.888412
323.500000 12.036129
323.500000 12.184687
323.500000 12.334088
323.500000 12.484330
323.500000 12.635414
323.500000 12.787339
323.500000 12.940106
323.500000 13.093715
323.500000 13.248165
323.500000 13.403458
323.500000 13.559592
323.500000 13.716567
323.500000 13.874384
323.500000 14.033043
323.500000 14.192544
323.500000 14.352886
323.500000 14.514070
323.500000 14.676096
323.500000 14.838964
323.500000 15.002673
323.500000 15.167224
323.500000 15.332616
323.500000 15.498850
323.500000 15.665926
323.500000 15.833844
323.500000 16.002603
323.500000 16.172204
323.500000 16.342647
323.500000 16.513931
323.500000 16.686057
323.500000 16.859025
323.500000 17.032834
323.500000 17.207485
323.500000 17.382978
323.500000 17.559313
323.500000 17.736489
323.500000 17.914507
323.500000 18.093367
323.500000 18.273068
323.500000 18.453611
323.500000 18.634995
323.500000 18.817222
323.500000 19.000290
323.500000 19.184200
323.500000 19.368951
323.500000 19.554544
323.500000 19.740979
323.500000 19.928255
323.500000 20.116374
323.500000 20.305334
323.500000 20.495135
323.500000 20.685778
323.500000 20.877263
323.500000 21.069590
323.500000 21.262758
323.500000 21.456769
323.500000 21.651620
323.500000 21.847314
323.500000 22.043849
323.500000 22.241226
323.500000 22.439444
323.500000 22.638504
323.500000 22.838406
323.500000 23.039150
323.500000 23.240735
323.500000 23.443162
323.500000 23.646431
323.500000 23.850541
323.500000 24.055493
323.500000 24.261287
323.500000 24.467922
323.500000 24.675399
323.500000 24.883718
323.500000 25.092879
323.500000 25.302881
323.500000 25.513725
323.500000 25.725410
323.500000 25.937938
323.500000 26.151307
323.500000 26.365517
323.500000 26.580570
323.500000 26.796464
323.500000 27.013200
323.500000 27.230777
323.500000 27.449196
323.500000 27.668457
323.500000 27.888559
323.500000 28.109504
323.500000 28.331289
323.500000 28.553917
323.500000 28.777386
323.500000 29.001697
323.500000 29.226850
323.500000 29.452844
323.500000 29.679680
323.500000 29.907358
323.500000 30.135878
323.500000 30.365239
323.500000 30.595441
323.500000 30.826486
323.500000 31.058372
323.500000 31.291100
323.500000 31.524670
323.500000 31.759081
323.500000 31.994334
323.500000 32.230429
323.500000 32.467365
323.500000 32.705143
323.500000 32.943763
323.500000 33.183224
323.500000 33.423527
323.500000 33.664672
323.500000 33.906659
323.500000 34.149487
323.500000 34.393157
323.500000 34.637668
323.500000 34.883022
323.500000 35.129216
323.500000 35.376253
323.500000 35.624131
323.500000 35.872852
323.500000 36.122413
323.500000 36.372817
323.500000 36.624062
323.500000 36.876149
323.500000 37.129077
323.500000 37.382847
323.500000 37.637459
323.500000 37.892913
323.500000 38.149208
323.500000 38.406345
323.500000 38.664324
323.500000 38.923144
323.500000 39.182806
323.500000 39.443310
323.500000 39.704655
323.500000 39.966842
323.500000 40.229871
323.500000 40.493742
323.500000 40.758454
323.500000 41.024008
323.500000 41.290403
323.500000 41.557641
323.500000 41.825720
323.500000 42.094640
323.500000 42.364403
323.500000 42.635007
323.500000 42.906452
323.500000 43.178740
323.500000 43.451869
323.500000 43.725840
323.500000 44.000652
323.500000 44.276306
323.500000 44.552802
323.500000 44.830140
323.500000 45.108319
323.500000 45.387340
323.500000 45.667203
323.500000 45.947907
323.500000 46.229453
323.500000 46.511841
323.500000 46.795070
323.500000 47.079141
323.500000 47.364054
323.500000 47.649809
323.500000 47.936405
323.500000 48.223843
323.500000 48.512122
323.500000 48.801244
323.500000 49.091207
323.500000 49.382011
323.500000 49.673658
323.500000 49.966146
323.500000 50.259475
323.500000 50.553647
323.500000 50.848660
323.500000 51.144515
323.500000 51.441211
323.500000 51.738749
323.500000 52.037129
323.500000 52.336351
323.500000 52.636414
323.500000 52.937319
323.500000 53.239066
323.500000 53.541654
323.500000 53.845084
323.500000 54.149356
323.500000 54.454469
323.500000 54.760424
323.500000 55.067221
323.500000 55.374860
323.500000 55.683340
323.500000 55.992662
323.500000 56.302825
323.500000 56.613831
323.500000 56.925677
323.500000 57.238366
323.500000 57.551896
323.500000 57.866268
323.500000 58.181482
323.500000 58.497538
323.500000 58.814435
323.500000 59.132174
323.500000 59.450754
323.500000 59.770176
323.500000 60.090440
323.500000 60.411546
323.500000 60.733493
323.500000 61.056282
323.500000 61.379913
323.500000 61.704385
323.500000 62.029699
323.500000 62.355855
323.500000 62.682852
323.500000 63.010691
323.500000 63.339372
323.500000 63.668894
323.500000 63.999259
323.500000 64.330465
323.500000 64.662512
323.500000 64.995401
323.500000 65.329132
323.500000 65.663705
323.500000 65.999119
323.500000 66.335375
323.500000 66.672473
323.500000 67.010412
323.500000 67.349194
323.500000 67.688816
323.500000 68.029281
323.500000 68.370587
323.500000 68.712735
323.500000 69.055724
323.500000 69.399556
323.500000 69.744229
323.500000 70.089743
323.500000 70.436100
323.500000 70.783298
323.500000 71.131337
323.500000 71.480219
323.500000 71.829942
323.500000 72.180507
323.500000 72.531913
323.500000 72.884161
323.500000 73.237251
323.500000 73.591183
323.500000 73.945956
323.500000 74.301571
323.500000 74.658028
323.500000 75.015326
323.500000 75.373466
323.500000 75.732448
323.500000 76.092271
323.500000 76.452936
323.500000 76.814443
323.500000 77.176792
323.500000 77.539982
323.500000 77.904014
323.500000 78.268887
323.500000 78.634602
323.500000 79.001159
323.500000 79.368558
323.500000 79.736798
323.500000 80.105880
323.500000 80.475804
323.500000 80.846570
323.500000 81.218177
323.500000 81.590625
323.500000 81.963916
323.500000 82.338048
323.500000 82.713022
323.500000 83.088838
323.500000 83.465495
323.500000 83.842994
323.500000 84.221334
323.500000 84.600517
323.500000 84.980541
323.500000 85.361406
323.500000 85.743114
323.500000 86.125663
323.500000 86.509054
323.500000 86.893286
323.500000 87.278360
323.500000 87.664276
323.500000 88.051034
323.500000 88.438633
323.500000 88.827074
323.500000 89.216357
323.500000 89.606481
323.500000 89.997447
323.500000 90.389255
323.500000 90.781904
323.500000 91.175395
323.500000 91.569728
323.500000 91.964903
323.500000 92.360919
323.500000 92.757777
323.500000 93.155476
323.500000 93.554017
323.500000 93.953400
323.500000 94.353625
323.500000 94.754691
323.500000 95.156599
323.500000 95.559349
323.500000 95.962940
323.500000 96.367374
323.500000 96.772648
323.500000 97.178765
323.500000 97.585723
323.500000 97.993523
323.500000 98.402164
323.500000 98.811648
323.500000 99.221973
323.500000 99.633139
323.500000 100.045148
323.500000 100.457998
323.500000 100.871689
323.500000 101.286223
323.500000 101.701598
323.500000 102.117815
323.500000 102.534873
323.500000 102.952773
323.500000 103.371515
323.500000 103.791099
323.500000 104.211524
323.500000 104.632791
323.500000 105.054900
323.500000 105.477850
323.500000 105.901642
323.500000 106.326276
323.500000 106.751751
323.500000 107.178068
323.500000 107.605227
323.500000 108.033227
323.500000 108.462070
323.500000 108.891753
323.500000 109.322279
323.500000 109.753646
323.500000 110.185855
323.500000 110.618906
323.500000 111.052798
323.500000 111.487532
323.500000 111.923108
323.500000 112.359525
323.500000 112.796784
323.500000 113.234885
323.500000 113.673828
323.500000 114.113612
323.500000 114.554238
323.500000 114.995705
323.500000 115.438014
323.500000 115.881165
323.500000 116.325158
323.500000 116.769992
323.500000 117.215668
323.500000 117.662186
323.500000 118.109545
323.500000 118.557746
323.500000 119.006789
323.500000 119.456674
323.500000 119.907400
323.500000 120.358968
323.500000 120.811377
323.500000 121.264629
323.500000 121.718722
323.500000 122.173656
323.500000 122.629432
323.500000 123.086050
323.500000 123.543510
323.500000 124.001812
323.500000 124.460955
323.500000 124.920939
323.500000 125.381766
323.500000 125.843434
323.500000 126.305944
323.500000 126.769296
323.500000 127.233489
323.500000 127.698524
323.500000 128.164400
323.500000 128.631119
323.500000 129.098679
323.500000 129.567080
323.500000 130.036324
323.500000 130.506409
323.500000 130.977336
323.500000 131.449104
323.500000 131.921714
323.500000 132.395166
323.500000 132.869460
323.500000 133.344595
323.500000 133.820572
323.500000 134.297390
323.500000 134.775051
323.500000 135.253553
323.500000 135.732897
323.500000 136.213082
323.500000 136.694109
323.500000 137.175978
323.500000 137.658688
323.500000 138.142240
323.500000 138.626634
323.500000 139.111870
323.500000 139.597947
323.500000 140.084866
323.500000 140.572627
323.500000 141.061229
323.500000 141.550673
323.500000 142.040959
323.500000 142.532086
323.500000 143.024055
323.500000 143.516866
323.500000 144.010518
323.500000 144.505013
323.500000 145.000348
323.500000 145.496526
323.500000 145.993545
323.500000 146.491406
323.500000 146.990109
323.500000 147.489653
323.500000 147.990039
323.500000 148.491267
323.500000 148.993336
323.500000 149.496247
323.500000 150.000000
</POINTS>
</NEKTAR>

