<?xml version="1.0" encoding="utf-8" ?>
<NEKTAR>
<POINTS DIM="2" FIELDS="">
943.500000 -1.000000
943.500000 -0.999579
943.500000 -0.998317
943.500000 -0.996212
943.500000 -0.993266
943.500000 -0.989479
943.500000 -0.984850
943.500000 -0.979379
943.500000 -0.973066
943.500000 -0.965911
943.500000 -0.957915
943.500000 -0.949078
943.500000 -0.939398
943.500000 -0.928877
943.500000 -0.917514
943.500000 -0.905310
943.500000 -0.892263
943.500000 -0.878375
943.500000 -0.863646
943.500000 -0.848075
943.500000 -0.831662
943.500000 -0.814407
943.500000 -0.796310
943.500000 -0.777372
943.500000 -0.757593
943.500000 -0.736971
943.500000 -0.715508
943.500000 -0.693203
943.500000 -0.670057
943.500000 -0.646068
943.500000 -0.621239
943.500000 -0.595567
943.500000 -0.569054
943.500000 -0.541699
943.500000 -0.513502
943.500000 -0.484464
943.500000 -0.454583
943.500000 -0.423862
943.500000 -0.392298
943.500000 -0.359893
943.500000 -0.326646
943.500000 -0.292558
943.500000 -0.257627
943.500000 -0.221856
943.500000 -0.185242
943.500000 -0.147787
943.500000 -0.109490
943.500000 -0.070351
943.500000 -0.030371
943.500000 0.010451
943.500000 0.052115
943.500000 0.094621
943.500000 0.137968
943.500000 0.182157
943.500000 0.227187
943.500000 0.273059
943.500000 0.319773
943.500000 0.367329
943.500000 0.415726
943.500000 0.464965
943.500000 0.515046
943.500000 0.565968
943.500000 0.617732
943.500000 0.670338
943.500000 0.723786
943.500000 0.778075
943.500000 0.833206
943.500000 0.889178
943.500000 0.945992
943.500000 1.003648
943.500000 1.062146
943.500000 1.121485
943.500000 1.181666
943.500000 1.242689
943.500000 1.304553
943.500000 1.367259
943.500000 1.430807
943.500000 1.495197
943.500000 1.560428
943.500000 1.626500
943.500000 1.693415
943.500000 1.761171
943.500000 1.829769
943.500000 1.899209
943.500000 1.969490
943.500000 2.040613
943.500000 2.112578
943.500000 2.185384
943.500000 2.259032
943.500000 2.333522
943.500000 2.408853
943.500000 2.485027
943.500000 2.562041
943.500000 2.639898
943.500000 2.718596
943.500000 2.798136
943.500000 2.878518
943.500000 2.959741
943.500000 3.041806
943.500000 3.124713
943.500000 3.208461
943.500000 3.293051
943.500000 3.378483
943.500000 3.464756
943.500000 3.551871
943.500000 3.639828
943.500000 3.728627
943.500000 3.818267
943.500000 3.908749
943.500000 4.000072
943.500000 4.092238
943.500000 4.185245
943.500000 4.279093
943.500000 4.373784
943.500000 4.469316
943.500000 4.565690
943.500000 4.662905
943.500000 4.760962
943.500000 4.859861
943.500000 4.959602
943.500000 5.060184
943.500000 5.161608
943.500000 5.263873
943.500000 5.366981
943.500000 5.470930
943.500000 5.575720
943.500000 5.681353
943.500000 5.787827
943.500000 5.895142
943.500000 6.003300
943.500000 6.112299
943.500000 6.222140
943.500000 6.332822
943.500000 6.444347
943.500000 6.556712
943.500000 6.669920
943.500000 6.783969
943.500000 6.898860
943.500000 7.014593
943.500000 7.131167
943.500000 7.248583
943.500000 7.366841
943.500000 7.485941
943.500000 7.605882
943.500000 7.726665
943.500000 7.848289
943.500000 7.970755
943.500000 8.094063
943.500000 8.218213
943.500000 8.343204
943.500000 8.469037
943.500000 8.595712
943.500000 8.723228
943.500000 8.851586
943.500000 8.980786
943.500000 9.110827
943.500000 9.241711
943.500000 9.373435
943.500000 9.506002
943.500000 9.639410
943.500000 9.773660
943.500000 9.908752
943.500000 10.044685
943.500000 10.181460
943.500000 10.319077
943.500000 10.457535
943.500000 10.596835
943.500000 10.736977
943.500000 10.877960
943.500000 11.019785
943.500000 11.162452
943.500000 11.305961
943.500000 11.450311
943.500000 11.595503
943.500000 11.741536
943.500000 11.888412
943.500000 12.036129
943.500000 12.184687
943.500000 12.334088
943.500000 12.484330
943.500000 12.635414
943.500000 12.787339
943.500000 12.940106
943.500000 13.093715
943.500000 13.248165
943.500000 13.403458
943.500000 13.559592
943.500000 13.716567
943.500000 13.874384
943.500000 14.033043
943.500000 14.192544
943.500000 14.352886
943.500000 14.514070
943.500000 14.676096
943.500000 14.838964
943.500000 15.002673
943.500000 15.167224
943.500000 15.332616
943.500000 15.498850
943.500000 15.665926
943.500000 15.833844
943.500000 16.002603
943.500000 16.172204
943.500000 16.342647
943.500000 16.513931
943.500000 16.686057
943.500000 16.859025
943.500000 17.032834
943.500000 17.207485
943.500000 17.382978
943.500000 17.559313
943.500000 17.736489
943.500000 17.914507
943.500000 18.093367
943.500000 18.273068
943.500000 18.453611
943.500000 18.634995
943.500000 18.817222
943.500000 19.000290
943.500000 19.184200
943.500000 19.368951
943.500000 19.554544
943.500000 19.740979
943.500000 19.928255
943.500000 20.116374
943.500000 20.305334
943.500000 20.495135
943.500000 20.685778
943.500000 20.877263
943.500000 21.069590
943.500000 21.262758
943.500000 21.456769
943.500000 21.651620
943.500000 21.847314
943.500000 22.043849
943.500000 22.241226
943.500000 22.439444
943.500000 22.638504
943.500000 22.838406
943.500000 23.039150
943.500000 23.240735
943.500000 23.443162
943.500000 23.646431
943.500000 23.850541
943.500000 24.055493
943.500000 24.261287
943.500000 24.467922
943.500000 24.675399
943.500000 24.883718
943.500000 25.092879
943.500000 25.302881
943.500000 25.513725
943.500000 25.725410
943.500000 25.937938
943.500000 26.151307
943.500000 26.365517
943.500000 26.580570
943.500000 26.796464
943.500000 27.013200
943.500000 27.230777
943.500000 27.449196
943.500000 27.668457
943.500000 27.888559
943.500000 28.109504
943.500000 28.331289
943.500000 28.553917
943.500000 28.777386
943.500000 29.001697
943.500000 29.226850
943.500000 29.452844
943.500000 29.679680
943.500000 29.907358
943.500000 30.135878
943.500000 30.365239
943.500000 30.595441
943.500000 30.826486
943.500000 31.058372
943.500000 31.291100
943.500000 31.524670
943.500000 31.759081
943.500000 31.994334
943.500000 32.230429
943.500000 32.467365
943.500000 32.705143
943.500000 32.943763
943.500000 33.183224
943.500000 33.423527
943.500000 33.664672
943.500000 33.906659
943.500000 34.149487
943.500000 34.393157
943.500000 34.637668
943.500000 34.883022
943.500000 35.129216
943.500000 35.376253
943.500000 35.624131
943.500000 35.872852
943.500000 36.122413
943.500000 36.372817
943.500000 36.624062
943.500000 36.876149
943.500000 37.129077
943.500000 37.382847
943.500000 37.637459
943.500000 37.892913
943.500000 38.149208
943.500000 38.406345
943.500000 38.664324
943.500000 38.923144
943.500000 39.182806
943.500000 39.443310
943.500000 39.704655
943.500000 39.966842
943.500000 40.229871
943.500000 40.493742
943.500000 40.758454
943.500000 41.024008
943.500000 41.290403
943.500000 41.557641
943.500000 41.825720
943.500000 42.094640
943.500000 42.364403
943.500000 42.635007
943.500000 42.906452
943.500000 43.178740
943.500000 43.451869
943.500000 43.725840
943.500000 44.000652
943.500000 44.276306
943.500000 44.552802
943.500000 44.830140
943.500000 45.108319
943.500000 45.387340
943.500000 45.667203
943.500000 45.947907
943.500000 46.229453
943.500000 46.511841
943.500000 46.795070
943.500000 47.079141
943.500000 47.364054
943.500000 47.649809
943.500000 47.936405
943.500000 48.223843
943.500000 48.512122
943.500000 48.801244
943.500000 49.091207
943.500000 49.382011
943.500000 49.673658
943.500000 49.966146
943.500000 50.259475
943.500000 50.553647
943.500000 50.848660
943.500000 51.144515
943.500000 51.441211
943.500000 51.738749
943.500000 52.037129
943.500000 52.336351
943.500000 52.636414
943.500000 52.937319
943.500000 53.239066
943.500000 53.541654
943.500000 53.845084
943.500000 54.149356
943.500000 54.454469
943.500000 54.760424
943.500000 55.067221
943.500000 55.374860
943.500000 55.683340
943.500000 55.992662
943.500000 56.302825
943.500000 56.613831
943.500000 56.925677
943.500000 57.238366
943.500000 57.551896
943.500000 57.866268
943.500000 58.181482
943.500000 58.497538
943.500000 58.814435
943.500000 59.132174
943.500000 59.450754
943.500000 59.770176
943.500000 60.090440
943.500000 60.411546
943.500000 60.733493
943.500000 61.056282
943.500000 61.379913
943.500000 61.704385
943.500000 62.029699
943.500000 62.355855
943.500000 62.682852
943.500000 63.010691
943.500000 63.339372
943.500000 63.668894
943.500000 63.999259
943.500000 64.330465
943.500000 64.662512
943.500000 64.995401
943.500000 65.329132
943.500000 65.663705
943.500000 65.999119
943.500000 66.335375
943.500000 66.672473
943.500000 67.010412
943.500000 67.349194
943.500000 67.688816
943.500000 68.029281
943.500000 68.370587
943.500000 68.712735
943.500000 69.055724
943.500000 69.399556
943.500000 69.744229
943.500000 70.089743
943.500000 70.436100
943.500000 70.783298
943.500000 71.131337
943.500000 71.480219
943.500000 71.829942
943.500000 72.180507
943.500000 72.531913
943.500000 72.884161
943.500000 73.237251
943.500000 73.591183
943.500000 73.945956
943.500000 74.301571
943.500000 74.658028
943.500000 75.015326
943.500000 75.373466
943.500000 75.732448
943.500000 76.092271
943.500000 76.452936
943.500000 76.814443
943.500000 77.176792
943.500000 77.539982
943.500000 77.904014
943.500000 78.268887
943.500000 78.634602
943.500000 79.001159
943.500000 79.368558
943.500000 79.736798
943.500000 80.105880
943.500000 80.475804
943.500000 80.846570
943.500000 81.218177
943.500000 81.590625
943.500000 81.963916
943.500000 82.338048
943.500000 82.713022
943.500000 83.088838
943.500000 83.465495
943.500000 83.842994
943.500000 84.221334
943.500000 84.600517
943.500000 84.980541
943.500000 85.361406
943.500000 85.743114
943.500000 86.125663
943.500000 86.509054
943.500000 86.893286
943.500000 87.278360
943.500000 87.664276
943.500000 88.051034
943.500000 88.438633
943.500000 88.827074
943.500000 89.216357
943.500000 89.606481
943.500000 89.997447
943.500000 90.389255
943.500000 90.781904
943.500000 91.175395
943.500000 91.569728
943.500000 91.964903
943.500000 92.360919
943.500000 92.757777
943.500000 93.155476
943.500000 93.554017
943.500000 93.953400
943.500000 94.353625
943.500000 94.754691
943.500000 95.156599
943.500000 95.559349
943.500000 95.962940
943.500000 96.367374
943.500000 96.772648
943.500000 97.178765
943.500000 97.585723
943.500000 97.993523
943.500000 98.402164
943.500000 98.811648
943.500000 99.221973
943.500000 99.633139
943.500000 100.045148
943.500000 100.457998
943.500000 100.871689
943.500000 101.286223
943.500000 101.701598
943.500000 102.117815
943.500000 102.534873
943.500000 102.952773
943.500000 103.371515
943.500000 103.791099
943.500000 104.211524
943.500000 104.632791
943.500000 105.054900
943.500000 105.477850
943.500000 105.901642
943.500000 106.326276
943.500000 106.751751
943.500000 107.178068
943.500000 107.605227
943.500000 108.033227
943.500000 108.462070
943.500000 108.891753
943.500000 109.322279
943.500000 109.753646
943.500000 110.185855
943.500000 110.618906
943.500000 111.052798
943.500000 111.487532
943.500000 111.923108
943.500000 112.359525
943.500000 112.796784
943.500000 113.234885
943.500000 113.673828
943.500000 114.113612
943.500000 114.554238
943.500000 114.995705
943.500000 115.438014
943.500000 115.881165
943.500000 116.325158
943.500000 116.769992
943.500000 117.215668
943.500000 117.662186
943.500000 118.109545
943.500000 118.557746
943.500000 119.006789
943.500000 119.456674
943.500000 119.907400
943.500000 120.358968
943.500000 120.811377
943.500000 121.264629
943.500000 121.718722
943.500000 122.173656
943.500000 122.629432
943.500000 123.086050
943.500000 123.543510
943.500000 124.001812
943.500000 124.460955
943.500000 124.920939
943.500000 125.381766
943.500000 125.843434
943.500000 126.305944
943.500000 126.769296
943.500000 127.233489
943.500000 127.698524
943.500000 128.164400
943.500000 128.631119
943.500000 129.098679
943.500000 129.567080
943.500000 130.036324
943.500000 130.506409
943.500000 130.977336
943.500000 131.449104
943.500000 131.921714
943.500000 132.395166
943.500000 132.869460
943.500000 133.344595
943.500000 133.820572
943.500000 134.297390
943.500000 134.775051
943.500000 135.253553
943.500000 135.732897
943.500000 136.213082
943.500000 136.694109
943.500000 137.175978
943.500000 137.658688
943.500000 138.142240
943.500000 138.626634
943.500000 139.111870
943.500000 139.597947
943.500000 140.084866
943.500000 140.572627
943.500000 141.061229
943.500000 141.550673
943.500000 142.040959
943.500000 142.532086
943.500000 143.024055
943.500000 143.516866
943.500000 144.010518
943.500000 144.505013
943.500000 145.000348
943.500000 145.496526
943.500000 145.993545
943.500000 146.491406
943.500000 146.990109
943.500000 147.489653
943.500000 147.990039
943.500000 148.491267
943.500000 148.993336
943.500000 149.496247
943.500000 150.000000
</POINTS>
</NEKTAR>

