<?xml version="1.0" encoding="utf-8" ?>
<NEKTAR>
<POINTS DIM="2" FIELDS="">
974.500000 0.000000
974.500000 0.000418
974.500000 0.001672
974.500000 0.003763
974.500000 0.006689
974.500000 0.010451
974.500000 0.015050
974.500000 0.020485
974.500000 0.026756
974.500000 0.033863
974.500000 0.041806
974.500000 0.050585
974.500000 0.060201
974.500000 0.070652
974.500000 0.081940
974.500000 0.094063
974.500000 0.107023
974.500000 0.120819
974.500000 0.135451
974.500000 0.150919
974.500000 0.167224
974.500000 0.184364
974.500000 0.202341
974.500000 0.221153
974.500000 0.240802
974.500000 0.261287
974.500000 0.282608
974.500000 0.304765
974.500000 0.327758
974.500000 0.351588
974.500000 0.376253
974.500000 0.401755
974.500000 0.428092
974.500000 0.455266
974.500000 0.483276
974.500000 0.512122
974.500000 0.541805
974.500000 0.572323
974.500000 0.603677
974.500000 0.635868
974.500000 0.668894
974.500000 0.702757
974.500000 0.737456
974.500000 0.772991
974.500000 0.809362
974.500000 0.846570
974.500000 0.884613
974.500000 0.923492
974.500000 0.963208
974.500000 1.003760
974.500000 1.045148
974.500000 1.087372
974.500000 1.130432
974.500000 1.174328
974.500000 1.219060
974.500000 1.264629
974.500000 1.311033
974.500000 1.358274
974.500000 1.406351
974.500000 1.455264
974.500000 1.505013
974.500000 1.555598
974.500000 1.607019
974.500000 1.659276
974.500000 1.712370
974.500000 1.766299
974.500000 1.821065
974.500000 1.876667
974.500000 1.933105
974.500000 1.990379
974.500000 2.048489
974.500000 2.107436
974.500000 2.167218
974.500000 2.227837
974.500000 2.289291
974.500000 2.351582
974.500000 2.414709
974.500000 2.478672
974.500000 2.543471
974.500000 2.609106
974.500000 2.675578
974.500000 2.742885
974.500000 2.811029
974.500000 2.880009
974.500000 2.949825
974.500000 3.020477
974.500000 3.091965
974.500000 3.164289
974.500000 3.237449
974.500000 3.311446
974.500000 3.386278
974.500000 3.461947
974.500000 3.538452
974.500000 3.615793
974.500000 3.693970
974.500000 3.772983
974.500000 3.852832
974.500000 3.933517
974.500000 4.015039
974.500000 4.097397
974.500000 4.180590
974.500000 4.264620
974.500000 4.349486
974.500000 4.435188
974.500000 4.521727
974.500000 4.609101
974.500000 4.697311
974.500000 4.786358
974.500000 4.876241
974.500000 4.966959
974.500000 5.058514
974.500000 5.150905
974.500000 5.244133
974.500000 5.338196
974.500000 5.433095
974.500000 5.528831
974.500000 5.625402
974.500000 5.722810
974.500000 5.821054
974.500000 5.920134
974.500000 6.020050
974.500000 6.120802
974.500000 6.222391
974.500000 6.324815
974.500000 6.428076
974.500000 6.532172
974.500000 6.637105
974.500000 6.742874
974.500000 6.849479
974.500000 6.956920
974.500000 7.065198
974.500000 7.174311
974.500000 7.284261
974.500000 7.395046
974.500000 7.506668
974.500000 7.619126
974.500000 7.732420
974.500000 7.846550
974.500000 7.961516
974.500000 8.077319
974.500000 8.193957
974.500000 8.311432
974.500000 8.429742
974.500000 8.548889
974.500000 8.668872
974.500000 8.789691
974.500000 8.911346
974.500000 9.033838
974.500000 9.157165
974.500000 9.281329
974.500000 9.406328
974.500000 9.532164
974.500000 9.658836
974.500000 9.786344
974.500000 9.914688
974.500000 10.043868
974.500000 10.173885
974.500000 10.304737
974.500000 10.436426
974.500000 10.568950
974.500000 10.702311
974.500000 10.836508
974.500000 10.971541
974.500000 11.107411
974.500000 11.244116
974.500000 11.381657
974.500000 11.520035
974.500000 11.659248
974.500000 11.799298
974.500000 11.940184
974.500000 12.081906
974.500000 12.224464
974.500000 12.367859
974.500000 12.512089
974.500000 12.657155
974.500000 12.803058
974.500000 12.949797
974.500000 13.097372
974.500000 13.245782
974.500000 13.395030
974.500000 13.545113
974.500000 13.696032
974.500000 13.847787
974.500000 14.000379
974.500000 14.153807
974.500000 14.308070
974.500000 14.463170
974.500000 14.619106
974.500000 14.775879
974.500000 14.933487
974.500000 15.091931
974.500000 15.251212
974.500000 15.411328
974.500000 15.572281
974.500000 15.734070
974.500000 15.896695
974.500000 16.060156
974.500000 16.224453
974.500000 16.389586
974.500000 16.555556
974.500000 16.722361
974.500000 16.890003
974.500000 17.058481
974.500000 17.227795
974.500000 17.397945
974.500000 17.568931
974.500000 17.740753
974.500000 17.913412
974.500000 18.086906
974.500000 18.261237
974.500000 18.436403
974.500000 18.612406
974.500000 18.789245
974.500000 18.966920
974.500000 19.145432
974.500000 19.324779
974.500000 19.504962
974.500000 19.685982
974.500000 19.867838
974.500000 20.050529
974.500000 20.234057
974.500000 20.418421
974.500000 20.603622
974.500000 20.789658
974.500000 20.976530
974.500000 21.164239
974.500000 21.352783
974.500000 21.542164
974.500000 21.732381
974.500000 21.923434
974.500000 22.115323
974.500000 22.308048
974.500000 22.501610
974.500000 22.696007
974.500000 22.891241
974.500000 23.087310
974.500000 23.284216
974.500000 23.481958
974.500000 23.680536
974.500000 23.879950
974.500000 24.080200
974.500000 24.281287
974.500000 24.483209
974.500000 24.685968
974.500000 24.889563
974.500000 25.093994
974.500000 25.299261
974.500000 25.505364
974.500000 25.712303
974.500000 25.920078
974.500000 26.128690
974.500000 26.338137
974.500000 26.548421
974.500000 26.759541
974.500000 26.971497
974.500000 27.184289
974.500000 27.397917
974.500000 27.612381
974.500000 27.827682
974.500000 28.043818
974.500000 28.260791
974.500000 28.478600
974.500000 28.697244
974.500000 28.916725
974.500000 29.137043
974.500000 29.358196
974.500000 29.580185
974.500000 29.803011
974.500000 30.026672
974.500000 30.251170
974.500000 30.476504
974.500000 30.702674
974.500000 30.929680
974.500000 31.157522
974.500000 31.386200
974.500000 31.615715
974.500000 31.846065
974.500000 32.077252
974.500000 32.309275
974.500000 32.542133
974.500000 32.775828
974.500000 33.010360
974.500000 33.245727
974.500000 33.481930
974.500000 33.718970
974.500000 33.956845
974.500000 34.195557
974.500000 34.435105
974.500000 34.675489
974.500000 34.916709
974.500000 35.158765
974.500000 35.401657
974.500000 35.645386
974.500000 35.889950
974.500000 36.135351
974.500000 36.381588
974.500000 36.628660
974.500000 36.876569
974.500000 37.125315
974.500000 37.374896
974.500000 37.625313
974.500000 37.876567
974.500000 38.128656
974.500000 38.381582
974.500000 38.635344
974.500000 38.889942
974.500000 39.145376
974.500000 39.401646
974.500000 39.658752
974.500000 39.916695
974.500000 40.175473
974.500000 40.435088
974.500000 40.695539
974.500000 40.956826
974.500000 41.218949
974.500000 41.481908
974.500000 41.745703
974.500000 42.010334
974.500000 42.275802
974.500000 42.542106
974.500000 42.809245
974.500000 43.077221
974.500000 43.346033
974.500000 43.615681
974.500000 43.886165
974.500000 44.157486
974.500000 44.429642
974.500000 44.702635
974.500000 44.976463
974.500000 45.251128
974.500000 45.526629
974.500000 45.802966
974.500000 46.080139
974.500000 46.358148
974.500000 46.636994
974.500000 46.916675
974.500000 47.197193
974.500000 47.478547
974.500000 47.760736
974.500000 48.043762
974.500000 48.327625
974.500000 48.612323
974.500000 48.897857
974.500000 49.184227
974.500000 49.471434
974.500000 49.759477
974.500000 50.048355
974.500000 50.338070
974.500000 50.628621
974.500000 50.920009
974.500000 51.212232
974.500000 51.505291
974.500000 51.799187
974.500000 52.093918
974.500000 52.389486
974.500000 52.685890
974.500000 52.983130
974.500000 53.281206
974.500000 53.580118
974.500000 53.879867
974.500000 54.180451
974.500000 54.481872
974.500000 54.784128
974.500000 55.087221
974.500000 55.391150
974.500000 55.695915
974.500000 56.001516
974.500000 56.307953
974.500000 56.615227
974.500000 56.923336
974.500000 57.232282
974.500000 57.542064
974.500000 57.852682
974.500000 58.164136
974.500000 58.476426
974.500000 58.789552
974.500000 59.103514
974.500000 59.418313
974.500000 59.733947
974.500000 60.050418
974.500000 60.367725
974.500000 60.685868
974.500000 61.004847
974.500000 61.324662
974.500000 61.645313
974.500000 61.966801
974.500000 62.289124
974.500000 62.612284
974.500000 62.936279
974.500000 63.261111
974.500000 63.586779
974.500000 63.913283
974.500000 64.240624
974.500000 64.568800
974.500000 64.897812
974.500000 65.227661
974.500000 65.558346
974.500000 65.889867
974.500000 66.222223
974.500000 66.555417
974.500000 66.889446
974.500000 67.224311
974.500000 67.560012
974.500000 67.896550
974.500000 68.233924
974.500000 68.572133
974.500000 68.911179
974.500000 69.251061
974.500000 69.591779
974.500000 69.933334
974.500000 70.275724
974.500000 70.618950
974.500000 70.963013
974.500000 71.307912
974.500000 71.653646
974.500000 72.000217
974.500000 72.347624
974.500000 72.695868
974.500000 73.044947
974.500000 73.394862
974.500000 73.745614
974.500000 74.097202
974.500000 74.449625
974.500000 74.802885
974.500000 75.156981
974.500000 75.511913
974.500000 75.867682
974.500000 76.224286
974.500000 76.581726
974.500000 76.940003
974.500000 77.299116
974.500000 77.659064
974.500000 78.019849
974.500000 78.381471
974.500000 78.743928
974.500000 79.107221
974.500000 79.471350
974.500000 79.836316
974.500000 80.202118
974.500000 80.568755
974.500000 80.936229
974.500000 81.304539
974.500000 81.673685
974.500000 82.043668
974.500000 82.414486
974.500000 82.786141
974.500000 83.158631
974.500000 83.531958
974.500000 83.906121
974.500000 84.281120
974.500000 84.656955
974.500000 85.033626
974.500000 85.411133
974.500000 85.789477
974.500000 86.168656
974.500000 86.548672
974.500000 86.929524
974.500000 87.311212
974.500000 87.693736
974.500000 88.077096
974.500000 88.461292
974.500000 88.846324
974.500000 89.232193
974.500000 89.618897
974.500000 90.006438
974.500000 90.394815
974.500000 90.784028
974.500000 91.174077
974.500000 91.564962
974.500000 91.956684
974.500000 92.349241
974.500000 92.742634
974.500000 93.136864
974.500000 93.531930
974.500000 93.927832
974.500000 94.324570
974.500000 94.722144
974.500000 95.120554
974.500000 95.519801
974.500000 95.919883
974.500000 96.320802
974.500000 96.722557
974.500000 97.125147
974.500000 97.528574
974.500000 97.932837
974.500000 98.337937
974.500000 98.743872
974.500000 99.150643
974.500000 99.558251
974.500000 99.966695
974.500000 100.375974
974.500000 100.786090
974.500000 101.197042
974.500000 101.608831
974.500000 102.021455
974.500000 102.434915
974.500000 102.849212
974.500000 103.264344
974.500000 103.680313
974.500000 104.097118
974.500000 104.514759
974.500000 104.933236
974.500000 105.352549
974.500000 105.772699
974.500000 106.193684
974.500000 106.615506
974.500000 107.038163
974.500000 107.461657
974.500000 107.885987
974.500000 108.311153
974.500000 108.737155
974.500000 109.163993
974.500000 109.591668
974.500000 110.020178
974.500000 110.449525
974.500000 110.879708
974.500000 111.310727
974.500000 111.742582
974.500000 112.175273
974.500000 112.608800
974.500000 113.043163
974.500000 113.478363
974.500000 113.914398
974.500000 114.351270
974.500000 114.788978
974.500000 115.227522
974.500000 115.666902
974.500000 116.107118
974.500000 116.548170
974.500000 116.990059
974.500000 117.432783
974.500000 117.876344
974.500000 118.320740
974.500000 118.765973
974.500000 119.212042
974.500000 119.658947
974.500000 120.106689
974.500000 120.555266
974.500000 121.004679
974.500000 121.454929
974.500000 121.906015
974.500000 122.357937
974.500000 122.810695
974.500000 123.264289
974.500000 123.718719
974.500000 124.173985
974.500000 124.630087
974.500000 125.087026
974.500000 125.544801
974.500000 126.003411
974.500000 126.462858
974.500000 126.923141
974.500000 127.384260
974.500000 127.846216
974.500000 128.309007
974.500000 128.772634
974.500000 129.237098
974.500000 129.702398
974.500000 130.168534
974.500000 130.635505
974.500000 131.103314
974.500000 131.571958
974.500000 132.041438
974.500000 132.511754
974.500000 132.982907
974.500000 133.454896
974.500000 133.927720
974.500000 134.401381
974.500000 134.875878
974.500000 135.351211
974.500000 135.827381
974.500000 136.304386
974.500000 136.782227
974.500000 137.260905
974.500000 137.740419
974.500000 138.220769
974.500000 138.701955
974.500000 139.183977
974.500000 139.666835
974.500000 140.150529
974.500000 140.635060
974.500000 141.120426
974.500000 141.606629
974.500000 142.093668
974.500000 142.581542
974.500000 143.070253
974.500000 143.559801
974.500000 144.050184
974.500000 144.541403
974.500000 145.033459
974.500000 145.526350
974.500000 146.020078
974.500000 146.514642
974.500000 147.010042
974.500000 147.506278
974.500000 148.003350
974.500000 148.501258
974.500000 149.000003
974.500000 149.499583
974.500000 150.000000
</POINTS>
</NEKTAR>

