<?xml version="1.0" encoding="utf-8" ?>
<NEKTAR>
<POINTS DIM="2" FIELDS="">
694.500000 0.000000
694.500000 0.000418
694.500000 0.001672
694.500000 0.003763
694.500000 0.006689
694.500000 0.010451
694.500000 0.015050
694.500000 0.020485
694.500000 0.026756
694.500000 0.033863
694.500000 0.041806
694.500000 0.050585
694.500000 0.060201
694.500000 0.070652
694.500000 0.081940
694.500000 0.094063
694.500000 0.107023
694.500000 0.120819
694.500000 0.135451
694.500000 0.150919
694.500000 0.167224
694.500000 0.184364
694.500000 0.202341
694.500000 0.221153
694.500000 0.240802
694.500000 0.261287
694.500000 0.282608
694.500000 0.304765
694.500000 0.327758
694.500000 0.351588
694.500000 0.376253
694.500000 0.401755
694.500000 0.428092
694.500000 0.455266
694.500000 0.483276
694.500000 0.512122
694.500000 0.541805
694.500000 0.572323
694.500000 0.603677
694.500000 0.635868
694.500000 0.668894
694.500000 0.702757
694.500000 0.737456
694.500000 0.772991
694.500000 0.809362
694.500000 0.846570
694.500000 0.884613
694.500000 0.923492
694.500000 0.963208
694.500000 1.003760
694.500000 1.045148
694.500000 1.087372
694.500000 1.130432
694.500000 1.174328
694.500000 1.219060
694.500000 1.264629
694.500000 1.311033
694.500000 1.358274
694.500000 1.406351
694.500000 1.455264
694.500000 1.505013
694.500000 1.555598
694.500000 1.607019
694.500000 1.659276
694.500000 1.712370
694.500000 1.766299
694.500000 1.821065
694.500000 1.876667
694.500000 1.933105
694.500000 1.990379
694.500000 2.048489
694.500000 2.107436
694.500000 2.167218
694.500000 2.227837
694.500000 2.289291
694.500000 2.351582
694.500000 2.414709
694.500000 2.478672
694.500000 2.543471
694.500000 2.609106
694.500000 2.675578
694.500000 2.742885
694.500000 2.811029
694.500000 2.880009
694.500000 2.949825
694.500000 3.020477
694.500000 3.091965
694.500000 3.164289
694.500000 3.237449
694.500000 3.311446
694.500000 3.386278
694.500000 3.461947
694.500000 3.538452
694.500000 3.615793
694.500000 3.693970
694.500000 3.772983
694.500000 3.852832
694.500000 3.933517
694.500000 4.015039
694.500000 4.097397
694.500000 4.180590
694.500000 4.264620
694.500000 4.349486
694.500000 4.435188
694.500000 4.521727
694.500000 4.609101
694.500000 4.697311
694.500000 4.786358
694.500000 4.876241
694.500000 4.966959
694.500000 5.058514
694.500000 5.150905
694.500000 5.244133
694.500000 5.338196
694.500000 5.433095
694.500000 5.528831
694.500000 5.625402
694.500000 5.722810
694.500000 5.821054
694.500000 5.920134
694.500000 6.020050
694.500000 6.120802
694.500000 6.222391
694.500000 6.324815
694.500000 6.428076
694.500000 6.532172
694.500000 6.637105
694.500000 6.742874
694.500000 6.849479
694.500000 6.956920
694.500000 7.065198
694.500000 7.174311
694.500000 7.284261
694.500000 7.395046
694.500000 7.506668
694.500000 7.619126
694.500000 7.732420
694.500000 7.846550
694.500000 7.961516
694.500000 8.077319
694.500000 8.193957
694.500000 8.311432
694.500000 8.429742
694.500000 8.548889
694.500000 8.668872
694.500000 8.789691
694.500000 8.911346
694.500000 9.033838
694.500000 9.157165
694.500000 9.281329
694.500000 9.406328
694.500000 9.532164
694.500000 9.658836
694.500000 9.786344
694.500000 9.914688
694.500000 10.043868
694.500000 10.173885
694.500000 10.304737
694.500000 10.436426
694.500000 10.568950
694.500000 10.702311
694.500000 10.836508
694.500000 10.971541
694.500000 11.107411
694.500000 11.244116
694.500000 11.381657
694.500000 11.520035
694.500000 11.659248
694.500000 11.799298
694.500000 11.940184
694.500000 12.081906
694.500000 12.224464
694.500000 12.367859
694.500000 12.512089
694.500000 12.657155
694.500000 12.803058
694.500000 12.949797
694.500000 13.097372
694.500000 13.245782
694.500000 13.395030
694.500000 13.545113
694.500000 13.696032
694.500000 13.847787
694.500000 14.000379
694.500000 14.153807
694.500000 14.308070
694.500000 14.463170
694.500000 14.619106
694.500000 14.775879
694.500000 14.933487
694.500000 15.091931
694.500000 15.251212
694.500000 15.411328
694.500000 15.572281
694.500000 15.734070
694.500000 15.896695
694.500000 16.060156
694.500000 16.224453
694.500000 16.389586
694.500000 16.555556
694.500000 16.722361
694.500000 16.890003
694.500000 17.058481
694.500000 17.227795
694.500000 17.397945
694.500000 17.568931
694.500000 17.740753
694.500000 17.913412
694.500000 18.086906
694.500000 18.261237
694.500000 18.436403
694.500000 18.612406
694.500000 18.789245
694.500000 18.966920
694.500000 19.145432
694.500000 19.324779
694.500000 19.504962
694.500000 19.685982
694.500000 19.867838
694.500000 20.050529
694.500000 20.234057
694.500000 20.418421
694.500000 20.603622
694.500000 20.789658
694.500000 20.976530
694.500000 21.164239
694.500000 21.352783
694.500000 21.542164
694.500000 21.732381
694.500000 21.923434
694.500000 22.115323
694.500000 22.308048
694.500000 22.501610
694.500000 22.696007
694.500000 22.891241
694.500000 23.087310
694.500000 23.284216
694.500000 23.481958
694.500000 23.680536
694.500000 23.879950
694.500000 24.080200
694.500000 24.281287
694.500000 24.483209
694.500000 24.685968
694.500000 24.889563
694.500000 25.093994
694.500000 25.299261
694.500000 25.505364
694.500000 25.712303
694.500000 25.920078
694.500000 26.128690
694.500000 26.338137
694.500000 26.548421
694.500000 26.759541
694.500000 26.971497
694.500000 27.184289
694.500000 27.397917
694.500000 27.612381
694.500000 27.827682
694.500000 28.043818
694.500000 28.260791
694.500000 28.478600
694.500000 28.697244
694.500000 28.916725
694.500000 29.137043
694.500000 29.358196
694.500000 29.580185
694.500000 29.803011
694.500000 30.026672
694.500000 30.251170
694.500000 30.476504
694.500000 30.702674
694.500000 30.929680
694.500000 31.157522
694.500000 31.386200
694.500000 31.615715
694.500000 31.846065
694.500000 32.077252
694.500000 32.309275
694.500000 32.542133
694.500000 32.775828
694.500000 33.010360
694.500000 33.245727
694.500000 33.481930
694.500000 33.718970
694.500000 33.956845
694.500000 34.195557
694.500000 34.435105
694.500000 34.675489
694.500000 34.916709
694.500000 35.158765
694.500000 35.401657
694.500000 35.645386
694.500000 35.889950
694.500000 36.135351
694.500000 36.381588
694.500000 36.628660
694.500000 36.876569
694.500000 37.125315
694.500000 37.374896
694.500000 37.625313
694.500000 37.876567
694.500000 38.128656
694.500000 38.381582
694.500000 38.635344
694.500000 38.889942
694.500000 39.145376
694.500000 39.401646
694.500000 39.658752
694.500000 39.916695
694.500000 40.175473
694.500000 40.435088
694.500000 40.695539
694.500000 40.956826
694.500000 41.218949
694.500000 41.481908
694.500000 41.745703
694.500000 42.010334
694.500000 42.275802
694.500000 42.542106
694.500000 42.809245
694.500000 43.077221
694.500000 43.346033
694.500000 43.615681
694.500000 43.886165
694.500000 44.157486
694.500000 44.429642
694.500000 44.702635
694.500000 44.976463
694.500000 45.251128
694.500000 45.526629
694.500000 45.802966
694.500000 46.080139
694.500000 46.358148
694.500000 46.636994
694.500000 46.916675
694.500000 47.197193
694.500000 47.478547
694.500000 47.760736
694.500000 48.043762
694.500000 48.327625
694.500000 48.612323
694.500000 48.897857
694.500000 49.184227
694.500000 49.471434
694.500000 49.759477
694.500000 50.048355
694.500000 50.338070
694.500000 50.628621
694.500000 50.920009
694.500000 51.212232
694.500000 51.505291
694.500000 51.799187
694.500000 52.093918
694.500000 52.389486
694.500000 52.685890
694.500000 52.983130
694.500000 53.281206
694.500000 53.580118
694.500000 53.879867
694.500000 54.180451
694.500000 54.481872
694.500000 54.784128
694.500000 55.087221
694.500000 55.391150
694.500000 55.695915
694.500000 56.001516
694.500000 56.307953
694.500000 56.615227
694.500000 56.923336
694.500000 57.232282
694.500000 57.542064
694.500000 57.852682
694.500000 58.164136
694.500000 58.476426
694.500000 58.789552
694.500000 59.103514
694.500000 59.418313
694.500000 59.733947
694.500000 60.050418
694.500000 60.367725
694.500000 60.685868
694.500000 61.004847
694.500000 61.324662
694.500000 61.645313
694.500000 61.966801
694.500000 62.289124
694.500000 62.612284
694.500000 62.936279
694.500000 63.261111
694.500000 63.586779
694.500000 63.913283
694.500000 64.240624
694.500000 64.568800
694.500000 64.897812
694.500000 65.227661
694.500000 65.558346
694.500000 65.889867
694.500000 66.222223
694.500000 66.555417
694.500000 66.889446
694.500000 67.224311
694.500000 67.560012
694.500000 67.896550
694.500000 68.233924
694.500000 68.572133
694.500000 68.911179
694.500000 69.251061
694.500000 69.591779
694.500000 69.933334
694.500000 70.275724
694.500000 70.618950
694.500000 70.963013
694.500000 71.307912
694.500000 71.653646
694.500000 72.000217
694.500000 72.347624
694.500000 72.695868
694.500000 73.044947
694.500000 73.394862
694.500000 73.745614
694.500000 74.097202
694.500000 74.449625
694.500000 74.802885
694.500000 75.156981
694.500000 75.511913
694.500000 75.867682
694.500000 76.224286
694.500000 76.581726
694.500000 76.940003
694.500000 77.299116
694.500000 77.659064
694.500000 78.019849
694.500000 78.381471
694.500000 78.743928
694.500000 79.107221
694.500000 79.471350
694.500000 79.836316
694.500000 80.202118
694.500000 80.568755
694.500000 80.936229
694.500000 81.304539
694.500000 81.673685
694.500000 82.043668
694.500000 82.414486
694.500000 82.786141
694.500000 83.158631
694.500000 83.531958
694.500000 83.906121
694.500000 84.281120
694.500000 84.656955
694.500000 85.033626
694.500000 85.411133
694.500000 85.789477
694.500000 86.168656
694.500000 86.548672
694.500000 86.929524
694.500000 87.311212
694.500000 87.693736
694.500000 88.077096
694.500000 88.461292
694.500000 88.846324
694.500000 89.232193
694.500000 89.618897
694.500000 90.006438
694.500000 90.394815
694.500000 90.784028
694.500000 91.174077
694.500000 91.564962
694.500000 91.956684
694.500000 92.349241
694.500000 92.742634
694.500000 93.136864
694.500000 93.531930
694.500000 93.927832
694.500000 94.324570
694.500000 94.722144
694.500000 95.120554
694.500000 95.519801
694.500000 95.919883
694.500000 96.320802
694.500000 96.722557
694.500000 97.125147
694.500000 97.528574
694.500000 97.932837
694.500000 98.337937
694.500000 98.743872
694.500000 99.150643
694.500000 99.558251
694.500000 99.966695
694.500000 100.375974
694.500000 100.786090
694.500000 101.197042
694.500000 101.608831
694.500000 102.021455
694.500000 102.434915
694.500000 102.849212
694.500000 103.264344
694.500000 103.680313
694.500000 104.097118
694.500000 104.514759
694.500000 104.933236
694.500000 105.352549
694.500000 105.772699
694.500000 106.193684
694.500000 106.615506
694.500000 107.038163
694.500000 107.461657
694.500000 107.885987
694.500000 108.311153
694.500000 108.737155
694.500000 109.163993
694.500000 109.591668
694.500000 110.020178
694.500000 110.449525
694.500000 110.879708
694.500000 111.310727
694.500000 111.742582
694.500000 112.175273
694.500000 112.608800
694.500000 113.043163
694.500000 113.478363
694.500000 113.914398
694.500000 114.351270
694.500000 114.788978
694.500000 115.227522
694.500000 115.666902
694.500000 116.107118
694.500000 116.548170
694.500000 116.990059
694.500000 117.432783
694.500000 117.876344
694.500000 118.320740
694.500000 118.765973
694.500000 119.212042
694.500000 119.658947
694.500000 120.106689
694.500000 120.555266
694.500000 121.004679
694.500000 121.454929
694.500000 121.906015
694.500000 122.357937
694.500000 122.810695
694.500000 123.264289
694.500000 123.718719
694.500000 124.173985
694.500000 124.630087
694.500000 125.087026
694.500000 125.544801
694.500000 126.003411
694.500000 126.462858
694.500000 126.923141
694.500000 127.384260
694.500000 127.846216
694.500000 128.309007
694.500000 128.772634
694.500000 129.237098
694.500000 129.702398
694.500000 130.168534
694.500000 130.635505
694.500000 131.103314
694.500000 131.571958
694.500000 132.041438
694.500000 132.511754
694.500000 132.982907
694.500000 133.454896
694.500000 133.927720
694.500000 134.401381
694.500000 134.875878
694.500000 135.351211
694.500000 135.827381
694.500000 136.304386
694.500000 136.782227
694.500000 137.260905
694.500000 137.740419
694.500000 138.220769
694.500000 138.701955
694.500000 139.183977
694.500000 139.666835
694.500000 140.150529
694.500000 140.635060
694.500000 141.120426
694.500000 141.606629
694.500000 142.093668
694.500000 142.581542
694.500000 143.070253
694.500000 143.559801
694.500000 144.050184
694.500000 144.541403
694.500000 145.033459
694.500000 145.526350
694.500000 146.020078
694.500000 146.514642
694.500000 147.010042
694.500000 147.506278
694.500000 148.003350
694.500000 148.501258
694.500000 149.000003
694.500000 149.499583
694.500000 150.000000
</POINTS>
</NEKTAR>

