<?xml version="1.0" encoding="utf-8" ?>
<NEKTAR>
<POINTS DIM="2" FIELDS="">
27.500000 0.000000
27.500000 0.000418
27.500000 0.001672
27.500000 0.003763
27.500000 0.006689
27.500000 0.010451
27.500000 0.015050
27.500000 0.020485
27.500000 0.026756
27.500000 0.033863
27.500000 0.041806
27.500000 0.050585
27.500000 0.060201
27.500000 0.070652
27.500000 0.081940
27.500000 0.094063
27.500000 0.107023
27.500000 0.120819
27.500000 0.135451
27.500000 0.150919
27.500000 0.167224
27.500000 0.184364
27.500000 0.202341
27.500000 0.221153
27.500000 0.240802
27.500000 0.261287
27.500000 0.282608
27.500000 0.304765
27.500000 0.327758
27.500000 0.351588
27.500000 0.376253
27.500000 0.401755
27.500000 0.428092
27.500000 0.455266
27.500000 0.483276
27.500000 0.512122
27.500000 0.541805
27.500000 0.572323
27.500000 0.603677
27.500000 0.635868
27.500000 0.668894
27.500000 0.702757
27.500000 0.737456
27.500000 0.772991
27.500000 0.809362
27.500000 0.846570
27.500000 0.884613
27.500000 0.923492
27.500000 0.963208
27.500000 1.003760
27.500000 1.045148
27.500000 1.087372
27.500000 1.130432
27.500000 1.174328
27.500000 1.219060
27.500000 1.264629
27.500000 1.311033
27.500000 1.358274
27.500000 1.406351
27.500000 1.455264
27.500000 1.505013
27.500000 1.555598
27.500000 1.607019
27.500000 1.659276
27.500000 1.712370
27.500000 1.766299
27.500000 1.821065
27.500000 1.876667
27.500000 1.933105
27.500000 1.990379
27.500000 2.048489
27.500000 2.107436
27.500000 2.167218
27.500000 2.227837
27.500000 2.289291
27.500000 2.351582
27.500000 2.414709
27.500000 2.478672
27.500000 2.543471
27.500000 2.609106
27.500000 2.675578
27.500000 2.742885
27.500000 2.811029
27.500000 2.880009
27.500000 2.949825
27.500000 3.020477
27.500000 3.091965
27.500000 3.164289
27.500000 3.237449
27.500000 3.311446
27.500000 3.386278
27.500000 3.461947
27.500000 3.538452
27.500000 3.615793
27.500000 3.693970
27.500000 3.772983
27.500000 3.852832
27.500000 3.933517
27.500000 4.015039
27.500000 4.097397
27.500000 4.180590
27.500000 4.264620
27.500000 4.349486
27.500000 4.435188
27.500000 4.521727
27.500000 4.609101
27.500000 4.697311
27.500000 4.786358
27.500000 4.876241
27.500000 4.966959
27.500000 5.058514
27.500000 5.150905
27.500000 5.244133
27.500000 5.338196
27.500000 5.433095
27.500000 5.528831
27.500000 5.625402
27.500000 5.722810
27.500000 5.821054
27.500000 5.920134
27.500000 6.020050
27.500000 6.120802
27.500000 6.222391
27.500000 6.324815
27.500000 6.428076
27.500000 6.532172
27.500000 6.637105
27.500000 6.742874
27.500000 6.849479
27.500000 6.956920
27.500000 7.065198
27.500000 7.174311
27.500000 7.284261
27.500000 7.395046
27.500000 7.506668
27.500000 7.619126
27.500000 7.732420
27.500000 7.846550
27.500000 7.961516
27.500000 8.077319
27.500000 8.193957
27.500000 8.311432
27.500000 8.429742
27.500000 8.548889
27.500000 8.668872
27.500000 8.789691
27.500000 8.911346
27.500000 9.033838
27.500000 9.157165
27.500000 9.281329
27.500000 9.406328
27.500000 9.532164
27.500000 9.658836
27.500000 9.786344
27.500000 9.914688
27.500000 10.043868
27.500000 10.173885
27.500000 10.304737
27.500000 10.436426
27.500000 10.568950
27.500000 10.702311
27.500000 10.836508
27.500000 10.971541
27.500000 11.107411
27.500000 11.244116
27.500000 11.381657
27.500000 11.520035
27.500000 11.659248
27.500000 11.799298
27.500000 11.940184
27.500000 12.081906
27.500000 12.224464
27.500000 12.367859
27.500000 12.512089
27.500000 12.657155
27.500000 12.803058
27.500000 12.949797
27.500000 13.097372
27.500000 13.245782
27.500000 13.395030
27.500000 13.545113
27.500000 13.696032
27.500000 13.847787
27.500000 14.000379
27.500000 14.153807
27.500000 14.308070
27.500000 14.463170
27.500000 14.619106
27.500000 14.775879
27.500000 14.933487
27.500000 15.091931
27.500000 15.251212
27.500000 15.411328
27.500000 15.572281
27.500000 15.734070
27.500000 15.896695
27.500000 16.060156
27.500000 16.224453
27.500000 16.389586
27.500000 16.555556
27.500000 16.722361
27.500000 16.890003
27.500000 17.058481
27.500000 17.227795
27.500000 17.397945
27.500000 17.568931
27.500000 17.740753
27.500000 17.913412
27.500000 18.086906
27.500000 18.261237
27.500000 18.436403
27.500000 18.612406
27.500000 18.789245
27.500000 18.966920
27.500000 19.145432
27.500000 19.324779
27.500000 19.504962
27.500000 19.685982
27.500000 19.867838
27.500000 20.050529
27.500000 20.234057
27.500000 20.418421
27.500000 20.603622
27.500000 20.789658
27.500000 20.976530
27.500000 21.164239
27.500000 21.352783
27.500000 21.542164
27.500000 21.732381
27.500000 21.923434
27.500000 22.115323
27.500000 22.308048
27.500000 22.501610
27.500000 22.696007
27.500000 22.891241
27.500000 23.087310
27.500000 23.284216
27.500000 23.481958
27.500000 23.680536
27.500000 23.879950
27.500000 24.080200
27.500000 24.281287
27.500000 24.483209
27.500000 24.685968
27.500000 24.889563
27.500000 25.093994
27.500000 25.299261
27.500000 25.505364
27.500000 25.712303
27.500000 25.920078
27.500000 26.128690
27.500000 26.338137
27.500000 26.548421
27.500000 26.759541
27.500000 26.971497
27.500000 27.184289
27.500000 27.397917
27.500000 27.612381
27.500000 27.827682
27.500000 28.043818
27.500000 28.260791
27.500000 28.478600
27.500000 28.697244
27.500000 28.916725
27.500000 29.137043
27.500000 29.358196
27.500000 29.580185
27.500000 29.803011
27.500000 30.026672
27.500000 30.251170
27.500000 30.476504
27.500000 30.702674
27.500000 30.929680
27.500000 31.157522
27.500000 31.386200
27.500000 31.615715
27.500000 31.846065
27.500000 32.077252
27.500000 32.309275
27.500000 32.542133
27.500000 32.775828
27.500000 33.010360
27.500000 33.245727
27.500000 33.481930
27.500000 33.718970
27.500000 33.956845
27.500000 34.195557
27.500000 34.435105
27.500000 34.675489
27.500000 34.916709
27.500000 35.158765
27.500000 35.401657
27.500000 35.645386
27.500000 35.889950
27.500000 36.135351
27.500000 36.381588
27.500000 36.628660
27.500000 36.876569
27.500000 37.125315
27.500000 37.374896
27.500000 37.625313
27.500000 37.876567
27.500000 38.128656
27.500000 38.381582
27.500000 38.635344
27.500000 38.889942
27.500000 39.145376
27.500000 39.401646
27.500000 39.658752
27.500000 39.916695
27.500000 40.175473
27.500000 40.435088
27.500000 40.695539
27.500000 40.956826
27.500000 41.218949
27.500000 41.481908
27.500000 41.745703
27.500000 42.010334
27.500000 42.275802
27.500000 42.542106
27.500000 42.809245
27.500000 43.077221
27.500000 43.346033
27.500000 43.615681
27.500000 43.886165
27.500000 44.157486
27.500000 44.429642
27.500000 44.702635
27.500000 44.976463
27.500000 45.251128
27.500000 45.526629
27.500000 45.802966
27.500000 46.080139
27.500000 46.358148
27.500000 46.636994
27.500000 46.916675
27.500000 47.197193
27.500000 47.478547
27.500000 47.760736
27.500000 48.043762
27.500000 48.327625
27.500000 48.612323
27.500000 48.897857
27.500000 49.184227
27.500000 49.471434
27.500000 49.759477
27.500000 50.048355
27.500000 50.338070
27.500000 50.628621
27.500000 50.920009
27.500000 51.212232
27.500000 51.505291
27.500000 51.799187
27.500000 52.093918
27.500000 52.389486
27.500000 52.685890
27.500000 52.983130
27.500000 53.281206
27.500000 53.580118
27.500000 53.879867
27.500000 54.180451
27.500000 54.481872
27.500000 54.784128
27.500000 55.087221
27.500000 55.391150
27.500000 55.695915
27.500000 56.001516
27.500000 56.307953
27.500000 56.615227
27.500000 56.923336
27.500000 57.232282
27.500000 57.542064
27.500000 57.852682
27.500000 58.164136
27.500000 58.476426
27.500000 58.789552
27.500000 59.103514
27.500000 59.418313
27.500000 59.733947
27.500000 60.050418
27.500000 60.367725
27.500000 60.685868
27.500000 61.004847
27.500000 61.324662
27.500000 61.645313
27.500000 61.966801
27.500000 62.289124
27.500000 62.612284
27.500000 62.936279
27.500000 63.261111
27.500000 63.586779
27.500000 63.913283
27.500000 64.240624
27.500000 64.568800
27.500000 64.897812
27.500000 65.227661
27.500000 65.558346
27.500000 65.889867
27.500000 66.222223
27.500000 66.555417
27.500000 66.889446
27.500000 67.224311
27.500000 67.560012
27.500000 67.896550
27.500000 68.233924
27.500000 68.572133
27.500000 68.911179
27.500000 69.251061
27.500000 69.591779
27.500000 69.933334
27.500000 70.275724
27.500000 70.618950
27.500000 70.963013
27.500000 71.307912
27.500000 71.653646
27.500000 72.000217
27.500000 72.347624
27.500000 72.695868
27.500000 73.044947
27.500000 73.394862
27.500000 73.745614
27.500000 74.097202
27.500000 74.449625
27.500000 74.802885
27.500000 75.156981
27.500000 75.511913
27.500000 75.867682
27.500000 76.224286
27.500000 76.581726
27.500000 76.940003
27.500000 77.299116
27.500000 77.659064
27.500000 78.019849
27.500000 78.381471
27.500000 78.743928
27.500000 79.107221
27.500000 79.471350
27.500000 79.836316
27.500000 80.202118
27.500000 80.568755
27.500000 80.936229
27.500000 81.304539
27.500000 81.673685
27.500000 82.043668
27.500000 82.414486
27.500000 82.786141
27.500000 83.158631
27.500000 83.531958
27.500000 83.906121
27.500000 84.281120
27.500000 84.656955
27.500000 85.033626
27.500000 85.411133
27.500000 85.789477
27.500000 86.168656
27.500000 86.548672
27.500000 86.929524
27.500000 87.311212
27.500000 87.693736
27.500000 88.077096
27.500000 88.461292
27.500000 88.846324
27.500000 89.232193
27.500000 89.618897
27.500000 90.006438
27.500000 90.394815
27.500000 90.784028
27.500000 91.174077
27.500000 91.564962
27.500000 91.956684
27.500000 92.349241
27.500000 92.742634
27.500000 93.136864
27.500000 93.531930
27.500000 93.927832
27.500000 94.324570
27.500000 94.722144
27.500000 95.120554
27.500000 95.519801
27.500000 95.919883
27.500000 96.320802
27.500000 96.722557
27.500000 97.125147
27.500000 97.528574
27.500000 97.932837
27.500000 98.337937
27.500000 98.743872
27.500000 99.150643
27.500000 99.558251
27.500000 99.966695
27.500000 100.375974
27.500000 100.786090
27.500000 101.197042
27.500000 101.608831
27.500000 102.021455
27.500000 102.434915
27.500000 102.849212
27.500000 103.264344
27.500000 103.680313
27.500000 104.097118
27.500000 104.514759
27.500000 104.933236
27.500000 105.352549
27.500000 105.772699
27.500000 106.193684
27.500000 106.615506
27.500000 107.038163
27.500000 107.461657
27.500000 107.885987
27.500000 108.311153
27.500000 108.737155
27.500000 109.163993
27.500000 109.591668
27.500000 110.020178
27.500000 110.449525
27.500000 110.879708
27.500000 111.310727
27.500000 111.742582
27.500000 112.175273
27.500000 112.608800
27.500000 113.043163
27.500000 113.478363
27.500000 113.914398
27.500000 114.351270
27.500000 114.788978
27.500000 115.227522
27.500000 115.666902
27.500000 116.107118
27.500000 116.548170
27.500000 116.990059
27.500000 117.432783
27.500000 117.876344
27.500000 118.320740
27.500000 118.765973
27.500000 119.212042
27.500000 119.658947
27.500000 120.106689
27.500000 120.555266
27.500000 121.004679
27.500000 121.454929
27.500000 121.906015
27.500000 122.357937
27.500000 122.810695
27.500000 123.264289
27.500000 123.718719
27.500000 124.173985
27.500000 124.630087
27.500000 125.087026
27.500000 125.544801
27.500000 126.003411
27.500000 126.462858
27.500000 126.923141
27.500000 127.384260
27.500000 127.846216
27.500000 128.309007
27.500000 128.772634
27.500000 129.237098
27.500000 129.702398
27.500000 130.168534
27.500000 130.635505
27.500000 131.103314
27.500000 131.571958
27.500000 132.041438
27.500000 132.511754
27.500000 132.982907
27.500000 133.454896
27.500000 133.927720
27.500000 134.401381
27.500000 134.875878
27.500000 135.351211
27.500000 135.827381
27.500000 136.304386
27.500000 136.782227
27.500000 137.260905
27.500000 137.740419
27.500000 138.220769
27.500000 138.701955
27.500000 139.183977
27.500000 139.666835
27.500000 140.150529
27.500000 140.635060
27.500000 141.120426
27.500000 141.606629
27.500000 142.093668
27.500000 142.581542
27.500000 143.070253
27.500000 143.559801
27.500000 144.050184
27.500000 144.541403
27.500000 145.033459
27.500000 145.526350
27.500000 146.020078
27.500000 146.514642
27.500000 147.010042
27.500000 147.506278
27.500000 148.003350
27.500000 148.501258
27.500000 149.000003
27.500000 149.499583
27.500000 150.000000
</POINTS>
</NEKTAR>

