<?xml version="1.0" encoding="utf-8" ?>
<NEKTAR>
<POINTS DIM="2" FIELDS="">
68.500000 0.000000
68.500000 0.000418
68.500000 0.001672
68.500000 0.003763
68.500000 0.006689
68.500000 0.010451
68.500000 0.015050
68.500000 0.020485
68.500000 0.026756
68.500000 0.033863
68.500000 0.041806
68.500000 0.050585
68.500000 0.060201
68.500000 0.070652
68.500000 0.081940
68.500000 0.094063
68.500000 0.107023
68.500000 0.120819
68.500000 0.135451
68.500000 0.150919
68.500000 0.167224
68.500000 0.184364
68.500000 0.202341
68.500000 0.221153
68.500000 0.240802
68.500000 0.261287
68.500000 0.282608
68.500000 0.304765
68.500000 0.327758
68.500000 0.351588
68.500000 0.376253
68.500000 0.401755
68.500000 0.428092
68.500000 0.455266
68.500000 0.483276
68.500000 0.512122
68.500000 0.541805
68.500000 0.572323
68.500000 0.603677
68.500000 0.635868
68.500000 0.668894
68.500000 0.702757
68.500000 0.737456
68.500000 0.772991
68.500000 0.809362
68.500000 0.846570
68.500000 0.884613
68.500000 0.923492
68.500000 0.963208
68.500000 1.003760
68.500000 1.045148
68.500000 1.087372
68.500000 1.130432
68.500000 1.174328
68.500000 1.219060
68.500000 1.264629
68.500000 1.311033
68.500000 1.358274
68.500000 1.406351
68.500000 1.455264
68.500000 1.505013
68.500000 1.555598
68.500000 1.607019
68.500000 1.659276
68.500000 1.712370
68.500000 1.766299
68.500000 1.821065
68.500000 1.876667
68.500000 1.933105
68.500000 1.990379
68.500000 2.048489
68.500000 2.107436
68.500000 2.167218
68.500000 2.227837
68.500000 2.289291
68.500000 2.351582
68.500000 2.414709
68.500000 2.478672
68.500000 2.543471
68.500000 2.609106
68.500000 2.675578
68.500000 2.742885
68.500000 2.811029
68.500000 2.880009
68.500000 2.949825
68.500000 3.020477
68.500000 3.091965
68.500000 3.164289
68.500000 3.237449
68.500000 3.311446
68.500000 3.386278
68.500000 3.461947
68.500000 3.538452
68.500000 3.615793
68.500000 3.693970
68.500000 3.772983
68.500000 3.852832
68.500000 3.933517
68.500000 4.015039
68.500000 4.097397
68.500000 4.180590
68.500000 4.264620
68.500000 4.349486
68.500000 4.435188
68.500000 4.521727
68.500000 4.609101
68.500000 4.697311
68.500000 4.786358
68.500000 4.876241
68.500000 4.966959
68.500000 5.058514
68.500000 5.150905
68.500000 5.244133
68.500000 5.338196
68.500000 5.433095
68.500000 5.528831
68.500000 5.625402
68.500000 5.722810
68.500000 5.821054
68.500000 5.920134
68.500000 6.020050
68.500000 6.120802
68.500000 6.222391
68.500000 6.324815
68.500000 6.428076
68.500000 6.532172
68.500000 6.637105
68.500000 6.742874
68.500000 6.849479
68.500000 6.956920
68.500000 7.065198
68.500000 7.174311
68.500000 7.284261
68.500000 7.395046
68.500000 7.506668
68.500000 7.619126
68.500000 7.732420
68.500000 7.846550
68.500000 7.961516
68.500000 8.077319
68.500000 8.193957
68.500000 8.311432
68.500000 8.429742
68.500000 8.548889
68.500000 8.668872
68.500000 8.789691
68.500000 8.911346
68.500000 9.033838
68.500000 9.157165
68.500000 9.281329
68.500000 9.406328
68.500000 9.532164
68.500000 9.658836
68.500000 9.786344
68.500000 9.914688
68.500000 10.043868
68.500000 10.173885
68.500000 10.304737
68.500000 10.436426
68.500000 10.568950
68.500000 10.702311
68.500000 10.836508
68.500000 10.971541
68.500000 11.107411
68.500000 11.244116
68.500000 11.381657
68.500000 11.520035
68.500000 11.659248
68.500000 11.799298
68.500000 11.940184
68.500000 12.081906
68.500000 12.224464
68.500000 12.367859
68.500000 12.512089
68.500000 12.657155
68.500000 12.803058
68.500000 12.949797
68.500000 13.097372
68.500000 13.245782
68.500000 13.395030
68.500000 13.545113
68.500000 13.696032
68.500000 13.847787
68.500000 14.000379
68.500000 14.153807
68.500000 14.308070
68.500000 14.463170
68.500000 14.619106
68.500000 14.775879
68.500000 14.933487
68.500000 15.091931
68.500000 15.251212
68.500000 15.411328
68.500000 15.572281
68.500000 15.734070
68.500000 15.896695
68.500000 16.060156
68.500000 16.224453
68.500000 16.389586
68.500000 16.555556
68.500000 16.722361
68.500000 16.890003
68.500000 17.058481
68.500000 17.227795
68.500000 17.397945
68.500000 17.568931
68.500000 17.740753
68.500000 17.913412
68.500000 18.086906
68.500000 18.261237
68.500000 18.436403
68.500000 18.612406
68.500000 18.789245
68.500000 18.966920
68.500000 19.145432
68.500000 19.324779
68.500000 19.504962
68.500000 19.685982
68.500000 19.867838
68.500000 20.050529
68.500000 20.234057
68.500000 20.418421
68.500000 20.603622
68.500000 20.789658
68.500000 20.976530
68.500000 21.164239
68.500000 21.352783
68.500000 21.542164
68.500000 21.732381
68.500000 21.923434
68.500000 22.115323
68.500000 22.308048
68.500000 22.501610
68.500000 22.696007
68.500000 22.891241
68.500000 23.087310
68.500000 23.284216
68.500000 23.481958
68.500000 23.680536
68.500000 23.879950
68.500000 24.080200
68.500000 24.281287
68.500000 24.483209
68.500000 24.685968
68.500000 24.889563
68.500000 25.093994
68.500000 25.299261
68.500000 25.505364
68.500000 25.712303
68.500000 25.920078
68.500000 26.128690
68.500000 26.338137
68.500000 26.548421
68.500000 26.759541
68.500000 26.971497
68.500000 27.184289
68.500000 27.397917
68.500000 27.612381
68.500000 27.827682
68.500000 28.043818
68.500000 28.260791
68.500000 28.478600
68.500000 28.697244
68.500000 28.916725
68.500000 29.137043
68.500000 29.358196
68.500000 29.580185
68.500000 29.803011
68.500000 30.026672
68.500000 30.251170
68.500000 30.476504
68.500000 30.702674
68.500000 30.929680
68.500000 31.157522
68.500000 31.386200
68.500000 31.615715
68.500000 31.846065
68.500000 32.077252
68.500000 32.309275
68.500000 32.542133
68.500000 32.775828
68.500000 33.010360
68.500000 33.245727
68.500000 33.481930
68.500000 33.718970
68.500000 33.956845
68.500000 34.195557
68.500000 34.435105
68.500000 34.675489
68.500000 34.916709
68.500000 35.158765
68.500000 35.401657
68.500000 35.645386
68.500000 35.889950
68.500000 36.135351
68.500000 36.381588
68.500000 36.628660
68.500000 36.876569
68.500000 37.125315
68.500000 37.374896
68.500000 37.625313
68.500000 37.876567
68.500000 38.128656
68.500000 38.381582
68.500000 38.635344
68.500000 38.889942
68.500000 39.145376
68.500000 39.401646
68.500000 39.658752
68.500000 39.916695
68.500000 40.175473
68.500000 40.435088
68.500000 40.695539
68.500000 40.956826
68.500000 41.218949
68.500000 41.481908
68.500000 41.745703
68.500000 42.010334
68.500000 42.275802
68.500000 42.542106
68.500000 42.809245
68.500000 43.077221
68.500000 43.346033
68.500000 43.615681
68.500000 43.886165
68.500000 44.157486
68.500000 44.429642
68.500000 44.702635
68.500000 44.976463
68.500000 45.251128
68.500000 45.526629
68.500000 45.802966
68.500000 46.080139
68.500000 46.358148
68.500000 46.636994
68.500000 46.916675
68.500000 47.197193
68.500000 47.478547
68.500000 47.760736
68.500000 48.043762
68.500000 48.327625
68.500000 48.612323
68.500000 48.897857
68.500000 49.184227
68.500000 49.471434
68.500000 49.759477
68.500000 50.048355
68.500000 50.338070
68.500000 50.628621
68.500000 50.920009
68.500000 51.212232
68.500000 51.505291
68.500000 51.799187
68.500000 52.093918
68.500000 52.389486
68.500000 52.685890
68.500000 52.983130
68.500000 53.281206
68.500000 53.580118
68.500000 53.879867
68.500000 54.180451
68.500000 54.481872
68.500000 54.784128
68.500000 55.087221
68.500000 55.391150
68.500000 55.695915
68.500000 56.001516
68.500000 56.307953
68.500000 56.615227
68.500000 56.923336
68.500000 57.232282
68.500000 57.542064
68.500000 57.852682
68.500000 58.164136
68.500000 58.476426
68.500000 58.789552
68.500000 59.103514
68.500000 59.418313
68.500000 59.733947
68.500000 60.050418
68.500000 60.367725
68.500000 60.685868
68.500000 61.004847
68.500000 61.324662
68.500000 61.645313
68.500000 61.966801
68.500000 62.289124
68.500000 62.612284
68.500000 62.936279
68.500000 63.261111
68.500000 63.586779
68.500000 63.913283
68.500000 64.240624
68.500000 64.568800
68.500000 64.897812
68.500000 65.227661
68.500000 65.558346
68.500000 65.889867
68.500000 66.222223
68.500000 66.555417
68.500000 66.889446
68.500000 67.224311
68.500000 67.560012
68.500000 67.896550
68.500000 68.233924
68.500000 68.572133
68.500000 68.911179
68.500000 69.251061
68.500000 69.591779
68.500000 69.933334
68.500000 70.275724
68.500000 70.618950
68.500000 70.963013
68.500000 71.307912
68.500000 71.653646
68.500000 72.000217
68.500000 72.347624
68.500000 72.695868
68.500000 73.044947
68.500000 73.394862
68.500000 73.745614
68.500000 74.097202
68.500000 74.449625
68.500000 74.802885
68.500000 75.156981
68.500000 75.511913
68.500000 75.867682
68.500000 76.224286
68.500000 76.581726
68.500000 76.940003
68.500000 77.299116
68.500000 77.659064
68.500000 78.019849
68.500000 78.381471
68.500000 78.743928
68.500000 79.107221
68.500000 79.471350
68.500000 79.836316
68.500000 80.202118
68.500000 80.568755
68.500000 80.936229
68.500000 81.304539
68.500000 81.673685
68.500000 82.043668
68.500000 82.414486
68.500000 82.786141
68.500000 83.158631
68.500000 83.531958
68.500000 83.906121
68.500000 84.281120
68.500000 84.656955
68.500000 85.033626
68.500000 85.411133
68.500000 85.789477
68.500000 86.168656
68.500000 86.548672
68.500000 86.929524
68.500000 87.311212
68.500000 87.693736
68.500000 88.077096
68.500000 88.461292
68.500000 88.846324
68.500000 89.232193
68.500000 89.618897
68.500000 90.006438
68.500000 90.394815
68.500000 90.784028
68.500000 91.174077
68.500000 91.564962
68.500000 91.956684
68.500000 92.349241
68.500000 92.742634
68.500000 93.136864
68.500000 93.531930
68.500000 93.927832
68.500000 94.324570
68.500000 94.722144
68.500000 95.120554
68.500000 95.519801
68.500000 95.919883
68.500000 96.320802
68.500000 96.722557
68.500000 97.125147
68.500000 97.528574
68.500000 97.932837
68.500000 98.337937
68.500000 98.743872
68.500000 99.150643
68.500000 99.558251
68.500000 99.966695
68.500000 100.375974
68.500000 100.786090
68.500000 101.197042
68.500000 101.608831
68.500000 102.021455
68.500000 102.434915
68.500000 102.849212
68.500000 103.264344
68.500000 103.680313
68.500000 104.097118
68.500000 104.514759
68.500000 104.933236
68.500000 105.352549
68.500000 105.772699
68.500000 106.193684
68.500000 106.615506
68.500000 107.038163
68.500000 107.461657
68.500000 107.885987
68.500000 108.311153
68.500000 108.737155
68.500000 109.163993
68.500000 109.591668
68.500000 110.020178
68.500000 110.449525
68.500000 110.879708
68.500000 111.310727
68.500000 111.742582
68.500000 112.175273
68.500000 112.608800
68.500000 113.043163
68.500000 113.478363
68.500000 113.914398
68.500000 114.351270
68.500000 114.788978
68.500000 115.227522
68.500000 115.666902
68.500000 116.107118
68.500000 116.548170
68.500000 116.990059
68.500000 117.432783
68.500000 117.876344
68.500000 118.320740
68.500000 118.765973
68.500000 119.212042
68.500000 119.658947
68.500000 120.106689
68.500000 120.555266
68.500000 121.004679
68.500000 121.454929
68.500000 121.906015
68.500000 122.357937
68.500000 122.810695
68.500000 123.264289
68.500000 123.718719
68.500000 124.173985
68.500000 124.630087
68.500000 125.087026
68.500000 125.544801
68.500000 126.003411
68.500000 126.462858
68.500000 126.923141
68.500000 127.384260
68.500000 127.846216
68.500000 128.309007
68.500000 128.772634
68.500000 129.237098
68.500000 129.702398
68.500000 130.168534
68.500000 130.635505
68.500000 131.103314
68.500000 131.571958
68.500000 132.041438
68.500000 132.511754
68.500000 132.982907
68.500000 133.454896
68.500000 133.927720
68.500000 134.401381
68.500000 134.875878
68.500000 135.351211
68.500000 135.827381
68.500000 136.304386
68.500000 136.782227
68.500000 137.260905
68.500000 137.740419
68.500000 138.220769
68.500000 138.701955
68.500000 139.183977
68.500000 139.666835
68.500000 140.150529
68.500000 140.635060
68.500000 141.120426
68.500000 141.606629
68.500000 142.093668
68.500000 142.581542
68.500000 143.070253
68.500000 143.559801
68.500000 144.050184
68.500000 144.541403
68.500000 145.033459
68.500000 145.526350
68.500000 146.020078
68.500000 146.514642
68.500000 147.010042
68.500000 147.506278
68.500000 148.003350
68.500000 148.501258
68.500000 149.000003
68.500000 149.499583
68.500000 150.000000
</POINTS>
</NEKTAR>

