<?xml version="1.0" encoding="utf-8" ?>
<NEKTAR>
<POINTS DIM="2" FIELDS="">
358.500000 0.000000
358.500000 0.000418
358.500000 0.001672
358.500000 0.003763
358.500000 0.006689
358.500000 0.010451
358.500000 0.015050
358.500000 0.020485
358.500000 0.026756
358.500000 0.033863
358.500000 0.041806
358.500000 0.050585
358.500000 0.060201
358.500000 0.070652
358.500000 0.081940
358.500000 0.094063
358.500000 0.107023
358.500000 0.120819
358.500000 0.135451
358.500000 0.150919
358.500000 0.167224
358.500000 0.184364
358.500000 0.202341
358.500000 0.221153
358.500000 0.240802
358.500000 0.261287
358.500000 0.282608
358.500000 0.304765
358.500000 0.327758
358.500000 0.351588
358.500000 0.376253
358.500000 0.401755
358.500000 0.428092
358.500000 0.455266
358.500000 0.483276
358.500000 0.512122
358.500000 0.541805
358.500000 0.572323
358.500000 0.603677
358.500000 0.635868
358.500000 0.668894
358.500000 0.702757
358.500000 0.737456
358.500000 0.772991
358.500000 0.809362
358.500000 0.846570
358.500000 0.884613
358.500000 0.923492
358.500000 0.963208
358.500000 1.003760
358.500000 1.045148
358.500000 1.087372
358.500000 1.130432
358.500000 1.174328
358.500000 1.219060
358.500000 1.264629
358.500000 1.311033
358.500000 1.358274
358.500000 1.406351
358.500000 1.455264
358.500000 1.505013
358.500000 1.555598
358.500000 1.607019
358.500000 1.659276
358.500000 1.712370
358.500000 1.766299
358.500000 1.821065
358.500000 1.876667
358.500000 1.933105
358.500000 1.990379
358.500000 2.048489
358.500000 2.107436
358.500000 2.167218
358.500000 2.227837
358.500000 2.289291
358.500000 2.351582
358.500000 2.414709
358.500000 2.478672
358.500000 2.543471
358.500000 2.609106
358.500000 2.675578
358.500000 2.742885
358.500000 2.811029
358.500000 2.880009
358.500000 2.949825
358.500000 3.020477
358.500000 3.091965
358.500000 3.164289
358.500000 3.237449
358.500000 3.311446
358.500000 3.386278
358.500000 3.461947
358.500000 3.538452
358.500000 3.615793
358.500000 3.693970
358.500000 3.772983
358.500000 3.852832
358.500000 3.933517
358.500000 4.015039
358.500000 4.097397
358.500000 4.180590
358.500000 4.264620
358.500000 4.349486
358.500000 4.435188
358.500000 4.521727
358.500000 4.609101
358.500000 4.697311
358.500000 4.786358
358.500000 4.876241
358.500000 4.966959
358.500000 5.058514
358.500000 5.150905
358.500000 5.244133
358.500000 5.338196
358.500000 5.433095
358.500000 5.528831
358.500000 5.625402
358.500000 5.722810
358.500000 5.821054
358.500000 5.920134
358.500000 6.020050
358.500000 6.120802
358.500000 6.222391
358.500000 6.324815
358.500000 6.428076
358.500000 6.532172
358.500000 6.637105
358.500000 6.742874
358.500000 6.849479
358.500000 6.956920
358.500000 7.065198
358.500000 7.174311
358.500000 7.284261
358.500000 7.395046
358.500000 7.506668
358.500000 7.619126
358.500000 7.732420
358.500000 7.846550
358.500000 7.961516
358.500000 8.077319
358.500000 8.193957
358.500000 8.311432
358.500000 8.429742
358.500000 8.548889
358.500000 8.668872
358.500000 8.789691
358.500000 8.911346
358.500000 9.033838
358.500000 9.157165
358.500000 9.281329
358.500000 9.406328
358.500000 9.532164
358.500000 9.658836
358.500000 9.786344
358.500000 9.914688
358.500000 10.043868
358.500000 10.173885
358.500000 10.304737
358.500000 10.436426
358.500000 10.568950
358.500000 10.702311
358.500000 10.836508
358.500000 10.971541
358.500000 11.107411
358.500000 11.244116
358.500000 11.381657
358.500000 11.520035
358.500000 11.659248
358.500000 11.799298
358.500000 11.940184
358.500000 12.081906
358.500000 12.224464
358.500000 12.367859
358.500000 12.512089
358.500000 12.657155
358.500000 12.803058
358.500000 12.949797
358.500000 13.097372
358.500000 13.245782
358.500000 13.395030
358.500000 13.545113
358.500000 13.696032
358.500000 13.847787
358.500000 14.000379
358.500000 14.153807
358.500000 14.308070
358.500000 14.463170
358.500000 14.619106
358.500000 14.775879
358.500000 14.933487
358.500000 15.091931
358.500000 15.251212
358.500000 15.411328
358.500000 15.572281
358.500000 15.734070
358.500000 15.896695
358.500000 16.060156
358.500000 16.224453
358.500000 16.389586
358.500000 16.555556
358.500000 16.722361
358.500000 16.890003
358.500000 17.058481
358.500000 17.227795
358.500000 17.397945
358.500000 17.568931
358.500000 17.740753
358.500000 17.913412
358.500000 18.086906
358.500000 18.261237
358.500000 18.436403
358.500000 18.612406
358.500000 18.789245
358.500000 18.966920
358.500000 19.145432
358.500000 19.324779
358.500000 19.504962
358.500000 19.685982
358.500000 19.867838
358.500000 20.050529
358.500000 20.234057
358.500000 20.418421
358.500000 20.603622
358.500000 20.789658
358.500000 20.976530
358.500000 21.164239
358.500000 21.352783
358.500000 21.542164
358.500000 21.732381
358.500000 21.923434
358.500000 22.115323
358.500000 22.308048
358.500000 22.501610
358.500000 22.696007
358.500000 22.891241
358.500000 23.087310
358.500000 23.284216
358.500000 23.481958
358.500000 23.680536
358.500000 23.879950
358.500000 24.080200
358.500000 24.281287
358.500000 24.483209
358.500000 24.685968
358.500000 24.889563
358.500000 25.093994
358.500000 25.299261
358.500000 25.505364
358.500000 25.712303
358.500000 25.920078
358.500000 26.128690
358.500000 26.338137
358.500000 26.548421
358.500000 26.759541
358.500000 26.971497
358.500000 27.184289
358.500000 27.397917
358.500000 27.612381
358.500000 27.827682
358.500000 28.043818
358.500000 28.260791
358.500000 28.478600
358.500000 28.697244
358.500000 28.916725
358.500000 29.137043
358.500000 29.358196
358.500000 29.580185
358.500000 29.803011
358.500000 30.026672
358.500000 30.251170
358.500000 30.476504
358.500000 30.702674
358.500000 30.929680
358.500000 31.157522
358.500000 31.386200
358.500000 31.615715
358.500000 31.846065
358.500000 32.077252
358.500000 32.309275
358.500000 32.542133
358.500000 32.775828
358.500000 33.010360
358.500000 33.245727
358.500000 33.481930
358.500000 33.718970
358.500000 33.956845
358.500000 34.195557
358.500000 34.435105
358.500000 34.675489
358.500000 34.916709
358.500000 35.158765
358.500000 35.401657
358.500000 35.645386
358.500000 35.889950
358.500000 36.135351
358.500000 36.381588
358.500000 36.628660
358.500000 36.876569
358.500000 37.125315
358.500000 37.374896
358.500000 37.625313
358.500000 37.876567
358.500000 38.128656
358.500000 38.381582
358.500000 38.635344
358.500000 38.889942
358.500000 39.145376
358.500000 39.401646
358.500000 39.658752
358.500000 39.916695
358.500000 40.175473
358.500000 40.435088
358.500000 40.695539
358.500000 40.956826
358.500000 41.218949
358.500000 41.481908
358.500000 41.745703
358.500000 42.010334
358.500000 42.275802
358.500000 42.542106
358.500000 42.809245
358.500000 43.077221
358.500000 43.346033
358.500000 43.615681
358.500000 43.886165
358.500000 44.157486
358.500000 44.429642
358.500000 44.702635
358.500000 44.976463
358.500000 45.251128
358.500000 45.526629
358.500000 45.802966
358.500000 46.080139
358.500000 46.358148
358.500000 46.636994
358.500000 46.916675
358.500000 47.197193
358.500000 47.478547
358.500000 47.760736
358.500000 48.043762
358.500000 48.327625
358.500000 48.612323
358.500000 48.897857
358.500000 49.184227
358.500000 49.471434
358.500000 49.759477
358.500000 50.048355
358.500000 50.338070
358.500000 50.628621
358.500000 50.920009
358.500000 51.212232
358.500000 51.505291
358.500000 51.799187
358.500000 52.093918
358.500000 52.389486
358.500000 52.685890
358.500000 52.983130
358.500000 53.281206
358.500000 53.580118
358.500000 53.879867
358.500000 54.180451
358.500000 54.481872
358.500000 54.784128
358.500000 55.087221
358.500000 55.391150
358.500000 55.695915
358.500000 56.001516
358.500000 56.307953
358.500000 56.615227
358.500000 56.923336
358.500000 57.232282
358.500000 57.542064
358.500000 57.852682
358.500000 58.164136
358.500000 58.476426
358.500000 58.789552
358.500000 59.103514
358.500000 59.418313
358.500000 59.733947
358.500000 60.050418
358.500000 60.367725
358.500000 60.685868
358.500000 61.004847
358.500000 61.324662
358.500000 61.645313
358.500000 61.966801
358.500000 62.289124
358.500000 62.612284
358.500000 62.936279
358.500000 63.261111
358.500000 63.586779
358.500000 63.913283
358.500000 64.240624
358.500000 64.568800
358.500000 64.897812
358.500000 65.227661
358.500000 65.558346
358.500000 65.889867
358.500000 66.222223
358.500000 66.555417
358.500000 66.889446
358.500000 67.224311
358.500000 67.560012
358.500000 67.896550
358.500000 68.233924
358.500000 68.572133
358.500000 68.911179
358.500000 69.251061
358.500000 69.591779
358.500000 69.933334
358.500000 70.275724
358.500000 70.618950
358.500000 70.963013
358.500000 71.307912
358.500000 71.653646
358.500000 72.000217
358.500000 72.347624
358.500000 72.695868
358.500000 73.044947
358.500000 73.394862
358.500000 73.745614
358.500000 74.097202
358.500000 74.449625
358.500000 74.802885
358.500000 75.156981
358.500000 75.511913
358.500000 75.867682
358.500000 76.224286
358.500000 76.581726
358.500000 76.940003
358.500000 77.299116
358.500000 77.659064
358.500000 78.019849
358.500000 78.381471
358.500000 78.743928
358.500000 79.107221
358.500000 79.471350
358.500000 79.836316
358.500000 80.202118
358.500000 80.568755
358.500000 80.936229
358.500000 81.304539
358.500000 81.673685
358.500000 82.043668
358.500000 82.414486
358.500000 82.786141
358.500000 83.158631
358.500000 83.531958
358.500000 83.906121
358.500000 84.281120
358.500000 84.656955
358.500000 85.033626
358.500000 85.411133
358.500000 85.789477
358.500000 86.168656
358.500000 86.548672
358.500000 86.929524
358.500000 87.311212
358.500000 87.693736
358.500000 88.077096
358.500000 88.461292
358.500000 88.846324
358.500000 89.232193
358.500000 89.618897
358.500000 90.006438
358.500000 90.394815
358.500000 90.784028
358.500000 91.174077
358.500000 91.564962
358.500000 91.956684
358.500000 92.349241
358.500000 92.742634
358.500000 93.136864
358.500000 93.531930
358.500000 93.927832
358.500000 94.324570
358.500000 94.722144
358.500000 95.120554
358.500000 95.519801
358.500000 95.919883
358.500000 96.320802
358.500000 96.722557
358.500000 97.125147
358.500000 97.528574
358.500000 97.932837
358.500000 98.337937
358.500000 98.743872
358.500000 99.150643
358.500000 99.558251
358.500000 99.966695
358.500000 100.375974
358.500000 100.786090
358.500000 101.197042
358.500000 101.608831
358.500000 102.021455
358.500000 102.434915
358.500000 102.849212
358.500000 103.264344
358.500000 103.680313
358.500000 104.097118
358.500000 104.514759
358.500000 104.933236
358.500000 105.352549
358.500000 105.772699
358.500000 106.193684
358.500000 106.615506
358.500000 107.038163
358.500000 107.461657
358.500000 107.885987
358.500000 108.311153
358.500000 108.737155
358.500000 109.163993
358.500000 109.591668
358.500000 110.020178
358.500000 110.449525
358.500000 110.879708
358.500000 111.310727
358.500000 111.742582
358.500000 112.175273
358.500000 112.608800
358.500000 113.043163
358.500000 113.478363
358.500000 113.914398
358.500000 114.351270
358.500000 114.788978
358.500000 115.227522
358.500000 115.666902
358.500000 116.107118
358.500000 116.548170
358.500000 116.990059
358.500000 117.432783
358.500000 117.876344
358.500000 118.320740
358.500000 118.765973
358.500000 119.212042
358.500000 119.658947
358.500000 120.106689
358.500000 120.555266
358.500000 121.004679
358.500000 121.454929
358.500000 121.906015
358.500000 122.357937
358.500000 122.810695
358.500000 123.264289
358.500000 123.718719
358.500000 124.173985
358.500000 124.630087
358.500000 125.087026
358.500000 125.544801
358.500000 126.003411
358.500000 126.462858
358.500000 126.923141
358.500000 127.384260
358.500000 127.846216
358.500000 128.309007
358.500000 128.772634
358.500000 129.237098
358.500000 129.702398
358.500000 130.168534
358.500000 130.635505
358.500000 131.103314
358.500000 131.571958
358.500000 132.041438
358.500000 132.511754
358.500000 132.982907
358.500000 133.454896
358.500000 133.927720
358.500000 134.401381
358.500000 134.875878
358.500000 135.351211
358.500000 135.827381
358.500000 136.304386
358.500000 136.782227
358.500000 137.260905
358.500000 137.740419
358.500000 138.220769
358.500000 138.701955
358.500000 139.183977
358.500000 139.666835
358.500000 140.150529
358.500000 140.635060
358.500000 141.120426
358.500000 141.606629
358.500000 142.093668
358.500000 142.581542
358.500000 143.070253
358.500000 143.559801
358.500000 144.050184
358.500000 144.541403
358.500000 145.033459
358.500000 145.526350
358.500000 146.020078
358.500000 146.514642
358.500000 147.010042
358.500000 147.506278
358.500000 148.003350
358.500000 148.501258
358.500000 149.000003
358.500000 149.499583
358.500000 150.000000
</POINTS>
</NEKTAR>

