<?xml version="1.0" encoding="utf-8" ?>
<NEKTAR>
<POINTS DIM="2" FIELDS="">
918.500000 0.000000
918.500000 0.000418
918.500000 0.001672
918.500000 0.003763
918.500000 0.006689
918.500000 0.010451
918.500000 0.015050
918.500000 0.020485
918.500000 0.026756
918.500000 0.033863
918.500000 0.041806
918.500000 0.050585
918.500000 0.060201
918.500000 0.070652
918.500000 0.081940
918.500000 0.094063
918.500000 0.107023
918.500000 0.120819
918.500000 0.135451
918.500000 0.150919
918.500000 0.167224
918.500000 0.184364
918.500000 0.202341
918.500000 0.221153
918.500000 0.240802
918.500000 0.261287
918.500000 0.282608
918.500000 0.304765
918.500000 0.327758
918.500000 0.351588
918.500000 0.376253
918.500000 0.401755
918.500000 0.428092
918.500000 0.455266
918.500000 0.483276
918.500000 0.512122
918.500000 0.541805
918.500000 0.572323
918.500000 0.603677
918.500000 0.635868
918.500000 0.668894
918.500000 0.702757
918.500000 0.737456
918.500000 0.772991
918.500000 0.809362
918.500000 0.846570
918.500000 0.884613
918.500000 0.923492
918.500000 0.963208
918.500000 1.003760
918.500000 1.045148
918.500000 1.087372
918.500000 1.130432
918.500000 1.174328
918.500000 1.219060
918.500000 1.264629
918.500000 1.311033
918.500000 1.358274
918.500000 1.406351
918.500000 1.455264
918.500000 1.505013
918.500000 1.555598
918.500000 1.607019
918.500000 1.659276
918.500000 1.712370
918.500000 1.766299
918.500000 1.821065
918.500000 1.876667
918.500000 1.933105
918.500000 1.990379
918.500000 2.048489
918.500000 2.107436
918.500000 2.167218
918.500000 2.227837
918.500000 2.289291
918.500000 2.351582
918.500000 2.414709
918.500000 2.478672
918.500000 2.543471
918.500000 2.609106
918.500000 2.675578
918.500000 2.742885
918.500000 2.811029
918.500000 2.880009
918.500000 2.949825
918.500000 3.020477
918.500000 3.091965
918.500000 3.164289
918.500000 3.237449
918.500000 3.311446
918.500000 3.386278
918.500000 3.461947
918.500000 3.538452
918.500000 3.615793
918.500000 3.693970
918.500000 3.772983
918.500000 3.852832
918.500000 3.933517
918.500000 4.015039
918.500000 4.097397
918.500000 4.180590
918.500000 4.264620
918.500000 4.349486
918.500000 4.435188
918.500000 4.521727
918.500000 4.609101
918.500000 4.697311
918.500000 4.786358
918.500000 4.876241
918.500000 4.966959
918.500000 5.058514
918.500000 5.150905
918.500000 5.244133
918.500000 5.338196
918.500000 5.433095
918.500000 5.528831
918.500000 5.625402
918.500000 5.722810
918.500000 5.821054
918.500000 5.920134
918.500000 6.020050
918.500000 6.120802
918.500000 6.222391
918.500000 6.324815
918.500000 6.428076
918.500000 6.532172
918.500000 6.637105
918.500000 6.742874
918.500000 6.849479
918.500000 6.956920
918.500000 7.065198
918.500000 7.174311
918.500000 7.284261
918.500000 7.395046
918.500000 7.506668
918.500000 7.619126
918.500000 7.732420
918.500000 7.846550
918.500000 7.961516
918.500000 8.077319
918.500000 8.193957
918.500000 8.311432
918.500000 8.429742
918.500000 8.548889
918.500000 8.668872
918.500000 8.789691
918.500000 8.911346
918.500000 9.033838
918.500000 9.157165
918.500000 9.281329
918.500000 9.406328
918.500000 9.532164
918.500000 9.658836
918.500000 9.786344
918.500000 9.914688
918.500000 10.043868
918.500000 10.173885
918.500000 10.304737
918.500000 10.436426
918.500000 10.568950
918.500000 10.702311
918.500000 10.836508
918.500000 10.971541
918.500000 11.107411
918.500000 11.244116
918.500000 11.381657
918.500000 11.520035
918.500000 11.659248
918.500000 11.799298
918.500000 11.940184
918.500000 12.081906
918.500000 12.224464
918.500000 12.367859
918.500000 12.512089
918.500000 12.657155
918.500000 12.803058
918.500000 12.949797
918.500000 13.097372
918.500000 13.245782
918.500000 13.395030
918.500000 13.545113
918.500000 13.696032
918.500000 13.847787
918.500000 14.000379
918.500000 14.153807
918.500000 14.308070
918.500000 14.463170
918.500000 14.619106
918.500000 14.775879
918.500000 14.933487
918.500000 15.091931
918.500000 15.251212
918.500000 15.411328
918.500000 15.572281
918.500000 15.734070
918.500000 15.896695
918.500000 16.060156
918.500000 16.224453
918.500000 16.389586
918.500000 16.555556
918.500000 16.722361
918.500000 16.890003
918.500000 17.058481
918.500000 17.227795
918.500000 17.397945
918.500000 17.568931
918.500000 17.740753
918.500000 17.913412
918.500000 18.086906
918.500000 18.261237
918.500000 18.436403
918.500000 18.612406
918.500000 18.789245
918.500000 18.966920
918.500000 19.145432
918.500000 19.324779
918.500000 19.504962
918.500000 19.685982
918.500000 19.867838
918.500000 20.050529
918.500000 20.234057
918.500000 20.418421
918.500000 20.603622
918.500000 20.789658
918.500000 20.976530
918.500000 21.164239
918.500000 21.352783
918.500000 21.542164
918.500000 21.732381
918.500000 21.923434
918.500000 22.115323
918.500000 22.308048
918.500000 22.501610
918.500000 22.696007
918.500000 22.891241
918.500000 23.087310
918.500000 23.284216
918.500000 23.481958
918.500000 23.680536
918.500000 23.879950
918.500000 24.080200
918.500000 24.281287
918.500000 24.483209
918.500000 24.685968
918.500000 24.889563
918.500000 25.093994
918.500000 25.299261
918.500000 25.505364
918.500000 25.712303
918.500000 25.920078
918.500000 26.128690
918.500000 26.338137
918.500000 26.548421
918.500000 26.759541
918.500000 26.971497
918.500000 27.184289
918.500000 27.397917
918.500000 27.612381
918.500000 27.827682
918.500000 28.043818
918.500000 28.260791
918.500000 28.478600
918.500000 28.697244
918.500000 28.916725
918.500000 29.137043
918.500000 29.358196
918.500000 29.580185
918.500000 29.803011
918.500000 30.026672
918.500000 30.251170
918.500000 30.476504
918.500000 30.702674
918.500000 30.929680
918.500000 31.157522
918.500000 31.386200
918.500000 31.615715
918.500000 31.846065
918.500000 32.077252
918.500000 32.309275
918.500000 32.542133
918.500000 32.775828
918.500000 33.010360
918.500000 33.245727
918.500000 33.481930
918.500000 33.718970
918.500000 33.956845
918.500000 34.195557
918.500000 34.435105
918.500000 34.675489
918.500000 34.916709
918.500000 35.158765
918.500000 35.401657
918.500000 35.645386
918.500000 35.889950
918.500000 36.135351
918.500000 36.381588
918.500000 36.628660
918.500000 36.876569
918.500000 37.125315
918.500000 37.374896
918.500000 37.625313
918.500000 37.876567
918.500000 38.128656
918.500000 38.381582
918.500000 38.635344
918.500000 38.889942
918.500000 39.145376
918.500000 39.401646
918.500000 39.658752
918.500000 39.916695
918.500000 40.175473
918.500000 40.435088
918.500000 40.695539
918.500000 40.956826
918.500000 41.218949
918.500000 41.481908
918.500000 41.745703
918.500000 42.010334
918.500000 42.275802
918.500000 42.542106
918.500000 42.809245
918.500000 43.077221
918.500000 43.346033
918.500000 43.615681
918.500000 43.886165
918.500000 44.157486
918.500000 44.429642
918.500000 44.702635
918.500000 44.976463
918.500000 45.251128
918.500000 45.526629
918.500000 45.802966
918.500000 46.080139
918.500000 46.358148
918.500000 46.636994
918.500000 46.916675
918.500000 47.197193
918.500000 47.478547
918.500000 47.760736
918.500000 48.043762
918.500000 48.327625
918.500000 48.612323
918.500000 48.897857
918.500000 49.184227
918.500000 49.471434
918.500000 49.759477
918.500000 50.048355
918.500000 50.338070
918.500000 50.628621
918.500000 50.920009
918.500000 51.212232
918.500000 51.505291
918.500000 51.799187
918.500000 52.093918
918.500000 52.389486
918.500000 52.685890
918.500000 52.983130
918.500000 53.281206
918.500000 53.580118
918.500000 53.879867
918.500000 54.180451
918.500000 54.481872
918.500000 54.784128
918.500000 55.087221
918.500000 55.391150
918.500000 55.695915
918.500000 56.001516
918.500000 56.307953
918.500000 56.615227
918.500000 56.923336
918.500000 57.232282
918.500000 57.542064
918.500000 57.852682
918.500000 58.164136
918.500000 58.476426
918.500000 58.789552
918.500000 59.103514
918.500000 59.418313
918.500000 59.733947
918.500000 60.050418
918.500000 60.367725
918.500000 60.685868
918.500000 61.004847
918.500000 61.324662
918.500000 61.645313
918.500000 61.966801
918.500000 62.289124
918.500000 62.612284
918.500000 62.936279
918.500000 63.261111
918.500000 63.586779
918.500000 63.913283
918.500000 64.240624
918.500000 64.568800
918.500000 64.897812
918.500000 65.227661
918.500000 65.558346
918.500000 65.889867
918.500000 66.222223
918.500000 66.555417
918.500000 66.889446
918.500000 67.224311
918.500000 67.560012
918.500000 67.896550
918.500000 68.233924
918.500000 68.572133
918.500000 68.911179
918.500000 69.251061
918.500000 69.591779
918.500000 69.933334
918.500000 70.275724
918.500000 70.618950
918.500000 70.963013
918.500000 71.307912
918.500000 71.653646
918.500000 72.000217
918.500000 72.347624
918.500000 72.695868
918.500000 73.044947
918.500000 73.394862
918.500000 73.745614
918.500000 74.097202
918.500000 74.449625
918.500000 74.802885
918.500000 75.156981
918.500000 75.511913
918.500000 75.867682
918.500000 76.224286
918.500000 76.581726
918.500000 76.940003
918.500000 77.299116
918.500000 77.659064
918.500000 78.019849
918.500000 78.381471
918.500000 78.743928
918.500000 79.107221
918.500000 79.471350
918.500000 79.836316
918.500000 80.202118
918.500000 80.568755
918.500000 80.936229
918.500000 81.304539
918.500000 81.673685
918.500000 82.043668
918.500000 82.414486
918.500000 82.786141
918.500000 83.158631
918.500000 83.531958
918.500000 83.906121
918.500000 84.281120
918.500000 84.656955
918.500000 85.033626
918.500000 85.411133
918.500000 85.789477
918.500000 86.168656
918.500000 86.548672
918.500000 86.929524
918.500000 87.311212
918.500000 87.693736
918.500000 88.077096
918.500000 88.461292
918.500000 88.846324
918.500000 89.232193
918.500000 89.618897
918.500000 90.006438
918.500000 90.394815
918.500000 90.784028
918.500000 91.174077
918.500000 91.564962
918.500000 91.956684
918.500000 92.349241
918.500000 92.742634
918.500000 93.136864
918.500000 93.531930
918.500000 93.927832
918.500000 94.324570
918.500000 94.722144
918.500000 95.120554
918.500000 95.519801
918.500000 95.919883
918.500000 96.320802
918.500000 96.722557
918.500000 97.125147
918.500000 97.528574
918.500000 97.932837
918.500000 98.337937
918.500000 98.743872
918.500000 99.150643
918.500000 99.558251
918.500000 99.966695
918.500000 100.375974
918.500000 100.786090
918.500000 101.197042
918.500000 101.608831
918.500000 102.021455
918.500000 102.434915
918.500000 102.849212
918.500000 103.264344
918.500000 103.680313
918.500000 104.097118
918.500000 104.514759
918.500000 104.933236
918.500000 105.352549
918.500000 105.772699
918.500000 106.193684
918.500000 106.615506
918.500000 107.038163
918.500000 107.461657
918.500000 107.885987
918.500000 108.311153
918.500000 108.737155
918.500000 109.163993
918.500000 109.591668
918.500000 110.020178
918.500000 110.449525
918.500000 110.879708
918.500000 111.310727
918.500000 111.742582
918.500000 112.175273
918.500000 112.608800
918.500000 113.043163
918.500000 113.478363
918.500000 113.914398
918.500000 114.351270
918.500000 114.788978
918.500000 115.227522
918.500000 115.666902
918.500000 116.107118
918.500000 116.548170
918.500000 116.990059
918.500000 117.432783
918.500000 117.876344
918.500000 118.320740
918.500000 118.765973
918.500000 119.212042
918.500000 119.658947
918.500000 120.106689
918.500000 120.555266
918.500000 121.004679
918.500000 121.454929
918.500000 121.906015
918.500000 122.357937
918.500000 122.810695
918.500000 123.264289
918.500000 123.718719
918.500000 124.173985
918.500000 124.630087
918.500000 125.087026
918.500000 125.544801
918.500000 126.003411
918.500000 126.462858
918.500000 126.923141
918.500000 127.384260
918.500000 127.846216
918.500000 128.309007
918.500000 128.772634
918.500000 129.237098
918.500000 129.702398
918.500000 130.168534
918.500000 130.635505
918.500000 131.103314
918.500000 131.571958
918.500000 132.041438
918.500000 132.511754
918.500000 132.982907
918.500000 133.454896
918.500000 133.927720
918.500000 134.401381
918.500000 134.875878
918.500000 135.351211
918.500000 135.827381
918.500000 136.304386
918.500000 136.782227
918.500000 137.260905
918.500000 137.740419
918.500000 138.220769
918.500000 138.701955
918.500000 139.183977
918.500000 139.666835
918.500000 140.150529
918.500000 140.635060
918.500000 141.120426
918.500000 141.606629
918.500000 142.093668
918.500000 142.581542
918.500000 143.070253
918.500000 143.559801
918.500000 144.050184
918.500000 144.541403
918.500000 145.033459
918.500000 145.526350
918.500000 146.020078
918.500000 146.514642
918.500000 147.010042
918.500000 147.506278
918.500000 148.003350
918.500000 148.501258
918.500000 149.000003
918.500000 149.499583
918.500000 150.000000
</POINTS>
</NEKTAR>

