<?xml version="1.0" encoding="utf-8" ?>
<NEKTAR>
<POINTS DIM="2" FIELDS="">
-5.000000 -3.000000
-5.000000 -2.999490
-5.000000 -2.997960
-5.000000 -2.995410
-5.000000 -2.991841
-5.000000 -2.987251
-5.000000 -2.981642
-5.000000 -2.975013
-5.000000 -2.967363
-5.000000 -2.958694
-5.000000 -2.949005
-5.000000 -2.938296
-5.000000 -2.926568
-5.000000 -2.913819
-5.000000 -2.900050
-5.000000 -2.885262
-5.000000 -2.869454
-5.000000 -2.852625
-5.000000 -2.834777
-5.000000 -2.815909
-5.000000 -2.796021
-5.000000 -2.775113
-5.000000 -2.753186
-5.000000 -2.730238
-5.000000 -2.706271
-5.000000 -2.681283
-5.000000 -2.655276
-5.000000 -2.628249
-5.000000 -2.600202
-5.000000 -2.571135
-5.000000 -2.541048
-5.000000 -2.509941
-5.000000 -2.477814
-5.000000 -2.444668
-5.000000 -2.410501
-5.000000 -2.375315
-5.000000 -2.339109
-5.000000 -2.301883
-5.000000 -2.263637
-5.000000 -2.224371
-5.000000 -2.184085
-5.000000 -2.142779
-5.000000 -2.100454
-5.000000 -2.057108
-5.000000 -2.012743
-5.000000 -1.967357
-5.000000 -1.920952
-5.000000 -1.873527
-5.000000 -1.825082
-5.000000 -1.775617
-5.000000 -1.725133
-5.000000 -1.673628
-5.000000 -1.621103
-5.000000 -1.567559
-5.000000 -1.512995
-5.000000 -1.457410
-5.000000 -1.400806
-5.000000 -1.343182
-5.000000 -1.284538
-5.000000 -1.224875
-5.000000 -1.164191
-5.000000 -1.102487
-5.000000 -1.039764
-5.000000 -0.976021
-5.000000 -0.911257
-5.000000 -0.845474
-5.000000 -0.778671
-5.000000 -0.710848
-5.000000 -0.642005
-5.000000 -0.572143
-5.000000 -0.501260
-5.000000 -0.429357
-5.000000 -0.356435
-5.000000 -0.282493
-5.000000 -0.207531
-5.000000 -0.131548
-5.000000 -0.054546
-5.000000 0.023475
-5.000000 0.102517
-5.000000 0.182579
-5.000000 0.263660
-5.000000 0.345762
-5.000000 0.428883
-5.000000 0.513025
-5.000000 0.598186
-5.000000 0.684367
-5.000000 0.771568
-5.000000 0.859788
-5.000000 0.949029
-5.000000 1.039290
-5.000000 1.130570
-5.000000 1.222871
-5.000000 1.316191
-5.000000 1.410531
-5.000000 1.505891
-5.000000 1.602271
-5.000000 1.699671
-5.000000 1.798091
-5.000000 1.897530
-5.000000 1.998000
-4.166667 -3.000000
-4.166667 -2.999490
-4.166667 -2.997960
-4.166667 -2.995410
-4.166667 -2.991841
-4.166667 -2.987251
-4.166667 -2.981642
-4.166667 -2.975013
-4.166667 -2.967363
-4.166667 -2.958694
-4.166667 -2.949005
-4.166667 -2.938296
-4.166667 -2.926568
-4.166667 -2.913819
-4.166667 -2.900050
-4.166667 -2.885262
-4.166667 -2.869454
-4.166667 -2.852625
-4.166667 -2.834777
-4.166667 -2.815909
-4.166667 -2.796021
-4.166667 -2.775113
-4.166667 -2.753186
-4.166667 -2.730238
-4.166667 -2.706271
-4.166667 -2.681283
-4.166667 -2.655276
-4.166667 -2.628249
-4.166667 -2.600202
-4.166667 -2.571135
-4.166667 -2.541048
-4.166667 -2.509941
-4.166667 -2.477814
-4.166667 -2.444668
-4.166667 -2.410501
-4.166667 -2.375315
-4.166667 -2.339109
-4.166667 -2.301883
-4.166667 -2.263637
-4.166667 -2.224371
-4.166667 -2.184085
-4.166667 -2.142779
-4.166667 -2.100454
-4.166667 -2.057108
-4.166667 -2.012743
-4.166667 -1.967357
-4.166667 -1.920952
-4.166667 -1.873527
-4.166667 -1.825082
-4.166667 -1.775617
-4.166667 -1.725133
-4.166667 -1.673628
-4.166667 -1.621103
-4.166667 -1.567559
-4.166667 -1.512995
-4.166667 -1.457410
-4.166667 -1.400806
-4.166667 -1.343182
-4.166667 -1.284538
-4.166667 -1.224875
-4.166667 -1.164191
-4.166667 -1.102487
-4.166667 -1.039764
-4.166667 -0.976021
-4.166667 -0.911257
-4.166667 -0.845474
-4.166667 -0.778671
-4.166667 -0.710848
-4.166667 -0.642005
-4.166667 -0.572143
-4.166667 -0.501260
-4.166667 -0.429357
-4.166667 -0.356435
-4.166667 -0.282493
-4.166667 -0.207531
-4.166667 -0.131548
-4.166667 -0.054546
-4.166667 0.023475
-4.166667 0.102517
-4.166667 0.182579
-4.166667 0.263660
-4.166667 0.345762
-4.166667 0.428883
-4.166667 0.513025
-4.166667 0.598186
-4.166667 0.684367
-4.166667 0.771568
-4.166667 0.859788
-4.166667 0.949029
-4.166667 1.039290
-4.166667 1.130570
-4.166667 1.222871
-4.166667 1.316191
-4.166667 1.410531
-4.166667 1.505891
-4.166667 1.602271
-4.166667 1.699671
-4.166667 1.798091
-4.166667 1.897530
-4.166667 1.998000
-3.333333 -3.000000
-3.333333 -2.999490
-3.333333 -2.997960
-3.333333 -2.995410
-3.333333 -2.991841
-3.333333 -2.987251
-3.333333 -2.981642
-3.333333 -2.975013
-3.333333 -2.967363
-3.333333 -2.958694
-3.333333 -2.949005
-3.333333 -2.938296
-3.333333 -2.926568
-3.333333 -2.913819
-3.333333 -2.900050
-3.333333 -2.885262
-3.333333 -2.869454
-3.333333 -2.852625
-3.333333 -2.834777
-3.333333 -2.815909
-3.333333 -2.796021
-3.333333 -2.775113
-3.333333 -2.753186
-3.333333 -2.730238
-3.333333 -2.706271
-3.333333 -2.681283
-3.333333 -2.655276
-3.333333 -2.628249
-3.333333 -2.600202
-3.333333 -2.571135
-3.333333 -2.541048
-3.333333 -2.509941
-3.333333 -2.477814
-3.333333 -2.444668
-3.333333 -2.410501
-3.333333 -2.375315
-3.333333 -2.339109
-3.333333 -2.301883
-3.333333 -2.263637
-3.333333 -2.224371
-3.333333 -2.184085
-3.333333 -2.142779
-3.333333 -2.100454
-3.333333 -2.057108
-3.333333 -2.012743
-3.333333 -1.967357
-3.333333 -1.920952
-3.333333 -1.873527
-3.333333 -1.825082
-3.333333 -1.775617
-3.333333 -1.725133
-3.333333 -1.673628
-3.333333 -1.621103
-3.333333 -1.567559
-3.333333 -1.512995
-3.333333 -1.457410
-3.333333 -1.400806
-3.333333 -1.343182
-3.333333 -1.284538
-3.333333 -1.224875
-3.333333 -1.164191
-3.333333 -1.102487
-3.333333 -1.039764
-3.333333 -0.976021
-3.333333 -0.911257
-3.333333 -0.845474
-3.333333 -0.778671
-3.333333 -0.710848
-3.333333 -0.642005
-3.333333 -0.572143
-3.333333 -0.501260
-3.333333 -0.429357
-3.333333 -0.356435
-3.333333 -0.282493
-3.333333 -0.207531
-3.333333 -0.131548
-3.333333 -0.054546
-3.333333 0.023475
-3.333333 0.102517
-3.333333 0.182579
-3.333333 0.263660
-3.333333 0.345762
-3.333333 0.428883
-3.333333 0.513025
-3.333333 0.598186
-3.333333 0.684367
-3.333333 0.771568
-3.333333 0.859788
-3.333333 0.949029
-3.333333 1.039290
-3.333333 1.130570
-3.333333 1.222871
-3.333333 1.316191
-3.333333 1.410531
-3.333333 1.505891
-3.333333 1.602271
-3.333333 1.699671
-3.333333 1.798091
-3.333333 1.897530
-3.333333 1.998000
-2.500000 -3.000000
-2.500000 -2.999490
-2.500000 -2.997960
-2.500000 -2.995410
-2.500000 -2.991841
-2.500000 -2.987251
-2.500000 -2.981642
-2.500000 -2.975013
-2.500000 -2.967363
-2.500000 -2.958694
-2.500000 -2.949005
-2.500000 -2.938296
-2.500000 -2.926568
-2.500000 -2.913819
-2.500000 -2.900050
-2.500000 -2.885262
-2.500000 -2.869454
-2.500000 -2.852625
-2.500000 -2.834777
-2.500000 -2.815909
-2.500000 -2.796021
-2.500000 -2.775113
-2.500000 -2.753186
-2.500000 -2.730238
-2.500000 -2.706271
-2.500000 -2.681283
-2.500000 -2.655276
-2.500000 -2.628249
-2.500000 -2.600202
-2.500000 -2.571135
-2.500000 -2.541048
-2.500000 -2.509941
-2.500000 -2.477814
-2.500000 -2.444668
-2.500000 -2.410501
-2.500000 -2.375315
-2.500000 -2.339109
-2.500000 -2.301883
-2.500000 -2.263637
-2.500000 -2.224371
-2.500000 -2.184085
-2.500000 -2.142779
-2.500000 -2.100454
-2.500000 -2.057108
-2.500000 -2.012743
-2.500000 -1.967357
-2.500000 -1.920952
-2.500000 -1.873527
-2.500000 -1.825082
-2.500000 -1.775617
-2.500000 -1.725133
-2.500000 -1.673628
-2.500000 -1.621103
-2.500000 -1.567559
-2.500000 -1.512995
-2.500000 -1.457410
-2.500000 -1.400806
-2.500000 -1.343182
-2.500000 -1.284538
-2.500000 -1.224875
-2.500000 -1.164191
-2.500000 -1.102487
-2.500000 -1.039764
-2.500000 -0.976021
-2.500000 -0.911257
-2.500000 -0.845474
-2.500000 -0.778671
-2.500000 -0.710848
-2.500000 -0.642005
-2.500000 -0.572143
-2.500000 -0.501260
-2.500000 -0.429357
-2.500000 -0.356435
-2.500000 -0.282493
-2.500000 -0.207531
-2.500000 -0.131548
-2.500000 -0.054546
-2.500000 0.023475
-2.500000 0.102517
-2.500000 0.182579
-2.500000 0.263660
-2.500000 0.345762
-2.500000 0.428883
-2.500000 0.513025
-2.500000 0.598186
-2.500000 0.684367
-2.500000 0.771568
-2.500000 0.859788
-2.500000 0.949029
-2.500000 1.039290
-2.500000 1.130570
-2.500000 1.222871
-2.500000 1.316191
-2.500000 1.410531
-2.500000 1.505891
-2.500000 1.602271
-2.500000 1.699671
-2.500000 1.798091
-2.500000 1.897530
-2.500000 1.998000
-1.666667 -3.000000
-1.666667 -2.999490
-1.666667 -2.997960
-1.666667 -2.995410
-1.666667 -2.991841
-1.666667 -2.987251
-1.666667 -2.981642
-1.666667 -2.975013
-1.666667 -2.967363
-1.666667 -2.958694
-1.666667 -2.949005
-1.666667 -2.938296
-1.666667 -2.926568
-1.666667 -2.913819
-1.666667 -2.900050
-1.666667 -2.885262
-1.666667 -2.869454
-1.666667 -2.852625
-1.666667 -2.834777
-1.666667 -2.815909
-1.666667 -2.796021
-1.666667 -2.775113
-1.666667 -2.753186
-1.666667 -2.730238
-1.666667 -2.706271
-1.666667 -2.681283
-1.666667 -2.655276
-1.666667 -2.628249
-1.666667 -2.600202
-1.666667 -2.571135
-1.666667 -2.541048
-1.666667 -2.509941
-1.666667 -2.477814
-1.666667 -2.444668
-1.666667 -2.410501
-1.666667 -2.375315
-1.666667 -2.339109
-1.666667 -2.301883
-1.666667 -2.263637
-1.666667 -2.224371
-1.666667 -2.184085
-1.666667 -2.142779
-1.666667 -2.100454
-1.666667 -2.057108
-1.666667 -2.012743
-1.666667 -1.967357
-1.666667 -1.920952
-1.666667 -1.873527
-1.666667 -1.825082
-1.666667 -1.775617
-1.666667 -1.725133
-1.666667 -1.673628
-1.666667 -1.621103
-1.666667 -1.567559
-1.666667 -1.512995
-1.666667 -1.457410
-1.666667 -1.400806
-1.666667 -1.343182
-1.666667 -1.284538
-1.666667 -1.224875
-1.666667 -1.164191
-1.666667 -1.102487
-1.666667 -1.039764
-1.666667 -0.976021
-1.666667 -0.911257
-1.666667 -0.845474
-1.666667 -0.778671
-1.666667 -0.710848
-1.666667 -0.642005
-1.666667 -0.572143
-1.666667 -0.501260
-1.666667 -0.429357
-1.666667 -0.356435
-1.666667 -0.282493
-1.666667 -0.207531
-1.666667 -0.131548
-1.666667 -0.054546
-1.666667 0.023475
-1.666667 0.102517
-1.666667 0.182579
-1.666667 0.263660
-1.666667 0.345762
-1.666667 0.428883
-1.666667 0.513025
-1.666667 0.598186
-1.666667 0.684367
-1.666667 0.771568
-1.666667 0.859788
-1.666667 0.949029
-1.666667 1.039290
-1.666667 1.130570
-1.666667 1.222871
-1.666667 1.316191
-1.666667 1.410531
-1.666667 1.505891
-1.666667 1.602271
-1.666667 1.699671
-1.666667 1.798091
-1.666667 1.897530
-1.666667 1.998000
-0.833333 -3.000000
-0.833333 -2.999490
-0.833333 -2.997960
-0.833333 -2.995410
-0.833333 -2.991841
-0.833333 -2.987251
-0.833333 -2.981642
-0.833333 -2.975013
-0.833333 -2.967363
-0.833333 -2.958694
-0.833333 -2.949005
-0.833333 -2.938296
-0.833333 -2.926568
-0.833333 -2.913819
-0.833333 -2.900050
-0.833333 -2.885262
-0.833333 -2.869454
-0.833333 -2.852625
-0.833333 -2.834777
-0.833333 -2.815909
-0.833333 -2.796021
-0.833333 -2.775113
-0.833333 -2.753186
-0.833333 -2.730238
-0.833333 -2.706271
-0.833333 -2.681283
-0.833333 -2.655276
-0.833333 -2.628249
-0.833333 -2.600202
-0.833333 -2.571135
-0.833333 -2.541048
-0.833333 -2.509941
-0.833333 -2.477814
-0.833333 -2.444668
-0.833333 -2.410501
-0.833333 -2.375315
-0.833333 -2.339109
-0.833333 -2.301883
-0.833333 -2.263637
-0.833333 -2.224371
-0.833333 -2.184085
-0.833333 -2.142779
-0.833333 -2.100454
-0.833333 -2.057108
-0.833333 -2.012743
-0.833333 -1.967357
-0.833333 -1.920952
-0.833333 -1.873527
-0.833333 -1.825082
-0.833333 -1.775617
-0.833333 -1.725133
-0.833333 -1.673628
-0.833333 -1.621103
-0.833333 -1.567559
-0.833333 -1.512995
-0.833333 -1.457410
-0.833333 -1.400806
-0.833333 -1.343182
-0.833333 -1.284538
-0.833333 -1.224875
-0.833333 -1.164191
-0.833333 -1.102487
-0.833333 -1.039764
-0.833333 -0.976021
-0.833333 -0.911257
-0.833333 -0.845474
-0.833333 -0.778671
-0.833333 -0.710848
-0.833333 -0.642005
-0.833333 -0.572143
-0.833333 -0.501260
-0.833333 -0.429357
-0.833333 -0.356435
-0.833333 -0.282493
-0.833333 -0.207531
-0.833333 -0.131548
-0.833333 -0.054546
-0.833333 0.023475
-0.833333 0.102517
-0.833333 0.182579
-0.833333 0.263660
-0.833333 0.345762
-0.833333 0.428883
-0.833333 0.513025
-0.833333 0.598186
-0.833333 0.684367
-0.833333 0.771568
-0.833333 0.859788
-0.833333 0.949029
-0.833333 1.039290
-0.833333 1.130570
-0.833333 1.222871
-0.833333 1.316191
-0.833333 1.410531
-0.833333 1.505891
-0.833333 1.602271
-0.833333 1.699671
-0.833333 1.798091
-0.833333 1.897530
-0.833333 1.998000
-0.000000 -3.000000
-0.000000 -2.999490
-0.000000 -2.997960
-0.000000 -2.995410
-0.000000 -2.991841
-0.000000 -2.987251
-0.000000 -2.981642
-0.000000 -2.975013
-0.000000 -2.967363
-0.000000 -2.958694
-0.000000 -2.949005
-0.000000 -2.938296
-0.000000 -2.926568
-0.000000 -2.913819
-0.000000 -2.900050
-0.000000 -2.885262
-0.000000 -2.869454
-0.000000 -2.852625
-0.000000 -2.834777
-0.000000 -2.815909
-0.000000 -2.796021
-0.000000 -2.775113
-0.000000 -2.753186
-0.000000 -2.730238
-0.000000 -2.706271
-0.000000 -2.681283
-0.000000 -2.655276
-0.000000 -2.628249
-0.000000 -2.600202
-0.000000 -2.571135
-0.000000 -2.541048
-0.000000 -2.509941
-0.000000 -2.477814
-0.000000 -2.444668
-0.000000 -2.410501
-0.000000 -2.375315
-0.000000 -2.339109
-0.000000 -2.301883
-0.000000 -2.263637
-0.000000 -2.224371
-0.000000 -2.184085
-0.000000 -2.142779
-0.000000 -2.100454
-0.000000 -2.057108
-0.000000 -2.012743
-0.000000 -1.967357
-0.000000 -1.920952
-0.000000 -1.873527
-0.000000 -1.825082
-0.000000 -1.775617
-0.000000 -1.725133
-0.000000 -1.673628
-0.000000 -1.621103
-0.000000 -1.567559
-0.000000 -1.512995
-0.000000 -1.457410
-0.000000 -1.400806
-0.000000 -1.343182
-0.000000 -1.284538
-0.000000 -1.224875
-0.000000 -1.164191
-0.000000 -1.102487
-0.000000 -1.039764
-0.000000 -0.976021
-0.000000 -0.911257
-0.000000 -0.845474
-0.000000 -0.778671
-0.000000 -0.710848
-0.000000 -0.642005
-0.000000 -0.572143
-0.000000 -0.501260
-0.000000 -0.429357
-0.000000 -0.356435
-0.000000 -0.282493
-0.000000 -0.207531
-0.000000 -0.131548
-0.000000 -0.054546
-0.000000 0.023475
-0.000000 0.102517
-0.000000 0.182579
-0.000000 0.263660
-0.000000 0.345762
-0.000000 0.428883
-0.000000 0.513025
-0.000000 0.598186
-0.000000 0.684367
-0.000000 0.771568
-0.000000 0.859788
-0.000000 0.949029
-0.000000 1.039290
-0.000000 1.130570
-0.000000 1.222871
-0.000000 1.316191
-0.000000 1.410531
-0.000000 1.505891
-0.000000 1.602271
-0.000000 1.699671
-0.000000 1.798091
-0.000000 1.897530
-0.000000 1.998000
0.833333 -3.000000
0.833333 -2.999490
0.833333 -2.997960
0.833333 -2.995410
0.833333 -2.991841
0.833333 -2.987251
0.833333 -2.981642
0.833333 -2.975013
0.833333 -2.967363
0.833333 -2.958694
0.833333 -2.949005
0.833333 -2.938296
0.833333 -2.926568
0.833333 -2.913819
0.833333 -2.900050
0.833333 -2.885262
0.833333 -2.869454
0.833333 -2.852625
0.833333 -2.834777
0.833333 -2.815909
0.833333 -2.796021
0.833333 -2.775113
0.833333 -2.753186
0.833333 -2.730238
0.833333 -2.706271
0.833333 -2.681283
0.833333 -2.655276
0.833333 -2.628249
0.833333 -2.600202
0.833333 -2.571135
0.833333 -2.541048
0.833333 -2.509941
0.833333 -2.477814
0.833333 -2.444668
0.833333 -2.410501
0.833333 -2.375315
0.833333 -2.339109
0.833333 -2.301883
0.833333 -2.263637
0.833333 -2.224371
0.833333 -2.184085
0.833333 -2.142779
0.833333 -2.100454
0.833333 -2.057108
0.833333 -2.012743
0.833333 -1.967357
0.833333 -1.920952
0.833333 -1.873527
0.833333 -1.825082
0.833333 -1.775617
0.833333 -1.725133
0.833333 -1.673628
0.833333 -1.621103
0.833333 -1.567559
0.833333 -1.512995
0.833333 -1.457410
0.833333 -1.400806
0.833333 -1.343182
0.833333 -1.284538
0.833333 -1.224875
0.833333 -1.164191
0.833333 -1.102487
0.833333 -1.039764
0.833333 -0.976021
0.833333 -0.911257
0.833333 -0.845474
0.833333 -0.778671
0.833333 -0.710848
0.833333 -0.642005
0.833333 -0.572143
0.833333 -0.501260
0.833333 -0.429357
0.833333 -0.356435
0.833333 -0.282493
0.833333 -0.207531
0.833333 -0.131548
0.833333 -0.054546
0.833333 0.023475
0.833333 0.102517
0.833333 0.182579
0.833333 0.263660
0.833333 0.345762
0.833333 0.428883
0.833333 0.513025
0.833333 0.598186
0.833333 0.684367
0.833333 0.771568
0.833333 0.859788
0.833333 0.949029
0.833333 1.039290
0.833333 1.130570
0.833333 1.222871
0.833333 1.316191
0.833333 1.410531
0.833333 1.505891
0.833333 1.602271
0.833333 1.699671
0.833333 1.798091
0.833333 1.897530
0.833333 1.998000
1.666667 -3.000000
1.666667 -2.999490
1.666667 -2.997960
1.666667 -2.995410
1.666667 -2.991841
1.666667 -2.987251
1.666667 -2.981642
1.666667 -2.975013
1.666667 -2.967363
1.666667 -2.958694
1.666667 -2.949005
1.666667 -2.938296
1.666667 -2.926568
1.666667 -2.913819
1.666667 -2.900050
1.666667 -2.885262
1.666667 -2.869454
1.666667 -2.852625
1.666667 -2.834777
1.666667 -2.815909
1.666667 -2.796021
1.666667 -2.775113
1.666667 -2.753186
1.666667 -2.730238
1.666667 -2.706271
1.666667 -2.681283
1.666667 -2.655276
1.666667 -2.628249
1.666667 -2.600202
1.666667 -2.571135
1.666667 -2.541048
1.666667 -2.509941
1.666667 -2.477814
1.666667 -2.444668
1.666667 -2.410501
1.666667 -2.375315
1.666667 -2.339109
1.666667 -2.301883
1.666667 -2.263637
1.666667 -2.224371
1.666667 -2.184085
1.666667 -2.142779
1.666667 -2.100454
1.666667 -2.057108
1.666667 -2.012743
1.666667 -1.967357
1.666667 -1.920952
1.666667 -1.873527
1.666667 -1.825082
1.666667 -1.775617
1.666667 -1.725133
1.666667 -1.673628
1.666667 -1.621103
1.666667 -1.567559
1.666667 -1.512995
1.666667 -1.457410
1.666667 -1.400806
1.666667 -1.343182
1.666667 -1.284538
1.666667 -1.224875
1.666667 -1.164191
1.666667 -1.102487
1.666667 -1.039764
1.666667 -0.976021
1.666667 -0.911257
1.666667 -0.845474
1.666667 -0.778671
1.666667 -0.710848
1.666667 -0.642005
1.666667 -0.572143
1.666667 -0.501260
1.666667 -0.429357
1.666667 -0.356435
1.666667 -0.282493
1.666667 -0.207531
1.666667 -0.131548
1.666667 -0.054546
1.666667 0.023475
1.666667 0.102517
1.666667 0.182579
1.666667 0.263660
1.666667 0.345762
1.666667 0.428883
1.666667 0.513025
1.666667 0.598186
1.666667 0.684367
1.666667 0.771568
1.666667 0.859788
1.666667 0.949029
1.666667 1.039290
1.666667 1.130570
1.666667 1.222871
1.666667 1.316191
1.666667 1.410531
1.666667 1.505891
1.666667 1.602271
1.666667 1.699671
1.666667 1.798091
1.666667 1.897530
1.666667 1.998000
2.500000 -3.000000
2.500000 -2.999490
2.500000 -2.997960
2.500000 -2.995410
2.500000 -2.991841
2.500000 -2.987251
2.500000 -2.981642
2.500000 -2.975013
2.500000 -2.967363
2.500000 -2.958694
2.500000 -2.949005
2.500000 -2.938296
2.500000 -2.926568
2.500000 -2.913819
2.500000 -2.900050
2.500000 -2.885262
2.500000 -2.869454
2.500000 -2.852625
2.500000 -2.834777
2.500000 -2.815909
2.500000 -2.796021
2.500000 -2.775113
2.500000 -2.753186
2.500000 -2.730238
2.500000 -2.706271
2.500000 -2.681283
2.500000 -2.655276
2.500000 -2.628249
2.500000 -2.600202
2.500000 -2.571135
2.500000 -2.541048
2.500000 -2.509941
2.500000 -2.477814
2.500000 -2.444668
2.500000 -2.410501
2.500000 -2.375315
2.500000 -2.339109
2.500000 -2.301883
2.500000 -2.263637
2.500000 -2.224371
2.500000 -2.184085
2.500000 -2.142779
2.500000 -2.100454
2.500000 -2.057108
2.500000 -2.012743
2.500000 -1.967357
2.500000 -1.920952
2.500000 -1.873527
2.500000 -1.825082
2.500000 -1.775617
2.500000 -1.725133
2.500000 -1.673628
2.500000 -1.621103
2.500000 -1.567559
2.500000 -1.512995
2.500000 -1.457410
2.500000 -1.400806
2.500000 -1.343182
2.500000 -1.284538
2.500000 -1.224875
2.500000 -1.164191
2.500000 -1.102487
2.500000 -1.039764
2.500000 -0.976021
2.500000 -0.911257
2.500000 -0.845474
2.500000 -0.778671
2.500000 -0.710848
2.500000 -0.642005
2.500000 -0.572143
2.500000 -0.501260
2.500000 -0.429357
2.500000 -0.356435
2.500000 -0.282493
2.500000 -0.207531
2.500000 -0.131548
2.500000 -0.054546
2.500000 0.023475
2.500000 0.102517
2.500000 0.182579
2.500000 0.263660
2.500000 0.345762
2.500000 0.428883
2.500000 0.513025
2.500000 0.598186
2.500000 0.684367
2.500000 0.771568
2.500000 0.859788
2.500000 0.949029
2.500000 1.039290
2.500000 1.130570
2.500000 1.222871
2.500000 1.316191
2.500000 1.410531
2.500000 1.505891
2.500000 1.602271
2.500000 1.699671
2.500000 1.798091
2.500000 1.897530
2.500000 1.998000
3.333333 -3.000000
3.333333 -2.999490
3.333333 -2.997960
3.333333 -2.995410
3.333333 -2.991841
3.333333 -2.987251
3.333333 -2.981642
3.333333 -2.975013
3.333333 -2.967363
3.333333 -2.958694
3.333333 -2.949005
3.333333 -2.938296
3.333333 -2.926568
3.333333 -2.913819
3.333333 -2.900050
3.333333 -2.885262
3.333333 -2.869454
3.333333 -2.852625
3.333333 -2.834777
3.333333 -2.815909
3.333333 -2.796021
3.333333 -2.775113
3.333333 -2.753186
3.333333 -2.730238
3.333333 -2.706271
3.333333 -2.681283
3.333333 -2.655276
3.333333 -2.628249
3.333333 -2.600202
3.333333 -2.571135
3.333333 -2.541048
3.333333 -2.509941
3.333333 -2.477814
3.333333 -2.444668
3.333333 -2.410501
3.333333 -2.375315
3.333333 -2.339109
3.333333 -2.301883
3.333333 -2.263637
3.333333 -2.224371
3.333333 -2.184085
3.333333 -2.142779
3.333333 -2.100454
3.333333 -2.057108
3.333333 -2.012743
3.333333 -1.967357
3.333333 -1.920952
3.333333 -1.873527
3.333333 -1.825082
3.333333 -1.775617
3.333333 -1.725133
3.333333 -1.673628
3.333333 -1.621103
3.333333 -1.567559
3.333333 -1.512995
3.333333 -1.457410
3.333333 -1.400806
3.333333 -1.343182
3.333333 -1.284538
3.333333 -1.224875
3.333333 -1.164191
3.333333 -1.102487
3.333333 -1.039764
3.333333 -0.976021
3.333333 -0.911257
3.333333 -0.845474
3.333333 -0.778671
3.333333 -0.710848
3.333333 -0.642005
3.333333 -0.572143
3.333333 -0.501260
3.333333 -0.429357
3.333333 -0.356435
3.333333 -0.282493
3.333333 -0.207531
3.333333 -0.131548
3.333333 -0.054546
3.333333 0.023475
3.333333 0.102517
3.333333 0.182579
3.333333 0.263660
3.333333 0.345762
3.333333 0.428883
3.333333 0.513025
3.333333 0.598186
3.333333 0.684367
3.333333 0.771568
3.333333 0.859788
3.333333 0.949029
3.333333 1.039290
3.333333 1.130570
3.333333 1.222871
3.333333 1.316191
3.333333 1.410531
3.333333 1.505891
3.333333 1.602271
3.333333 1.699671
3.333333 1.798091
3.333333 1.897530
3.333333 1.998000
4.166667 -3.000000
4.166667 -2.999490
4.166667 -2.997960
4.166667 -2.995410
4.166667 -2.991841
4.166667 -2.987251
4.166667 -2.981642
4.166667 -2.975013
4.166667 -2.967363
4.166667 -2.958694
4.166667 -2.949005
4.166667 -2.938296
4.166667 -2.926568
4.166667 -2.913819
4.166667 -2.900050
4.166667 -2.885262
4.166667 -2.869454
4.166667 -2.852625
4.166667 -2.834777
4.166667 -2.815909
4.166667 -2.796021
4.166667 -2.775113
4.166667 -2.753186
4.166667 -2.730238
4.166667 -2.706271
4.166667 -2.681283
4.166667 -2.655276
4.166667 -2.628249
4.166667 -2.600202
4.166667 -2.571135
4.166667 -2.541048
4.166667 -2.509941
4.166667 -2.477814
4.166667 -2.444668
4.166667 -2.410501
4.166667 -2.375315
4.166667 -2.339109
4.166667 -2.301883
4.166667 -2.263637
4.166667 -2.224371
4.166667 -2.184085
4.166667 -2.142779
4.166667 -2.100454
4.166667 -2.057108
4.166667 -2.012743
4.166667 -1.967357
4.166667 -1.920952
4.166667 -1.873527
4.166667 -1.825082
4.166667 -1.775617
4.166667 -1.725133
4.166667 -1.673628
4.166667 -1.621103
4.166667 -1.567559
4.166667 -1.512995
4.166667 -1.457410
4.166667 -1.400806
4.166667 -1.343182
4.166667 -1.284538
4.166667 -1.224875
4.166667 -1.164191
4.166667 -1.102487
4.166667 -1.039764
4.166667 -0.976021
4.166667 -0.911257
4.166667 -0.845474
4.166667 -0.778671
4.166667 -0.710848
4.166667 -0.642005
4.166667 -0.572143
4.166667 -0.501260
4.166667 -0.429357
4.166667 -0.356435
4.166667 -0.282493
4.166667 -0.207531
4.166667 -0.131548
4.166667 -0.054546
4.166667 0.023475
4.166667 0.102517
4.166667 0.182579
4.166667 0.263660
4.166667 0.345762
4.166667 0.428883
4.166667 0.513025
4.166667 0.598186
4.166667 0.684367
4.166667 0.771568
4.166667 0.859788
4.166667 0.949029
4.166667 1.039290
4.166667 1.130570
4.166667 1.222871
4.166667 1.316191
4.166667 1.410531
4.166667 1.505891
4.166667 1.602271
4.166667 1.699671
4.166667 1.798091
4.166667 1.897530
4.166667 1.998000
5.000000 -3.000000
5.000000 -2.999490
5.000000 -2.997960
5.000000 -2.995410
5.000000 -2.991841
5.000000 -2.987251
5.000000 -2.981642
5.000000 -2.975013
5.000000 -2.967363
5.000000 -2.958694
5.000000 -2.949005
5.000000 -2.938296
5.000000 -2.926568
5.000000 -2.913819
5.000000 -2.900050
5.000000 -2.885262
5.000000 -2.869454
5.000000 -2.852625
5.000000 -2.834777
5.000000 -2.815909
5.000000 -2.796021
5.000000 -2.775113
5.000000 -2.753186
5.000000 -2.730238
5.000000 -2.706271
5.000000 -2.681283
5.000000 -2.655276
5.000000 -2.628249
5.000000 -2.600202
5.000000 -2.571135
5.000000 -2.541048
5.000000 -2.509941
5.000000 -2.477814
5.000000 -2.444668
5.000000 -2.410501
5.000000 -2.375315
5.000000 -2.339109
5.000000 -2.301883
5.000000 -2.263637
5.000000 -2.224371
5.000000 -2.184085
5.000000 -2.142779
5.000000 -2.100454
5.000000 -2.057108
5.000000 -2.012743
5.000000 -1.967357
5.000000 -1.920952
5.000000 -1.873527
5.000000 -1.825082
5.000000 -1.775617
5.000000 -1.725133
5.000000 -1.673628
5.000000 -1.621103
5.000000 -1.567559
5.000000 -1.512995
5.000000 -1.457410
5.000000 -1.400806
5.000000 -1.343182
5.000000 -1.284538
5.000000 -1.224875
5.000000 -1.164191
5.000000 -1.102487
5.000000 -1.039764
5.000000 -0.976021
5.000000 -0.911257
5.000000 -0.845474
5.000000 -0.778671
5.000000 -0.710848
5.000000 -0.642005
5.000000 -0.572143
5.000000 -0.501260
5.000000 -0.429357
5.000000 -0.356435
5.000000 -0.282493
5.000000 -0.207531
5.000000 -0.131548
5.000000 -0.054546
5.000000 0.023475
5.000000 0.102517
5.000000 0.182579
5.000000 0.263660
5.000000 0.345762
5.000000 0.428883
5.000000 0.513025
5.000000 0.598186
5.000000 0.684367
5.000000 0.771568
5.000000 0.859788
5.000000 0.949029
5.000000 1.039290
5.000000 1.130570
5.000000 1.222871
5.000000 1.316191
5.000000 1.410531
5.000000 1.505891
5.000000 1.602271
5.000000 1.699671
5.000000 1.798091
5.000000 1.897530
5.000000 1.998000
5.833333 -3.000000
5.833333 -2.999490
5.833333 -2.997960
5.833333 -2.995410
5.833333 -2.991841
5.833333 -2.987251
5.833333 -2.981642
5.833333 -2.975013
5.833333 -2.967363
5.833333 -2.958694
5.833333 -2.949005
5.833333 -2.938296
5.833333 -2.926568
5.833333 -2.913819
5.833333 -2.900050
5.833333 -2.885262
5.833333 -2.869454
5.833333 -2.852625
5.833333 -2.834777
5.833333 -2.815909
5.833333 -2.796021
5.833333 -2.775113
5.833333 -2.753186
5.833333 -2.730238
5.833333 -2.706271
5.833333 -2.681283
5.833333 -2.655276
5.833333 -2.628249
5.833333 -2.600202
5.833333 -2.571135
5.833333 -2.541048
5.833333 -2.509941
5.833333 -2.477814
5.833333 -2.444668
5.833333 -2.410501
5.833333 -2.375315
5.833333 -2.339109
5.833333 -2.301883
5.833333 -2.263637
5.833333 -2.224371
5.833333 -2.184085
5.833333 -2.142779
5.833333 -2.100454
5.833333 -2.057108
5.833333 -2.012743
5.833333 -1.967357
5.833333 -1.920952
5.833333 -1.873527
5.833333 -1.825082
5.833333 -1.775617
5.833333 -1.725133
5.833333 -1.673628
5.833333 -1.621103
5.833333 -1.567559
5.833333 -1.512995
5.833333 -1.457410
5.833333 -1.400806
5.833333 -1.343182
5.833333 -1.284538
5.833333 -1.224875
5.833333 -1.164191
5.833333 -1.102487
5.833333 -1.039764
5.833333 -0.976021
5.833333 -0.911257
5.833333 -0.845474
5.833333 -0.778671
5.833333 -0.710848
5.833333 -0.642005
5.833333 -0.572143
5.833333 -0.501260
5.833333 -0.429357
5.833333 -0.356435
5.833333 -0.282493
5.833333 -0.207531
5.833333 -0.131548
5.833333 -0.054546
5.833333 0.023475
5.833333 0.102517
5.833333 0.182579
5.833333 0.263660
5.833333 0.345762
5.833333 0.428883
5.833333 0.513025
5.833333 0.598186
5.833333 0.684367
5.833333 0.771568
5.833333 0.859788
5.833333 0.949029
5.833333 1.039290
5.833333 1.130570
5.833333 1.222871
5.833333 1.316191
5.833333 1.410531
5.833333 1.505891
5.833333 1.602271
5.833333 1.699671
5.833333 1.798091
5.833333 1.897530
5.833333 1.998000
6.666667 -3.000000
6.666667 -2.999490
6.666667 -2.997960
6.666667 -2.995410
6.666667 -2.991841
6.666667 -2.987251
6.666667 -2.981642
6.666667 -2.975013
6.666667 -2.967363
6.666667 -2.958694
6.666667 -2.949005
6.666667 -2.938296
6.666667 -2.926568
6.666667 -2.913819
6.666667 -2.900050
6.666667 -2.885262
6.666667 -2.869454
6.666667 -2.852625
6.666667 -2.834777
6.666667 -2.815909
6.666667 -2.796021
6.666667 -2.775113
6.666667 -2.753186
6.666667 -2.730238
6.666667 -2.706271
6.666667 -2.681283
6.666667 -2.655276
6.666667 -2.628249
6.666667 -2.600202
6.666667 -2.571135
6.666667 -2.541048
6.666667 -2.509941
6.666667 -2.477814
6.666667 -2.444668
6.666667 -2.410501
6.666667 -2.375315
6.666667 -2.339109
6.666667 -2.301883
6.666667 -2.263637
6.666667 -2.224371
6.666667 -2.184085
6.666667 -2.142779
6.666667 -2.100454
6.666667 -2.057108
6.666667 -2.012743
6.666667 -1.967357
6.666667 -1.920952
6.666667 -1.873527
6.666667 -1.825082
6.666667 -1.775617
6.666667 -1.725133
6.666667 -1.673628
6.666667 -1.621103
6.666667 -1.567559
6.666667 -1.512995
6.666667 -1.457410
6.666667 -1.400806
6.666667 -1.343182
6.666667 -1.284538
6.666667 -1.224875
6.666667 -1.164191
6.666667 -1.102487
6.666667 -1.039764
6.666667 -0.976021
6.666667 -0.911257
6.666667 -0.845474
6.666667 -0.778671
6.666667 -0.710848
6.666667 -0.642005
6.666667 -0.572143
6.666667 -0.501260
6.666667 -0.429357
6.666667 -0.356435
6.666667 -0.282493
6.666667 -0.207531
6.666667 -0.131548
6.666667 -0.054546
6.666667 0.023475
6.666667 0.102517
6.666667 0.182579
6.666667 0.263660
6.666667 0.345762
6.666667 0.428883
6.666667 0.513025
6.666667 0.598186
6.666667 0.684367
6.666667 0.771568
6.666667 0.859788
6.666667 0.949029
6.666667 1.039290
6.666667 1.130570
6.666667 1.222871
6.666667 1.316191
6.666667 1.410531
6.666667 1.505891
6.666667 1.602271
6.666667 1.699671
6.666667 1.798091
6.666667 1.897530
6.666667 1.998000
7.500000 -3.000000
7.500000 -2.999490
7.500000 -2.997960
7.500000 -2.995410
7.500000 -2.991841
7.500000 -2.987251
7.500000 -2.981642
7.500000 -2.975013
7.500000 -2.967363
7.500000 -2.958694
7.500000 -2.949005
7.500000 -2.938296
7.500000 -2.926568
7.500000 -2.913819
7.500000 -2.900050
7.500000 -2.885262
7.500000 -2.869454
7.500000 -2.852625
7.500000 -2.834777
7.500000 -2.815909
7.500000 -2.796021
7.500000 -2.775113
7.500000 -2.753186
7.500000 -2.730238
7.500000 -2.706271
7.500000 -2.681283
7.500000 -2.655276
7.500000 -2.628249
7.500000 -2.600202
7.500000 -2.571135
7.500000 -2.541048
7.500000 -2.509941
7.500000 -2.477814
7.500000 -2.444668
7.500000 -2.410501
7.500000 -2.375315
7.500000 -2.339109
7.500000 -2.301883
7.500000 -2.263637
7.500000 -2.224371
7.500000 -2.184085
7.500000 -2.142779
7.500000 -2.100454
7.500000 -2.057108
7.500000 -2.012743
7.500000 -1.967357
7.500000 -1.920952
7.500000 -1.873527
7.500000 -1.825082
7.500000 -1.775617
7.500000 -1.725133
7.500000 -1.673628
7.500000 -1.621103
7.500000 -1.567559
7.500000 -1.512995
7.500000 -1.457410
7.500000 -1.400806
7.500000 -1.343182
7.500000 -1.284538
7.500000 -1.224875
7.500000 -1.164191
7.500000 -1.102487
7.500000 -1.039764
7.500000 -0.976021
7.500000 -0.911257
7.500000 -0.845474
7.500000 -0.778671
7.500000 -0.710848
7.500000 -0.642005
7.500000 -0.572143
7.500000 -0.501260
7.500000 -0.429357
7.500000 -0.356435
7.500000 -0.282493
7.500000 -0.207531
7.500000 -0.131548
7.500000 -0.054546
7.500000 0.023475
7.500000 0.102517
7.500000 0.182579
7.500000 0.263660
7.500000 0.345762
7.500000 0.428883
7.500000 0.513025
7.500000 0.598186
7.500000 0.684367
7.500000 0.771568
7.500000 0.859788
7.500000 0.949029
7.500000 1.039290
7.500000 1.130570
7.500000 1.222871
7.500000 1.316191
7.500000 1.410531
7.500000 1.505891
7.500000 1.602271
7.500000 1.699671
7.500000 1.798091
7.500000 1.897530
7.500000 1.998000
8.333333 -3.000000
8.333333 -2.999490
8.333333 -2.997960
8.333333 -2.995410
8.333333 -2.991841
8.333333 -2.987251
8.333333 -2.981642
8.333333 -2.975013
8.333333 -2.967363
8.333333 -2.958694
8.333333 -2.949005
8.333333 -2.938296
8.333333 -2.926568
8.333333 -2.913819
8.333333 -2.900050
8.333333 -2.885262
8.333333 -2.869454
8.333333 -2.852625
8.333333 -2.834777
8.333333 -2.815909
8.333333 -2.796021
8.333333 -2.775113
8.333333 -2.753186
8.333333 -2.730238
8.333333 -2.706271
8.333333 -2.681283
8.333333 -2.655276
8.333333 -2.628249
8.333333 -2.600202
8.333333 -2.571135
8.333333 -2.541048
8.333333 -2.509941
8.333333 -2.477814
8.333333 -2.444668
8.333333 -2.410501
8.333333 -2.375315
8.333333 -2.339109
8.333333 -2.301883
8.333333 -2.263637
8.333333 -2.224371
8.333333 -2.184085
8.333333 -2.142779
8.333333 -2.100454
8.333333 -2.057108
8.333333 -2.012743
8.333333 -1.967357
8.333333 -1.920952
8.333333 -1.873527
8.333333 -1.825082
8.333333 -1.775617
8.333333 -1.725133
8.333333 -1.673628
8.333333 -1.621103
8.333333 -1.567559
8.333333 -1.512995
8.333333 -1.457410
8.333333 -1.400806
8.333333 -1.343182
8.333333 -1.284538
8.333333 -1.224875
8.333333 -1.164191
8.333333 -1.102487
8.333333 -1.039764
8.333333 -0.976021
8.333333 -0.911257
8.333333 -0.845474
8.333333 -0.778671
8.333333 -0.710848
8.333333 -0.642005
8.333333 -0.572143
8.333333 -0.501260
8.333333 -0.429357
8.333333 -0.356435
8.333333 -0.282493
8.333333 -0.207531
8.333333 -0.131548
8.333333 -0.054546
8.333333 0.023475
8.333333 0.102517
8.333333 0.182579
8.333333 0.263660
8.333333 0.345762
8.333333 0.428883
8.333333 0.513025
8.333333 0.598186
8.333333 0.684367
8.333333 0.771568
8.333333 0.859788
8.333333 0.949029
8.333333 1.039290
8.333333 1.130570
8.333333 1.222871
8.333333 1.316191
8.333333 1.410531
8.333333 1.505891
8.333333 1.602271
8.333333 1.699671
8.333333 1.798091
8.333333 1.897530
8.333333 1.998000
9.166667 -3.000000
9.166667 -2.999490
9.166667 -2.997960
9.166667 -2.995410
9.166667 -2.991841
9.166667 -2.987251
9.166667 -2.981642
9.166667 -2.975013
9.166667 -2.967363
9.166667 -2.958694
9.166667 -2.949005
9.166667 -2.938296
9.166667 -2.926568
9.166667 -2.913819
9.166667 -2.900050
9.166667 -2.885262
9.166667 -2.869454
9.166667 -2.852625
9.166667 -2.834777
9.166667 -2.815909
9.166667 -2.796021
9.166667 -2.775113
9.166667 -2.753186
9.166667 -2.730238
9.166667 -2.706271
9.166667 -2.681283
9.166667 -2.655276
9.166667 -2.628249
9.166667 -2.600202
9.166667 -2.571135
9.166667 -2.541048
9.166667 -2.509941
9.166667 -2.477814
9.166667 -2.444668
9.166667 -2.410501
9.166667 -2.375315
9.166667 -2.339109
9.166667 -2.301883
9.166667 -2.263637
9.166667 -2.224371
9.166667 -2.184085
9.166667 -2.142779
9.166667 -2.100454
9.166667 -2.057108
9.166667 -2.012743
9.166667 -1.967357
9.166667 -1.920952
9.166667 -1.873527
9.166667 -1.825082
9.166667 -1.775617
9.166667 -1.725133
9.166667 -1.673628
9.166667 -1.621103
9.166667 -1.567559
9.166667 -1.512995
9.166667 -1.457410
9.166667 -1.400806
9.166667 -1.343182
9.166667 -1.284538
9.166667 -1.224875
9.166667 -1.164191
9.166667 -1.102487
9.166667 -1.039764
9.166667 -0.976021
9.166667 -0.911257
9.166667 -0.845474
9.166667 -0.778671
9.166667 -0.710848
9.166667 -0.642005
9.166667 -0.572143
9.166667 -0.501260
9.166667 -0.429357
9.166667 -0.356435
9.166667 -0.282493
9.166667 -0.207531
9.166667 -0.131548
9.166667 -0.054546
9.166667 0.023475
9.166667 0.102517
9.166667 0.182579
9.166667 0.263660
9.166667 0.345762
9.166667 0.428883
9.166667 0.513025
9.166667 0.598186
9.166667 0.684367
9.166667 0.771568
9.166667 0.859788
9.166667 0.949029
9.166667 1.039290
9.166667 1.130570
9.166667 1.222871
9.166667 1.316191
9.166667 1.410531
9.166667 1.505891
9.166667 1.602271
9.166667 1.699671
9.166667 1.798091
9.166667 1.897530
9.166667 1.998000
10.000000 -3.000000
10.000000 -2.999490
10.000000 -2.997960
10.000000 -2.995410
10.000000 -2.991841
10.000000 -2.987251
10.000000 -2.981642
10.000000 -2.975013
10.000000 -2.967363
10.000000 -2.958694
10.000000 -2.949005
10.000000 -2.938296
10.000000 -2.926568
10.000000 -2.913819
10.000000 -2.900050
10.000000 -2.885262
10.000000 -2.869454
10.000000 -2.852625
10.000000 -2.834777
10.000000 -2.815909
10.000000 -2.796021
10.000000 -2.775113
10.000000 -2.753186
10.000000 -2.730238
10.000000 -2.706271
10.000000 -2.681283
10.000000 -2.655276
10.000000 -2.628249
10.000000 -2.600202
10.000000 -2.571135
10.000000 -2.541048
10.000000 -2.509941
10.000000 -2.477814
10.000000 -2.444668
10.000000 -2.410501
10.000000 -2.375315
10.000000 -2.339109
10.000000 -2.301883
10.000000 -2.263637
10.000000 -2.224371
10.000000 -2.184085
10.000000 -2.142779
10.000000 -2.100454
10.000000 -2.057108
10.000000 -2.012743
10.000000 -1.967357
10.000000 -1.920952
10.000000 -1.873527
10.000000 -1.825082
10.000000 -1.775617
10.000000 -1.725133
10.000000 -1.673628
10.000000 -1.621103
10.000000 -1.567559
10.000000 -1.512995
10.000000 -1.457410
10.000000 -1.400806
10.000000 -1.343182
10.000000 -1.284538
10.000000 -1.224875
10.000000 -1.164191
10.000000 -1.102487
10.000000 -1.039764
10.000000 -0.976021
10.000000 -0.911257
10.000000 -0.845474
10.000000 -0.778671
10.000000 -0.710848
10.000000 -0.642005
10.000000 -0.572143
10.000000 -0.501260
10.000000 -0.429357
10.000000 -0.356435
10.000000 -0.282493
10.000000 -0.207531
10.000000 -0.131548
10.000000 -0.054546
10.000000 0.023475
10.000000 0.102517
10.000000 0.182579
10.000000 0.263660
10.000000 0.345762
10.000000 0.428883
10.000000 0.513025
10.000000 0.598186
10.000000 0.684367
10.000000 0.771568
10.000000 0.859788
10.000000 0.949029
10.000000 1.039290
10.000000 1.130570
10.000000 1.222871
10.000000 1.316191
10.000000 1.410531
10.000000 1.505891
10.000000 1.602271
10.000000 1.699671
10.000000 1.798091
10.000000 1.897530
10.000000 1.998000
10.833333 -3.000000
10.833333 -2.999490
10.833333 -2.997960
10.833333 -2.995410
10.833333 -2.991841
10.833333 -2.987251
10.833333 -2.981642
10.833333 -2.975013
10.833333 -2.967363
10.833333 -2.958694
10.833333 -2.949005
10.833333 -2.938296
10.833333 -2.926568
10.833333 -2.913819
10.833333 -2.900050
10.833333 -2.885262
10.833333 -2.869454
10.833333 -2.852625
10.833333 -2.834777
10.833333 -2.815909
10.833333 -2.796021
10.833333 -2.775113
10.833333 -2.753186
10.833333 -2.730238
10.833333 -2.706271
10.833333 -2.681283
10.833333 -2.655276
10.833333 -2.628249
10.833333 -2.600202
10.833333 -2.571135
10.833333 -2.541048
10.833333 -2.509941
10.833333 -2.477814
10.833333 -2.444668
10.833333 -2.410501
10.833333 -2.375315
10.833333 -2.339109
10.833333 -2.301883
10.833333 -2.263637
10.833333 -2.224371
10.833333 -2.184085
10.833333 -2.142779
10.833333 -2.100454
10.833333 -2.057108
10.833333 -2.012743
10.833333 -1.967357
10.833333 -1.920952
10.833333 -1.873527
10.833333 -1.825082
10.833333 -1.775617
10.833333 -1.725133
10.833333 -1.673628
10.833333 -1.621103
10.833333 -1.567559
10.833333 -1.512995
10.833333 -1.457410
10.833333 -1.400806
10.833333 -1.343182
10.833333 -1.284538
10.833333 -1.224875
10.833333 -1.164191
10.833333 -1.102487
10.833333 -1.039764
10.833333 -0.976021
10.833333 -0.911257
10.833333 -0.845474
10.833333 -0.778671
10.833333 -0.710848
10.833333 -0.642005
10.833333 -0.572143
10.833333 -0.501260
10.833333 -0.429357
10.833333 -0.356435
10.833333 -0.282493
10.833333 -0.207531
10.833333 -0.131548
10.833333 -0.054546
10.833333 0.023475
10.833333 0.102517
10.833333 0.182579
10.833333 0.263660
10.833333 0.345762
10.833333 0.428883
10.833333 0.513025
10.833333 0.598186
10.833333 0.684367
10.833333 0.771568
10.833333 0.859788
10.833333 0.949029
10.833333 1.039290
10.833333 1.130570
10.833333 1.222871
10.833333 1.316191
10.833333 1.410531
10.833333 1.505891
10.833333 1.602271
10.833333 1.699671
10.833333 1.798091
10.833333 1.897530
10.833333 1.998000
11.666667 -3.000000
11.666667 -2.999490
11.666667 -2.997960
11.666667 -2.995410
11.666667 -2.991841
11.666667 -2.987251
11.666667 -2.981642
11.666667 -2.975013
11.666667 -2.967363
11.666667 -2.958694
11.666667 -2.949005
11.666667 -2.938296
11.666667 -2.926568
11.666667 -2.913819
11.666667 -2.900050
11.666667 -2.885262
11.666667 -2.869454
11.666667 -2.852625
11.666667 -2.834777
11.666667 -2.815909
11.666667 -2.796021
11.666667 -2.775113
11.666667 -2.753186
11.666667 -2.730238
11.666667 -2.706271
11.666667 -2.681283
11.666667 -2.655276
11.666667 -2.628249
11.666667 -2.600202
11.666667 -2.571135
11.666667 -2.541048
11.666667 -2.509941
11.666667 -2.477814
11.666667 -2.444668
11.666667 -2.410501
11.666667 -2.375315
11.666667 -2.339109
11.666667 -2.301883
11.666667 -2.263637
11.666667 -2.224371
11.666667 -2.184085
11.666667 -2.142779
11.666667 -2.100454
11.666667 -2.057108
11.666667 -2.012743
11.666667 -1.967357
11.666667 -1.920952
11.666667 -1.873527
11.666667 -1.825082
11.666667 -1.775617
11.666667 -1.725133
11.666667 -1.673628
11.666667 -1.621103
11.666667 -1.567559
11.666667 -1.512995
11.666667 -1.457410
11.666667 -1.400806
11.666667 -1.343182
11.666667 -1.284538
11.666667 -1.224875
11.666667 -1.164191
11.666667 -1.102487
11.666667 -1.039764
11.666667 -0.976021
11.666667 -0.911257
11.666667 -0.845474
11.666667 -0.778671
11.666667 -0.710848
11.666667 -0.642005
11.666667 -0.572143
11.666667 -0.501260
11.666667 -0.429357
11.666667 -0.356435
11.666667 -0.282493
11.666667 -0.207531
11.666667 -0.131548
11.666667 -0.054546
11.666667 0.023475
11.666667 0.102517
11.666667 0.182579
11.666667 0.263660
11.666667 0.345762
11.666667 0.428883
11.666667 0.513025
11.666667 0.598186
11.666667 0.684367
11.666667 0.771568
11.666667 0.859788
11.666667 0.949029
11.666667 1.039290
11.666667 1.130570
11.666667 1.222871
11.666667 1.316191
11.666667 1.410531
11.666667 1.505891
11.666667 1.602271
11.666667 1.699671
11.666667 1.798091
11.666667 1.897530
11.666667 1.998000
12.500000 -3.000000
12.500000 -2.999490
12.500000 -2.997960
12.500000 -2.995410
12.500000 -2.991841
12.500000 -2.987251
12.500000 -2.981642
12.500000 -2.975013
12.500000 -2.967363
12.500000 -2.958694
12.500000 -2.949005
12.500000 -2.938296
12.500000 -2.926568
12.500000 -2.913819
12.500000 -2.900050
12.500000 -2.885262
12.500000 -2.869454
12.500000 -2.852625
12.500000 -2.834777
12.500000 -2.815909
12.500000 -2.796021
12.500000 -2.775113
12.500000 -2.753186
12.500000 -2.730238
12.500000 -2.706271
12.500000 -2.681283
12.500000 -2.655276
12.500000 -2.628249
12.500000 -2.600202
12.500000 -2.571135
12.500000 -2.541048
12.500000 -2.509941
12.500000 -2.477814
12.500000 -2.444668
12.500000 -2.410501
12.500000 -2.375315
12.500000 -2.339109
12.500000 -2.301883
12.500000 -2.263637
12.500000 -2.224371
12.500000 -2.184085
12.500000 -2.142779
12.500000 -2.100454
12.500000 -2.057108
12.500000 -2.012743
12.500000 -1.967357
12.500000 -1.920952
12.500000 -1.873527
12.500000 -1.825082
12.500000 -1.775617
12.500000 -1.725133
12.500000 -1.673628
12.500000 -1.621103
12.500000 -1.567559
12.500000 -1.512995
12.500000 -1.457410
12.500000 -1.400806
12.500000 -1.343182
12.500000 -1.284538
12.500000 -1.224875
12.500000 -1.164191
12.500000 -1.102487
12.500000 -1.039764
12.500000 -0.976021
12.500000 -0.911257
12.500000 -0.845474
12.500000 -0.778671
12.500000 -0.710848
12.500000 -0.642005
12.500000 -0.572143
12.500000 -0.501260
12.500000 -0.429357
12.500000 -0.356435
12.500000 -0.282493
12.500000 -0.207531
12.500000 -0.131548
12.500000 -0.054546
12.500000 0.023475
12.500000 0.102517
12.500000 0.182579
12.500000 0.263660
12.500000 0.345762
12.500000 0.428883
12.500000 0.513025
12.500000 0.598186
12.500000 0.684367
12.500000 0.771568
12.500000 0.859788
12.500000 0.949029
12.500000 1.039290
12.500000 1.130570
12.500000 1.222871
12.500000 1.316191
12.500000 1.410531
12.500000 1.505891
12.500000 1.602271
12.500000 1.699671
12.500000 1.798091
12.500000 1.897530
12.500000 1.998000
13.333333 -3.000000
13.333333 -2.999490
13.333333 -2.997960
13.333333 -2.995410
13.333333 -2.991841
13.333333 -2.987251
13.333333 -2.981642
13.333333 -2.975013
13.333333 -2.967363
13.333333 -2.958694
13.333333 -2.949005
13.333333 -2.938296
13.333333 -2.926568
13.333333 -2.913819
13.333333 -2.900050
13.333333 -2.885262
13.333333 -2.869454
13.333333 -2.852625
13.333333 -2.834777
13.333333 -2.815909
13.333333 -2.796021
13.333333 -2.775113
13.333333 -2.753186
13.333333 -2.730238
13.333333 -2.706271
13.333333 -2.681283
13.333333 -2.655276
13.333333 -2.628249
13.333333 -2.600202
13.333333 -2.571135
13.333333 -2.541048
13.333333 -2.509941
13.333333 -2.477814
13.333333 -2.444668
13.333333 -2.410501
13.333333 -2.375315
13.333333 -2.339109
13.333333 -2.301883
13.333333 -2.263637
13.333333 -2.224371
13.333333 -2.184085
13.333333 -2.142779
13.333333 -2.100454
13.333333 -2.057108
13.333333 -2.012743
13.333333 -1.967357
13.333333 -1.920952
13.333333 -1.873527
13.333333 -1.825082
13.333333 -1.775617
13.333333 -1.725133
13.333333 -1.673628
13.333333 -1.621103
13.333333 -1.567559
13.333333 -1.512995
13.333333 -1.457410
13.333333 -1.400806
13.333333 -1.343182
13.333333 -1.284538
13.333333 -1.224875
13.333333 -1.164191
13.333333 -1.102487
13.333333 -1.039764
13.333333 -0.976021
13.333333 -0.911257
13.333333 -0.845474
13.333333 -0.778671
13.333333 -0.710848
13.333333 -0.642005
13.333333 -0.572143
13.333333 -0.501260
13.333333 -0.429357
13.333333 -0.356435
13.333333 -0.282493
13.333333 -0.207531
13.333333 -0.131548
13.333333 -0.054546
13.333333 0.023475
13.333333 0.102517
13.333333 0.182579
13.333333 0.263660
13.333333 0.345762
13.333333 0.428883
13.333333 0.513025
13.333333 0.598186
13.333333 0.684367
13.333333 0.771568
13.333333 0.859788
13.333333 0.949029
13.333333 1.039290
13.333333 1.130570
13.333333 1.222871
13.333333 1.316191
13.333333 1.410531
13.333333 1.505891
13.333333 1.602271
13.333333 1.699671
13.333333 1.798091
13.333333 1.897530
13.333333 1.998000
14.166667 -3.000000
14.166667 -2.999490
14.166667 -2.997960
14.166667 -2.995410
14.166667 -2.991841
14.166667 -2.987251
14.166667 -2.981642
14.166667 -2.975013
14.166667 -2.967363
14.166667 -2.958694
14.166667 -2.949005
14.166667 -2.938296
14.166667 -2.926568
14.166667 -2.913819
14.166667 -2.900050
14.166667 -2.885262
14.166667 -2.869454
14.166667 -2.852625
14.166667 -2.834777
14.166667 -2.815909
14.166667 -2.796021
14.166667 -2.775113
14.166667 -2.753186
14.166667 -2.730238
14.166667 -2.706271
14.166667 -2.681283
14.166667 -2.655276
14.166667 -2.628249
14.166667 -2.600202
14.166667 -2.571135
14.166667 -2.541048
14.166667 -2.509941
14.166667 -2.477814
14.166667 -2.444668
14.166667 -2.410501
14.166667 -2.375315
14.166667 -2.339109
14.166667 -2.301883
14.166667 -2.263637
14.166667 -2.224371
14.166667 -2.184085
14.166667 -2.142779
14.166667 -2.100454
14.166667 -2.057108
14.166667 -2.012743
14.166667 -1.967357
14.166667 -1.920952
14.166667 -1.873527
14.166667 -1.825082
14.166667 -1.775617
14.166667 -1.725133
14.166667 -1.673628
14.166667 -1.621103
14.166667 -1.567559
14.166667 -1.512995
14.166667 -1.457410
14.166667 -1.400806
14.166667 -1.343182
14.166667 -1.284538
14.166667 -1.224875
14.166667 -1.164191
14.166667 -1.102487
14.166667 -1.039764
14.166667 -0.976021
14.166667 -0.911257
14.166667 -0.845474
14.166667 -0.778671
14.166667 -0.710848
14.166667 -0.642005
14.166667 -0.572143
14.166667 -0.501260
14.166667 -0.429357
14.166667 -0.356435
14.166667 -0.282493
14.166667 -0.207531
14.166667 -0.131548
14.166667 -0.054546
14.166667 0.023475
14.166667 0.102517
14.166667 0.182579
14.166667 0.263660
14.166667 0.345762
14.166667 0.428883
14.166667 0.513025
14.166667 0.598186
14.166667 0.684367
14.166667 0.771568
14.166667 0.859788
14.166667 0.949029
14.166667 1.039290
14.166667 1.130570
14.166667 1.222871
14.166667 1.316191
14.166667 1.410531
14.166667 1.505891
14.166667 1.602271
14.166667 1.699671
14.166667 1.798091
14.166667 1.897530
14.166667 1.998000
15.000000 -3.000000
15.000000 -2.999490
15.000000 -2.997960
15.000000 -2.995410
15.000000 -2.991841
15.000000 -2.987251
15.000000 -2.981642
15.000000 -2.975013
15.000000 -2.967363
15.000000 -2.958694
15.000000 -2.949005
15.000000 -2.938296
15.000000 -2.926568
15.000000 -2.913819
15.000000 -2.900050
15.000000 -2.885262
15.000000 -2.869454
15.000000 -2.852625
15.000000 -2.834777
15.000000 -2.815909
15.000000 -2.796021
15.000000 -2.775113
15.000000 -2.753186
15.000000 -2.730238
15.000000 -2.706271
15.000000 -2.681283
15.000000 -2.655276
15.000000 -2.628249
15.000000 -2.600202
15.000000 -2.571135
15.000000 -2.541048
15.000000 -2.509941
15.000000 -2.477814
15.000000 -2.444668
15.000000 -2.410501
15.000000 -2.375315
15.000000 -2.339109
15.000000 -2.301883
15.000000 -2.263637
15.000000 -2.224371
15.000000 -2.184085
15.000000 -2.142779
15.000000 -2.100454
15.000000 -2.057108
15.000000 -2.012743
15.000000 -1.967357
15.000000 -1.920952
15.000000 -1.873527
15.000000 -1.825082
15.000000 -1.775617
15.000000 -1.725133
15.000000 -1.673628
15.000000 -1.621103
15.000000 -1.567559
15.000000 -1.512995
15.000000 -1.457410
15.000000 -1.400806
15.000000 -1.343182
15.000000 -1.284538
15.000000 -1.224875
15.000000 -1.164191
15.000000 -1.102487
15.000000 -1.039764
15.000000 -0.976021
15.000000 -0.911257
15.000000 -0.845474
15.000000 -0.778671
15.000000 -0.710848
15.000000 -0.642005
15.000000 -0.572143
15.000000 -0.501260
15.000000 -0.429357
15.000000 -0.356435
15.000000 -0.282493
15.000000 -0.207531
15.000000 -0.131548
15.000000 -0.054546
15.000000 0.023475
15.000000 0.102517
15.000000 0.182579
15.000000 0.263660
15.000000 0.345762
15.000000 0.428883
15.000000 0.513025
15.000000 0.598186
15.000000 0.684367
15.000000 0.771568
15.000000 0.859788
15.000000 0.949029
15.000000 1.039290
15.000000 1.130570
15.000000 1.222871
15.000000 1.316191
15.000000 1.410531
15.000000 1.505891
15.000000 1.602271
15.000000 1.699671
15.000000 1.798091
15.000000 1.897530
15.000000 1.998000
15.833333 -3.000000
15.833333 -2.999490
15.833333 -2.997960
15.833333 -2.995410
15.833333 -2.991841
15.833333 -2.987251
15.833333 -2.981642
15.833333 -2.975013
15.833333 -2.967363
15.833333 -2.958694
15.833333 -2.949005
15.833333 -2.938296
15.833333 -2.926568
15.833333 -2.913819
15.833333 -2.900050
15.833333 -2.885262
15.833333 -2.869454
15.833333 -2.852625
15.833333 -2.834777
15.833333 -2.815909
15.833333 -2.796021
15.833333 -2.775113
15.833333 -2.753186
15.833333 -2.730238
15.833333 -2.706271
15.833333 -2.681283
15.833333 -2.655276
15.833333 -2.628249
15.833333 -2.600202
15.833333 -2.571135
15.833333 -2.541048
15.833333 -2.509941
15.833333 -2.477814
15.833333 -2.444668
15.833333 -2.410501
15.833333 -2.375315
15.833333 -2.339109
15.833333 -2.301883
15.833333 -2.263637
15.833333 -2.224371
15.833333 -2.184085
15.833333 -2.142779
15.833333 -2.100454
15.833333 -2.057108
15.833333 -2.012743
15.833333 -1.967357
15.833333 -1.920952
15.833333 -1.873527
15.833333 -1.825082
15.833333 -1.775617
15.833333 -1.725133
15.833333 -1.673628
15.833333 -1.621103
15.833333 -1.567559
15.833333 -1.512995
15.833333 -1.457410
15.833333 -1.400806
15.833333 -1.343182
15.833333 -1.284538
15.833333 -1.224875
15.833333 -1.164191
15.833333 -1.102487
15.833333 -1.039764
15.833333 -0.976021
15.833333 -0.911257
15.833333 -0.845474
15.833333 -0.778671
15.833333 -0.710848
15.833333 -0.642005
15.833333 -0.572143
15.833333 -0.501260
15.833333 -0.429357
15.833333 -0.356435
15.833333 -0.282493
15.833333 -0.207531
15.833333 -0.131548
15.833333 -0.054546
15.833333 0.023475
15.833333 0.102517
15.833333 0.182579
15.833333 0.263660
15.833333 0.345762
15.833333 0.428883
15.833333 0.513025
15.833333 0.598186
15.833333 0.684367
15.833333 0.771568
15.833333 0.859788
15.833333 0.949029
15.833333 1.039290
15.833333 1.130570
15.833333 1.222871
15.833333 1.316191
15.833333 1.410531
15.833333 1.505891
15.833333 1.602271
15.833333 1.699671
15.833333 1.798091
15.833333 1.897530
15.833333 1.998000
16.666667 -3.000000
16.666667 -2.999490
16.666667 -2.997960
16.666667 -2.995410
16.666667 -2.991841
16.666667 -2.987251
16.666667 -2.981642
16.666667 -2.975013
16.666667 -2.967363
16.666667 -2.958694
16.666667 -2.949005
16.666667 -2.938296
16.666667 -2.926568
16.666667 -2.913819
16.666667 -2.900050
16.666667 -2.885262
16.666667 -2.869454
16.666667 -2.852625
16.666667 -2.834777
16.666667 -2.815909
16.666667 -2.796021
16.666667 -2.775113
16.666667 -2.753186
16.666667 -2.730238
16.666667 -2.706271
16.666667 -2.681283
16.666667 -2.655276
16.666667 -2.628249
16.666667 -2.600202
16.666667 -2.571135
16.666667 -2.541048
16.666667 -2.509941
16.666667 -2.477814
16.666667 -2.444668
16.666667 -2.410501
16.666667 -2.375315
16.666667 -2.339109
16.666667 -2.301883
16.666667 -2.263637
16.666667 -2.224371
16.666667 -2.184085
16.666667 -2.142779
16.666667 -2.100454
16.666667 -2.057108
16.666667 -2.012743
16.666667 -1.967357
16.666667 -1.920952
16.666667 -1.873527
16.666667 -1.825082
16.666667 -1.775617
16.666667 -1.725133
16.666667 -1.673628
16.666667 -1.621103
16.666667 -1.567559
16.666667 -1.512995
16.666667 -1.457410
16.666667 -1.400806
16.666667 -1.343182
16.666667 -1.284538
16.666667 -1.224875
16.666667 -1.164191
16.666667 -1.102487
16.666667 -1.039764
16.666667 -0.976021
16.666667 -0.911257
16.666667 -0.845474
16.666667 -0.778671
16.666667 -0.710848
16.666667 -0.642005
16.666667 -0.572143
16.666667 -0.501260
16.666667 -0.429357
16.666667 -0.356435
16.666667 -0.282493
16.666667 -0.207531
16.666667 -0.131548
16.666667 -0.054546
16.666667 0.023475
16.666667 0.102517
16.666667 0.182579
16.666667 0.263660
16.666667 0.345762
16.666667 0.428883
16.666667 0.513025
16.666667 0.598186
16.666667 0.684367
16.666667 0.771568
16.666667 0.859788
16.666667 0.949029
16.666667 1.039290
16.666667 1.130570
16.666667 1.222871
16.666667 1.316191
16.666667 1.410531
16.666667 1.505891
16.666667 1.602271
16.666667 1.699671
16.666667 1.798091
16.666667 1.897530
16.666667 1.998000
17.500000 -3.000000
17.500000 -2.999490
17.500000 -2.997960
17.500000 -2.995410
17.500000 -2.991841
17.500000 -2.987251
17.500000 -2.981642
17.500000 -2.975013
17.500000 -2.967363
17.500000 -2.958694
17.500000 -2.949005
17.500000 -2.938296
17.500000 -2.926568
17.500000 -2.913819
17.500000 -2.900050
17.500000 -2.885262
17.500000 -2.869454
17.500000 -2.852625
17.500000 -2.834777
17.500000 -2.815909
17.500000 -2.796021
17.500000 -2.775113
17.500000 -2.753186
17.500000 -2.730238
17.500000 -2.706271
17.500000 -2.681283
17.500000 -2.655276
17.500000 -2.628249
17.500000 -2.600202
17.500000 -2.571135
17.500000 -2.541048
17.500000 -2.509941
17.500000 -2.477814
17.500000 -2.444668
17.500000 -2.410501
17.500000 -2.375315
17.500000 -2.339109
17.500000 -2.301883
17.500000 -2.263637
17.500000 -2.224371
17.500000 -2.184085
17.500000 -2.142779
17.500000 -2.100454
17.500000 -2.057108
17.500000 -2.012743
17.500000 -1.967357
17.500000 -1.920952
17.500000 -1.873527
17.500000 -1.825082
17.500000 -1.775617
17.500000 -1.725133
17.500000 -1.673628
17.500000 -1.621103
17.500000 -1.567559
17.500000 -1.512995
17.500000 -1.457410
17.500000 -1.400806
17.500000 -1.343182
17.500000 -1.284538
17.500000 -1.224875
17.500000 -1.164191
17.500000 -1.102487
17.500000 -1.039764
17.500000 -0.976021
17.500000 -0.911257
17.500000 -0.845474
17.500000 -0.778671
17.500000 -0.710848
17.500000 -0.642005
17.500000 -0.572143
17.500000 -0.501260
17.500000 -0.429357
17.500000 -0.356435
17.500000 -0.282493
17.500000 -0.207531
17.500000 -0.131548
17.500000 -0.054546
17.500000 0.023475
17.500000 0.102517
17.500000 0.182579
17.500000 0.263660
17.500000 0.345762
17.500000 0.428883
17.500000 0.513025
17.500000 0.598186
17.500000 0.684367
17.500000 0.771568
17.500000 0.859788
17.500000 0.949029
17.500000 1.039290
17.500000 1.130570
17.500000 1.222871
17.500000 1.316191
17.500000 1.410531
17.500000 1.505891
17.500000 1.602271
17.500000 1.699671
17.500000 1.798091
17.500000 1.897530
17.500000 1.998000
18.333333 -3.000000
18.333333 -2.999490
18.333333 -2.997960
18.333333 -2.995410
18.333333 -2.991841
18.333333 -2.987251
18.333333 -2.981642
18.333333 -2.975013
18.333333 -2.967363
18.333333 -2.958694
18.333333 -2.949005
18.333333 -2.938296
18.333333 -2.926568
18.333333 -2.913819
18.333333 -2.900050
18.333333 -2.885262
18.333333 -2.869454
18.333333 -2.852625
18.333333 -2.834777
18.333333 -2.815909
18.333333 -2.796021
18.333333 -2.775113
18.333333 -2.753186
18.333333 -2.730238
18.333333 -2.706271
18.333333 -2.681283
18.333333 -2.655276
18.333333 -2.628249
18.333333 -2.600202
18.333333 -2.571135
18.333333 -2.541048
18.333333 -2.509941
18.333333 -2.477814
18.333333 -2.444668
18.333333 -2.410501
18.333333 -2.375315
18.333333 -2.339109
18.333333 -2.301883
18.333333 -2.263637
18.333333 -2.224371
18.333333 -2.184085
18.333333 -2.142779
18.333333 -2.100454
18.333333 -2.057108
18.333333 -2.012743
18.333333 -1.967357
18.333333 -1.920952
18.333333 -1.873527
18.333333 -1.825082
18.333333 -1.775617
18.333333 -1.725133
18.333333 -1.673628
18.333333 -1.621103
18.333333 -1.567559
18.333333 -1.512995
18.333333 -1.457410
18.333333 -1.400806
18.333333 -1.343182
18.333333 -1.284538
18.333333 -1.224875
18.333333 -1.164191
18.333333 -1.102487
18.333333 -1.039764
18.333333 -0.976021
18.333333 -0.911257
18.333333 -0.845474
18.333333 -0.778671
18.333333 -0.710848
18.333333 -0.642005
18.333333 -0.572143
18.333333 -0.501260
18.333333 -0.429357
18.333333 -0.356435
18.333333 -0.282493
18.333333 -0.207531
18.333333 -0.131548
18.333333 -0.054546
18.333333 0.023475
18.333333 0.102517
18.333333 0.182579
18.333333 0.263660
18.333333 0.345762
18.333333 0.428883
18.333333 0.513025
18.333333 0.598186
18.333333 0.684367
18.333333 0.771568
18.333333 0.859788
18.333333 0.949029
18.333333 1.039290
18.333333 1.130570
18.333333 1.222871
18.333333 1.316191
18.333333 1.410531
18.333333 1.505891
18.333333 1.602271
18.333333 1.699671
18.333333 1.798091
18.333333 1.897530
18.333333 1.998000
19.166667 -3.000000
19.166667 -2.999490
19.166667 -2.997960
19.166667 -2.995410
19.166667 -2.991841
19.166667 -2.987251
19.166667 -2.981642
19.166667 -2.975013
19.166667 -2.967363
19.166667 -2.958694
19.166667 -2.949005
19.166667 -2.938296
19.166667 -2.926568
19.166667 -2.913819
19.166667 -2.900050
19.166667 -2.885262
19.166667 -2.869454
19.166667 -2.852625
19.166667 -2.834777
19.166667 -2.815909
19.166667 -2.796021
19.166667 -2.775113
19.166667 -2.753186
19.166667 -2.730238
19.166667 -2.706271
19.166667 -2.681283
19.166667 -2.655276
19.166667 -2.628249
19.166667 -2.600202
19.166667 -2.571135
19.166667 -2.541048
19.166667 -2.509941
19.166667 -2.477814
19.166667 -2.444668
19.166667 -2.410501
19.166667 -2.375315
19.166667 -2.339109
19.166667 -2.301883
19.166667 -2.263637
19.166667 -2.224371
19.166667 -2.184085
19.166667 -2.142779
19.166667 -2.100454
19.166667 -2.057108
19.166667 -2.012743
19.166667 -1.967357
19.166667 -1.920952
19.166667 -1.873527
19.166667 -1.825082
19.166667 -1.775617
19.166667 -1.725133
19.166667 -1.673628
19.166667 -1.621103
19.166667 -1.567559
19.166667 -1.512995
19.166667 -1.457410
19.166667 -1.400806
19.166667 -1.343182
19.166667 -1.284538
19.166667 -1.224875
19.166667 -1.164191
19.166667 -1.102487
19.166667 -1.039764
19.166667 -0.976021
19.166667 -0.911257
19.166667 -0.845474
19.166667 -0.778671
19.166667 -0.710848
19.166667 -0.642005
19.166667 -0.572143
19.166667 -0.501260
19.166667 -0.429357
19.166667 -0.356435
19.166667 -0.282493
19.166667 -0.207531
19.166667 -0.131548
19.166667 -0.054546
19.166667 0.023475
19.166667 0.102517
19.166667 0.182579
19.166667 0.263660
19.166667 0.345762
19.166667 0.428883
19.166667 0.513025
19.166667 0.598186
19.166667 0.684367
19.166667 0.771568
19.166667 0.859788
19.166667 0.949029
19.166667 1.039290
19.166667 1.130570
19.166667 1.222871
19.166667 1.316191
19.166667 1.410531
19.166667 1.505891
19.166667 1.602271
19.166667 1.699671
19.166667 1.798091
19.166667 1.897530
19.166667 1.998000
20.000000 -3.000000
20.000000 -2.999490
20.000000 -2.997960
20.000000 -2.995410
20.000000 -2.991841
20.000000 -2.987251
20.000000 -2.981642
20.000000 -2.975013
20.000000 -2.967363
20.000000 -2.958694
20.000000 -2.949005
20.000000 -2.938296
20.000000 -2.926568
20.000000 -2.913819
20.000000 -2.900050
20.000000 -2.885262
20.000000 -2.869454
20.000000 -2.852625
20.000000 -2.834777
20.000000 -2.815909
20.000000 -2.796021
20.000000 -2.775113
20.000000 -2.753186
20.000000 -2.730238
20.000000 -2.706271
20.000000 -2.681283
20.000000 -2.655276
20.000000 -2.628249
20.000000 -2.600202
20.000000 -2.571135
20.000000 -2.541048
20.000000 -2.509941
20.000000 -2.477814
20.000000 -2.444668
20.000000 -2.410501
20.000000 -2.375315
20.000000 -2.339109
20.000000 -2.301883
20.000000 -2.263637
20.000000 -2.224371
20.000000 -2.184085
20.000000 -2.142779
20.000000 -2.100454
20.000000 -2.057108
20.000000 -2.012743
20.000000 -1.967357
20.000000 -1.920952
20.000000 -1.873527
20.000000 -1.825082
20.000000 -1.775617
20.000000 -1.725133
20.000000 -1.673628
20.000000 -1.621103
20.000000 -1.567559
20.000000 -1.512995
20.000000 -1.457410
20.000000 -1.400806
20.000000 -1.343182
20.000000 -1.284538
20.000000 -1.224875
20.000000 -1.164191
20.000000 -1.102487
20.000000 -1.039764
20.000000 -0.976021
20.000000 -0.911257
20.000000 -0.845474
20.000000 -0.778671
20.000000 -0.710848
20.000000 -0.642005
20.000000 -0.572143
20.000000 -0.501260
20.000000 -0.429357
20.000000 -0.356435
20.000000 -0.282493
20.000000 -0.207531
20.000000 -0.131548
20.000000 -0.054546
20.000000 0.023475
20.000000 0.102517
20.000000 0.182579
20.000000 0.263660
20.000000 0.345762
20.000000 0.428883
20.000000 0.513025
20.000000 0.598186
20.000000 0.684367
20.000000 0.771568
20.000000 0.859788
20.000000 0.949029
20.000000 1.039290
20.000000 1.130570
20.000000 1.222871
20.000000 1.316191
20.000000 1.410531
20.000000 1.505891
20.000000 1.602271
20.000000 1.699671
20.000000 1.798091
20.000000 1.897530
20.000000 1.998000
20.833333 -3.000000
20.833333 -2.999490
20.833333 -2.997960
20.833333 -2.995410
20.833333 -2.991841
20.833333 -2.987251
20.833333 -2.981642
20.833333 -2.975013
20.833333 -2.967363
20.833333 -2.958694
20.833333 -2.949005
20.833333 -2.938296
20.833333 -2.926568
20.833333 -2.913819
20.833333 -2.900050
20.833333 -2.885262
20.833333 -2.869454
20.833333 -2.852625
20.833333 -2.834777
20.833333 -2.815909
20.833333 -2.796021
20.833333 -2.775113
20.833333 -2.753186
20.833333 -2.730238
20.833333 -2.706271
20.833333 -2.681283
20.833333 -2.655276
20.833333 -2.628249
20.833333 -2.600202
20.833333 -2.571135
20.833333 -2.541048
20.833333 -2.509941
20.833333 -2.477814
20.833333 -2.444668
20.833333 -2.410501
20.833333 -2.375315
20.833333 -2.339109
20.833333 -2.301883
20.833333 -2.263637
20.833333 -2.224371
20.833333 -2.184085
20.833333 -2.142779
20.833333 -2.100454
20.833333 -2.057108
20.833333 -2.012743
20.833333 -1.967357
20.833333 -1.920952
20.833333 -1.873527
20.833333 -1.825082
20.833333 -1.775617
20.833333 -1.725133
20.833333 -1.673628
20.833333 -1.621103
20.833333 -1.567559
20.833333 -1.512995
20.833333 -1.457410
20.833333 -1.400806
20.833333 -1.343182
20.833333 -1.284538
20.833333 -1.224875
20.833333 -1.164191
20.833333 -1.102487
20.833333 -1.039764
20.833333 -0.976021
20.833333 -0.911257
20.833333 -0.845474
20.833333 -0.778671
20.833333 -0.710848
20.833333 -0.642005
20.833333 -0.572143
20.833333 -0.501260
20.833333 -0.429357
20.833333 -0.356435
20.833333 -0.282493
20.833333 -0.207531
20.833333 -0.131548
20.833333 -0.054546
20.833333 0.023475
20.833333 0.102517
20.833333 0.182579
20.833333 0.263660
20.833333 0.345762
20.833333 0.428883
20.833333 0.513025
20.833333 0.598186
20.833333 0.684367
20.833333 0.771568
20.833333 0.859788
20.833333 0.949029
20.833333 1.039290
20.833333 1.130570
20.833333 1.222871
20.833333 1.316191
20.833333 1.410531
20.833333 1.505891
20.833333 1.602271
20.833333 1.699671
20.833333 1.798091
20.833333 1.897530
20.833333 1.998000
21.666667 -3.000000
21.666667 -2.999490
21.666667 -2.997960
21.666667 -2.995410
21.666667 -2.991841
21.666667 -2.987251
21.666667 -2.981642
21.666667 -2.975013
21.666667 -2.967363
21.666667 -2.958694
21.666667 -2.949005
21.666667 -2.938296
21.666667 -2.926568
21.666667 -2.913819
21.666667 -2.900050
21.666667 -2.885262
21.666667 -2.869454
21.666667 -2.852625
21.666667 -2.834777
21.666667 -2.815909
21.666667 -2.796021
21.666667 -2.775113
21.666667 -2.753186
21.666667 -2.730238
21.666667 -2.706271
21.666667 -2.681283
21.666667 -2.655276
21.666667 -2.628249
21.666667 -2.600202
21.666667 -2.571135
21.666667 -2.541048
21.666667 -2.509941
21.666667 -2.477814
21.666667 -2.444668
21.666667 -2.410501
21.666667 -2.375315
21.666667 -2.339109
21.666667 -2.301883
21.666667 -2.263637
21.666667 -2.224371
21.666667 -2.184085
21.666667 -2.142779
21.666667 -2.100454
21.666667 -2.057108
21.666667 -2.012743
21.666667 -1.967357
21.666667 -1.920952
21.666667 -1.873527
21.666667 -1.825082
21.666667 -1.775617
21.666667 -1.725133
21.666667 -1.673628
21.666667 -1.621103
21.666667 -1.567559
21.666667 -1.512995
21.666667 -1.457410
21.666667 -1.400806
21.666667 -1.343182
21.666667 -1.284538
21.666667 -1.224875
21.666667 -1.164191
21.666667 -1.102487
21.666667 -1.039764
21.666667 -0.976021
21.666667 -0.911257
21.666667 -0.845474
21.666667 -0.778671
21.666667 -0.710848
21.666667 -0.642005
21.666667 -0.572143
21.666667 -0.501260
21.666667 -0.429357
21.666667 -0.356435
21.666667 -0.282493
21.666667 -0.207531
21.666667 -0.131548
21.666667 -0.054546
21.666667 0.023475
21.666667 0.102517
21.666667 0.182579
21.666667 0.263660
21.666667 0.345762
21.666667 0.428883
21.666667 0.513025
21.666667 0.598186
21.666667 0.684367
21.666667 0.771568
21.666667 0.859788
21.666667 0.949029
21.666667 1.039290
21.666667 1.130570
21.666667 1.222871
21.666667 1.316191
21.666667 1.410531
21.666667 1.505891
21.666667 1.602271
21.666667 1.699671
21.666667 1.798091
21.666667 1.897530
21.666667 1.998000
22.500000 -3.000000
22.500000 -2.999490
22.500000 -2.997960
22.500000 -2.995410
22.500000 -2.991841
22.500000 -2.987251
22.500000 -2.981642
22.500000 -2.975013
22.500000 -2.967363
22.500000 -2.958694
22.500000 -2.949005
22.500000 -2.938296
22.500000 -2.926568
22.500000 -2.913819
22.500000 -2.900050
22.500000 -2.885262
22.500000 -2.869454
22.500000 -2.852625
22.500000 -2.834777
22.500000 -2.815909
22.500000 -2.796021
22.500000 -2.775113
22.500000 -2.753186
22.500000 -2.730238
22.500000 -2.706271
22.500000 -2.681283
22.500000 -2.655276
22.500000 -2.628249
22.500000 -2.600202
22.500000 -2.571135
22.500000 -2.541048
22.500000 -2.509941
22.500000 -2.477814
22.500000 -2.444668
22.500000 -2.410501
22.500000 -2.375315
22.500000 -2.339109
22.500000 -2.301883
22.500000 -2.263637
22.500000 -2.224371
22.500000 -2.184085
22.500000 -2.142779
22.500000 -2.100454
22.500000 -2.057108
22.500000 -2.012743
22.500000 -1.967357
22.500000 -1.920952
22.500000 -1.873527
22.500000 -1.825082
22.500000 -1.775617
22.500000 -1.725133
22.500000 -1.673628
22.500000 -1.621103
22.500000 -1.567559
22.500000 -1.512995
22.500000 -1.457410
22.500000 -1.400806
22.500000 -1.343182
22.500000 -1.284538
22.500000 -1.224875
22.500000 -1.164191
22.500000 -1.102487
22.500000 -1.039764
22.500000 -0.976021
22.500000 -0.911257
22.500000 -0.845474
22.500000 -0.778671
22.500000 -0.710848
22.500000 -0.642005
22.500000 -0.572143
22.500000 -0.501260
22.500000 -0.429357
22.500000 -0.356435
22.500000 -0.282493
22.500000 -0.207531
22.500000 -0.131548
22.500000 -0.054546
22.500000 0.023475
22.500000 0.102517
22.500000 0.182579
22.500000 0.263660
22.500000 0.345762
22.500000 0.428883
22.500000 0.513025
22.500000 0.598186
22.500000 0.684367
22.500000 0.771568
22.500000 0.859788
22.500000 0.949029
22.500000 1.039290
22.500000 1.130570
22.500000 1.222871
22.500000 1.316191
22.500000 1.410531
22.500000 1.505891
22.500000 1.602271
22.500000 1.699671
22.500000 1.798091
22.500000 1.897530
22.500000 1.998000
23.333333 -3.000000
23.333333 -2.999490
23.333333 -2.997960
23.333333 -2.995410
23.333333 -2.991841
23.333333 -2.987251
23.333333 -2.981642
23.333333 -2.975013
23.333333 -2.967363
23.333333 -2.958694
23.333333 -2.949005
23.333333 -2.938296
23.333333 -2.926568
23.333333 -2.913819
23.333333 -2.900050
23.333333 -2.885262
23.333333 -2.869454
23.333333 -2.852625
23.333333 -2.834777
23.333333 -2.815909
23.333333 -2.796021
23.333333 -2.775113
23.333333 -2.753186
23.333333 -2.730238
23.333333 -2.706271
23.333333 -2.681283
23.333333 -2.655276
23.333333 -2.628249
23.333333 -2.600202
23.333333 -2.571135
23.333333 -2.541048
23.333333 -2.509941
23.333333 -2.477814
23.333333 -2.444668
23.333333 -2.410501
23.333333 -2.375315
23.333333 -2.339109
23.333333 -2.301883
23.333333 -2.263637
23.333333 -2.224371
23.333333 -2.184085
23.333333 -2.142779
23.333333 -2.100454
23.333333 -2.057108
23.333333 -2.012743
23.333333 -1.967357
23.333333 -1.920952
23.333333 -1.873527
23.333333 -1.825082
23.333333 -1.775617
23.333333 -1.725133
23.333333 -1.673628
23.333333 -1.621103
23.333333 -1.567559
23.333333 -1.512995
23.333333 -1.457410
23.333333 -1.400806
23.333333 -1.343182
23.333333 -1.284538
23.333333 -1.224875
23.333333 -1.164191
23.333333 -1.102487
23.333333 -1.039764
23.333333 -0.976021
23.333333 -0.911257
23.333333 -0.845474
23.333333 -0.778671
23.333333 -0.710848
23.333333 -0.642005
23.333333 -0.572143
23.333333 -0.501260
23.333333 -0.429357
23.333333 -0.356435
23.333333 -0.282493
23.333333 -0.207531
23.333333 -0.131548
23.333333 -0.054546
23.333333 0.023475
23.333333 0.102517
23.333333 0.182579
23.333333 0.263660
23.333333 0.345762
23.333333 0.428883
23.333333 0.513025
23.333333 0.598186
23.333333 0.684367
23.333333 0.771568
23.333333 0.859788
23.333333 0.949029
23.333333 1.039290
23.333333 1.130570
23.333333 1.222871
23.333333 1.316191
23.333333 1.410531
23.333333 1.505891
23.333333 1.602271
23.333333 1.699671
23.333333 1.798091
23.333333 1.897530
23.333333 1.998000
24.166667 -3.000000
24.166667 -2.999490
24.166667 -2.997960
24.166667 -2.995410
24.166667 -2.991841
24.166667 -2.987251
24.166667 -2.981642
24.166667 -2.975013
24.166667 -2.967363
24.166667 -2.958694
24.166667 -2.949005
24.166667 -2.938296
24.166667 -2.926568
24.166667 -2.913819
24.166667 -2.900050
24.166667 -2.885262
24.166667 -2.869454
24.166667 -2.852625
24.166667 -2.834777
24.166667 -2.815909
24.166667 -2.796021
24.166667 -2.775113
24.166667 -2.753186
24.166667 -2.730238
24.166667 -2.706271
24.166667 -2.681283
24.166667 -2.655276
24.166667 -2.628249
24.166667 -2.600202
24.166667 -2.571135
24.166667 -2.541048
24.166667 -2.509941
24.166667 -2.477814
24.166667 -2.444668
24.166667 -2.410501
24.166667 -2.375315
24.166667 -2.339109
24.166667 -2.301883
24.166667 -2.263637
24.166667 -2.224371
24.166667 -2.184085
24.166667 -2.142779
24.166667 -2.100454
24.166667 -2.057108
24.166667 -2.012743
24.166667 -1.967357
24.166667 -1.920952
24.166667 -1.873527
24.166667 -1.825082
24.166667 -1.775617
24.166667 -1.725133
24.166667 -1.673628
24.166667 -1.621103
24.166667 -1.567559
24.166667 -1.512995
24.166667 -1.457410
24.166667 -1.400806
24.166667 -1.343182
24.166667 -1.284538
24.166667 -1.224875
24.166667 -1.164191
24.166667 -1.102487
24.166667 -1.039764
24.166667 -0.976021
24.166667 -0.911257
24.166667 -0.845474
24.166667 -0.778671
24.166667 -0.710848
24.166667 -0.642005
24.166667 -0.572143
24.166667 -0.501260
24.166667 -0.429357
24.166667 -0.356435
24.166667 -0.282493
24.166667 -0.207531
24.166667 -0.131548
24.166667 -0.054546
24.166667 0.023475
24.166667 0.102517
24.166667 0.182579
24.166667 0.263660
24.166667 0.345762
24.166667 0.428883
24.166667 0.513025
24.166667 0.598186
24.166667 0.684367
24.166667 0.771568
24.166667 0.859788
24.166667 0.949029
24.166667 1.039290
24.166667 1.130570
24.166667 1.222871
24.166667 1.316191
24.166667 1.410531
24.166667 1.505891
24.166667 1.602271
24.166667 1.699671
24.166667 1.798091
24.166667 1.897530
24.166667 1.998000
25.000000 -3.000000
25.000000 -2.999490
25.000000 -2.997960
25.000000 -2.995410
25.000000 -2.991841
25.000000 -2.987251
25.000000 -2.981642
25.000000 -2.975013
25.000000 -2.967363
25.000000 -2.958694
25.000000 -2.949005
25.000000 -2.938296
25.000000 -2.926568
25.000000 -2.913819
25.000000 -2.900050
25.000000 -2.885262
25.000000 -2.869454
25.000000 -2.852625
25.000000 -2.834777
25.000000 -2.815909
25.000000 -2.796021
25.000000 -2.775113
25.000000 -2.753186
25.000000 -2.730238
25.000000 -2.706271
25.000000 -2.681283
25.000000 -2.655276
25.000000 -2.628249
25.000000 -2.600202
25.000000 -2.571135
25.000000 -2.541048
25.000000 -2.509941
25.000000 -2.477814
25.000000 -2.444668
25.000000 -2.410501
25.000000 -2.375315
25.000000 -2.339109
25.000000 -2.301883
25.000000 -2.263637
25.000000 -2.224371
25.000000 -2.184085
25.000000 -2.142779
25.000000 -2.100454
25.000000 -2.057108
25.000000 -2.012743
25.000000 -1.967357
25.000000 -1.920952
25.000000 -1.873527
25.000000 -1.825082
25.000000 -1.775617
25.000000 -1.725133
25.000000 -1.673628
25.000000 -1.621103
25.000000 -1.567559
25.000000 -1.512995
25.000000 -1.457410
25.000000 -1.400806
25.000000 -1.343182
25.000000 -1.284538
25.000000 -1.224875
25.000000 -1.164191
25.000000 -1.102487
25.000000 -1.039764
25.000000 -0.976021
25.000000 -0.911257
25.000000 -0.845474
25.000000 -0.778671
25.000000 -0.710848
25.000000 -0.642005
25.000000 -0.572143
25.000000 -0.501260
25.000000 -0.429357
25.000000 -0.356435
25.000000 -0.282493
25.000000 -0.207531
25.000000 -0.131548
25.000000 -0.054546
25.000000 0.023475
25.000000 0.102517
25.000000 0.182579
25.000000 0.263660
25.000000 0.345762
25.000000 0.428883
25.000000 0.513025
25.000000 0.598186
25.000000 0.684367
25.000000 0.771568
25.000000 0.859788
25.000000 0.949029
25.000000 1.039290
25.000000 1.130570
25.000000 1.222871
25.000000 1.316191
25.000000 1.410531
25.000000 1.505891
25.000000 1.602271
25.000000 1.699671
25.000000 1.798091
25.000000 1.897530
25.000000 1.998000
25.833333 -3.000000
25.833333 -2.999490
25.833333 -2.997960
25.833333 -2.995410
25.833333 -2.991841
25.833333 -2.987251
25.833333 -2.981642
25.833333 -2.975013
25.833333 -2.967363
25.833333 -2.958694
25.833333 -2.949005
25.833333 -2.938296
25.833333 -2.926568
25.833333 -2.913819
25.833333 -2.900050
25.833333 -2.885262
25.833333 -2.869454
25.833333 -2.852625
25.833333 -2.834777
25.833333 -2.815909
25.833333 -2.796021
25.833333 -2.775113
25.833333 -2.753186
25.833333 -2.730238
25.833333 -2.706271
25.833333 -2.681283
25.833333 -2.655276
25.833333 -2.628249
25.833333 -2.600202
25.833333 -2.571135
25.833333 -2.541048
25.833333 -2.509941
25.833333 -2.477814
25.833333 -2.444668
25.833333 -2.410501
25.833333 -2.375315
25.833333 -2.339109
25.833333 -2.301883
25.833333 -2.263637
25.833333 -2.224371
25.833333 -2.184085
25.833333 -2.142779
25.833333 -2.100454
25.833333 -2.057108
25.833333 -2.012743
25.833333 -1.967357
25.833333 -1.920952
25.833333 -1.873527
25.833333 -1.825082
25.833333 -1.775617
25.833333 -1.725133
25.833333 -1.673628
25.833333 -1.621103
25.833333 -1.567559
25.833333 -1.512995
25.833333 -1.457410
25.833333 -1.400806
25.833333 -1.343182
25.833333 -1.284538
25.833333 -1.224875
25.833333 -1.164191
25.833333 -1.102487
25.833333 -1.039764
25.833333 -0.976021
25.833333 -0.911257
25.833333 -0.845474
25.833333 -0.778671
25.833333 -0.710848
25.833333 -0.642005
25.833333 -0.572143
25.833333 -0.501260
25.833333 -0.429357
25.833333 -0.356435
25.833333 -0.282493
25.833333 -0.207531
25.833333 -0.131548
25.833333 -0.054546
25.833333 0.023475
25.833333 0.102517
25.833333 0.182579
25.833333 0.263660
25.833333 0.345762
25.833333 0.428883
25.833333 0.513025
25.833333 0.598186
25.833333 0.684367
25.833333 0.771568
25.833333 0.859788
25.833333 0.949029
25.833333 1.039290
25.833333 1.130570
25.833333 1.222871
25.833333 1.316191
25.833333 1.410531
25.833333 1.505891
25.833333 1.602271
25.833333 1.699671
25.833333 1.798091
25.833333 1.897530
25.833333 1.998000
26.666667 -3.000000
26.666667 -2.999490
26.666667 -2.997960
26.666667 -2.995410
26.666667 -2.991841
26.666667 -2.987251
26.666667 -2.981642
26.666667 -2.975013
26.666667 -2.967363
26.666667 -2.958694
26.666667 -2.949005
26.666667 -2.938296
26.666667 -2.926568
26.666667 -2.913819
26.666667 -2.900050
26.666667 -2.885262
26.666667 -2.869454
26.666667 -2.852625
26.666667 -2.834777
26.666667 -2.815909
26.666667 -2.796021
26.666667 -2.775113
26.666667 -2.753186
26.666667 -2.730238
26.666667 -2.706271
26.666667 -2.681283
26.666667 -2.655276
26.666667 -2.628249
26.666667 -2.600202
26.666667 -2.571135
26.666667 -2.541048
26.666667 -2.509941
26.666667 -2.477814
26.666667 -2.444668
26.666667 -2.410501
26.666667 -2.375315
26.666667 -2.339109
26.666667 -2.301883
26.666667 -2.263637
26.666667 -2.224371
26.666667 -2.184085
26.666667 -2.142779
26.666667 -2.100454
26.666667 -2.057108
26.666667 -2.012743
26.666667 -1.967357
26.666667 -1.920952
26.666667 -1.873527
26.666667 -1.825082
26.666667 -1.775617
26.666667 -1.725133
26.666667 -1.673628
26.666667 -1.621103
26.666667 -1.567559
26.666667 -1.512995
26.666667 -1.457410
26.666667 -1.400806
26.666667 -1.343182
26.666667 -1.284538
26.666667 -1.224875
26.666667 -1.164191
26.666667 -1.102487
26.666667 -1.039764
26.666667 -0.976021
26.666667 -0.911257
26.666667 -0.845474
26.666667 -0.778671
26.666667 -0.710848
26.666667 -0.642005
26.666667 -0.572143
26.666667 -0.501260
26.666667 -0.429357
26.666667 -0.356435
26.666667 -0.282493
26.666667 -0.207531
26.666667 -0.131548
26.666667 -0.054546
26.666667 0.023475
26.666667 0.102517
26.666667 0.182579
26.666667 0.263660
26.666667 0.345762
26.666667 0.428883
26.666667 0.513025
26.666667 0.598186
26.666667 0.684367
26.666667 0.771568
26.666667 0.859788
26.666667 0.949029
26.666667 1.039290
26.666667 1.130570
26.666667 1.222871
26.666667 1.316191
26.666667 1.410531
26.666667 1.505891
26.666667 1.602271
26.666667 1.699671
26.666667 1.798091
26.666667 1.897530
26.666667 1.998000
27.500000 -3.000000
27.500000 -2.999490
27.500000 -2.997960
27.500000 -2.995410
27.500000 -2.991841
27.500000 -2.987251
27.500000 -2.981642
27.500000 -2.975013
27.500000 -2.967363
27.500000 -2.958694
27.500000 -2.949005
27.500000 -2.938296
27.500000 -2.926568
27.500000 -2.913819
27.500000 -2.900050
27.500000 -2.885262
27.500000 -2.869454
27.500000 -2.852625
27.500000 -2.834777
27.500000 -2.815909
27.500000 -2.796021
27.500000 -2.775113
27.500000 -2.753186
27.500000 -2.730238
27.500000 -2.706271
27.500000 -2.681283
27.500000 -2.655276
27.500000 -2.628249
27.500000 -2.600202
27.500000 -2.571135
27.500000 -2.541048
27.500000 -2.509941
27.500000 -2.477814
27.500000 -2.444668
27.500000 -2.410501
27.500000 -2.375315
27.500000 -2.339109
27.500000 -2.301883
27.500000 -2.263637
27.500000 -2.224371
27.500000 -2.184085
27.500000 -2.142779
27.500000 -2.100454
27.500000 -2.057108
27.500000 -2.012743
27.500000 -1.967357
27.500000 -1.920952
27.500000 -1.873527
27.500000 -1.825082
27.500000 -1.775617
27.500000 -1.725133
27.500000 -1.673628
27.500000 -1.621103
27.500000 -1.567559
27.500000 -1.512995
27.500000 -1.457410
27.500000 -1.400806
27.500000 -1.343182
27.500000 -1.284538
27.500000 -1.224875
27.500000 -1.164191
27.500000 -1.102487
27.500000 -1.039764
27.500000 -0.976021
27.500000 -0.911257
27.500000 -0.845474
27.500000 -0.778671
27.500000 -0.710848
27.500000 -0.642005
27.500000 -0.572143
27.500000 -0.501260
27.500000 -0.429357
27.500000 -0.356435
27.500000 -0.282493
27.500000 -0.207531
27.500000 -0.131548
27.500000 -0.054546
27.500000 0.023475
27.500000 0.102517
27.500000 0.182579
27.500000 0.263660
27.500000 0.345762
27.500000 0.428883
27.500000 0.513025
27.500000 0.598186
27.500000 0.684367
27.500000 0.771568
27.500000 0.859788
27.500000 0.949029
27.500000 1.039290
27.500000 1.130570
27.500000 1.222871
27.500000 1.316191
27.500000 1.410531
27.500000 1.505891
27.500000 1.602271
27.500000 1.699671
27.500000 1.798091
27.500000 1.897530
27.500000 1.998000
28.333333 -3.000000
28.333333 -2.999490
28.333333 -2.997960
28.333333 -2.995410
28.333333 -2.991841
28.333333 -2.987251
28.333333 -2.981642
28.333333 -2.975013
28.333333 -2.967363
28.333333 -2.958694
28.333333 -2.949005
28.333333 -2.938296
28.333333 -2.926568
28.333333 -2.913819
28.333333 -2.900050
28.333333 -2.885262
28.333333 -2.869454
28.333333 -2.852625
28.333333 -2.834777
28.333333 -2.815909
28.333333 -2.796021
28.333333 -2.775113
28.333333 -2.753186
28.333333 -2.730238
28.333333 -2.706271
28.333333 -2.681283
28.333333 -2.655276
28.333333 -2.628249
28.333333 -2.600202
28.333333 -2.571135
28.333333 -2.541048
28.333333 -2.509941
28.333333 -2.477814
28.333333 -2.444668
28.333333 -2.410501
28.333333 -2.375315
28.333333 -2.339109
28.333333 -2.301883
28.333333 -2.263637
28.333333 -2.224371
28.333333 -2.184085
28.333333 -2.142779
28.333333 -2.100454
28.333333 -2.057108
28.333333 -2.012743
28.333333 -1.967357
28.333333 -1.920952
28.333333 -1.873527
28.333333 -1.825082
28.333333 -1.775617
28.333333 -1.725133
28.333333 -1.673628
28.333333 -1.621103
28.333333 -1.567559
28.333333 -1.512995
28.333333 -1.457410
28.333333 -1.400806
28.333333 -1.343182
28.333333 -1.284538
28.333333 -1.224875
28.333333 -1.164191
28.333333 -1.102487
28.333333 -1.039764
28.333333 -0.976021
28.333333 -0.911257
28.333333 -0.845474
28.333333 -0.778671
28.333333 -0.710848
28.333333 -0.642005
28.333333 -0.572143
28.333333 -0.501260
28.333333 -0.429357
28.333333 -0.356435
28.333333 -0.282493
28.333333 -0.207531
28.333333 -0.131548
28.333333 -0.054546
28.333333 0.023475
28.333333 0.102517
28.333333 0.182579
28.333333 0.263660
28.333333 0.345762
28.333333 0.428883
28.333333 0.513025
28.333333 0.598186
28.333333 0.684367
28.333333 0.771568
28.333333 0.859788
28.333333 0.949029
28.333333 1.039290
28.333333 1.130570
28.333333 1.222871
28.333333 1.316191
28.333333 1.410531
28.333333 1.505891
28.333333 1.602271
28.333333 1.699671
28.333333 1.798091
28.333333 1.897530
28.333333 1.998000
29.166667 -3.000000
29.166667 -2.999490
29.166667 -2.997960
29.166667 -2.995410
29.166667 -2.991841
29.166667 -2.987251
29.166667 -2.981642
29.166667 -2.975013
29.166667 -2.967363
29.166667 -2.958694
29.166667 -2.949005
29.166667 -2.938296
29.166667 -2.926568
29.166667 -2.913819
29.166667 -2.900050
29.166667 -2.885262
29.166667 -2.869454
29.166667 -2.852625
29.166667 -2.834777
29.166667 -2.815909
29.166667 -2.796021
29.166667 -2.775113
29.166667 -2.753186
29.166667 -2.730238
29.166667 -2.706271
29.166667 -2.681283
29.166667 -2.655276
29.166667 -2.628249
29.166667 -2.600202
29.166667 -2.571135
29.166667 -2.541048
29.166667 -2.509941
29.166667 -2.477814
29.166667 -2.444668
29.166667 -2.410501
29.166667 -2.375315
29.166667 -2.339109
29.166667 -2.301883
29.166667 -2.263637
29.166667 -2.224371
29.166667 -2.184085
29.166667 -2.142779
29.166667 -2.100454
29.166667 -2.057108
29.166667 -2.012743
29.166667 -1.967357
29.166667 -1.920952
29.166667 -1.873527
29.166667 -1.825082
29.166667 -1.775617
29.166667 -1.725133
29.166667 -1.673628
29.166667 -1.621103
29.166667 -1.567559
29.166667 -1.512995
29.166667 -1.457410
29.166667 -1.400806
29.166667 -1.343182
29.166667 -1.284538
29.166667 -1.224875
29.166667 -1.164191
29.166667 -1.102487
29.166667 -1.039764
29.166667 -0.976021
29.166667 -0.911257
29.166667 -0.845474
29.166667 -0.778671
29.166667 -0.710848
29.166667 -0.642005
29.166667 -0.572143
29.166667 -0.501260
29.166667 -0.429357
29.166667 -0.356435
29.166667 -0.282493
29.166667 -0.207531
29.166667 -0.131548
29.166667 -0.054546
29.166667 0.023475
29.166667 0.102517
29.166667 0.182579
29.166667 0.263660
29.166667 0.345762
29.166667 0.428883
29.166667 0.513025
29.166667 0.598186
29.166667 0.684367
29.166667 0.771568
29.166667 0.859788
29.166667 0.949029
29.166667 1.039290
29.166667 1.130570
29.166667 1.222871
29.166667 1.316191
29.166667 1.410531
29.166667 1.505891
29.166667 1.602271
29.166667 1.699671
29.166667 1.798091
29.166667 1.897530
29.166667 1.998000
30.000000 -3.000000
30.000000 -2.999490
30.000000 -2.997960
30.000000 -2.995410
30.000000 -2.991841
30.000000 -2.987251
30.000000 -2.981642
30.000000 -2.975013
30.000000 -2.967363
30.000000 -2.958694
30.000000 -2.949005
30.000000 -2.938296
30.000000 -2.926568
30.000000 -2.913819
30.000000 -2.900050
30.000000 -2.885262
30.000000 -2.869454
30.000000 -2.852625
30.000000 -2.834777
30.000000 -2.815909
30.000000 -2.796021
30.000000 -2.775113
30.000000 -2.753186
30.000000 -2.730238
30.000000 -2.706271
30.000000 -2.681283
30.000000 -2.655276
30.000000 -2.628249
30.000000 -2.600202
30.000000 -2.571135
30.000000 -2.541048
30.000000 -2.509941
30.000000 -2.477814
30.000000 -2.444668
30.000000 -2.410501
30.000000 -2.375315
30.000000 -2.339109
30.000000 -2.301883
30.000000 -2.263637
30.000000 -2.224371
30.000000 -2.184085
30.000000 -2.142779
30.000000 -2.100454
30.000000 -2.057108
30.000000 -2.012743
30.000000 -1.967357
30.000000 -1.920952
30.000000 -1.873527
30.000000 -1.825082
30.000000 -1.775617
30.000000 -1.725133
30.000000 -1.673628
30.000000 -1.621103
30.000000 -1.567559
30.000000 -1.512995
30.000000 -1.457410
30.000000 -1.400806
30.000000 -1.343182
30.000000 -1.284538
30.000000 -1.224875
30.000000 -1.164191
30.000000 -1.102487
30.000000 -1.039764
30.000000 -0.976021
30.000000 -0.911257
30.000000 -0.845474
30.000000 -0.778671
30.000000 -0.710848
30.000000 -0.642005
30.000000 -0.572143
30.000000 -0.501260
30.000000 -0.429357
30.000000 -0.356435
30.000000 -0.282493
30.000000 -0.207531
30.000000 -0.131548
30.000000 -0.054546
30.000000 0.023475
30.000000 0.102517
30.000000 0.182579
30.000000 0.263660
30.000000 0.345762
30.000000 0.428883
30.000000 0.513025
30.000000 0.598186
30.000000 0.684367
30.000000 0.771568
30.000000 0.859788
30.000000 0.949029
30.000000 1.039290
30.000000 1.130570
30.000000 1.222871
30.000000 1.316191
30.000000 1.410531
30.000000 1.505891
30.000000 1.602271
30.000000 1.699671
30.000000 1.798091
30.000000 1.897530
30.000000 1.998000
</POINTS>
</NEKTAR>
