<?xml version="1.0" encoding="utf-8" ?>
<NEKTAR>
<POINTS DIM="2" FIELDS="">
263.500000 0.000000
263.500000 0.000418
263.500000 0.001672
263.500000 0.003763
263.500000 0.006689
263.500000 0.010451
263.500000 0.015050
263.500000 0.020485
263.500000 0.026756
263.500000 0.033863
263.500000 0.041806
263.500000 0.050585
263.500000 0.060201
263.500000 0.070652
263.500000 0.081940
263.500000 0.094063
263.500000 0.107023
263.500000 0.120819
263.500000 0.135451
263.500000 0.150919
263.500000 0.167224
263.500000 0.184364
263.500000 0.202341
263.500000 0.221153
263.500000 0.240802
263.500000 0.261287
263.500000 0.282608
263.500000 0.304765
263.500000 0.327758
263.500000 0.351588
263.500000 0.376253
263.500000 0.401755
263.500000 0.428092
263.500000 0.455266
263.500000 0.483276
263.500000 0.512122
263.500000 0.541805
263.500000 0.572323
263.500000 0.603677
263.500000 0.635868
263.500000 0.668894
263.500000 0.702757
263.500000 0.737456
263.500000 0.772991
263.500000 0.809362
263.500000 0.846570
263.500000 0.884613
263.500000 0.923492
263.500000 0.963208
263.500000 1.003760
263.500000 1.045148
263.500000 1.087372
263.500000 1.130432
263.500000 1.174328
263.500000 1.219060
263.500000 1.264629
263.500000 1.311033
263.500000 1.358274
263.500000 1.406351
263.500000 1.455264
263.500000 1.505013
263.500000 1.555598
263.500000 1.607019
263.500000 1.659276
263.500000 1.712370
263.500000 1.766299
263.500000 1.821065
263.500000 1.876667
263.500000 1.933105
263.500000 1.990379
263.500000 2.048489
263.500000 2.107436
263.500000 2.167218
263.500000 2.227837
263.500000 2.289291
263.500000 2.351582
263.500000 2.414709
263.500000 2.478672
263.500000 2.543471
263.500000 2.609106
263.500000 2.675578
263.500000 2.742885
263.500000 2.811029
263.500000 2.880009
263.500000 2.949825
263.500000 3.020477
263.500000 3.091965
263.500000 3.164289
263.500000 3.237449
263.500000 3.311446
263.500000 3.386278
263.500000 3.461947
263.500000 3.538452
263.500000 3.615793
263.500000 3.693970
263.500000 3.772983
263.500000 3.852832
263.500000 3.933517
263.500000 4.015039
263.500000 4.097397
263.500000 4.180590
263.500000 4.264620
263.500000 4.349486
263.500000 4.435188
263.500000 4.521727
263.500000 4.609101
263.500000 4.697311
263.500000 4.786358
263.500000 4.876241
263.500000 4.966959
263.500000 5.058514
263.500000 5.150905
263.500000 5.244133
263.500000 5.338196
263.500000 5.433095
263.500000 5.528831
263.500000 5.625402
263.500000 5.722810
263.500000 5.821054
263.500000 5.920134
263.500000 6.020050
263.500000 6.120802
263.500000 6.222391
263.500000 6.324815
263.500000 6.428076
263.500000 6.532172
263.500000 6.637105
263.500000 6.742874
263.500000 6.849479
263.500000 6.956920
263.500000 7.065198
263.500000 7.174311
263.500000 7.284261
263.500000 7.395046
263.500000 7.506668
263.500000 7.619126
263.500000 7.732420
263.500000 7.846550
263.500000 7.961516
263.500000 8.077319
263.500000 8.193957
263.500000 8.311432
263.500000 8.429742
263.500000 8.548889
263.500000 8.668872
263.500000 8.789691
263.500000 8.911346
263.500000 9.033838
263.500000 9.157165
263.500000 9.281329
263.500000 9.406328
263.500000 9.532164
263.500000 9.658836
263.500000 9.786344
263.500000 9.914688
263.500000 10.043868
263.500000 10.173885
263.500000 10.304737
263.500000 10.436426
263.500000 10.568950
263.500000 10.702311
263.500000 10.836508
263.500000 10.971541
263.500000 11.107411
263.500000 11.244116
263.500000 11.381657
263.500000 11.520035
263.500000 11.659248
263.500000 11.799298
263.500000 11.940184
263.500000 12.081906
263.500000 12.224464
263.500000 12.367859
263.500000 12.512089
263.500000 12.657155
263.500000 12.803058
263.500000 12.949797
263.500000 13.097372
263.500000 13.245782
263.500000 13.395030
263.500000 13.545113
263.500000 13.696032
263.500000 13.847787
263.500000 14.000379
263.500000 14.153807
263.500000 14.308070
263.500000 14.463170
263.500000 14.619106
263.500000 14.775879
263.500000 14.933487
263.500000 15.091931
263.500000 15.251212
263.500000 15.411328
263.500000 15.572281
263.500000 15.734070
263.500000 15.896695
263.500000 16.060156
263.500000 16.224453
263.500000 16.389586
263.500000 16.555556
263.500000 16.722361
263.500000 16.890003
263.500000 17.058481
263.500000 17.227795
263.500000 17.397945
263.500000 17.568931
263.500000 17.740753
263.500000 17.913412
263.500000 18.086906
263.500000 18.261237
263.500000 18.436403
263.500000 18.612406
263.500000 18.789245
263.500000 18.966920
263.500000 19.145432
263.500000 19.324779
263.500000 19.504962
263.500000 19.685982
263.500000 19.867838
263.500000 20.050529
263.500000 20.234057
263.500000 20.418421
263.500000 20.603622
263.500000 20.789658
263.500000 20.976530
263.500000 21.164239
263.500000 21.352783
263.500000 21.542164
263.500000 21.732381
263.500000 21.923434
263.500000 22.115323
263.500000 22.308048
263.500000 22.501610
263.500000 22.696007
263.500000 22.891241
263.500000 23.087310
263.500000 23.284216
263.500000 23.481958
263.500000 23.680536
263.500000 23.879950
263.500000 24.080200
263.500000 24.281287
263.500000 24.483209
263.500000 24.685968
263.500000 24.889563
263.500000 25.093994
263.500000 25.299261
263.500000 25.505364
263.500000 25.712303
263.500000 25.920078
263.500000 26.128690
263.500000 26.338137
263.500000 26.548421
263.500000 26.759541
263.500000 26.971497
263.500000 27.184289
263.500000 27.397917
263.500000 27.612381
263.500000 27.827682
263.500000 28.043818
263.500000 28.260791
263.500000 28.478600
263.500000 28.697244
263.500000 28.916725
263.500000 29.137043
263.500000 29.358196
263.500000 29.580185
263.500000 29.803011
263.500000 30.026672
263.500000 30.251170
263.500000 30.476504
263.500000 30.702674
263.500000 30.929680
263.500000 31.157522
263.500000 31.386200
263.500000 31.615715
263.500000 31.846065
263.500000 32.077252
263.500000 32.309275
263.500000 32.542133
263.500000 32.775828
263.500000 33.010360
263.500000 33.245727
263.500000 33.481930
263.500000 33.718970
263.500000 33.956845
263.500000 34.195557
263.500000 34.435105
263.500000 34.675489
263.500000 34.916709
263.500000 35.158765
263.500000 35.401657
263.500000 35.645386
263.500000 35.889950
263.500000 36.135351
263.500000 36.381588
263.500000 36.628660
263.500000 36.876569
263.500000 37.125315
263.500000 37.374896
263.500000 37.625313
263.500000 37.876567
263.500000 38.128656
263.500000 38.381582
263.500000 38.635344
263.500000 38.889942
263.500000 39.145376
263.500000 39.401646
263.500000 39.658752
263.500000 39.916695
263.500000 40.175473
263.500000 40.435088
263.500000 40.695539
263.500000 40.956826
263.500000 41.218949
263.500000 41.481908
263.500000 41.745703
263.500000 42.010334
263.500000 42.275802
263.500000 42.542106
263.500000 42.809245
263.500000 43.077221
263.500000 43.346033
263.500000 43.615681
263.500000 43.886165
263.500000 44.157486
263.500000 44.429642
263.500000 44.702635
263.500000 44.976463
263.500000 45.251128
263.500000 45.526629
263.500000 45.802966
263.500000 46.080139
263.500000 46.358148
263.500000 46.636994
263.500000 46.916675
263.500000 47.197193
263.500000 47.478547
263.500000 47.760736
263.500000 48.043762
263.500000 48.327625
263.500000 48.612323
263.500000 48.897857
263.500000 49.184227
263.500000 49.471434
263.500000 49.759477
263.500000 50.048355
263.500000 50.338070
263.500000 50.628621
263.500000 50.920009
263.500000 51.212232
263.500000 51.505291
263.500000 51.799187
263.500000 52.093918
263.500000 52.389486
263.500000 52.685890
263.500000 52.983130
263.500000 53.281206
263.500000 53.580118
263.500000 53.879867
263.500000 54.180451
263.500000 54.481872
263.500000 54.784128
263.500000 55.087221
263.500000 55.391150
263.500000 55.695915
263.500000 56.001516
263.500000 56.307953
263.500000 56.615227
263.500000 56.923336
263.500000 57.232282
263.500000 57.542064
263.500000 57.852682
263.500000 58.164136
263.500000 58.476426
263.500000 58.789552
263.500000 59.103514
263.500000 59.418313
263.500000 59.733947
263.500000 60.050418
263.500000 60.367725
263.500000 60.685868
263.500000 61.004847
263.500000 61.324662
263.500000 61.645313
263.500000 61.966801
263.500000 62.289124
263.500000 62.612284
263.500000 62.936279
263.500000 63.261111
263.500000 63.586779
263.500000 63.913283
263.500000 64.240624
263.500000 64.568800
263.500000 64.897812
263.500000 65.227661
263.500000 65.558346
263.500000 65.889867
263.500000 66.222223
263.500000 66.555417
263.500000 66.889446
263.500000 67.224311
263.500000 67.560012
263.500000 67.896550
263.500000 68.233924
263.500000 68.572133
263.500000 68.911179
263.500000 69.251061
263.500000 69.591779
263.500000 69.933334
263.500000 70.275724
263.500000 70.618950
263.500000 70.963013
263.500000 71.307912
263.500000 71.653646
263.500000 72.000217
263.500000 72.347624
263.500000 72.695868
263.500000 73.044947
263.500000 73.394862
263.500000 73.745614
263.500000 74.097202
263.500000 74.449625
263.500000 74.802885
263.500000 75.156981
263.500000 75.511913
263.500000 75.867682
263.500000 76.224286
263.500000 76.581726
263.500000 76.940003
263.500000 77.299116
263.500000 77.659064
263.500000 78.019849
263.500000 78.381471
263.500000 78.743928
263.500000 79.107221
263.500000 79.471350
263.500000 79.836316
263.500000 80.202118
263.500000 80.568755
263.500000 80.936229
263.500000 81.304539
263.500000 81.673685
263.500000 82.043668
263.500000 82.414486
263.500000 82.786141
263.500000 83.158631
263.500000 83.531958
263.500000 83.906121
263.500000 84.281120
263.500000 84.656955
263.500000 85.033626
263.500000 85.411133
263.500000 85.789477
263.500000 86.168656
263.500000 86.548672
263.500000 86.929524
263.500000 87.311212
263.500000 87.693736
263.500000 88.077096
263.500000 88.461292
263.500000 88.846324
263.500000 89.232193
263.500000 89.618897
263.500000 90.006438
263.500000 90.394815
263.500000 90.784028
263.500000 91.174077
263.500000 91.564962
263.500000 91.956684
263.500000 92.349241
263.500000 92.742634
263.500000 93.136864
263.500000 93.531930
263.500000 93.927832
263.500000 94.324570
263.500000 94.722144
263.500000 95.120554
263.500000 95.519801
263.500000 95.919883
263.500000 96.320802
263.500000 96.722557
263.500000 97.125147
263.500000 97.528574
263.500000 97.932837
263.500000 98.337937
263.500000 98.743872
263.500000 99.150643
263.500000 99.558251
263.500000 99.966695
263.500000 100.375974
263.500000 100.786090
263.500000 101.197042
263.500000 101.608831
263.500000 102.021455
263.500000 102.434915
263.500000 102.849212
263.500000 103.264344
263.500000 103.680313
263.500000 104.097118
263.500000 104.514759
263.500000 104.933236
263.500000 105.352549
263.500000 105.772699
263.500000 106.193684
263.500000 106.615506
263.500000 107.038163
263.500000 107.461657
263.500000 107.885987
263.500000 108.311153
263.500000 108.737155
263.500000 109.163993
263.500000 109.591668
263.500000 110.020178
263.500000 110.449525
263.500000 110.879708
263.500000 111.310727
263.500000 111.742582
263.500000 112.175273
263.500000 112.608800
263.500000 113.043163
263.500000 113.478363
263.500000 113.914398
263.500000 114.351270
263.500000 114.788978
263.500000 115.227522
263.500000 115.666902
263.500000 116.107118
263.500000 116.548170
263.500000 116.990059
263.500000 117.432783
263.500000 117.876344
263.500000 118.320740
263.500000 118.765973
263.500000 119.212042
263.500000 119.658947
263.500000 120.106689
263.500000 120.555266
263.500000 121.004679
263.500000 121.454929
263.500000 121.906015
263.500000 122.357937
263.500000 122.810695
263.500000 123.264289
263.500000 123.718719
263.500000 124.173985
263.500000 124.630087
263.500000 125.087026
263.500000 125.544801
263.500000 126.003411
263.500000 126.462858
263.500000 126.923141
263.500000 127.384260
263.500000 127.846216
263.500000 128.309007
263.500000 128.772634
263.500000 129.237098
263.500000 129.702398
263.500000 130.168534
263.500000 130.635505
263.500000 131.103314
263.500000 131.571958
263.500000 132.041438
263.500000 132.511754
263.500000 132.982907
263.500000 133.454896
263.500000 133.927720
263.500000 134.401381
263.500000 134.875878
263.500000 135.351211
263.500000 135.827381
263.500000 136.304386
263.500000 136.782227
263.500000 137.260905
263.500000 137.740419
263.500000 138.220769
263.500000 138.701955
263.500000 139.183977
263.500000 139.666835
263.500000 140.150529
263.500000 140.635060
263.500000 141.120426
263.500000 141.606629
263.500000 142.093668
263.500000 142.581542
263.500000 143.070253
263.500000 143.559801
263.500000 144.050184
263.500000 144.541403
263.500000 145.033459
263.500000 145.526350
263.500000 146.020078
263.500000 146.514642
263.500000 147.010042
263.500000 147.506278
263.500000 148.003350
263.500000 148.501258
263.500000 149.000003
263.500000 149.499583
263.500000 150.000000
</POINTS>
</NEKTAR>

