<?xml version="1.0" encoding="utf-8" ?>
<NEKTAR>
<POINTS DIM="2" FIELDS="">
566.500000 0.000000
566.500000 0.000418
566.500000 0.001672
566.500000 0.003763
566.500000 0.006689
566.500000 0.010451
566.500000 0.015050
566.500000 0.020485
566.500000 0.026756
566.500000 0.033863
566.500000 0.041806
566.500000 0.050585
566.500000 0.060201
566.500000 0.070652
566.500000 0.081940
566.500000 0.094063
566.500000 0.107023
566.500000 0.120819
566.500000 0.135451
566.500000 0.150919
566.500000 0.167224
566.500000 0.184364
566.500000 0.202341
566.500000 0.221153
566.500000 0.240802
566.500000 0.261287
566.500000 0.282608
566.500000 0.304765
566.500000 0.327758
566.500000 0.351588
566.500000 0.376253
566.500000 0.401755
566.500000 0.428092
566.500000 0.455266
566.500000 0.483276
566.500000 0.512122
566.500000 0.541805
566.500000 0.572323
566.500000 0.603677
566.500000 0.635868
566.500000 0.668894
566.500000 0.702757
566.500000 0.737456
566.500000 0.772991
566.500000 0.809362
566.500000 0.846570
566.500000 0.884613
566.500000 0.923492
566.500000 0.963208
566.500000 1.003760
566.500000 1.045148
566.500000 1.087372
566.500000 1.130432
566.500000 1.174328
566.500000 1.219060
566.500000 1.264629
566.500000 1.311033
566.500000 1.358274
566.500000 1.406351
566.500000 1.455264
566.500000 1.505013
566.500000 1.555598
566.500000 1.607019
566.500000 1.659276
566.500000 1.712370
566.500000 1.766299
566.500000 1.821065
566.500000 1.876667
566.500000 1.933105
566.500000 1.990379
566.500000 2.048489
566.500000 2.107436
566.500000 2.167218
566.500000 2.227837
566.500000 2.289291
566.500000 2.351582
566.500000 2.414709
566.500000 2.478672
566.500000 2.543471
566.500000 2.609106
566.500000 2.675578
566.500000 2.742885
566.500000 2.811029
566.500000 2.880009
566.500000 2.949825
566.500000 3.020477
566.500000 3.091965
566.500000 3.164289
566.500000 3.237449
566.500000 3.311446
566.500000 3.386278
566.500000 3.461947
566.500000 3.538452
566.500000 3.615793
566.500000 3.693970
566.500000 3.772983
566.500000 3.852832
566.500000 3.933517
566.500000 4.015039
566.500000 4.097397
566.500000 4.180590
566.500000 4.264620
566.500000 4.349486
566.500000 4.435188
566.500000 4.521727
566.500000 4.609101
566.500000 4.697311
566.500000 4.786358
566.500000 4.876241
566.500000 4.966959
566.500000 5.058514
566.500000 5.150905
566.500000 5.244133
566.500000 5.338196
566.500000 5.433095
566.500000 5.528831
566.500000 5.625402
566.500000 5.722810
566.500000 5.821054
566.500000 5.920134
566.500000 6.020050
566.500000 6.120802
566.500000 6.222391
566.500000 6.324815
566.500000 6.428076
566.500000 6.532172
566.500000 6.637105
566.500000 6.742874
566.500000 6.849479
566.500000 6.956920
566.500000 7.065198
566.500000 7.174311
566.500000 7.284261
566.500000 7.395046
566.500000 7.506668
566.500000 7.619126
566.500000 7.732420
566.500000 7.846550
566.500000 7.961516
566.500000 8.077319
566.500000 8.193957
566.500000 8.311432
566.500000 8.429742
566.500000 8.548889
566.500000 8.668872
566.500000 8.789691
566.500000 8.911346
566.500000 9.033838
566.500000 9.157165
566.500000 9.281329
566.500000 9.406328
566.500000 9.532164
566.500000 9.658836
566.500000 9.786344
566.500000 9.914688
566.500000 10.043868
566.500000 10.173885
566.500000 10.304737
566.500000 10.436426
566.500000 10.568950
566.500000 10.702311
566.500000 10.836508
566.500000 10.971541
566.500000 11.107411
566.500000 11.244116
566.500000 11.381657
566.500000 11.520035
566.500000 11.659248
566.500000 11.799298
566.500000 11.940184
566.500000 12.081906
566.500000 12.224464
566.500000 12.367859
566.500000 12.512089
566.500000 12.657155
566.500000 12.803058
566.500000 12.949797
566.500000 13.097372
566.500000 13.245782
566.500000 13.395030
566.500000 13.545113
566.500000 13.696032
566.500000 13.847787
566.500000 14.000379
566.500000 14.153807
566.500000 14.308070
566.500000 14.463170
566.500000 14.619106
566.500000 14.775879
566.500000 14.933487
566.500000 15.091931
566.500000 15.251212
566.500000 15.411328
566.500000 15.572281
566.500000 15.734070
566.500000 15.896695
566.500000 16.060156
566.500000 16.224453
566.500000 16.389586
566.500000 16.555556
566.500000 16.722361
566.500000 16.890003
566.500000 17.058481
566.500000 17.227795
566.500000 17.397945
566.500000 17.568931
566.500000 17.740753
566.500000 17.913412
566.500000 18.086906
566.500000 18.261237
566.500000 18.436403
566.500000 18.612406
566.500000 18.789245
566.500000 18.966920
566.500000 19.145432
566.500000 19.324779
566.500000 19.504962
566.500000 19.685982
566.500000 19.867838
566.500000 20.050529
566.500000 20.234057
566.500000 20.418421
566.500000 20.603622
566.500000 20.789658
566.500000 20.976530
566.500000 21.164239
566.500000 21.352783
566.500000 21.542164
566.500000 21.732381
566.500000 21.923434
566.500000 22.115323
566.500000 22.308048
566.500000 22.501610
566.500000 22.696007
566.500000 22.891241
566.500000 23.087310
566.500000 23.284216
566.500000 23.481958
566.500000 23.680536
566.500000 23.879950
566.500000 24.080200
566.500000 24.281287
566.500000 24.483209
566.500000 24.685968
566.500000 24.889563
566.500000 25.093994
566.500000 25.299261
566.500000 25.505364
566.500000 25.712303
566.500000 25.920078
566.500000 26.128690
566.500000 26.338137
566.500000 26.548421
566.500000 26.759541
566.500000 26.971497
566.500000 27.184289
566.500000 27.397917
566.500000 27.612381
566.500000 27.827682
566.500000 28.043818
566.500000 28.260791
566.500000 28.478600
566.500000 28.697244
566.500000 28.916725
566.500000 29.137043
566.500000 29.358196
566.500000 29.580185
566.500000 29.803011
566.500000 30.026672
566.500000 30.251170
566.500000 30.476504
566.500000 30.702674
566.500000 30.929680
566.500000 31.157522
566.500000 31.386200
566.500000 31.615715
566.500000 31.846065
566.500000 32.077252
566.500000 32.309275
566.500000 32.542133
566.500000 32.775828
566.500000 33.010360
566.500000 33.245727
566.500000 33.481930
566.500000 33.718970
566.500000 33.956845
566.500000 34.195557
566.500000 34.435105
566.500000 34.675489
566.500000 34.916709
566.500000 35.158765
566.500000 35.401657
566.500000 35.645386
566.500000 35.889950
566.500000 36.135351
566.500000 36.381588
566.500000 36.628660
566.500000 36.876569
566.500000 37.125315
566.500000 37.374896
566.500000 37.625313
566.500000 37.876567
566.500000 38.128656
566.500000 38.381582
566.500000 38.635344
566.500000 38.889942
566.500000 39.145376
566.500000 39.401646
566.500000 39.658752
566.500000 39.916695
566.500000 40.175473
566.500000 40.435088
566.500000 40.695539
566.500000 40.956826
566.500000 41.218949
566.500000 41.481908
566.500000 41.745703
566.500000 42.010334
566.500000 42.275802
566.500000 42.542106
566.500000 42.809245
566.500000 43.077221
566.500000 43.346033
566.500000 43.615681
566.500000 43.886165
566.500000 44.157486
566.500000 44.429642
566.500000 44.702635
566.500000 44.976463
566.500000 45.251128
566.500000 45.526629
566.500000 45.802966
566.500000 46.080139
566.500000 46.358148
566.500000 46.636994
566.500000 46.916675
566.500000 47.197193
566.500000 47.478547
566.500000 47.760736
566.500000 48.043762
566.500000 48.327625
566.500000 48.612323
566.500000 48.897857
566.500000 49.184227
566.500000 49.471434
566.500000 49.759477
566.500000 50.048355
566.500000 50.338070
566.500000 50.628621
566.500000 50.920009
566.500000 51.212232
566.500000 51.505291
566.500000 51.799187
566.500000 52.093918
566.500000 52.389486
566.500000 52.685890
566.500000 52.983130
566.500000 53.281206
566.500000 53.580118
566.500000 53.879867
566.500000 54.180451
566.500000 54.481872
566.500000 54.784128
566.500000 55.087221
566.500000 55.391150
566.500000 55.695915
566.500000 56.001516
566.500000 56.307953
566.500000 56.615227
566.500000 56.923336
566.500000 57.232282
566.500000 57.542064
566.500000 57.852682
566.500000 58.164136
566.500000 58.476426
566.500000 58.789552
566.500000 59.103514
566.500000 59.418313
566.500000 59.733947
566.500000 60.050418
566.500000 60.367725
566.500000 60.685868
566.500000 61.004847
566.500000 61.324662
566.500000 61.645313
566.500000 61.966801
566.500000 62.289124
566.500000 62.612284
566.500000 62.936279
566.500000 63.261111
566.500000 63.586779
566.500000 63.913283
566.500000 64.240624
566.500000 64.568800
566.500000 64.897812
566.500000 65.227661
566.500000 65.558346
566.500000 65.889867
566.500000 66.222223
566.500000 66.555417
566.500000 66.889446
566.500000 67.224311
566.500000 67.560012
566.500000 67.896550
566.500000 68.233924
566.500000 68.572133
566.500000 68.911179
566.500000 69.251061
566.500000 69.591779
566.500000 69.933334
566.500000 70.275724
566.500000 70.618950
566.500000 70.963013
566.500000 71.307912
566.500000 71.653646
566.500000 72.000217
566.500000 72.347624
566.500000 72.695868
566.500000 73.044947
566.500000 73.394862
566.500000 73.745614
566.500000 74.097202
566.500000 74.449625
566.500000 74.802885
566.500000 75.156981
566.500000 75.511913
566.500000 75.867682
566.500000 76.224286
566.500000 76.581726
566.500000 76.940003
566.500000 77.299116
566.500000 77.659064
566.500000 78.019849
566.500000 78.381471
566.500000 78.743928
566.500000 79.107221
566.500000 79.471350
566.500000 79.836316
566.500000 80.202118
566.500000 80.568755
566.500000 80.936229
566.500000 81.304539
566.500000 81.673685
566.500000 82.043668
566.500000 82.414486
566.500000 82.786141
566.500000 83.158631
566.500000 83.531958
566.500000 83.906121
566.500000 84.281120
566.500000 84.656955
566.500000 85.033626
566.500000 85.411133
566.500000 85.789477
566.500000 86.168656
566.500000 86.548672
566.500000 86.929524
566.500000 87.311212
566.500000 87.693736
566.500000 88.077096
566.500000 88.461292
566.500000 88.846324
566.500000 89.232193
566.500000 89.618897
566.500000 90.006438
566.500000 90.394815
566.500000 90.784028
566.500000 91.174077
566.500000 91.564962
566.500000 91.956684
566.500000 92.349241
566.500000 92.742634
566.500000 93.136864
566.500000 93.531930
566.500000 93.927832
566.500000 94.324570
566.500000 94.722144
566.500000 95.120554
566.500000 95.519801
566.500000 95.919883
566.500000 96.320802
566.500000 96.722557
566.500000 97.125147
566.500000 97.528574
566.500000 97.932837
566.500000 98.337937
566.500000 98.743872
566.500000 99.150643
566.500000 99.558251
566.500000 99.966695
566.500000 100.375974
566.500000 100.786090
566.500000 101.197042
566.500000 101.608831
566.500000 102.021455
566.500000 102.434915
566.500000 102.849212
566.500000 103.264344
566.500000 103.680313
566.500000 104.097118
566.500000 104.514759
566.500000 104.933236
566.500000 105.352549
566.500000 105.772699
566.500000 106.193684
566.500000 106.615506
566.500000 107.038163
566.500000 107.461657
566.500000 107.885987
566.500000 108.311153
566.500000 108.737155
566.500000 109.163993
566.500000 109.591668
566.500000 110.020178
566.500000 110.449525
566.500000 110.879708
566.500000 111.310727
566.500000 111.742582
566.500000 112.175273
566.500000 112.608800
566.500000 113.043163
566.500000 113.478363
566.500000 113.914398
566.500000 114.351270
566.500000 114.788978
566.500000 115.227522
566.500000 115.666902
566.500000 116.107118
566.500000 116.548170
566.500000 116.990059
566.500000 117.432783
566.500000 117.876344
566.500000 118.320740
566.500000 118.765973
566.500000 119.212042
566.500000 119.658947
566.500000 120.106689
566.500000 120.555266
566.500000 121.004679
566.500000 121.454929
566.500000 121.906015
566.500000 122.357937
566.500000 122.810695
566.500000 123.264289
566.500000 123.718719
566.500000 124.173985
566.500000 124.630087
566.500000 125.087026
566.500000 125.544801
566.500000 126.003411
566.500000 126.462858
566.500000 126.923141
566.500000 127.384260
566.500000 127.846216
566.500000 128.309007
566.500000 128.772634
566.500000 129.237098
566.500000 129.702398
566.500000 130.168534
566.500000 130.635505
566.500000 131.103314
566.500000 131.571958
566.500000 132.041438
566.500000 132.511754
566.500000 132.982907
566.500000 133.454896
566.500000 133.927720
566.500000 134.401381
566.500000 134.875878
566.500000 135.351211
566.500000 135.827381
566.500000 136.304386
566.500000 136.782227
566.500000 137.260905
566.500000 137.740419
566.500000 138.220769
566.500000 138.701955
566.500000 139.183977
566.500000 139.666835
566.500000 140.150529
566.500000 140.635060
566.500000 141.120426
566.500000 141.606629
566.500000 142.093668
566.500000 142.581542
566.500000 143.070253
566.500000 143.559801
566.500000 144.050184
566.500000 144.541403
566.500000 145.033459
566.500000 145.526350
566.500000 146.020078
566.500000 146.514642
566.500000 147.010042
566.500000 147.506278
566.500000 148.003350
566.500000 148.501258
566.500000 149.000003
566.500000 149.499583
566.500000 150.000000
</POINTS>
</NEKTAR>

