<?xml version="1.0" encoding="utf-8" ?>
<NEKTAR>
<POINTS DIM="2" FIELDS="">
726.500000 0.000000
726.500000 0.000418
726.500000 0.001672
726.500000 0.003763
726.500000 0.006689
726.500000 0.010451
726.500000 0.015050
726.500000 0.020485
726.500000 0.026756
726.500000 0.033863
726.500000 0.041806
726.500000 0.050585
726.500000 0.060201
726.500000 0.070652
726.500000 0.081940
726.500000 0.094063
726.500000 0.107023
726.500000 0.120819
726.500000 0.135451
726.500000 0.150919
726.500000 0.167224
726.500000 0.184364
726.500000 0.202341
726.500000 0.221153
726.500000 0.240802
726.500000 0.261287
726.500000 0.282608
726.500000 0.304765
726.500000 0.327758
726.500000 0.351588
726.500000 0.376253
726.500000 0.401755
726.500000 0.428092
726.500000 0.455266
726.500000 0.483276
726.500000 0.512122
726.500000 0.541805
726.500000 0.572323
726.500000 0.603677
726.500000 0.635868
726.500000 0.668894
726.500000 0.702757
726.500000 0.737456
726.500000 0.772991
726.500000 0.809362
726.500000 0.846570
726.500000 0.884613
726.500000 0.923492
726.500000 0.963208
726.500000 1.003760
726.500000 1.045148
726.500000 1.087372
726.500000 1.130432
726.500000 1.174328
726.500000 1.219060
726.500000 1.264629
726.500000 1.311033
726.500000 1.358274
726.500000 1.406351
726.500000 1.455264
726.500000 1.505013
726.500000 1.555598
726.500000 1.607019
726.500000 1.659276
726.500000 1.712370
726.500000 1.766299
726.500000 1.821065
726.500000 1.876667
726.500000 1.933105
726.500000 1.990379
726.500000 2.048489
726.500000 2.107436
726.500000 2.167218
726.500000 2.227837
726.500000 2.289291
726.500000 2.351582
726.500000 2.414709
726.500000 2.478672
726.500000 2.543471
726.500000 2.609106
726.500000 2.675578
726.500000 2.742885
726.500000 2.811029
726.500000 2.880009
726.500000 2.949825
726.500000 3.020477
726.500000 3.091965
726.500000 3.164289
726.500000 3.237449
726.500000 3.311446
726.500000 3.386278
726.500000 3.461947
726.500000 3.538452
726.500000 3.615793
726.500000 3.693970
726.500000 3.772983
726.500000 3.852832
726.500000 3.933517
726.500000 4.015039
726.500000 4.097397
726.500000 4.180590
726.500000 4.264620
726.500000 4.349486
726.500000 4.435188
726.500000 4.521727
726.500000 4.609101
726.500000 4.697311
726.500000 4.786358
726.500000 4.876241
726.500000 4.966959
726.500000 5.058514
726.500000 5.150905
726.500000 5.244133
726.500000 5.338196
726.500000 5.433095
726.500000 5.528831
726.500000 5.625402
726.500000 5.722810
726.500000 5.821054
726.500000 5.920134
726.500000 6.020050
726.500000 6.120802
726.500000 6.222391
726.500000 6.324815
726.500000 6.428076
726.500000 6.532172
726.500000 6.637105
726.500000 6.742874
726.500000 6.849479
726.500000 6.956920
726.500000 7.065198
726.500000 7.174311
726.500000 7.284261
726.500000 7.395046
726.500000 7.506668
726.500000 7.619126
726.500000 7.732420
726.500000 7.846550
726.500000 7.961516
726.500000 8.077319
726.500000 8.193957
726.500000 8.311432
726.500000 8.429742
726.500000 8.548889
726.500000 8.668872
726.500000 8.789691
726.500000 8.911346
726.500000 9.033838
726.500000 9.157165
726.500000 9.281329
726.500000 9.406328
726.500000 9.532164
726.500000 9.658836
726.500000 9.786344
726.500000 9.914688
726.500000 10.043868
726.500000 10.173885
726.500000 10.304737
726.500000 10.436426
726.500000 10.568950
726.500000 10.702311
726.500000 10.836508
726.500000 10.971541
726.500000 11.107411
726.500000 11.244116
726.500000 11.381657
726.500000 11.520035
726.500000 11.659248
726.500000 11.799298
726.500000 11.940184
726.500000 12.081906
726.500000 12.224464
726.500000 12.367859
726.500000 12.512089
726.500000 12.657155
726.500000 12.803058
726.500000 12.949797
726.500000 13.097372
726.500000 13.245782
726.500000 13.395030
726.500000 13.545113
726.500000 13.696032
726.500000 13.847787
726.500000 14.000379
726.500000 14.153807
726.500000 14.308070
726.500000 14.463170
726.500000 14.619106
726.500000 14.775879
726.500000 14.933487
726.500000 15.091931
726.500000 15.251212
726.500000 15.411328
726.500000 15.572281
726.500000 15.734070
726.500000 15.896695
726.500000 16.060156
726.500000 16.224453
726.500000 16.389586
726.500000 16.555556
726.500000 16.722361
726.500000 16.890003
726.500000 17.058481
726.500000 17.227795
726.500000 17.397945
726.500000 17.568931
726.500000 17.740753
726.500000 17.913412
726.500000 18.086906
726.500000 18.261237
726.500000 18.436403
726.500000 18.612406
726.500000 18.789245
726.500000 18.966920
726.500000 19.145432
726.500000 19.324779
726.500000 19.504962
726.500000 19.685982
726.500000 19.867838
726.500000 20.050529
726.500000 20.234057
726.500000 20.418421
726.500000 20.603622
726.500000 20.789658
726.500000 20.976530
726.500000 21.164239
726.500000 21.352783
726.500000 21.542164
726.500000 21.732381
726.500000 21.923434
726.500000 22.115323
726.500000 22.308048
726.500000 22.501610
726.500000 22.696007
726.500000 22.891241
726.500000 23.087310
726.500000 23.284216
726.500000 23.481958
726.500000 23.680536
726.500000 23.879950
726.500000 24.080200
726.500000 24.281287
726.500000 24.483209
726.500000 24.685968
726.500000 24.889563
726.500000 25.093994
726.500000 25.299261
726.500000 25.505364
726.500000 25.712303
726.500000 25.920078
726.500000 26.128690
726.500000 26.338137
726.500000 26.548421
726.500000 26.759541
726.500000 26.971497
726.500000 27.184289
726.500000 27.397917
726.500000 27.612381
726.500000 27.827682
726.500000 28.043818
726.500000 28.260791
726.500000 28.478600
726.500000 28.697244
726.500000 28.916725
726.500000 29.137043
726.500000 29.358196
726.500000 29.580185
726.500000 29.803011
726.500000 30.026672
726.500000 30.251170
726.500000 30.476504
726.500000 30.702674
726.500000 30.929680
726.500000 31.157522
726.500000 31.386200
726.500000 31.615715
726.500000 31.846065
726.500000 32.077252
726.500000 32.309275
726.500000 32.542133
726.500000 32.775828
726.500000 33.010360
726.500000 33.245727
726.500000 33.481930
726.500000 33.718970
726.500000 33.956845
726.500000 34.195557
726.500000 34.435105
726.500000 34.675489
726.500000 34.916709
726.500000 35.158765
726.500000 35.401657
726.500000 35.645386
726.500000 35.889950
726.500000 36.135351
726.500000 36.381588
726.500000 36.628660
726.500000 36.876569
726.500000 37.125315
726.500000 37.374896
726.500000 37.625313
726.500000 37.876567
726.500000 38.128656
726.500000 38.381582
726.500000 38.635344
726.500000 38.889942
726.500000 39.145376
726.500000 39.401646
726.500000 39.658752
726.500000 39.916695
726.500000 40.175473
726.500000 40.435088
726.500000 40.695539
726.500000 40.956826
726.500000 41.218949
726.500000 41.481908
726.500000 41.745703
726.500000 42.010334
726.500000 42.275802
726.500000 42.542106
726.500000 42.809245
726.500000 43.077221
726.500000 43.346033
726.500000 43.615681
726.500000 43.886165
726.500000 44.157486
726.500000 44.429642
726.500000 44.702635
726.500000 44.976463
726.500000 45.251128
726.500000 45.526629
726.500000 45.802966
726.500000 46.080139
726.500000 46.358148
726.500000 46.636994
726.500000 46.916675
726.500000 47.197193
726.500000 47.478547
726.500000 47.760736
726.500000 48.043762
726.500000 48.327625
726.500000 48.612323
726.500000 48.897857
726.500000 49.184227
726.500000 49.471434
726.500000 49.759477
726.500000 50.048355
726.500000 50.338070
726.500000 50.628621
726.500000 50.920009
726.500000 51.212232
726.500000 51.505291
726.500000 51.799187
726.500000 52.093918
726.500000 52.389486
726.500000 52.685890
726.500000 52.983130
726.500000 53.281206
726.500000 53.580118
726.500000 53.879867
726.500000 54.180451
726.500000 54.481872
726.500000 54.784128
726.500000 55.087221
726.500000 55.391150
726.500000 55.695915
726.500000 56.001516
726.500000 56.307953
726.500000 56.615227
726.500000 56.923336
726.500000 57.232282
726.500000 57.542064
726.500000 57.852682
726.500000 58.164136
726.500000 58.476426
726.500000 58.789552
726.500000 59.103514
726.500000 59.418313
726.500000 59.733947
726.500000 60.050418
726.500000 60.367725
726.500000 60.685868
726.500000 61.004847
726.500000 61.324662
726.500000 61.645313
726.500000 61.966801
726.500000 62.289124
726.500000 62.612284
726.500000 62.936279
726.500000 63.261111
726.500000 63.586779
726.500000 63.913283
726.500000 64.240624
726.500000 64.568800
726.500000 64.897812
726.500000 65.227661
726.500000 65.558346
726.500000 65.889867
726.500000 66.222223
726.500000 66.555417
726.500000 66.889446
726.500000 67.224311
726.500000 67.560012
726.500000 67.896550
726.500000 68.233924
726.500000 68.572133
726.500000 68.911179
726.500000 69.251061
726.500000 69.591779
726.500000 69.933334
726.500000 70.275724
726.500000 70.618950
726.500000 70.963013
726.500000 71.307912
726.500000 71.653646
726.500000 72.000217
726.500000 72.347624
726.500000 72.695868
726.500000 73.044947
726.500000 73.394862
726.500000 73.745614
726.500000 74.097202
726.500000 74.449625
726.500000 74.802885
726.500000 75.156981
726.500000 75.511913
726.500000 75.867682
726.500000 76.224286
726.500000 76.581726
726.500000 76.940003
726.500000 77.299116
726.500000 77.659064
726.500000 78.019849
726.500000 78.381471
726.500000 78.743928
726.500000 79.107221
726.500000 79.471350
726.500000 79.836316
726.500000 80.202118
726.500000 80.568755
726.500000 80.936229
726.500000 81.304539
726.500000 81.673685
726.500000 82.043668
726.500000 82.414486
726.500000 82.786141
726.500000 83.158631
726.500000 83.531958
726.500000 83.906121
726.500000 84.281120
726.500000 84.656955
726.500000 85.033626
726.500000 85.411133
726.500000 85.789477
726.500000 86.168656
726.500000 86.548672
726.500000 86.929524
726.500000 87.311212
726.500000 87.693736
726.500000 88.077096
726.500000 88.461292
726.500000 88.846324
726.500000 89.232193
726.500000 89.618897
726.500000 90.006438
726.500000 90.394815
726.500000 90.784028
726.500000 91.174077
726.500000 91.564962
726.500000 91.956684
726.500000 92.349241
726.500000 92.742634
726.500000 93.136864
726.500000 93.531930
726.500000 93.927832
726.500000 94.324570
726.500000 94.722144
726.500000 95.120554
726.500000 95.519801
726.500000 95.919883
726.500000 96.320802
726.500000 96.722557
726.500000 97.125147
726.500000 97.528574
726.500000 97.932837
726.500000 98.337937
726.500000 98.743872
726.500000 99.150643
726.500000 99.558251
726.500000 99.966695
726.500000 100.375974
726.500000 100.786090
726.500000 101.197042
726.500000 101.608831
726.500000 102.021455
726.500000 102.434915
726.500000 102.849212
726.500000 103.264344
726.500000 103.680313
726.500000 104.097118
726.500000 104.514759
726.500000 104.933236
726.500000 105.352549
726.500000 105.772699
726.500000 106.193684
726.500000 106.615506
726.500000 107.038163
726.500000 107.461657
726.500000 107.885987
726.500000 108.311153
726.500000 108.737155
726.500000 109.163993
726.500000 109.591668
726.500000 110.020178
726.500000 110.449525
726.500000 110.879708
726.500000 111.310727
726.500000 111.742582
726.500000 112.175273
726.500000 112.608800
726.500000 113.043163
726.500000 113.478363
726.500000 113.914398
726.500000 114.351270
726.500000 114.788978
726.500000 115.227522
726.500000 115.666902
726.500000 116.107118
726.500000 116.548170
726.500000 116.990059
726.500000 117.432783
726.500000 117.876344
726.500000 118.320740
726.500000 118.765973
726.500000 119.212042
726.500000 119.658947
726.500000 120.106689
726.500000 120.555266
726.500000 121.004679
726.500000 121.454929
726.500000 121.906015
726.500000 122.357937
726.500000 122.810695
726.500000 123.264289
726.500000 123.718719
726.500000 124.173985
726.500000 124.630087
726.500000 125.087026
726.500000 125.544801
726.500000 126.003411
726.500000 126.462858
726.500000 126.923141
726.500000 127.384260
726.500000 127.846216
726.500000 128.309007
726.500000 128.772634
726.500000 129.237098
726.500000 129.702398
726.500000 130.168534
726.500000 130.635505
726.500000 131.103314
726.500000 131.571958
726.500000 132.041438
726.500000 132.511754
726.500000 132.982907
726.500000 133.454896
726.500000 133.927720
726.500000 134.401381
726.500000 134.875878
726.500000 135.351211
726.500000 135.827381
726.500000 136.304386
726.500000 136.782227
726.500000 137.260905
726.500000 137.740419
726.500000 138.220769
726.500000 138.701955
726.500000 139.183977
726.500000 139.666835
726.500000 140.150529
726.500000 140.635060
726.500000 141.120426
726.500000 141.606629
726.500000 142.093668
726.500000 142.581542
726.500000 143.070253
726.500000 143.559801
726.500000 144.050184
726.500000 144.541403
726.500000 145.033459
726.500000 145.526350
726.500000 146.020078
726.500000 146.514642
726.500000 147.010042
726.500000 147.506278
726.500000 148.003350
726.500000 148.501258
726.500000 149.000003
726.500000 149.499583
726.500000 150.000000
</POINTS>
</NEKTAR>

