<?xml version="1.0" encoding="utf-8" ?>
<NEKTAR>
<POINTS DIM="2" FIELDS="">
966.500000 0.000000
966.500000 0.000418
966.500000 0.001672
966.500000 0.003763
966.500000 0.006689
966.500000 0.010451
966.500000 0.015050
966.500000 0.020485
966.500000 0.026756
966.500000 0.033863
966.500000 0.041806
966.500000 0.050585
966.500000 0.060201
966.500000 0.070652
966.500000 0.081940
966.500000 0.094063
966.500000 0.107023
966.500000 0.120819
966.500000 0.135451
966.500000 0.150919
966.500000 0.167224
966.500000 0.184364
966.500000 0.202341
966.500000 0.221153
966.500000 0.240802
966.500000 0.261287
966.500000 0.282608
966.500000 0.304765
966.500000 0.327758
966.500000 0.351588
966.500000 0.376253
966.500000 0.401755
966.500000 0.428092
966.500000 0.455266
966.500000 0.483276
966.500000 0.512122
966.500000 0.541805
966.500000 0.572323
966.500000 0.603677
966.500000 0.635868
966.500000 0.668894
966.500000 0.702757
966.500000 0.737456
966.500000 0.772991
966.500000 0.809362
966.500000 0.846570
966.500000 0.884613
966.500000 0.923492
966.500000 0.963208
966.500000 1.003760
966.500000 1.045148
966.500000 1.087372
966.500000 1.130432
966.500000 1.174328
966.500000 1.219060
966.500000 1.264629
966.500000 1.311033
966.500000 1.358274
966.500000 1.406351
966.500000 1.455264
966.500000 1.505013
966.500000 1.555598
966.500000 1.607019
966.500000 1.659276
966.500000 1.712370
966.500000 1.766299
966.500000 1.821065
966.500000 1.876667
966.500000 1.933105
966.500000 1.990379
966.500000 2.048489
966.500000 2.107436
966.500000 2.167218
966.500000 2.227837
966.500000 2.289291
966.500000 2.351582
966.500000 2.414709
966.500000 2.478672
966.500000 2.543471
966.500000 2.609106
966.500000 2.675578
966.500000 2.742885
966.500000 2.811029
966.500000 2.880009
966.500000 2.949825
966.500000 3.020477
966.500000 3.091965
966.500000 3.164289
966.500000 3.237449
966.500000 3.311446
966.500000 3.386278
966.500000 3.461947
966.500000 3.538452
966.500000 3.615793
966.500000 3.693970
966.500000 3.772983
966.500000 3.852832
966.500000 3.933517
966.500000 4.015039
966.500000 4.097397
966.500000 4.180590
966.500000 4.264620
966.500000 4.349486
966.500000 4.435188
966.500000 4.521727
966.500000 4.609101
966.500000 4.697311
966.500000 4.786358
966.500000 4.876241
966.500000 4.966959
966.500000 5.058514
966.500000 5.150905
966.500000 5.244133
966.500000 5.338196
966.500000 5.433095
966.500000 5.528831
966.500000 5.625402
966.500000 5.722810
966.500000 5.821054
966.500000 5.920134
966.500000 6.020050
966.500000 6.120802
966.500000 6.222391
966.500000 6.324815
966.500000 6.428076
966.500000 6.532172
966.500000 6.637105
966.500000 6.742874
966.500000 6.849479
966.500000 6.956920
966.500000 7.065198
966.500000 7.174311
966.500000 7.284261
966.500000 7.395046
966.500000 7.506668
966.500000 7.619126
966.500000 7.732420
966.500000 7.846550
966.500000 7.961516
966.500000 8.077319
966.500000 8.193957
966.500000 8.311432
966.500000 8.429742
966.500000 8.548889
966.500000 8.668872
966.500000 8.789691
966.500000 8.911346
966.500000 9.033838
966.500000 9.157165
966.500000 9.281329
966.500000 9.406328
966.500000 9.532164
966.500000 9.658836
966.500000 9.786344
966.500000 9.914688
966.500000 10.043868
966.500000 10.173885
966.500000 10.304737
966.500000 10.436426
966.500000 10.568950
966.500000 10.702311
966.500000 10.836508
966.500000 10.971541
966.500000 11.107411
966.500000 11.244116
966.500000 11.381657
966.500000 11.520035
966.500000 11.659248
966.500000 11.799298
966.500000 11.940184
966.500000 12.081906
966.500000 12.224464
966.500000 12.367859
966.500000 12.512089
966.500000 12.657155
966.500000 12.803058
966.500000 12.949797
966.500000 13.097372
966.500000 13.245782
966.500000 13.395030
966.500000 13.545113
966.500000 13.696032
966.500000 13.847787
966.500000 14.000379
966.500000 14.153807
966.500000 14.308070
966.500000 14.463170
966.500000 14.619106
966.500000 14.775879
966.500000 14.933487
966.500000 15.091931
966.500000 15.251212
966.500000 15.411328
966.500000 15.572281
966.500000 15.734070
966.500000 15.896695
966.500000 16.060156
966.500000 16.224453
966.500000 16.389586
966.500000 16.555556
966.500000 16.722361
966.500000 16.890003
966.500000 17.058481
966.500000 17.227795
966.500000 17.397945
966.500000 17.568931
966.500000 17.740753
966.500000 17.913412
966.500000 18.086906
966.500000 18.261237
966.500000 18.436403
966.500000 18.612406
966.500000 18.789245
966.500000 18.966920
966.500000 19.145432
966.500000 19.324779
966.500000 19.504962
966.500000 19.685982
966.500000 19.867838
966.500000 20.050529
966.500000 20.234057
966.500000 20.418421
966.500000 20.603622
966.500000 20.789658
966.500000 20.976530
966.500000 21.164239
966.500000 21.352783
966.500000 21.542164
966.500000 21.732381
966.500000 21.923434
966.500000 22.115323
966.500000 22.308048
966.500000 22.501610
966.500000 22.696007
966.500000 22.891241
966.500000 23.087310
966.500000 23.284216
966.500000 23.481958
966.500000 23.680536
966.500000 23.879950
966.500000 24.080200
966.500000 24.281287
966.500000 24.483209
966.500000 24.685968
966.500000 24.889563
966.500000 25.093994
966.500000 25.299261
966.500000 25.505364
966.500000 25.712303
966.500000 25.920078
966.500000 26.128690
966.500000 26.338137
966.500000 26.548421
966.500000 26.759541
966.500000 26.971497
966.500000 27.184289
966.500000 27.397917
966.500000 27.612381
966.500000 27.827682
966.500000 28.043818
966.500000 28.260791
966.500000 28.478600
966.500000 28.697244
966.500000 28.916725
966.500000 29.137043
966.500000 29.358196
966.500000 29.580185
966.500000 29.803011
966.500000 30.026672
966.500000 30.251170
966.500000 30.476504
966.500000 30.702674
966.500000 30.929680
966.500000 31.157522
966.500000 31.386200
966.500000 31.615715
966.500000 31.846065
966.500000 32.077252
966.500000 32.309275
966.500000 32.542133
966.500000 32.775828
966.500000 33.010360
966.500000 33.245727
966.500000 33.481930
966.500000 33.718970
966.500000 33.956845
966.500000 34.195557
966.500000 34.435105
966.500000 34.675489
966.500000 34.916709
966.500000 35.158765
966.500000 35.401657
966.500000 35.645386
966.500000 35.889950
966.500000 36.135351
966.500000 36.381588
966.500000 36.628660
966.500000 36.876569
966.500000 37.125315
966.500000 37.374896
966.500000 37.625313
966.500000 37.876567
966.500000 38.128656
966.500000 38.381582
966.500000 38.635344
966.500000 38.889942
966.500000 39.145376
966.500000 39.401646
966.500000 39.658752
966.500000 39.916695
966.500000 40.175473
966.500000 40.435088
966.500000 40.695539
966.500000 40.956826
966.500000 41.218949
966.500000 41.481908
966.500000 41.745703
966.500000 42.010334
966.500000 42.275802
966.500000 42.542106
966.500000 42.809245
966.500000 43.077221
966.500000 43.346033
966.500000 43.615681
966.500000 43.886165
966.500000 44.157486
966.500000 44.429642
966.500000 44.702635
966.500000 44.976463
966.500000 45.251128
966.500000 45.526629
966.500000 45.802966
966.500000 46.080139
966.500000 46.358148
966.500000 46.636994
966.500000 46.916675
966.500000 47.197193
966.500000 47.478547
966.500000 47.760736
966.500000 48.043762
966.500000 48.327625
966.500000 48.612323
966.500000 48.897857
966.500000 49.184227
966.500000 49.471434
966.500000 49.759477
966.500000 50.048355
966.500000 50.338070
966.500000 50.628621
966.500000 50.920009
966.500000 51.212232
966.500000 51.505291
966.500000 51.799187
966.500000 52.093918
966.500000 52.389486
966.500000 52.685890
966.500000 52.983130
966.500000 53.281206
966.500000 53.580118
966.500000 53.879867
966.500000 54.180451
966.500000 54.481872
966.500000 54.784128
966.500000 55.087221
966.500000 55.391150
966.500000 55.695915
966.500000 56.001516
966.500000 56.307953
966.500000 56.615227
966.500000 56.923336
966.500000 57.232282
966.500000 57.542064
966.500000 57.852682
966.500000 58.164136
966.500000 58.476426
966.500000 58.789552
966.500000 59.103514
966.500000 59.418313
966.500000 59.733947
966.500000 60.050418
966.500000 60.367725
966.500000 60.685868
966.500000 61.004847
966.500000 61.324662
966.500000 61.645313
966.500000 61.966801
966.500000 62.289124
966.500000 62.612284
966.500000 62.936279
966.500000 63.261111
966.500000 63.586779
966.500000 63.913283
966.500000 64.240624
966.500000 64.568800
966.500000 64.897812
966.500000 65.227661
966.500000 65.558346
966.500000 65.889867
966.500000 66.222223
966.500000 66.555417
966.500000 66.889446
966.500000 67.224311
966.500000 67.560012
966.500000 67.896550
966.500000 68.233924
966.500000 68.572133
966.500000 68.911179
966.500000 69.251061
966.500000 69.591779
966.500000 69.933334
966.500000 70.275724
966.500000 70.618950
966.500000 70.963013
966.500000 71.307912
966.500000 71.653646
966.500000 72.000217
966.500000 72.347624
966.500000 72.695868
966.500000 73.044947
966.500000 73.394862
966.500000 73.745614
966.500000 74.097202
966.500000 74.449625
966.500000 74.802885
966.500000 75.156981
966.500000 75.511913
966.500000 75.867682
966.500000 76.224286
966.500000 76.581726
966.500000 76.940003
966.500000 77.299116
966.500000 77.659064
966.500000 78.019849
966.500000 78.381471
966.500000 78.743928
966.500000 79.107221
966.500000 79.471350
966.500000 79.836316
966.500000 80.202118
966.500000 80.568755
966.500000 80.936229
966.500000 81.304539
966.500000 81.673685
966.500000 82.043668
966.500000 82.414486
966.500000 82.786141
966.500000 83.158631
966.500000 83.531958
966.500000 83.906121
966.500000 84.281120
966.500000 84.656955
966.500000 85.033626
966.500000 85.411133
966.500000 85.789477
966.500000 86.168656
966.500000 86.548672
966.500000 86.929524
966.500000 87.311212
966.500000 87.693736
966.500000 88.077096
966.500000 88.461292
966.500000 88.846324
966.500000 89.232193
966.500000 89.618897
966.500000 90.006438
966.500000 90.394815
966.500000 90.784028
966.500000 91.174077
966.500000 91.564962
966.500000 91.956684
966.500000 92.349241
966.500000 92.742634
966.500000 93.136864
966.500000 93.531930
966.500000 93.927832
966.500000 94.324570
966.500000 94.722144
966.500000 95.120554
966.500000 95.519801
966.500000 95.919883
966.500000 96.320802
966.500000 96.722557
966.500000 97.125147
966.500000 97.528574
966.500000 97.932837
966.500000 98.337937
966.500000 98.743872
966.500000 99.150643
966.500000 99.558251
966.500000 99.966695
966.500000 100.375974
966.500000 100.786090
966.500000 101.197042
966.500000 101.608831
966.500000 102.021455
966.500000 102.434915
966.500000 102.849212
966.500000 103.264344
966.500000 103.680313
966.500000 104.097118
966.500000 104.514759
966.500000 104.933236
966.500000 105.352549
966.500000 105.772699
966.500000 106.193684
966.500000 106.615506
966.500000 107.038163
966.500000 107.461657
966.500000 107.885987
966.500000 108.311153
966.500000 108.737155
966.500000 109.163993
966.500000 109.591668
966.500000 110.020178
966.500000 110.449525
966.500000 110.879708
966.500000 111.310727
966.500000 111.742582
966.500000 112.175273
966.500000 112.608800
966.500000 113.043163
966.500000 113.478363
966.500000 113.914398
966.500000 114.351270
966.500000 114.788978
966.500000 115.227522
966.500000 115.666902
966.500000 116.107118
966.500000 116.548170
966.500000 116.990059
966.500000 117.432783
966.500000 117.876344
966.500000 118.320740
966.500000 118.765973
966.500000 119.212042
966.500000 119.658947
966.500000 120.106689
966.500000 120.555266
966.500000 121.004679
966.500000 121.454929
966.500000 121.906015
966.500000 122.357937
966.500000 122.810695
966.500000 123.264289
966.500000 123.718719
966.500000 124.173985
966.500000 124.630087
966.500000 125.087026
966.500000 125.544801
966.500000 126.003411
966.500000 126.462858
966.500000 126.923141
966.500000 127.384260
966.500000 127.846216
966.500000 128.309007
966.500000 128.772634
966.500000 129.237098
966.500000 129.702398
966.500000 130.168534
966.500000 130.635505
966.500000 131.103314
966.500000 131.571958
966.500000 132.041438
966.500000 132.511754
966.500000 132.982907
966.500000 133.454896
966.500000 133.927720
966.500000 134.401381
966.500000 134.875878
966.500000 135.351211
966.500000 135.827381
966.500000 136.304386
966.500000 136.782227
966.500000 137.260905
966.500000 137.740419
966.500000 138.220769
966.500000 138.701955
966.500000 139.183977
966.500000 139.666835
966.500000 140.150529
966.500000 140.635060
966.500000 141.120426
966.500000 141.606629
966.500000 142.093668
966.500000 142.581542
966.500000 143.070253
966.500000 143.559801
966.500000 144.050184
966.500000 144.541403
966.500000 145.033459
966.500000 145.526350
966.500000 146.020078
966.500000 146.514642
966.500000 147.010042
966.500000 147.506278
966.500000 148.003350
966.500000 148.501258
966.500000 149.000003
966.500000 149.499583
966.500000 150.000000
</POINTS>
</NEKTAR>

