<?xml version="1.0" encoding="utf-8" ?>
<NEKTAR>
<POINTS DIM="2" FIELDS="">
246.500000 0.000000
246.500000 0.000418
246.500000 0.001672
246.500000 0.003763
246.500000 0.006689
246.500000 0.010451
246.500000 0.015050
246.500000 0.020485
246.500000 0.026756
246.500000 0.033863
246.500000 0.041806
246.500000 0.050585
246.500000 0.060201
246.500000 0.070652
246.500000 0.081940
246.500000 0.094063
246.500000 0.107023
246.500000 0.120819
246.500000 0.135451
246.500000 0.150919
246.500000 0.167224
246.500000 0.184364
246.500000 0.202341
246.500000 0.221153
246.500000 0.240802
246.500000 0.261287
246.500000 0.282608
246.500000 0.304765
246.500000 0.327758
246.500000 0.351588
246.500000 0.376253
246.500000 0.401755
246.500000 0.428092
246.500000 0.455266
246.500000 0.483276
246.500000 0.512122
246.500000 0.541805
246.500000 0.572323
246.500000 0.603677
246.500000 0.635868
246.500000 0.668894
246.500000 0.702757
246.500000 0.737456
246.500000 0.772991
246.500000 0.809362
246.500000 0.846570
246.500000 0.884613
246.500000 0.923492
246.500000 0.963208
246.500000 1.003760
246.500000 1.045148
246.500000 1.087372
246.500000 1.130432
246.500000 1.174328
246.500000 1.219060
246.500000 1.264629
246.500000 1.311033
246.500000 1.358274
246.500000 1.406351
246.500000 1.455264
246.500000 1.505013
246.500000 1.555598
246.500000 1.607019
246.500000 1.659276
246.500000 1.712370
246.500000 1.766299
246.500000 1.821065
246.500000 1.876667
246.500000 1.933105
246.500000 1.990379
246.500000 2.048489
246.500000 2.107436
246.500000 2.167218
246.500000 2.227837
246.500000 2.289291
246.500000 2.351582
246.500000 2.414709
246.500000 2.478672
246.500000 2.543471
246.500000 2.609106
246.500000 2.675578
246.500000 2.742885
246.500000 2.811029
246.500000 2.880009
246.500000 2.949825
246.500000 3.020477
246.500000 3.091965
246.500000 3.164289
246.500000 3.237449
246.500000 3.311446
246.500000 3.386278
246.500000 3.461947
246.500000 3.538452
246.500000 3.615793
246.500000 3.693970
246.500000 3.772983
246.500000 3.852832
246.500000 3.933517
246.500000 4.015039
246.500000 4.097397
246.500000 4.180590
246.500000 4.264620
246.500000 4.349486
246.500000 4.435188
246.500000 4.521727
246.500000 4.609101
246.500000 4.697311
246.500000 4.786358
246.500000 4.876241
246.500000 4.966959
246.500000 5.058514
246.500000 5.150905
246.500000 5.244133
246.500000 5.338196
246.500000 5.433095
246.500000 5.528831
246.500000 5.625402
246.500000 5.722810
246.500000 5.821054
246.500000 5.920134
246.500000 6.020050
246.500000 6.120802
246.500000 6.222391
246.500000 6.324815
246.500000 6.428076
246.500000 6.532172
246.500000 6.637105
246.500000 6.742874
246.500000 6.849479
246.500000 6.956920
246.500000 7.065198
246.500000 7.174311
246.500000 7.284261
246.500000 7.395046
246.500000 7.506668
246.500000 7.619126
246.500000 7.732420
246.500000 7.846550
246.500000 7.961516
246.500000 8.077319
246.500000 8.193957
246.500000 8.311432
246.500000 8.429742
246.500000 8.548889
246.500000 8.668872
246.500000 8.789691
246.500000 8.911346
246.500000 9.033838
246.500000 9.157165
246.500000 9.281329
246.500000 9.406328
246.500000 9.532164
246.500000 9.658836
246.500000 9.786344
246.500000 9.914688
246.500000 10.043868
246.500000 10.173885
246.500000 10.304737
246.500000 10.436426
246.500000 10.568950
246.500000 10.702311
246.500000 10.836508
246.500000 10.971541
246.500000 11.107411
246.500000 11.244116
246.500000 11.381657
246.500000 11.520035
246.500000 11.659248
246.500000 11.799298
246.500000 11.940184
246.500000 12.081906
246.500000 12.224464
246.500000 12.367859
246.500000 12.512089
246.500000 12.657155
246.500000 12.803058
246.500000 12.949797
246.500000 13.097372
246.500000 13.245782
246.500000 13.395030
246.500000 13.545113
246.500000 13.696032
246.500000 13.847787
246.500000 14.000379
246.500000 14.153807
246.500000 14.308070
246.500000 14.463170
246.500000 14.619106
246.500000 14.775879
246.500000 14.933487
246.500000 15.091931
246.500000 15.251212
246.500000 15.411328
246.500000 15.572281
246.500000 15.734070
246.500000 15.896695
246.500000 16.060156
246.500000 16.224453
246.500000 16.389586
246.500000 16.555556
246.500000 16.722361
246.500000 16.890003
246.500000 17.058481
246.500000 17.227795
246.500000 17.397945
246.500000 17.568931
246.500000 17.740753
246.500000 17.913412
246.500000 18.086906
246.500000 18.261237
246.500000 18.436403
246.500000 18.612406
246.500000 18.789245
246.500000 18.966920
246.500000 19.145432
246.500000 19.324779
246.500000 19.504962
246.500000 19.685982
246.500000 19.867838
246.500000 20.050529
246.500000 20.234057
246.500000 20.418421
246.500000 20.603622
246.500000 20.789658
246.500000 20.976530
246.500000 21.164239
246.500000 21.352783
246.500000 21.542164
246.500000 21.732381
246.500000 21.923434
246.500000 22.115323
246.500000 22.308048
246.500000 22.501610
246.500000 22.696007
246.500000 22.891241
246.500000 23.087310
246.500000 23.284216
246.500000 23.481958
246.500000 23.680536
246.500000 23.879950
246.500000 24.080200
246.500000 24.281287
246.500000 24.483209
246.500000 24.685968
246.500000 24.889563
246.500000 25.093994
246.500000 25.299261
246.500000 25.505364
246.500000 25.712303
246.500000 25.920078
246.500000 26.128690
246.500000 26.338137
246.500000 26.548421
246.500000 26.759541
246.500000 26.971497
246.500000 27.184289
246.500000 27.397917
246.500000 27.612381
246.500000 27.827682
246.500000 28.043818
246.500000 28.260791
246.500000 28.478600
246.500000 28.697244
246.500000 28.916725
246.500000 29.137043
246.500000 29.358196
246.500000 29.580185
246.500000 29.803011
246.500000 30.026672
246.500000 30.251170
246.500000 30.476504
246.500000 30.702674
246.500000 30.929680
246.500000 31.157522
246.500000 31.386200
246.500000 31.615715
246.500000 31.846065
246.500000 32.077252
246.500000 32.309275
246.500000 32.542133
246.500000 32.775828
246.500000 33.010360
246.500000 33.245727
246.500000 33.481930
246.500000 33.718970
246.500000 33.956845
246.500000 34.195557
246.500000 34.435105
246.500000 34.675489
246.500000 34.916709
246.500000 35.158765
246.500000 35.401657
246.500000 35.645386
246.500000 35.889950
246.500000 36.135351
246.500000 36.381588
246.500000 36.628660
246.500000 36.876569
246.500000 37.125315
246.500000 37.374896
246.500000 37.625313
246.500000 37.876567
246.500000 38.128656
246.500000 38.381582
246.500000 38.635344
246.500000 38.889942
246.500000 39.145376
246.500000 39.401646
246.500000 39.658752
246.500000 39.916695
246.500000 40.175473
246.500000 40.435088
246.500000 40.695539
246.500000 40.956826
246.500000 41.218949
246.500000 41.481908
246.500000 41.745703
246.500000 42.010334
246.500000 42.275802
246.500000 42.542106
246.500000 42.809245
246.500000 43.077221
246.500000 43.346033
246.500000 43.615681
246.500000 43.886165
246.500000 44.157486
246.500000 44.429642
246.500000 44.702635
246.500000 44.976463
246.500000 45.251128
246.500000 45.526629
246.500000 45.802966
246.500000 46.080139
246.500000 46.358148
246.500000 46.636994
246.500000 46.916675
246.500000 47.197193
246.500000 47.478547
246.500000 47.760736
246.500000 48.043762
246.500000 48.327625
246.500000 48.612323
246.500000 48.897857
246.500000 49.184227
246.500000 49.471434
246.500000 49.759477
246.500000 50.048355
246.500000 50.338070
246.500000 50.628621
246.500000 50.920009
246.500000 51.212232
246.500000 51.505291
246.500000 51.799187
246.500000 52.093918
246.500000 52.389486
246.500000 52.685890
246.500000 52.983130
246.500000 53.281206
246.500000 53.580118
246.500000 53.879867
246.500000 54.180451
246.500000 54.481872
246.500000 54.784128
246.500000 55.087221
246.500000 55.391150
246.500000 55.695915
246.500000 56.001516
246.500000 56.307953
246.500000 56.615227
246.500000 56.923336
246.500000 57.232282
246.500000 57.542064
246.500000 57.852682
246.500000 58.164136
246.500000 58.476426
246.500000 58.789552
246.500000 59.103514
246.500000 59.418313
246.500000 59.733947
246.500000 60.050418
246.500000 60.367725
246.500000 60.685868
246.500000 61.004847
246.500000 61.324662
246.500000 61.645313
246.500000 61.966801
246.500000 62.289124
246.500000 62.612284
246.500000 62.936279
246.500000 63.261111
246.500000 63.586779
246.500000 63.913283
246.500000 64.240624
246.500000 64.568800
246.500000 64.897812
246.500000 65.227661
246.500000 65.558346
246.500000 65.889867
246.500000 66.222223
246.500000 66.555417
246.500000 66.889446
246.500000 67.224311
246.500000 67.560012
246.500000 67.896550
246.500000 68.233924
246.500000 68.572133
246.500000 68.911179
246.500000 69.251061
246.500000 69.591779
246.500000 69.933334
246.500000 70.275724
246.500000 70.618950
246.500000 70.963013
246.500000 71.307912
246.500000 71.653646
246.500000 72.000217
246.500000 72.347624
246.500000 72.695868
246.500000 73.044947
246.500000 73.394862
246.500000 73.745614
246.500000 74.097202
246.500000 74.449625
246.500000 74.802885
246.500000 75.156981
246.500000 75.511913
246.500000 75.867682
246.500000 76.224286
246.500000 76.581726
246.500000 76.940003
246.500000 77.299116
246.500000 77.659064
246.500000 78.019849
246.500000 78.381471
246.500000 78.743928
246.500000 79.107221
246.500000 79.471350
246.500000 79.836316
246.500000 80.202118
246.500000 80.568755
246.500000 80.936229
246.500000 81.304539
246.500000 81.673685
246.500000 82.043668
246.500000 82.414486
246.500000 82.786141
246.500000 83.158631
246.500000 83.531958
246.500000 83.906121
246.500000 84.281120
246.500000 84.656955
246.500000 85.033626
246.500000 85.411133
246.500000 85.789477
246.500000 86.168656
246.500000 86.548672
246.500000 86.929524
246.500000 87.311212
246.500000 87.693736
246.500000 88.077096
246.500000 88.461292
246.500000 88.846324
246.500000 89.232193
246.500000 89.618897
246.500000 90.006438
246.500000 90.394815
246.500000 90.784028
246.500000 91.174077
246.500000 91.564962
246.500000 91.956684
246.500000 92.349241
246.500000 92.742634
246.500000 93.136864
246.500000 93.531930
246.500000 93.927832
246.500000 94.324570
246.500000 94.722144
246.500000 95.120554
246.500000 95.519801
246.500000 95.919883
246.500000 96.320802
246.500000 96.722557
246.500000 97.125147
246.500000 97.528574
246.500000 97.932837
246.500000 98.337937
246.500000 98.743872
246.500000 99.150643
246.500000 99.558251
246.500000 99.966695
246.500000 100.375974
246.500000 100.786090
246.500000 101.197042
246.500000 101.608831
246.500000 102.021455
246.500000 102.434915
246.500000 102.849212
246.500000 103.264344
246.500000 103.680313
246.500000 104.097118
246.500000 104.514759
246.500000 104.933236
246.500000 105.352549
246.500000 105.772699
246.500000 106.193684
246.500000 106.615506
246.500000 107.038163
246.500000 107.461657
246.500000 107.885987
246.500000 108.311153
246.500000 108.737155
246.500000 109.163993
246.500000 109.591668
246.500000 110.020178
246.500000 110.449525
246.500000 110.879708
246.500000 111.310727
246.500000 111.742582
246.500000 112.175273
246.500000 112.608800
246.500000 113.043163
246.500000 113.478363
246.500000 113.914398
246.500000 114.351270
246.500000 114.788978
246.500000 115.227522
246.500000 115.666902
246.500000 116.107118
246.500000 116.548170
246.500000 116.990059
246.500000 117.432783
246.500000 117.876344
246.500000 118.320740
246.500000 118.765973
246.500000 119.212042
246.500000 119.658947
246.500000 120.106689
246.500000 120.555266
246.500000 121.004679
246.500000 121.454929
246.500000 121.906015
246.500000 122.357937
246.500000 122.810695
246.500000 123.264289
246.500000 123.718719
246.500000 124.173985
246.500000 124.630087
246.500000 125.087026
246.500000 125.544801
246.500000 126.003411
246.500000 126.462858
246.500000 126.923141
246.500000 127.384260
246.500000 127.846216
246.500000 128.309007
246.500000 128.772634
246.500000 129.237098
246.500000 129.702398
246.500000 130.168534
246.500000 130.635505
246.500000 131.103314
246.500000 131.571958
246.500000 132.041438
246.500000 132.511754
246.500000 132.982907
246.500000 133.454896
246.500000 133.927720
246.500000 134.401381
246.500000 134.875878
246.500000 135.351211
246.500000 135.827381
246.500000 136.304386
246.500000 136.782227
246.500000 137.260905
246.500000 137.740419
246.500000 138.220769
246.500000 138.701955
246.500000 139.183977
246.500000 139.666835
246.500000 140.150529
246.500000 140.635060
246.500000 141.120426
246.500000 141.606629
246.500000 142.093668
246.500000 142.581542
246.500000 143.070253
246.500000 143.559801
246.500000 144.050184
246.500000 144.541403
246.500000 145.033459
246.500000 145.526350
246.500000 146.020078
246.500000 146.514642
246.500000 147.010042
246.500000 147.506278
246.500000 148.003350
246.500000 148.501258
246.500000 149.000003
246.500000 149.499583
246.500000 150.000000
</POINTS>
</NEKTAR>

