<?xml version="1.0" encoding="utf-8" ?>
<NEKTAR>
<POINTS DIM="2" FIELDS="">
486.500000 0.000000
486.500000 0.000418
486.500000 0.001672
486.500000 0.003763
486.500000 0.006689
486.500000 0.010451
486.500000 0.015050
486.500000 0.020485
486.500000 0.026756
486.500000 0.033863
486.500000 0.041806
486.500000 0.050585
486.500000 0.060201
486.500000 0.070652
486.500000 0.081940
486.500000 0.094063
486.500000 0.107023
486.500000 0.120819
486.500000 0.135451
486.500000 0.150919
486.500000 0.167224
486.500000 0.184364
486.500000 0.202341
486.500000 0.221153
486.500000 0.240802
486.500000 0.261287
486.500000 0.282608
486.500000 0.304765
486.500000 0.327758
486.500000 0.351588
486.500000 0.376253
486.500000 0.401755
486.500000 0.428092
486.500000 0.455266
486.500000 0.483276
486.500000 0.512122
486.500000 0.541805
486.500000 0.572323
486.500000 0.603677
486.500000 0.635868
486.500000 0.668894
486.500000 0.702757
486.500000 0.737456
486.500000 0.772991
486.500000 0.809362
486.500000 0.846570
486.500000 0.884613
486.500000 0.923492
486.500000 0.963208
486.500000 1.003760
486.500000 1.045148
486.500000 1.087372
486.500000 1.130432
486.500000 1.174328
486.500000 1.219060
486.500000 1.264629
486.500000 1.311033
486.500000 1.358274
486.500000 1.406351
486.500000 1.455264
486.500000 1.505013
486.500000 1.555598
486.500000 1.607019
486.500000 1.659276
486.500000 1.712370
486.500000 1.766299
486.500000 1.821065
486.500000 1.876667
486.500000 1.933105
486.500000 1.990379
486.500000 2.048489
486.500000 2.107436
486.500000 2.167218
486.500000 2.227837
486.500000 2.289291
486.500000 2.351582
486.500000 2.414709
486.500000 2.478672
486.500000 2.543471
486.500000 2.609106
486.500000 2.675578
486.500000 2.742885
486.500000 2.811029
486.500000 2.880009
486.500000 2.949825
486.500000 3.020477
486.500000 3.091965
486.500000 3.164289
486.500000 3.237449
486.500000 3.311446
486.500000 3.386278
486.500000 3.461947
486.500000 3.538452
486.500000 3.615793
486.500000 3.693970
486.500000 3.772983
486.500000 3.852832
486.500000 3.933517
486.500000 4.015039
486.500000 4.097397
486.500000 4.180590
486.500000 4.264620
486.500000 4.349486
486.500000 4.435188
486.500000 4.521727
486.500000 4.609101
486.500000 4.697311
486.500000 4.786358
486.500000 4.876241
486.500000 4.966959
486.500000 5.058514
486.500000 5.150905
486.500000 5.244133
486.500000 5.338196
486.500000 5.433095
486.500000 5.528831
486.500000 5.625402
486.500000 5.722810
486.500000 5.821054
486.500000 5.920134
486.500000 6.020050
486.500000 6.120802
486.500000 6.222391
486.500000 6.324815
486.500000 6.428076
486.500000 6.532172
486.500000 6.637105
486.500000 6.742874
486.500000 6.849479
486.500000 6.956920
486.500000 7.065198
486.500000 7.174311
486.500000 7.284261
486.500000 7.395046
486.500000 7.506668
486.500000 7.619126
486.500000 7.732420
486.500000 7.846550
486.500000 7.961516
486.500000 8.077319
486.500000 8.193957
486.500000 8.311432
486.500000 8.429742
486.500000 8.548889
486.500000 8.668872
486.500000 8.789691
486.500000 8.911346
486.500000 9.033838
486.500000 9.157165
486.500000 9.281329
486.500000 9.406328
486.500000 9.532164
486.500000 9.658836
486.500000 9.786344
486.500000 9.914688
486.500000 10.043868
486.500000 10.173885
486.500000 10.304737
486.500000 10.436426
486.500000 10.568950
486.500000 10.702311
486.500000 10.836508
486.500000 10.971541
486.500000 11.107411
486.500000 11.244116
486.500000 11.381657
486.500000 11.520035
486.500000 11.659248
486.500000 11.799298
486.500000 11.940184
486.500000 12.081906
486.500000 12.224464
486.500000 12.367859
486.500000 12.512089
486.500000 12.657155
486.500000 12.803058
486.500000 12.949797
486.500000 13.097372
486.500000 13.245782
486.500000 13.395030
486.500000 13.545113
486.500000 13.696032
486.500000 13.847787
486.500000 14.000379
486.500000 14.153807
486.500000 14.308070
486.500000 14.463170
486.500000 14.619106
486.500000 14.775879
486.500000 14.933487
486.500000 15.091931
486.500000 15.251212
486.500000 15.411328
486.500000 15.572281
486.500000 15.734070
486.500000 15.896695
486.500000 16.060156
486.500000 16.224453
486.500000 16.389586
486.500000 16.555556
486.500000 16.722361
486.500000 16.890003
486.500000 17.058481
486.500000 17.227795
486.500000 17.397945
486.500000 17.568931
486.500000 17.740753
486.500000 17.913412
486.500000 18.086906
486.500000 18.261237
486.500000 18.436403
486.500000 18.612406
486.500000 18.789245
486.500000 18.966920
486.500000 19.145432
486.500000 19.324779
486.500000 19.504962
486.500000 19.685982
486.500000 19.867838
486.500000 20.050529
486.500000 20.234057
486.500000 20.418421
486.500000 20.603622
486.500000 20.789658
486.500000 20.976530
486.500000 21.164239
486.500000 21.352783
486.500000 21.542164
486.500000 21.732381
486.500000 21.923434
486.500000 22.115323
486.500000 22.308048
486.500000 22.501610
486.500000 22.696007
486.500000 22.891241
486.500000 23.087310
486.500000 23.284216
486.500000 23.481958
486.500000 23.680536
486.500000 23.879950
486.500000 24.080200
486.500000 24.281287
486.500000 24.483209
486.500000 24.685968
486.500000 24.889563
486.500000 25.093994
486.500000 25.299261
486.500000 25.505364
486.500000 25.712303
486.500000 25.920078
486.500000 26.128690
486.500000 26.338137
486.500000 26.548421
486.500000 26.759541
486.500000 26.971497
486.500000 27.184289
486.500000 27.397917
486.500000 27.612381
486.500000 27.827682
486.500000 28.043818
486.500000 28.260791
486.500000 28.478600
486.500000 28.697244
486.500000 28.916725
486.500000 29.137043
486.500000 29.358196
486.500000 29.580185
486.500000 29.803011
486.500000 30.026672
486.500000 30.251170
486.500000 30.476504
486.500000 30.702674
486.500000 30.929680
486.500000 31.157522
486.500000 31.386200
486.500000 31.615715
486.500000 31.846065
486.500000 32.077252
486.500000 32.309275
486.500000 32.542133
486.500000 32.775828
486.500000 33.010360
486.500000 33.245727
486.500000 33.481930
486.500000 33.718970
486.500000 33.956845
486.500000 34.195557
486.500000 34.435105
486.500000 34.675489
486.500000 34.916709
486.500000 35.158765
486.500000 35.401657
486.500000 35.645386
486.500000 35.889950
486.500000 36.135351
486.500000 36.381588
486.500000 36.628660
486.500000 36.876569
486.500000 37.125315
486.500000 37.374896
486.500000 37.625313
486.500000 37.876567
486.500000 38.128656
486.500000 38.381582
486.500000 38.635344
486.500000 38.889942
486.500000 39.145376
486.500000 39.401646
486.500000 39.658752
486.500000 39.916695
486.500000 40.175473
486.500000 40.435088
486.500000 40.695539
486.500000 40.956826
486.500000 41.218949
486.500000 41.481908
486.500000 41.745703
486.500000 42.010334
486.500000 42.275802
486.500000 42.542106
486.500000 42.809245
486.500000 43.077221
486.500000 43.346033
486.500000 43.615681
486.500000 43.886165
486.500000 44.157486
486.500000 44.429642
486.500000 44.702635
486.500000 44.976463
486.500000 45.251128
486.500000 45.526629
486.500000 45.802966
486.500000 46.080139
486.500000 46.358148
486.500000 46.636994
486.500000 46.916675
486.500000 47.197193
486.500000 47.478547
486.500000 47.760736
486.500000 48.043762
486.500000 48.327625
486.500000 48.612323
486.500000 48.897857
486.500000 49.184227
486.500000 49.471434
486.500000 49.759477
486.500000 50.048355
486.500000 50.338070
486.500000 50.628621
486.500000 50.920009
486.500000 51.212232
486.500000 51.505291
486.500000 51.799187
486.500000 52.093918
486.500000 52.389486
486.500000 52.685890
486.500000 52.983130
486.500000 53.281206
486.500000 53.580118
486.500000 53.879867
486.500000 54.180451
486.500000 54.481872
486.500000 54.784128
486.500000 55.087221
486.500000 55.391150
486.500000 55.695915
486.500000 56.001516
486.500000 56.307953
486.500000 56.615227
486.500000 56.923336
486.500000 57.232282
486.500000 57.542064
486.500000 57.852682
486.500000 58.164136
486.500000 58.476426
486.500000 58.789552
486.500000 59.103514
486.500000 59.418313
486.500000 59.733947
486.500000 60.050418
486.500000 60.367725
486.500000 60.685868
486.500000 61.004847
486.500000 61.324662
486.500000 61.645313
486.500000 61.966801
486.500000 62.289124
486.500000 62.612284
486.500000 62.936279
486.500000 63.261111
486.500000 63.586779
486.500000 63.913283
486.500000 64.240624
486.500000 64.568800
486.500000 64.897812
486.500000 65.227661
486.500000 65.558346
486.500000 65.889867
486.500000 66.222223
486.500000 66.555417
486.500000 66.889446
486.500000 67.224311
486.500000 67.560012
486.500000 67.896550
486.500000 68.233924
486.500000 68.572133
486.500000 68.911179
486.500000 69.251061
486.500000 69.591779
486.500000 69.933334
486.500000 70.275724
486.500000 70.618950
486.500000 70.963013
486.500000 71.307912
486.500000 71.653646
486.500000 72.000217
486.500000 72.347624
486.500000 72.695868
486.500000 73.044947
486.500000 73.394862
486.500000 73.745614
486.500000 74.097202
486.500000 74.449625
486.500000 74.802885
486.500000 75.156981
486.500000 75.511913
486.500000 75.867682
486.500000 76.224286
486.500000 76.581726
486.500000 76.940003
486.500000 77.299116
486.500000 77.659064
486.500000 78.019849
486.500000 78.381471
486.500000 78.743928
486.500000 79.107221
486.500000 79.471350
486.500000 79.836316
486.500000 80.202118
486.500000 80.568755
486.500000 80.936229
486.500000 81.304539
486.500000 81.673685
486.500000 82.043668
486.500000 82.414486
486.500000 82.786141
486.500000 83.158631
486.500000 83.531958
486.500000 83.906121
486.500000 84.281120
486.500000 84.656955
486.500000 85.033626
486.500000 85.411133
486.500000 85.789477
486.500000 86.168656
486.500000 86.548672
486.500000 86.929524
486.500000 87.311212
486.500000 87.693736
486.500000 88.077096
486.500000 88.461292
486.500000 88.846324
486.500000 89.232193
486.500000 89.618897
486.500000 90.006438
486.500000 90.394815
486.500000 90.784028
486.500000 91.174077
486.500000 91.564962
486.500000 91.956684
486.500000 92.349241
486.500000 92.742634
486.500000 93.136864
486.500000 93.531930
486.500000 93.927832
486.500000 94.324570
486.500000 94.722144
486.500000 95.120554
486.500000 95.519801
486.500000 95.919883
486.500000 96.320802
486.500000 96.722557
486.500000 97.125147
486.500000 97.528574
486.500000 97.932837
486.500000 98.337937
486.500000 98.743872
486.500000 99.150643
486.500000 99.558251
486.500000 99.966695
486.500000 100.375974
486.500000 100.786090
486.500000 101.197042
486.500000 101.608831
486.500000 102.021455
486.500000 102.434915
486.500000 102.849212
486.500000 103.264344
486.500000 103.680313
486.500000 104.097118
486.500000 104.514759
486.500000 104.933236
486.500000 105.352549
486.500000 105.772699
486.500000 106.193684
486.500000 106.615506
486.500000 107.038163
486.500000 107.461657
486.500000 107.885987
486.500000 108.311153
486.500000 108.737155
486.500000 109.163993
486.500000 109.591668
486.500000 110.020178
486.500000 110.449525
486.500000 110.879708
486.500000 111.310727
486.500000 111.742582
486.500000 112.175273
486.500000 112.608800
486.500000 113.043163
486.500000 113.478363
486.500000 113.914398
486.500000 114.351270
486.500000 114.788978
486.500000 115.227522
486.500000 115.666902
486.500000 116.107118
486.500000 116.548170
486.500000 116.990059
486.500000 117.432783
486.500000 117.876344
486.500000 118.320740
486.500000 118.765973
486.500000 119.212042
486.500000 119.658947
486.500000 120.106689
486.500000 120.555266
486.500000 121.004679
486.500000 121.454929
486.500000 121.906015
486.500000 122.357937
486.500000 122.810695
486.500000 123.264289
486.500000 123.718719
486.500000 124.173985
486.500000 124.630087
486.500000 125.087026
486.500000 125.544801
486.500000 126.003411
486.500000 126.462858
486.500000 126.923141
486.500000 127.384260
486.500000 127.846216
486.500000 128.309007
486.500000 128.772634
486.500000 129.237098
486.500000 129.702398
486.500000 130.168534
486.500000 130.635505
486.500000 131.103314
486.500000 131.571958
486.500000 132.041438
486.500000 132.511754
486.500000 132.982907
486.500000 133.454896
486.500000 133.927720
486.500000 134.401381
486.500000 134.875878
486.500000 135.351211
486.500000 135.827381
486.500000 136.304386
486.500000 136.782227
486.500000 137.260905
486.500000 137.740419
486.500000 138.220769
486.500000 138.701955
486.500000 139.183977
486.500000 139.666835
486.500000 140.150529
486.500000 140.635060
486.500000 141.120426
486.500000 141.606629
486.500000 142.093668
486.500000 142.581542
486.500000 143.070253
486.500000 143.559801
486.500000 144.050184
486.500000 144.541403
486.500000 145.033459
486.500000 145.526350
486.500000 146.020078
486.500000 146.514642
486.500000 147.010042
486.500000 147.506278
486.500000 148.003350
486.500000 148.501258
486.500000 149.000003
486.500000 149.499583
486.500000 150.000000
</POINTS>
</NEKTAR>

