<?xml version="1.0" encoding="utf-8" ?>
<NEKTAR>
<POINTS DIM="2" FIELDS="">
793.500000 0.000000
793.500000 0.000418
793.500000 0.001672
793.500000 0.003763
793.500000 0.006689
793.500000 0.010451
793.500000 0.015050
793.500000 0.020485
793.500000 0.026756
793.500000 0.033863
793.500000 0.041806
793.500000 0.050585
793.500000 0.060201
793.500000 0.070652
793.500000 0.081940
793.500000 0.094063
793.500000 0.107023
793.500000 0.120819
793.500000 0.135451
793.500000 0.150919
793.500000 0.167224
793.500000 0.184364
793.500000 0.202341
793.500000 0.221153
793.500000 0.240802
793.500000 0.261287
793.500000 0.282608
793.500000 0.304765
793.500000 0.327758
793.500000 0.351588
793.500000 0.376253
793.500000 0.401755
793.500000 0.428092
793.500000 0.455266
793.500000 0.483276
793.500000 0.512122
793.500000 0.541805
793.500000 0.572323
793.500000 0.603677
793.500000 0.635868
793.500000 0.668894
793.500000 0.702757
793.500000 0.737456
793.500000 0.772991
793.500000 0.809362
793.500000 0.846570
793.500000 0.884613
793.500000 0.923492
793.500000 0.963208
793.500000 1.003760
793.500000 1.045148
793.500000 1.087372
793.500000 1.130432
793.500000 1.174328
793.500000 1.219060
793.500000 1.264629
793.500000 1.311033
793.500000 1.358274
793.500000 1.406351
793.500000 1.455264
793.500000 1.505013
793.500000 1.555598
793.500000 1.607019
793.500000 1.659276
793.500000 1.712370
793.500000 1.766299
793.500000 1.821065
793.500000 1.876667
793.500000 1.933105
793.500000 1.990379
793.500000 2.048489
793.500000 2.107436
793.500000 2.167218
793.500000 2.227837
793.500000 2.289291
793.500000 2.351582
793.500000 2.414709
793.500000 2.478672
793.500000 2.543471
793.500000 2.609106
793.500000 2.675578
793.500000 2.742885
793.500000 2.811029
793.500000 2.880009
793.500000 2.949825
793.500000 3.020477
793.500000 3.091965
793.500000 3.164289
793.500000 3.237449
793.500000 3.311446
793.500000 3.386278
793.500000 3.461947
793.500000 3.538452
793.500000 3.615793
793.500000 3.693970
793.500000 3.772983
793.500000 3.852832
793.500000 3.933517
793.500000 4.015039
793.500000 4.097397
793.500000 4.180590
793.500000 4.264620
793.500000 4.349486
793.500000 4.435188
793.500000 4.521727
793.500000 4.609101
793.500000 4.697311
793.500000 4.786358
793.500000 4.876241
793.500000 4.966959
793.500000 5.058514
793.500000 5.150905
793.500000 5.244133
793.500000 5.338196
793.500000 5.433095
793.500000 5.528831
793.500000 5.625402
793.500000 5.722810
793.500000 5.821054
793.500000 5.920134
793.500000 6.020050
793.500000 6.120802
793.500000 6.222391
793.500000 6.324815
793.500000 6.428076
793.500000 6.532172
793.500000 6.637105
793.500000 6.742874
793.500000 6.849479
793.500000 6.956920
793.500000 7.065198
793.500000 7.174311
793.500000 7.284261
793.500000 7.395046
793.500000 7.506668
793.500000 7.619126
793.500000 7.732420
793.500000 7.846550
793.500000 7.961516
793.500000 8.077319
793.500000 8.193957
793.500000 8.311432
793.500000 8.429742
793.500000 8.548889
793.500000 8.668872
793.500000 8.789691
793.500000 8.911346
793.500000 9.033838
793.500000 9.157165
793.500000 9.281329
793.500000 9.406328
793.500000 9.532164
793.500000 9.658836
793.500000 9.786344
793.500000 9.914688
793.500000 10.043868
793.500000 10.173885
793.500000 10.304737
793.500000 10.436426
793.500000 10.568950
793.500000 10.702311
793.500000 10.836508
793.500000 10.971541
793.500000 11.107411
793.500000 11.244116
793.500000 11.381657
793.500000 11.520035
793.500000 11.659248
793.500000 11.799298
793.500000 11.940184
793.500000 12.081906
793.500000 12.224464
793.500000 12.367859
793.500000 12.512089
793.500000 12.657155
793.500000 12.803058
793.500000 12.949797
793.500000 13.097372
793.500000 13.245782
793.500000 13.395030
793.500000 13.545113
793.500000 13.696032
793.500000 13.847787
793.500000 14.000379
793.500000 14.153807
793.500000 14.308070
793.500000 14.463170
793.500000 14.619106
793.500000 14.775879
793.500000 14.933487
793.500000 15.091931
793.500000 15.251212
793.500000 15.411328
793.500000 15.572281
793.500000 15.734070
793.500000 15.896695
793.500000 16.060156
793.500000 16.224453
793.500000 16.389586
793.500000 16.555556
793.500000 16.722361
793.500000 16.890003
793.500000 17.058481
793.500000 17.227795
793.500000 17.397945
793.500000 17.568931
793.500000 17.740753
793.500000 17.913412
793.500000 18.086906
793.500000 18.261237
793.500000 18.436403
793.500000 18.612406
793.500000 18.789245
793.500000 18.966920
793.500000 19.145432
793.500000 19.324779
793.500000 19.504962
793.500000 19.685982
793.500000 19.867838
793.500000 20.050529
793.500000 20.234057
793.500000 20.418421
793.500000 20.603622
793.500000 20.789658
793.500000 20.976530
793.500000 21.164239
793.500000 21.352783
793.500000 21.542164
793.500000 21.732381
793.500000 21.923434
793.500000 22.115323
793.500000 22.308048
793.500000 22.501610
793.500000 22.696007
793.500000 22.891241
793.500000 23.087310
793.500000 23.284216
793.500000 23.481958
793.500000 23.680536
793.500000 23.879950
793.500000 24.080200
793.500000 24.281287
793.500000 24.483209
793.500000 24.685968
793.500000 24.889563
793.500000 25.093994
793.500000 25.299261
793.500000 25.505364
793.500000 25.712303
793.500000 25.920078
793.500000 26.128690
793.500000 26.338137
793.500000 26.548421
793.500000 26.759541
793.500000 26.971497
793.500000 27.184289
793.500000 27.397917
793.500000 27.612381
793.500000 27.827682
793.500000 28.043818
793.500000 28.260791
793.500000 28.478600
793.500000 28.697244
793.500000 28.916725
793.500000 29.137043
793.500000 29.358196
793.500000 29.580185
793.500000 29.803011
793.500000 30.026672
793.500000 30.251170
793.500000 30.476504
793.500000 30.702674
793.500000 30.929680
793.500000 31.157522
793.500000 31.386200
793.500000 31.615715
793.500000 31.846065
793.500000 32.077252
793.500000 32.309275
793.500000 32.542133
793.500000 32.775828
793.500000 33.010360
793.500000 33.245727
793.500000 33.481930
793.500000 33.718970
793.500000 33.956845
793.500000 34.195557
793.500000 34.435105
793.500000 34.675489
793.500000 34.916709
793.500000 35.158765
793.500000 35.401657
793.500000 35.645386
793.500000 35.889950
793.500000 36.135351
793.500000 36.381588
793.500000 36.628660
793.500000 36.876569
793.500000 37.125315
793.500000 37.374896
793.500000 37.625313
793.500000 37.876567
793.500000 38.128656
793.500000 38.381582
793.500000 38.635344
793.500000 38.889942
793.500000 39.145376
793.500000 39.401646
793.500000 39.658752
793.500000 39.916695
793.500000 40.175473
793.500000 40.435088
793.500000 40.695539
793.500000 40.956826
793.500000 41.218949
793.500000 41.481908
793.500000 41.745703
793.500000 42.010334
793.500000 42.275802
793.500000 42.542106
793.500000 42.809245
793.500000 43.077221
793.500000 43.346033
793.500000 43.615681
793.500000 43.886165
793.500000 44.157486
793.500000 44.429642
793.500000 44.702635
793.500000 44.976463
793.500000 45.251128
793.500000 45.526629
793.500000 45.802966
793.500000 46.080139
793.500000 46.358148
793.500000 46.636994
793.500000 46.916675
793.500000 47.197193
793.500000 47.478547
793.500000 47.760736
793.500000 48.043762
793.500000 48.327625
793.500000 48.612323
793.500000 48.897857
793.500000 49.184227
793.500000 49.471434
793.500000 49.759477
793.500000 50.048355
793.500000 50.338070
793.500000 50.628621
793.500000 50.920009
793.500000 51.212232
793.500000 51.505291
793.500000 51.799187
793.500000 52.093918
793.500000 52.389486
793.500000 52.685890
793.500000 52.983130
793.500000 53.281206
793.500000 53.580118
793.500000 53.879867
793.500000 54.180451
793.500000 54.481872
793.500000 54.784128
793.500000 55.087221
793.500000 55.391150
793.500000 55.695915
793.500000 56.001516
793.500000 56.307953
793.500000 56.615227
793.500000 56.923336
793.500000 57.232282
793.500000 57.542064
793.500000 57.852682
793.500000 58.164136
793.500000 58.476426
793.500000 58.789552
793.500000 59.103514
793.500000 59.418313
793.500000 59.733947
793.500000 60.050418
793.500000 60.367725
793.500000 60.685868
793.500000 61.004847
793.500000 61.324662
793.500000 61.645313
793.500000 61.966801
793.500000 62.289124
793.500000 62.612284
793.500000 62.936279
793.500000 63.261111
793.500000 63.586779
793.500000 63.913283
793.500000 64.240624
793.500000 64.568800
793.500000 64.897812
793.500000 65.227661
793.500000 65.558346
793.500000 65.889867
793.500000 66.222223
793.500000 66.555417
793.500000 66.889446
793.500000 67.224311
793.500000 67.560012
793.500000 67.896550
793.500000 68.233924
793.500000 68.572133
793.500000 68.911179
793.500000 69.251061
793.500000 69.591779
793.500000 69.933334
793.500000 70.275724
793.500000 70.618950
793.500000 70.963013
793.500000 71.307912
793.500000 71.653646
793.500000 72.000217
793.500000 72.347624
793.500000 72.695868
793.500000 73.044947
793.500000 73.394862
793.500000 73.745614
793.500000 74.097202
793.500000 74.449625
793.500000 74.802885
793.500000 75.156981
793.500000 75.511913
793.500000 75.867682
793.500000 76.224286
793.500000 76.581726
793.500000 76.940003
793.500000 77.299116
793.500000 77.659064
793.500000 78.019849
793.500000 78.381471
793.500000 78.743928
793.500000 79.107221
793.500000 79.471350
793.500000 79.836316
793.500000 80.202118
793.500000 80.568755
793.500000 80.936229
793.500000 81.304539
793.500000 81.673685
793.500000 82.043668
793.500000 82.414486
793.500000 82.786141
793.500000 83.158631
793.500000 83.531958
793.500000 83.906121
793.500000 84.281120
793.500000 84.656955
793.500000 85.033626
793.500000 85.411133
793.500000 85.789477
793.500000 86.168656
793.500000 86.548672
793.500000 86.929524
793.500000 87.311212
793.500000 87.693736
793.500000 88.077096
793.500000 88.461292
793.500000 88.846324
793.500000 89.232193
793.500000 89.618897
793.500000 90.006438
793.500000 90.394815
793.500000 90.784028
793.500000 91.174077
793.500000 91.564962
793.500000 91.956684
793.500000 92.349241
793.500000 92.742634
793.500000 93.136864
793.500000 93.531930
793.500000 93.927832
793.500000 94.324570
793.500000 94.722144
793.500000 95.120554
793.500000 95.519801
793.500000 95.919883
793.500000 96.320802
793.500000 96.722557
793.500000 97.125147
793.500000 97.528574
793.500000 97.932837
793.500000 98.337937
793.500000 98.743872
793.500000 99.150643
793.500000 99.558251
793.500000 99.966695
793.500000 100.375974
793.500000 100.786090
793.500000 101.197042
793.500000 101.608831
793.500000 102.021455
793.500000 102.434915
793.500000 102.849212
793.500000 103.264344
793.500000 103.680313
793.500000 104.097118
793.500000 104.514759
793.500000 104.933236
793.500000 105.352549
793.500000 105.772699
793.500000 106.193684
793.500000 106.615506
793.500000 107.038163
793.500000 107.461657
793.500000 107.885987
793.500000 108.311153
793.500000 108.737155
793.500000 109.163993
793.500000 109.591668
793.500000 110.020178
793.500000 110.449525
793.500000 110.879708
793.500000 111.310727
793.500000 111.742582
793.500000 112.175273
793.500000 112.608800
793.500000 113.043163
793.500000 113.478363
793.500000 113.914398
793.500000 114.351270
793.500000 114.788978
793.500000 115.227522
793.500000 115.666902
793.500000 116.107118
793.500000 116.548170
793.500000 116.990059
793.500000 117.432783
793.500000 117.876344
793.500000 118.320740
793.500000 118.765973
793.500000 119.212042
793.500000 119.658947
793.500000 120.106689
793.500000 120.555266
793.500000 121.004679
793.500000 121.454929
793.500000 121.906015
793.500000 122.357937
793.500000 122.810695
793.500000 123.264289
793.500000 123.718719
793.500000 124.173985
793.500000 124.630087
793.500000 125.087026
793.500000 125.544801
793.500000 126.003411
793.500000 126.462858
793.500000 126.923141
793.500000 127.384260
793.500000 127.846216
793.500000 128.309007
793.500000 128.772634
793.500000 129.237098
793.500000 129.702398
793.500000 130.168534
793.500000 130.635505
793.500000 131.103314
793.500000 131.571958
793.500000 132.041438
793.500000 132.511754
793.500000 132.982907
793.500000 133.454896
793.500000 133.927720
793.500000 134.401381
793.500000 134.875878
793.500000 135.351211
793.500000 135.827381
793.500000 136.304386
793.500000 136.782227
793.500000 137.260905
793.500000 137.740419
793.500000 138.220769
793.500000 138.701955
793.500000 139.183977
793.500000 139.666835
793.500000 140.150529
793.500000 140.635060
793.500000 141.120426
793.500000 141.606629
793.500000 142.093668
793.500000 142.581542
793.500000 143.070253
793.500000 143.559801
793.500000 144.050184
793.500000 144.541403
793.500000 145.033459
793.500000 145.526350
793.500000 146.020078
793.500000 146.514642
793.500000 147.010042
793.500000 147.506278
793.500000 148.003350
793.500000 148.501258
793.500000 149.000003
793.500000 149.499583
793.500000 150.000000
</POINTS>
</NEKTAR>

