<?xml version="1.0" encoding="utf-8" ?>
<NEKTAR>
<POINTS DIM="2" FIELDS="">
32.500000 0.000000
32.500000 0.000418
32.500000 0.001672
32.500000 0.003763
32.500000 0.006689
32.500000 0.010451
32.500000 0.015050
32.500000 0.020485
32.500000 0.026756
32.500000 0.033863
32.500000 0.041806
32.500000 0.050585
32.500000 0.060201
32.500000 0.070652
32.500000 0.081940
32.500000 0.094063
32.500000 0.107023
32.500000 0.120819
32.500000 0.135451
32.500000 0.150919
32.500000 0.167224
32.500000 0.184364
32.500000 0.202341
32.500000 0.221153
32.500000 0.240802
32.500000 0.261287
32.500000 0.282608
32.500000 0.304765
32.500000 0.327758
32.500000 0.351588
32.500000 0.376253
32.500000 0.401755
32.500000 0.428092
32.500000 0.455266
32.500000 0.483276
32.500000 0.512122
32.500000 0.541805
32.500000 0.572323
32.500000 0.603677
32.500000 0.635868
32.500000 0.668894
32.500000 0.702757
32.500000 0.737456
32.500000 0.772991
32.500000 0.809362
32.500000 0.846570
32.500000 0.884613
32.500000 0.923492
32.500000 0.963208
32.500000 1.003760
32.500000 1.045148
32.500000 1.087372
32.500000 1.130432
32.500000 1.174328
32.500000 1.219060
32.500000 1.264629
32.500000 1.311033
32.500000 1.358274
32.500000 1.406351
32.500000 1.455264
32.500000 1.505013
32.500000 1.555598
32.500000 1.607019
32.500000 1.659276
32.500000 1.712370
32.500000 1.766299
32.500000 1.821065
32.500000 1.876667
32.500000 1.933105
32.500000 1.990379
32.500000 2.048489
32.500000 2.107436
32.500000 2.167218
32.500000 2.227837
32.500000 2.289291
32.500000 2.351582
32.500000 2.414709
32.500000 2.478672
32.500000 2.543471
32.500000 2.609106
32.500000 2.675578
32.500000 2.742885
32.500000 2.811029
32.500000 2.880009
32.500000 2.949825
32.500000 3.020477
32.500000 3.091965
32.500000 3.164289
32.500000 3.237449
32.500000 3.311446
32.500000 3.386278
32.500000 3.461947
32.500000 3.538452
32.500000 3.615793
32.500000 3.693970
32.500000 3.772983
32.500000 3.852832
32.500000 3.933517
32.500000 4.015039
32.500000 4.097397
32.500000 4.180590
32.500000 4.264620
32.500000 4.349486
32.500000 4.435188
32.500000 4.521727
32.500000 4.609101
32.500000 4.697311
32.500000 4.786358
32.500000 4.876241
32.500000 4.966959
32.500000 5.058514
32.500000 5.150905
32.500000 5.244133
32.500000 5.338196
32.500000 5.433095
32.500000 5.528831
32.500000 5.625402
32.500000 5.722810
32.500000 5.821054
32.500000 5.920134
32.500000 6.020050
32.500000 6.120802
32.500000 6.222391
32.500000 6.324815
32.500000 6.428076
32.500000 6.532172
32.500000 6.637105
32.500000 6.742874
32.500000 6.849479
32.500000 6.956920
32.500000 7.065198
32.500000 7.174311
32.500000 7.284261
32.500000 7.395046
32.500000 7.506668
32.500000 7.619126
32.500000 7.732420
32.500000 7.846550
32.500000 7.961516
32.500000 8.077319
32.500000 8.193957
32.500000 8.311432
32.500000 8.429742
32.500000 8.548889
32.500000 8.668872
32.500000 8.789691
32.500000 8.911346
32.500000 9.033838
32.500000 9.157165
32.500000 9.281329
32.500000 9.406328
32.500000 9.532164
32.500000 9.658836
32.500000 9.786344
32.500000 9.914688
32.500000 10.043868
32.500000 10.173885
32.500000 10.304737
32.500000 10.436426
32.500000 10.568950
32.500000 10.702311
32.500000 10.836508
32.500000 10.971541
32.500000 11.107411
32.500000 11.244116
32.500000 11.381657
32.500000 11.520035
32.500000 11.659248
32.500000 11.799298
32.500000 11.940184
32.500000 12.081906
32.500000 12.224464
32.500000 12.367859
32.500000 12.512089
32.500000 12.657155
32.500000 12.803058
32.500000 12.949797
32.500000 13.097372
32.500000 13.245782
32.500000 13.395030
32.500000 13.545113
32.500000 13.696032
32.500000 13.847787
32.500000 14.000379
32.500000 14.153807
32.500000 14.308070
32.500000 14.463170
32.500000 14.619106
32.500000 14.775879
32.500000 14.933487
32.500000 15.091931
32.500000 15.251212
32.500000 15.411328
32.500000 15.572281
32.500000 15.734070
32.500000 15.896695
32.500000 16.060156
32.500000 16.224453
32.500000 16.389586
32.500000 16.555556
32.500000 16.722361
32.500000 16.890003
32.500000 17.058481
32.500000 17.227795
32.500000 17.397945
32.500000 17.568931
32.500000 17.740753
32.500000 17.913412
32.500000 18.086906
32.500000 18.261237
32.500000 18.436403
32.500000 18.612406
32.500000 18.789245
32.500000 18.966920
32.500000 19.145432
32.500000 19.324779
32.500000 19.504962
32.500000 19.685982
32.500000 19.867838
32.500000 20.050529
32.500000 20.234057
32.500000 20.418421
32.500000 20.603622
32.500000 20.789658
32.500000 20.976530
32.500000 21.164239
32.500000 21.352783
32.500000 21.542164
32.500000 21.732381
32.500000 21.923434
32.500000 22.115323
32.500000 22.308048
32.500000 22.501610
32.500000 22.696007
32.500000 22.891241
32.500000 23.087310
32.500000 23.284216
32.500000 23.481958
32.500000 23.680536
32.500000 23.879950
32.500000 24.080200
32.500000 24.281287
32.500000 24.483209
32.500000 24.685968
32.500000 24.889563
32.500000 25.093994
32.500000 25.299261
32.500000 25.505364
32.500000 25.712303
32.500000 25.920078
32.500000 26.128690
32.500000 26.338137
32.500000 26.548421
32.500000 26.759541
32.500000 26.971497
32.500000 27.184289
32.500000 27.397917
32.500000 27.612381
32.500000 27.827682
32.500000 28.043818
32.500000 28.260791
32.500000 28.478600
32.500000 28.697244
32.500000 28.916725
32.500000 29.137043
32.500000 29.358196
32.500000 29.580185
32.500000 29.803011
32.500000 30.026672
32.500000 30.251170
32.500000 30.476504
32.500000 30.702674
32.500000 30.929680
32.500000 31.157522
32.500000 31.386200
32.500000 31.615715
32.500000 31.846065
32.500000 32.077252
32.500000 32.309275
32.500000 32.542133
32.500000 32.775828
32.500000 33.010360
32.500000 33.245727
32.500000 33.481930
32.500000 33.718970
32.500000 33.956845
32.500000 34.195557
32.500000 34.435105
32.500000 34.675489
32.500000 34.916709
32.500000 35.158765
32.500000 35.401657
32.500000 35.645386
32.500000 35.889950
32.500000 36.135351
32.500000 36.381588
32.500000 36.628660
32.500000 36.876569
32.500000 37.125315
32.500000 37.374896
32.500000 37.625313
32.500000 37.876567
32.500000 38.128656
32.500000 38.381582
32.500000 38.635344
32.500000 38.889942
32.500000 39.145376
32.500000 39.401646
32.500000 39.658752
32.500000 39.916695
32.500000 40.175473
32.500000 40.435088
32.500000 40.695539
32.500000 40.956826
32.500000 41.218949
32.500000 41.481908
32.500000 41.745703
32.500000 42.010334
32.500000 42.275802
32.500000 42.542106
32.500000 42.809245
32.500000 43.077221
32.500000 43.346033
32.500000 43.615681
32.500000 43.886165
32.500000 44.157486
32.500000 44.429642
32.500000 44.702635
32.500000 44.976463
32.500000 45.251128
32.500000 45.526629
32.500000 45.802966
32.500000 46.080139
32.500000 46.358148
32.500000 46.636994
32.500000 46.916675
32.500000 47.197193
32.500000 47.478547
32.500000 47.760736
32.500000 48.043762
32.500000 48.327625
32.500000 48.612323
32.500000 48.897857
32.500000 49.184227
32.500000 49.471434
32.500000 49.759477
32.500000 50.048355
32.500000 50.338070
32.500000 50.628621
32.500000 50.920009
32.500000 51.212232
32.500000 51.505291
32.500000 51.799187
32.500000 52.093918
32.500000 52.389486
32.500000 52.685890
32.500000 52.983130
32.500000 53.281206
32.500000 53.580118
32.500000 53.879867
32.500000 54.180451
32.500000 54.481872
32.500000 54.784128
32.500000 55.087221
32.500000 55.391150
32.500000 55.695915
32.500000 56.001516
32.500000 56.307953
32.500000 56.615227
32.500000 56.923336
32.500000 57.232282
32.500000 57.542064
32.500000 57.852682
32.500000 58.164136
32.500000 58.476426
32.500000 58.789552
32.500000 59.103514
32.500000 59.418313
32.500000 59.733947
32.500000 60.050418
32.500000 60.367725
32.500000 60.685868
32.500000 61.004847
32.500000 61.324662
32.500000 61.645313
32.500000 61.966801
32.500000 62.289124
32.500000 62.612284
32.500000 62.936279
32.500000 63.261111
32.500000 63.586779
32.500000 63.913283
32.500000 64.240624
32.500000 64.568800
32.500000 64.897812
32.500000 65.227661
32.500000 65.558346
32.500000 65.889867
32.500000 66.222223
32.500000 66.555417
32.500000 66.889446
32.500000 67.224311
32.500000 67.560012
32.500000 67.896550
32.500000 68.233924
32.500000 68.572133
32.500000 68.911179
32.500000 69.251061
32.500000 69.591779
32.500000 69.933334
32.500000 70.275724
32.500000 70.618950
32.500000 70.963013
32.500000 71.307912
32.500000 71.653646
32.500000 72.000217
32.500000 72.347624
32.500000 72.695868
32.500000 73.044947
32.500000 73.394862
32.500000 73.745614
32.500000 74.097202
32.500000 74.449625
32.500000 74.802885
32.500000 75.156981
32.500000 75.511913
32.500000 75.867682
32.500000 76.224286
32.500000 76.581726
32.500000 76.940003
32.500000 77.299116
32.500000 77.659064
32.500000 78.019849
32.500000 78.381471
32.500000 78.743928
32.500000 79.107221
32.500000 79.471350
32.500000 79.836316
32.500000 80.202118
32.500000 80.568755
32.500000 80.936229
32.500000 81.304539
32.500000 81.673685
32.500000 82.043668
32.500000 82.414486
32.500000 82.786141
32.500000 83.158631
32.500000 83.531958
32.500000 83.906121
32.500000 84.281120
32.500000 84.656955
32.500000 85.033626
32.500000 85.411133
32.500000 85.789477
32.500000 86.168656
32.500000 86.548672
32.500000 86.929524
32.500000 87.311212
32.500000 87.693736
32.500000 88.077096
32.500000 88.461292
32.500000 88.846324
32.500000 89.232193
32.500000 89.618897
32.500000 90.006438
32.500000 90.394815
32.500000 90.784028
32.500000 91.174077
32.500000 91.564962
32.500000 91.956684
32.500000 92.349241
32.500000 92.742634
32.500000 93.136864
32.500000 93.531930
32.500000 93.927832
32.500000 94.324570
32.500000 94.722144
32.500000 95.120554
32.500000 95.519801
32.500000 95.919883
32.500000 96.320802
32.500000 96.722557
32.500000 97.125147
32.500000 97.528574
32.500000 97.932837
32.500000 98.337937
32.500000 98.743872
32.500000 99.150643
32.500000 99.558251
32.500000 99.966695
32.500000 100.375974
32.500000 100.786090
32.500000 101.197042
32.500000 101.608831
32.500000 102.021455
32.500000 102.434915
32.500000 102.849212
32.500000 103.264344
32.500000 103.680313
32.500000 104.097118
32.500000 104.514759
32.500000 104.933236
32.500000 105.352549
32.500000 105.772699
32.500000 106.193684
32.500000 106.615506
32.500000 107.038163
32.500000 107.461657
32.500000 107.885987
32.500000 108.311153
32.500000 108.737155
32.500000 109.163993
32.500000 109.591668
32.500000 110.020178
32.500000 110.449525
32.500000 110.879708
32.500000 111.310727
32.500000 111.742582
32.500000 112.175273
32.500000 112.608800
32.500000 113.043163
32.500000 113.478363
32.500000 113.914398
32.500000 114.351270
32.500000 114.788978
32.500000 115.227522
32.500000 115.666902
32.500000 116.107118
32.500000 116.548170
32.500000 116.990059
32.500000 117.432783
32.500000 117.876344
32.500000 118.320740
32.500000 118.765973
32.500000 119.212042
32.500000 119.658947
32.500000 120.106689
32.500000 120.555266
32.500000 121.004679
32.500000 121.454929
32.500000 121.906015
32.500000 122.357937
32.500000 122.810695
32.500000 123.264289
32.500000 123.718719
32.500000 124.173985
32.500000 124.630087
32.500000 125.087026
32.500000 125.544801
32.500000 126.003411
32.500000 126.462858
32.500000 126.923141
32.500000 127.384260
32.500000 127.846216
32.500000 128.309007
32.500000 128.772634
32.500000 129.237098
32.500000 129.702398
32.500000 130.168534
32.500000 130.635505
32.500000 131.103314
32.500000 131.571958
32.500000 132.041438
32.500000 132.511754
32.500000 132.982907
32.500000 133.454896
32.500000 133.927720
32.500000 134.401381
32.500000 134.875878
32.500000 135.351211
32.500000 135.827381
32.500000 136.304386
32.500000 136.782227
32.500000 137.260905
32.500000 137.740419
32.500000 138.220769
32.500000 138.701955
32.500000 139.183977
32.500000 139.666835
32.500000 140.150529
32.500000 140.635060
32.500000 141.120426
32.500000 141.606629
32.500000 142.093668
32.500000 142.581542
32.500000 143.070253
32.500000 143.559801
32.500000 144.050184
32.500000 144.541403
32.500000 145.033459
32.500000 145.526350
32.500000 146.020078
32.500000 146.514642
32.500000 147.010042
32.500000 147.506278
32.500000 148.003350
32.500000 148.501258
32.500000 149.000003
32.500000 149.499583
32.500000 150.000000
</POINTS>
</NEKTAR>

