<?xml version="1.0" encoding="utf-8" ?>
<NEKTAR>
<POINTS DIM="2" FIELDS="">
48.500000 0.000000
48.500000 0.000418
48.500000 0.001672
48.500000 0.003763
48.500000 0.006689
48.500000 0.010451
48.500000 0.015050
48.500000 0.020485
48.500000 0.026756
48.500000 0.033863
48.500000 0.041806
48.500000 0.050585
48.500000 0.060201
48.500000 0.070652
48.500000 0.081940
48.500000 0.094063
48.500000 0.107023
48.500000 0.120819
48.500000 0.135451
48.500000 0.150919
48.500000 0.167224
48.500000 0.184364
48.500000 0.202341
48.500000 0.221153
48.500000 0.240802
48.500000 0.261287
48.500000 0.282608
48.500000 0.304765
48.500000 0.327758
48.500000 0.351588
48.500000 0.376253
48.500000 0.401755
48.500000 0.428092
48.500000 0.455266
48.500000 0.483276
48.500000 0.512122
48.500000 0.541805
48.500000 0.572323
48.500000 0.603677
48.500000 0.635868
48.500000 0.668894
48.500000 0.702757
48.500000 0.737456
48.500000 0.772991
48.500000 0.809362
48.500000 0.846570
48.500000 0.884613
48.500000 0.923492
48.500000 0.963208
48.500000 1.003760
48.500000 1.045148
48.500000 1.087372
48.500000 1.130432
48.500000 1.174328
48.500000 1.219060
48.500000 1.264629
48.500000 1.311033
48.500000 1.358274
48.500000 1.406351
48.500000 1.455264
48.500000 1.505013
48.500000 1.555598
48.500000 1.607019
48.500000 1.659276
48.500000 1.712370
48.500000 1.766299
48.500000 1.821065
48.500000 1.876667
48.500000 1.933105
48.500000 1.990379
48.500000 2.048489
48.500000 2.107436
48.500000 2.167218
48.500000 2.227837
48.500000 2.289291
48.500000 2.351582
48.500000 2.414709
48.500000 2.478672
48.500000 2.543471
48.500000 2.609106
48.500000 2.675578
48.500000 2.742885
48.500000 2.811029
48.500000 2.880009
48.500000 2.949825
48.500000 3.020477
48.500000 3.091965
48.500000 3.164289
48.500000 3.237449
48.500000 3.311446
48.500000 3.386278
48.500000 3.461947
48.500000 3.538452
48.500000 3.615793
48.500000 3.693970
48.500000 3.772983
48.500000 3.852832
48.500000 3.933517
48.500000 4.015039
48.500000 4.097397
48.500000 4.180590
48.500000 4.264620
48.500000 4.349486
48.500000 4.435188
48.500000 4.521727
48.500000 4.609101
48.500000 4.697311
48.500000 4.786358
48.500000 4.876241
48.500000 4.966959
48.500000 5.058514
48.500000 5.150905
48.500000 5.244133
48.500000 5.338196
48.500000 5.433095
48.500000 5.528831
48.500000 5.625402
48.500000 5.722810
48.500000 5.821054
48.500000 5.920134
48.500000 6.020050
48.500000 6.120802
48.500000 6.222391
48.500000 6.324815
48.500000 6.428076
48.500000 6.532172
48.500000 6.637105
48.500000 6.742874
48.500000 6.849479
48.500000 6.956920
48.500000 7.065198
48.500000 7.174311
48.500000 7.284261
48.500000 7.395046
48.500000 7.506668
48.500000 7.619126
48.500000 7.732420
48.500000 7.846550
48.500000 7.961516
48.500000 8.077319
48.500000 8.193957
48.500000 8.311432
48.500000 8.429742
48.500000 8.548889
48.500000 8.668872
48.500000 8.789691
48.500000 8.911346
48.500000 9.033838
48.500000 9.157165
48.500000 9.281329
48.500000 9.406328
48.500000 9.532164
48.500000 9.658836
48.500000 9.786344
48.500000 9.914688
48.500000 10.043868
48.500000 10.173885
48.500000 10.304737
48.500000 10.436426
48.500000 10.568950
48.500000 10.702311
48.500000 10.836508
48.500000 10.971541
48.500000 11.107411
48.500000 11.244116
48.500000 11.381657
48.500000 11.520035
48.500000 11.659248
48.500000 11.799298
48.500000 11.940184
48.500000 12.081906
48.500000 12.224464
48.500000 12.367859
48.500000 12.512089
48.500000 12.657155
48.500000 12.803058
48.500000 12.949797
48.500000 13.097372
48.500000 13.245782
48.500000 13.395030
48.500000 13.545113
48.500000 13.696032
48.500000 13.847787
48.500000 14.000379
48.500000 14.153807
48.500000 14.308070
48.500000 14.463170
48.500000 14.619106
48.500000 14.775879
48.500000 14.933487
48.500000 15.091931
48.500000 15.251212
48.500000 15.411328
48.500000 15.572281
48.500000 15.734070
48.500000 15.896695
48.500000 16.060156
48.500000 16.224453
48.500000 16.389586
48.500000 16.555556
48.500000 16.722361
48.500000 16.890003
48.500000 17.058481
48.500000 17.227795
48.500000 17.397945
48.500000 17.568931
48.500000 17.740753
48.500000 17.913412
48.500000 18.086906
48.500000 18.261237
48.500000 18.436403
48.500000 18.612406
48.500000 18.789245
48.500000 18.966920
48.500000 19.145432
48.500000 19.324779
48.500000 19.504962
48.500000 19.685982
48.500000 19.867838
48.500000 20.050529
48.500000 20.234057
48.500000 20.418421
48.500000 20.603622
48.500000 20.789658
48.500000 20.976530
48.500000 21.164239
48.500000 21.352783
48.500000 21.542164
48.500000 21.732381
48.500000 21.923434
48.500000 22.115323
48.500000 22.308048
48.500000 22.501610
48.500000 22.696007
48.500000 22.891241
48.500000 23.087310
48.500000 23.284216
48.500000 23.481958
48.500000 23.680536
48.500000 23.879950
48.500000 24.080200
48.500000 24.281287
48.500000 24.483209
48.500000 24.685968
48.500000 24.889563
48.500000 25.093994
48.500000 25.299261
48.500000 25.505364
48.500000 25.712303
48.500000 25.920078
48.500000 26.128690
48.500000 26.338137
48.500000 26.548421
48.500000 26.759541
48.500000 26.971497
48.500000 27.184289
48.500000 27.397917
48.500000 27.612381
48.500000 27.827682
48.500000 28.043818
48.500000 28.260791
48.500000 28.478600
48.500000 28.697244
48.500000 28.916725
48.500000 29.137043
48.500000 29.358196
48.500000 29.580185
48.500000 29.803011
48.500000 30.026672
48.500000 30.251170
48.500000 30.476504
48.500000 30.702674
48.500000 30.929680
48.500000 31.157522
48.500000 31.386200
48.500000 31.615715
48.500000 31.846065
48.500000 32.077252
48.500000 32.309275
48.500000 32.542133
48.500000 32.775828
48.500000 33.010360
48.500000 33.245727
48.500000 33.481930
48.500000 33.718970
48.500000 33.956845
48.500000 34.195557
48.500000 34.435105
48.500000 34.675489
48.500000 34.916709
48.500000 35.158765
48.500000 35.401657
48.500000 35.645386
48.500000 35.889950
48.500000 36.135351
48.500000 36.381588
48.500000 36.628660
48.500000 36.876569
48.500000 37.125315
48.500000 37.374896
48.500000 37.625313
48.500000 37.876567
48.500000 38.128656
48.500000 38.381582
48.500000 38.635344
48.500000 38.889942
48.500000 39.145376
48.500000 39.401646
48.500000 39.658752
48.500000 39.916695
48.500000 40.175473
48.500000 40.435088
48.500000 40.695539
48.500000 40.956826
48.500000 41.218949
48.500000 41.481908
48.500000 41.745703
48.500000 42.010334
48.500000 42.275802
48.500000 42.542106
48.500000 42.809245
48.500000 43.077221
48.500000 43.346033
48.500000 43.615681
48.500000 43.886165
48.500000 44.157486
48.500000 44.429642
48.500000 44.702635
48.500000 44.976463
48.500000 45.251128
48.500000 45.526629
48.500000 45.802966
48.500000 46.080139
48.500000 46.358148
48.500000 46.636994
48.500000 46.916675
48.500000 47.197193
48.500000 47.478547
48.500000 47.760736
48.500000 48.043762
48.500000 48.327625
48.500000 48.612323
48.500000 48.897857
48.500000 49.184227
48.500000 49.471434
48.500000 49.759477
48.500000 50.048355
48.500000 50.338070
48.500000 50.628621
48.500000 50.920009
48.500000 51.212232
48.500000 51.505291
48.500000 51.799187
48.500000 52.093918
48.500000 52.389486
48.500000 52.685890
48.500000 52.983130
48.500000 53.281206
48.500000 53.580118
48.500000 53.879867
48.500000 54.180451
48.500000 54.481872
48.500000 54.784128
48.500000 55.087221
48.500000 55.391150
48.500000 55.695915
48.500000 56.001516
48.500000 56.307953
48.500000 56.615227
48.500000 56.923336
48.500000 57.232282
48.500000 57.542064
48.500000 57.852682
48.500000 58.164136
48.500000 58.476426
48.500000 58.789552
48.500000 59.103514
48.500000 59.418313
48.500000 59.733947
48.500000 60.050418
48.500000 60.367725
48.500000 60.685868
48.500000 61.004847
48.500000 61.324662
48.500000 61.645313
48.500000 61.966801
48.500000 62.289124
48.500000 62.612284
48.500000 62.936279
48.500000 63.261111
48.500000 63.586779
48.500000 63.913283
48.500000 64.240624
48.500000 64.568800
48.500000 64.897812
48.500000 65.227661
48.500000 65.558346
48.500000 65.889867
48.500000 66.222223
48.500000 66.555417
48.500000 66.889446
48.500000 67.224311
48.500000 67.560012
48.500000 67.896550
48.500000 68.233924
48.500000 68.572133
48.500000 68.911179
48.500000 69.251061
48.500000 69.591779
48.500000 69.933334
48.500000 70.275724
48.500000 70.618950
48.500000 70.963013
48.500000 71.307912
48.500000 71.653646
48.500000 72.000217
48.500000 72.347624
48.500000 72.695868
48.500000 73.044947
48.500000 73.394862
48.500000 73.745614
48.500000 74.097202
48.500000 74.449625
48.500000 74.802885
48.500000 75.156981
48.500000 75.511913
48.500000 75.867682
48.500000 76.224286
48.500000 76.581726
48.500000 76.940003
48.500000 77.299116
48.500000 77.659064
48.500000 78.019849
48.500000 78.381471
48.500000 78.743928
48.500000 79.107221
48.500000 79.471350
48.500000 79.836316
48.500000 80.202118
48.500000 80.568755
48.500000 80.936229
48.500000 81.304539
48.500000 81.673685
48.500000 82.043668
48.500000 82.414486
48.500000 82.786141
48.500000 83.158631
48.500000 83.531958
48.500000 83.906121
48.500000 84.281120
48.500000 84.656955
48.500000 85.033626
48.500000 85.411133
48.500000 85.789477
48.500000 86.168656
48.500000 86.548672
48.500000 86.929524
48.500000 87.311212
48.500000 87.693736
48.500000 88.077096
48.500000 88.461292
48.500000 88.846324
48.500000 89.232193
48.500000 89.618897
48.500000 90.006438
48.500000 90.394815
48.500000 90.784028
48.500000 91.174077
48.500000 91.564962
48.500000 91.956684
48.500000 92.349241
48.500000 92.742634
48.500000 93.136864
48.500000 93.531930
48.500000 93.927832
48.500000 94.324570
48.500000 94.722144
48.500000 95.120554
48.500000 95.519801
48.500000 95.919883
48.500000 96.320802
48.500000 96.722557
48.500000 97.125147
48.500000 97.528574
48.500000 97.932837
48.500000 98.337937
48.500000 98.743872
48.500000 99.150643
48.500000 99.558251
48.500000 99.966695
48.500000 100.375974
48.500000 100.786090
48.500000 101.197042
48.500000 101.608831
48.500000 102.021455
48.500000 102.434915
48.500000 102.849212
48.500000 103.264344
48.500000 103.680313
48.500000 104.097118
48.500000 104.514759
48.500000 104.933236
48.500000 105.352549
48.500000 105.772699
48.500000 106.193684
48.500000 106.615506
48.500000 107.038163
48.500000 107.461657
48.500000 107.885987
48.500000 108.311153
48.500000 108.737155
48.500000 109.163993
48.500000 109.591668
48.500000 110.020178
48.500000 110.449525
48.500000 110.879708
48.500000 111.310727
48.500000 111.742582
48.500000 112.175273
48.500000 112.608800
48.500000 113.043163
48.500000 113.478363
48.500000 113.914398
48.500000 114.351270
48.500000 114.788978
48.500000 115.227522
48.500000 115.666902
48.500000 116.107118
48.500000 116.548170
48.500000 116.990059
48.500000 117.432783
48.500000 117.876344
48.500000 118.320740
48.500000 118.765973
48.500000 119.212042
48.500000 119.658947
48.500000 120.106689
48.500000 120.555266
48.500000 121.004679
48.500000 121.454929
48.500000 121.906015
48.500000 122.357937
48.500000 122.810695
48.500000 123.264289
48.500000 123.718719
48.500000 124.173985
48.500000 124.630087
48.500000 125.087026
48.500000 125.544801
48.500000 126.003411
48.500000 126.462858
48.500000 126.923141
48.500000 127.384260
48.500000 127.846216
48.500000 128.309007
48.500000 128.772634
48.500000 129.237098
48.500000 129.702398
48.500000 130.168534
48.500000 130.635505
48.500000 131.103314
48.500000 131.571958
48.500000 132.041438
48.500000 132.511754
48.500000 132.982907
48.500000 133.454896
48.500000 133.927720
48.500000 134.401381
48.500000 134.875878
48.500000 135.351211
48.500000 135.827381
48.500000 136.304386
48.500000 136.782227
48.500000 137.260905
48.500000 137.740419
48.500000 138.220769
48.500000 138.701955
48.500000 139.183977
48.500000 139.666835
48.500000 140.150529
48.500000 140.635060
48.500000 141.120426
48.500000 141.606629
48.500000 142.093668
48.500000 142.581542
48.500000 143.070253
48.500000 143.559801
48.500000 144.050184
48.500000 144.541403
48.500000 145.033459
48.500000 145.526350
48.500000 146.020078
48.500000 146.514642
48.500000 147.010042
48.500000 147.506278
48.500000 148.003350
48.500000 148.501258
48.500000 149.000003
48.500000 149.499583
48.500000 150.000000
</POINTS>
</NEKTAR>

