<?xml version="1.0" encoding="utf-8" ?>
<NEKTAR>
<POINTS DIM="2" FIELDS="">
16.500000 0.000000
16.500000 0.000418
16.500000 0.001672
16.500000 0.003763
16.500000 0.006689
16.500000 0.010451
16.500000 0.015050
16.500000 0.020485
16.500000 0.026756
16.500000 0.033863
16.500000 0.041806
16.500000 0.050585
16.500000 0.060201
16.500000 0.070652
16.500000 0.081940
16.500000 0.094063
16.500000 0.107023
16.500000 0.120819
16.500000 0.135451
16.500000 0.150919
16.500000 0.167224
16.500000 0.184364
16.500000 0.202341
16.500000 0.221153
16.500000 0.240802
16.500000 0.261287
16.500000 0.282608
16.500000 0.304765
16.500000 0.327758
16.500000 0.351588
16.500000 0.376253
16.500000 0.401755
16.500000 0.428092
16.500000 0.455266
16.500000 0.483276
16.500000 0.512122
16.500000 0.541805
16.500000 0.572323
16.500000 0.603677
16.500000 0.635868
16.500000 0.668894
16.500000 0.702757
16.500000 0.737456
16.500000 0.772991
16.500000 0.809362
16.500000 0.846570
16.500000 0.884613
16.500000 0.923492
16.500000 0.963208
16.500000 1.003760
16.500000 1.045148
16.500000 1.087372
16.500000 1.130432
16.500000 1.174328
16.500000 1.219060
16.500000 1.264629
16.500000 1.311033
16.500000 1.358274
16.500000 1.406351
16.500000 1.455264
16.500000 1.505013
16.500000 1.555598
16.500000 1.607019
16.500000 1.659276
16.500000 1.712370
16.500000 1.766299
16.500000 1.821065
16.500000 1.876667
16.500000 1.933105
16.500000 1.990379
16.500000 2.048489
16.500000 2.107436
16.500000 2.167218
16.500000 2.227837
16.500000 2.289291
16.500000 2.351582
16.500000 2.414709
16.500000 2.478672
16.500000 2.543471
16.500000 2.609106
16.500000 2.675578
16.500000 2.742885
16.500000 2.811029
16.500000 2.880009
16.500000 2.949825
16.500000 3.020477
16.500000 3.091965
16.500000 3.164289
16.500000 3.237449
16.500000 3.311446
16.500000 3.386278
16.500000 3.461947
16.500000 3.538452
16.500000 3.615793
16.500000 3.693970
16.500000 3.772983
16.500000 3.852832
16.500000 3.933517
16.500000 4.015039
16.500000 4.097397
16.500000 4.180590
16.500000 4.264620
16.500000 4.349486
16.500000 4.435188
16.500000 4.521727
16.500000 4.609101
16.500000 4.697311
16.500000 4.786358
16.500000 4.876241
16.500000 4.966959
16.500000 5.058514
16.500000 5.150905
16.500000 5.244133
16.500000 5.338196
16.500000 5.433095
16.500000 5.528831
16.500000 5.625402
16.500000 5.722810
16.500000 5.821054
16.500000 5.920134
16.500000 6.020050
16.500000 6.120802
16.500000 6.222391
16.500000 6.324815
16.500000 6.428076
16.500000 6.532172
16.500000 6.637105
16.500000 6.742874
16.500000 6.849479
16.500000 6.956920
16.500000 7.065198
16.500000 7.174311
16.500000 7.284261
16.500000 7.395046
16.500000 7.506668
16.500000 7.619126
16.500000 7.732420
16.500000 7.846550
16.500000 7.961516
16.500000 8.077319
16.500000 8.193957
16.500000 8.311432
16.500000 8.429742
16.500000 8.548889
16.500000 8.668872
16.500000 8.789691
16.500000 8.911346
16.500000 9.033838
16.500000 9.157165
16.500000 9.281329
16.500000 9.406328
16.500000 9.532164
16.500000 9.658836
16.500000 9.786344
16.500000 9.914688
16.500000 10.043868
16.500000 10.173885
16.500000 10.304737
16.500000 10.436426
16.500000 10.568950
16.500000 10.702311
16.500000 10.836508
16.500000 10.971541
16.500000 11.107411
16.500000 11.244116
16.500000 11.381657
16.500000 11.520035
16.500000 11.659248
16.500000 11.799298
16.500000 11.940184
16.500000 12.081906
16.500000 12.224464
16.500000 12.367859
16.500000 12.512089
16.500000 12.657155
16.500000 12.803058
16.500000 12.949797
16.500000 13.097372
16.500000 13.245782
16.500000 13.395030
16.500000 13.545113
16.500000 13.696032
16.500000 13.847787
16.500000 14.000379
16.500000 14.153807
16.500000 14.308070
16.500000 14.463170
16.500000 14.619106
16.500000 14.775879
16.500000 14.933487
16.500000 15.091931
16.500000 15.251212
16.500000 15.411328
16.500000 15.572281
16.500000 15.734070
16.500000 15.896695
16.500000 16.060156
16.500000 16.224453
16.500000 16.389586
16.500000 16.555556
16.500000 16.722361
16.500000 16.890003
16.500000 17.058481
16.500000 17.227795
16.500000 17.397945
16.500000 17.568931
16.500000 17.740753
16.500000 17.913412
16.500000 18.086906
16.500000 18.261237
16.500000 18.436403
16.500000 18.612406
16.500000 18.789245
16.500000 18.966920
16.500000 19.145432
16.500000 19.324779
16.500000 19.504962
16.500000 19.685982
16.500000 19.867838
16.500000 20.050529
16.500000 20.234057
16.500000 20.418421
16.500000 20.603622
16.500000 20.789658
16.500000 20.976530
16.500000 21.164239
16.500000 21.352783
16.500000 21.542164
16.500000 21.732381
16.500000 21.923434
16.500000 22.115323
16.500000 22.308048
16.500000 22.501610
16.500000 22.696007
16.500000 22.891241
16.500000 23.087310
16.500000 23.284216
16.500000 23.481958
16.500000 23.680536
16.500000 23.879950
16.500000 24.080200
16.500000 24.281287
16.500000 24.483209
16.500000 24.685968
16.500000 24.889563
16.500000 25.093994
16.500000 25.299261
16.500000 25.505364
16.500000 25.712303
16.500000 25.920078
16.500000 26.128690
16.500000 26.338137
16.500000 26.548421
16.500000 26.759541
16.500000 26.971497
16.500000 27.184289
16.500000 27.397917
16.500000 27.612381
16.500000 27.827682
16.500000 28.043818
16.500000 28.260791
16.500000 28.478600
16.500000 28.697244
16.500000 28.916725
16.500000 29.137043
16.500000 29.358196
16.500000 29.580185
16.500000 29.803011
16.500000 30.026672
16.500000 30.251170
16.500000 30.476504
16.500000 30.702674
16.500000 30.929680
16.500000 31.157522
16.500000 31.386200
16.500000 31.615715
16.500000 31.846065
16.500000 32.077252
16.500000 32.309275
16.500000 32.542133
16.500000 32.775828
16.500000 33.010360
16.500000 33.245727
16.500000 33.481930
16.500000 33.718970
16.500000 33.956845
16.500000 34.195557
16.500000 34.435105
16.500000 34.675489
16.500000 34.916709
16.500000 35.158765
16.500000 35.401657
16.500000 35.645386
16.500000 35.889950
16.500000 36.135351
16.500000 36.381588
16.500000 36.628660
16.500000 36.876569
16.500000 37.125315
16.500000 37.374896
16.500000 37.625313
16.500000 37.876567
16.500000 38.128656
16.500000 38.381582
16.500000 38.635344
16.500000 38.889942
16.500000 39.145376
16.500000 39.401646
16.500000 39.658752
16.500000 39.916695
16.500000 40.175473
16.500000 40.435088
16.500000 40.695539
16.500000 40.956826
16.500000 41.218949
16.500000 41.481908
16.500000 41.745703
16.500000 42.010334
16.500000 42.275802
16.500000 42.542106
16.500000 42.809245
16.500000 43.077221
16.500000 43.346033
16.500000 43.615681
16.500000 43.886165
16.500000 44.157486
16.500000 44.429642
16.500000 44.702635
16.500000 44.976463
16.500000 45.251128
16.500000 45.526629
16.500000 45.802966
16.500000 46.080139
16.500000 46.358148
16.500000 46.636994
16.500000 46.916675
16.500000 47.197193
16.500000 47.478547
16.500000 47.760736
16.500000 48.043762
16.500000 48.327625
16.500000 48.612323
16.500000 48.897857
16.500000 49.184227
16.500000 49.471434
16.500000 49.759477
16.500000 50.048355
16.500000 50.338070
16.500000 50.628621
16.500000 50.920009
16.500000 51.212232
16.500000 51.505291
16.500000 51.799187
16.500000 52.093918
16.500000 52.389486
16.500000 52.685890
16.500000 52.983130
16.500000 53.281206
16.500000 53.580118
16.500000 53.879867
16.500000 54.180451
16.500000 54.481872
16.500000 54.784128
16.500000 55.087221
16.500000 55.391150
16.500000 55.695915
16.500000 56.001516
16.500000 56.307953
16.500000 56.615227
16.500000 56.923336
16.500000 57.232282
16.500000 57.542064
16.500000 57.852682
16.500000 58.164136
16.500000 58.476426
16.500000 58.789552
16.500000 59.103514
16.500000 59.418313
16.500000 59.733947
16.500000 60.050418
16.500000 60.367725
16.500000 60.685868
16.500000 61.004847
16.500000 61.324662
16.500000 61.645313
16.500000 61.966801
16.500000 62.289124
16.500000 62.612284
16.500000 62.936279
16.500000 63.261111
16.500000 63.586779
16.500000 63.913283
16.500000 64.240624
16.500000 64.568800
16.500000 64.897812
16.500000 65.227661
16.500000 65.558346
16.500000 65.889867
16.500000 66.222223
16.500000 66.555417
16.500000 66.889446
16.500000 67.224311
16.500000 67.560012
16.500000 67.896550
16.500000 68.233924
16.500000 68.572133
16.500000 68.911179
16.500000 69.251061
16.500000 69.591779
16.500000 69.933334
16.500000 70.275724
16.500000 70.618950
16.500000 70.963013
16.500000 71.307912
16.500000 71.653646
16.500000 72.000217
16.500000 72.347624
16.500000 72.695868
16.500000 73.044947
16.500000 73.394862
16.500000 73.745614
16.500000 74.097202
16.500000 74.449625
16.500000 74.802885
16.500000 75.156981
16.500000 75.511913
16.500000 75.867682
16.500000 76.224286
16.500000 76.581726
16.500000 76.940003
16.500000 77.299116
16.500000 77.659064
16.500000 78.019849
16.500000 78.381471
16.500000 78.743928
16.500000 79.107221
16.500000 79.471350
16.500000 79.836316
16.500000 80.202118
16.500000 80.568755
16.500000 80.936229
16.500000 81.304539
16.500000 81.673685
16.500000 82.043668
16.500000 82.414486
16.500000 82.786141
16.500000 83.158631
16.500000 83.531958
16.500000 83.906121
16.500000 84.281120
16.500000 84.656955
16.500000 85.033626
16.500000 85.411133
16.500000 85.789477
16.500000 86.168656
16.500000 86.548672
16.500000 86.929524
16.500000 87.311212
16.500000 87.693736
16.500000 88.077096
16.500000 88.461292
16.500000 88.846324
16.500000 89.232193
16.500000 89.618897
16.500000 90.006438
16.500000 90.394815
16.500000 90.784028
16.500000 91.174077
16.500000 91.564962
16.500000 91.956684
16.500000 92.349241
16.500000 92.742634
16.500000 93.136864
16.500000 93.531930
16.500000 93.927832
16.500000 94.324570
16.500000 94.722144
16.500000 95.120554
16.500000 95.519801
16.500000 95.919883
16.500000 96.320802
16.500000 96.722557
16.500000 97.125147
16.500000 97.528574
16.500000 97.932837
16.500000 98.337937
16.500000 98.743872
16.500000 99.150643
16.500000 99.558251
16.500000 99.966695
16.500000 100.375974
16.500000 100.786090
16.500000 101.197042
16.500000 101.608831
16.500000 102.021455
16.500000 102.434915
16.500000 102.849212
16.500000 103.264344
16.500000 103.680313
16.500000 104.097118
16.500000 104.514759
16.500000 104.933236
16.500000 105.352549
16.500000 105.772699
16.500000 106.193684
16.500000 106.615506
16.500000 107.038163
16.500000 107.461657
16.500000 107.885987
16.500000 108.311153
16.500000 108.737155
16.500000 109.163993
16.500000 109.591668
16.500000 110.020178
16.500000 110.449525
16.500000 110.879708
16.500000 111.310727
16.500000 111.742582
16.500000 112.175273
16.500000 112.608800
16.500000 113.043163
16.500000 113.478363
16.500000 113.914398
16.500000 114.351270
16.500000 114.788978
16.500000 115.227522
16.500000 115.666902
16.500000 116.107118
16.500000 116.548170
16.500000 116.990059
16.500000 117.432783
16.500000 117.876344
16.500000 118.320740
16.500000 118.765973
16.500000 119.212042
16.500000 119.658947
16.500000 120.106689
16.500000 120.555266
16.500000 121.004679
16.500000 121.454929
16.500000 121.906015
16.500000 122.357937
16.500000 122.810695
16.500000 123.264289
16.500000 123.718719
16.500000 124.173985
16.500000 124.630087
16.500000 125.087026
16.500000 125.544801
16.500000 126.003411
16.500000 126.462858
16.500000 126.923141
16.500000 127.384260
16.500000 127.846216
16.500000 128.309007
16.500000 128.772634
16.500000 129.237098
16.500000 129.702398
16.500000 130.168534
16.500000 130.635505
16.500000 131.103314
16.500000 131.571958
16.500000 132.041438
16.500000 132.511754
16.500000 132.982907
16.500000 133.454896
16.500000 133.927720
16.500000 134.401381
16.500000 134.875878
16.500000 135.351211
16.500000 135.827381
16.500000 136.304386
16.500000 136.782227
16.500000 137.260905
16.500000 137.740419
16.500000 138.220769
16.500000 138.701955
16.500000 139.183977
16.500000 139.666835
16.500000 140.150529
16.500000 140.635060
16.500000 141.120426
16.500000 141.606629
16.500000 142.093668
16.500000 142.581542
16.500000 143.070253
16.500000 143.559801
16.500000 144.050184
16.500000 144.541403
16.500000 145.033459
16.500000 145.526350
16.500000 146.020078
16.500000 146.514642
16.500000 147.010042
16.500000 147.506278
16.500000 148.003350
16.500000 148.501258
16.500000 149.000003
16.500000 149.499583
16.500000 150.000000
</POINTS>
</NEKTAR>

