<?xml version="1.0" encoding="utf-8" ?>
<NEKTAR>
<POINTS DIM="2" FIELDS="">
23.500000 0.000000
23.500000 0.000418
23.500000 0.001672
23.500000 0.003763
23.500000 0.006689
23.500000 0.010451
23.500000 0.015050
23.500000 0.020485
23.500000 0.026756
23.500000 0.033863
23.500000 0.041806
23.500000 0.050585
23.500000 0.060201
23.500000 0.070652
23.500000 0.081940
23.500000 0.094063
23.500000 0.107023
23.500000 0.120819
23.500000 0.135451
23.500000 0.150919
23.500000 0.167224
23.500000 0.184364
23.500000 0.202341
23.500000 0.221153
23.500000 0.240802
23.500000 0.261287
23.500000 0.282608
23.500000 0.304765
23.500000 0.327758
23.500000 0.351588
23.500000 0.376253
23.500000 0.401755
23.500000 0.428092
23.500000 0.455266
23.500000 0.483276
23.500000 0.512122
23.500000 0.541805
23.500000 0.572323
23.500000 0.603677
23.500000 0.635868
23.500000 0.668894
23.500000 0.702757
23.500000 0.737456
23.500000 0.772991
23.500000 0.809362
23.500000 0.846570
23.500000 0.884613
23.500000 0.923492
23.500000 0.963208
23.500000 1.003760
23.500000 1.045148
23.500000 1.087372
23.500000 1.130432
23.500000 1.174328
23.500000 1.219060
23.500000 1.264629
23.500000 1.311033
23.500000 1.358274
23.500000 1.406351
23.500000 1.455264
23.500000 1.505013
23.500000 1.555598
23.500000 1.607019
23.500000 1.659276
23.500000 1.712370
23.500000 1.766299
23.500000 1.821065
23.500000 1.876667
23.500000 1.933105
23.500000 1.990379
23.500000 2.048489
23.500000 2.107436
23.500000 2.167218
23.500000 2.227837
23.500000 2.289291
23.500000 2.351582
23.500000 2.414709
23.500000 2.478672
23.500000 2.543471
23.500000 2.609106
23.500000 2.675578
23.500000 2.742885
23.500000 2.811029
23.500000 2.880009
23.500000 2.949825
23.500000 3.020477
23.500000 3.091965
23.500000 3.164289
23.500000 3.237449
23.500000 3.311446
23.500000 3.386278
23.500000 3.461947
23.500000 3.538452
23.500000 3.615793
23.500000 3.693970
23.500000 3.772983
23.500000 3.852832
23.500000 3.933517
23.500000 4.015039
23.500000 4.097397
23.500000 4.180590
23.500000 4.264620
23.500000 4.349486
23.500000 4.435188
23.500000 4.521727
23.500000 4.609101
23.500000 4.697311
23.500000 4.786358
23.500000 4.876241
23.500000 4.966959
23.500000 5.058514
23.500000 5.150905
23.500000 5.244133
23.500000 5.338196
23.500000 5.433095
23.500000 5.528831
23.500000 5.625402
23.500000 5.722810
23.500000 5.821054
23.500000 5.920134
23.500000 6.020050
23.500000 6.120802
23.500000 6.222391
23.500000 6.324815
23.500000 6.428076
23.500000 6.532172
23.500000 6.637105
23.500000 6.742874
23.500000 6.849479
23.500000 6.956920
23.500000 7.065198
23.500000 7.174311
23.500000 7.284261
23.500000 7.395046
23.500000 7.506668
23.500000 7.619126
23.500000 7.732420
23.500000 7.846550
23.500000 7.961516
23.500000 8.077319
23.500000 8.193957
23.500000 8.311432
23.500000 8.429742
23.500000 8.548889
23.500000 8.668872
23.500000 8.789691
23.500000 8.911346
23.500000 9.033838
23.500000 9.157165
23.500000 9.281329
23.500000 9.406328
23.500000 9.532164
23.500000 9.658836
23.500000 9.786344
23.500000 9.914688
23.500000 10.043868
23.500000 10.173885
23.500000 10.304737
23.500000 10.436426
23.500000 10.568950
23.500000 10.702311
23.500000 10.836508
23.500000 10.971541
23.500000 11.107411
23.500000 11.244116
23.500000 11.381657
23.500000 11.520035
23.500000 11.659248
23.500000 11.799298
23.500000 11.940184
23.500000 12.081906
23.500000 12.224464
23.500000 12.367859
23.500000 12.512089
23.500000 12.657155
23.500000 12.803058
23.500000 12.949797
23.500000 13.097372
23.500000 13.245782
23.500000 13.395030
23.500000 13.545113
23.500000 13.696032
23.500000 13.847787
23.500000 14.000379
23.500000 14.153807
23.500000 14.308070
23.500000 14.463170
23.500000 14.619106
23.500000 14.775879
23.500000 14.933487
23.500000 15.091931
23.500000 15.251212
23.500000 15.411328
23.500000 15.572281
23.500000 15.734070
23.500000 15.896695
23.500000 16.060156
23.500000 16.224453
23.500000 16.389586
23.500000 16.555556
23.500000 16.722361
23.500000 16.890003
23.500000 17.058481
23.500000 17.227795
23.500000 17.397945
23.500000 17.568931
23.500000 17.740753
23.500000 17.913412
23.500000 18.086906
23.500000 18.261237
23.500000 18.436403
23.500000 18.612406
23.500000 18.789245
23.500000 18.966920
23.500000 19.145432
23.500000 19.324779
23.500000 19.504962
23.500000 19.685982
23.500000 19.867838
23.500000 20.050529
23.500000 20.234057
23.500000 20.418421
23.500000 20.603622
23.500000 20.789658
23.500000 20.976530
23.500000 21.164239
23.500000 21.352783
23.500000 21.542164
23.500000 21.732381
23.500000 21.923434
23.500000 22.115323
23.500000 22.308048
23.500000 22.501610
23.500000 22.696007
23.500000 22.891241
23.500000 23.087310
23.500000 23.284216
23.500000 23.481958
23.500000 23.680536
23.500000 23.879950
23.500000 24.080200
23.500000 24.281287
23.500000 24.483209
23.500000 24.685968
23.500000 24.889563
23.500000 25.093994
23.500000 25.299261
23.500000 25.505364
23.500000 25.712303
23.500000 25.920078
23.500000 26.128690
23.500000 26.338137
23.500000 26.548421
23.500000 26.759541
23.500000 26.971497
23.500000 27.184289
23.500000 27.397917
23.500000 27.612381
23.500000 27.827682
23.500000 28.043818
23.500000 28.260791
23.500000 28.478600
23.500000 28.697244
23.500000 28.916725
23.500000 29.137043
23.500000 29.358196
23.500000 29.580185
23.500000 29.803011
23.500000 30.026672
23.500000 30.251170
23.500000 30.476504
23.500000 30.702674
23.500000 30.929680
23.500000 31.157522
23.500000 31.386200
23.500000 31.615715
23.500000 31.846065
23.500000 32.077252
23.500000 32.309275
23.500000 32.542133
23.500000 32.775828
23.500000 33.010360
23.500000 33.245727
23.500000 33.481930
23.500000 33.718970
23.500000 33.956845
23.500000 34.195557
23.500000 34.435105
23.500000 34.675489
23.500000 34.916709
23.500000 35.158765
23.500000 35.401657
23.500000 35.645386
23.500000 35.889950
23.500000 36.135351
23.500000 36.381588
23.500000 36.628660
23.500000 36.876569
23.500000 37.125315
23.500000 37.374896
23.500000 37.625313
23.500000 37.876567
23.500000 38.128656
23.500000 38.381582
23.500000 38.635344
23.500000 38.889942
23.500000 39.145376
23.500000 39.401646
23.500000 39.658752
23.500000 39.916695
23.500000 40.175473
23.500000 40.435088
23.500000 40.695539
23.500000 40.956826
23.500000 41.218949
23.500000 41.481908
23.500000 41.745703
23.500000 42.010334
23.500000 42.275802
23.500000 42.542106
23.500000 42.809245
23.500000 43.077221
23.500000 43.346033
23.500000 43.615681
23.500000 43.886165
23.500000 44.157486
23.500000 44.429642
23.500000 44.702635
23.500000 44.976463
23.500000 45.251128
23.500000 45.526629
23.500000 45.802966
23.500000 46.080139
23.500000 46.358148
23.500000 46.636994
23.500000 46.916675
23.500000 47.197193
23.500000 47.478547
23.500000 47.760736
23.500000 48.043762
23.500000 48.327625
23.500000 48.612323
23.500000 48.897857
23.500000 49.184227
23.500000 49.471434
23.500000 49.759477
23.500000 50.048355
23.500000 50.338070
23.500000 50.628621
23.500000 50.920009
23.500000 51.212232
23.500000 51.505291
23.500000 51.799187
23.500000 52.093918
23.500000 52.389486
23.500000 52.685890
23.500000 52.983130
23.500000 53.281206
23.500000 53.580118
23.500000 53.879867
23.500000 54.180451
23.500000 54.481872
23.500000 54.784128
23.500000 55.087221
23.500000 55.391150
23.500000 55.695915
23.500000 56.001516
23.500000 56.307953
23.500000 56.615227
23.500000 56.923336
23.500000 57.232282
23.500000 57.542064
23.500000 57.852682
23.500000 58.164136
23.500000 58.476426
23.500000 58.789552
23.500000 59.103514
23.500000 59.418313
23.500000 59.733947
23.500000 60.050418
23.500000 60.367725
23.500000 60.685868
23.500000 61.004847
23.500000 61.324662
23.500000 61.645313
23.500000 61.966801
23.500000 62.289124
23.500000 62.612284
23.500000 62.936279
23.500000 63.261111
23.500000 63.586779
23.500000 63.913283
23.500000 64.240624
23.500000 64.568800
23.500000 64.897812
23.500000 65.227661
23.500000 65.558346
23.500000 65.889867
23.500000 66.222223
23.500000 66.555417
23.500000 66.889446
23.500000 67.224311
23.500000 67.560012
23.500000 67.896550
23.500000 68.233924
23.500000 68.572133
23.500000 68.911179
23.500000 69.251061
23.500000 69.591779
23.500000 69.933334
23.500000 70.275724
23.500000 70.618950
23.500000 70.963013
23.500000 71.307912
23.500000 71.653646
23.500000 72.000217
23.500000 72.347624
23.500000 72.695868
23.500000 73.044947
23.500000 73.394862
23.500000 73.745614
23.500000 74.097202
23.500000 74.449625
23.500000 74.802885
23.500000 75.156981
23.500000 75.511913
23.500000 75.867682
23.500000 76.224286
23.500000 76.581726
23.500000 76.940003
23.500000 77.299116
23.500000 77.659064
23.500000 78.019849
23.500000 78.381471
23.500000 78.743928
23.500000 79.107221
23.500000 79.471350
23.500000 79.836316
23.500000 80.202118
23.500000 80.568755
23.500000 80.936229
23.500000 81.304539
23.500000 81.673685
23.500000 82.043668
23.500000 82.414486
23.500000 82.786141
23.500000 83.158631
23.500000 83.531958
23.500000 83.906121
23.500000 84.281120
23.500000 84.656955
23.500000 85.033626
23.500000 85.411133
23.500000 85.789477
23.500000 86.168656
23.500000 86.548672
23.500000 86.929524
23.500000 87.311212
23.500000 87.693736
23.500000 88.077096
23.500000 88.461292
23.500000 88.846324
23.500000 89.232193
23.500000 89.618897
23.500000 90.006438
23.500000 90.394815
23.500000 90.784028
23.500000 91.174077
23.500000 91.564962
23.500000 91.956684
23.500000 92.349241
23.500000 92.742634
23.500000 93.136864
23.500000 93.531930
23.500000 93.927832
23.500000 94.324570
23.500000 94.722144
23.500000 95.120554
23.500000 95.519801
23.500000 95.919883
23.500000 96.320802
23.500000 96.722557
23.500000 97.125147
23.500000 97.528574
23.500000 97.932837
23.500000 98.337937
23.500000 98.743872
23.500000 99.150643
23.500000 99.558251
23.500000 99.966695
23.500000 100.375974
23.500000 100.786090
23.500000 101.197042
23.500000 101.608831
23.500000 102.021455
23.500000 102.434915
23.500000 102.849212
23.500000 103.264344
23.500000 103.680313
23.500000 104.097118
23.500000 104.514759
23.500000 104.933236
23.500000 105.352549
23.500000 105.772699
23.500000 106.193684
23.500000 106.615506
23.500000 107.038163
23.500000 107.461657
23.500000 107.885987
23.500000 108.311153
23.500000 108.737155
23.500000 109.163993
23.500000 109.591668
23.500000 110.020178
23.500000 110.449525
23.500000 110.879708
23.500000 111.310727
23.500000 111.742582
23.500000 112.175273
23.500000 112.608800
23.500000 113.043163
23.500000 113.478363
23.500000 113.914398
23.500000 114.351270
23.500000 114.788978
23.500000 115.227522
23.500000 115.666902
23.500000 116.107118
23.500000 116.548170
23.500000 116.990059
23.500000 117.432783
23.500000 117.876344
23.500000 118.320740
23.500000 118.765973
23.500000 119.212042
23.500000 119.658947
23.500000 120.106689
23.500000 120.555266
23.500000 121.004679
23.500000 121.454929
23.500000 121.906015
23.500000 122.357937
23.500000 122.810695
23.500000 123.264289
23.500000 123.718719
23.500000 124.173985
23.500000 124.630087
23.500000 125.087026
23.500000 125.544801
23.500000 126.003411
23.500000 126.462858
23.500000 126.923141
23.500000 127.384260
23.500000 127.846216
23.500000 128.309007
23.500000 128.772634
23.500000 129.237098
23.500000 129.702398
23.500000 130.168534
23.500000 130.635505
23.500000 131.103314
23.500000 131.571958
23.500000 132.041438
23.500000 132.511754
23.500000 132.982907
23.500000 133.454896
23.500000 133.927720
23.500000 134.401381
23.500000 134.875878
23.500000 135.351211
23.500000 135.827381
23.500000 136.304386
23.500000 136.782227
23.500000 137.260905
23.500000 137.740419
23.500000 138.220769
23.500000 138.701955
23.500000 139.183977
23.500000 139.666835
23.500000 140.150529
23.500000 140.635060
23.500000 141.120426
23.500000 141.606629
23.500000 142.093668
23.500000 142.581542
23.500000 143.070253
23.500000 143.559801
23.500000 144.050184
23.500000 144.541403
23.500000 145.033459
23.500000 145.526350
23.500000 146.020078
23.500000 146.514642
23.500000 147.010042
23.500000 147.506278
23.500000 148.003350
23.500000 148.501258
23.500000 149.000003
23.500000 149.499583
23.500000 150.000000
</POINTS>
</NEKTAR>

