<?xml version="1.0" encoding="utf-8" ?>
<NEKTAR>
<POINTS DIM="2" FIELDS="">
763.500000 -0.250000
763.500000 -0.249581
763.500000 -0.248325
763.500000 -0.246231
763.500000 -0.243300
763.500000 -0.239531
763.500000 -0.234925
763.500000 -0.229481
763.500000 -0.223200
763.500000 -0.216081
763.500000 -0.208124
763.500000 -0.199331
763.500000 -0.189699
763.500000 -0.179230
763.500000 -0.167924
763.500000 -0.155780
763.500000 -0.142799
763.500000 -0.128980
763.500000 -0.114323
763.500000 -0.098829
763.500000 -0.082498
763.500000 -0.065329
763.500000 -0.047322
763.500000 -0.028478
763.500000 -0.008797
763.500000 0.011722
763.500000 0.033079
763.500000 0.055273
763.500000 0.078305
763.500000 0.102174
763.500000 0.126880
763.500000 0.152424
763.500000 0.178806
763.500000 0.206025
763.500000 0.234082
763.500000 0.262976
763.500000 0.292708
763.500000 0.323277
763.500000 0.354683
763.500000 0.386928
763.500000 0.420009
763.500000 0.453929
763.500000 0.488685
763.500000 0.524279
763.500000 0.560711
763.500000 0.597980
763.500000 0.636087
763.500000 0.675032
763.500000 0.714813
763.500000 0.755433
763.500000 0.796890
763.500000 0.839184
763.500000 0.882316
763.500000 0.926285
763.500000 0.971092
763.500000 1.016736
763.500000 1.063218
763.500000 1.110538
763.500000 1.158695
763.500000 1.207689
763.500000 1.257521
763.500000 1.308190
763.500000 1.359697
763.500000 1.412042
763.500000 1.465224
763.500000 1.519243
763.500000 1.574100
763.500000 1.629795
763.500000 1.686327
763.500000 1.743696
763.500000 1.801903
763.500000 1.860948
763.500000 1.920830
763.500000 1.981550
763.500000 2.043107
763.500000 2.105501
763.500000 2.168734
763.500000 2.232803
763.500000 2.297710
763.500000 2.363455
763.500000 2.430037
763.500000 2.497457
763.500000 2.565714
763.500000 2.634809
763.500000 2.704741
763.500000 2.775511
763.500000 2.847118
763.500000 2.919563
763.500000 2.992845
763.500000 3.066965
763.500000 3.141922
763.500000 3.217717
763.500000 3.294349
763.500000 3.371819
763.500000 3.450126
763.500000 3.529271
763.500000 3.609253
763.500000 3.690073
763.500000 3.771731
763.500000 3.854226
763.500000 3.937558
763.500000 4.021728
763.500000 4.106735
763.500000 4.192580
763.500000 4.279263
763.500000 4.366783
763.500000 4.455140
763.500000 4.544335
763.500000 4.634368
763.500000 4.725238
763.500000 4.816945
763.500000 4.909490
763.500000 5.002873
763.500000 5.097093
763.500000 5.192150
763.500000 5.288045
763.500000 5.384778
763.500000 5.482348
763.500000 5.580756
763.500000 5.680001
763.500000 5.780084
763.500000 5.881004
763.500000 5.982761
763.500000 6.085357
763.500000 6.188789
763.500000 6.293059
763.500000 6.398167
763.500000 6.504112
763.500000 6.610895
763.500000 6.718515
763.500000 6.826973
763.500000 6.936268
763.500000 7.046401
763.500000 7.157371
763.500000 7.269179
763.500000 7.381824
763.500000 7.495307
763.500000 7.609628
763.500000 7.724785
763.500000 7.840781
763.500000 7.957614
763.500000 8.075284
763.500000 8.193792
763.500000 8.313137
763.500000 8.433320
763.500000 8.554341
763.500000 8.676199
763.500000 8.798894
763.500000 8.922427
763.500000 9.046798
763.500000 9.172006
763.500000 9.298051
763.500000 9.424934
763.500000 9.552655
763.500000 9.681213
763.500000 9.810608
763.500000 9.940841
763.500000 10.071912
763.500000 10.203820
763.500000 10.336565
763.500000 10.470148
763.500000 10.604569
763.500000 10.739827
763.500000 10.875923
763.500000 11.012856
763.500000 11.150627
763.500000 11.289235
763.500000 11.428681
763.500000 11.568964
763.500000 11.710084
763.500000 11.852043
763.500000 11.994838
763.500000 12.138472
763.500000 12.282942
763.500000 12.428251
763.500000 12.574396
763.500000 12.721380
763.500000 12.869200
763.500000 13.017859
763.500000 13.167355
763.500000 13.317688
763.500000 13.468859
763.500000 13.620867
763.500000 13.773713
763.500000 13.927396
763.500000 14.081917
763.500000 14.237276
763.500000 14.393472
763.500000 14.550505
763.500000 14.708376
763.500000 14.867084
763.500000 15.026630
763.500000 15.187014
763.500000 15.348235
763.500000 15.510293
763.500000 15.673189
763.500000 15.836923
763.500000 16.001494
763.500000 16.166902
763.500000 16.333148
763.500000 16.500232
763.500000 16.668153
763.500000 16.836912
763.500000 17.006508
763.500000 17.176941
763.500000 17.348213
763.500000 17.520321
763.500000 17.693267
763.500000 17.867051
763.500000 18.041672
763.500000 18.217131
763.500000 18.393427
763.500000 18.570561
763.500000 18.748532
763.500000 18.927341
763.500000 19.106987
763.500000 19.287471
763.500000 19.468792
763.500000 19.650951
763.500000 19.833947
763.500000 20.017781
763.500000 20.202452
763.500000 20.387961
763.500000 20.574307
763.500000 20.761491
763.500000 20.949512
763.500000 21.138371
763.500000 21.328068
763.500000 21.518602
763.500000 21.709973
763.500000 21.902182
763.500000 22.095228
763.500000 22.289112
763.500000 22.483834
763.500000 22.679393
763.500000 22.875789
763.500000 23.073023
763.500000 23.271095
763.500000 23.470004
763.500000 23.669750
763.500000 23.870334
763.500000 24.071756
763.500000 24.274015
763.500000 24.477111
763.500000 24.681045
763.500000 24.885817
763.500000 25.091426
763.500000 25.297873
763.500000 25.505157
763.500000 25.713278
763.500000 25.922238
763.500000 26.132034
763.500000 26.342668
763.500000 26.554140
763.500000 26.766449
763.500000 26.979596
763.500000 27.193580
763.500000 27.408402
763.500000 27.624061
763.500000 27.840558
763.500000 28.057892
763.500000 28.276064
763.500000 28.495073
763.500000 28.714920
763.500000 28.935604
763.500000 29.157126
763.500000 29.379485
763.500000 29.602682
763.500000 29.826717
763.500000 30.051588
763.500000 30.277298
763.500000 30.503845
763.500000 30.731229
763.500000 30.959451
763.500000 31.188510
763.500000 31.418407
763.500000 31.649142
763.500000 31.880714
763.500000 32.113123
763.500000 32.346370
763.500000 32.580455
763.500000 32.815377
763.500000 33.051136
763.500000 33.287733
763.500000 33.525168
763.500000 33.763440
763.500000 34.002549
763.500000 34.242497
763.500000 34.483281
763.500000 34.724903
763.500000 34.967363
763.500000 35.210660
763.500000 35.454795
763.500000 35.699767
763.500000 35.945576
763.500000 36.192224
763.500000 36.439708
763.500000 36.688030
763.500000 36.937190
763.500000 37.187187
763.500000 37.438022
763.500000 37.689694
763.500000 37.942204
763.500000 38.195551
763.500000 38.449736
763.500000 38.704758
763.500000 38.960618
763.500000 39.217315
763.500000 39.474850
763.500000 39.733223
763.500000 39.992432
763.500000 40.252480
763.500000 40.513365
763.500000 40.775087
763.500000 41.037647
763.500000 41.301044
763.500000 41.565279
763.500000 41.830352
763.500000 42.096262
763.500000 42.363009
763.500000 42.630594
763.500000 42.899016
763.500000 43.168276
763.500000 43.438374
763.500000 43.709309
763.500000 43.981081
763.500000 44.253691
763.500000 44.527139
763.500000 44.801424
763.500000 45.076547
763.500000 45.352507
763.500000 45.629304
763.500000 45.906939
763.500000 46.185412
763.500000 46.464722
763.500000 46.744870
763.500000 47.025855
763.500000 47.307678
763.500000 47.590338
763.500000 47.873835
763.500000 48.158171
763.500000 48.443343
763.500000 48.729353
763.500000 49.016201
763.500000 49.303886
763.500000 49.592409
763.500000 49.881769
763.500000 50.171967
763.500000 50.463002
763.500000 50.754875
763.500000 51.047586
763.500000 51.341133
763.500000 51.635519
763.500000 51.930742
763.500000 52.226802
763.500000 52.523700
763.500000 52.821435
763.500000 53.120008
763.500000 53.419418
763.500000 53.719666
763.500000 54.020752
763.500000 54.322675
763.500000 54.625435
763.500000 54.929033
763.500000 55.233469
763.500000 55.538742
763.500000 55.844852
763.500000 56.151800
763.500000 56.459586
763.500000 56.768209
763.500000 57.077669
763.500000 57.387967
763.500000 57.699103
763.500000 58.011076
763.500000 58.323886
763.500000 58.637534
763.500000 58.952020
763.500000 59.267343
763.500000 59.583504
763.500000 59.900502
763.500000 60.218338
763.500000 60.537011
763.500000 60.856521
763.500000 61.176870
763.500000 61.498055
763.500000 61.820079
763.500000 62.142939
763.500000 62.466637
763.500000 62.791173
763.500000 63.116546
763.500000 63.442757
763.500000 63.769806
763.500000 64.097691
763.500000 64.426415
763.500000 64.755975
763.500000 65.086374
763.500000 65.417610
763.500000 65.749683
763.500000 66.082594
763.500000 66.416342
763.500000 66.750928
763.500000 67.086351
763.500000 67.422612
763.500000 67.759711
763.500000 68.097647
763.500000 68.436420
763.500000 68.776031
763.500000 69.116480
763.500000 69.457766
763.500000 69.799889
763.500000 70.142850
763.500000 70.486649
763.500000 70.831285
763.500000 71.176758
763.500000 71.523069
763.500000 71.870218
763.500000 72.218204
763.500000 72.567027
763.500000 72.916688
763.500000 73.267187
763.500000 73.618523
763.500000 73.970697
763.500000 74.323708
763.500000 74.677557
763.500000 75.032243
763.500000 75.387766
763.500000 75.744128
763.500000 76.101326
763.500000 76.459363
763.500000 76.818236
763.500000 77.177948
763.500000 77.538496
763.500000 77.899883
763.500000 78.262106
763.500000 78.625168
763.500000 78.989066
763.500000 79.353803
763.500000 79.719376
763.500000 80.085788
763.500000 80.453037
763.500000 80.821123
763.500000 81.190047
763.500000 81.559808
763.500000 81.930407
763.500000 82.301844
763.500000 82.674117
763.500000 83.047229
763.500000 83.421178
763.500000 83.795964
763.500000 84.171588
763.500000 84.548050
763.500000 84.925349
763.500000 85.303485
763.500000 85.682459
763.500000 86.062271
763.500000 86.442920
763.500000 86.824406
763.500000 87.206730
763.500000 87.589892
763.500000 87.973891
763.500000 88.358727
763.500000 88.744401
763.500000 89.130913
763.500000 89.518262
763.500000 89.906449
763.500000 90.295473
763.500000 90.685335
763.500000 91.076034
763.500000 91.467570
763.500000 91.859945
763.500000 92.253156
763.500000 92.647206
763.500000 93.042092
763.500000 93.437817
763.500000 93.834378
763.500000 94.231778
763.500000 94.630014
763.500000 95.029089
763.500000 95.429000
763.500000 95.829750
763.500000 96.231336
763.500000 96.633761
763.500000 97.037023
763.500000 97.441122
763.500000 97.846059
763.500000 98.251833
763.500000 98.658445
763.500000 99.065894
763.500000 99.474181
763.500000 99.883306
763.500000 100.293268
763.500000 100.704067
763.500000 101.115704
763.500000 101.528179
763.500000 101.941491
763.500000 102.355640
763.500000 102.770627
763.500000 103.186452
763.500000 103.603114
763.500000 104.020613
763.500000 104.438950
763.500000 104.858125
763.500000 105.278137
763.500000 105.698986
763.500000 106.120673
763.500000 106.543198
763.500000 106.966560
763.500000 107.390760
763.500000 107.815797
763.500000 108.241672
763.500000 108.668384
763.500000 109.095933
763.500000 109.524321
763.500000 109.953545
763.500000 110.383607
763.500000 110.814507
763.500000 111.246244
763.500000 111.678819
763.500000 112.112231
763.500000 112.546481
763.500000 112.981568
763.500000 113.417493
763.500000 113.854256
763.500000 114.291855
763.500000 114.730293
763.500000 115.169568
763.500000 115.609680
763.500000 116.050630
763.500000 116.492417
763.500000 116.935042
763.500000 117.378504
763.500000 117.822804
763.500000 118.267942
763.500000 118.713917
763.500000 119.160729
763.500000 119.608379
763.500000 120.056866
763.500000 120.506191
763.500000 120.956354
763.500000 121.407354
763.500000 121.859191
763.500000 122.311866
763.500000 122.765379
763.500000 123.219729
763.500000 123.674917
763.500000 124.130942
763.500000 124.587804
763.500000 125.045504
763.500000 125.504042
763.500000 125.963417
763.500000 126.423630
763.500000 126.884680
763.500000 127.346567
763.500000 127.809293
763.500000 128.272855
763.500000 128.737255
763.500000 129.202493
763.500000 129.668568
763.500000 130.135481
763.500000 130.603231
763.500000 131.071819
763.500000 131.541244
763.500000 132.011507
763.500000 132.482607
763.500000 132.954545
763.500000 133.427320
763.500000 133.900933
763.500000 134.375384
763.500000 134.850671
763.500000 135.326797
763.500000 135.803760
763.500000 136.281560
763.500000 136.760198
763.500000 137.239673
763.500000 137.719986
763.500000 138.201137
763.500000 138.683124
763.500000 139.165950
763.500000 139.649613
763.500000 140.134113
763.500000 140.619451
763.500000 141.105627
763.500000 141.592640
763.500000 142.080490
763.500000 142.569178
763.500000 143.058704
763.500000 143.549067
763.500000 144.040267
763.500000 144.532306
763.500000 145.025181
763.500000 145.518894
763.500000 146.013445
763.500000 146.508833
763.500000 147.005059
763.500000 147.502122
763.500000 148.000022
763.500000 148.498760
763.500000 148.998336
763.500000 149.498749
763.500000 150.000000
</POINTS>
</NEKTAR>

