<?xml version="1.0" encoding="utf-8" ?>
<NEKTAR>
<POINTS DIM="2" FIELDS="">
323.500000 -0.250000
323.500000 -0.249581
323.500000 -0.248325
323.500000 -0.246231
323.500000 -0.243300
323.500000 -0.239531
323.500000 -0.234925
323.500000 -0.229481
323.500000 -0.223200
323.500000 -0.216081
323.500000 -0.208124
323.500000 -0.199331
323.500000 -0.189699
323.500000 -0.179230
323.500000 -0.167924
323.500000 -0.155780
323.500000 -0.142799
323.500000 -0.128980
323.500000 -0.114323
323.500000 -0.098829
323.500000 -0.082498
323.500000 -0.065329
323.500000 -0.047322
323.500000 -0.028478
323.500000 -0.008797
323.500000 0.011722
323.500000 0.033079
323.500000 0.055273
323.500000 0.078305
323.500000 0.102174
323.500000 0.126880
323.500000 0.152424
323.500000 0.178806
323.500000 0.206025
323.500000 0.234082
323.500000 0.262976
323.500000 0.292708
323.500000 0.323277
323.500000 0.354683
323.500000 0.386928
323.500000 0.420009
323.500000 0.453929
323.500000 0.488685
323.500000 0.524279
323.500000 0.560711
323.500000 0.597980
323.500000 0.636087
323.500000 0.675032
323.500000 0.714813
323.500000 0.755433
323.500000 0.796890
323.500000 0.839184
323.500000 0.882316
323.500000 0.926285
323.500000 0.971092
323.500000 1.016736
323.500000 1.063218
323.500000 1.110538
323.500000 1.158695
323.500000 1.207689
323.500000 1.257521
323.500000 1.308190
323.500000 1.359697
323.500000 1.412042
323.500000 1.465224
323.500000 1.519243
323.500000 1.574100
323.500000 1.629795
323.500000 1.686327
323.500000 1.743696
323.500000 1.801903
323.500000 1.860948
323.500000 1.920830
323.500000 1.981550
323.500000 2.043107
323.500000 2.105501
323.500000 2.168734
323.500000 2.232803
323.500000 2.297710
323.500000 2.363455
323.500000 2.430037
323.500000 2.497457
323.500000 2.565714
323.500000 2.634809
323.500000 2.704741
323.500000 2.775511
323.500000 2.847118
323.500000 2.919563
323.500000 2.992845
323.500000 3.066965
323.500000 3.141922
323.500000 3.217717
323.500000 3.294349
323.500000 3.371819
323.500000 3.450126
323.500000 3.529271
323.500000 3.609253
323.500000 3.690073
323.500000 3.771731
323.500000 3.854226
323.500000 3.937558
323.500000 4.021728
323.500000 4.106735
323.500000 4.192580
323.500000 4.279263
323.500000 4.366783
323.500000 4.455140
323.500000 4.544335
323.500000 4.634368
323.500000 4.725238
323.500000 4.816945
323.500000 4.909490
323.500000 5.002873
323.500000 5.097093
323.500000 5.192150
323.500000 5.288045
323.500000 5.384778
323.500000 5.482348
323.500000 5.580756
323.500000 5.680001
323.500000 5.780084
323.500000 5.881004
323.500000 5.982761
323.500000 6.085357
323.500000 6.188789
323.500000 6.293059
323.500000 6.398167
323.500000 6.504112
323.500000 6.610895
323.500000 6.718515
323.500000 6.826973
323.500000 6.936268
323.500000 7.046401
323.500000 7.157371
323.500000 7.269179
323.500000 7.381824
323.500000 7.495307
323.500000 7.609628
323.500000 7.724785
323.500000 7.840781
323.500000 7.957614
323.500000 8.075284
323.500000 8.193792
323.500000 8.313137
323.500000 8.433320
323.500000 8.554341
323.500000 8.676199
323.500000 8.798894
323.500000 8.922427
323.500000 9.046798
323.500000 9.172006
323.500000 9.298051
323.500000 9.424934
323.500000 9.552655
323.500000 9.681213
323.500000 9.810608
323.500000 9.940841
323.500000 10.071912
323.500000 10.203820
323.500000 10.336565
323.500000 10.470148
323.500000 10.604569
323.500000 10.739827
323.500000 10.875923
323.500000 11.012856
323.500000 11.150627
323.500000 11.289235
323.500000 11.428681
323.500000 11.568964
323.500000 11.710084
323.500000 11.852043
323.500000 11.994838
323.500000 12.138472
323.500000 12.282942
323.500000 12.428251
323.500000 12.574396
323.500000 12.721380
323.500000 12.869200
323.500000 13.017859
323.500000 13.167355
323.500000 13.317688
323.500000 13.468859
323.500000 13.620867
323.500000 13.773713
323.500000 13.927396
323.500000 14.081917
323.500000 14.237276
323.500000 14.393472
323.500000 14.550505
323.500000 14.708376
323.500000 14.867084
323.500000 15.026630
323.500000 15.187014
323.500000 15.348235
323.500000 15.510293
323.500000 15.673189
323.500000 15.836923
323.500000 16.001494
323.500000 16.166902
323.500000 16.333148
323.500000 16.500232
323.500000 16.668153
323.500000 16.836912
323.500000 17.006508
323.500000 17.176941
323.500000 17.348213
323.500000 17.520321
323.500000 17.693267
323.500000 17.867051
323.500000 18.041672
323.500000 18.217131
323.500000 18.393427
323.500000 18.570561
323.500000 18.748532
323.500000 18.927341
323.500000 19.106987
323.500000 19.287471
323.500000 19.468792
323.500000 19.650951
323.500000 19.833947
323.500000 20.017781
323.500000 20.202452
323.500000 20.387961
323.500000 20.574307
323.500000 20.761491
323.500000 20.949512
323.500000 21.138371
323.500000 21.328068
323.500000 21.518602
323.500000 21.709973
323.500000 21.902182
323.500000 22.095228
323.500000 22.289112
323.500000 22.483834
323.500000 22.679393
323.500000 22.875789
323.500000 23.073023
323.500000 23.271095
323.500000 23.470004
323.500000 23.669750
323.500000 23.870334
323.500000 24.071756
323.500000 24.274015
323.500000 24.477111
323.500000 24.681045
323.500000 24.885817
323.500000 25.091426
323.500000 25.297873
323.500000 25.505157
323.500000 25.713278
323.500000 25.922238
323.500000 26.132034
323.500000 26.342668
323.500000 26.554140
323.500000 26.766449
323.500000 26.979596
323.500000 27.193580
323.500000 27.408402
323.500000 27.624061
323.500000 27.840558
323.500000 28.057892
323.500000 28.276064
323.500000 28.495073
323.500000 28.714920
323.500000 28.935604
323.500000 29.157126
323.500000 29.379485
323.500000 29.602682
323.500000 29.826717
323.500000 30.051588
323.500000 30.277298
323.500000 30.503845
323.500000 30.731229
323.500000 30.959451
323.500000 31.188510
323.500000 31.418407
323.500000 31.649142
323.500000 31.880714
323.500000 32.113123
323.500000 32.346370
323.500000 32.580455
323.500000 32.815377
323.500000 33.051136
323.500000 33.287733
323.500000 33.525168
323.500000 33.763440
323.500000 34.002549
323.500000 34.242497
323.500000 34.483281
323.500000 34.724903
323.500000 34.967363
323.500000 35.210660
323.500000 35.454795
323.500000 35.699767
323.500000 35.945576
323.500000 36.192224
323.500000 36.439708
323.500000 36.688030
323.500000 36.937190
323.500000 37.187187
323.500000 37.438022
323.500000 37.689694
323.500000 37.942204
323.500000 38.195551
323.500000 38.449736
323.500000 38.704758
323.500000 38.960618
323.500000 39.217315
323.500000 39.474850
323.500000 39.733223
323.500000 39.992432
323.500000 40.252480
323.500000 40.513365
323.500000 40.775087
323.500000 41.037647
323.500000 41.301044
323.500000 41.565279
323.500000 41.830352
323.500000 42.096262
323.500000 42.363009
323.500000 42.630594
323.500000 42.899016
323.500000 43.168276
323.500000 43.438374
323.500000 43.709309
323.500000 43.981081
323.500000 44.253691
323.500000 44.527139
323.500000 44.801424
323.500000 45.076547
323.500000 45.352507
323.500000 45.629304
323.500000 45.906939
323.500000 46.185412
323.500000 46.464722
323.500000 46.744870
323.500000 47.025855
323.500000 47.307678
323.500000 47.590338
323.500000 47.873835
323.500000 48.158171
323.500000 48.443343
323.500000 48.729353
323.500000 49.016201
323.500000 49.303886
323.500000 49.592409
323.500000 49.881769
323.500000 50.171967
323.500000 50.463002
323.500000 50.754875
323.500000 51.047586
323.500000 51.341133
323.500000 51.635519
323.500000 51.930742
323.500000 52.226802
323.500000 52.523700
323.500000 52.821435
323.500000 53.120008
323.500000 53.419418
323.500000 53.719666
323.500000 54.020752
323.500000 54.322675
323.500000 54.625435
323.500000 54.929033
323.500000 55.233469
323.500000 55.538742
323.500000 55.844852
323.500000 56.151800
323.500000 56.459586
323.500000 56.768209
323.500000 57.077669
323.500000 57.387967
323.500000 57.699103
323.500000 58.011076
323.500000 58.323886
323.500000 58.637534
323.500000 58.952020
323.500000 59.267343
323.500000 59.583504
323.500000 59.900502
323.500000 60.218338
323.500000 60.537011
323.500000 60.856521
323.500000 61.176870
323.500000 61.498055
323.500000 61.820079
323.500000 62.142939
323.500000 62.466637
323.500000 62.791173
323.500000 63.116546
323.500000 63.442757
323.500000 63.769806
323.500000 64.097691
323.500000 64.426415
323.500000 64.755975
323.500000 65.086374
323.500000 65.417610
323.500000 65.749683
323.500000 66.082594
323.500000 66.416342
323.500000 66.750928
323.500000 67.086351
323.500000 67.422612
323.500000 67.759711
323.500000 68.097647
323.500000 68.436420
323.500000 68.776031
323.500000 69.116480
323.500000 69.457766
323.500000 69.799889
323.500000 70.142850
323.500000 70.486649
323.500000 70.831285
323.500000 71.176758
323.500000 71.523069
323.500000 71.870218
323.500000 72.218204
323.500000 72.567027
323.500000 72.916688
323.500000 73.267187
323.500000 73.618523
323.500000 73.970697
323.500000 74.323708
323.500000 74.677557
323.500000 75.032243
323.500000 75.387766
323.500000 75.744128
323.500000 76.101326
323.500000 76.459363
323.500000 76.818236
323.500000 77.177948
323.500000 77.538496
323.500000 77.899883
323.500000 78.262106
323.500000 78.625168
323.500000 78.989066
323.500000 79.353803
323.500000 79.719376
323.500000 80.085788
323.500000 80.453037
323.500000 80.821123
323.500000 81.190047
323.500000 81.559808
323.500000 81.930407
323.500000 82.301844
323.500000 82.674117
323.500000 83.047229
323.500000 83.421178
323.500000 83.795964
323.500000 84.171588
323.500000 84.548050
323.500000 84.925349
323.500000 85.303485
323.500000 85.682459
323.500000 86.062271
323.500000 86.442920
323.500000 86.824406
323.500000 87.206730
323.500000 87.589892
323.500000 87.973891
323.500000 88.358727
323.500000 88.744401
323.500000 89.130913
323.500000 89.518262
323.500000 89.906449
323.500000 90.295473
323.500000 90.685335
323.500000 91.076034
323.500000 91.467570
323.500000 91.859945
323.500000 92.253156
323.500000 92.647206
323.500000 93.042092
323.500000 93.437817
323.500000 93.834378
323.500000 94.231778
323.500000 94.630014
323.500000 95.029089
323.500000 95.429000
323.500000 95.829750
323.500000 96.231336
323.500000 96.633761
323.500000 97.037023
323.500000 97.441122
323.500000 97.846059
323.500000 98.251833
323.500000 98.658445
323.500000 99.065894
323.500000 99.474181
323.500000 99.883306
323.500000 100.293268
323.500000 100.704067
323.500000 101.115704
323.500000 101.528179
323.500000 101.941491
323.500000 102.355640
323.500000 102.770627
323.500000 103.186452
323.500000 103.603114
323.500000 104.020613
323.500000 104.438950
323.500000 104.858125
323.500000 105.278137
323.500000 105.698986
323.500000 106.120673
323.500000 106.543198
323.500000 106.966560
323.500000 107.390760
323.500000 107.815797
323.500000 108.241672
323.500000 108.668384
323.500000 109.095933
323.500000 109.524321
323.500000 109.953545
323.500000 110.383607
323.500000 110.814507
323.500000 111.246244
323.500000 111.678819
323.500000 112.112231
323.500000 112.546481
323.500000 112.981568
323.500000 113.417493
323.500000 113.854256
323.500000 114.291855
323.500000 114.730293
323.500000 115.169568
323.500000 115.609680
323.500000 116.050630
323.500000 116.492417
323.500000 116.935042
323.500000 117.378504
323.500000 117.822804
323.500000 118.267942
323.500000 118.713917
323.500000 119.160729
323.500000 119.608379
323.500000 120.056866
323.500000 120.506191
323.500000 120.956354
323.500000 121.407354
323.500000 121.859191
323.500000 122.311866
323.500000 122.765379
323.500000 123.219729
323.500000 123.674917
323.500000 124.130942
323.500000 124.587804
323.500000 125.045504
323.500000 125.504042
323.500000 125.963417
323.500000 126.423630
323.500000 126.884680
323.500000 127.346567
323.500000 127.809293
323.500000 128.272855
323.500000 128.737255
323.500000 129.202493
323.500000 129.668568
323.500000 130.135481
323.500000 130.603231
323.500000 131.071819
323.500000 131.541244
323.500000 132.011507
323.500000 132.482607
323.500000 132.954545
323.500000 133.427320
323.500000 133.900933
323.500000 134.375384
323.500000 134.850671
323.500000 135.326797
323.500000 135.803760
323.500000 136.281560
323.500000 136.760198
323.500000 137.239673
323.500000 137.719986
323.500000 138.201137
323.500000 138.683124
323.500000 139.165950
323.500000 139.649613
323.500000 140.134113
323.500000 140.619451
323.500000 141.105627
323.500000 141.592640
323.500000 142.080490
323.500000 142.569178
323.500000 143.058704
323.500000 143.549067
323.500000 144.040267
323.500000 144.532306
323.500000 145.025181
323.500000 145.518894
323.500000 146.013445
323.500000 146.508833
323.500000 147.005059
323.500000 147.502122
323.500000 148.000022
323.500000 148.498760
323.500000 148.998336
323.500000 149.498749
323.500000 150.000000
</POINTS>
</NEKTAR>

