<?xml version="1.0" encoding="utf-8" ?>
<NEKTAR>
<POINTS DIM="2" FIELDS="">
483.500000 -0.500000
483.500000 -0.499581
483.500000 -0.498322
483.500000 -0.496225
483.500000 -0.493289
483.500000 -0.489514
483.500000 -0.484900
483.500000 -0.479447
483.500000 -0.473155
483.500000 -0.466024
483.500000 -0.458055
483.500000 -0.449246
483.500000 -0.439599
483.500000 -0.429113
483.500000 -0.417787
483.500000 -0.405623
483.500000 -0.392620
483.500000 -0.378778
483.500000 -0.364097
483.500000 -0.348578
483.500000 -0.332219
483.500000 -0.315021
483.500000 -0.296985
483.500000 -0.278110
483.500000 -0.258395
483.500000 -0.237842
483.500000 -0.216450
483.500000 -0.194219
483.500000 -0.171149
483.500000 -0.147240
483.500000 -0.122493
483.500000 -0.096906
483.500000 -0.070481
483.500000 -0.043216
483.500000 -0.015113
483.500000 0.013829
483.500000 0.043611
483.500000 0.074231
483.500000 0.105690
483.500000 0.137987
483.500000 0.171124
483.500000 0.205100
483.500000 0.239914
483.500000 0.275568
483.500000 0.312060
483.500000 0.349391
483.500000 0.387562
483.500000 0.426571
483.500000 0.466419
483.500000 0.507106
483.500000 0.548631
483.500000 0.590996
483.500000 0.634200
483.500000 0.678242
483.500000 0.723124
483.500000 0.768844
483.500000 0.815403
483.500000 0.862801
483.500000 0.911038
483.500000 0.960114
483.500000 1.010029
483.500000 1.060783
483.500000 1.112376
483.500000 1.164807
483.500000 1.218078
483.500000 1.272187
483.500000 1.327135
483.500000 1.382923
483.500000 1.439549
483.500000 1.497014
483.500000 1.555318
483.500000 1.614460
483.500000 1.674442
483.500000 1.735263
483.500000 1.796922
483.500000 1.859421
483.500000 1.922758
483.500000 1.986934
483.500000 2.051949
483.500000 2.117803
483.500000 2.184496
483.500000 2.252028
483.500000 2.320399
483.500000 2.389609
483.500000 2.459657
483.500000 2.530545
483.500000 2.602271
483.500000 2.674836
483.500000 2.748241
483.500000 2.822484
483.500000 2.897566
483.500000 2.973487
483.500000 3.050247
483.500000 3.127845
483.500000 3.206283
483.500000 3.285559
483.500000 3.365675
483.500000 3.446629
483.500000 3.528422
483.500000 3.611055
483.500000 3.694526
483.500000 3.778836
483.500000 3.863984
483.500000 3.949972
483.500000 4.036799
483.500000 4.124465
483.500000 4.212969
483.500000 4.302312
483.500000 4.392495
483.500000 4.483516
483.500000 4.575376
483.500000 4.668075
483.500000 4.761613
483.500000 4.855990
483.500000 4.951206
483.500000 5.047260
483.500000 5.144154
483.500000 5.241886
483.500000 5.340458
483.500000 5.439868
483.500000 5.540117
483.500000 5.641205
483.500000 5.743132
483.500000 5.845898
483.500000 5.949503
483.500000 6.053946
483.500000 6.159229
483.500000 6.265350
483.500000 6.372311
483.500000 6.480110
483.500000 6.588748
483.500000 6.698225
483.500000 6.808542
483.500000 6.919696
483.500000 7.031690
483.500000 7.144523
483.500000 7.258195
483.500000 7.372705
483.500000 7.488055
483.500000 7.604243
483.500000 7.721270
483.500000 7.839136
483.500000 7.957842
483.500000 8.077386
483.500000 8.197768
483.500000 8.318990
483.500000 8.441051
483.500000 8.563950
483.500000 8.687689
483.500000 8.812266
483.500000 8.937683
483.500000 9.063938
483.500000 9.191032
483.500000 9.318965
483.500000 9.447737
483.500000 9.577348
483.500000 9.707798
483.500000 9.839086
483.500000 9.971214
483.500000 10.104180
483.500000 10.237986
483.500000 10.372630
483.500000 10.508113
483.500000 10.644435
483.500000 10.781596
483.500000 10.919596
483.500000 11.058435
483.500000 11.198113
483.500000 11.338629
483.500000 11.479985
483.500000 11.622179
483.500000 11.765212
483.500000 11.909085
483.500000 12.053796
483.500000 12.199346
483.500000 12.345735
483.500000 12.492963
483.500000 12.641029
483.500000 12.789935
483.500000 12.939680
483.500000 13.090263
483.500000 13.241686
483.500000 13.393947
483.500000 13.547047
483.500000 13.700986
483.500000 13.855764
483.500000 14.011381
483.500000 14.167837
483.500000 14.325131
483.500000 14.483265
483.500000 14.642238
483.500000 14.802049
483.500000 14.962699
483.500000 15.124189
483.500000 15.286517
483.500000 15.449684
483.500000 15.613690
483.500000 15.778535
483.500000 15.944218
483.500000 16.110741
483.500000 16.278103
483.500000 16.446303
483.500000 16.615342
483.500000 16.785221
483.500000 16.955938
483.500000 17.127494
483.500000 17.299889
483.500000 17.473123
483.500000 17.647196
483.500000 17.822108
483.500000 17.997858
483.500000 18.174448
483.500000 18.351876
483.500000 18.530143
483.500000 18.709250
483.500000 18.889195
483.500000 19.069979
483.500000 19.251602
483.500000 19.434064
483.500000 19.617365
483.500000 19.801504
483.500000 19.986483
483.500000 20.172300
483.500000 20.358957
483.500000 20.546452
483.500000 20.734786
483.500000 20.923959
483.500000 21.113971
483.500000 21.304822
483.500000 21.496512
483.500000 21.689041
483.500000 21.882408
483.500000 22.076615
483.500000 22.271660
483.500000 22.467545
483.500000 22.664268
483.500000 22.861830
483.500000 23.060231
483.500000 23.259471
483.500000 23.459550
483.500000 23.660468
483.500000 23.862224
483.500000 24.064820
483.500000 24.268255
483.500000 24.472528
483.500000 24.677640
483.500000 24.883591
483.500000 25.090382
483.500000 25.298011
483.500000 25.506479
483.500000 25.715785
483.500000 25.925931
483.500000 26.136916
483.500000 26.348739
483.500000 26.561402
483.500000 26.774903
483.500000 26.989243
483.500000 27.204423
483.500000 27.420441
483.500000 27.637298
483.500000 27.854993
483.500000 28.073528
483.500000 28.292902
483.500000 28.513115
483.500000 28.734166
483.500000 28.956056
483.500000 29.178786
483.500000 29.402354
483.500000 29.626761
483.500000 29.852007
483.500000 30.078092
483.500000 30.305016
483.500000 30.532779
483.500000 30.761380
483.500000 30.990821
483.500000 31.221100
483.500000 31.452219
483.500000 31.684176
483.500000 31.916972
483.500000 32.150607
483.500000 32.385081
483.500000 32.620394
483.500000 32.856546
483.500000 33.093537
483.500000 33.331366
483.500000 33.570035
483.500000 33.809542
483.500000 34.049888
483.500000 34.291074
483.500000 34.533098
483.500000 34.775961
483.500000 35.019663
483.500000 35.264204
483.500000 35.509583
483.500000 35.755802
483.500000 36.002860
483.500000 36.250756
483.500000 36.499491
483.500000 36.749066
483.500000 36.999479
483.500000 37.250731
483.500000 37.502822
483.500000 37.755752
483.500000 38.009521
483.500000 38.264128
483.500000 38.519575
483.500000 38.775860
483.500000 39.032985
483.500000 39.290948
483.500000 39.549750
483.500000 39.809392
483.500000 40.069872
483.500000 40.331191
483.500000 40.593348
483.500000 40.856345
483.500000 41.120181
483.500000 41.384855
483.500000 41.650369
483.500000 41.916721
483.500000 42.183913
483.500000 42.451943
483.500000 42.720812
483.500000 42.990520
483.500000 43.261067
483.500000 43.532453
483.500000 43.804677
483.500000 44.077741
483.500000 44.351643
483.500000 44.626385
483.500000 44.901965
483.500000 45.178384
483.500000 45.455643
483.500000 45.733740
483.500000 46.012676
483.500000 46.292450
483.500000 46.573064
483.500000 46.854517
483.500000 47.136808
483.500000 47.419939
483.500000 47.703908
483.500000 47.988717
483.500000 48.274364
483.500000 48.560850
483.500000 48.848175
483.500000 49.136339
483.500000 49.425342
483.500000 49.715183
483.500000 50.005864
483.500000 50.297384
483.500000 50.589742
483.500000 50.882939
483.500000 51.176976
483.500000 51.471851
483.500000 51.767565
483.500000 52.064118
483.500000 52.361510
483.500000 52.659740
483.500000 52.958810
483.500000 53.258719
483.500000 53.559466
483.500000 53.861053
483.500000 54.163478
483.500000 54.466742
483.500000 54.770845
483.500000 55.075787
483.500000 55.381568
483.500000 55.688188
483.500000 55.995647
483.500000 56.303944
483.500000 56.613081
483.500000 56.923056
483.500000 57.233871
483.500000 57.545524
483.500000 57.858016
483.500000 58.171347
483.500000 58.485517
483.500000 58.800526
483.500000 59.116374
483.500000 59.433060
483.500000 59.750586
483.500000 60.068950
483.500000 60.388154
483.500000 60.708196
483.500000 61.029077
483.500000 61.350798
483.500000 61.673357
483.500000 61.996754
483.500000 62.320991
483.500000 62.646067
483.500000 62.971982
483.500000 63.298735
483.500000 63.626328
483.500000 63.954759
483.500000 64.284029
483.500000 64.614138
483.500000 64.945087
483.500000 65.276874
483.500000 65.609499
483.500000 65.942964
483.500000 66.277268
483.500000 66.612411
483.500000 66.948392
483.500000 67.285212
483.500000 67.622872
483.500000 67.961370
483.500000 68.300707
483.500000 68.640883
483.500000 68.981898
483.500000 69.323752
483.500000 69.666445
483.500000 70.009976
483.500000 70.354347
483.500000 70.699556
483.500000 71.045605
483.500000 71.392492
483.500000 71.740218
483.500000 72.088783
483.500000 72.438187
483.500000 72.788430
483.500000 73.139512
483.500000 73.491433
483.500000 73.844192
483.500000 74.197791
483.500000 74.552228
483.500000 74.907504
483.500000 75.263620
483.500000 75.620574
483.500000 75.978367
483.500000 76.336999
483.500000 76.696470
483.500000 77.056779
483.500000 77.417928
483.500000 77.779916
483.500000 78.142742
483.500000 78.506407
483.500000 78.870912
483.500000 79.236255
483.500000 79.602437
483.500000 79.969458
483.500000 80.337318
483.500000 80.706017
483.500000 81.075554
483.500000 81.445931
483.500000 81.817147
483.500000 82.189201
483.500000 82.562094
483.500000 82.935827
483.500000 83.310398
483.500000 83.685808
483.500000 84.062057
483.500000 84.439145
483.500000 84.817071
483.500000 85.195837
483.500000 85.575442
483.500000 85.955885
483.500000 86.337167
483.500000 86.719289
483.500000 87.102249
483.500000 87.486048
483.500000 87.870686
483.500000 88.256163
483.500000 88.642479
483.500000 89.029633
483.500000 89.417627
483.500000 89.806460
483.500000 90.196131
483.500000 90.586641
483.500000 90.977991
483.500000 91.370179
483.500000 91.763206
483.500000 92.157072
483.500000 92.551777
483.500000 92.947320
483.500000 93.343703
483.500000 93.740925
483.500000 94.138985
483.500000 94.537885
483.500000 94.937623
483.500000 95.338200
483.500000 95.739616
483.500000 96.141871
483.500000 96.544965
483.500000 96.948898
483.500000 97.353670
483.500000 97.759280
483.500000 98.165730
483.500000 98.573018
483.500000 98.981146
483.500000 99.390112
483.500000 99.799917
483.500000 100.210561
483.500000 100.622044
483.500000 101.034366
483.500000 101.447527
483.500000 101.861526
483.500000 102.276365
483.500000 102.692042
483.500000 103.108559
483.500000 103.525914
483.500000 103.944108
483.500000 104.363141
483.500000 104.783013
483.500000 105.203724
483.500000 105.625274
483.500000 106.047663
483.500000 106.470891
483.500000 106.894957
483.500000 107.319863
483.500000 107.745607
483.500000 108.172190
483.500000 108.599612
483.500000 109.027873
483.500000 109.456973
483.500000 109.886912
483.500000 110.317690
483.500000 110.749307
483.500000 111.181762
483.500000 111.615057
483.500000 112.049190
483.500000 112.484163
483.500000 112.919974
483.500000 113.356624
483.500000 113.794113
483.500000 114.232441
483.500000 114.671608
483.500000 115.111613
483.500000 115.552458
483.500000 115.994142
483.500000 116.436664
483.500000 116.880025
483.500000 117.324226
483.500000 117.769265
483.500000 118.215143
483.500000 118.661860
483.500000 119.109416
483.500000 119.557811
483.500000 120.007044
483.500000 120.457117
483.500000 120.908028
483.500000 121.359779
483.500000 121.812368
483.500000 122.265796
483.500000 122.720063
483.500000 123.175170
483.500000 123.631114
483.500000 124.087898
483.500000 124.545521
483.500000 125.003983
483.500000 125.463283
483.500000 125.923423
483.500000 126.384401
483.500000 126.846218
483.500000 127.308875
483.500000 127.772370
483.500000 128.236704
483.500000 128.701877
483.500000 129.167888
483.500000 129.634739
483.500000 130.102429
483.500000 130.570957
483.500000 131.040325
483.500000 131.510531
483.500000 131.981576
483.500000 132.453460
483.500000 132.926183
483.500000 133.399745
483.500000 133.874146
483.500000 134.349386
483.500000 134.825465
483.500000 135.302382
483.500000 135.780139
483.500000 136.258734
483.500000 136.738168
483.500000 137.218441
483.500000 137.699554
483.500000 138.181505
483.500000 138.664294
483.500000 139.147923
483.500000 139.632391
483.500000 140.117698
483.500000 140.603843
483.500000 141.090828
483.500000 141.578651
483.500000 142.067313
483.500000 142.556814
483.500000 143.047154
483.500000 143.538333
483.500000 144.030351
483.500000 144.523208
483.500000 145.016904
483.500000 145.511438
483.500000 146.006812
483.500000 146.503024
483.500000 147.000075
483.500000 147.497965
483.500000 147.996695
483.500000 148.496263
483.500000 148.996669
483.500000 149.497915
483.500000 150.000000
</POINTS>
</NEKTAR>

