<?xml version="1.0" encoding="utf-8" ?>
<NEKTAR>
<POINTS DIM="2" FIELDS="">
163.500000 -0.500000
163.500000 -0.499581
163.500000 -0.498322
163.500000 -0.496225
163.500000 -0.493289
163.500000 -0.489514
163.500000 -0.484900
163.500000 -0.479447
163.500000 -0.473155
163.500000 -0.466024
163.500000 -0.458055
163.500000 -0.449246
163.500000 -0.439599
163.500000 -0.429113
163.500000 -0.417787
163.500000 -0.405623
163.500000 -0.392620
163.500000 -0.378778
163.500000 -0.364097
163.500000 -0.348578
163.500000 -0.332219
163.500000 -0.315021
163.500000 -0.296985
163.500000 -0.278110
163.500000 -0.258395
163.500000 -0.237842
163.500000 -0.216450
163.500000 -0.194219
163.500000 -0.171149
163.500000 -0.147240
163.500000 -0.122493
163.500000 -0.096906
163.500000 -0.070481
163.500000 -0.043216
163.500000 -0.015113
163.500000 0.013829
163.500000 0.043611
163.500000 0.074231
163.500000 0.105690
163.500000 0.137987
163.500000 0.171124
163.500000 0.205100
163.500000 0.239914
163.500000 0.275568
163.500000 0.312060
163.500000 0.349391
163.500000 0.387562
163.500000 0.426571
163.500000 0.466419
163.500000 0.507106
163.500000 0.548631
163.500000 0.590996
163.500000 0.634200
163.500000 0.678242
163.500000 0.723124
163.500000 0.768844
163.500000 0.815403
163.500000 0.862801
163.500000 0.911038
163.500000 0.960114
163.500000 1.010029
163.500000 1.060783
163.500000 1.112376
163.500000 1.164807
163.500000 1.218078
163.500000 1.272187
163.500000 1.327135
163.500000 1.382923
163.500000 1.439549
163.500000 1.497014
163.500000 1.555318
163.500000 1.614460
163.500000 1.674442
163.500000 1.735263
163.500000 1.796922
163.500000 1.859421
163.500000 1.922758
163.500000 1.986934
163.500000 2.051949
163.500000 2.117803
163.500000 2.184496
163.500000 2.252028
163.500000 2.320399
163.500000 2.389609
163.500000 2.459657
163.500000 2.530545
163.500000 2.602271
163.500000 2.674836
163.500000 2.748241
163.500000 2.822484
163.500000 2.897566
163.500000 2.973487
163.500000 3.050247
163.500000 3.127845
163.500000 3.206283
163.500000 3.285559
163.500000 3.365675
163.500000 3.446629
163.500000 3.528422
163.500000 3.611055
163.500000 3.694526
163.500000 3.778836
163.500000 3.863984
163.500000 3.949972
163.500000 4.036799
163.500000 4.124465
163.500000 4.212969
163.500000 4.302312
163.500000 4.392495
163.500000 4.483516
163.500000 4.575376
163.500000 4.668075
163.500000 4.761613
163.500000 4.855990
163.500000 4.951206
163.500000 5.047260
163.500000 5.144154
163.500000 5.241886
163.500000 5.340458
163.500000 5.439868
163.500000 5.540117
163.500000 5.641205
163.500000 5.743132
163.500000 5.845898
163.500000 5.949503
163.500000 6.053946
163.500000 6.159229
163.500000 6.265350
163.500000 6.372311
163.500000 6.480110
163.500000 6.588748
163.500000 6.698225
163.500000 6.808542
163.500000 6.919696
163.500000 7.031690
163.500000 7.144523
163.500000 7.258195
163.500000 7.372705
163.500000 7.488055
163.500000 7.604243
163.500000 7.721270
163.500000 7.839136
163.500000 7.957842
163.500000 8.077386
163.500000 8.197768
163.500000 8.318990
163.500000 8.441051
163.500000 8.563950
163.500000 8.687689
163.500000 8.812266
163.500000 8.937683
163.500000 9.063938
163.500000 9.191032
163.500000 9.318965
163.500000 9.447737
163.500000 9.577348
163.500000 9.707798
163.500000 9.839086
163.500000 9.971214
163.500000 10.104180
163.500000 10.237986
163.500000 10.372630
163.500000 10.508113
163.500000 10.644435
163.500000 10.781596
163.500000 10.919596
163.500000 11.058435
163.500000 11.198113
163.500000 11.338629
163.500000 11.479985
163.500000 11.622179
163.500000 11.765212
163.500000 11.909085
163.500000 12.053796
163.500000 12.199346
163.500000 12.345735
163.500000 12.492963
163.500000 12.641029
163.500000 12.789935
163.500000 12.939680
163.500000 13.090263
163.500000 13.241686
163.500000 13.393947
163.500000 13.547047
163.500000 13.700986
163.500000 13.855764
163.500000 14.011381
163.500000 14.167837
163.500000 14.325131
163.500000 14.483265
163.500000 14.642238
163.500000 14.802049
163.500000 14.962699
163.500000 15.124189
163.500000 15.286517
163.500000 15.449684
163.500000 15.613690
163.500000 15.778535
163.500000 15.944218
163.500000 16.110741
163.500000 16.278103
163.500000 16.446303
163.500000 16.615342
163.500000 16.785221
163.500000 16.955938
163.500000 17.127494
163.500000 17.299889
163.500000 17.473123
163.500000 17.647196
163.500000 17.822108
163.500000 17.997858
163.500000 18.174448
163.500000 18.351876
163.500000 18.530143
163.500000 18.709250
163.500000 18.889195
163.500000 19.069979
163.500000 19.251602
163.500000 19.434064
163.500000 19.617365
163.500000 19.801504
163.500000 19.986483
163.500000 20.172300
163.500000 20.358957
163.500000 20.546452
163.500000 20.734786
163.500000 20.923959
163.500000 21.113971
163.500000 21.304822
163.500000 21.496512
163.500000 21.689041
163.500000 21.882408
163.500000 22.076615
163.500000 22.271660
163.500000 22.467545
163.500000 22.664268
163.500000 22.861830
163.500000 23.060231
163.500000 23.259471
163.500000 23.459550
163.500000 23.660468
163.500000 23.862224
163.500000 24.064820
163.500000 24.268255
163.500000 24.472528
163.500000 24.677640
163.500000 24.883591
163.500000 25.090382
163.500000 25.298011
163.500000 25.506479
163.500000 25.715785
163.500000 25.925931
163.500000 26.136916
163.500000 26.348739
163.500000 26.561402
163.500000 26.774903
163.500000 26.989243
163.500000 27.204423
163.500000 27.420441
163.500000 27.637298
163.500000 27.854993
163.500000 28.073528
163.500000 28.292902
163.500000 28.513115
163.500000 28.734166
163.500000 28.956056
163.500000 29.178786
163.500000 29.402354
163.500000 29.626761
163.500000 29.852007
163.500000 30.078092
163.500000 30.305016
163.500000 30.532779
163.500000 30.761380
163.500000 30.990821
163.500000 31.221100
163.500000 31.452219
163.500000 31.684176
163.500000 31.916972
163.500000 32.150607
163.500000 32.385081
163.500000 32.620394
163.500000 32.856546
163.500000 33.093537
163.500000 33.331366
163.500000 33.570035
163.500000 33.809542
163.500000 34.049888
163.500000 34.291074
163.500000 34.533098
163.500000 34.775961
163.500000 35.019663
163.500000 35.264204
163.500000 35.509583
163.500000 35.755802
163.500000 36.002860
163.500000 36.250756
163.500000 36.499491
163.500000 36.749066
163.500000 36.999479
163.500000 37.250731
163.500000 37.502822
163.500000 37.755752
163.500000 38.009521
163.500000 38.264128
163.500000 38.519575
163.500000 38.775860
163.500000 39.032985
163.500000 39.290948
163.500000 39.549750
163.500000 39.809392
163.500000 40.069872
163.500000 40.331191
163.500000 40.593348
163.500000 40.856345
163.500000 41.120181
163.500000 41.384855
163.500000 41.650369
163.500000 41.916721
163.500000 42.183913
163.500000 42.451943
163.500000 42.720812
163.500000 42.990520
163.500000 43.261067
163.500000 43.532453
163.500000 43.804677
163.500000 44.077741
163.500000 44.351643
163.500000 44.626385
163.500000 44.901965
163.500000 45.178384
163.500000 45.455643
163.500000 45.733740
163.500000 46.012676
163.500000 46.292450
163.500000 46.573064
163.500000 46.854517
163.500000 47.136808
163.500000 47.419939
163.500000 47.703908
163.500000 47.988717
163.500000 48.274364
163.500000 48.560850
163.500000 48.848175
163.500000 49.136339
163.500000 49.425342
163.500000 49.715183
163.500000 50.005864
163.500000 50.297384
163.500000 50.589742
163.500000 50.882939
163.500000 51.176976
163.500000 51.471851
163.500000 51.767565
163.500000 52.064118
163.500000 52.361510
163.500000 52.659740
163.500000 52.958810
163.500000 53.258719
163.500000 53.559466
163.500000 53.861053
163.500000 54.163478
163.500000 54.466742
163.500000 54.770845
163.500000 55.075787
163.500000 55.381568
163.500000 55.688188
163.500000 55.995647
163.500000 56.303944
163.500000 56.613081
163.500000 56.923056
163.500000 57.233871
163.500000 57.545524
163.500000 57.858016
163.500000 58.171347
163.500000 58.485517
163.500000 58.800526
163.500000 59.116374
163.500000 59.433060
163.500000 59.750586
163.500000 60.068950
163.500000 60.388154
163.500000 60.708196
163.500000 61.029077
163.500000 61.350798
163.500000 61.673357
163.500000 61.996754
163.500000 62.320991
163.500000 62.646067
163.500000 62.971982
163.500000 63.298735
163.500000 63.626328
163.500000 63.954759
163.500000 64.284029
163.500000 64.614138
163.500000 64.945087
163.500000 65.276874
163.500000 65.609499
163.500000 65.942964
163.500000 66.277268
163.500000 66.612411
163.500000 66.948392
163.500000 67.285212
163.500000 67.622872
163.500000 67.961370
163.500000 68.300707
163.500000 68.640883
163.500000 68.981898
163.500000 69.323752
163.500000 69.666445
163.500000 70.009976
163.500000 70.354347
163.500000 70.699556
163.500000 71.045605
163.500000 71.392492
163.500000 71.740218
163.500000 72.088783
163.500000 72.438187
163.500000 72.788430
163.500000 73.139512
163.500000 73.491433
163.500000 73.844192
163.500000 74.197791
163.500000 74.552228
163.500000 74.907504
163.500000 75.263620
163.500000 75.620574
163.500000 75.978367
163.500000 76.336999
163.500000 76.696470
163.500000 77.056779
163.500000 77.417928
163.500000 77.779916
163.500000 78.142742
163.500000 78.506407
163.500000 78.870912
163.500000 79.236255
163.500000 79.602437
163.500000 79.969458
163.500000 80.337318
163.500000 80.706017
163.500000 81.075554
163.500000 81.445931
163.500000 81.817147
163.500000 82.189201
163.500000 82.562094
163.500000 82.935827
163.500000 83.310398
163.500000 83.685808
163.500000 84.062057
163.500000 84.439145
163.500000 84.817071
163.500000 85.195837
163.500000 85.575442
163.500000 85.955885
163.500000 86.337167
163.500000 86.719289
163.500000 87.102249
163.500000 87.486048
163.500000 87.870686
163.500000 88.256163
163.500000 88.642479
163.500000 89.029633
163.500000 89.417627
163.500000 89.806460
163.500000 90.196131
163.500000 90.586641
163.500000 90.977991
163.500000 91.370179
163.500000 91.763206
163.500000 92.157072
163.500000 92.551777
163.500000 92.947320
163.500000 93.343703
163.500000 93.740925
163.500000 94.138985
163.500000 94.537885
163.500000 94.937623
163.500000 95.338200
163.500000 95.739616
163.500000 96.141871
163.500000 96.544965
163.500000 96.948898
163.500000 97.353670
163.500000 97.759280
163.500000 98.165730
163.500000 98.573018
163.500000 98.981146
163.500000 99.390112
163.500000 99.799917
163.500000 100.210561
163.500000 100.622044
163.500000 101.034366
163.500000 101.447527
163.500000 101.861526
163.500000 102.276365
163.500000 102.692042
163.500000 103.108559
163.500000 103.525914
163.500000 103.944108
163.500000 104.363141
163.500000 104.783013
163.500000 105.203724
163.500000 105.625274
163.500000 106.047663
163.500000 106.470891
163.500000 106.894957
163.500000 107.319863
163.500000 107.745607
163.500000 108.172190
163.500000 108.599612
163.500000 109.027873
163.500000 109.456973
163.500000 109.886912
163.500000 110.317690
163.500000 110.749307
163.500000 111.181762
163.500000 111.615057
163.500000 112.049190
163.500000 112.484163
163.500000 112.919974
163.500000 113.356624
163.500000 113.794113
163.500000 114.232441
163.500000 114.671608
163.500000 115.111613
163.500000 115.552458
163.500000 115.994142
163.500000 116.436664
163.500000 116.880025
163.500000 117.324226
163.500000 117.769265
163.500000 118.215143
163.500000 118.661860
163.500000 119.109416
163.500000 119.557811
163.500000 120.007044
163.500000 120.457117
163.500000 120.908028
163.500000 121.359779
163.500000 121.812368
163.500000 122.265796
163.500000 122.720063
163.500000 123.175170
163.500000 123.631114
163.500000 124.087898
163.500000 124.545521
163.500000 125.003983
163.500000 125.463283
163.500000 125.923423
163.500000 126.384401
163.500000 126.846218
163.500000 127.308875
163.500000 127.772370
163.500000 128.236704
163.500000 128.701877
163.500000 129.167888
163.500000 129.634739
163.500000 130.102429
163.500000 130.570957
163.500000 131.040325
163.500000 131.510531
163.500000 131.981576
163.500000 132.453460
163.500000 132.926183
163.500000 133.399745
163.500000 133.874146
163.500000 134.349386
163.500000 134.825465
163.500000 135.302382
163.500000 135.780139
163.500000 136.258734
163.500000 136.738168
163.500000 137.218441
163.500000 137.699554
163.500000 138.181505
163.500000 138.664294
163.500000 139.147923
163.500000 139.632391
163.500000 140.117698
163.500000 140.603843
163.500000 141.090828
163.500000 141.578651
163.500000 142.067313
163.500000 142.556814
163.500000 143.047154
163.500000 143.538333
163.500000 144.030351
163.500000 144.523208
163.500000 145.016904
163.500000 145.511438
163.500000 146.006812
163.500000 146.503024
163.500000 147.000075
163.500000 147.497965
163.500000 147.996695
163.500000 148.496263
163.500000 148.996669
163.500000 149.497915
163.500000 150.000000
</POINTS>
</NEKTAR>

