<?xml version="1.0" encoding="utf-8" ?>
<NEKTAR>
<POINTS DIM="2" FIELDS="">
468.500000 0.000000
468.500000 0.000418
468.500000 0.001672
468.500000 0.003763
468.500000 0.006689
468.500000 0.010451
468.500000 0.015050
468.500000 0.020485
468.500000 0.026756
468.500000 0.033863
468.500000 0.041806
468.500000 0.050585
468.500000 0.060201
468.500000 0.070652
468.500000 0.081940
468.500000 0.094063
468.500000 0.107023
468.500000 0.120819
468.500000 0.135451
468.500000 0.150919
468.500000 0.167224
468.500000 0.184364
468.500000 0.202341
468.500000 0.221153
468.500000 0.240802
468.500000 0.261287
468.500000 0.282608
468.500000 0.304765
468.500000 0.327758
468.500000 0.351588
468.500000 0.376253
468.500000 0.401755
468.500000 0.428092
468.500000 0.455266
468.500000 0.483276
468.500000 0.512122
468.500000 0.541805
468.500000 0.572323
468.500000 0.603677
468.500000 0.635868
468.500000 0.668894
468.500000 0.702757
468.500000 0.737456
468.500000 0.772991
468.500000 0.809362
468.500000 0.846570
468.500000 0.884613
468.500000 0.923492
468.500000 0.963208
468.500000 1.003760
468.500000 1.045148
468.500000 1.087372
468.500000 1.130432
468.500000 1.174328
468.500000 1.219060
468.500000 1.264629
468.500000 1.311033
468.500000 1.358274
468.500000 1.406351
468.500000 1.455264
468.500000 1.505013
468.500000 1.555598
468.500000 1.607019
468.500000 1.659276
468.500000 1.712370
468.500000 1.766299
468.500000 1.821065
468.500000 1.876667
468.500000 1.933105
468.500000 1.990379
468.500000 2.048489
468.500000 2.107436
468.500000 2.167218
468.500000 2.227837
468.500000 2.289291
468.500000 2.351582
468.500000 2.414709
468.500000 2.478672
468.500000 2.543471
468.500000 2.609106
468.500000 2.675578
468.500000 2.742885
468.500000 2.811029
468.500000 2.880009
468.500000 2.949825
468.500000 3.020477
468.500000 3.091965
468.500000 3.164289
468.500000 3.237449
468.500000 3.311446
468.500000 3.386278
468.500000 3.461947
468.500000 3.538452
468.500000 3.615793
468.500000 3.693970
468.500000 3.772983
468.500000 3.852832
468.500000 3.933517
468.500000 4.015039
468.500000 4.097397
468.500000 4.180590
468.500000 4.264620
468.500000 4.349486
468.500000 4.435188
468.500000 4.521727
468.500000 4.609101
468.500000 4.697311
468.500000 4.786358
468.500000 4.876241
468.500000 4.966959
468.500000 5.058514
468.500000 5.150905
468.500000 5.244133
468.500000 5.338196
468.500000 5.433095
468.500000 5.528831
468.500000 5.625402
468.500000 5.722810
468.500000 5.821054
468.500000 5.920134
468.500000 6.020050
468.500000 6.120802
468.500000 6.222391
468.500000 6.324815
468.500000 6.428076
468.500000 6.532172
468.500000 6.637105
468.500000 6.742874
468.500000 6.849479
468.500000 6.956920
468.500000 7.065198
468.500000 7.174311
468.500000 7.284261
468.500000 7.395046
468.500000 7.506668
468.500000 7.619126
468.500000 7.732420
468.500000 7.846550
468.500000 7.961516
468.500000 8.077319
468.500000 8.193957
468.500000 8.311432
468.500000 8.429742
468.500000 8.548889
468.500000 8.668872
468.500000 8.789691
468.500000 8.911346
468.500000 9.033838
468.500000 9.157165
468.500000 9.281329
468.500000 9.406328
468.500000 9.532164
468.500000 9.658836
468.500000 9.786344
468.500000 9.914688
468.500000 10.043868
468.500000 10.173885
468.500000 10.304737
468.500000 10.436426
468.500000 10.568950
468.500000 10.702311
468.500000 10.836508
468.500000 10.971541
468.500000 11.107411
468.500000 11.244116
468.500000 11.381657
468.500000 11.520035
468.500000 11.659248
468.500000 11.799298
468.500000 11.940184
468.500000 12.081906
468.500000 12.224464
468.500000 12.367859
468.500000 12.512089
468.500000 12.657155
468.500000 12.803058
468.500000 12.949797
468.500000 13.097372
468.500000 13.245782
468.500000 13.395030
468.500000 13.545113
468.500000 13.696032
468.500000 13.847787
468.500000 14.000379
468.500000 14.153807
468.500000 14.308070
468.500000 14.463170
468.500000 14.619106
468.500000 14.775879
468.500000 14.933487
468.500000 15.091931
468.500000 15.251212
468.500000 15.411328
468.500000 15.572281
468.500000 15.734070
468.500000 15.896695
468.500000 16.060156
468.500000 16.224453
468.500000 16.389586
468.500000 16.555556
468.500000 16.722361
468.500000 16.890003
468.500000 17.058481
468.500000 17.227795
468.500000 17.397945
468.500000 17.568931
468.500000 17.740753
468.500000 17.913412
468.500000 18.086906
468.500000 18.261237
468.500000 18.436403
468.500000 18.612406
468.500000 18.789245
468.500000 18.966920
468.500000 19.145432
468.500000 19.324779
468.500000 19.504962
468.500000 19.685982
468.500000 19.867838
468.500000 20.050529
468.500000 20.234057
468.500000 20.418421
468.500000 20.603622
468.500000 20.789658
468.500000 20.976530
468.500000 21.164239
468.500000 21.352783
468.500000 21.542164
468.500000 21.732381
468.500000 21.923434
468.500000 22.115323
468.500000 22.308048
468.500000 22.501610
468.500000 22.696007
468.500000 22.891241
468.500000 23.087310
468.500000 23.284216
468.500000 23.481958
468.500000 23.680536
468.500000 23.879950
468.500000 24.080200
468.500000 24.281287
468.500000 24.483209
468.500000 24.685968
468.500000 24.889563
468.500000 25.093994
468.500000 25.299261
468.500000 25.505364
468.500000 25.712303
468.500000 25.920078
468.500000 26.128690
468.500000 26.338137
468.500000 26.548421
468.500000 26.759541
468.500000 26.971497
468.500000 27.184289
468.500000 27.397917
468.500000 27.612381
468.500000 27.827682
468.500000 28.043818
468.500000 28.260791
468.500000 28.478600
468.500000 28.697244
468.500000 28.916725
468.500000 29.137043
468.500000 29.358196
468.500000 29.580185
468.500000 29.803011
468.500000 30.026672
468.500000 30.251170
468.500000 30.476504
468.500000 30.702674
468.500000 30.929680
468.500000 31.157522
468.500000 31.386200
468.500000 31.615715
468.500000 31.846065
468.500000 32.077252
468.500000 32.309275
468.500000 32.542133
468.500000 32.775828
468.500000 33.010360
468.500000 33.245727
468.500000 33.481930
468.500000 33.718970
468.500000 33.956845
468.500000 34.195557
468.500000 34.435105
468.500000 34.675489
468.500000 34.916709
468.500000 35.158765
468.500000 35.401657
468.500000 35.645386
468.500000 35.889950
468.500000 36.135351
468.500000 36.381588
468.500000 36.628660
468.500000 36.876569
468.500000 37.125315
468.500000 37.374896
468.500000 37.625313
468.500000 37.876567
468.500000 38.128656
468.500000 38.381582
468.500000 38.635344
468.500000 38.889942
468.500000 39.145376
468.500000 39.401646
468.500000 39.658752
468.500000 39.916695
468.500000 40.175473
468.500000 40.435088
468.500000 40.695539
468.500000 40.956826
468.500000 41.218949
468.500000 41.481908
468.500000 41.745703
468.500000 42.010334
468.500000 42.275802
468.500000 42.542106
468.500000 42.809245
468.500000 43.077221
468.500000 43.346033
468.500000 43.615681
468.500000 43.886165
468.500000 44.157486
468.500000 44.429642
468.500000 44.702635
468.500000 44.976463
468.500000 45.251128
468.500000 45.526629
468.500000 45.802966
468.500000 46.080139
468.500000 46.358148
468.500000 46.636994
468.500000 46.916675
468.500000 47.197193
468.500000 47.478547
468.500000 47.760736
468.500000 48.043762
468.500000 48.327625
468.500000 48.612323
468.500000 48.897857
468.500000 49.184227
468.500000 49.471434
468.500000 49.759477
468.500000 50.048355
468.500000 50.338070
468.500000 50.628621
468.500000 50.920009
468.500000 51.212232
468.500000 51.505291
468.500000 51.799187
468.500000 52.093918
468.500000 52.389486
468.500000 52.685890
468.500000 52.983130
468.500000 53.281206
468.500000 53.580118
468.500000 53.879867
468.500000 54.180451
468.500000 54.481872
468.500000 54.784128
468.500000 55.087221
468.500000 55.391150
468.500000 55.695915
468.500000 56.001516
468.500000 56.307953
468.500000 56.615227
468.500000 56.923336
468.500000 57.232282
468.500000 57.542064
468.500000 57.852682
468.500000 58.164136
468.500000 58.476426
468.500000 58.789552
468.500000 59.103514
468.500000 59.418313
468.500000 59.733947
468.500000 60.050418
468.500000 60.367725
468.500000 60.685868
468.500000 61.004847
468.500000 61.324662
468.500000 61.645313
468.500000 61.966801
468.500000 62.289124
468.500000 62.612284
468.500000 62.936279
468.500000 63.261111
468.500000 63.586779
468.500000 63.913283
468.500000 64.240624
468.500000 64.568800
468.500000 64.897812
468.500000 65.227661
468.500000 65.558346
468.500000 65.889867
468.500000 66.222223
468.500000 66.555417
468.500000 66.889446
468.500000 67.224311
468.500000 67.560012
468.500000 67.896550
468.500000 68.233924
468.500000 68.572133
468.500000 68.911179
468.500000 69.251061
468.500000 69.591779
468.500000 69.933334
468.500000 70.275724
468.500000 70.618950
468.500000 70.963013
468.500000 71.307912
468.500000 71.653646
468.500000 72.000217
468.500000 72.347624
468.500000 72.695868
468.500000 73.044947
468.500000 73.394862
468.500000 73.745614
468.500000 74.097202
468.500000 74.449625
468.500000 74.802885
468.500000 75.156981
468.500000 75.511913
468.500000 75.867682
468.500000 76.224286
468.500000 76.581726
468.500000 76.940003
468.500000 77.299116
468.500000 77.659064
468.500000 78.019849
468.500000 78.381471
468.500000 78.743928
468.500000 79.107221
468.500000 79.471350
468.500000 79.836316
468.500000 80.202118
468.500000 80.568755
468.500000 80.936229
468.500000 81.304539
468.500000 81.673685
468.500000 82.043668
468.500000 82.414486
468.500000 82.786141
468.500000 83.158631
468.500000 83.531958
468.500000 83.906121
468.500000 84.281120
468.500000 84.656955
468.500000 85.033626
468.500000 85.411133
468.500000 85.789477
468.500000 86.168656
468.500000 86.548672
468.500000 86.929524
468.500000 87.311212
468.500000 87.693736
468.500000 88.077096
468.500000 88.461292
468.500000 88.846324
468.500000 89.232193
468.500000 89.618897
468.500000 90.006438
468.500000 90.394815
468.500000 90.784028
468.500000 91.174077
468.500000 91.564962
468.500000 91.956684
468.500000 92.349241
468.500000 92.742634
468.500000 93.136864
468.500000 93.531930
468.500000 93.927832
468.500000 94.324570
468.500000 94.722144
468.500000 95.120554
468.500000 95.519801
468.500000 95.919883
468.500000 96.320802
468.500000 96.722557
468.500000 97.125147
468.500000 97.528574
468.500000 97.932837
468.500000 98.337937
468.500000 98.743872
468.500000 99.150643
468.500000 99.558251
468.500000 99.966695
468.500000 100.375974
468.500000 100.786090
468.500000 101.197042
468.500000 101.608831
468.500000 102.021455
468.500000 102.434915
468.500000 102.849212
468.500000 103.264344
468.500000 103.680313
468.500000 104.097118
468.500000 104.514759
468.500000 104.933236
468.500000 105.352549
468.500000 105.772699
468.500000 106.193684
468.500000 106.615506
468.500000 107.038163
468.500000 107.461657
468.500000 107.885987
468.500000 108.311153
468.500000 108.737155
468.500000 109.163993
468.500000 109.591668
468.500000 110.020178
468.500000 110.449525
468.500000 110.879708
468.500000 111.310727
468.500000 111.742582
468.500000 112.175273
468.500000 112.608800
468.500000 113.043163
468.500000 113.478363
468.500000 113.914398
468.500000 114.351270
468.500000 114.788978
468.500000 115.227522
468.500000 115.666902
468.500000 116.107118
468.500000 116.548170
468.500000 116.990059
468.500000 117.432783
468.500000 117.876344
468.500000 118.320740
468.500000 118.765973
468.500000 119.212042
468.500000 119.658947
468.500000 120.106689
468.500000 120.555266
468.500000 121.004679
468.500000 121.454929
468.500000 121.906015
468.500000 122.357937
468.500000 122.810695
468.500000 123.264289
468.500000 123.718719
468.500000 124.173985
468.500000 124.630087
468.500000 125.087026
468.500000 125.544801
468.500000 126.003411
468.500000 126.462858
468.500000 126.923141
468.500000 127.384260
468.500000 127.846216
468.500000 128.309007
468.500000 128.772634
468.500000 129.237098
468.500000 129.702398
468.500000 130.168534
468.500000 130.635505
468.500000 131.103314
468.500000 131.571958
468.500000 132.041438
468.500000 132.511754
468.500000 132.982907
468.500000 133.454896
468.500000 133.927720
468.500000 134.401381
468.500000 134.875878
468.500000 135.351211
468.500000 135.827381
468.500000 136.304386
468.500000 136.782227
468.500000 137.260905
468.500000 137.740419
468.500000 138.220769
468.500000 138.701955
468.500000 139.183977
468.500000 139.666835
468.500000 140.150529
468.500000 140.635060
468.500000 141.120426
468.500000 141.606629
468.500000 142.093668
468.500000 142.581542
468.500000 143.070253
468.500000 143.559801
468.500000 144.050184
468.500000 144.541403
468.500000 145.033459
468.500000 145.526350
468.500000 146.020078
468.500000 146.514642
468.500000 147.010042
468.500000 147.506278
468.500000 148.003350
468.500000 148.501258
468.500000 149.000003
468.500000 149.499583
468.500000 150.000000
</POINTS>
</NEKTAR>

