<?xml version="1.0" encoding="utf-8" ?>
<NEKTAR>
<POINTS DIM="2" FIELDS="">
22.500000 -1.250000
22.500000 -1.249578
22.500000 -1.248314
22.500000 -1.246206
22.500000 -1.243255
22.500000 -1.239461
22.500000 -1.234824
22.500000 -1.229344
22.500000 -1.223021
22.500000 -1.215855
22.500000 -1.207846
22.500000 -1.198993
22.500000 -1.189298
22.500000 -1.178759
22.500000 -1.167378
22.500000 -1.155153
22.500000 -1.142085
22.500000 -1.128174
22.500000 -1.113420
22.500000 -1.097823
22.500000 -1.081383
22.500000 -1.064100
22.500000 -1.045973
22.500000 -1.027004
22.500000 -1.007191
22.500000 -0.986536
22.500000 -0.965037
22.500000 -0.942695
22.500000 -0.919510
22.500000 -0.895482
22.500000 -0.870611
22.500000 -0.844897
22.500000 -0.818340
22.500000 -0.790940
22.500000 -0.762696
22.500000 -0.733610
22.500000 -0.703680
22.500000 -0.672908
22.500000 -0.641292
22.500000 -0.608833
22.500000 -0.575531
22.500000 -0.541386
22.500000 -0.506398
22.500000 -0.470567
22.500000 -0.433893
22.500000 -0.396376
22.500000 -0.358015
22.500000 -0.318812
22.500000 -0.278765
22.500000 -0.237876
22.500000 -0.196143
22.500000 -0.153567
22.500000 -0.110148
22.500000 -0.065886
22.500000 -0.020781
22.500000 0.025167
22.500000 0.071958
22.500000 0.119593
22.500000 0.168070
22.500000 0.217391
22.500000 0.267554
22.500000 0.318561
22.500000 0.370411
22.500000 0.423104
22.500000 0.476640
22.500000 0.531019
22.500000 0.586241
22.500000 0.642306
22.500000 0.699214
22.500000 0.756966
22.500000 0.815560
22.500000 0.874998
22.500000 0.935278
22.500000 0.996402
22.500000 1.058369
22.500000 1.121179
22.500000 1.184832
22.500000 1.249328
22.500000 1.314667
22.500000 1.380849
22.500000 1.447874
22.500000 1.515743
22.500000 1.584454
22.500000 1.654009
22.500000 1.724406
22.500000 1.795647
22.500000 1.867731
22.500000 1.940658
22.500000 2.014428
22.500000 2.089041
22.500000 2.164497
22.500000 2.240796
22.500000 2.317939
22.500000 2.395924
22.500000 2.474753
22.500000 2.554424
22.500000 2.634939
22.500000 2.716297
22.500000 2.798498
22.500000 2.881542
22.500000 2.965429
22.500000 3.050159
22.500000 3.135732
22.500000 3.222148
22.500000 3.309408
22.500000 3.397510
22.500000 3.486456
22.500000 3.576244
22.500000 3.666876
22.500000 3.758351
22.500000 3.850669
22.500000 3.943830
22.500000 4.037834
22.500000 4.132681
22.500000 4.228371
22.500000 4.324904
22.500000 4.422281
22.500000 4.520500
22.500000 4.619563
22.500000 4.719468
22.500000 4.820217
22.500000 4.921809
22.500000 5.024244
22.500000 5.127522
22.500000 5.231643
22.500000 5.336607
22.500000 5.442414
22.500000 5.549065
22.500000 5.656558
22.500000 5.764895
22.500000 5.874074
22.500000 5.984097
22.500000 6.094963
22.500000 6.206672
22.500000 6.319224
22.500000 6.432619
22.500000 6.546857
22.500000 6.661938
22.500000 6.777862
22.500000 6.894630
22.500000 7.012240
22.500000 7.130694
22.500000 7.249990
22.500000 7.370130
22.500000 7.491113
22.500000 7.612939
22.500000 7.735608
22.500000 7.859120
22.500000 7.983475
22.500000 8.108673
22.500000 8.234714
22.500000 8.361599
22.500000 8.489326
22.500000 8.617897
22.500000 8.747310
22.500000 8.877567
22.500000 9.008667
22.500000 9.140610
22.500000 9.273396
22.500000 9.407025
22.500000 9.541497
22.500000 9.676812
22.500000 9.812971
22.500000 9.949972
22.500000 10.087817
22.500000 10.226504
22.500000 10.366035
22.500000 10.506409
22.500000 10.647626
22.500000 10.789686
22.500000 10.932589
22.500000 11.076335
22.500000 11.220924
22.500000 11.366356
22.500000 11.512632
22.500000 11.659750
22.500000 11.807712
22.500000 11.956516
22.500000 12.106164
22.500000 12.256655
22.500000 12.407989
22.500000 12.560166
22.500000 12.713186
22.500000 12.867049
22.500000 13.021755
22.500000 13.177304
22.500000 13.333697
22.500000 13.490932
22.500000 13.649011
22.500000 13.807933
22.500000 13.967697
22.500000 14.128305
22.500000 14.289756
22.500000 14.452050
22.500000 14.615187
22.500000 14.779167
22.500000 14.943991
22.500000 15.109657
22.500000 15.276166
22.500000 15.443519
22.500000 15.611714
22.500000 15.780753
22.500000 15.950635
22.500000 16.121360
22.500000 16.292928
22.500000 16.465339
22.500000 16.638593
22.500000 16.812690
22.500000 16.987630
22.500000 17.163414
22.500000 17.340040
22.500000 17.517510
22.500000 17.695822
22.500000 17.874978
22.500000 18.054977
22.500000 18.235819
22.500000 18.417504
22.500000 18.600032
22.500000 18.783403
22.500000 18.967617
22.500000 19.152674
22.500000 19.338575
22.500000 19.525318
22.500000 19.712905
22.500000 19.901335
22.500000 20.090607
22.500000 20.280723
22.500000 20.471682
22.500000 20.663484
22.500000 20.856129
22.500000 21.049617
22.500000 21.243949
22.500000 21.439123
22.500000 21.635140
22.500000 21.832001
22.500000 22.029704
22.500000 22.228251
22.500000 22.427641
22.500000 22.627874
22.500000 22.828950
22.500000 23.030869
22.500000 23.233631
22.500000 23.437236
22.500000 23.641684
22.500000 23.846976
22.500000 24.053110
22.500000 24.260088
22.500000 24.467908
22.500000 24.676572
22.500000 24.886079
22.500000 25.096429
22.500000 25.307622
22.500000 25.519658
22.500000 25.732537
22.500000 25.946259
22.500000 26.160825
22.500000 26.376233
22.500000 26.592484
22.500000 26.809579
22.500000 27.027517
22.500000 27.246297
22.500000 27.465921
22.500000 27.686388
22.500000 27.907698
22.500000 28.129851
22.500000 28.352847
22.500000 28.576687
22.500000 28.801369
22.500000 29.026894
22.500000 29.253263
22.500000 29.480475
22.500000 29.708529
22.500000 29.937427
22.500000 30.167168
22.500000 30.397752
22.500000 30.629179
22.500000 30.861449
22.500000 31.094562
22.500000 31.328518
22.500000 31.563318
22.500000 31.798960
22.500000 32.035446
22.500000 32.272774
22.500000 32.510946
22.500000 32.749961
22.500000 32.989819
22.500000 33.230520
22.500000 33.472064
22.500000 33.714451
22.500000 33.957681
22.500000 34.201755
22.500000 34.446671
22.500000 34.692430
22.500000 34.939033
22.500000 35.186479
22.500000 35.434767
22.500000 35.683899
22.500000 35.933874
22.500000 36.184692
22.500000 36.436353
22.500000 36.688857
22.500000 36.942205
22.500000 37.196395
22.500000 37.451429
22.500000 37.707305
22.500000 37.964025
22.500000 38.221587
22.500000 38.479993
22.500000 38.739242
22.500000 38.999334
22.500000 39.260269
22.500000 39.522047
22.500000 39.784668
22.500000 40.048133
22.500000 40.312440
22.500000 40.577590
22.500000 40.843584
22.500000 41.110421
22.500000 41.378100
22.500000 41.646623
22.500000 41.915989
22.500000 42.186198
22.500000 42.457250
22.500000 42.729145
22.500000 43.001883
22.500000 43.275465
22.500000 43.549889
22.500000 43.825157
22.500000 44.101267
22.500000 44.378221
22.500000 44.656018
22.500000 44.934657
22.500000 45.214140
22.500000 45.494466
22.500000 45.775635
22.500000 46.057648
22.500000 46.340503
22.500000 46.624201
22.500000 46.908743
22.500000 47.194127
22.500000 47.480355
22.500000 47.767425
22.500000 48.055339
22.500000 48.344096
22.500000 48.633696
22.500000 48.924139
22.500000 49.215425
22.500000 49.507554
22.500000 49.800527
22.500000 50.094342
22.500000 50.389000
22.500000 50.684502
22.500000 50.980847
22.500000 51.278034
22.500000 51.576065
22.500000 51.874939
22.500000 52.174656
22.500000 52.475216
22.500000 52.776619
22.500000 53.078865
22.500000 53.381955
22.500000 53.685887
22.500000 53.990663
22.500000 54.296281
22.500000 54.602743
22.500000 54.910048
22.500000 55.218195
22.500000 55.527186
22.500000 55.837020
22.500000 56.147697
22.500000 56.459218
22.500000 56.771581
22.500000 57.084787
22.500000 57.398837
22.500000 57.713729
22.500000 58.029465
22.500000 58.346043
22.500000 58.663465
22.500000 58.981730
22.500000 59.300838
22.500000 59.620789
22.500000 59.941583
22.500000 60.263220
22.500000 60.585701
22.500000 60.909024
22.500000 61.233191
22.500000 61.558200
22.500000 61.884053
22.500000 62.210748
22.500000 62.538287
22.500000 62.866669
22.500000 63.195894
22.500000 63.525962
22.500000 63.856873
22.500000 64.188628
22.500000 64.521225
22.500000 64.854665
22.500000 65.188949
22.500000 65.524075
22.500000 65.860045
22.500000 66.196858
22.500000 66.534514
22.500000 66.873012
22.500000 67.212354
22.500000 67.552540
22.500000 67.893568
22.500000 68.235439
22.500000 68.578153
22.500000 68.921711
22.500000 69.266111
22.500000 69.611355
22.500000 69.957442
22.500000 70.304371
22.500000 70.652144
22.500000 71.000760
22.500000 71.350219
22.500000 71.700521
22.500000 72.051667
22.500000 72.403655
22.500000 72.756486
22.500000 73.110161
22.500000 73.464678
22.500000 73.820039
22.500000 74.176243
22.500000 74.533289
22.500000 74.891179
22.500000 75.249912
22.500000 75.609488
22.500000 75.969907
22.500000 76.331170
22.500000 76.693275
22.500000 77.056223
22.500000 77.420015
22.500000 77.784649
22.500000 78.150127
22.500000 78.516448
22.500000 78.883612
22.500000 79.251619
22.500000 79.620469
22.500000 79.990162
22.500000 80.360698
22.500000 80.732077
22.500000 81.104299
22.500000 81.477365
22.500000 81.851273
22.500000 82.226025
22.500000 82.601620
22.500000 82.978057
22.500000 83.355338
22.500000 83.733462
22.500000 84.112429
22.500000 84.492239
22.500000 84.872893
22.500000 85.254389
22.500000 85.636728
22.500000 86.019911
22.500000 86.403936
22.500000 86.788805
22.500000 87.174517
22.500000 87.561071
22.500000 87.948469
22.500000 88.336710
22.500000 88.725794
22.500000 89.115722
22.500000 89.506492
22.500000 89.898105
22.500000 90.290561
22.500000 90.683861
22.500000 91.078004
22.500000 91.472989
22.500000 91.868818
22.500000 92.265490
22.500000 92.663005
22.500000 93.061363
22.500000 93.460564
22.500000 93.860608
22.500000 94.261495
22.500000 94.663226
22.500000 95.065799
22.500000 95.469216
22.500000 95.873475
22.500000 96.278578
22.500000 96.684524
22.500000 97.091312
22.500000 97.498944
22.500000 97.907419
22.500000 98.316738
22.500000 98.726899
22.500000 99.137903
22.500000 99.549750
22.500000 99.962441
22.500000 100.375974
22.500000 100.790351
22.500000 101.205571
22.500000 101.621634
22.500000 102.038539
22.500000 102.456288
22.500000 102.874881
22.500000 103.294316
22.500000 103.714594
22.500000 104.135715
22.500000 104.557680
22.500000 104.980487
22.500000 105.404138
22.500000 105.828631
22.500000 106.253968
22.500000 106.680148
22.500000 107.107171
22.500000 107.535037
22.500000 107.963746
22.500000 108.393298
22.500000 108.823693
22.500000 109.254932
22.500000 109.687013
22.500000 110.119938
22.500000 110.553705
22.500000 110.988316
22.500000 111.423770
22.500000 111.860067
22.500000 112.297207
22.500000 112.735190
22.500000 113.174016
22.500000 113.613685
22.500000 114.054197
22.500000 114.495553
22.500000 114.937751
22.500000 115.380793
22.500000 115.824677
22.500000 116.269405
22.500000 116.714976
22.500000 117.161390
22.500000 117.608647
22.500000 118.056747
22.500000 118.505690
22.500000 118.955476
22.500000 119.406105
22.500000 119.857578
22.500000 120.309893
22.500000 120.763052
22.500000 121.217053
22.500000 121.671898
22.500000 122.127586
22.500000 122.584117
22.500000 123.041491
22.500000 123.499708
22.500000 123.958768
22.500000 124.418671
22.500000 124.879418
22.500000 125.341007
22.500000 125.803440
22.500000 126.266715
22.500000 126.730834
22.500000 127.195796
22.500000 127.661601
22.500000 128.128249
22.500000 128.595740
22.500000 129.064074
22.500000 129.533251
22.500000 130.003271
22.500000 130.474135
22.500000 130.945841
22.500000 131.418391
22.500000 131.891783
22.500000 132.366019
22.500000 132.841098
22.500000 133.317020
22.500000 133.793785
22.500000 134.271393
22.500000 134.749844
22.500000 135.229138
22.500000 135.709275
22.500000 136.190256
22.500000 136.672079
22.500000 137.154746
22.500000 137.638256
22.500000 138.122608
22.500000 138.607804
22.500000 139.093843
22.500000 139.580725
22.500000 140.068450
22.500000 140.557018
22.500000 141.046430
22.500000 141.536684
22.500000 142.027781
22.500000 142.519722
22.500000 143.012506
22.500000 143.506132
22.500000 144.000602
22.500000 144.495915
22.500000 144.992071
22.500000 145.489070
22.500000 145.986912
22.500000 146.485597
22.500000 146.985125
22.500000 147.485497
22.500000 147.986711
22.500000 148.488769
22.500000 148.991669
22.500000 149.495413
22.500000 150.000000
</POINTS>
</NEKTAR>

