<?xml version="1.0" encoding="utf-8" ?>
<NEKTAR>
<POINTS DIM="2" FIELDS="">
14.500000 -1.250000
14.500000 -1.249578
14.500000 -1.248314
14.500000 -1.246206
14.500000 -1.243255
14.500000 -1.239461
14.500000 -1.234824
14.500000 -1.229344
14.500000 -1.223021
14.500000 -1.215855
14.500000 -1.207846
14.500000 -1.198993
14.500000 -1.189298
14.500000 -1.178759
14.500000 -1.167378
14.500000 -1.155153
14.500000 -1.142085
14.500000 -1.128174
14.500000 -1.113420
14.500000 -1.097823
14.500000 -1.081383
14.500000 -1.064100
14.500000 -1.045973
14.500000 -1.027004
14.500000 -1.007191
14.500000 -0.986536
14.500000 -0.965037
14.500000 -0.942695
14.500000 -0.919510
14.500000 -0.895482
14.500000 -0.870611
14.500000 -0.844897
14.500000 -0.818340
14.500000 -0.790940
14.500000 -0.762696
14.500000 -0.733610
14.500000 -0.703680
14.500000 -0.672908
14.500000 -0.641292
14.500000 -0.608833
14.500000 -0.575531
14.500000 -0.541386
14.500000 -0.506398
14.500000 -0.470567
14.500000 -0.433893
14.500000 -0.396376
14.500000 -0.358015
14.500000 -0.318812
14.500000 -0.278765
14.500000 -0.237876
14.500000 -0.196143
14.500000 -0.153567
14.500000 -0.110148
14.500000 -0.065886
14.500000 -0.020781
14.500000 0.025167
14.500000 0.071958
14.500000 0.119593
14.500000 0.168070
14.500000 0.217391
14.500000 0.267554
14.500000 0.318561
14.500000 0.370411
14.500000 0.423104
14.500000 0.476640
14.500000 0.531019
14.500000 0.586241
14.500000 0.642306
14.500000 0.699214
14.500000 0.756966
14.500000 0.815560
14.500000 0.874998
14.500000 0.935278
14.500000 0.996402
14.500000 1.058369
14.500000 1.121179
14.500000 1.184832
14.500000 1.249328
14.500000 1.314667
14.500000 1.380849
14.500000 1.447874
14.500000 1.515743
14.500000 1.584454
14.500000 1.654009
14.500000 1.724406
14.500000 1.795647
14.500000 1.867731
14.500000 1.940658
14.500000 2.014428
14.500000 2.089041
14.500000 2.164497
14.500000 2.240796
14.500000 2.317939
14.500000 2.395924
14.500000 2.474753
14.500000 2.554424
14.500000 2.634939
14.500000 2.716297
14.500000 2.798498
14.500000 2.881542
14.500000 2.965429
14.500000 3.050159
14.500000 3.135732
14.500000 3.222148
14.500000 3.309408
14.500000 3.397510
14.500000 3.486456
14.500000 3.576244
14.500000 3.666876
14.500000 3.758351
14.500000 3.850669
14.500000 3.943830
14.500000 4.037834
14.500000 4.132681
14.500000 4.228371
14.500000 4.324904
14.500000 4.422281
14.500000 4.520500
14.500000 4.619563
14.500000 4.719468
14.500000 4.820217
14.500000 4.921809
14.500000 5.024244
14.500000 5.127522
14.500000 5.231643
14.500000 5.336607
14.500000 5.442414
14.500000 5.549065
14.500000 5.656558
14.500000 5.764895
14.500000 5.874074
14.500000 5.984097
14.500000 6.094963
14.500000 6.206672
14.500000 6.319224
14.500000 6.432619
14.500000 6.546857
14.500000 6.661938
14.500000 6.777862
14.500000 6.894630
14.500000 7.012240
14.500000 7.130694
14.500000 7.249990
14.500000 7.370130
14.500000 7.491113
14.500000 7.612939
14.500000 7.735608
14.500000 7.859120
14.500000 7.983475
14.500000 8.108673
14.500000 8.234714
14.500000 8.361599
14.500000 8.489326
14.500000 8.617897
14.500000 8.747310
14.500000 8.877567
14.500000 9.008667
14.500000 9.140610
14.500000 9.273396
14.500000 9.407025
14.500000 9.541497
14.500000 9.676812
14.500000 9.812971
14.500000 9.949972
14.500000 10.087817
14.500000 10.226504
14.500000 10.366035
14.500000 10.506409
14.500000 10.647626
14.500000 10.789686
14.500000 10.932589
14.500000 11.076335
14.500000 11.220924
14.500000 11.366356
14.500000 11.512632
14.500000 11.659750
14.500000 11.807712
14.500000 11.956516
14.500000 12.106164
14.500000 12.256655
14.500000 12.407989
14.500000 12.560166
14.500000 12.713186
14.500000 12.867049
14.500000 13.021755
14.500000 13.177304
14.500000 13.333697
14.500000 13.490932
14.500000 13.649011
14.500000 13.807933
14.500000 13.967697
14.500000 14.128305
14.500000 14.289756
14.500000 14.452050
14.500000 14.615187
14.500000 14.779167
14.500000 14.943991
14.500000 15.109657
14.500000 15.276166
14.500000 15.443519
14.500000 15.611714
14.500000 15.780753
14.500000 15.950635
14.500000 16.121360
14.500000 16.292928
14.500000 16.465339
14.500000 16.638593
14.500000 16.812690
14.500000 16.987630
14.500000 17.163414
14.500000 17.340040
14.500000 17.517510
14.500000 17.695822
14.500000 17.874978
14.500000 18.054977
14.500000 18.235819
14.500000 18.417504
14.500000 18.600032
14.500000 18.783403
14.500000 18.967617
14.500000 19.152674
14.500000 19.338575
14.500000 19.525318
14.500000 19.712905
14.500000 19.901335
14.500000 20.090607
14.500000 20.280723
14.500000 20.471682
14.500000 20.663484
14.500000 20.856129
14.500000 21.049617
14.500000 21.243949
14.500000 21.439123
14.500000 21.635140
14.500000 21.832001
14.500000 22.029704
14.500000 22.228251
14.500000 22.427641
14.500000 22.627874
14.500000 22.828950
14.500000 23.030869
14.500000 23.233631
14.500000 23.437236
14.500000 23.641684
14.500000 23.846976
14.500000 24.053110
14.500000 24.260088
14.500000 24.467908
14.500000 24.676572
14.500000 24.886079
14.500000 25.096429
14.500000 25.307622
14.500000 25.519658
14.500000 25.732537
14.500000 25.946259
14.500000 26.160825
14.500000 26.376233
14.500000 26.592484
14.500000 26.809579
14.500000 27.027517
14.500000 27.246297
14.500000 27.465921
14.500000 27.686388
14.500000 27.907698
14.500000 28.129851
14.500000 28.352847
14.500000 28.576687
14.500000 28.801369
14.500000 29.026894
14.500000 29.253263
14.500000 29.480475
14.500000 29.708529
14.500000 29.937427
14.500000 30.167168
14.500000 30.397752
14.500000 30.629179
14.500000 30.861449
14.500000 31.094562
14.500000 31.328518
14.500000 31.563318
14.500000 31.798960
14.500000 32.035446
14.500000 32.272774
14.500000 32.510946
14.500000 32.749961
14.500000 32.989819
14.500000 33.230520
14.500000 33.472064
14.500000 33.714451
14.500000 33.957681
14.500000 34.201755
14.500000 34.446671
14.500000 34.692430
14.500000 34.939033
14.500000 35.186479
14.500000 35.434767
14.500000 35.683899
14.500000 35.933874
14.500000 36.184692
14.500000 36.436353
14.500000 36.688857
14.500000 36.942205
14.500000 37.196395
14.500000 37.451429
14.500000 37.707305
14.500000 37.964025
14.500000 38.221587
14.500000 38.479993
14.500000 38.739242
14.500000 38.999334
14.500000 39.260269
14.500000 39.522047
14.500000 39.784668
14.500000 40.048133
14.500000 40.312440
14.500000 40.577590
14.500000 40.843584
14.500000 41.110421
14.500000 41.378100
14.500000 41.646623
14.500000 41.915989
14.500000 42.186198
14.500000 42.457250
14.500000 42.729145
14.500000 43.001883
14.500000 43.275465
14.500000 43.549889
14.500000 43.825157
14.500000 44.101267
14.500000 44.378221
14.500000 44.656018
14.500000 44.934657
14.500000 45.214140
14.500000 45.494466
14.500000 45.775635
14.500000 46.057648
14.500000 46.340503
14.500000 46.624201
14.500000 46.908743
14.500000 47.194127
14.500000 47.480355
14.500000 47.767425
14.500000 48.055339
14.500000 48.344096
14.500000 48.633696
14.500000 48.924139
14.500000 49.215425
14.500000 49.507554
14.500000 49.800527
14.500000 50.094342
14.500000 50.389000
14.500000 50.684502
14.500000 50.980847
14.500000 51.278034
14.500000 51.576065
14.500000 51.874939
14.500000 52.174656
14.500000 52.475216
14.500000 52.776619
14.500000 53.078865
14.500000 53.381955
14.500000 53.685887
14.500000 53.990663
14.500000 54.296281
14.500000 54.602743
14.500000 54.910048
14.500000 55.218195
14.500000 55.527186
14.500000 55.837020
14.500000 56.147697
14.500000 56.459218
14.500000 56.771581
14.500000 57.084787
14.500000 57.398837
14.500000 57.713729
14.500000 58.029465
14.500000 58.346043
14.500000 58.663465
14.500000 58.981730
14.500000 59.300838
14.500000 59.620789
14.500000 59.941583
14.500000 60.263220
14.500000 60.585701
14.500000 60.909024
14.500000 61.233191
14.500000 61.558200
14.500000 61.884053
14.500000 62.210748
14.500000 62.538287
14.500000 62.866669
14.500000 63.195894
14.500000 63.525962
14.500000 63.856873
14.500000 64.188628
14.500000 64.521225
14.500000 64.854665
14.500000 65.188949
14.500000 65.524075
14.500000 65.860045
14.500000 66.196858
14.500000 66.534514
14.500000 66.873012
14.500000 67.212354
14.500000 67.552540
14.500000 67.893568
14.500000 68.235439
14.500000 68.578153
14.500000 68.921711
14.500000 69.266111
14.500000 69.611355
14.500000 69.957442
14.500000 70.304371
14.500000 70.652144
14.500000 71.000760
14.500000 71.350219
14.500000 71.700521
14.500000 72.051667
14.500000 72.403655
14.500000 72.756486
14.500000 73.110161
14.500000 73.464678
14.500000 73.820039
14.500000 74.176243
14.500000 74.533289
14.500000 74.891179
14.500000 75.249912
14.500000 75.609488
14.500000 75.969907
14.500000 76.331170
14.500000 76.693275
14.500000 77.056223
14.500000 77.420015
14.500000 77.784649
14.500000 78.150127
14.500000 78.516448
14.500000 78.883612
14.500000 79.251619
14.500000 79.620469
14.500000 79.990162
14.500000 80.360698
14.500000 80.732077
14.500000 81.104299
14.500000 81.477365
14.500000 81.851273
14.500000 82.226025
14.500000 82.601620
14.500000 82.978057
14.500000 83.355338
14.500000 83.733462
14.500000 84.112429
14.500000 84.492239
14.500000 84.872893
14.500000 85.254389
14.500000 85.636728
14.500000 86.019911
14.500000 86.403936
14.500000 86.788805
14.500000 87.174517
14.500000 87.561071
14.500000 87.948469
14.500000 88.336710
14.500000 88.725794
14.500000 89.115722
14.500000 89.506492
14.500000 89.898105
14.500000 90.290561
14.500000 90.683861
14.500000 91.078004
14.500000 91.472989
14.500000 91.868818
14.500000 92.265490
14.500000 92.663005
14.500000 93.061363
14.500000 93.460564
14.500000 93.860608
14.500000 94.261495
14.500000 94.663226
14.500000 95.065799
14.500000 95.469216
14.500000 95.873475
14.500000 96.278578
14.500000 96.684524
14.500000 97.091312
14.500000 97.498944
14.500000 97.907419
14.500000 98.316738
14.500000 98.726899
14.500000 99.137903
14.500000 99.549750
14.500000 99.962441
14.500000 100.375974
14.500000 100.790351
14.500000 101.205571
14.500000 101.621634
14.500000 102.038539
14.500000 102.456288
14.500000 102.874881
14.500000 103.294316
14.500000 103.714594
14.500000 104.135715
14.500000 104.557680
14.500000 104.980487
14.500000 105.404138
14.500000 105.828631
14.500000 106.253968
14.500000 106.680148
14.500000 107.107171
14.500000 107.535037
14.500000 107.963746
14.500000 108.393298
14.500000 108.823693
14.500000 109.254932
14.500000 109.687013
14.500000 110.119938
14.500000 110.553705
14.500000 110.988316
14.500000 111.423770
14.500000 111.860067
14.500000 112.297207
14.500000 112.735190
14.500000 113.174016
14.500000 113.613685
14.500000 114.054197
14.500000 114.495553
14.500000 114.937751
14.500000 115.380793
14.500000 115.824677
14.500000 116.269405
14.500000 116.714976
14.500000 117.161390
14.500000 117.608647
14.500000 118.056747
14.500000 118.505690
14.500000 118.955476
14.500000 119.406105
14.500000 119.857578
14.500000 120.309893
14.500000 120.763052
14.500000 121.217053
14.500000 121.671898
14.500000 122.127586
14.500000 122.584117
14.500000 123.041491
14.500000 123.499708
14.500000 123.958768
14.500000 124.418671
14.500000 124.879418
14.500000 125.341007
14.500000 125.803440
14.500000 126.266715
14.500000 126.730834
14.500000 127.195796
14.500000 127.661601
14.500000 128.128249
14.500000 128.595740
14.500000 129.064074
14.500000 129.533251
14.500000 130.003271
14.500000 130.474135
14.500000 130.945841
14.500000 131.418391
14.500000 131.891783
14.500000 132.366019
14.500000 132.841098
14.500000 133.317020
14.500000 133.793785
14.500000 134.271393
14.500000 134.749844
14.500000 135.229138
14.500000 135.709275
14.500000 136.190256
14.500000 136.672079
14.500000 137.154746
14.500000 137.638256
14.500000 138.122608
14.500000 138.607804
14.500000 139.093843
14.500000 139.580725
14.500000 140.068450
14.500000 140.557018
14.500000 141.046430
14.500000 141.536684
14.500000 142.027781
14.500000 142.519722
14.500000 143.012506
14.500000 143.506132
14.500000 144.000602
14.500000 144.495915
14.500000 144.992071
14.500000 145.489070
14.500000 145.986912
14.500000 146.485597
14.500000 146.985125
14.500000 147.485497
14.500000 147.986711
14.500000 148.488769
14.500000 148.991669
14.500000 149.495413
14.500000 150.000000
</POINTS>
</NEKTAR>

