<?xml version="1.0" encoding="utf-8" ?>
<NEKTAR>
<POINTS DIM="2" FIELDS="">
583.500000 0.000000
583.500000 0.000418
583.500000 0.001672
583.500000 0.003763
583.500000 0.006689
583.500000 0.010451
583.500000 0.015050
583.500000 0.020485
583.500000 0.026756
583.500000 0.033863
583.500000 0.041806
583.500000 0.050585
583.500000 0.060201
583.500000 0.070652
583.500000 0.081940
583.500000 0.094063
583.500000 0.107023
583.500000 0.120819
583.500000 0.135451
583.500000 0.150919
583.500000 0.167224
583.500000 0.184364
583.500000 0.202341
583.500000 0.221153
583.500000 0.240802
583.500000 0.261287
583.500000 0.282608
583.500000 0.304765
583.500000 0.327758
583.500000 0.351588
583.500000 0.376253
583.500000 0.401755
583.500000 0.428092
583.500000 0.455266
583.500000 0.483276
583.500000 0.512122
583.500000 0.541805
583.500000 0.572323
583.500000 0.603677
583.500000 0.635868
583.500000 0.668894
583.500000 0.702757
583.500000 0.737456
583.500000 0.772991
583.500000 0.809362
583.500000 0.846570
583.500000 0.884613
583.500000 0.923492
583.500000 0.963208
583.500000 1.003760
583.500000 1.045148
583.500000 1.087372
583.500000 1.130432
583.500000 1.174328
583.500000 1.219060
583.500000 1.264629
583.500000 1.311033
583.500000 1.358274
583.500000 1.406351
583.500000 1.455264
583.500000 1.505013
583.500000 1.555598
583.500000 1.607019
583.500000 1.659276
583.500000 1.712370
583.500000 1.766299
583.500000 1.821065
583.500000 1.876667
583.500000 1.933105
583.500000 1.990379
583.500000 2.048489
583.500000 2.107436
583.500000 2.167218
583.500000 2.227837
583.500000 2.289291
583.500000 2.351582
583.500000 2.414709
583.500000 2.478672
583.500000 2.543471
583.500000 2.609106
583.500000 2.675578
583.500000 2.742885
583.500000 2.811029
583.500000 2.880009
583.500000 2.949825
583.500000 3.020477
583.500000 3.091965
583.500000 3.164289
583.500000 3.237449
583.500000 3.311446
583.500000 3.386278
583.500000 3.461947
583.500000 3.538452
583.500000 3.615793
583.500000 3.693970
583.500000 3.772983
583.500000 3.852832
583.500000 3.933517
583.500000 4.015039
583.500000 4.097397
583.500000 4.180590
583.500000 4.264620
583.500000 4.349486
583.500000 4.435188
583.500000 4.521727
583.500000 4.609101
583.500000 4.697311
583.500000 4.786358
583.500000 4.876241
583.500000 4.966959
583.500000 5.058514
583.500000 5.150905
583.500000 5.244133
583.500000 5.338196
583.500000 5.433095
583.500000 5.528831
583.500000 5.625402
583.500000 5.722810
583.500000 5.821054
583.500000 5.920134
583.500000 6.020050
583.500000 6.120802
583.500000 6.222391
583.500000 6.324815
583.500000 6.428076
583.500000 6.532172
583.500000 6.637105
583.500000 6.742874
583.500000 6.849479
583.500000 6.956920
583.500000 7.065198
583.500000 7.174311
583.500000 7.284261
583.500000 7.395046
583.500000 7.506668
583.500000 7.619126
583.500000 7.732420
583.500000 7.846550
583.500000 7.961516
583.500000 8.077319
583.500000 8.193957
583.500000 8.311432
583.500000 8.429742
583.500000 8.548889
583.500000 8.668872
583.500000 8.789691
583.500000 8.911346
583.500000 9.033838
583.500000 9.157165
583.500000 9.281329
583.500000 9.406328
583.500000 9.532164
583.500000 9.658836
583.500000 9.786344
583.500000 9.914688
583.500000 10.043868
583.500000 10.173885
583.500000 10.304737
583.500000 10.436426
583.500000 10.568950
583.500000 10.702311
583.500000 10.836508
583.500000 10.971541
583.500000 11.107411
583.500000 11.244116
583.500000 11.381657
583.500000 11.520035
583.500000 11.659248
583.500000 11.799298
583.500000 11.940184
583.500000 12.081906
583.500000 12.224464
583.500000 12.367859
583.500000 12.512089
583.500000 12.657155
583.500000 12.803058
583.500000 12.949797
583.500000 13.097372
583.500000 13.245782
583.500000 13.395030
583.500000 13.545113
583.500000 13.696032
583.500000 13.847787
583.500000 14.000379
583.500000 14.153807
583.500000 14.308070
583.500000 14.463170
583.500000 14.619106
583.500000 14.775879
583.500000 14.933487
583.500000 15.091931
583.500000 15.251212
583.500000 15.411328
583.500000 15.572281
583.500000 15.734070
583.500000 15.896695
583.500000 16.060156
583.500000 16.224453
583.500000 16.389586
583.500000 16.555556
583.500000 16.722361
583.500000 16.890003
583.500000 17.058481
583.500000 17.227795
583.500000 17.397945
583.500000 17.568931
583.500000 17.740753
583.500000 17.913412
583.500000 18.086906
583.500000 18.261237
583.500000 18.436403
583.500000 18.612406
583.500000 18.789245
583.500000 18.966920
583.500000 19.145432
583.500000 19.324779
583.500000 19.504962
583.500000 19.685982
583.500000 19.867838
583.500000 20.050529
583.500000 20.234057
583.500000 20.418421
583.500000 20.603622
583.500000 20.789658
583.500000 20.976530
583.500000 21.164239
583.500000 21.352783
583.500000 21.542164
583.500000 21.732381
583.500000 21.923434
583.500000 22.115323
583.500000 22.308048
583.500000 22.501610
583.500000 22.696007
583.500000 22.891241
583.500000 23.087310
583.500000 23.284216
583.500000 23.481958
583.500000 23.680536
583.500000 23.879950
583.500000 24.080200
583.500000 24.281287
583.500000 24.483209
583.500000 24.685968
583.500000 24.889563
583.500000 25.093994
583.500000 25.299261
583.500000 25.505364
583.500000 25.712303
583.500000 25.920078
583.500000 26.128690
583.500000 26.338137
583.500000 26.548421
583.500000 26.759541
583.500000 26.971497
583.500000 27.184289
583.500000 27.397917
583.500000 27.612381
583.500000 27.827682
583.500000 28.043818
583.500000 28.260791
583.500000 28.478600
583.500000 28.697244
583.500000 28.916725
583.500000 29.137043
583.500000 29.358196
583.500000 29.580185
583.500000 29.803011
583.500000 30.026672
583.500000 30.251170
583.500000 30.476504
583.500000 30.702674
583.500000 30.929680
583.500000 31.157522
583.500000 31.386200
583.500000 31.615715
583.500000 31.846065
583.500000 32.077252
583.500000 32.309275
583.500000 32.542133
583.500000 32.775828
583.500000 33.010360
583.500000 33.245727
583.500000 33.481930
583.500000 33.718970
583.500000 33.956845
583.500000 34.195557
583.500000 34.435105
583.500000 34.675489
583.500000 34.916709
583.500000 35.158765
583.500000 35.401657
583.500000 35.645386
583.500000 35.889950
583.500000 36.135351
583.500000 36.381588
583.500000 36.628660
583.500000 36.876569
583.500000 37.125315
583.500000 37.374896
583.500000 37.625313
583.500000 37.876567
583.500000 38.128656
583.500000 38.381582
583.500000 38.635344
583.500000 38.889942
583.500000 39.145376
583.500000 39.401646
583.500000 39.658752
583.500000 39.916695
583.500000 40.175473
583.500000 40.435088
583.500000 40.695539
583.500000 40.956826
583.500000 41.218949
583.500000 41.481908
583.500000 41.745703
583.500000 42.010334
583.500000 42.275802
583.500000 42.542106
583.500000 42.809245
583.500000 43.077221
583.500000 43.346033
583.500000 43.615681
583.500000 43.886165
583.500000 44.157486
583.500000 44.429642
583.500000 44.702635
583.500000 44.976463
583.500000 45.251128
583.500000 45.526629
583.500000 45.802966
583.500000 46.080139
583.500000 46.358148
583.500000 46.636994
583.500000 46.916675
583.500000 47.197193
583.500000 47.478547
583.500000 47.760736
583.500000 48.043762
583.500000 48.327625
583.500000 48.612323
583.500000 48.897857
583.500000 49.184227
583.500000 49.471434
583.500000 49.759477
583.500000 50.048355
583.500000 50.338070
583.500000 50.628621
583.500000 50.920009
583.500000 51.212232
583.500000 51.505291
583.500000 51.799187
583.500000 52.093918
583.500000 52.389486
583.500000 52.685890
583.500000 52.983130
583.500000 53.281206
583.500000 53.580118
583.500000 53.879867
583.500000 54.180451
583.500000 54.481872
583.500000 54.784128
583.500000 55.087221
583.500000 55.391150
583.500000 55.695915
583.500000 56.001516
583.500000 56.307953
583.500000 56.615227
583.500000 56.923336
583.500000 57.232282
583.500000 57.542064
583.500000 57.852682
583.500000 58.164136
583.500000 58.476426
583.500000 58.789552
583.500000 59.103514
583.500000 59.418313
583.500000 59.733947
583.500000 60.050418
583.500000 60.367725
583.500000 60.685868
583.500000 61.004847
583.500000 61.324662
583.500000 61.645313
583.500000 61.966801
583.500000 62.289124
583.500000 62.612284
583.500000 62.936279
583.500000 63.261111
583.500000 63.586779
583.500000 63.913283
583.500000 64.240624
583.500000 64.568800
583.500000 64.897812
583.500000 65.227661
583.500000 65.558346
583.500000 65.889867
583.500000 66.222223
583.500000 66.555417
583.500000 66.889446
583.500000 67.224311
583.500000 67.560012
583.500000 67.896550
583.500000 68.233924
583.500000 68.572133
583.500000 68.911179
583.500000 69.251061
583.500000 69.591779
583.500000 69.933334
583.500000 70.275724
583.500000 70.618950
583.500000 70.963013
583.500000 71.307912
583.500000 71.653646
583.500000 72.000217
583.500000 72.347624
583.500000 72.695868
583.500000 73.044947
583.500000 73.394862
583.500000 73.745614
583.500000 74.097202
583.500000 74.449625
583.500000 74.802885
583.500000 75.156981
583.500000 75.511913
583.500000 75.867682
583.500000 76.224286
583.500000 76.581726
583.500000 76.940003
583.500000 77.299116
583.500000 77.659064
583.500000 78.019849
583.500000 78.381471
583.500000 78.743928
583.500000 79.107221
583.500000 79.471350
583.500000 79.836316
583.500000 80.202118
583.500000 80.568755
583.500000 80.936229
583.500000 81.304539
583.500000 81.673685
583.500000 82.043668
583.500000 82.414486
583.500000 82.786141
583.500000 83.158631
583.500000 83.531958
583.500000 83.906121
583.500000 84.281120
583.500000 84.656955
583.500000 85.033626
583.500000 85.411133
583.500000 85.789477
583.500000 86.168656
583.500000 86.548672
583.500000 86.929524
583.500000 87.311212
583.500000 87.693736
583.500000 88.077096
583.500000 88.461292
583.500000 88.846324
583.500000 89.232193
583.500000 89.618897
583.500000 90.006438
583.500000 90.394815
583.500000 90.784028
583.500000 91.174077
583.500000 91.564962
583.500000 91.956684
583.500000 92.349241
583.500000 92.742634
583.500000 93.136864
583.500000 93.531930
583.500000 93.927832
583.500000 94.324570
583.500000 94.722144
583.500000 95.120554
583.500000 95.519801
583.500000 95.919883
583.500000 96.320802
583.500000 96.722557
583.500000 97.125147
583.500000 97.528574
583.500000 97.932837
583.500000 98.337937
583.500000 98.743872
583.500000 99.150643
583.500000 99.558251
583.500000 99.966695
583.500000 100.375974
583.500000 100.786090
583.500000 101.197042
583.500000 101.608831
583.500000 102.021455
583.500000 102.434915
583.500000 102.849212
583.500000 103.264344
583.500000 103.680313
583.500000 104.097118
583.500000 104.514759
583.500000 104.933236
583.500000 105.352549
583.500000 105.772699
583.500000 106.193684
583.500000 106.615506
583.500000 107.038163
583.500000 107.461657
583.500000 107.885987
583.500000 108.311153
583.500000 108.737155
583.500000 109.163993
583.500000 109.591668
583.500000 110.020178
583.500000 110.449525
583.500000 110.879708
583.500000 111.310727
583.500000 111.742582
583.500000 112.175273
583.500000 112.608800
583.500000 113.043163
583.500000 113.478363
583.500000 113.914398
583.500000 114.351270
583.500000 114.788978
583.500000 115.227522
583.500000 115.666902
583.500000 116.107118
583.500000 116.548170
583.500000 116.990059
583.500000 117.432783
583.500000 117.876344
583.500000 118.320740
583.500000 118.765973
583.500000 119.212042
583.500000 119.658947
583.500000 120.106689
583.500000 120.555266
583.500000 121.004679
583.500000 121.454929
583.500000 121.906015
583.500000 122.357937
583.500000 122.810695
583.500000 123.264289
583.500000 123.718719
583.500000 124.173985
583.500000 124.630087
583.500000 125.087026
583.500000 125.544801
583.500000 126.003411
583.500000 126.462858
583.500000 126.923141
583.500000 127.384260
583.500000 127.846216
583.500000 128.309007
583.500000 128.772634
583.500000 129.237098
583.500000 129.702398
583.500000 130.168534
583.500000 130.635505
583.500000 131.103314
583.500000 131.571958
583.500000 132.041438
583.500000 132.511754
583.500000 132.982907
583.500000 133.454896
583.500000 133.927720
583.500000 134.401381
583.500000 134.875878
583.500000 135.351211
583.500000 135.827381
583.500000 136.304386
583.500000 136.782227
583.500000 137.260905
583.500000 137.740419
583.500000 138.220769
583.500000 138.701955
583.500000 139.183977
583.500000 139.666835
583.500000 140.150529
583.500000 140.635060
583.500000 141.120426
583.500000 141.606629
583.500000 142.093668
583.500000 142.581542
583.500000 143.070253
583.500000 143.559801
583.500000 144.050184
583.500000 144.541403
583.500000 145.033459
583.500000 145.526350
583.500000 146.020078
583.500000 146.514642
583.500000 147.010042
583.500000 147.506278
583.500000 148.003350
583.500000 148.501258
583.500000 149.000003
583.500000 149.499583
583.500000 150.000000
</POINTS>
</NEKTAR>

