<?xml version="1.0" encoding="utf-8" ?>
<NEKTAR>
<POINTS DIM="2" FIELDS="">
17.500000 -1.250000
17.500000 -1.249578
17.500000 -1.248314
17.500000 -1.246206
17.500000 -1.243255
17.500000 -1.239461
17.500000 -1.234824
17.500000 -1.229344
17.500000 -1.223021
17.500000 -1.215855
17.500000 -1.207846
17.500000 -1.198993
17.500000 -1.189298
17.500000 -1.178759
17.500000 -1.167378
17.500000 -1.155153
17.500000 -1.142085
17.500000 -1.128174
17.500000 -1.113420
17.500000 -1.097823
17.500000 -1.081383
17.500000 -1.064100
17.500000 -1.045973
17.500000 -1.027004
17.500000 -1.007191
17.500000 -0.986536
17.500000 -0.965037
17.500000 -0.942695
17.500000 -0.919510
17.500000 -0.895482
17.500000 -0.870611
17.500000 -0.844897
17.500000 -0.818340
17.500000 -0.790940
17.500000 -0.762696
17.500000 -0.733610
17.500000 -0.703680
17.500000 -0.672908
17.500000 -0.641292
17.500000 -0.608833
17.500000 -0.575531
17.500000 -0.541386
17.500000 -0.506398
17.500000 -0.470567
17.500000 -0.433893
17.500000 -0.396376
17.500000 -0.358015
17.500000 -0.318812
17.500000 -0.278765
17.500000 -0.237876
17.500000 -0.196143
17.500000 -0.153567
17.500000 -0.110148
17.500000 -0.065886
17.500000 -0.020781
17.500000 0.025167
17.500000 0.071958
17.500000 0.119593
17.500000 0.168070
17.500000 0.217391
17.500000 0.267554
17.500000 0.318561
17.500000 0.370411
17.500000 0.423104
17.500000 0.476640
17.500000 0.531019
17.500000 0.586241
17.500000 0.642306
17.500000 0.699214
17.500000 0.756966
17.500000 0.815560
17.500000 0.874998
17.500000 0.935278
17.500000 0.996402
17.500000 1.058369
17.500000 1.121179
17.500000 1.184832
17.500000 1.249328
17.500000 1.314667
17.500000 1.380849
17.500000 1.447874
17.500000 1.515743
17.500000 1.584454
17.500000 1.654009
17.500000 1.724406
17.500000 1.795647
17.500000 1.867731
17.500000 1.940658
17.500000 2.014428
17.500000 2.089041
17.500000 2.164497
17.500000 2.240796
17.500000 2.317939
17.500000 2.395924
17.500000 2.474753
17.500000 2.554424
17.500000 2.634939
17.500000 2.716297
17.500000 2.798498
17.500000 2.881542
17.500000 2.965429
17.500000 3.050159
17.500000 3.135732
17.500000 3.222148
17.500000 3.309408
17.500000 3.397510
17.500000 3.486456
17.500000 3.576244
17.500000 3.666876
17.500000 3.758351
17.500000 3.850669
17.500000 3.943830
17.500000 4.037834
17.500000 4.132681
17.500000 4.228371
17.500000 4.324904
17.500000 4.422281
17.500000 4.520500
17.500000 4.619563
17.500000 4.719468
17.500000 4.820217
17.500000 4.921809
17.500000 5.024244
17.500000 5.127522
17.500000 5.231643
17.500000 5.336607
17.500000 5.442414
17.500000 5.549065
17.500000 5.656558
17.500000 5.764895
17.500000 5.874074
17.500000 5.984097
17.500000 6.094963
17.500000 6.206672
17.500000 6.319224
17.500000 6.432619
17.500000 6.546857
17.500000 6.661938
17.500000 6.777862
17.500000 6.894630
17.500000 7.012240
17.500000 7.130694
17.500000 7.249990
17.500000 7.370130
17.500000 7.491113
17.500000 7.612939
17.500000 7.735608
17.500000 7.859120
17.500000 7.983475
17.500000 8.108673
17.500000 8.234714
17.500000 8.361599
17.500000 8.489326
17.500000 8.617897
17.500000 8.747310
17.500000 8.877567
17.500000 9.008667
17.500000 9.140610
17.500000 9.273396
17.500000 9.407025
17.500000 9.541497
17.500000 9.676812
17.500000 9.812971
17.500000 9.949972
17.500000 10.087817
17.500000 10.226504
17.500000 10.366035
17.500000 10.506409
17.500000 10.647626
17.500000 10.789686
17.500000 10.932589
17.500000 11.076335
17.500000 11.220924
17.500000 11.366356
17.500000 11.512632
17.500000 11.659750
17.500000 11.807712
17.500000 11.956516
17.500000 12.106164
17.500000 12.256655
17.500000 12.407989
17.500000 12.560166
17.500000 12.713186
17.500000 12.867049
17.500000 13.021755
17.500000 13.177304
17.500000 13.333697
17.500000 13.490932
17.500000 13.649011
17.500000 13.807933
17.500000 13.967697
17.500000 14.128305
17.500000 14.289756
17.500000 14.452050
17.500000 14.615187
17.500000 14.779167
17.500000 14.943991
17.500000 15.109657
17.500000 15.276166
17.500000 15.443519
17.500000 15.611714
17.500000 15.780753
17.500000 15.950635
17.500000 16.121360
17.500000 16.292928
17.500000 16.465339
17.500000 16.638593
17.500000 16.812690
17.500000 16.987630
17.500000 17.163414
17.500000 17.340040
17.500000 17.517510
17.500000 17.695822
17.500000 17.874978
17.500000 18.054977
17.500000 18.235819
17.500000 18.417504
17.500000 18.600032
17.500000 18.783403
17.500000 18.967617
17.500000 19.152674
17.500000 19.338575
17.500000 19.525318
17.500000 19.712905
17.500000 19.901335
17.500000 20.090607
17.500000 20.280723
17.500000 20.471682
17.500000 20.663484
17.500000 20.856129
17.500000 21.049617
17.500000 21.243949
17.500000 21.439123
17.500000 21.635140
17.500000 21.832001
17.500000 22.029704
17.500000 22.228251
17.500000 22.427641
17.500000 22.627874
17.500000 22.828950
17.500000 23.030869
17.500000 23.233631
17.500000 23.437236
17.500000 23.641684
17.500000 23.846976
17.500000 24.053110
17.500000 24.260088
17.500000 24.467908
17.500000 24.676572
17.500000 24.886079
17.500000 25.096429
17.500000 25.307622
17.500000 25.519658
17.500000 25.732537
17.500000 25.946259
17.500000 26.160825
17.500000 26.376233
17.500000 26.592484
17.500000 26.809579
17.500000 27.027517
17.500000 27.246297
17.500000 27.465921
17.500000 27.686388
17.500000 27.907698
17.500000 28.129851
17.500000 28.352847
17.500000 28.576687
17.500000 28.801369
17.500000 29.026894
17.500000 29.253263
17.500000 29.480475
17.500000 29.708529
17.500000 29.937427
17.500000 30.167168
17.500000 30.397752
17.500000 30.629179
17.500000 30.861449
17.500000 31.094562
17.500000 31.328518
17.500000 31.563318
17.500000 31.798960
17.500000 32.035446
17.500000 32.272774
17.500000 32.510946
17.500000 32.749961
17.500000 32.989819
17.500000 33.230520
17.500000 33.472064
17.500000 33.714451
17.500000 33.957681
17.500000 34.201755
17.500000 34.446671
17.500000 34.692430
17.500000 34.939033
17.500000 35.186479
17.500000 35.434767
17.500000 35.683899
17.500000 35.933874
17.500000 36.184692
17.500000 36.436353
17.500000 36.688857
17.500000 36.942205
17.500000 37.196395
17.500000 37.451429
17.500000 37.707305
17.500000 37.964025
17.500000 38.221587
17.500000 38.479993
17.500000 38.739242
17.500000 38.999334
17.500000 39.260269
17.500000 39.522047
17.500000 39.784668
17.500000 40.048133
17.500000 40.312440
17.500000 40.577590
17.500000 40.843584
17.500000 41.110421
17.500000 41.378100
17.500000 41.646623
17.500000 41.915989
17.500000 42.186198
17.500000 42.457250
17.500000 42.729145
17.500000 43.001883
17.500000 43.275465
17.500000 43.549889
17.500000 43.825157
17.500000 44.101267
17.500000 44.378221
17.500000 44.656018
17.500000 44.934657
17.500000 45.214140
17.500000 45.494466
17.500000 45.775635
17.500000 46.057648
17.500000 46.340503
17.500000 46.624201
17.500000 46.908743
17.500000 47.194127
17.500000 47.480355
17.500000 47.767425
17.500000 48.055339
17.500000 48.344096
17.500000 48.633696
17.500000 48.924139
17.500000 49.215425
17.500000 49.507554
17.500000 49.800527
17.500000 50.094342
17.500000 50.389000
17.500000 50.684502
17.500000 50.980847
17.500000 51.278034
17.500000 51.576065
17.500000 51.874939
17.500000 52.174656
17.500000 52.475216
17.500000 52.776619
17.500000 53.078865
17.500000 53.381955
17.500000 53.685887
17.500000 53.990663
17.500000 54.296281
17.500000 54.602743
17.500000 54.910048
17.500000 55.218195
17.500000 55.527186
17.500000 55.837020
17.500000 56.147697
17.500000 56.459218
17.500000 56.771581
17.500000 57.084787
17.500000 57.398837
17.500000 57.713729
17.500000 58.029465
17.500000 58.346043
17.500000 58.663465
17.500000 58.981730
17.500000 59.300838
17.500000 59.620789
17.500000 59.941583
17.500000 60.263220
17.500000 60.585701
17.500000 60.909024
17.500000 61.233191
17.500000 61.558200
17.500000 61.884053
17.500000 62.210748
17.500000 62.538287
17.500000 62.866669
17.500000 63.195894
17.500000 63.525962
17.500000 63.856873
17.500000 64.188628
17.500000 64.521225
17.500000 64.854665
17.500000 65.188949
17.500000 65.524075
17.500000 65.860045
17.500000 66.196858
17.500000 66.534514
17.500000 66.873012
17.500000 67.212354
17.500000 67.552540
17.500000 67.893568
17.500000 68.235439
17.500000 68.578153
17.500000 68.921711
17.500000 69.266111
17.500000 69.611355
17.500000 69.957442
17.500000 70.304371
17.500000 70.652144
17.500000 71.000760
17.500000 71.350219
17.500000 71.700521
17.500000 72.051667
17.500000 72.403655
17.500000 72.756486
17.500000 73.110161
17.500000 73.464678
17.500000 73.820039
17.500000 74.176243
17.500000 74.533289
17.500000 74.891179
17.500000 75.249912
17.500000 75.609488
17.500000 75.969907
17.500000 76.331170
17.500000 76.693275
17.500000 77.056223
17.500000 77.420015
17.500000 77.784649
17.500000 78.150127
17.500000 78.516448
17.500000 78.883612
17.500000 79.251619
17.500000 79.620469
17.500000 79.990162
17.500000 80.360698
17.500000 80.732077
17.500000 81.104299
17.500000 81.477365
17.500000 81.851273
17.500000 82.226025
17.500000 82.601620
17.500000 82.978057
17.500000 83.355338
17.500000 83.733462
17.500000 84.112429
17.500000 84.492239
17.500000 84.872893
17.500000 85.254389
17.500000 85.636728
17.500000 86.019911
17.500000 86.403936
17.500000 86.788805
17.500000 87.174517
17.500000 87.561071
17.500000 87.948469
17.500000 88.336710
17.500000 88.725794
17.500000 89.115722
17.500000 89.506492
17.500000 89.898105
17.500000 90.290561
17.500000 90.683861
17.500000 91.078004
17.500000 91.472989
17.500000 91.868818
17.500000 92.265490
17.500000 92.663005
17.500000 93.061363
17.500000 93.460564
17.500000 93.860608
17.500000 94.261495
17.500000 94.663226
17.500000 95.065799
17.500000 95.469216
17.500000 95.873475
17.500000 96.278578
17.500000 96.684524
17.500000 97.091312
17.500000 97.498944
17.500000 97.907419
17.500000 98.316738
17.500000 98.726899
17.500000 99.137903
17.500000 99.549750
17.500000 99.962441
17.500000 100.375974
17.500000 100.790351
17.500000 101.205571
17.500000 101.621634
17.500000 102.038539
17.500000 102.456288
17.500000 102.874881
17.500000 103.294316
17.500000 103.714594
17.500000 104.135715
17.500000 104.557680
17.500000 104.980487
17.500000 105.404138
17.500000 105.828631
17.500000 106.253968
17.500000 106.680148
17.500000 107.107171
17.500000 107.535037
17.500000 107.963746
17.500000 108.393298
17.500000 108.823693
17.500000 109.254932
17.500000 109.687013
17.500000 110.119938
17.500000 110.553705
17.500000 110.988316
17.500000 111.423770
17.500000 111.860067
17.500000 112.297207
17.500000 112.735190
17.500000 113.174016
17.500000 113.613685
17.500000 114.054197
17.500000 114.495553
17.500000 114.937751
17.500000 115.380793
17.500000 115.824677
17.500000 116.269405
17.500000 116.714976
17.500000 117.161390
17.500000 117.608647
17.500000 118.056747
17.500000 118.505690
17.500000 118.955476
17.500000 119.406105
17.500000 119.857578
17.500000 120.309893
17.500000 120.763052
17.500000 121.217053
17.500000 121.671898
17.500000 122.127586
17.500000 122.584117
17.500000 123.041491
17.500000 123.499708
17.500000 123.958768
17.500000 124.418671
17.500000 124.879418
17.500000 125.341007
17.500000 125.803440
17.500000 126.266715
17.500000 126.730834
17.500000 127.195796
17.500000 127.661601
17.500000 128.128249
17.500000 128.595740
17.500000 129.064074
17.500000 129.533251
17.500000 130.003271
17.500000 130.474135
17.500000 130.945841
17.500000 131.418391
17.500000 131.891783
17.500000 132.366019
17.500000 132.841098
17.500000 133.317020
17.500000 133.793785
17.500000 134.271393
17.500000 134.749844
17.500000 135.229138
17.500000 135.709275
17.500000 136.190256
17.500000 136.672079
17.500000 137.154746
17.500000 137.638256
17.500000 138.122608
17.500000 138.607804
17.500000 139.093843
17.500000 139.580725
17.500000 140.068450
17.500000 140.557018
17.500000 141.046430
17.500000 141.536684
17.500000 142.027781
17.500000 142.519722
17.500000 143.012506
17.500000 143.506132
17.500000 144.000602
17.500000 144.495915
17.500000 144.992071
17.500000 145.489070
17.500000 145.986912
17.500000 146.485597
17.500000 146.985125
17.500000 147.485497
17.500000 147.986711
17.500000 148.488769
17.500000 148.991669
17.500000 149.495413
17.500000 150.000000
</POINTS>
</NEKTAR>

