<?xml version="1.0" encoding="utf-8" ?>
<NEKTAR>
<POINTS DIM="2" FIELDS="">
235.500000 0.000000
235.500000 0.000418
235.500000 0.001672
235.500000 0.003763
235.500000 0.006689
235.500000 0.010451
235.500000 0.015050
235.500000 0.020485
235.500000 0.026756
235.500000 0.033863
235.500000 0.041806
235.500000 0.050585
235.500000 0.060201
235.500000 0.070652
235.500000 0.081940
235.500000 0.094063
235.500000 0.107023
235.500000 0.120819
235.500000 0.135451
235.500000 0.150919
235.500000 0.167224
235.500000 0.184364
235.500000 0.202341
235.500000 0.221153
235.500000 0.240802
235.500000 0.261287
235.500000 0.282608
235.500000 0.304765
235.500000 0.327758
235.500000 0.351588
235.500000 0.376253
235.500000 0.401755
235.500000 0.428092
235.500000 0.455266
235.500000 0.483276
235.500000 0.512122
235.500000 0.541805
235.500000 0.572323
235.500000 0.603677
235.500000 0.635868
235.500000 0.668894
235.500000 0.702757
235.500000 0.737456
235.500000 0.772991
235.500000 0.809362
235.500000 0.846570
235.500000 0.884613
235.500000 0.923492
235.500000 0.963208
235.500000 1.003760
235.500000 1.045148
235.500000 1.087372
235.500000 1.130432
235.500000 1.174328
235.500000 1.219060
235.500000 1.264629
235.500000 1.311033
235.500000 1.358274
235.500000 1.406351
235.500000 1.455264
235.500000 1.505013
235.500000 1.555598
235.500000 1.607019
235.500000 1.659276
235.500000 1.712370
235.500000 1.766299
235.500000 1.821065
235.500000 1.876667
235.500000 1.933105
235.500000 1.990379
235.500000 2.048489
235.500000 2.107436
235.500000 2.167218
235.500000 2.227837
235.500000 2.289291
235.500000 2.351582
235.500000 2.414709
235.500000 2.478672
235.500000 2.543471
235.500000 2.609106
235.500000 2.675578
235.500000 2.742885
235.500000 2.811029
235.500000 2.880009
235.500000 2.949825
235.500000 3.020477
235.500000 3.091965
235.500000 3.164289
235.500000 3.237449
235.500000 3.311446
235.500000 3.386278
235.500000 3.461947
235.500000 3.538452
235.500000 3.615793
235.500000 3.693970
235.500000 3.772983
235.500000 3.852832
235.500000 3.933517
235.500000 4.015039
235.500000 4.097397
235.500000 4.180590
235.500000 4.264620
235.500000 4.349486
235.500000 4.435188
235.500000 4.521727
235.500000 4.609101
235.500000 4.697311
235.500000 4.786358
235.500000 4.876241
235.500000 4.966959
235.500000 5.058514
235.500000 5.150905
235.500000 5.244133
235.500000 5.338196
235.500000 5.433095
235.500000 5.528831
235.500000 5.625402
235.500000 5.722810
235.500000 5.821054
235.500000 5.920134
235.500000 6.020050
235.500000 6.120802
235.500000 6.222391
235.500000 6.324815
235.500000 6.428076
235.500000 6.532172
235.500000 6.637105
235.500000 6.742874
235.500000 6.849479
235.500000 6.956920
235.500000 7.065198
235.500000 7.174311
235.500000 7.284261
235.500000 7.395046
235.500000 7.506668
235.500000 7.619126
235.500000 7.732420
235.500000 7.846550
235.500000 7.961516
235.500000 8.077319
235.500000 8.193957
235.500000 8.311432
235.500000 8.429742
235.500000 8.548889
235.500000 8.668872
235.500000 8.789691
235.500000 8.911346
235.500000 9.033838
235.500000 9.157165
235.500000 9.281329
235.500000 9.406328
235.500000 9.532164
235.500000 9.658836
235.500000 9.786344
235.500000 9.914688
235.500000 10.043868
235.500000 10.173885
235.500000 10.304737
235.500000 10.436426
235.500000 10.568950
235.500000 10.702311
235.500000 10.836508
235.500000 10.971541
235.500000 11.107411
235.500000 11.244116
235.500000 11.381657
235.500000 11.520035
235.500000 11.659248
235.500000 11.799298
235.500000 11.940184
235.500000 12.081906
235.500000 12.224464
235.500000 12.367859
235.500000 12.512089
235.500000 12.657155
235.500000 12.803058
235.500000 12.949797
235.500000 13.097372
235.500000 13.245782
235.500000 13.395030
235.500000 13.545113
235.500000 13.696032
235.500000 13.847787
235.500000 14.000379
235.500000 14.153807
235.500000 14.308070
235.500000 14.463170
235.500000 14.619106
235.500000 14.775879
235.500000 14.933487
235.500000 15.091931
235.500000 15.251212
235.500000 15.411328
235.500000 15.572281
235.500000 15.734070
235.500000 15.896695
235.500000 16.060156
235.500000 16.224453
235.500000 16.389586
235.500000 16.555556
235.500000 16.722361
235.500000 16.890003
235.500000 17.058481
235.500000 17.227795
235.500000 17.397945
235.500000 17.568931
235.500000 17.740753
235.500000 17.913412
235.500000 18.086906
235.500000 18.261237
235.500000 18.436403
235.500000 18.612406
235.500000 18.789245
235.500000 18.966920
235.500000 19.145432
235.500000 19.324779
235.500000 19.504962
235.500000 19.685982
235.500000 19.867838
235.500000 20.050529
235.500000 20.234057
235.500000 20.418421
235.500000 20.603622
235.500000 20.789658
235.500000 20.976530
235.500000 21.164239
235.500000 21.352783
235.500000 21.542164
235.500000 21.732381
235.500000 21.923434
235.500000 22.115323
235.500000 22.308048
235.500000 22.501610
235.500000 22.696007
235.500000 22.891241
235.500000 23.087310
235.500000 23.284216
235.500000 23.481958
235.500000 23.680536
235.500000 23.879950
235.500000 24.080200
235.500000 24.281287
235.500000 24.483209
235.500000 24.685968
235.500000 24.889563
235.500000 25.093994
235.500000 25.299261
235.500000 25.505364
235.500000 25.712303
235.500000 25.920078
235.500000 26.128690
235.500000 26.338137
235.500000 26.548421
235.500000 26.759541
235.500000 26.971497
235.500000 27.184289
235.500000 27.397917
235.500000 27.612381
235.500000 27.827682
235.500000 28.043818
235.500000 28.260791
235.500000 28.478600
235.500000 28.697244
235.500000 28.916725
235.500000 29.137043
235.500000 29.358196
235.500000 29.580185
235.500000 29.803011
235.500000 30.026672
235.500000 30.251170
235.500000 30.476504
235.500000 30.702674
235.500000 30.929680
235.500000 31.157522
235.500000 31.386200
235.500000 31.615715
235.500000 31.846065
235.500000 32.077252
235.500000 32.309275
235.500000 32.542133
235.500000 32.775828
235.500000 33.010360
235.500000 33.245727
235.500000 33.481930
235.500000 33.718970
235.500000 33.956845
235.500000 34.195557
235.500000 34.435105
235.500000 34.675489
235.500000 34.916709
235.500000 35.158765
235.500000 35.401657
235.500000 35.645386
235.500000 35.889950
235.500000 36.135351
235.500000 36.381588
235.500000 36.628660
235.500000 36.876569
235.500000 37.125315
235.500000 37.374896
235.500000 37.625313
235.500000 37.876567
235.500000 38.128656
235.500000 38.381582
235.500000 38.635344
235.500000 38.889942
235.500000 39.145376
235.500000 39.401646
235.500000 39.658752
235.500000 39.916695
235.500000 40.175473
235.500000 40.435088
235.500000 40.695539
235.500000 40.956826
235.500000 41.218949
235.500000 41.481908
235.500000 41.745703
235.500000 42.010334
235.500000 42.275802
235.500000 42.542106
235.500000 42.809245
235.500000 43.077221
235.500000 43.346033
235.500000 43.615681
235.500000 43.886165
235.500000 44.157486
235.500000 44.429642
235.500000 44.702635
235.500000 44.976463
235.500000 45.251128
235.500000 45.526629
235.500000 45.802966
235.500000 46.080139
235.500000 46.358148
235.500000 46.636994
235.500000 46.916675
235.500000 47.197193
235.500000 47.478547
235.500000 47.760736
235.500000 48.043762
235.500000 48.327625
235.500000 48.612323
235.500000 48.897857
235.500000 49.184227
235.500000 49.471434
235.500000 49.759477
235.500000 50.048355
235.500000 50.338070
235.500000 50.628621
235.500000 50.920009
235.500000 51.212232
235.500000 51.505291
235.500000 51.799187
235.500000 52.093918
235.500000 52.389486
235.500000 52.685890
235.500000 52.983130
235.500000 53.281206
235.500000 53.580118
235.500000 53.879867
235.500000 54.180451
235.500000 54.481872
235.500000 54.784128
235.500000 55.087221
235.500000 55.391150
235.500000 55.695915
235.500000 56.001516
235.500000 56.307953
235.500000 56.615227
235.500000 56.923336
235.500000 57.232282
235.500000 57.542064
235.500000 57.852682
235.500000 58.164136
235.500000 58.476426
235.500000 58.789552
235.500000 59.103514
235.500000 59.418313
235.500000 59.733947
235.500000 60.050418
235.500000 60.367725
235.500000 60.685868
235.500000 61.004847
235.500000 61.324662
235.500000 61.645313
235.500000 61.966801
235.500000 62.289124
235.500000 62.612284
235.500000 62.936279
235.500000 63.261111
235.500000 63.586779
235.500000 63.913283
235.500000 64.240624
235.500000 64.568800
235.500000 64.897812
235.500000 65.227661
235.500000 65.558346
235.500000 65.889867
235.500000 66.222223
235.500000 66.555417
235.500000 66.889446
235.500000 67.224311
235.500000 67.560012
235.500000 67.896550
235.500000 68.233924
235.500000 68.572133
235.500000 68.911179
235.500000 69.251061
235.500000 69.591779
235.500000 69.933334
235.500000 70.275724
235.500000 70.618950
235.500000 70.963013
235.500000 71.307912
235.500000 71.653646
235.500000 72.000217
235.500000 72.347624
235.500000 72.695868
235.500000 73.044947
235.500000 73.394862
235.500000 73.745614
235.500000 74.097202
235.500000 74.449625
235.500000 74.802885
235.500000 75.156981
235.500000 75.511913
235.500000 75.867682
235.500000 76.224286
235.500000 76.581726
235.500000 76.940003
235.500000 77.299116
235.500000 77.659064
235.500000 78.019849
235.500000 78.381471
235.500000 78.743928
235.500000 79.107221
235.500000 79.471350
235.500000 79.836316
235.500000 80.202118
235.500000 80.568755
235.500000 80.936229
235.500000 81.304539
235.500000 81.673685
235.500000 82.043668
235.500000 82.414486
235.500000 82.786141
235.500000 83.158631
235.500000 83.531958
235.500000 83.906121
235.500000 84.281120
235.500000 84.656955
235.500000 85.033626
235.500000 85.411133
235.500000 85.789477
235.500000 86.168656
235.500000 86.548672
235.500000 86.929524
235.500000 87.311212
235.500000 87.693736
235.500000 88.077096
235.500000 88.461292
235.500000 88.846324
235.500000 89.232193
235.500000 89.618897
235.500000 90.006438
235.500000 90.394815
235.500000 90.784028
235.500000 91.174077
235.500000 91.564962
235.500000 91.956684
235.500000 92.349241
235.500000 92.742634
235.500000 93.136864
235.500000 93.531930
235.500000 93.927832
235.500000 94.324570
235.500000 94.722144
235.500000 95.120554
235.500000 95.519801
235.500000 95.919883
235.500000 96.320802
235.500000 96.722557
235.500000 97.125147
235.500000 97.528574
235.500000 97.932837
235.500000 98.337937
235.500000 98.743872
235.500000 99.150643
235.500000 99.558251
235.500000 99.966695
235.500000 100.375974
235.500000 100.786090
235.500000 101.197042
235.500000 101.608831
235.500000 102.021455
235.500000 102.434915
235.500000 102.849212
235.500000 103.264344
235.500000 103.680313
235.500000 104.097118
235.500000 104.514759
235.500000 104.933236
235.500000 105.352549
235.500000 105.772699
235.500000 106.193684
235.500000 106.615506
235.500000 107.038163
235.500000 107.461657
235.500000 107.885987
235.500000 108.311153
235.500000 108.737155
235.500000 109.163993
235.500000 109.591668
235.500000 110.020178
235.500000 110.449525
235.500000 110.879708
235.500000 111.310727
235.500000 111.742582
235.500000 112.175273
235.500000 112.608800
235.500000 113.043163
235.500000 113.478363
235.500000 113.914398
235.500000 114.351270
235.500000 114.788978
235.500000 115.227522
235.500000 115.666902
235.500000 116.107118
235.500000 116.548170
235.500000 116.990059
235.500000 117.432783
235.500000 117.876344
235.500000 118.320740
235.500000 118.765973
235.500000 119.212042
235.500000 119.658947
235.500000 120.106689
235.500000 120.555266
235.500000 121.004679
235.500000 121.454929
235.500000 121.906015
235.500000 122.357937
235.500000 122.810695
235.500000 123.264289
235.500000 123.718719
235.500000 124.173985
235.500000 124.630087
235.500000 125.087026
235.500000 125.544801
235.500000 126.003411
235.500000 126.462858
235.500000 126.923141
235.500000 127.384260
235.500000 127.846216
235.500000 128.309007
235.500000 128.772634
235.500000 129.237098
235.500000 129.702398
235.500000 130.168534
235.500000 130.635505
235.500000 131.103314
235.500000 131.571958
235.500000 132.041438
235.500000 132.511754
235.500000 132.982907
235.500000 133.454896
235.500000 133.927720
235.500000 134.401381
235.500000 134.875878
235.500000 135.351211
235.500000 135.827381
235.500000 136.304386
235.500000 136.782227
235.500000 137.260905
235.500000 137.740419
235.500000 138.220769
235.500000 138.701955
235.500000 139.183977
235.500000 139.666835
235.500000 140.150529
235.500000 140.635060
235.500000 141.120426
235.500000 141.606629
235.500000 142.093668
235.500000 142.581542
235.500000 143.070253
235.500000 143.559801
235.500000 144.050184
235.500000 144.541403
235.500000 145.033459
235.500000 145.526350
235.500000 146.020078
235.500000 146.514642
235.500000 147.010042
235.500000 147.506278
235.500000 148.003350
235.500000 148.501258
235.500000 149.000003
235.500000 149.499583
235.500000 150.000000
</POINTS>
</NEKTAR>

