<?xml version="1.0" encoding="utf-8" ?>
<NEKTAR>
<POINTS DIM="2" FIELDS="">
763.500000 0.000000
763.500000 0.000418
763.500000 0.001672
763.500000 0.003763
763.500000 0.006689
763.500000 0.010451
763.500000 0.015050
763.500000 0.020485
763.500000 0.026756
763.500000 0.033863
763.500000 0.041806
763.500000 0.050585
763.500000 0.060201
763.500000 0.070652
763.500000 0.081940
763.500000 0.094063
763.500000 0.107023
763.500000 0.120819
763.500000 0.135451
763.500000 0.150919
763.500000 0.167224
763.500000 0.184364
763.500000 0.202341
763.500000 0.221153
763.500000 0.240802
763.500000 0.261287
763.500000 0.282608
763.500000 0.304765
763.500000 0.327758
763.500000 0.351588
763.500000 0.376253
763.500000 0.401755
763.500000 0.428092
763.500000 0.455266
763.500000 0.483276
763.500000 0.512122
763.500000 0.541805
763.500000 0.572323
763.500000 0.603677
763.500000 0.635868
763.500000 0.668894
763.500000 0.702757
763.500000 0.737456
763.500000 0.772991
763.500000 0.809362
763.500000 0.846570
763.500000 0.884613
763.500000 0.923492
763.500000 0.963208
763.500000 1.003760
763.500000 1.045148
763.500000 1.087372
763.500000 1.130432
763.500000 1.174328
763.500000 1.219060
763.500000 1.264629
763.500000 1.311033
763.500000 1.358274
763.500000 1.406351
763.500000 1.455264
763.500000 1.505013
763.500000 1.555598
763.500000 1.607019
763.500000 1.659276
763.500000 1.712370
763.500000 1.766299
763.500000 1.821065
763.500000 1.876667
763.500000 1.933105
763.500000 1.990379
763.500000 2.048489
763.500000 2.107436
763.500000 2.167218
763.500000 2.227837
763.500000 2.289291
763.500000 2.351582
763.500000 2.414709
763.500000 2.478672
763.500000 2.543471
763.500000 2.609106
763.500000 2.675578
763.500000 2.742885
763.500000 2.811029
763.500000 2.880009
763.500000 2.949825
763.500000 3.020477
763.500000 3.091965
763.500000 3.164289
763.500000 3.237449
763.500000 3.311446
763.500000 3.386278
763.500000 3.461947
763.500000 3.538452
763.500000 3.615793
763.500000 3.693970
763.500000 3.772983
763.500000 3.852832
763.500000 3.933517
763.500000 4.015039
763.500000 4.097397
763.500000 4.180590
763.500000 4.264620
763.500000 4.349486
763.500000 4.435188
763.500000 4.521727
763.500000 4.609101
763.500000 4.697311
763.500000 4.786358
763.500000 4.876241
763.500000 4.966959
763.500000 5.058514
763.500000 5.150905
763.500000 5.244133
763.500000 5.338196
763.500000 5.433095
763.500000 5.528831
763.500000 5.625402
763.500000 5.722810
763.500000 5.821054
763.500000 5.920134
763.500000 6.020050
763.500000 6.120802
763.500000 6.222391
763.500000 6.324815
763.500000 6.428076
763.500000 6.532172
763.500000 6.637105
763.500000 6.742874
763.500000 6.849479
763.500000 6.956920
763.500000 7.065198
763.500000 7.174311
763.500000 7.284261
763.500000 7.395046
763.500000 7.506668
763.500000 7.619126
763.500000 7.732420
763.500000 7.846550
763.500000 7.961516
763.500000 8.077319
763.500000 8.193957
763.500000 8.311432
763.500000 8.429742
763.500000 8.548889
763.500000 8.668872
763.500000 8.789691
763.500000 8.911346
763.500000 9.033838
763.500000 9.157165
763.500000 9.281329
763.500000 9.406328
763.500000 9.532164
763.500000 9.658836
763.500000 9.786344
763.500000 9.914688
763.500000 10.043868
763.500000 10.173885
763.500000 10.304737
763.500000 10.436426
763.500000 10.568950
763.500000 10.702311
763.500000 10.836508
763.500000 10.971541
763.500000 11.107411
763.500000 11.244116
763.500000 11.381657
763.500000 11.520035
763.500000 11.659248
763.500000 11.799298
763.500000 11.940184
763.500000 12.081906
763.500000 12.224464
763.500000 12.367859
763.500000 12.512089
763.500000 12.657155
763.500000 12.803058
763.500000 12.949797
763.500000 13.097372
763.500000 13.245782
763.500000 13.395030
763.500000 13.545113
763.500000 13.696032
763.500000 13.847787
763.500000 14.000379
763.500000 14.153807
763.500000 14.308070
763.500000 14.463170
763.500000 14.619106
763.500000 14.775879
763.500000 14.933487
763.500000 15.091931
763.500000 15.251212
763.500000 15.411328
763.500000 15.572281
763.500000 15.734070
763.500000 15.896695
763.500000 16.060156
763.500000 16.224453
763.500000 16.389586
763.500000 16.555556
763.500000 16.722361
763.500000 16.890003
763.500000 17.058481
763.500000 17.227795
763.500000 17.397945
763.500000 17.568931
763.500000 17.740753
763.500000 17.913412
763.500000 18.086906
763.500000 18.261237
763.500000 18.436403
763.500000 18.612406
763.500000 18.789245
763.500000 18.966920
763.500000 19.145432
763.500000 19.324779
763.500000 19.504962
763.500000 19.685982
763.500000 19.867838
763.500000 20.050529
763.500000 20.234057
763.500000 20.418421
763.500000 20.603622
763.500000 20.789658
763.500000 20.976530
763.500000 21.164239
763.500000 21.352783
763.500000 21.542164
763.500000 21.732381
763.500000 21.923434
763.500000 22.115323
763.500000 22.308048
763.500000 22.501610
763.500000 22.696007
763.500000 22.891241
763.500000 23.087310
763.500000 23.284216
763.500000 23.481958
763.500000 23.680536
763.500000 23.879950
763.500000 24.080200
763.500000 24.281287
763.500000 24.483209
763.500000 24.685968
763.500000 24.889563
763.500000 25.093994
763.500000 25.299261
763.500000 25.505364
763.500000 25.712303
763.500000 25.920078
763.500000 26.128690
763.500000 26.338137
763.500000 26.548421
763.500000 26.759541
763.500000 26.971497
763.500000 27.184289
763.500000 27.397917
763.500000 27.612381
763.500000 27.827682
763.500000 28.043818
763.500000 28.260791
763.500000 28.478600
763.500000 28.697244
763.500000 28.916725
763.500000 29.137043
763.500000 29.358196
763.500000 29.580185
763.500000 29.803011
763.500000 30.026672
763.500000 30.251170
763.500000 30.476504
763.500000 30.702674
763.500000 30.929680
763.500000 31.157522
763.500000 31.386200
763.500000 31.615715
763.500000 31.846065
763.500000 32.077252
763.500000 32.309275
763.500000 32.542133
763.500000 32.775828
763.500000 33.010360
763.500000 33.245727
763.500000 33.481930
763.500000 33.718970
763.500000 33.956845
763.500000 34.195557
763.500000 34.435105
763.500000 34.675489
763.500000 34.916709
763.500000 35.158765
763.500000 35.401657
763.500000 35.645386
763.500000 35.889950
763.500000 36.135351
763.500000 36.381588
763.500000 36.628660
763.500000 36.876569
763.500000 37.125315
763.500000 37.374896
763.500000 37.625313
763.500000 37.876567
763.500000 38.128656
763.500000 38.381582
763.500000 38.635344
763.500000 38.889942
763.500000 39.145376
763.500000 39.401646
763.500000 39.658752
763.500000 39.916695
763.500000 40.175473
763.500000 40.435088
763.500000 40.695539
763.500000 40.956826
763.500000 41.218949
763.500000 41.481908
763.500000 41.745703
763.500000 42.010334
763.500000 42.275802
763.500000 42.542106
763.500000 42.809245
763.500000 43.077221
763.500000 43.346033
763.500000 43.615681
763.500000 43.886165
763.500000 44.157486
763.500000 44.429642
763.500000 44.702635
763.500000 44.976463
763.500000 45.251128
763.500000 45.526629
763.500000 45.802966
763.500000 46.080139
763.500000 46.358148
763.500000 46.636994
763.500000 46.916675
763.500000 47.197193
763.500000 47.478547
763.500000 47.760736
763.500000 48.043762
763.500000 48.327625
763.500000 48.612323
763.500000 48.897857
763.500000 49.184227
763.500000 49.471434
763.500000 49.759477
763.500000 50.048355
763.500000 50.338070
763.500000 50.628621
763.500000 50.920009
763.500000 51.212232
763.500000 51.505291
763.500000 51.799187
763.500000 52.093918
763.500000 52.389486
763.500000 52.685890
763.500000 52.983130
763.500000 53.281206
763.500000 53.580118
763.500000 53.879867
763.500000 54.180451
763.500000 54.481872
763.500000 54.784128
763.500000 55.087221
763.500000 55.391150
763.500000 55.695915
763.500000 56.001516
763.500000 56.307953
763.500000 56.615227
763.500000 56.923336
763.500000 57.232282
763.500000 57.542064
763.500000 57.852682
763.500000 58.164136
763.500000 58.476426
763.500000 58.789552
763.500000 59.103514
763.500000 59.418313
763.500000 59.733947
763.500000 60.050418
763.500000 60.367725
763.500000 60.685868
763.500000 61.004847
763.500000 61.324662
763.500000 61.645313
763.500000 61.966801
763.500000 62.289124
763.500000 62.612284
763.500000 62.936279
763.500000 63.261111
763.500000 63.586779
763.500000 63.913283
763.500000 64.240624
763.500000 64.568800
763.500000 64.897812
763.500000 65.227661
763.500000 65.558346
763.500000 65.889867
763.500000 66.222223
763.500000 66.555417
763.500000 66.889446
763.500000 67.224311
763.500000 67.560012
763.500000 67.896550
763.500000 68.233924
763.500000 68.572133
763.500000 68.911179
763.500000 69.251061
763.500000 69.591779
763.500000 69.933334
763.500000 70.275724
763.500000 70.618950
763.500000 70.963013
763.500000 71.307912
763.500000 71.653646
763.500000 72.000217
763.500000 72.347624
763.500000 72.695868
763.500000 73.044947
763.500000 73.394862
763.500000 73.745614
763.500000 74.097202
763.500000 74.449625
763.500000 74.802885
763.500000 75.156981
763.500000 75.511913
763.500000 75.867682
763.500000 76.224286
763.500000 76.581726
763.500000 76.940003
763.500000 77.299116
763.500000 77.659064
763.500000 78.019849
763.500000 78.381471
763.500000 78.743928
763.500000 79.107221
763.500000 79.471350
763.500000 79.836316
763.500000 80.202118
763.500000 80.568755
763.500000 80.936229
763.500000 81.304539
763.500000 81.673685
763.500000 82.043668
763.500000 82.414486
763.500000 82.786141
763.500000 83.158631
763.500000 83.531958
763.500000 83.906121
763.500000 84.281120
763.500000 84.656955
763.500000 85.033626
763.500000 85.411133
763.500000 85.789477
763.500000 86.168656
763.500000 86.548672
763.500000 86.929524
763.500000 87.311212
763.500000 87.693736
763.500000 88.077096
763.500000 88.461292
763.500000 88.846324
763.500000 89.232193
763.500000 89.618897
763.500000 90.006438
763.500000 90.394815
763.500000 90.784028
763.500000 91.174077
763.500000 91.564962
763.500000 91.956684
763.500000 92.349241
763.500000 92.742634
763.500000 93.136864
763.500000 93.531930
763.500000 93.927832
763.500000 94.324570
763.500000 94.722144
763.500000 95.120554
763.500000 95.519801
763.500000 95.919883
763.500000 96.320802
763.500000 96.722557
763.500000 97.125147
763.500000 97.528574
763.500000 97.932837
763.500000 98.337937
763.500000 98.743872
763.500000 99.150643
763.500000 99.558251
763.500000 99.966695
763.500000 100.375974
763.500000 100.786090
763.500000 101.197042
763.500000 101.608831
763.500000 102.021455
763.500000 102.434915
763.500000 102.849212
763.500000 103.264344
763.500000 103.680313
763.500000 104.097118
763.500000 104.514759
763.500000 104.933236
763.500000 105.352549
763.500000 105.772699
763.500000 106.193684
763.500000 106.615506
763.500000 107.038163
763.500000 107.461657
763.500000 107.885987
763.500000 108.311153
763.500000 108.737155
763.500000 109.163993
763.500000 109.591668
763.500000 110.020178
763.500000 110.449525
763.500000 110.879708
763.500000 111.310727
763.500000 111.742582
763.500000 112.175273
763.500000 112.608800
763.500000 113.043163
763.500000 113.478363
763.500000 113.914398
763.500000 114.351270
763.500000 114.788978
763.500000 115.227522
763.500000 115.666902
763.500000 116.107118
763.500000 116.548170
763.500000 116.990059
763.500000 117.432783
763.500000 117.876344
763.500000 118.320740
763.500000 118.765973
763.500000 119.212042
763.500000 119.658947
763.500000 120.106689
763.500000 120.555266
763.500000 121.004679
763.500000 121.454929
763.500000 121.906015
763.500000 122.357937
763.500000 122.810695
763.500000 123.264289
763.500000 123.718719
763.500000 124.173985
763.500000 124.630087
763.500000 125.087026
763.500000 125.544801
763.500000 126.003411
763.500000 126.462858
763.500000 126.923141
763.500000 127.384260
763.500000 127.846216
763.500000 128.309007
763.500000 128.772634
763.500000 129.237098
763.500000 129.702398
763.500000 130.168534
763.500000 130.635505
763.500000 131.103314
763.500000 131.571958
763.500000 132.041438
763.500000 132.511754
763.500000 132.982907
763.500000 133.454896
763.500000 133.927720
763.500000 134.401381
763.500000 134.875878
763.500000 135.351211
763.500000 135.827381
763.500000 136.304386
763.500000 136.782227
763.500000 137.260905
763.500000 137.740419
763.500000 138.220769
763.500000 138.701955
763.500000 139.183977
763.500000 139.666835
763.500000 140.150529
763.500000 140.635060
763.500000 141.120426
763.500000 141.606629
763.500000 142.093668
763.500000 142.581542
763.500000 143.070253
763.500000 143.559801
763.500000 144.050184
763.500000 144.541403
763.500000 145.033459
763.500000 145.526350
763.500000 146.020078
763.500000 146.514642
763.500000 147.010042
763.500000 147.506278
763.500000 148.003350
763.500000 148.501258
763.500000 149.000003
763.500000 149.499583
763.500000 150.000000
</POINTS>
</NEKTAR>

