<?xml version="1.0" encoding="utf-8" ?>
<NEKTAR>
<POINTS DIM="2" FIELDS="">
125.500000 0.000000
125.500000 0.000418
125.500000 0.001672
125.500000 0.003763
125.500000 0.006689
125.500000 0.010451
125.500000 0.015050
125.500000 0.020485
125.500000 0.026756
125.500000 0.033863
125.500000 0.041806
125.500000 0.050585
125.500000 0.060201
125.500000 0.070652
125.500000 0.081940
125.500000 0.094063
125.500000 0.107023
125.500000 0.120819
125.500000 0.135451
125.500000 0.150919
125.500000 0.167224
125.500000 0.184364
125.500000 0.202341
125.500000 0.221153
125.500000 0.240802
125.500000 0.261287
125.500000 0.282608
125.500000 0.304765
125.500000 0.327758
125.500000 0.351588
125.500000 0.376253
125.500000 0.401755
125.500000 0.428092
125.500000 0.455266
125.500000 0.483276
125.500000 0.512122
125.500000 0.541805
125.500000 0.572323
125.500000 0.603677
125.500000 0.635868
125.500000 0.668894
125.500000 0.702757
125.500000 0.737456
125.500000 0.772991
125.500000 0.809362
125.500000 0.846570
125.500000 0.884613
125.500000 0.923492
125.500000 0.963208
125.500000 1.003760
125.500000 1.045148
125.500000 1.087372
125.500000 1.130432
125.500000 1.174328
125.500000 1.219060
125.500000 1.264629
125.500000 1.311033
125.500000 1.358274
125.500000 1.406351
125.500000 1.455264
125.500000 1.505013
125.500000 1.555598
125.500000 1.607019
125.500000 1.659276
125.500000 1.712370
125.500000 1.766299
125.500000 1.821065
125.500000 1.876667
125.500000 1.933105
125.500000 1.990379
125.500000 2.048489
125.500000 2.107436
125.500000 2.167218
125.500000 2.227837
125.500000 2.289291
125.500000 2.351582
125.500000 2.414709
125.500000 2.478672
125.500000 2.543471
125.500000 2.609106
125.500000 2.675578
125.500000 2.742885
125.500000 2.811029
125.500000 2.880009
125.500000 2.949825
125.500000 3.020477
125.500000 3.091965
125.500000 3.164289
125.500000 3.237449
125.500000 3.311446
125.500000 3.386278
125.500000 3.461947
125.500000 3.538452
125.500000 3.615793
125.500000 3.693970
125.500000 3.772983
125.500000 3.852832
125.500000 3.933517
125.500000 4.015039
125.500000 4.097397
125.500000 4.180590
125.500000 4.264620
125.500000 4.349486
125.500000 4.435188
125.500000 4.521727
125.500000 4.609101
125.500000 4.697311
125.500000 4.786358
125.500000 4.876241
125.500000 4.966959
125.500000 5.058514
125.500000 5.150905
125.500000 5.244133
125.500000 5.338196
125.500000 5.433095
125.500000 5.528831
125.500000 5.625402
125.500000 5.722810
125.500000 5.821054
125.500000 5.920134
125.500000 6.020050
125.500000 6.120802
125.500000 6.222391
125.500000 6.324815
125.500000 6.428076
125.500000 6.532172
125.500000 6.637105
125.500000 6.742874
125.500000 6.849479
125.500000 6.956920
125.500000 7.065198
125.500000 7.174311
125.500000 7.284261
125.500000 7.395046
125.500000 7.506668
125.500000 7.619126
125.500000 7.732420
125.500000 7.846550
125.500000 7.961516
125.500000 8.077319
125.500000 8.193957
125.500000 8.311432
125.500000 8.429742
125.500000 8.548889
125.500000 8.668872
125.500000 8.789691
125.500000 8.911346
125.500000 9.033838
125.500000 9.157165
125.500000 9.281329
125.500000 9.406328
125.500000 9.532164
125.500000 9.658836
125.500000 9.786344
125.500000 9.914688
125.500000 10.043868
125.500000 10.173885
125.500000 10.304737
125.500000 10.436426
125.500000 10.568950
125.500000 10.702311
125.500000 10.836508
125.500000 10.971541
125.500000 11.107411
125.500000 11.244116
125.500000 11.381657
125.500000 11.520035
125.500000 11.659248
125.500000 11.799298
125.500000 11.940184
125.500000 12.081906
125.500000 12.224464
125.500000 12.367859
125.500000 12.512089
125.500000 12.657155
125.500000 12.803058
125.500000 12.949797
125.500000 13.097372
125.500000 13.245782
125.500000 13.395030
125.500000 13.545113
125.500000 13.696032
125.500000 13.847787
125.500000 14.000379
125.500000 14.153807
125.500000 14.308070
125.500000 14.463170
125.500000 14.619106
125.500000 14.775879
125.500000 14.933487
125.500000 15.091931
125.500000 15.251212
125.500000 15.411328
125.500000 15.572281
125.500000 15.734070
125.500000 15.896695
125.500000 16.060156
125.500000 16.224453
125.500000 16.389586
125.500000 16.555556
125.500000 16.722361
125.500000 16.890003
125.500000 17.058481
125.500000 17.227795
125.500000 17.397945
125.500000 17.568931
125.500000 17.740753
125.500000 17.913412
125.500000 18.086906
125.500000 18.261237
125.500000 18.436403
125.500000 18.612406
125.500000 18.789245
125.500000 18.966920
125.500000 19.145432
125.500000 19.324779
125.500000 19.504962
125.500000 19.685982
125.500000 19.867838
125.500000 20.050529
125.500000 20.234057
125.500000 20.418421
125.500000 20.603622
125.500000 20.789658
125.500000 20.976530
125.500000 21.164239
125.500000 21.352783
125.500000 21.542164
125.500000 21.732381
125.500000 21.923434
125.500000 22.115323
125.500000 22.308048
125.500000 22.501610
125.500000 22.696007
125.500000 22.891241
125.500000 23.087310
125.500000 23.284216
125.500000 23.481958
125.500000 23.680536
125.500000 23.879950
125.500000 24.080200
125.500000 24.281287
125.500000 24.483209
125.500000 24.685968
125.500000 24.889563
125.500000 25.093994
125.500000 25.299261
125.500000 25.505364
125.500000 25.712303
125.500000 25.920078
125.500000 26.128690
125.500000 26.338137
125.500000 26.548421
125.500000 26.759541
125.500000 26.971497
125.500000 27.184289
125.500000 27.397917
125.500000 27.612381
125.500000 27.827682
125.500000 28.043818
125.500000 28.260791
125.500000 28.478600
125.500000 28.697244
125.500000 28.916725
125.500000 29.137043
125.500000 29.358196
125.500000 29.580185
125.500000 29.803011
125.500000 30.026672
125.500000 30.251170
125.500000 30.476504
125.500000 30.702674
125.500000 30.929680
125.500000 31.157522
125.500000 31.386200
125.500000 31.615715
125.500000 31.846065
125.500000 32.077252
125.500000 32.309275
125.500000 32.542133
125.500000 32.775828
125.500000 33.010360
125.500000 33.245727
125.500000 33.481930
125.500000 33.718970
125.500000 33.956845
125.500000 34.195557
125.500000 34.435105
125.500000 34.675489
125.500000 34.916709
125.500000 35.158765
125.500000 35.401657
125.500000 35.645386
125.500000 35.889950
125.500000 36.135351
125.500000 36.381588
125.500000 36.628660
125.500000 36.876569
125.500000 37.125315
125.500000 37.374896
125.500000 37.625313
125.500000 37.876567
125.500000 38.128656
125.500000 38.381582
125.500000 38.635344
125.500000 38.889942
125.500000 39.145376
125.500000 39.401646
125.500000 39.658752
125.500000 39.916695
125.500000 40.175473
125.500000 40.435088
125.500000 40.695539
125.500000 40.956826
125.500000 41.218949
125.500000 41.481908
125.500000 41.745703
125.500000 42.010334
125.500000 42.275802
125.500000 42.542106
125.500000 42.809245
125.500000 43.077221
125.500000 43.346033
125.500000 43.615681
125.500000 43.886165
125.500000 44.157486
125.500000 44.429642
125.500000 44.702635
125.500000 44.976463
125.500000 45.251128
125.500000 45.526629
125.500000 45.802966
125.500000 46.080139
125.500000 46.358148
125.500000 46.636994
125.500000 46.916675
125.500000 47.197193
125.500000 47.478547
125.500000 47.760736
125.500000 48.043762
125.500000 48.327625
125.500000 48.612323
125.500000 48.897857
125.500000 49.184227
125.500000 49.471434
125.500000 49.759477
125.500000 50.048355
125.500000 50.338070
125.500000 50.628621
125.500000 50.920009
125.500000 51.212232
125.500000 51.505291
125.500000 51.799187
125.500000 52.093918
125.500000 52.389486
125.500000 52.685890
125.500000 52.983130
125.500000 53.281206
125.500000 53.580118
125.500000 53.879867
125.500000 54.180451
125.500000 54.481872
125.500000 54.784128
125.500000 55.087221
125.500000 55.391150
125.500000 55.695915
125.500000 56.001516
125.500000 56.307953
125.500000 56.615227
125.500000 56.923336
125.500000 57.232282
125.500000 57.542064
125.500000 57.852682
125.500000 58.164136
125.500000 58.476426
125.500000 58.789552
125.500000 59.103514
125.500000 59.418313
125.500000 59.733947
125.500000 60.050418
125.500000 60.367725
125.500000 60.685868
125.500000 61.004847
125.500000 61.324662
125.500000 61.645313
125.500000 61.966801
125.500000 62.289124
125.500000 62.612284
125.500000 62.936279
125.500000 63.261111
125.500000 63.586779
125.500000 63.913283
125.500000 64.240624
125.500000 64.568800
125.500000 64.897812
125.500000 65.227661
125.500000 65.558346
125.500000 65.889867
125.500000 66.222223
125.500000 66.555417
125.500000 66.889446
125.500000 67.224311
125.500000 67.560012
125.500000 67.896550
125.500000 68.233924
125.500000 68.572133
125.500000 68.911179
125.500000 69.251061
125.500000 69.591779
125.500000 69.933334
125.500000 70.275724
125.500000 70.618950
125.500000 70.963013
125.500000 71.307912
125.500000 71.653646
125.500000 72.000217
125.500000 72.347624
125.500000 72.695868
125.500000 73.044947
125.500000 73.394862
125.500000 73.745614
125.500000 74.097202
125.500000 74.449625
125.500000 74.802885
125.500000 75.156981
125.500000 75.511913
125.500000 75.867682
125.500000 76.224286
125.500000 76.581726
125.500000 76.940003
125.500000 77.299116
125.500000 77.659064
125.500000 78.019849
125.500000 78.381471
125.500000 78.743928
125.500000 79.107221
125.500000 79.471350
125.500000 79.836316
125.500000 80.202118
125.500000 80.568755
125.500000 80.936229
125.500000 81.304539
125.500000 81.673685
125.500000 82.043668
125.500000 82.414486
125.500000 82.786141
125.500000 83.158631
125.500000 83.531958
125.500000 83.906121
125.500000 84.281120
125.500000 84.656955
125.500000 85.033626
125.500000 85.411133
125.500000 85.789477
125.500000 86.168656
125.500000 86.548672
125.500000 86.929524
125.500000 87.311212
125.500000 87.693736
125.500000 88.077096
125.500000 88.461292
125.500000 88.846324
125.500000 89.232193
125.500000 89.618897
125.500000 90.006438
125.500000 90.394815
125.500000 90.784028
125.500000 91.174077
125.500000 91.564962
125.500000 91.956684
125.500000 92.349241
125.500000 92.742634
125.500000 93.136864
125.500000 93.531930
125.500000 93.927832
125.500000 94.324570
125.500000 94.722144
125.500000 95.120554
125.500000 95.519801
125.500000 95.919883
125.500000 96.320802
125.500000 96.722557
125.500000 97.125147
125.500000 97.528574
125.500000 97.932837
125.500000 98.337937
125.500000 98.743872
125.500000 99.150643
125.500000 99.558251
125.500000 99.966695
125.500000 100.375974
125.500000 100.786090
125.500000 101.197042
125.500000 101.608831
125.500000 102.021455
125.500000 102.434915
125.500000 102.849212
125.500000 103.264344
125.500000 103.680313
125.500000 104.097118
125.500000 104.514759
125.500000 104.933236
125.500000 105.352549
125.500000 105.772699
125.500000 106.193684
125.500000 106.615506
125.500000 107.038163
125.500000 107.461657
125.500000 107.885987
125.500000 108.311153
125.500000 108.737155
125.500000 109.163993
125.500000 109.591668
125.500000 110.020178
125.500000 110.449525
125.500000 110.879708
125.500000 111.310727
125.500000 111.742582
125.500000 112.175273
125.500000 112.608800
125.500000 113.043163
125.500000 113.478363
125.500000 113.914398
125.500000 114.351270
125.500000 114.788978
125.500000 115.227522
125.500000 115.666902
125.500000 116.107118
125.500000 116.548170
125.500000 116.990059
125.500000 117.432783
125.500000 117.876344
125.500000 118.320740
125.500000 118.765973
125.500000 119.212042
125.500000 119.658947
125.500000 120.106689
125.500000 120.555266
125.500000 121.004679
125.500000 121.454929
125.500000 121.906015
125.500000 122.357937
125.500000 122.810695
125.500000 123.264289
125.500000 123.718719
125.500000 124.173985
125.500000 124.630087
125.500000 125.087026
125.500000 125.544801
125.500000 126.003411
125.500000 126.462858
125.500000 126.923141
125.500000 127.384260
125.500000 127.846216
125.500000 128.309007
125.500000 128.772634
125.500000 129.237098
125.500000 129.702398
125.500000 130.168534
125.500000 130.635505
125.500000 131.103314
125.500000 131.571958
125.500000 132.041438
125.500000 132.511754
125.500000 132.982907
125.500000 133.454896
125.500000 133.927720
125.500000 134.401381
125.500000 134.875878
125.500000 135.351211
125.500000 135.827381
125.500000 136.304386
125.500000 136.782227
125.500000 137.260905
125.500000 137.740419
125.500000 138.220769
125.500000 138.701955
125.500000 139.183977
125.500000 139.666835
125.500000 140.150529
125.500000 140.635060
125.500000 141.120426
125.500000 141.606629
125.500000 142.093668
125.500000 142.581542
125.500000 143.070253
125.500000 143.559801
125.500000 144.050184
125.500000 144.541403
125.500000 145.033459
125.500000 145.526350
125.500000 146.020078
125.500000 146.514642
125.500000 147.010042
125.500000 147.506278
125.500000 148.003350
125.500000 148.501258
125.500000 149.000003
125.500000 149.499583
125.500000 150.000000
</POINTS>
</NEKTAR>

