<?xml version="1.0" encoding="utf-8" ?>
<NEKTAR>
<POINTS DIM="2" FIELDS="">
71.500000 -0.500000
71.500000 -0.499581
71.500000 -0.498322
71.500000 -0.496225
71.500000 -0.493289
71.500000 -0.489514
71.500000 -0.484900
71.500000 -0.479447
71.500000 -0.473155
71.500000 -0.466024
71.500000 -0.458055
71.500000 -0.449246
71.500000 -0.439599
71.500000 -0.429113
71.500000 -0.417787
71.500000 -0.405623
71.500000 -0.392620
71.500000 -0.378778
71.500000 -0.364097
71.500000 -0.348578
71.500000 -0.332219
71.500000 -0.315021
71.500000 -0.296985
71.500000 -0.278110
71.500000 -0.258395
71.500000 -0.237842
71.500000 -0.216450
71.500000 -0.194219
71.500000 -0.171149
71.500000 -0.147240
71.500000 -0.122493
71.500000 -0.096906
71.500000 -0.070481
71.500000 -0.043216
71.500000 -0.015113
71.500000 0.013829
71.500000 0.043611
71.500000 0.074231
71.500000 0.105690
71.500000 0.137987
71.500000 0.171124
71.500000 0.205100
71.500000 0.239914
71.500000 0.275568
71.500000 0.312060
71.500000 0.349391
71.500000 0.387562
71.500000 0.426571
71.500000 0.466419
71.500000 0.507106
71.500000 0.548631
71.500000 0.590996
71.500000 0.634200
71.500000 0.678242
71.500000 0.723124
71.500000 0.768844
71.500000 0.815403
71.500000 0.862801
71.500000 0.911038
71.500000 0.960114
71.500000 1.010029
71.500000 1.060783
71.500000 1.112376
71.500000 1.164807
71.500000 1.218078
71.500000 1.272187
71.500000 1.327135
71.500000 1.382923
71.500000 1.439549
71.500000 1.497014
71.500000 1.555318
71.500000 1.614460
71.500000 1.674442
71.500000 1.735263
71.500000 1.796922
71.500000 1.859421
71.500000 1.922758
71.500000 1.986934
71.500000 2.051949
71.500000 2.117803
71.500000 2.184496
71.500000 2.252028
71.500000 2.320399
71.500000 2.389609
71.500000 2.459657
71.500000 2.530545
71.500000 2.602271
71.500000 2.674836
71.500000 2.748241
71.500000 2.822484
71.500000 2.897566
71.500000 2.973487
71.500000 3.050247
71.500000 3.127845
71.500000 3.206283
71.500000 3.285559
71.500000 3.365675
71.500000 3.446629
71.500000 3.528422
71.500000 3.611055
71.500000 3.694526
71.500000 3.778836
71.500000 3.863984
71.500000 3.949972
71.500000 4.036799
71.500000 4.124465
71.500000 4.212969
71.500000 4.302312
71.500000 4.392495
71.500000 4.483516
71.500000 4.575376
71.500000 4.668075
71.500000 4.761613
71.500000 4.855990
71.500000 4.951206
71.500000 5.047260
71.500000 5.144154
71.500000 5.241886
71.500000 5.340458
71.500000 5.439868
71.500000 5.540117
71.500000 5.641205
71.500000 5.743132
71.500000 5.845898
71.500000 5.949503
71.500000 6.053946
71.500000 6.159229
71.500000 6.265350
71.500000 6.372311
71.500000 6.480110
71.500000 6.588748
71.500000 6.698225
71.500000 6.808542
71.500000 6.919696
71.500000 7.031690
71.500000 7.144523
71.500000 7.258195
71.500000 7.372705
71.500000 7.488055
71.500000 7.604243
71.500000 7.721270
71.500000 7.839136
71.500000 7.957842
71.500000 8.077386
71.500000 8.197768
71.500000 8.318990
71.500000 8.441051
71.500000 8.563950
71.500000 8.687689
71.500000 8.812266
71.500000 8.937683
71.500000 9.063938
71.500000 9.191032
71.500000 9.318965
71.500000 9.447737
71.500000 9.577348
71.500000 9.707798
71.500000 9.839086
71.500000 9.971214
71.500000 10.104180
71.500000 10.237986
71.500000 10.372630
71.500000 10.508113
71.500000 10.644435
71.500000 10.781596
71.500000 10.919596
71.500000 11.058435
71.500000 11.198113
71.500000 11.338629
71.500000 11.479985
71.500000 11.622179
71.500000 11.765212
71.500000 11.909085
71.500000 12.053796
71.500000 12.199346
71.500000 12.345735
71.500000 12.492963
71.500000 12.641029
71.500000 12.789935
71.500000 12.939680
71.500000 13.090263
71.500000 13.241686
71.500000 13.393947
71.500000 13.547047
71.500000 13.700986
71.500000 13.855764
71.500000 14.011381
71.500000 14.167837
71.500000 14.325131
71.500000 14.483265
71.500000 14.642238
71.500000 14.802049
71.500000 14.962699
71.500000 15.124189
71.500000 15.286517
71.500000 15.449684
71.500000 15.613690
71.500000 15.778535
71.500000 15.944218
71.500000 16.110741
71.500000 16.278103
71.500000 16.446303
71.500000 16.615342
71.500000 16.785221
71.500000 16.955938
71.500000 17.127494
71.500000 17.299889
71.500000 17.473123
71.500000 17.647196
71.500000 17.822108
71.500000 17.997858
71.500000 18.174448
71.500000 18.351876
71.500000 18.530143
71.500000 18.709250
71.500000 18.889195
71.500000 19.069979
71.500000 19.251602
71.500000 19.434064
71.500000 19.617365
71.500000 19.801504
71.500000 19.986483
71.500000 20.172300
71.500000 20.358957
71.500000 20.546452
71.500000 20.734786
71.500000 20.923959
71.500000 21.113971
71.500000 21.304822
71.500000 21.496512
71.500000 21.689041
71.500000 21.882408
71.500000 22.076615
71.500000 22.271660
71.500000 22.467545
71.500000 22.664268
71.500000 22.861830
71.500000 23.060231
71.500000 23.259471
71.500000 23.459550
71.500000 23.660468
71.500000 23.862224
71.500000 24.064820
71.500000 24.268255
71.500000 24.472528
71.500000 24.677640
71.500000 24.883591
71.500000 25.090382
71.500000 25.298011
71.500000 25.506479
71.500000 25.715785
71.500000 25.925931
71.500000 26.136916
71.500000 26.348739
71.500000 26.561402
71.500000 26.774903
71.500000 26.989243
71.500000 27.204423
71.500000 27.420441
71.500000 27.637298
71.500000 27.854993
71.500000 28.073528
71.500000 28.292902
71.500000 28.513115
71.500000 28.734166
71.500000 28.956056
71.500000 29.178786
71.500000 29.402354
71.500000 29.626761
71.500000 29.852007
71.500000 30.078092
71.500000 30.305016
71.500000 30.532779
71.500000 30.761380
71.500000 30.990821
71.500000 31.221100
71.500000 31.452219
71.500000 31.684176
71.500000 31.916972
71.500000 32.150607
71.500000 32.385081
71.500000 32.620394
71.500000 32.856546
71.500000 33.093537
71.500000 33.331366
71.500000 33.570035
71.500000 33.809542
71.500000 34.049888
71.500000 34.291074
71.500000 34.533098
71.500000 34.775961
71.500000 35.019663
71.500000 35.264204
71.500000 35.509583
71.500000 35.755802
71.500000 36.002860
71.500000 36.250756
71.500000 36.499491
71.500000 36.749066
71.500000 36.999479
71.500000 37.250731
71.500000 37.502822
71.500000 37.755752
71.500000 38.009521
71.500000 38.264128
71.500000 38.519575
71.500000 38.775860
71.500000 39.032985
71.500000 39.290948
71.500000 39.549750
71.500000 39.809392
71.500000 40.069872
71.500000 40.331191
71.500000 40.593348
71.500000 40.856345
71.500000 41.120181
71.500000 41.384855
71.500000 41.650369
71.500000 41.916721
71.500000 42.183913
71.500000 42.451943
71.500000 42.720812
71.500000 42.990520
71.500000 43.261067
71.500000 43.532453
71.500000 43.804677
71.500000 44.077741
71.500000 44.351643
71.500000 44.626385
71.500000 44.901965
71.500000 45.178384
71.500000 45.455643
71.500000 45.733740
71.500000 46.012676
71.500000 46.292450
71.500000 46.573064
71.500000 46.854517
71.500000 47.136808
71.500000 47.419939
71.500000 47.703908
71.500000 47.988717
71.500000 48.274364
71.500000 48.560850
71.500000 48.848175
71.500000 49.136339
71.500000 49.425342
71.500000 49.715183
71.500000 50.005864
71.500000 50.297384
71.500000 50.589742
71.500000 50.882939
71.500000 51.176976
71.500000 51.471851
71.500000 51.767565
71.500000 52.064118
71.500000 52.361510
71.500000 52.659740
71.500000 52.958810
71.500000 53.258719
71.500000 53.559466
71.500000 53.861053
71.500000 54.163478
71.500000 54.466742
71.500000 54.770845
71.500000 55.075787
71.500000 55.381568
71.500000 55.688188
71.500000 55.995647
71.500000 56.303944
71.500000 56.613081
71.500000 56.923056
71.500000 57.233871
71.500000 57.545524
71.500000 57.858016
71.500000 58.171347
71.500000 58.485517
71.500000 58.800526
71.500000 59.116374
71.500000 59.433060
71.500000 59.750586
71.500000 60.068950
71.500000 60.388154
71.500000 60.708196
71.500000 61.029077
71.500000 61.350798
71.500000 61.673357
71.500000 61.996754
71.500000 62.320991
71.500000 62.646067
71.500000 62.971982
71.500000 63.298735
71.500000 63.626328
71.500000 63.954759
71.500000 64.284029
71.500000 64.614138
71.500000 64.945087
71.500000 65.276874
71.500000 65.609499
71.500000 65.942964
71.500000 66.277268
71.500000 66.612411
71.500000 66.948392
71.500000 67.285212
71.500000 67.622872
71.500000 67.961370
71.500000 68.300707
71.500000 68.640883
71.500000 68.981898
71.500000 69.323752
71.500000 69.666445
71.500000 70.009976
71.500000 70.354347
71.500000 70.699556
71.500000 71.045605
71.500000 71.392492
71.500000 71.740218
71.500000 72.088783
71.500000 72.438187
71.500000 72.788430
71.500000 73.139512
71.500000 73.491433
71.500000 73.844192
71.500000 74.197791
71.500000 74.552228
71.500000 74.907504
71.500000 75.263620
71.500000 75.620574
71.500000 75.978367
71.500000 76.336999
71.500000 76.696470
71.500000 77.056779
71.500000 77.417928
71.500000 77.779916
71.500000 78.142742
71.500000 78.506407
71.500000 78.870912
71.500000 79.236255
71.500000 79.602437
71.500000 79.969458
71.500000 80.337318
71.500000 80.706017
71.500000 81.075554
71.500000 81.445931
71.500000 81.817147
71.500000 82.189201
71.500000 82.562094
71.500000 82.935827
71.500000 83.310398
71.500000 83.685808
71.500000 84.062057
71.500000 84.439145
71.500000 84.817071
71.500000 85.195837
71.500000 85.575442
71.500000 85.955885
71.500000 86.337167
71.500000 86.719289
71.500000 87.102249
71.500000 87.486048
71.500000 87.870686
71.500000 88.256163
71.500000 88.642479
71.500000 89.029633
71.500000 89.417627
71.500000 89.806460
71.500000 90.196131
71.500000 90.586641
71.500000 90.977991
71.500000 91.370179
71.500000 91.763206
71.500000 92.157072
71.500000 92.551777
71.500000 92.947320
71.500000 93.343703
71.500000 93.740925
71.500000 94.138985
71.500000 94.537885
71.500000 94.937623
71.500000 95.338200
71.500000 95.739616
71.500000 96.141871
71.500000 96.544965
71.500000 96.948898
71.500000 97.353670
71.500000 97.759280
71.500000 98.165730
71.500000 98.573018
71.500000 98.981146
71.500000 99.390112
71.500000 99.799917
71.500000 100.210561
71.500000 100.622044
71.500000 101.034366
71.500000 101.447527
71.500000 101.861526
71.500000 102.276365
71.500000 102.692042
71.500000 103.108559
71.500000 103.525914
71.500000 103.944108
71.500000 104.363141
71.500000 104.783013
71.500000 105.203724
71.500000 105.625274
71.500000 106.047663
71.500000 106.470891
71.500000 106.894957
71.500000 107.319863
71.500000 107.745607
71.500000 108.172190
71.500000 108.599612
71.500000 109.027873
71.500000 109.456973
71.500000 109.886912
71.500000 110.317690
71.500000 110.749307
71.500000 111.181762
71.500000 111.615057
71.500000 112.049190
71.500000 112.484163
71.500000 112.919974
71.500000 113.356624
71.500000 113.794113
71.500000 114.232441
71.500000 114.671608
71.500000 115.111613
71.500000 115.552458
71.500000 115.994142
71.500000 116.436664
71.500000 116.880025
71.500000 117.324226
71.500000 117.769265
71.500000 118.215143
71.500000 118.661860
71.500000 119.109416
71.500000 119.557811
71.500000 120.007044
71.500000 120.457117
71.500000 120.908028
71.500000 121.359779
71.500000 121.812368
71.500000 122.265796
71.500000 122.720063
71.500000 123.175170
71.500000 123.631114
71.500000 124.087898
71.500000 124.545521
71.500000 125.003983
71.500000 125.463283
71.500000 125.923423
71.500000 126.384401
71.500000 126.846218
71.500000 127.308875
71.500000 127.772370
71.500000 128.236704
71.500000 128.701877
71.500000 129.167888
71.500000 129.634739
71.500000 130.102429
71.500000 130.570957
71.500000 131.040325
71.500000 131.510531
71.500000 131.981576
71.500000 132.453460
71.500000 132.926183
71.500000 133.399745
71.500000 133.874146
71.500000 134.349386
71.500000 134.825465
71.500000 135.302382
71.500000 135.780139
71.500000 136.258734
71.500000 136.738168
71.500000 137.218441
71.500000 137.699554
71.500000 138.181505
71.500000 138.664294
71.500000 139.147923
71.500000 139.632391
71.500000 140.117698
71.500000 140.603843
71.500000 141.090828
71.500000 141.578651
71.500000 142.067313
71.500000 142.556814
71.500000 143.047154
71.500000 143.538333
71.500000 144.030351
71.500000 144.523208
71.500000 145.016904
71.500000 145.511438
71.500000 146.006812
71.500000 146.503024
71.500000 147.000075
71.500000 147.497965
71.500000 147.996695
71.500000 148.496263
71.500000 148.996669
71.500000 149.497915
71.500000 150.000000
</POINTS>
</NEKTAR>

