<?xml version="1.0" encoding="utf-8" ?>
<NEKTAR>
<POINTS DIM="2" FIELDS="">
113.500000 0.000000
113.500000 0.000418
113.500000 0.001672
113.500000 0.003763
113.500000 0.006689
113.500000 0.010451
113.500000 0.015050
113.500000 0.020485
113.500000 0.026756
113.500000 0.033863
113.500000 0.041806
113.500000 0.050585
113.500000 0.060201
113.500000 0.070652
113.500000 0.081940
113.500000 0.094063
113.500000 0.107023
113.500000 0.120819
113.500000 0.135451
113.500000 0.150919
113.500000 0.167224
113.500000 0.184364
113.500000 0.202341
113.500000 0.221153
113.500000 0.240802
113.500000 0.261287
113.500000 0.282608
113.500000 0.304765
113.500000 0.327758
113.500000 0.351588
113.500000 0.376253
113.500000 0.401755
113.500000 0.428092
113.500000 0.455266
113.500000 0.483276
113.500000 0.512122
113.500000 0.541805
113.500000 0.572323
113.500000 0.603677
113.500000 0.635868
113.500000 0.668894
113.500000 0.702757
113.500000 0.737456
113.500000 0.772991
113.500000 0.809362
113.500000 0.846570
113.500000 0.884613
113.500000 0.923492
113.500000 0.963208
113.500000 1.003760
113.500000 1.045148
113.500000 1.087372
113.500000 1.130432
113.500000 1.174328
113.500000 1.219060
113.500000 1.264629
113.500000 1.311033
113.500000 1.358274
113.500000 1.406351
113.500000 1.455264
113.500000 1.505013
113.500000 1.555598
113.500000 1.607019
113.500000 1.659276
113.500000 1.712370
113.500000 1.766299
113.500000 1.821065
113.500000 1.876667
113.500000 1.933105
113.500000 1.990379
113.500000 2.048489
113.500000 2.107436
113.500000 2.167218
113.500000 2.227837
113.500000 2.289291
113.500000 2.351582
113.500000 2.414709
113.500000 2.478672
113.500000 2.543471
113.500000 2.609106
113.500000 2.675578
113.500000 2.742885
113.500000 2.811029
113.500000 2.880009
113.500000 2.949825
113.500000 3.020477
113.500000 3.091965
113.500000 3.164289
113.500000 3.237449
113.500000 3.311446
113.500000 3.386278
113.500000 3.461947
113.500000 3.538452
113.500000 3.615793
113.500000 3.693970
113.500000 3.772983
113.500000 3.852832
113.500000 3.933517
113.500000 4.015039
113.500000 4.097397
113.500000 4.180590
113.500000 4.264620
113.500000 4.349486
113.500000 4.435188
113.500000 4.521727
113.500000 4.609101
113.500000 4.697311
113.500000 4.786358
113.500000 4.876241
113.500000 4.966959
113.500000 5.058514
113.500000 5.150905
113.500000 5.244133
113.500000 5.338196
113.500000 5.433095
113.500000 5.528831
113.500000 5.625402
113.500000 5.722810
113.500000 5.821054
113.500000 5.920134
113.500000 6.020050
113.500000 6.120802
113.500000 6.222391
113.500000 6.324815
113.500000 6.428076
113.500000 6.532172
113.500000 6.637105
113.500000 6.742874
113.500000 6.849479
113.500000 6.956920
113.500000 7.065198
113.500000 7.174311
113.500000 7.284261
113.500000 7.395046
113.500000 7.506668
113.500000 7.619126
113.500000 7.732420
113.500000 7.846550
113.500000 7.961516
113.500000 8.077319
113.500000 8.193957
113.500000 8.311432
113.500000 8.429742
113.500000 8.548889
113.500000 8.668872
113.500000 8.789691
113.500000 8.911346
113.500000 9.033838
113.500000 9.157165
113.500000 9.281329
113.500000 9.406328
113.500000 9.532164
113.500000 9.658836
113.500000 9.786344
113.500000 9.914688
113.500000 10.043868
113.500000 10.173885
113.500000 10.304737
113.500000 10.436426
113.500000 10.568950
113.500000 10.702311
113.500000 10.836508
113.500000 10.971541
113.500000 11.107411
113.500000 11.244116
113.500000 11.381657
113.500000 11.520035
113.500000 11.659248
113.500000 11.799298
113.500000 11.940184
113.500000 12.081906
113.500000 12.224464
113.500000 12.367859
113.500000 12.512089
113.500000 12.657155
113.500000 12.803058
113.500000 12.949797
113.500000 13.097372
113.500000 13.245782
113.500000 13.395030
113.500000 13.545113
113.500000 13.696032
113.500000 13.847787
113.500000 14.000379
113.500000 14.153807
113.500000 14.308070
113.500000 14.463170
113.500000 14.619106
113.500000 14.775879
113.500000 14.933487
113.500000 15.091931
113.500000 15.251212
113.500000 15.411328
113.500000 15.572281
113.500000 15.734070
113.500000 15.896695
113.500000 16.060156
113.500000 16.224453
113.500000 16.389586
113.500000 16.555556
113.500000 16.722361
113.500000 16.890003
113.500000 17.058481
113.500000 17.227795
113.500000 17.397945
113.500000 17.568931
113.500000 17.740753
113.500000 17.913412
113.500000 18.086906
113.500000 18.261237
113.500000 18.436403
113.500000 18.612406
113.500000 18.789245
113.500000 18.966920
113.500000 19.145432
113.500000 19.324779
113.500000 19.504962
113.500000 19.685982
113.500000 19.867838
113.500000 20.050529
113.500000 20.234057
113.500000 20.418421
113.500000 20.603622
113.500000 20.789658
113.500000 20.976530
113.500000 21.164239
113.500000 21.352783
113.500000 21.542164
113.500000 21.732381
113.500000 21.923434
113.500000 22.115323
113.500000 22.308048
113.500000 22.501610
113.500000 22.696007
113.500000 22.891241
113.500000 23.087310
113.500000 23.284216
113.500000 23.481958
113.500000 23.680536
113.500000 23.879950
113.500000 24.080200
113.500000 24.281287
113.500000 24.483209
113.500000 24.685968
113.500000 24.889563
113.500000 25.093994
113.500000 25.299261
113.500000 25.505364
113.500000 25.712303
113.500000 25.920078
113.500000 26.128690
113.500000 26.338137
113.500000 26.548421
113.500000 26.759541
113.500000 26.971497
113.500000 27.184289
113.500000 27.397917
113.500000 27.612381
113.500000 27.827682
113.500000 28.043818
113.500000 28.260791
113.500000 28.478600
113.500000 28.697244
113.500000 28.916725
113.500000 29.137043
113.500000 29.358196
113.500000 29.580185
113.500000 29.803011
113.500000 30.026672
113.500000 30.251170
113.500000 30.476504
113.500000 30.702674
113.500000 30.929680
113.500000 31.157522
113.500000 31.386200
113.500000 31.615715
113.500000 31.846065
113.500000 32.077252
113.500000 32.309275
113.500000 32.542133
113.500000 32.775828
113.500000 33.010360
113.500000 33.245727
113.500000 33.481930
113.500000 33.718970
113.500000 33.956845
113.500000 34.195557
113.500000 34.435105
113.500000 34.675489
113.500000 34.916709
113.500000 35.158765
113.500000 35.401657
113.500000 35.645386
113.500000 35.889950
113.500000 36.135351
113.500000 36.381588
113.500000 36.628660
113.500000 36.876569
113.500000 37.125315
113.500000 37.374896
113.500000 37.625313
113.500000 37.876567
113.500000 38.128656
113.500000 38.381582
113.500000 38.635344
113.500000 38.889942
113.500000 39.145376
113.500000 39.401646
113.500000 39.658752
113.500000 39.916695
113.500000 40.175473
113.500000 40.435088
113.500000 40.695539
113.500000 40.956826
113.500000 41.218949
113.500000 41.481908
113.500000 41.745703
113.500000 42.010334
113.500000 42.275802
113.500000 42.542106
113.500000 42.809245
113.500000 43.077221
113.500000 43.346033
113.500000 43.615681
113.500000 43.886165
113.500000 44.157486
113.500000 44.429642
113.500000 44.702635
113.500000 44.976463
113.500000 45.251128
113.500000 45.526629
113.500000 45.802966
113.500000 46.080139
113.500000 46.358148
113.500000 46.636994
113.500000 46.916675
113.500000 47.197193
113.500000 47.478547
113.500000 47.760736
113.500000 48.043762
113.500000 48.327625
113.500000 48.612323
113.500000 48.897857
113.500000 49.184227
113.500000 49.471434
113.500000 49.759477
113.500000 50.048355
113.500000 50.338070
113.500000 50.628621
113.500000 50.920009
113.500000 51.212232
113.500000 51.505291
113.500000 51.799187
113.500000 52.093918
113.500000 52.389486
113.500000 52.685890
113.500000 52.983130
113.500000 53.281206
113.500000 53.580118
113.500000 53.879867
113.500000 54.180451
113.500000 54.481872
113.500000 54.784128
113.500000 55.087221
113.500000 55.391150
113.500000 55.695915
113.500000 56.001516
113.500000 56.307953
113.500000 56.615227
113.500000 56.923336
113.500000 57.232282
113.500000 57.542064
113.500000 57.852682
113.500000 58.164136
113.500000 58.476426
113.500000 58.789552
113.500000 59.103514
113.500000 59.418313
113.500000 59.733947
113.500000 60.050418
113.500000 60.367725
113.500000 60.685868
113.500000 61.004847
113.500000 61.324662
113.500000 61.645313
113.500000 61.966801
113.500000 62.289124
113.500000 62.612284
113.500000 62.936279
113.500000 63.261111
113.500000 63.586779
113.500000 63.913283
113.500000 64.240624
113.500000 64.568800
113.500000 64.897812
113.500000 65.227661
113.500000 65.558346
113.500000 65.889867
113.500000 66.222223
113.500000 66.555417
113.500000 66.889446
113.500000 67.224311
113.500000 67.560012
113.500000 67.896550
113.500000 68.233924
113.500000 68.572133
113.500000 68.911179
113.500000 69.251061
113.500000 69.591779
113.500000 69.933334
113.500000 70.275724
113.500000 70.618950
113.500000 70.963013
113.500000 71.307912
113.500000 71.653646
113.500000 72.000217
113.500000 72.347624
113.500000 72.695868
113.500000 73.044947
113.500000 73.394862
113.500000 73.745614
113.500000 74.097202
113.500000 74.449625
113.500000 74.802885
113.500000 75.156981
113.500000 75.511913
113.500000 75.867682
113.500000 76.224286
113.500000 76.581726
113.500000 76.940003
113.500000 77.299116
113.500000 77.659064
113.500000 78.019849
113.500000 78.381471
113.500000 78.743928
113.500000 79.107221
113.500000 79.471350
113.500000 79.836316
113.500000 80.202118
113.500000 80.568755
113.500000 80.936229
113.500000 81.304539
113.500000 81.673685
113.500000 82.043668
113.500000 82.414486
113.500000 82.786141
113.500000 83.158631
113.500000 83.531958
113.500000 83.906121
113.500000 84.281120
113.500000 84.656955
113.500000 85.033626
113.500000 85.411133
113.500000 85.789477
113.500000 86.168656
113.500000 86.548672
113.500000 86.929524
113.500000 87.311212
113.500000 87.693736
113.500000 88.077096
113.500000 88.461292
113.500000 88.846324
113.500000 89.232193
113.500000 89.618897
113.500000 90.006438
113.500000 90.394815
113.500000 90.784028
113.500000 91.174077
113.500000 91.564962
113.500000 91.956684
113.500000 92.349241
113.500000 92.742634
113.500000 93.136864
113.500000 93.531930
113.500000 93.927832
113.500000 94.324570
113.500000 94.722144
113.500000 95.120554
113.500000 95.519801
113.500000 95.919883
113.500000 96.320802
113.500000 96.722557
113.500000 97.125147
113.500000 97.528574
113.500000 97.932837
113.500000 98.337937
113.500000 98.743872
113.500000 99.150643
113.500000 99.558251
113.500000 99.966695
113.500000 100.375974
113.500000 100.786090
113.500000 101.197042
113.500000 101.608831
113.500000 102.021455
113.500000 102.434915
113.500000 102.849212
113.500000 103.264344
113.500000 103.680313
113.500000 104.097118
113.500000 104.514759
113.500000 104.933236
113.500000 105.352549
113.500000 105.772699
113.500000 106.193684
113.500000 106.615506
113.500000 107.038163
113.500000 107.461657
113.500000 107.885987
113.500000 108.311153
113.500000 108.737155
113.500000 109.163993
113.500000 109.591668
113.500000 110.020178
113.500000 110.449525
113.500000 110.879708
113.500000 111.310727
113.500000 111.742582
113.500000 112.175273
113.500000 112.608800
113.500000 113.043163
113.500000 113.478363
113.500000 113.914398
113.500000 114.351270
113.500000 114.788978
113.500000 115.227522
113.500000 115.666902
113.500000 116.107118
113.500000 116.548170
113.500000 116.990059
113.500000 117.432783
113.500000 117.876344
113.500000 118.320740
113.500000 118.765973
113.500000 119.212042
113.500000 119.658947
113.500000 120.106689
113.500000 120.555266
113.500000 121.004679
113.500000 121.454929
113.500000 121.906015
113.500000 122.357937
113.500000 122.810695
113.500000 123.264289
113.500000 123.718719
113.500000 124.173985
113.500000 124.630087
113.500000 125.087026
113.500000 125.544801
113.500000 126.003411
113.500000 126.462858
113.500000 126.923141
113.500000 127.384260
113.500000 127.846216
113.500000 128.309007
113.500000 128.772634
113.500000 129.237098
113.500000 129.702398
113.500000 130.168534
113.500000 130.635505
113.500000 131.103314
113.500000 131.571958
113.500000 132.041438
113.500000 132.511754
113.500000 132.982907
113.500000 133.454896
113.500000 133.927720
113.500000 134.401381
113.500000 134.875878
113.500000 135.351211
113.500000 135.827381
113.500000 136.304386
113.500000 136.782227
113.500000 137.260905
113.500000 137.740419
113.500000 138.220769
113.500000 138.701955
113.500000 139.183977
113.500000 139.666835
113.500000 140.150529
113.500000 140.635060
113.500000 141.120426
113.500000 141.606629
113.500000 142.093668
113.500000 142.581542
113.500000 143.070253
113.500000 143.559801
113.500000 144.050184
113.500000 144.541403
113.500000 145.033459
113.500000 145.526350
113.500000 146.020078
113.500000 146.514642
113.500000 147.010042
113.500000 147.506278
113.500000 148.003350
113.500000 148.501258
113.500000 149.000003
113.500000 149.499583
113.500000 150.000000
</POINTS>
</NEKTAR>

