<?xml version="1.0" encoding="utf-8" ?>
<NEKTAR>
<POINTS DIM="2" FIELDS="">
393.500000 0.000000
393.500000 0.000418
393.500000 0.001672
393.500000 0.003763
393.500000 0.006689
393.500000 0.010451
393.500000 0.015050
393.500000 0.020485
393.500000 0.026756
393.500000 0.033863
393.500000 0.041806
393.500000 0.050585
393.500000 0.060201
393.500000 0.070652
393.500000 0.081940
393.500000 0.094063
393.500000 0.107023
393.500000 0.120819
393.500000 0.135451
393.500000 0.150919
393.500000 0.167224
393.500000 0.184364
393.500000 0.202341
393.500000 0.221153
393.500000 0.240802
393.500000 0.261287
393.500000 0.282608
393.500000 0.304765
393.500000 0.327758
393.500000 0.351588
393.500000 0.376253
393.500000 0.401755
393.500000 0.428092
393.500000 0.455266
393.500000 0.483276
393.500000 0.512122
393.500000 0.541805
393.500000 0.572323
393.500000 0.603677
393.500000 0.635868
393.500000 0.668894
393.500000 0.702757
393.500000 0.737456
393.500000 0.772991
393.500000 0.809362
393.500000 0.846570
393.500000 0.884613
393.500000 0.923492
393.500000 0.963208
393.500000 1.003760
393.500000 1.045148
393.500000 1.087372
393.500000 1.130432
393.500000 1.174328
393.500000 1.219060
393.500000 1.264629
393.500000 1.311033
393.500000 1.358274
393.500000 1.406351
393.500000 1.455264
393.500000 1.505013
393.500000 1.555598
393.500000 1.607019
393.500000 1.659276
393.500000 1.712370
393.500000 1.766299
393.500000 1.821065
393.500000 1.876667
393.500000 1.933105
393.500000 1.990379
393.500000 2.048489
393.500000 2.107436
393.500000 2.167218
393.500000 2.227837
393.500000 2.289291
393.500000 2.351582
393.500000 2.414709
393.500000 2.478672
393.500000 2.543471
393.500000 2.609106
393.500000 2.675578
393.500000 2.742885
393.500000 2.811029
393.500000 2.880009
393.500000 2.949825
393.500000 3.020477
393.500000 3.091965
393.500000 3.164289
393.500000 3.237449
393.500000 3.311446
393.500000 3.386278
393.500000 3.461947
393.500000 3.538452
393.500000 3.615793
393.500000 3.693970
393.500000 3.772983
393.500000 3.852832
393.500000 3.933517
393.500000 4.015039
393.500000 4.097397
393.500000 4.180590
393.500000 4.264620
393.500000 4.349486
393.500000 4.435188
393.500000 4.521727
393.500000 4.609101
393.500000 4.697311
393.500000 4.786358
393.500000 4.876241
393.500000 4.966959
393.500000 5.058514
393.500000 5.150905
393.500000 5.244133
393.500000 5.338196
393.500000 5.433095
393.500000 5.528831
393.500000 5.625402
393.500000 5.722810
393.500000 5.821054
393.500000 5.920134
393.500000 6.020050
393.500000 6.120802
393.500000 6.222391
393.500000 6.324815
393.500000 6.428076
393.500000 6.532172
393.500000 6.637105
393.500000 6.742874
393.500000 6.849479
393.500000 6.956920
393.500000 7.065198
393.500000 7.174311
393.500000 7.284261
393.500000 7.395046
393.500000 7.506668
393.500000 7.619126
393.500000 7.732420
393.500000 7.846550
393.500000 7.961516
393.500000 8.077319
393.500000 8.193957
393.500000 8.311432
393.500000 8.429742
393.500000 8.548889
393.500000 8.668872
393.500000 8.789691
393.500000 8.911346
393.500000 9.033838
393.500000 9.157165
393.500000 9.281329
393.500000 9.406328
393.500000 9.532164
393.500000 9.658836
393.500000 9.786344
393.500000 9.914688
393.500000 10.043868
393.500000 10.173885
393.500000 10.304737
393.500000 10.436426
393.500000 10.568950
393.500000 10.702311
393.500000 10.836508
393.500000 10.971541
393.500000 11.107411
393.500000 11.244116
393.500000 11.381657
393.500000 11.520035
393.500000 11.659248
393.500000 11.799298
393.500000 11.940184
393.500000 12.081906
393.500000 12.224464
393.500000 12.367859
393.500000 12.512089
393.500000 12.657155
393.500000 12.803058
393.500000 12.949797
393.500000 13.097372
393.500000 13.245782
393.500000 13.395030
393.500000 13.545113
393.500000 13.696032
393.500000 13.847787
393.500000 14.000379
393.500000 14.153807
393.500000 14.308070
393.500000 14.463170
393.500000 14.619106
393.500000 14.775879
393.500000 14.933487
393.500000 15.091931
393.500000 15.251212
393.500000 15.411328
393.500000 15.572281
393.500000 15.734070
393.500000 15.896695
393.500000 16.060156
393.500000 16.224453
393.500000 16.389586
393.500000 16.555556
393.500000 16.722361
393.500000 16.890003
393.500000 17.058481
393.500000 17.227795
393.500000 17.397945
393.500000 17.568931
393.500000 17.740753
393.500000 17.913412
393.500000 18.086906
393.500000 18.261237
393.500000 18.436403
393.500000 18.612406
393.500000 18.789245
393.500000 18.966920
393.500000 19.145432
393.500000 19.324779
393.500000 19.504962
393.500000 19.685982
393.500000 19.867838
393.500000 20.050529
393.500000 20.234057
393.500000 20.418421
393.500000 20.603622
393.500000 20.789658
393.500000 20.976530
393.500000 21.164239
393.500000 21.352783
393.500000 21.542164
393.500000 21.732381
393.500000 21.923434
393.500000 22.115323
393.500000 22.308048
393.500000 22.501610
393.500000 22.696007
393.500000 22.891241
393.500000 23.087310
393.500000 23.284216
393.500000 23.481958
393.500000 23.680536
393.500000 23.879950
393.500000 24.080200
393.500000 24.281287
393.500000 24.483209
393.500000 24.685968
393.500000 24.889563
393.500000 25.093994
393.500000 25.299261
393.500000 25.505364
393.500000 25.712303
393.500000 25.920078
393.500000 26.128690
393.500000 26.338137
393.500000 26.548421
393.500000 26.759541
393.500000 26.971497
393.500000 27.184289
393.500000 27.397917
393.500000 27.612381
393.500000 27.827682
393.500000 28.043818
393.500000 28.260791
393.500000 28.478600
393.500000 28.697244
393.500000 28.916725
393.500000 29.137043
393.500000 29.358196
393.500000 29.580185
393.500000 29.803011
393.500000 30.026672
393.500000 30.251170
393.500000 30.476504
393.500000 30.702674
393.500000 30.929680
393.500000 31.157522
393.500000 31.386200
393.500000 31.615715
393.500000 31.846065
393.500000 32.077252
393.500000 32.309275
393.500000 32.542133
393.500000 32.775828
393.500000 33.010360
393.500000 33.245727
393.500000 33.481930
393.500000 33.718970
393.500000 33.956845
393.500000 34.195557
393.500000 34.435105
393.500000 34.675489
393.500000 34.916709
393.500000 35.158765
393.500000 35.401657
393.500000 35.645386
393.500000 35.889950
393.500000 36.135351
393.500000 36.381588
393.500000 36.628660
393.500000 36.876569
393.500000 37.125315
393.500000 37.374896
393.500000 37.625313
393.500000 37.876567
393.500000 38.128656
393.500000 38.381582
393.500000 38.635344
393.500000 38.889942
393.500000 39.145376
393.500000 39.401646
393.500000 39.658752
393.500000 39.916695
393.500000 40.175473
393.500000 40.435088
393.500000 40.695539
393.500000 40.956826
393.500000 41.218949
393.500000 41.481908
393.500000 41.745703
393.500000 42.010334
393.500000 42.275802
393.500000 42.542106
393.500000 42.809245
393.500000 43.077221
393.500000 43.346033
393.500000 43.615681
393.500000 43.886165
393.500000 44.157486
393.500000 44.429642
393.500000 44.702635
393.500000 44.976463
393.500000 45.251128
393.500000 45.526629
393.500000 45.802966
393.500000 46.080139
393.500000 46.358148
393.500000 46.636994
393.500000 46.916675
393.500000 47.197193
393.500000 47.478547
393.500000 47.760736
393.500000 48.043762
393.500000 48.327625
393.500000 48.612323
393.500000 48.897857
393.500000 49.184227
393.500000 49.471434
393.500000 49.759477
393.500000 50.048355
393.500000 50.338070
393.500000 50.628621
393.500000 50.920009
393.500000 51.212232
393.500000 51.505291
393.500000 51.799187
393.500000 52.093918
393.500000 52.389486
393.500000 52.685890
393.500000 52.983130
393.500000 53.281206
393.500000 53.580118
393.500000 53.879867
393.500000 54.180451
393.500000 54.481872
393.500000 54.784128
393.500000 55.087221
393.500000 55.391150
393.500000 55.695915
393.500000 56.001516
393.500000 56.307953
393.500000 56.615227
393.500000 56.923336
393.500000 57.232282
393.500000 57.542064
393.500000 57.852682
393.500000 58.164136
393.500000 58.476426
393.500000 58.789552
393.500000 59.103514
393.500000 59.418313
393.500000 59.733947
393.500000 60.050418
393.500000 60.367725
393.500000 60.685868
393.500000 61.004847
393.500000 61.324662
393.500000 61.645313
393.500000 61.966801
393.500000 62.289124
393.500000 62.612284
393.500000 62.936279
393.500000 63.261111
393.500000 63.586779
393.500000 63.913283
393.500000 64.240624
393.500000 64.568800
393.500000 64.897812
393.500000 65.227661
393.500000 65.558346
393.500000 65.889867
393.500000 66.222223
393.500000 66.555417
393.500000 66.889446
393.500000 67.224311
393.500000 67.560012
393.500000 67.896550
393.500000 68.233924
393.500000 68.572133
393.500000 68.911179
393.500000 69.251061
393.500000 69.591779
393.500000 69.933334
393.500000 70.275724
393.500000 70.618950
393.500000 70.963013
393.500000 71.307912
393.500000 71.653646
393.500000 72.000217
393.500000 72.347624
393.500000 72.695868
393.500000 73.044947
393.500000 73.394862
393.500000 73.745614
393.500000 74.097202
393.500000 74.449625
393.500000 74.802885
393.500000 75.156981
393.500000 75.511913
393.500000 75.867682
393.500000 76.224286
393.500000 76.581726
393.500000 76.940003
393.500000 77.299116
393.500000 77.659064
393.500000 78.019849
393.500000 78.381471
393.500000 78.743928
393.500000 79.107221
393.500000 79.471350
393.500000 79.836316
393.500000 80.202118
393.500000 80.568755
393.500000 80.936229
393.500000 81.304539
393.500000 81.673685
393.500000 82.043668
393.500000 82.414486
393.500000 82.786141
393.500000 83.158631
393.500000 83.531958
393.500000 83.906121
393.500000 84.281120
393.500000 84.656955
393.500000 85.033626
393.500000 85.411133
393.500000 85.789477
393.500000 86.168656
393.500000 86.548672
393.500000 86.929524
393.500000 87.311212
393.500000 87.693736
393.500000 88.077096
393.500000 88.461292
393.500000 88.846324
393.500000 89.232193
393.500000 89.618897
393.500000 90.006438
393.500000 90.394815
393.500000 90.784028
393.500000 91.174077
393.500000 91.564962
393.500000 91.956684
393.500000 92.349241
393.500000 92.742634
393.500000 93.136864
393.500000 93.531930
393.500000 93.927832
393.500000 94.324570
393.500000 94.722144
393.500000 95.120554
393.500000 95.519801
393.500000 95.919883
393.500000 96.320802
393.500000 96.722557
393.500000 97.125147
393.500000 97.528574
393.500000 97.932837
393.500000 98.337937
393.500000 98.743872
393.500000 99.150643
393.500000 99.558251
393.500000 99.966695
393.500000 100.375974
393.500000 100.786090
393.500000 101.197042
393.500000 101.608831
393.500000 102.021455
393.500000 102.434915
393.500000 102.849212
393.500000 103.264344
393.500000 103.680313
393.500000 104.097118
393.500000 104.514759
393.500000 104.933236
393.500000 105.352549
393.500000 105.772699
393.500000 106.193684
393.500000 106.615506
393.500000 107.038163
393.500000 107.461657
393.500000 107.885987
393.500000 108.311153
393.500000 108.737155
393.500000 109.163993
393.500000 109.591668
393.500000 110.020178
393.500000 110.449525
393.500000 110.879708
393.500000 111.310727
393.500000 111.742582
393.500000 112.175273
393.500000 112.608800
393.500000 113.043163
393.500000 113.478363
393.500000 113.914398
393.500000 114.351270
393.500000 114.788978
393.500000 115.227522
393.500000 115.666902
393.500000 116.107118
393.500000 116.548170
393.500000 116.990059
393.500000 117.432783
393.500000 117.876344
393.500000 118.320740
393.500000 118.765973
393.500000 119.212042
393.500000 119.658947
393.500000 120.106689
393.500000 120.555266
393.500000 121.004679
393.500000 121.454929
393.500000 121.906015
393.500000 122.357937
393.500000 122.810695
393.500000 123.264289
393.500000 123.718719
393.500000 124.173985
393.500000 124.630087
393.500000 125.087026
393.500000 125.544801
393.500000 126.003411
393.500000 126.462858
393.500000 126.923141
393.500000 127.384260
393.500000 127.846216
393.500000 128.309007
393.500000 128.772634
393.500000 129.237098
393.500000 129.702398
393.500000 130.168534
393.500000 130.635505
393.500000 131.103314
393.500000 131.571958
393.500000 132.041438
393.500000 132.511754
393.500000 132.982907
393.500000 133.454896
393.500000 133.927720
393.500000 134.401381
393.500000 134.875878
393.500000 135.351211
393.500000 135.827381
393.500000 136.304386
393.500000 136.782227
393.500000 137.260905
393.500000 137.740419
393.500000 138.220769
393.500000 138.701955
393.500000 139.183977
393.500000 139.666835
393.500000 140.150529
393.500000 140.635060
393.500000 141.120426
393.500000 141.606629
393.500000 142.093668
393.500000 142.581542
393.500000 143.070253
393.500000 143.559801
393.500000 144.050184
393.500000 144.541403
393.500000 145.033459
393.500000 145.526350
393.500000 146.020078
393.500000 146.514642
393.500000 147.010042
393.500000 147.506278
393.500000 148.003350
393.500000 148.501258
393.500000 149.000003
393.500000 149.499583
393.500000 150.000000
</POINTS>
</NEKTAR>

