<?xml version="1.0" encoding="utf-8" ?>
<NEKTAR>
<POINTS DIM="2" FIELDS="">
14.500000 -1.000000
14.500000 -0.999579
14.500000 -0.998317
14.500000 -0.996212
14.500000 -0.993266
14.500000 -0.989479
14.500000 -0.984850
14.500000 -0.979379
14.500000 -0.973066
14.500000 -0.965911
14.500000 -0.957915
14.500000 -0.949078
14.500000 -0.939398
14.500000 -0.928877
14.500000 -0.917514
14.500000 -0.905310
14.500000 -0.892263
14.500000 -0.878375
14.500000 -0.863646
14.500000 -0.848075
14.500000 -0.831662
14.500000 -0.814407
14.500000 -0.796310
14.500000 -0.777372
14.500000 -0.757593
14.500000 -0.736971
14.500000 -0.715508
14.500000 -0.693203
14.500000 -0.670057
14.500000 -0.646068
14.500000 -0.621239
14.500000 -0.595567
14.500000 -0.569054
14.500000 -0.541699
14.500000 -0.513502
14.500000 -0.484464
14.500000 -0.454583
14.500000 -0.423862
14.500000 -0.392298
14.500000 -0.359893
14.500000 -0.326646
14.500000 -0.292558
14.500000 -0.257627
14.500000 -0.221856
14.500000 -0.185242
14.500000 -0.147787
14.500000 -0.109490
14.500000 -0.070351
14.500000 -0.030371
14.500000 0.010451
14.500000 0.052115
14.500000 0.094621
14.500000 0.137968
14.500000 0.182157
14.500000 0.227187
14.500000 0.273059
14.500000 0.319773
14.500000 0.367329
14.500000 0.415726
14.500000 0.464965
14.500000 0.515046
14.500000 0.565968
14.500000 0.617732
14.500000 0.670338
14.500000 0.723786
14.500000 0.778075
14.500000 0.833206
14.500000 0.889178
14.500000 0.945992
14.500000 1.003648
14.500000 1.062146
14.500000 1.121485
14.500000 1.181666
14.500000 1.242689
14.500000 1.304553
14.500000 1.367259
14.500000 1.430807
14.500000 1.495197
14.500000 1.560428
14.500000 1.626500
14.500000 1.693415
14.500000 1.761171
14.500000 1.829769
14.500000 1.899209
14.500000 1.969490
14.500000 2.040613
14.500000 2.112578
14.500000 2.185384
14.500000 2.259032
14.500000 2.333522
14.500000 2.408853
14.500000 2.485027
14.500000 2.562041
14.500000 2.639898
14.500000 2.718596
14.500000 2.798136
14.500000 2.878518
14.500000 2.959741
14.500000 3.041806
14.500000 3.124713
14.500000 3.208461
14.500000 3.293051
14.500000 3.378483
14.500000 3.464756
14.500000 3.551871
14.500000 3.639828
14.500000 3.728627
14.500000 3.818267
14.500000 3.908749
14.500000 4.000072
14.500000 4.092238
14.500000 4.185245
14.500000 4.279093
14.500000 4.373784
14.500000 4.469316
14.500000 4.565690
14.500000 4.662905
14.500000 4.760962
14.500000 4.859861
14.500000 4.959602
14.500000 5.060184
14.500000 5.161608
14.500000 5.263873
14.500000 5.366981
14.500000 5.470930
14.500000 5.575720
14.500000 5.681353
14.500000 5.787827
14.500000 5.895142
14.500000 6.003300
14.500000 6.112299
14.500000 6.222140
14.500000 6.332822
14.500000 6.444347
14.500000 6.556712
14.500000 6.669920
14.500000 6.783969
14.500000 6.898860
14.500000 7.014593
14.500000 7.131167
14.500000 7.248583
14.500000 7.366841
14.500000 7.485941
14.500000 7.605882
14.500000 7.726665
14.500000 7.848289
14.500000 7.970755
14.500000 8.094063
14.500000 8.218213
14.500000 8.343204
14.500000 8.469037
14.500000 8.595712
14.500000 8.723228
14.500000 8.851586
14.500000 8.980786
14.500000 9.110827
14.500000 9.241711
14.500000 9.373435
14.500000 9.506002
14.500000 9.639410
14.500000 9.773660
14.500000 9.908752
14.500000 10.044685
14.500000 10.181460
14.500000 10.319077
14.500000 10.457535
14.500000 10.596835
14.500000 10.736977
14.500000 10.877960
14.500000 11.019785
14.500000 11.162452
14.500000 11.305961
14.500000 11.450311
14.500000 11.595503
14.500000 11.741536
14.500000 11.888412
14.500000 12.036129
14.500000 12.184687
14.500000 12.334088
14.500000 12.484330
14.500000 12.635414
14.500000 12.787339
14.500000 12.940106
14.500000 13.093715
14.500000 13.248165
14.500000 13.403458
14.500000 13.559592
14.500000 13.716567
14.500000 13.874384
14.500000 14.033043
14.500000 14.192544
14.500000 14.352886
14.500000 14.514070
14.500000 14.676096
14.500000 14.838964
14.500000 15.002673
14.500000 15.167224
14.500000 15.332616
14.500000 15.498850
14.500000 15.665926
14.500000 15.833844
14.500000 16.002603
14.500000 16.172204
14.500000 16.342647
14.500000 16.513931
14.500000 16.686057
14.500000 16.859025
14.500000 17.032834
14.500000 17.207485
14.500000 17.382978
14.500000 17.559313
14.500000 17.736489
14.500000 17.914507
14.500000 18.093367
14.500000 18.273068
14.500000 18.453611
14.500000 18.634995
14.500000 18.817222
14.500000 19.000290
14.500000 19.184200
14.500000 19.368951
14.500000 19.554544
14.500000 19.740979
14.500000 19.928255
14.500000 20.116374
14.500000 20.305334
14.500000 20.495135
14.500000 20.685778
14.500000 20.877263
14.500000 21.069590
14.500000 21.262758
14.500000 21.456769
14.500000 21.651620
14.500000 21.847314
14.500000 22.043849
14.500000 22.241226
14.500000 22.439444
14.500000 22.638504
14.500000 22.838406
14.500000 23.039150
14.500000 23.240735
14.500000 23.443162
14.500000 23.646431
14.500000 23.850541
14.500000 24.055493
14.500000 24.261287
14.500000 24.467922
14.500000 24.675399
14.500000 24.883718
14.500000 25.092879
14.500000 25.302881
14.500000 25.513725
14.500000 25.725410
14.500000 25.937938
14.500000 26.151307
14.500000 26.365517
14.500000 26.580570
14.500000 26.796464
14.500000 27.013200
14.500000 27.230777
14.500000 27.449196
14.500000 27.668457
14.500000 27.888559
14.500000 28.109504
14.500000 28.331289
14.500000 28.553917
14.500000 28.777386
14.500000 29.001697
14.500000 29.226850
14.500000 29.452844
14.500000 29.679680
14.500000 29.907358
14.500000 30.135878
14.500000 30.365239
14.500000 30.595441
14.500000 30.826486
14.500000 31.058372
14.500000 31.291100
14.500000 31.524670
14.500000 31.759081
14.500000 31.994334
14.500000 32.230429
14.500000 32.467365
14.500000 32.705143
14.500000 32.943763
14.500000 33.183224
14.500000 33.423527
14.500000 33.664672
14.500000 33.906659
14.500000 34.149487
14.500000 34.393157
14.500000 34.637668
14.500000 34.883022
14.500000 35.129216
14.500000 35.376253
14.500000 35.624131
14.500000 35.872852
14.500000 36.122413
14.500000 36.372817
14.500000 36.624062
14.500000 36.876149
14.500000 37.129077
14.500000 37.382847
14.500000 37.637459
14.500000 37.892913
14.500000 38.149208
14.500000 38.406345
14.500000 38.664324
14.500000 38.923144
14.500000 39.182806
14.500000 39.443310
14.500000 39.704655
14.500000 39.966842
14.500000 40.229871
14.500000 40.493742
14.500000 40.758454
14.500000 41.024008
14.500000 41.290403
14.500000 41.557641
14.500000 41.825720
14.500000 42.094640
14.500000 42.364403
14.500000 42.635007
14.500000 42.906452
14.500000 43.178740
14.500000 43.451869
14.500000 43.725840
14.500000 44.000652
14.500000 44.276306
14.500000 44.552802
14.500000 44.830140
14.500000 45.108319
14.500000 45.387340
14.500000 45.667203
14.500000 45.947907
14.500000 46.229453
14.500000 46.511841
14.500000 46.795070
14.500000 47.079141
14.500000 47.364054
14.500000 47.649809
14.500000 47.936405
14.500000 48.223843
14.500000 48.512122
14.500000 48.801244
14.500000 49.091207
14.500000 49.382011
14.500000 49.673658
14.500000 49.966146
14.500000 50.259475
14.500000 50.553647
14.500000 50.848660
14.500000 51.144515
14.500000 51.441211
14.500000 51.738749
14.500000 52.037129
14.500000 52.336351
14.500000 52.636414
14.500000 52.937319
14.500000 53.239066
14.500000 53.541654
14.500000 53.845084
14.500000 54.149356
14.500000 54.454469
14.500000 54.760424
14.500000 55.067221
14.500000 55.374860
14.500000 55.683340
14.500000 55.992662
14.500000 56.302825
14.500000 56.613831
14.500000 56.925677
14.500000 57.238366
14.500000 57.551896
14.500000 57.866268
14.500000 58.181482
14.500000 58.497538
14.500000 58.814435
14.500000 59.132174
14.500000 59.450754
14.500000 59.770176
14.500000 60.090440
14.500000 60.411546
14.500000 60.733493
14.500000 61.056282
14.500000 61.379913
14.500000 61.704385
14.500000 62.029699
14.500000 62.355855
14.500000 62.682852
14.500000 63.010691
14.500000 63.339372
14.500000 63.668894
14.500000 63.999259
14.500000 64.330465
14.500000 64.662512
14.500000 64.995401
14.500000 65.329132
14.500000 65.663705
14.500000 65.999119
14.500000 66.335375
14.500000 66.672473
14.500000 67.010412
14.500000 67.349194
14.500000 67.688816
14.500000 68.029281
14.500000 68.370587
14.500000 68.712735
14.500000 69.055724
14.500000 69.399556
14.500000 69.744229
14.500000 70.089743
14.500000 70.436100
14.500000 70.783298
14.500000 71.131337
14.500000 71.480219
14.500000 71.829942
14.500000 72.180507
14.500000 72.531913
14.500000 72.884161
14.500000 73.237251
14.500000 73.591183
14.500000 73.945956
14.500000 74.301571
14.500000 74.658028
14.500000 75.015326
14.500000 75.373466
14.500000 75.732448
14.500000 76.092271
14.500000 76.452936
14.500000 76.814443
14.500000 77.176792
14.500000 77.539982
14.500000 77.904014
14.500000 78.268887
14.500000 78.634602
14.500000 79.001159
14.500000 79.368558
14.500000 79.736798
14.500000 80.105880
14.500000 80.475804
14.500000 80.846570
14.500000 81.218177
14.500000 81.590625
14.500000 81.963916
14.500000 82.338048
14.500000 82.713022
14.500000 83.088838
14.500000 83.465495
14.500000 83.842994
14.500000 84.221334
14.500000 84.600517
14.500000 84.980541
14.500000 85.361406
14.500000 85.743114
14.500000 86.125663
14.500000 86.509054
14.500000 86.893286
14.500000 87.278360
14.500000 87.664276
14.500000 88.051034
14.500000 88.438633
14.500000 88.827074
14.500000 89.216357
14.500000 89.606481
14.500000 89.997447
14.500000 90.389255
14.500000 90.781904
14.500000 91.175395
14.500000 91.569728
14.500000 91.964903
14.500000 92.360919
14.500000 92.757777
14.500000 93.155476
14.500000 93.554017
14.500000 93.953400
14.500000 94.353625
14.500000 94.754691
14.500000 95.156599
14.500000 95.559349
14.500000 95.962940
14.500000 96.367374
14.500000 96.772648
14.500000 97.178765
14.500000 97.585723
14.500000 97.993523
14.500000 98.402164
14.500000 98.811648
14.500000 99.221973
14.500000 99.633139
14.500000 100.045148
14.500000 100.457998
14.500000 100.871689
14.500000 101.286223
14.500000 101.701598
14.500000 102.117815
14.500000 102.534873
14.500000 102.952773
14.500000 103.371515
14.500000 103.791099
14.500000 104.211524
14.500000 104.632791
14.500000 105.054900
14.500000 105.477850
14.500000 105.901642
14.500000 106.326276
14.500000 106.751751
14.500000 107.178068
14.500000 107.605227
14.500000 108.033227
14.500000 108.462070
14.500000 108.891753
14.500000 109.322279
14.500000 109.753646
14.500000 110.185855
14.500000 110.618906
14.500000 111.052798
14.500000 111.487532
14.500000 111.923108
14.500000 112.359525
14.500000 112.796784
14.500000 113.234885
14.500000 113.673828
14.500000 114.113612
14.500000 114.554238
14.500000 114.995705
14.500000 115.438014
14.500000 115.881165
14.500000 116.325158
14.500000 116.769992
14.500000 117.215668
14.500000 117.662186
14.500000 118.109545
14.500000 118.557746
14.500000 119.006789
14.500000 119.456674
14.500000 119.907400
14.500000 120.358968
14.500000 120.811377
14.500000 121.264629
14.500000 121.718722
14.500000 122.173656
14.500000 122.629432
14.500000 123.086050
14.500000 123.543510
14.500000 124.001812
14.500000 124.460955
14.500000 124.920939
14.500000 125.381766
14.500000 125.843434
14.500000 126.305944
14.500000 126.769296
14.500000 127.233489
14.500000 127.698524
14.500000 128.164400
14.500000 128.631119
14.500000 129.098679
14.500000 129.567080
14.500000 130.036324
14.500000 130.506409
14.500000 130.977336
14.500000 131.449104
14.500000 131.921714
14.500000 132.395166
14.500000 132.869460
14.500000 133.344595
14.500000 133.820572
14.500000 134.297390
14.500000 134.775051
14.500000 135.253553
14.500000 135.732897
14.500000 136.213082
14.500000 136.694109
14.500000 137.175978
14.500000 137.658688
14.500000 138.142240
14.500000 138.626634
14.500000 139.111870
14.500000 139.597947
14.500000 140.084866
14.500000 140.572627
14.500000 141.061229
14.500000 141.550673
14.500000 142.040959
14.500000 142.532086
14.500000 143.024055
14.500000 143.516866
14.500000 144.010518
14.500000 144.505013
14.500000 145.000348
14.500000 145.496526
14.500000 145.993545
14.500000 146.491406
14.500000 146.990109
14.500000 147.489653
14.500000 147.990039
14.500000 148.491267
14.500000 148.993336
14.500000 149.496247
14.500000 150.000000
</POINTS>
</NEKTAR>

