<?xml version="1.0" encoding="utf-8" ?>
<NEKTAR>
<POINTS DIM="2" FIELDS="">
12.500000 -1.000000
12.500000 -0.999579
12.500000 -0.998317
12.500000 -0.996212
12.500000 -0.993266
12.500000 -0.989479
12.500000 -0.984850
12.500000 -0.979379
12.500000 -0.973066
12.500000 -0.965911
12.500000 -0.957915
12.500000 -0.949078
12.500000 -0.939398
12.500000 -0.928877
12.500000 -0.917514
12.500000 -0.905310
12.500000 -0.892263
12.500000 -0.878375
12.500000 -0.863646
12.500000 -0.848075
12.500000 -0.831662
12.500000 -0.814407
12.500000 -0.796310
12.500000 -0.777372
12.500000 -0.757593
12.500000 -0.736971
12.500000 -0.715508
12.500000 -0.693203
12.500000 -0.670057
12.500000 -0.646068
12.500000 -0.621239
12.500000 -0.595567
12.500000 -0.569054
12.500000 -0.541699
12.500000 -0.513502
12.500000 -0.484464
12.500000 -0.454583
12.500000 -0.423862
12.500000 -0.392298
12.500000 -0.359893
12.500000 -0.326646
12.500000 -0.292558
12.500000 -0.257627
12.500000 -0.221856
12.500000 -0.185242
12.500000 -0.147787
12.500000 -0.109490
12.500000 -0.070351
12.500000 -0.030371
12.500000 0.010451
12.500000 0.052115
12.500000 0.094621
12.500000 0.137968
12.500000 0.182157
12.500000 0.227187
12.500000 0.273059
12.500000 0.319773
12.500000 0.367329
12.500000 0.415726
12.500000 0.464965
12.500000 0.515046
12.500000 0.565968
12.500000 0.617732
12.500000 0.670338
12.500000 0.723786
12.500000 0.778075
12.500000 0.833206
12.500000 0.889178
12.500000 0.945992
12.500000 1.003648
12.500000 1.062146
12.500000 1.121485
12.500000 1.181666
12.500000 1.242689
12.500000 1.304553
12.500000 1.367259
12.500000 1.430807
12.500000 1.495197
12.500000 1.560428
12.500000 1.626500
12.500000 1.693415
12.500000 1.761171
12.500000 1.829769
12.500000 1.899209
12.500000 1.969490
12.500000 2.040613
12.500000 2.112578
12.500000 2.185384
12.500000 2.259032
12.500000 2.333522
12.500000 2.408853
12.500000 2.485027
12.500000 2.562041
12.500000 2.639898
12.500000 2.718596
12.500000 2.798136
12.500000 2.878518
12.500000 2.959741
12.500000 3.041806
12.500000 3.124713
12.500000 3.208461
12.500000 3.293051
12.500000 3.378483
12.500000 3.464756
12.500000 3.551871
12.500000 3.639828
12.500000 3.728627
12.500000 3.818267
12.500000 3.908749
12.500000 4.000072
12.500000 4.092238
12.500000 4.185245
12.500000 4.279093
12.500000 4.373784
12.500000 4.469316
12.500000 4.565690
12.500000 4.662905
12.500000 4.760962
12.500000 4.859861
12.500000 4.959602
12.500000 5.060184
12.500000 5.161608
12.500000 5.263873
12.500000 5.366981
12.500000 5.470930
12.500000 5.575720
12.500000 5.681353
12.500000 5.787827
12.500000 5.895142
12.500000 6.003300
12.500000 6.112299
12.500000 6.222140
12.500000 6.332822
12.500000 6.444347
12.500000 6.556712
12.500000 6.669920
12.500000 6.783969
12.500000 6.898860
12.500000 7.014593
12.500000 7.131167
12.500000 7.248583
12.500000 7.366841
12.500000 7.485941
12.500000 7.605882
12.500000 7.726665
12.500000 7.848289
12.500000 7.970755
12.500000 8.094063
12.500000 8.218213
12.500000 8.343204
12.500000 8.469037
12.500000 8.595712
12.500000 8.723228
12.500000 8.851586
12.500000 8.980786
12.500000 9.110827
12.500000 9.241711
12.500000 9.373435
12.500000 9.506002
12.500000 9.639410
12.500000 9.773660
12.500000 9.908752
12.500000 10.044685
12.500000 10.181460
12.500000 10.319077
12.500000 10.457535
12.500000 10.596835
12.500000 10.736977
12.500000 10.877960
12.500000 11.019785
12.500000 11.162452
12.500000 11.305961
12.500000 11.450311
12.500000 11.595503
12.500000 11.741536
12.500000 11.888412
12.500000 12.036129
12.500000 12.184687
12.500000 12.334088
12.500000 12.484330
12.500000 12.635414
12.500000 12.787339
12.500000 12.940106
12.500000 13.093715
12.500000 13.248165
12.500000 13.403458
12.500000 13.559592
12.500000 13.716567
12.500000 13.874384
12.500000 14.033043
12.500000 14.192544
12.500000 14.352886
12.500000 14.514070
12.500000 14.676096
12.500000 14.838964
12.500000 15.002673
12.500000 15.167224
12.500000 15.332616
12.500000 15.498850
12.500000 15.665926
12.500000 15.833844
12.500000 16.002603
12.500000 16.172204
12.500000 16.342647
12.500000 16.513931
12.500000 16.686057
12.500000 16.859025
12.500000 17.032834
12.500000 17.207485
12.500000 17.382978
12.500000 17.559313
12.500000 17.736489
12.500000 17.914507
12.500000 18.093367
12.500000 18.273068
12.500000 18.453611
12.500000 18.634995
12.500000 18.817222
12.500000 19.000290
12.500000 19.184200
12.500000 19.368951
12.500000 19.554544
12.500000 19.740979
12.500000 19.928255
12.500000 20.116374
12.500000 20.305334
12.500000 20.495135
12.500000 20.685778
12.500000 20.877263
12.500000 21.069590
12.500000 21.262758
12.500000 21.456769
12.500000 21.651620
12.500000 21.847314
12.500000 22.043849
12.500000 22.241226
12.500000 22.439444
12.500000 22.638504
12.500000 22.838406
12.500000 23.039150
12.500000 23.240735
12.500000 23.443162
12.500000 23.646431
12.500000 23.850541
12.500000 24.055493
12.500000 24.261287
12.500000 24.467922
12.500000 24.675399
12.500000 24.883718
12.500000 25.092879
12.500000 25.302881
12.500000 25.513725
12.500000 25.725410
12.500000 25.937938
12.500000 26.151307
12.500000 26.365517
12.500000 26.580570
12.500000 26.796464
12.500000 27.013200
12.500000 27.230777
12.500000 27.449196
12.500000 27.668457
12.500000 27.888559
12.500000 28.109504
12.500000 28.331289
12.500000 28.553917
12.500000 28.777386
12.500000 29.001697
12.500000 29.226850
12.500000 29.452844
12.500000 29.679680
12.500000 29.907358
12.500000 30.135878
12.500000 30.365239
12.500000 30.595441
12.500000 30.826486
12.500000 31.058372
12.500000 31.291100
12.500000 31.524670
12.500000 31.759081
12.500000 31.994334
12.500000 32.230429
12.500000 32.467365
12.500000 32.705143
12.500000 32.943763
12.500000 33.183224
12.500000 33.423527
12.500000 33.664672
12.500000 33.906659
12.500000 34.149487
12.500000 34.393157
12.500000 34.637668
12.500000 34.883022
12.500000 35.129216
12.500000 35.376253
12.500000 35.624131
12.500000 35.872852
12.500000 36.122413
12.500000 36.372817
12.500000 36.624062
12.500000 36.876149
12.500000 37.129077
12.500000 37.382847
12.500000 37.637459
12.500000 37.892913
12.500000 38.149208
12.500000 38.406345
12.500000 38.664324
12.500000 38.923144
12.500000 39.182806
12.500000 39.443310
12.500000 39.704655
12.500000 39.966842
12.500000 40.229871
12.500000 40.493742
12.500000 40.758454
12.500000 41.024008
12.500000 41.290403
12.500000 41.557641
12.500000 41.825720
12.500000 42.094640
12.500000 42.364403
12.500000 42.635007
12.500000 42.906452
12.500000 43.178740
12.500000 43.451869
12.500000 43.725840
12.500000 44.000652
12.500000 44.276306
12.500000 44.552802
12.500000 44.830140
12.500000 45.108319
12.500000 45.387340
12.500000 45.667203
12.500000 45.947907
12.500000 46.229453
12.500000 46.511841
12.500000 46.795070
12.500000 47.079141
12.500000 47.364054
12.500000 47.649809
12.500000 47.936405
12.500000 48.223843
12.500000 48.512122
12.500000 48.801244
12.500000 49.091207
12.500000 49.382011
12.500000 49.673658
12.500000 49.966146
12.500000 50.259475
12.500000 50.553647
12.500000 50.848660
12.500000 51.144515
12.500000 51.441211
12.500000 51.738749
12.500000 52.037129
12.500000 52.336351
12.500000 52.636414
12.500000 52.937319
12.500000 53.239066
12.500000 53.541654
12.500000 53.845084
12.500000 54.149356
12.500000 54.454469
12.500000 54.760424
12.500000 55.067221
12.500000 55.374860
12.500000 55.683340
12.500000 55.992662
12.500000 56.302825
12.500000 56.613831
12.500000 56.925677
12.500000 57.238366
12.500000 57.551896
12.500000 57.866268
12.500000 58.181482
12.500000 58.497538
12.500000 58.814435
12.500000 59.132174
12.500000 59.450754
12.500000 59.770176
12.500000 60.090440
12.500000 60.411546
12.500000 60.733493
12.500000 61.056282
12.500000 61.379913
12.500000 61.704385
12.500000 62.029699
12.500000 62.355855
12.500000 62.682852
12.500000 63.010691
12.500000 63.339372
12.500000 63.668894
12.500000 63.999259
12.500000 64.330465
12.500000 64.662512
12.500000 64.995401
12.500000 65.329132
12.500000 65.663705
12.500000 65.999119
12.500000 66.335375
12.500000 66.672473
12.500000 67.010412
12.500000 67.349194
12.500000 67.688816
12.500000 68.029281
12.500000 68.370587
12.500000 68.712735
12.500000 69.055724
12.500000 69.399556
12.500000 69.744229
12.500000 70.089743
12.500000 70.436100
12.500000 70.783298
12.500000 71.131337
12.500000 71.480219
12.500000 71.829942
12.500000 72.180507
12.500000 72.531913
12.500000 72.884161
12.500000 73.237251
12.500000 73.591183
12.500000 73.945956
12.500000 74.301571
12.500000 74.658028
12.500000 75.015326
12.500000 75.373466
12.500000 75.732448
12.500000 76.092271
12.500000 76.452936
12.500000 76.814443
12.500000 77.176792
12.500000 77.539982
12.500000 77.904014
12.500000 78.268887
12.500000 78.634602
12.500000 79.001159
12.500000 79.368558
12.500000 79.736798
12.500000 80.105880
12.500000 80.475804
12.500000 80.846570
12.500000 81.218177
12.500000 81.590625
12.500000 81.963916
12.500000 82.338048
12.500000 82.713022
12.500000 83.088838
12.500000 83.465495
12.500000 83.842994
12.500000 84.221334
12.500000 84.600517
12.500000 84.980541
12.500000 85.361406
12.500000 85.743114
12.500000 86.125663
12.500000 86.509054
12.500000 86.893286
12.500000 87.278360
12.500000 87.664276
12.500000 88.051034
12.500000 88.438633
12.500000 88.827074
12.500000 89.216357
12.500000 89.606481
12.500000 89.997447
12.500000 90.389255
12.500000 90.781904
12.500000 91.175395
12.500000 91.569728
12.500000 91.964903
12.500000 92.360919
12.500000 92.757777
12.500000 93.155476
12.500000 93.554017
12.500000 93.953400
12.500000 94.353625
12.500000 94.754691
12.500000 95.156599
12.500000 95.559349
12.500000 95.962940
12.500000 96.367374
12.500000 96.772648
12.500000 97.178765
12.500000 97.585723
12.500000 97.993523
12.500000 98.402164
12.500000 98.811648
12.500000 99.221973
12.500000 99.633139
12.500000 100.045148
12.500000 100.457998
12.500000 100.871689
12.500000 101.286223
12.500000 101.701598
12.500000 102.117815
12.500000 102.534873
12.500000 102.952773
12.500000 103.371515
12.500000 103.791099
12.500000 104.211524
12.500000 104.632791
12.500000 105.054900
12.500000 105.477850
12.500000 105.901642
12.500000 106.326276
12.500000 106.751751
12.500000 107.178068
12.500000 107.605227
12.500000 108.033227
12.500000 108.462070
12.500000 108.891753
12.500000 109.322279
12.500000 109.753646
12.500000 110.185855
12.500000 110.618906
12.500000 111.052798
12.500000 111.487532
12.500000 111.923108
12.500000 112.359525
12.500000 112.796784
12.500000 113.234885
12.500000 113.673828
12.500000 114.113612
12.500000 114.554238
12.500000 114.995705
12.500000 115.438014
12.500000 115.881165
12.500000 116.325158
12.500000 116.769992
12.500000 117.215668
12.500000 117.662186
12.500000 118.109545
12.500000 118.557746
12.500000 119.006789
12.500000 119.456674
12.500000 119.907400
12.500000 120.358968
12.500000 120.811377
12.500000 121.264629
12.500000 121.718722
12.500000 122.173656
12.500000 122.629432
12.500000 123.086050
12.500000 123.543510
12.500000 124.001812
12.500000 124.460955
12.500000 124.920939
12.500000 125.381766
12.500000 125.843434
12.500000 126.305944
12.500000 126.769296
12.500000 127.233489
12.500000 127.698524
12.500000 128.164400
12.500000 128.631119
12.500000 129.098679
12.500000 129.567080
12.500000 130.036324
12.500000 130.506409
12.500000 130.977336
12.500000 131.449104
12.500000 131.921714
12.500000 132.395166
12.500000 132.869460
12.500000 133.344595
12.500000 133.820572
12.500000 134.297390
12.500000 134.775051
12.500000 135.253553
12.500000 135.732897
12.500000 136.213082
12.500000 136.694109
12.500000 137.175978
12.500000 137.658688
12.500000 138.142240
12.500000 138.626634
12.500000 139.111870
12.500000 139.597947
12.500000 140.084866
12.500000 140.572627
12.500000 141.061229
12.500000 141.550673
12.500000 142.040959
12.500000 142.532086
12.500000 143.024055
12.500000 143.516866
12.500000 144.010518
12.500000 144.505013
12.500000 145.000348
12.500000 145.496526
12.500000 145.993545
12.500000 146.491406
12.500000 146.990109
12.500000 147.489653
12.500000 147.990039
12.500000 148.491267
12.500000 148.993336
12.500000 149.496247
12.500000 150.000000
</POINTS>
</NEKTAR>

