<?xml version="1.0" encoding="utf-8" ?>
<NEKTAR>
<POINTS DIM="2" FIELDS="">
798.500000 0.000000
798.500000 0.000418
798.500000 0.001672
798.500000 0.003763
798.500000 0.006689
798.500000 0.010451
798.500000 0.015050
798.500000 0.020485
798.500000 0.026756
798.500000 0.033863
798.500000 0.041806
798.500000 0.050585
798.500000 0.060201
798.500000 0.070652
798.500000 0.081940
798.500000 0.094063
798.500000 0.107023
798.500000 0.120819
798.500000 0.135451
798.500000 0.150919
798.500000 0.167224
798.500000 0.184364
798.500000 0.202341
798.500000 0.221153
798.500000 0.240802
798.500000 0.261287
798.500000 0.282608
798.500000 0.304765
798.500000 0.327758
798.500000 0.351588
798.500000 0.376253
798.500000 0.401755
798.500000 0.428092
798.500000 0.455266
798.500000 0.483276
798.500000 0.512122
798.500000 0.541805
798.500000 0.572323
798.500000 0.603677
798.500000 0.635868
798.500000 0.668894
798.500000 0.702757
798.500000 0.737456
798.500000 0.772991
798.500000 0.809362
798.500000 0.846570
798.500000 0.884613
798.500000 0.923492
798.500000 0.963208
798.500000 1.003760
798.500000 1.045148
798.500000 1.087372
798.500000 1.130432
798.500000 1.174328
798.500000 1.219060
798.500000 1.264629
798.500000 1.311033
798.500000 1.358274
798.500000 1.406351
798.500000 1.455264
798.500000 1.505013
798.500000 1.555598
798.500000 1.607019
798.500000 1.659276
798.500000 1.712370
798.500000 1.766299
798.500000 1.821065
798.500000 1.876667
798.500000 1.933105
798.500000 1.990379
798.500000 2.048489
798.500000 2.107436
798.500000 2.167218
798.500000 2.227837
798.500000 2.289291
798.500000 2.351582
798.500000 2.414709
798.500000 2.478672
798.500000 2.543471
798.500000 2.609106
798.500000 2.675578
798.500000 2.742885
798.500000 2.811029
798.500000 2.880009
798.500000 2.949825
798.500000 3.020477
798.500000 3.091965
798.500000 3.164289
798.500000 3.237449
798.500000 3.311446
798.500000 3.386278
798.500000 3.461947
798.500000 3.538452
798.500000 3.615793
798.500000 3.693970
798.500000 3.772983
798.500000 3.852832
798.500000 3.933517
798.500000 4.015039
798.500000 4.097397
798.500000 4.180590
798.500000 4.264620
798.500000 4.349486
798.500000 4.435188
798.500000 4.521727
798.500000 4.609101
798.500000 4.697311
798.500000 4.786358
798.500000 4.876241
798.500000 4.966959
798.500000 5.058514
798.500000 5.150905
798.500000 5.244133
798.500000 5.338196
798.500000 5.433095
798.500000 5.528831
798.500000 5.625402
798.500000 5.722810
798.500000 5.821054
798.500000 5.920134
798.500000 6.020050
798.500000 6.120802
798.500000 6.222391
798.500000 6.324815
798.500000 6.428076
798.500000 6.532172
798.500000 6.637105
798.500000 6.742874
798.500000 6.849479
798.500000 6.956920
798.500000 7.065198
798.500000 7.174311
798.500000 7.284261
798.500000 7.395046
798.500000 7.506668
798.500000 7.619126
798.500000 7.732420
798.500000 7.846550
798.500000 7.961516
798.500000 8.077319
798.500000 8.193957
798.500000 8.311432
798.500000 8.429742
798.500000 8.548889
798.500000 8.668872
798.500000 8.789691
798.500000 8.911346
798.500000 9.033838
798.500000 9.157165
798.500000 9.281329
798.500000 9.406328
798.500000 9.532164
798.500000 9.658836
798.500000 9.786344
798.500000 9.914688
798.500000 10.043868
798.500000 10.173885
798.500000 10.304737
798.500000 10.436426
798.500000 10.568950
798.500000 10.702311
798.500000 10.836508
798.500000 10.971541
798.500000 11.107411
798.500000 11.244116
798.500000 11.381657
798.500000 11.520035
798.500000 11.659248
798.500000 11.799298
798.500000 11.940184
798.500000 12.081906
798.500000 12.224464
798.500000 12.367859
798.500000 12.512089
798.500000 12.657155
798.500000 12.803058
798.500000 12.949797
798.500000 13.097372
798.500000 13.245782
798.500000 13.395030
798.500000 13.545113
798.500000 13.696032
798.500000 13.847787
798.500000 14.000379
798.500000 14.153807
798.500000 14.308070
798.500000 14.463170
798.500000 14.619106
798.500000 14.775879
798.500000 14.933487
798.500000 15.091931
798.500000 15.251212
798.500000 15.411328
798.500000 15.572281
798.500000 15.734070
798.500000 15.896695
798.500000 16.060156
798.500000 16.224453
798.500000 16.389586
798.500000 16.555556
798.500000 16.722361
798.500000 16.890003
798.500000 17.058481
798.500000 17.227795
798.500000 17.397945
798.500000 17.568931
798.500000 17.740753
798.500000 17.913412
798.500000 18.086906
798.500000 18.261237
798.500000 18.436403
798.500000 18.612406
798.500000 18.789245
798.500000 18.966920
798.500000 19.145432
798.500000 19.324779
798.500000 19.504962
798.500000 19.685982
798.500000 19.867838
798.500000 20.050529
798.500000 20.234057
798.500000 20.418421
798.500000 20.603622
798.500000 20.789658
798.500000 20.976530
798.500000 21.164239
798.500000 21.352783
798.500000 21.542164
798.500000 21.732381
798.500000 21.923434
798.500000 22.115323
798.500000 22.308048
798.500000 22.501610
798.500000 22.696007
798.500000 22.891241
798.500000 23.087310
798.500000 23.284216
798.500000 23.481958
798.500000 23.680536
798.500000 23.879950
798.500000 24.080200
798.500000 24.281287
798.500000 24.483209
798.500000 24.685968
798.500000 24.889563
798.500000 25.093994
798.500000 25.299261
798.500000 25.505364
798.500000 25.712303
798.500000 25.920078
798.500000 26.128690
798.500000 26.338137
798.500000 26.548421
798.500000 26.759541
798.500000 26.971497
798.500000 27.184289
798.500000 27.397917
798.500000 27.612381
798.500000 27.827682
798.500000 28.043818
798.500000 28.260791
798.500000 28.478600
798.500000 28.697244
798.500000 28.916725
798.500000 29.137043
798.500000 29.358196
798.500000 29.580185
798.500000 29.803011
798.500000 30.026672
798.500000 30.251170
798.500000 30.476504
798.500000 30.702674
798.500000 30.929680
798.500000 31.157522
798.500000 31.386200
798.500000 31.615715
798.500000 31.846065
798.500000 32.077252
798.500000 32.309275
798.500000 32.542133
798.500000 32.775828
798.500000 33.010360
798.500000 33.245727
798.500000 33.481930
798.500000 33.718970
798.500000 33.956845
798.500000 34.195557
798.500000 34.435105
798.500000 34.675489
798.500000 34.916709
798.500000 35.158765
798.500000 35.401657
798.500000 35.645386
798.500000 35.889950
798.500000 36.135351
798.500000 36.381588
798.500000 36.628660
798.500000 36.876569
798.500000 37.125315
798.500000 37.374896
798.500000 37.625313
798.500000 37.876567
798.500000 38.128656
798.500000 38.381582
798.500000 38.635344
798.500000 38.889942
798.500000 39.145376
798.500000 39.401646
798.500000 39.658752
798.500000 39.916695
798.500000 40.175473
798.500000 40.435088
798.500000 40.695539
798.500000 40.956826
798.500000 41.218949
798.500000 41.481908
798.500000 41.745703
798.500000 42.010334
798.500000 42.275802
798.500000 42.542106
798.500000 42.809245
798.500000 43.077221
798.500000 43.346033
798.500000 43.615681
798.500000 43.886165
798.500000 44.157486
798.500000 44.429642
798.500000 44.702635
798.500000 44.976463
798.500000 45.251128
798.500000 45.526629
798.500000 45.802966
798.500000 46.080139
798.500000 46.358148
798.500000 46.636994
798.500000 46.916675
798.500000 47.197193
798.500000 47.478547
798.500000 47.760736
798.500000 48.043762
798.500000 48.327625
798.500000 48.612323
798.500000 48.897857
798.500000 49.184227
798.500000 49.471434
798.500000 49.759477
798.500000 50.048355
798.500000 50.338070
798.500000 50.628621
798.500000 50.920009
798.500000 51.212232
798.500000 51.505291
798.500000 51.799187
798.500000 52.093918
798.500000 52.389486
798.500000 52.685890
798.500000 52.983130
798.500000 53.281206
798.500000 53.580118
798.500000 53.879867
798.500000 54.180451
798.500000 54.481872
798.500000 54.784128
798.500000 55.087221
798.500000 55.391150
798.500000 55.695915
798.500000 56.001516
798.500000 56.307953
798.500000 56.615227
798.500000 56.923336
798.500000 57.232282
798.500000 57.542064
798.500000 57.852682
798.500000 58.164136
798.500000 58.476426
798.500000 58.789552
798.500000 59.103514
798.500000 59.418313
798.500000 59.733947
798.500000 60.050418
798.500000 60.367725
798.500000 60.685868
798.500000 61.004847
798.500000 61.324662
798.500000 61.645313
798.500000 61.966801
798.500000 62.289124
798.500000 62.612284
798.500000 62.936279
798.500000 63.261111
798.500000 63.586779
798.500000 63.913283
798.500000 64.240624
798.500000 64.568800
798.500000 64.897812
798.500000 65.227661
798.500000 65.558346
798.500000 65.889867
798.500000 66.222223
798.500000 66.555417
798.500000 66.889446
798.500000 67.224311
798.500000 67.560012
798.500000 67.896550
798.500000 68.233924
798.500000 68.572133
798.500000 68.911179
798.500000 69.251061
798.500000 69.591779
798.500000 69.933334
798.500000 70.275724
798.500000 70.618950
798.500000 70.963013
798.500000 71.307912
798.500000 71.653646
798.500000 72.000217
798.500000 72.347624
798.500000 72.695868
798.500000 73.044947
798.500000 73.394862
798.500000 73.745614
798.500000 74.097202
798.500000 74.449625
798.500000 74.802885
798.500000 75.156981
798.500000 75.511913
798.500000 75.867682
798.500000 76.224286
798.500000 76.581726
798.500000 76.940003
798.500000 77.299116
798.500000 77.659064
798.500000 78.019849
798.500000 78.381471
798.500000 78.743928
798.500000 79.107221
798.500000 79.471350
798.500000 79.836316
798.500000 80.202118
798.500000 80.568755
798.500000 80.936229
798.500000 81.304539
798.500000 81.673685
798.500000 82.043668
798.500000 82.414486
798.500000 82.786141
798.500000 83.158631
798.500000 83.531958
798.500000 83.906121
798.500000 84.281120
798.500000 84.656955
798.500000 85.033626
798.500000 85.411133
798.500000 85.789477
798.500000 86.168656
798.500000 86.548672
798.500000 86.929524
798.500000 87.311212
798.500000 87.693736
798.500000 88.077096
798.500000 88.461292
798.500000 88.846324
798.500000 89.232193
798.500000 89.618897
798.500000 90.006438
798.500000 90.394815
798.500000 90.784028
798.500000 91.174077
798.500000 91.564962
798.500000 91.956684
798.500000 92.349241
798.500000 92.742634
798.500000 93.136864
798.500000 93.531930
798.500000 93.927832
798.500000 94.324570
798.500000 94.722144
798.500000 95.120554
798.500000 95.519801
798.500000 95.919883
798.500000 96.320802
798.500000 96.722557
798.500000 97.125147
798.500000 97.528574
798.500000 97.932837
798.500000 98.337937
798.500000 98.743872
798.500000 99.150643
798.500000 99.558251
798.500000 99.966695
798.500000 100.375974
798.500000 100.786090
798.500000 101.197042
798.500000 101.608831
798.500000 102.021455
798.500000 102.434915
798.500000 102.849212
798.500000 103.264344
798.500000 103.680313
798.500000 104.097118
798.500000 104.514759
798.500000 104.933236
798.500000 105.352549
798.500000 105.772699
798.500000 106.193684
798.500000 106.615506
798.500000 107.038163
798.500000 107.461657
798.500000 107.885987
798.500000 108.311153
798.500000 108.737155
798.500000 109.163993
798.500000 109.591668
798.500000 110.020178
798.500000 110.449525
798.500000 110.879708
798.500000 111.310727
798.500000 111.742582
798.500000 112.175273
798.500000 112.608800
798.500000 113.043163
798.500000 113.478363
798.500000 113.914398
798.500000 114.351270
798.500000 114.788978
798.500000 115.227522
798.500000 115.666902
798.500000 116.107118
798.500000 116.548170
798.500000 116.990059
798.500000 117.432783
798.500000 117.876344
798.500000 118.320740
798.500000 118.765973
798.500000 119.212042
798.500000 119.658947
798.500000 120.106689
798.500000 120.555266
798.500000 121.004679
798.500000 121.454929
798.500000 121.906015
798.500000 122.357937
798.500000 122.810695
798.500000 123.264289
798.500000 123.718719
798.500000 124.173985
798.500000 124.630087
798.500000 125.087026
798.500000 125.544801
798.500000 126.003411
798.500000 126.462858
798.500000 126.923141
798.500000 127.384260
798.500000 127.846216
798.500000 128.309007
798.500000 128.772634
798.500000 129.237098
798.500000 129.702398
798.500000 130.168534
798.500000 130.635505
798.500000 131.103314
798.500000 131.571958
798.500000 132.041438
798.500000 132.511754
798.500000 132.982907
798.500000 133.454896
798.500000 133.927720
798.500000 134.401381
798.500000 134.875878
798.500000 135.351211
798.500000 135.827381
798.500000 136.304386
798.500000 136.782227
798.500000 137.260905
798.500000 137.740419
798.500000 138.220769
798.500000 138.701955
798.500000 139.183977
798.500000 139.666835
798.500000 140.150529
798.500000 140.635060
798.500000 141.120426
798.500000 141.606629
798.500000 142.093668
798.500000 142.581542
798.500000 143.070253
798.500000 143.559801
798.500000 144.050184
798.500000 144.541403
798.500000 145.033459
798.500000 145.526350
798.500000 146.020078
798.500000 146.514642
798.500000 147.010042
798.500000 147.506278
798.500000 148.003350
798.500000 148.501258
798.500000 149.000003
798.500000 149.499583
798.500000 150.000000
</POINTS>
</NEKTAR>

