<?xml version="1.0" encoding="utf-8" ?>
<NEKTAR>
<POINTS DIM="2" FIELDS="">
218.500000 0.000000
218.500000 0.000418
218.500000 0.001672
218.500000 0.003763
218.500000 0.006689
218.500000 0.010451
218.500000 0.015050
218.500000 0.020485
218.500000 0.026756
218.500000 0.033863
218.500000 0.041806
218.500000 0.050585
218.500000 0.060201
218.500000 0.070652
218.500000 0.081940
218.500000 0.094063
218.500000 0.107023
218.500000 0.120819
218.500000 0.135451
218.500000 0.150919
218.500000 0.167224
218.500000 0.184364
218.500000 0.202341
218.500000 0.221153
218.500000 0.240802
218.500000 0.261287
218.500000 0.282608
218.500000 0.304765
218.500000 0.327758
218.500000 0.351588
218.500000 0.376253
218.500000 0.401755
218.500000 0.428092
218.500000 0.455266
218.500000 0.483276
218.500000 0.512122
218.500000 0.541805
218.500000 0.572323
218.500000 0.603677
218.500000 0.635868
218.500000 0.668894
218.500000 0.702757
218.500000 0.737456
218.500000 0.772991
218.500000 0.809362
218.500000 0.846570
218.500000 0.884613
218.500000 0.923492
218.500000 0.963208
218.500000 1.003760
218.500000 1.045148
218.500000 1.087372
218.500000 1.130432
218.500000 1.174328
218.500000 1.219060
218.500000 1.264629
218.500000 1.311033
218.500000 1.358274
218.500000 1.406351
218.500000 1.455264
218.500000 1.505013
218.500000 1.555598
218.500000 1.607019
218.500000 1.659276
218.500000 1.712370
218.500000 1.766299
218.500000 1.821065
218.500000 1.876667
218.500000 1.933105
218.500000 1.990379
218.500000 2.048489
218.500000 2.107436
218.500000 2.167218
218.500000 2.227837
218.500000 2.289291
218.500000 2.351582
218.500000 2.414709
218.500000 2.478672
218.500000 2.543471
218.500000 2.609106
218.500000 2.675578
218.500000 2.742885
218.500000 2.811029
218.500000 2.880009
218.500000 2.949825
218.500000 3.020477
218.500000 3.091965
218.500000 3.164289
218.500000 3.237449
218.500000 3.311446
218.500000 3.386278
218.500000 3.461947
218.500000 3.538452
218.500000 3.615793
218.500000 3.693970
218.500000 3.772983
218.500000 3.852832
218.500000 3.933517
218.500000 4.015039
218.500000 4.097397
218.500000 4.180590
218.500000 4.264620
218.500000 4.349486
218.500000 4.435188
218.500000 4.521727
218.500000 4.609101
218.500000 4.697311
218.500000 4.786358
218.500000 4.876241
218.500000 4.966959
218.500000 5.058514
218.500000 5.150905
218.500000 5.244133
218.500000 5.338196
218.500000 5.433095
218.500000 5.528831
218.500000 5.625402
218.500000 5.722810
218.500000 5.821054
218.500000 5.920134
218.500000 6.020050
218.500000 6.120802
218.500000 6.222391
218.500000 6.324815
218.500000 6.428076
218.500000 6.532172
218.500000 6.637105
218.500000 6.742874
218.500000 6.849479
218.500000 6.956920
218.500000 7.065198
218.500000 7.174311
218.500000 7.284261
218.500000 7.395046
218.500000 7.506668
218.500000 7.619126
218.500000 7.732420
218.500000 7.846550
218.500000 7.961516
218.500000 8.077319
218.500000 8.193957
218.500000 8.311432
218.500000 8.429742
218.500000 8.548889
218.500000 8.668872
218.500000 8.789691
218.500000 8.911346
218.500000 9.033838
218.500000 9.157165
218.500000 9.281329
218.500000 9.406328
218.500000 9.532164
218.500000 9.658836
218.500000 9.786344
218.500000 9.914688
218.500000 10.043868
218.500000 10.173885
218.500000 10.304737
218.500000 10.436426
218.500000 10.568950
218.500000 10.702311
218.500000 10.836508
218.500000 10.971541
218.500000 11.107411
218.500000 11.244116
218.500000 11.381657
218.500000 11.520035
218.500000 11.659248
218.500000 11.799298
218.500000 11.940184
218.500000 12.081906
218.500000 12.224464
218.500000 12.367859
218.500000 12.512089
218.500000 12.657155
218.500000 12.803058
218.500000 12.949797
218.500000 13.097372
218.500000 13.245782
218.500000 13.395030
218.500000 13.545113
218.500000 13.696032
218.500000 13.847787
218.500000 14.000379
218.500000 14.153807
218.500000 14.308070
218.500000 14.463170
218.500000 14.619106
218.500000 14.775879
218.500000 14.933487
218.500000 15.091931
218.500000 15.251212
218.500000 15.411328
218.500000 15.572281
218.500000 15.734070
218.500000 15.896695
218.500000 16.060156
218.500000 16.224453
218.500000 16.389586
218.500000 16.555556
218.500000 16.722361
218.500000 16.890003
218.500000 17.058481
218.500000 17.227795
218.500000 17.397945
218.500000 17.568931
218.500000 17.740753
218.500000 17.913412
218.500000 18.086906
218.500000 18.261237
218.500000 18.436403
218.500000 18.612406
218.500000 18.789245
218.500000 18.966920
218.500000 19.145432
218.500000 19.324779
218.500000 19.504962
218.500000 19.685982
218.500000 19.867838
218.500000 20.050529
218.500000 20.234057
218.500000 20.418421
218.500000 20.603622
218.500000 20.789658
218.500000 20.976530
218.500000 21.164239
218.500000 21.352783
218.500000 21.542164
218.500000 21.732381
218.500000 21.923434
218.500000 22.115323
218.500000 22.308048
218.500000 22.501610
218.500000 22.696007
218.500000 22.891241
218.500000 23.087310
218.500000 23.284216
218.500000 23.481958
218.500000 23.680536
218.500000 23.879950
218.500000 24.080200
218.500000 24.281287
218.500000 24.483209
218.500000 24.685968
218.500000 24.889563
218.500000 25.093994
218.500000 25.299261
218.500000 25.505364
218.500000 25.712303
218.500000 25.920078
218.500000 26.128690
218.500000 26.338137
218.500000 26.548421
218.500000 26.759541
218.500000 26.971497
218.500000 27.184289
218.500000 27.397917
218.500000 27.612381
218.500000 27.827682
218.500000 28.043818
218.500000 28.260791
218.500000 28.478600
218.500000 28.697244
218.500000 28.916725
218.500000 29.137043
218.500000 29.358196
218.500000 29.580185
218.500000 29.803011
218.500000 30.026672
218.500000 30.251170
218.500000 30.476504
218.500000 30.702674
218.500000 30.929680
218.500000 31.157522
218.500000 31.386200
218.500000 31.615715
218.500000 31.846065
218.500000 32.077252
218.500000 32.309275
218.500000 32.542133
218.500000 32.775828
218.500000 33.010360
218.500000 33.245727
218.500000 33.481930
218.500000 33.718970
218.500000 33.956845
218.500000 34.195557
218.500000 34.435105
218.500000 34.675489
218.500000 34.916709
218.500000 35.158765
218.500000 35.401657
218.500000 35.645386
218.500000 35.889950
218.500000 36.135351
218.500000 36.381588
218.500000 36.628660
218.500000 36.876569
218.500000 37.125315
218.500000 37.374896
218.500000 37.625313
218.500000 37.876567
218.500000 38.128656
218.500000 38.381582
218.500000 38.635344
218.500000 38.889942
218.500000 39.145376
218.500000 39.401646
218.500000 39.658752
218.500000 39.916695
218.500000 40.175473
218.500000 40.435088
218.500000 40.695539
218.500000 40.956826
218.500000 41.218949
218.500000 41.481908
218.500000 41.745703
218.500000 42.010334
218.500000 42.275802
218.500000 42.542106
218.500000 42.809245
218.500000 43.077221
218.500000 43.346033
218.500000 43.615681
218.500000 43.886165
218.500000 44.157486
218.500000 44.429642
218.500000 44.702635
218.500000 44.976463
218.500000 45.251128
218.500000 45.526629
218.500000 45.802966
218.500000 46.080139
218.500000 46.358148
218.500000 46.636994
218.500000 46.916675
218.500000 47.197193
218.500000 47.478547
218.500000 47.760736
218.500000 48.043762
218.500000 48.327625
218.500000 48.612323
218.500000 48.897857
218.500000 49.184227
218.500000 49.471434
218.500000 49.759477
218.500000 50.048355
218.500000 50.338070
218.500000 50.628621
218.500000 50.920009
218.500000 51.212232
218.500000 51.505291
218.500000 51.799187
218.500000 52.093918
218.500000 52.389486
218.500000 52.685890
218.500000 52.983130
218.500000 53.281206
218.500000 53.580118
218.500000 53.879867
218.500000 54.180451
218.500000 54.481872
218.500000 54.784128
218.500000 55.087221
218.500000 55.391150
218.500000 55.695915
218.500000 56.001516
218.500000 56.307953
218.500000 56.615227
218.500000 56.923336
218.500000 57.232282
218.500000 57.542064
218.500000 57.852682
218.500000 58.164136
218.500000 58.476426
218.500000 58.789552
218.500000 59.103514
218.500000 59.418313
218.500000 59.733947
218.500000 60.050418
218.500000 60.367725
218.500000 60.685868
218.500000 61.004847
218.500000 61.324662
218.500000 61.645313
218.500000 61.966801
218.500000 62.289124
218.500000 62.612284
218.500000 62.936279
218.500000 63.261111
218.500000 63.586779
218.500000 63.913283
218.500000 64.240624
218.500000 64.568800
218.500000 64.897812
218.500000 65.227661
218.500000 65.558346
218.500000 65.889867
218.500000 66.222223
218.500000 66.555417
218.500000 66.889446
218.500000 67.224311
218.500000 67.560012
218.500000 67.896550
218.500000 68.233924
218.500000 68.572133
218.500000 68.911179
218.500000 69.251061
218.500000 69.591779
218.500000 69.933334
218.500000 70.275724
218.500000 70.618950
218.500000 70.963013
218.500000 71.307912
218.500000 71.653646
218.500000 72.000217
218.500000 72.347624
218.500000 72.695868
218.500000 73.044947
218.500000 73.394862
218.500000 73.745614
218.500000 74.097202
218.500000 74.449625
218.500000 74.802885
218.500000 75.156981
218.500000 75.511913
218.500000 75.867682
218.500000 76.224286
218.500000 76.581726
218.500000 76.940003
218.500000 77.299116
218.500000 77.659064
218.500000 78.019849
218.500000 78.381471
218.500000 78.743928
218.500000 79.107221
218.500000 79.471350
218.500000 79.836316
218.500000 80.202118
218.500000 80.568755
218.500000 80.936229
218.500000 81.304539
218.500000 81.673685
218.500000 82.043668
218.500000 82.414486
218.500000 82.786141
218.500000 83.158631
218.500000 83.531958
218.500000 83.906121
218.500000 84.281120
218.500000 84.656955
218.500000 85.033626
218.500000 85.411133
218.500000 85.789477
218.500000 86.168656
218.500000 86.548672
218.500000 86.929524
218.500000 87.311212
218.500000 87.693736
218.500000 88.077096
218.500000 88.461292
218.500000 88.846324
218.500000 89.232193
218.500000 89.618897
218.500000 90.006438
218.500000 90.394815
218.500000 90.784028
218.500000 91.174077
218.500000 91.564962
218.500000 91.956684
218.500000 92.349241
218.500000 92.742634
218.500000 93.136864
218.500000 93.531930
218.500000 93.927832
218.500000 94.324570
218.500000 94.722144
218.500000 95.120554
218.500000 95.519801
218.500000 95.919883
218.500000 96.320802
218.500000 96.722557
218.500000 97.125147
218.500000 97.528574
218.500000 97.932837
218.500000 98.337937
218.500000 98.743872
218.500000 99.150643
218.500000 99.558251
218.500000 99.966695
218.500000 100.375974
218.500000 100.786090
218.500000 101.197042
218.500000 101.608831
218.500000 102.021455
218.500000 102.434915
218.500000 102.849212
218.500000 103.264344
218.500000 103.680313
218.500000 104.097118
218.500000 104.514759
218.500000 104.933236
218.500000 105.352549
218.500000 105.772699
218.500000 106.193684
218.500000 106.615506
218.500000 107.038163
218.500000 107.461657
218.500000 107.885987
218.500000 108.311153
218.500000 108.737155
218.500000 109.163993
218.500000 109.591668
218.500000 110.020178
218.500000 110.449525
218.500000 110.879708
218.500000 111.310727
218.500000 111.742582
218.500000 112.175273
218.500000 112.608800
218.500000 113.043163
218.500000 113.478363
218.500000 113.914398
218.500000 114.351270
218.500000 114.788978
218.500000 115.227522
218.500000 115.666902
218.500000 116.107118
218.500000 116.548170
218.500000 116.990059
218.500000 117.432783
218.500000 117.876344
218.500000 118.320740
218.500000 118.765973
218.500000 119.212042
218.500000 119.658947
218.500000 120.106689
218.500000 120.555266
218.500000 121.004679
218.500000 121.454929
218.500000 121.906015
218.500000 122.357937
218.500000 122.810695
218.500000 123.264289
218.500000 123.718719
218.500000 124.173985
218.500000 124.630087
218.500000 125.087026
218.500000 125.544801
218.500000 126.003411
218.500000 126.462858
218.500000 126.923141
218.500000 127.384260
218.500000 127.846216
218.500000 128.309007
218.500000 128.772634
218.500000 129.237098
218.500000 129.702398
218.500000 130.168534
218.500000 130.635505
218.500000 131.103314
218.500000 131.571958
218.500000 132.041438
218.500000 132.511754
218.500000 132.982907
218.500000 133.454896
218.500000 133.927720
218.500000 134.401381
218.500000 134.875878
218.500000 135.351211
218.500000 135.827381
218.500000 136.304386
218.500000 136.782227
218.500000 137.260905
218.500000 137.740419
218.500000 138.220769
218.500000 138.701955
218.500000 139.183977
218.500000 139.666835
218.500000 140.150529
218.500000 140.635060
218.500000 141.120426
218.500000 141.606629
218.500000 142.093668
218.500000 142.581542
218.500000 143.070253
218.500000 143.559801
218.500000 144.050184
218.500000 144.541403
218.500000 145.033459
218.500000 145.526350
218.500000 146.020078
218.500000 146.514642
218.500000 147.010042
218.500000 147.506278
218.500000 148.003350
218.500000 148.501258
218.500000 149.000003
218.500000 149.499583
218.500000 150.000000
</POINTS>
</NEKTAR>

