<?xml version="1.0" encoding="utf-8" ?>
<NEKTAR>
<POINTS DIM="2" FIELDS="">
458.500000 0.000000
458.500000 0.000418
458.500000 0.001672
458.500000 0.003763
458.500000 0.006689
458.500000 0.010451
458.500000 0.015050
458.500000 0.020485
458.500000 0.026756
458.500000 0.033863
458.500000 0.041806
458.500000 0.050585
458.500000 0.060201
458.500000 0.070652
458.500000 0.081940
458.500000 0.094063
458.500000 0.107023
458.500000 0.120819
458.500000 0.135451
458.500000 0.150919
458.500000 0.167224
458.500000 0.184364
458.500000 0.202341
458.500000 0.221153
458.500000 0.240802
458.500000 0.261287
458.500000 0.282608
458.500000 0.304765
458.500000 0.327758
458.500000 0.351588
458.500000 0.376253
458.500000 0.401755
458.500000 0.428092
458.500000 0.455266
458.500000 0.483276
458.500000 0.512122
458.500000 0.541805
458.500000 0.572323
458.500000 0.603677
458.500000 0.635868
458.500000 0.668894
458.500000 0.702757
458.500000 0.737456
458.500000 0.772991
458.500000 0.809362
458.500000 0.846570
458.500000 0.884613
458.500000 0.923492
458.500000 0.963208
458.500000 1.003760
458.500000 1.045148
458.500000 1.087372
458.500000 1.130432
458.500000 1.174328
458.500000 1.219060
458.500000 1.264629
458.500000 1.311033
458.500000 1.358274
458.500000 1.406351
458.500000 1.455264
458.500000 1.505013
458.500000 1.555598
458.500000 1.607019
458.500000 1.659276
458.500000 1.712370
458.500000 1.766299
458.500000 1.821065
458.500000 1.876667
458.500000 1.933105
458.500000 1.990379
458.500000 2.048489
458.500000 2.107436
458.500000 2.167218
458.500000 2.227837
458.500000 2.289291
458.500000 2.351582
458.500000 2.414709
458.500000 2.478672
458.500000 2.543471
458.500000 2.609106
458.500000 2.675578
458.500000 2.742885
458.500000 2.811029
458.500000 2.880009
458.500000 2.949825
458.500000 3.020477
458.500000 3.091965
458.500000 3.164289
458.500000 3.237449
458.500000 3.311446
458.500000 3.386278
458.500000 3.461947
458.500000 3.538452
458.500000 3.615793
458.500000 3.693970
458.500000 3.772983
458.500000 3.852832
458.500000 3.933517
458.500000 4.015039
458.500000 4.097397
458.500000 4.180590
458.500000 4.264620
458.500000 4.349486
458.500000 4.435188
458.500000 4.521727
458.500000 4.609101
458.500000 4.697311
458.500000 4.786358
458.500000 4.876241
458.500000 4.966959
458.500000 5.058514
458.500000 5.150905
458.500000 5.244133
458.500000 5.338196
458.500000 5.433095
458.500000 5.528831
458.500000 5.625402
458.500000 5.722810
458.500000 5.821054
458.500000 5.920134
458.500000 6.020050
458.500000 6.120802
458.500000 6.222391
458.500000 6.324815
458.500000 6.428076
458.500000 6.532172
458.500000 6.637105
458.500000 6.742874
458.500000 6.849479
458.500000 6.956920
458.500000 7.065198
458.500000 7.174311
458.500000 7.284261
458.500000 7.395046
458.500000 7.506668
458.500000 7.619126
458.500000 7.732420
458.500000 7.846550
458.500000 7.961516
458.500000 8.077319
458.500000 8.193957
458.500000 8.311432
458.500000 8.429742
458.500000 8.548889
458.500000 8.668872
458.500000 8.789691
458.500000 8.911346
458.500000 9.033838
458.500000 9.157165
458.500000 9.281329
458.500000 9.406328
458.500000 9.532164
458.500000 9.658836
458.500000 9.786344
458.500000 9.914688
458.500000 10.043868
458.500000 10.173885
458.500000 10.304737
458.500000 10.436426
458.500000 10.568950
458.500000 10.702311
458.500000 10.836508
458.500000 10.971541
458.500000 11.107411
458.500000 11.244116
458.500000 11.381657
458.500000 11.520035
458.500000 11.659248
458.500000 11.799298
458.500000 11.940184
458.500000 12.081906
458.500000 12.224464
458.500000 12.367859
458.500000 12.512089
458.500000 12.657155
458.500000 12.803058
458.500000 12.949797
458.500000 13.097372
458.500000 13.245782
458.500000 13.395030
458.500000 13.545113
458.500000 13.696032
458.500000 13.847787
458.500000 14.000379
458.500000 14.153807
458.500000 14.308070
458.500000 14.463170
458.500000 14.619106
458.500000 14.775879
458.500000 14.933487
458.500000 15.091931
458.500000 15.251212
458.500000 15.411328
458.500000 15.572281
458.500000 15.734070
458.500000 15.896695
458.500000 16.060156
458.500000 16.224453
458.500000 16.389586
458.500000 16.555556
458.500000 16.722361
458.500000 16.890003
458.500000 17.058481
458.500000 17.227795
458.500000 17.397945
458.500000 17.568931
458.500000 17.740753
458.500000 17.913412
458.500000 18.086906
458.500000 18.261237
458.500000 18.436403
458.500000 18.612406
458.500000 18.789245
458.500000 18.966920
458.500000 19.145432
458.500000 19.324779
458.500000 19.504962
458.500000 19.685982
458.500000 19.867838
458.500000 20.050529
458.500000 20.234057
458.500000 20.418421
458.500000 20.603622
458.500000 20.789658
458.500000 20.976530
458.500000 21.164239
458.500000 21.352783
458.500000 21.542164
458.500000 21.732381
458.500000 21.923434
458.500000 22.115323
458.500000 22.308048
458.500000 22.501610
458.500000 22.696007
458.500000 22.891241
458.500000 23.087310
458.500000 23.284216
458.500000 23.481958
458.500000 23.680536
458.500000 23.879950
458.500000 24.080200
458.500000 24.281287
458.500000 24.483209
458.500000 24.685968
458.500000 24.889563
458.500000 25.093994
458.500000 25.299261
458.500000 25.505364
458.500000 25.712303
458.500000 25.920078
458.500000 26.128690
458.500000 26.338137
458.500000 26.548421
458.500000 26.759541
458.500000 26.971497
458.500000 27.184289
458.500000 27.397917
458.500000 27.612381
458.500000 27.827682
458.500000 28.043818
458.500000 28.260791
458.500000 28.478600
458.500000 28.697244
458.500000 28.916725
458.500000 29.137043
458.500000 29.358196
458.500000 29.580185
458.500000 29.803011
458.500000 30.026672
458.500000 30.251170
458.500000 30.476504
458.500000 30.702674
458.500000 30.929680
458.500000 31.157522
458.500000 31.386200
458.500000 31.615715
458.500000 31.846065
458.500000 32.077252
458.500000 32.309275
458.500000 32.542133
458.500000 32.775828
458.500000 33.010360
458.500000 33.245727
458.500000 33.481930
458.500000 33.718970
458.500000 33.956845
458.500000 34.195557
458.500000 34.435105
458.500000 34.675489
458.500000 34.916709
458.500000 35.158765
458.500000 35.401657
458.500000 35.645386
458.500000 35.889950
458.500000 36.135351
458.500000 36.381588
458.500000 36.628660
458.500000 36.876569
458.500000 37.125315
458.500000 37.374896
458.500000 37.625313
458.500000 37.876567
458.500000 38.128656
458.500000 38.381582
458.500000 38.635344
458.500000 38.889942
458.500000 39.145376
458.500000 39.401646
458.500000 39.658752
458.500000 39.916695
458.500000 40.175473
458.500000 40.435088
458.500000 40.695539
458.500000 40.956826
458.500000 41.218949
458.500000 41.481908
458.500000 41.745703
458.500000 42.010334
458.500000 42.275802
458.500000 42.542106
458.500000 42.809245
458.500000 43.077221
458.500000 43.346033
458.500000 43.615681
458.500000 43.886165
458.500000 44.157486
458.500000 44.429642
458.500000 44.702635
458.500000 44.976463
458.500000 45.251128
458.500000 45.526629
458.500000 45.802966
458.500000 46.080139
458.500000 46.358148
458.500000 46.636994
458.500000 46.916675
458.500000 47.197193
458.500000 47.478547
458.500000 47.760736
458.500000 48.043762
458.500000 48.327625
458.500000 48.612323
458.500000 48.897857
458.500000 49.184227
458.500000 49.471434
458.500000 49.759477
458.500000 50.048355
458.500000 50.338070
458.500000 50.628621
458.500000 50.920009
458.500000 51.212232
458.500000 51.505291
458.500000 51.799187
458.500000 52.093918
458.500000 52.389486
458.500000 52.685890
458.500000 52.983130
458.500000 53.281206
458.500000 53.580118
458.500000 53.879867
458.500000 54.180451
458.500000 54.481872
458.500000 54.784128
458.500000 55.087221
458.500000 55.391150
458.500000 55.695915
458.500000 56.001516
458.500000 56.307953
458.500000 56.615227
458.500000 56.923336
458.500000 57.232282
458.500000 57.542064
458.500000 57.852682
458.500000 58.164136
458.500000 58.476426
458.500000 58.789552
458.500000 59.103514
458.500000 59.418313
458.500000 59.733947
458.500000 60.050418
458.500000 60.367725
458.500000 60.685868
458.500000 61.004847
458.500000 61.324662
458.500000 61.645313
458.500000 61.966801
458.500000 62.289124
458.500000 62.612284
458.500000 62.936279
458.500000 63.261111
458.500000 63.586779
458.500000 63.913283
458.500000 64.240624
458.500000 64.568800
458.500000 64.897812
458.500000 65.227661
458.500000 65.558346
458.500000 65.889867
458.500000 66.222223
458.500000 66.555417
458.500000 66.889446
458.500000 67.224311
458.500000 67.560012
458.500000 67.896550
458.500000 68.233924
458.500000 68.572133
458.500000 68.911179
458.500000 69.251061
458.500000 69.591779
458.500000 69.933334
458.500000 70.275724
458.500000 70.618950
458.500000 70.963013
458.500000 71.307912
458.500000 71.653646
458.500000 72.000217
458.500000 72.347624
458.500000 72.695868
458.500000 73.044947
458.500000 73.394862
458.500000 73.745614
458.500000 74.097202
458.500000 74.449625
458.500000 74.802885
458.500000 75.156981
458.500000 75.511913
458.500000 75.867682
458.500000 76.224286
458.500000 76.581726
458.500000 76.940003
458.500000 77.299116
458.500000 77.659064
458.500000 78.019849
458.500000 78.381471
458.500000 78.743928
458.500000 79.107221
458.500000 79.471350
458.500000 79.836316
458.500000 80.202118
458.500000 80.568755
458.500000 80.936229
458.500000 81.304539
458.500000 81.673685
458.500000 82.043668
458.500000 82.414486
458.500000 82.786141
458.500000 83.158631
458.500000 83.531958
458.500000 83.906121
458.500000 84.281120
458.500000 84.656955
458.500000 85.033626
458.500000 85.411133
458.500000 85.789477
458.500000 86.168656
458.500000 86.548672
458.500000 86.929524
458.500000 87.311212
458.500000 87.693736
458.500000 88.077096
458.500000 88.461292
458.500000 88.846324
458.500000 89.232193
458.500000 89.618897
458.500000 90.006438
458.500000 90.394815
458.500000 90.784028
458.500000 91.174077
458.500000 91.564962
458.500000 91.956684
458.500000 92.349241
458.500000 92.742634
458.500000 93.136864
458.500000 93.531930
458.500000 93.927832
458.500000 94.324570
458.500000 94.722144
458.500000 95.120554
458.500000 95.519801
458.500000 95.919883
458.500000 96.320802
458.500000 96.722557
458.500000 97.125147
458.500000 97.528574
458.500000 97.932837
458.500000 98.337937
458.500000 98.743872
458.500000 99.150643
458.500000 99.558251
458.500000 99.966695
458.500000 100.375974
458.500000 100.786090
458.500000 101.197042
458.500000 101.608831
458.500000 102.021455
458.500000 102.434915
458.500000 102.849212
458.500000 103.264344
458.500000 103.680313
458.500000 104.097118
458.500000 104.514759
458.500000 104.933236
458.500000 105.352549
458.500000 105.772699
458.500000 106.193684
458.500000 106.615506
458.500000 107.038163
458.500000 107.461657
458.500000 107.885987
458.500000 108.311153
458.500000 108.737155
458.500000 109.163993
458.500000 109.591668
458.500000 110.020178
458.500000 110.449525
458.500000 110.879708
458.500000 111.310727
458.500000 111.742582
458.500000 112.175273
458.500000 112.608800
458.500000 113.043163
458.500000 113.478363
458.500000 113.914398
458.500000 114.351270
458.500000 114.788978
458.500000 115.227522
458.500000 115.666902
458.500000 116.107118
458.500000 116.548170
458.500000 116.990059
458.500000 117.432783
458.500000 117.876344
458.500000 118.320740
458.500000 118.765973
458.500000 119.212042
458.500000 119.658947
458.500000 120.106689
458.500000 120.555266
458.500000 121.004679
458.500000 121.454929
458.500000 121.906015
458.500000 122.357937
458.500000 122.810695
458.500000 123.264289
458.500000 123.718719
458.500000 124.173985
458.500000 124.630087
458.500000 125.087026
458.500000 125.544801
458.500000 126.003411
458.500000 126.462858
458.500000 126.923141
458.500000 127.384260
458.500000 127.846216
458.500000 128.309007
458.500000 128.772634
458.500000 129.237098
458.500000 129.702398
458.500000 130.168534
458.500000 130.635505
458.500000 131.103314
458.500000 131.571958
458.500000 132.041438
458.500000 132.511754
458.500000 132.982907
458.500000 133.454896
458.500000 133.927720
458.500000 134.401381
458.500000 134.875878
458.500000 135.351211
458.500000 135.827381
458.500000 136.304386
458.500000 136.782227
458.500000 137.260905
458.500000 137.740419
458.500000 138.220769
458.500000 138.701955
458.500000 139.183977
458.500000 139.666835
458.500000 140.150529
458.500000 140.635060
458.500000 141.120426
458.500000 141.606629
458.500000 142.093668
458.500000 142.581542
458.500000 143.070253
458.500000 143.559801
458.500000 144.050184
458.500000 144.541403
458.500000 145.033459
458.500000 145.526350
458.500000 146.020078
458.500000 146.514642
458.500000 147.010042
458.500000 147.506278
458.500000 148.003350
458.500000 148.501258
458.500000 149.000003
458.500000 149.499583
458.500000 150.000000
</POINTS>
</NEKTAR>

