<?xml version="1.0" encoding="utf-8" ?>
<NEKTAR>
<POINTS DIM="2" FIELDS="">
26.500000 -1.000000
26.500000 -0.999579
26.500000 -0.998317
26.500000 -0.996212
26.500000 -0.993266
26.500000 -0.989479
26.500000 -0.984850
26.500000 -0.979379
26.500000 -0.973066
26.500000 -0.965911
26.500000 -0.957915
26.500000 -0.949078
26.500000 -0.939398
26.500000 -0.928877
26.500000 -0.917514
26.500000 -0.905310
26.500000 -0.892263
26.500000 -0.878375
26.500000 -0.863646
26.500000 -0.848075
26.500000 -0.831662
26.500000 -0.814407
26.500000 -0.796310
26.500000 -0.777372
26.500000 -0.757593
26.500000 -0.736971
26.500000 -0.715508
26.500000 -0.693203
26.500000 -0.670057
26.500000 -0.646068
26.500000 -0.621239
26.500000 -0.595567
26.500000 -0.569054
26.500000 -0.541699
26.500000 -0.513502
26.500000 -0.484464
26.500000 -0.454583
26.500000 -0.423862
26.500000 -0.392298
26.500000 -0.359893
26.500000 -0.326646
26.500000 -0.292558
26.500000 -0.257627
26.500000 -0.221856
26.500000 -0.185242
26.500000 -0.147787
26.500000 -0.109490
26.500000 -0.070351
26.500000 -0.030371
26.500000 0.010451
26.500000 0.052115
26.500000 0.094621
26.500000 0.137968
26.500000 0.182157
26.500000 0.227187
26.500000 0.273059
26.500000 0.319773
26.500000 0.367329
26.500000 0.415726
26.500000 0.464965
26.500000 0.515046
26.500000 0.565968
26.500000 0.617732
26.500000 0.670338
26.500000 0.723786
26.500000 0.778075
26.500000 0.833206
26.500000 0.889178
26.500000 0.945992
26.500000 1.003648
26.500000 1.062146
26.500000 1.121485
26.500000 1.181666
26.500000 1.242689
26.500000 1.304553
26.500000 1.367259
26.500000 1.430807
26.500000 1.495197
26.500000 1.560428
26.500000 1.626500
26.500000 1.693415
26.500000 1.761171
26.500000 1.829769
26.500000 1.899209
26.500000 1.969490
26.500000 2.040613
26.500000 2.112578
26.500000 2.185384
26.500000 2.259032
26.500000 2.333522
26.500000 2.408853
26.500000 2.485027
26.500000 2.562041
26.500000 2.639898
26.500000 2.718596
26.500000 2.798136
26.500000 2.878518
26.500000 2.959741
26.500000 3.041806
26.500000 3.124713
26.500000 3.208461
26.500000 3.293051
26.500000 3.378483
26.500000 3.464756
26.500000 3.551871
26.500000 3.639828
26.500000 3.728627
26.500000 3.818267
26.500000 3.908749
26.500000 4.000072
26.500000 4.092238
26.500000 4.185245
26.500000 4.279093
26.500000 4.373784
26.500000 4.469316
26.500000 4.565690
26.500000 4.662905
26.500000 4.760962
26.500000 4.859861
26.500000 4.959602
26.500000 5.060184
26.500000 5.161608
26.500000 5.263873
26.500000 5.366981
26.500000 5.470930
26.500000 5.575720
26.500000 5.681353
26.500000 5.787827
26.500000 5.895142
26.500000 6.003300
26.500000 6.112299
26.500000 6.222140
26.500000 6.332822
26.500000 6.444347
26.500000 6.556712
26.500000 6.669920
26.500000 6.783969
26.500000 6.898860
26.500000 7.014593
26.500000 7.131167
26.500000 7.248583
26.500000 7.366841
26.500000 7.485941
26.500000 7.605882
26.500000 7.726665
26.500000 7.848289
26.500000 7.970755
26.500000 8.094063
26.500000 8.218213
26.500000 8.343204
26.500000 8.469037
26.500000 8.595712
26.500000 8.723228
26.500000 8.851586
26.500000 8.980786
26.500000 9.110827
26.500000 9.241711
26.500000 9.373435
26.500000 9.506002
26.500000 9.639410
26.500000 9.773660
26.500000 9.908752
26.500000 10.044685
26.500000 10.181460
26.500000 10.319077
26.500000 10.457535
26.500000 10.596835
26.500000 10.736977
26.500000 10.877960
26.500000 11.019785
26.500000 11.162452
26.500000 11.305961
26.500000 11.450311
26.500000 11.595503
26.500000 11.741536
26.500000 11.888412
26.500000 12.036129
26.500000 12.184687
26.500000 12.334088
26.500000 12.484330
26.500000 12.635414
26.500000 12.787339
26.500000 12.940106
26.500000 13.093715
26.500000 13.248165
26.500000 13.403458
26.500000 13.559592
26.500000 13.716567
26.500000 13.874384
26.500000 14.033043
26.500000 14.192544
26.500000 14.352886
26.500000 14.514070
26.500000 14.676096
26.500000 14.838964
26.500000 15.002673
26.500000 15.167224
26.500000 15.332616
26.500000 15.498850
26.500000 15.665926
26.500000 15.833844
26.500000 16.002603
26.500000 16.172204
26.500000 16.342647
26.500000 16.513931
26.500000 16.686057
26.500000 16.859025
26.500000 17.032834
26.500000 17.207485
26.500000 17.382978
26.500000 17.559313
26.500000 17.736489
26.500000 17.914507
26.500000 18.093367
26.500000 18.273068
26.500000 18.453611
26.500000 18.634995
26.500000 18.817222
26.500000 19.000290
26.500000 19.184200
26.500000 19.368951
26.500000 19.554544
26.500000 19.740979
26.500000 19.928255
26.500000 20.116374
26.500000 20.305334
26.500000 20.495135
26.500000 20.685778
26.500000 20.877263
26.500000 21.069590
26.500000 21.262758
26.500000 21.456769
26.500000 21.651620
26.500000 21.847314
26.500000 22.043849
26.500000 22.241226
26.500000 22.439444
26.500000 22.638504
26.500000 22.838406
26.500000 23.039150
26.500000 23.240735
26.500000 23.443162
26.500000 23.646431
26.500000 23.850541
26.500000 24.055493
26.500000 24.261287
26.500000 24.467922
26.500000 24.675399
26.500000 24.883718
26.500000 25.092879
26.500000 25.302881
26.500000 25.513725
26.500000 25.725410
26.500000 25.937938
26.500000 26.151307
26.500000 26.365517
26.500000 26.580570
26.500000 26.796464
26.500000 27.013200
26.500000 27.230777
26.500000 27.449196
26.500000 27.668457
26.500000 27.888559
26.500000 28.109504
26.500000 28.331289
26.500000 28.553917
26.500000 28.777386
26.500000 29.001697
26.500000 29.226850
26.500000 29.452844
26.500000 29.679680
26.500000 29.907358
26.500000 30.135878
26.500000 30.365239
26.500000 30.595441
26.500000 30.826486
26.500000 31.058372
26.500000 31.291100
26.500000 31.524670
26.500000 31.759081
26.500000 31.994334
26.500000 32.230429
26.500000 32.467365
26.500000 32.705143
26.500000 32.943763
26.500000 33.183224
26.500000 33.423527
26.500000 33.664672
26.500000 33.906659
26.500000 34.149487
26.500000 34.393157
26.500000 34.637668
26.500000 34.883022
26.500000 35.129216
26.500000 35.376253
26.500000 35.624131
26.500000 35.872852
26.500000 36.122413
26.500000 36.372817
26.500000 36.624062
26.500000 36.876149
26.500000 37.129077
26.500000 37.382847
26.500000 37.637459
26.500000 37.892913
26.500000 38.149208
26.500000 38.406345
26.500000 38.664324
26.500000 38.923144
26.500000 39.182806
26.500000 39.443310
26.500000 39.704655
26.500000 39.966842
26.500000 40.229871
26.500000 40.493742
26.500000 40.758454
26.500000 41.024008
26.500000 41.290403
26.500000 41.557641
26.500000 41.825720
26.500000 42.094640
26.500000 42.364403
26.500000 42.635007
26.500000 42.906452
26.500000 43.178740
26.500000 43.451869
26.500000 43.725840
26.500000 44.000652
26.500000 44.276306
26.500000 44.552802
26.500000 44.830140
26.500000 45.108319
26.500000 45.387340
26.500000 45.667203
26.500000 45.947907
26.500000 46.229453
26.500000 46.511841
26.500000 46.795070
26.500000 47.079141
26.500000 47.364054
26.500000 47.649809
26.500000 47.936405
26.500000 48.223843
26.500000 48.512122
26.500000 48.801244
26.500000 49.091207
26.500000 49.382011
26.500000 49.673658
26.500000 49.966146
26.500000 50.259475
26.500000 50.553647
26.500000 50.848660
26.500000 51.144515
26.500000 51.441211
26.500000 51.738749
26.500000 52.037129
26.500000 52.336351
26.500000 52.636414
26.500000 52.937319
26.500000 53.239066
26.500000 53.541654
26.500000 53.845084
26.500000 54.149356
26.500000 54.454469
26.500000 54.760424
26.500000 55.067221
26.500000 55.374860
26.500000 55.683340
26.500000 55.992662
26.500000 56.302825
26.500000 56.613831
26.500000 56.925677
26.500000 57.238366
26.500000 57.551896
26.500000 57.866268
26.500000 58.181482
26.500000 58.497538
26.500000 58.814435
26.500000 59.132174
26.500000 59.450754
26.500000 59.770176
26.500000 60.090440
26.500000 60.411546
26.500000 60.733493
26.500000 61.056282
26.500000 61.379913
26.500000 61.704385
26.500000 62.029699
26.500000 62.355855
26.500000 62.682852
26.500000 63.010691
26.500000 63.339372
26.500000 63.668894
26.500000 63.999259
26.500000 64.330465
26.500000 64.662512
26.500000 64.995401
26.500000 65.329132
26.500000 65.663705
26.500000 65.999119
26.500000 66.335375
26.500000 66.672473
26.500000 67.010412
26.500000 67.349194
26.500000 67.688816
26.500000 68.029281
26.500000 68.370587
26.500000 68.712735
26.500000 69.055724
26.500000 69.399556
26.500000 69.744229
26.500000 70.089743
26.500000 70.436100
26.500000 70.783298
26.500000 71.131337
26.500000 71.480219
26.500000 71.829942
26.500000 72.180507
26.500000 72.531913
26.500000 72.884161
26.500000 73.237251
26.500000 73.591183
26.500000 73.945956
26.500000 74.301571
26.500000 74.658028
26.500000 75.015326
26.500000 75.373466
26.500000 75.732448
26.500000 76.092271
26.500000 76.452936
26.500000 76.814443
26.500000 77.176792
26.500000 77.539982
26.500000 77.904014
26.500000 78.268887
26.500000 78.634602
26.500000 79.001159
26.500000 79.368558
26.500000 79.736798
26.500000 80.105880
26.500000 80.475804
26.500000 80.846570
26.500000 81.218177
26.500000 81.590625
26.500000 81.963916
26.500000 82.338048
26.500000 82.713022
26.500000 83.088838
26.500000 83.465495
26.500000 83.842994
26.500000 84.221334
26.500000 84.600517
26.500000 84.980541
26.500000 85.361406
26.500000 85.743114
26.500000 86.125663
26.500000 86.509054
26.500000 86.893286
26.500000 87.278360
26.500000 87.664276
26.500000 88.051034
26.500000 88.438633
26.500000 88.827074
26.500000 89.216357
26.500000 89.606481
26.500000 89.997447
26.500000 90.389255
26.500000 90.781904
26.500000 91.175395
26.500000 91.569728
26.500000 91.964903
26.500000 92.360919
26.500000 92.757777
26.500000 93.155476
26.500000 93.554017
26.500000 93.953400
26.500000 94.353625
26.500000 94.754691
26.500000 95.156599
26.500000 95.559349
26.500000 95.962940
26.500000 96.367374
26.500000 96.772648
26.500000 97.178765
26.500000 97.585723
26.500000 97.993523
26.500000 98.402164
26.500000 98.811648
26.500000 99.221973
26.500000 99.633139
26.500000 100.045148
26.500000 100.457998
26.500000 100.871689
26.500000 101.286223
26.500000 101.701598
26.500000 102.117815
26.500000 102.534873
26.500000 102.952773
26.500000 103.371515
26.500000 103.791099
26.500000 104.211524
26.500000 104.632791
26.500000 105.054900
26.500000 105.477850
26.500000 105.901642
26.500000 106.326276
26.500000 106.751751
26.500000 107.178068
26.500000 107.605227
26.500000 108.033227
26.500000 108.462070
26.500000 108.891753
26.500000 109.322279
26.500000 109.753646
26.500000 110.185855
26.500000 110.618906
26.500000 111.052798
26.500000 111.487532
26.500000 111.923108
26.500000 112.359525
26.500000 112.796784
26.500000 113.234885
26.500000 113.673828
26.500000 114.113612
26.500000 114.554238
26.500000 114.995705
26.500000 115.438014
26.500000 115.881165
26.500000 116.325158
26.500000 116.769992
26.500000 117.215668
26.500000 117.662186
26.500000 118.109545
26.500000 118.557746
26.500000 119.006789
26.500000 119.456674
26.500000 119.907400
26.500000 120.358968
26.500000 120.811377
26.500000 121.264629
26.500000 121.718722
26.500000 122.173656
26.500000 122.629432
26.500000 123.086050
26.500000 123.543510
26.500000 124.001812
26.500000 124.460955
26.500000 124.920939
26.500000 125.381766
26.500000 125.843434
26.500000 126.305944
26.500000 126.769296
26.500000 127.233489
26.500000 127.698524
26.500000 128.164400
26.500000 128.631119
26.500000 129.098679
26.500000 129.567080
26.500000 130.036324
26.500000 130.506409
26.500000 130.977336
26.500000 131.449104
26.500000 131.921714
26.500000 132.395166
26.500000 132.869460
26.500000 133.344595
26.500000 133.820572
26.500000 134.297390
26.500000 134.775051
26.500000 135.253553
26.500000 135.732897
26.500000 136.213082
26.500000 136.694109
26.500000 137.175978
26.500000 137.658688
26.500000 138.142240
26.500000 138.626634
26.500000 139.111870
26.500000 139.597947
26.500000 140.084866
26.500000 140.572627
26.500000 141.061229
26.500000 141.550673
26.500000 142.040959
26.500000 142.532086
26.500000 143.024055
26.500000 143.516866
26.500000 144.010518
26.500000 144.505013
26.500000 145.000348
26.500000 145.496526
26.500000 145.993545
26.500000 146.491406
26.500000 146.990109
26.500000 147.489653
26.500000 147.990039
26.500000 148.491267
26.500000 148.993336
26.500000 149.496247
26.500000 150.000000
</POINTS>
</NEKTAR>

