<?xml version="1.0" encoding="utf-8" ?>
<NEKTAR>
<POINTS DIM="2" FIELDS="">
27.500000 -1.000000
27.500000 -0.999579
27.500000 -0.998317
27.500000 -0.996212
27.500000 -0.993266
27.500000 -0.989479
27.500000 -0.984850
27.500000 -0.979379
27.500000 -0.973066
27.500000 -0.965911
27.500000 -0.957915
27.500000 -0.949078
27.500000 -0.939398
27.500000 -0.928877
27.500000 -0.917514
27.500000 -0.905310
27.500000 -0.892263
27.500000 -0.878375
27.500000 -0.863646
27.500000 -0.848075
27.500000 -0.831662
27.500000 -0.814407
27.500000 -0.796310
27.500000 -0.777372
27.500000 -0.757593
27.500000 -0.736971
27.500000 -0.715508
27.500000 -0.693203
27.500000 -0.670057
27.500000 -0.646068
27.500000 -0.621239
27.500000 -0.595567
27.500000 -0.569054
27.500000 -0.541699
27.500000 -0.513502
27.500000 -0.484464
27.500000 -0.454583
27.500000 -0.423862
27.500000 -0.392298
27.500000 -0.359893
27.500000 -0.326646
27.500000 -0.292558
27.500000 -0.257627
27.500000 -0.221856
27.500000 -0.185242
27.500000 -0.147787
27.500000 -0.109490
27.500000 -0.070351
27.500000 -0.030371
27.500000 0.010451
27.500000 0.052115
27.500000 0.094621
27.500000 0.137968
27.500000 0.182157
27.500000 0.227187
27.500000 0.273059
27.500000 0.319773
27.500000 0.367329
27.500000 0.415726
27.500000 0.464965
27.500000 0.515046
27.500000 0.565968
27.500000 0.617732
27.500000 0.670338
27.500000 0.723786
27.500000 0.778075
27.500000 0.833206
27.500000 0.889178
27.500000 0.945992
27.500000 1.003648
27.500000 1.062146
27.500000 1.121485
27.500000 1.181666
27.500000 1.242689
27.500000 1.304553
27.500000 1.367259
27.500000 1.430807
27.500000 1.495197
27.500000 1.560428
27.500000 1.626500
27.500000 1.693415
27.500000 1.761171
27.500000 1.829769
27.500000 1.899209
27.500000 1.969490
27.500000 2.040613
27.500000 2.112578
27.500000 2.185384
27.500000 2.259032
27.500000 2.333522
27.500000 2.408853
27.500000 2.485027
27.500000 2.562041
27.500000 2.639898
27.500000 2.718596
27.500000 2.798136
27.500000 2.878518
27.500000 2.959741
27.500000 3.041806
27.500000 3.124713
27.500000 3.208461
27.500000 3.293051
27.500000 3.378483
27.500000 3.464756
27.500000 3.551871
27.500000 3.639828
27.500000 3.728627
27.500000 3.818267
27.500000 3.908749
27.500000 4.000072
27.500000 4.092238
27.500000 4.185245
27.500000 4.279093
27.500000 4.373784
27.500000 4.469316
27.500000 4.565690
27.500000 4.662905
27.500000 4.760962
27.500000 4.859861
27.500000 4.959602
27.500000 5.060184
27.500000 5.161608
27.500000 5.263873
27.500000 5.366981
27.500000 5.470930
27.500000 5.575720
27.500000 5.681353
27.500000 5.787827
27.500000 5.895142
27.500000 6.003300
27.500000 6.112299
27.500000 6.222140
27.500000 6.332822
27.500000 6.444347
27.500000 6.556712
27.500000 6.669920
27.500000 6.783969
27.500000 6.898860
27.500000 7.014593
27.500000 7.131167
27.500000 7.248583
27.500000 7.366841
27.500000 7.485941
27.500000 7.605882
27.500000 7.726665
27.500000 7.848289
27.500000 7.970755
27.500000 8.094063
27.500000 8.218213
27.500000 8.343204
27.500000 8.469037
27.500000 8.595712
27.500000 8.723228
27.500000 8.851586
27.500000 8.980786
27.500000 9.110827
27.500000 9.241711
27.500000 9.373435
27.500000 9.506002
27.500000 9.639410
27.500000 9.773660
27.500000 9.908752
27.500000 10.044685
27.500000 10.181460
27.500000 10.319077
27.500000 10.457535
27.500000 10.596835
27.500000 10.736977
27.500000 10.877960
27.500000 11.019785
27.500000 11.162452
27.500000 11.305961
27.500000 11.450311
27.500000 11.595503
27.500000 11.741536
27.500000 11.888412
27.500000 12.036129
27.500000 12.184687
27.500000 12.334088
27.500000 12.484330
27.500000 12.635414
27.500000 12.787339
27.500000 12.940106
27.500000 13.093715
27.500000 13.248165
27.500000 13.403458
27.500000 13.559592
27.500000 13.716567
27.500000 13.874384
27.500000 14.033043
27.500000 14.192544
27.500000 14.352886
27.500000 14.514070
27.500000 14.676096
27.500000 14.838964
27.500000 15.002673
27.500000 15.167224
27.500000 15.332616
27.500000 15.498850
27.500000 15.665926
27.500000 15.833844
27.500000 16.002603
27.500000 16.172204
27.500000 16.342647
27.500000 16.513931
27.500000 16.686057
27.500000 16.859025
27.500000 17.032834
27.500000 17.207485
27.500000 17.382978
27.500000 17.559313
27.500000 17.736489
27.500000 17.914507
27.500000 18.093367
27.500000 18.273068
27.500000 18.453611
27.500000 18.634995
27.500000 18.817222
27.500000 19.000290
27.500000 19.184200
27.500000 19.368951
27.500000 19.554544
27.500000 19.740979
27.500000 19.928255
27.500000 20.116374
27.500000 20.305334
27.500000 20.495135
27.500000 20.685778
27.500000 20.877263
27.500000 21.069590
27.500000 21.262758
27.500000 21.456769
27.500000 21.651620
27.500000 21.847314
27.500000 22.043849
27.500000 22.241226
27.500000 22.439444
27.500000 22.638504
27.500000 22.838406
27.500000 23.039150
27.500000 23.240735
27.500000 23.443162
27.500000 23.646431
27.500000 23.850541
27.500000 24.055493
27.500000 24.261287
27.500000 24.467922
27.500000 24.675399
27.500000 24.883718
27.500000 25.092879
27.500000 25.302881
27.500000 25.513725
27.500000 25.725410
27.500000 25.937938
27.500000 26.151307
27.500000 26.365517
27.500000 26.580570
27.500000 26.796464
27.500000 27.013200
27.500000 27.230777
27.500000 27.449196
27.500000 27.668457
27.500000 27.888559
27.500000 28.109504
27.500000 28.331289
27.500000 28.553917
27.500000 28.777386
27.500000 29.001697
27.500000 29.226850
27.500000 29.452844
27.500000 29.679680
27.500000 29.907358
27.500000 30.135878
27.500000 30.365239
27.500000 30.595441
27.500000 30.826486
27.500000 31.058372
27.500000 31.291100
27.500000 31.524670
27.500000 31.759081
27.500000 31.994334
27.500000 32.230429
27.500000 32.467365
27.500000 32.705143
27.500000 32.943763
27.500000 33.183224
27.500000 33.423527
27.500000 33.664672
27.500000 33.906659
27.500000 34.149487
27.500000 34.393157
27.500000 34.637668
27.500000 34.883022
27.500000 35.129216
27.500000 35.376253
27.500000 35.624131
27.500000 35.872852
27.500000 36.122413
27.500000 36.372817
27.500000 36.624062
27.500000 36.876149
27.500000 37.129077
27.500000 37.382847
27.500000 37.637459
27.500000 37.892913
27.500000 38.149208
27.500000 38.406345
27.500000 38.664324
27.500000 38.923144
27.500000 39.182806
27.500000 39.443310
27.500000 39.704655
27.500000 39.966842
27.500000 40.229871
27.500000 40.493742
27.500000 40.758454
27.500000 41.024008
27.500000 41.290403
27.500000 41.557641
27.500000 41.825720
27.500000 42.094640
27.500000 42.364403
27.500000 42.635007
27.500000 42.906452
27.500000 43.178740
27.500000 43.451869
27.500000 43.725840
27.500000 44.000652
27.500000 44.276306
27.500000 44.552802
27.500000 44.830140
27.500000 45.108319
27.500000 45.387340
27.500000 45.667203
27.500000 45.947907
27.500000 46.229453
27.500000 46.511841
27.500000 46.795070
27.500000 47.079141
27.500000 47.364054
27.500000 47.649809
27.500000 47.936405
27.500000 48.223843
27.500000 48.512122
27.500000 48.801244
27.500000 49.091207
27.500000 49.382011
27.500000 49.673658
27.500000 49.966146
27.500000 50.259475
27.500000 50.553647
27.500000 50.848660
27.500000 51.144515
27.500000 51.441211
27.500000 51.738749
27.500000 52.037129
27.500000 52.336351
27.500000 52.636414
27.500000 52.937319
27.500000 53.239066
27.500000 53.541654
27.500000 53.845084
27.500000 54.149356
27.500000 54.454469
27.500000 54.760424
27.500000 55.067221
27.500000 55.374860
27.500000 55.683340
27.500000 55.992662
27.500000 56.302825
27.500000 56.613831
27.500000 56.925677
27.500000 57.238366
27.500000 57.551896
27.500000 57.866268
27.500000 58.181482
27.500000 58.497538
27.500000 58.814435
27.500000 59.132174
27.500000 59.450754
27.500000 59.770176
27.500000 60.090440
27.500000 60.411546
27.500000 60.733493
27.500000 61.056282
27.500000 61.379913
27.500000 61.704385
27.500000 62.029699
27.500000 62.355855
27.500000 62.682852
27.500000 63.010691
27.500000 63.339372
27.500000 63.668894
27.500000 63.999259
27.500000 64.330465
27.500000 64.662512
27.500000 64.995401
27.500000 65.329132
27.500000 65.663705
27.500000 65.999119
27.500000 66.335375
27.500000 66.672473
27.500000 67.010412
27.500000 67.349194
27.500000 67.688816
27.500000 68.029281
27.500000 68.370587
27.500000 68.712735
27.500000 69.055724
27.500000 69.399556
27.500000 69.744229
27.500000 70.089743
27.500000 70.436100
27.500000 70.783298
27.500000 71.131337
27.500000 71.480219
27.500000 71.829942
27.500000 72.180507
27.500000 72.531913
27.500000 72.884161
27.500000 73.237251
27.500000 73.591183
27.500000 73.945956
27.500000 74.301571
27.500000 74.658028
27.500000 75.015326
27.500000 75.373466
27.500000 75.732448
27.500000 76.092271
27.500000 76.452936
27.500000 76.814443
27.500000 77.176792
27.500000 77.539982
27.500000 77.904014
27.500000 78.268887
27.500000 78.634602
27.500000 79.001159
27.500000 79.368558
27.500000 79.736798
27.500000 80.105880
27.500000 80.475804
27.500000 80.846570
27.500000 81.218177
27.500000 81.590625
27.500000 81.963916
27.500000 82.338048
27.500000 82.713022
27.500000 83.088838
27.500000 83.465495
27.500000 83.842994
27.500000 84.221334
27.500000 84.600517
27.500000 84.980541
27.500000 85.361406
27.500000 85.743114
27.500000 86.125663
27.500000 86.509054
27.500000 86.893286
27.500000 87.278360
27.500000 87.664276
27.500000 88.051034
27.500000 88.438633
27.500000 88.827074
27.500000 89.216357
27.500000 89.606481
27.500000 89.997447
27.500000 90.389255
27.500000 90.781904
27.500000 91.175395
27.500000 91.569728
27.500000 91.964903
27.500000 92.360919
27.500000 92.757777
27.500000 93.155476
27.500000 93.554017
27.500000 93.953400
27.500000 94.353625
27.500000 94.754691
27.500000 95.156599
27.500000 95.559349
27.500000 95.962940
27.500000 96.367374
27.500000 96.772648
27.500000 97.178765
27.500000 97.585723
27.500000 97.993523
27.500000 98.402164
27.500000 98.811648
27.500000 99.221973
27.500000 99.633139
27.500000 100.045148
27.500000 100.457998
27.500000 100.871689
27.500000 101.286223
27.500000 101.701598
27.500000 102.117815
27.500000 102.534873
27.500000 102.952773
27.500000 103.371515
27.500000 103.791099
27.500000 104.211524
27.500000 104.632791
27.500000 105.054900
27.500000 105.477850
27.500000 105.901642
27.500000 106.326276
27.500000 106.751751
27.500000 107.178068
27.500000 107.605227
27.500000 108.033227
27.500000 108.462070
27.500000 108.891753
27.500000 109.322279
27.500000 109.753646
27.500000 110.185855
27.500000 110.618906
27.500000 111.052798
27.500000 111.487532
27.500000 111.923108
27.500000 112.359525
27.500000 112.796784
27.500000 113.234885
27.500000 113.673828
27.500000 114.113612
27.500000 114.554238
27.500000 114.995705
27.500000 115.438014
27.500000 115.881165
27.500000 116.325158
27.500000 116.769992
27.500000 117.215668
27.500000 117.662186
27.500000 118.109545
27.500000 118.557746
27.500000 119.006789
27.500000 119.456674
27.500000 119.907400
27.500000 120.358968
27.500000 120.811377
27.500000 121.264629
27.500000 121.718722
27.500000 122.173656
27.500000 122.629432
27.500000 123.086050
27.500000 123.543510
27.500000 124.001812
27.500000 124.460955
27.500000 124.920939
27.500000 125.381766
27.500000 125.843434
27.500000 126.305944
27.500000 126.769296
27.500000 127.233489
27.500000 127.698524
27.500000 128.164400
27.500000 128.631119
27.500000 129.098679
27.500000 129.567080
27.500000 130.036324
27.500000 130.506409
27.500000 130.977336
27.500000 131.449104
27.500000 131.921714
27.500000 132.395166
27.500000 132.869460
27.500000 133.344595
27.500000 133.820572
27.500000 134.297390
27.500000 134.775051
27.500000 135.253553
27.500000 135.732897
27.500000 136.213082
27.500000 136.694109
27.500000 137.175978
27.500000 137.658688
27.500000 138.142240
27.500000 138.626634
27.500000 139.111870
27.500000 139.597947
27.500000 140.084866
27.500000 140.572627
27.500000 141.061229
27.500000 141.550673
27.500000 142.040959
27.500000 142.532086
27.500000 143.024055
27.500000 143.516866
27.500000 144.010518
27.500000 144.505013
27.500000 145.000348
27.500000 145.496526
27.500000 145.993545
27.500000 146.491406
27.500000 146.990109
27.500000 147.489653
27.500000 147.990039
27.500000 148.491267
27.500000 148.993336
27.500000 149.496247
27.500000 150.000000
</POINTS>
</NEKTAR>

