<?xml version="1.0" encoding="utf-8" ?>
<NEKTAR>
<POINTS DIM="2" FIELDS="">
14.500000 -1.750000
14.500000 -1.749577
14.500000 -1.748308
14.500000 -1.746194
14.500000 -1.743233
14.500000 -1.739427
14.500000 -1.734774
14.500000 -1.729276
14.500000 -1.722932
14.500000 -1.715742
14.500000 -1.707706
14.500000 -1.698825
14.500000 -1.689097
14.500000 -1.678524
14.500000 -1.667104
14.500000 -1.654839
14.500000 -1.641728
14.500000 -1.627771
14.500000 -1.612969
14.500000 -1.597320
14.500000 -1.580825
14.500000 -1.563485
14.500000 -1.545299
14.500000 -1.526267
14.500000 -1.506389
14.500000 -1.485665
14.500000 -1.464095
14.500000 -1.441679
14.500000 -1.418418
14.500000 -1.394310
14.500000 -1.369357
14.500000 -1.343558
14.500000 -1.316913
14.500000 -1.289422
14.500000 -1.261086
14.500000 -1.231903
14.500000 -1.201874
14.500000 -1.171000
14.500000 -1.139280
14.500000 -1.106714
14.500000 -1.073302
14.500000 -1.039044
14.500000 -1.003940
14.500000 -0.967991
14.500000 -0.931195
14.500000 -0.893554
14.500000 -0.855067
14.500000 -0.815734
14.500000 -0.775555
14.500000 -0.734530
14.500000 -0.692659
14.500000 -0.649942
14.500000 -0.606380
14.500000 -0.561972
14.500000 -0.516717
14.500000 -0.470617
14.500000 -0.423671
14.500000 -0.375880
14.500000 -0.327242
14.500000 -0.277758
14.500000 -0.227429
14.500000 -0.176254
14.500000 -0.124233
14.500000 -0.071365
14.500000 -0.017653
14.500000 0.036906
14.500000 0.092311
14.500000 0.148561
14.500000 0.205658
14.500000 0.263600
14.500000 0.322388
14.500000 0.382022
14.500000 0.442502
14.500000 0.503828
14.500000 0.566000
14.500000 0.629017
14.500000 0.692881
14.500000 0.757590
14.500000 0.823145
14.500000 0.889546
14.500000 0.956793
14.500000 1.024886
14.500000 1.093824
14.500000 1.163609
14.500000 1.234239
14.500000 1.305715
14.500000 1.378038
14.500000 1.451206
14.500000 1.525219
14.500000 1.600079
14.500000 1.675785
14.500000 1.752336
14.500000 1.829734
14.500000 1.907977
14.500000 1.987066
14.500000 2.067001
14.500000 2.147782
14.500000 2.229409
14.500000 2.311881
14.500000 2.395200
14.500000 2.479364
14.500000 2.564374
14.500000 2.650230
14.500000 2.736932
14.500000 2.824480
14.500000 2.912874
14.500000 3.002113
14.500000 3.092199
14.500000 3.183130
14.500000 3.274907
14.500000 3.367530
14.500000 3.460999
14.500000 3.555314
14.500000 3.650475
14.500000 3.746481
14.500000 3.843334
14.500000 3.941032
14.500000 4.039576
14.500000 4.138966
14.500000 4.239202
14.500000 4.340284
14.500000 4.442212
14.500000 4.544985
14.500000 4.648605
14.500000 4.753070
14.500000 4.858381
14.500000 4.964538
14.500000 5.071541
14.500000 5.179390
14.500000 5.288084
14.500000 5.397625
14.500000 5.508011
14.500000 5.619244
14.500000 5.731322
14.500000 5.844246
14.500000 5.958016
14.500000 6.072631
14.500000 6.188093
14.500000 6.304401
14.500000 6.421554
14.500000 6.539553
14.500000 6.658398
14.500000 6.778089
14.500000 6.898626
14.500000 7.020009
14.500000 7.142238
14.500000 7.265312
14.500000 7.389232
14.500000 7.513999
14.500000 7.639611
14.500000 7.766069
14.500000 7.893373
14.500000 8.021522
14.500000 8.150518
14.500000 8.280359
14.500000 8.411047
14.500000 8.542580
14.500000 8.674959
14.500000 8.808184
14.500000 8.942255
14.500000 9.077172
14.500000 9.212934
14.500000 9.349543
14.500000 9.486997
14.500000 9.625297
14.500000 9.764443
14.500000 9.904435
14.500000 10.045273
14.500000 10.186957
14.500000 10.329486
14.500000 10.472862
14.500000 10.617083
14.500000 10.762150
14.500000 10.908063
14.500000 11.054822
14.500000 11.202427
14.500000 11.350878
14.500000 11.500174
14.500000 11.650317
14.500000 11.801305
14.500000 11.953139
14.500000 12.105819
14.500000 12.259345
14.500000 12.413717
14.500000 12.568934
14.500000 12.724998
14.500000 12.881907
14.500000 13.039663
14.500000 13.198264
14.500000 13.357711
14.500000 13.518004
14.500000 13.679142
14.500000 13.841127
14.500000 14.003958
14.500000 14.167634
14.500000 14.332156
14.500000 14.497524
14.500000 14.663738
14.500000 14.830798
14.500000 14.998704
14.500000 15.167456
14.500000 15.337053
14.500000 15.507496
14.500000 15.678786
14.500000 15.850921
14.500000 16.023902
14.500000 16.197729
14.500000 16.372401
14.500000 16.547920
14.500000 16.724284
14.500000 16.901495
14.500000 17.079551
14.500000 17.258453
14.500000 17.438201
14.500000 17.618795
14.500000 17.800235
14.500000 17.982520
14.500000 18.165652
14.500000 18.349629
14.500000 18.534452
14.500000 18.720121
14.500000 18.906636
14.500000 19.093997
14.500000 19.282204
14.500000 19.471256
14.500000 19.661155
14.500000 19.851899
14.500000 20.043489
14.500000 20.235925
14.500000 20.429207
14.500000 20.623335
14.500000 20.818309
14.500000 21.014128
14.500000 21.210794
14.500000 21.408305
14.500000 21.606662
14.500000 21.805865
14.500000 22.005914
14.500000 22.206809
14.500000 22.408550
14.500000 22.611136
14.500000 22.814569
14.500000 23.018847
14.500000 23.223971
14.500000 23.429941
14.500000 23.636757
14.500000 23.844419
14.500000 24.052926
14.500000 24.262280
14.500000 24.472479
14.500000 24.683524
14.500000 24.895416
14.500000 25.108153
14.500000 25.321735
14.500000 25.536164
14.500000 25.751439
14.500000 25.967559
14.500000 26.184526
14.500000 26.402338
14.500000 26.620996
14.500000 26.840500
14.500000 27.060850
14.500000 27.282046
14.500000 27.504087
14.500000 27.726975
14.500000 27.950708
14.500000 28.175287
14.500000 28.400712
14.500000 28.626983
14.500000 28.854100
14.500000 29.082063
14.500000 29.310871
14.500000 29.540526
14.500000 29.771026
14.500000 30.002372
14.500000 30.234565
14.500000 30.467603
14.500000 30.701486
14.500000 30.936216
14.500000 31.171792
14.500000 31.408213
14.500000 31.645480
14.500000 31.883594
14.500000 32.122553
14.500000 32.362358
14.500000 32.603008
14.500000 32.844505
14.500000 33.086848
14.500000 33.330036
14.500000 33.574070
14.500000 33.818950
14.500000 34.064677
14.500000 34.311248
14.500000 34.558666
14.500000 34.806930
14.500000 35.056039
14.500000 35.305995
14.500000 35.556796
14.500000 35.808443
14.500000 36.060936
14.500000 36.314275
14.500000 36.568460
14.500000 36.823491
14.500000 37.079367
14.500000 37.336090
14.500000 37.593658
14.500000 37.852072
14.500000 38.111332
14.500000 38.371438
14.500000 38.632390
14.500000 38.894187
14.500000 39.156831
14.500000 39.420320
14.500000 39.684655
14.500000 39.949836
14.500000 40.215863
14.500000 40.482736
14.500000 40.750455
14.500000 41.019020
14.500000 41.288430
14.500000 41.558686
14.500000 41.829789
14.500000 42.101737
14.500000 42.374531
14.500000 42.648171
14.500000 42.922656
14.500000 43.197988
14.500000 43.474165
14.500000 43.751189
14.500000 44.029058
14.500000 44.307773
14.500000 44.587334
14.500000 44.867741
14.500000 45.148993
14.500000 45.431092
14.500000 45.714036
14.500000 45.997827
14.500000 46.282463
14.500000 46.567945
14.500000 46.854273
14.500000 47.141447
14.500000 47.429466
14.500000 47.718332
14.500000 48.008043
14.500000 48.298601
14.500000 48.590004
14.500000 48.882253
14.500000 49.175348
14.500000 49.469289
14.500000 49.764075
14.500000 50.059708
14.500000 50.356186
14.500000 50.653511
14.500000 50.951681
14.500000 51.250697
14.500000 51.550559
14.500000 51.851266
14.500000 52.152820
14.500000 52.455220
14.500000 52.758465
14.500000 53.062556
14.500000 53.367493
14.500000 53.673276
14.500000 53.979905
14.500000 54.287380
14.500000 54.595701
14.500000 54.904867
14.500000 55.214880
14.500000 55.525738
14.500000 55.837442
14.500000 56.149992
14.500000 56.463388
14.500000 56.777630
14.500000 57.092717
14.500000 57.408651
14.500000 57.725430
14.500000 58.043055
14.500000 58.361526
14.500000 58.680843
14.500000 59.001006
14.500000 59.322015
14.500000 59.643869
14.500000 59.966570
14.500000 60.290116
14.500000 60.614508
14.500000 60.939747
14.500000 61.265831
14.500000 61.592760
14.500000 61.920536
14.500000 62.249158
14.500000 62.578625
14.500000 62.908938
14.500000 63.240098
14.500000 63.572103
14.500000 63.904954
14.500000 64.238650
14.500000 64.573193
14.500000 64.908582
14.500000 65.244816
14.500000 65.581896
14.500000 65.919823
14.500000 66.258595
14.500000 66.598213
14.500000 66.938676
14.500000 67.279986
14.500000 67.622142
14.500000 67.965143
14.500000 68.308990
14.500000 68.653683
14.500000 68.999222
14.500000 69.345607
14.500000 69.692838
14.500000 70.040915
14.500000 70.389837
14.500000 70.739606
14.500000 71.090220
14.500000 71.441680
14.500000 71.793986
14.500000 72.147138
14.500000 72.501136
14.500000 72.855979
14.500000 73.211669
14.500000 73.568204
14.500000 73.925585
14.500000 74.283813
14.500000 74.642886
14.500000 75.002804
14.500000 75.363569
14.500000 75.725180
14.500000 76.087636
14.500000 76.450939
14.500000 76.815087
14.500000 77.180081
14.500000 77.545921
14.500000 77.912607
14.500000 78.280139
14.500000 78.648516
14.500000 79.017740
14.500000 79.387809
14.500000 79.758724
14.500000 80.130485
14.500000 80.503092
14.500000 80.876545
14.500000 81.250844
14.500000 81.625988
14.500000 82.001979
14.500000 82.378815
14.500000 82.756497
14.500000 83.135025
14.500000 83.514399
14.500000 83.894619
14.500000 84.275685
14.500000 84.657596
14.500000 85.040354
14.500000 85.423957
14.500000 85.808406
14.500000 86.193701
14.500000 86.579842
14.500000 86.966829
14.500000 87.354662
14.500000 87.743340
14.500000 88.132865
14.500000 88.523235
14.500000 88.914451
14.500000 89.306513
14.500000 89.699421
14.500000 90.093175
14.500000 90.487775
14.500000 90.883220
14.500000 91.279511
14.500000 91.676649
14.500000 92.074632
14.500000 92.473461
14.500000 92.873136
14.500000 93.273657
14.500000 93.675023
14.500000 94.077236
14.500000 94.480294
14.500000 94.884198
14.500000 95.288948
14.500000 95.694544
14.500000 96.100986
14.500000 96.508274
14.500000 96.916408
14.500000 97.325387
14.500000 97.735213
14.500000 98.145884
14.500000 98.557401
14.500000 98.969764
14.500000 99.382973
14.500000 99.797027
14.500000 100.211928
14.500000 100.627675
14.500000 101.044267
14.500000 101.461705
14.500000 101.879989
14.500000 102.299119
14.500000 102.719095
14.500000 103.139917
14.500000 103.561584
14.500000 103.984098
14.500000 104.407457
14.500000 104.831662
14.500000 105.256713
14.500000 105.682610
14.500000 106.109353
14.500000 106.536942
14.500000 106.965376
14.500000 107.394657
14.500000 107.824783
14.500000 108.255755
14.500000 108.687573
14.500000 109.120237
14.500000 109.553747
14.500000 109.988103
14.500000 110.423304
14.500000 110.859352
14.500000 111.296245
14.500000 111.733984
14.500000 112.172569
14.500000 112.612000
14.500000 113.052277
14.500000 113.493400
14.500000 113.935368
14.500000 114.378182
14.500000 114.821843
14.500000 115.266349
14.500000 115.711701
14.500000 116.157899
14.500000 116.604943
14.500000 117.052832
14.500000 117.501568
14.500000 117.951149
14.500000 118.401576
14.500000 118.852849
14.500000 119.304968
14.500000 119.757933
14.500000 120.211744
14.500000 120.666401
14.500000 121.121903
14.500000 121.578252
14.500000 122.035446
14.500000 122.493486
14.500000 122.952372
14.500000 123.412104
14.500000 123.872682
14.500000 124.334105
14.500000 124.796375
14.500000 125.259490
14.500000 125.723451
14.500000 126.188258
14.500000 126.653911
14.500000 127.120410
14.500000 127.587755
14.500000 128.055945
14.500000 128.524982
14.500000 128.994864
14.500000 129.465592
14.500000 129.937166
14.500000 130.409586
14.500000 130.882852
14.500000 131.356964
14.500000 131.831921
14.500000 132.307725
14.500000 132.784374
14.500000 133.261869
14.500000 133.740210
14.500000 134.219397
14.500000 134.699430
14.500000 135.180309
14.500000 135.662033
14.500000 136.144604
14.500000 136.628020
14.500000 137.112282
14.500000 137.597390
14.500000 138.083344
14.500000 138.570144
14.500000 139.057790
14.500000 139.546281
14.500000 140.035619
14.500000 140.525802
14.500000 141.016831
14.500000 141.508706
14.500000 142.001427
14.500000 142.494994
14.500000 142.989406
14.500000 143.484665
14.500000 143.980769
14.500000 144.477720
14.500000 144.975516
14.500000 145.474158
14.500000 145.973646
14.500000 146.473979
14.500000 146.975159
14.500000 147.477184
14.500000 147.980056
14.500000 148.483773
14.500000 148.988336
14.500000 149.493745
14.500000 150.000000
</POINTS>
</NEKTAR>

