<?xml version="1.0" encoding="utf-8" ?>
<NEKTAR>
<POINTS DIM="2" FIELDS="">
26.500000 -1.750000
26.500000 -1.749577
26.500000 -1.748308
26.500000 -1.746194
26.500000 -1.743233
26.500000 -1.739427
26.500000 -1.734774
26.500000 -1.729276
26.500000 -1.722932
26.500000 -1.715742
26.500000 -1.707706
26.500000 -1.698825
26.500000 -1.689097
26.500000 -1.678524
26.500000 -1.667104
26.500000 -1.654839
26.500000 -1.641728
26.500000 -1.627771
26.500000 -1.612969
26.500000 -1.597320
26.500000 -1.580825
26.500000 -1.563485
26.500000 -1.545299
26.500000 -1.526267
26.500000 -1.506389
26.500000 -1.485665
26.500000 -1.464095
26.500000 -1.441679
26.500000 -1.418418
26.500000 -1.394310
26.500000 -1.369357
26.500000 -1.343558
26.500000 -1.316913
26.500000 -1.289422
26.500000 -1.261086
26.500000 -1.231903
26.500000 -1.201874
26.500000 -1.171000
26.500000 -1.139280
26.500000 -1.106714
26.500000 -1.073302
26.500000 -1.039044
26.500000 -1.003940
26.500000 -0.967991
26.500000 -0.931195
26.500000 -0.893554
26.500000 -0.855067
26.500000 -0.815734
26.500000 -0.775555
26.500000 -0.734530
26.500000 -0.692659
26.500000 -0.649942
26.500000 -0.606380
26.500000 -0.561972
26.500000 -0.516717
26.500000 -0.470617
26.500000 -0.423671
26.500000 -0.375880
26.500000 -0.327242
26.500000 -0.277758
26.500000 -0.227429
26.500000 -0.176254
26.500000 -0.124233
26.500000 -0.071365
26.500000 -0.017653
26.500000 0.036906
26.500000 0.092311
26.500000 0.148561
26.500000 0.205658
26.500000 0.263600
26.500000 0.322388
26.500000 0.382022
26.500000 0.442502
26.500000 0.503828
26.500000 0.566000
26.500000 0.629017
26.500000 0.692881
26.500000 0.757590
26.500000 0.823145
26.500000 0.889546
26.500000 0.956793
26.500000 1.024886
26.500000 1.093824
26.500000 1.163609
26.500000 1.234239
26.500000 1.305715
26.500000 1.378038
26.500000 1.451206
26.500000 1.525219
26.500000 1.600079
26.500000 1.675785
26.500000 1.752336
26.500000 1.829734
26.500000 1.907977
26.500000 1.987066
26.500000 2.067001
26.500000 2.147782
26.500000 2.229409
26.500000 2.311881
26.500000 2.395200
26.500000 2.479364
26.500000 2.564374
26.500000 2.650230
26.500000 2.736932
26.500000 2.824480
26.500000 2.912874
26.500000 3.002113
26.500000 3.092199
26.500000 3.183130
26.500000 3.274907
26.500000 3.367530
26.500000 3.460999
26.500000 3.555314
26.500000 3.650475
26.500000 3.746481
26.500000 3.843334
26.500000 3.941032
26.500000 4.039576
26.500000 4.138966
26.500000 4.239202
26.500000 4.340284
26.500000 4.442212
26.500000 4.544985
26.500000 4.648605
26.500000 4.753070
26.500000 4.858381
26.500000 4.964538
26.500000 5.071541
26.500000 5.179390
26.500000 5.288084
26.500000 5.397625
26.500000 5.508011
26.500000 5.619244
26.500000 5.731322
26.500000 5.844246
26.500000 5.958016
26.500000 6.072631
26.500000 6.188093
26.500000 6.304401
26.500000 6.421554
26.500000 6.539553
26.500000 6.658398
26.500000 6.778089
26.500000 6.898626
26.500000 7.020009
26.500000 7.142238
26.500000 7.265312
26.500000 7.389232
26.500000 7.513999
26.500000 7.639611
26.500000 7.766069
26.500000 7.893373
26.500000 8.021522
26.500000 8.150518
26.500000 8.280359
26.500000 8.411047
26.500000 8.542580
26.500000 8.674959
26.500000 8.808184
26.500000 8.942255
26.500000 9.077172
26.500000 9.212934
26.500000 9.349543
26.500000 9.486997
26.500000 9.625297
26.500000 9.764443
26.500000 9.904435
26.500000 10.045273
26.500000 10.186957
26.500000 10.329486
26.500000 10.472862
26.500000 10.617083
26.500000 10.762150
26.500000 10.908063
26.500000 11.054822
26.500000 11.202427
26.500000 11.350878
26.500000 11.500174
26.500000 11.650317
26.500000 11.801305
26.500000 11.953139
26.500000 12.105819
26.500000 12.259345
26.500000 12.413717
26.500000 12.568934
26.500000 12.724998
26.500000 12.881907
26.500000 13.039663
26.500000 13.198264
26.500000 13.357711
26.500000 13.518004
26.500000 13.679142
26.500000 13.841127
26.500000 14.003958
26.500000 14.167634
26.500000 14.332156
26.500000 14.497524
26.500000 14.663738
26.500000 14.830798
26.500000 14.998704
26.500000 15.167456
26.500000 15.337053
26.500000 15.507496
26.500000 15.678786
26.500000 15.850921
26.500000 16.023902
26.500000 16.197729
26.500000 16.372401
26.500000 16.547920
26.500000 16.724284
26.500000 16.901495
26.500000 17.079551
26.500000 17.258453
26.500000 17.438201
26.500000 17.618795
26.500000 17.800235
26.500000 17.982520
26.500000 18.165652
26.500000 18.349629
26.500000 18.534452
26.500000 18.720121
26.500000 18.906636
26.500000 19.093997
26.500000 19.282204
26.500000 19.471256
26.500000 19.661155
26.500000 19.851899
26.500000 20.043489
26.500000 20.235925
26.500000 20.429207
26.500000 20.623335
26.500000 20.818309
26.500000 21.014128
26.500000 21.210794
26.500000 21.408305
26.500000 21.606662
26.500000 21.805865
26.500000 22.005914
26.500000 22.206809
26.500000 22.408550
26.500000 22.611136
26.500000 22.814569
26.500000 23.018847
26.500000 23.223971
26.500000 23.429941
26.500000 23.636757
26.500000 23.844419
26.500000 24.052926
26.500000 24.262280
26.500000 24.472479
26.500000 24.683524
26.500000 24.895416
26.500000 25.108153
26.500000 25.321735
26.500000 25.536164
26.500000 25.751439
26.500000 25.967559
26.500000 26.184526
26.500000 26.402338
26.500000 26.620996
26.500000 26.840500
26.500000 27.060850
26.500000 27.282046
26.500000 27.504087
26.500000 27.726975
26.500000 27.950708
26.500000 28.175287
26.500000 28.400712
26.500000 28.626983
26.500000 28.854100
26.500000 29.082063
26.500000 29.310871
26.500000 29.540526
26.500000 29.771026
26.500000 30.002372
26.500000 30.234565
26.500000 30.467603
26.500000 30.701486
26.500000 30.936216
26.500000 31.171792
26.500000 31.408213
26.500000 31.645480
26.500000 31.883594
26.500000 32.122553
26.500000 32.362358
26.500000 32.603008
26.500000 32.844505
26.500000 33.086848
26.500000 33.330036
26.500000 33.574070
26.500000 33.818950
26.500000 34.064677
26.500000 34.311248
26.500000 34.558666
26.500000 34.806930
26.500000 35.056039
26.500000 35.305995
26.500000 35.556796
26.500000 35.808443
26.500000 36.060936
26.500000 36.314275
26.500000 36.568460
26.500000 36.823491
26.500000 37.079367
26.500000 37.336090
26.500000 37.593658
26.500000 37.852072
26.500000 38.111332
26.500000 38.371438
26.500000 38.632390
26.500000 38.894187
26.500000 39.156831
26.500000 39.420320
26.500000 39.684655
26.500000 39.949836
26.500000 40.215863
26.500000 40.482736
26.500000 40.750455
26.500000 41.019020
26.500000 41.288430
26.500000 41.558686
26.500000 41.829789
26.500000 42.101737
26.500000 42.374531
26.500000 42.648171
26.500000 42.922656
26.500000 43.197988
26.500000 43.474165
26.500000 43.751189
26.500000 44.029058
26.500000 44.307773
26.500000 44.587334
26.500000 44.867741
26.500000 45.148993
26.500000 45.431092
26.500000 45.714036
26.500000 45.997827
26.500000 46.282463
26.500000 46.567945
26.500000 46.854273
26.500000 47.141447
26.500000 47.429466
26.500000 47.718332
26.500000 48.008043
26.500000 48.298601
26.500000 48.590004
26.500000 48.882253
26.500000 49.175348
26.500000 49.469289
26.500000 49.764075
26.500000 50.059708
26.500000 50.356186
26.500000 50.653511
26.500000 50.951681
26.500000 51.250697
26.500000 51.550559
26.500000 51.851266
26.500000 52.152820
26.500000 52.455220
26.500000 52.758465
26.500000 53.062556
26.500000 53.367493
26.500000 53.673276
26.500000 53.979905
26.500000 54.287380
26.500000 54.595701
26.500000 54.904867
26.500000 55.214880
26.500000 55.525738
26.500000 55.837442
26.500000 56.149992
26.500000 56.463388
26.500000 56.777630
26.500000 57.092717
26.500000 57.408651
26.500000 57.725430
26.500000 58.043055
26.500000 58.361526
26.500000 58.680843
26.500000 59.001006
26.500000 59.322015
26.500000 59.643869
26.500000 59.966570
26.500000 60.290116
26.500000 60.614508
26.500000 60.939747
26.500000 61.265831
26.500000 61.592760
26.500000 61.920536
26.500000 62.249158
26.500000 62.578625
26.500000 62.908938
26.500000 63.240098
26.500000 63.572103
26.500000 63.904954
26.500000 64.238650
26.500000 64.573193
26.500000 64.908582
26.500000 65.244816
26.500000 65.581896
26.500000 65.919823
26.500000 66.258595
26.500000 66.598213
26.500000 66.938676
26.500000 67.279986
26.500000 67.622142
26.500000 67.965143
26.500000 68.308990
26.500000 68.653683
26.500000 68.999222
26.500000 69.345607
26.500000 69.692838
26.500000 70.040915
26.500000 70.389837
26.500000 70.739606
26.500000 71.090220
26.500000 71.441680
26.500000 71.793986
26.500000 72.147138
26.500000 72.501136
26.500000 72.855979
26.500000 73.211669
26.500000 73.568204
26.500000 73.925585
26.500000 74.283813
26.500000 74.642886
26.500000 75.002804
26.500000 75.363569
26.500000 75.725180
26.500000 76.087636
26.500000 76.450939
26.500000 76.815087
26.500000 77.180081
26.500000 77.545921
26.500000 77.912607
26.500000 78.280139
26.500000 78.648516
26.500000 79.017740
26.500000 79.387809
26.500000 79.758724
26.500000 80.130485
26.500000 80.503092
26.500000 80.876545
26.500000 81.250844
26.500000 81.625988
26.500000 82.001979
26.500000 82.378815
26.500000 82.756497
26.500000 83.135025
26.500000 83.514399
26.500000 83.894619
26.500000 84.275685
26.500000 84.657596
26.500000 85.040354
26.500000 85.423957
26.500000 85.808406
26.500000 86.193701
26.500000 86.579842
26.500000 86.966829
26.500000 87.354662
26.500000 87.743340
26.500000 88.132865
26.500000 88.523235
26.500000 88.914451
26.500000 89.306513
26.500000 89.699421
26.500000 90.093175
26.500000 90.487775
26.500000 90.883220
26.500000 91.279511
26.500000 91.676649
26.500000 92.074632
26.500000 92.473461
26.500000 92.873136
26.500000 93.273657
26.500000 93.675023
26.500000 94.077236
26.500000 94.480294
26.500000 94.884198
26.500000 95.288948
26.500000 95.694544
26.500000 96.100986
26.500000 96.508274
26.500000 96.916408
26.500000 97.325387
26.500000 97.735213
26.500000 98.145884
26.500000 98.557401
26.500000 98.969764
26.500000 99.382973
26.500000 99.797027
26.500000 100.211928
26.500000 100.627675
26.500000 101.044267
26.500000 101.461705
26.500000 101.879989
26.500000 102.299119
26.500000 102.719095
26.500000 103.139917
26.500000 103.561584
26.500000 103.984098
26.500000 104.407457
26.500000 104.831662
26.500000 105.256713
26.500000 105.682610
26.500000 106.109353
26.500000 106.536942
26.500000 106.965376
26.500000 107.394657
26.500000 107.824783
26.500000 108.255755
26.500000 108.687573
26.500000 109.120237
26.500000 109.553747
26.500000 109.988103
26.500000 110.423304
26.500000 110.859352
26.500000 111.296245
26.500000 111.733984
26.500000 112.172569
26.500000 112.612000
26.500000 113.052277
26.500000 113.493400
26.500000 113.935368
26.500000 114.378182
26.500000 114.821843
26.500000 115.266349
26.500000 115.711701
26.500000 116.157899
26.500000 116.604943
26.500000 117.052832
26.500000 117.501568
26.500000 117.951149
26.500000 118.401576
26.500000 118.852849
26.500000 119.304968
26.500000 119.757933
26.500000 120.211744
26.500000 120.666401
26.500000 121.121903
26.500000 121.578252
26.500000 122.035446
26.500000 122.493486
26.500000 122.952372
26.500000 123.412104
26.500000 123.872682
26.500000 124.334105
26.500000 124.796375
26.500000 125.259490
26.500000 125.723451
26.500000 126.188258
26.500000 126.653911
26.500000 127.120410
26.500000 127.587755
26.500000 128.055945
26.500000 128.524982
26.500000 128.994864
26.500000 129.465592
26.500000 129.937166
26.500000 130.409586
26.500000 130.882852
26.500000 131.356964
26.500000 131.831921
26.500000 132.307725
26.500000 132.784374
26.500000 133.261869
26.500000 133.740210
26.500000 134.219397
26.500000 134.699430
26.500000 135.180309
26.500000 135.662033
26.500000 136.144604
26.500000 136.628020
26.500000 137.112282
26.500000 137.597390
26.500000 138.083344
26.500000 138.570144
26.500000 139.057790
26.500000 139.546281
26.500000 140.035619
26.500000 140.525802
26.500000 141.016831
26.500000 141.508706
26.500000 142.001427
26.500000 142.494994
26.500000 142.989406
26.500000 143.484665
26.500000 143.980769
26.500000 144.477720
26.500000 144.975516
26.500000 145.474158
26.500000 145.973646
26.500000 146.473979
26.500000 146.975159
26.500000 147.477184
26.500000 147.980056
26.500000 148.483773
26.500000 148.988336
26.500000 149.493745
26.500000 150.000000
</POINTS>
</NEKTAR>

