<?xml version="1.0" encoding="utf-8" ?>
<NEKTAR>
<POINTS DIM="2" FIELDS="">
983.500000 0.000000
983.500000 0.000418
983.500000 0.001672
983.500000 0.003763
983.500000 0.006689
983.500000 0.010451
983.500000 0.015050
983.500000 0.020485
983.500000 0.026756
983.500000 0.033863
983.500000 0.041806
983.500000 0.050585
983.500000 0.060201
983.500000 0.070652
983.500000 0.081940
983.500000 0.094063
983.500000 0.107023
983.500000 0.120819
983.500000 0.135451
983.500000 0.150919
983.500000 0.167224
983.500000 0.184364
983.500000 0.202341
983.500000 0.221153
983.500000 0.240802
983.500000 0.261287
983.500000 0.282608
983.500000 0.304765
983.500000 0.327758
983.500000 0.351588
983.500000 0.376253
983.500000 0.401755
983.500000 0.428092
983.500000 0.455266
983.500000 0.483276
983.500000 0.512122
983.500000 0.541805
983.500000 0.572323
983.500000 0.603677
983.500000 0.635868
983.500000 0.668894
983.500000 0.702757
983.500000 0.737456
983.500000 0.772991
983.500000 0.809362
983.500000 0.846570
983.500000 0.884613
983.500000 0.923492
983.500000 0.963208
983.500000 1.003760
983.500000 1.045148
983.500000 1.087372
983.500000 1.130432
983.500000 1.174328
983.500000 1.219060
983.500000 1.264629
983.500000 1.311033
983.500000 1.358274
983.500000 1.406351
983.500000 1.455264
983.500000 1.505013
983.500000 1.555598
983.500000 1.607019
983.500000 1.659276
983.500000 1.712370
983.500000 1.766299
983.500000 1.821065
983.500000 1.876667
983.500000 1.933105
983.500000 1.990379
983.500000 2.048489
983.500000 2.107436
983.500000 2.167218
983.500000 2.227837
983.500000 2.289291
983.500000 2.351582
983.500000 2.414709
983.500000 2.478672
983.500000 2.543471
983.500000 2.609106
983.500000 2.675578
983.500000 2.742885
983.500000 2.811029
983.500000 2.880009
983.500000 2.949825
983.500000 3.020477
983.500000 3.091965
983.500000 3.164289
983.500000 3.237449
983.500000 3.311446
983.500000 3.386278
983.500000 3.461947
983.500000 3.538452
983.500000 3.615793
983.500000 3.693970
983.500000 3.772983
983.500000 3.852832
983.500000 3.933517
983.500000 4.015039
983.500000 4.097397
983.500000 4.180590
983.500000 4.264620
983.500000 4.349486
983.500000 4.435188
983.500000 4.521727
983.500000 4.609101
983.500000 4.697311
983.500000 4.786358
983.500000 4.876241
983.500000 4.966959
983.500000 5.058514
983.500000 5.150905
983.500000 5.244133
983.500000 5.338196
983.500000 5.433095
983.500000 5.528831
983.500000 5.625402
983.500000 5.722810
983.500000 5.821054
983.500000 5.920134
983.500000 6.020050
983.500000 6.120802
983.500000 6.222391
983.500000 6.324815
983.500000 6.428076
983.500000 6.532172
983.500000 6.637105
983.500000 6.742874
983.500000 6.849479
983.500000 6.956920
983.500000 7.065198
983.500000 7.174311
983.500000 7.284261
983.500000 7.395046
983.500000 7.506668
983.500000 7.619126
983.500000 7.732420
983.500000 7.846550
983.500000 7.961516
983.500000 8.077319
983.500000 8.193957
983.500000 8.311432
983.500000 8.429742
983.500000 8.548889
983.500000 8.668872
983.500000 8.789691
983.500000 8.911346
983.500000 9.033838
983.500000 9.157165
983.500000 9.281329
983.500000 9.406328
983.500000 9.532164
983.500000 9.658836
983.500000 9.786344
983.500000 9.914688
983.500000 10.043868
983.500000 10.173885
983.500000 10.304737
983.500000 10.436426
983.500000 10.568950
983.500000 10.702311
983.500000 10.836508
983.500000 10.971541
983.500000 11.107411
983.500000 11.244116
983.500000 11.381657
983.500000 11.520035
983.500000 11.659248
983.500000 11.799298
983.500000 11.940184
983.500000 12.081906
983.500000 12.224464
983.500000 12.367859
983.500000 12.512089
983.500000 12.657155
983.500000 12.803058
983.500000 12.949797
983.500000 13.097372
983.500000 13.245782
983.500000 13.395030
983.500000 13.545113
983.500000 13.696032
983.500000 13.847787
983.500000 14.000379
983.500000 14.153807
983.500000 14.308070
983.500000 14.463170
983.500000 14.619106
983.500000 14.775879
983.500000 14.933487
983.500000 15.091931
983.500000 15.251212
983.500000 15.411328
983.500000 15.572281
983.500000 15.734070
983.500000 15.896695
983.500000 16.060156
983.500000 16.224453
983.500000 16.389586
983.500000 16.555556
983.500000 16.722361
983.500000 16.890003
983.500000 17.058481
983.500000 17.227795
983.500000 17.397945
983.500000 17.568931
983.500000 17.740753
983.500000 17.913412
983.500000 18.086906
983.500000 18.261237
983.500000 18.436403
983.500000 18.612406
983.500000 18.789245
983.500000 18.966920
983.500000 19.145432
983.500000 19.324779
983.500000 19.504962
983.500000 19.685982
983.500000 19.867838
983.500000 20.050529
983.500000 20.234057
983.500000 20.418421
983.500000 20.603622
983.500000 20.789658
983.500000 20.976530
983.500000 21.164239
983.500000 21.352783
983.500000 21.542164
983.500000 21.732381
983.500000 21.923434
983.500000 22.115323
983.500000 22.308048
983.500000 22.501610
983.500000 22.696007
983.500000 22.891241
983.500000 23.087310
983.500000 23.284216
983.500000 23.481958
983.500000 23.680536
983.500000 23.879950
983.500000 24.080200
983.500000 24.281287
983.500000 24.483209
983.500000 24.685968
983.500000 24.889563
983.500000 25.093994
983.500000 25.299261
983.500000 25.505364
983.500000 25.712303
983.500000 25.920078
983.500000 26.128690
983.500000 26.338137
983.500000 26.548421
983.500000 26.759541
983.500000 26.971497
983.500000 27.184289
983.500000 27.397917
983.500000 27.612381
983.500000 27.827682
983.500000 28.043818
983.500000 28.260791
983.500000 28.478600
983.500000 28.697244
983.500000 28.916725
983.500000 29.137043
983.500000 29.358196
983.500000 29.580185
983.500000 29.803011
983.500000 30.026672
983.500000 30.251170
983.500000 30.476504
983.500000 30.702674
983.500000 30.929680
983.500000 31.157522
983.500000 31.386200
983.500000 31.615715
983.500000 31.846065
983.500000 32.077252
983.500000 32.309275
983.500000 32.542133
983.500000 32.775828
983.500000 33.010360
983.500000 33.245727
983.500000 33.481930
983.500000 33.718970
983.500000 33.956845
983.500000 34.195557
983.500000 34.435105
983.500000 34.675489
983.500000 34.916709
983.500000 35.158765
983.500000 35.401657
983.500000 35.645386
983.500000 35.889950
983.500000 36.135351
983.500000 36.381588
983.500000 36.628660
983.500000 36.876569
983.500000 37.125315
983.500000 37.374896
983.500000 37.625313
983.500000 37.876567
983.500000 38.128656
983.500000 38.381582
983.500000 38.635344
983.500000 38.889942
983.500000 39.145376
983.500000 39.401646
983.500000 39.658752
983.500000 39.916695
983.500000 40.175473
983.500000 40.435088
983.500000 40.695539
983.500000 40.956826
983.500000 41.218949
983.500000 41.481908
983.500000 41.745703
983.500000 42.010334
983.500000 42.275802
983.500000 42.542106
983.500000 42.809245
983.500000 43.077221
983.500000 43.346033
983.500000 43.615681
983.500000 43.886165
983.500000 44.157486
983.500000 44.429642
983.500000 44.702635
983.500000 44.976463
983.500000 45.251128
983.500000 45.526629
983.500000 45.802966
983.500000 46.080139
983.500000 46.358148
983.500000 46.636994
983.500000 46.916675
983.500000 47.197193
983.500000 47.478547
983.500000 47.760736
983.500000 48.043762
983.500000 48.327625
983.500000 48.612323
983.500000 48.897857
983.500000 49.184227
983.500000 49.471434
983.500000 49.759477
983.500000 50.048355
983.500000 50.338070
983.500000 50.628621
983.500000 50.920009
983.500000 51.212232
983.500000 51.505291
983.500000 51.799187
983.500000 52.093918
983.500000 52.389486
983.500000 52.685890
983.500000 52.983130
983.500000 53.281206
983.500000 53.580118
983.500000 53.879867
983.500000 54.180451
983.500000 54.481872
983.500000 54.784128
983.500000 55.087221
983.500000 55.391150
983.500000 55.695915
983.500000 56.001516
983.500000 56.307953
983.500000 56.615227
983.500000 56.923336
983.500000 57.232282
983.500000 57.542064
983.500000 57.852682
983.500000 58.164136
983.500000 58.476426
983.500000 58.789552
983.500000 59.103514
983.500000 59.418313
983.500000 59.733947
983.500000 60.050418
983.500000 60.367725
983.500000 60.685868
983.500000 61.004847
983.500000 61.324662
983.500000 61.645313
983.500000 61.966801
983.500000 62.289124
983.500000 62.612284
983.500000 62.936279
983.500000 63.261111
983.500000 63.586779
983.500000 63.913283
983.500000 64.240624
983.500000 64.568800
983.500000 64.897812
983.500000 65.227661
983.500000 65.558346
983.500000 65.889867
983.500000 66.222223
983.500000 66.555417
983.500000 66.889446
983.500000 67.224311
983.500000 67.560012
983.500000 67.896550
983.500000 68.233924
983.500000 68.572133
983.500000 68.911179
983.500000 69.251061
983.500000 69.591779
983.500000 69.933334
983.500000 70.275724
983.500000 70.618950
983.500000 70.963013
983.500000 71.307912
983.500000 71.653646
983.500000 72.000217
983.500000 72.347624
983.500000 72.695868
983.500000 73.044947
983.500000 73.394862
983.500000 73.745614
983.500000 74.097202
983.500000 74.449625
983.500000 74.802885
983.500000 75.156981
983.500000 75.511913
983.500000 75.867682
983.500000 76.224286
983.500000 76.581726
983.500000 76.940003
983.500000 77.299116
983.500000 77.659064
983.500000 78.019849
983.500000 78.381471
983.500000 78.743928
983.500000 79.107221
983.500000 79.471350
983.500000 79.836316
983.500000 80.202118
983.500000 80.568755
983.500000 80.936229
983.500000 81.304539
983.500000 81.673685
983.500000 82.043668
983.500000 82.414486
983.500000 82.786141
983.500000 83.158631
983.500000 83.531958
983.500000 83.906121
983.500000 84.281120
983.500000 84.656955
983.500000 85.033626
983.500000 85.411133
983.500000 85.789477
983.500000 86.168656
983.500000 86.548672
983.500000 86.929524
983.500000 87.311212
983.500000 87.693736
983.500000 88.077096
983.500000 88.461292
983.500000 88.846324
983.500000 89.232193
983.500000 89.618897
983.500000 90.006438
983.500000 90.394815
983.500000 90.784028
983.500000 91.174077
983.500000 91.564962
983.500000 91.956684
983.500000 92.349241
983.500000 92.742634
983.500000 93.136864
983.500000 93.531930
983.500000 93.927832
983.500000 94.324570
983.500000 94.722144
983.500000 95.120554
983.500000 95.519801
983.500000 95.919883
983.500000 96.320802
983.500000 96.722557
983.500000 97.125147
983.500000 97.528574
983.500000 97.932837
983.500000 98.337937
983.500000 98.743872
983.500000 99.150643
983.500000 99.558251
983.500000 99.966695
983.500000 100.375974
983.500000 100.786090
983.500000 101.197042
983.500000 101.608831
983.500000 102.021455
983.500000 102.434915
983.500000 102.849212
983.500000 103.264344
983.500000 103.680313
983.500000 104.097118
983.500000 104.514759
983.500000 104.933236
983.500000 105.352549
983.500000 105.772699
983.500000 106.193684
983.500000 106.615506
983.500000 107.038163
983.500000 107.461657
983.500000 107.885987
983.500000 108.311153
983.500000 108.737155
983.500000 109.163993
983.500000 109.591668
983.500000 110.020178
983.500000 110.449525
983.500000 110.879708
983.500000 111.310727
983.500000 111.742582
983.500000 112.175273
983.500000 112.608800
983.500000 113.043163
983.500000 113.478363
983.500000 113.914398
983.500000 114.351270
983.500000 114.788978
983.500000 115.227522
983.500000 115.666902
983.500000 116.107118
983.500000 116.548170
983.500000 116.990059
983.500000 117.432783
983.500000 117.876344
983.500000 118.320740
983.500000 118.765973
983.500000 119.212042
983.500000 119.658947
983.500000 120.106689
983.500000 120.555266
983.500000 121.004679
983.500000 121.454929
983.500000 121.906015
983.500000 122.357937
983.500000 122.810695
983.500000 123.264289
983.500000 123.718719
983.500000 124.173985
983.500000 124.630087
983.500000 125.087026
983.500000 125.544801
983.500000 126.003411
983.500000 126.462858
983.500000 126.923141
983.500000 127.384260
983.500000 127.846216
983.500000 128.309007
983.500000 128.772634
983.500000 129.237098
983.500000 129.702398
983.500000 130.168534
983.500000 130.635505
983.500000 131.103314
983.500000 131.571958
983.500000 132.041438
983.500000 132.511754
983.500000 132.982907
983.500000 133.454896
983.500000 133.927720
983.500000 134.401381
983.500000 134.875878
983.500000 135.351211
983.500000 135.827381
983.500000 136.304386
983.500000 136.782227
983.500000 137.260905
983.500000 137.740419
983.500000 138.220769
983.500000 138.701955
983.500000 139.183977
983.500000 139.666835
983.500000 140.150529
983.500000 140.635060
983.500000 141.120426
983.500000 141.606629
983.500000 142.093668
983.500000 142.581542
983.500000 143.070253
983.500000 143.559801
983.500000 144.050184
983.500000 144.541403
983.500000 145.033459
983.500000 145.526350
983.500000 146.020078
983.500000 146.514642
983.500000 147.010042
983.500000 147.506278
983.500000 148.003350
983.500000 148.501258
983.500000 149.000003
983.500000 149.499583
983.500000 150.000000
</POINTS>
</NEKTAR>

