<?xml version="1.0" encoding="utf-8" ?>
<NEKTAR>
<POINTS DIM="2" FIELDS="">
64.500000 0.000000
64.500000 0.000418
64.500000 0.001672
64.500000 0.003763
64.500000 0.006689
64.500000 0.010451
64.500000 0.015050
64.500000 0.020485
64.500000 0.026756
64.500000 0.033863
64.500000 0.041806
64.500000 0.050585
64.500000 0.060201
64.500000 0.070652
64.500000 0.081940
64.500000 0.094063
64.500000 0.107023
64.500000 0.120819
64.500000 0.135451
64.500000 0.150919
64.500000 0.167224
64.500000 0.184364
64.500000 0.202341
64.500000 0.221153
64.500000 0.240802
64.500000 0.261287
64.500000 0.282608
64.500000 0.304765
64.500000 0.327758
64.500000 0.351588
64.500000 0.376253
64.500000 0.401755
64.500000 0.428092
64.500000 0.455266
64.500000 0.483276
64.500000 0.512122
64.500000 0.541805
64.500000 0.572323
64.500000 0.603677
64.500000 0.635868
64.500000 0.668894
64.500000 0.702757
64.500000 0.737456
64.500000 0.772991
64.500000 0.809362
64.500000 0.846570
64.500000 0.884613
64.500000 0.923492
64.500000 0.963208
64.500000 1.003760
64.500000 1.045148
64.500000 1.087372
64.500000 1.130432
64.500000 1.174328
64.500000 1.219060
64.500000 1.264629
64.500000 1.311033
64.500000 1.358274
64.500000 1.406351
64.500000 1.455264
64.500000 1.505013
64.500000 1.555598
64.500000 1.607019
64.500000 1.659276
64.500000 1.712370
64.500000 1.766299
64.500000 1.821065
64.500000 1.876667
64.500000 1.933105
64.500000 1.990379
64.500000 2.048489
64.500000 2.107436
64.500000 2.167218
64.500000 2.227837
64.500000 2.289291
64.500000 2.351582
64.500000 2.414709
64.500000 2.478672
64.500000 2.543471
64.500000 2.609106
64.500000 2.675578
64.500000 2.742885
64.500000 2.811029
64.500000 2.880009
64.500000 2.949825
64.500000 3.020477
64.500000 3.091965
64.500000 3.164289
64.500000 3.237449
64.500000 3.311446
64.500000 3.386278
64.500000 3.461947
64.500000 3.538452
64.500000 3.615793
64.500000 3.693970
64.500000 3.772983
64.500000 3.852832
64.500000 3.933517
64.500000 4.015039
64.500000 4.097397
64.500000 4.180590
64.500000 4.264620
64.500000 4.349486
64.500000 4.435188
64.500000 4.521727
64.500000 4.609101
64.500000 4.697311
64.500000 4.786358
64.500000 4.876241
64.500000 4.966959
64.500000 5.058514
64.500000 5.150905
64.500000 5.244133
64.500000 5.338196
64.500000 5.433095
64.500000 5.528831
64.500000 5.625402
64.500000 5.722810
64.500000 5.821054
64.500000 5.920134
64.500000 6.020050
64.500000 6.120802
64.500000 6.222391
64.500000 6.324815
64.500000 6.428076
64.500000 6.532172
64.500000 6.637105
64.500000 6.742874
64.500000 6.849479
64.500000 6.956920
64.500000 7.065198
64.500000 7.174311
64.500000 7.284261
64.500000 7.395046
64.500000 7.506668
64.500000 7.619126
64.500000 7.732420
64.500000 7.846550
64.500000 7.961516
64.500000 8.077319
64.500000 8.193957
64.500000 8.311432
64.500000 8.429742
64.500000 8.548889
64.500000 8.668872
64.500000 8.789691
64.500000 8.911346
64.500000 9.033838
64.500000 9.157165
64.500000 9.281329
64.500000 9.406328
64.500000 9.532164
64.500000 9.658836
64.500000 9.786344
64.500000 9.914688
64.500000 10.043868
64.500000 10.173885
64.500000 10.304737
64.500000 10.436426
64.500000 10.568950
64.500000 10.702311
64.500000 10.836508
64.500000 10.971541
64.500000 11.107411
64.500000 11.244116
64.500000 11.381657
64.500000 11.520035
64.500000 11.659248
64.500000 11.799298
64.500000 11.940184
64.500000 12.081906
64.500000 12.224464
64.500000 12.367859
64.500000 12.512089
64.500000 12.657155
64.500000 12.803058
64.500000 12.949797
64.500000 13.097372
64.500000 13.245782
64.500000 13.395030
64.500000 13.545113
64.500000 13.696032
64.500000 13.847787
64.500000 14.000379
64.500000 14.153807
64.500000 14.308070
64.500000 14.463170
64.500000 14.619106
64.500000 14.775879
64.500000 14.933487
64.500000 15.091931
64.500000 15.251212
64.500000 15.411328
64.500000 15.572281
64.500000 15.734070
64.500000 15.896695
64.500000 16.060156
64.500000 16.224453
64.500000 16.389586
64.500000 16.555556
64.500000 16.722361
64.500000 16.890003
64.500000 17.058481
64.500000 17.227795
64.500000 17.397945
64.500000 17.568931
64.500000 17.740753
64.500000 17.913412
64.500000 18.086906
64.500000 18.261237
64.500000 18.436403
64.500000 18.612406
64.500000 18.789245
64.500000 18.966920
64.500000 19.145432
64.500000 19.324779
64.500000 19.504962
64.500000 19.685982
64.500000 19.867838
64.500000 20.050529
64.500000 20.234057
64.500000 20.418421
64.500000 20.603622
64.500000 20.789658
64.500000 20.976530
64.500000 21.164239
64.500000 21.352783
64.500000 21.542164
64.500000 21.732381
64.500000 21.923434
64.500000 22.115323
64.500000 22.308048
64.500000 22.501610
64.500000 22.696007
64.500000 22.891241
64.500000 23.087310
64.500000 23.284216
64.500000 23.481958
64.500000 23.680536
64.500000 23.879950
64.500000 24.080200
64.500000 24.281287
64.500000 24.483209
64.500000 24.685968
64.500000 24.889563
64.500000 25.093994
64.500000 25.299261
64.500000 25.505364
64.500000 25.712303
64.500000 25.920078
64.500000 26.128690
64.500000 26.338137
64.500000 26.548421
64.500000 26.759541
64.500000 26.971497
64.500000 27.184289
64.500000 27.397917
64.500000 27.612381
64.500000 27.827682
64.500000 28.043818
64.500000 28.260791
64.500000 28.478600
64.500000 28.697244
64.500000 28.916725
64.500000 29.137043
64.500000 29.358196
64.500000 29.580185
64.500000 29.803011
64.500000 30.026672
64.500000 30.251170
64.500000 30.476504
64.500000 30.702674
64.500000 30.929680
64.500000 31.157522
64.500000 31.386200
64.500000 31.615715
64.500000 31.846065
64.500000 32.077252
64.500000 32.309275
64.500000 32.542133
64.500000 32.775828
64.500000 33.010360
64.500000 33.245727
64.500000 33.481930
64.500000 33.718970
64.500000 33.956845
64.500000 34.195557
64.500000 34.435105
64.500000 34.675489
64.500000 34.916709
64.500000 35.158765
64.500000 35.401657
64.500000 35.645386
64.500000 35.889950
64.500000 36.135351
64.500000 36.381588
64.500000 36.628660
64.500000 36.876569
64.500000 37.125315
64.500000 37.374896
64.500000 37.625313
64.500000 37.876567
64.500000 38.128656
64.500000 38.381582
64.500000 38.635344
64.500000 38.889942
64.500000 39.145376
64.500000 39.401646
64.500000 39.658752
64.500000 39.916695
64.500000 40.175473
64.500000 40.435088
64.500000 40.695539
64.500000 40.956826
64.500000 41.218949
64.500000 41.481908
64.500000 41.745703
64.500000 42.010334
64.500000 42.275802
64.500000 42.542106
64.500000 42.809245
64.500000 43.077221
64.500000 43.346033
64.500000 43.615681
64.500000 43.886165
64.500000 44.157486
64.500000 44.429642
64.500000 44.702635
64.500000 44.976463
64.500000 45.251128
64.500000 45.526629
64.500000 45.802966
64.500000 46.080139
64.500000 46.358148
64.500000 46.636994
64.500000 46.916675
64.500000 47.197193
64.500000 47.478547
64.500000 47.760736
64.500000 48.043762
64.500000 48.327625
64.500000 48.612323
64.500000 48.897857
64.500000 49.184227
64.500000 49.471434
64.500000 49.759477
64.500000 50.048355
64.500000 50.338070
64.500000 50.628621
64.500000 50.920009
64.500000 51.212232
64.500000 51.505291
64.500000 51.799187
64.500000 52.093918
64.500000 52.389486
64.500000 52.685890
64.500000 52.983130
64.500000 53.281206
64.500000 53.580118
64.500000 53.879867
64.500000 54.180451
64.500000 54.481872
64.500000 54.784128
64.500000 55.087221
64.500000 55.391150
64.500000 55.695915
64.500000 56.001516
64.500000 56.307953
64.500000 56.615227
64.500000 56.923336
64.500000 57.232282
64.500000 57.542064
64.500000 57.852682
64.500000 58.164136
64.500000 58.476426
64.500000 58.789552
64.500000 59.103514
64.500000 59.418313
64.500000 59.733947
64.500000 60.050418
64.500000 60.367725
64.500000 60.685868
64.500000 61.004847
64.500000 61.324662
64.500000 61.645313
64.500000 61.966801
64.500000 62.289124
64.500000 62.612284
64.500000 62.936279
64.500000 63.261111
64.500000 63.586779
64.500000 63.913283
64.500000 64.240624
64.500000 64.568800
64.500000 64.897812
64.500000 65.227661
64.500000 65.558346
64.500000 65.889867
64.500000 66.222223
64.500000 66.555417
64.500000 66.889446
64.500000 67.224311
64.500000 67.560012
64.500000 67.896550
64.500000 68.233924
64.500000 68.572133
64.500000 68.911179
64.500000 69.251061
64.500000 69.591779
64.500000 69.933334
64.500000 70.275724
64.500000 70.618950
64.500000 70.963013
64.500000 71.307912
64.500000 71.653646
64.500000 72.000217
64.500000 72.347624
64.500000 72.695868
64.500000 73.044947
64.500000 73.394862
64.500000 73.745614
64.500000 74.097202
64.500000 74.449625
64.500000 74.802885
64.500000 75.156981
64.500000 75.511913
64.500000 75.867682
64.500000 76.224286
64.500000 76.581726
64.500000 76.940003
64.500000 77.299116
64.500000 77.659064
64.500000 78.019849
64.500000 78.381471
64.500000 78.743928
64.500000 79.107221
64.500000 79.471350
64.500000 79.836316
64.500000 80.202118
64.500000 80.568755
64.500000 80.936229
64.500000 81.304539
64.500000 81.673685
64.500000 82.043668
64.500000 82.414486
64.500000 82.786141
64.500000 83.158631
64.500000 83.531958
64.500000 83.906121
64.500000 84.281120
64.500000 84.656955
64.500000 85.033626
64.500000 85.411133
64.500000 85.789477
64.500000 86.168656
64.500000 86.548672
64.500000 86.929524
64.500000 87.311212
64.500000 87.693736
64.500000 88.077096
64.500000 88.461292
64.500000 88.846324
64.500000 89.232193
64.500000 89.618897
64.500000 90.006438
64.500000 90.394815
64.500000 90.784028
64.500000 91.174077
64.500000 91.564962
64.500000 91.956684
64.500000 92.349241
64.500000 92.742634
64.500000 93.136864
64.500000 93.531930
64.500000 93.927832
64.500000 94.324570
64.500000 94.722144
64.500000 95.120554
64.500000 95.519801
64.500000 95.919883
64.500000 96.320802
64.500000 96.722557
64.500000 97.125147
64.500000 97.528574
64.500000 97.932837
64.500000 98.337937
64.500000 98.743872
64.500000 99.150643
64.500000 99.558251
64.500000 99.966695
64.500000 100.375974
64.500000 100.786090
64.500000 101.197042
64.500000 101.608831
64.500000 102.021455
64.500000 102.434915
64.500000 102.849212
64.500000 103.264344
64.500000 103.680313
64.500000 104.097118
64.500000 104.514759
64.500000 104.933236
64.500000 105.352549
64.500000 105.772699
64.500000 106.193684
64.500000 106.615506
64.500000 107.038163
64.500000 107.461657
64.500000 107.885987
64.500000 108.311153
64.500000 108.737155
64.500000 109.163993
64.500000 109.591668
64.500000 110.020178
64.500000 110.449525
64.500000 110.879708
64.500000 111.310727
64.500000 111.742582
64.500000 112.175273
64.500000 112.608800
64.500000 113.043163
64.500000 113.478363
64.500000 113.914398
64.500000 114.351270
64.500000 114.788978
64.500000 115.227522
64.500000 115.666902
64.500000 116.107118
64.500000 116.548170
64.500000 116.990059
64.500000 117.432783
64.500000 117.876344
64.500000 118.320740
64.500000 118.765973
64.500000 119.212042
64.500000 119.658947
64.500000 120.106689
64.500000 120.555266
64.500000 121.004679
64.500000 121.454929
64.500000 121.906015
64.500000 122.357937
64.500000 122.810695
64.500000 123.264289
64.500000 123.718719
64.500000 124.173985
64.500000 124.630087
64.500000 125.087026
64.500000 125.544801
64.500000 126.003411
64.500000 126.462858
64.500000 126.923141
64.500000 127.384260
64.500000 127.846216
64.500000 128.309007
64.500000 128.772634
64.500000 129.237098
64.500000 129.702398
64.500000 130.168534
64.500000 130.635505
64.500000 131.103314
64.500000 131.571958
64.500000 132.041438
64.500000 132.511754
64.500000 132.982907
64.500000 133.454896
64.500000 133.927720
64.500000 134.401381
64.500000 134.875878
64.500000 135.351211
64.500000 135.827381
64.500000 136.304386
64.500000 136.782227
64.500000 137.260905
64.500000 137.740419
64.500000 138.220769
64.500000 138.701955
64.500000 139.183977
64.500000 139.666835
64.500000 140.150529
64.500000 140.635060
64.500000 141.120426
64.500000 141.606629
64.500000 142.093668
64.500000 142.581542
64.500000 143.070253
64.500000 143.559801
64.500000 144.050184
64.500000 144.541403
64.500000 145.033459
64.500000 145.526350
64.500000 146.020078
64.500000 146.514642
64.500000 147.010042
64.500000 147.506278
64.500000 148.003350
64.500000 148.501258
64.500000 149.000003
64.500000 149.499583
64.500000 150.000000
</POINTS>
</NEKTAR>

