<?xml version="1.0" encoding="utf-8" ?>
<NEKTAR>
<POINTS DIM="2" FIELDS="">
20.500000 -0.250000
20.500000 -0.249581
20.500000 -0.248325
20.500000 -0.246231
20.500000 -0.243300
20.500000 -0.239531
20.500000 -0.234925
20.500000 -0.229481
20.500000 -0.223200
20.500000 -0.216081
20.500000 -0.208124
20.500000 -0.199331
20.500000 -0.189699
20.500000 -0.179230
20.500000 -0.167924
20.500000 -0.155780
20.500000 -0.142799
20.500000 -0.128980
20.500000 -0.114323
20.500000 -0.098829
20.500000 -0.082498
20.500000 -0.065329
20.500000 -0.047322
20.500000 -0.028478
20.500000 -0.008797
20.500000 0.011722
20.500000 0.033079
20.500000 0.055273
20.500000 0.078305
20.500000 0.102174
20.500000 0.126880
20.500000 0.152424
20.500000 0.178806
20.500000 0.206025
20.500000 0.234082
20.500000 0.262976
20.500000 0.292708
20.500000 0.323277
20.500000 0.354683
20.500000 0.386928
20.500000 0.420009
20.500000 0.453929
20.500000 0.488685
20.500000 0.524279
20.500000 0.560711
20.500000 0.597980
20.500000 0.636087
20.500000 0.675032
20.500000 0.714813
20.500000 0.755433
20.500000 0.796890
20.500000 0.839184
20.500000 0.882316
20.500000 0.926285
20.500000 0.971092
20.500000 1.016736
20.500000 1.063218
20.500000 1.110538
20.500000 1.158695
20.500000 1.207689
20.500000 1.257521
20.500000 1.308190
20.500000 1.359697
20.500000 1.412042
20.500000 1.465224
20.500000 1.519243
20.500000 1.574100
20.500000 1.629795
20.500000 1.686327
20.500000 1.743696
20.500000 1.801903
20.500000 1.860948
20.500000 1.920830
20.500000 1.981550
20.500000 2.043107
20.500000 2.105501
20.500000 2.168734
20.500000 2.232803
20.500000 2.297710
20.500000 2.363455
20.500000 2.430037
20.500000 2.497457
20.500000 2.565714
20.500000 2.634809
20.500000 2.704741
20.500000 2.775511
20.500000 2.847118
20.500000 2.919563
20.500000 2.992845
20.500000 3.066965
20.500000 3.141922
20.500000 3.217717
20.500000 3.294349
20.500000 3.371819
20.500000 3.450126
20.500000 3.529271
20.500000 3.609253
20.500000 3.690073
20.500000 3.771731
20.500000 3.854226
20.500000 3.937558
20.500000 4.021728
20.500000 4.106735
20.500000 4.192580
20.500000 4.279263
20.500000 4.366783
20.500000 4.455140
20.500000 4.544335
20.500000 4.634368
20.500000 4.725238
20.500000 4.816945
20.500000 4.909490
20.500000 5.002873
20.500000 5.097093
20.500000 5.192150
20.500000 5.288045
20.500000 5.384778
20.500000 5.482348
20.500000 5.580756
20.500000 5.680001
20.500000 5.780084
20.500000 5.881004
20.500000 5.982761
20.500000 6.085357
20.500000 6.188789
20.500000 6.293059
20.500000 6.398167
20.500000 6.504112
20.500000 6.610895
20.500000 6.718515
20.500000 6.826973
20.500000 6.936268
20.500000 7.046401
20.500000 7.157371
20.500000 7.269179
20.500000 7.381824
20.500000 7.495307
20.500000 7.609628
20.500000 7.724785
20.500000 7.840781
20.500000 7.957614
20.500000 8.075284
20.500000 8.193792
20.500000 8.313137
20.500000 8.433320
20.500000 8.554341
20.500000 8.676199
20.500000 8.798894
20.500000 8.922427
20.500000 9.046798
20.500000 9.172006
20.500000 9.298051
20.500000 9.424934
20.500000 9.552655
20.500000 9.681213
20.500000 9.810608
20.500000 9.940841
20.500000 10.071912
20.500000 10.203820
20.500000 10.336565
20.500000 10.470148
20.500000 10.604569
20.500000 10.739827
20.500000 10.875923
20.500000 11.012856
20.500000 11.150627
20.500000 11.289235
20.500000 11.428681
20.500000 11.568964
20.500000 11.710084
20.500000 11.852043
20.500000 11.994838
20.500000 12.138472
20.500000 12.282942
20.500000 12.428251
20.500000 12.574396
20.500000 12.721380
20.500000 12.869200
20.500000 13.017859
20.500000 13.167355
20.500000 13.317688
20.500000 13.468859
20.500000 13.620867
20.500000 13.773713
20.500000 13.927396
20.500000 14.081917
20.500000 14.237276
20.500000 14.393472
20.500000 14.550505
20.500000 14.708376
20.500000 14.867084
20.500000 15.026630
20.500000 15.187014
20.500000 15.348235
20.500000 15.510293
20.500000 15.673189
20.500000 15.836923
20.500000 16.001494
20.500000 16.166902
20.500000 16.333148
20.500000 16.500232
20.500000 16.668153
20.500000 16.836912
20.500000 17.006508
20.500000 17.176941
20.500000 17.348213
20.500000 17.520321
20.500000 17.693267
20.500000 17.867051
20.500000 18.041672
20.500000 18.217131
20.500000 18.393427
20.500000 18.570561
20.500000 18.748532
20.500000 18.927341
20.500000 19.106987
20.500000 19.287471
20.500000 19.468792
20.500000 19.650951
20.500000 19.833947
20.500000 20.017781
20.500000 20.202452
20.500000 20.387961
20.500000 20.574307
20.500000 20.761491
20.500000 20.949512
20.500000 21.138371
20.500000 21.328068
20.500000 21.518602
20.500000 21.709973
20.500000 21.902182
20.500000 22.095228
20.500000 22.289112
20.500000 22.483834
20.500000 22.679393
20.500000 22.875789
20.500000 23.073023
20.500000 23.271095
20.500000 23.470004
20.500000 23.669750
20.500000 23.870334
20.500000 24.071756
20.500000 24.274015
20.500000 24.477111
20.500000 24.681045
20.500000 24.885817
20.500000 25.091426
20.500000 25.297873
20.500000 25.505157
20.500000 25.713278
20.500000 25.922238
20.500000 26.132034
20.500000 26.342668
20.500000 26.554140
20.500000 26.766449
20.500000 26.979596
20.500000 27.193580
20.500000 27.408402
20.500000 27.624061
20.500000 27.840558
20.500000 28.057892
20.500000 28.276064
20.500000 28.495073
20.500000 28.714920
20.500000 28.935604
20.500000 29.157126
20.500000 29.379485
20.500000 29.602682
20.500000 29.826717
20.500000 30.051588
20.500000 30.277298
20.500000 30.503845
20.500000 30.731229
20.500000 30.959451
20.500000 31.188510
20.500000 31.418407
20.500000 31.649142
20.500000 31.880714
20.500000 32.113123
20.500000 32.346370
20.500000 32.580455
20.500000 32.815377
20.500000 33.051136
20.500000 33.287733
20.500000 33.525168
20.500000 33.763440
20.500000 34.002549
20.500000 34.242497
20.500000 34.483281
20.500000 34.724903
20.500000 34.967363
20.500000 35.210660
20.500000 35.454795
20.500000 35.699767
20.500000 35.945576
20.500000 36.192224
20.500000 36.439708
20.500000 36.688030
20.500000 36.937190
20.500000 37.187187
20.500000 37.438022
20.500000 37.689694
20.500000 37.942204
20.500000 38.195551
20.500000 38.449736
20.500000 38.704758
20.500000 38.960618
20.500000 39.217315
20.500000 39.474850
20.500000 39.733223
20.500000 39.992432
20.500000 40.252480
20.500000 40.513365
20.500000 40.775087
20.500000 41.037647
20.500000 41.301044
20.500000 41.565279
20.500000 41.830352
20.500000 42.096262
20.500000 42.363009
20.500000 42.630594
20.500000 42.899016
20.500000 43.168276
20.500000 43.438374
20.500000 43.709309
20.500000 43.981081
20.500000 44.253691
20.500000 44.527139
20.500000 44.801424
20.500000 45.076547
20.500000 45.352507
20.500000 45.629304
20.500000 45.906939
20.500000 46.185412
20.500000 46.464722
20.500000 46.744870
20.500000 47.025855
20.500000 47.307678
20.500000 47.590338
20.500000 47.873835
20.500000 48.158171
20.500000 48.443343
20.500000 48.729353
20.500000 49.016201
20.500000 49.303886
20.500000 49.592409
20.500000 49.881769
20.500000 50.171967
20.500000 50.463002
20.500000 50.754875
20.500000 51.047586
20.500000 51.341133
20.500000 51.635519
20.500000 51.930742
20.500000 52.226802
20.500000 52.523700
20.500000 52.821435
20.500000 53.120008
20.500000 53.419418
20.500000 53.719666
20.500000 54.020752
20.500000 54.322675
20.500000 54.625435
20.500000 54.929033
20.500000 55.233469
20.500000 55.538742
20.500000 55.844852
20.500000 56.151800
20.500000 56.459586
20.500000 56.768209
20.500000 57.077669
20.500000 57.387967
20.500000 57.699103
20.500000 58.011076
20.500000 58.323886
20.500000 58.637534
20.500000 58.952020
20.500000 59.267343
20.500000 59.583504
20.500000 59.900502
20.500000 60.218338
20.500000 60.537011
20.500000 60.856521
20.500000 61.176870
20.500000 61.498055
20.500000 61.820079
20.500000 62.142939
20.500000 62.466637
20.500000 62.791173
20.500000 63.116546
20.500000 63.442757
20.500000 63.769806
20.500000 64.097691
20.500000 64.426415
20.500000 64.755975
20.500000 65.086374
20.500000 65.417610
20.500000 65.749683
20.500000 66.082594
20.500000 66.416342
20.500000 66.750928
20.500000 67.086351
20.500000 67.422612
20.500000 67.759711
20.500000 68.097647
20.500000 68.436420
20.500000 68.776031
20.500000 69.116480
20.500000 69.457766
20.500000 69.799889
20.500000 70.142850
20.500000 70.486649
20.500000 70.831285
20.500000 71.176758
20.500000 71.523069
20.500000 71.870218
20.500000 72.218204
20.500000 72.567027
20.500000 72.916688
20.500000 73.267187
20.500000 73.618523
20.500000 73.970697
20.500000 74.323708
20.500000 74.677557
20.500000 75.032243
20.500000 75.387766
20.500000 75.744128
20.500000 76.101326
20.500000 76.459363
20.500000 76.818236
20.500000 77.177948
20.500000 77.538496
20.500000 77.899883
20.500000 78.262106
20.500000 78.625168
20.500000 78.989066
20.500000 79.353803
20.500000 79.719376
20.500000 80.085788
20.500000 80.453037
20.500000 80.821123
20.500000 81.190047
20.500000 81.559808
20.500000 81.930407
20.500000 82.301844
20.500000 82.674117
20.500000 83.047229
20.500000 83.421178
20.500000 83.795964
20.500000 84.171588
20.500000 84.548050
20.500000 84.925349
20.500000 85.303485
20.500000 85.682459
20.500000 86.062271
20.500000 86.442920
20.500000 86.824406
20.500000 87.206730
20.500000 87.589892
20.500000 87.973891
20.500000 88.358727
20.500000 88.744401
20.500000 89.130913
20.500000 89.518262
20.500000 89.906449
20.500000 90.295473
20.500000 90.685335
20.500000 91.076034
20.500000 91.467570
20.500000 91.859945
20.500000 92.253156
20.500000 92.647206
20.500000 93.042092
20.500000 93.437817
20.500000 93.834378
20.500000 94.231778
20.500000 94.630014
20.500000 95.029089
20.500000 95.429000
20.500000 95.829750
20.500000 96.231336
20.500000 96.633761
20.500000 97.037023
20.500000 97.441122
20.500000 97.846059
20.500000 98.251833
20.500000 98.658445
20.500000 99.065894
20.500000 99.474181
20.500000 99.883306
20.500000 100.293268
20.500000 100.704067
20.500000 101.115704
20.500000 101.528179
20.500000 101.941491
20.500000 102.355640
20.500000 102.770627
20.500000 103.186452
20.500000 103.603114
20.500000 104.020613
20.500000 104.438950
20.500000 104.858125
20.500000 105.278137
20.500000 105.698986
20.500000 106.120673
20.500000 106.543198
20.500000 106.966560
20.500000 107.390760
20.500000 107.815797
20.500000 108.241672
20.500000 108.668384
20.500000 109.095933
20.500000 109.524321
20.500000 109.953545
20.500000 110.383607
20.500000 110.814507
20.500000 111.246244
20.500000 111.678819
20.500000 112.112231
20.500000 112.546481
20.500000 112.981568
20.500000 113.417493
20.500000 113.854256
20.500000 114.291855
20.500000 114.730293
20.500000 115.169568
20.500000 115.609680
20.500000 116.050630
20.500000 116.492417
20.500000 116.935042
20.500000 117.378504
20.500000 117.822804
20.500000 118.267942
20.500000 118.713917
20.500000 119.160729
20.500000 119.608379
20.500000 120.056866
20.500000 120.506191
20.500000 120.956354
20.500000 121.407354
20.500000 121.859191
20.500000 122.311866
20.500000 122.765379
20.500000 123.219729
20.500000 123.674917
20.500000 124.130942
20.500000 124.587804
20.500000 125.045504
20.500000 125.504042
20.500000 125.963417
20.500000 126.423630
20.500000 126.884680
20.500000 127.346567
20.500000 127.809293
20.500000 128.272855
20.500000 128.737255
20.500000 129.202493
20.500000 129.668568
20.500000 130.135481
20.500000 130.603231
20.500000 131.071819
20.500000 131.541244
20.500000 132.011507
20.500000 132.482607
20.500000 132.954545
20.500000 133.427320
20.500000 133.900933
20.500000 134.375384
20.500000 134.850671
20.500000 135.326797
20.500000 135.803760
20.500000 136.281560
20.500000 136.760198
20.500000 137.239673
20.500000 137.719986
20.500000 138.201137
20.500000 138.683124
20.500000 139.165950
20.500000 139.649613
20.500000 140.134113
20.500000 140.619451
20.500000 141.105627
20.500000 141.592640
20.500000 142.080490
20.500000 142.569178
20.500000 143.058704
20.500000 143.549067
20.500000 144.040267
20.500000 144.532306
20.500000 145.025181
20.500000 145.518894
20.500000 146.013445
20.500000 146.508833
20.500000 147.005059
20.500000 147.502122
20.500000 148.000022
20.500000 148.498760
20.500000 148.998336
20.500000 149.498749
20.500000 150.000000
</POINTS>
</NEKTAR>

