<?xml version="1.0" encoding="utf-8" ?>
<NEKTAR>
<POINTS DIM="2" FIELDS="">
26.500000 -0.250000
26.500000 -0.249581
26.500000 -0.248325
26.500000 -0.246231
26.500000 -0.243300
26.500000 -0.239531
26.500000 -0.234925
26.500000 -0.229481
26.500000 -0.223200
26.500000 -0.216081
26.500000 -0.208124
26.500000 -0.199331
26.500000 -0.189699
26.500000 -0.179230
26.500000 -0.167924
26.500000 -0.155780
26.500000 -0.142799
26.500000 -0.128980
26.500000 -0.114323
26.500000 -0.098829
26.500000 -0.082498
26.500000 -0.065329
26.500000 -0.047322
26.500000 -0.028478
26.500000 -0.008797
26.500000 0.011722
26.500000 0.033079
26.500000 0.055273
26.500000 0.078305
26.500000 0.102174
26.500000 0.126880
26.500000 0.152424
26.500000 0.178806
26.500000 0.206025
26.500000 0.234082
26.500000 0.262976
26.500000 0.292708
26.500000 0.323277
26.500000 0.354683
26.500000 0.386928
26.500000 0.420009
26.500000 0.453929
26.500000 0.488685
26.500000 0.524279
26.500000 0.560711
26.500000 0.597980
26.500000 0.636087
26.500000 0.675032
26.500000 0.714813
26.500000 0.755433
26.500000 0.796890
26.500000 0.839184
26.500000 0.882316
26.500000 0.926285
26.500000 0.971092
26.500000 1.016736
26.500000 1.063218
26.500000 1.110538
26.500000 1.158695
26.500000 1.207689
26.500000 1.257521
26.500000 1.308190
26.500000 1.359697
26.500000 1.412042
26.500000 1.465224
26.500000 1.519243
26.500000 1.574100
26.500000 1.629795
26.500000 1.686327
26.500000 1.743696
26.500000 1.801903
26.500000 1.860948
26.500000 1.920830
26.500000 1.981550
26.500000 2.043107
26.500000 2.105501
26.500000 2.168734
26.500000 2.232803
26.500000 2.297710
26.500000 2.363455
26.500000 2.430037
26.500000 2.497457
26.500000 2.565714
26.500000 2.634809
26.500000 2.704741
26.500000 2.775511
26.500000 2.847118
26.500000 2.919563
26.500000 2.992845
26.500000 3.066965
26.500000 3.141922
26.500000 3.217717
26.500000 3.294349
26.500000 3.371819
26.500000 3.450126
26.500000 3.529271
26.500000 3.609253
26.500000 3.690073
26.500000 3.771731
26.500000 3.854226
26.500000 3.937558
26.500000 4.021728
26.500000 4.106735
26.500000 4.192580
26.500000 4.279263
26.500000 4.366783
26.500000 4.455140
26.500000 4.544335
26.500000 4.634368
26.500000 4.725238
26.500000 4.816945
26.500000 4.909490
26.500000 5.002873
26.500000 5.097093
26.500000 5.192150
26.500000 5.288045
26.500000 5.384778
26.500000 5.482348
26.500000 5.580756
26.500000 5.680001
26.500000 5.780084
26.500000 5.881004
26.500000 5.982761
26.500000 6.085357
26.500000 6.188789
26.500000 6.293059
26.500000 6.398167
26.500000 6.504112
26.500000 6.610895
26.500000 6.718515
26.500000 6.826973
26.500000 6.936268
26.500000 7.046401
26.500000 7.157371
26.500000 7.269179
26.500000 7.381824
26.500000 7.495307
26.500000 7.609628
26.500000 7.724785
26.500000 7.840781
26.500000 7.957614
26.500000 8.075284
26.500000 8.193792
26.500000 8.313137
26.500000 8.433320
26.500000 8.554341
26.500000 8.676199
26.500000 8.798894
26.500000 8.922427
26.500000 9.046798
26.500000 9.172006
26.500000 9.298051
26.500000 9.424934
26.500000 9.552655
26.500000 9.681213
26.500000 9.810608
26.500000 9.940841
26.500000 10.071912
26.500000 10.203820
26.500000 10.336565
26.500000 10.470148
26.500000 10.604569
26.500000 10.739827
26.500000 10.875923
26.500000 11.012856
26.500000 11.150627
26.500000 11.289235
26.500000 11.428681
26.500000 11.568964
26.500000 11.710084
26.500000 11.852043
26.500000 11.994838
26.500000 12.138472
26.500000 12.282942
26.500000 12.428251
26.500000 12.574396
26.500000 12.721380
26.500000 12.869200
26.500000 13.017859
26.500000 13.167355
26.500000 13.317688
26.500000 13.468859
26.500000 13.620867
26.500000 13.773713
26.500000 13.927396
26.500000 14.081917
26.500000 14.237276
26.500000 14.393472
26.500000 14.550505
26.500000 14.708376
26.500000 14.867084
26.500000 15.026630
26.500000 15.187014
26.500000 15.348235
26.500000 15.510293
26.500000 15.673189
26.500000 15.836923
26.500000 16.001494
26.500000 16.166902
26.500000 16.333148
26.500000 16.500232
26.500000 16.668153
26.500000 16.836912
26.500000 17.006508
26.500000 17.176941
26.500000 17.348213
26.500000 17.520321
26.500000 17.693267
26.500000 17.867051
26.500000 18.041672
26.500000 18.217131
26.500000 18.393427
26.500000 18.570561
26.500000 18.748532
26.500000 18.927341
26.500000 19.106987
26.500000 19.287471
26.500000 19.468792
26.500000 19.650951
26.500000 19.833947
26.500000 20.017781
26.500000 20.202452
26.500000 20.387961
26.500000 20.574307
26.500000 20.761491
26.500000 20.949512
26.500000 21.138371
26.500000 21.328068
26.500000 21.518602
26.500000 21.709973
26.500000 21.902182
26.500000 22.095228
26.500000 22.289112
26.500000 22.483834
26.500000 22.679393
26.500000 22.875789
26.500000 23.073023
26.500000 23.271095
26.500000 23.470004
26.500000 23.669750
26.500000 23.870334
26.500000 24.071756
26.500000 24.274015
26.500000 24.477111
26.500000 24.681045
26.500000 24.885817
26.500000 25.091426
26.500000 25.297873
26.500000 25.505157
26.500000 25.713278
26.500000 25.922238
26.500000 26.132034
26.500000 26.342668
26.500000 26.554140
26.500000 26.766449
26.500000 26.979596
26.500000 27.193580
26.500000 27.408402
26.500000 27.624061
26.500000 27.840558
26.500000 28.057892
26.500000 28.276064
26.500000 28.495073
26.500000 28.714920
26.500000 28.935604
26.500000 29.157126
26.500000 29.379485
26.500000 29.602682
26.500000 29.826717
26.500000 30.051588
26.500000 30.277298
26.500000 30.503845
26.500000 30.731229
26.500000 30.959451
26.500000 31.188510
26.500000 31.418407
26.500000 31.649142
26.500000 31.880714
26.500000 32.113123
26.500000 32.346370
26.500000 32.580455
26.500000 32.815377
26.500000 33.051136
26.500000 33.287733
26.500000 33.525168
26.500000 33.763440
26.500000 34.002549
26.500000 34.242497
26.500000 34.483281
26.500000 34.724903
26.500000 34.967363
26.500000 35.210660
26.500000 35.454795
26.500000 35.699767
26.500000 35.945576
26.500000 36.192224
26.500000 36.439708
26.500000 36.688030
26.500000 36.937190
26.500000 37.187187
26.500000 37.438022
26.500000 37.689694
26.500000 37.942204
26.500000 38.195551
26.500000 38.449736
26.500000 38.704758
26.500000 38.960618
26.500000 39.217315
26.500000 39.474850
26.500000 39.733223
26.500000 39.992432
26.500000 40.252480
26.500000 40.513365
26.500000 40.775087
26.500000 41.037647
26.500000 41.301044
26.500000 41.565279
26.500000 41.830352
26.500000 42.096262
26.500000 42.363009
26.500000 42.630594
26.500000 42.899016
26.500000 43.168276
26.500000 43.438374
26.500000 43.709309
26.500000 43.981081
26.500000 44.253691
26.500000 44.527139
26.500000 44.801424
26.500000 45.076547
26.500000 45.352507
26.500000 45.629304
26.500000 45.906939
26.500000 46.185412
26.500000 46.464722
26.500000 46.744870
26.500000 47.025855
26.500000 47.307678
26.500000 47.590338
26.500000 47.873835
26.500000 48.158171
26.500000 48.443343
26.500000 48.729353
26.500000 49.016201
26.500000 49.303886
26.500000 49.592409
26.500000 49.881769
26.500000 50.171967
26.500000 50.463002
26.500000 50.754875
26.500000 51.047586
26.500000 51.341133
26.500000 51.635519
26.500000 51.930742
26.500000 52.226802
26.500000 52.523700
26.500000 52.821435
26.500000 53.120008
26.500000 53.419418
26.500000 53.719666
26.500000 54.020752
26.500000 54.322675
26.500000 54.625435
26.500000 54.929033
26.500000 55.233469
26.500000 55.538742
26.500000 55.844852
26.500000 56.151800
26.500000 56.459586
26.500000 56.768209
26.500000 57.077669
26.500000 57.387967
26.500000 57.699103
26.500000 58.011076
26.500000 58.323886
26.500000 58.637534
26.500000 58.952020
26.500000 59.267343
26.500000 59.583504
26.500000 59.900502
26.500000 60.218338
26.500000 60.537011
26.500000 60.856521
26.500000 61.176870
26.500000 61.498055
26.500000 61.820079
26.500000 62.142939
26.500000 62.466637
26.500000 62.791173
26.500000 63.116546
26.500000 63.442757
26.500000 63.769806
26.500000 64.097691
26.500000 64.426415
26.500000 64.755975
26.500000 65.086374
26.500000 65.417610
26.500000 65.749683
26.500000 66.082594
26.500000 66.416342
26.500000 66.750928
26.500000 67.086351
26.500000 67.422612
26.500000 67.759711
26.500000 68.097647
26.500000 68.436420
26.500000 68.776031
26.500000 69.116480
26.500000 69.457766
26.500000 69.799889
26.500000 70.142850
26.500000 70.486649
26.500000 70.831285
26.500000 71.176758
26.500000 71.523069
26.500000 71.870218
26.500000 72.218204
26.500000 72.567027
26.500000 72.916688
26.500000 73.267187
26.500000 73.618523
26.500000 73.970697
26.500000 74.323708
26.500000 74.677557
26.500000 75.032243
26.500000 75.387766
26.500000 75.744128
26.500000 76.101326
26.500000 76.459363
26.500000 76.818236
26.500000 77.177948
26.500000 77.538496
26.500000 77.899883
26.500000 78.262106
26.500000 78.625168
26.500000 78.989066
26.500000 79.353803
26.500000 79.719376
26.500000 80.085788
26.500000 80.453037
26.500000 80.821123
26.500000 81.190047
26.500000 81.559808
26.500000 81.930407
26.500000 82.301844
26.500000 82.674117
26.500000 83.047229
26.500000 83.421178
26.500000 83.795964
26.500000 84.171588
26.500000 84.548050
26.500000 84.925349
26.500000 85.303485
26.500000 85.682459
26.500000 86.062271
26.500000 86.442920
26.500000 86.824406
26.500000 87.206730
26.500000 87.589892
26.500000 87.973891
26.500000 88.358727
26.500000 88.744401
26.500000 89.130913
26.500000 89.518262
26.500000 89.906449
26.500000 90.295473
26.500000 90.685335
26.500000 91.076034
26.500000 91.467570
26.500000 91.859945
26.500000 92.253156
26.500000 92.647206
26.500000 93.042092
26.500000 93.437817
26.500000 93.834378
26.500000 94.231778
26.500000 94.630014
26.500000 95.029089
26.500000 95.429000
26.500000 95.829750
26.500000 96.231336
26.500000 96.633761
26.500000 97.037023
26.500000 97.441122
26.500000 97.846059
26.500000 98.251833
26.500000 98.658445
26.500000 99.065894
26.500000 99.474181
26.500000 99.883306
26.500000 100.293268
26.500000 100.704067
26.500000 101.115704
26.500000 101.528179
26.500000 101.941491
26.500000 102.355640
26.500000 102.770627
26.500000 103.186452
26.500000 103.603114
26.500000 104.020613
26.500000 104.438950
26.500000 104.858125
26.500000 105.278137
26.500000 105.698986
26.500000 106.120673
26.500000 106.543198
26.500000 106.966560
26.500000 107.390760
26.500000 107.815797
26.500000 108.241672
26.500000 108.668384
26.500000 109.095933
26.500000 109.524321
26.500000 109.953545
26.500000 110.383607
26.500000 110.814507
26.500000 111.246244
26.500000 111.678819
26.500000 112.112231
26.500000 112.546481
26.500000 112.981568
26.500000 113.417493
26.500000 113.854256
26.500000 114.291855
26.500000 114.730293
26.500000 115.169568
26.500000 115.609680
26.500000 116.050630
26.500000 116.492417
26.500000 116.935042
26.500000 117.378504
26.500000 117.822804
26.500000 118.267942
26.500000 118.713917
26.500000 119.160729
26.500000 119.608379
26.500000 120.056866
26.500000 120.506191
26.500000 120.956354
26.500000 121.407354
26.500000 121.859191
26.500000 122.311866
26.500000 122.765379
26.500000 123.219729
26.500000 123.674917
26.500000 124.130942
26.500000 124.587804
26.500000 125.045504
26.500000 125.504042
26.500000 125.963417
26.500000 126.423630
26.500000 126.884680
26.500000 127.346567
26.500000 127.809293
26.500000 128.272855
26.500000 128.737255
26.500000 129.202493
26.500000 129.668568
26.500000 130.135481
26.500000 130.603231
26.500000 131.071819
26.500000 131.541244
26.500000 132.011507
26.500000 132.482607
26.500000 132.954545
26.500000 133.427320
26.500000 133.900933
26.500000 134.375384
26.500000 134.850671
26.500000 135.326797
26.500000 135.803760
26.500000 136.281560
26.500000 136.760198
26.500000 137.239673
26.500000 137.719986
26.500000 138.201137
26.500000 138.683124
26.500000 139.165950
26.500000 139.649613
26.500000 140.134113
26.500000 140.619451
26.500000 141.105627
26.500000 141.592640
26.500000 142.080490
26.500000 142.569178
26.500000 143.058704
26.500000 143.549067
26.500000 144.040267
26.500000 144.532306
26.500000 145.025181
26.500000 145.518894
26.500000 146.013445
26.500000 146.508833
26.500000 147.005059
26.500000 147.502122
26.500000 148.000022
26.500000 148.498760
26.500000 148.998336
26.500000 149.498749
26.500000 150.000000
</POINTS>
</NEKTAR>

