<?xml version="1.0" encoding="utf-8" ?>
<NEKTAR>
<POINTS DIM="2" FIELDS="">
603.500000 -0.750000
603.500000 -0.749580
603.500000 -0.748319
603.500000 -0.746219
603.500000 -0.743278
603.500000 -0.739496
603.500000 -0.734875
603.500000 -0.729413
603.500000 -0.723110
603.500000 -0.715968
603.500000 -0.707985
603.500000 -0.699162
603.500000 -0.689498
603.500000 -0.678995
603.500000 -0.667651
603.500000 -0.655466
603.500000 -0.642442
603.500000 -0.628577
603.500000 -0.613872
603.500000 -0.598326
603.500000 -0.581940
603.500000 -0.564714
603.500000 -0.546648
603.500000 -0.527741
603.500000 -0.507994
603.500000 -0.487407
603.500000 -0.465979
603.500000 -0.443711
603.500000 -0.420603
603.500000 -0.396654
603.500000 -0.371866
603.500000 -0.346236
603.500000 -0.319767
603.500000 -0.292457
603.500000 -0.264307
603.500000 -0.235317
603.500000 -0.205486
603.500000 -0.174816
603.500000 -0.143304
603.500000 -0.110953
603.500000 -0.077761
603.500000 -0.043729
603.500000 -0.008857
603.500000 0.026856
603.500000 0.063409
603.500000 0.100802
603.500000 0.139036
603.500000 0.178110
603.500000 0.218024
603.500000 0.258779
603.500000 0.300373
603.500000 0.342808
603.500000 0.386084
603.500000 0.430199
603.500000 0.475155
603.500000 0.520952
603.500000 0.567588
603.500000 0.615065
603.500000 0.663382
603.500000 0.712540
603.500000 0.762538
603.500000 0.813376
603.500000 0.865054
603.500000 0.917573
603.500000 0.970932
603.500000 1.025131
603.500000 1.080170
603.500000 1.136050
603.500000 1.192771
603.500000 1.250331
603.500000 1.308732
603.500000 1.367973
603.500000 1.428054
603.500000 1.488976
603.500000 1.550738
603.500000 1.613340
603.500000 1.676783
603.500000 1.741065
603.500000 1.806189
603.500000 1.872152
603.500000 1.938956
603.500000 2.006600
603.500000 2.075084
603.500000 2.144409
603.500000 2.214574
603.500000 2.285579
603.500000 2.357424
603.500000 2.430110
603.500000 2.503636
603.500000 2.578003
603.500000 2.653210
603.500000 2.729257
603.500000 2.806144
603.500000 2.883872
603.500000 2.962439
603.500000 3.041848
603.500000 3.122096
603.500000 3.203185
603.500000 3.285114
603.500000 3.367884
603.500000 3.451493
603.500000 3.535943
603.500000 3.621234
603.500000 3.707364
603.500000 3.794335
603.500000 3.882146
603.500000 3.970798
603.500000 4.060290
603.500000 4.150622
603.500000 4.241794
603.500000 4.333807
603.500000 4.426660
603.500000 4.520353
603.500000 4.614887
603.500000 4.710261
603.500000 4.806475
603.500000 4.903529
603.500000 5.001424
603.500000 5.100159
603.500000 5.199735
603.500000 5.300150
603.500000 5.401406
603.500000 5.503503
603.500000 5.606439
603.500000 5.710216
603.500000 5.814833
603.500000 5.920291
603.500000 6.026589
603.500000 6.133727
603.500000 6.241705
603.500000 6.350524
603.500000 6.460183
603.500000 6.570682
603.500000 6.682022
603.500000 6.794201
603.500000 6.907222
603.500000 7.021082
603.500000 7.135783
603.500000 7.251324
603.500000 7.367705
603.500000 7.484927
603.500000 7.602989
603.500000 7.721891
603.500000 7.841634
603.500000 7.962217
603.500000 8.083640
603.500000 8.205903
603.500000 8.329007
603.500000 8.452951
603.500000 8.577735
603.500000 8.703360
603.500000 8.829825
603.500000 8.957130
603.500000 9.085276
603.500000 9.214262
603.500000 9.344088
603.500000 9.474754
603.500000 9.606261
603.500000 9.738608
603.500000 9.871795
603.500000 10.005823
603.500000 10.140691
603.500000 10.276399
603.500000 10.412948
603.500000 10.550336
603.500000 10.688566
603.500000 10.827635
603.500000 10.967545
603.500000 11.108295
603.500000 11.249885
603.500000 11.392316
603.500000 11.535587
603.500000 11.679698
603.500000 11.824649
603.500000 11.970441
603.500000 12.117073
603.500000 12.264546
603.500000 12.412858
603.500000 12.562011
603.500000 12.712005
603.500000 12.862838
603.500000 13.014512
603.500000 13.167026
603.500000 13.320381
603.500000 13.474576
603.500000 13.629611
603.500000 13.785486
603.500000 13.942202
603.500000 14.099758
603.500000 14.258154
603.500000 14.417391
603.500000 14.577468
603.500000 14.738385
603.500000 14.900142
603.500000 15.062740
603.500000 15.226178
603.500000 15.390457
603.500000 15.555575
603.500000 15.721534
603.500000 15.888334
603.500000 16.055973
603.500000 16.224453
603.500000 16.393773
603.500000 16.563934
603.500000 16.734935
603.500000 16.906776
603.500000 17.079457
603.500000 17.252979
603.500000 17.427341
603.500000 17.602543
603.500000 17.778585
603.500000 17.955468
603.500000 18.133192
603.500000 18.311755
603.500000 18.491159
603.500000 18.671403
603.500000 18.852487
603.500000 19.034412
603.500000 19.217177
603.500000 19.400782
603.500000 19.585228
603.500000 19.770513
603.500000 19.956640
603.500000 20.143606
603.500000 20.331413
603.500000 20.520060
603.500000 20.709547
603.500000 20.899875
603.500000 21.091043
603.500000 21.283051
603.500000 21.475900
603.500000 21.669588
603.500000 21.864118
603.500000 22.059487
603.500000 22.255697
603.500000 22.452747
603.500000 22.650637
603.500000 22.849368
603.500000 23.048939
603.500000 23.249350
603.500000 23.450601
603.500000 23.652693
603.500000 23.855625
603.500000 24.059398
603.500000 24.264011
603.500000 24.469464
603.500000 24.675757
603.500000 24.882891
603.500000 25.090864
603.500000 25.299679
603.500000 25.509333
603.500000 25.719828
603.500000 25.931163
603.500000 26.143339
603.500000 26.356354
603.500000 26.570210
603.500000 26.784907
603.500000 27.000443
603.500000 27.216820
603.500000 27.434037
603.500000 27.652095
603.500000 27.870993
603.500000 28.090731
603.500000 28.311309
603.500000 28.532728
603.500000 28.754987
603.500000 28.978086
603.500000 29.202026
603.500000 29.426806
603.500000 29.652426
603.500000 29.878886
603.500000 30.106187
603.500000 30.334328
603.500000 30.563309
603.500000 30.793131
603.500000 31.023793
603.500000 31.255295
603.500000 31.487638
603.500000 31.720821
603.500000 31.954844
603.500000 32.189708
603.500000 32.425411
603.500000 32.661955
603.500000 32.899340
603.500000 33.137564
603.500000 33.376629
603.500000 33.616535
603.500000 33.857280
603.500000 34.098866
603.500000 34.341292
603.500000 34.584559
603.500000 34.828665
603.500000 35.073613
603.500000 35.319400
603.500000 35.566028
603.500000 35.813496
603.500000 36.061804
603.500000 36.310952
603.500000 36.560941
603.500000 36.811770
603.500000 37.063440
603.500000 37.315950
603.500000 37.569300
603.500000 37.823490
603.500000 38.078521
603.500000 38.334391
603.500000 38.591103
603.500000 38.848654
603.500000 39.107046
603.500000 39.366278
603.500000 39.626351
603.500000 39.887263
603.500000 40.149016
603.500000 40.411610
603.500000 40.675043
603.500000 40.939317
603.500000 41.204432
603.500000 41.470386
603.500000 41.737181
603.500000 42.004816
603.500000 42.273291
603.500000 42.542607
603.500000 42.812763
603.500000 43.083760
603.500000 43.355596
603.500000 43.628273
603.500000 43.901790
603.500000 44.176148
603.500000 44.451346
603.500000 44.727384
603.500000 45.004262
603.500000 45.281981
603.500000 45.560540
603.500000 45.839939
603.500000 46.120179
603.500000 46.401259
603.500000 46.683179
603.500000 46.965939
603.500000 47.249540
603.500000 47.533981
603.500000 47.819263
603.500000 48.105384
603.500000 48.392346
603.500000 48.680149
603.500000 48.968791
603.500000 49.258274
603.500000 49.548597
603.500000 49.839761
603.500000 50.131765
603.500000 50.424609
603.500000 50.718293
603.500000 51.012818
603.500000 51.308183
603.500000 51.604388
603.500000 51.901434
603.500000 52.199319
603.500000 52.498046
603.500000 52.797612
603.500000 53.098019
603.500000 53.399266
603.500000 53.701353
603.500000 54.004281
603.500000 54.308049
603.500000 54.612657
603.500000 54.918106
603.500000 55.224395
603.500000 55.531524
603.500000 55.839493
603.500000 56.148303
603.500000 56.457953
603.500000 56.768443
603.500000 57.079774
603.500000 57.391945
603.500000 57.704956
603.500000 58.018808
603.500000 58.333500
603.500000 58.649032
603.500000 58.965404
603.500000 59.282617
603.500000 59.600670
603.500000 59.919563
603.500000 60.239297
603.500000 60.559871
603.500000 60.881285
603.500000 61.203540
603.500000 61.526635
603.500000 61.850570
603.500000 62.175345
603.500000 62.500961
603.500000 62.827417
603.500000 63.154713
603.500000 63.482850
603.500000 63.811827
603.500000 64.141644
603.500000 64.472301
603.500000 64.803799
603.500000 65.136137
603.500000 65.469316
603.500000 65.803335
603.500000 66.138194
603.500000 66.473893
603.500000 66.810433
603.500000 67.147812
603.500000 67.486033
603.500000 67.825093
603.500000 68.164994
603.500000 68.505735
603.500000 68.847316
603.500000 69.189738
603.500000 69.533000
603.500000 69.877102
603.500000 70.222045
603.500000 70.567828
603.500000 70.914451
603.500000 71.261915
603.500000 71.610218
603.500000 71.959363
603.500000 72.309347
603.500000 72.660172
603.500000 73.011837
603.500000 73.364342
603.500000 73.717688
603.500000 74.071873
603.500000 74.426900
603.500000 74.782766
603.500000 75.139473
603.500000 75.497020
603.500000 75.855407
603.500000 76.214635
603.500000 76.574703
603.500000 76.935611
603.500000 77.297360
603.500000 77.659949
603.500000 78.023378
603.500000 78.387647
603.500000 78.752757
603.500000 79.118707
603.500000 79.485498
603.500000 79.853128
603.500000 80.221599
603.500000 80.590910
603.500000 80.961062
603.500000 81.332054
603.500000 81.703886
603.500000 82.076558
603.500000 82.450071
603.500000 82.824424
603.500000 83.199618
603.500000 83.575651
603.500000 83.952525
603.500000 84.330239
603.500000 84.708794
603.500000 85.088189
603.500000 85.468424
603.500000 85.849499
603.500000 86.231415
603.500000 86.614171
603.500000 86.997768
603.500000 87.382204
603.500000 87.767481
603.500000 88.153598
603.500000 88.540556
603.500000 88.928354
603.500000 89.316992
603.500000 89.706470
603.500000 90.096789
603.500000 90.487948
603.500000 90.879947
603.500000 91.272787
603.500000 91.666467
603.500000 92.060987
603.500000 92.456348
603.500000 92.852548
603.500000 93.249590
603.500000 93.647471
603.500000 94.046193
603.500000 94.445755
603.500000 94.846157
603.500000 95.247400
603.500000 95.649483
603.500000 96.052406
603.500000 96.456169
603.500000 96.860773
603.500000 97.266217
603.500000 97.672502
603.500000 98.079626
603.500000 98.487591
603.500000 98.896397
603.500000 99.306042
603.500000 99.716528
603.500000 100.127854
603.500000 100.540021
603.500000 100.953028
603.500000 101.366875
603.500000 101.781562
603.500000 102.197090
603.500000 102.613458
603.500000 103.030666
603.500000 103.448715
603.500000 103.867603
603.500000 104.287333
603.500000 104.707902
603.500000 105.129312
603.500000 105.551562
603.500000 105.974652
603.500000 106.398583
603.500000 106.823354
603.500000 107.248965
603.500000 107.675417
603.500000 108.102709
603.500000 108.530841
603.500000 108.959813
603.500000 109.389626
603.500000 109.820279
603.500000 110.251773
603.500000 110.684106
603.500000 111.117280
603.500000 111.551294
603.500000 111.986149
603.500000 112.421844
603.500000 112.858379
603.500000 113.295754
603.500000 113.733970
603.500000 114.173026
603.500000 114.612923
603.500000 115.053659
603.500000 115.495236
603.500000 115.937653
603.500000 116.380911
603.500000 116.825009
603.500000 117.269947
603.500000 117.715725
603.500000 118.162344
603.500000 118.609803
603.500000 119.058103
603.500000 119.507242
603.500000 119.957222
603.500000 120.408042
603.500000 120.859703
603.500000 121.312204
603.500000 121.765545
603.500000 122.219726
603.500000 122.674748
603.500000 123.130610
603.500000 123.587312
603.500000 124.044855
603.500000 124.503238
603.500000 124.962461
603.500000 125.422525
603.500000 125.883428
603.500000 126.345173
603.500000 126.807757
603.500000 127.271182
603.500000 127.735447
603.500000 128.200552
603.500000 128.666498
603.500000 129.133283
603.500000 129.600910
603.500000 130.069376
603.500000 130.538683
603.500000 131.008830
603.500000 131.479818
603.500000 131.951645
603.500000 132.424313
603.500000 132.897821
603.500000 133.372170
603.500000 133.847359
603.500000 134.323388
603.500000 134.800258
603.500000 135.277967
603.500000 135.756518
603.500000 136.235908
603.500000 136.716139
603.500000 137.197210
603.500000 137.679121
603.500000 138.161872
603.500000 138.645464
603.500000 139.129897
603.500000 139.615169
603.500000 140.101282
603.500000 140.588235
603.500000 141.076028
603.500000 141.564662
603.500000 142.054136
603.500000 142.544450
603.500000 143.035605
603.500000 143.527600
603.500000 144.020435
603.500000 144.514110
603.500000 145.008626
603.500000 145.503982
603.500000 146.000178
603.500000 146.497215
603.500000 146.995092
603.500000 147.493809
603.500000 147.993367
603.500000 148.493765
603.500000 148.995003
603.500000 149.497081
603.500000 150.000000
</POINTS>
</NEKTAR>

