<?xml version="1.0" encoding="utf-8" ?>
<NEKTAR>
<POINTS DIM="2" FIELDS="">
283.500000 -0.750000
283.500000 -0.749580
283.500000 -0.748319
283.500000 -0.746219
283.500000 -0.743278
283.500000 -0.739496
283.500000 -0.734875
283.500000 -0.729413
283.500000 -0.723110
283.500000 -0.715968
283.500000 -0.707985
283.500000 -0.699162
283.500000 -0.689498
283.500000 -0.678995
283.500000 -0.667651
283.500000 -0.655466
283.500000 -0.642442
283.500000 -0.628577
283.500000 -0.613872
283.500000 -0.598326
283.500000 -0.581940
283.500000 -0.564714
283.500000 -0.546648
283.500000 -0.527741
283.500000 -0.507994
283.500000 -0.487407
283.500000 -0.465979
283.500000 -0.443711
283.500000 -0.420603
283.500000 -0.396654
283.500000 -0.371866
283.500000 -0.346236
283.500000 -0.319767
283.500000 -0.292457
283.500000 -0.264307
283.500000 -0.235317
283.500000 -0.205486
283.500000 -0.174816
283.500000 -0.143304
283.500000 -0.110953
283.500000 -0.077761
283.500000 -0.043729
283.500000 -0.008857
283.500000 0.026856
283.500000 0.063409
283.500000 0.100802
283.500000 0.139036
283.500000 0.178110
283.500000 0.218024
283.500000 0.258779
283.500000 0.300373
283.500000 0.342808
283.500000 0.386084
283.500000 0.430199
283.500000 0.475155
283.500000 0.520952
283.500000 0.567588
283.500000 0.615065
283.500000 0.663382
283.500000 0.712540
283.500000 0.762538
283.500000 0.813376
283.500000 0.865054
283.500000 0.917573
283.500000 0.970932
283.500000 1.025131
283.500000 1.080170
283.500000 1.136050
283.500000 1.192771
283.500000 1.250331
283.500000 1.308732
283.500000 1.367973
283.500000 1.428054
283.500000 1.488976
283.500000 1.550738
283.500000 1.613340
283.500000 1.676783
283.500000 1.741065
283.500000 1.806189
283.500000 1.872152
283.500000 1.938956
283.500000 2.006600
283.500000 2.075084
283.500000 2.144409
283.500000 2.214574
283.500000 2.285579
283.500000 2.357424
283.500000 2.430110
283.500000 2.503636
283.500000 2.578003
283.500000 2.653210
283.500000 2.729257
283.500000 2.806144
283.500000 2.883872
283.500000 2.962439
283.500000 3.041848
283.500000 3.122096
283.500000 3.203185
283.500000 3.285114
283.500000 3.367884
283.500000 3.451493
283.500000 3.535943
283.500000 3.621234
283.500000 3.707364
283.500000 3.794335
283.500000 3.882146
283.500000 3.970798
283.500000 4.060290
283.500000 4.150622
283.500000 4.241794
283.500000 4.333807
283.500000 4.426660
283.500000 4.520353
283.500000 4.614887
283.500000 4.710261
283.500000 4.806475
283.500000 4.903529
283.500000 5.001424
283.500000 5.100159
283.500000 5.199735
283.500000 5.300150
283.500000 5.401406
283.500000 5.503503
283.500000 5.606439
283.500000 5.710216
283.500000 5.814833
283.500000 5.920291
283.500000 6.026589
283.500000 6.133727
283.500000 6.241705
283.500000 6.350524
283.500000 6.460183
283.500000 6.570682
283.500000 6.682022
283.500000 6.794201
283.500000 6.907222
283.500000 7.021082
283.500000 7.135783
283.500000 7.251324
283.500000 7.367705
283.500000 7.484927
283.500000 7.602989
283.500000 7.721891
283.500000 7.841634
283.500000 7.962217
283.500000 8.083640
283.500000 8.205903
283.500000 8.329007
283.500000 8.452951
283.500000 8.577735
283.500000 8.703360
283.500000 8.829825
283.500000 8.957130
283.500000 9.085276
283.500000 9.214262
283.500000 9.344088
283.500000 9.474754
283.500000 9.606261
283.500000 9.738608
283.500000 9.871795
283.500000 10.005823
283.500000 10.140691
283.500000 10.276399
283.500000 10.412948
283.500000 10.550336
283.500000 10.688566
283.500000 10.827635
283.500000 10.967545
283.500000 11.108295
283.500000 11.249885
283.500000 11.392316
283.500000 11.535587
283.500000 11.679698
283.500000 11.824649
283.500000 11.970441
283.500000 12.117073
283.500000 12.264546
283.500000 12.412858
283.500000 12.562011
283.500000 12.712005
283.500000 12.862838
283.500000 13.014512
283.500000 13.167026
283.500000 13.320381
283.500000 13.474576
283.500000 13.629611
283.500000 13.785486
283.500000 13.942202
283.500000 14.099758
283.500000 14.258154
283.500000 14.417391
283.500000 14.577468
283.500000 14.738385
283.500000 14.900142
283.500000 15.062740
283.500000 15.226178
283.500000 15.390457
283.500000 15.555575
283.500000 15.721534
283.500000 15.888334
283.500000 16.055973
283.500000 16.224453
283.500000 16.393773
283.500000 16.563934
283.500000 16.734935
283.500000 16.906776
283.500000 17.079457
283.500000 17.252979
283.500000 17.427341
283.500000 17.602543
283.500000 17.778585
283.500000 17.955468
283.500000 18.133192
283.500000 18.311755
283.500000 18.491159
283.500000 18.671403
283.500000 18.852487
283.500000 19.034412
283.500000 19.217177
283.500000 19.400782
283.500000 19.585228
283.500000 19.770513
283.500000 19.956640
283.500000 20.143606
283.500000 20.331413
283.500000 20.520060
283.500000 20.709547
283.500000 20.899875
283.500000 21.091043
283.500000 21.283051
283.500000 21.475900
283.500000 21.669588
283.500000 21.864118
283.500000 22.059487
283.500000 22.255697
283.500000 22.452747
283.500000 22.650637
283.500000 22.849368
283.500000 23.048939
283.500000 23.249350
283.500000 23.450601
283.500000 23.652693
283.500000 23.855625
283.500000 24.059398
283.500000 24.264011
283.500000 24.469464
283.500000 24.675757
283.500000 24.882891
283.500000 25.090864
283.500000 25.299679
283.500000 25.509333
283.500000 25.719828
283.500000 25.931163
283.500000 26.143339
283.500000 26.356354
283.500000 26.570210
283.500000 26.784907
283.500000 27.000443
283.500000 27.216820
283.500000 27.434037
283.500000 27.652095
283.500000 27.870993
283.500000 28.090731
283.500000 28.311309
283.500000 28.532728
283.500000 28.754987
283.500000 28.978086
283.500000 29.202026
283.500000 29.426806
283.500000 29.652426
283.500000 29.878886
283.500000 30.106187
283.500000 30.334328
283.500000 30.563309
283.500000 30.793131
283.500000 31.023793
283.500000 31.255295
283.500000 31.487638
283.500000 31.720821
283.500000 31.954844
283.500000 32.189708
283.500000 32.425411
283.500000 32.661955
283.500000 32.899340
283.500000 33.137564
283.500000 33.376629
283.500000 33.616535
283.500000 33.857280
283.500000 34.098866
283.500000 34.341292
283.500000 34.584559
283.500000 34.828665
283.500000 35.073613
283.500000 35.319400
283.500000 35.566028
283.500000 35.813496
283.500000 36.061804
283.500000 36.310952
283.500000 36.560941
283.500000 36.811770
283.500000 37.063440
283.500000 37.315950
283.500000 37.569300
283.500000 37.823490
283.500000 38.078521
283.500000 38.334391
283.500000 38.591103
283.500000 38.848654
283.500000 39.107046
283.500000 39.366278
283.500000 39.626351
283.500000 39.887263
283.500000 40.149016
283.500000 40.411610
283.500000 40.675043
283.500000 40.939317
283.500000 41.204432
283.500000 41.470386
283.500000 41.737181
283.500000 42.004816
283.500000 42.273291
283.500000 42.542607
283.500000 42.812763
283.500000 43.083760
283.500000 43.355596
283.500000 43.628273
283.500000 43.901790
283.500000 44.176148
283.500000 44.451346
283.500000 44.727384
283.500000 45.004262
283.500000 45.281981
283.500000 45.560540
283.500000 45.839939
283.500000 46.120179
283.500000 46.401259
283.500000 46.683179
283.500000 46.965939
283.500000 47.249540
283.500000 47.533981
283.500000 47.819263
283.500000 48.105384
283.500000 48.392346
283.500000 48.680149
283.500000 48.968791
283.500000 49.258274
283.500000 49.548597
283.500000 49.839761
283.500000 50.131765
283.500000 50.424609
283.500000 50.718293
283.500000 51.012818
283.500000 51.308183
283.500000 51.604388
283.500000 51.901434
283.500000 52.199319
283.500000 52.498046
283.500000 52.797612
283.500000 53.098019
283.500000 53.399266
283.500000 53.701353
283.500000 54.004281
283.500000 54.308049
283.500000 54.612657
283.500000 54.918106
283.500000 55.224395
283.500000 55.531524
283.500000 55.839493
283.500000 56.148303
283.500000 56.457953
283.500000 56.768443
283.500000 57.079774
283.500000 57.391945
283.500000 57.704956
283.500000 58.018808
283.500000 58.333500
283.500000 58.649032
283.500000 58.965404
283.500000 59.282617
283.500000 59.600670
283.500000 59.919563
283.500000 60.239297
283.500000 60.559871
283.500000 60.881285
283.500000 61.203540
283.500000 61.526635
283.500000 61.850570
283.500000 62.175345
283.500000 62.500961
283.500000 62.827417
283.500000 63.154713
283.500000 63.482850
283.500000 63.811827
283.500000 64.141644
283.500000 64.472301
283.500000 64.803799
283.500000 65.136137
283.500000 65.469316
283.500000 65.803335
283.500000 66.138194
283.500000 66.473893
283.500000 66.810433
283.500000 67.147812
283.500000 67.486033
283.500000 67.825093
283.500000 68.164994
283.500000 68.505735
283.500000 68.847316
283.500000 69.189738
283.500000 69.533000
283.500000 69.877102
283.500000 70.222045
283.500000 70.567828
283.500000 70.914451
283.500000 71.261915
283.500000 71.610218
283.500000 71.959363
283.500000 72.309347
283.500000 72.660172
283.500000 73.011837
283.500000 73.364342
283.500000 73.717688
283.500000 74.071873
283.500000 74.426900
283.500000 74.782766
283.500000 75.139473
283.500000 75.497020
283.500000 75.855407
283.500000 76.214635
283.500000 76.574703
283.500000 76.935611
283.500000 77.297360
283.500000 77.659949
283.500000 78.023378
283.500000 78.387647
283.500000 78.752757
283.500000 79.118707
283.500000 79.485498
283.500000 79.853128
283.500000 80.221599
283.500000 80.590910
283.500000 80.961062
283.500000 81.332054
283.500000 81.703886
283.500000 82.076558
283.500000 82.450071
283.500000 82.824424
283.500000 83.199618
283.500000 83.575651
283.500000 83.952525
283.500000 84.330239
283.500000 84.708794
283.500000 85.088189
283.500000 85.468424
283.500000 85.849499
283.500000 86.231415
283.500000 86.614171
283.500000 86.997768
283.500000 87.382204
283.500000 87.767481
283.500000 88.153598
283.500000 88.540556
283.500000 88.928354
283.500000 89.316992
283.500000 89.706470
283.500000 90.096789
283.500000 90.487948
283.500000 90.879947
283.500000 91.272787
283.500000 91.666467
283.500000 92.060987
283.500000 92.456348
283.500000 92.852548
283.500000 93.249590
283.500000 93.647471
283.500000 94.046193
283.500000 94.445755
283.500000 94.846157
283.500000 95.247400
283.500000 95.649483
283.500000 96.052406
283.500000 96.456169
283.500000 96.860773
283.500000 97.266217
283.500000 97.672502
283.500000 98.079626
283.500000 98.487591
283.500000 98.896397
283.500000 99.306042
283.500000 99.716528
283.500000 100.127854
283.500000 100.540021
283.500000 100.953028
283.500000 101.366875
283.500000 101.781562
283.500000 102.197090
283.500000 102.613458
283.500000 103.030666
283.500000 103.448715
283.500000 103.867603
283.500000 104.287333
283.500000 104.707902
283.500000 105.129312
283.500000 105.551562
283.500000 105.974652
283.500000 106.398583
283.500000 106.823354
283.500000 107.248965
283.500000 107.675417
283.500000 108.102709
283.500000 108.530841
283.500000 108.959813
283.500000 109.389626
283.500000 109.820279
283.500000 110.251773
283.500000 110.684106
283.500000 111.117280
283.500000 111.551294
283.500000 111.986149
283.500000 112.421844
283.500000 112.858379
283.500000 113.295754
283.500000 113.733970
283.500000 114.173026
283.500000 114.612923
283.500000 115.053659
283.500000 115.495236
283.500000 115.937653
283.500000 116.380911
283.500000 116.825009
283.500000 117.269947
283.500000 117.715725
283.500000 118.162344
283.500000 118.609803
283.500000 119.058103
283.500000 119.507242
283.500000 119.957222
283.500000 120.408042
283.500000 120.859703
283.500000 121.312204
283.500000 121.765545
283.500000 122.219726
283.500000 122.674748
283.500000 123.130610
283.500000 123.587312
283.500000 124.044855
283.500000 124.503238
283.500000 124.962461
283.500000 125.422525
283.500000 125.883428
283.500000 126.345173
283.500000 126.807757
283.500000 127.271182
283.500000 127.735447
283.500000 128.200552
283.500000 128.666498
283.500000 129.133283
283.500000 129.600910
283.500000 130.069376
283.500000 130.538683
283.500000 131.008830
283.500000 131.479818
283.500000 131.951645
283.500000 132.424313
283.500000 132.897821
283.500000 133.372170
283.500000 133.847359
283.500000 134.323388
283.500000 134.800258
283.500000 135.277967
283.500000 135.756518
283.500000 136.235908
283.500000 136.716139
283.500000 137.197210
283.500000 137.679121
283.500000 138.161872
283.500000 138.645464
283.500000 139.129897
283.500000 139.615169
283.500000 140.101282
283.500000 140.588235
283.500000 141.076028
283.500000 141.564662
283.500000 142.054136
283.500000 142.544450
283.500000 143.035605
283.500000 143.527600
283.500000 144.020435
283.500000 144.514110
283.500000 145.008626
283.500000 145.503982
283.500000 146.000178
283.500000 146.497215
283.500000 146.995092
283.500000 147.493809
283.500000 147.993367
283.500000 148.493765
283.500000 148.995003
283.500000 149.497081
283.500000 150.000000
</POINTS>
</NEKTAR>

