<?xml version="1.0" encoding="utf-8" ?>
<NEKTAR>
<POINTS DIM="2" FIELDS="">
203.500000 -0.750000
203.500000 -0.749580
203.500000 -0.748319
203.500000 -0.746219
203.500000 -0.743278
203.500000 -0.739496
203.500000 -0.734875
203.500000 -0.729413
203.500000 -0.723110
203.500000 -0.715968
203.500000 -0.707985
203.500000 -0.699162
203.500000 -0.689498
203.500000 -0.678995
203.500000 -0.667651
203.500000 -0.655466
203.500000 -0.642442
203.500000 -0.628577
203.500000 -0.613872
203.500000 -0.598326
203.500000 -0.581940
203.500000 -0.564714
203.500000 -0.546648
203.500000 -0.527741
203.500000 -0.507994
203.500000 -0.487407
203.500000 -0.465979
203.500000 -0.443711
203.500000 -0.420603
203.500000 -0.396654
203.500000 -0.371866
203.500000 -0.346236
203.500000 -0.319767
203.500000 -0.292457
203.500000 -0.264307
203.500000 -0.235317
203.500000 -0.205486
203.500000 -0.174816
203.500000 -0.143304
203.500000 -0.110953
203.500000 -0.077761
203.500000 -0.043729
203.500000 -0.008857
203.500000 0.026856
203.500000 0.063409
203.500000 0.100802
203.500000 0.139036
203.500000 0.178110
203.500000 0.218024
203.500000 0.258779
203.500000 0.300373
203.500000 0.342808
203.500000 0.386084
203.500000 0.430199
203.500000 0.475155
203.500000 0.520952
203.500000 0.567588
203.500000 0.615065
203.500000 0.663382
203.500000 0.712540
203.500000 0.762538
203.500000 0.813376
203.500000 0.865054
203.500000 0.917573
203.500000 0.970932
203.500000 1.025131
203.500000 1.080170
203.500000 1.136050
203.500000 1.192771
203.500000 1.250331
203.500000 1.308732
203.500000 1.367973
203.500000 1.428054
203.500000 1.488976
203.500000 1.550738
203.500000 1.613340
203.500000 1.676783
203.500000 1.741065
203.500000 1.806189
203.500000 1.872152
203.500000 1.938956
203.500000 2.006600
203.500000 2.075084
203.500000 2.144409
203.500000 2.214574
203.500000 2.285579
203.500000 2.357424
203.500000 2.430110
203.500000 2.503636
203.500000 2.578003
203.500000 2.653210
203.500000 2.729257
203.500000 2.806144
203.500000 2.883872
203.500000 2.962439
203.500000 3.041848
203.500000 3.122096
203.500000 3.203185
203.500000 3.285114
203.500000 3.367884
203.500000 3.451493
203.500000 3.535943
203.500000 3.621234
203.500000 3.707364
203.500000 3.794335
203.500000 3.882146
203.500000 3.970798
203.500000 4.060290
203.500000 4.150622
203.500000 4.241794
203.500000 4.333807
203.500000 4.426660
203.500000 4.520353
203.500000 4.614887
203.500000 4.710261
203.500000 4.806475
203.500000 4.903529
203.500000 5.001424
203.500000 5.100159
203.500000 5.199735
203.500000 5.300150
203.500000 5.401406
203.500000 5.503503
203.500000 5.606439
203.500000 5.710216
203.500000 5.814833
203.500000 5.920291
203.500000 6.026589
203.500000 6.133727
203.500000 6.241705
203.500000 6.350524
203.500000 6.460183
203.500000 6.570682
203.500000 6.682022
203.500000 6.794201
203.500000 6.907222
203.500000 7.021082
203.500000 7.135783
203.500000 7.251324
203.500000 7.367705
203.500000 7.484927
203.500000 7.602989
203.500000 7.721891
203.500000 7.841634
203.500000 7.962217
203.500000 8.083640
203.500000 8.205903
203.500000 8.329007
203.500000 8.452951
203.500000 8.577735
203.500000 8.703360
203.500000 8.829825
203.500000 8.957130
203.500000 9.085276
203.500000 9.214262
203.500000 9.344088
203.500000 9.474754
203.500000 9.606261
203.500000 9.738608
203.500000 9.871795
203.500000 10.005823
203.500000 10.140691
203.500000 10.276399
203.500000 10.412948
203.500000 10.550336
203.500000 10.688566
203.500000 10.827635
203.500000 10.967545
203.500000 11.108295
203.500000 11.249885
203.500000 11.392316
203.500000 11.535587
203.500000 11.679698
203.500000 11.824649
203.500000 11.970441
203.500000 12.117073
203.500000 12.264546
203.500000 12.412858
203.500000 12.562011
203.500000 12.712005
203.500000 12.862838
203.500000 13.014512
203.500000 13.167026
203.500000 13.320381
203.500000 13.474576
203.500000 13.629611
203.500000 13.785486
203.500000 13.942202
203.500000 14.099758
203.500000 14.258154
203.500000 14.417391
203.500000 14.577468
203.500000 14.738385
203.500000 14.900142
203.500000 15.062740
203.500000 15.226178
203.500000 15.390457
203.500000 15.555575
203.500000 15.721534
203.500000 15.888334
203.500000 16.055973
203.500000 16.224453
203.500000 16.393773
203.500000 16.563934
203.500000 16.734935
203.500000 16.906776
203.500000 17.079457
203.500000 17.252979
203.500000 17.427341
203.500000 17.602543
203.500000 17.778585
203.500000 17.955468
203.500000 18.133192
203.500000 18.311755
203.500000 18.491159
203.500000 18.671403
203.500000 18.852487
203.500000 19.034412
203.500000 19.217177
203.500000 19.400782
203.500000 19.585228
203.500000 19.770513
203.500000 19.956640
203.500000 20.143606
203.500000 20.331413
203.500000 20.520060
203.500000 20.709547
203.500000 20.899875
203.500000 21.091043
203.500000 21.283051
203.500000 21.475900
203.500000 21.669588
203.500000 21.864118
203.500000 22.059487
203.500000 22.255697
203.500000 22.452747
203.500000 22.650637
203.500000 22.849368
203.500000 23.048939
203.500000 23.249350
203.500000 23.450601
203.500000 23.652693
203.500000 23.855625
203.500000 24.059398
203.500000 24.264011
203.500000 24.469464
203.500000 24.675757
203.500000 24.882891
203.500000 25.090864
203.500000 25.299679
203.500000 25.509333
203.500000 25.719828
203.500000 25.931163
203.500000 26.143339
203.500000 26.356354
203.500000 26.570210
203.500000 26.784907
203.500000 27.000443
203.500000 27.216820
203.500000 27.434037
203.500000 27.652095
203.500000 27.870993
203.500000 28.090731
203.500000 28.311309
203.500000 28.532728
203.500000 28.754987
203.500000 28.978086
203.500000 29.202026
203.500000 29.426806
203.500000 29.652426
203.500000 29.878886
203.500000 30.106187
203.500000 30.334328
203.500000 30.563309
203.500000 30.793131
203.500000 31.023793
203.500000 31.255295
203.500000 31.487638
203.500000 31.720821
203.500000 31.954844
203.500000 32.189708
203.500000 32.425411
203.500000 32.661955
203.500000 32.899340
203.500000 33.137564
203.500000 33.376629
203.500000 33.616535
203.500000 33.857280
203.500000 34.098866
203.500000 34.341292
203.500000 34.584559
203.500000 34.828665
203.500000 35.073613
203.500000 35.319400
203.500000 35.566028
203.500000 35.813496
203.500000 36.061804
203.500000 36.310952
203.500000 36.560941
203.500000 36.811770
203.500000 37.063440
203.500000 37.315950
203.500000 37.569300
203.500000 37.823490
203.500000 38.078521
203.500000 38.334391
203.500000 38.591103
203.500000 38.848654
203.500000 39.107046
203.500000 39.366278
203.500000 39.626351
203.500000 39.887263
203.500000 40.149016
203.500000 40.411610
203.500000 40.675043
203.500000 40.939317
203.500000 41.204432
203.500000 41.470386
203.500000 41.737181
203.500000 42.004816
203.500000 42.273291
203.500000 42.542607
203.500000 42.812763
203.500000 43.083760
203.500000 43.355596
203.500000 43.628273
203.500000 43.901790
203.500000 44.176148
203.500000 44.451346
203.500000 44.727384
203.500000 45.004262
203.500000 45.281981
203.500000 45.560540
203.500000 45.839939
203.500000 46.120179
203.500000 46.401259
203.500000 46.683179
203.500000 46.965939
203.500000 47.249540
203.500000 47.533981
203.500000 47.819263
203.500000 48.105384
203.500000 48.392346
203.500000 48.680149
203.500000 48.968791
203.500000 49.258274
203.500000 49.548597
203.500000 49.839761
203.500000 50.131765
203.500000 50.424609
203.500000 50.718293
203.500000 51.012818
203.500000 51.308183
203.500000 51.604388
203.500000 51.901434
203.500000 52.199319
203.500000 52.498046
203.500000 52.797612
203.500000 53.098019
203.500000 53.399266
203.500000 53.701353
203.500000 54.004281
203.500000 54.308049
203.500000 54.612657
203.500000 54.918106
203.500000 55.224395
203.500000 55.531524
203.500000 55.839493
203.500000 56.148303
203.500000 56.457953
203.500000 56.768443
203.500000 57.079774
203.500000 57.391945
203.500000 57.704956
203.500000 58.018808
203.500000 58.333500
203.500000 58.649032
203.500000 58.965404
203.500000 59.282617
203.500000 59.600670
203.500000 59.919563
203.500000 60.239297
203.500000 60.559871
203.500000 60.881285
203.500000 61.203540
203.500000 61.526635
203.500000 61.850570
203.500000 62.175345
203.500000 62.500961
203.500000 62.827417
203.500000 63.154713
203.500000 63.482850
203.500000 63.811827
203.500000 64.141644
203.500000 64.472301
203.500000 64.803799
203.500000 65.136137
203.500000 65.469316
203.500000 65.803335
203.500000 66.138194
203.500000 66.473893
203.500000 66.810433
203.500000 67.147812
203.500000 67.486033
203.500000 67.825093
203.500000 68.164994
203.500000 68.505735
203.500000 68.847316
203.500000 69.189738
203.500000 69.533000
203.500000 69.877102
203.500000 70.222045
203.500000 70.567828
203.500000 70.914451
203.500000 71.261915
203.500000 71.610218
203.500000 71.959363
203.500000 72.309347
203.500000 72.660172
203.500000 73.011837
203.500000 73.364342
203.500000 73.717688
203.500000 74.071873
203.500000 74.426900
203.500000 74.782766
203.500000 75.139473
203.500000 75.497020
203.500000 75.855407
203.500000 76.214635
203.500000 76.574703
203.500000 76.935611
203.500000 77.297360
203.500000 77.659949
203.500000 78.023378
203.500000 78.387647
203.500000 78.752757
203.500000 79.118707
203.500000 79.485498
203.500000 79.853128
203.500000 80.221599
203.500000 80.590910
203.500000 80.961062
203.500000 81.332054
203.500000 81.703886
203.500000 82.076558
203.500000 82.450071
203.500000 82.824424
203.500000 83.199618
203.500000 83.575651
203.500000 83.952525
203.500000 84.330239
203.500000 84.708794
203.500000 85.088189
203.500000 85.468424
203.500000 85.849499
203.500000 86.231415
203.500000 86.614171
203.500000 86.997768
203.500000 87.382204
203.500000 87.767481
203.500000 88.153598
203.500000 88.540556
203.500000 88.928354
203.500000 89.316992
203.500000 89.706470
203.500000 90.096789
203.500000 90.487948
203.500000 90.879947
203.500000 91.272787
203.500000 91.666467
203.500000 92.060987
203.500000 92.456348
203.500000 92.852548
203.500000 93.249590
203.500000 93.647471
203.500000 94.046193
203.500000 94.445755
203.500000 94.846157
203.500000 95.247400
203.500000 95.649483
203.500000 96.052406
203.500000 96.456169
203.500000 96.860773
203.500000 97.266217
203.500000 97.672502
203.500000 98.079626
203.500000 98.487591
203.500000 98.896397
203.500000 99.306042
203.500000 99.716528
203.500000 100.127854
203.500000 100.540021
203.500000 100.953028
203.500000 101.366875
203.500000 101.781562
203.500000 102.197090
203.500000 102.613458
203.500000 103.030666
203.500000 103.448715
203.500000 103.867603
203.500000 104.287333
203.500000 104.707902
203.500000 105.129312
203.500000 105.551562
203.500000 105.974652
203.500000 106.398583
203.500000 106.823354
203.500000 107.248965
203.500000 107.675417
203.500000 108.102709
203.500000 108.530841
203.500000 108.959813
203.500000 109.389626
203.500000 109.820279
203.500000 110.251773
203.500000 110.684106
203.500000 111.117280
203.500000 111.551294
203.500000 111.986149
203.500000 112.421844
203.500000 112.858379
203.500000 113.295754
203.500000 113.733970
203.500000 114.173026
203.500000 114.612923
203.500000 115.053659
203.500000 115.495236
203.500000 115.937653
203.500000 116.380911
203.500000 116.825009
203.500000 117.269947
203.500000 117.715725
203.500000 118.162344
203.500000 118.609803
203.500000 119.058103
203.500000 119.507242
203.500000 119.957222
203.500000 120.408042
203.500000 120.859703
203.500000 121.312204
203.500000 121.765545
203.500000 122.219726
203.500000 122.674748
203.500000 123.130610
203.500000 123.587312
203.500000 124.044855
203.500000 124.503238
203.500000 124.962461
203.500000 125.422525
203.500000 125.883428
203.500000 126.345173
203.500000 126.807757
203.500000 127.271182
203.500000 127.735447
203.500000 128.200552
203.500000 128.666498
203.500000 129.133283
203.500000 129.600910
203.500000 130.069376
203.500000 130.538683
203.500000 131.008830
203.500000 131.479818
203.500000 131.951645
203.500000 132.424313
203.500000 132.897821
203.500000 133.372170
203.500000 133.847359
203.500000 134.323388
203.500000 134.800258
203.500000 135.277967
203.500000 135.756518
203.500000 136.235908
203.500000 136.716139
203.500000 137.197210
203.500000 137.679121
203.500000 138.161872
203.500000 138.645464
203.500000 139.129897
203.500000 139.615169
203.500000 140.101282
203.500000 140.588235
203.500000 141.076028
203.500000 141.564662
203.500000 142.054136
203.500000 142.544450
203.500000 143.035605
203.500000 143.527600
203.500000 144.020435
203.500000 144.514110
203.500000 145.008626
203.500000 145.503982
203.500000 146.000178
203.500000 146.497215
203.500000 146.995092
203.500000 147.493809
203.500000 147.993367
203.500000 148.493765
203.500000 148.995003
203.500000 149.497081
203.500000 150.000000
</POINTS>
</NEKTAR>

