<?xml version="1.0" encoding="utf-8" ?>
<NEKTAR>
<POINTS DIM="2" FIELDS="">
883.500000 -0.750000
883.500000 -0.749580
883.500000 -0.748319
883.500000 -0.746219
883.500000 -0.743278
883.500000 -0.739496
883.500000 -0.734875
883.500000 -0.729413
883.500000 -0.723110
883.500000 -0.715968
883.500000 -0.707985
883.500000 -0.699162
883.500000 -0.689498
883.500000 -0.678995
883.500000 -0.667651
883.500000 -0.655466
883.500000 -0.642442
883.500000 -0.628577
883.500000 -0.613872
883.500000 -0.598326
883.500000 -0.581940
883.500000 -0.564714
883.500000 -0.546648
883.500000 -0.527741
883.500000 -0.507994
883.500000 -0.487407
883.500000 -0.465979
883.500000 -0.443711
883.500000 -0.420603
883.500000 -0.396654
883.500000 -0.371866
883.500000 -0.346236
883.500000 -0.319767
883.500000 -0.292457
883.500000 -0.264307
883.500000 -0.235317
883.500000 -0.205486
883.500000 -0.174816
883.500000 -0.143304
883.500000 -0.110953
883.500000 -0.077761
883.500000 -0.043729
883.500000 -0.008857
883.500000 0.026856
883.500000 0.063409
883.500000 0.100802
883.500000 0.139036
883.500000 0.178110
883.500000 0.218024
883.500000 0.258779
883.500000 0.300373
883.500000 0.342808
883.500000 0.386084
883.500000 0.430199
883.500000 0.475155
883.500000 0.520952
883.500000 0.567588
883.500000 0.615065
883.500000 0.663382
883.500000 0.712540
883.500000 0.762538
883.500000 0.813376
883.500000 0.865054
883.500000 0.917573
883.500000 0.970932
883.500000 1.025131
883.500000 1.080170
883.500000 1.136050
883.500000 1.192771
883.500000 1.250331
883.500000 1.308732
883.500000 1.367973
883.500000 1.428054
883.500000 1.488976
883.500000 1.550738
883.500000 1.613340
883.500000 1.676783
883.500000 1.741065
883.500000 1.806189
883.500000 1.872152
883.500000 1.938956
883.500000 2.006600
883.500000 2.075084
883.500000 2.144409
883.500000 2.214574
883.500000 2.285579
883.500000 2.357424
883.500000 2.430110
883.500000 2.503636
883.500000 2.578003
883.500000 2.653210
883.500000 2.729257
883.500000 2.806144
883.500000 2.883872
883.500000 2.962439
883.500000 3.041848
883.500000 3.122096
883.500000 3.203185
883.500000 3.285114
883.500000 3.367884
883.500000 3.451493
883.500000 3.535943
883.500000 3.621234
883.500000 3.707364
883.500000 3.794335
883.500000 3.882146
883.500000 3.970798
883.500000 4.060290
883.500000 4.150622
883.500000 4.241794
883.500000 4.333807
883.500000 4.426660
883.500000 4.520353
883.500000 4.614887
883.500000 4.710261
883.500000 4.806475
883.500000 4.903529
883.500000 5.001424
883.500000 5.100159
883.500000 5.199735
883.500000 5.300150
883.500000 5.401406
883.500000 5.503503
883.500000 5.606439
883.500000 5.710216
883.500000 5.814833
883.500000 5.920291
883.500000 6.026589
883.500000 6.133727
883.500000 6.241705
883.500000 6.350524
883.500000 6.460183
883.500000 6.570682
883.500000 6.682022
883.500000 6.794201
883.500000 6.907222
883.500000 7.021082
883.500000 7.135783
883.500000 7.251324
883.500000 7.367705
883.500000 7.484927
883.500000 7.602989
883.500000 7.721891
883.500000 7.841634
883.500000 7.962217
883.500000 8.083640
883.500000 8.205903
883.500000 8.329007
883.500000 8.452951
883.500000 8.577735
883.500000 8.703360
883.500000 8.829825
883.500000 8.957130
883.500000 9.085276
883.500000 9.214262
883.500000 9.344088
883.500000 9.474754
883.500000 9.606261
883.500000 9.738608
883.500000 9.871795
883.500000 10.005823
883.500000 10.140691
883.500000 10.276399
883.500000 10.412948
883.500000 10.550336
883.500000 10.688566
883.500000 10.827635
883.500000 10.967545
883.500000 11.108295
883.500000 11.249885
883.500000 11.392316
883.500000 11.535587
883.500000 11.679698
883.500000 11.824649
883.500000 11.970441
883.500000 12.117073
883.500000 12.264546
883.500000 12.412858
883.500000 12.562011
883.500000 12.712005
883.500000 12.862838
883.500000 13.014512
883.500000 13.167026
883.500000 13.320381
883.500000 13.474576
883.500000 13.629611
883.500000 13.785486
883.500000 13.942202
883.500000 14.099758
883.500000 14.258154
883.500000 14.417391
883.500000 14.577468
883.500000 14.738385
883.500000 14.900142
883.500000 15.062740
883.500000 15.226178
883.500000 15.390457
883.500000 15.555575
883.500000 15.721534
883.500000 15.888334
883.500000 16.055973
883.500000 16.224453
883.500000 16.393773
883.500000 16.563934
883.500000 16.734935
883.500000 16.906776
883.500000 17.079457
883.500000 17.252979
883.500000 17.427341
883.500000 17.602543
883.500000 17.778585
883.500000 17.955468
883.500000 18.133192
883.500000 18.311755
883.500000 18.491159
883.500000 18.671403
883.500000 18.852487
883.500000 19.034412
883.500000 19.217177
883.500000 19.400782
883.500000 19.585228
883.500000 19.770513
883.500000 19.956640
883.500000 20.143606
883.500000 20.331413
883.500000 20.520060
883.500000 20.709547
883.500000 20.899875
883.500000 21.091043
883.500000 21.283051
883.500000 21.475900
883.500000 21.669588
883.500000 21.864118
883.500000 22.059487
883.500000 22.255697
883.500000 22.452747
883.500000 22.650637
883.500000 22.849368
883.500000 23.048939
883.500000 23.249350
883.500000 23.450601
883.500000 23.652693
883.500000 23.855625
883.500000 24.059398
883.500000 24.264011
883.500000 24.469464
883.500000 24.675757
883.500000 24.882891
883.500000 25.090864
883.500000 25.299679
883.500000 25.509333
883.500000 25.719828
883.500000 25.931163
883.500000 26.143339
883.500000 26.356354
883.500000 26.570210
883.500000 26.784907
883.500000 27.000443
883.500000 27.216820
883.500000 27.434037
883.500000 27.652095
883.500000 27.870993
883.500000 28.090731
883.500000 28.311309
883.500000 28.532728
883.500000 28.754987
883.500000 28.978086
883.500000 29.202026
883.500000 29.426806
883.500000 29.652426
883.500000 29.878886
883.500000 30.106187
883.500000 30.334328
883.500000 30.563309
883.500000 30.793131
883.500000 31.023793
883.500000 31.255295
883.500000 31.487638
883.500000 31.720821
883.500000 31.954844
883.500000 32.189708
883.500000 32.425411
883.500000 32.661955
883.500000 32.899340
883.500000 33.137564
883.500000 33.376629
883.500000 33.616535
883.500000 33.857280
883.500000 34.098866
883.500000 34.341292
883.500000 34.584559
883.500000 34.828665
883.500000 35.073613
883.500000 35.319400
883.500000 35.566028
883.500000 35.813496
883.500000 36.061804
883.500000 36.310952
883.500000 36.560941
883.500000 36.811770
883.500000 37.063440
883.500000 37.315950
883.500000 37.569300
883.500000 37.823490
883.500000 38.078521
883.500000 38.334391
883.500000 38.591103
883.500000 38.848654
883.500000 39.107046
883.500000 39.366278
883.500000 39.626351
883.500000 39.887263
883.500000 40.149016
883.500000 40.411610
883.500000 40.675043
883.500000 40.939317
883.500000 41.204432
883.500000 41.470386
883.500000 41.737181
883.500000 42.004816
883.500000 42.273291
883.500000 42.542607
883.500000 42.812763
883.500000 43.083760
883.500000 43.355596
883.500000 43.628273
883.500000 43.901790
883.500000 44.176148
883.500000 44.451346
883.500000 44.727384
883.500000 45.004262
883.500000 45.281981
883.500000 45.560540
883.500000 45.839939
883.500000 46.120179
883.500000 46.401259
883.500000 46.683179
883.500000 46.965939
883.500000 47.249540
883.500000 47.533981
883.500000 47.819263
883.500000 48.105384
883.500000 48.392346
883.500000 48.680149
883.500000 48.968791
883.500000 49.258274
883.500000 49.548597
883.500000 49.839761
883.500000 50.131765
883.500000 50.424609
883.500000 50.718293
883.500000 51.012818
883.500000 51.308183
883.500000 51.604388
883.500000 51.901434
883.500000 52.199319
883.500000 52.498046
883.500000 52.797612
883.500000 53.098019
883.500000 53.399266
883.500000 53.701353
883.500000 54.004281
883.500000 54.308049
883.500000 54.612657
883.500000 54.918106
883.500000 55.224395
883.500000 55.531524
883.500000 55.839493
883.500000 56.148303
883.500000 56.457953
883.500000 56.768443
883.500000 57.079774
883.500000 57.391945
883.500000 57.704956
883.500000 58.018808
883.500000 58.333500
883.500000 58.649032
883.500000 58.965404
883.500000 59.282617
883.500000 59.600670
883.500000 59.919563
883.500000 60.239297
883.500000 60.559871
883.500000 60.881285
883.500000 61.203540
883.500000 61.526635
883.500000 61.850570
883.500000 62.175345
883.500000 62.500961
883.500000 62.827417
883.500000 63.154713
883.500000 63.482850
883.500000 63.811827
883.500000 64.141644
883.500000 64.472301
883.500000 64.803799
883.500000 65.136137
883.500000 65.469316
883.500000 65.803335
883.500000 66.138194
883.500000 66.473893
883.500000 66.810433
883.500000 67.147812
883.500000 67.486033
883.500000 67.825093
883.500000 68.164994
883.500000 68.505735
883.500000 68.847316
883.500000 69.189738
883.500000 69.533000
883.500000 69.877102
883.500000 70.222045
883.500000 70.567828
883.500000 70.914451
883.500000 71.261915
883.500000 71.610218
883.500000 71.959363
883.500000 72.309347
883.500000 72.660172
883.500000 73.011837
883.500000 73.364342
883.500000 73.717688
883.500000 74.071873
883.500000 74.426900
883.500000 74.782766
883.500000 75.139473
883.500000 75.497020
883.500000 75.855407
883.500000 76.214635
883.500000 76.574703
883.500000 76.935611
883.500000 77.297360
883.500000 77.659949
883.500000 78.023378
883.500000 78.387647
883.500000 78.752757
883.500000 79.118707
883.500000 79.485498
883.500000 79.853128
883.500000 80.221599
883.500000 80.590910
883.500000 80.961062
883.500000 81.332054
883.500000 81.703886
883.500000 82.076558
883.500000 82.450071
883.500000 82.824424
883.500000 83.199618
883.500000 83.575651
883.500000 83.952525
883.500000 84.330239
883.500000 84.708794
883.500000 85.088189
883.500000 85.468424
883.500000 85.849499
883.500000 86.231415
883.500000 86.614171
883.500000 86.997768
883.500000 87.382204
883.500000 87.767481
883.500000 88.153598
883.500000 88.540556
883.500000 88.928354
883.500000 89.316992
883.500000 89.706470
883.500000 90.096789
883.500000 90.487948
883.500000 90.879947
883.500000 91.272787
883.500000 91.666467
883.500000 92.060987
883.500000 92.456348
883.500000 92.852548
883.500000 93.249590
883.500000 93.647471
883.500000 94.046193
883.500000 94.445755
883.500000 94.846157
883.500000 95.247400
883.500000 95.649483
883.500000 96.052406
883.500000 96.456169
883.500000 96.860773
883.500000 97.266217
883.500000 97.672502
883.500000 98.079626
883.500000 98.487591
883.500000 98.896397
883.500000 99.306042
883.500000 99.716528
883.500000 100.127854
883.500000 100.540021
883.500000 100.953028
883.500000 101.366875
883.500000 101.781562
883.500000 102.197090
883.500000 102.613458
883.500000 103.030666
883.500000 103.448715
883.500000 103.867603
883.500000 104.287333
883.500000 104.707902
883.500000 105.129312
883.500000 105.551562
883.500000 105.974652
883.500000 106.398583
883.500000 106.823354
883.500000 107.248965
883.500000 107.675417
883.500000 108.102709
883.500000 108.530841
883.500000 108.959813
883.500000 109.389626
883.500000 109.820279
883.500000 110.251773
883.500000 110.684106
883.500000 111.117280
883.500000 111.551294
883.500000 111.986149
883.500000 112.421844
883.500000 112.858379
883.500000 113.295754
883.500000 113.733970
883.500000 114.173026
883.500000 114.612923
883.500000 115.053659
883.500000 115.495236
883.500000 115.937653
883.500000 116.380911
883.500000 116.825009
883.500000 117.269947
883.500000 117.715725
883.500000 118.162344
883.500000 118.609803
883.500000 119.058103
883.500000 119.507242
883.500000 119.957222
883.500000 120.408042
883.500000 120.859703
883.500000 121.312204
883.500000 121.765545
883.500000 122.219726
883.500000 122.674748
883.500000 123.130610
883.500000 123.587312
883.500000 124.044855
883.500000 124.503238
883.500000 124.962461
883.500000 125.422525
883.500000 125.883428
883.500000 126.345173
883.500000 126.807757
883.500000 127.271182
883.500000 127.735447
883.500000 128.200552
883.500000 128.666498
883.500000 129.133283
883.500000 129.600910
883.500000 130.069376
883.500000 130.538683
883.500000 131.008830
883.500000 131.479818
883.500000 131.951645
883.500000 132.424313
883.500000 132.897821
883.500000 133.372170
883.500000 133.847359
883.500000 134.323388
883.500000 134.800258
883.500000 135.277967
883.500000 135.756518
883.500000 136.235908
883.500000 136.716139
883.500000 137.197210
883.500000 137.679121
883.500000 138.161872
883.500000 138.645464
883.500000 139.129897
883.500000 139.615169
883.500000 140.101282
883.500000 140.588235
883.500000 141.076028
883.500000 141.564662
883.500000 142.054136
883.500000 142.544450
883.500000 143.035605
883.500000 143.527600
883.500000 144.020435
883.500000 144.514110
883.500000 145.008626
883.500000 145.503982
883.500000 146.000178
883.500000 146.497215
883.500000 146.995092
883.500000 147.493809
883.500000 147.993367
883.500000 148.493765
883.500000 148.995003
883.500000 149.497081
883.500000 150.000000
</POINTS>
</NEKTAR>

