<?xml version="1.0" encoding="utf-8" ?>
<NEKTAR>
<POINTS DIM="2" FIELDS="">
563.500000 -0.750000
563.500000 -0.749580
563.500000 -0.748319
563.500000 -0.746219
563.500000 -0.743278
563.500000 -0.739496
563.500000 -0.734875
563.500000 -0.729413
563.500000 -0.723110
563.500000 -0.715968
563.500000 -0.707985
563.500000 -0.699162
563.500000 -0.689498
563.500000 -0.678995
563.500000 -0.667651
563.500000 -0.655466
563.500000 -0.642442
563.500000 -0.628577
563.500000 -0.613872
563.500000 -0.598326
563.500000 -0.581940
563.500000 -0.564714
563.500000 -0.546648
563.500000 -0.527741
563.500000 -0.507994
563.500000 -0.487407
563.500000 -0.465979
563.500000 -0.443711
563.500000 -0.420603
563.500000 -0.396654
563.500000 -0.371866
563.500000 -0.346236
563.500000 -0.319767
563.500000 -0.292457
563.500000 -0.264307
563.500000 -0.235317
563.500000 -0.205486
563.500000 -0.174816
563.500000 -0.143304
563.500000 -0.110953
563.500000 -0.077761
563.500000 -0.043729
563.500000 -0.008857
563.500000 0.026856
563.500000 0.063409
563.500000 0.100802
563.500000 0.139036
563.500000 0.178110
563.500000 0.218024
563.500000 0.258779
563.500000 0.300373
563.500000 0.342808
563.500000 0.386084
563.500000 0.430199
563.500000 0.475155
563.500000 0.520952
563.500000 0.567588
563.500000 0.615065
563.500000 0.663382
563.500000 0.712540
563.500000 0.762538
563.500000 0.813376
563.500000 0.865054
563.500000 0.917573
563.500000 0.970932
563.500000 1.025131
563.500000 1.080170
563.500000 1.136050
563.500000 1.192771
563.500000 1.250331
563.500000 1.308732
563.500000 1.367973
563.500000 1.428054
563.500000 1.488976
563.500000 1.550738
563.500000 1.613340
563.500000 1.676783
563.500000 1.741065
563.500000 1.806189
563.500000 1.872152
563.500000 1.938956
563.500000 2.006600
563.500000 2.075084
563.500000 2.144409
563.500000 2.214574
563.500000 2.285579
563.500000 2.357424
563.500000 2.430110
563.500000 2.503636
563.500000 2.578003
563.500000 2.653210
563.500000 2.729257
563.500000 2.806144
563.500000 2.883872
563.500000 2.962439
563.500000 3.041848
563.500000 3.122096
563.500000 3.203185
563.500000 3.285114
563.500000 3.367884
563.500000 3.451493
563.500000 3.535943
563.500000 3.621234
563.500000 3.707364
563.500000 3.794335
563.500000 3.882146
563.500000 3.970798
563.500000 4.060290
563.500000 4.150622
563.500000 4.241794
563.500000 4.333807
563.500000 4.426660
563.500000 4.520353
563.500000 4.614887
563.500000 4.710261
563.500000 4.806475
563.500000 4.903529
563.500000 5.001424
563.500000 5.100159
563.500000 5.199735
563.500000 5.300150
563.500000 5.401406
563.500000 5.503503
563.500000 5.606439
563.500000 5.710216
563.500000 5.814833
563.500000 5.920291
563.500000 6.026589
563.500000 6.133727
563.500000 6.241705
563.500000 6.350524
563.500000 6.460183
563.500000 6.570682
563.500000 6.682022
563.500000 6.794201
563.500000 6.907222
563.500000 7.021082
563.500000 7.135783
563.500000 7.251324
563.500000 7.367705
563.500000 7.484927
563.500000 7.602989
563.500000 7.721891
563.500000 7.841634
563.500000 7.962217
563.500000 8.083640
563.500000 8.205903
563.500000 8.329007
563.500000 8.452951
563.500000 8.577735
563.500000 8.703360
563.500000 8.829825
563.500000 8.957130
563.500000 9.085276
563.500000 9.214262
563.500000 9.344088
563.500000 9.474754
563.500000 9.606261
563.500000 9.738608
563.500000 9.871795
563.500000 10.005823
563.500000 10.140691
563.500000 10.276399
563.500000 10.412948
563.500000 10.550336
563.500000 10.688566
563.500000 10.827635
563.500000 10.967545
563.500000 11.108295
563.500000 11.249885
563.500000 11.392316
563.500000 11.535587
563.500000 11.679698
563.500000 11.824649
563.500000 11.970441
563.500000 12.117073
563.500000 12.264546
563.500000 12.412858
563.500000 12.562011
563.500000 12.712005
563.500000 12.862838
563.500000 13.014512
563.500000 13.167026
563.500000 13.320381
563.500000 13.474576
563.500000 13.629611
563.500000 13.785486
563.500000 13.942202
563.500000 14.099758
563.500000 14.258154
563.500000 14.417391
563.500000 14.577468
563.500000 14.738385
563.500000 14.900142
563.500000 15.062740
563.500000 15.226178
563.500000 15.390457
563.500000 15.555575
563.500000 15.721534
563.500000 15.888334
563.500000 16.055973
563.500000 16.224453
563.500000 16.393773
563.500000 16.563934
563.500000 16.734935
563.500000 16.906776
563.500000 17.079457
563.500000 17.252979
563.500000 17.427341
563.500000 17.602543
563.500000 17.778585
563.500000 17.955468
563.500000 18.133192
563.500000 18.311755
563.500000 18.491159
563.500000 18.671403
563.500000 18.852487
563.500000 19.034412
563.500000 19.217177
563.500000 19.400782
563.500000 19.585228
563.500000 19.770513
563.500000 19.956640
563.500000 20.143606
563.500000 20.331413
563.500000 20.520060
563.500000 20.709547
563.500000 20.899875
563.500000 21.091043
563.500000 21.283051
563.500000 21.475900
563.500000 21.669588
563.500000 21.864118
563.500000 22.059487
563.500000 22.255697
563.500000 22.452747
563.500000 22.650637
563.500000 22.849368
563.500000 23.048939
563.500000 23.249350
563.500000 23.450601
563.500000 23.652693
563.500000 23.855625
563.500000 24.059398
563.500000 24.264011
563.500000 24.469464
563.500000 24.675757
563.500000 24.882891
563.500000 25.090864
563.500000 25.299679
563.500000 25.509333
563.500000 25.719828
563.500000 25.931163
563.500000 26.143339
563.500000 26.356354
563.500000 26.570210
563.500000 26.784907
563.500000 27.000443
563.500000 27.216820
563.500000 27.434037
563.500000 27.652095
563.500000 27.870993
563.500000 28.090731
563.500000 28.311309
563.500000 28.532728
563.500000 28.754987
563.500000 28.978086
563.500000 29.202026
563.500000 29.426806
563.500000 29.652426
563.500000 29.878886
563.500000 30.106187
563.500000 30.334328
563.500000 30.563309
563.500000 30.793131
563.500000 31.023793
563.500000 31.255295
563.500000 31.487638
563.500000 31.720821
563.500000 31.954844
563.500000 32.189708
563.500000 32.425411
563.500000 32.661955
563.500000 32.899340
563.500000 33.137564
563.500000 33.376629
563.500000 33.616535
563.500000 33.857280
563.500000 34.098866
563.500000 34.341292
563.500000 34.584559
563.500000 34.828665
563.500000 35.073613
563.500000 35.319400
563.500000 35.566028
563.500000 35.813496
563.500000 36.061804
563.500000 36.310952
563.500000 36.560941
563.500000 36.811770
563.500000 37.063440
563.500000 37.315950
563.500000 37.569300
563.500000 37.823490
563.500000 38.078521
563.500000 38.334391
563.500000 38.591103
563.500000 38.848654
563.500000 39.107046
563.500000 39.366278
563.500000 39.626351
563.500000 39.887263
563.500000 40.149016
563.500000 40.411610
563.500000 40.675043
563.500000 40.939317
563.500000 41.204432
563.500000 41.470386
563.500000 41.737181
563.500000 42.004816
563.500000 42.273291
563.500000 42.542607
563.500000 42.812763
563.500000 43.083760
563.500000 43.355596
563.500000 43.628273
563.500000 43.901790
563.500000 44.176148
563.500000 44.451346
563.500000 44.727384
563.500000 45.004262
563.500000 45.281981
563.500000 45.560540
563.500000 45.839939
563.500000 46.120179
563.500000 46.401259
563.500000 46.683179
563.500000 46.965939
563.500000 47.249540
563.500000 47.533981
563.500000 47.819263
563.500000 48.105384
563.500000 48.392346
563.500000 48.680149
563.500000 48.968791
563.500000 49.258274
563.500000 49.548597
563.500000 49.839761
563.500000 50.131765
563.500000 50.424609
563.500000 50.718293
563.500000 51.012818
563.500000 51.308183
563.500000 51.604388
563.500000 51.901434
563.500000 52.199319
563.500000 52.498046
563.500000 52.797612
563.500000 53.098019
563.500000 53.399266
563.500000 53.701353
563.500000 54.004281
563.500000 54.308049
563.500000 54.612657
563.500000 54.918106
563.500000 55.224395
563.500000 55.531524
563.500000 55.839493
563.500000 56.148303
563.500000 56.457953
563.500000 56.768443
563.500000 57.079774
563.500000 57.391945
563.500000 57.704956
563.500000 58.018808
563.500000 58.333500
563.500000 58.649032
563.500000 58.965404
563.500000 59.282617
563.500000 59.600670
563.500000 59.919563
563.500000 60.239297
563.500000 60.559871
563.500000 60.881285
563.500000 61.203540
563.500000 61.526635
563.500000 61.850570
563.500000 62.175345
563.500000 62.500961
563.500000 62.827417
563.500000 63.154713
563.500000 63.482850
563.500000 63.811827
563.500000 64.141644
563.500000 64.472301
563.500000 64.803799
563.500000 65.136137
563.500000 65.469316
563.500000 65.803335
563.500000 66.138194
563.500000 66.473893
563.500000 66.810433
563.500000 67.147812
563.500000 67.486033
563.500000 67.825093
563.500000 68.164994
563.500000 68.505735
563.500000 68.847316
563.500000 69.189738
563.500000 69.533000
563.500000 69.877102
563.500000 70.222045
563.500000 70.567828
563.500000 70.914451
563.500000 71.261915
563.500000 71.610218
563.500000 71.959363
563.500000 72.309347
563.500000 72.660172
563.500000 73.011837
563.500000 73.364342
563.500000 73.717688
563.500000 74.071873
563.500000 74.426900
563.500000 74.782766
563.500000 75.139473
563.500000 75.497020
563.500000 75.855407
563.500000 76.214635
563.500000 76.574703
563.500000 76.935611
563.500000 77.297360
563.500000 77.659949
563.500000 78.023378
563.500000 78.387647
563.500000 78.752757
563.500000 79.118707
563.500000 79.485498
563.500000 79.853128
563.500000 80.221599
563.500000 80.590910
563.500000 80.961062
563.500000 81.332054
563.500000 81.703886
563.500000 82.076558
563.500000 82.450071
563.500000 82.824424
563.500000 83.199618
563.500000 83.575651
563.500000 83.952525
563.500000 84.330239
563.500000 84.708794
563.500000 85.088189
563.500000 85.468424
563.500000 85.849499
563.500000 86.231415
563.500000 86.614171
563.500000 86.997768
563.500000 87.382204
563.500000 87.767481
563.500000 88.153598
563.500000 88.540556
563.500000 88.928354
563.500000 89.316992
563.500000 89.706470
563.500000 90.096789
563.500000 90.487948
563.500000 90.879947
563.500000 91.272787
563.500000 91.666467
563.500000 92.060987
563.500000 92.456348
563.500000 92.852548
563.500000 93.249590
563.500000 93.647471
563.500000 94.046193
563.500000 94.445755
563.500000 94.846157
563.500000 95.247400
563.500000 95.649483
563.500000 96.052406
563.500000 96.456169
563.500000 96.860773
563.500000 97.266217
563.500000 97.672502
563.500000 98.079626
563.500000 98.487591
563.500000 98.896397
563.500000 99.306042
563.500000 99.716528
563.500000 100.127854
563.500000 100.540021
563.500000 100.953028
563.500000 101.366875
563.500000 101.781562
563.500000 102.197090
563.500000 102.613458
563.500000 103.030666
563.500000 103.448715
563.500000 103.867603
563.500000 104.287333
563.500000 104.707902
563.500000 105.129312
563.500000 105.551562
563.500000 105.974652
563.500000 106.398583
563.500000 106.823354
563.500000 107.248965
563.500000 107.675417
563.500000 108.102709
563.500000 108.530841
563.500000 108.959813
563.500000 109.389626
563.500000 109.820279
563.500000 110.251773
563.500000 110.684106
563.500000 111.117280
563.500000 111.551294
563.500000 111.986149
563.500000 112.421844
563.500000 112.858379
563.500000 113.295754
563.500000 113.733970
563.500000 114.173026
563.500000 114.612923
563.500000 115.053659
563.500000 115.495236
563.500000 115.937653
563.500000 116.380911
563.500000 116.825009
563.500000 117.269947
563.500000 117.715725
563.500000 118.162344
563.500000 118.609803
563.500000 119.058103
563.500000 119.507242
563.500000 119.957222
563.500000 120.408042
563.500000 120.859703
563.500000 121.312204
563.500000 121.765545
563.500000 122.219726
563.500000 122.674748
563.500000 123.130610
563.500000 123.587312
563.500000 124.044855
563.500000 124.503238
563.500000 124.962461
563.500000 125.422525
563.500000 125.883428
563.500000 126.345173
563.500000 126.807757
563.500000 127.271182
563.500000 127.735447
563.500000 128.200552
563.500000 128.666498
563.500000 129.133283
563.500000 129.600910
563.500000 130.069376
563.500000 130.538683
563.500000 131.008830
563.500000 131.479818
563.500000 131.951645
563.500000 132.424313
563.500000 132.897821
563.500000 133.372170
563.500000 133.847359
563.500000 134.323388
563.500000 134.800258
563.500000 135.277967
563.500000 135.756518
563.500000 136.235908
563.500000 136.716139
563.500000 137.197210
563.500000 137.679121
563.500000 138.161872
563.500000 138.645464
563.500000 139.129897
563.500000 139.615169
563.500000 140.101282
563.500000 140.588235
563.500000 141.076028
563.500000 141.564662
563.500000 142.054136
563.500000 142.544450
563.500000 143.035605
563.500000 143.527600
563.500000 144.020435
563.500000 144.514110
563.500000 145.008626
563.500000 145.503982
563.500000 146.000178
563.500000 146.497215
563.500000 146.995092
563.500000 147.493809
563.500000 147.993367
563.500000 148.493765
563.500000 148.995003
563.500000 149.497081
563.500000 150.000000
</POINTS>
</NEKTAR>

