<?xml version="1.0" encoding="utf-8" ?>
<NEKTAR>
<POINTS DIM="2" FIELDS="">
783.500000 -0.750000
783.500000 -0.749580
783.500000 -0.748319
783.500000 -0.746219
783.500000 -0.743278
783.500000 -0.739496
783.500000 -0.734875
783.500000 -0.729413
783.500000 -0.723110
783.500000 -0.715968
783.500000 -0.707985
783.500000 -0.699162
783.500000 -0.689498
783.500000 -0.678995
783.500000 -0.667651
783.500000 -0.655466
783.500000 -0.642442
783.500000 -0.628577
783.500000 -0.613872
783.500000 -0.598326
783.500000 -0.581940
783.500000 -0.564714
783.500000 -0.546648
783.500000 -0.527741
783.500000 -0.507994
783.500000 -0.487407
783.500000 -0.465979
783.500000 -0.443711
783.500000 -0.420603
783.500000 -0.396654
783.500000 -0.371866
783.500000 -0.346236
783.500000 -0.319767
783.500000 -0.292457
783.500000 -0.264307
783.500000 -0.235317
783.500000 -0.205486
783.500000 -0.174816
783.500000 -0.143304
783.500000 -0.110953
783.500000 -0.077761
783.500000 -0.043729
783.500000 -0.008857
783.500000 0.026856
783.500000 0.063409
783.500000 0.100802
783.500000 0.139036
783.500000 0.178110
783.500000 0.218024
783.500000 0.258779
783.500000 0.300373
783.500000 0.342808
783.500000 0.386084
783.500000 0.430199
783.500000 0.475155
783.500000 0.520952
783.500000 0.567588
783.500000 0.615065
783.500000 0.663382
783.500000 0.712540
783.500000 0.762538
783.500000 0.813376
783.500000 0.865054
783.500000 0.917573
783.500000 0.970932
783.500000 1.025131
783.500000 1.080170
783.500000 1.136050
783.500000 1.192771
783.500000 1.250331
783.500000 1.308732
783.500000 1.367973
783.500000 1.428054
783.500000 1.488976
783.500000 1.550738
783.500000 1.613340
783.500000 1.676783
783.500000 1.741065
783.500000 1.806189
783.500000 1.872152
783.500000 1.938956
783.500000 2.006600
783.500000 2.075084
783.500000 2.144409
783.500000 2.214574
783.500000 2.285579
783.500000 2.357424
783.500000 2.430110
783.500000 2.503636
783.500000 2.578003
783.500000 2.653210
783.500000 2.729257
783.500000 2.806144
783.500000 2.883872
783.500000 2.962439
783.500000 3.041848
783.500000 3.122096
783.500000 3.203185
783.500000 3.285114
783.500000 3.367884
783.500000 3.451493
783.500000 3.535943
783.500000 3.621234
783.500000 3.707364
783.500000 3.794335
783.500000 3.882146
783.500000 3.970798
783.500000 4.060290
783.500000 4.150622
783.500000 4.241794
783.500000 4.333807
783.500000 4.426660
783.500000 4.520353
783.500000 4.614887
783.500000 4.710261
783.500000 4.806475
783.500000 4.903529
783.500000 5.001424
783.500000 5.100159
783.500000 5.199735
783.500000 5.300150
783.500000 5.401406
783.500000 5.503503
783.500000 5.606439
783.500000 5.710216
783.500000 5.814833
783.500000 5.920291
783.500000 6.026589
783.500000 6.133727
783.500000 6.241705
783.500000 6.350524
783.500000 6.460183
783.500000 6.570682
783.500000 6.682022
783.500000 6.794201
783.500000 6.907222
783.500000 7.021082
783.500000 7.135783
783.500000 7.251324
783.500000 7.367705
783.500000 7.484927
783.500000 7.602989
783.500000 7.721891
783.500000 7.841634
783.500000 7.962217
783.500000 8.083640
783.500000 8.205903
783.500000 8.329007
783.500000 8.452951
783.500000 8.577735
783.500000 8.703360
783.500000 8.829825
783.500000 8.957130
783.500000 9.085276
783.500000 9.214262
783.500000 9.344088
783.500000 9.474754
783.500000 9.606261
783.500000 9.738608
783.500000 9.871795
783.500000 10.005823
783.500000 10.140691
783.500000 10.276399
783.500000 10.412948
783.500000 10.550336
783.500000 10.688566
783.500000 10.827635
783.500000 10.967545
783.500000 11.108295
783.500000 11.249885
783.500000 11.392316
783.500000 11.535587
783.500000 11.679698
783.500000 11.824649
783.500000 11.970441
783.500000 12.117073
783.500000 12.264546
783.500000 12.412858
783.500000 12.562011
783.500000 12.712005
783.500000 12.862838
783.500000 13.014512
783.500000 13.167026
783.500000 13.320381
783.500000 13.474576
783.500000 13.629611
783.500000 13.785486
783.500000 13.942202
783.500000 14.099758
783.500000 14.258154
783.500000 14.417391
783.500000 14.577468
783.500000 14.738385
783.500000 14.900142
783.500000 15.062740
783.500000 15.226178
783.500000 15.390457
783.500000 15.555575
783.500000 15.721534
783.500000 15.888334
783.500000 16.055973
783.500000 16.224453
783.500000 16.393773
783.500000 16.563934
783.500000 16.734935
783.500000 16.906776
783.500000 17.079457
783.500000 17.252979
783.500000 17.427341
783.500000 17.602543
783.500000 17.778585
783.500000 17.955468
783.500000 18.133192
783.500000 18.311755
783.500000 18.491159
783.500000 18.671403
783.500000 18.852487
783.500000 19.034412
783.500000 19.217177
783.500000 19.400782
783.500000 19.585228
783.500000 19.770513
783.500000 19.956640
783.500000 20.143606
783.500000 20.331413
783.500000 20.520060
783.500000 20.709547
783.500000 20.899875
783.500000 21.091043
783.500000 21.283051
783.500000 21.475900
783.500000 21.669588
783.500000 21.864118
783.500000 22.059487
783.500000 22.255697
783.500000 22.452747
783.500000 22.650637
783.500000 22.849368
783.500000 23.048939
783.500000 23.249350
783.500000 23.450601
783.500000 23.652693
783.500000 23.855625
783.500000 24.059398
783.500000 24.264011
783.500000 24.469464
783.500000 24.675757
783.500000 24.882891
783.500000 25.090864
783.500000 25.299679
783.500000 25.509333
783.500000 25.719828
783.500000 25.931163
783.500000 26.143339
783.500000 26.356354
783.500000 26.570210
783.500000 26.784907
783.500000 27.000443
783.500000 27.216820
783.500000 27.434037
783.500000 27.652095
783.500000 27.870993
783.500000 28.090731
783.500000 28.311309
783.500000 28.532728
783.500000 28.754987
783.500000 28.978086
783.500000 29.202026
783.500000 29.426806
783.500000 29.652426
783.500000 29.878886
783.500000 30.106187
783.500000 30.334328
783.500000 30.563309
783.500000 30.793131
783.500000 31.023793
783.500000 31.255295
783.500000 31.487638
783.500000 31.720821
783.500000 31.954844
783.500000 32.189708
783.500000 32.425411
783.500000 32.661955
783.500000 32.899340
783.500000 33.137564
783.500000 33.376629
783.500000 33.616535
783.500000 33.857280
783.500000 34.098866
783.500000 34.341292
783.500000 34.584559
783.500000 34.828665
783.500000 35.073613
783.500000 35.319400
783.500000 35.566028
783.500000 35.813496
783.500000 36.061804
783.500000 36.310952
783.500000 36.560941
783.500000 36.811770
783.500000 37.063440
783.500000 37.315950
783.500000 37.569300
783.500000 37.823490
783.500000 38.078521
783.500000 38.334391
783.500000 38.591103
783.500000 38.848654
783.500000 39.107046
783.500000 39.366278
783.500000 39.626351
783.500000 39.887263
783.500000 40.149016
783.500000 40.411610
783.500000 40.675043
783.500000 40.939317
783.500000 41.204432
783.500000 41.470386
783.500000 41.737181
783.500000 42.004816
783.500000 42.273291
783.500000 42.542607
783.500000 42.812763
783.500000 43.083760
783.500000 43.355596
783.500000 43.628273
783.500000 43.901790
783.500000 44.176148
783.500000 44.451346
783.500000 44.727384
783.500000 45.004262
783.500000 45.281981
783.500000 45.560540
783.500000 45.839939
783.500000 46.120179
783.500000 46.401259
783.500000 46.683179
783.500000 46.965939
783.500000 47.249540
783.500000 47.533981
783.500000 47.819263
783.500000 48.105384
783.500000 48.392346
783.500000 48.680149
783.500000 48.968791
783.500000 49.258274
783.500000 49.548597
783.500000 49.839761
783.500000 50.131765
783.500000 50.424609
783.500000 50.718293
783.500000 51.012818
783.500000 51.308183
783.500000 51.604388
783.500000 51.901434
783.500000 52.199319
783.500000 52.498046
783.500000 52.797612
783.500000 53.098019
783.500000 53.399266
783.500000 53.701353
783.500000 54.004281
783.500000 54.308049
783.500000 54.612657
783.500000 54.918106
783.500000 55.224395
783.500000 55.531524
783.500000 55.839493
783.500000 56.148303
783.500000 56.457953
783.500000 56.768443
783.500000 57.079774
783.500000 57.391945
783.500000 57.704956
783.500000 58.018808
783.500000 58.333500
783.500000 58.649032
783.500000 58.965404
783.500000 59.282617
783.500000 59.600670
783.500000 59.919563
783.500000 60.239297
783.500000 60.559871
783.500000 60.881285
783.500000 61.203540
783.500000 61.526635
783.500000 61.850570
783.500000 62.175345
783.500000 62.500961
783.500000 62.827417
783.500000 63.154713
783.500000 63.482850
783.500000 63.811827
783.500000 64.141644
783.500000 64.472301
783.500000 64.803799
783.500000 65.136137
783.500000 65.469316
783.500000 65.803335
783.500000 66.138194
783.500000 66.473893
783.500000 66.810433
783.500000 67.147812
783.500000 67.486033
783.500000 67.825093
783.500000 68.164994
783.500000 68.505735
783.500000 68.847316
783.500000 69.189738
783.500000 69.533000
783.500000 69.877102
783.500000 70.222045
783.500000 70.567828
783.500000 70.914451
783.500000 71.261915
783.500000 71.610218
783.500000 71.959363
783.500000 72.309347
783.500000 72.660172
783.500000 73.011837
783.500000 73.364342
783.500000 73.717688
783.500000 74.071873
783.500000 74.426900
783.500000 74.782766
783.500000 75.139473
783.500000 75.497020
783.500000 75.855407
783.500000 76.214635
783.500000 76.574703
783.500000 76.935611
783.500000 77.297360
783.500000 77.659949
783.500000 78.023378
783.500000 78.387647
783.500000 78.752757
783.500000 79.118707
783.500000 79.485498
783.500000 79.853128
783.500000 80.221599
783.500000 80.590910
783.500000 80.961062
783.500000 81.332054
783.500000 81.703886
783.500000 82.076558
783.500000 82.450071
783.500000 82.824424
783.500000 83.199618
783.500000 83.575651
783.500000 83.952525
783.500000 84.330239
783.500000 84.708794
783.500000 85.088189
783.500000 85.468424
783.500000 85.849499
783.500000 86.231415
783.500000 86.614171
783.500000 86.997768
783.500000 87.382204
783.500000 87.767481
783.500000 88.153598
783.500000 88.540556
783.500000 88.928354
783.500000 89.316992
783.500000 89.706470
783.500000 90.096789
783.500000 90.487948
783.500000 90.879947
783.500000 91.272787
783.500000 91.666467
783.500000 92.060987
783.500000 92.456348
783.500000 92.852548
783.500000 93.249590
783.500000 93.647471
783.500000 94.046193
783.500000 94.445755
783.500000 94.846157
783.500000 95.247400
783.500000 95.649483
783.500000 96.052406
783.500000 96.456169
783.500000 96.860773
783.500000 97.266217
783.500000 97.672502
783.500000 98.079626
783.500000 98.487591
783.500000 98.896397
783.500000 99.306042
783.500000 99.716528
783.500000 100.127854
783.500000 100.540021
783.500000 100.953028
783.500000 101.366875
783.500000 101.781562
783.500000 102.197090
783.500000 102.613458
783.500000 103.030666
783.500000 103.448715
783.500000 103.867603
783.500000 104.287333
783.500000 104.707902
783.500000 105.129312
783.500000 105.551562
783.500000 105.974652
783.500000 106.398583
783.500000 106.823354
783.500000 107.248965
783.500000 107.675417
783.500000 108.102709
783.500000 108.530841
783.500000 108.959813
783.500000 109.389626
783.500000 109.820279
783.500000 110.251773
783.500000 110.684106
783.500000 111.117280
783.500000 111.551294
783.500000 111.986149
783.500000 112.421844
783.500000 112.858379
783.500000 113.295754
783.500000 113.733970
783.500000 114.173026
783.500000 114.612923
783.500000 115.053659
783.500000 115.495236
783.500000 115.937653
783.500000 116.380911
783.500000 116.825009
783.500000 117.269947
783.500000 117.715725
783.500000 118.162344
783.500000 118.609803
783.500000 119.058103
783.500000 119.507242
783.500000 119.957222
783.500000 120.408042
783.500000 120.859703
783.500000 121.312204
783.500000 121.765545
783.500000 122.219726
783.500000 122.674748
783.500000 123.130610
783.500000 123.587312
783.500000 124.044855
783.500000 124.503238
783.500000 124.962461
783.500000 125.422525
783.500000 125.883428
783.500000 126.345173
783.500000 126.807757
783.500000 127.271182
783.500000 127.735447
783.500000 128.200552
783.500000 128.666498
783.500000 129.133283
783.500000 129.600910
783.500000 130.069376
783.500000 130.538683
783.500000 131.008830
783.500000 131.479818
783.500000 131.951645
783.500000 132.424313
783.500000 132.897821
783.500000 133.372170
783.500000 133.847359
783.500000 134.323388
783.500000 134.800258
783.500000 135.277967
783.500000 135.756518
783.500000 136.235908
783.500000 136.716139
783.500000 137.197210
783.500000 137.679121
783.500000 138.161872
783.500000 138.645464
783.500000 139.129897
783.500000 139.615169
783.500000 140.101282
783.500000 140.588235
783.500000 141.076028
783.500000 141.564662
783.500000 142.054136
783.500000 142.544450
783.500000 143.035605
783.500000 143.527600
783.500000 144.020435
783.500000 144.514110
783.500000 145.008626
783.500000 145.503982
783.500000 146.000178
783.500000 146.497215
783.500000 146.995092
783.500000 147.493809
783.500000 147.993367
783.500000 148.493765
783.500000 148.995003
783.500000 149.497081
783.500000 150.000000
</POINTS>
</NEKTAR>

