<?xml version="1.0" encoding="utf-8" ?>
<NEKTAR>
<POINTS DIM="2" FIELDS="">
183.500000 -0.750000
183.500000 -0.749580
183.500000 -0.748319
183.500000 -0.746219
183.500000 -0.743278
183.500000 -0.739496
183.500000 -0.734875
183.500000 -0.729413
183.500000 -0.723110
183.500000 -0.715968
183.500000 -0.707985
183.500000 -0.699162
183.500000 -0.689498
183.500000 -0.678995
183.500000 -0.667651
183.500000 -0.655466
183.500000 -0.642442
183.500000 -0.628577
183.500000 -0.613872
183.500000 -0.598326
183.500000 -0.581940
183.500000 -0.564714
183.500000 -0.546648
183.500000 -0.527741
183.500000 -0.507994
183.500000 -0.487407
183.500000 -0.465979
183.500000 -0.443711
183.500000 -0.420603
183.500000 -0.396654
183.500000 -0.371866
183.500000 -0.346236
183.500000 -0.319767
183.500000 -0.292457
183.500000 -0.264307
183.500000 -0.235317
183.500000 -0.205486
183.500000 -0.174816
183.500000 -0.143304
183.500000 -0.110953
183.500000 -0.077761
183.500000 -0.043729
183.500000 -0.008857
183.500000 0.026856
183.500000 0.063409
183.500000 0.100802
183.500000 0.139036
183.500000 0.178110
183.500000 0.218024
183.500000 0.258779
183.500000 0.300373
183.500000 0.342808
183.500000 0.386084
183.500000 0.430199
183.500000 0.475155
183.500000 0.520952
183.500000 0.567588
183.500000 0.615065
183.500000 0.663382
183.500000 0.712540
183.500000 0.762538
183.500000 0.813376
183.500000 0.865054
183.500000 0.917573
183.500000 0.970932
183.500000 1.025131
183.500000 1.080170
183.500000 1.136050
183.500000 1.192771
183.500000 1.250331
183.500000 1.308732
183.500000 1.367973
183.500000 1.428054
183.500000 1.488976
183.500000 1.550738
183.500000 1.613340
183.500000 1.676783
183.500000 1.741065
183.500000 1.806189
183.500000 1.872152
183.500000 1.938956
183.500000 2.006600
183.500000 2.075084
183.500000 2.144409
183.500000 2.214574
183.500000 2.285579
183.500000 2.357424
183.500000 2.430110
183.500000 2.503636
183.500000 2.578003
183.500000 2.653210
183.500000 2.729257
183.500000 2.806144
183.500000 2.883872
183.500000 2.962439
183.500000 3.041848
183.500000 3.122096
183.500000 3.203185
183.500000 3.285114
183.500000 3.367884
183.500000 3.451493
183.500000 3.535943
183.500000 3.621234
183.500000 3.707364
183.500000 3.794335
183.500000 3.882146
183.500000 3.970798
183.500000 4.060290
183.500000 4.150622
183.500000 4.241794
183.500000 4.333807
183.500000 4.426660
183.500000 4.520353
183.500000 4.614887
183.500000 4.710261
183.500000 4.806475
183.500000 4.903529
183.500000 5.001424
183.500000 5.100159
183.500000 5.199735
183.500000 5.300150
183.500000 5.401406
183.500000 5.503503
183.500000 5.606439
183.500000 5.710216
183.500000 5.814833
183.500000 5.920291
183.500000 6.026589
183.500000 6.133727
183.500000 6.241705
183.500000 6.350524
183.500000 6.460183
183.500000 6.570682
183.500000 6.682022
183.500000 6.794201
183.500000 6.907222
183.500000 7.021082
183.500000 7.135783
183.500000 7.251324
183.500000 7.367705
183.500000 7.484927
183.500000 7.602989
183.500000 7.721891
183.500000 7.841634
183.500000 7.962217
183.500000 8.083640
183.500000 8.205903
183.500000 8.329007
183.500000 8.452951
183.500000 8.577735
183.500000 8.703360
183.500000 8.829825
183.500000 8.957130
183.500000 9.085276
183.500000 9.214262
183.500000 9.344088
183.500000 9.474754
183.500000 9.606261
183.500000 9.738608
183.500000 9.871795
183.500000 10.005823
183.500000 10.140691
183.500000 10.276399
183.500000 10.412948
183.500000 10.550336
183.500000 10.688566
183.500000 10.827635
183.500000 10.967545
183.500000 11.108295
183.500000 11.249885
183.500000 11.392316
183.500000 11.535587
183.500000 11.679698
183.500000 11.824649
183.500000 11.970441
183.500000 12.117073
183.500000 12.264546
183.500000 12.412858
183.500000 12.562011
183.500000 12.712005
183.500000 12.862838
183.500000 13.014512
183.500000 13.167026
183.500000 13.320381
183.500000 13.474576
183.500000 13.629611
183.500000 13.785486
183.500000 13.942202
183.500000 14.099758
183.500000 14.258154
183.500000 14.417391
183.500000 14.577468
183.500000 14.738385
183.500000 14.900142
183.500000 15.062740
183.500000 15.226178
183.500000 15.390457
183.500000 15.555575
183.500000 15.721534
183.500000 15.888334
183.500000 16.055973
183.500000 16.224453
183.500000 16.393773
183.500000 16.563934
183.500000 16.734935
183.500000 16.906776
183.500000 17.079457
183.500000 17.252979
183.500000 17.427341
183.500000 17.602543
183.500000 17.778585
183.500000 17.955468
183.500000 18.133192
183.500000 18.311755
183.500000 18.491159
183.500000 18.671403
183.500000 18.852487
183.500000 19.034412
183.500000 19.217177
183.500000 19.400782
183.500000 19.585228
183.500000 19.770513
183.500000 19.956640
183.500000 20.143606
183.500000 20.331413
183.500000 20.520060
183.500000 20.709547
183.500000 20.899875
183.500000 21.091043
183.500000 21.283051
183.500000 21.475900
183.500000 21.669588
183.500000 21.864118
183.500000 22.059487
183.500000 22.255697
183.500000 22.452747
183.500000 22.650637
183.500000 22.849368
183.500000 23.048939
183.500000 23.249350
183.500000 23.450601
183.500000 23.652693
183.500000 23.855625
183.500000 24.059398
183.500000 24.264011
183.500000 24.469464
183.500000 24.675757
183.500000 24.882891
183.500000 25.090864
183.500000 25.299679
183.500000 25.509333
183.500000 25.719828
183.500000 25.931163
183.500000 26.143339
183.500000 26.356354
183.500000 26.570210
183.500000 26.784907
183.500000 27.000443
183.500000 27.216820
183.500000 27.434037
183.500000 27.652095
183.500000 27.870993
183.500000 28.090731
183.500000 28.311309
183.500000 28.532728
183.500000 28.754987
183.500000 28.978086
183.500000 29.202026
183.500000 29.426806
183.500000 29.652426
183.500000 29.878886
183.500000 30.106187
183.500000 30.334328
183.500000 30.563309
183.500000 30.793131
183.500000 31.023793
183.500000 31.255295
183.500000 31.487638
183.500000 31.720821
183.500000 31.954844
183.500000 32.189708
183.500000 32.425411
183.500000 32.661955
183.500000 32.899340
183.500000 33.137564
183.500000 33.376629
183.500000 33.616535
183.500000 33.857280
183.500000 34.098866
183.500000 34.341292
183.500000 34.584559
183.500000 34.828665
183.500000 35.073613
183.500000 35.319400
183.500000 35.566028
183.500000 35.813496
183.500000 36.061804
183.500000 36.310952
183.500000 36.560941
183.500000 36.811770
183.500000 37.063440
183.500000 37.315950
183.500000 37.569300
183.500000 37.823490
183.500000 38.078521
183.500000 38.334391
183.500000 38.591103
183.500000 38.848654
183.500000 39.107046
183.500000 39.366278
183.500000 39.626351
183.500000 39.887263
183.500000 40.149016
183.500000 40.411610
183.500000 40.675043
183.500000 40.939317
183.500000 41.204432
183.500000 41.470386
183.500000 41.737181
183.500000 42.004816
183.500000 42.273291
183.500000 42.542607
183.500000 42.812763
183.500000 43.083760
183.500000 43.355596
183.500000 43.628273
183.500000 43.901790
183.500000 44.176148
183.500000 44.451346
183.500000 44.727384
183.500000 45.004262
183.500000 45.281981
183.500000 45.560540
183.500000 45.839939
183.500000 46.120179
183.500000 46.401259
183.500000 46.683179
183.500000 46.965939
183.500000 47.249540
183.500000 47.533981
183.500000 47.819263
183.500000 48.105384
183.500000 48.392346
183.500000 48.680149
183.500000 48.968791
183.500000 49.258274
183.500000 49.548597
183.500000 49.839761
183.500000 50.131765
183.500000 50.424609
183.500000 50.718293
183.500000 51.012818
183.500000 51.308183
183.500000 51.604388
183.500000 51.901434
183.500000 52.199319
183.500000 52.498046
183.500000 52.797612
183.500000 53.098019
183.500000 53.399266
183.500000 53.701353
183.500000 54.004281
183.500000 54.308049
183.500000 54.612657
183.500000 54.918106
183.500000 55.224395
183.500000 55.531524
183.500000 55.839493
183.500000 56.148303
183.500000 56.457953
183.500000 56.768443
183.500000 57.079774
183.500000 57.391945
183.500000 57.704956
183.500000 58.018808
183.500000 58.333500
183.500000 58.649032
183.500000 58.965404
183.500000 59.282617
183.500000 59.600670
183.500000 59.919563
183.500000 60.239297
183.500000 60.559871
183.500000 60.881285
183.500000 61.203540
183.500000 61.526635
183.500000 61.850570
183.500000 62.175345
183.500000 62.500961
183.500000 62.827417
183.500000 63.154713
183.500000 63.482850
183.500000 63.811827
183.500000 64.141644
183.500000 64.472301
183.500000 64.803799
183.500000 65.136137
183.500000 65.469316
183.500000 65.803335
183.500000 66.138194
183.500000 66.473893
183.500000 66.810433
183.500000 67.147812
183.500000 67.486033
183.500000 67.825093
183.500000 68.164994
183.500000 68.505735
183.500000 68.847316
183.500000 69.189738
183.500000 69.533000
183.500000 69.877102
183.500000 70.222045
183.500000 70.567828
183.500000 70.914451
183.500000 71.261915
183.500000 71.610218
183.500000 71.959363
183.500000 72.309347
183.500000 72.660172
183.500000 73.011837
183.500000 73.364342
183.500000 73.717688
183.500000 74.071873
183.500000 74.426900
183.500000 74.782766
183.500000 75.139473
183.500000 75.497020
183.500000 75.855407
183.500000 76.214635
183.500000 76.574703
183.500000 76.935611
183.500000 77.297360
183.500000 77.659949
183.500000 78.023378
183.500000 78.387647
183.500000 78.752757
183.500000 79.118707
183.500000 79.485498
183.500000 79.853128
183.500000 80.221599
183.500000 80.590910
183.500000 80.961062
183.500000 81.332054
183.500000 81.703886
183.500000 82.076558
183.500000 82.450071
183.500000 82.824424
183.500000 83.199618
183.500000 83.575651
183.500000 83.952525
183.500000 84.330239
183.500000 84.708794
183.500000 85.088189
183.500000 85.468424
183.500000 85.849499
183.500000 86.231415
183.500000 86.614171
183.500000 86.997768
183.500000 87.382204
183.500000 87.767481
183.500000 88.153598
183.500000 88.540556
183.500000 88.928354
183.500000 89.316992
183.500000 89.706470
183.500000 90.096789
183.500000 90.487948
183.500000 90.879947
183.500000 91.272787
183.500000 91.666467
183.500000 92.060987
183.500000 92.456348
183.500000 92.852548
183.500000 93.249590
183.500000 93.647471
183.500000 94.046193
183.500000 94.445755
183.500000 94.846157
183.500000 95.247400
183.500000 95.649483
183.500000 96.052406
183.500000 96.456169
183.500000 96.860773
183.500000 97.266217
183.500000 97.672502
183.500000 98.079626
183.500000 98.487591
183.500000 98.896397
183.500000 99.306042
183.500000 99.716528
183.500000 100.127854
183.500000 100.540021
183.500000 100.953028
183.500000 101.366875
183.500000 101.781562
183.500000 102.197090
183.500000 102.613458
183.500000 103.030666
183.500000 103.448715
183.500000 103.867603
183.500000 104.287333
183.500000 104.707902
183.500000 105.129312
183.500000 105.551562
183.500000 105.974652
183.500000 106.398583
183.500000 106.823354
183.500000 107.248965
183.500000 107.675417
183.500000 108.102709
183.500000 108.530841
183.500000 108.959813
183.500000 109.389626
183.500000 109.820279
183.500000 110.251773
183.500000 110.684106
183.500000 111.117280
183.500000 111.551294
183.500000 111.986149
183.500000 112.421844
183.500000 112.858379
183.500000 113.295754
183.500000 113.733970
183.500000 114.173026
183.500000 114.612923
183.500000 115.053659
183.500000 115.495236
183.500000 115.937653
183.500000 116.380911
183.500000 116.825009
183.500000 117.269947
183.500000 117.715725
183.500000 118.162344
183.500000 118.609803
183.500000 119.058103
183.500000 119.507242
183.500000 119.957222
183.500000 120.408042
183.500000 120.859703
183.500000 121.312204
183.500000 121.765545
183.500000 122.219726
183.500000 122.674748
183.500000 123.130610
183.500000 123.587312
183.500000 124.044855
183.500000 124.503238
183.500000 124.962461
183.500000 125.422525
183.500000 125.883428
183.500000 126.345173
183.500000 126.807757
183.500000 127.271182
183.500000 127.735447
183.500000 128.200552
183.500000 128.666498
183.500000 129.133283
183.500000 129.600910
183.500000 130.069376
183.500000 130.538683
183.500000 131.008830
183.500000 131.479818
183.500000 131.951645
183.500000 132.424313
183.500000 132.897821
183.500000 133.372170
183.500000 133.847359
183.500000 134.323388
183.500000 134.800258
183.500000 135.277967
183.500000 135.756518
183.500000 136.235908
183.500000 136.716139
183.500000 137.197210
183.500000 137.679121
183.500000 138.161872
183.500000 138.645464
183.500000 139.129897
183.500000 139.615169
183.500000 140.101282
183.500000 140.588235
183.500000 141.076028
183.500000 141.564662
183.500000 142.054136
183.500000 142.544450
183.500000 143.035605
183.500000 143.527600
183.500000 144.020435
183.500000 144.514110
183.500000 145.008626
183.500000 145.503982
183.500000 146.000178
183.500000 146.497215
183.500000 146.995092
183.500000 147.493809
183.500000 147.993367
183.500000 148.493765
183.500000 148.995003
183.500000 149.497081
183.500000 150.000000
</POINTS>
</NEKTAR>

