<?xml version="1.0" encoding="utf-8" ?>
<NEKTAR>
<POINTS DIM="2" FIELDS="">
562.500000 0.000000
562.500000 0.000418
562.500000 0.001672
562.500000 0.003763
562.500000 0.006689
562.500000 0.010451
562.500000 0.015050
562.500000 0.020485
562.500000 0.026756
562.500000 0.033863
562.500000 0.041806
562.500000 0.050585
562.500000 0.060201
562.500000 0.070652
562.500000 0.081940
562.500000 0.094063
562.500000 0.107023
562.500000 0.120819
562.500000 0.135451
562.500000 0.150919
562.500000 0.167224
562.500000 0.184364
562.500000 0.202341
562.500000 0.221153
562.500000 0.240802
562.500000 0.261287
562.500000 0.282608
562.500000 0.304765
562.500000 0.327758
562.500000 0.351588
562.500000 0.376253
562.500000 0.401755
562.500000 0.428092
562.500000 0.455266
562.500000 0.483276
562.500000 0.512122
562.500000 0.541805
562.500000 0.572323
562.500000 0.603677
562.500000 0.635868
562.500000 0.668894
562.500000 0.702757
562.500000 0.737456
562.500000 0.772991
562.500000 0.809362
562.500000 0.846570
562.500000 0.884613
562.500000 0.923492
562.500000 0.963208
562.500000 1.003760
562.500000 1.045148
562.500000 1.087372
562.500000 1.130432
562.500000 1.174328
562.500000 1.219060
562.500000 1.264629
562.500000 1.311033
562.500000 1.358274
562.500000 1.406351
562.500000 1.455264
562.500000 1.505013
562.500000 1.555598
562.500000 1.607019
562.500000 1.659276
562.500000 1.712370
562.500000 1.766299
562.500000 1.821065
562.500000 1.876667
562.500000 1.933105
562.500000 1.990379
562.500000 2.048489
562.500000 2.107436
562.500000 2.167218
562.500000 2.227837
562.500000 2.289291
562.500000 2.351582
562.500000 2.414709
562.500000 2.478672
562.500000 2.543471
562.500000 2.609106
562.500000 2.675578
562.500000 2.742885
562.500000 2.811029
562.500000 2.880009
562.500000 2.949825
562.500000 3.020477
562.500000 3.091965
562.500000 3.164289
562.500000 3.237449
562.500000 3.311446
562.500000 3.386278
562.500000 3.461947
562.500000 3.538452
562.500000 3.615793
562.500000 3.693970
562.500000 3.772983
562.500000 3.852832
562.500000 3.933517
562.500000 4.015039
562.500000 4.097397
562.500000 4.180590
562.500000 4.264620
562.500000 4.349486
562.500000 4.435188
562.500000 4.521727
562.500000 4.609101
562.500000 4.697311
562.500000 4.786358
562.500000 4.876241
562.500000 4.966959
562.500000 5.058514
562.500000 5.150905
562.500000 5.244133
562.500000 5.338196
562.500000 5.433095
562.500000 5.528831
562.500000 5.625402
562.500000 5.722810
562.500000 5.821054
562.500000 5.920134
562.500000 6.020050
562.500000 6.120802
562.500000 6.222391
562.500000 6.324815
562.500000 6.428076
562.500000 6.532172
562.500000 6.637105
562.500000 6.742874
562.500000 6.849479
562.500000 6.956920
562.500000 7.065198
562.500000 7.174311
562.500000 7.284261
562.500000 7.395046
562.500000 7.506668
562.500000 7.619126
562.500000 7.732420
562.500000 7.846550
562.500000 7.961516
562.500000 8.077319
562.500000 8.193957
562.500000 8.311432
562.500000 8.429742
562.500000 8.548889
562.500000 8.668872
562.500000 8.789691
562.500000 8.911346
562.500000 9.033838
562.500000 9.157165
562.500000 9.281329
562.500000 9.406328
562.500000 9.532164
562.500000 9.658836
562.500000 9.786344
562.500000 9.914688
562.500000 10.043868
562.500000 10.173885
562.500000 10.304737
562.500000 10.436426
562.500000 10.568950
562.500000 10.702311
562.500000 10.836508
562.500000 10.971541
562.500000 11.107411
562.500000 11.244116
562.500000 11.381657
562.500000 11.520035
562.500000 11.659248
562.500000 11.799298
562.500000 11.940184
562.500000 12.081906
562.500000 12.224464
562.500000 12.367859
562.500000 12.512089
562.500000 12.657155
562.500000 12.803058
562.500000 12.949797
562.500000 13.097372
562.500000 13.245782
562.500000 13.395030
562.500000 13.545113
562.500000 13.696032
562.500000 13.847787
562.500000 14.000379
562.500000 14.153807
562.500000 14.308070
562.500000 14.463170
562.500000 14.619106
562.500000 14.775879
562.500000 14.933487
562.500000 15.091931
562.500000 15.251212
562.500000 15.411328
562.500000 15.572281
562.500000 15.734070
562.500000 15.896695
562.500000 16.060156
562.500000 16.224453
562.500000 16.389586
562.500000 16.555556
562.500000 16.722361
562.500000 16.890003
562.500000 17.058481
562.500000 17.227795
562.500000 17.397945
562.500000 17.568931
562.500000 17.740753
562.500000 17.913412
562.500000 18.086906
562.500000 18.261237
562.500000 18.436403
562.500000 18.612406
562.500000 18.789245
562.500000 18.966920
562.500000 19.145432
562.500000 19.324779
562.500000 19.504962
562.500000 19.685982
562.500000 19.867838
562.500000 20.050529
562.500000 20.234057
562.500000 20.418421
562.500000 20.603622
562.500000 20.789658
562.500000 20.976530
562.500000 21.164239
562.500000 21.352783
562.500000 21.542164
562.500000 21.732381
562.500000 21.923434
562.500000 22.115323
562.500000 22.308048
562.500000 22.501610
562.500000 22.696007
562.500000 22.891241
562.500000 23.087310
562.500000 23.284216
562.500000 23.481958
562.500000 23.680536
562.500000 23.879950
562.500000 24.080200
562.500000 24.281287
562.500000 24.483209
562.500000 24.685968
562.500000 24.889563
562.500000 25.093994
562.500000 25.299261
562.500000 25.505364
562.500000 25.712303
562.500000 25.920078
562.500000 26.128690
562.500000 26.338137
562.500000 26.548421
562.500000 26.759541
562.500000 26.971497
562.500000 27.184289
562.500000 27.397917
562.500000 27.612381
562.500000 27.827682
562.500000 28.043818
562.500000 28.260791
562.500000 28.478600
562.500000 28.697244
562.500000 28.916725
562.500000 29.137043
562.500000 29.358196
562.500000 29.580185
562.500000 29.803011
562.500000 30.026672
562.500000 30.251170
562.500000 30.476504
562.500000 30.702674
562.500000 30.929680
562.500000 31.157522
562.500000 31.386200
562.500000 31.615715
562.500000 31.846065
562.500000 32.077252
562.500000 32.309275
562.500000 32.542133
562.500000 32.775828
562.500000 33.010360
562.500000 33.245727
562.500000 33.481930
562.500000 33.718970
562.500000 33.956845
562.500000 34.195557
562.500000 34.435105
562.500000 34.675489
562.500000 34.916709
562.500000 35.158765
562.500000 35.401657
562.500000 35.645386
562.500000 35.889950
562.500000 36.135351
562.500000 36.381588
562.500000 36.628660
562.500000 36.876569
562.500000 37.125315
562.500000 37.374896
562.500000 37.625313
562.500000 37.876567
562.500000 38.128656
562.500000 38.381582
562.500000 38.635344
562.500000 38.889942
562.500000 39.145376
562.500000 39.401646
562.500000 39.658752
562.500000 39.916695
562.500000 40.175473
562.500000 40.435088
562.500000 40.695539
562.500000 40.956826
562.500000 41.218949
562.500000 41.481908
562.500000 41.745703
562.500000 42.010334
562.500000 42.275802
562.500000 42.542106
562.500000 42.809245
562.500000 43.077221
562.500000 43.346033
562.500000 43.615681
562.500000 43.886165
562.500000 44.157486
562.500000 44.429642
562.500000 44.702635
562.500000 44.976463
562.500000 45.251128
562.500000 45.526629
562.500000 45.802966
562.500000 46.080139
562.500000 46.358148
562.500000 46.636994
562.500000 46.916675
562.500000 47.197193
562.500000 47.478547
562.500000 47.760736
562.500000 48.043762
562.500000 48.327625
562.500000 48.612323
562.500000 48.897857
562.500000 49.184227
562.500000 49.471434
562.500000 49.759477
562.500000 50.048355
562.500000 50.338070
562.500000 50.628621
562.500000 50.920009
562.500000 51.212232
562.500000 51.505291
562.500000 51.799187
562.500000 52.093918
562.500000 52.389486
562.500000 52.685890
562.500000 52.983130
562.500000 53.281206
562.500000 53.580118
562.500000 53.879867
562.500000 54.180451
562.500000 54.481872
562.500000 54.784128
562.500000 55.087221
562.500000 55.391150
562.500000 55.695915
562.500000 56.001516
562.500000 56.307953
562.500000 56.615227
562.500000 56.923336
562.500000 57.232282
562.500000 57.542064
562.500000 57.852682
562.500000 58.164136
562.500000 58.476426
562.500000 58.789552
562.500000 59.103514
562.500000 59.418313
562.500000 59.733947
562.500000 60.050418
562.500000 60.367725
562.500000 60.685868
562.500000 61.004847
562.500000 61.324662
562.500000 61.645313
562.500000 61.966801
562.500000 62.289124
562.500000 62.612284
562.500000 62.936279
562.500000 63.261111
562.500000 63.586779
562.500000 63.913283
562.500000 64.240624
562.500000 64.568800
562.500000 64.897812
562.500000 65.227661
562.500000 65.558346
562.500000 65.889867
562.500000 66.222223
562.500000 66.555417
562.500000 66.889446
562.500000 67.224311
562.500000 67.560012
562.500000 67.896550
562.500000 68.233924
562.500000 68.572133
562.500000 68.911179
562.500000 69.251061
562.500000 69.591779
562.500000 69.933334
562.500000 70.275724
562.500000 70.618950
562.500000 70.963013
562.500000 71.307912
562.500000 71.653646
562.500000 72.000217
562.500000 72.347624
562.500000 72.695868
562.500000 73.044947
562.500000 73.394862
562.500000 73.745614
562.500000 74.097202
562.500000 74.449625
562.500000 74.802885
562.500000 75.156981
562.500000 75.511913
562.500000 75.867682
562.500000 76.224286
562.500000 76.581726
562.500000 76.940003
562.500000 77.299116
562.500000 77.659064
562.500000 78.019849
562.500000 78.381471
562.500000 78.743928
562.500000 79.107221
562.500000 79.471350
562.500000 79.836316
562.500000 80.202118
562.500000 80.568755
562.500000 80.936229
562.500000 81.304539
562.500000 81.673685
562.500000 82.043668
562.500000 82.414486
562.500000 82.786141
562.500000 83.158631
562.500000 83.531958
562.500000 83.906121
562.500000 84.281120
562.500000 84.656955
562.500000 85.033626
562.500000 85.411133
562.500000 85.789477
562.500000 86.168656
562.500000 86.548672
562.500000 86.929524
562.500000 87.311212
562.500000 87.693736
562.500000 88.077096
562.500000 88.461292
562.500000 88.846324
562.500000 89.232193
562.500000 89.618897
562.500000 90.006438
562.500000 90.394815
562.500000 90.784028
562.500000 91.174077
562.500000 91.564962
562.500000 91.956684
562.500000 92.349241
562.500000 92.742634
562.500000 93.136864
562.500000 93.531930
562.500000 93.927832
562.500000 94.324570
562.500000 94.722144
562.500000 95.120554
562.500000 95.519801
562.500000 95.919883
562.500000 96.320802
562.500000 96.722557
562.500000 97.125147
562.500000 97.528574
562.500000 97.932837
562.500000 98.337937
562.500000 98.743872
562.500000 99.150643
562.500000 99.558251
562.500000 99.966695
562.500000 100.375974
562.500000 100.786090
562.500000 101.197042
562.500000 101.608831
562.500000 102.021455
562.500000 102.434915
562.500000 102.849212
562.500000 103.264344
562.500000 103.680313
562.500000 104.097118
562.500000 104.514759
562.500000 104.933236
562.500000 105.352549
562.500000 105.772699
562.500000 106.193684
562.500000 106.615506
562.500000 107.038163
562.500000 107.461657
562.500000 107.885987
562.500000 108.311153
562.500000 108.737155
562.500000 109.163993
562.500000 109.591668
562.500000 110.020178
562.500000 110.449525
562.500000 110.879708
562.500000 111.310727
562.500000 111.742582
562.500000 112.175273
562.500000 112.608800
562.500000 113.043163
562.500000 113.478363
562.500000 113.914398
562.500000 114.351270
562.500000 114.788978
562.500000 115.227522
562.500000 115.666902
562.500000 116.107118
562.500000 116.548170
562.500000 116.990059
562.500000 117.432783
562.500000 117.876344
562.500000 118.320740
562.500000 118.765973
562.500000 119.212042
562.500000 119.658947
562.500000 120.106689
562.500000 120.555266
562.500000 121.004679
562.500000 121.454929
562.500000 121.906015
562.500000 122.357937
562.500000 122.810695
562.500000 123.264289
562.500000 123.718719
562.500000 124.173985
562.500000 124.630087
562.500000 125.087026
562.500000 125.544801
562.500000 126.003411
562.500000 126.462858
562.500000 126.923141
562.500000 127.384260
562.500000 127.846216
562.500000 128.309007
562.500000 128.772634
562.500000 129.237098
562.500000 129.702398
562.500000 130.168534
562.500000 130.635505
562.500000 131.103314
562.500000 131.571958
562.500000 132.041438
562.500000 132.511754
562.500000 132.982907
562.500000 133.454896
562.500000 133.927720
562.500000 134.401381
562.500000 134.875878
562.500000 135.351211
562.500000 135.827381
562.500000 136.304386
562.500000 136.782227
562.500000 137.260905
562.500000 137.740419
562.500000 138.220769
562.500000 138.701955
562.500000 139.183977
562.500000 139.666835
562.500000 140.150529
562.500000 140.635060
562.500000 141.120426
562.500000 141.606629
562.500000 142.093668
562.500000 142.581542
562.500000 143.070253
562.500000 143.559801
562.500000 144.050184
562.500000 144.541403
562.500000 145.033459
562.500000 145.526350
562.500000 146.020078
562.500000 146.514642
562.500000 147.010042
562.500000 147.506278
562.500000 148.003350
562.500000 148.501258
562.500000 149.000003
562.500000 149.499583
562.500000 150.000000
</POINTS>
</NEKTAR>

