<?xml version="1.0" encoding="utf-8" ?>
<NEKTAR>
<POINTS DIM="2" FIELDS="">
442.500000 0.000000
442.500000 0.000418
442.500000 0.001672
442.500000 0.003763
442.500000 0.006689
442.500000 0.010451
442.500000 0.015050
442.500000 0.020485
442.500000 0.026756
442.500000 0.033863
442.500000 0.041806
442.500000 0.050585
442.500000 0.060201
442.500000 0.070652
442.500000 0.081940
442.500000 0.094063
442.500000 0.107023
442.500000 0.120819
442.500000 0.135451
442.500000 0.150919
442.500000 0.167224
442.500000 0.184364
442.500000 0.202341
442.500000 0.221153
442.500000 0.240802
442.500000 0.261287
442.500000 0.282608
442.500000 0.304765
442.500000 0.327758
442.500000 0.351588
442.500000 0.376253
442.500000 0.401755
442.500000 0.428092
442.500000 0.455266
442.500000 0.483276
442.500000 0.512122
442.500000 0.541805
442.500000 0.572323
442.500000 0.603677
442.500000 0.635868
442.500000 0.668894
442.500000 0.702757
442.500000 0.737456
442.500000 0.772991
442.500000 0.809362
442.500000 0.846570
442.500000 0.884613
442.500000 0.923492
442.500000 0.963208
442.500000 1.003760
442.500000 1.045148
442.500000 1.087372
442.500000 1.130432
442.500000 1.174328
442.500000 1.219060
442.500000 1.264629
442.500000 1.311033
442.500000 1.358274
442.500000 1.406351
442.500000 1.455264
442.500000 1.505013
442.500000 1.555598
442.500000 1.607019
442.500000 1.659276
442.500000 1.712370
442.500000 1.766299
442.500000 1.821065
442.500000 1.876667
442.500000 1.933105
442.500000 1.990379
442.500000 2.048489
442.500000 2.107436
442.500000 2.167218
442.500000 2.227837
442.500000 2.289291
442.500000 2.351582
442.500000 2.414709
442.500000 2.478672
442.500000 2.543471
442.500000 2.609106
442.500000 2.675578
442.500000 2.742885
442.500000 2.811029
442.500000 2.880009
442.500000 2.949825
442.500000 3.020477
442.500000 3.091965
442.500000 3.164289
442.500000 3.237449
442.500000 3.311446
442.500000 3.386278
442.500000 3.461947
442.500000 3.538452
442.500000 3.615793
442.500000 3.693970
442.500000 3.772983
442.500000 3.852832
442.500000 3.933517
442.500000 4.015039
442.500000 4.097397
442.500000 4.180590
442.500000 4.264620
442.500000 4.349486
442.500000 4.435188
442.500000 4.521727
442.500000 4.609101
442.500000 4.697311
442.500000 4.786358
442.500000 4.876241
442.500000 4.966959
442.500000 5.058514
442.500000 5.150905
442.500000 5.244133
442.500000 5.338196
442.500000 5.433095
442.500000 5.528831
442.500000 5.625402
442.500000 5.722810
442.500000 5.821054
442.500000 5.920134
442.500000 6.020050
442.500000 6.120802
442.500000 6.222391
442.500000 6.324815
442.500000 6.428076
442.500000 6.532172
442.500000 6.637105
442.500000 6.742874
442.500000 6.849479
442.500000 6.956920
442.500000 7.065198
442.500000 7.174311
442.500000 7.284261
442.500000 7.395046
442.500000 7.506668
442.500000 7.619126
442.500000 7.732420
442.500000 7.846550
442.500000 7.961516
442.500000 8.077319
442.500000 8.193957
442.500000 8.311432
442.500000 8.429742
442.500000 8.548889
442.500000 8.668872
442.500000 8.789691
442.500000 8.911346
442.500000 9.033838
442.500000 9.157165
442.500000 9.281329
442.500000 9.406328
442.500000 9.532164
442.500000 9.658836
442.500000 9.786344
442.500000 9.914688
442.500000 10.043868
442.500000 10.173885
442.500000 10.304737
442.500000 10.436426
442.500000 10.568950
442.500000 10.702311
442.500000 10.836508
442.500000 10.971541
442.500000 11.107411
442.500000 11.244116
442.500000 11.381657
442.500000 11.520035
442.500000 11.659248
442.500000 11.799298
442.500000 11.940184
442.500000 12.081906
442.500000 12.224464
442.500000 12.367859
442.500000 12.512089
442.500000 12.657155
442.500000 12.803058
442.500000 12.949797
442.500000 13.097372
442.500000 13.245782
442.500000 13.395030
442.500000 13.545113
442.500000 13.696032
442.500000 13.847787
442.500000 14.000379
442.500000 14.153807
442.500000 14.308070
442.500000 14.463170
442.500000 14.619106
442.500000 14.775879
442.500000 14.933487
442.500000 15.091931
442.500000 15.251212
442.500000 15.411328
442.500000 15.572281
442.500000 15.734070
442.500000 15.896695
442.500000 16.060156
442.500000 16.224453
442.500000 16.389586
442.500000 16.555556
442.500000 16.722361
442.500000 16.890003
442.500000 17.058481
442.500000 17.227795
442.500000 17.397945
442.500000 17.568931
442.500000 17.740753
442.500000 17.913412
442.500000 18.086906
442.500000 18.261237
442.500000 18.436403
442.500000 18.612406
442.500000 18.789245
442.500000 18.966920
442.500000 19.145432
442.500000 19.324779
442.500000 19.504962
442.500000 19.685982
442.500000 19.867838
442.500000 20.050529
442.500000 20.234057
442.500000 20.418421
442.500000 20.603622
442.500000 20.789658
442.500000 20.976530
442.500000 21.164239
442.500000 21.352783
442.500000 21.542164
442.500000 21.732381
442.500000 21.923434
442.500000 22.115323
442.500000 22.308048
442.500000 22.501610
442.500000 22.696007
442.500000 22.891241
442.500000 23.087310
442.500000 23.284216
442.500000 23.481958
442.500000 23.680536
442.500000 23.879950
442.500000 24.080200
442.500000 24.281287
442.500000 24.483209
442.500000 24.685968
442.500000 24.889563
442.500000 25.093994
442.500000 25.299261
442.500000 25.505364
442.500000 25.712303
442.500000 25.920078
442.500000 26.128690
442.500000 26.338137
442.500000 26.548421
442.500000 26.759541
442.500000 26.971497
442.500000 27.184289
442.500000 27.397917
442.500000 27.612381
442.500000 27.827682
442.500000 28.043818
442.500000 28.260791
442.500000 28.478600
442.500000 28.697244
442.500000 28.916725
442.500000 29.137043
442.500000 29.358196
442.500000 29.580185
442.500000 29.803011
442.500000 30.026672
442.500000 30.251170
442.500000 30.476504
442.500000 30.702674
442.500000 30.929680
442.500000 31.157522
442.500000 31.386200
442.500000 31.615715
442.500000 31.846065
442.500000 32.077252
442.500000 32.309275
442.500000 32.542133
442.500000 32.775828
442.500000 33.010360
442.500000 33.245727
442.500000 33.481930
442.500000 33.718970
442.500000 33.956845
442.500000 34.195557
442.500000 34.435105
442.500000 34.675489
442.500000 34.916709
442.500000 35.158765
442.500000 35.401657
442.500000 35.645386
442.500000 35.889950
442.500000 36.135351
442.500000 36.381588
442.500000 36.628660
442.500000 36.876569
442.500000 37.125315
442.500000 37.374896
442.500000 37.625313
442.500000 37.876567
442.500000 38.128656
442.500000 38.381582
442.500000 38.635344
442.500000 38.889942
442.500000 39.145376
442.500000 39.401646
442.500000 39.658752
442.500000 39.916695
442.500000 40.175473
442.500000 40.435088
442.500000 40.695539
442.500000 40.956826
442.500000 41.218949
442.500000 41.481908
442.500000 41.745703
442.500000 42.010334
442.500000 42.275802
442.500000 42.542106
442.500000 42.809245
442.500000 43.077221
442.500000 43.346033
442.500000 43.615681
442.500000 43.886165
442.500000 44.157486
442.500000 44.429642
442.500000 44.702635
442.500000 44.976463
442.500000 45.251128
442.500000 45.526629
442.500000 45.802966
442.500000 46.080139
442.500000 46.358148
442.500000 46.636994
442.500000 46.916675
442.500000 47.197193
442.500000 47.478547
442.500000 47.760736
442.500000 48.043762
442.500000 48.327625
442.500000 48.612323
442.500000 48.897857
442.500000 49.184227
442.500000 49.471434
442.500000 49.759477
442.500000 50.048355
442.500000 50.338070
442.500000 50.628621
442.500000 50.920009
442.500000 51.212232
442.500000 51.505291
442.500000 51.799187
442.500000 52.093918
442.500000 52.389486
442.500000 52.685890
442.500000 52.983130
442.500000 53.281206
442.500000 53.580118
442.500000 53.879867
442.500000 54.180451
442.500000 54.481872
442.500000 54.784128
442.500000 55.087221
442.500000 55.391150
442.500000 55.695915
442.500000 56.001516
442.500000 56.307953
442.500000 56.615227
442.500000 56.923336
442.500000 57.232282
442.500000 57.542064
442.500000 57.852682
442.500000 58.164136
442.500000 58.476426
442.500000 58.789552
442.500000 59.103514
442.500000 59.418313
442.500000 59.733947
442.500000 60.050418
442.500000 60.367725
442.500000 60.685868
442.500000 61.004847
442.500000 61.324662
442.500000 61.645313
442.500000 61.966801
442.500000 62.289124
442.500000 62.612284
442.500000 62.936279
442.500000 63.261111
442.500000 63.586779
442.500000 63.913283
442.500000 64.240624
442.500000 64.568800
442.500000 64.897812
442.500000 65.227661
442.500000 65.558346
442.500000 65.889867
442.500000 66.222223
442.500000 66.555417
442.500000 66.889446
442.500000 67.224311
442.500000 67.560012
442.500000 67.896550
442.500000 68.233924
442.500000 68.572133
442.500000 68.911179
442.500000 69.251061
442.500000 69.591779
442.500000 69.933334
442.500000 70.275724
442.500000 70.618950
442.500000 70.963013
442.500000 71.307912
442.500000 71.653646
442.500000 72.000217
442.500000 72.347624
442.500000 72.695868
442.500000 73.044947
442.500000 73.394862
442.500000 73.745614
442.500000 74.097202
442.500000 74.449625
442.500000 74.802885
442.500000 75.156981
442.500000 75.511913
442.500000 75.867682
442.500000 76.224286
442.500000 76.581726
442.500000 76.940003
442.500000 77.299116
442.500000 77.659064
442.500000 78.019849
442.500000 78.381471
442.500000 78.743928
442.500000 79.107221
442.500000 79.471350
442.500000 79.836316
442.500000 80.202118
442.500000 80.568755
442.500000 80.936229
442.500000 81.304539
442.500000 81.673685
442.500000 82.043668
442.500000 82.414486
442.500000 82.786141
442.500000 83.158631
442.500000 83.531958
442.500000 83.906121
442.500000 84.281120
442.500000 84.656955
442.500000 85.033626
442.500000 85.411133
442.500000 85.789477
442.500000 86.168656
442.500000 86.548672
442.500000 86.929524
442.500000 87.311212
442.500000 87.693736
442.500000 88.077096
442.500000 88.461292
442.500000 88.846324
442.500000 89.232193
442.500000 89.618897
442.500000 90.006438
442.500000 90.394815
442.500000 90.784028
442.500000 91.174077
442.500000 91.564962
442.500000 91.956684
442.500000 92.349241
442.500000 92.742634
442.500000 93.136864
442.500000 93.531930
442.500000 93.927832
442.500000 94.324570
442.500000 94.722144
442.500000 95.120554
442.500000 95.519801
442.500000 95.919883
442.500000 96.320802
442.500000 96.722557
442.500000 97.125147
442.500000 97.528574
442.500000 97.932837
442.500000 98.337937
442.500000 98.743872
442.500000 99.150643
442.500000 99.558251
442.500000 99.966695
442.500000 100.375974
442.500000 100.786090
442.500000 101.197042
442.500000 101.608831
442.500000 102.021455
442.500000 102.434915
442.500000 102.849212
442.500000 103.264344
442.500000 103.680313
442.500000 104.097118
442.500000 104.514759
442.500000 104.933236
442.500000 105.352549
442.500000 105.772699
442.500000 106.193684
442.500000 106.615506
442.500000 107.038163
442.500000 107.461657
442.500000 107.885987
442.500000 108.311153
442.500000 108.737155
442.500000 109.163993
442.500000 109.591668
442.500000 110.020178
442.500000 110.449525
442.500000 110.879708
442.500000 111.310727
442.500000 111.742582
442.500000 112.175273
442.500000 112.608800
442.500000 113.043163
442.500000 113.478363
442.500000 113.914398
442.500000 114.351270
442.500000 114.788978
442.500000 115.227522
442.500000 115.666902
442.500000 116.107118
442.500000 116.548170
442.500000 116.990059
442.500000 117.432783
442.500000 117.876344
442.500000 118.320740
442.500000 118.765973
442.500000 119.212042
442.500000 119.658947
442.500000 120.106689
442.500000 120.555266
442.500000 121.004679
442.500000 121.454929
442.500000 121.906015
442.500000 122.357937
442.500000 122.810695
442.500000 123.264289
442.500000 123.718719
442.500000 124.173985
442.500000 124.630087
442.500000 125.087026
442.500000 125.544801
442.500000 126.003411
442.500000 126.462858
442.500000 126.923141
442.500000 127.384260
442.500000 127.846216
442.500000 128.309007
442.500000 128.772634
442.500000 129.237098
442.500000 129.702398
442.500000 130.168534
442.500000 130.635505
442.500000 131.103314
442.500000 131.571958
442.500000 132.041438
442.500000 132.511754
442.500000 132.982907
442.500000 133.454896
442.500000 133.927720
442.500000 134.401381
442.500000 134.875878
442.500000 135.351211
442.500000 135.827381
442.500000 136.304386
442.500000 136.782227
442.500000 137.260905
442.500000 137.740419
442.500000 138.220769
442.500000 138.701955
442.500000 139.183977
442.500000 139.666835
442.500000 140.150529
442.500000 140.635060
442.500000 141.120426
442.500000 141.606629
442.500000 142.093668
442.500000 142.581542
442.500000 143.070253
442.500000 143.559801
442.500000 144.050184
442.500000 144.541403
442.500000 145.033459
442.500000 145.526350
442.500000 146.020078
442.500000 146.514642
442.500000 147.010042
442.500000 147.506278
442.500000 148.003350
442.500000 148.501258
442.500000 149.000003
442.500000 149.499583
442.500000 150.000000
</POINTS>
</NEKTAR>

