<?xml version="1.0" encoding="utf-8" ?>
<NEKTAR>
<POINTS DIM="2" FIELDS="">
282.500000 0.000000
282.500000 0.000418
282.500000 0.001672
282.500000 0.003763
282.500000 0.006689
282.500000 0.010451
282.500000 0.015050
282.500000 0.020485
282.500000 0.026756
282.500000 0.033863
282.500000 0.041806
282.500000 0.050585
282.500000 0.060201
282.500000 0.070652
282.500000 0.081940
282.500000 0.094063
282.500000 0.107023
282.500000 0.120819
282.500000 0.135451
282.500000 0.150919
282.500000 0.167224
282.500000 0.184364
282.500000 0.202341
282.500000 0.221153
282.500000 0.240802
282.500000 0.261287
282.500000 0.282608
282.500000 0.304765
282.500000 0.327758
282.500000 0.351588
282.500000 0.376253
282.500000 0.401755
282.500000 0.428092
282.500000 0.455266
282.500000 0.483276
282.500000 0.512122
282.500000 0.541805
282.500000 0.572323
282.500000 0.603677
282.500000 0.635868
282.500000 0.668894
282.500000 0.702757
282.500000 0.737456
282.500000 0.772991
282.500000 0.809362
282.500000 0.846570
282.500000 0.884613
282.500000 0.923492
282.500000 0.963208
282.500000 1.003760
282.500000 1.045148
282.500000 1.087372
282.500000 1.130432
282.500000 1.174328
282.500000 1.219060
282.500000 1.264629
282.500000 1.311033
282.500000 1.358274
282.500000 1.406351
282.500000 1.455264
282.500000 1.505013
282.500000 1.555598
282.500000 1.607019
282.500000 1.659276
282.500000 1.712370
282.500000 1.766299
282.500000 1.821065
282.500000 1.876667
282.500000 1.933105
282.500000 1.990379
282.500000 2.048489
282.500000 2.107436
282.500000 2.167218
282.500000 2.227837
282.500000 2.289291
282.500000 2.351582
282.500000 2.414709
282.500000 2.478672
282.500000 2.543471
282.500000 2.609106
282.500000 2.675578
282.500000 2.742885
282.500000 2.811029
282.500000 2.880009
282.500000 2.949825
282.500000 3.020477
282.500000 3.091965
282.500000 3.164289
282.500000 3.237449
282.500000 3.311446
282.500000 3.386278
282.500000 3.461947
282.500000 3.538452
282.500000 3.615793
282.500000 3.693970
282.500000 3.772983
282.500000 3.852832
282.500000 3.933517
282.500000 4.015039
282.500000 4.097397
282.500000 4.180590
282.500000 4.264620
282.500000 4.349486
282.500000 4.435188
282.500000 4.521727
282.500000 4.609101
282.500000 4.697311
282.500000 4.786358
282.500000 4.876241
282.500000 4.966959
282.500000 5.058514
282.500000 5.150905
282.500000 5.244133
282.500000 5.338196
282.500000 5.433095
282.500000 5.528831
282.500000 5.625402
282.500000 5.722810
282.500000 5.821054
282.500000 5.920134
282.500000 6.020050
282.500000 6.120802
282.500000 6.222391
282.500000 6.324815
282.500000 6.428076
282.500000 6.532172
282.500000 6.637105
282.500000 6.742874
282.500000 6.849479
282.500000 6.956920
282.500000 7.065198
282.500000 7.174311
282.500000 7.284261
282.500000 7.395046
282.500000 7.506668
282.500000 7.619126
282.500000 7.732420
282.500000 7.846550
282.500000 7.961516
282.500000 8.077319
282.500000 8.193957
282.500000 8.311432
282.500000 8.429742
282.500000 8.548889
282.500000 8.668872
282.500000 8.789691
282.500000 8.911346
282.500000 9.033838
282.500000 9.157165
282.500000 9.281329
282.500000 9.406328
282.500000 9.532164
282.500000 9.658836
282.500000 9.786344
282.500000 9.914688
282.500000 10.043868
282.500000 10.173885
282.500000 10.304737
282.500000 10.436426
282.500000 10.568950
282.500000 10.702311
282.500000 10.836508
282.500000 10.971541
282.500000 11.107411
282.500000 11.244116
282.500000 11.381657
282.500000 11.520035
282.500000 11.659248
282.500000 11.799298
282.500000 11.940184
282.500000 12.081906
282.500000 12.224464
282.500000 12.367859
282.500000 12.512089
282.500000 12.657155
282.500000 12.803058
282.500000 12.949797
282.500000 13.097372
282.500000 13.245782
282.500000 13.395030
282.500000 13.545113
282.500000 13.696032
282.500000 13.847787
282.500000 14.000379
282.500000 14.153807
282.500000 14.308070
282.500000 14.463170
282.500000 14.619106
282.500000 14.775879
282.500000 14.933487
282.500000 15.091931
282.500000 15.251212
282.500000 15.411328
282.500000 15.572281
282.500000 15.734070
282.500000 15.896695
282.500000 16.060156
282.500000 16.224453
282.500000 16.389586
282.500000 16.555556
282.500000 16.722361
282.500000 16.890003
282.500000 17.058481
282.500000 17.227795
282.500000 17.397945
282.500000 17.568931
282.500000 17.740753
282.500000 17.913412
282.500000 18.086906
282.500000 18.261237
282.500000 18.436403
282.500000 18.612406
282.500000 18.789245
282.500000 18.966920
282.500000 19.145432
282.500000 19.324779
282.500000 19.504962
282.500000 19.685982
282.500000 19.867838
282.500000 20.050529
282.500000 20.234057
282.500000 20.418421
282.500000 20.603622
282.500000 20.789658
282.500000 20.976530
282.500000 21.164239
282.500000 21.352783
282.500000 21.542164
282.500000 21.732381
282.500000 21.923434
282.500000 22.115323
282.500000 22.308048
282.500000 22.501610
282.500000 22.696007
282.500000 22.891241
282.500000 23.087310
282.500000 23.284216
282.500000 23.481958
282.500000 23.680536
282.500000 23.879950
282.500000 24.080200
282.500000 24.281287
282.500000 24.483209
282.500000 24.685968
282.500000 24.889563
282.500000 25.093994
282.500000 25.299261
282.500000 25.505364
282.500000 25.712303
282.500000 25.920078
282.500000 26.128690
282.500000 26.338137
282.500000 26.548421
282.500000 26.759541
282.500000 26.971497
282.500000 27.184289
282.500000 27.397917
282.500000 27.612381
282.500000 27.827682
282.500000 28.043818
282.500000 28.260791
282.500000 28.478600
282.500000 28.697244
282.500000 28.916725
282.500000 29.137043
282.500000 29.358196
282.500000 29.580185
282.500000 29.803011
282.500000 30.026672
282.500000 30.251170
282.500000 30.476504
282.500000 30.702674
282.500000 30.929680
282.500000 31.157522
282.500000 31.386200
282.500000 31.615715
282.500000 31.846065
282.500000 32.077252
282.500000 32.309275
282.500000 32.542133
282.500000 32.775828
282.500000 33.010360
282.500000 33.245727
282.500000 33.481930
282.500000 33.718970
282.500000 33.956845
282.500000 34.195557
282.500000 34.435105
282.500000 34.675489
282.500000 34.916709
282.500000 35.158765
282.500000 35.401657
282.500000 35.645386
282.500000 35.889950
282.500000 36.135351
282.500000 36.381588
282.500000 36.628660
282.500000 36.876569
282.500000 37.125315
282.500000 37.374896
282.500000 37.625313
282.500000 37.876567
282.500000 38.128656
282.500000 38.381582
282.500000 38.635344
282.500000 38.889942
282.500000 39.145376
282.500000 39.401646
282.500000 39.658752
282.500000 39.916695
282.500000 40.175473
282.500000 40.435088
282.500000 40.695539
282.500000 40.956826
282.500000 41.218949
282.500000 41.481908
282.500000 41.745703
282.500000 42.010334
282.500000 42.275802
282.500000 42.542106
282.500000 42.809245
282.500000 43.077221
282.500000 43.346033
282.500000 43.615681
282.500000 43.886165
282.500000 44.157486
282.500000 44.429642
282.500000 44.702635
282.500000 44.976463
282.500000 45.251128
282.500000 45.526629
282.500000 45.802966
282.500000 46.080139
282.500000 46.358148
282.500000 46.636994
282.500000 46.916675
282.500000 47.197193
282.500000 47.478547
282.500000 47.760736
282.500000 48.043762
282.500000 48.327625
282.500000 48.612323
282.500000 48.897857
282.500000 49.184227
282.500000 49.471434
282.500000 49.759477
282.500000 50.048355
282.500000 50.338070
282.500000 50.628621
282.500000 50.920009
282.500000 51.212232
282.500000 51.505291
282.500000 51.799187
282.500000 52.093918
282.500000 52.389486
282.500000 52.685890
282.500000 52.983130
282.500000 53.281206
282.500000 53.580118
282.500000 53.879867
282.500000 54.180451
282.500000 54.481872
282.500000 54.784128
282.500000 55.087221
282.500000 55.391150
282.500000 55.695915
282.500000 56.001516
282.500000 56.307953
282.500000 56.615227
282.500000 56.923336
282.500000 57.232282
282.500000 57.542064
282.500000 57.852682
282.500000 58.164136
282.500000 58.476426
282.500000 58.789552
282.500000 59.103514
282.500000 59.418313
282.500000 59.733947
282.500000 60.050418
282.500000 60.367725
282.500000 60.685868
282.500000 61.004847
282.500000 61.324662
282.500000 61.645313
282.500000 61.966801
282.500000 62.289124
282.500000 62.612284
282.500000 62.936279
282.500000 63.261111
282.500000 63.586779
282.500000 63.913283
282.500000 64.240624
282.500000 64.568800
282.500000 64.897812
282.500000 65.227661
282.500000 65.558346
282.500000 65.889867
282.500000 66.222223
282.500000 66.555417
282.500000 66.889446
282.500000 67.224311
282.500000 67.560012
282.500000 67.896550
282.500000 68.233924
282.500000 68.572133
282.500000 68.911179
282.500000 69.251061
282.500000 69.591779
282.500000 69.933334
282.500000 70.275724
282.500000 70.618950
282.500000 70.963013
282.500000 71.307912
282.500000 71.653646
282.500000 72.000217
282.500000 72.347624
282.500000 72.695868
282.500000 73.044947
282.500000 73.394862
282.500000 73.745614
282.500000 74.097202
282.500000 74.449625
282.500000 74.802885
282.500000 75.156981
282.500000 75.511913
282.500000 75.867682
282.500000 76.224286
282.500000 76.581726
282.500000 76.940003
282.500000 77.299116
282.500000 77.659064
282.500000 78.019849
282.500000 78.381471
282.500000 78.743928
282.500000 79.107221
282.500000 79.471350
282.500000 79.836316
282.500000 80.202118
282.500000 80.568755
282.500000 80.936229
282.500000 81.304539
282.500000 81.673685
282.500000 82.043668
282.500000 82.414486
282.500000 82.786141
282.500000 83.158631
282.500000 83.531958
282.500000 83.906121
282.500000 84.281120
282.500000 84.656955
282.500000 85.033626
282.500000 85.411133
282.500000 85.789477
282.500000 86.168656
282.500000 86.548672
282.500000 86.929524
282.500000 87.311212
282.500000 87.693736
282.500000 88.077096
282.500000 88.461292
282.500000 88.846324
282.500000 89.232193
282.500000 89.618897
282.500000 90.006438
282.500000 90.394815
282.500000 90.784028
282.500000 91.174077
282.500000 91.564962
282.500000 91.956684
282.500000 92.349241
282.500000 92.742634
282.500000 93.136864
282.500000 93.531930
282.500000 93.927832
282.500000 94.324570
282.500000 94.722144
282.500000 95.120554
282.500000 95.519801
282.500000 95.919883
282.500000 96.320802
282.500000 96.722557
282.500000 97.125147
282.500000 97.528574
282.500000 97.932837
282.500000 98.337937
282.500000 98.743872
282.500000 99.150643
282.500000 99.558251
282.500000 99.966695
282.500000 100.375974
282.500000 100.786090
282.500000 101.197042
282.500000 101.608831
282.500000 102.021455
282.500000 102.434915
282.500000 102.849212
282.500000 103.264344
282.500000 103.680313
282.500000 104.097118
282.500000 104.514759
282.500000 104.933236
282.500000 105.352549
282.500000 105.772699
282.500000 106.193684
282.500000 106.615506
282.500000 107.038163
282.500000 107.461657
282.500000 107.885987
282.500000 108.311153
282.500000 108.737155
282.500000 109.163993
282.500000 109.591668
282.500000 110.020178
282.500000 110.449525
282.500000 110.879708
282.500000 111.310727
282.500000 111.742582
282.500000 112.175273
282.500000 112.608800
282.500000 113.043163
282.500000 113.478363
282.500000 113.914398
282.500000 114.351270
282.500000 114.788978
282.500000 115.227522
282.500000 115.666902
282.500000 116.107118
282.500000 116.548170
282.500000 116.990059
282.500000 117.432783
282.500000 117.876344
282.500000 118.320740
282.500000 118.765973
282.500000 119.212042
282.500000 119.658947
282.500000 120.106689
282.500000 120.555266
282.500000 121.004679
282.500000 121.454929
282.500000 121.906015
282.500000 122.357937
282.500000 122.810695
282.500000 123.264289
282.500000 123.718719
282.500000 124.173985
282.500000 124.630087
282.500000 125.087026
282.500000 125.544801
282.500000 126.003411
282.500000 126.462858
282.500000 126.923141
282.500000 127.384260
282.500000 127.846216
282.500000 128.309007
282.500000 128.772634
282.500000 129.237098
282.500000 129.702398
282.500000 130.168534
282.500000 130.635505
282.500000 131.103314
282.500000 131.571958
282.500000 132.041438
282.500000 132.511754
282.500000 132.982907
282.500000 133.454896
282.500000 133.927720
282.500000 134.401381
282.500000 134.875878
282.500000 135.351211
282.500000 135.827381
282.500000 136.304386
282.500000 136.782227
282.500000 137.260905
282.500000 137.740419
282.500000 138.220769
282.500000 138.701955
282.500000 139.183977
282.500000 139.666835
282.500000 140.150529
282.500000 140.635060
282.500000 141.120426
282.500000 141.606629
282.500000 142.093668
282.500000 142.581542
282.500000 143.070253
282.500000 143.559801
282.500000 144.050184
282.500000 144.541403
282.500000 145.033459
282.500000 145.526350
282.500000 146.020078
282.500000 146.514642
282.500000 147.010042
282.500000 147.506278
282.500000 148.003350
282.500000 148.501258
282.500000 149.000003
282.500000 149.499583
282.500000 150.000000
</POINTS>
</NEKTAR>

