<?xml version="1.0" encoding="utf-8" ?>
<NEKTAR>
<POINTS DIM="2" FIELDS="">
922.500000 0.000000
922.500000 0.000418
922.500000 0.001672
922.500000 0.003763
922.500000 0.006689
922.500000 0.010451
922.500000 0.015050
922.500000 0.020485
922.500000 0.026756
922.500000 0.033863
922.500000 0.041806
922.500000 0.050585
922.500000 0.060201
922.500000 0.070652
922.500000 0.081940
922.500000 0.094063
922.500000 0.107023
922.500000 0.120819
922.500000 0.135451
922.500000 0.150919
922.500000 0.167224
922.500000 0.184364
922.500000 0.202341
922.500000 0.221153
922.500000 0.240802
922.500000 0.261287
922.500000 0.282608
922.500000 0.304765
922.500000 0.327758
922.500000 0.351588
922.500000 0.376253
922.500000 0.401755
922.500000 0.428092
922.500000 0.455266
922.500000 0.483276
922.500000 0.512122
922.500000 0.541805
922.500000 0.572323
922.500000 0.603677
922.500000 0.635868
922.500000 0.668894
922.500000 0.702757
922.500000 0.737456
922.500000 0.772991
922.500000 0.809362
922.500000 0.846570
922.500000 0.884613
922.500000 0.923492
922.500000 0.963208
922.500000 1.003760
922.500000 1.045148
922.500000 1.087372
922.500000 1.130432
922.500000 1.174328
922.500000 1.219060
922.500000 1.264629
922.500000 1.311033
922.500000 1.358274
922.500000 1.406351
922.500000 1.455264
922.500000 1.505013
922.500000 1.555598
922.500000 1.607019
922.500000 1.659276
922.500000 1.712370
922.500000 1.766299
922.500000 1.821065
922.500000 1.876667
922.500000 1.933105
922.500000 1.990379
922.500000 2.048489
922.500000 2.107436
922.500000 2.167218
922.500000 2.227837
922.500000 2.289291
922.500000 2.351582
922.500000 2.414709
922.500000 2.478672
922.500000 2.543471
922.500000 2.609106
922.500000 2.675578
922.500000 2.742885
922.500000 2.811029
922.500000 2.880009
922.500000 2.949825
922.500000 3.020477
922.500000 3.091965
922.500000 3.164289
922.500000 3.237449
922.500000 3.311446
922.500000 3.386278
922.500000 3.461947
922.500000 3.538452
922.500000 3.615793
922.500000 3.693970
922.500000 3.772983
922.500000 3.852832
922.500000 3.933517
922.500000 4.015039
922.500000 4.097397
922.500000 4.180590
922.500000 4.264620
922.500000 4.349486
922.500000 4.435188
922.500000 4.521727
922.500000 4.609101
922.500000 4.697311
922.500000 4.786358
922.500000 4.876241
922.500000 4.966959
922.500000 5.058514
922.500000 5.150905
922.500000 5.244133
922.500000 5.338196
922.500000 5.433095
922.500000 5.528831
922.500000 5.625402
922.500000 5.722810
922.500000 5.821054
922.500000 5.920134
922.500000 6.020050
922.500000 6.120802
922.500000 6.222391
922.500000 6.324815
922.500000 6.428076
922.500000 6.532172
922.500000 6.637105
922.500000 6.742874
922.500000 6.849479
922.500000 6.956920
922.500000 7.065198
922.500000 7.174311
922.500000 7.284261
922.500000 7.395046
922.500000 7.506668
922.500000 7.619126
922.500000 7.732420
922.500000 7.846550
922.500000 7.961516
922.500000 8.077319
922.500000 8.193957
922.500000 8.311432
922.500000 8.429742
922.500000 8.548889
922.500000 8.668872
922.500000 8.789691
922.500000 8.911346
922.500000 9.033838
922.500000 9.157165
922.500000 9.281329
922.500000 9.406328
922.500000 9.532164
922.500000 9.658836
922.500000 9.786344
922.500000 9.914688
922.500000 10.043868
922.500000 10.173885
922.500000 10.304737
922.500000 10.436426
922.500000 10.568950
922.500000 10.702311
922.500000 10.836508
922.500000 10.971541
922.500000 11.107411
922.500000 11.244116
922.500000 11.381657
922.500000 11.520035
922.500000 11.659248
922.500000 11.799298
922.500000 11.940184
922.500000 12.081906
922.500000 12.224464
922.500000 12.367859
922.500000 12.512089
922.500000 12.657155
922.500000 12.803058
922.500000 12.949797
922.500000 13.097372
922.500000 13.245782
922.500000 13.395030
922.500000 13.545113
922.500000 13.696032
922.500000 13.847787
922.500000 14.000379
922.500000 14.153807
922.500000 14.308070
922.500000 14.463170
922.500000 14.619106
922.500000 14.775879
922.500000 14.933487
922.500000 15.091931
922.500000 15.251212
922.500000 15.411328
922.500000 15.572281
922.500000 15.734070
922.500000 15.896695
922.500000 16.060156
922.500000 16.224453
922.500000 16.389586
922.500000 16.555556
922.500000 16.722361
922.500000 16.890003
922.500000 17.058481
922.500000 17.227795
922.500000 17.397945
922.500000 17.568931
922.500000 17.740753
922.500000 17.913412
922.500000 18.086906
922.500000 18.261237
922.500000 18.436403
922.500000 18.612406
922.500000 18.789245
922.500000 18.966920
922.500000 19.145432
922.500000 19.324779
922.500000 19.504962
922.500000 19.685982
922.500000 19.867838
922.500000 20.050529
922.500000 20.234057
922.500000 20.418421
922.500000 20.603622
922.500000 20.789658
922.500000 20.976530
922.500000 21.164239
922.500000 21.352783
922.500000 21.542164
922.500000 21.732381
922.500000 21.923434
922.500000 22.115323
922.500000 22.308048
922.500000 22.501610
922.500000 22.696007
922.500000 22.891241
922.500000 23.087310
922.500000 23.284216
922.500000 23.481958
922.500000 23.680536
922.500000 23.879950
922.500000 24.080200
922.500000 24.281287
922.500000 24.483209
922.500000 24.685968
922.500000 24.889563
922.500000 25.093994
922.500000 25.299261
922.500000 25.505364
922.500000 25.712303
922.500000 25.920078
922.500000 26.128690
922.500000 26.338137
922.500000 26.548421
922.500000 26.759541
922.500000 26.971497
922.500000 27.184289
922.500000 27.397917
922.500000 27.612381
922.500000 27.827682
922.500000 28.043818
922.500000 28.260791
922.500000 28.478600
922.500000 28.697244
922.500000 28.916725
922.500000 29.137043
922.500000 29.358196
922.500000 29.580185
922.500000 29.803011
922.500000 30.026672
922.500000 30.251170
922.500000 30.476504
922.500000 30.702674
922.500000 30.929680
922.500000 31.157522
922.500000 31.386200
922.500000 31.615715
922.500000 31.846065
922.500000 32.077252
922.500000 32.309275
922.500000 32.542133
922.500000 32.775828
922.500000 33.010360
922.500000 33.245727
922.500000 33.481930
922.500000 33.718970
922.500000 33.956845
922.500000 34.195557
922.500000 34.435105
922.500000 34.675489
922.500000 34.916709
922.500000 35.158765
922.500000 35.401657
922.500000 35.645386
922.500000 35.889950
922.500000 36.135351
922.500000 36.381588
922.500000 36.628660
922.500000 36.876569
922.500000 37.125315
922.500000 37.374896
922.500000 37.625313
922.500000 37.876567
922.500000 38.128656
922.500000 38.381582
922.500000 38.635344
922.500000 38.889942
922.500000 39.145376
922.500000 39.401646
922.500000 39.658752
922.500000 39.916695
922.500000 40.175473
922.500000 40.435088
922.500000 40.695539
922.500000 40.956826
922.500000 41.218949
922.500000 41.481908
922.500000 41.745703
922.500000 42.010334
922.500000 42.275802
922.500000 42.542106
922.500000 42.809245
922.500000 43.077221
922.500000 43.346033
922.500000 43.615681
922.500000 43.886165
922.500000 44.157486
922.500000 44.429642
922.500000 44.702635
922.500000 44.976463
922.500000 45.251128
922.500000 45.526629
922.500000 45.802966
922.500000 46.080139
922.500000 46.358148
922.500000 46.636994
922.500000 46.916675
922.500000 47.197193
922.500000 47.478547
922.500000 47.760736
922.500000 48.043762
922.500000 48.327625
922.500000 48.612323
922.500000 48.897857
922.500000 49.184227
922.500000 49.471434
922.500000 49.759477
922.500000 50.048355
922.500000 50.338070
922.500000 50.628621
922.500000 50.920009
922.500000 51.212232
922.500000 51.505291
922.500000 51.799187
922.500000 52.093918
922.500000 52.389486
922.500000 52.685890
922.500000 52.983130
922.500000 53.281206
922.500000 53.580118
922.500000 53.879867
922.500000 54.180451
922.500000 54.481872
922.500000 54.784128
922.500000 55.087221
922.500000 55.391150
922.500000 55.695915
922.500000 56.001516
922.500000 56.307953
922.500000 56.615227
922.500000 56.923336
922.500000 57.232282
922.500000 57.542064
922.500000 57.852682
922.500000 58.164136
922.500000 58.476426
922.500000 58.789552
922.500000 59.103514
922.500000 59.418313
922.500000 59.733947
922.500000 60.050418
922.500000 60.367725
922.500000 60.685868
922.500000 61.004847
922.500000 61.324662
922.500000 61.645313
922.500000 61.966801
922.500000 62.289124
922.500000 62.612284
922.500000 62.936279
922.500000 63.261111
922.500000 63.586779
922.500000 63.913283
922.500000 64.240624
922.500000 64.568800
922.500000 64.897812
922.500000 65.227661
922.500000 65.558346
922.500000 65.889867
922.500000 66.222223
922.500000 66.555417
922.500000 66.889446
922.500000 67.224311
922.500000 67.560012
922.500000 67.896550
922.500000 68.233924
922.500000 68.572133
922.500000 68.911179
922.500000 69.251061
922.500000 69.591779
922.500000 69.933334
922.500000 70.275724
922.500000 70.618950
922.500000 70.963013
922.500000 71.307912
922.500000 71.653646
922.500000 72.000217
922.500000 72.347624
922.500000 72.695868
922.500000 73.044947
922.500000 73.394862
922.500000 73.745614
922.500000 74.097202
922.500000 74.449625
922.500000 74.802885
922.500000 75.156981
922.500000 75.511913
922.500000 75.867682
922.500000 76.224286
922.500000 76.581726
922.500000 76.940003
922.500000 77.299116
922.500000 77.659064
922.500000 78.019849
922.500000 78.381471
922.500000 78.743928
922.500000 79.107221
922.500000 79.471350
922.500000 79.836316
922.500000 80.202118
922.500000 80.568755
922.500000 80.936229
922.500000 81.304539
922.500000 81.673685
922.500000 82.043668
922.500000 82.414486
922.500000 82.786141
922.500000 83.158631
922.500000 83.531958
922.500000 83.906121
922.500000 84.281120
922.500000 84.656955
922.500000 85.033626
922.500000 85.411133
922.500000 85.789477
922.500000 86.168656
922.500000 86.548672
922.500000 86.929524
922.500000 87.311212
922.500000 87.693736
922.500000 88.077096
922.500000 88.461292
922.500000 88.846324
922.500000 89.232193
922.500000 89.618897
922.500000 90.006438
922.500000 90.394815
922.500000 90.784028
922.500000 91.174077
922.500000 91.564962
922.500000 91.956684
922.500000 92.349241
922.500000 92.742634
922.500000 93.136864
922.500000 93.531930
922.500000 93.927832
922.500000 94.324570
922.500000 94.722144
922.500000 95.120554
922.500000 95.519801
922.500000 95.919883
922.500000 96.320802
922.500000 96.722557
922.500000 97.125147
922.500000 97.528574
922.500000 97.932837
922.500000 98.337937
922.500000 98.743872
922.500000 99.150643
922.500000 99.558251
922.500000 99.966695
922.500000 100.375974
922.500000 100.786090
922.500000 101.197042
922.500000 101.608831
922.500000 102.021455
922.500000 102.434915
922.500000 102.849212
922.500000 103.264344
922.500000 103.680313
922.500000 104.097118
922.500000 104.514759
922.500000 104.933236
922.500000 105.352549
922.500000 105.772699
922.500000 106.193684
922.500000 106.615506
922.500000 107.038163
922.500000 107.461657
922.500000 107.885987
922.500000 108.311153
922.500000 108.737155
922.500000 109.163993
922.500000 109.591668
922.500000 110.020178
922.500000 110.449525
922.500000 110.879708
922.500000 111.310727
922.500000 111.742582
922.500000 112.175273
922.500000 112.608800
922.500000 113.043163
922.500000 113.478363
922.500000 113.914398
922.500000 114.351270
922.500000 114.788978
922.500000 115.227522
922.500000 115.666902
922.500000 116.107118
922.500000 116.548170
922.500000 116.990059
922.500000 117.432783
922.500000 117.876344
922.500000 118.320740
922.500000 118.765973
922.500000 119.212042
922.500000 119.658947
922.500000 120.106689
922.500000 120.555266
922.500000 121.004679
922.500000 121.454929
922.500000 121.906015
922.500000 122.357937
922.500000 122.810695
922.500000 123.264289
922.500000 123.718719
922.500000 124.173985
922.500000 124.630087
922.500000 125.087026
922.500000 125.544801
922.500000 126.003411
922.500000 126.462858
922.500000 126.923141
922.500000 127.384260
922.500000 127.846216
922.500000 128.309007
922.500000 128.772634
922.500000 129.237098
922.500000 129.702398
922.500000 130.168534
922.500000 130.635505
922.500000 131.103314
922.500000 131.571958
922.500000 132.041438
922.500000 132.511754
922.500000 132.982907
922.500000 133.454896
922.500000 133.927720
922.500000 134.401381
922.500000 134.875878
922.500000 135.351211
922.500000 135.827381
922.500000 136.304386
922.500000 136.782227
922.500000 137.260905
922.500000 137.740419
922.500000 138.220769
922.500000 138.701955
922.500000 139.183977
922.500000 139.666835
922.500000 140.150529
922.500000 140.635060
922.500000 141.120426
922.500000 141.606629
922.500000 142.093668
922.500000 142.581542
922.500000 143.070253
922.500000 143.559801
922.500000 144.050184
922.500000 144.541403
922.500000 145.033459
922.500000 145.526350
922.500000 146.020078
922.500000 146.514642
922.500000 147.010042
922.500000 147.506278
922.500000 148.003350
922.500000 148.501258
922.500000 149.000003
922.500000 149.499583
922.500000 150.000000
</POINTS>
</NEKTAR>

