<?xml version="1.0" encoding="utf-8" ?>
<NEKTAR>
<POINTS DIM="2" FIELDS="">
502.500000 0.000000
502.500000 0.000418
502.500000 0.001672
502.500000 0.003763
502.500000 0.006689
502.500000 0.010451
502.500000 0.015050
502.500000 0.020485
502.500000 0.026756
502.500000 0.033863
502.500000 0.041806
502.500000 0.050585
502.500000 0.060201
502.500000 0.070652
502.500000 0.081940
502.500000 0.094063
502.500000 0.107023
502.500000 0.120819
502.500000 0.135451
502.500000 0.150919
502.500000 0.167224
502.500000 0.184364
502.500000 0.202341
502.500000 0.221153
502.500000 0.240802
502.500000 0.261287
502.500000 0.282608
502.500000 0.304765
502.500000 0.327758
502.500000 0.351588
502.500000 0.376253
502.500000 0.401755
502.500000 0.428092
502.500000 0.455266
502.500000 0.483276
502.500000 0.512122
502.500000 0.541805
502.500000 0.572323
502.500000 0.603677
502.500000 0.635868
502.500000 0.668894
502.500000 0.702757
502.500000 0.737456
502.500000 0.772991
502.500000 0.809362
502.500000 0.846570
502.500000 0.884613
502.500000 0.923492
502.500000 0.963208
502.500000 1.003760
502.500000 1.045148
502.500000 1.087372
502.500000 1.130432
502.500000 1.174328
502.500000 1.219060
502.500000 1.264629
502.500000 1.311033
502.500000 1.358274
502.500000 1.406351
502.500000 1.455264
502.500000 1.505013
502.500000 1.555598
502.500000 1.607019
502.500000 1.659276
502.500000 1.712370
502.500000 1.766299
502.500000 1.821065
502.500000 1.876667
502.500000 1.933105
502.500000 1.990379
502.500000 2.048489
502.500000 2.107436
502.500000 2.167218
502.500000 2.227837
502.500000 2.289291
502.500000 2.351582
502.500000 2.414709
502.500000 2.478672
502.500000 2.543471
502.500000 2.609106
502.500000 2.675578
502.500000 2.742885
502.500000 2.811029
502.500000 2.880009
502.500000 2.949825
502.500000 3.020477
502.500000 3.091965
502.500000 3.164289
502.500000 3.237449
502.500000 3.311446
502.500000 3.386278
502.500000 3.461947
502.500000 3.538452
502.500000 3.615793
502.500000 3.693970
502.500000 3.772983
502.500000 3.852832
502.500000 3.933517
502.500000 4.015039
502.500000 4.097397
502.500000 4.180590
502.500000 4.264620
502.500000 4.349486
502.500000 4.435188
502.500000 4.521727
502.500000 4.609101
502.500000 4.697311
502.500000 4.786358
502.500000 4.876241
502.500000 4.966959
502.500000 5.058514
502.500000 5.150905
502.500000 5.244133
502.500000 5.338196
502.500000 5.433095
502.500000 5.528831
502.500000 5.625402
502.500000 5.722810
502.500000 5.821054
502.500000 5.920134
502.500000 6.020050
502.500000 6.120802
502.500000 6.222391
502.500000 6.324815
502.500000 6.428076
502.500000 6.532172
502.500000 6.637105
502.500000 6.742874
502.500000 6.849479
502.500000 6.956920
502.500000 7.065198
502.500000 7.174311
502.500000 7.284261
502.500000 7.395046
502.500000 7.506668
502.500000 7.619126
502.500000 7.732420
502.500000 7.846550
502.500000 7.961516
502.500000 8.077319
502.500000 8.193957
502.500000 8.311432
502.500000 8.429742
502.500000 8.548889
502.500000 8.668872
502.500000 8.789691
502.500000 8.911346
502.500000 9.033838
502.500000 9.157165
502.500000 9.281329
502.500000 9.406328
502.500000 9.532164
502.500000 9.658836
502.500000 9.786344
502.500000 9.914688
502.500000 10.043868
502.500000 10.173885
502.500000 10.304737
502.500000 10.436426
502.500000 10.568950
502.500000 10.702311
502.500000 10.836508
502.500000 10.971541
502.500000 11.107411
502.500000 11.244116
502.500000 11.381657
502.500000 11.520035
502.500000 11.659248
502.500000 11.799298
502.500000 11.940184
502.500000 12.081906
502.500000 12.224464
502.500000 12.367859
502.500000 12.512089
502.500000 12.657155
502.500000 12.803058
502.500000 12.949797
502.500000 13.097372
502.500000 13.245782
502.500000 13.395030
502.500000 13.545113
502.500000 13.696032
502.500000 13.847787
502.500000 14.000379
502.500000 14.153807
502.500000 14.308070
502.500000 14.463170
502.500000 14.619106
502.500000 14.775879
502.500000 14.933487
502.500000 15.091931
502.500000 15.251212
502.500000 15.411328
502.500000 15.572281
502.500000 15.734070
502.500000 15.896695
502.500000 16.060156
502.500000 16.224453
502.500000 16.389586
502.500000 16.555556
502.500000 16.722361
502.500000 16.890003
502.500000 17.058481
502.500000 17.227795
502.500000 17.397945
502.500000 17.568931
502.500000 17.740753
502.500000 17.913412
502.500000 18.086906
502.500000 18.261237
502.500000 18.436403
502.500000 18.612406
502.500000 18.789245
502.500000 18.966920
502.500000 19.145432
502.500000 19.324779
502.500000 19.504962
502.500000 19.685982
502.500000 19.867838
502.500000 20.050529
502.500000 20.234057
502.500000 20.418421
502.500000 20.603622
502.500000 20.789658
502.500000 20.976530
502.500000 21.164239
502.500000 21.352783
502.500000 21.542164
502.500000 21.732381
502.500000 21.923434
502.500000 22.115323
502.500000 22.308048
502.500000 22.501610
502.500000 22.696007
502.500000 22.891241
502.500000 23.087310
502.500000 23.284216
502.500000 23.481958
502.500000 23.680536
502.500000 23.879950
502.500000 24.080200
502.500000 24.281287
502.500000 24.483209
502.500000 24.685968
502.500000 24.889563
502.500000 25.093994
502.500000 25.299261
502.500000 25.505364
502.500000 25.712303
502.500000 25.920078
502.500000 26.128690
502.500000 26.338137
502.500000 26.548421
502.500000 26.759541
502.500000 26.971497
502.500000 27.184289
502.500000 27.397917
502.500000 27.612381
502.500000 27.827682
502.500000 28.043818
502.500000 28.260791
502.500000 28.478600
502.500000 28.697244
502.500000 28.916725
502.500000 29.137043
502.500000 29.358196
502.500000 29.580185
502.500000 29.803011
502.500000 30.026672
502.500000 30.251170
502.500000 30.476504
502.500000 30.702674
502.500000 30.929680
502.500000 31.157522
502.500000 31.386200
502.500000 31.615715
502.500000 31.846065
502.500000 32.077252
502.500000 32.309275
502.500000 32.542133
502.500000 32.775828
502.500000 33.010360
502.500000 33.245727
502.500000 33.481930
502.500000 33.718970
502.500000 33.956845
502.500000 34.195557
502.500000 34.435105
502.500000 34.675489
502.500000 34.916709
502.500000 35.158765
502.500000 35.401657
502.500000 35.645386
502.500000 35.889950
502.500000 36.135351
502.500000 36.381588
502.500000 36.628660
502.500000 36.876569
502.500000 37.125315
502.500000 37.374896
502.500000 37.625313
502.500000 37.876567
502.500000 38.128656
502.500000 38.381582
502.500000 38.635344
502.500000 38.889942
502.500000 39.145376
502.500000 39.401646
502.500000 39.658752
502.500000 39.916695
502.500000 40.175473
502.500000 40.435088
502.500000 40.695539
502.500000 40.956826
502.500000 41.218949
502.500000 41.481908
502.500000 41.745703
502.500000 42.010334
502.500000 42.275802
502.500000 42.542106
502.500000 42.809245
502.500000 43.077221
502.500000 43.346033
502.500000 43.615681
502.500000 43.886165
502.500000 44.157486
502.500000 44.429642
502.500000 44.702635
502.500000 44.976463
502.500000 45.251128
502.500000 45.526629
502.500000 45.802966
502.500000 46.080139
502.500000 46.358148
502.500000 46.636994
502.500000 46.916675
502.500000 47.197193
502.500000 47.478547
502.500000 47.760736
502.500000 48.043762
502.500000 48.327625
502.500000 48.612323
502.500000 48.897857
502.500000 49.184227
502.500000 49.471434
502.500000 49.759477
502.500000 50.048355
502.500000 50.338070
502.500000 50.628621
502.500000 50.920009
502.500000 51.212232
502.500000 51.505291
502.500000 51.799187
502.500000 52.093918
502.500000 52.389486
502.500000 52.685890
502.500000 52.983130
502.500000 53.281206
502.500000 53.580118
502.500000 53.879867
502.500000 54.180451
502.500000 54.481872
502.500000 54.784128
502.500000 55.087221
502.500000 55.391150
502.500000 55.695915
502.500000 56.001516
502.500000 56.307953
502.500000 56.615227
502.500000 56.923336
502.500000 57.232282
502.500000 57.542064
502.500000 57.852682
502.500000 58.164136
502.500000 58.476426
502.500000 58.789552
502.500000 59.103514
502.500000 59.418313
502.500000 59.733947
502.500000 60.050418
502.500000 60.367725
502.500000 60.685868
502.500000 61.004847
502.500000 61.324662
502.500000 61.645313
502.500000 61.966801
502.500000 62.289124
502.500000 62.612284
502.500000 62.936279
502.500000 63.261111
502.500000 63.586779
502.500000 63.913283
502.500000 64.240624
502.500000 64.568800
502.500000 64.897812
502.500000 65.227661
502.500000 65.558346
502.500000 65.889867
502.500000 66.222223
502.500000 66.555417
502.500000 66.889446
502.500000 67.224311
502.500000 67.560012
502.500000 67.896550
502.500000 68.233924
502.500000 68.572133
502.500000 68.911179
502.500000 69.251061
502.500000 69.591779
502.500000 69.933334
502.500000 70.275724
502.500000 70.618950
502.500000 70.963013
502.500000 71.307912
502.500000 71.653646
502.500000 72.000217
502.500000 72.347624
502.500000 72.695868
502.500000 73.044947
502.500000 73.394862
502.500000 73.745614
502.500000 74.097202
502.500000 74.449625
502.500000 74.802885
502.500000 75.156981
502.500000 75.511913
502.500000 75.867682
502.500000 76.224286
502.500000 76.581726
502.500000 76.940003
502.500000 77.299116
502.500000 77.659064
502.500000 78.019849
502.500000 78.381471
502.500000 78.743928
502.500000 79.107221
502.500000 79.471350
502.500000 79.836316
502.500000 80.202118
502.500000 80.568755
502.500000 80.936229
502.500000 81.304539
502.500000 81.673685
502.500000 82.043668
502.500000 82.414486
502.500000 82.786141
502.500000 83.158631
502.500000 83.531958
502.500000 83.906121
502.500000 84.281120
502.500000 84.656955
502.500000 85.033626
502.500000 85.411133
502.500000 85.789477
502.500000 86.168656
502.500000 86.548672
502.500000 86.929524
502.500000 87.311212
502.500000 87.693736
502.500000 88.077096
502.500000 88.461292
502.500000 88.846324
502.500000 89.232193
502.500000 89.618897
502.500000 90.006438
502.500000 90.394815
502.500000 90.784028
502.500000 91.174077
502.500000 91.564962
502.500000 91.956684
502.500000 92.349241
502.500000 92.742634
502.500000 93.136864
502.500000 93.531930
502.500000 93.927832
502.500000 94.324570
502.500000 94.722144
502.500000 95.120554
502.500000 95.519801
502.500000 95.919883
502.500000 96.320802
502.500000 96.722557
502.500000 97.125147
502.500000 97.528574
502.500000 97.932837
502.500000 98.337937
502.500000 98.743872
502.500000 99.150643
502.500000 99.558251
502.500000 99.966695
502.500000 100.375974
502.500000 100.786090
502.500000 101.197042
502.500000 101.608831
502.500000 102.021455
502.500000 102.434915
502.500000 102.849212
502.500000 103.264344
502.500000 103.680313
502.500000 104.097118
502.500000 104.514759
502.500000 104.933236
502.500000 105.352549
502.500000 105.772699
502.500000 106.193684
502.500000 106.615506
502.500000 107.038163
502.500000 107.461657
502.500000 107.885987
502.500000 108.311153
502.500000 108.737155
502.500000 109.163993
502.500000 109.591668
502.500000 110.020178
502.500000 110.449525
502.500000 110.879708
502.500000 111.310727
502.500000 111.742582
502.500000 112.175273
502.500000 112.608800
502.500000 113.043163
502.500000 113.478363
502.500000 113.914398
502.500000 114.351270
502.500000 114.788978
502.500000 115.227522
502.500000 115.666902
502.500000 116.107118
502.500000 116.548170
502.500000 116.990059
502.500000 117.432783
502.500000 117.876344
502.500000 118.320740
502.500000 118.765973
502.500000 119.212042
502.500000 119.658947
502.500000 120.106689
502.500000 120.555266
502.500000 121.004679
502.500000 121.454929
502.500000 121.906015
502.500000 122.357937
502.500000 122.810695
502.500000 123.264289
502.500000 123.718719
502.500000 124.173985
502.500000 124.630087
502.500000 125.087026
502.500000 125.544801
502.500000 126.003411
502.500000 126.462858
502.500000 126.923141
502.500000 127.384260
502.500000 127.846216
502.500000 128.309007
502.500000 128.772634
502.500000 129.237098
502.500000 129.702398
502.500000 130.168534
502.500000 130.635505
502.500000 131.103314
502.500000 131.571958
502.500000 132.041438
502.500000 132.511754
502.500000 132.982907
502.500000 133.454896
502.500000 133.927720
502.500000 134.401381
502.500000 134.875878
502.500000 135.351211
502.500000 135.827381
502.500000 136.304386
502.500000 136.782227
502.500000 137.260905
502.500000 137.740419
502.500000 138.220769
502.500000 138.701955
502.500000 139.183977
502.500000 139.666835
502.500000 140.150529
502.500000 140.635060
502.500000 141.120426
502.500000 141.606629
502.500000 142.093668
502.500000 142.581542
502.500000 143.070253
502.500000 143.559801
502.500000 144.050184
502.500000 144.541403
502.500000 145.033459
502.500000 145.526350
502.500000 146.020078
502.500000 146.514642
502.500000 147.010042
502.500000 147.506278
502.500000 148.003350
502.500000 148.501258
502.500000 149.000003
502.500000 149.499583
502.500000 150.000000
</POINTS>
</NEKTAR>

