<?xml version="1.0" encoding="utf-8" ?>
<NEKTAR>
<POINTS DIM="2" FIELDS="">
522.500000 0.000000
522.500000 0.000418
522.500000 0.001672
522.500000 0.003763
522.500000 0.006689
522.500000 0.010451
522.500000 0.015050
522.500000 0.020485
522.500000 0.026756
522.500000 0.033863
522.500000 0.041806
522.500000 0.050585
522.500000 0.060201
522.500000 0.070652
522.500000 0.081940
522.500000 0.094063
522.500000 0.107023
522.500000 0.120819
522.500000 0.135451
522.500000 0.150919
522.500000 0.167224
522.500000 0.184364
522.500000 0.202341
522.500000 0.221153
522.500000 0.240802
522.500000 0.261287
522.500000 0.282608
522.500000 0.304765
522.500000 0.327758
522.500000 0.351588
522.500000 0.376253
522.500000 0.401755
522.500000 0.428092
522.500000 0.455266
522.500000 0.483276
522.500000 0.512122
522.500000 0.541805
522.500000 0.572323
522.500000 0.603677
522.500000 0.635868
522.500000 0.668894
522.500000 0.702757
522.500000 0.737456
522.500000 0.772991
522.500000 0.809362
522.500000 0.846570
522.500000 0.884613
522.500000 0.923492
522.500000 0.963208
522.500000 1.003760
522.500000 1.045148
522.500000 1.087372
522.500000 1.130432
522.500000 1.174328
522.500000 1.219060
522.500000 1.264629
522.500000 1.311033
522.500000 1.358274
522.500000 1.406351
522.500000 1.455264
522.500000 1.505013
522.500000 1.555598
522.500000 1.607019
522.500000 1.659276
522.500000 1.712370
522.500000 1.766299
522.500000 1.821065
522.500000 1.876667
522.500000 1.933105
522.500000 1.990379
522.500000 2.048489
522.500000 2.107436
522.500000 2.167218
522.500000 2.227837
522.500000 2.289291
522.500000 2.351582
522.500000 2.414709
522.500000 2.478672
522.500000 2.543471
522.500000 2.609106
522.500000 2.675578
522.500000 2.742885
522.500000 2.811029
522.500000 2.880009
522.500000 2.949825
522.500000 3.020477
522.500000 3.091965
522.500000 3.164289
522.500000 3.237449
522.500000 3.311446
522.500000 3.386278
522.500000 3.461947
522.500000 3.538452
522.500000 3.615793
522.500000 3.693970
522.500000 3.772983
522.500000 3.852832
522.500000 3.933517
522.500000 4.015039
522.500000 4.097397
522.500000 4.180590
522.500000 4.264620
522.500000 4.349486
522.500000 4.435188
522.500000 4.521727
522.500000 4.609101
522.500000 4.697311
522.500000 4.786358
522.500000 4.876241
522.500000 4.966959
522.500000 5.058514
522.500000 5.150905
522.500000 5.244133
522.500000 5.338196
522.500000 5.433095
522.500000 5.528831
522.500000 5.625402
522.500000 5.722810
522.500000 5.821054
522.500000 5.920134
522.500000 6.020050
522.500000 6.120802
522.500000 6.222391
522.500000 6.324815
522.500000 6.428076
522.500000 6.532172
522.500000 6.637105
522.500000 6.742874
522.500000 6.849479
522.500000 6.956920
522.500000 7.065198
522.500000 7.174311
522.500000 7.284261
522.500000 7.395046
522.500000 7.506668
522.500000 7.619126
522.500000 7.732420
522.500000 7.846550
522.500000 7.961516
522.500000 8.077319
522.500000 8.193957
522.500000 8.311432
522.500000 8.429742
522.500000 8.548889
522.500000 8.668872
522.500000 8.789691
522.500000 8.911346
522.500000 9.033838
522.500000 9.157165
522.500000 9.281329
522.500000 9.406328
522.500000 9.532164
522.500000 9.658836
522.500000 9.786344
522.500000 9.914688
522.500000 10.043868
522.500000 10.173885
522.500000 10.304737
522.500000 10.436426
522.500000 10.568950
522.500000 10.702311
522.500000 10.836508
522.500000 10.971541
522.500000 11.107411
522.500000 11.244116
522.500000 11.381657
522.500000 11.520035
522.500000 11.659248
522.500000 11.799298
522.500000 11.940184
522.500000 12.081906
522.500000 12.224464
522.500000 12.367859
522.500000 12.512089
522.500000 12.657155
522.500000 12.803058
522.500000 12.949797
522.500000 13.097372
522.500000 13.245782
522.500000 13.395030
522.500000 13.545113
522.500000 13.696032
522.500000 13.847787
522.500000 14.000379
522.500000 14.153807
522.500000 14.308070
522.500000 14.463170
522.500000 14.619106
522.500000 14.775879
522.500000 14.933487
522.500000 15.091931
522.500000 15.251212
522.500000 15.411328
522.500000 15.572281
522.500000 15.734070
522.500000 15.896695
522.500000 16.060156
522.500000 16.224453
522.500000 16.389586
522.500000 16.555556
522.500000 16.722361
522.500000 16.890003
522.500000 17.058481
522.500000 17.227795
522.500000 17.397945
522.500000 17.568931
522.500000 17.740753
522.500000 17.913412
522.500000 18.086906
522.500000 18.261237
522.500000 18.436403
522.500000 18.612406
522.500000 18.789245
522.500000 18.966920
522.500000 19.145432
522.500000 19.324779
522.500000 19.504962
522.500000 19.685982
522.500000 19.867838
522.500000 20.050529
522.500000 20.234057
522.500000 20.418421
522.500000 20.603622
522.500000 20.789658
522.500000 20.976530
522.500000 21.164239
522.500000 21.352783
522.500000 21.542164
522.500000 21.732381
522.500000 21.923434
522.500000 22.115323
522.500000 22.308048
522.500000 22.501610
522.500000 22.696007
522.500000 22.891241
522.500000 23.087310
522.500000 23.284216
522.500000 23.481958
522.500000 23.680536
522.500000 23.879950
522.500000 24.080200
522.500000 24.281287
522.500000 24.483209
522.500000 24.685968
522.500000 24.889563
522.500000 25.093994
522.500000 25.299261
522.500000 25.505364
522.500000 25.712303
522.500000 25.920078
522.500000 26.128690
522.500000 26.338137
522.500000 26.548421
522.500000 26.759541
522.500000 26.971497
522.500000 27.184289
522.500000 27.397917
522.500000 27.612381
522.500000 27.827682
522.500000 28.043818
522.500000 28.260791
522.500000 28.478600
522.500000 28.697244
522.500000 28.916725
522.500000 29.137043
522.500000 29.358196
522.500000 29.580185
522.500000 29.803011
522.500000 30.026672
522.500000 30.251170
522.500000 30.476504
522.500000 30.702674
522.500000 30.929680
522.500000 31.157522
522.500000 31.386200
522.500000 31.615715
522.500000 31.846065
522.500000 32.077252
522.500000 32.309275
522.500000 32.542133
522.500000 32.775828
522.500000 33.010360
522.500000 33.245727
522.500000 33.481930
522.500000 33.718970
522.500000 33.956845
522.500000 34.195557
522.500000 34.435105
522.500000 34.675489
522.500000 34.916709
522.500000 35.158765
522.500000 35.401657
522.500000 35.645386
522.500000 35.889950
522.500000 36.135351
522.500000 36.381588
522.500000 36.628660
522.500000 36.876569
522.500000 37.125315
522.500000 37.374896
522.500000 37.625313
522.500000 37.876567
522.500000 38.128656
522.500000 38.381582
522.500000 38.635344
522.500000 38.889942
522.500000 39.145376
522.500000 39.401646
522.500000 39.658752
522.500000 39.916695
522.500000 40.175473
522.500000 40.435088
522.500000 40.695539
522.500000 40.956826
522.500000 41.218949
522.500000 41.481908
522.500000 41.745703
522.500000 42.010334
522.500000 42.275802
522.500000 42.542106
522.500000 42.809245
522.500000 43.077221
522.500000 43.346033
522.500000 43.615681
522.500000 43.886165
522.500000 44.157486
522.500000 44.429642
522.500000 44.702635
522.500000 44.976463
522.500000 45.251128
522.500000 45.526629
522.500000 45.802966
522.500000 46.080139
522.500000 46.358148
522.500000 46.636994
522.500000 46.916675
522.500000 47.197193
522.500000 47.478547
522.500000 47.760736
522.500000 48.043762
522.500000 48.327625
522.500000 48.612323
522.500000 48.897857
522.500000 49.184227
522.500000 49.471434
522.500000 49.759477
522.500000 50.048355
522.500000 50.338070
522.500000 50.628621
522.500000 50.920009
522.500000 51.212232
522.500000 51.505291
522.500000 51.799187
522.500000 52.093918
522.500000 52.389486
522.500000 52.685890
522.500000 52.983130
522.500000 53.281206
522.500000 53.580118
522.500000 53.879867
522.500000 54.180451
522.500000 54.481872
522.500000 54.784128
522.500000 55.087221
522.500000 55.391150
522.500000 55.695915
522.500000 56.001516
522.500000 56.307953
522.500000 56.615227
522.500000 56.923336
522.500000 57.232282
522.500000 57.542064
522.500000 57.852682
522.500000 58.164136
522.500000 58.476426
522.500000 58.789552
522.500000 59.103514
522.500000 59.418313
522.500000 59.733947
522.500000 60.050418
522.500000 60.367725
522.500000 60.685868
522.500000 61.004847
522.500000 61.324662
522.500000 61.645313
522.500000 61.966801
522.500000 62.289124
522.500000 62.612284
522.500000 62.936279
522.500000 63.261111
522.500000 63.586779
522.500000 63.913283
522.500000 64.240624
522.500000 64.568800
522.500000 64.897812
522.500000 65.227661
522.500000 65.558346
522.500000 65.889867
522.500000 66.222223
522.500000 66.555417
522.500000 66.889446
522.500000 67.224311
522.500000 67.560012
522.500000 67.896550
522.500000 68.233924
522.500000 68.572133
522.500000 68.911179
522.500000 69.251061
522.500000 69.591779
522.500000 69.933334
522.500000 70.275724
522.500000 70.618950
522.500000 70.963013
522.500000 71.307912
522.500000 71.653646
522.500000 72.000217
522.500000 72.347624
522.500000 72.695868
522.500000 73.044947
522.500000 73.394862
522.500000 73.745614
522.500000 74.097202
522.500000 74.449625
522.500000 74.802885
522.500000 75.156981
522.500000 75.511913
522.500000 75.867682
522.500000 76.224286
522.500000 76.581726
522.500000 76.940003
522.500000 77.299116
522.500000 77.659064
522.500000 78.019849
522.500000 78.381471
522.500000 78.743928
522.500000 79.107221
522.500000 79.471350
522.500000 79.836316
522.500000 80.202118
522.500000 80.568755
522.500000 80.936229
522.500000 81.304539
522.500000 81.673685
522.500000 82.043668
522.500000 82.414486
522.500000 82.786141
522.500000 83.158631
522.500000 83.531958
522.500000 83.906121
522.500000 84.281120
522.500000 84.656955
522.500000 85.033626
522.500000 85.411133
522.500000 85.789477
522.500000 86.168656
522.500000 86.548672
522.500000 86.929524
522.500000 87.311212
522.500000 87.693736
522.500000 88.077096
522.500000 88.461292
522.500000 88.846324
522.500000 89.232193
522.500000 89.618897
522.500000 90.006438
522.500000 90.394815
522.500000 90.784028
522.500000 91.174077
522.500000 91.564962
522.500000 91.956684
522.500000 92.349241
522.500000 92.742634
522.500000 93.136864
522.500000 93.531930
522.500000 93.927832
522.500000 94.324570
522.500000 94.722144
522.500000 95.120554
522.500000 95.519801
522.500000 95.919883
522.500000 96.320802
522.500000 96.722557
522.500000 97.125147
522.500000 97.528574
522.500000 97.932837
522.500000 98.337937
522.500000 98.743872
522.500000 99.150643
522.500000 99.558251
522.500000 99.966695
522.500000 100.375974
522.500000 100.786090
522.500000 101.197042
522.500000 101.608831
522.500000 102.021455
522.500000 102.434915
522.500000 102.849212
522.500000 103.264344
522.500000 103.680313
522.500000 104.097118
522.500000 104.514759
522.500000 104.933236
522.500000 105.352549
522.500000 105.772699
522.500000 106.193684
522.500000 106.615506
522.500000 107.038163
522.500000 107.461657
522.500000 107.885987
522.500000 108.311153
522.500000 108.737155
522.500000 109.163993
522.500000 109.591668
522.500000 110.020178
522.500000 110.449525
522.500000 110.879708
522.500000 111.310727
522.500000 111.742582
522.500000 112.175273
522.500000 112.608800
522.500000 113.043163
522.500000 113.478363
522.500000 113.914398
522.500000 114.351270
522.500000 114.788978
522.500000 115.227522
522.500000 115.666902
522.500000 116.107118
522.500000 116.548170
522.500000 116.990059
522.500000 117.432783
522.500000 117.876344
522.500000 118.320740
522.500000 118.765973
522.500000 119.212042
522.500000 119.658947
522.500000 120.106689
522.500000 120.555266
522.500000 121.004679
522.500000 121.454929
522.500000 121.906015
522.500000 122.357937
522.500000 122.810695
522.500000 123.264289
522.500000 123.718719
522.500000 124.173985
522.500000 124.630087
522.500000 125.087026
522.500000 125.544801
522.500000 126.003411
522.500000 126.462858
522.500000 126.923141
522.500000 127.384260
522.500000 127.846216
522.500000 128.309007
522.500000 128.772634
522.500000 129.237098
522.500000 129.702398
522.500000 130.168534
522.500000 130.635505
522.500000 131.103314
522.500000 131.571958
522.500000 132.041438
522.500000 132.511754
522.500000 132.982907
522.500000 133.454896
522.500000 133.927720
522.500000 134.401381
522.500000 134.875878
522.500000 135.351211
522.500000 135.827381
522.500000 136.304386
522.500000 136.782227
522.500000 137.260905
522.500000 137.740419
522.500000 138.220769
522.500000 138.701955
522.500000 139.183977
522.500000 139.666835
522.500000 140.150529
522.500000 140.635060
522.500000 141.120426
522.500000 141.606629
522.500000 142.093668
522.500000 142.581542
522.500000 143.070253
522.500000 143.559801
522.500000 144.050184
522.500000 144.541403
522.500000 145.033459
522.500000 145.526350
522.500000 146.020078
522.500000 146.514642
522.500000 147.010042
522.500000 147.506278
522.500000 148.003350
522.500000 148.501258
522.500000 149.000003
522.500000 149.499583
522.500000 150.000000
</POINTS>
</NEKTAR>

