<?xml version="1.0" encoding="utf-8" ?>
<NEKTAR>
<POINTS DIM="2" FIELDS="">
722.500000 0.000000
722.500000 0.000418
722.500000 0.001672
722.500000 0.003763
722.500000 0.006689
722.500000 0.010451
722.500000 0.015050
722.500000 0.020485
722.500000 0.026756
722.500000 0.033863
722.500000 0.041806
722.500000 0.050585
722.500000 0.060201
722.500000 0.070652
722.500000 0.081940
722.500000 0.094063
722.500000 0.107023
722.500000 0.120819
722.500000 0.135451
722.500000 0.150919
722.500000 0.167224
722.500000 0.184364
722.500000 0.202341
722.500000 0.221153
722.500000 0.240802
722.500000 0.261287
722.500000 0.282608
722.500000 0.304765
722.500000 0.327758
722.500000 0.351588
722.500000 0.376253
722.500000 0.401755
722.500000 0.428092
722.500000 0.455266
722.500000 0.483276
722.500000 0.512122
722.500000 0.541805
722.500000 0.572323
722.500000 0.603677
722.500000 0.635868
722.500000 0.668894
722.500000 0.702757
722.500000 0.737456
722.500000 0.772991
722.500000 0.809362
722.500000 0.846570
722.500000 0.884613
722.500000 0.923492
722.500000 0.963208
722.500000 1.003760
722.500000 1.045148
722.500000 1.087372
722.500000 1.130432
722.500000 1.174328
722.500000 1.219060
722.500000 1.264629
722.500000 1.311033
722.500000 1.358274
722.500000 1.406351
722.500000 1.455264
722.500000 1.505013
722.500000 1.555598
722.500000 1.607019
722.500000 1.659276
722.500000 1.712370
722.500000 1.766299
722.500000 1.821065
722.500000 1.876667
722.500000 1.933105
722.500000 1.990379
722.500000 2.048489
722.500000 2.107436
722.500000 2.167218
722.500000 2.227837
722.500000 2.289291
722.500000 2.351582
722.500000 2.414709
722.500000 2.478672
722.500000 2.543471
722.500000 2.609106
722.500000 2.675578
722.500000 2.742885
722.500000 2.811029
722.500000 2.880009
722.500000 2.949825
722.500000 3.020477
722.500000 3.091965
722.500000 3.164289
722.500000 3.237449
722.500000 3.311446
722.500000 3.386278
722.500000 3.461947
722.500000 3.538452
722.500000 3.615793
722.500000 3.693970
722.500000 3.772983
722.500000 3.852832
722.500000 3.933517
722.500000 4.015039
722.500000 4.097397
722.500000 4.180590
722.500000 4.264620
722.500000 4.349486
722.500000 4.435188
722.500000 4.521727
722.500000 4.609101
722.500000 4.697311
722.500000 4.786358
722.500000 4.876241
722.500000 4.966959
722.500000 5.058514
722.500000 5.150905
722.500000 5.244133
722.500000 5.338196
722.500000 5.433095
722.500000 5.528831
722.500000 5.625402
722.500000 5.722810
722.500000 5.821054
722.500000 5.920134
722.500000 6.020050
722.500000 6.120802
722.500000 6.222391
722.500000 6.324815
722.500000 6.428076
722.500000 6.532172
722.500000 6.637105
722.500000 6.742874
722.500000 6.849479
722.500000 6.956920
722.500000 7.065198
722.500000 7.174311
722.500000 7.284261
722.500000 7.395046
722.500000 7.506668
722.500000 7.619126
722.500000 7.732420
722.500000 7.846550
722.500000 7.961516
722.500000 8.077319
722.500000 8.193957
722.500000 8.311432
722.500000 8.429742
722.500000 8.548889
722.500000 8.668872
722.500000 8.789691
722.500000 8.911346
722.500000 9.033838
722.500000 9.157165
722.500000 9.281329
722.500000 9.406328
722.500000 9.532164
722.500000 9.658836
722.500000 9.786344
722.500000 9.914688
722.500000 10.043868
722.500000 10.173885
722.500000 10.304737
722.500000 10.436426
722.500000 10.568950
722.500000 10.702311
722.500000 10.836508
722.500000 10.971541
722.500000 11.107411
722.500000 11.244116
722.500000 11.381657
722.500000 11.520035
722.500000 11.659248
722.500000 11.799298
722.500000 11.940184
722.500000 12.081906
722.500000 12.224464
722.500000 12.367859
722.500000 12.512089
722.500000 12.657155
722.500000 12.803058
722.500000 12.949797
722.500000 13.097372
722.500000 13.245782
722.500000 13.395030
722.500000 13.545113
722.500000 13.696032
722.500000 13.847787
722.500000 14.000379
722.500000 14.153807
722.500000 14.308070
722.500000 14.463170
722.500000 14.619106
722.500000 14.775879
722.500000 14.933487
722.500000 15.091931
722.500000 15.251212
722.500000 15.411328
722.500000 15.572281
722.500000 15.734070
722.500000 15.896695
722.500000 16.060156
722.500000 16.224453
722.500000 16.389586
722.500000 16.555556
722.500000 16.722361
722.500000 16.890003
722.500000 17.058481
722.500000 17.227795
722.500000 17.397945
722.500000 17.568931
722.500000 17.740753
722.500000 17.913412
722.500000 18.086906
722.500000 18.261237
722.500000 18.436403
722.500000 18.612406
722.500000 18.789245
722.500000 18.966920
722.500000 19.145432
722.500000 19.324779
722.500000 19.504962
722.500000 19.685982
722.500000 19.867838
722.500000 20.050529
722.500000 20.234057
722.500000 20.418421
722.500000 20.603622
722.500000 20.789658
722.500000 20.976530
722.500000 21.164239
722.500000 21.352783
722.500000 21.542164
722.500000 21.732381
722.500000 21.923434
722.500000 22.115323
722.500000 22.308048
722.500000 22.501610
722.500000 22.696007
722.500000 22.891241
722.500000 23.087310
722.500000 23.284216
722.500000 23.481958
722.500000 23.680536
722.500000 23.879950
722.500000 24.080200
722.500000 24.281287
722.500000 24.483209
722.500000 24.685968
722.500000 24.889563
722.500000 25.093994
722.500000 25.299261
722.500000 25.505364
722.500000 25.712303
722.500000 25.920078
722.500000 26.128690
722.500000 26.338137
722.500000 26.548421
722.500000 26.759541
722.500000 26.971497
722.500000 27.184289
722.500000 27.397917
722.500000 27.612381
722.500000 27.827682
722.500000 28.043818
722.500000 28.260791
722.500000 28.478600
722.500000 28.697244
722.500000 28.916725
722.500000 29.137043
722.500000 29.358196
722.500000 29.580185
722.500000 29.803011
722.500000 30.026672
722.500000 30.251170
722.500000 30.476504
722.500000 30.702674
722.500000 30.929680
722.500000 31.157522
722.500000 31.386200
722.500000 31.615715
722.500000 31.846065
722.500000 32.077252
722.500000 32.309275
722.500000 32.542133
722.500000 32.775828
722.500000 33.010360
722.500000 33.245727
722.500000 33.481930
722.500000 33.718970
722.500000 33.956845
722.500000 34.195557
722.500000 34.435105
722.500000 34.675489
722.500000 34.916709
722.500000 35.158765
722.500000 35.401657
722.500000 35.645386
722.500000 35.889950
722.500000 36.135351
722.500000 36.381588
722.500000 36.628660
722.500000 36.876569
722.500000 37.125315
722.500000 37.374896
722.500000 37.625313
722.500000 37.876567
722.500000 38.128656
722.500000 38.381582
722.500000 38.635344
722.500000 38.889942
722.500000 39.145376
722.500000 39.401646
722.500000 39.658752
722.500000 39.916695
722.500000 40.175473
722.500000 40.435088
722.500000 40.695539
722.500000 40.956826
722.500000 41.218949
722.500000 41.481908
722.500000 41.745703
722.500000 42.010334
722.500000 42.275802
722.500000 42.542106
722.500000 42.809245
722.500000 43.077221
722.500000 43.346033
722.500000 43.615681
722.500000 43.886165
722.500000 44.157486
722.500000 44.429642
722.500000 44.702635
722.500000 44.976463
722.500000 45.251128
722.500000 45.526629
722.500000 45.802966
722.500000 46.080139
722.500000 46.358148
722.500000 46.636994
722.500000 46.916675
722.500000 47.197193
722.500000 47.478547
722.500000 47.760736
722.500000 48.043762
722.500000 48.327625
722.500000 48.612323
722.500000 48.897857
722.500000 49.184227
722.500000 49.471434
722.500000 49.759477
722.500000 50.048355
722.500000 50.338070
722.500000 50.628621
722.500000 50.920009
722.500000 51.212232
722.500000 51.505291
722.500000 51.799187
722.500000 52.093918
722.500000 52.389486
722.500000 52.685890
722.500000 52.983130
722.500000 53.281206
722.500000 53.580118
722.500000 53.879867
722.500000 54.180451
722.500000 54.481872
722.500000 54.784128
722.500000 55.087221
722.500000 55.391150
722.500000 55.695915
722.500000 56.001516
722.500000 56.307953
722.500000 56.615227
722.500000 56.923336
722.500000 57.232282
722.500000 57.542064
722.500000 57.852682
722.500000 58.164136
722.500000 58.476426
722.500000 58.789552
722.500000 59.103514
722.500000 59.418313
722.500000 59.733947
722.500000 60.050418
722.500000 60.367725
722.500000 60.685868
722.500000 61.004847
722.500000 61.324662
722.500000 61.645313
722.500000 61.966801
722.500000 62.289124
722.500000 62.612284
722.500000 62.936279
722.500000 63.261111
722.500000 63.586779
722.500000 63.913283
722.500000 64.240624
722.500000 64.568800
722.500000 64.897812
722.500000 65.227661
722.500000 65.558346
722.500000 65.889867
722.500000 66.222223
722.500000 66.555417
722.500000 66.889446
722.500000 67.224311
722.500000 67.560012
722.500000 67.896550
722.500000 68.233924
722.500000 68.572133
722.500000 68.911179
722.500000 69.251061
722.500000 69.591779
722.500000 69.933334
722.500000 70.275724
722.500000 70.618950
722.500000 70.963013
722.500000 71.307912
722.500000 71.653646
722.500000 72.000217
722.500000 72.347624
722.500000 72.695868
722.500000 73.044947
722.500000 73.394862
722.500000 73.745614
722.500000 74.097202
722.500000 74.449625
722.500000 74.802885
722.500000 75.156981
722.500000 75.511913
722.500000 75.867682
722.500000 76.224286
722.500000 76.581726
722.500000 76.940003
722.500000 77.299116
722.500000 77.659064
722.500000 78.019849
722.500000 78.381471
722.500000 78.743928
722.500000 79.107221
722.500000 79.471350
722.500000 79.836316
722.500000 80.202118
722.500000 80.568755
722.500000 80.936229
722.500000 81.304539
722.500000 81.673685
722.500000 82.043668
722.500000 82.414486
722.500000 82.786141
722.500000 83.158631
722.500000 83.531958
722.500000 83.906121
722.500000 84.281120
722.500000 84.656955
722.500000 85.033626
722.500000 85.411133
722.500000 85.789477
722.500000 86.168656
722.500000 86.548672
722.500000 86.929524
722.500000 87.311212
722.500000 87.693736
722.500000 88.077096
722.500000 88.461292
722.500000 88.846324
722.500000 89.232193
722.500000 89.618897
722.500000 90.006438
722.500000 90.394815
722.500000 90.784028
722.500000 91.174077
722.500000 91.564962
722.500000 91.956684
722.500000 92.349241
722.500000 92.742634
722.500000 93.136864
722.500000 93.531930
722.500000 93.927832
722.500000 94.324570
722.500000 94.722144
722.500000 95.120554
722.500000 95.519801
722.500000 95.919883
722.500000 96.320802
722.500000 96.722557
722.500000 97.125147
722.500000 97.528574
722.500000 97.932837
722.500000 98.337937
722.500000 98.743872
722.500000 99.150643
722.500000 99.558251
722.500000 99.966695
722.500000 100.375974
722.500000 100.786090
722.500000 101.197042
722.500000 101.608831
722.500000 102.021455
722.500000 102.434915
722.500000 102.849212
722.500000 103.264344
722.500000 103.680313
722.500000 104.097118
722.500000 104.514759
722.500000 104.933236
722.500000 105.352549
722.500000 105.772699
722.500000 106.193684
722.500000 106.615506
722.500000 107.038163
722.500000 107.461657
722.500000 107.885987
722.500000 108.311153
722.500000 108.737155
722.500000 109.163993
722.500000 109.591668
722.500000 110.020178
722.500000 110.449525
722.500000 110.879708
722.500000 111.310727
722.500000 111.742582
722.500000 112.175273
722.500000 112.608800
722.500000 113.043163
722.500000 113.478363
722.500000 113.914398
722.500000 114.351270
722.500000 114.788978
722.500000 115.227522
722.500000 115.666902
722.500000 116.107118
722.500000 116.548170
722.500000 116.990059
722.500000 117.432783
722.500000 117.876344
722.500000 118.320740
722.500000 118.765973
722.500000 119.212042
722.500000 119.658947
722.500000 120.106689
722.500000 120.555266
722.500000 121.004679
722.500000 121.454929
722.500000 121.906015
722.500000 122.357937
722.500000 122.810695
722.500000 123.264289
722.500000 123.718719
722.500000 124.173985
722.500000 124.630087
722.500000 125.087026
722.500000 125.544801
722.500000 126.003411
722.500000 126.462858
722.500000 126.923141
722.500000 127.384260
722.500000 127.846216
722.500000 128.309007
722.500000 128.772634
722.500000 129.237098
722.500000 129.702398
722.500000 130.168534
722.500000 130.635505
722.500000 131.103314
722.500000 131.571958
722.500000 132.041438
722.500000 132.511754
722.500000 132.982907
722.500000 133.454896
722.500000 133.927720
722.500000 134.401381
722.500000 134.875878
722.500000 135.351211
722.500000 135.827381
722.500000 136.304386
722.500000 136.782227
722.500000 137.260905
722.500000 137.740419
722.500000 138.220769
722.500000 138.701955
722.500000 139.183977
722.500000 139.666835
722.500000 140.150529
722.500000 140.635060
722.500000 141.120426
722.500000 141.606629
722.500000 142.093668
722.500000 142.581542
722.500000 143.070253
722.500000 143.559801
722.500000 144.050184
722.500000 144.541403
722.500000 145.033459
722.500000 145.526350
722.500000 146.020078
722.500000 146.514642
722.500000 147.010042
722.500000 147.506278
722.500000 148.003350
722.500000 148.501258
722.500000 149.000003
722.500000 149.499583
722.500000 150.000000
</POINTS>
</NEKTAR>

