<?xml version="1.0" encoding="utf-8" ?>
<NEKTAR>
<POINTS DIM="2" FIELDS="">
10.500000 -1.000000
10.500000 -0.999579
10.500000 -0.998317
10.500000 -0.996212
10.500000 -0.993266
10.500000 -0.989479
10.500000 -0.984850
10.500000 -0.979379
10.500000 -0.973066
10.500000 -0.965911
10.500000 -0.957915
10.500000 -0.949078
10.500000 -0.939398
10.500000 -0.928877
10.500000 -0.917514
10.500000 -0.905310
10.500000 -0.892263
10.500000 -0.878375
10.500000 -0.863646
10.500000 -0.848075
10.500000 -0.831662
10.500000 -0.814407
10.500000 -0.796310
10.500000 -0.777372
10.500000 -0.757593
10.500000 -0.736971
10.500000 -0.715508
10.500000 -0.693203
10.500000 -0.670057
10.500000 -0.646068
10.500000 -0.621239
10.500000 -0.595567
10.500000 -0.569054
10.500000 -0.541699
10.500000 -0.513502
10.500000 -0.484464
10.500000 -0.454583
10.500000 -0.423862
10.500000 -0.392298
10.500000 -0.359893
10.500000 -0.326646
10.500000 -0.292558
10.500000 -0.257627
10.500000 -0.221856
10.500000 -0.185242
10.500000 -0.147787
10.500000 -0.109490
10.500000 -0.070351
10.500000 -0.030371
10.500000 0.010451
10.500000 0.052115
10.500000 0.094621
10.500000 0.137968
10.500000 0.182157
10.500000 0.227187
10.500000 0.273059
10.500000 0.319773
10.500000 0.367329
10.500000 0.415726
10.500000 0.464965
10.500000 0.515046
10.500000 0.565968
10.500000 0.617732
10.500000 0.670338
10.500000 0.723786
10.500000 0.778075
10.500000 0.833206
10.500000 0.889178
10.500000 0.945992
10.500000 1.003648
10.500000 1.062146
10.500000 1.121485
10.500000 1.181666
10.500000 1.242689
10.500000 1.304553
10.500000 1.367259
10.500000 1.430807
10.500000 1.495197
10.500000 1.560428
10.500000 1.626500
10.500000 1.693415
10.500000 1.761171
10.500000 1.829769
10.500000 1.899209
10.500000 1.969490
10.500000 2.040613
10.500000 2.112578
10.500000 2.185384
10.500000 2.259032
10.500000 2.333522
10.500000 2.408853
10.500000 2.485027
10.500000 2.562041
10.500000 2.639898
10.500000 2.718596
10.500000 2.798136
10.500000 2.878518
10.500000 2.959741
10.500000 3.041806
10.500000 3.124713
10.500000 3.208461
10.500000 3.293051
10.500000 3.378483
10.500000 3.464756
10.500000 3.551871
10.500000 3.639828
10.500000 3.728627
10.500000 3.818267
10.500000 3.908749
10.500000 4.000072
10.500000 4.092238
10.500000 4.185245
10.500000 4.279093
10.500000 4.373784
10.500000 4.469316
10.500000 4.565690
10.500000 4.662905
10.500000 4.760962
10.500000 4.859861
10.500000 4.959602
10.500000 5.060184
10.500000 5.161608
10.500000 5.263873
10.500000 5.366981
10.500000 5.470930
10.500000 5.575720
10.500000 5.681353
10.500000 5.787827
10.500000 5.895142
10.500000 6.003300
10.500000 6.112299
10.500000 6.222140
10.500000 6.332822
10.500000 6.444347
10.500000 6.556712
10.500000 6.669920
10.500000 6.783969
10.500000 6.898860
10.500000 7.014593
10.500000 7.131167
10.500000 7.248583
10.500000 7.366841
10.500000 7.485941
10.500000 7.605882
10.500000 7.726665
10.500000 7.848289
10.500000 7.970755
10.500000 8.094063
10.500000 8.218213
10.500000 8.343204
10.500000 8.469037
10.500000 8.595712
10.500000 8.723228
10.500000 8.851586
10.500000 8.980786
10.500000 9.110827
10.500000 9.241711
10.500000 9.373435
10.500000 9.506002
10.500000 9.639410
10.500000 9.773660
10.500000 9.908752
10.500000 10.044685
10.500000 10.181460
10.500000 10.319077
10.500000 10.457535
10.500000 10.596835
10.500000 10.736977
10.500000 10.877960
10.500000 11.019785
10.500000 11.162452
10.500000 11.305961
10.500000 11.450311
10.500000 11.595503
10.500000 11.741536
10.500000 11.888412
10.500000 12.036129
10.500000 12.184687
10.500000 12.334088
10.500000 12.484330
10.500000 12.635414
10.500000 12.787339
10.500000 12.940106
10.500000 13.093715
10.500000 13.248165
10.500000 13.403458
10.500000 13.559592
10.500000 13.716567
10.500000 13.874384
10.500000 14.033043
10.500000 14.192544
10.500000 14.352886
10.500000 14.514070
10.500000 14.676096
10.500000 14.838964
10.500000 15.002673
10.500000 15.167224
10.500000 15.332616
10.500000 15.498850
10.500000 15.665926
10.500000 15.833844
10.500000 16.002603
10.500000 16.172204
10.500000 16.342647
10.500000 16.513931
10.500000 16.686057
10.500000 16.859025
10.500000 17.032834
10.500000 17.207485
10.500000 17.382978
10.500000 17.559313
10.500000 17.736489
10.500000 17.914507
10.500000 18.093367
10.500000 18.273068
10.500000 18.453611
10.500000 18.634995
10.500000 18.817222
10.500000 19.000290
10.500000 19.184200
10.500000 19.368951
10.500000 19.554544
10.500000 19.740979
10.500000 19.928255
10.500000 20.116374
10.500000 20.305334
10.500000 20.495135
10.500000 20.685778
10.500000 20.877263
10.500000 21.069590
10.500000 21.262758
10.500000 21.456769
10.500000 21.651620
10.500000 21.847314
10.500000 22.043849
10.500000 22.241226
10.500000 22.439444
10.500000 22.638504
10.500000 22.838406
10.500000 23.039150
10.500000 23.240735
10.500000 23.443162
10.500000 23.646431
10.500000 23.850541
10.500000 24.055493
10.500000 24.261287
10.500000 24.467922
10.500000 24.675399
10.500000 24.883718
10.500000 25.092879
10.500000 25.302881
10.500000 25.513725
10.500000 25.725410
10.500000 25.937938
10.500000 26.151307
10.500000 26.365517
10.500000 26.580570
10.500000 26.796464
10.500000 27.013200
10.500000 27.230777
10.500000 27.449196
10.500000 27.668457
10.500000 27.888559
10.500000 28.109504
10.500000 28.331289
10.500000 28.553917
10.500000 28.777386
10.500000 29.001697
10.500000 29.226850
10.500000 29.452844
10.500000 29.679680
10.500000 29.907358
10.500000 30.135878
10.500000 30.365239
10.500000 30.595441
10.500000 30.826486
10.500000 31.058372
10.500000 31.291100
10.500000 31.524670
10.500000 31.759081
10.500000 31.994334
10.500000 32.230429
10.500000 32.467365
10.500000 32.705143
10.500000 32.943763
10.500000 33.183224
10.500000 33.423527
10.500000 33.664672
10.500000 33.906659
10.500000 34.149487
10.500000 34.393157
10.500000 34.637668
10.500000 34.883022
10.500000 35.129216
10.500000 35.376253
10.500000 35.624131
10.500000 35.872852
10.500000 36.122413
10.500000 36.372817
10.500000 36.624062
10.500000 36.876149
10.500000 37.129077
10.500000 37.382847
10.500000 37.637459
10.500000 37.892913
10.500000 38.149208
10.500000 38.406345
10.500000 38.664324
10.500000 38.923144
10.500000 39.182806
10.500000 39.443310
10.500000 39.704655
10.500000 39.966842
10.500000 40.229871
10.500000 40.493742
10.500000 40.758454
10.500000 41.024008
10.500000 41.290403
10.500000 41.557641
10.500000 41.825720
10.500000 42.094640
10.500000 42.364403
10.500000 42.635007
10.500000 42.906452
10.500000 43.178740
10.500000 43.451869
10.500000 43.725840
10.500000 44.000652
10.500000 44.276306
10.500000 44.552802
10.500000 44.830140
10.500000 45.108319
10.500000 45.387340
10.500000 45.667203
10.500000 45.947907
10.500000 46.229453
10.500000 46.511841
10.500000 46.795070
10.500000 47.079141
10.500000 47.364054
10.500000 47.649809
10.500000 47.936405
10.500000 48.223843
10.500000 48.512122
10.500000 48.801244
10.500000 49.091207
10.500000 49.382011
10.500000 49.673658
10.500000 49.966146
10.500000 50.259475
10.500000 50.553647
10.500000 50.848660
10.500000 51.144515
10.500000 51.441211
10.500000 51.738749
10.500000 52.037129
10.500000 52.336351
10.500000 52.636414
10.500000 52.937319
10.500000 53.239066
10.500000 53.541654
10.500000 53.845084
10.500000 54.149356
10.500000 54.454469
10.500000 54.760424
10.500000 55.067221
10.500000 55.374860
10.500000 55.683340
10.500000 55.992662
10.500000 56.302825
10.500000 56.613831
10.500000 56.925677
10.500000 57.238366
10.500000 57.551896
10.500000 57.866268
10.500000 58.181482
10.500000 58.497538
10.500000 58.814435
10.500000 59.132174
10.500000 59.450754
10.500000 59.770176
10.500000 60.090440
10.500000 60.411546
10.500000 60.733493
10.500000 61.056282
10.500000 61.379913
10.500000 61.704385
10.500000 62.029699
10.500000 62.355855
10.500000 62.682852
10.500000 63.010691
10.500000 63.339372
10.500000 63.668894
10.500000 63.999259
10.500000 64.330465
10.500000 64.662512
10.500000 64.995401
10.500000 65.329132
10.500000 65.663705
10.500000 65.999119
10.500000 66.335375
10.500000 66.672473
10.500000 67.010412
10.500000 67.349194
10.500000 67.688816
10.500000 68.029281
10.500000 68.370587
10.500000 68.712735
10.500000 69.055724
10.500000 69.399556
10.500000 69.744229
10.500000 70.089743
10.500000 70.436100
10.500000 70.783298
10.500000 71.131337
10.500000 71.480219
10.500000 71.829942
10.500000 72.180507
10.500000 72.531913
10.500000 72.884161
10.500000 73.237251
10.500000 73.591183
10.500000 73.945956
10.500000 74.301571
10.500000 74.658028
10.500000 75.015326
10.500000 75.373466
10.500000 75.732448
10.500000 76.092271
10.500000 76.452936
10.500000 76.814443
10.500000 77.176792
10.500000 77.539982
10.500000 77.904014
10.500000 78.268887
10.500000 78.634602
10.500000 79.001159
10.500000 79.368558
10.500000 79.736798
10.500000 80.105880
10.500000 80.475804
10.500000 80.846570
10.500000 81.218177
10.500000 81.590625
10.500000 81.963916
10.500000 82.338048
10.500000 82.713022
10.500000 83.088838
10.500000 83.465495
10.500000 83.842994
10.500000 84.221334
10.500000 84.600517
10.500000 84.980541
10.500000 85.361406
10.500000 85.743114
10.500000 86.125663
10.500000 86.509054
10.500000 86.893286
10.500000 87.278360
10.500000 87.664276
10.500000 88.051034
10.500000 88.438633
10.500000 88.827074
10.500000 89.216357
10.500000 89.606481
10.500000 89.997447
10.500000 90.389255
10.500000 90.781904
10.500000 91.175395
10.500000 91.569728
10.500000 91.964903
10.500000 92.360919
10.500000 92.757777
10.500000 93.155476
10.500000 93.554017
10.500000 93.953400
10.500000 94.353625
10.500000 94.754691
10.500000 95.156599
10.500000 95.559349
10.500000 95.962940
10.500000 96.367374
10.500000 96.772648
10.500000 97.178765
10.500000 97.585723
10.500000 97.993523
10.500000 98.402164
10.500000 98.811648
10.500000 99.221973
10.500000 99.633139
10.500000 100.045148
10.500000 100.457998
10.500000 100.871689
10.500000 101.286223
10.500000 101.701598
10.500000 102.117815
10.500000 102.534873
10.500000 102.952773
10.500000 103.371515
10.500000 103.791099
10.500000 104.211524
10.500000 104.632791
10.500000 105.054900
10.500000 105.477850
10.500000 105.901642
10.500000 106.326276
10.500000 106.751751
10.500000 107.178068
10.500000 107.605227
10.500000 108.033227
10.500000 108.462070
10.500000 108.891753
10.500000 109.322279
10.500000 109.753646
10.500000 110.185855
10.500000 110.618906
10.500000 111.052798
10.500000 111.487532
10.500000 111.923108
10.500000 112.359525
10.500000 112.796784
10.500000 113.234885
10.500000 113.673828
10.500000 114.113612
10.500000 114.554238
10.500000 114.995705
10.500000 115.438014
10.500000 115.881165
10.500000 116.325158
10.500000 116.769992
10.500000 117.215668
10.500000 117.662186
10.500000 118.109545
10.500000 118.557746
10.500000 119.006789
10.500000 119.456674
10.500000 119.907400
10.500000 120.358968
10.500000 120.811377
10.500000 121.264629
10.500000 121.718722
10.500000 122.173656
10.500000 122.629432
10.500000 123.086050
10.500000 123.543510
10.500000 124.001812
10.500000 124.460955
10.500000 124.920939
10.500000 125.381766
10.500000 125.843434
10.500000 126.305944
10.500000 126.769296
10.500000 127.233489
10.500000 127.698524
10.500000 128.164400
10.500000 128.631119
10.500000 129.098679
10.500000 129.567080
10.500000 130.036324
10.500000 130.506409
10.500000 130.977336
10.500000 131.449104
10.500000 131.921714
10.500000 132.395166
10.500000 132.869460
10.500000 133.344595
10.500000 133.820572
10.500000 134.297390
10.500000 134.775051
10.500000 135.253553
10.500000 135.732897
10.500000 136.213082
10.500000 136.694109
10.500000 137.175978
10.500000 137.658688
10.500000 138.142240
10.500000 138.626634
10.500000 139.111870
10.500000 139.597947
10.500000 140.084866
10.500000 140.572627
10.500000 141.061229
10.500000 141.550673
10.500000 142.040959
10.500000 142.532086
10.500000 143.024055
10.500000 143.516866
10.500000 144.010518
10.500000 144.505013
10.500000 145.000348
10.500000 145.496526
10.500000 145.993545
10.500000 146.491406
10.500000 146.990109
10.500000 147.489653
10.500000 147.990039
10.500000 148.491267
10.500000 148.993336
10.500000 149.496247
10.500000 150.000000
</POINTS>
</NEKTAR>

