<?xml version="1.0" encoding="utf-8" ?>
<NEKTAR>
<POINTS DIM="2" FIELDS="">
802.500000 0.000000
802.500000 0.000418
802.500000 0.001672
802.500000 0.003763
802.500000 0.006689
802.500000 0.010451
802.500000 0.015050
802.500000 0.020485
802.500000 0.026756
802.500000 0.033863
802.500000 0.041806
802.500000 0.050585
802.500000 0.060201
802.500000 0.070652
802.500000 0.081940
802.500000 0.094063
802.500000 0.107023
802.500000 0.120819
802.500000 0.135451
802.500000 0.150919
802.500000 0.167224
802.500000 0.184364
802.500000 0.202341
802.500000 0.221153
802.500000 0.240802
802.500000 0.261287
802.500000 0.282608
802.500000 0.304765
802.500000 0.327758
802.500000 0.351588
802.500000 0.376253
802.500000 0.401755
802.500000 0.428092
802.500000 0.455266
802.500000 0.483276
802.500000 0.512122
802.500000 0.541805
802.500000 0.572323
802.500000 0.603677
802.500000 0.635868
802.500000 0.668894
802.500000 0.702757
802.500000 0.737456
802.500000 0.772991
802.500000 0.809362
802.500000 0.846570
802.500000 0.884613
802.500000 0.923492
802.500000 0.963208
802.500000 1.003760
802.500000 1.045148
802.500000 1.087372
802.500000 1.130432
802.500000 1.174328
802.500000 1.219060
802.500000 1.264629
802.500000 1.311033
802.500000 1.358274
802.500000 1.406351
802.500000 1.455264
802.500000 1.505013
802.500000 1.555598
802.500000 1.607019
802.500000 1.659276
802.500000 1.712370
802.500000 1.766299
802.500000 1.821065
802.500000 1.876667
802.500000 1.933105
802.500000 1.990379
802.500000 2.048489
802.500000 2.107436
802.500000 2.167218
802.500000 2.227837
802.500000 2.289291
802.500000 2.351582
802.500000 2.414709
802.500000 2.478672
802.500000 2.543471
802.500000 2.609106
802.500000 2.675578
802.500000 2.742885
802.500000 2.811029
802.500000 2.880009
802.500000 2.949825
802.500000 3.020477
802.500000 3.091965
802.500000 3.164289
802.500000 3.237449
802.500000 3.311446
802.500000 3.386278
802.500000 3.461947
802.500000 3.538452
802.500000 3.615793
802.500000 3.693970
802.500000 3.772983
802.500000 3.852832
802.500000 3.933517
802.500000 4.015039
802.500000 4.097397
802.500000 4.180590
802.500000 4.264620
802.500000 4.349486
802.500000 4.435188
802.500000 4.521727
802.500000 4.609101
802.500000 4.697311
802.500000 4.786358
802.500000 4.876241
802.500000 4.966959
802.500000 5.058514
802.500000 5.150905
802.500000 5.244133
802.500000 5.338196
802.500000 5.433095
802.500000 5.528831
802.500000 5.625402
802.500000 5.722810
802.500000 5.821054
802.500000 5.920134
802.500000 6.020050
802.500000 6.120802
802.500000 6.222391
802.500000 6.324815
802.500000 6.428076
802.500000 6.532172
802.500000 6.637105
802.500000 6.742874
802.500000 6.849479
802.500000 6.956920
802.500000 7.065198
802.500000 7.174311
802.500000 7.284261
802.500000 7.395046
802.500000 7.506668
802.500000 7.619126
802.500000 7.732420
802.500000 7.846550
802.500000 7.961516
802.500000 8.077319
802.500000 8.193957
802.500000 8.311432
802.500000 8.429742
802.500000 8.548889
802.500000 8.668872
802.500000 8.789691
802.500000 8.911346
802.500000 9.033838
802.500000 9.157165
802.500000 9.281329
802.500000 9.406328
802.500000 9.532164
802.500000 9.658836
802.500000 9.786344
802.500000 9.914688
802.500000 10.043868
802.500000 10.173885
802.500000 10.304737
802.500000 10.436426
802.500000 10.568950
802.500000 10.702311
802.500000 10.836508
802.500000 10.971541
802.500000 11.107411
802.500000 11.244116
802.500000 11.381657
802.500000 11.520035
802.500000 11.659248
802.500000 11.799298
802.500000 11.940184
802.500000 12.081906
802.500000 12.224464
802.500000 12.367859
802.500000 12.512089
802.500000 12.657155
802.500000 12.803058
802.500000 12.949797
802.500000 13.097372
802.500000 13.245782
802.500000 13.395030
802.500000 13.545113
802.500000 13.696032
802.500000 13.847787
802.500000 14.000379
802.500000 14.153807
802.500000 14.308070
802.500000 14.463170
802.500000 14.619106
802.500000 14.775879
802.500000 14.933487
802.500000 15.091931
802.500000 15.251212
802.500000 15.411328
802.500000 15.572281
802.500000 15.734070
802.500000 15.896695
802.500000 16.060156
802.500000 16.224453
802.500000 16.389586
802.500000 16.555556
802.500000 16.722361
802.500000 16.890003
802.500000 17.058481
802.500000 17.227795
802.500000 17.397945
802.500000 17.568931
802.500000 17.740753
802.500000 17.913412
802.500000 18.086906
802.500000 18.261237
802.500000 18.436403
802.500000 18.612406
802.500000 18.789245
802.500000 18.966920
802.500000 19.145432
802.500000 19.324779
802.500000 19.504962
802.500000 19.685982
802.500000 19.867838
802.500000 20.050529
802.500000 20.234057
802.500000 20.418421
802.500000 20.603622
802.500000 20.789658
802.500000 20.976530
802.500000 21.164239
802.500000 21.352783
802.500000 21.542164
802.500000 21.732381
802.500000 21.923434
802.500000 22.115323
802.500000 22.308048
802.500000 22.501610
802.500000 22.696007
802.500000 22.891241
802.500000 23.087310
802.500000 23.284216
802.500000 23.481958
802.500000 23.680536
802.500000 23.879950
802.500000 24.080200
802.500000 24.281287
802.500000 24.483209
802.500000 24.685968
802.500000 24.889563
802.500000 25.093994
802.500000 25.299261
802.500000 25.505364
802.500000 25.712303
802.500000 25.920078
802.500000 26.128690
802.500000 26.338137
802.500000 26.548421
802.500000 26.759541
802.500000 26.971497
802.500000 27.184289
802.500000 27.397917
802.500000 27.612381
802.500000 27.827682
802.500000 28.043818
802.500000 28.260791
802.500000 28.478600
802.500000 28.697244
802.500000 28.916725
802.500000 29.137043
802.500000 29.358196
802.500000 29.580185
802.500000 29.803011
802.500000 30.026672
802.500000 30.251170
802.500000 30.476504
802.500000 30.702674
802.500000 30.929680
802.500000 31.157522
802.500000 31.386200
802.500000 31.615715
802.500000 31.846065
802.500000 32.077252
802.500000 32.309275
802.500000 32.542133
802.500000 32.775828
802.500000 33.010360
802.500000 33.245727
802.500000 33.481930
802.500000 33.718970
802.500000 33.956845
802.500000 34.195557
802.500000 34.435105
802.500000 34.675489
802.500000 34.916709
802.500000 35.158765
802.500000 35.401657
802.500000 35.645386
802.500000 35.889950
802.500000 36.135351
802.500000 36.381588
802.500000 36.628660
802.500000 36.876569
802.500000 37.125315
802.500000 37.374896
802.500000 37.625313
802.500000 37.876567
802.500000 38.128656
802.500000 38.381582
802.500000 38.635344
802.500000 38.889942
802.500000 39.145376
802.500000 39.401646
802.500000 39.658752
802.500000 39.916695
802.500000 40.175473
802.500000 40.435088
802.500000 40.695539
802.500000 40.956826
802.500000 41.218949
802.500000 41.481908
802.500000 41.745703
802.500000 42.010334
802.500000 42.275802
802.500000 42.542106
802.500000 42.809245
802.500000 43.077221
802.500000 43.346033
802.500000 43.615681
802.500000 43.886165
802.500000 44.157486
802.500000 44.429642
802.500000 44.702635
802.500000 44.976463
802.500000 45.251128
802.500000 45.526629
802.500000 45.802966
802.500000 46.080139
802.500000 46.358148
802.500000 46.636994
802.500000 46.916675
802.500000 47.197193
802.500000 47.478547
802.500000 47.760736
802.500000 48.043762
802.500000 48.327625
802.500000 48.612323
802.500000 48.897857
802.500000 49.184227
802.500000 49.471434
802.500000 49.759477
802.500000 50.048355
802.500000 50.338070
802.500000 50.628621
802.500000 50.920009
802.500000 51.212232
802.500000 51.505291
802.500000 51.799187
802.500000 52.093918
802.500000 52.389486
802.500000 52.685890
802.500000 52.983130
802.500000 53.281206
802.500000 53.580118
802.500000 53.879867
802.500000 54.180451
802.500000 54.481872
802.500000 54.784128
802.500000 55.087221
802.500000 55.391150
802.500000 55.695915
802.500000 56.001516
802.500000 56.307953
802.500000 56.615227
802.500000 56.923336
802.500000 57.232282
802.500000 57.542064
802.500000 57.852682
802.500000 58.164136
802.500000 58.476426
802.500000 58.789552
802.500000 59.103514
802.500000 59.418313
802.500000 59.733947
802.500000 60.050418
802.500000 60.367725
802.500000 60.685868
802.500000 61.004847
802.500000 61.324662
802.500000 61.645313
802.500000 61.966801
802.500000 62.289124
802.500000 62.612284
802.500000 62.936279
802.500000 63.261111
802.500000 63.586779
802.500000 63.913283
802.500000 64.240624
802.500000 64.568800
802.500000 64.897812
802.500000 65.227661
802.500000 65.558346
802.500000 65.889867
802.500000 66.222223
802.500000 66.555417
802.500000 66.889446
802.500000 67.224311
802.500000 67.560012
802.500000 67.896550
802.500000 68.233924
802.500000 68.572133
802.500000 68.911179
802.500000 69.251061
802.500000 69.591779
802.500000 69.933334
802.500000 70.275724
802.500000 70.618950
802.500000 70.963013
802.500000 71.307912
802.500000 71.653646
802.500000 72.000217
802.500000 72.347624
802.500000 72.695868
802.500000 73.044947
802.500000 73.394862
802.500000 73.745614
802.500000 74.097202
802.500000 74.449625
802.500000 74.802885
802.500000 75.156981
802.500000 75.511913
802.500000 75.867682
802.500000 76.224286
802.500000 76.581726
802.500000 76.940003
802.500000 77.299116
802.500000 77.659064
802.500000 78.019849
802.500000 78.381471
802.500000 78.743928
802.500000 79.107221
802.500000 79.471350
802.500000 79.836316
802.500000 80.202118
802.500000 80.568755
802.500000 80.936229
802.500000 81.304539
802.500000 81.673685
802.500000 82.043668
802.500000 82.414486
802.500000 82.786141
802.500000 83.158631
802.500000 83.531958
802.500000 83.906121
802.500000 84.281120
802.500000 84.656955
802.500000 85.033626
802.500000 85.411133
802.500000 85.789477
802.500000 86.168656
802.500000 86.548672
802.500000 86.929524
802.500000 87.311212
802.500000 87.693736
802.500000 88.077096
802.500000 88.461292
802.500000 88.846324
802.500000 89.232193
802.500000 89.618897
802.500000 90.006438
802.500000 90.394815
802.500000 90.784028
802.500000 91.174077
802.500000 91.564962
802.500000 91.956684
802.500000 92.349241
802.500000 92.742634
802.500000 93.136864
802.500000 93.531930
802.500000 93.927832
802.500000 94.324570
802.500000 94.722144
802.500000 95.120554
802.500000 95.519801
802.500000 95.919883
802.500000 96.320802
802.500000 96.722557
802.500000 97.125147
802.500000 97.528574
802.500000 97.932837
802.500000 98.337937
802.500000 98.743872
802.500000 99.150643
802.500000 99.558251
802.500000 99.966695
802.500000 100.375974
802.500000 100.786090
802.500000 101.197042
802.500000 101.608831
802.500000 102.021455
802.500000 102.434915
802.500000 102.849212
802.500000 103.264344
802.500000 103.680313
802.500000 104.097118
802.500000 104.514759
802.500000 104.933236
802.500000 105.352549
802.500000 105.772699
802.500000 106.193684
802.500000 106.615506
802.500000 107.038163
802.500000 107.461657
802.500000 107.885987
802.500000 108.311153
802.500000 108.737155
802.500000 109.163993
802.500000 109.591668
802.500000 110.020178
802.500000 110.449525
802.500000 110.879708
802.500000 111.310727
802.500000 111.742582
802.500000 112.175273
802.500000 112.608800
802.500000 113.043163
802.500000 113.478363
802.500000 113.914398
802.500000 114.351270
802.500000 114.788978
802.500000 115.227522
802.500000 115.666902
802.500000 116.107118
802.500000 116.548170
802.500000 116.990059
802.500000 117.432783
802.500000 117.876344
802.500000 118.320740
802.500000 118.765973
802.500000 119.212042
802.500000 119.658947
802.500000 120.106689
802.500000 120.555266
802.500000 121.004679
802.500000 121.454929
802.500000 121.906015
802.500000 122.357937
802.500000 122.810695
802.500000 123.264289
802.500000 123.718719
802.500000 124.173985
802.500000 124.630087
802.500000 125.087026
802.500000 125.544801
802.500000 126.003411
802.500000 126.462858
802.500000 126.923141
802.500000 127.384260
802.500000 127.846216
802.500000 128.309007
802.500000 128.772634
802.500000 129.237098
802.500000 129.702398
802.500000 130.168534
802.500000 130.635505
802.500000 131.103314
802.500000 131.571958
802.500000 132.041438
802.500000 132.511754
802.500000 132.982907
802.500000 133.454896
802.500000 133.927720
802.500000 134.401381
802.500000 134.875878
802.500000 135.351211
802.500000 135.827381
802.500000 136.304386
802.500000 136.782227
802.500000 137.260905
802.500000 137.740419
802.500000 138.220769
802.500000 138.701955
802.500000 139.183977
802.500000 139.666835
802.500000 140.150529
802.500000 140.635060
802.500000 141.120426
802.500000 141.606629
802.500000 142.093668
802.500000 142.581542
802.500000 143.070253
802.500000 143.559801
802.500000 144.050184
802.500000 144.541403
802.500000 145.033459
802.500000 145.526350
802.500000 146.020078
802.500000 146.514642
802.500000 147.010042
802.500000 147.506278
802.500000 148.003350
802.500000 148.501258
802.500000 149.000003
802.500000 149.499583
802.500000 150.000000
</POINTS>
</NEKTAR>

