<?xml version="1.0" encoding="utf-8" ?>
<NEKTAR>
<POINTS DIM="2" FIELDS="">
38.500000 -1.750000
38.500000 -1.749577
38.500000 -1.748308
38.500000 -1.746194
38.500000 -1.743233
38.500000 -1.739427
38.500000 -1.734774
38.500000 -1.729276
38.500000 -1.722932
38.500000 -1.715742
38.500000 -1.707706
38.500000 -1.698825
38.500000 -1.689097
38.500000 -1.678524
38.500000 -1.667104
38.500000 -1.654839
38.500000 -1.641728
38.500000 -1.627771
38.500000 -1.612969
38.500000 -1.597320
38.500000 -1.580825
38.500000 -1.563485
38.500000 -1.545299
38.500000 -1.526267
38.500000 -1.506389
38.500000 -1.485665
38.500000 -1.464095
38.500000 -1.441679
38.500000 -1.418418
38.500000 -1.394310
38.500000 -1.369357
38.500000 -1.343558
38.500000 -1.316913
38.500000 -1.289422
38.500000 -1.261086
38.500000 -1.231903
38.500000 -1.201874
38.500000 -1.171000
38.500000 -1.139280
38.500000 -1.106714
38.500000 -1.073302
38.500000 -1.039044
38.500000 -1.003940
38.500000 -0.967991
38.500000 -0.931195
38.500000 -0.893554
38.500000 -0.855067
38.500000 -0.815734
38.500000 -0.775555
38.500000 -0.734530
38.500000 -0.692659
38.500000 -0.649942
38.500000 -0.606380
38.500000 -0.561972
38.500000 -0.516717
38.500000 -0.470617
38.500000 -0.423671
38.500000 -0.375880
38.500000 -0.327242
38.500000 -0.277758
38.500000 -0.227429
38.500000 -0.176254
38.500000 -0.124233
38.500000 -0.071365
38.500000 -0.017653
38.500000 0.036906
38.500000 0.092311
38.500000 0.148561
38.500000 0.205658
38.500000 0.263600
38.500000 0.322388
38.500000 0.382022
38.500000 0.442502
38.500000 0.503828
38.500000 0.566000
38.500000 0.629017
38.500000 0.692881
38.500000 0.757590
38.500000 0.823145
38.500000 0.889546
38.500000 0.956793
38.500000 1.024886
38.500000 1.093824
38.500000 1.163609
38.500000 1.234239
38.500000 1.305715
38.500000 1.378038
38.500000 1.451206
38.500000 1.525219
38.500000 1.600079
38.500000 1.675785
38.500000 1.752336
38.500000 1.829734
38.500000 1.907977
38.500000 1.987066
38.500000 2.067001
38.500000 2.147782
38.500000 2.229409
38.500000 2.311881
38.500000 2.395200
38.500000 2.479364
38.500000 2.564374
38.500000 2.650230
38.500000 2.736932
38.500000 2.824480
38.500000 2.912874
38.500000 3.002113
38.500000 3.092199
38.500000 3.183130
38.500000 3.274907
38.500000 3.367530
38.500000 3.460999
38.500000 3.555314
38.500000 3.650475
38.500000 3.746481
38.500000 3.843334
38.500000 3.941032
38.500000 4.039576
38.500000 4.138966
38.500000 4.239202
38.500000 4.340284
38.500000 4.442212
38.500000 4.544985
38.500000 4.648605
38.500000 4.753070
38.500000 4.858381
38.500000 4.964538
38.500000 5.071541
38.500000 5.179390
38.500000 5.288084
38.500000 5.397625
38.500000 5.508011
38.500000 5.619244
38.500000 5.731322
38.500000 5.844246
38.500000 5.958016
38.500000 6.072631
38.500000 6.188093
38.500000 6.304401
38.500000 6.421554
38.500000 6.539553
38.500000 6.658398
38.500000 6.778089
38.500000 6.898626
38.500000 7.020009
38.500000 7.142238
38.500000 7.265312
38.500000 7.389232
38.500000 7.513999
38.500000 7.639611
38.500000 7.766069
38.500000 7.893373
38.500000 8.021522
38.500000 8.150518
38.500000 8.280359
38.500000 8.411047
38.500000 8.542580
38.500000 8.674959
38.500000 8.808184
38.500000 8.942255
38.500000 9.077172
38.500000 9.212934
38.500000 9.349543
38.500000 9.486997
38.500000 9.625297
38.500000 9.764443
38.500000 9.904435
38.500000 10.045273
38.500000 10.186957
38.500000 10.329486
38.500000 10.472862
38.500000 10.617083
38.500000 10.762150
38.500000 10.908063
38.500000 11.054822
38.500000 11.202427
38.500000 11.350878
38.500000 11.500174
38.500000 11.650317
38.500000 11.801305
38.500000 11.953139
38.500000 12.105819
38.500000 12.259345
38.500000 12.413717
38.500000 12.568934
38.500000 12.724998
38.500000 12.881907
38.500000 13.039663
38.500000 13.198264
38.500000 13.357711
38.500000 13.518004
38.500000 13.679142
38.500000 13.841127
38.500000 14.003958
38.500000 14.167634
38.500000 14.332156
38.500000 14.497524
38.500000 14.663738
38.500000 14.830798
38.500000 14.998704
38.500000 15.167456
38.500000 15.337053
38.500000 15.507496
38.500000 15.678786
38.500000 15.850921
38.500000 16.023902
38.500000 16.197729
38.500000 16.372401
38.500000 16.547920
38.500000 16.724284
38.500000 16.901495
38.500000 17.079551
38.500000 17.258453
38.500000 17.438201
38.500000 17.618795
38.500000 17.800235
38.500000 17.982520
38.500000 18.165652
38.500000 18.349629
38.500000 18.534452
38.500000 18.720121
38.500000 18.906636
38.500000 19.093997
38.500000 19.282204
38.500000 19.471256
38.500000 19.661155
38.500000 19.851899
38.500000 20.043489
38.500000 20.235925
38.500000 20.429207
38.500000 20.623335
38.500000 20.818309
38.500000 21.014128
38.500000 21.210794
38.500000 21.408305
38.500000 21.606662
38.500000 21.805865
38.500000 22.005914
38.500000 22.206809
38.500000 22.408550
38.500000 22.611136
38.500000 22.814569
38.500000 23.018847
38.500000 23.223971
38.500000 23.429941
38.500000 23.636757
38.500000 23.844419
38.500000 24.052926
38.500000 24.262280
38.500000 24.472479
38.500000 24.683524
38.500000 24.895416
38.500000 25.108153
38.500000 25.321735
38.500000 25.536164
38.500000 25.751439
38.500000 25.967559
38.500000 26.184526
38.500000 26.402338
38.500000 26.620996
38.500000 26.840500
38.500000 27.060850
38.500000 27.282046
38.500000 27.504087
38.500000 27.726975
38.500000 27.950708
38.500000 28.175287
38.500000 28.400712
38.500000 28.626983
38.500000 28.854100
38.500000 29.082063
38.500000 29.310871
38.500000 29.540526
38.500000 29.771026
38.500000 30.002372
38.500000 30.234565
38.500000 30.467603
38.500000 30.701486
38.500000 30.936216
38.500000 31.171792
38.500000 31.408213
38.500000 31.645480
38.500000 31.883594
38.500000 32.122553
38.500000 32.362358
38.500000 32.603008
38.500000 32.844505
38.500000 33.086848
38.500000 33.330036
38.500000 33.574070
38.500000 33.818950
38.500000 34.064677
38.500000 34.311248
38.500000 34.558666
38.500000 34.806930
38.500000 35.056039
38.500000 35.305995
38.500000 35.556796
38.500000 35.808443
38.500000 36.060936
38.500000 36.314275
38.500000 36.568460
38.500000 36.823491
38.500000 37.079367
38.500000 37.336090
38.500000 37.593658
38.500000 37.852072
38.500000 38.111332
38.500000 38.371438
38.500000 38.632390
38.500000 38.894187
38.500000 39.156831
38.500000 39.420320
38.500000 39.684655
38.500000 39.949836
38.500000 40.215863
38.500000 40.482736
38.500000 40.750455
38.500000 41.019020
38.500000 41.288430
38.500000 41.558686
38.500000 41.829789
38.500000 42.101737
38.500000 42.374531
38.500000 42.648171
38.500000 42.922656
38.500000 43.197988
38.500000 43.474165
38.500000 43.751189
38.500000 44.029058
38.500000 44.307773
38.500000 44.587334
38.500000 44.867741
38.500000 45.148993
38.500000 45.431092
38.500000 45.714036
38.500000 45.997827
38.500000 46.282463
38.500000 46.567945
38.500000 46.854273
38.500000 47.141447
38.500000 47.429466
38.500000 47.718332
38.500000 48.008043
38.500000 48.298601
38.500000 48.590004
38.500000 48.882253
38.500000 49.175348
38.500000 49.469289
38.500000 49.764075
38.500000 50.059708
38.500000 50.356186
38.500000 50.653511
38.500000 50.951681
38.500000 51.250697
38.500000 51.550559
38.500000 51.851266
38.500000 52.152820
38.500000 52.455220
38.500000 52.758465
38.500000 53.062556
38.500000 53.367493
38.500000 53.673276
38.500000 53.979905
38.500000 54.287380
38.500000 54.595701
38.500000 54.904867
38.500000 55.214880
38.500000 55.525738
38.500000 55.837442
38.500000 56.149992
38.500000 56.463388
38.500000 56.777630
38.500000 57.092717
38.500000 57.408651
38.500000 57.725430
38.500000 58.043055
38.500000 58.361526
38.500000 58.680843
38.500000 59.001006
38.500000 59.322015
38.500000 59.643869
38.500000 59.966570
38.500000 60.290116
38.500000 60.614508
38.500000 60.939747
38.500000 61.265831
38.500000 61.592760
38.500000 61.920536
38.500000 62.249158
38.500000 62.578625
38.500000 62.908938
38.500000 63.240098
38.500000 63.572103
38.500000 63.904954
38.500000 64.238650
38.500000 64.573193
38.500000 64.908582
38.500000 65.244816
38.500000 65.581896
38.500000 65.919823
38.500000 66.258595
38.500000 66.598213
38.500000 66.938676
38.500000 67.279986
38.500000 67.622142
38.500000 67.965143
38.500000 68.308990
38.500000 68.653683
38.500000 68.999222
38.500000 69.345607
38.500000 69.692838
38.500000 70.040915
38.500000 70.389837
38.500000 70.739606
38.500000 71.090220
38.500000 71.441680
38.500000 71.793986
38.500000 72.147138
38.500000 72.501136
38.500000 72.855979
38.500000 73.211669
38.500000 73.568204
38.500000 73.925585
38.500000 74.283813
38.500000 74.642886
38.500000 75.002804
38.500000 75.363569
38.500000 75.725180
38.500000 76.087636
38.500000 76.450939
38.500000 76.815087
38.500000 77.180081
38.500000 77.545921
38.500000 77.912607
38.500000 78.280139
38.500000 78.648516
38.500000 79.017740
38.500000 79.387809
38.500000 79.758724
38.500000 80.130485
38.500000 80.503092
38.500000 80.876545
38.500000 81.250844
38.500000 81.625988
38.500000 82.001979
38.500000 82.378815
38.500000 82.756497
38.500000 83.135025
38.500000 83.514399
38.500000 83.894619
38.500000 84.275685
38.500000 84.657596
38.500000 85.040354
38.500000 85.423957
38.500000 85.808406
38.500000 86.193701
38.500000 86.579842
38.500000 86.966829
38.500000 87.354662
38.500000 87.743340
38.500000 88.132865
38.500000 88.523235
38.500000 88.914451
38.500000 89.306513
38.500000 89.699421
38.500000 90.093175
38.500000 90.487775
38.500000 90.883220
38.500000 91.279511
38.500000 91.676649
38.500000 92.074632
38.500000 92.473461
38.500000 92.873136
38.500000 93.273657
38.500000 93.675023
38.500000 94.077236
38.500000 94.480294
38.500000 94.884198
38.500000 95.288948
38.500000 95.694544
38.500000 96.100986
38.500000 96.508274
38.500000 96.916408
38.500000 97.325387
38.500000 97.735213
38.500000 98.145884
38.500000 98.557401
38.500000 98.969764
38.500000 99.382973
38.500000 99.797027
38.500000 100.211928
38.500000 100.627675
38.500000 101.044267
38.500000 101.461705
38.500000 101.879989
38.500000 102.299119
38.500000 102.719095
38.500000 103.139917
38.500000 103.561584
38.500000 103.984098
38.500000 104.407457
38.500000 104.831662
38.500000 105.256713
38.500000 105.682610
38.500000 106.109353
38.500000 106.536942
38.500000 106.965376
38.500000 107.394657
38.500000 107.824783
38.500000 108.255755
38.500000 108.687573
38.500000 109.120237
38.500000 109.553747
38.500000 109.988103
38.500000 110.423304
38.500000 110.859352
38.500000 111.296245
38.500000 111.733984
38.500000 112.172569
38.500000 112.612000
38.500000 113.052277
38.500000 113.493400
38.500000 113.935368
38.500000 114.378182
38.500000 114.821843
38.500000 115.266349
38.500000 115.711701
38.500000 116.157899
38.500000 116.604943
38.500000 117.052832
38.500000 117.501568
38.500000 117.951149
38.500000 118.401576
38.500000 118.852849
38.500000 119.304968
38.500000 119.757933
38.500000 120.211744
38.500000 120.666401
38.500000 121.121903
38.500000 121.578252
38.500000 122.035446
38.500000 122.493486
38.500000 122.952372
38.500000 123.412104
38.500000 123.872682
38.500000 124.334105
38.500000 124.796375
38.500000 125.259490
38.500000 125.723451
38.500000 126.188258
38.500000 126.653911
38.500000 127.120410
38.500000 127.587755
38.500000 128.055945
38.500000 128.524982
38.500000 128.994864
38.500000 129.465592
38.500000 129.937166
38.500000 130.409586
38.500000 130.882852
38.500000 131.356964
38.500000 131.831921
38.500000 132.307725
38.500000 132.784374
38.500000 133.261869
38.500000 133.740210
38.500000 134.219397
38.500000 134.699430
38.500000 135.180309
38.500000 135.662033
38.500000 136.144604
38.500000 136.628020
38.500000 137.112282
38.500000 137.597390
38.500000 138.083344
38.500000 138.570144
38.500000 139.057790
38.500000 139.546281
38.500000 140.035619
38.500000 140.525802
38.500000 141.016831
38.500000 141.508706
38.500000 142.001427
38.500000 142.494994
38.500000 142.989406
38.500000 143.484665
38.500000 143.980769
38.500000 144.477720
38.500000 144.975516
38.500000 145.474158
38.500000 145.973646
38.500000 146.473979
38.500000 146.975159
38.500000 147.477184
38.500000 147.980056
38.500000 148.483773
38.500000 148.988336
38.500000 149.493745
38.500000 150.000000
</POINTS>
</NEKTAR>

