<?xml version="1.0" encoding="utf-8" ?>
<NEKTAR>
<POINTS DIM="2" FIELDS="">
11.500000 -1.750000
11.500000 -1.749577
11.500000 -1.748308
11.500000 -1.746194
11.500000 -1.743233
11.500000 -1.739427
11.500000 -1.734774
11.500000 -1.729276
11.500000 -1.722932
11.500000 -1.715742
11.500000 -1.707706
11.500000 -1.698825
11.500000 -1.689097
11.500000 -1.678524
11.500000 -1.667104
11.500000 -1.654839
11.500000 -1.641728
11.500000 -1.627771
11.500000 -1.612969
11.500000 -1.597320
11.500000 -1.580825
11.500000 -1.563485
11.500000 -1.545299
11.500000 -1.526267
11.500000 -1.506389
11.500000 -1.485665
11.500000 -1.464095
11.500000 -1.441679
11.500000 -1.418418
11.500000 -1.394310
11.500000 -1.369357
11.500000 -1.343558
11.500000 -1.316913
11.500000 -1.289422
11.500000 -1.261086
11.500000 -1.231903
11.500000 -1.201874
11.500000 -1.171000
11.500000 -1.139280
11.500000 -1.106714
11.500000 -1.073302
11.500000 -1.039044
11.500000 -1.003940
11.500000 -0.967991
11.500000 -0.931195
11.500000 -0.893554
11.500000 -0.855067
11.500000 -0.815734
11.500000 -0.775555
11.500000 -0.734530
11.500000 -0.692659
11.500000 -0.649942
11.500000 -0.606380
11.500000 -0.561972
11.500000 -0.516717
11.500000 -0.470617
11.500000 -0.423671
11.500000 -0.375880
11.500000 -0.327242
11.500000 -0.277758
11.500000 -0.227429
11.500000 -0.176254
11.500000 -0.124233
11.500000 -0.071365
11.500000 -0.017653
11.500000 0.036906
11.500000 0.092311
11.500000 0.148561
11.500000 0.205658
11.500000 0.263600
11.500000 0.322388
11.500000 0.382022
11.500000 0.442502
11.500000 0.503828
11.500000 0.566000
11.500000 0.629017
11.500000 0.692881
11.500000 0.757590
11.500000 0.823145
11.500000 0.889546
11.500000 0.956793
11.500000 1.024886
11.500000 1.093824
11.500000 1.163609
11.500000 1.234239
11.500000 1.305715
11.500000 1.378038
11.500000 1.451206
11.500000 1.525219
11.500000 1.600079
11.500000 1.675785
11.500000 1.752336
11.500000 1.829734
11.500000 1.907977
11.500000 1.987066
11.500000 2.067001
11.500000 2.147782
11.500000 2.229409
11.500000 2.311881
11.500000 2.395200
11.500000 2.479364
11.500000 2.564374
11.500000 2.650230
11.500000 2.736932
11.500000 2.824480
11.500000 2.912874
11.500000 3.002113
11.500000 3.092199
11.500000 3.183130
11.500000 3.274907
11.500000 3.367530
11.500000 3.460999
11.500000 3.555314
11.500000 3.650475
11.500000 3.746481
11.500000 3.843334
11.500000 3.941032
11.500000 4.039576
11.500000 4.138966
11.500000 4.239202
11.500000 4.340284
11.500000 4.442212
11.500000 4.544985
11.500000 4.648605
11.500000 4.753070
11.500000 4.858381
11.500000 4.964538
11.500000 5.071541
11.500000 5.179390
11.500000 5.288084
11.500000 5.397625
11.500000 5.508011
11.500000 5.619244
11.500000 5.731322
11.500000 5.844246
11.500000 5.958016
11.500000 6.072631
11.500000 6.188093
11.500000 6.304401
11.500000 6.421554
11.500000 6.539553
11.500000 6.658398
11.500000 6.778089
11.500000 6.898626
11.500000 7.020009
11.500000 7.142238
11.500000 7.265312
11.500000 7.389232
11.500000 7.513999
11.500000 7.639611
11.500000 7.766069
11.500000 7.893373
11.500000 8.021522
11.500000 8.150518
11.500000 8.280359
11.500000 8.411047
11.500000 8.542580
11.500000 8.674959
11.500000 8.808184
11.500000 8.942255
11.500000 9.077172
11.500000 9.212934
11.500000 9.349543
11.500000 9.486997
11.500000 9.625297
11.500000 9.764443
11.500000 9.904435
11.500000 10.045273
11.500000 10.186957
11.500000 10.329486
11.500000 10.472862
11.500000 10.617083
11.500000 10.762150
11.500000 10.908063
11.500000 11.054822
11.500000 11.202427
11.500000 11.350878
11.500000 11.500174
11.500000 11.650317
11.500000 11.801305
11.500000 11.953139
11.500000 12.105819
11.500000 12.259345
11.500000 12.413717
11.500000 12.568934
11.500000 12.724998
11.500000 12.881907
11.500000 13.039663
11.500000 13.198264
11.500000 13.357711
11.500000 13.518004
11.500000 13.679142
11.500000 13.841127
11.500000 14.003958
11.500000 14.167634
11.500000 14.332156
11.500000 14.497524
11.500000 14.663738
11.500000 14.830798
11.500000 14.998704
11.500000 15.167456
11.500000 15.337053
11.500000 15.507496
11.500000 15.678786
11.500000 15.850921
11.500000 16.023902
11.500000 16.197729
11.500000 16.372401
11.500000 16.547920
11.500000 16.724284
11.500000 16.901495
11.500000 17.079551
11.500000 17.258453
11.500000 17.438201
11.500000 17.618795
11.500000 17.800235
11.500000 17.982520
11.500000 18.165652
11.500000 18.349629
11.500000 18.534452
11.500000 18.720121
11.500000 18.906636
11.500000 19.093997
11.500000 19.282204
11.500000 19.471256
11.500000 19.661155
11.500000 19.851899
11.500000 20.043489
11.500000 20.235925
11.500000 20.429207
11.500000 20.623335
11.500000 20.818309
11.500000 21.014128
11.500000 21.210794
11.500000 21.408305
11.500000 21.606662
11.500000 21.805865
11.500000 22.005914
11.500000 22.206809
11.500000 22.408550
11.500000 22.611136
11.500000 22.814569
11.500000 23.018847
11.500000 23.223971
11.500000 23.429941
11.500000 23.636757
11.500000 23.844419
11.500000 24.052926
11.500000 24.262280
11.500000 24.472479
11.500000 24.683524
11.500000 24.895416
11.500000 25.108153
11.500000 25.321735
11.500000 25.536164
11.500000 25.751439
11.500000 25.967559
11.500000 26.184526
11.500000 26.402338
11.500000 26.620996
11.500000 26.840500
11.500000 27.060850
11.500000 27.282046
11.500000 27.504087
11.500000 27.726975
11.500000 27.950708
11.500000 28.175287
11.500000 28.400712
11.500000 28.626983
11.500000 28.854100
11.500000 29.082063
11.500000 29.310871
11.500000 29.540526
11.500000 29.771026
11.500000 30.002372
11.500000 30.234565
11.500000 30.467603
11.500000 30.701486
11.500000 30.936216
11.500000 31.171792
11.500000 31.408213
11.500000 31.645480
11.500000 31.883594
11.500000 32.122553
11.500000 32.362358
11.500000 32.603008
11.500000 32.844505
11.500000 33.086848
11.500000 33.330036
11.500000 33.574070
11.500000 33.818950
11.500000 34.064677
11.500000 34.311248
11.500000 34.558666
11.500000 34.806930
11.500000 35.056039
11.500000 35.305995
11.500000 35.556796
11.500000 35.808443
11.500000 36.060936
11.500000 36.314275
11.500000 36.568460
11.500000 36.823491
11.500000 37.079367
11.500000 37.336090
11.500000 37.593658
11.500000 37.852072
11.500000 38.111332
11.500000 38.371438
11.500000 38.632390
11.500000 38.894187
11.500000 39.156831
11.500000 39.420320
11.500000 39.684655
11.500000 39.949836
11.500000 40.215863
11.500000 40.482736
11.500000 40.750455
11.500000 41.019020
11.500000 41.288430
11.500000 41.558686
11.500000 41.829789
11.500000 42.101737
11.500000 42.374531
11.500000 42.648171
11.500000 42.922656
11.500000 43.197988
11.500000 43.474165
11.500000 43.751189
11.500000 44.029058
11.500000 44.307773
11.500000 44.587334
11.500000 44.867741
11.500000 45.148993
11.500000 45.431092
11.500000 45.714036
11.500000 45.997827
11.500000 46.282463
11.500000 46.567945
11.500000 46.854273
11.500000 47.141447
11.500000 47.429466
11.500000 47.718332
11.500000 48.008043
11.500000 48.298601
11.500000 48.590004
11.500000 48.882253
11.500000 49.175348
11.500000 49.469289
11.500000 49.764075
11.500000 50.059708
11.500000 50.356186
11.500000 50.653511
11.500000 50.951681
11.500000 51.250697
11.500000 51.550559
11.500000 51.851266
11.500000 52.152820
11.500000 52.455220
11.500000 52.758465
11.500000 53.062556
11.500000 53.367493
11.500000 53.673276
11.500000 53.979905
11.500000 54.287380
11.500000 54.595701
11.500000 54.904867
11.500000 55.214880
11.500000 55.525738
11.500000 55.837442
11.500000 56.149992
11.500000 56.463388
11.500000 56.777630
11.500000 57.092717
11.500000 57.408651
11.500000 57.725430
11.500000 58.043055
11.500000 58.361526
11.500000 58.680843
11.500000 59.001006
11.500000 59.322015
11.500000 59.643869
11.500000 59.966570
11.500000 60.290116
11.500000 60.614508
11.500000 60.939747
11.500000 61.265831
11.500000 61.592760
11.500000 61.920536
11.500000 62.249158
11.500000 62.578625
11.500000 62.908938
11.500000 63.240098
11.500000 63.572103
11.500000 63.904954
11.500000 64.238650
11.500000 64.573193
11.500000 64.908582
11.500000 65.244816
11.500000 65.581896
11.500000 65.919823
11.500000 66.258595
11.500000 66.598213
11.500000 66.938676
11.500000 67.279986
11.500000 67.622142
11.500000 67.965143
11.500000 68.308990
11.500000 68.653683
11.500000 68.999222
11.500000 69.345607
11.500000 69.692838
11.500000 70.040915
11.500000 70.389837
11.500000 70.739606
11.500000 71.090220
11.500000 71.441680
11.500000 71.793986
11.500000 72.147138
11.500000 72.501136
11.500000 72.855979
11.500000 73.211669
11.500000 73.568204
11.500000 73.925585
11.500000 74.283813
11.500000 74.642886
11.500000 75.002804
11.500000 75.363569
11.500000 75.725180
11.500000 76.087636
11.500000 76.450939
11.500000 76.815087
11.500000 77.180081
11.500000 77.545921
11.500000 77.912607
11.500000 78.280139
11.500000 78.648516
11.500000 79.017740
11.500000 79.387809
11.500000 79.758724
11.500000 80.130485
11.500000 80.503092
11.500000 80.876545
11.500000 81.250844
11.500000 81.625988
11.500000 82.001979
11.500000 82.378815
11.500000 82.756497
11.500000 83.135025
11.500000 83.514399
11.500000 83.894619
11.500000 84.275685
11.500000 84.657596
11.500000 85.040354
11.500000 85.423957
11.500000 85.808406
11.500000 86.193701
11.500000 86.579842
11.500000 86.966829
11.500000 87.354662
11.500000 87.743340
11.500000 88.132865
11.500000 88.523235
11.500000 88.914451
11.500000 89.306513
11.500000 89.699421
11.500000 90.093175
11.500000 90.487775
11.500000 90.883220
11.500000 91.279511
11.500000 91.676649
11.500000 92.074632
11.500000 92.473461
11.500000 92.873136
11.500000 93.273657
11.500000 93.675023
11.500000 94.077236
11.500000 94.480294
11.500000 94.884198
11.500000 95.288948
11.500000 95.694544
11.500000 96.100986
11.500000 96.508274
11.500000 96.916408
11.500000 97.325387
11.500000 97.735213
11.500000 98.145884
11.500000 98.557401
11.500000 98.969764
11.500000 99.382973
11.500000 99.797027
11.500000 100.211928
11.500000 100.627675
11.500000 101.044267
11.500000 101.461705
11.500000 101.879989
11.500000 102.299119
11.500000 102.719095
11.500000 103.139917
11.500000 103.561584
11.500000 103.984098
11.500000 104.407457
11.500000 104.831662
11.500000 105.256713
11.500000 105.682610
11.500000 106.109353
11.500000 106.536942
11.500000 106.965376
11.500000 107.394657
11.500000 107.824783
11.500000 108.255755
11.500000 108.687573
11.500000 109.120237
11.500000 109.553747
11.500000 109.988103
11.500000 110.423304
11.500000 110.859352
11.500000 111.296245
11.500000 111.733984
11.500000 112.172569
11.500000 112.612000
11.500000 113.052277
11.500000 113.493400
11.500000 113.935368
11.500000 114.378182
11.500000 114.821843
11.500000 115.266349
11.500000 115.711701
11.500000 116.157899
11.500000 116.604943
11.500000 117.052832
11.500000 117.501568
11.500000 117.951149
11.500000 118.401576
11.500000 118.852849
11.500000 119.304968
11.500000 119.757933
11.500000 120.211744
11.500000 120.666401
11.500000 121.121903
11.500000 121.578252
11.500000 122.035446
11.500000 122.493486
11.500000 122.952372
11.500000 123.412104
11.500000 123.872682
11.500000 124.334105
11.500000 124.796375
11.500000 125.259490
11.500000 125.723451
11.500000 126.188258
11.500000 126.653911
11.500000 127.120410
11.500000 127.587755
11.500000 128.055945
11.500000 128.524982
11.500000 128.994864
11.500000 129.465592
11.500000 129.937166
11.500000 130.409586
11.500000 130.882852
11.500000 131.356964
11.500000 131.831921
11.500000 132.307725
11.500000 132.784374
11.500000 133.261869
11.500000 133.740210
11.500000 134.219397
11.500000 134.699430
11.500000 135.180309
11.500000 135.662033
11.500000 136.144604
11.500000 136.628020
11.500000 137.112282
11.500000 137.597390
11.500000 138.083344
11.500000 138.570144
11.500000 139.057790
11.500000 139.546281
11.500000 140.035619
11.500000 140.525802
11.500000 141.016831
11.500000 141.508706
11.500000 142.001427
11.500000 142.494994
11.500000 142.989406
11.500000 143.484665
11.500000 143.980769
11.500000 144.477720
11.500000 144.975516
11.500000 145.474158
11.500000 145.973646
11.500000 146.473979
11.500000 146.975159
11.500000 147.477184
11.500000 147.980056
11.500000 148.483773
11.500000 148.988336
11.500000 149.493745
11.500000 150.000000
</POINTS>
</NEKTAR>

