<?xml version="1.0" encoding="utf-8" ?>
<NEKTAR>
<POINTS DIM="2" FIELDS="">
-0.500000 0.000000
-0.500000 0.000418
-0.500000 0.001672
-0.500000 0.003763
-0.500000 0.006689
-0.500000 0.010451
-0.500000 0.015050
-0.500000 0.020485
-0.500000 0.026756
-0.500000 0.033863
-0.500000 0.041806
-0.500000 0.050585
-0.500000 0.060201
-0.500000 0.070652
-0.500000 0.081940
-0.500000 0.094063
-0.500000 0.107023
-0.500000 0.120819
-0.500000 0.135451
-0.500000 0.150919
-0.500000 0.167224
-0.500000 0.184364
-0.500000 0.202341
-0.500000 0.221153
-0.500000 0.240802
-0.500000 0.261287
-0.500000 0.282608
-0.500000 0.304765
-0.500000 0.327758
-0.500000 0.351588
-0.500000 0.376253
-0.500000 0.401755
-0.500000 0.428092
-0.500000 0.455266
-0.500000 0.483276
-0.500000 0.512122
-0.500000 0.541805
-0.500000 0.572323
-0.500000 0.603677
-0.500000 0.635868
-0.500000 0.668894
-0.500000 0.702757
-0.500000 0.737456
-0.500000 0.772991
-0.500000 0.809362
-0.500000 0.846570
-0.500000 0.884613
-0.500000 0.923492
-0.500000 0.963208
-0.500000 1.003760
-0.500000 1.045148
-0.500000 1.087372
-0.500000 1.130432
-0.500000 1.174328
-0.500000 1.219060
-0.500000 1.264629
-0.500000 1.311033
-0.500000 1.358274
-0.500000 1.406351
-0.500000 1.455264
-0.500000 1.505013
-0.500000 1.555598
-0.500000 1.607019
-0.500000 1.659276
-0.500000 1.712370
-0.500000 1.766299
-0.500000 1.821065
-0.500000 1.876667
-0.500000 1.933105
-0.500000 1.990379
-0.500000 2.048489
-0.500000 2.107436
-0.500000 2.167218
-0.500000 2.227837
-0.500000 2.289291
-0.500000 2.351582
-0.500000 2.414709
-0.500000 2.478672
-0.500000 2.543471
-0.500000 2.609106
-0.500000 2.675578
-0.500000 2.742885
-0.500000 2.811029
-0.500000 2.880009
-0.500000 2.949825
-0.500000 3.020477
-0.500000 3.091965
-0.500000 3.164289
-0.500000 3.237449
-0.500000 3.311446
-0.500000 3.386278
-0.500000 3.461947
-0.500000 3.538452
-0.500000 3.615793
-0.500000 3.693970
-0.500000 3.772983
-0.500000 3.852832
-0.500000 3.933517
-0.500000 4.015039
-0.500000 4.097397
-0.500000 4.180590
-0.500000 4.264620
-0.500000 4.349486
-0.500000 4.435188
-0.500000 4.521727
-0.500000 4.609101
-0.500000 4.697311
-0.500000 4.786358
-0.500000 4.876241
-0.500000 4.966959
-0.500000 5.058514
-0.500000 5.150905
-0.500000 5.244133
-0.500000 5.338196
-0.500000 5.433095
-0.500000 5.528831
-0.500000 5.625402
-0.500000 5.722810
-0.500000 5.821054
-0.500000 5.920134
-0.500000 6.020050
-0.500000 6.120802
-0.500000 6.222391
-0.500000 6.324815
-0.500000 6.428076
-0.500000 6.532172
-0.500000 6.637105
-0.500000 6.742874
-0.500000 6.849479
-0.500000 6.956920
-0.500000 7.065198
-0.500000 7.174311
-0.500000 7.284261
-0.500000 7.395046
-0.500000 7.506668
-0.500000 7.619126
-0.500000 7.732420
-0.500000 7.846550
-0.500000 7.961516
-0.500000 8.077319
-0.500000 8.193957
-0.500000 8.311432
-0.500000 8.429742
-0.500000 8.548889
-0.500000 8.668872
-0.500000 8.789691
-0.500000 8.911346
-0.500000 9.033838
-0.500000 9.157165
-0.500000 9.281329
-0.500000 9.406328
-0.500000 9.532164
-0.500000 9.658836
-0.500000 9.786344
-0.500000 9.914688
-0.500000 10.043868
-0.500000 10.173885
-0.500000 10.304737
-0.500000 10.436426
-0.500000 10.568950
-0.500000 10.702311
-0.500000 10.836508
-0.500000 10.971541
-0.500000 11.107411
-0.500000 11.244116
-0.500000 11.381657
-0.500000 11.520035
-0.500000 11.659248
-0.500000 11.799298
-0.500000 11.940184
-0.500000 12.081906
-0.500000 12.224464
-0.500000 12.367859
-0.500000 12.512089
-0.500000 12.657155
-0.500000 12.803058
-0.500000 12.949797
-0.500000 13.097372
-0.500000 13.245782
-0.500000 13.395030
-0.500000 13.545113
-0.500000 13.696032
-0.500000 13.847787
-0.500000 14.000379
-0.500000 14.153807
-0.500000 14.308070
-0.500000 14.463170
-0.500000 14.619106
-0.500000 14.775879
-0.500000 14.933487
-0.500000 15.091931
-0.500000 15.251212
-0.500000 15.411328
-0.500000 15.572281
-0.500000 15.734070
-0.500000 15.896695
-0.500000 16.060156
-0.500000 16.224453
-0.500000 16.389586
-0.500000 16.555556
-0.500000 16.722361
-0.500000 16.890003
-0.500000 17.058481
-0.500000 17.227795
-0.500000 17.397945
-0.500000 17.568931
-0.500000 17.740753
-0.500000 17.913412
-0.500000 18.086906
-0.500000 18.261237
-0.500000 18.436403
-0.500000 18.612406
-0.500000 18.789245
-0.500000 18.966920
-0.500000 19.145432
-0.500000 19.324779
-0.500000 19.504962
-0.500000 19.685982
-0.500000 19.867838
-0.500000 20.050529
-0.500000 20.234057
-0.500000 20.418421
-0.500000 20.603622
-0.500000 20.789658
-0.500000 20.976530
-0.500000 21.164239
-0.500000 21.352783
-0.500000 21.542164
-0.500000 21.732381
-0.500000 21.923434
-0.500000 22.115323
-0.500000 22.308048
-0.500000 22.501610
-0.500000 22.696007
-0.500000 22.891241
-0.500000 23.087310
-0.500000 23.284216
-0.500000 23.481958
-0.500000 23.680536
-0.500000 23.879950
-0.500000 24.080200
-0.500000 24.281287
-0.500000 24.483209
-0.500000 24.685968
-0.500000 24.889563
-0.500000 25.093994
-0.500000 25.299261
-0.500000 25.505364
-0.500000 25.712303
-0.500000 25.920078
-0.500000 26.128690
-0.500000 26.338137
-0.500000 26.548421
-0.500000 26.759541
-0.500000 26.971497
-0.500000 27.184289
-0.500000 27.397917
-0.500000 27.612381
-0.500000 27.827682
-0.500000 28.043818
-0.500000 28.260791
-0.500000 28.478600
-0.500000 28.697244
-0.500000 28.916725
-0.500000 29.137043
-0.500000 29.358196
-0.500000 29.580185
-0.500000 29.803011
-0.500000 30.026672
-0.500000 30.251170
-0.500000 30.476504
-0.500000 30.702674
-0.500000 30.929680
-0.500000 31.157522
-0.500000 31.386200
-0.500000 31.615715
-0.500000 31.846065
-0.500000 32.077252
-0.500000 32.309275
-0.500000 32.542133
-0.500000 32.775828
-0.500000 33.010360
-0.500000 33.245727
-0.500000 33.481930
-0.500000 33.718970
-0.500000 33.956845
-0.500000 34.195557
-0.500000 34.435105
-0.500000 34.675489
-0.500000 34.916709
-0.500000 35.158765
-0.500000 35.401657
-0.500000 35.645386
-0.500000 35.889950
-0.500000 36.135351
-0.500000 36.381588
-0.500000 36.628660
-0.500000 36.876569
-0.500000 37.125315
-0.500000 37.374896
-0.500000 37.625313
-0.500000 37.876567
-0.500000 38.128656
-0.500000 38.381582
-0.500000 38.635344
-0.500000 38.889942
-0.500000 39.145376
-0.500000 39.401646
-0.500000 39.658752
-0.500000 39.916695
-0.500000 40.175473
-0.500000 40.435088
-0.500000 40.695539
-0.500000 40.956826
-0.500000 41.218949
-0.500000 41.481908
-0.500000 41.745703
-0.500000 42.010334
-0.500000 42.275802
-0.500000 42.542106
-0.500000 42.809245
-0.500000 43.077221
-0.500000 43.346033
-0.500000 43.615681
-0.500000 43.886165
-0.500000 44.157486
-0.500000 44.429642
-0.500000 44.702635
-0.500000 44.976463
-0.500000 45.251128
-0.500000 45.526629
-0.500000 45.802966
-0.500000 46.080139
-0.500000 46.358148
-0.500000 46.636994
-0.500000 46.916675
-0.500000 47.197193
-0.500000 47.478547
-0.500000 47.760736
-0.500000 48.043762
-0.500000 48.327625
-0.500000 48.612323
-0.500000 48.897857
-0.500000 49.184227
-0.500000 49.471434
-0.500000 49.759477
-0.500000 50.048355
-0.500000 50.338070
-0.500000 50.628621
-0.500000 50.920009
-0.500000 51.212232
-0.500000 51.505291
-0.500000 51.799187
-0.500000 52.093918
-0.500000 52.389486
-0.500000 52.685890
-0.500000 52.983130
-0.500000 53.281206
-0.500000 53.580118
-0.500000 53.879867
-0.500000 54.180451
-0.500000 54.481872
-0.500000 54.784128
-0.500000 55.087221
-0.500000 55.391150
-0.500000 55.695915
-0.500000 56.001516
-0.500000 56.307953
-0.500000 56.615227
-0.500000 56.923336
-0.500000 57.232282
-0.500000 57.542064
-0.500000 57.852682
-0.500000 58.164136
-0.500000 58.476426
-0.500000 58.789552
-0.500000 59.103514
-0.500000 59.418313
-0.500000 59.733947
-0.500000 60.050418
-0.500000 60.367725
-0.500000 60.685868
-0.500000 61.004847
-0.500000 61.324662
-0.500000 61.645313
-0.500000 61.966801
-0.500000 62.289124
-0.500000 62.612284
-0.500000 62.936279
-0.500000 63.261111
-0.500000 63.586779
-0.500000 63.913283
-0.500000 64.240624
-0.500000 64.568800
-0.500000 64.897812
-0.500000 65.227661
-0.500000 65.558346
-0.500000 65.889867
-0.500000 66.222223
-0.500000 66.555417
-0.500000 66.889446
-0.500000 67.224311
-0.500000 67.560012
-0.500000 67.896550
-0.500000 68.233924
-0.500000 68.572133
-0.500000 68.911179
-0.500000 69.251061
-0.500000 69.591779
-0.500000 69.933334
-0.500000 70.275724
-0.500000 70.618950
-0.500000 70.963013
-0.500000 71.307912
-0.500000 71.653646
-0.500000 72.000217
-0.500000 72.347624
-0.500000 72.695868
-0.500000 73.044947
-0.500000 73.394862
-0.500000 73.745614
-0.500000 74.097202
-0.500000 74.449625
-0.500000 74.802885
-0.500000 75.156981
-0.500000 75.511913
-0.500000 75.867682
-0.500000 76.224286
-0.500000 76.581726
-0.500000 76.940003
-0.500000 77.299116
-0.500000 77.659064
-0.500000 78.019849
-0.500000 78.381471
-0.500000 78.743928
-0.500000 79.107221
-0.500000 79.471350
-0.500000 79.836316
-0.500000 80.202118
-0.500000 80.568755
-0.500000 80.936229
-0.500000 81.304539
-0.500000 81.673685
-0.500000 82.043668
-0.500000 82.414486
-0.500000 82.786141
-0.500000 83.158631
-0.500000 83.531958
-0.500000 83.906121
-0.500000 84.281120
-0.500000 84.656955
-0.500000 85.033626
-0.500000 85.411133
-0.500000 85.789477
-0.500000 86.168656
-0.500000 86.548672
-0.500000 86.929524
-0.500000 87.311212
-0.500000 87.693736
-0.500000 88.077096
-0.500000 88.461292
-0.500000 88.846324
-0.500000 89.232193
-0.500000 89.618897
-0.500000 90.006438
-0.500000 90.394815
-0.500000 90.784028
-0.500000 91.174077
-0.500000 91.564962
-0.500000 91.956684
-0.500000 92.349241
-0.500000 92.742634
-0.500000 93.136864
-0.500000 93.531930
-0.500000 93.927832
-0.500000 94.324570
-0.500000 94.722144
-0.500000 95.120554
-0.500000 95.519801
-0.500000 95.919883
-0.500000 96.320802
-0.500000 96.722557
-0.500000 97.125147
-0.500000 97.528574
-0.500000 97.932837
-0.500000 98.337937
-0.500000 98.743872
-0.500000 99.150643
-0.500000 99.558251
-0.500000 99.966695
-0.500000 100.375974
-0.500000 100.786090
-0.500000 101.197042
-0.500000 101.608831
-0.500000 102.021455
-0.500000 102.434915
-0.500000 102.849212
-0.500000 103.264344
-0.500000 103.680313
-0.500000 104.097118
-0.500000 104.514759
-0.500000 104.933236
-0.500000 105.352549
-0.500000 105.772699
-0.500000 106.193684
-0.500000 106.615506
-0.500000 107.038163
-0.500000 107.461657
-0.500000 107.885987
-0.500000 108.311153
-0.500000 108.737155
-0.500000 109.163993
-0.500000 109.591668
-0.500000 110.020178
-0.500000 110.449525
-0.500000 110.879708
-0.500000 111.310727
-0.500000 111.742582
-0.500000 112.175273
-0.500000 112.608800
-0.500000 113.043163
-0.500000 113.478363
-0.500000 113.914398
-0.500000 114.351270
-0.500000 114.788978
-0.500000 115.227522
-0.500000 115.666902
-0.500000 116.107118
-0.500000 116.548170
-0.500000 116.990059
-0.500000 117.432783
-0.500000 117.876344
-0.500000 118.320740
-0.500000 118.765973
-0.500000 119.212042
-0.500000 119.658947
-0.500000 120.106689
-0.500000 120.555266
-0.500000 121.004679
-0.500000 121.454929
-0.500000 121.906015
-0.500000 122.357937
-0.500000 122.810695
-0.500000 123.264289
-0.500000 123.718719
-0.500000 124.173985
-0.500000 124.630087
-0.500000 125.087026
-0.500000 125.544801
-0.500000 126.003411
-0.500000 126.462858
-0.500000 126.923141
-0.500000 127.384260
-0.500000 127.846216
-0.500000 128.309007
-0.500000 128.772634
-0.500000 129.237098
-0.500000 129.702398
-0.500000 130.168534
-0.500000 130.635505
-0.500000 131.103314
-0.500000 131.571958
-0.500000 132.041438
-0.500000 132.511754
-0.500000 132.982907
-0.500000 133.454896
-0.500000 133.927720
-0.500000 134.401381
-0.500000 134.875878
-0.500000 135.351211
-0.500000 135.827381
-0.500000 136.304386
-0.500000 136.782227
-0.500000 137.260905
-0.500000 137.740419
-0.500000 138.220769
-0.500000 138.701955
-0.500000 139.183977
-0.500000 139.666835
-0.500000 140.150529
-0.500000 140.635060
-0.500000 141.120426
-0.500000 141.606629
-0.500000 142.093668
-0.500000 142.581542
-0.500000 143.070253
-0.500000 143.559801
-0.500000 144.050184
-0.500000 144.541403
-0.500000 145.033459
-0.500000 145.526350
-0.500000 146.020078
-0.500000 146.514642
-0.500000 147.010042
-0.500000 147.506278
-0.500000 148.003350
-0.500000 148.501258
-0.500000 149.000003
-0.500000 149.499583
-0.500000 150.000000
</POINTS>
</NEKTAR>

