<?xml version="1.0" encoding="utf-8" ?>
<NEKTAR>
<POINTS DIM="2" FIELDS="">
968.500000 0.000000
968.500000 0.000418
968.500000 0.001672
968.500000 0.003763
968.500000 0.006689
968.500000 0.010451
968.500000 0.015050
968.500000 0.020485
968.500000 0.026756
968.500000 0.033863
968.500000 0.041806
968.500000 0.050585
968.500000 0.060201
968.500000 0.070652
968.500000 0.081940
968.500000 0.094063
968.500000 0.107023
968.500000 0.120819
968.500000 0.135451
968.500000 0.150919
968.500000 0.167224
968.500000 0.184364
968.500000 0.202341
968.500000 0.221153
968.500000 0.240802
968.500000 0.261287
968.500000 0.282608
968.500000 0.304765
968.500000 0.327758
968.500000 0.351588
968.500000 0.376253
968.500000 0.401755
968.500000 0.428092
968.500000 0.455266
968.500000 0.483276
968.500000 0.512122
968.500000 0.541805
968.500000 0.572323
968.500000 0.603677
968.500000 0.635868
968.500000 0.668894
968.500000 0.702757
968.500000 0.737456
968.500000 0.772991
968.500000 0.809362
968.500000 0.846570
968.500000 0.884613
968.500000 0.923492
968.500000 0.963208
968.500000 1.003760
968.500000 1.045148
968.500000 1.087372
968.500000 1.130432
968.500000 1.174328
968.500000 1.219060
968.500000 1.264629
968.500000 1.311033
968.500000 1.358274
968.500000 1.406351
968.500000 1.455264
968.500000 1.505013
968.500000 1.555598
968.500000 1.607019
968.500000 1.659276
968.500000 1.712370
968.500000 1.766299
968.500000 1.821065
968.500000 1.876667
968.500000 1.933105
968.500000 1.990379
968.500000 2.048489
968.500000 2.107436
968.500000 2.167218
968.500000 2.227837
968.500000 2.289291
968.500000 2.351582
968.500000 2.414709
968.500000 2.478672
968.500000 2.543471
968.500000 2.609106
968.500000 2.675578
968.500000 2.742885
968.500000 2.811029
968.500000 2.880009
968.500000 2.949825
968.500000 3.020477
968.500000 3.091965
968.500000 3.164289
968.500000 3.237449
968.500000 3.311446
968.500000 3.386278
968.500000 3.461947
968.500000 3.538452
968.500000 3.615793
968.500000 3.693970
968.500000 3.772983
968.500000 3.852832
968.500000 3.933517
968.500000 4.015039
968.500000 4.097397
968.500000 4.180590
968.500000 4.264620
968.500000 4.349486
968.500000 4.435188
968.500000 4.521727
968.500000 4.609101
968.500000 4.697311
968.500000 4.786358
968.500000 4.876241
968.500000 4.966959
968.500000 5.058514
968.500000 5.150905
968.500000 5.244133
968.500000 5.338196
968.500000 5.433095
968.500000 5.528831
968.500000 5.625402
968.500000 5.722810
968.500000 5.821054
968.500000 5.920134
968.500000 6.020050
968.500000 6.120802
968.500000 6.222391
968.500000 6.324815
968.500000 6.428076
968.500000 6.532172
968.500000 6.637105
968.500000 6.742874
968.500000 6.849479
968.500000 6.956920
968.500000 7.065198
968.500000 7.174311
968.500000 7.284261
968.500000 7.395046
968.500000 7.506668
968.500000 7.619126
968.500000 7.732420
968.500000 7.846550
968.500000 7.961516
968.500000 8.077319
968.500000 8.193957
968.500000 8.311432
968.500000 8.429742
968.500000 8.548889
968.500000 8.668872
968.500000 8.789691
968.500000 8.911346
968.500000 9.033838
968.500000 9.157165
968.500000 9.281329
968.500000 9.406328
968.500000 9.532164
968.500000 9.658836
968.500000 9.786344
968.500000 9.914688
968.500000 10.043868
968.500000 10.173885
968.500000 10.304737
968.500000 10.436426
968.500000 10.568950
968.500000 10.702311
968.500000 10.836508
968.500000 10.971541
968.500000 11.107411
968.500000 11.244116
968.500000 11.381657
968.500000 11.520035
968.500000 11.659248
968.500000 11.799298
968.500000 11.940184
968.500000 12.081906
968.500000 12.224464
968.500000 12.367859
968.500000 12.512089
968.500000 12.657155
968.500000 12.803058
968.500000 12.949797
968.500000 13.097372
968.500000 13.245782
968.500000 13.395030
968.500000 13.545113
968.500000 13.696032
968.500000 13.847787
968.500000 14.000379
968.500000 14.153807
968.500000 14.308070
968.500000 14.463170
968.500000 14.619106
968.500000 14.775879
968.500000 14.933487
968.500000 15.091931
968.500000 15.251212
968.500000 15.411328
968.500000 15.572281
968.500000 15.734070
968.500000 15.896695
968.500000 16.060156
968.500000 16.224453
968.500000 16.389586
968.500000 16.555556
968.500000 16.722361
968.500000 16.890003
968.500000 17.058481
968.500000 17.227795
968.500000 17.397945
968.500000 17.568931
968.500000 17.740753
968.500000 17.913412
968.500000 18.086906
968.500000 18.261237
968.500000 18.436403
968.500000 18.612406
968.500000 18.789245
968.500000 18.966920
968.500000 19.145432
968.500000 19.324779
968.500000 19.504962
968.500000 19.685982
968.500000 19.867838
968.500000 20.050529
968.500000 20.234057
968.500000 20.418421
968.500000 20.603622
968.500000 20.789658
968.500000 20.976530
968.500000 21.164239
968.500000 21.352783
968.500000 21.542164
968.500000 21.732381
968.500000 21.923434
968.500000 22.115323
968.500000 22.308048
968.500000 22.501610
968.500000 22.696007
968.500000 22.891241
968.500000 23.087310
968.500000 23.284216
968.500000 23.481958
968.500000 23.680536
968.500000 23.879950
968.500000 24.080200
968.500000 24.281287
968.500000 24.483209
968.500000 24.685968
968.500000 24.889563
968.500000 25.093994
968.500000 25.299261
968.500000 25.505364
968.500000 25.712303
968.500000 25.920078
968.500000 26.128690
968.500000 26.338137
968.500000 26.548421
968.500000 26.759541
968.500000 26.971497
968.500000 27.184289
968.500000 27.397917
968.500000 27.612381
968.500000 27.827682
968.500000 28.043818
968.500000 28.260791
968.500000 28.478600
968.500000 28.697244
968.500000 28.916725
968.500000 29.137043
968.500000 29.358196
968.500000 29.580185
968.500000 29.803011
968.500000 30.026672
968.500000 30.251170
968.500000 30.476504
968.500000 30.702674
968.500000 30.929680
968.500000 31.157522
968.500000 31.386200
968.500000 31.615715
968.500000 31.846065
968.500000 32.077252
968.500000 32.309275
968.500000 32.542133
968.500000 32.775828
968.500000 33.010360
968.500000 33.245727
968.500000 33.481930
968.500000 33.718970
968.500000 33.956845
968.500000 34.195557
968.500000 34.435105
968.500000 34.675489
968.500000 34.916709
968.500000 35.158765
968.500000 35.401657
968.500000 35.645386
968.500000 35.889950
968.500000 36.135351
968.500000 36.381588
968.500000 36.628660
968.500000 36.876569
968.500000 37.125315
968.500000 37.374896
968.500000 37.625313
968.500000 37.876567
968.500000 38.128656
968.500000 38.381582
968.500000 38.635344
968.500000 38.889942
968.500000 39.145376
968.500000 39.401646
968.500000 39.658752
968.500000 39.916695
968.500000 40.175473
968.500000 40.435088
968.500000 40.695539
968.500000 40.956826
968.500000 41.218949
968.500000 41.481908
968.500000 41.745703
968.500000 42.010334
968.500000 42.275802
968.500000 42.542106
968.500000 42.809245
968.500000 43.077221
968.500000 43.346033
968.500000 43.615681
968.500000 43.886165
968.500000 44.157486
968.500000 44.429642
968.500000 44.702635
968.500000 44.976463
968.500000 45.251128
968.500000 45.526629
968.500000 45.802966
968.500000 46.080139
968.500000 46.358148
968.500000 46.636994
968.500000 46.916675
968.500000 47.197193
968.500000 47.478547
968.500000 47.760736
968.500000 48.043762
968.500000 48.327625
968.500000 48.612323
968.500000 48.897857
968.500000 49.184227
968.500000 49.471434
968.500000 49.759477
968.500000 50.048355
968.500000 50.338070
968.500000 50.628621
968.500000 50.920009
968.500000 51.212232
968.500000 51.505291
968.500000 51.799187
968.500000 52.093918
968.500000 52.389486
968.500000 52.685890
968.500000 52.983130
968.500000 53.281206
968.500000 53.580118
968.500000 53.879867
968.500000 54.180451
968.500000 54.481872
968.500000 54.784128
968.500000 55.087221
968.500000 55.391150
968.500000 55.695915
968.500000 56.001516
968.500000 56.307953
968.500000 56.615227
968.500000 56.923336
968.500000 57.232282
968.500000 57.542064
968.500000 57.852682
968.500000 58.164136
968.500000 58.476426
968.500000 58.789552
968.500000 59.103514
968.500000 59.418313
968.500000 59.733947
968.500000 60.050418
968.500000 60.367725
968.500000 60.685868
968.500000 61.004847
968.500000 61.324662
968.500000 61.645313
968.500000 61.966801
968.500000 62.289124
968.500000 62.612284
968.500000 62.936279
968.500000 63.261111
968.500000 63.586779
968.500000 63.913283
968.500000 64.240624
968.500000 64.568800
968.500000 64.897812
968.500000 65.227661
968.500000 65.558346
968.500000 65.889867
968.500000 66.222223
968.500000 66.555417
968.500000 66.889446
968.500000 67.224311
968.500000 67.560012
968.500000 67.896550
968.500000 68.233924
968.500000 68.572133
968.500000 68.911179
968.500000 69.251061
968.500000 69.591779
968.500000 69.933334
968.500000 70.275724
968.500000 70.618950
968.500000 70.963013
968.500000 71.307912
968.500000 71.653646
968.500000 72.000217
968.500000 72.347624
968.500000 72.695868
968.500000 73.044947
968.500000 73.394862
968.500000 73.745614
968.500000 74.097202
968.500000 74.449625
968.500000 74.802885
968.500000 75.156981
968.500000 75.511913
968.500000 75.867682
968.500000 76.224286
968.500000 76.581726
968.500000 76.940003
968.500000 77.299116
968.500000 77.659064
968.500000 78.019849
968.500000 78.381471
968.500000 78.743928
968.500000 79.107221
968.500000 79.471350
968.500000 79.836316
968.500000 80.202118
968.500000 80.568755
968.500000 80.936229
968.500000 81.304539
968.500000 81.673685
968.500000 82.043668
968.500000 82.414486
968.500000 82.786141
968.500000 83.158631
968.500000 83.531958
968.500000 83.906121
968.500000 84.281120
968.500000 84.656955
968.500000 85.033626
968.500000 85.411133
968.500000 85.789477
968.500000 86.168656
968.500000 86.548672
968.500000 86.929524
968.500000 87.311212
968.500000 87.693736
968.500000 88.077096
968.500000 88.461292
968.500000 88.846324
968.500000 89.232193
968.500000 89.618897
968.500000 90.006438
968.500000 90.394815
968.500000 90.784028
968.500000 91.174077
968.500000 91.564962
968.500000 91.956684
968.500000 92.349241
968.500000 92.742634
968.500000 93.136864
968.500000 93.531930
968.500000 93.927832
968.500000 94.324570
968.500000 94.722144
968.500000 95.120554
968.500000 95.519801
968.500000 95.919883
968.500000 96.320802
968.500000 96.722557
968.500000 97.125147
968.500000 97.528574
968.500000 97.932837
968.500000 98.337937
968.500000 98.743872
968.500000 99.150643
968.500000 99.558251
968.500000 99.966695
968.500000 100.375974
968.500000 100.786090
968.500000 101.197042
968.500000 101.608831
968.500000 102.021455
968.500000 102.434915
968.500000 102.849212
968.500000 103.264344
968.500000 103.680313
968.500000 104.097118
968.500000 104.514759
968.500000 104.933236
968.500000 105.352549
968.500000 105.772699
968.500000 106.193684
968.500000 106.615506
968.500000 107.038163
968.500000 107.461657
968.500000 107.885987
968.500000 108.311153
968.500000 108.737155
968.500000 109.163993
968.500000 109.591668
968.500000 110.020178
968.500000 110.449525
968.500000 110.879708
968.500000 111.310727
968.500000 111.742582
968.500000 112.175273
968.500000 112.608800
968.500000 113.043163
968.500000 113.478363
968.500000 113.914398
968.500000 114.351270
968.500000 114.788978
968.500000 115.227522
968.500000 115.666902
968.500000 116.107118
968.500000 116.548170
968.500000 116.990059
968.500000 117.432783
968.500000 117.876344
968.500000 118.320740
968.500000 118.765973
968.500000 119.212042
968.500000 119.658947
968.500000 120.106689
968.500000 120.555266
968.500000 121.004679
968.500000 121.454929
968.500000 121.906015
968.500000 122.357937
968.500000 122.810695
968.500000 123.264289
968.500000 123.718719
968.500000 124.173985
968.500000 124.630087
968.500000 125.087026
968.500000 125.544801
968.500000 126.003411
968.500000 126.462858
968.500000 126.923141
968.500000 127.384260
968.500000 127.846216
968.500000 128.309007
968.500000 128.772634
968.500000 129.237098
968.500000 129.702398
968.500000 130.168534
968.500000 130.635505
968.500000 131.103314
968.500000 131.571958
968.500000 132.041438
968.500000 132.511754
968.500000 132.982907
968.500000 133.454896
968.500000 133.927720
968.500000 134.401381
968.500000 134.875878
968.500000 135.351211
968.500000 135.827381
968.500000 136.304386
968.500000 136.782227
968.500000 137.260905
968.500000 137.740419
968.500000 138.220769
968.500000 138.701955
968.500000 139.183977
968.500000 139.666835
968.500000 140.150529
968.500000 140.635060
968.500000 141.120426
968.500000 141.606629
968.500000 142.093668
968.500000 142.581542
968.500000 143.070253
968.500000 143.559801
968.500000 144.050184
968.500000 144.541403
968.500000 145.033459
968.500000 145.526350
968.500000 146.020078
968.500000 146.514642
968.500000 147.010042
968.500000 147.506278
968.500000 148.003350
968.500000 148.501258
968.500000 149.000003
968.500000 149.499583
968.500000 150.000000
</POINTS>
</NEKTAR>

