<?xml version="1.0" encoding="utf-8" ?>
<NEKTAR>
<POINTS DIM="2" FIELDS="">
1.000000 -3.000000
1.000000 -2.999184
1.000000 -2.996736
1.000000 -2.992654
1.000000 -2.986941
1.000000 -2.979594
1.000000 -2.970616
1.000000 -2.960005
1.000000 -2.947761
1.000000 -2.933885
1.000000 -2.918376
1.000000 -2.901235
1.000000 -2.882462
1.000000 -2.862056
1.000000 -2.840017
1.000000 -2.816346
1.000000 -2.791043
1.000000 -2.764107
1.000000 -2.735538
1.000000 -2.705337
1.000000 -2.673504
1.000000 -2.640038
1.000000 -2.604940
1.000000 -2.568209
1.000000 -2.529845
1.000000 -2.489849
1.000000 -2.448221
1.000000 -2.404960
1.000000 -2.360067
1.000000 -2.313541
1.000000 -2.265383
1.000000 -2.215592
1.000000 -2.164169
1.000000 -2.111113
1.000000 -2.056425
1.000000 -2.000105
1.000000 -1.942151
1.000000 -1.882566
1.000000 -1.821348
1.000000 -1.758497
1.000000 -1.694014
1.000000 -1.627898
1.000000 -1.560150
1.000000 -1.490770
1.000000 -1.419757
1.000000 -1.347111
1.000000 -1.272833
1.000000 -1.196923
1.000000 -1.119380
1.000000 -1.040204
1.000000 -0.959396
1.000000 -0.876956
1.000000 -0.792883
1.000000 -0.707178
1.000000 -0.619840
1.000000 -0.530870
1.000000 -0.440267
1.000000 -0.348032
1.000000 -0.254164
1.000000 -0.158663
1.000000 -0.061531
1.000000 0.037235
1.000000 0.137632
1.000000 0.239662
1.000000 0.343325
1.000000 0.448620
1.000000 0.555548
1.000000 0.664108
1.000000 0.774301
1.000000 0.886126
1.000000 0.999583
1.000000 1.114673
1.000000 1.231396
1.000000 1.349751
1.000000 1.469739
1.000000 1.591359
1.000000 1.714611
1.000000 1.839496
1.000000 1.966013
1.000000 2.094163
1.000000 2.223946
1.000000 2.355361
1.000000 2.488408
1.000000 2.623088
1.000000 2.759400
1.000000 2.897345
1.000000 3.036922
1.000000 3.178132
1.000000 3.320975
1.000000 3.465449
1.000000 3.611557
1.000000 3.759296
1.000000 3.908668
1.000000 4.059673
1.000000 4.212310
1.000000 4.366580
1.000000 4.522482
1.000000 4.680017
1.000000 4.839184
1.000000 5.000000
2.000000 -3.000000
2.000000 -2.999184
2.000000 -2.996736
2.000000 -2.992654
2.000000 -2.986941
2.000000 -2.979594
2.000000 -2.970616
2.000000 -2.960005
2.000000 -2.947761
2.000000 -2.933885
2.000000 -2.918376
2.000000 -2.901235
2.000000 -2.882462
2.000000 -2.862056
2.000000 -2.840017
2.000000 -2.816346
2.000000 -2.791043
2.000000 -2.764107
2.000000 -2.735538
2.000000 -2.705337
2.000000 -2.673504
2.000000 -2.640038
2.000000 -2.604940
2.000000 -2.568209
2.000000 -2.529845
2.000000 -2.489849
2.000000 -2.448221
2.000000 -2.404960
2.000000 -2.360067
2.000000 -2.313541
2.000000 -2.265383
2.000000 -2.215592
2.000000 -2.164169
2.000000 -2.111113
2.000000 -2.056425
2.000000 -2.000105
2.000000 -1.942151
2.000000 -1.882566
2.000000 -1.821348
2.000000 -1.758497
2.000000 -1.694014
2.000000 -1.627898
2.000000 -1.560150
2.000000 -1.490770
2.000000 -1.419757
2.000000 -1.347111
2.000000 -1.272833
2.000000 -1.196923
2.000000 -1.119380
2.000000 -1.040204
2.000000 -0.959396
2.000000 -0.876956
2.000000 -0.792883
2.000000 -0.707178
2.000000 -0.619840
2.000000 -0.530870
2.000000 -0.440267
2.000000 -0.348032
2.000000 -0.254164
2.000000 -0.158663
2.000000 -0.061531
2.000000 0.037235
2.000000 0.137632
2.000000 0.239662
2.000000 0.343325
2.000000 0.448620
2.000000 0.555548
2.000000 0.664108
2.000000 0.774301
2.000000 0.886126
2.000000 0.999583
2.000000 1.114673
2.000000 1.231396
2.000000 1.349751
2.000000 1.469739
2.000000 1.591359
2.000000 1.714611
2.000000 1.839496
2.000000 1.966013
2.000000 2.094163
2.000000 2.223946
2.000000 2.355361
2.000000 2.488408
2.000000 2.623088
2.000000 2.759400
2.000000 2.897345
2.000000 3.036922
2.000000 3.178132
2.000000 3.320975
2.000000 3.465449
2.000000 3.611557
2.000000 3.759296
2.000000 3.908668
2.000000 4.059673
2.000000 4.212310
2.000000 4.366580
2.000000 4.522482
2.000000 4.680017
2.000000 4.839184
2.000000 5.000000
3.000000 -3.000000
3.000000 -2.999184
3.000000 -2.996736
3.000000 -2.992654
3.000000 -2.986941
3.000000 -2.979594
3.000000 -2.970616
3.000000 -2.960005
3.000000 -2.947761
3.000000 -2.933885
3.000000 -2.918376
3.000000 -2.901235
3.000000 -2.882462
3.000000 -2.862056
3.000000 -2.840017
3.000000 -2.816346
3.000000 -2.791043
3.000000 -2.764107
3.000000 -2.735538
3.000000 -2.705337
3.000000 -2.673504
3.000000 -2.640038
3.000000 -2.604940
3.000000 -2.568209
3.000000 -2.529845
3.000000 -2.489849
3.000000 -2.448221
3.000000 -2.404960
3.000000 -2.360067
3.000000 -2.313541
3.000000 -2.265383
3.000000 -2.215592
3.000000 -2.164169
3.000000 -2.111113
3.000000 -2.056425
3.000000 -2.000105
3.000000 -1.942151
3.000000 -1.882566
3.000000 -1.821348
3.000000 -1.758497
3.000000 -1.694014
3.000000 -1.627898
3.000000 -1.560150
3.000000 -1.490770
3.000000 -1.419757
3.000000 -1.347111
3.000000 -1.272833
3.000000 -1.196923
3.000000 -1.119380
3.000000 -1.040204
3.000000 -0.959396
3.000000 -0.876956
3.000000 -0.792883
3.000000 -0.707178
3.000000 -0.619840
3.000000 -0.530870
3.000000 -0.440267
3.000000 -0.348032
3.000000 -0.254164
3.000000 -0.158663
3.000000 -0.061531
3.000000 0.037235
3.000000 0.137632
3.000000 0.239662
3.000000 0.343325
3.000000 0.448620
3.000000 0.555548
3.000000 0.664108
3.000000 0.774301
3.000000 0.886126
3.000000 0.999583
3.000000 1.114673
3.000000 1.231396
3.000000 1.349751
3.000000 1.469739
3.000000 1.591359
3.000000 1.714611
3.000000 1.839496
3.000000 1.966013
3.000000 2.094163
3.000000 2.223946
3.000000 2.355361
3.000000 2.488408
3.000000 2.623088
3.000000 2.759400
3.000000 2.897345
3.000000 3.036922
3.000000 3.178132
3.000000 3.320975
3.000000 3.465449
3.000000 3.611557
3.000000 3.759296
3.000000 3.908668
3.000000 4.059673
3.000000 4.212310
3.000000 4.366580
3.000000 4.522482
3.000000 4.680017
3.000000 4.839184
3.000000 5.000000
4.000000 -3.000000
4.000000 -2.999184
4.000000 -2.996736
4.000000 -2.992654
4.000000 -2.986941
4.000000 -2.979594
4.000000 -2.970616
4.000000 -2.960005
4.000000 -2.947761
4.000000 -2.933885
4.000000 -2.918376
4.000000 -2.901235
4.000000 -2.882462
4.000000 -2.862056
4.000000 -2.840017
4.000000 -2.816346
4.000000 -2.791043
4.000000 -2.764107
4.000000 -2.735538
4.000000 -2.705337
4.000000 -2.673504
4.000000 -2.640038
4.000000 -2.604940
4.000000 -2.568209
4.000000 -2.529845
4.000000 -2.489849
4.000000 -2.448221
4.000000 -2.404960
4.000000 -2.360067
4.000000 -2.313541
4.000000 -2.265383
4.000000 -2.215592
4.000000 -2.164169
4.000000 -2.111113
4.000000 -2.056425
4.000000 -2.000105
4.000000 -1.942151
4.000000 -1.882566
4.000000 -1.821348
4.000000 -1.758497
4.000000 -1.694014
4.000000 -1.627898
4.000000 -1.560150
4.000000 -1.490770
4.000000 -1.419757
4.000000 -1.347111
4.000000 -1.272833
4.000000 -1.196923
4.000000 -1.119380
4.000000 -1.040204
4.000000 -0.959396
4.000000 -0.876956
4.000000 -0.792883
4.000000 -0.707178
4.000000 -0.619840
4.000000 -0.530870
4.000000 -0.440267
4.000000 -0.348032
4.000000 -0.254164
4.000000 -0.158663
4.000000 -0.061531
4.000000 0.037235
4.000000 0.137632
4.000000 0.239662
4.000000 0.343325
4.000000 0.448620
4.000000 0.555548
4.000000 0.664108
4.000000 0.774301
4.000000 0.886126
4.000000 0.999583
4.000000 1.114673
4.000000 1.231396
4.000000 1.349751
4.000000 1.469739
4.000000 1.591359
4.000000 1.714611
4.000000 1.839496
4.000000 1.966013
4.000000 2.094163
4.000000 2.223946
4.000000 2.355361
4.000000 2.488408
4.000000 2.623088
4.000000 2.759400
4.000000 2.897345
4.000000 3.036922
4.000000 3.178132
4.000000 3.320975
4.000000 3.465449
4.000000 3.611557
4.000000 3.759296
4.000000 3.908668
4.000000 4.059673
4.000000 4.212310
4.000000 4.366580
4.000000 4.522482
4.000000 4.680017
4.000000 4.839184
4.000000 5.000000
5.000000 -3.000000
5.000000 -2.999184
5.000000 -2.996736
5.000000 -2.992654
5.000000 -2.986941
5.000000 -2.979594
5.000000 -2.970616
5.000000 -2.960005
5.000000 -2.947761
5.000000 -2.933885
5.000000 -2.918376
5.000000 -2.901235
5.000000 -2.882462
5.000000 -2.862056
5.000000 -2.840017
5.000000 -2.816346
5.000000 -2.791043
5.000000 -2.764107
5.000000 -2.735538
5.000000 -2.705337
5.000000 -2.673504
5.000000 -2.640038
5.000000 -2.604940
5.000000 -2.568209
5.000000 -2.529845
5.000000 -2.489849
5.000000 -2.448221
5.000000 -2.404960
5.000000 -2.360067
5.000000 -2.313541
5.000000 -2.265383
5.000000 -2.215592
5.000000 -2.164169
5.000000 -2.111113
5.000000 -2.056425
5.000000 -2.000105
5.000000 -1.942151
5.000000 -1.882566
5.000000 -1.821348
5.000000 -1.758497
5.000000 -1.694014
5.000000 -1.627898
5.000000 -1.560150
5.000000 -1.490770
5.000000 -1.419757
5.000000 -1.347111
5.000000 -1.272833
5.000000 -1.196923
5.000000 -1.119380
5.000000 -1.040204
5.000000 -0.959396
5.000000 -0.876956
5.000000 -0.792883
5.000000 -0.707178
5.000000 -0.619840
5.000000 -0.530870
5.000000 -0.440267
5.000000 -0.348032
5.000000 -0.254164
5.000000 -0.158663
5.000000 -0.061531
5.000000 0.037235
5.000000 0.137632
5.000000 0.239662
5.000000 0.343325
5.000000 0.448620
5.000000 0.555548
5.000000 0.664108
5.000000 0.774301
5.000000 0.886126
5.000000 0.999583
5.000000 1.114673
5.000000 1.231396
5.000000 1.349751
5.000000 1.469739
5.000000 1.591359
5.000000 1.714611
5.000000 1.839496
5.000000 1.966013
5.000000 2.094163
5.000000 2.223946
5.000000 2.355361
5.000000 2.488408
5.000000 2.623088
5.000000 2.759400
5.000000 2.897345
5.000000 3.036922
5.000000 3.178132
5.000000 3.320975
5.000000 3.465449
5.000000 3.611557
5.000000 3.759296
5.000000 3.908668
5.000000 4.059673
5.000000 4.212310
5.000000 4.366580
5.000000 4.522482
5.000000 4.680017
5.000000 4.839184
5.000000 5.000000
6.000000 -3.000000
6.000000 -2.999184
6.000000 -2.996736
6.000000 -2.992654
6.000000 -2.986941
6.000000 -2.979594
6.000000 -2.970616
6.000000 -2.960005
6.000000 -2.947761
6.000000 -2.933885
6.000000 -2.918376
6.000000 -2.901235
6.000000 -2.882462
6.000000 -2.862056
6.000000 -2.840017
6.000000 -2.816346
6.000000 -2.791043
6.000000 -2.764107
6.000000 -2.735538
6.000000 -2.705337
6.000000 -2.673504
6.000000 -2.640038
6.000000 -2.604940
6.000000 -2.568209
6.000000 -2.529845
6.000000 -2.489849
6.000000 -2.448221
6.000000 -2.404960
6.000000 -2.360067
6.000000 -2.313541
6.000000 -2.265383
6.000000 -2.215592
6.000000 -2.164169
6.000000 -2.111113
6.000000 -2.056425
6.000000 -2.000105
6.000000 -1.942151
6.000000 -1.882566
6.000000 -1.821348
6.000000 -1.758497
6.000000 -1.694014
6.000000 -1.627898
6.000000 -1.560150
6.000000 -1.490770
6.000000 -1.419757
6.000000 -1.347111
6.000000 -1.272833
6.000000 -1.196923
6.000000 -1.119380
6.000000 -1.040204
6.000000 -0.959396
6.000000 -0.876956
6.000000 -0.792883
6.000000 -0.707178
6.000000 -0.619840
6.000000 -0.530870
6.000000 -0.440267
6.000000 -0.348032
6.000000 -0.254164
6.000000 -0.158663
6.000000 -0.061531
6.000000 0.037235
6.000000 0.137632
6.000000 0.239662
6.000000 0.343325
6.000000 0.448620
6.000000 0.555548
6.000000 0.664108
6.000000 0.774301
6.000000 0.886126
6.000000 0.999583
6.000000 1.114673
6.000000 1.231396
6.000000 1.349751
6.000000 1.469739
6.000000 1.591359
6.000000 1.714611
6.000000 1.839496
6.000000 1.966013
6.000000 2.094163
6.000000 2.223946
6.000000 2.355361
6.000000 2.488408
6.000000 2.623088
6.000000 2.759400
6.000000 2.897345
6.000000 3.036922
6.000000 3.178132
6.000000 3.320975
6.000000 3.465449
6.000000 3.611557
6.000000 3.759296
6.000000 3.908668
6.000000 4.059673
6.000000 4.212310
6.000000 4.366580
6.000000 4.522482
6.000000 4.680017
6.000000 4.839184
6.000000 5.000000
7.000000 -3.000000
7.000000 -2.999184
7.000000 -2.996736
7.000000 -2.992654
7.000000 -2.986941
7.000000 -2.979594
7.000000 -2.970616
7.000000 -2.960005
7.000000 -2.947761
7.000000 -2.933885
7.000000 -2.918376
7.000000 -2.901235
7.000000 -2.882462
7.000000 -2.862056
7.000000 -2.840017
7.000000 -2.816346
7.000000 -2.791043
7.000000 -2.764107
7.000000 -2.735538
7.000000 -2.705337
7.000000 -2.673504
7.000000 -2.640038
7.000000 -2.604940
7.000000 -2.568209
7.000000 -2.529845
7.000000 -2.489849
7.000000 -2.448221
7.000000 -2.404960
7.000000 -2.360067
7.000000 -2.313541
7.000000 -2.265383
7.000000 -2.215592
7.000000 -2.164169
7.000000 -2.111113
7.000000 -2.056425
7.000000 -2.000105
7.000000 -1.942151
7.000000 -1.882566
7.000000 -1.821348
7.000000 -1.758497
7.000000 -1.694014
7.000000 -1.627898
7.000000 -1.560150
7.000000 -1.490770
7.000000 -1.419757
7.000000 -1.347111
7.000000 -1.272833
7.000000 -1.196923
7.000000 -1.119380
7.000000 -1.040204
7.000000 -0.959396
7.000000 -0.876956
7.000000 -0.792883
7.000000 -0.707178
7.000000 -0.619840
7.000000 -0.530870
7.000000 -0.440267
7.000000 -0.348032
7.000000 -0.254164
7.000000 -0.158663
7.000000 -0.061531
7.000000 0.037235
7.000000 0.137632
7.000000 0.239662
7.000000 0.343325
7.000000 0.448620
7.000000 0.555548
7.000000 0.664108
7.000000 0.774301
7.000000 0.886126
7.000000 0.999583
7.000000 1.114673
7.000000 1.231396
7.000000 1.349751
7.000000 1.469739
7.000000 1.591359
7.000000 1.714611
7.000000 1.839496
7.000000 1.966013
7.000000 2.094163
7.000000 2.223946
7.000000 2.355361
7.000000 2.488408
7.000000 2.623088
7.000000 2.759400
7.000000 2.897345
7.000000 3.036922
7.000000 3.178132
7.000000 3.320975
7.000000 3.465449
7.000000 3.611557
7.000000 3.759296
7.000000 3.908668
7.000000 4.059673
7.000000 4.212310
7.000000 4.366580
7.000000 4.522482
7.000000 4.680017
7.000000 4.839184
7.000000 5.000000
8.000000 -3.000000
8.000000 -2.999184
8.000000 -2.996736
8.000000 -2.992654
8.000000 -2.986941
8.000000 -2.979594
8.000000 -2.970616
8.000000 -2.960005
8.000000 -2.947761
8.000000 -2.933885
8.000000 -2.918376
8.000000 -2.901235
8.000000 -2.882462
8.000000 -2.862056
8.000000 -2.840017
8.000000 -2.816346
8.000000 -2.791043
8.000000 -2.764107
8.000000 -2.735538
8.000000 -2.705337
8.000000 -2.673504
8.000000 -2.640038
8.000000 -2.604940
8.000000 -2.568209
8.000000 -2.529845
8.000000 -2.489849
8.000000 -2.448221
8.000000 -2.404960
8.000000 -2.360067
8.000000 -2.313541
8.000000 -2.265383
8.000000 -2.215592
8.000000 -2.164169
8.000000 -2.111113
8.000000 -2.056425
8.000000 -2.000105
8.000000 -1.942151
8.000000 -1.882566
8.000000 -1.821348
8.000000 -1.758497
8.000000 -1.694014
8.000000 -1.627898
8.000000 -1.560150
8.000000 -1.490770
8.000000 -1.419757
8.000000 -1.347111
8.000000 -1.272833
8.000000 -1.196923
8.000000 -1.119380
8.000000 -1.040204
8.000000 -0.959396
8.000000 -0.876956
8.000000 -0.792883
8.000000 -0.707178
8.000000 -0.619840
8.000000 -0.530870
8.000000 -0.440267
8.000000 -0.348032
8.000000 -0.254164
8.000000 -0.158663
8.000000 -0.061531
8.000000 0.037235
8.000000 0.137632
8.000000 0.239662
8.000000 0.343325
8.000000 0.448620
8.000000 0.555548
8.000000 0.664108
8.000000 0.774301
8.000000 0.886126
8.000000 0.999583
8.000000 1.114673
8.000000 1.231396
8.000000 1.349751
8.000000 1.469739
8.000000 1.591359
8.000000 1.714611
8.000000 1.839496
8.000000 1.966013
8.000000 2.094163
8.000000 2.223946
8.000000 2.355361
8.000000 2.488408
8.000000 2.623088
8.000000 2.759400
8.000000 2.897345
8.000000 3.036922
8.000000 3.178132
8.000000 3.320975
8.000000 3.465449
8.000000 3.611557
8.000000 3.759296
8.000000 3.908668
8.000000 4.059673
8.000000 4.212310
8.000000 4.366580
8.000000 4.522482
8.000000 4.680017
8.000000 4.839184
8.000000 5.000000
9.000000 -3.000000
9.000000 -2.999184
9.000000 -2.996736
9.000000 -2.992654
9.000000 -2.986941
9.000000 -2.979594
9.000000 -2.970616
9.000000 -2.960005
9.000000 -2.947761
9.000000 -2.933885
9.000000 -2.918376
9.000000 -2.901235
9.000000 -2.882462
9.000000 -2.862056
9.000000 -2.840017
9.000000 -2.816346
9.000000 -2.791043
9.000000 -2.764107
9.000000 -2.735538
9.000000 -2.705337
9.000000 -2.673504
9.000000 -2.640038
9.000000 -2.604940
9.000000 -2.568209
9.000000 -2.529845
9.000000 -2.489849
9.000000 -2.448221
9.000000 -2.404960
9.000000 -2.360067
9.000000 -2.313541
9.000000 -2.265383
9.000000 -2.215592
9.000000 -2.164169
9.000000 -2.111113
9.000000 -2.056425
9.000000 -2.000105
9.000000 -1.942151
9.000000 -1.882566
9.000000 -1.821348
9.000000 -1.758497
9.000000 -1.694014
9.000000 -1.627898
9.000000 -1.560150
9.000000 -1.490770
9.000000 -1.419757
9.000000 -1.347111
9.000000 -1.272833
9.000000 -1.196923
9.000000 -1.119380
9.000000 -1.040204
9.000000 -0.959396
9.000000 -0.876956
9.000000 -0.792883
9.000000 -0.707178
9.000000 -0.619840
9.000000 -0.530870
9.000000 -0.440267
9.000000 -0.348032
9.000000 -0.254164
9.000000 -0.158663
9.000000 -0.061531
9.000000 0.037235
9.000000 0.137632
9.000000 0.239662
9.000000 0.343325
9.000000 0.448620
9.000000 0.555548
9.000000 0.664108
9.000000 0.774301
9.000000 0.886126
9.000000 0.999583
9.000000 1.114673
9.000000 1.231396
9.000000 1.349751
9.000000 1.469739
9.000000 1.591359
9.000000 1.714611
9.000000 1.839496
9.000000 1.966013
9.000000 2.094163
9.000000 2.223946
9.000000 2.355361
9.000000 2.488408
9.000000 2.623088
9.000000 2.759400
9.000000 2.897345
9.000000 3.036922
9.000000 3.178132
9.000000 3.320975
9.000000 3.465449
9.000000 3.611557
9.000000 3.759296
9.000000 3.908668
9.000000 4.059673
9.000000 4.212310
9.000000 4.366580
9.000000 4.522482
9.000000 4.680017
9.000000 4.839184
9.000000 5.000000
10.000000 -3.000000
10.000000 -2.999184
10.000000 -2.996736
10.000000 -2.992654
10.000000 -2.986941
10.000000 -2.979594
10.000000 -2.970616
10.000000 -2.960005
10.000000 -2.947761
10.000000 -2.933885
10.000000 -2.918376
10.000000 -2.901235
10.000000 -2.882462
10.000000 -2.862056
10.000000 -2.840017
10.000000 -2.816346
10.000000 -2.791043
10.000000 -2.764107
10.000000 -2.735538
10.000000 -2.705337
10.000000 -2.673504
10.000000 -2.640038
10.000000 -2.604940
10.000000 -2.568209
10.000000 -2.529845
10.000000 -2.489849
10.000000 -2.448221
10.000000 -2.404960
10.000000 -2.360067
10.000000 -2.313541
10.000000 -2.265383
10.000000 -2.215592
10.000000 -2.164169
10.000000 -2.111113
10.000000 -2.056425
10.000000 -2.000105
10.000000 -1.942151
10.000000 -1.882566
10.000000 -1.821348
10.000000 -1.758497
10.000000 -1.694014
10.000000 -1.627898
10.000000 -1.560150
10.000000 -1.490770
10.000000 -1.419757
10.000000 -1.347111
10.000000 -1.272833
10.000000 -1.196923
10.000000 -1.119380
10.000000 -1.040204
10.000000 -0.959396
10.000000 -0.876956
10.000000 -0.792883
10.000000 -0.707178
10.000000 -0.619840
10.000000 -0.530870
10.000000 -0.440267
10.000000 -0.348032
10.000000 -0.254164
10.000000 -0.158663
10.000000 -0.061531
10.000000 0.037235
10.000000 0.137632
10.000000 0.239662
10.000000 0.343325
10.000000 0.448620
10.000000 0.555548
10.000000 0.664108
10.000000 0.774301
10.000000 0.886126
10.000000 0.999583
10.000000 1.114673
10.000000 1.231396
10.000000 1.349751
10.000000 1.469739
10.000000 1.591359
10.000000 1.714611
10.000000 1.839496
10.000000 1.966013
10.000000 2.094163
10.000000 2.223946
10.000000 2.355361
10.000000 2.488408
10.000000 2.623088
10.000000 2.759400
10.000000 2.897345
10.000000 3.036922
10.000000 3.178132
10.000000 3.320975
10.000000 3.465449
10.000000 3.611557
10.000000 3.759296
10.000000 3.908668
10.000000 4.059673
10.000000 4.212310
10.000000 4.366580
10.000000 4.522482
10.000000 4.680017
10.000000 4.839184
10.000000 5.000000
11.000000 -3.000000
11.000000 -2.999184
11.000000 -2.996736
11.000000 -2.992654
11.000000 -2.986941
11.000000 -2.979594
11.000000 -2.970616
11.000000 -2.960005
11.000000 -2.947761
11.000000 -2.933885
11.000000 -2.918376
11.000000 -2.901235
11.000000 -2.882462
11.000000 -2.862056
11.000000 -2.840017
11.000000 -2.816346
11.000000 -2.791043
11.000000 -2.764107
11.000000 -2.735538
11.000000 -2.705337
11.000000 -2.673504
11.000000 -2.640038
11.000000 -2.604940
11.000000 -2.568209
11.000000 -2.529845
11.000000 -2.489849
11.000000 -2.448221
11.000000 -2.404960
11.000000 -2.360067
11.000000 -2.313541
11.000000 -2.265383
11.000000 -2.215592
11.000000 -2.164169
11.000000 -2.111113
11.000000 -2.056425
11.000000 -2.000105
11.000000 -1.942151
11.000000 -1.882566
11.000000 -1.821348
11.000000 -1.758497
11.000000 -1.694014
11.000000 -1.627898
11.000000 -1.560150
11.000000 -1.490770
11.000000 -1.419757
11.000000 -1.347111
11.000000 -1.272833
11.000000 -1.196923
11.000000 -1.119380
11.000000 -1.040204
11.000000 -0.959396
11.000000 -0.876956
11.000000 -0.792883
11.000000 -0.707178
11.000000 -0.619840
11.000000 -0.530870
11.000000 -0.440267
11.000000 -0.348032
11.000000 -0.254164
11.000000 -0.158663
11.000000 -0.061531
11.000000 0.037235
11.000000 0.137632
11.000000 0.239662
11.000000 0.343325
11.000000 0.448620
11.000000 0.555548
11.000000 0.664108
11.000000 0.774301
11.000000 0.886126
11.000000 0.999583
11.000000 1.114673
11.000000 1.231396
11.000000 1.349751
11.000000 1.469739
11.000000 1.591359
11.000000 1.714611
11.000000 1.839496
11.000000 1.966013
11.000000 2.094163
11.000000 2.223946
11.000000 2.355361
11.000000 2.488408
11.000000 2.623088
11.000000 2.759400
11.000000 2.897345
11.000000 3.036922
11.000000 3.178132
11.000000 3.320975
11.000000 3.465449
11.000000 3.611557
11.000000 3.759296
11.000000 3.908668
11.000000 4.059673
11.000000 4.212310
11.000000 4.366580
11.000000 4.522482
11.000000 4.680017
11.000000 4.839184
11.000000 5.000000
12.000000 -3.000000
12.000000 -2.999184
12.000000 -2.996736
12.000000 -2.992654
12.000000 -2.986941
12.000000 -2.979594
12.000000 -2.970616
12.000000 -2.960005
12.000000 -2.947761
12.000000 -2.933885
12.000000 -2.918376
12.000000 -2.901235
12.000000 -2.882462
12.000000 -2.862056
12.000000 -2.840017
12.000000 -2.816346
12.000000 -2.791043
12.000000 -2.764107
12.000000 -2.735538
12.000000 -2.705337
12.000000 -2.673504
12.000000 -2.640038
12.000000 -2.604940
12.000000 -2.568209
12.000000 -2.529845
12.000000 -2.489849
12.000000 -2.448221
12.000000 -2.404960
12.000000 -2.360067
12.000000 -2.313541
12.000000 -2.265383
12.000000 -2.215592
12.000000 -2.164169
12.000000 -2.111113
12.000000 -2.056425
12.000000 -2.000105
12.000000 -1.942151
12.000000 -1.882566
12.000000 -1.821348
12.000000 -1.758497
12.000000 -1.694014
12.000000 -1.627898
12.000000 -1.560150
12.000000 -1.490770
12.000000 -1.419757
12.000000 -1.347111
12.000000 -1.272833
12.000000 -1.196923
12.000000 -1.119380
12.000000 -1.040204
12.000000 -0.959396
12.000000 -0.876956
12.000000 -0.792883
12.000000 -0.707178
12.000000 -0.619840
12.000000 -0.530870
12.000000 -0.440267
12.000000 -0.348032
12.000000 -0.254164
12.000000 -0.158663
12.000000 -0.061531
12.000000 0.037235
12.000000 0.137632
12.000000 0.239662
12.000000 0.343325
12.000000 0.448620
12.000000 0.555548
12.000000 0.664108
12.000000 0.774301
12.000000 0.886126
12.000000 0.999583
12.000000 1.114673
12.000000 1.231396
12.000000 1.349751
12.000000 1.469739
12.000000 1.591359
12.000000 1.714611
12.000000 1.839496
12.000000 1.966013
12.000000 2.094163
12.000000 2.223946
12.000000 2.355361
12.000000 2.488408
12.000000 2.623088
12.000000 2.759400
12.000000 2.897345
12.000000 3.036922
12.000000 3.178132
12.000000 3.320975
12.000000 3.465449
12.000000 3.611557
12.000000 3.759296
12.000000 3.908668
12.000000 4.059673
12.000000 4.212310
12.000000 4.366580
12.000000 4.522482
12.000000 4.680017
12.000000 4.839184
12.000000 5.000000
13.000000 -3.000000
13.000000 -2.999184
13.000000 -2.996736
13.000000 -2.992654
13.000000 -2.986941
13.000000 -2.979594
13.000000 -2.970616
13.000000 -2.960005
13.000000 -2.947761
13.000000 -2.933885
13.000000 -2.918376
13.000000 -2.901235
13.000000 -2.882462
13.000000 -2.862056
13.000000 -2.840017
13.000000 -2.816346
13.000000 -2.791043
13.000000 -2.764107
13.000000 -2.735538
13.000000 -2.705337
13.000000 -2.673504
13.000000 -2.640038
13.000000 -2.604940
13.000000 -2.568209
13.000000 -2.529845
13.000000 -2.489849
13.000000 -2.448221
13.000000 -2.404960
13.000000 -2.360067
13.000000 -2.313541
13.000000 -2.265383
13.000000 -2.215592
13.000000 -2.164169
13.000000 -2.111113
13.000000 -2.056425
13.000000 -2.000105
13.000000 -1.942151
13.000000 -1.882566
13.000000 -1.821348
13.000000 -1.758497
13.000000 -1.694014
13.000000 -1.627898
13.000000 -1.560150
13.000000 -1.490770
13.000000 -1.419757
13.000000 -1.347111
13.000000 -1.272833
13.000000 -1.196923
13.000000 -1.119380
13.000000 -1.040204
13.000000 -0.959396
13.000000 -0.876956
13.000000 -0.792883
13.000000 -0.707178
13.000000 -0.619840
13.000000 -0.530870
13.000000 -0.440267
13.000000 -0.348032
13.000000 -0.254164
13.000000 -0.158663
13.000000 -0.061531
13.000000 0.037235
13.000000 0.137632
13.000000 0.239662
13.000000 0.343325
13.000000 0.448620
13.000000 0.555548
13.000000 0.664108
13.000000 0.774301
13.000000 0.886126
13.000000 0.999583
13.000000 1.114673
13.000000 1.231396
13.000000 1.349751
13.000000 1.469739
13.000000 1.591359
13.000000 1.714611
13.000000 1.839496
13.000000 1.966013
13.000000 2.094163
13.000000 2.223946
13.000000 2.355361
13.000000 2.488408
13.000000 2.623088
13.000000 2.759400
13.000000 2.897345
13.000000 3.036922
13.000000 3.178132
13.000000 3.320975
13.000000 3.465449
13.000000 3.611557
13.000000 3.759296
13.000000 3.908668
13.000000 4.059673
13.000000 4.212310
13.000000 4.366580
13.000000 4.522482
13.000000 4.680017
13.000000 4.839184
13.000000 5.000000
14.000000 -3.000000
14.000000 -2.999184
14.000000 -2.996736
14.000000 -2.992654
14.000000 -2.986941
14.000000 -2.979594
14.000000 -2.970616
14.000000 -2.960005
14.000000 -2.947761
14.000000 -2.933885
14.000000 -2.918376
14.000000 -2.901235
14.000000 -2.882462
14.000000 -2.862056
14.000000 -2.840017
14.000000 -2.816346
14.000000 -2.791043
14.000000 -2.764107
14.000000 -2.735538
14.000000 -2.705337
14.000000 -2.673504
14.000000 -2.640038
14.000000 -2.604940
14.000000 -2.568209
14.000000 -2.529845
14.000000 -2.489849
14.000000 -2.448221
14.000000 -2.404960
14.000000 -2.360067
14.000000 -2.313541
14.000000 -2.265383
14.000000 -2.215592
14.000000 -2.164169
14.000000 -2.111113
14.000000 -2.056425
14.000000 -2.000105
14.000000 -1.942151
14.000000 -1.882566
14.000000 -1.821348
14.000000 -1.758497
14.000000 -1.694014
14.000000 -1.627898
14.000000 -1.560150
14.000000 -1.490770
14.000000 -1.419757
14.000000 -1.347111
14.000000 -1.272833
14.000000 -1.196923
14.000000 -1.119380
14.000000 -1.040204
14.000000 -0.959396
14.000000 -0.876956
14.000000 -0.792883
14.000000 -0.707178
14.000000 -0.619840
14.000000 -0.530870
14.000000 -0.440267
14.000000 -0.348032
14.000000 -0.254164
14.000000 -0.158663
14.000000 -0.061531
14.000000 0.037235
14.000000 0.137632
14.000000 0.239662
14.000000 0.343325
14.000000 0.448620
14.000000 0.555548
14.000000 0.664108
14.000000 0.774301
14.000000 0.886126
14.000000 0.999583
14.000000 1.114673
14.000000 1.231396
14.000000 1.349751
14.000000 1.469739
14.000000 1.591359
14.000000 1.714611
14.000000 1.839496
14.000000 1.966013
14.000000 2.094163
14.000000 2.223946
14.000000 2.355361
14.000000 2.488408
14.000000 2.623088
14.000000 2.759400
14.000000 2.897345
14.000000 3.036922
14.000000 3.178132
14.000000 3.320975
14.000000 3.465449
14.000000 3.611557
14.000000 3.759296
14.000000 3.908668
14.000000 4.059673
14.000000 4.212310
14.000000 4.366580
14.000000 4.522482
14.000000 4.680017
14.000000 4.839184
14.000000 5.000000
</POINTS>
</NEKTAR>
