<?xml version="1.0" encoding="utf-8" ?>
<NEKTAR>
<POINTS DIM="2" FIELDS="">
39.500000 -1.250000
39.500000 -1.249578
39.500000 -1.248314
39.500000 -1.246206
39.500000 -1.243255
39.500000 -1.239461
39.500000 -1.234824
39.500000 -1.229344
39.500000 -1.223021
39.500000 -1.215855
39.500000 -1.207846
39.500000 -1.198993
39.500000 -1.189298
39.500000 -1.178759
39.500000 -1.167378
39.500000 -1.155153
39.500000 -1.142085
39.500000 -1.128174
39.500000 -1.113420
39.500000 -1.097823
39.500000 -1.081383
39.500000 -1.064100
39.500000 -1.045973
39.500000 -1.027004
39.500000 -1.007191
39.500000 -0.986536
39.500000 -0.965037
39.500000 -0.942695
39.500000 -0.919510
39.500000 -0.895482
39.500000 -0.870611
39.500000 -0.844897
39.500000 -0.818340
39.500000 -0.790940
39.500000 -0.762696
39.500000 -0.733610
39.500000 -0.703680
39.500000 -0.672908
39.500000 -0.641292
39.500000 -0.608833
39.500000 -0.575531
39.500000 -0.541386
39.500000 -0.506398
39.500000 -0.470567
39.500000 -0.433893
39.500000 -0.396376
39.500000 -0.358015
39.500000 -0.318812
39.500000 -0.278765
39.500000 -0.237876
39.500000 -0.196143
39.500000 -0.153567
39.500000 -0.110148
39.500000 -0.065886
39.500000 -0.020781
39.500000 0.025167
39.500000 0.071958
39.500000 0.119593
39.500000 0.168070
39.500000 0.217391
39.500000 0.267554
39.500000 0.318561
39.500000 0.370411
39.500000 0.423104
39.500000 0.476640
39.500000 0.531019
39.500000 0.586241
39.500000 0.642306
39.500000 0.699214
39.500000 0.756966
39.500000 0.815560
39.500000 0.874998
39.500000 0.935278
39.500000 0.996402
39.500000 1.058369
39.500000 1.121179
39.500000 1.184832
39.500000 1.249328
39.500000 1.314667
39.500000 1.380849
39.500000 1.447874
39.500000 1.515743
39.500000 1.584454
39.500000 1.654009
39.500000 1.724406
39.500000 1.795647
39.500000 1.867731
39.500000 1.940658
39.500000 2.014428
39.500000 2.089041
39.500000 2.164497
39.500000 2.240796
39.500000 2.317939
39.500000 2.395924
39.500000 2.474753
39.500000 2.554424
39.500000 2.634939
39.500000 2.716297
39.500000 2.798498
39.500000 2.881542
39.500000 2.965429
39.500000 3.050159
39.500000 3.135732
39.500000 3.222148
39.500000 3.309408
39.500000 3.397510
39.500000 3.486456
39.500000 3.576244
39.500000 3.666876
39.500000 3.758351
39.500000 3.850669
39.500000 3.943830
39.500000 4.037834
39.500000 4.132681
39.500000 4.228371
39.500000 4.324904
39.500000 4.422281
39.500000 4.520500
39.500000 4.619563
39.500000 4.719468
39.500000 4.820217
39.500000 4.921809
39.500000 5.024244
39.500000 5.127522
39.500000 5.231643
39.500000 5.336607
39.500000 5.442414
39.500000 5.549065
39.500000 5.656558
39.500000 5.764895
39.500000 5.874074
39.500000 5.984097
39.500000 6.094963
39.500000 6.206672
39.500000 6.319224
39.500000 6.432619
39.500000 6.546857
39.500000 6.661938
39.500000 6.777862
39.500000 6.894630
39.500000 7.012240
39.500000 7.130694
39.500000 7.249990
39.500000 7.370130
39.500000 7.491113
39.500000 7.612939
39.500000 7.735608
39.500000 7.859120
39.500000 7.983475
39.500000 8.108673
39.500000 8.234714
39.500000 8.361599
39.500000 8.489326
39.500000 8.617897
39.500000 8.747310
39.500000 8.877567
39.500000 9.008667
39.500000 9.140610
39.500000 9.273396
39.500000 9.407025
39.500000 9.541497
39.500000 9.676812
39.500000 9.812971
39.500000 9.949972
39.500000 10.087817
39.500000 10.226504
39.500000 10.366035
39.500000 10.506409
39.500000 10.647626
39.500000 10.789686
39.500000 10.932589
39.500000 11.076335
39.500000 11.220924
39.500000 11.366356
39.500000 11.512632
39.500000 11.659750
39.500000 11.807712
39.500000 11.956516
39.500000 12.106164
39.500000 12.256655
39.500000 12.407989
39.500000 12.560166
39.500000 12.713186
39.500000 12.867049
39.500000 13.021755
39.500000 13.177304
39.500000 13.333697
39.500000 13.490932
39.500000 13.649011
39.500000 13.807933
39.500000 13.967697
39.500000 14.128305
39.500000 14.289756
39.500000 14.452050
39.500000 14.615187
39.500000 14.779167
39.500000 14.943991
39.500000 15.109657
39.500000 15.276166
39.500000 15.443519
39.500000 15.611714
39.500000 15.780753
39.500000 15.950635
39.500000 16.121360
39.500000 16.292928
39.500000 16.465339
39.500000 16.638593
39.500000 16.812690
39.500000 16.987630
39.500000 17.163414
39.500000 17.340040
39.500000 17.517510
39.500000 17.695822
39.500000 17.874978
39.500000 18.054977
39.500000 18.235819
39.500000 18.417504
39.500000 18.600032
39.500000 18.783403
39.500000 18.967617
39.500000 19.152674
39.500000 19.338575
39.500000 19.525318
39.500000 19.712905
39.500000 19.901335
39.500000 20.090607
39.500000 20.280723
39.500000 20.471682
39.500000 20.663484
39.500000 20.856129
39.500000 21.049617
39.500000 21.243949
39.500000 21.439123
39.500000 21.635140
39.500000 21.832001
39.500000 22.029704
39.500000 22.228251
39.500000 22.427641
39.500000 22.627874
39.500000 22.828950
39.500000 23.030869
39.500000 23.233631
39.500000 23.437236
39.500000 23.641684
39.500000 23.846976
39.500000 24.053110
39.500000 24.260088
39.500000 24.467908
39.500000 24.676572
39.500000 24.886079
39.500000 25.096429
39.500000 25.307622
39.500000 25.519658
39.500000 25.732537
39.500000 25.946259
39.500000 26.160825
39.500000 26.376233
39.500000 26.592484
39.500000 26.809579
39.500000 27.027517
39.500000 27.246297
39.500000 27.465921
39.500000 27.686388
39.500000 27.907698
39.500000 28.129851
39.500000 28.352847
39.500000 28.576687
39.500000 28.801369
39.500000 29.026894
39.500000 29.253263
39.500000 29.480475
39.500000 29.708529
39.500000 29.937427
39.500000 30.167168
39.500000 30.397752
39.500000 30.629179
39.500000 30.861449
39.500000 31.094562
39.500000 31.328518
39.500000 31.563318
39.500000 31.798960
39.500000 32.035446
39.500000 32.272774
39.500000 32.510946
39.500000 32.749961
39.500000 32.989819
39.500000 33.230520
39.500000 33.472064
39.500000 33.714451
39.500000 33.957681
39.500000 34.201755
39.500000 34.446671
39.500000 34.692430
39.500000 34.939033
39.500000 35.186479
39.500000 35.434767
39.500000 35.683899
39.500000 35.933874
39.500000 36.184692
39.500000 36.436353
39.500000 36.688857
39.500000 36.942205
39.500000 37.196395
39.500000 37.451429
39.500000 37.707305
39.500000 37.964025
39.500000 38.221587
39.500000 38.479993
39.500000 38.739242
39.500000 38.999334
39.500000 39.260269
39.500000 39.522047
39.500000 39.784668
39.500000 40.048133
39.500000 40.312440
39.500000 40.577590
39.500000 40.843584
39.500000 41.110421
39.500000 41.378100
39.500000 41.646623
39.500000 41.915989
39.500000 42.186198
39.500000 42.457250
39.500000 42.729145
39.500000 43.001883
39.500000 43.275465
39.500000 43.549889
39.500000 43.825157
39.500000 44.101267
39.500000 44.378221
39.500000 44.656018
39.500000 44.934657
39.500000 45.214140
39.500000 45.494466
39.500000 45.775635
39.500000 46.057648
39.500000 46.340503
39.500000 46.624201
39.500000 46.908743
39.500000 47.194127
39.500000 47.480355
39.500000 47.767425
39.500000 48.055339
39.500000 48.344096
39.500000 48.633696
39.500000 48.924139
39.500000 49.215425
39.500000 49.507554
39.500000 49.800527
39.500000 50.094342
39.500000 50.389000
39.500000 50.684502
39.500000 50.980847
39.500000 51.278034
39.500000 51.576065
39.500000 51.874939
39.500000 52.174656
39.500000 52.475216
39.500000 52.776619
39.500000 53.078865
39.500000 53.381955
39.500000 53.685887
39.500000 53.990663
39.500000 54.296281
39.500000 54.602743
39.500000 54.910048
39.500000 55.218195
39.500000 55.527186
39.500000 55.837020
39.500000 56.147697
39.500000 56.459218
39.500000 56.771581
39.500000 57.084787
39.500000 57.398837
39.500000 57.713729
39.500000 58.029465
39.500000 58.346043
39.500000 58.663465
39.500000 58.981730
39.500000 59.300838
39.500000 59.620789
39.500000 59.941583
39.500000 60.263220
39.500000 60.585701
39.500000 60.909024
39.500000 61.233191
39.500000 61.558200
39.500000 61.884053
39.500000 62.210748
39.500000 62.538287
39.500000 62.866669
39.500000 63.195894
39.500000 63.525962
39.500000 63.856873
39.500000 64.188628
39.500000 64.521225
39.500000 64.854665
39.500000 65.188949
39.500000 65.524075
39.500000 65.860045
39.500000 66.196858
39.500000 66.534514
39.500000 66.873012
39.500000 67.212354
39.500000 67.552540
39.500000 67.893568
39.500000 68.235439
39.500000 68.578153
39.500000 68.921711
39.500000 69.266111
39.500000 69.611355
39.500000 69.957442
39.500000 70.304371
39.500000 70.652144
39.500000 71.000760
39.500000 71.350219
39.500000 71.700521
39.500000 72.051667
39.500000 72.403655
39.500000 72.756486
39.500000 73.110161
39.500000 73.464678
39.500000 73.820039
39.500000 74.176243
39.500000 74.533289
39.500000 74.891179
39.500000 75.249912
39.500000 75.609488
39.500000 75.969907
39.500000 76.331170
39.500000 76.693275
39.500000 77.056223
39.500000 77.420015
39.500000 77.784649
39.500000 78.150127
39.500000 78.516448
39.500000 78.883612
39.500000 79.251619
39.500000 79.620469
39.500000 79.990162
39.500000 80.360698
39.500000 80.732077
39.500000 81.104299
39.500000 81.477365
39.500000 81.851273
39.500000 82.226025
39.500000 82.601620
39.500000 82.978057
39.500000 83.355338
39.500000 83.733462
39.500000 84.112429
39.500000 84.492239
39.500000 84.872893
39.500000 85.254389
39.500000 85.636728
39.500000 86.019911
39.500000 86.403936
39.500000 86.788805
39.500000 87.174517
39.500000 87.561071
39.500000 87.948469
39.500000 88.336710
39.500000 88.725794
39.500000 89.115722
39.500000 89.506492
39.500000 89.898105
39.500000 90.290561
39.500000 90.683861
39.500000 91.078004
39.500000 91.472989
39.500000 91.868818
39.500000 92.265490
39.500000 92.663005
39.500000 93.061363
39.500000 93.460564
39.500000 93.860608
39.500000 94.261495
39.500000 94.663226
39.500000 95.065799
39.500000 95.469216
39.500000 95.873475
39.500000 96.278578
39.500000 96.684524
39.500000 97.091312
39.500000 97.498944
39.500000 97.907419
39.500000 98.316738
39.500000 98.726899
39.500000 99.137903
39.500000 99.549750
39.500000 99.962441
39.500000 100.375974
39.500000 100.790351
39.500000 101.205571
39.500000 101.621634
39.500000 102.038539
39.500000 102.456288
39.500000 102.874881
39.500000 103.294316
39.500000 103.714594
39.500000 104.135715
39.500000 104.557680
39.500000 104.980487
39.500000 105.404138
39.500000 105.828631
39.500000 106.253968
39.500000 106.680148
39.500000 107.107171
39.500000 107.535037
39.500000 107.963746
39.500000 108.393298
39.500000 108.823693
39.500000 109.254932
39.500000 109.687013
39.500000 110.119938
39.500000 110.553705
39.500000 110.988316
39.500000 111.423770
39.500000 111.860067
39.500000 112.297207
39.500000 112.735190
39.500000 113.174016
39.500000 113.613685
39.500000 114.054197
39.500000 114.495553
39.500000 114.937751
39.500000 115.380793
39.500000 115.824677
39.500000 116.269405
39.500000 116.714976
39.500000 117.161390
39.500000 117.608647
39.500000 118.056747
39.500000 118.505690
39.500000 118.955476
39.500000 119.406105
39.500000 119.857578
39.500000 120.309893
39.500000 120.763052
39.500000 121.217053
39.500000 121.671898
39.500000 122.127586
39.500000 122.584117
39.500000 123.041491
39.500000 123.499708
39.500000 123.958768
39.500000 124.418671
39.500000 124.879418
39.500000 125.341007
39.500000 125.803440
39.500000 126.266715
39.500000 126.730834
39.500000 127.195796
39.500000 127.661601
39.500000 128.128249
39.500000 128.595740
39.500000 129.064074
39.500000 129.533251
39.500000 130.003271
39.500000 130.474135
39.500000 130.945841
39.500000 131.418391
39.500000 131.891783
39.500000 132.366019
39.500000 132.841098
39.500000 133.317020
39.500000 133.793785
39.500000 134.271393
39.500000 134.749844
39.500000 135.229138
39.500000 135.709275
39.500000 136.190256
39.500000 136.672079
39.500000 137.154746
39.500000 137.638256
39.500000 138.122608
39.500000 138.607804
39.500000 139.093843
39.500000 139.580725
39.500000 140.068450
39.500000 140.557018
39.500000 141.046430
39.500000 141.536684
39.500000 142.027781
39.500000 142.519722
39.500000 143.012506
39.500000 143.506132
39.500000 144.000602
39.500000 144.495915
39.500000 144.992071
39.500000 145.489070
39.500000 145.986912
39.500000 146.485597
39.500000 146.985125
39.500000 147.485497
39.500000 147.986711
39.500000 148.488769
39.500000 148.991669
39.500000 149.495413
39.500000 150.000000
</POINTS>
</NEKTAR>

