<?xml version="1.0" encoding="utf-8" ?>
<NEKTAR>
<POINTS DIM="2" FIELDS="">
27.500000 -1.250000
27.500000 -1.249578
27.500000 -1.248314
27.500000 -1.246206
27.500000 -1.243255
27.500000 -1.239461
27.500000 -1.234824
27.500000 -1.229344
27.500000 -1.223021
27.500000 -1.215855
27.500000 -1.207846
27.500000 -1.198993
27.500000 -1.189298
27.500000 -1.178759
27.500000 -1.167378
27.500000 -1.155153
27.500000 -1.142085
27.500000 -1.128174
27.500000 -1.113420
27.500000 -1.097823
27.500000 -1.081383
27.500000 -1.064100
27.500000 -1.045973
27.500000 -1.027004
27.500000 -1.007191
27.500000 -0.986536
27.500000 -0.965037
27.500000 -0.942695
27.500000 -0.919510
27.500000 -0.895482
27.500000 -0.870611
27.500000 -0.844897
27.500000 -0.818340
27.500000 -0.790940
27.500000 -0.762696
27.500000 -0.733610
27.500000 -0.703680
27.500000 -0.672908
27.500000 -0.641292
27.500000 -0.608833
27.500000 -0.575531
27.500000 -0.541386
27.500000 -0.506398
27.500000 -0.470567
27.500000 -0.433893
27.500000 -0.396376
27.500000 -0.358015
27.500000 -0.318812
27.500000 -0.278765
27.500000 -0.237876
27.500000 -0.196143
27.500000 -0.153567
27.500000 -0.110148
27.500000 -0.065886
27.500000 -0.020781
27.500000 0.025167
27.500000 0.071958
27.500000 0.119593
27.500000 0.168070
27.500000 0.217391
27.500000 0.267554
27.500000 0.318561
27.500000 0.370411
27.500000 0.423104
27.500000 0.476640
27.500000 0.531019
27.500000 0.586241
27.500000 0.642306
27.500000 0.699214
27.500000 0.756966
27.500000 0.815560
27.500000 0.874998
27.500000 0.935278
27.500000 0.996402
27.500000 1.058369
27.500000 1.121179
27.500000 1.184832
27.500000 1.249328
27.500000 1.314667
27.500000 1.380849
27.500000 1.447874
27.500000 1.515743
27.500000 1.584454
27.500000 1.654009
27.500000 1.724406
27.500000 1.795647
27.500000 1.867731
27.500000 1.940658
27.500000 2.014428
27.500000 2.089041
27.500000 2.164497
27.500000 2.240796
27.500000 2.317939
27.500000 2.395924
27.500000 2.474753
27.500000 2.554424
27.500000 2.634939
27.500000 2.716297
27.500000 2.798498
27.500000 2.881542
27.500000 2.965429
27.500000 3.050159
27.500000 3.135732
27.500000 3.222148
27.500000 3.309408
27.500000 3.397510
27.500000 3.486456
27.500000 3.576244
27.500000 3.666876
27.500000 3.758351
27.500000 3.850669
27.500000 3.943830
27.500000 4.037834
27.500000 4.132681
27.500000 4.228371
27.500000 4.324904
27.500000 4.422281
27.500000 4.520500
27.500000 4.619563
27.500000 4.719468
27.500000 4.820217
27.500000 4.921809
27.500000 5.024244
27.500000 5.127522
27.500000 5.231643
27.500000 5.336607
27.500000 5.442414
27.500000 5.549065
27.500000 5.656558
27.500000 5.764895
27.500000 5.874074
27.500000 5.984097
27.500000 6.094963
27.500000 6.206672
27.500000 6.319224
27.500000 6.432619
27.500000 6.546857
27.500000 6.661938
27.500000 6.777862
27.500000 6.894630
27.500000 7.012240
27.500000 7.130694
27.500000 7.249990
27.500000 7.370130
27.500000 7.491113
27.500000 7.612939
27.500000 7.735608
27.500000 7.859120
27.500000 7.983475
27.500000 8.108673
27.500000 8.234714
27.500000 8.361599
27.500000 8.489326
27.500000 8.617897
27.500000 8.747310
27.500000 8.877567
27.500000 9.008667
27.500000 9.140610
27.500000 9.273396
27.500000 9.407025
27.500000 9.541497
27.500000 9.676812
27.500000 9.812971
27.500000 9.949972
27.500000 10.087817
27.500000 10.226504
27.500000 10.366035
27.500000 10.506409
27.500000 10.647626
27.500000 10.789686
27.500000 10.932589
27.500000 11.076335
27.500000 11.220924
27.500000 11.366356
27.500000 11.512632
27.500000 11.659750
27.500000 11.807712
27.500000 11.956516
27.500000 12.106164
27.500000 12.256655
27.500000 12.407989
27.500000 12.560166
27.500000 12.713186
27.500000 12.867049
27.500000 13.021755
27.500000 13.177304
27.500000 13.333697
27.500000 13.490932
27.500000 13.649011
27.500000 13.807933
27.500000 13.967697
27.500000 14.128305
27.500000 14.289756
27.500000 14.452050
27.500000 14.615187
27.500000 14.779167
27.500000 14.943991
27.500000 15.109657
27.500000 15.276166
27.500000 15.443519
27.500000 15.611714
27.500000 15.780753
27.500000 15.950635
27.500000 16.121360
27.500000 16.292928
27.500000 16.465339
27.500000 16.638593
27.500000 16.812690
27.500000 16.987630
27.500000 17.163414
27.500000 17.340040
27.500000 17.517510
27.500000 17.695822
27.500000 17.874978
27.500000 18.054977
27.500000 18.235819
27.500000 18.417504
27.500000 18.600032
27.500000 18.783403
27.500000 18.967617
27.500000 19.152674
27.500000 19.338575
27.500000 19.525318
27.500000 19.712905
27.500000 19.901335
27.500000 20.090607
27.500000 20.280723
27.500000 20.471682
27.500000 20.663484
27.500000 20.856129
27.500000 21.049617
27.500000 21.243949
27.500000 21.439123
27.500000 21.635140
27.500000 21.832001
27.500000 22.029704
27.500000 22.228251
27.500000 22.427641
27.500000 22.627874
27.500000 22.828950
27.500000 23.030869
27.500000 23.233631
27.500000 23.437236
27.500000 23.641684
27.500000 23.846976
27.500000 24.053110
27.500000 24.260088
27.500000 24.467908
27.500000 24.676572
27.500000 24.886079
27.500000 25.096429
27.500000 25.307622
27.500000 25.519658
27.500000 25.732537
27.500000 25.946259
27.500000 26.160825
27.500000 26.376233
27.500000 26.592484
27.500000 26.809579
27.500000 27.027517
27.500000 27.246297
27.500000 27.465921
27.500000 27.686388
27.500000 27.907698
27.500000 28.129851
27.500000 28.352847
27.500000 28.576687
27.500000 28.801369
27.500000 29.026894
27.500000 29.253263
27.500000 29.480475
27.500000 29.708529
27.500000 29.937427
27.500000 30.167168
27.500000 30.397752
27.500000 30.629179
27.500000 30.861449
27.500000 31.094562
27.500000 31.328518
27.500000 31.563318
27.500000 31.798960
27.500000 32.035446
27.500000 32.272774
27.500000 32.510946
27.500000 32.749961
27.500000 32.989819
27.500000 33.230520
27.500000 33.472064
27.500000 33.714451
27.500000 33.957681
27.500000 34.201755
27.500000 34.446671
27.500000 34.692430
27.500000 34.939033
27.500000 35.186479
27.500000 35.434767
27.500000 35.683899
27.500000 35.933874
27.500000 36.184692
27.500000 36.436353
27.500000 36.688857
27.500000 36.942205
27.500000 37.196395
27.500000 37.451429
27.500000 37.707305
27.500000 37.964025
27.500000 38.221587
27.500000 38.479993
27.500000 38.739242
27.500000 38.999334
27.500000 39.260269
27.500000 39.522047
27.500000 39.784668
27.500000 40.048133
27.500000 40.312440
27.500000 40.577590
27.500000 40.843584
27.500000 41.110421
27.500000 41.378100
27.500000 41.646623
27.500000 41.915989
27.500000 42.186198
27.500000 42.457250
27.500000 42.729145
27.500000 43.001883
27.500000 43.275465
27.500000 43.549889
27.500000 43.825157
27.500000 44.101267
27.500000 44.378221
27.500000 44.656018
27.500000 44.934657
27.500000 45.214140
27.500000 45.494466
27.500000 45.775635
27.500000 46.057648
27.500000 46.340503
27.500000 46.624201
27.500000 46.908743
27.500000 47.194127
27.500000 47.480355
27.500000 47.767425
27.500000 48.055339
27.500000 48.344096
27.500000 48.633696
27.500000 48.924139
27.500000 49.215425
27.500000 49.507554
27.500000 49.800527
27.500000 50.094342
27.500000 50.389000
27.500000 50.684502
27.500000 50.980847
27.500000 51.278034
27.500000 51.576065
27.500000 51.874939
27.500000 52.174656
27.500000 52.475216
27.500000 52.776619
27.500000 53.078865
27.500000 53.381955
27.500000 53.685887
27.500000 53.990663
27.500000 54.296281
27.500000 54.602743
27.500000 54.910048
27.500000 55.218195
27.500000 55.527186
27.500000 55.837020
27.500000 56.147697
27.500000 56.459218
27.500000 56.771581
27.500000 57.084787
27.500000 57.398837
27.500000 57.713729
27.500000 58.029465
27.500000 58.346043
27.500000 58.663465
27.500000 58.981730
27.500000 59.300838
27.500000 59.620789
27.500000 59.941583
27.500000 60.263220
27.500000 60.585701
27.500000 60.909024
27.500000 61.233191
27.500000 61.558200
27.500000 61.884053
27.500000 62.210748
27.500000 62.538287
27.500000 62.866669
27.500000 63.195894
27.500000 63.525962
27.500000 63.856873
27.500000 64.188628
27.500000 64.521225
27.500000 64.854665
27.500000 65.188949
27.500000 65.524075
27.500000 65.860045
27.500000 66.196858
27.500000 66.534514
27.500000 66.873012
27.500000 67.212354
27.500000 67.552540
27.500000 67.893568
27.500000 68.235439
27.500000 68.578153
27.500000 68.921711
27.500000 69.266111
27.500000 69.611355
27.500000 69.957442
27.500000 70.304371
27.500000 70.652144
27.500000 71.000760
27.500000 71.350219
27.500000 71.700521
27.500000 72.051667
27.500000 72.403655
27.500000 72.756486
27.500000 73.110161
27.500000 73.464678
27.500000 73.820039
27.500000 74.176243
27.500000 74.533289
27.500000 74.891179
27.500000 75.249912
27.500000 75.609488
27.500000 75.969907
27.500000 76.331170
27.500000 76.693275
27.500000 77.056223
27.500000 77.420015
27.500000 77.784649
27.500000 78.150127
27.500000 78.516448
27.500000 78.883612
27.500000 79.251619
27.500000 79.620469
27.500000 79.990162
27.500000 80.360698
27.500000 80.732077
27.500000 81.104299
27.500000 81.477365
27.500000 81.851273
27.500000 82.226025
27.500000 82.601620
27.500000 82.978057
27.500000 83.355338
27.500000 83.733462
27.500000 84.112429
27.500000 84.492239
27.500000 84.872893
27.500000 85.254389
27.500000 85.636728
27.500000 86.019911
27.500000 86.403936
27.500000 86.788805
27.500000 87.174517
27.500000 87.561071
27.500000 87.948469
27.500000 88.336710
27.500000 88.725794
27.500000 89.115722
27.500000 89.506492
27.500000 89.898105
27.500000 90.290561
27.500000 90.683861
27.500000 91.078004
27.500000 91.472989
27.500000 91.868818
27.500000 92.265490
27.500000 92.663005
27.500000 93.061363
27.500000 93.460564
27.500000 93.860608
27.500000 94.261495
27.500000 94.663226
27.500000 95.065799
27.500000 95.469216
27.500000 95.873475
27.500000 96.278578
27.500000 96.684524
27.500000 97.091312
27.500000 97.498944
27.500000 97.907419
27.500000 98.316738
27.500000 98.726899
27.500000 99.137903
27.500000 99.549750
27.500000 99.962441
27.500000 100.375974
27.500000 100.790351
27.500000 101.205571
27.500000 101.621634
27.500000 102.038539
27.500000 102.456288
27.500000 102.874881
27.500000 103.294316
27.500000 103.714594
27.500000 104.135715
27.500000 104.557680
27.500000 104.980487
27.500000 105.404138
27.500000 105.828631
27.500000 106.253968
27.500000 106.680148
27.500000 107.107171
27.500000 107.535037
27.500000 107.963746
27.500000 108.393298
27.500000 108.823693
27.500000 109.254932
27.500000 109.687013
27.500000 110.119938
27.500000 110.553705
27.500000 110.988316
27.500000 111.423770
27.500000 111.860067
27.500000 112.297207
27.500000 112.735190
27.500000 113.174016
27.500000 113.613685
27.500000 114.054197
27.500000 114.495553
27.500000 114.937751
27.500000 115.380793
27.500000 115.824677
27.500000 116.269405
27.500000 116.714976
27.500000 117.161390
27.500000 117.608647
27.500000 118.056747
27.500000 118.505690
27.500000 118.955476
27.500000 119.406105
27.500000 119.857578
27.500000 120.309893
27.500000 120.763052
27.500000 121.217053
27.500000 121.671898
27.500000 122.127586
27.500000 122.584117
27.500000 123.041491
27.500000 123.499708
27.500000 123.958768
27.500000 124.418671
27.500000 124.879418
27.500000 125.341007
27.500000 125.803440
27.500000 126.266715
27.500000 126.730834
27.500000 127.195796
27.500000 127.661601
27.500000 128.128249
27.500000 128.595740
27.500000 129.064074
27.500000 129.533251
27.500000 130.003271
27.500000 130.474135
27.500000 130.945841
27.500000 131.418391
27.500000 131.891783
27.500000 132.366019
27.500000 132.841098
27.500000 133.317020
27.500000 133.793785
27.500000 134.271393
27.500000 134.749844
27.500000 135.229138
27.500000 135.709275
27.500000 136.190256
27.500000 136.672079
27.500000 137.154746
27.500000 137.638256
27.500000 138.122608
27.500000 138.607804
27.500000 139.093843
27.500000 139.580725
27.500000 140.068450
27.500000 140.557018
27.500000 141.046430
27.500000 141.536684
27.500000 142.027781
27.500000 142.519722
27.500000 143.012506
27.500000 143.506132
27.500000 144.000602
27.500000 144.495915
27.500000 144.992071
27.500000 145.489070
27.500000 145.986912
27.500000 146.485597
27.500000 146.985125
27.500000 147.485497
27.500000 147.986711
27.500000 148.488769
27.500000 148.991669
27.500000 149.495413
27.500000 150.000000
</POINTS>
</NEKTAR>

