<?xml version="1.0" encoding="utf-8" ?>
<NEKTAR>
<POINTS DIM="2" FIELDS="">
18.500000 -1.500000
18.500000 -1.499578
18.500000 -1.498311
18.500000 -1.496200
18.500000 -1.493244
18.500000 -1.489444
18.500000 -1.484799
18.500000 -1.479310
18.500000 -1.472977
18.500000 -1.465799
18.500000 -1.457776
18.500000 -1.448909
18.500000 -1.439197
18.500000 -1.428642
18.500000 -1.417241
18.500000 -1.404996
18.500000 -1.391907
18.500000 -1.377973
18.500000 -1.363194
18.500000 -1.347571
18.500000 -1.331104
18.500000 -1.313792
18.500000 -1.295636
18.500000 -1.276635
18.500000 -1.256790
18.500000 -1.236100
18.500000 -1.214566
18.500000 -1.192187
18.500000 -1.168964
18.500000 -1.144896
18.500000 -1.119984
18.500000 -1.094228
18.500000 -1.067627
18.500000 -1.040181
18.500000 -1.011891
18.500000 -0.982756
18.500000 -0.952777
18.500000 -0.921954
18.500000 -0.890286
18.500000 -0.857774
18.500000 -0.824417
18.500000 -0.790215
18.500000 -0.755169
18.500000 -0.719279
18.500000 -0.682544
18.500000 -0.644965
18.500000 -0.606541
18.500000 -0.567273
18.500000 -0.527160
18.500000 -0.486203
18.500000 -0.444401
18.500000 -0.401755
18.500000 -0.358264
18.500000 -0.313929
18.500000 -0.268749
18.500000 -0.222725
18.500000 -0.175857
18.500000 -0.128143
18.500000 -0.079586
18.500000 -0.030184
18.500000 0.020063
18.500000 0.071154
18.500000 0.123089
18.500000 0.175869
18.500000 0.229494
18.500000 0.283962
18.500000 0.339276
18.500000 0.395434
18.500000 0.452436
18.500000 0.510283
18.500000 0.568974
18.500000 0.628510
18.500000 0.688890
18.500000 0.750115
18.500000 0.812184
18.500000 0.875098
18.500000 0.938856
18.500000 1.003459
18.500000 1.068906
18.500000 1.135198
18.500000 1.202334
18.500000 1.270314
18.500000 1.339139
18.500000 1.408809
18.500000 1.479323
18.500000 1.550681
18.500000 1.622884
18.500000 1.695932
18.500000 1.769824
18.500000 1.844560
18.500000 1.920141
18.500000 1.996566
18.500000 2.073836
18.500000 2.151951
18.500000 2.230909
18.500000 2.310713
18.500000 2.391360
18.500000 2.472853
18.500000 2.555189
18.500000 2.638371
18.500000 2.722396
18.500000 2.807266
18.500000 2.892981
18.500000 2.979540
18.500000 3.066944
18.500000 3.155192
18.500000 3.244284
18.500000 3.334221
18.500000 3.425003
18.500000 3.516629
18.500000 3.609099
18.500000 3.702414
18.500000 3.796574
18.500000 3.891578
18.500000 3.987426
18.500000 4.084119
18.500000 4.181656
18.500000 4.280038
18.500000 4.379265
18.500000 4.479335
18.500000 4.580251
18.500000 4.682010
18.500000 4.784615
18.500000 4.888063
18.500000 4.992356
18.500000 5.097494
18.500000 5.203476
18.500000 5.310303
18.500000 5.417974
18.500000 5.526490
18.500000 5.635850
18.500000 5.746054
18.500000 5.857103
18.500000 5.968997
18.500000 6.081735
18.500000 6.195317
18.500000 6.309744
18.500000 6.425016
18.500000 6.541131
18.500000 6.658092
18.500000 6.775897
18.500000 6.894546
18.500000 7.014040
18.500000 7.134378
18.500000 7.255561
18.500000 7.377588
18.500000 7.500460
18.500000 7.624176
18.500000 7.748737
18.500000 7.874142
18.500000 8.000392
18.500000 8.127486
18.500000 8.255424
18.500000 8.384207
18.500000 8.513835
18.500000 8.644307
18.500000 8.775624
18.500000 8.907785
18.500000 9.040790
18.500000 9.174640
18.500000 9.309334
18.500000 9.444873
18.500000 9.581257
18.500000 9.718485
18.500000 9.856557
18.500000 9.995474
18.500000 10.135235
18.500000 10.275841
18.500000 10.417291
18.500000 10.559586
18.500000 10.702725
18.500000 10.846709
18.500000 10.991537
18.500000 11.137210
18.500000 11.283727
18.500000 11.431089
18.500000 11.579295
18.500000 11.728345
18.500000 11.878240
18.500000 12.028980
18.500000 12.180564
18.500000 12.332992
18.500000 12.486265
18.500000 12.640383
18.500000 12.795345
18.500000 12.951151
18.500000 13.107802
18.500000 13.265297
18.500000 13.423637
18.500000 13.582822
18.500000 13.742850
18.500000 13.903724
18.500000 14.065442
18.500000 14.228004
18.500000 14.391411
18.500000 14.555662
18.500000 14.720757
18.500000 14.886698
18.500000 15.053482
18.500000 15.221111
18.500000 15.389585
18.500000 15.558903
18.500000 15.729066
18.500000 15.900073
18.500000 16.071924
18.500000 16.244620
18.500000 16.418161
18.500000 16.592546
18.500000 16.767775
18.500000 16.943849
18.500000 17.120768
18.500000 17.298530
18.500000 17.477138
18.500000 17.656590
18.500000 17.836886
18.500000 18.018027
18.500000 18.200012
18.500000 18.382842
18.500000 18.566516
18.500000 18.751035
18.500000 18.936398
18.500000 19.122606
18.500000 19.309658
18.500000 19.497554
18.500000 19.686295
18.500000 19.875881
18.500000 20.066311
18.500000 20.257586
18.500000 20.449705
18.500000 20.642668
18.500000 20.836476
18.500000 21.031129
18.500000 21.226626
18.500000 21.422967
18.500000 21.620153
18.500000 21.818183
18.500000 22.017058
18.500000 22.216778
18.500000 22.417341
18.500000 22.618750
18.500000 22.821002
18.500000 23.024100
18.500000 23.228041
18.500000 23.432828
18.500000 23.638458
18.500000 23.844934
18.500000 24.052253
18.500000 24.260417
18.500000 24.469426
18.500000 24.679279
18.500000 24.889977
18.500000 25.101519
18.500000 25.313905
18.500000 25.527136
18.500000 25.741212
18.500000 25.956132
18.500000 26.171896
18.500000 26.388505
18.500000 26.605958
18.500000 26.824256
18.500000 27.043399
18.500000 27.263386
18.500000 27.484217
18.500000 27.705893
18.500000 27.928413
18.500000 28.151778
18.500000 28.375987
18.500000 28.601041
18.500000 28.826939
18.500000 29.053682
18.500000 29.281269
18.500000 29.509700
18.500000 29.738976
18.500000 29.969097
18.500000 30.200062
18.500000 30.431872
18.500000 30.664526
18.500000 30.898024
18.500000 31.132367
18.500000 31.367555
18.500000 31.603587
18.500000 31.840463
18.500000 32.078184
18.500000 32.316749
18.500000 32.556159
18.500000 32.796414
18.500000 33.037512
18.500000 33.279456
18.500000 33.522244
18.500000 33.765876
18.500000 34.010353
18.500000 34.255674
18.500000 34.501839
18.500000 34.748850
18.500000 34.996704
18.500000 35.245403
18.500000 35.494947
18.500000 35.745335
18.500000 35.996568
18.500000 36.248645
18.500000 36.501566
18.500000 36.755332
18.500000 37.009943
18.500000 37.265398
18.500000 37.521697
18.500000 37.778841
18.500000 38.036830
18.500000 38.295662
18.500000 38.555340
18.500000 38.815862
18.500000 39.077228
18.500000 39.339439
18.500000 39.602494
18.500000 39.866394
18.500000 40.131138
18.500000 40.396727
18.500000 40.663160
18.500000 40.930438
18.500000 41.198560
18.500000 41.467527
18.500000 41.737338
18.500000 42.007993
18.500000 42.279493
18.500000 42.551838
18.500000 42.825027
18.500000 43.099060
18.500000 43.373938
18.500000 43.649661
18.500000 43.926228
18.500000 44.203639
18.500000 44.481895
18.500000 44.760996
18.500000 45.040941
18.500000 45.321730
18.500000 45.603364
18.500000 45.885842
18.500000 46.169165
18.500000 46.453332
18.500000 46.738344
18.500000 47.024200
18.500000 47.310901
18.500000 47.598446
18.500000 47.886836
18.500000 48.176070
18.500000 48.466148
18.500000 48.757071
18.500000 49.048839
18.500000 49.341451
18.500000 49.634908
18.500000 49.929209
18.500000 50.224354
18.500000 50.520344
18.500000 50.817179
18.500000 51.114858
18.500000 51.413381
18.500000 51.712749
18.500000 52.012961
18.500000 52.314018
18.500000 52.615919
18.500000 52.918665
18.500000 53.222256
18.500000 53.526690
18.500000 53.831970
18.500000 54.138093
18.500000 54.445061
18.500000 54.752874
18.500000 55.061531
18.500000 55.371033
18.500000 55.681379
18.500000 55.992570
18.500000 56.304605
18.500000 56.617484
18.500000 56.931208
18.500000 57.245777
18.500000 57.561190
18.500000 57.877447
18.500000 58.194549
18.500000 58.512496
18.500000 58.831287
18.500000 59.150922
18.500000 59.471402
18.500000 59.792726
18.500000 60.114895
18.500000 60.437908
18.500000 60.761766
18.500000 61.086469
18.500000 61.412015
18.500000 61.738407
18.500000 62.065642
18.500000 62.393722
18.500000 62.722647
18.500000 63.052416
18.500000 63.383030
18.500000 63.714488
18.500000 64.046791
18.500000 64.379938
18.500000 64.713929
18.500000 65.048765
18.500000 65.384446
18.500000 65.720971
18.500000 66.058340
18.500000 66.396554
18.500000 66.735612
18.500000 67.075515
18.500000 67.416263
18.500000 67.757855
18.500000 68.100291
18.500000 68.443572
18.500000 68.787697
18.500000 69.132667
18.500000 69.478481
18.500000 69.825140
18.500000 70.172643
18.500000 70.520991
18.500000 70.870183
18.500000 71.220220
18.500000 71.571101
18.500000 71.922826
18.500000 72.275396
18.500000 72.628811
18.500000 72.983070
18.500000 73.338174
18.500000 73.694122
18.500000 74.050914
18.500000 74.408551
18.500000 74.767032
18.500000 75.126358
18.500000 75.486529
18.500000 75.847544
18.500000 76.209403
18.500000 76.572107
18.500000 76.935655
18.500000 77.300048
18.500000 77.665285
18.500000 78.031367
18.500000 78.398293
18.500000 78.766064
18.500000 79.134679
18.500000 79.504139
18.500000 79.874443
18.500000 80.245592
18.500000 80.617585
18.500000 80.990422
18.500000 81.364104
18.500000 81.738631
18.500000 82.114002
18.500000 82.490217
18.500000 82.867277
18.500000 83.245182
18.500000 83.623931
18.500000 84.003524
18.500000 84.383962
18.500000 84.765245
18.500000 85.147371
18.500000 85.530343
18.500000 85.914159
18.500000 86.298819
18.500000 86.684324
18.500000 87.070673
18.500000 87.457867
18.500000 87.845905
18.500000 88.234788
18.500000 88.624515
18.500000 89.015086
18.500000 89.406502
18.500000 89.798763
18.500000 90.191868
18.500000 90.585818
18.500000 90.980612
18.500000 91.376250
18.500000 91.772733
18.500000 92.170061
18.500000 92.568233
18.500000 92.967249
18.500000 93.367110
18.500000 93.767816
18.500000 94.169365
18.500000 94.571760
18.500000 94.974999
18.500000 95.379082
18.500000 95.784010
18.500000 96.189782
18.500000 96.596399
18.500000 97.003860
18.500000 97.412166
18.500000 97.821316
18.500000 98.231311
18.500000 98.642150
18.500000 99.053833
18.500000 99.466362
18.500000 99.879734
18.500000 100.293951
18.500000 100.709013
18.500000 101.124919
18.500000 101.541669
18.500000 101.959264
18.500000 102.377704
18.500000 102.796988
18.500000 103.217116
18.500000 103.638089
18.500000 104.059906
18.500000 104.482568
18.500000 104.906075
18.500000 105.330426
18.500000 105.755621
18.500000 106.181661
18.500000 106.608545
18.500000 107.036274
18.500000 107.464847
18.500000 107.894265
18.500000 108.324527
18.500000 108.755633
18.500000 109.187584
18.500000 109.620380
18.500000 110.054020
18.500000 110.488505
18.500000 110.923834
18.500000 111.360007
18.500000 111.797025
18.500000 112.234888
18.500000 112.673595
18.500000 113.113146
18.500000 113.553542
18.500000 113.994783
18.500000 114.436868
18.500000 114.879797
18.500000 115.323571
18.500000 115.768189
18.500000 116.213652
18.500000 116.659959
18.500000 117.107111
18.500000 117.555107
18.500000 118.003948
18.500000 118.453633
18.500000 118.904163
18.500000 119.355537
18.500000 119.807756
18.500000 120.260819
18.500000 120.714726
18.500000 121.169478
18.500000 121.625075
18.500000 122.081516
18.500000 122.538801
18.500000 122.996931
18.500000 123.455906
18.500000 123.915725
18.500000 124.376388
18.500000 124.837896
18.500000 125.300249
18.500000 125.763445
18.500000 126.227487
18.500000 126.692373
18.500000 127.158103
18.500000 127.624678
18.500000 128.092097
18.500000 128.560361
18.500000 129.029469
18.500000 129.499422
18.500000 129.970219
18.500000 130.441861
18.500000 130.914347
18.500000 131.387677
18.500000 131.861852
18.500000 132.336872
18.500000 132.812736
18.500000 133.289445
18.500000 133.766998
18.500000 134.245395
18.500000 134.724637
18.500000 135.204724
18.500000 135.685654
18.500000 136.167430
18.500000 136.650050
18.500000 137.133514
18.500000 137.617823
18.500000 138.102976
18.500000 138.588974
18.500000 139.075816
18.500000 139.563503
18.500000 140.052034
18.500000 140.541410
18.500000 141.031630
18.500000 141.522695
18.500000 142.014604
18.500000 142.507358
18.500000 143.000956
18.500000 143.495399
18.500000 143.990686
18.500000 144.486817
18.500000 144.983793
18.500000 145.481614
18.500000 145.980279
18.500000 146.479788
18.500000 146.980142
18.500000 147.481341
18.500000 147.983384
18.500000 148.486271
18.500000 148.990003
18.500000 149.494579
18.500000 150.000000
</POINTS>
</NEKTAR>

