<?xml version="1.0" encoding="utf-8" ?>
<NEKTAR>
<POINTS DIM="2" FIELDS="">
163.500000 0.000000
163.500000 0.000418
163.500000 0.001672
163.500000 0.003763
163.500000 0.006689
163.500000 0.010451
163.500000 0.015050
163.500000 0.020485
163.500000 0.026756
163.500000 0.033863
163.500000 0.041806
163.500000 0.050585
163.500000 0.060201
163.500000 0.070652
163.500000 0.081940
163.500000 0.094063
163.500000 0.107023
163.500000 0.120819
163.500000 0.135451
163.500000 0.150919
163.500000 0.167224
163.500000 0.184364
163.500000 0.202341
163.500000 0.221153
163.500000 0.240802
163.500000 0.261287
163.500000 0.282608
163.500000 0.304765
163.500000 0.327758
163.500000 0.351588
163.500000 0.376253
163.500000 0.401755
163.500000 0.428092
163.500000 0.455266
163.500000 0.483276
163.500000 0.512122
163.500000 0.541805
163.500000 0.572323
163.500000 0.603677
163.500000 0.635868
163.500000 0.668894
163.500000 0.702757
163.500000 0.737456
163.500000 0.772991
163.500000 0.809362
163.500000 0.846570
163.500000 0.884613
163.500000 0.923492
163.500000 0.963208
163.500000 1.003760
163.500000 1.045148
163.500000 1.087372
163.500000 1.130432
163.500000 1.174328
163.500000 1.219060
163.500000 1.264629
163.500000 1.311033
163.500000 1.358274
163.500000 1.406351
163.500000 1.455264
163.500000 1.505013
163.500000 1.555598
163.500000 1.607019
163.500000 1.659276
163.500000 1.712370
163.500000 1.766299
163.500000 1.821065
163.500000 1.876667
163.500000 1.933105
163.500000 1.990379
163.500000 2.048489
163.500000 2.107436
163.500000 2.167218
163.500000 2.227837
163.500000 2.289291
163.500000 2.351582
163.500000 2.414709
163.500000 2.478672
163.500000 2.543471
163.500000 2.609106
163.500000 2.675578
163.500000 2.742885
163.500000 2.811029
163.500000 2.880009
163.500000 2.949825
163.500000 3.020477
163.500000 3.091965
163.500000 3.164289
163.500000 3.237449
163.500000 3.311446
163.500000 3.386278
163.500000 3.461947
163.500000 3.538452
163.500000 3.615793
163.500000 3.693970
163.500000 3.772983
163.500000 3.852832
163.500000 3.933517
163.500000 4.015039
163.500000 4.097397
163.500000 4.180590
163.500000 4.264620
163.500000 4.349486
163.500000 4.435188
163.500000 4.521727
163.500000 4.609101
163.500000 4.697311
163.500000 4.786358
163.500000 4.876241
163.500000 4.966959
163.500000 5.058514
163.500000 5.150905
163.500000 5.244133
163.500000 5.338196
163.500000 5.433095
163.500000 5.528831
163.500000 5.625402
163.500000 5.722810
163.500000 5.821054
163.500000 5.920134
163.500000 6.020050
163.500000 6.120802
163.500000 6.222391
163.500000 6.324815
163.500000 6.428076
163.500000 6.532172
163.500000 6.637105
163.500000 6.742874
163.500000 6.849479
163.500000 6.956920
163.500000 7.065198
163.500000 7.174311
163.500000 7.284261
163.500000 7.395046
163.500000 7.506668
163.500000 7.619126
163.500000 7.732420
163.500000 7.846550
163.500000 7.961516
163.500000 8.077319
163.500000 8.193957
163.500000 8.311432
163.500000 8.429742
163.500000 8.548889
163.500000 8.668872
163.500000 8.789691
163.500000 8.911346
163.500000 9.033838
163.500000 9.157165
163.500000 9.281329
163.500000 9.406328
163.500000 9.532164
163.500000 9.658836
163.500000 9.786344
163.500000 9.914688
163.500000 10.043868
163.500000 10.173885
163.500000 10.304737
163.500000 10.436426
163.500000 10.568950
163.500000 10.702311
163.500000 10.836508
163.500000 10.971541
163.500000 11.107411
163.500000 11.244116
163.500000 11.381657
163.500000 11.520035
163.500000 11.659248
163.500000 11.799298
163.500000 11.940184
163.500000 12.081906
163.500000 12.224464
163.500000 12.367859
163.500000 12.512089
163.500000 12.657155
163.500000 12.803058
163.500000 12.949797
163.500000 13.097372
163.500000 13.245782
163.500000 13.395030
163.500000 13.545113
163.500000 13.696032
163.500000 13.847787
163.500000 14.000379
163.500000 14.153807
163.500000 14.308070
163.500000 14.463170
163.500000 14.619106
163.500000 14.775879
163.500000 14.933487
163.500000 15.091931
163.500000 15.251212
163.500000 15.411328
163.500000 15.572281
163.500000 15.734070
163.500000 15.896695
163.500000 16.060156
163.500000 16.224453
163.500000 16.389586
163.500000 16.555556
163.500000 16.722361
163.500000 16.890003
163.500000 17.058481
163.500000 17.227795
163.500000 17.397945
163.500000 17.568931
163.500000 17.740753
163.500000 17.913412
163.500000 18.086906
163.500000 18.261237
163.500000 18.436403
163.500000 18.612406
163.500000 18.789245
163.500000 18.966920
163.500000 19.145432
163.500000 19.324779
163.500000 19.504962
163.500000 19.685982
163.500000 19.867838
163.500000 20.050529
163.500000 20.234057
163.500000 20.418421
163.500000 20.603622
163.500000 20.789658
163.500000 20.976530
163.500000 21.164239
163.500000 21.352783
163.500000 21.542164
163.500000 21.732381
163.500000 21.923434
163.500000 22.115323
163.500000 22.308048
163.500000 22.501610
163.500000 22.696007
163.500000 22.891241
163.500000 23.087310
163.500000 23.284216
163.500000 23.481958
163.500000 23.680536
163.500000 23.879950
163.500000 24.080200
163.500000 24.281287
163.500000 24.483209
163.500000 24.685968
163.500000 24.889563
163.500000 25.093994
163.500000 25.299261
163.500000 25.505364
163.500000 25.712303
163.500000 25.920078
163.500000 26.128690
163.500000 26.338137
163.500000 26.548421
163.500000 26.759541
163.500000 26.971497
163.500000 27.184289
163.500000 27.397917
163.500000 27.612381
163.500000 27.827682
163.500000 28.043818
163.500000 28.260791
163.500000 28.478600
163.500000 28.697244
163.500000 28.916725
163.500000 29.137043
163.500000 29.358196
163.500000 29.580185
163.500000 29.803011
163.500000 30.026672
163.500000 30.251170
163.500000 30.476504
163.500000 30.702674
163.500000 30.929680
163.500000 31.157522
163.500000 31.386200
163.500000 31.615715
163.500000 31.846065
163.500000 32.077252
163.500000 32.309275
163.500000 32.542133
163.500000 32.775828
163.500000 33.010360
163.500000 33.245727
163.500000 33.481930
163.500000 33.718970
163.500000 33.956845
163.500000 34.195557
163.500000 34.435105
163.500000 34.675489
163.500000 34.916709
163.500000 35.158765
163.500000 35.401657
163.500000 35.645386
163.500000 35.889950
163.500000 36.135351
163.500000 36.381588
163.500000 36.628660
163.500000 36.876569
163.500000 37.125315
163.500000 37.374896
163.500000 37.625313
163.500000 37.876567
163.500000 38.128656
163.500000 38.381582
163.500000 38.635344
163.500000 38.889942
163.500000 39.145376
163.500000 39.401646
163.500000 39.658752
163.500000 39.916695
163.500000 40.175473
163.500000 40.435088
163.500000 40.695539
163.500000 40.956826
163.500000 41.218949
163.500000 41.481908
163.500000 41.745703
163.500000 42.010334
163.500000 42.275802
163.500000 42.542106
163.500000 42.809245
163.500000 43.077221
163.500000 43.346033
163.500000 43.615681
163.500000 43.886165
163.500000 44.157486
163.500000 44.429642
163.500000 44.702635
163.500000 44.976463
163.500000 45.251128
163.500000 45.526629
163.500000 45.802966
163.500000 46.080139
163.500000 46.358148
163.500000 46.636994
163.500000 46.916675
163.500000 47.197193
163.500000 47.478547
163.500000 47.760736
163.500000 48.043762
163.500000 48.327625
163.500000 48.612323
163.500000 48.897857
163.500000 49.184227
163.500000 49.471434
163.500000 49.759477
163.500000 50.048355
163.500000 50.338070
163.500000 50.628621
163.500000 50.920009
163.500000 51.212232
163.500000 51.505291
163.500000 51.799187
163.500000 52.093918
163.500000 52.389486
163.500000 52.685890
163.500000 52.983130
163.500000 53.281206
163.500000 53.580118
163.500000 53.879867
163.500000 54.180451
163.500000 54.481872
163.500000 54.784128
163.500000 55.087221
163.500000 55.391150
163.500000 55.695915
163.500000 56.001516
163.500000 56.307953
163.500000 56.615227
163.500000 56.923336
163.500000 57.232282
163.500000 57.542064
163.500000 57.852682
163.500000 58.164136
163.500000 58.476426
163.500000 58.789552
163.500000 59.103514
163.500000 59.418313
163.500000 59.733947
163.500000 60.050418
163.500000 60.367725
163.500000 60.685868
163.500000 61.004847
163.500000 61.324662
163.500000 61.645313
163.500000 61.966801
163.500000 62.289124
163.500000 62.612284
163.500000 62.936279
163.500000 63.261111
163.500000 63.586779
163.500000 63.913283
163.500000 64.240624
163.500000 64.568800
163.500000 64.897812
163.500000 65.227661
163.500000 65.558346
163.500000 65.889867
163.500000 66.222223
163.500000 66.555417
163.500000 66.889446
163.500000 67.224311
163.500000 67.560012
163.500000 67.896550
163.500000 68.233924
163.500000 68.572133
163.500000 68.911179
163.500000 69.251061
163.500000 69.591779
163.500000 69.933334
163.500000 70.275724
163.500000 70.618950
163.500000 70.963013
163.500000 71.307912
163.500000 71.653646
163.500000 72.000217
163.500000 72.347624
163.500000 72.695868
163.500000 73.044947
163.500000 73.394862
163.500000 73.745614
163.500000 74.097202
163.500000 74.449625
163.500000 74.802885
163.500000 75.156981
163.500000 75.511913
163.500000 75.867682
163.500000 76.224286
163.500000 76.581726
163.500000 76.940003
163.500000 77.299116
163.500000 77.659064
163.500000 78.019849
163.500000 78.381471
163.500000 78.743928
163.500000 79.107221
163.500000 79.471350
163.500000 79.836316
163.500000 80.202118
163.500000 80.568755
163.500000 80.936229
163.500000 81.304539
163.500000 81.673685
163.500000 82.043668
163.500000 82.414486
163.500000 82.786141
163.500000 83.158631
163.500000 83.531958
163.500000 83.906121
163.500000 84.281120
163.500000 84.656955
163.500000 85.033626
163.500000 85.411133
163.500000 85.789477
163.500000 86.168656
163.500000 86.548672
163.500000 86.929524
163.500000 87.311212
163.500000 87.693736
163.500000 88.077096
163.500000 88.461292
163.500000 88.846324
163.500000 89.232193
163.500000 89.618897
163.500000 90.006438
163.500000 90.394815
163.500000 90.784028
163.500000 91.174077
163.500000 91.564962
163.500000 91.956684
163.500000 92.349241
163.500000 92.742634
163.500000 93.136864
163.500000 93.531930
163.500000 93.927832
163.500000 94.324570
163.500000 94.722144
163.500000 95.120554
163.500000 95.519801
163.500000 95.919883
163.500000 96.320802
163.500000 96.722557
163.500000 97.125147
163.500000 97.528574
163.500000 97.932837
163.500000 98.337937
163.500000 98.743872
163.500000 99.150643
163.500000 99.558251
163.500000 99.966695
163.500000 100.375974
163.500000 100.786090
163.500000 101.197042
163.500000 101.608831
163.500000 102.021455
163.500000 102.434915
163.500000 102.849212
163.500000 103.264344
163.500000 103.680313
163.500000 104.097118
163.500000 104.514759
163.500000 104.933236
163.500000 105.352549
163.500000 105.772699
163.500000 106.193684
163.500000 106.615506
163.500000 107.038163
163.500000 107.461657
163.500000 107.885987
163.500000 108.311153
163.500000 108.737155
163.500000 109.163993
163.500000 109.591668
163.500000 110.020178
163.500000 110.449525
163.500000 110.879708
163.500000 111.310727
163.500000 111.742582
163.500000 112.175273
163.500000 112.608800
163.500000 113.043163
163.500000 113.478363
163.500000 113.914398
163.500000 114.351270
163.500000 114.788978
163.500000 115.227522
163.500000 115.666902
163.500000 116.107118
163.500000 116.548170
163.500000 116.990059
163.500000 117.432783
163.500000 117.876344
163.500000 118.320740
163.500000 118.765973
163.500000 119.212042
163.500000 119.658947
163.500000 120.106689
163.500000 120.555266
163.500000 121.004679
163.500000 121.454929
163.500000 121.906015
163.500000 122.357937
163.500000 122.810695
163.500000 123.264289
163.500000 123.718719
163.500000 124.173985
163.500000 124.630087
163.500000 125.087026
163.500000 125.544801
163.500000 126.003411
163.500000 126.462858
163.500000 126.923141
163.500000 127.384260
163.500000 127.846216
163.500000 128.309007
163.500000 128.772634
163.500000 129.237098
163.500000 129.702398
163.500000 130.168534
163.500000 130.635505
163.500000 131.103314
163.500000 131.571958
163.500000 132.041438
163.500000 132.511754
163.500000 132.982907
163.500000 133.454896
163.500000 133.927720
163.500000 134.401381
163.500000 134.875878
163.500000 135.351211
163.500000 135.827381
163.500000 136.304386
163.500000 136.782227
163.500000 137.260905
163.500000 137.740419
163.500000 138.220769
163.500000 138.701955
163.500000 139.183977
163.500000 139.666835
163.500000 140.150529
163.500000 140.635060
163.500000 141.120426
163.500000 141.606629
163.500000 142.093668
163.500000 142.581542
163.500000 143.070253
163.500000 143.559801
163.500000 144.050184
163.500000 144.541403
163.500000 145.033459
163.500000 145.526350
163.500000 146.020078
163.500000 146.514642
163.500000 147.010042
163.500000 147.506278
163.500000 148.003350
163.500000 148.501258
163.500000 149.000003
163.500000 149.499583
163.500000 150.000000
</POINTS>
</NEKTAR>

