<?xml version="1.0" encoding="utf-8" ?>
<NEKTAR>
<POINTS DIM="2" FIELDS="">
11.500000 -0.250000
11.500000 -0.249581
11.500000 -0.248325
11.500000 -0.246231
11.500000 -0.243300
11.500000 -0.239531
11.500000 -0.234925
11.500000 -0.229481
11.500000 -0.223200
11.500000 -0.216081
11.500000 -0.208124
11.500000 -0.199331
11.500000 -0.189699
11.500000 -0.179230
11.500000 -0.167924
11.500000 -0.155780
11.500000 -0.142799
11.500000 -0.128980
11.500000 -0.114323
11.500000 -0.098829
11.500000 -0.082498
11.500000 -0.065329
11.500000 -0.047322
11.500000 -0.028478
11.500000 -0.008797
11.500000 0.011722
11.500000 0.033079
11.500000 0.055273
11.500000 0.078305
11.500000 0.102174
11.500000 0.126880
11.500000 0.152424
11.500000 0.178806
11.500000 0.206025
11.500000 0.234082
11.500000 0.262976
11.500000 0.292708
11.500000 0.323277
11.500000 0.354683
11.500000 0.386928
11.500000 0.420009
11.500000 0.453929
11.500000 0.488685
11.500000 0.524279
11.500000 0.560711
11.500000 0.597980
11.500000 0.636087
11.500000 0.675032
11.500000 0.714813
11.500000 0.755433
11.500000 0.796890
11.500000 0.839184
11.500000 0.882316
11.500000 0.926285
11.500000 0.971092
11.500000 1.016736
11.500000 1.063218
11.500000 1.110538
11.500000 1.158695
11.500000 1.207689
11.500000 1.257521
11.500000 1.308190
11.500000 1.359697
11.500000 1.412042
11.500000 1.465224
11.500000 1.519243
11.500000 1.574100
11.500000 1.629795
11.500000 1.686327
11.500000 1.743696
11.500000 1.801903
11.500000 1.860948
11.500000 1.920830
11.500000 1.981550
11.500000 2.043107
11.500000 2.105501
11.500000 2.168734
11.500000 2.232803
11.500000 2.297710
11.500000 2.363455
11.500000 2.430037
11.500000 2.497457
11.500000 2.565714
11.500000 2.634809
11.500000 2.704741
11.500000 2.775511
11.500000 2.847118
11.500000 2.919563
11.500000 2.992845
11.500000 3.066965
11.500000 3.141922
11.500000 3.217717
11.500000 3.294349
11.500000 3.371819
11.500000 3.450126
11.500000 3.529271
11.500000 3.609253
11.500000 3.690073
11.500000 3.771731
11.500000 3.854226
11.500000 3.937558
11.500000 4.021728
11.500000 4.106735
11.500000 4.192580
11.500000 4.279263
11.500000 4.366783
11.500000 4.455140
11.500000 4.544335
11.500000 4.634368
11.500000 4.725238
11.500000 4.816945
11.500000 4.909490
11.500000 5.002873
11.500000 5.097093
11.500000 5.192150
11.500000 5.288045
11.500000 5.384778
11.500000 5.482348
11.500000 5.580756
11.500000 5.680001
11.500000 5.780084
11.500000 5.881004
11.500000 5.982761
11.500000 6.085357
11.500000 6.188789
11.500000 6.293059
11.500000 6.398167
11.500000 6.504112
11.500000 6.610895
11.500000 6.718515
11.500000 6.826973
11.500000 6.936268
11.500000 7.046401
11.500000 7.157371
11.500000 7.269179
11.500000 7.381824
11.500000 7.495307
11.500000 7.609628
11.500000 7.724785
11.500000 7.840781
11.500000 7.957614
11.500000 8.075284
11.500000 8.193792
11.500000 8.313137
11.500000 8.433320
11.500000 8.554341
11.500000 8.676199
11.500000 8.798894
11.500000 8.922427
11.500000 9.046798
11.500000 9.172006
11.500000 9.298051
11.500000 9.424934
11.500000 9.552655
11.500000 9.681213
11.500000 9.810608
11.500000 9.940841
11.500000 10.071912
11.500000 10.203820
11.500000 10.336565
11.500000 10.470148
11.500000 10.604569
11.500000 10.739827
11.500000 10.875923
11.500000 11.012856
11.500000 11.150627
11.500000 11.289235
11.500000 11.428681
11.500000 11.568964
11.500000 11.710084
11.500000 11.852043
11.500000 11.994838
11.500000 12.138472
11.500000 12.282942
11.500000 12.428251
11.500000 12.574396
11.500000 12.721380
11.500000 12.869200
11.500000 13.017859
11.500000 13.167355
11.500000 13.317688
11.500000 13.468859
11.500000 13.620867
11.500000 13.773713
11.500000 13.927396
11.500000 14.081917
11.500000 14.237276
11.500000 14.393472
11.500000 14.550505
11.500000 14.708376
11.500000 14.867084
11.500000 15.026630
11.500000 15.187014
11.500000 15.348235
11.500000 15.510293
11.500000 15.673189
11.500000 15.836923
11.500000 16.001494
11.500000 16.166902
11.500000 16.333148
11.500000 16.500232
11.500000 16.668153
11.500000 16.836912
11.500000 17.006508
11.500000 17.176941
11.500000 17.348213
11.500000 17.520321
11.500000 17.693267
11.500000 17.867051
11.500000 18.041672
11.500000 18.217131
11.500000 18.393427
11.500000 18.570561
11.500000 18.748532
11.500000 18.927341
11.500000 19.106987
11.500000 19.287471
11.500000 19.468792
11.500000 19.650951
11.500000 19.833947
11.500000 20.017781
11.500000 20.202452
11.500000 20.387961
11.500000 20.574307
11.500000 20.761491
11.500000 20.949512
11.500000 21.138371
11.500000 21.328068
11.500000 21.518602
11.500000 21.709973
11.500000 21.902182
11.500000 22.095228
11.500000 22.289112
11.500000 22.483834
11.500000 22.679393
11.500000 22.875789
11.500000 23.073023
11.500000 23.271095
11.500000 23.470004
11.500000 23.669750
11.500000 23.870334
11.500000 24.071756
11.500000 24.274015
11.500000 24.477111
11.500000 24.681045
11.500000 24.885817
11.500000 25.091426
11.500000 25.297873
11.500000 25.505157
11.500000 25.713278
11.500000 25.922238
11.500000 26.132034
11.500000 26.342668
11.500000 26.554140
11.500000 26.766449
11.500000 26.979596
11.500000 27.193580
11.500000 27.408402
11.500000 27.624061
11.500000 27.840558
11.500000 28.057892
11.500000 28.276064
11.500000 28.495073
11.500000 28.714920
11.500000 28.935604
11.500000 29.157126
11.500000 29.379485
11.500000 29.602682
11.500000 29.826717
11.500000 30.051588
11.500000 30.277298
11.500000 30.503845
11.500000 30.731229
11.500000 30.959451
11.500000 31.188510
11.500000 31.418407
11.500000 31.649142
11.500000 31.880714
11.500000 32.113123
11.500000 32.346370
11.500000 32.580455
11.500000 32.815377
11.500000 33.051136
11.500000 33.287733
11.500000 33.525168
11.500000 33.763440
11.500000 34.002549
11.500000 34.242497
11.500000 34.483281
11.500000 34.724903
11.500000 34.967363
11.500000 35.210660
11.500000 35.454795
11.500000 35.699767
11.500000 35.945576
11.500000 36.192224
11.500000 36.439708
11.500000 36.688030
11.500000 36.937190
11.500000 37.187187
11.500000 37.438022
11.500000 37.689694
11.500000 37.942204
11.500000 38.195551
11.500000 38.449736
11.500000 38.704758
11.500000 38.960618
11.500000 39.217315
11.500000 39.474850
11.500000 39.733223
11.500000 39.992432
11.500000 40.252480
11.500000 40.513365
11.500000 40.775087
11.500000 41.037647
11.500000 41.301044
11.500000 41.565279
11.500000 41.830352
11.500000 42.096262
11.500000 42.363009
11.500000 42.630594
11.500000 42.899016
11.500000 43.168276
11.500000 43.438374
11.500000 43.709309
11.500000 43.981081
11.500000 44.253691
11.500000 44.527139
11.500000 44.801424
11.500000 45.076547
11.500000 45.352507
11.500000 45.629304
11.500000 45.906939
11.500000 46.185412
11.500000 46.464722
11.500000 46.744870
11.500000 47.025855
11.500000 47.307678
11.500000 47.590338
11.500000 47.873835
11.500000 48.158171
11.500000 48.443343
11.500000 48.729353
11.500000 49.016201
11.500000 49.303886
11.500000 49.592409
11.500000 49.881769
11.500000 50.171967
11.500000 50.463002
11.500000 50.754875
11.500000 51.047586
11.500000 51.341133
11.500000 51.635519
11.500000 51.930742
11.500000 52.226802
11.500000 52.523700
11.500000 52.821435
11.500000 53.120008
11.500000 53.419418
11.500000 53.719666
11.500000 54.020752
11.500000 54.322675
11.500000 54.625435
11.500000 54.929033
11.500000 55.233469
11.500000 55.538742
11.500000 55.844852
11.500000 56.151800
11.500000 56.459586
11.500000 56.768209
11.500000 57.077669
11.500000 57.387967
11.500000 57.699103
11.500000 58.011076
11.500000 58.323886
11.500000 58.637534
11.500000 58.952020
11.500000 59.267343
11.500000 59.583504
11.500000 59.900502
11.500000 60.218338
11.500000 60.537011
11.500000 60.856521
11.500000 61.176870
11.500000 61.498055
11.500000 61.820079
11.500000 62.142939
11.500000 62.466637
11.500000 62.791173
11.500000 63.116546
11.500000 63.442757
11.500000 63.769806
11.500000 64.097691
11.500000 64.426415
11.500000 64.755975
11.500000 65.086374
11.500000 65.417610
11.500000 65.749683
11.500000 66.082594
11.500000 66.416342
11.500000 66.750928
11.500000 67.086351
11.500000 67.422612
11.500000 67.759711
11.500000 68.097647
11.500000 68.436420
11.500000 68.776031
11.500000 69.116480
11.500000 69.457766
11.500000 69.799889
11.500000 70.142850
11.500000 70.486649
11.500000 70.831285
11.500000 71.176758
11.500000 71.523069
11.500000 71.870218
11.500000 72.218204
11.500000 72.567027
11.500000 72.916688
11.500000 73.267187
11.500000 73.618523
11.500000 73.970697
11.500000 74.323708
11.500000 74.677557
11.500000 75.032243
11.500000 75.387766
11.500000 75.744128
11.500000 76.101326
11.500000 76.459363
11.500000 76.818236
11.500000 77.177948
11.500000 77.538496
11.500000 77.899883
11.500000 78.262106
11.500000 78.625168
11.500000 78.989066
11.500000 79.353803
11.500000 79.719376
11.500000 80.085788
11.500000 80.453037
11.500000 80.821123
11.500000 81.190047
11.500000 81.559808
11.500000 81.930407
11.500000 82.301844
11.500000 82.674117
11.500000 83.047229
11.500000 83.421178
11.500000 83.795964
11.500000 84.171588
11.500000 84.548050
11.500000 84.925349
11.500000 85.303485
11.500000 85.682459
11.500000 86.062271
11.500000 86.442920
11.500000 86.824406
11.500000 87.206730
11.500000 87.589892
11.500000 87.973891
11.500000 88.358727
11.500000 88.744401
11.500000 89.130913
11.500000 89.518262
11.500000 89.906449
11.500000 90.295473
11.500000 90.685335
11.500000 91.076034
11.500000 91.467570
11.500000 91.859945
11.500000 92.253156
11.500000 92.647206
11.500000 93.042092
11.500000 93.437817
11.500000 93.834378
11.500000 94.231778
11.500000 94.630014
11.500000 95.029089
11.500000 95.429000
11.500000 95.829750
11.500000 96.231336
11.500000 96.633761
11.500000 97.037023
11.500000 97.441122
11.500000 97.846059
11.500000 98.251833
11.500000 98.658445
11.500000 99.065894
11.500000 99.474181
11.500000 99.883306
11.500000 100.293268
11.500000 100.704067
11.500000 101.115704
11.500000 101.528179
11.500000 101.941491
11.500000 102.355640
11.500000 102.770627
11.500000 103.186452
11.500000 103.603114
11.500000 104.020613
11.500000 104.438950
11.500000 104.858125
11.500000 105.278137
11.500000 105.698986
11.500000 106.120673
11.500000 106.543198
11.500000 106.966560
11.500000 107.390760
11.500000 107.815797
11.500000 108.241672
11.500000 108.668384
11.500000 109.095933
11.500000 109.524321
11.500000 109.953545
11.500000 110.383607
11.500000 110.814507
11.500000 111.246244
11.500000 111.678819
11.500000 112.112231
11.500000 112.546481
11.500000 112.981568
11.500000 113.417493
11.500000 113.854256
11.500000 114.291855
11.500000 114.730293
11.500000 115.169568
11.500000 115.609680
11.500000 116.050630
11.500000 116.492417
11.500000 116.935042
11.500000 117.378504
11.500000 117.822804
11.500000 118.267942
11.500000 118.713917
11.500000 119.160729
11.500000 119.608379
11.500000 120.056866
11.500000 120.506191
11.500000 120.956354
11.500000 121.407354
11.500000 121.859191
11.500000 122.311866
11.500000 122.765379
11.500000 123.219729
11.500000 123.674917
11.500000 124.130942
11.500000 124.587804
11.500000 125.045504
11.500000 125.504042
11.500000 125.963417
11.500000 126.423630
11.500000 126.884680
11.500000 127.346567
11.500000 127.809293
11.500000 128.272855
11.500000 128.737255
11.500000 129.202493
11.500000 129.668568
11.500000 130.135481
11.500000 130.603231
11.500000 131.071819
11.500000 131.541244
11.500000 132.011507
11.500000 132.482607
11.500000 132.954545
11.500000 133.427320
11.500000 133.900933
11.500000 134.375384
11.500000 134.850671
11.500000 135.326797
11.500000 135.803760
11.500000 136.281560
11.500000 136.760198
11.500000 137.239673
11.500000 137.719986
11.500000 138.201137
11.500000 138.683124
11.500000 139.165950
11.500000 139.649613
11.500000 140.134113
11.500000 140.619451
11.500000 141.105627
11.500000 141.592640
11.500000 142.080490
11.500000 142.569178
11.500000 143.058704
11.500000 143.549067
11.500000 144.040267
11.500000 144.532306
11.500000 145.025181
11.500000 145.518894
11.500000 146.013445
11.500000 146.508833
11.500000 147.005059
11.500000 147.502122
11.500000 148.000022
11.500000 148.498760
11.500000 148.998336
11.500000 149.498749
11.500000 150.000000
</POINTS>
</NEKTAR>

