<?xml version="1.0" encoding="utf-8" ?>
<NEKTAR>
<POINTS DIM="2" FIELDS="">
40.500000 0.000000
40.500000 0.000418
40.500000 0.001672
40.500000 0.003763
40.500000 0.006689
40.500000 0.010451
40.500000 0.015050
40.500000 0.020485
40.500000 0.026756
40.500000 0.033863
40.500000 0.041806
40.500000 0.050585
40.500000 0.060201
40.500000 0.070652
40.500000 0.081940
40.500000 0.094063
40.500000 0.107023
40.500000 0.120819
40.500000 0.135451
40.500000 0.150919
40.500000 0.167224
40.500000 0.184364
40.500000 0.202341
40.500000 0.221153
40.500000 0.240802
40.500000 0.261287
40.500000 0.282608
40.500000 0.304765
40.500000 0.327758
40.500000 0.351588
40.500000 0.376253
40.500000 0.401755
40.500000 0.428092
40.500000 0.455266
40.500000 0.483276
40.500000 0.512122
40.500000 0.541805
40.500000 0.572323
40.500000 0.603677
40.500000 0.635868
40.500000 0.668894
40.500000 0.702757
40.500000 0.737456
40.500000 0.772991
40.500000 0.809362
40.500000 0.846570
40.500000 0.884613
40.500000 0.923492
40.500000 0.963208
40.500000 1.003760
40.500000 1.045148
40.500000 1.087372
40.500000 1.130432
40.500000 1.174328
40.500000 1.219060
40.500000 1.264629
40.500000 1.311033
40.500000 1.358274
40.500000 1.406351
40.500000 1.455264
40.500000 1.505013
40.500000 1.555598
40.500000 1.607019
40.500000 1.659276
40.500000 1.712370
40.500000 1.766299
40.500000 1.821065
40.500000 1.876667
40.500000 1.933105
40.500000 1.990379
40.500000 2.048489
40.500000 2.107436
40.500000 2.167218
40.500000 2.227837
40.500000 2.289291
40.500000 2.351582
40.500000 2.414709
40.500000 2.478672
40.500000 2.543471
40.500000 2.609106
40.500000 2.675578
40.500000 2.742885
40.500000 2.811029
40.500000 2.880009
40.500000 2.949825
40.500000 3.020477
40.500000 3.091965
40.500000 3.164289
40.500000 3.237449
40.500000 3.311446
40.500000 3.386278
40.500000 3.461947
40.500000 3.538452
40.500000 3.615793
40.500000 3.693970
40.500000 3.772983
40.500000 3.852832
40.500000 3.933517
40.500000 4.015039
40.500000 4.097397
40.500000 4.180590
40.500000 4.264620
40.500000 4.349486
40.500000 4.435188
40.500000 4.521727
40.500000 4.609101
40.500000 4.697311
40.500000 4.786358
40.500000 4.876241
40.500000 4.966959
40.500000 5.058514
40.500000 5.150905
40.500000 5.244133
40.500000 5.338196
40.500000 5.433095
40.500000 5.528831
40.500000 5.625402
40.500000 5.722810
40.500000 5.821054
40.500000 5.920134
40.500000 6.020050
40.500000 6.120802
40.500000 6.222391
40.500000 6.324815
40.500000 6.428076
40.500000 6.532172
40.500000 6.637105
40.500000 6.742874
40.500000 6.849479
40.500000 6.956920
40.500000 7.065198
40.500000 7.174311
40.500000 7.284261
40.500000 7.395046
40.500000 7.506668
40.500000 7.619126
40.500000 7.732420
40.500000 7.846550
40.500000 7.961516
40.500000 8.077319
40.500000 8.193957
40.500000 8.311432
40.500000 8.429742
40.500000 8.548889
40.500000 8.668872
40.500000 8.789691
40.500000 8.911346
40.500000 9.033838
40.500000 9.157165
40.500000 9.281329
40.500000 9.406328
40.500000 9.532164
40.500000 9.658836
40.500000 9.786344
40.500000 9.914688
40.500000 10.043868
40.500000 10.173885
40.500000 10.304737
40.500000 10.436426
40.500000 10.568950
40.500000 10.702311
40.500000 10.836508
40.500000 10.971541
40.500000 11.107411
40.500000 11.244116
40.500000 11.381657
40.500000 11.520035
40.500000 11.659248
40.500000 11.799298
40.500000 11.940184
40.500000 12.081906
40.500000 12.224464
40.500000 12.367859
40.500000 12.512089
40.500000 12.657155
40.500000 12.803058
40.500000 12.949797
40.500000 13.097372
40.500000 13.245782
40.500000 13.395030
40.500000 13.545113
40.500000 13.696032
40.500000 13.847787
40.500000 14.000379
40.500000 14.153807
40.500000 14.308070
40.500000 14.463170
40.500000 14.619106
40.500000 14.775879
40.500000 14.933487
40.500000 15.091931
40.500000 15.251212
40.500000 15.411328
40.500000 15.572281
40.500000 15.734070
40.500000 15.896695
40.500000 16.060156
40.500000 16.224453
40.500000 16.389586
40.500000 16.555556
40.500000 16.722361
40.500000 16.890003
40.500000 17.058481
40.500000 17.227795
40.500000 17.397945
40.500000 17.568931
40.500000 17.740753
40.500000 17.913412
40.500000 18.086906
40.500000 18.261237
40.500000 18.436403
40.500000 18.612406
40.500000 18.789245
40.500000 18.966920
40.500000 19.145432
40.500000 19.324779
40.500000 19.504962
40.500000 19.685982
40.500000 19.867838
40.500000 20.050529
40.500000 20.234057
40.500000 20.418421
40.500000 20.603622
40.500000 20.789658
40.500000 20.976530
40.500000 21.164239
40.500000 21.352783
40.500000 21.542164
40.500000 21.732381
40.500000 21.923434
40.500000 22.115323
40.500000 22.308048
40.500000 22.501610
40.500000 22.696007
40.500000 22.891241
40.500000 23.087310
40.500000 23.284216
40.500000 23.481958
40.500000 23.680536
40.500000 23.879950
40.500000 24.080200
40.500000 24.281287
40.500000 24.483209
40.500000 24.685968
40.500000 24.889563
40.500000 25.093994
40.500000 25.299261
40.500000 25.505364
40.500000 25.712303
40.500000 25.920078
40.500000 26.128690
40.500000 26.338137
40.500000 26.548421
40.500000 26.759541
40.500000 26.971497
40.500000 27.184289
40.500000 27.397917
40.500000 27.612381
40.500000 27.827682
40.500000 28.043818
40.500000 28.260791
40.500000 28.478600
40.500000 28.697244
40.500000 28.916725
40.500000 29.137043
40.500000 29.358196
40.500000 29.580185
40.500000 29.803011
40.500000 30.026672
40.500000 30.251170
40.500000 30.476504
40.500000 30.702674
40.500000 30.929680
40.500000 31.157522
40.500000 31.386200
40.500000 31.615715
40.500000 31.846065
40.500000 32.077252
40.500000 32.309275
40.500000 32.542133
40.500000 32.775828
40.500000 33.010360
40.500000 33.245727
40.500000 33.481930
40.500000 33.718970
40.500000 33.956845
40.500000 34.195557
40.500000 34.435105
40.500000 34.675489
40.500000 34.916709
40.500000 35.158765
40.500000 35.401657
40.500000 35.645386
40.500000 35.889950
40.500000 36.135351
40.500000 36.381588
40.500000 36.628660
40.500000 36.876569
40.500000 37.125315
40.500000 37.374896
40.500000 37.625313
40.500000 37.876567
40.500000 38.128656
40.500000 38.381582
40.500000 38.635344
40.500000 38.889942
40.500000 39.145376
40.500000 39.401646
40.500000 39.658752
40.500000 39.916695
40.500000 40.175473
40.500000 40.435088
40.500000 40.695539
40.500000 40.956826
40.500000 41.218949
40.500000 41.481908
40.500000 41.745703
40.500000 42.010334
40.500000 42.275802
40.500000 42.542106
40.500000 42.809245
40.500000 43.077221
40.500000 43.346033
40.500000 43.615681
40.500000 43.886165
40.500000 44.157486
40.500000 44.429642
40.500000 44.702635
40.500000 44.976463
40.500000 45.251128
40.500000 45.526629
40.500000 45.802966
40.500000 46.080139
40.500000 46.358148
40.500000 46.636994
40.500000 46.916675
40.500000 47.197193
40.500000 47.478547
40.500000 47.760736
40.500000 48.043762
40.500000 48.327625
40.500000 48.612323
40.500000 48.897857
40.500000 49.184227
40.500000 49.471434
40.500000 49.759477
40.500000 50.048355
40.500000 50.338070
40.500000 50.628621
40.500000 50.920009
40.500000 51.212232
40.500000 51.505291
40.500000 51.799187
40.500000 52.093918
40.500000 52.389486
40.500000 52.685890
40.500000 52.983130
40.500000 53.281206
40.500000 53.580118
40.500000 53.879867
40.500000 54.180451
40.500000 54.481872
40.500000 54.784128
40.500000 55.087221
40.500000 55.391150
40.500000 55.695915
40.500000 56.001516
40.500000 56.307953
40.500000 56.615227
40.500000 56.923336
40.500000 57.232282
40.500000 57.542064
40.500000 57.852682
40.500000 58.164136
40.500000 58.476426
40.500000 58.789552
40.500000 59.103514
40.500000 59.418313
40.500000 59.733947
40.500000 60.050418
40.500000 60.367725
40.500000 60.685868
40.500000 61.004847
40.500000 61.324662
40.500000 61.645313
40.500000 61.966801
40.500000 62.289124
40.500000 62.612284
40.500000 62.936279
40.500000 63.261111
40.500000 63.586779
40.500000 63.913283
40.500000 64.240624
40.500000 64.568800
40.500000 64.897812
40.500000 65.227661
40.500000 65.558346
40.500000 65.889867
40.500000 66.222223
40.500000 66.555417
40.500000 66.889446
40.500000 67.224311
40.500000 67.560012
40.500000 67.896550
40.500000 68.233924
40.500000 68.572133
40.500000 68.911179
40.500000 69.251061
40.500000 69.591779
40.500000 69.933334
40.500000 70.275724
40.500000 70.618950
40.500000 70.963013
40.500000 71.307912
40.500000 71.653646
40.500000 72.000217
40.500000 72.347624
40.500000 72.695868
40.500000 73.044947
40.500000 73.394862
40.500000 73.745614
40.500000 74.097202
40.500000 74.449625
40.500000 74.802885
40.500000 75.156981
40.500000 75.511913
40.500000 75.867682
40.500000 76.224286
40.500000 76.581726
40.500000 76.940003
40.500000 77.299116
40.500000 77.659064
40.500000 78.019849
40.500000 78.381471
40.500000 78.743928
40.500000 79.107221
40.500000 79.471350
40.500000 79.836316
40.500000 80.202118
40.500000 80.568755
40.500000 80.936229
40.500000 81.304539
40.500000 81.673685
40.500000 82.043668
40.500000 82.414486
40.500000 82.786141
40.500000 83.158631
40.500000 83.531958
40.500000 83.906121
40.500000 84.281120
40.500000 84.656955
40.500000 85.033626
40.500000 85.411133
40.500000 85.789477
40.500000 86.168656
40.500000 86.548672
40.500000 86.929524
40.500000 87.311212
40.500000 87.693736
40.500000 88.077096
40.500000 88.461292
40.500000 88.846324
40.500000 89.232193
40.500000 89.618897
40.500000 90.006438
40.500000 90.394815
40.500000 90.784028
40.500000 91.174077
40.500000 91.564962
40.500000 91.956684
40.500000 92.349241
40.500000 92.742634
40.500000 93.136864
40.500000 93.531930
40.500000 93.927832
40.500000 94.324570
40.500000 94.722144
40.500000 95.120554
40.500000 95.519801
40.500000 95.919883
40.500000 96.320802
40.500000 96.722557
40.500000 97.125147
40.500000 97.528574
40.500000 97.932837
40.500000 98.337937
40.500000 98.743872
40.500000 99.150643
40.500000 99.558251
40.500000 99.966695
40.500000 100.375974
40.500000 100.786090
40.500000 101.197042
40.500000 101.608831
40.500000 102.021455
40.500000 102.434915
40.500000 102.849212
40.500000 103.264344
40.500000 103.680313
40.500000 104.097118
40.500000 104.514759
40.500000 104.933236
40.500000 105.352549
40.500000 105.772699
40.500000 106.193684
40.500000 106.615506
40.500000 107.038163
40.500000 107.461657
40.500000 107.885987
40.500000 108.311153
40.500000 108.737155
40.500000 109.163993
40.500000 109.591668
40.500000 110.020178
40.500000 110.449525
40.500000 110.879708
40.500000 111.310727
40.500000 111.742582
40.500000 112.175273
40.500000 112.608800
40.500000 113.043163
40.500000 113.478363
40.500000 113.914398
40.500000 114.351270
40.500000 114.788978
40.500000 115.227522
40.500000 115.666902
40.500000 116.107118
40.500000 116.548170
40.500000 116.990059
40.500000 117.432783
40.500000 117.876344
40.500000 118.320740
40.500000 118.765973
40.500000 119.212042
40.500000 119.658947
40.500000 120.106689
40.500000 120.555266
40.500000 121.004679
40.500000 121.454929
40.500000 121.906015
40.500000 122.357937
40.500000 122.810695
40.500000 123.264289
40.500000 123.718719
40.500000 124.173985
40.500000 124.630087
40.500000 125.087026
40.500000 125.544801
40.500000 126.003411
40.500000 126.462858
40.500000 126.923141
40.500000 127.384260
40.500000 127.846216
40.500000 128.309007
40.500000 128.772634
40.500000 129.237098
40.500000 129.702398
40.500000 130.168534
40.500000 130.635505
40.500000 131.103314
40.500000 131.571958
40.500000 132.041438
40.500000 132.511754
40.500000 132.982907
40.500000 133.454896
40.500000 133.927720
40.500000 134.401381
40.500000 134.875878
40.500000 135.351211
40.500000 135.827381
40.500000 136.304386
40.500000 136.782227
40.500000 137.260905
40.500000 137.740419
40.500000 138.220769
40.500000 138.701955
40.500000 139.183977
40.500000 139.666835
40.500000 140.150529
40.500000 140.635060
40.500000 141.120426
40.500000 141.606629
40.500000 142.093668
40.500000 142.581542
40.500000 143.070253
40.500000 143.559801
40.500000 144.050184
40.500000 144.541403
40.500000 145.033459
40.500000 145.526350
40.500000 146.020078
40.500000 146.514642
40.500000 147.010042
40.500000 147.506278
40.500000 148.003350
40.500000 148.501258
40.500000 149.000003
40.500000 149.499583
40.500000 150.000000
</POINTS>
</NEKTAR>

