<?xml version="1.0" encoding="utf-8" ?>
<NEKTAR>
<POINTS DIM="2" FIELDS="">
19.500000 -0.250000
19.500000 -0.249581
19.500000 -0.248325
19.500000 -0.246231
19.500000 -0.243300
19.500000 -0.239531
19.500000 -0.234925
19.500000 -0.229481
19.500000 -0.223200
19.500000 -0.216081
19.500000 -0.208124
19.500000 -0.199331
19.500000 -0.189699
19.500000 -0.179230
19.500000 -0.167924
19.500000 -0.155780
19.500000 -0.142799
19.500000 -0.128980
19.500000 -0.114323
19.500000 -0.098829
19.500000 -0.082498
19.500000 -0.065329
19.500000 -0.047322
19.500000 -0.028478
19.500000 -0.008797
19.500000 0.011722
19.500000 0.033079
19.500000 0.055273
19.500000 0.078305
19.500000 0.102174
19.500000 0.126880
19.500000 0.152424
19.500000 0.178806
19.500000 0.206025
19.500000 0.234082
19.500000 0.262976
19.500000 0.292708
19.500000 0.323277
19.500000 0.354683
19.500000 0.386928
19.500000 0.420009
19.500000 0.453929
19.500000 0.488685
19.500000 0.524279
19.500000 0.560711
19.500000 0.597980
19.500000 0.636087
19.500000 0.675032
19.500000 0.714813
19.500000 0.755433
19.500000 0.796890
19.500000 0.839184
19.500000 0.882316
19.500000 0.926285
19.500000 0.971092
19.500000 1.016736
19.500000 1.063218
19.500000 1.110538
19.500000 1.158695
19.500000 1.207689
19.500000 1.257521
19.500000 1.308190
19.500000 1.359697
19.500000 1.412042
19.500000 1.465224
19.500000 1.519243
19.500000 1.574100
19.500000 1.629795
19.500000 1.686327
19.500000 1.743696
19.500000 1.801903
19.500000 1.860948
19.500000 1.920830
19.500000 1.981550
19.500000 2.043107
19.500000 2.105501
19.500000 2.168734
19.500000 2.232803
19.500000 2.297710
19.500000 2.363455
19.500000 2.430037
19.500000 2.497457
19.500000 2.565714
19.500000 2.634809
19.500000 2.704741
19.500000 2.775511
19.500000 2.847118
19.500000 2.919563
19.500000 2.992845
19.500000 3.066965
19.500000 3.141922
19.500000 3.217717
19.500000 3.294349
19.500000 3.371819
19.500000 3.450126
19.500000 3.529271
19.500000 3.609253
19.500000 3.690073
19.500000 3.771731
19.500000 3.854226
19.500000 3.937558
19.500000 4.021728
19.500000 4.106735
19.500000 4.192580
19.500000 4.279263
19.500000 4.366783
19.500000 4.455140
19.500000 4.544335
19.500000 4.634368
19.500000 4.725238
19.500000 4.816945
19.500000 4.909490
19.500000 5.002873
19.500000 5.097093
19.500000 5.192150
19.500000 5.288045
19.500000 5.384778
19.500000 5.482348
19.500000 5.580756
19.500000 5.680001
19.500000 5.780084
19.500000 5.881004
19.500000 5.982761
19.500000 6.085357
19.500000 6.188789
19.500000 6.293059
19.500000 6.398167
19.500000 6.504112
19.500000 6.610895
19.500000 6.718515
19.500000 6.826973
19.500000 6.936268
19.500000 7.046401
19.500000 7.157371
19.500000 7.269179
19.500000 7.381824
19.500000 7.495307
19.500000 7.609628
19.500000 7.724785
19.500000 7.840781
19.500000 7.957614
19.500000 8.075284
19.500000 8.193792
19.500000 8.313137
19.500000 8.433320
19.500000 8.554341
19.500000 8.676199
19.500000 8.798894
19.500000 8.922427
19.500000 9.046798
19.500000 9.172006
19.500000 9.298051
19.500000 9.424934
19.500000 9.552655
19.500000 9.681213
19.500000 9.810608
19.500000 9.940841
19.500000 10.071912
19.500000 10.203820
19.500000 10.336565
19.500000 10.470148
19.500000 10.604569
19.500000 10.739827
19.500000 10.875923
19.500000 11.012856
19.500000 11.150627
19.500000 11.289235
19.500000 11.428681
19.500000 11.568964
19.500000 11.710084
19.500000 11.852043
19.500000 11.994838
19.500000 12.138472
19.500000 12.282942
19.500000 12.428251
19.500000 12.574396
19.500000 12.721380
19.500000 12.869200
19.500000 13.017859
19.500000 13.167355
19.500000 13.317688
19.500000 13.468859
19.500000 13.620867
19.500000 13.773713
19.500000 13.927396
19.500000 14.081917
19.500000 14.237276
19.500000 14.393472
19.500000 14.550505
19.500000 14.708376
19.500000 14.867084
19.500000 15.026630
19.500000 15.187014
19.500000 15.348235
19.500000 15.510293
19.500000 15.673189
19.500000 15.836923
19.500000 16.001494
19.500000 16.166902
19.500000 16.333148
19.500000 16.500232
19.500000 16.668153
19.500000 16.836912
19.500000 17.006508
19.500000 17.176941
19.500000 17.348213
19.500000 17.520321
19.500000 17.693267
19.500000 17.867051
19.500000 18.041672
19.500000 18.217131
19.500000 18.393427
19.500000 18.570561
19.500000 18.748532
19.500000 18.927341
19.500000 19.106987
19.500000 19.287471
19.500000 19.468792
19.500000 19.650951
19.500000 19.833947
19.500000 20.017781
19.500000 20.202452
19.500000 20.387961
19.500000 20.574307
19.500000 20.761491
19.500000 20.949512
19.500000 21.138371
19.500000 21.328068
19.500000 21.518602
19.500000 21.709973
19.500000 21.902182
19.500000 22.095228
19.500000 22.289112
19.500000 22.483834
19.500000 22.679393
19.500000 22.875789
19.500000 23.073023
19.500000 23.271095
19.500000 23.470004
19.500000 23.669750
19.500000 23.870334
19.500000 24.071756
19.500000 24.274015
19.500000 24.477111
19.500000 24.681045
19.500000 24.885817
19.500000 25.091426
19.500000 25.297873
19.500000 25.505157
19.500000 25.713278
19.500000 25.922238
19.500000 26.132034
19.500000 26.342668
19.500000 26.554140
19.500000 26.766449
19.500000 26.979596
19.500000 27.193580
19.500000 27.408402
19.500000 27.624061
19.500000 27.840558
19.500000 28.057892
19.500000 28.276064
19.500000 28.495073
19.500000 28.714920
19.500000 28.935604
19.500000 29.157126
19.500000 29.379485
19.500000 29.602682
19.500000 29.826717
19.500000 30.051588
19.500000 30.277298
19.500000 30.503845
19.500000 30.731229
19.500000 30.959451
19.500000 31.188510
19.500000 31.418407
19.500000 31.649142
19.500000 31.880714
19.500000 32.113123
19.500000 32.346370
19.500000 32.580455
19.500000 32.815377
19.500000 33.051136
19.500000 33.287733
19.500000 33.525168
19.500000 33.763440
19.500000 34.002549
19.500000 34.242497
19.500000 34.483281
19.500000 34.724903
19.500000 34.967363
19.500000 35.210660
19.500000 35.454795
19.500000 35.699767
19.500000 35.945576
19.500000 36.192224
19.500000 36.439708
19.500000 36.688030
19.500000 36.937190
19.500000 37.187187
19.500000 37.438022
19.500000 37.689694
19.500000 37.942204
19.500000 38.195551
19.500000 38.449736
19.500000 38.704758
19.500000 38.960618
19.500000 39.217315
19.500000 39.474850
19.500000 39.733223
19.500000 39.992432
19.500000 40.252480
19.500000 40.513365
19.500000 40.775087
19.500000 41.037647
19.500000 41.301044
19.500000 41.565279
19.500000 41.830352
19.500000 42.096262
19.500000 42.363009
19.500000 42.630594
19.500000 42.899016
19.500000 43.168276
19.500000 43.438374
19.500000 43.709309
19.500000 43.981081
19.500000 44.253691
19.500000 44.527139
19.500000 44.801424
19.500000 45.076547
19.500000 45.352507
19.500000 45.629304
19.500000 45.906939
19.500000 46.185412
19.500000 46.464722
19.500000 46.744870
19.500000 47.025855
19.500000 47.307678
19.500000 47.590338
19.500000 47.873835
19.500000 48.158171
19.500000 48.443343
19.500000 48.729353
19.500000 49.016201
19.500000 49.303886
19.500000 49.592409
19.500000 49.881769
19.500000 50.171967
19.500000 50.463002
19.500000 50.754875
19.500000 51.047586
19.500000 51.341133
19.500000 51.635519
19.500000 51.930742
19.500000 52.226802
19.500000 52.523700
19.500000 52.821435
19.500000 53.120008
19.500000 53.419418
19.500000 53.719666
19.500000 54.020752
19.500000 54.322675
19.500000 54.625435
19.500000 54.929033
19.500000 55.233469
19.500000 55.538742
19.500000 55.844852
19.500000 56.151800
19.500000 56.459586
19.500000 56.768209
19.500000 57.077669
19.500000 57.387967
19.500000 57.699103
19.500000 58.011076
19.500000 58.323886
19.500000 58.637534
19.500000 58.952020
19.500000 59.267343
19.500000 59.583504
19.500000 59.900502
19.500000 60.218338
19.500000 60.537011
19.500000 60.856521
19.500000 61.176870
19.500000 61.498055
19.500000 61.820079
19.500000 62.142939
19.500000 62.466637
19.500000 62.791173
19.500000 63.116546
19.500000 63.442757
19.500000 63.769806
19.500000 64.097691
19.500000 64.426415
19.500000 64.755975
19.500000 65.086374
19.500000 65.417610
19.500000 65.749683
19.500000 66.082594
19.500000 66.416342
19.500000 66.750928
19.500000 67.086351
19.500000 67.422612
19.500000 67.759711
19.500000 68.097647
19.500000 68.436420
19.500000 68.776031
19.500000 69.116480
19.500000 69.457766
19.500000 69.799889
19.500000 70.142850
19.500000 70.486649
19.500000 70.831285
19.500000 71.176758
19.500000 71.523069
19.500000 71.870218
19.500000 72.218204
19.500000 72.567027
19.500000 72.916688
19.500000 73.267187
19.500000 73.618523
19.500000 73.970697
19.500000 74.323708
19.500000 74.677557
19.500000 75.032243
19.500000 75.387766
19.500000 75.744128
19.500000 76.101326
19.500000 76.459363
19.500000 76.818236
19.500000 77.177948
19.500000 77.538496
19.500000 77.899883
19.500000 78.262106
19.500000 78.625168
19.500000 78.989066
19.500000 79.353803
19.500000 79.719376
19.500000 80.085788
19.500000 80.453037
19.500000 80.821123
19.500000 81.190047
19.500000 81.559808
19.500000 81.930407
19.500000 82.301844
19.500000 82.674117
19.500000 83.047229
19.500000 83.421178
19.500000 83.795964
19.500000 84.171588
19.500000 84.548050
19.500000 84.925349
19.500000 85.303485
19.500000 85.682459
19.500000 86.062271
19.500000 86.442920
19.500000 86.824406
19.500000 87.206730
19.500000 87.589892
19.500000 87.973891
19.500000 88.358727
19.500000 88.744401
19.500000 89.130913
19.500000 89.518262
19.500000 89.906449
19.500000 90.295473
19.500000 90.685335
19.500000 91.076034
19.500000 91.467570
19.500000 91.859945
19.500000 92.253156
19.500000 92.647206
19.500000 93.042092
19.500000 93.437817
19.500000 93.834378
19.500000 94.231778
19.500000 94.630014
19.500000 95.029089
19.500000 95.429000
19.500000 95.829750
19.500000 96.231336
19.500000 96.633761
19.500000 97.037023
19.500000 97.441122
19.500000 97.846059
19.500000 98.251833
19.500000 98.658445
19.500000 99.065894
19.500000 99.474181
19.500000 99.883306
19.500000 100.293268
19.500000 100.704067
19.500000 101.115704
19.500000 101.528179
19.500000 101.941491
19.500000 102.355640
19.500000 102.770627
19.500000 103.186452
19.500000 103.603114
19.500000 104.020613
19.500000 104.438950
19.500000 104.858125
19.500000 105.278137
19.500000 105.698986
19.500000 106.120673
19.500000 106.543198
19.500000 106.966560
19.500000 107.390760
19.500000 107.815797
19.500000 108.241672
19.500000 108.668384
19.500000 109.095933
19.500000 109.524321
19.500000 109.953545
19.500000 110.383607
19.500000 110.814507
19.500000 111.246244
19.500000 111.678819
19.500000 112.112231
19.500000 112.546481
19.500000 112.981568
19.500000 113.417493
19.500000 113.854256
19.500000 114.291855
19.500000 114.730293
19.500000 115.169568
19.500000 115.609680
19.500000 116.050630
19.500000 116.492417
19.500000 116.935042
19.500000 117.378504
19.500000 117.822804
19.500000 118.267942
19.500000 118.713917
19.500000 119.160729
19.500000 119.608379
19.500000 120.056866
19.500000 120.506191
19.500000 120.956354
19.500000 121.407354
19.500000 121.859191
19.500000 122.311866
19.500000 122.765379
19.500000 123.219729
19.500000 123.674917
19.500000 124.130942
19.500000 124.587804
19.500000 125.045504
19.500000 125.504042
19.500000 125.963417
19.500000 126.423630
19.500000 126.884680
19.500000 127.346567
19.500000 127.809293
19.500000 128.272855
19.500000 128.737255
19.500000 129.202493
19.500000 129.668568
19.500000 130.135481
19.500000 130.603231
19.500000 131.071819
19.500000 131.541244
19.500000 132.011507
19.500000 132.482607
19.500000 132.954545
19.500000 133.427320
19.500000 133.900933
19.500000 134.375384
19.500000 134.850671
19.500000 135.326797
19.500000 135.803760
19.500000 136.281560
19.500000 136.760198
19.500000 137.239673
19.500000 137.719986
19.500000 138.201137
19.500000 138.683124
19.500000 139.165950
19.500000 139.649613
19.500000 140.134113
19.500000 140.619451
19.500000 141.105627
19.500000 141.592640
19.500000 142.080490
19.500000 142.569178
19.500000 143.058704
19.500000 143.549067
19.500000 144.040267
19.500000 144.532306
19.500000 145.025181
19.500000 145.518894
19.500000 146.013445
19.500000 146.508833
19.500000 147.005059
19.500000 147.502122
19.500000 148.000022
19.500000 148.498760
19.500000 148.998336
19.500000 149.498749
19.500000 150.000000
</POINTS>
</NEKTAR>

