<?xml version="1.0" encoding="utf-8" ?>
<NEKTAR>
<POINTS DIM="2" FIELDS="">
21.500000 -0.750000
21.500000 -0.749580
21.500000 -0.748319
21.500000 -0.746219
21.500000 -0.743278
21.500000 -0.739496
21.500000 -0.734875
21.500000 -0.729413
21.500000 -0.723110
21.500000 -0.715968
21.500000 -0.707985
21.500000 -0.699162
21.500000 -0.689498
21.500000 -0.678995
21.500000 -0.667651
21.500000 -0.655466
21.500000 -0.642442
21.500000 -0.628577
21.500000 -0.613872
21.500000 -0.598326
21.500000 -0.581940
21.500000 -0.564714
21.500000 -0.546648
21.500000 -0.527741
21.500000 -0.507994
21.500000 -0.487407
21.500000 -0.465979
21.500000 -0.443711
21.500000 -0.420603
21.500000 -0.396654
21.500000 -0.371866
21.500000 -0.346236
21.500000 -0.319767
21.500000 -0.292457
21.500000 -0.264307
21.500000 -0.235317
21.500000 -0.205486
21.500000 -0.174816
21.500000 -0.143304
21.500000 -0.110953
21.500000 -0.077761
21.500000 -0.043729
21.500000 -0.008857
21.500000 0.026856
21.500000 0.063409
21.500000 0.100802
21.500000 0.139036
21.500000 0.178110
21.500000 0.218024
21.500000 0.258779
21.500000 0.300373
21.500000 0.342808
21.500000 0.386084
21.500000 0.430199
21.500000 0.475155
21.500000 0.520952
21.500000 0.567588
21.500000 0.615065
21.500000 0.663382
21.500000 0.712540
21.500000 0.762538
21.500000 0.813376
21.500000 0.865054
21.500000 0.917573
21.500000 0.970932
21.500000 1.025131
21.500000 1.080170
21.500000 1.136050
21.500000 1.192771
21.500000 1.250331
21.500000 1.308732
21.500000 1.367973
21.500000 1.428054
21.500000 1.488976
21.500000 1.550738
21.500000 1.613340
21.500000 1.676783
21.500000 1.741065
21.500000 1.806189
21.500000 1.872152
21.500000 1.938956
21.500000 2.006600
21.500000 2.075084
21.500000 2.144409
21.500000 2.214574
21.500000 2.285579
21.500000 2.357424
21.500000 2.430110
21.500000 2.503636
21.500000 2.578003
21.500000 2.653210
21.500000 2.729257
21.500000 2.806144
21.500000 2.883872
21.500000 2.962439
21.500000 3.041848
21.500000 3.122096
21.500000 3.203185
21.500000 3.285114
21.500000 3.367884
21.500000 3.451493
21.500000 3.535943
21.500000 3.621234
21.500000 3.707364
21.500000 3.794335
21.500000 3.882146
21.500000 3.970798
21.500000 4.060290
21.500000 4.150622
21.500000 4.241794
21.500000 4.333807
21.500000 4.426660
21.500000 4.520353
21.500000 4.614887
21.500000 4.710261
21.500000 4.806475
21.500000 4.903529
21.500000 5.001424
21.500000 5.100159
21.500000 5.199735
21.500000 5.300150
21.500000 5.401406
21.500000 5.503503
21.500000 5.606439
21.500000 5.710216
21.500000 5.814833
21.500000 5.920291
21.500000 6.026589
21.500000 6.133727
21.500000 6.241705
21.500000 6.350524
21.500000 6.460183
21.500000 6.570682
21.500000 6.682022
21.500000 6.794201
21.500000 6.907222
21.500000 7.021082
21.500000 7.135783
21.500000 7.251324
21.500000 7.367705
21.500000 7.484927
21.500000 7.602989
21.500000 7.721891
21.500000 7.841634
21.500000 7.962217
21.500000 8.083640
21.500000 8.205903
21.500000 8.329007
21.500000 8.452951
21.500000 8.577735
21.500000 8.703360
21.500000 8.829825
21.500000 8.957130
21.500000 9.085276
21.500000 9.214262
21.500000 9.344088
21.500000 9.474754
21.500000 9.606261
21.500000 9.738608
21.500000 9.871795
21.500000 10.005823
21.500000 10.140691
21.500000 10.276399
21.500000 10.412948
21.500000 10.550336
21.500000 10.688566
21.500000 10.827635
21.500000 10.967545
21.500000 11.108295
21.500000 11.249885
21.500000 11.392316
21.500000 11.535587
21.500000 11.679698
21.500000 11.824649
21.500000 11.970441
21.500000 12.117073
21.500000 12.264546
21.500000 12.412858
21.500000 12.562011
21.500000 12.712005
21.500000 12.862838
21.500000 13.014512
21.500000 13.167026
21.500000 13.320381
21.500000 13.474576
21.500000 13.629611
21.500000 13.785486
21.500000 13.942202
21.500000 14.099758
21.500000 14.258154
21.500000 14.417391
21.500000 14.577468
21.500000 14.738385
21.500000 14.900142
21.500000 15.062740
21.500000 15.226178
21.500000 15.390457
21.500000 15.555575
21.500000 15.721534
21.500000 15.888334
21.500000 16.055973
21.500000 16.224453
21.500000 16.393773
21.500000 16.563934
21.500000 16.734935
21.500000 16.906776
21.500000 17.079457
21.500000 17.252979
21.500000 17.427341
21.500000 17.602543
21.500000 17.778585
21.500000 17.955468
21.500000 18.133192
21.500000 18.311755
21.500000 18.491159
21.500000 18.671403
21.500000 18.852487
21.500000 19.034412
21.500000 19.217177
21.500000 19.400782
21.500000 19.585228
21.500000 19.770513
21.500000 19.956640
21.500000 20.143606
21.500000 20.331413
21.500000 20.520060
21.500000 20.709547
21.500000 20.899875
21.500000 21.091043
21.500000 21.283051
21.500000 21.475900
21.500000 21.669588
21.500000 21.864118
21.500000 22.059487
21.500000 22.255697
21.500000 22.452747
21.500000 22.650637
21.500000 22.849368
21.500000 23.048939
21.500000 23.249350
21.500000 23.450601
21.500000 23.652693
21.500000 23.855625
21.500000 24.059398
21.500000 24.264011
21.500000 24.469464
21.500000 24.675757
21.500000 24.882891
21.500000 25.090864
21.500000 25.299679
21.500000 25.509333
21.500000 25.719828
21.500000 25.931163
21.500000 26.143339
21.500000 26.356354
21.500000 26.570210
21.500000 26.784907
21.500000 27.000443
21.500000 27.216820
21.500000 27.434037
21.500000 27.652095
21.500000 27.870993
21.500000 28.090731
21.500000 28.311309
21.500000 28.532728
21.500000 28.754987
21.500000 28.978086
21.500000 29.202026
21.500000 29.426806
21.500000 29.652426
21.500000 29.878886
21.500000 30.106187
21.500000 30.334328
21.500000 30.563309
21.500000 30.793131
21.500000 31.023793
21.500000 31.255295
21.500000 31.487638
21.500000 31.720821
21.500000 31.954844
21.500000 32.189708
21.500000 32.425411
21.500000 32.661955
21.500000 32.899340
21.500000 33.137564
21.500000 33.376629
21.500000 33.616535
21.500000 33.857280
21.500000 34.098866
21.500000 34.341292
21.500000 34.584559
21.500000 34.828665
21.500000 35.073613
21.500000 35.319400
21.500000 35.566028
21.500000 35.813496
21.500000 36.061804
21.500000 36.310952
21.500000 36.560941
21.500000 36.811770
21.500000 37.063440
21.500000 37.315950
21.500000 37.569300
21.500000 37.823490
21.500000 38.078521
21.500000 38.334391
21.500000 38.591103
21.500000 38.848654
21.500000 39.107046
21.500000 39.366278
21.500000 39.626351
21.500000 39.887263
21.500000 40.149016
21.500000 40.411610
21.500000 40.675043
21.500000 40.939317
21.500000 41.204432
21.500000 41.470386
21.500000 41.737181
21.500000 42.004816
21.500000 42.273291
21.500000 42.542607
21.500000 42.812763
21.500000 43.083760
21.500000 43.355596
21.500000 43.628273
21.500000 43.901790
21.500000 44.176148
21.500000 44.451346
21.500000 44.727384
21.500000 45.004262
21.500000 45.281981
21.500000 45.560540
21.500000 45.839939
21.500000 46.120179
21.500000 46.401259
21.500000 46.683179
21.500000 46.965939
21.500000 47.249540
21.500000 47.533981
21.500000 47.819263
21.500000 48.105384
21.500000 48.392346
21.500000 48.680149
21.500000 48.968791
21.500000 49.258274
21.500000 49.548597
21.500000 49.839761
21.500000 50.131765
21.500000 50.424609
21.500000 50.718293
21.500000 51.012818
21.500000 51.308183
21.500000 51.604388
21.500000 51.901434
21.500000 52.199319
21.500000 52.498046
21.500000 52.797612
21.500000 53.098019
21.500000 53.399266
21.500000 53.701353
21.500000 54.004281
21.500000 54.308049
21.500000 54.612657
21.500000 54.918106
21.500000 55.224395
21.500000 55.531524
21.500000 55.839493
21.500000 56.148303
21.500000 56.457953
21.500000 56.768443
21.500000 57.079774
21.500000 57.391945
21.500000 57.704956
21.500000 58.018808
21.500000 58.333500
21.500000 58.649032
21.500000 58.965404
21.500000 59.282617
21.500000 59.600670
21.500000 59.919563
21.500000 60.239297
21.500000 60.559871
21.500000 60.881285
21.500000 61.203540
21.500000 61.526635
21.500000 61.850570
21.500000 62.175345
21.500000 62.500961
21.500000 62.827417
21.500000 63.154713
21.500000 63.482850
21.500000 63.811827
21.500000 64.141644
21.500000 64.472301
21.500000 64.803799
21.500000 65.136137
21.500000 65.469316
21.500000 65.803335
21.500000 66.138194
21.500000 66.473893
21.500000 66.810433
21.500000 67.147812
21.500000 67.486033
21.500000 67.825093
21.500000 68.164994
21.500000 68.505735
21.500000 68.847316
21.500000 69.189738
21.500000 69.533000
21.500000 69.877102
21.500000 70.222045
21.500000 70.567828
21.500000 70.914451
21.500000 71.261915
21.500000 71.610218
21.500000 71.959363
21.500000 72.309347
21.500000 72.660172
21.500000 73.011837
21.500000 73.364342
21.500000 73.717688
21.500000 74.071873
21.500000 74.426900
21.500000 74.782766
21.500000 75.139473
21.500000 75.497020
21.500000 75.855407
21.500000 76.214635
21.500000 76.574703
21.500000 76.935611
21.500000 77.297360
21.500000 77.659949
21.500000 78.023378
21.500000 78.387647
21.500000 78.752757
21.500000 79.118707
21.500000 79.485498
21.500000 79.853128
21.500000 80.221599
21.500000 80.590910
21.500000 80.961062
21.500000 81.332054
21.500000 81.703886
21.500000 82.076558
21.500000 82.450071
21.500000 82.824424
21.500000 83.199618
21.500000 83.575651
21.500000 83.952525
21.500000 84.330239
21.500000 84.708794
21.500000 85.088189
21.500000 85.468424
21.500000 85.849499
21.500000 86.231415
21.500000 86.614171
21.500000 86.997768
21.500000 87.382204
21.500000 87.767481
21.500000 88.153598
21.500000 88.540556
21.500000 88.928354
21.500000 89.316992
21.500000 89.706470
21.500000 90.096789
21.500000 90.487948
21.500000 90.879947
21.500000 91.272787
21.500000 91.666467
21.500000 92.060987
21.500000 92.456348
21.500000 92.852548
21.500000 93.249590
21.500000 93.647471
21.500000 94.046193
21.500000 94.445755
21.500000 94.846157
21.500000 95.247400
21.500000 95.649483
21.500000 96.052406
21.500000 96.456169
21.500000 96.860773
21.500000 97.266217
21.500000 97.672502
21.500000 98.079626
21.500000 98.487591
21.500000 98.896397
21.500000 99.306042
21.500000 99.716528
21.500000 100.127854
21.500000 100.540021
21.500000 100.953028
21.500000 101.366875
21.500000 101.781562
21.500000 102.197090
21.500000 102.613458
21.500000 103.030666
21.500000 103.448715
21.500000 103.867603
21.500000 104.287333
21.500000 104.707902
21.500000 105.129312
21.500000 105.551562
21.500000 105.974652
21.500000 106.398583
21.500000 106.823354
21.500000 107.248965
21.500000 107.675417
21.500000 108.102709
21.500000 108.530841
21.500000 108.959813
21.500000 109.389626
21.500000 109.820279
21.500000 110.251773
21.500000 110.684106
21.500000 111.117280
21.500000 111.551294
21.500000 111.986149
21.500000 112.421844
21.500000 112.858379
21.500000 113.295754
21.500000 113.733970
21.500000 114.173026
21.500000 114.612923
21.500000 115.053659
21.500000 115.495236
21.500000 115.937653
21.500000 116.380911
21.500000 116.825009
21.500000 117.269947
21.500000 117.715725
21.500000 118.162344
21.500000 118.609803
21.500000 119.058103
21.500000 119.507242
21.500000 119.957222
21.500000 120.408042
21.500000 120.859703
21.500000 121.312204
21.500000 121.765545
21.500000 122.219726
21.500000 122.674748
21.500000 123.130610
21.500000 123.587312
21.500000 124.044855
21.500000 124.503238
21.500000 124.962461
21.500000 125.422525
21.500000 125.883428
21.500000 126.345173
21.500000 126.807757
21.500000 127.271182
21.500000 127.735447
21.500000 128.200552
21.500000 128.666498
21.500000 129.133283
21.500000 129.600910
21.500000 130.069376
21.500000 130.538683
21.500000 131.008830
21.500000 131.479818
21.500000 131.951645
21.500000 132.424313
21.500000 132.897821
21.500000 133.372170
21.500000 133.847359
21.500000 134.323388
21.500000 134.800258
21.500000 135.277967
21.500000 135.756518
21.500000 136.235908
21.500000 136.716139
21.500000 137.197210
21.500000 137.679121
21.500000 138.161872
21.500000 138.645464
21.500000 139.129897
21.500000 139.615169
21.500000 140.101282
21.500000 140.588235
21.500000 141.076028
21.500000 141.564662
21.500000 142.054136
21.500000 142.544450
21.500000 143.035605
21.500000 143.527600
21.500000 144.020435
21.500000 144.514110
21.500000 145.008626
21.500000 145.503982
21.500000 146.000178
21.500000 146.497215
21.500000 146.995092
21.500000 147.493809
21.500000 147.993367
21.500000 148.493765
21.500000 148.995003
21.500000 149.497081
21.500000 150.000000
</POINTS>
</NEKTAR>

