<?xml version="1.0" encoding="utf-8" ?>
<NEKTAR>
<POINTS DIM="2" FIELDS="">
78.500000 0.000000
78.500000 0.000418
78.500000 0.001672
78.500000 0.003763
78.500000 0.006689
78.500000 0.010451
78.500000 0.015050
78.500000 0.020485
78.500000 0.026756
78.500000 0.033863
78.500000 0.041806
78.500000 0.050585
78.500000 0.060201
78.500000 0.070652
78.500000 0.081940
78.500000 0.094063
78.500000 0.107023
78.500000 0.120819
78.500000 0.135451
78.500000 0.150919
78.500000 0.167224
78.500000 0.184364
78.500000 0.202341
78.500000 0.221153
78.500000 0.240802
78.500000 0.261287
78.500000 0.282608
78.500000 0.304765
78.500000 0.327758
78.500000 0.351588
78.500000 0.376253
78.500000 0.401755
78.500000 0.428092
78.500000 0.455266
78.500000 0.483276
78.500000 0.512122
78.500000 0.541805
78.500000 0.572323
78.500000 0.603677
78.500000 0.635868
78.500000 0.668894
78.500000 0.702757
78.500000 0.737456
78.500000 0.772991
78.500000 0.809362
78.500000 0.846570
78.500000 0.884613
78.500000 0.923492
78.500000 0.963208
78.500000 1.003760
78.500000 1.045148
78.500000 1.087372
78.500000 1.130432
78.500000 1.174328
78.500000 1.219060
78.500000 1.264629
78.500000 1.311033
78.500000 1.358274
78.500000 1.406351
78.500000 1.455264
78.500000 1.505013
78.500000 1.555598
78.500000 1.607019
78.500000 1.659276
78.500000 1.712370
78.500000 1.766299
78.500000 1.821065
78.500000 1.876667
78.500000 1.933105
78.500000 1.990379
78.500000 2.048489
78.500000 2.107436
78.500000 2.167218
78.500000 2.227837
78.500000 2.289291
78.500000 2.351582
78.500000 2.414709
78.500000 2.478672
78.500000 2.543471
78.500000 2.609106
78.500000 2.675578
78.500000 2.742885
78.500000 2.811029
78.500000 2.880009
78.500000 2.949825
78.500000 3.020477
78.500000 3.091965
78.500000 3.164289
78.500000 3.237449
78.500000 3.311446
78.500000 3.386278
78.500000 3.461947
78.500000 3.538452
78.500000 3.615793
78.500000 3.693970
78.500000 3.772983
78.500000 3.852832
78.500000 3.933517
78.500000 4.015039
78.500000 4.097397
78.500000 4.180590
78.500000 4.264620
78.500000 4.349486
78.500000 4.435188
78.500000 4.521727
78.500000 4.609101
78.500000 4.697311
78.500000 4.786358
78.500000 4.876241
78.500000 4.966959
78.500000 5.058514
78.500000 5.150905
78.500000 5.244133
78.500000 5.338196
78.500000 5.433095
78.500000 5.528831
78.500000 5.625402
78.500000 5.722810
78.500000 5.821054
78.500000 5.920134
78.500000 6.020050
78.500000 6.120802
78.500000 6.222391
78.500000 6.324815
78.500000 6.428076
78.500000 6.532172
78.500000 6.637105
78.500000 6.742874
78.500000 6.849479
78.500000 6.956920
78.500000 7.065198
78.500000 7.174311
78.500000 7.284261
78.500000 7.395046
78.500000 7.506668
78.500000 7.619126
78.500000 7.732420
78.500000 7.846550
78.500000 7.961516
78.500000 8.077319
78.500000 8.193957
78.500000 8.311432
78.500000 8.429742
78.500000 8.548889
78.500000 8.668872
78.500000 8.789691
78.500000 8.911346
78.500000 9.033838
78.500000 9.157165
78.500000 9.281329
78.500000 9.406328
78.500000 9.532164
78.500000 9.658836
78.500000 9.786344
78.500000 9.914688
78.500000 10.043868
78.500000 10.173885
78.500000 10.304737
78.500000 10.436426
78.500000 10.568950
78.500000 10.702311
78.500000 10.836508
78.500000 10.971541
78.500000 11.107411
78.500000 11.244116
78.500000 11.381657
78.500000 11.520035
78.500000 11.659248
78.500000 11.799298
78.500000 11.940184
78.500000 12.081906
78.500000 12.224464
78.500000 12.367859
78.500000 12.512089
78.500000 12.657155
78.500000 12.803058
78.500000 12.949797
78.500000 13.097372
78.500000 13.245782
78.500000 13.395030
78.500000 13.545113
78.500000 13.696032
78.500000 13.847787
78.500000 14.000379
78.500000 14.153807
78.500000 14.308070
78.500000 14.463170
78.500000 14.619106
78.500000 14.775879
78.500000 14.933487
78.500000 15.091931
78.500000 15.251212
78.500000 15.411328
78.500000 15.572281
78.500000 15.734070
78.500000 15.896695
78.500000 16.060156
78.500000 16.224453
78.500000 16.389586
78.500000 16.555556
78.500000 16.722361
78.500000 16.890003
78.500000 17.058481
78.500000 17.227795
78.500000 17.397945
78.500000 17.568931
78.500000 17.740753
78.500000 17.913412
78.500000 18.086906
78.500000 18.261237
78.500000 18.436403
78.500000 18.612406
78.500000 18.789245
78.500000 18.966920
78.500000 19.145432
78.500000 19.324779
78.500000 19.504962
78.500000 19.685982
78.500000 19.867838
78.500000 20.050529
78.500000 20.234057
78.500000 20.418421
78.500000 20.603622
78.500000 20.789658
78.500000 20.976530
78.500000 21.164239
78.500000 21.352783
78.500000 21.542164
78.500000 21.732381
78.500000 21.923434
78.500000 22.115323
78.500000 22.308048
78.500000 22.501610
78.500000 22.696007
78.500000 22.891241
78.500000 23.087310
78.500000 23.284216
78.500000 23.481958
78.500000 23.680536
78.500000 23.879950
78.500000 24.080200
78.500000 24.281287
78.500000 24.483209
78.500000 24.685968
78.500000 24.889563
78.500000 25.093994
78.500000 25.299261
78.500000 25.505364
78.500000 25.712303
78.500000 25.920078
78.500000 26.128690
78.500000 26.338137
78.500000 26.548421
78.500000 26.759541
78.500000 26.971497
78.500000 27.184289
78.500000 27.397917
78.500000 27.612381
78.500000 27.827682
78.500000 28.043818
78.500000 28.260791
78.500000 28.478600
78.500000 28.697244
78.500000 28.916725
78.500000 29.137043
78.500000 29.358196
78.500000 29.580185
78.500000 29.803011
78.500000 30.026672
78.500000 30.251170
78.500000 30.476504
78.500000 30.702674
78.500000 30.929680
78.500000 31.157522
78.500000 31.386200
78.500000 31.615715
78.500000 31.846065
78.500000 32.077252
78.500000 32.309275
78.500000 32.542133
78.500000 32.775828
78.500000 33.010360
78.500000 33.245727
78.500000 33.481930
78.500000 33.718970
78.500000 33.956845
78.500000 34.195557
78.500000 34.435105
78.500000 34.675489
78.500000 34.916709
78.500000 35.158765
78.500000 35.401657
78.500000 35.645386
78.500000 35.889950
78.500000 36.135351
78.500000 36.381588
78.500000 36.628660
78.500000 36.876569
78.500000 37.125315
78.500000 37.374896
78.500000 37.625313
78.500000 37.876567
78.500000 38.128656
78.500000 38.381582
78.500000 38.635344
78.500000 38.889942
78.500000 39.145376
78.500000 39.401646
78.500000 39.658752
78.500000 39.916695
78.500000 40.175473
78.500000 40.435088
78.500000 40.695539
78.500000 40.956826
78.500000 41.218949
78.500000 41.481908
78.500000 41.745703
78.500000 42.010334
78.500000 42.275802
78.500000 42.542106
78.500000 42.809245
78.500000 43.077221
78.500000 43.346033
78.500000 43.615681
78.500000 43.886165
78.500000 44.157486
78.500000 44.429642
78.500000 44.702635
78.500000 44.976463
78.500000 45.251128
78.500000 45.526629
78.500000 45.802966
78.500000 46.080139
78.500000 46.358148
78.500000 46.636994
78.500000 46.916675
78.500000 47.197193
78.500000 47.478547
78.500000 47.760736
78.500000 48.043762
78.500000 48.327625
78.500000 48.612323
78.500000 48.897857
78.500000 49.184227
78.500000 49.471434
78.500000 49.759477
78.500000 50.048355
78.500000 50.338070
78.500000 50.628621
78.500000 50.920009
78.500000 51.212232
78.500000 51.505291
78.500000 51.799187
78.500000 52.093918
78.500000 52.389486
78.500000 52.685890
78.500000 52.983130
78.500000 53.281206
78.500000 53.580118
78.500000 53.879867
78.500000 54.180451
78.500000 54.481872
78.500000 54.784128
78.500000 55.087221
78.500000 55.391150
78.500000 55.695915
78.500000 56.001516
78.500000 56.307953
78.500000 56.615227
78.500000 56.923336
78.500000 57.232282
78.500000 57.542064
78.500000 57.852682
78.500000 58.164136
78.500000 58.476426
78.500000 58.789552
78.500000 59.103514
78.500000 59.418313
78.500000 59.733947
78.500000 60.050418
78.500000 60.367725
78.500000 60.685868
78.500000 61.004847
78.500000 61.324662
78.500000 61.645313
78.500000 61.966801
78.500000 62.289124
78.500000 62.612284
78.500000 62.936279
78.500000 63.261111
78.500000 63.586779
78.500000 63.913283
78.500000 64.240624
78.500000 64.568800
78.500000 64.897812
78.500000 65.227661
78.500000 65.558346
78.500000 65.889867
78.500000 66.222223
78.500000 66.555417
78.500000 66.889446
78.500000 67.224311
78.500000 67.560012
78.500000 67.896550
78.500000 68.233924
78.500000 68.572133
78.500000 68.911179
78.500000 69.251061
78.500000 69.591779
78.500000 69.933334
78.500000 70.275724
78.500000 70.618950
78.500000 70.963013
78.500000 71.307912
78.500000 71.653646
78.500000 72.000217
78.500000 72.347624
78.500000 72.695868
78.500000 73.044947
78.500000 73.394862
78.500000 73.745614
78.500000 74.097202
78.500000 74.449625
78.500000 74.802885
78.500000 75.156981
78.500000 75.511913
78.500000 75.867682
78.500000 76.224286
78.500000 76.581726
78.500000 76.940003
78.500000 77.299116
78.500000 77.659064
78.500000 78.019849
78.500000 78.381471
78.500000 78.743928
78.500000 79.107221
78.500000 79.471350
78.500000 79.836316
78.500000 80.202118
78.500000 80.568755
78.500000 80.936229
78.500000 81.304539
78.500000 81.673685
78.500000 82.043668
78.500000 82.414486
78.500000 82.786141
78.500000 83.158631
78.500000 83.531958
78.500000 83.906121
78.500000 84.281120
78.500000 84.656955
78.500000 85.033626
78.500000 85.411133
78.500000 85.789477
78.500000 86.168656
78.500000 86.548672
78.500000 86.929524
78.500000 87.311212
78.500000 87.693736
78.500000 88.077096
78.500000 88.461292
78.500000 88.846324
78.500000 89.232193
78.500000 89.618897
78.500000 90.006438
78.500000 90.394815
78.500000 90.784028
78.500000 91.174077
78.500000 91.564962
78.500000 91.956684
78.500000 92.349241
78.500000 92.742634
78.500000 93.136864
78.500000 93.531930
78.500000 93.927832
78.500000 94.324570
78.500000 94.722144
78.500000 95.120554
78.500000 95.519801
78.500000 95.919883
78.500000 96.320802
78.500000 96.722557
78.500000 97.125147
78.500000 97.528574
78.500000 97.932837
78.500000 98.337937
78.500000 98.743872
78.500000 99.150643
78.500000 99.558251
78.500000 99.966695
78.500000 100.375974
78.500000 100.786090
78.500000 101.197042
78.500000 101.608831
78.500000 102.021455
78.500000 102.434915
78.500000 102.849212
78.500000 103.264344
78.500000 103.680313
78.500000 104.097118
78.500000 104.514759
78.500000 104.933236
78.500000 105.352549
78.500000 105.772699
78.500000 106.193684
78.500000 106.615506
78.500000 107.038163
78.500000 107.461657
78.500000 107.885987
78.500000 108.311153
78.500000 108.737155
78.500000 109.163993
78.500000 109.591668
78.500000 110.020178
78.500000 110.449525
78.500000 110.879708
78.500000 111.310727
78.500000 111.742582
78.500000 112.175273
78.500000 112.608800
78.500000 113.043163
78.500000 113.478363
78.500000 113.914398
78.500000 114.351270
78.500000 114.788978
78.500000 115.227522
78.500000 115.666902
78.500000 116.107118
78.500000 116.548170
78.500000 116.990059
78.500000 117.432783
78.500000 117.876344
78.500000 118.320740
78.500000 118.765973
78.500000 119.212042
78.500000 119.658947
78.500000 120.106689
78.500000 120.555266
78.500000 121.004679
78.500000 121.454929
78.500000 121.906015
78.500000 122.357937
78.500000 122.810695
78.500000 123.264289
78.500000 123.718719
78.500000 124.173985
78.500000 124.630087
78.500000 125.087026
78.500000 125.544801
78.500000 126.003411
78.500000 126.462858
78.500000 126.923141
78.500000 127.384260
78.500000 127.846216
78.500000 128.309007
78.500000 128.772634
78.500000 129.237098
78.500000 129.702398
78.500000 130.168534
78.500000 130.635505
78.500000 131.103314
78.500000 131.571958
78.500000 132.041438
78.500000 132.511754
78.500000 132.982907
78.500000 133.454896
78.500000 133.927720
78.500000 134.401381
78.500000 134.875878
78.500000 135.351211
78.500000 135.827381
78.500000 136.304386
78.500000 136.782227
78.500000 137.260905
78.500000 137.740419
78.500000 138.220769
78.500000 138.701955
78.500000 139.183977
78.500000 139.666835
78.500000 140.150529
78.500000 140.635060
78.500000 141.120426
78.500000 141.606629
78.500000 142.093668
78.500000 142.581542
78.500000 143.070253
78.500000 143.559801
78.500000 144.050184
78.500000 144.541403
78.500000 145.033459
78.500000 145.526350
78.500000 146.020078
78.500000 146.514642
78.500000 147.010042
78.500000 147.506278
78.500000 148.003350
78.500000 148.501258
78.500000 149.000003
78.500000 149.499583
78.500000 150.000000
</POINTS>
</NEKTAR>

