<?xml version="1.0" encoding="utf-8" ?>
<NEKTAR>
<POINTS DIM="2" FIELDS="">
24.500000 -0.750000
24.500000 -0.749580
24.500000 -0.748319
24.500000 -0.746219
24.500000 -0.743278
24.500000 -0.739496
24.500000 -0.734875
24.500000 -0.729413
24.500000 -0.723110
24.500000 -0.715968
24.500000 -0.707985
24.500000 -0.699162
24.500000 -0.689498
24.500000 -0.678995
24.500000 -0.667651
24.500000 -0.655466
24.500000 -0.642442
24.500000 -0.628577
24.500000 -0.613872
24.500000 -0.598326
24.500000 -0.581940
24.500000 -0.564714
24.500000 -0.546648
24.500000 -0.527741
24.500000 -0.507994
24.500000 -0.487407
24.500000 -0.465979
24.500000 -0.443711
24.500000 -0.420603
24.500000 -0.396654
24.500000 -0.371866
24.500000 -0.346236
24.500000 -0.319767
24.500000 -0.292457
24.500000 -0.264307
24.500000 -0.235317
24.500000 -0.205486
24.500000 -0.174816
24.500000 -0.143304
24.500000 -0.110953
24.500000 -0.077761
24.500000 -0.043729
24.500000 -0.008857
24.500000 0.026856
24.500000 0.063409
24.500000 0.100802
24.500000 0.139036
24.500000 0.178110
24.500000 0.218024
24.500000 0.258779
24.500000 0.300373
24.500000 0.342808
24.500000 0.386084
24.500000 0.430199
24.500000 0.475155
24.500000 0.520952
24.500000 0.567588
24.500000 0.615065
24.500000 0.663382
24.500000 0.712540
24.500000 0.762538
24.500000 0.813376
24.500000 0.865054
24.500000 0.917573
24.500000 0.970932
24.500000 1.025131
24.500000 1.080170
24.500000 1.136050
24.500000 1.192771
24.500000 1.250331
24.500000 1.308732
24.500000 1.367973
24.500000 1.428054
24.500000 1.488976
24.500000 1.550738
24.500000 1.613340
24.500000 1.676783
24.500000 1.741065
24.500000 1.806189
24.500000 1.872152
24.500000 1.938956
24.500000 2.006600
24.500000 2.075084
24.500000 2.144409
24.500000 2.214574
24.500000 2.285579
24.500000 2.357424
24.500000 2.430110
24.500000 2.503636
24.500000 2.578003
24.500000 2.653210
24.500000 2.729257
24.500000 2.806144
24.500000 2.883872
24.500000 2.962439
24.500000 3.041848
24.500000 3.122096
24.500000 3.203185
24.500000 3.285114
24.500000 3.367884
24.500000 3.451493
24.500000 3.535943
24.500000 3.621234
24.500000 3.707364
24.500000 3.794335
24.500000 3.882146
24.500000 3.970798
24.500000 4.060290
24.500000 4.150622
24.500000 4.241794
24.500000 4.333807
24.500000 4.426660
24.500000 4.520353
24.500000 4.614887
24.500000 4.710261
24.500000 4.806475
24.500000 4.903529
24.500000 5.001424
24.500000 5.100159
24.500000 5.199735
24.500000 5.300150
24.500000 5.401406
24.500000 5.503503
24.500000 5.606439
24.500000 5.710216
24.500000 5.814833
24.500000 5.920291
24.500000 6.026589
24.500000 6.133727
24.500000 6.241705
24.500000 6.350524
24.500000 6.460183
24.500000 6.570682
24.500000 6.682022
24.500000 6.794201
24.500000 6.907222
24.500000 7.021082
24.500000 7.135783
24.500000 7.251324
24.500000 7.367705
24.500000 7.484927
24.500000 7.602989
24.500000 7.721891
24.500000 7.841634
24.500000 7.962217
24.500000 8.083640
24.500000 8.205903
24.500000 8.329007
24.500000 8.452951
24.500000 8.577735
24.500000 8.703360
24.500000 8.829825
24.500000 8.957130
24.500000 9.085276
24.500000 9.214262
24.500000 9.344088
24.500000 9.474754
24.500000 9.606261
24.500000 9.738608
24.500000 9.871795
24.500000 10.005823
24.500000 10.140691
24.500000 10.276399
24.500000 10.412948
24.500000 10.550336
24.500000 10.688566
24.500000 10.827635
24.500000 10.967545
24.500000 11.108295
24.500000 11.249885
24.500000 11.392316
24.500000 11.535587
24.500000 11.679698
24.500000 11.824649
24.500000 11.970441
24.500000 12.117073
24.500000 12.264546
24.500000 12.412858
24.500000 12.562011
24.500000 12.712005
24.500000 12.862838
24.500000 13.014512
24.500000 13.167026
24.500000 13.320381
24.500000 13.474576
24.500000 13.629611
24.500000 13.785486
24.500000 13.942202
24.500000 14.099758
24.500000 14.258154
24.500000 14.417391
24.500000 14.577468
24.500000 14.738385
24.500000 14.900142
24.500000 15.062740
24.500000 15.226178
24.500000 15.390457
24.500000 15.555575
24.500000 15.721534
24.500000 15.888334
24.500000 16.055973
24.500000 16.224453
24.500000 16.393773
24.500000 16.563934
24.500000 16.734935
24.500000 16.906776
24.500000 17.079457
24.500000 17.252979
24.500000 17.427341
24.500000 17.602543
24.500000 17.778585
24.500000 17.955468
24.500000 18.133192
24.500000 18.311755
24.500000 18.491159
24.500000 18.671403
24.500000 18.852487
24.500000 19.034412
24.500000 19.217177
24.500000 19.400782
24.500000 19.585228
24.500000 19.770513
24.500000 19.956640
24.500000 20.143606
24.500000 20.331413
24.500000 20.520060
24.500000 20.709547
24.500000 20.899875
24.500000 21.091043
24.500000 21.283051
24.500000 21.475900
24.500000 21.669588
24.500000 21.864118
24.500000 22.059487
24.500000 22.255697
24.500000 22.452747
24.500000 22.650637
24.500000 22.849368
24.500000 23.048939
24.500000 23.249350
24.500000 23.450601
24.500000 23.652693
24.500000 23.855625
24.500000 24.059398
24.500000 24.264011
24.500000 24.469464
24.500000 24.675757
24.500000 24.882891
24.500000 25.090864
24.500000 25.299679
24.500000 25.509333
24.500000 25.719828
24.500000 25.931163
24.500000 26.143339
24.500000 26.356354
24.500000 26.570210
24.500000 26.784907
24.500000 27.000443
24.500000 27.216820
24.500000 27.434037
24.500000 27.652095
24.500000 27.870993
24.500000 28.090731
24.500000 28.311309
24.500000 28.532728
24.500000 28.754987
24.500000 28.978086
24.500000 29.202026
24.500000 29.426806
24.500000 29.652426
24.500000 29.878886
24.500000 30.106187
24.500000 30.334328
24.500000 30.563309
24.500000 30.793131
24.500000 31.023793
24.500000 31.255295
24.500000 31.487638
24.500000 31.720821
24.500000 31.954844
24.500000 32.189708
24.500000 32.425411
24.500000 32.661955
24.500000 32.899340
24.500000 33.137564
24.500000 33.376629
24.500000 33.616535
24.500000 33.857280
24.500000 34.098866
24.500000 34.341292
24.500000 34.584559
24.500000 34.828665
24.500000 35.073613
24.500000 35.319400
24.500000 35.566028
24.500000 35.813496
24.500000 36.061804
24.500000 36.310952
24.500000 36.560941
24.500000 36.811770
24.500000 37.063440
24.500000 37.315950
24.500000 37.569300
24.500000 37.823490
24.500000 38.078521
24.500000 38.334391
24.500000 38.591103
24.500000 38.848654
24.500000 39.107046
24.500000 39.366278
24.500000 39.626351
24.500000 39.887263
24.500000 40.149016
24.500000 40.411610
24.500000 40.675043
24.500000 40.939317
24.500000 41.204432
24.500000 41.470386
24.500000 41.737181
24.500000 42.004816
24.500000 42.273291
24.500000 42.542607
24.500000 42.812763
24.500000 43.083760
24.500000 43.355596
24.500000 43.628273
24.500000 43.901790
24.500000 44.176148
24.500000 44.451346
24.500000 44.727384
24.500000 45.004262
24.500000 45.281981
24.500000 45.560540
24.500000 45.839939
24.500000 46.120179
24.500000 46.401259
24.500000 46.683179
24.500000 46.965939
24.500000 47.249540
24.500000 47.533981
24.500000 47.819263
24.500000 48.105384
24.500000 48.392346
24.500000 48.680149
24.500000 48.968791
24.500000 49.258274
24.500000 49.548597
24.500000 49.839761
24.500000 50.131765
24.500000 50.424609
24.500000 50.718293
24.500000 51.012818
24.500000 51.308183
24.500000 51.604388
24.500000 51.901434
24.500000 52.199319
24.500000 52.498046
24.500000 52.797612
24.500000 53.098019
24.500000 53.399266
24.500000 53.701353
24.500000 54.004281
24.500000 54.308049
24.500000 54.612657
24.500000 54.918106
24.500000 55.224395
24.500000 55.531524
24.500000 55.839493
24.500000 56.148303
24.500000 56.457953
24.500000 56.768443
24.500000 57.079774
24.500000 57.391945
24.500000 57.704956
24.500000 58.018808
24.500000 58.333500
24.500000 58.649032
24.500000 58.965404
24.500000 59.282617
24.500000 59.600670
24.500000 59.919563
24.500000 60.239297
24.500000 60.559871
24.500000 60.881285
24.500000 61.203540
24.500000 61.526635
24.500000 61.850570
24.500000 62.175345
24.500000 62.500961
24.500000 62.827417
24.500000 63.154713
24.500000 63.482850
24.500000 63.811827
24.500000 64.141644
24.500000 64.472301
24.500000 64.803799
24.500000 65.136137
24.500000 65.469316
24.500000 65.803335
24.500000 66.138194
24.500000 66.473893
24.500000 66.810433
24.500000 67.147812
24.500000 67.486033
24.500000 67.825093
24.500000 68.164994
24.500000 68.505735
24.500000 68.847316
24.500000 69.189738
24.500000 69.533000
24.500000 69.877102
24.500000 70.222045
24.500000 70.567828
24.500000 70.914451
24.500000 71.261915
24.500000 71.610218
24.500000 71.959363
24.500000 72.309347
24.500000 72.660172
24.500000 73.011837
24.500000 73.364342
24.500000 73.717688
24.500000 74.071873
24.500000 74.426900
24.500000 74.782766
24.500000 75.139473
24.500000 75.497020
24.500000 75.855407
24.500000 76.214635
24.500000 76.574703
24.500000 76.935611
24.500000 77.297360
24.500000 77.659949
24.500000 78.023378
24.500000 78.387647
24.500000 78.752757
24.500000 79.118707
24.500000 79.485498
24.500000 79.853128
24.500000 80.221599
24.500000 80.590910
24.500000 80.961062
24.500000 81.332054
24.500000 81.703886
24.500000 82.076558
24.500000 82.450071
24.500000 82.824424
24.500000 83.199618
24.500000 83.575651
24.500000 83.952525
24.500000 84.330239
24.500000 84.708794
24.500000 85.088189
24.500000 85.468424
24.500000 85.849499
24.500000 86.231415
24.500000 86.614171
24.500000 86.997768
24.500000 87.382204
24.500000 87.767481
24.500000 88.153598
24.500000 88.540556
24.500000 88.928354
24.500000 89.316992
24.500000 89.706470
24.500000 90.096789
24.500000 90.487948
24.500000 90.879947
24.500000 91.272787
24.500000 91.666467
24.500000 92.060987
24.500000 92.456348
24.500000 92.852548
24.500000 93.249590
24.500000 93.647471
24.500000 94.046193
24.500000 94.445755
24.500000 94.846157
24.500000 95.247400
24.500000 95.649483
24.500000 96.052406
24.500000 96.456169
24.500000 96.860773
24.500000 97.266217
24.500000 97.672502
24.500000 98.079626
24.500000 98.487591
24.500000 98.896397
24.500000 99.306042
24.500000 99.716528
24.500000 100.127854
24.500000 100.540021
24.500000 100.953028
24.500000 101.366875
24.500000 101.781562
24.500000 102.197090
24.500000 102.613458
24.500000 103.030666
24.500000 103.448715
24.500000 103.867603
24.500000 104.287333
24.500000 104.707902
24.500000 105.129312
24.500000 105.551562
24.500000 105.974652
24.500000 106.398583
24.500000 106.823354
24.500000 107.248965
24.500000 107.675417
24.500000 108.102709
24.500000 108.530841
24.500000 108.959813
24.500000 109.389626
24.500000 109.820279
24.500000 110.251773
24.500000 110.684106
24.500000 111.117280
24.500000 111.551294
24.500000 111.986149
24.500000 112.421844
24.500000 112.858379
24.500000 113.295754
24.500000 113.733970
24.500000 114.173026
24.500000 114.612923
24.500000 115.053659
24.500000 115.495236
24.500000 115.937653
24.500000 116.380911
24.500000 116.825009
24.500000 117.269947
24.500000 117.715725
24.500000 118.162344
24.500000 118.609803
24.500000 119.058103
24.500000 119.507242
24.500000 119.957222
24.500000 120.408042
24.500000 120.859703
24.500000 121.312204
24.500000 121.765545
24.500000 122.219726
24.500000 122.674748
24.500000 123.130610
24.500000 123.587312
24.500000 124.044855
24.500000 124.503238
24.500000 124.962461
24.500000 125.422525
24.500000 125.883428
24.500000 126.345173
24.500000 126.807757
24.500000 127.271182
24.500000 127.735447
24.500000 128.200552
24.500000 128.666498
24.500000 129.133283
24.500000 129.600910
24.500000 130.069376
24.500000 130.538683
24.500000 131.008830
24.500000 131.479818
24.500000 131.951645
24.500000 132.424313
24.500000 132.897821
24.500000 133.372170
24.500000 133.847359
24.500000 134.323388
24.500000 134.800258
24.500000 135.277967
24.500000 135.756518
24.500000 136.235908
24.500000 136.716139
24.500000 137.197210
24.500000 137.679121
24.500000 138.161872
24.500000 138.645464
24.500000 139.129897
24.500000 139.615169
24.500000 140.101282
24.500000 140.588235
24.500000 141.076028
24.500000 141.564662
24.500000 142.054136
24.500000 142.544450
24.500000 143.035605
24.500000 143.527600
24.500000 144.020435
24.500000 144.514110
24.500000 145.008626
24.500000 145.503982
24.500000 146.000178
24.500000 146.497215
24.500000 146.995092
24.500000 147.493809
24.500000 147.993367
24.500000 148.493765
24.500000 148.995003
24.500000 149.497081
24.500000 150.000000
</POINTS>
</NEKTAR>

