<?xml version="1.0" encoding="utf-8" ?>
<NEKTAR>
<POINTS DIM="2" FIELDS="">
10.500000 -0.750000
10.500000 -0.749580
10.500000 -0.748319
10.500000 -0.746219
10.500000 -0.743278
10.500000 -0.739496
10.500000 -0.734875
10.500000 -0.729413
10.500000 -0.723110
10.500000 -0.715968
10.500000 -0.707985
10.500000 -0.699162
10.500000 -0.689498
10.500000 -0.678995
10.500000 -0.667651
10.500000 -0.655466
10.500000 -0.642442
10.500000 -0.628577
10.500000 -0.613872
10.500000 -0.598326
10.500000 -0.581940
10.500000 -0.564714
10.500000 -0.546648
10.500000 -0.527741
10.500000 -0.507994
10.500000 -0.487407
10.500000 -0.465979
10.500000 -0.443711
10.500000 -0.420603
10.500000 -0.396654
10.500000 -0.371866
10.500000 -0.346236
10.500000 -0.319767
10.500000 -0.292457
10.500000 -0.264307
10.500000 -0.235317
10.500000 -0.205486
10.500000 -0.174816
10.500000 -0.143304
10.500000 -0.110953
10.500000 -0.077761
10.500000 -0.043729
10.500000 -0.008857
10.500000 0.026856
10.500000 0.063409
10.500000 0.100802
10.500000 0.139036
10.500000 0.178110
10.500000 0.218024
10.500000 0.258779
10.500000 0.300373
10.500000 0.342808
10.500000 0.386084
10.500000 0.430199
10.500000 0.475155
10.500000 0.520952
10.500000 0.567588
10.500000 0.615065
10.500000 0.663382
10.500000 0.712540
10.500000 0.762538
10.500000 0.813376
10.500000 0.865054
10.500000 0.917573
10.500000 0.970932
10.500000 1.025131
10.500000 1.080170
10.500000 1.136050
10.500000 1.192771
10.500000 1.250331
10.500000 1.308732
10.500000 1.367973
10.500000 1.428054
10.500000 1.488976
10.500000 1.550738
10.500000 1.613340
10.500000 1.676783
10.500000 1.741065
10.500000 1.806189
10.500000 1.872152
10.500000 1.938956
10.500000 2.006600
10.500000 2.075084
10.500000 2.144409
10.500000 2.214574
10.500000 2.285579
10.500000 2.357424
10.500000 2.430110
10.500000 2.503636
10.500000 2.578003
10.500000 2.653210
10.500000 2.729257
10.500000 2.806144
10.500000 2.883872
10.500000 2.962439
10.500000 3.041848
10.500000 3.122096
10.500000 3.203185
10.500000 3.285114
10.500000 3.367884
10.500000 3.451493
10.500000 3.535943
10.500000 3.621234
10.500000 3.707364
10.500000 3.794335
10.500000 3.882146
10.500000 3.970798
10.500000 4.060290
10.500000 4.150622
10.500000 4.241794
10.500000 4.333807
10.500000 4.426660
10.500000 4.520353
10.500000 4.614887
10.500000 4.710261
10.500000 4.806475
10.500000 4.903529
10.500000 5.001424
10.500000 5.100159
10.500000 5.199735
10.500000 5.300150
10.500000 5.401406
10.500000 5.503503
10.500000 5.606439
10.500000 5.710216
10.500000 5.814833
10.500000 5.920291
10.500000 6.026589
10.500000 6.133727
10.500000 6.241705
10.500000 6.350524
10.500000 6.460183
10.500000 6.570682
10.500000 6.682022
10.500000 6.794201
10.500000 6.907222
10.500000 7.021082
10.500000 7.135783
10.500000 7.251324
10.500000 7.367705
10.500000 7.484927
10.500000 7.602989
10.500000 7.721891
10.500000 7.841634
10.500000 7.962217
10.500000 8.083640
10.500000 8.205903
10.500000 8.329007
10.500000 8.452951
10.500000 8.577735
10.500000 8.703360
10.500000 8.829825
10.500000 8.957130
10.500000 9.085276
10.500000 9.214262
10.500000 9.344088
10.500000 9.474754
10.500000 9.606261
10.500000 9.738608
10.500000 9.871795
10.500000 10.005823
10.500000 10.140691
10.500000 10.276399
10.500000 10.412948
10.500000 10.550336
10.500000 10.688566
10.500000 10.827635
10.500000 10.967545
10.500000 11.108295
10.500000 11.249885
10.500000 11.392316
10.500000 11.535587
10.500000 11.679698
10.500000 11.824649
10.500000 11.970441
10.500000 12.117073
10.500000 12.264546
10.500000 12.412858
10.500000 12.562011
10.500000 12.712005
10.500000 12.862838
10.500000 13.014512
10.500000 13.167026
10.500000 13.320381
10.500000 13.474576
10.500000 13.629611
10.500000 13.785486
10.500000 13.942202
10.500000 14.099758
10.500000 14.258154
10.500000 14.417391
10.500000 14.577468
10.500000 14.738385
10.500000 14.900142
10.500000 15.062740
10.500000 15.226178
10.500000 15.390457
10.500000 15.555575
10.500000 15.721534
10.500000 15.888334
10.500000 16.055973
10.500000 16.224453
10.500000 16.393773
10.500000 16.563934
10.500000 16.734935
10.500000 16.906776
10.500000 17.079457
10.500000 17.252979
10.500000 17.427341
10.500000 17.602543
10.500000 17.778585
10.500000 17.955468
10.500000 18.133192
10.500000 18.311755
10.500000 18.491159
10.500000 18.671403
10.500000 18.852487
10.500000 19.034412
10.500000 19.217177
10.500000 19.400782
10.500000 19.585228
10.500000 19.770513
10.500000 19.956640
10.500000 20.143606
10.500000 20.331413
10.500000 20.520060
10.500000 20.709547
10.500000 20.899875
10.500000 21.091043
10.500000 21.283051
10.500000 21.475900
10.500000 21.669588
10.500000 21.864118
10.500000 22.059487
10.500000 22.255697
10.500000 22.452747
10.500000 22.650637
10.500000 22.849368
10.500000 23.048939
10.500000 23.249350
10.500000 23.450601
10.500000 23.652693
10.500000 23.855625
10.500000 24.059398
10.500000 24.264011
10.500000 24.469464
10.500000 24.675757
10.500000 24.882891
10.500000 25.090864
10.500000 25.299679
10.500000 25.509333
10.500000 25.719828
10.500000 25.931163
10.500000 26.143339
10.500000 26.356354
10.500000 26.570210
10.500000 26.784907
10.500000 27.000443
10.500000 27.216820
10.500000 27.434037
10.500000 27.652095
10.500000 27.870993
10.500000 28.090731
10.500000 28.311309
10.500000 28.532728
10.500000 28.754987
10.500000 28.978086
10.500000 29.202026
10.500000 29.426806
10.500000 29.652426
10.500000 29.878886
10.500000 30.106187
10.500000 30.334328
10.500000 30.563309
10.500000 30.793131
10.500000 31.023793
10.500000 31.255295
10.500000 31.487638
10.500000 31.720821
10.500000 31.954844
10.500000 32.189708
10.500000 32.425411
10.500000 32.661955
10.500000 32.899340
10.500000 33.137564
10.500000 33.376629
10.500000 33.616535
10.500000 33.857280
10.500000 34.098866
10.500000 34.341292
10.500000 34.584559
10.500000 34.828665
10.500000 35.073613
10.500000 35.319400
10.500000 35.566028
10.500000 35.813496
10.500000 36.061804
10.500000 36.310952
10.500000 36.560941
10.500000 36.811770
10.500000 37.063440
10.500000 37.315950
10.500000 37.569300
10.500000 37.823490
10.500000 38.078521
10.500000 38.334391
10.500000 38.591103
10.500000 38.848654
10.500000 39.107046
10.500000 39.366278
10.500000 39.626351
10.500000 39.887263
10.500000 40.149016
10.500000 40.411610
10.500000 40.675043
10.500000 40.939317
10.500000 41.204432
10.500000 41.470386
10.500000 41.737181
10.500000 42.004816
10.500000 42.273291
10.500000 42.542607
10.500000 42.812763
10.500000 43.083760
10.500000 43.355596
10.500000 43.628273
10.500000 43.901790
10.500000 44.176148
10.500000 44.451346
10.500000 44.727384
10.500000 45.004262
10.500000 45.281981
10.500000 45.560540
10.500000 45.839939
10.500000 46.120179
10.500000 46.401259
10.500000 46.683179
10.500000 46.965939
10.500000 47.249540
10.500000 47.533981
10.500000 47.819263
10.500000 48.105384
10.500000 48.392346
10.500000 48.680149
10.500000 48.968791
10.500000 49.258274
10.500000 49.548597
10.500000 49.839761
10.500000 50.131765
10.500000 50.424609
10.500000 50.718293
10.500000 51.012818
10.500000 51.308183
10.500000 51.604388
10.500000 51.901434
10.500000 52.199319
10.500000 52.498046
10.500000 52.797612
10.500000 53.098019
10.500000 53.399266
10.500000 53.701353
10.500000 54.004281
10.500000 54.308049
10.500000 54.612657
10.500000 54.918106
10.500000 55.224395
10.500000 55.531524
10.500000 55.839493
10.500000 56.148303
10.500000 56.457953
10.500000 56.768443
10.500000 57.079774
10.500000 57.391945
10.500000 57.704956
10.500000 58.018808
10.500000 58.333500
10.500000 58.649032
10.500000 58.965404
10.500000 59.282617
10.500000 59.600670
10.500000 59.919563
10.500000 60.239297
10.500000 60.559871
10.500000 60.881285
10.500000 61.203540
10.500000 61.526635
10.500000 61.850570
10.500000 62.175345
10.500000 62.500961
10.500000 62.827417
10.500000 63.154713
10.500000 63.482850
10.500000 63.811827
10.500000 64.141644
10.500000 64.472301
10.500000 64.803799
10.500000 65.136137
10.500000 65.469316
10.500000 65.803335
10.500000 66.138194
10.500000 66.473893
10.500000 66.810433
10.500000 67.147812
10.500000 67.486033
10.500000 67.825093
10.500000 68.164994
10.500000 68.505735
10.500000 68.847316
10.500000 69.189738
10.500000 69.533000
10.500000 69.877102
10.500000 70.222045
10.500000 70.567828
10.500000 70.914451
10.500000 71.261915
10.500000 71.610218
10.500000 71.959363
10.500000 72.309347
10.500000 72.660172
10.500000 73.011837
10.500000 73.364342
10.500000 73.717688
10.500000 74.071873
10.500000 74.426900
10.500000 74.782766
10.500000 75.139473
10.500000 75.497020
10.500000 75.855407
10.500000 76.214635
10.500000 76.574703
10.500000 76.935611
10.500000 77.297360
10.500000 77.659949
10.500000 78.023378
10.500000 78.387647
10.500000 78.752757
10.500000 79.118707
10.500000 79.485498
10.500000 79.853128
10.500000 80.221599
10.500000 80.590910
10.500000 80.961062
10.500000 81.332054
10.500000 81.703886
10.500000 82.076558
10.500000 82.450071
10.500000 82.824424
10.500000 83.199618
10.500000 83.575651
10.500000 83.952525
10.500000 84.330239
10.500000 84.708794
10.500000 85.088189
10.500000 85.468424
10.500000 85.849499
10.500000 86.231415
10.500000 86.614171
10.500000 86.997768
10.500000 87.382204
10.500000 87.767481
10.500000 88.153598
10.500000 88.540556
10.500000 88.928354
10.500000 89.316992
10.500000 89.706470
10.500000 90.096789
10.500000 90.487948
10.500000 90.879947
10.500000 91.272787
10.500000 91.666467
10.500000 92.060987
10.500000 92.456348
10.500000 92.852548
10.500000 93.249590
10.500000 93.647471
10.500000 94.046193
10.500000 94.445755
10.500000 94.846157
10.500000 95.247400
10.500000 95.649483
10.500000 96.052406
10.500000 96.456169
10.500000 96.860773
10.500000 97.266217
10.500000 97.672502
10.500000 98.079626
10.500000 98.487591
10.500000 98.896397
10.500000 99.306042
10.500000 99.716528
10.500000 100.127854
10.500000 100.540021
10.500000 100.953028
10.500000 101.366875
10.500000 101.781562
10.500000 102.197090
10.500000 102.613458
10.500000 103.030666
10.500000 103.448715
10.500000 103.867603
10.500000 104.287333
10.500000 104.707902
10.500000 105.129312
10.500000 105.551562
10.500000 105.974652
10.500000 106.398583
10.500000 106.823354
10.500000 107.248965
10.500000 107.675417
10.500000 108.102709
10.500000 108.530841
10.500000 108.959813
10.500000 109.389626
10.500000 109.820279
10.500000 110.251773
10.500000 110.684106
10.500000 111.117280
10.500000 111.551294
10.500000 111.986149
10.500000 112.421844
10.500000 112.858379
10.500000 113.295754
10.500000 113.733970
10.500000 114.173026
10.500000 114.612923
10.500000 115.053659
10.500000 115.495236
10.500000 115.937653
10.500000 116.380911
10.500000 116.825009
10.500000 117.269947
10.500000 117.715725
10.500000 118.162344
10.500000 118.609803
10.500000 119.058103
10.500000 119.507242
10.500000 119.957222
10.500000 120.408042
10.500000 120.859703
10.500000 121.312204
10.500000 121.765545
10.500000 122.219726
10.500000 122.674748
10.500000 123.130610
10.500000 123.587312
10.500000 124.044855
10.500000 124.503238
10.500000 124.962461
10.500000 125.422525
10.500000 125.883428
10.500000 126.345173
10.500000 126.807757
10.500000 127.271182
10.500000 127.735447
10.500000 128.200552
10.500000 128.666498
10.500000 129.133283
10.500000 129.600910
10.500000 130.069376
10.500000 130.538683
10.500000 131.008830
10.500000 131.479818
10.500000 131.951645
10.500000 132.424313
10.500000 132.897821
10.500000 133.372170
10.500000 133.847359
10.500000 134.323388
10.500000 134.800258
10.500000 135.277967
10.500000 135.756518
10.500000 136.235908
10.500000 136.716139
10.500000 137.197210
10.500000 137.679121
10.500000 138.161872
10.500000 138.645464
10.500000 139.129897
10.500000 139.615169
10.500000 140.101282
10.500000 140.588235
10.500000 141.076028
10.500000 141.564662
10.500000 142.054136
10.500000 142.544450
10.500000 143.035605
10.500000 143.527600
10.500000 144.020435
10.500000 144.514110
10.500000 145.008626
10.500000 145.503982
10.500000 146.000178
10.500000 146.497215
10.500000 146.995092
10.500000 147.493809
10.500000 147.993367
10.500000 148.493765
10.500000 148.995003
10.500000 149.497081
10.500000 150.000000
</POINTS>
</NEKTAR>

