<?xml version="1.0" encoding="utf-8" ?>
<NEKTAR>
<POINTS DIM="2" FIELDS="">
27.500000 -0.750000
27.500000 -0.749580
27.500000 -0.748319
27.500000 -0.746219
27.500000 -0.743278
27.500000 -0.739496
27.500000 -0.734875
27.500000 -0.729413
27.500000 -0.723110
27.500000 -0.715968
27.500000 -0.707985
27.500000 -0.699162
27.500000 -0.689498
27.500000 -0.678995
27.500000 -0.667651
27.500000 -0.655466
27.500000 -0.642442
27.500000 -0.628577
27.500000 -0.613872
27.500000 -0.598326
27.500000 -0.581940
27.500000 -0.564714
27.500000 -0.546648
27.500000 -0.527741
27.500000 -0.507994
27.500000 -0.487407
27.500000 -0.465979
27.500000 -0.443711
27.500000 -0.420603
27.500000 -0.396654
27.500000 -0.371866
27.500000 -0.346236
27.500000 -0.319767
27.500000 -0.292457
27.500000 -0.264307
27.500000 -0.235317
27.500000 -0.205486
27.500000 -0.174816
27.500000 -0.143304
27.500000 -0.110953
27.500000 -0.077761
27.500000 -0.043729
27.500000 -0.008857
27.500000 0.026856
27.500000 0.063409
27.500000 0.100802
27.500000 0.139036
27.500000 0.178110
27.500000 0.218024
27.500000 0.258779
27.500000 0.300373
27.500000 0.342808
27.500000 0.386084
27.500000 0.430199
27.500000 0.475155
27.500000 0.520952
27.500000 0.567588
27.500000 0.615065
27.500000 0.663382
27.500000 0.712540
27.500000 0.762538
27.500000 0.813376
27.500000 0.865054
27.500000 0.917573
27.500000 0.970932
27.500000 1.025131
27.500000 1.080170
27.500000 1.136050
27.500000 1.192771
27.500000 1.250331
27.500000 1.308732
27.500000 1.367973
27.500000 1.428054
27.500000 1.488976
27.500000 1.550738
27.500000 1.613340
27.500000 1.676783
27.500000 1.741065
27.500000 1.806189
27.500000 1.872152
27.500000 1.938956
27.500000 2.006600
27.500000 2.075084
27.500000 2.144409
27.500000 2.214574
27.500000 2.285579
27.500000 2.357424
27.500000 2.430110
27.500000 2.503636
27.500000 2.578003
27.500000 2.653210
27.500000 2.729257
27.500000 2.806144
27.500000 2.883872
27.500000 2.962439
27.500000 3.041848
27.500000 3.122096
27.500000 3.203185
27.500000 3.285114
27.500000 3.367884
27.500000 3.451493
27.500000 3.535943
27.500000 3.621234
27.500000 3.707364
27.500000 3.794335
27.500000 3.882146
27.500000 3.970798
27.500000 4.060290
27.500000 4.150622
27.500000 4.241794
27.500000 4.333807
27.500000 4.426660
27.500000 4.520353
27.500000 4.614887
27.500000 4.710261
27.500000 4.806475
27.500000 4.903529
27.500000 5.001424
27.500000 5.100159
27.500000 5.199735
27.500000 5.300150
27.500000 5.401406
27.500000 5.503503
27.500000 5.606439
27.500000 5.710216
27.500000 5.814833
27.500000 5.920291
27.500000 6.026589
27.500000 6.133727
27.500000 6.241705
27.500000 6.350524
27.500000 6.460183
27.500000 6.570682
27.500000 6.682022
27.500000 6.794201
27.500000 6.907222
27.500000 7.021082
27.500000 7.135783
27.500000 7.251324
27.500000 7.367705
27.500000 7.484927
27.500000 7.602989
27.500000 7.721891
27.500000 7.841634
27.500000 7.962217
27.500000 8.083640
27.500000 8.205903
27.500000 8.329007
27.500000 8.452951
27.500000 8.577735
27.500000 8.703360
27.500000 8.829825
27.500000 8.957130
27.500000 9.085276
27.500000 9.214262
27.500000 9.344088
27.500000 9.474754
27.500000 9.606261
27.500000 9.738608
27.500000 9.871795
27.500000 10.005823
27.500000 10.140691
27.500000 10.276399
27.500000 10.412948
27.500000 10.550336
27.500000 10.688566
27.500000 10.827635
27.500000 10.967545
27.500000 11.108295
27.500000 11.249885
27.500000 11.392316
27.500000 11.535587
27.500000 11.679698
27.500000 11.824649
27.500000 11.970441
27.500000 12.117073
27.500000 12.264546
27.500000 12.412858
27.500000 12.562011
27.500000 12.712005
27.500000 12.862838
27.500000 13.014512
27.500000 13.167026
27.500000 13.320381
27.500000 13.474576
27.500000 13.629611
27.500000 13.785486
27.500000 13.942202
27.500000 14.099758
27.500000 14.258154
27.500000 14.417391
27.500000 14.577468
27.500000 14.738385
27.500000 14.900142
27.500000 15.062740
27.500000 15.226178
27.500000 15.390457
27.500000 15.555575
27.500000 15.721534
27.500000 15.888334
27.500000 16.055973
27.500000 16.224453
27.500000 16.393773
27.500000 16.563934
27.500000 16.734935
27.500000 16.906776
27.500000 17.079457
27.500000 17.252979
27.500000 17.427341
27.500000 17.602543
27.500000 17.778585
27.500000 17.955468
27.500000 18.133192
27.500000 18.311755
27.500000 18.491159
27.500000 18.671403
27.500000 18.852487
27.500000 19.034412
27.500000 19.217177
27.500000 19.400782
27.500000 19.585228
27.500000 19.770513
27.500000 19.956640
27.500000 20.143606
27.500000 20.331413
27.500000 20.520060
27.500000 20.709547
27.500000 20.899875
27.500000 21.091043
27.500000 21.283051
27.500000 21.475900
27.500000 21.669588
27.500000 21.864118
27.500000 22.059487
27.500000 22.255697
27.500000 22.452747
27.500000 22.650637
27.500000 22.849368
27.500000 23.048939
27.500000 23.249350
27.500000 23.450601
27.500000 23.652693
27.500000 23.855625
27.500000 24.059398
27.500000 24.264011
27.500000 24.469464
27.500000 24.675757
27.500000 24.882891
27.500000 25.090864
27.500000 25.299679
27.500000 25.509333
27.500000 25.719828
27.500000 25.931163
27.500000 26.143339
27.500000 26.356354
27.500000 26.570210
27.500000 26.784907
27.500000 27.000443
27.500000 27.216820
27.500000 27.434037
27.500000 27.652095
27.500000 27.870993
27.500000 28.090731
27.500000 28.311309
27.500000 28.532728
27.500000 28.754987
27.500000 28.978086
27.500000 29.202026
27.500000 29.426806
27.500000 29.652426
27.500000 29.878886
27.500000 30.106187
27.500000 30.334328
27.500000 30.563309
27.500000 30.793131
27.500000 31.023793
27.500000 31.255295
27.500000 31.487638
27.500000 31.720821
27.500000 31.954844
27.500000 32.189708
27.500000 32.425411
27.500000 32.661955
27.500000 32.899340
27.500000 33.137564
27.500000 33.376629
27.500000 33.616535
27.500000 33.857280
27.500000 34.098866
27.500000 34.341292
27.500000 34.584559
27.500000 34.828665
27.500000 35.073613
27.500000 35.319400
27.500000 35.566028
27.500000 35.813496
27.500000 36.061804
27.500000 36.310952
27.500000 36.560941
27.500000 36.811770
27.500000 37.063440
27.500000 37.315950
27.500000 37.569300
27.500000 37.823490
27.500000 38.078521
27.500000 38.334391
27.500000 38.591103
27.500000 38.848654
27.500000 39.107046
27.500000 39.366278
27.500000 39.626351
27.500000 39.887263
27.500000 40.149016
27.500000 40.411610
27.500000 40.675043
27.500000 40.939317
27.500000 41.204432
27.500000 41.470386
27.500000 41.737181
27.500000 42.004816
27.500000 42.273291
27.500000 42.542607
27.500000 42.812763
27.500000 43.083760
27.500000 43.355596
27.500000 43.628273
27.500000 43.901790
27.500000 44.176148
27.500000 44.451346
27.500000 44.727384
27.500000 45.004262
27.500000 45.281981
27.500000 45.560540
27.500000 45.839939
27.500000 46.120179
27.500000 46.401259
27.500000 46.683179
27.500000 46.965939
27.500000 47.249540
27.500000 47.533981
27.500000 47.819263
27.500000 48.105384
27.500000 48.392346
27.500000 48.680149
27.500000 48.968791
27.500000 49.258274
27.500000 49.548597
27.500000 49.839761
27.500000 50.131765
27.500000 50.424609
27.500000 50.718293
27.500000 51.012818
27.500000 51.308183
27.500000 51.604388
27.500000 51.901434
27.500000 52.199319
27.500000 52.498046
27.500000 52.797612
27.500000 53.098019
27.500000 53.399266
27.500000 53.701353
27.500000 54.004281
27.500000 54.308049
27.500000 54.612657
27.500000 54.918106
27.500000 55.224395
27.500000 55.531524
27.500000 55.839493
27.500000 56.148303
27.500000 56.457953
27.500000 56.768443
27.500000 57.079774
27.500000 57.391945
27.500000 57.704956
27.500000 58.018808
27.500000 58.333500
27.500000 58.649032
27.500000 58.965404
27.500000 59.282617
27.500000 59.600670
27.500000 59.919563
27.500000 60.239297
27.500000 60.559871
27.500000 60.881285
27.500000 61.203540
27.500000 61.526635
27.500000 61.850570
27.500000 62.175345
27.500000 62.500961
27.500000 62.827417
27.500000 63.154713
27.500000 63.482850
27.500000 63.811827
27.500000 64.141644
27.500000 64.472301
27.500000 64.803799
27.500000 65.136137
27.500000 65.469316
27.500000 65.803335
27.500000 66.138194
27.500000 66.473893
27.500000 66.810433
27.500000 67.147812
27.500000 67.486033
27.500000 67.825093
27.500000 68.164994
27.500000 68.505735
27.500000 68.847316
27.500000 69.189738
27.500000 69.533000
27.500000 69.877102
27.500000 70.222045
27.500000 70.567828
27.500000 70.914451
27.500000 71.261915
27.500000 71.610218
27.500000 71.959363
27.500000 72.309347
27.500000 72.660172
27.500000 73.011837
27.500000 73.364342
27.500000 73.717688
27.500000 74.071873
27.500000 74.426900
27.500000 74.782766
27.500000 75.139473
27.500000 75.497020
27.500000 75.855407
27.500000 76.214635
27.500000 76.574703
27.500000 76.935611
27.500000 77.297360
27.500000 77.659949
27.500000 78.023378
27.500000 78.387647
27.500000 78.752757
27.500000 79.118707
27.500000 79.485498
27.500000 79.853128
27.500000 80.221599
27.500000 80.590910
27.500000 80.961062
27.500000 81.332054
27.500000 81.703886
27.500000 82.076558
27.500000 82.450071
27.500000 82.824424
27.500000 83.199618
27.500000 83.575651
27.500000 83.952525
27.500000 84.330239
27.500000 84.708794
27.500000 85.088189
27.500000 85.468424
27.500000 85.849499
27.500000 86.231415
27.500000 86.614171
27.500000 86.997768
27.500000 87.382204
27.500000 87.767481
27.500000 88.153598
27.500000 88.540556
27.500000 88.928354
27.500000 89.316992
27.500000 89.706470
27.500000 90.096789
27.500000 90.487948
27.500000 90.879947
27.500000 91.272787
27.500000 91.666467
27.500000 92.060987
27.500000 92.456348
27.500000 92.852548
27.500000 93.249590
27.500000 93.647471
27.500000 94.046193
27.500000 94.445755
27.500000 94.846157
27.500000 95.247400
27.500000 95.649483
27.500000 96.052406
27.500000 96.456169
27.500000 96.860773
27.500000 97.266217
27.500000 97.672502
27.500000 98.079626
27.500000 98.487591
27.500000 98.896397
27.500000 99.306042
27.500000 99.716528
27.500000 100.127854
27.500000 100.540021
27.500000 100.953028
27.500000 101.366875
27.500000 101.781562
27.500000 102.197090
27.500000 102.613458
27.500000 103.030666
27.500000 103.448715
27.500000 103.867603
27.500000 104.287333
27.500000 104.707902
27.500000 105.129312
27.500000 105.551562
27.500000 105.974652
27.500000 106.398583
27.500000 106.823354
27.500000 107.248965
27.500000 107.675417
27.500000 108.102709
27.500000 108.530841
27.500000 108.959813
27.500000 109.389626
27.500000 109.820279
27.500000 110.251773
27.500000 110.684106
27.500000 111.117280
27.500000 111.551294
27.500000 111.986149
27.500000 112.421844
27.500000 112.858379
27.500000 113.295754
27.500000 113.733970
27.500000 114.173026
27.500000 114.612923
27.500000 115.053659
27.500000 115.495236
27.500000 115.937653
27.500000 116.380911
27.500000 116.825009
27.500000 117.269947
27.500000 117.715725
27.500000 118.162344
27.500000 118.609803
27.500000 119.058103
27.500000 119.507242
27.500000 119.957222
27.500000 120.408042
27.500000 120.859703
27.500000 121.312204
27.500000 121.765545
27.500000 122.219726
27.500000 122.674748
27.500000 123.130610
27.500000 123.587312
27.500000 124.044855
27.500000 124.503238
27.500000 124.962461
27.500000 125.422525
27.500000 125.883428
27.500000 126.345173
27.500000 126.807757
27.500000 127.271182
27.500000 127.735447
27.500000 128.200552
27.500000 128.666498
27.500000 129.133283
27.500000 129.600910
27.500000 130.069376
27.500000 130.538683
27.500000 131.008830
27.500000 131.479818
27.500000 131.951645
27.500000 132.424313
27.500000 132.897821
27.500000 133.372170
27.500000 133.847359
27.500000 134.323388
27.500000 134.800258
27.500000 135.277967
27.500000 135.756518
27.500000 136.235908
27.500000 136.716139
27.500000 137.197210
27.500000 137.679121
27.500000 138.161872
27.500000 138.645464
27.500000 139.129897
27.500000 139.615169
27.500000 140.101282
27.500000 140.588235
27.500000 141.076028
27.500000 141.564662
27.500000 142.054136
27.500000 142.544450
27.500000 143.035605
27.500000 143.527600
27.500000 144.020435
27.500000 144.514110
27.500000 145.008626
27.500000 145.503982
27.500000 146.000178
27.500000 146.497215
27.500000 146.995092
27.500000 147.493809
27.500000 147.993367
27.500000 148.493765
27.500000 148.995003
27.500000 149.497081
27.500000 150.000000
</POINTS>
</NEKTAR>

