<?xml version="1.0" encoding="utf-8" ?>
<NEKTAR>
<POINTS DIM="2" FIELDS="">
16.500000 -0.750000
16.500000 -0.749580
16.500000 -0.748319
16.500000 -0.746219
16.500000 -0.743278
16.500000 -0.739496
16.500000 -0.734875
16.500000 -0.729413
16.500000 -0.723110
16.500000 -0.715968
16.500000 -0.707985
16.500000 -0.699162
16.500000 -0.689498
16.500000 -0.678995
16.500000 -0.667651
16.500000 -0.655466
16.500000 -0.642442
16.500000 -0.628577
16.500000 -0.613872
16.500000 -0.598326
16.500000 -0.581940
16.500000 -0.564714
16.500000 -0.546648
16.500000 -0.527741
16.500000 -0.507994
16.500000 -0.487407
16.500000 -0.465979
16.500000 -0.443711
16.500000 -0.420603
16.500000 -0.396654
16.500000 -0.371866
16.500000 -0.346236
16.500000 -0.319767
16.500000 -0.292457
16.500000 -0.264307
16.500000 -0.235317
16.500000 -0.205486
16.500000 -0.174816
16.500000 -0.143304
16.500000 -0.110953
16.500000 -0.077761
16.500000 -0.043729
16.500000 -0.008857
16.500000 0.026856
16.500000 0.063409
16.500000 0.100802
16.500000 0.139036
16.500000 0.178110
16.500000 0.218024
16.500000 0.258779
16.500000 0.300373
16.500000 0.342808
16.500000 0.386084
16.500000 0.430199
16.500000 0.475155
16.500000 0.520952
16.500000 0.567588
16.500000 0.615065
16.500000 0.663382
16.500000 0.712540
16.500000 0.762538
16.500000 0.813376
16.500000 0.865054
16.500000 0.917573
16.500000 0.970932
16.500000 1.025131
16.500000 1.080170
16.500000 1.136050
16.500000 1.192771
16.500000 1.250331
16.500000 1.308732
16.500000 1.367973
16.500000 1.428054
16.500000 1.488976
16.500000 1.550738
16.500000 1.613340
16.500000 1.676783
16.500000 1.741065
16.500000 1.806189
16.500000 1.872152
16.500000 1.938956
16.500000 2.006600
16.500000 2.075084
16.500000 2.144409
16.500000 2.214574
16.500000 2.285579
16.500000 2.357424
16.500000 2.430110
16.500000 2.503636
16.500000 2.578003
16.500000 2.653210
16.500000 2.729257
16.500000 2.806144
16.500000 2.883872
16.500000 2.962439
16.500000 3.041848
16.500000 3.122096
16.500000 3.203185
16.500000 3.285114
16.500000 3.367884
16.500000 3.451493
16.500000 3.535943
16.500000 3.621234
16.500000 3.707364
16.500000 3.794335
16.500000 3.882146
16.500000 3.970798
16.500000 4.060290
16.500000 4.150622
16.500000 4.241794
16.500000 4.333807
16.500000 4.426660
16.500000 4.520353
16.500000 4.614887
16.500000 4.710261
16.500000 4.806475
16.500000 4.903529
16.500000 5.001424
16.500000 5.100159
16.500000 5.199735
16.500000 5.300150
16.500000 5.401406
16.500000 5.503503
16.500000 5.606439
16.500000 5.710216
16.500000 5.814833
16.500000 5.920291
16.500000 6.026589
16.500000 6.133727
16.500000 6.241705
16.500000 6.350524
16.500000 6.460183
16.500000 6.570682
16.500000 6.682022
16.500000 6.794201
16.500000 6.907222
16.500000 7.021082
16.500000 7.135783
16.500000 7.251324
16.500000 7.367705
16.500000 7.484927
16.500000 7.602989
16.500000 7.721891
16.500000 7.841634
16.500000 7.962217
16.500000 8.083640
16.500000 8.205903
16.500000 8.329007
16.500000 8.452951
16.500000 8.577735
16.500000 8.703360
16.500000 8.829825
16.500000 8.957130
16.500000 9.085276
16.500000 9.214262
16.500000 9.344088
16.500000 9.474754
16.500000 9.606261
16.500000 9.738608
16.500000 9.871795
16.500000 10.005823
16.500000 10.140691
16.500000 10.276399
16.500000 10.412948
16.500000 10.550336
16.500000 10.688566
16.500000 10.827635
16.500000 10.967545
16.500000 11.108295
16.500000 11.249885
16.500000 11.392316
16.500000 11.535587
16.500000 11.679698
16.500000 11.824649
16.500000 11.970441
16.500000 12.117073
16.500000 12.264546
16.500000 12.412858
16.500000 12.562011
16.500000 12.712005
16.500000 12.862838
16.500000 13.014512
16.500000 13.167026
16.500000 13.320381
16.500000 13.474576
16.500000 13.629611
16.500000 13.785486
16.500000 13.942202
16.500000 14.099758
16.500000 14.258154
16.500000 14.417391
16.500000 14.577468
16.500000 14.738385
16.500000 14.900142
16.500000 15.062740
16.500000 15.226178
16.500000 15.390457
16.500000 15.555575
16.500000 15.721534
16.500000 15.888334
16.500000 16.055973
16.500000 16.224453
16.500000 16.393773
16.500000 16.563934
16.500000 16.734935
16.500000 16.906776
16.500000 17.079457
16.500000 17.252979
16.500000 17.427341
16.500000 17.602543
16.500000 17.778585
16.500000 17.955468
16.500000 18.133192
16.500000 18.311755
16.500000 18.491159
16.500000 18.671403
16.500000 18.852487
16.500000 19.034412
16.500000 19.217177
16.500000 19.400782
16.500000 19.585228
16.500000 19.770513
16.500000 19.956640
16.500000 20.143606
16.500000 20.331413
16.500000 20.520060
16.500000 20.709547
16.500000 20.899875
16.500000 21.091043
16.500000 21.283051
16.500000 21.475900
16.500000 21.669588
16.500000 21.864118
16.500000 22.059487
16.500000 22.255697
16.500000 22.452747
16.500000 22.650637
16.500000 22.849368
16.500000 23.048939
16.500000 23.249350
16.500000 23.450601
16.500000 23.652693
16.500000 23.855625
16.500000 24.059398
16.500000 24.264011
16.500000 24.469464
16.500000 24.675757
16.500000 24.882891
16.500000 25.090864
16.500000 25.299679
16.500000 25.509333
16.500000 25.719828
16.500000 25.931163
16.500000 26.143339
16.500000 26.356354
16.500000 26.570210
16.500000 26.784907
16.500000 27.000443
16.500000 27.216820
16.500000 27.434037
16.500000 27.652095
16.500000 27.870993
16.500000 28.090731
16.500000 28.311309
16.500000 28.532728
16.500000 28.754987
16.500000 28.978086
16.500000 29.202026
16.500000 29.426806
16.500000 29.652426
16.500000 29.878886
16.500000 30.106187
16.500000 30.334328
16.500000 30.563309
16.500000 30.793131
16.500000 31.023793
16.500000 31.255295
16.500000 31.487638
16.500000 31.720821
16.500000 31.954844
16.500000 32.189708
16.500000 32.425411
16.500000 32.661955
16.500000 32.899340
16.500000 33.137564
16.500000 33.376629
16.500000 33.616535
16.500000 33.857280
16.500000 34.098866
16.500000 34.341292
16.500000 34.584559
16.500000 34.828665
16.500000 35.073613
16.500000 35.319400
16.500000 35.566028
16.500000 35.813496
16.500000 36.061804
16.500000 36.310952
16.500000 36.560941
16.500000 36.811770
16.500000 37.063440
16.500000 37.315950
16.500000 37.569300
16.500000 37.823490
16.500000 38.078521
16.500000 38.334391
16.500000 38.591103
16.500000 38.848654
16.500000 39.107046
16.500000 39.366278
16.500000 39.626351
16.500000 39.887263
16.500000 40.149016
16.500000 40.411610
16.500000 40.675043
16.500000 40.939317
16.500000 41.204432
16.500000 41.470386
16.500000 41.737181
16.500000 42.004816
16.500000 42.273291
16.500000 42.542607
16.500000 42.812763
16.500000 43.083760
16.500000 43.355596
16.500000 43.628273
16.500000 43.901790
16.500000 44.176148
16.500000 44.451346
16.500000 44.727384
16.500000 45.004262
16.500000 45.281981
16.500000 45.560540
16.500000 45.839939
16.500000 46.120179
16.500000 46.401259
16.500000 46.683179
16.500000 46.965939
16.500000 47.249540
16.500000 47.533981
16.500000 47.819263
16.500000 48.105384
16.500000 48.392346
16.500000 48.680149
16.500000 48.968791
16.500000 49.258274
16.500000 49.548597
16.500000 49.839761
16.500000 50.131765
16.500000 50.424609
16.500000 50.718293
16.500000 51.012818
16.500000 51.308183
16.500000 51.604388
16.500000 51.901434
16.500000 52.199319
16.500000 52.498046
16.500000 52.797612
16.500000 53.098019
16.500000 53.399266
16.500000 53.701353
16.500000 54.004281
16.500000 54.308049
16.500000 54.612657
16.500000 54.918106
16.500000 55.224395
16.500000 55.531524
16.500000 55.839493
16.500000 56.148303
16.500000 56.457953
16.500000 56.768443
16.500000 57.079774
16.500000 57.391945
16.500000 57.704956
16.500000 58.018808
16.500000 58.333500
16.500000 58.649032
16.500000 58.965404
16.500000 59.282617
16.500000 59.600670
16.500000 59.919563
16.500000 60.239297
16.500000 60.559871
16.500000 60.881285
16.500000 61.203540
16.500000 61.526635
16.500000 61.850570
16.500000 62.175345
16.500000 62.500961
16.500000 62.827417
16.500000 63.154713
16.500000 63.482850
16.500000 63.811827
16.500000 64.141644
16.500000 64.472301
16.500000 64.803799
16.500000 65.136137
16.500000 65.469316
16.500000 65.803335
16.500000 66.138194
16.500000 66.473893
16.500000 66.810433
16.500000 67.147812
16.500000 67.486033
16.500000 67.825093
16.500000 68.164994
16.500000 68.505735
16.500000 68.847316
16.500000 69.189738
16.500000 69.533000
16.500000 69.877102
16.500000 70.222045
16.500000 70.567828
16.500000 70.914451
16.500000 71.261915
16.500000 71.610218
16.500000 71.959363
16.500000 72.309347
16.500000 72.660172
16.500000 73.011837
16.500000 73.364342
16.500000 73.717688
16.500000 74.071873
16.500000 74.426900
16.500000 74.782766
16.500000 75.139473
16.500000 75.497020
16.500000 75.855407
16.500000 76.214635
16.500000 76.574703
16.500000 76.935611
16.500000 77.297360
16.500000 77.659949
16.500000 78.023378
16.500000 78.387647
16.500000 78.752757
16.500000 79.118707
16.500000 79.485498
16.500000 79.853128
16.500000 80.221599
16.500000 80.590910
16.500000 80.961062
16.500000 81.332054
16.500000 81.703886
16.500000 82.076558
16.500000 82.450071
16.500000 82.824424
16.500000 83.199618
16.500000 83.575651
16.500000 83.952525
16.500000 84.330239
16.500000 84.708794
16.500000 85.088189
16.500000 85.468424
16.500000 85.849499
16.500000 86.231415
16.500000 86.614171
16.500000 86.997768
16.500000 87.382204
16.500000 87.767481
16.500000 88.153598
16.500000 88.540556
16.500000 88.928354
16.500000 89.316992
16.500000 89.706470
16.500000 90.096789
16.500000 90.487948
16.500000 90.879947
16.500000 91.272787
16.500000 91.666467
16.500000 92.060987
16.500000 92.456348
16.500000 92.852548
16.500000 93.249590
16.500000 93.647471
16.500000 94.046193
16.500000 94.445755
16.500000 94.846157
16.500000 95.247400
16.500000 95.649483
16.500000 96.052406
16.500000 96.456169
16.500000 96.860773
16.500000 97.266217
16.500000 97.672502
16.500000 98.079626
16.500000 98.487591
16.500000 98.896397
16.500000 99.306042
16.500000 99.716528
16.500000 100.127854
16.500000 100.540021
16.500000 100.953028
16.500000 101.366875
16.500000 101.781562
16.500000 102.197090
16.500000 102.613458
16.500000 103.030666
16.500000 103.448715
16.500000 103.867603
16.500000 104.287333
16.500000 104.707902
16.500000 105.129312
16.500000 105.551562
16.500000 105.974652
16.500000 106.398583
16.500000 106.823354
16.500000 107.248965
16.500000 107.675417
16.500000 108.102709
16.500000 108.530841
16.500000 108.959813
16.500000 109.389626
16.500000 109.820279
16.500000 110.251773
16.500000 110.684106
16.500000 111.117280
16.500000 111.551294
16.500000 111.986149
16.500000 112.421844
16.500000 112.858379
16.500000 113.295754
16.500000 113.733970
16.500000 114.173026
16.500000 114.612923
16.500000 115.053659
16.500000 115.495236
16.500000 115.937653
16.500000 116.380911
16.500000 116.825009
16.500000 117.269947
16.500000 117.715725
16.500000 118.162344
16.500000 118.609803
16.500000 119.058103
16.500000 119.507242
16.500000 119.957222
16.500000 120.408042
16.500000 120.859703
16.500000 121.312204
16.500000 121.765545
16.500000 122.219726
16.500000 122.674748
16.500000 123.130610
16.500000 123.587312
16.500000 124.044855
16.500000 124.503238
16.500000 124.962461
16.500000 125.422525
16.500000 125.883428
16.500000 126.345173
16.500000 126.807757
16.500000 127.271182
16.500000 127.735447
16.500000 128.200552
16.500000 128.666498
16.500000 129.133283
16.500000 129.600910
16.500000 130.069376
16.500000 130.538683
16.500000 131.008830
16.500000 131.479818
16.500000 131.951645
16.500000 132.424313
16.500000 132.897821
16.500000 133.372170
16.500000 133.847359
16.500000 134.323388
16.500000 134.800258
16.500000 135.277967
16.500000 135.756518
16.500000 136.235908
16.500000 136.716139
16.500000 137.197210
16.500000 137.679121
16.500000 138.161872
16.500000 138.645464
16.500000 139.129897
16.500000 139.615169
16.500000 140.101282
16.500000 140.588235
16.500000 141.076028
16.500000 141.564662
16.500000 142.054136
16.500000 142.544450
16.500000 143.035605
16.500000 143.527600
16.500000 144.020435
16.500000 144.514110
16.500000 145.008626
16.500000 145.503982
16.500000 146.000178
16.500000 146.497215
16.500000 146.995092
16.500000 147.493809
16.500000 147.993367
16.500000 148.493765
16.500000 148.995003
16.500000 149.497081
16.500000 150.000000
</POINTS>
</NEKTAR>

