<?xml version="1.0" encoding="utf-8" ?>
<NEKTAR>
<POINTS DIM="2" FIELDS="">
623.500000 0.000000
623.500000 0.000418
623.500000 0.001672
623.500000 0.003763
623.500000 0.006689
623.500000 0.010451
623.500000 0.015050
623.500000 0.020485
623.500000 0.026756
623.500000 0.033863
623.500000 0.041806
623.500000 0.050585
623.500000 0.060201
623.500000 0.070652
623.500000 0.081940
623.500000 0.094063
623.500000 0.107023
623.500000 0.120819
623.500000 0.135451
623.500000 0.150919
623.500000 0.167224
623.500000 0.184364
623.500000 0.202341
623.500000 0.221153
623.500000 0.240802
623.500000 0.261287
623.500000 0.282608
623.500000 0.304765
623.500000 0.327758
623.500000 0.351588
623.500000 0.376253
623.500000 0.401755
623.500000 0.428092
623.500000 0.455266
623.500000 0.483276
623.500000 0.512122
623.500000 0.541805
623.500000 0.572323
623.500000 0.603677
623.500000 0.635868
623.500000 0.668894
623.500000 0.702757
623.500000 0.737456
623.500000 0.772991
623.500000 0.809362
623.500000 0.846570
623.500000 0.884613
623.500000 0.923492
623.500000 0.963208
623.500000 1.003760
623.500000 1.045148
623.500000 1.087372
623.500000 1.130432
623.500000 1.174328
623.500000 1.219060
623.500000 1.264629
623.500000 1.311033
623.500000 1.358274
623.500000 1.406351
623.500000 1.455264
623.500000 1.505013
623.500000 1.555598
623.500000 1.607019
623.500000 1.659276
623.500000 1.712370
623.500000 1.766299
623.500000 1.821065
623.500000 1.876667
623.500000 1.933105
623.500000 1.990379
623.500000 2.048489
623.500000 2.107436
623.500000 2.167218
623.500000 2.227837
623.500000 2.289291
623.500000 2.351582
623.500000 2.414709
623.500000 2.478672
623.500000 2.543471
623.500000 2.609106
623.500000 2.675578
623.500000 2.742885
623.500000 2.811029
623.500000 2.880009
623.500000 2.949825
623.500000 3.020477
623.500000 3.091965
623.500000 3.164289
623.500000 3.237449
623.500000 3.311446
623.500000 3.386278
623.500000 3.461947
623.500000 3.538452
623.500000 3.615793
623.500000 3.693970
623.500000 3.772983
623.500000 3.852832
623.500000 3.933517
623.500000 4.015039
623.500000 4.097397
623.500000 4.180590
623.500000 4.264620
623.500000 4.349486
623.500000 4.435188
623.500000 4.521727
623.500000 4.609101
623.500000 4.697311
623.500000 4.786358
623.500000 4.876241
623.500000 4.966959
623.500000 5.058514
623.500000 5.150905
623.500000 5.244133
623.500000 5.338196
623.500000 5.433095
623.500000 5.528831
623.500000 5.625402
623.500000 5.722810
623.500000 5.821054
623.500000 5.920134
623.500000 6.020050
623.500000 6.120802
623.500000 6.222391
623.500000 6.324815
623.500000 6.428076
623.500000 6.532172
623.500000 6.637105
623.500000 6.742874
623.500000 6.849479
623.500000 6.956920
623.500000 7.065198
623.500000 7.174311
623.500000 7.284261
623.500000 7.395046
623.500000 7.506668
623.500000 7.619126
623.500000 7.732420
623.500000 7.846550
623.500000 7.961516
623.500000 8.077319
623.500000 8.193957
623.500000 8.311432
623.500000 8.429742
623.500000 8.548889
623.500000 8.668872
623.500000 8.789691
623.500000 8.911346
623.500000 9.033838
623.500000 9.157165
623.500000 9.281329
623.500000 9.406328
623.500000 9.532164
623.500000 9.658836
623.500000 9.786344
623.500000 9.914688
623.500000 10.043868
623.500000 10.173885
623.500000 10.304737
623.500000 10.436426
623.500000 10.568950
623.500000 10.702311
623.500000 10.836508
623.500000 10.971541
623.500000 11.107411
623.500000 11.244116
623.500000 11.381657
623.500000 11.520035
623.500000 11.659248
623.500000 11.799298
623.500000 11.940184
623.500000 12.081906
623.500000 12.224464
623.500000 12.367859
623.500000 12.512089
623.500000 12.657155
623.500000 12.803058
623.500000 12.949797
623.500000 13.097372
623.500000 13.245782
623.500000 13.395030
623.500000 13.545113
623.500000 13.696032
623.500000 13.847787
623.500000 14.000379
623.500000 14.153807
623.500000 14.308070
623.500000 14.463170
623.500000 14.619106
623.500000 14.775879
623.500000 14.933487
623.500000 15.091931
623.500000 15.251212
623.500000 15.411328
623.500000 15.572281
623.500000 15.734070
623.500000 15.896695
623.500000 16.060156
623.500000 16.224453
623.500000 16.389586
623.500000 16.555556
623.500000 16.722361
623.500000 16.890003
623.500000 17.058481
623.500000 17.227795
623.500000 17.397945
623.500000 17.568931
623.500000 17.740753
623.500000 17.913412
623.500000 18.086906
623.500000 18.261237
623.500000 18.436403
623.500000 18.612406
623.500000 18.789245
623.500000 18.966920
623.500000 19.145432
623.500000 19.324779
623.500000 19.504962
623.500000 19.685982
623.500000 19.867838
623.500000 20.050529
623.500000 20.234057
623.500000 20.418421
623.500000 20.603622
623.500000 20.789658
623.500000 20.976530
623.500000 21.164239
623.500000 21.352783
623.500000 21.542164
623.500000 21.732381
623.500000 21.923434
623.500000 22.115323
623.500000 22.308048
623.500000 22.501610
623.500000 22.696007
623.500000 22.891241
623.500000 23.087310
623.500000 23.284216
623.500000 23.481958
623.500000 23.680536
623.500000 23.879950
623.500000 24.080200
623.500000 24.281287
623.500000 24.483209
623.500000 24.685968
623.500000 24.889563
623.500000 25.093994
623.500000 25.299261
623.500000 25.505364
623.500000 25.712303
623.500000 25.920078
623.500000 26.128690
623.500000 26.338137
623.500000 26.548421
623.500000 26.759541
623.500000 26.971497
623.500000 27.184289
623.500000 27.397917
623.500000 27.612381
623.500000 27.827682
623.500000 28.043818
623.500000 28.260791
623.500000 28.478600
623.500000 28.697244
623.500000 28.916725
623.500000 29.137043
623.500000 29.358196
623.500000 29.580185
623.500000 29.803011
623.500000 30.026672
623.500000 30.251170
623.500000 30.476504
623.500000 30.702674
623.500000 30.929680
623.500000 31.157522
623.500000 31.386200
623.500000 31.615715
623.500000 31.846065
623.500000 32.077252
623.500000 32.309275
623.500000 32.542133
623.500000 32.775828
623.500000 33.010360
623.500000 33.245727
623.500000 33.481930
623.500000 33.718970
623.500000 33.956845
623.500000 34.195557
623.500000 34.435105
623.500000 34.675489
623.500000 34.916709
623.500000 35.158765
623.500000 35.401657
623.500000 35.645386
623.500000 35.889950
623.500000 36.135351
623.500000 36.381588
623.500000 36.628660
623.500000 36.876569
623.500000 37.125315
623.500000 37.374896
623.500000 37.625313
623.500000 37.876567
623.500000 38.128656
623.500000 38.381582
623.500000 38.635344
623.500000 38.889942
623.500000 39.145376
623.500000 39.401646
623.500000 39.658752
623.500000 39.916695
623.500000 40.175473
623.500000 40.435088
623.500000 40.695539
623.500000 40.956826
623.500000 41.218949
623.500000 41.481908
623.500000 41.745703
623.500000 42.010334
623.500000 42.275802
623.500000 42.542106
623.500000 42.809245
623.500000 43.077221
623.500000 43.346033
623.500000 43.615681
623.500000 43.886165
623.500000 44.157486
623.500000 44.429642
623.500000 44.702635
623.500000 44.976463
623.500000 45.251128
623.500000 45.526629
623.500000 45.802966
623.500000 46.080139
623.500000 46.358148
623.500000 46.636994
623.500000 46.916675
623.500000 47.197193
623.500000 47.478547
623.500000 47.760736
623.500000 48.043762
623.500000 48.327625
623.500000 48.612323
623.500000 48.897857
623.500000 49.184227
623.500000 49.471434
623.500000 49.759477
623.500000 50.048355
623.500000 50.338070
623.500000 50.628621
623.500000 50.920009
623.500000 51.212232
623.500000 51.505291
623.500000 51.799187
623.500000 52.093918
623.500000 52.389486
623.500000 52.685890
623.500000 52.983130
623.500000 53.281206
623.500000 53.580118
623.500000 53.879867
623.500000 54.180451
623.500000 54.481872
623.500000 54.784128
623.500000 55.087221
623.500000 55.391150
623.500000 55.695915
623.500000 56.001516
623.500000 56.307953
623.500000 56.615227
623.500000 56.923336
623.500000 57.232282
623.500000 57.542064
623.500000 57.852682
623.500000 58.164136
623.500000 58.476426
623.500000 58.789552
623.500000 59.103514
623.500000 59.418313
623.500000 59.733947
623.500000 60.050418
623.500000 60.367725
623.500000 60.685868
623.500000 61.004847
623.500000 61.324662
623.500000 61.645313
623.500000 61.966801
623.500000 62.289124
623.500000 62.612284
623.500000 62.936279
623.500000 63.261111
623.500000 63.586779
623.500000 63.913283
623.500000 64.240624
623.500000 64.568800
623.500000 64.897812
623.500000 65.227661
623.500000 65.558346
623.500000 65.889867
623.500000 66.222223
623.500000 66.555417
623.500000 66.889446
623.500000 67.224311
623.500000 67.560012
623.500000 67.896550
623.500000 68.233924
623.500000 68.572133
623.500000 68.911179
623.500000 69.251061
623.500000 69.591779
623.500000 69.933334
623.500000 70.275724
623.500000 70.618950
623.500000 70.963013
623.500000 71.307912
623.500000 71.653646
623.500000 72.000217
623.500000 72.347624
623.500000 72.695868
623.500000 73.044947
623.500000 73.394862
623.500000 73.745614
623.500000 74.097202
623.500000 74.449625
623.500000 74.802885
623.500000 75.156981
623.500000 75.511913
623.500000 75.867682
623.500000 76.224286
623.500000 76.581726
623.500000 76.940003
623.500000 77.299116
623.500000 77.659064
623.500000 78.019849
623.500000 78.381471
623.500000 78.743928
623.500000 79.107221
623.500000 79.471350
623.500000 79.836316
623.500000 80.202118
623.500000 80.568755
623.500000 80.936229
623.500000 81.304539
623.500000 81.673685
623.500000 82.043668
623.500000 82.414486
623.500000 82.786141
623.500000 83.158631
623.500000 83.531958
623.500000 83.906121
623.500000 84.281120
623.500000 84.656955
623.500000 85.033626
623.500000 85.411133
623.500000 85.789477
623.500000 86.168656
623.500000 86.548672
623.500000 86.929524
623.500000 87.311212
623.500000 87.693736
623.500000 88.077096
623.500000 88.461292
623.500000 88.846324
623.500000 89.232193
623.500000 89.618897
623.500000 90.006438
623.500000 90.394815
623.500000 90.784028
623.500000 91.174077
623.500000 91.564962
623.500000 91.956684
623.500000 92.349241
623.500000 92.742634
623.500000 93.136864
623.500000 93.531930
623.500000 93.927832
623.500000 94.324570
623.500000 94.722144
623.500000 95.120554
623.500000 95.519801
623.500000 95.919883
623.500000 96.320802
623.500000 96.722557
623.500000 97.125147
623.500000 97.528574
623.500000 97.932837
623.500000 98.337937
623.500000 98.743872
623.500000 99.150643
623.500000 99.558251
623.500000 99.966695
623.500000 100.375974
623.500000 100.786090
623.500000 101.197042
623.500000 101.608831
623.500000 102.021455
623.500000 102.434915
623.500000 102.849212
623.500000 103.264344
623.500000 103.680313
623.500000 104.097118
623.500000 104.514759
623.500000 104.933236
623.500000 105.352549
623.500000 105.772699
623.500000 106.193684
623.500000 106.615506
623.500000 107.038163
623.500000 107.461657
623.500000 107.885987
623.500000 108.311153
623.500000 108.737155
623.500000 109.163993
623.500000 109.591668
623.500000 110.020178
623.500000 110.449525
623.500000 110.879708
623.500000 111.310727
623.500000 111.742582
623.500000 112.175273
623.500000 112.608800
623.500000 113.043163
623.500000 113.478363
623.500000 113.914398
623.500000 114.351270
623.500000 114.788978
623.500000 115.227522
623.500000 115.666902
623.500000 116.107118
623.500000 116.548170
623.500000 116.990059
623.500000 117.432783
623.500000 117.876344
623.500000 118.320740
623.500000 118.765973
623.500000 119.212042
623.500000 119.658947
623.500000 120.106689
623.500000 120.555266
623.500000 121.004679
623.500000 121.454929
623.500000 121.906015
623.500000 122.357937
623.500000 122.810695
623.500000 123.264289
623.500000 123.718719
623.500000 124.173985
623.500000 124.630087
623.500000 125.087026
623.500000 125.544801
623.500000 126.003411
623.500000 126.462858
623.500000 126.923141
623.500000 127.384260
623.500000 127.846216
623.500000 128.309007
623.500000 128.772634
623.500000 129.237098
623.500000 129.702398
623.500000 130.168534
623.500000 130.635505
623.500000 131.103314
623.500000 131.571958
623.500000 132.041438
623.500000 132.511754
623.500000 132.982907
623.500000 133.454896
623.500000 133.927720
623.500000 134.401381
623.500000 134.875878
623.500000 135.351211
623.500000 135.827381
623.500000 136.304386
623.500000 136.782227
623.500000 137.260905
623.500000 137.740419
623.500000 138.220769
623.500000 138.701955
623.500000 139.183977
623.500000 139.666835
623.500000 140.150529
623.500000 140.635060
623.500000 141.120426
623.500000 141.606629
623.500000 142.093668
623.500000 142.581542
623.500000 143.070253
623.500000 143.559801
623.500000 144.050184
623.500000 144.541403
623.500000 145.033459
623.500000 145.526350
623.500000 146.020078
623.500000 146.514642
623.500000 147.010042
623.500000 147.506278
623.500000 148.003350
623.500000 148.501258
623.500000 149.000003
623.500000 149.499583
623.500000 150.000000
</POINTS>
</NEKTAR>

