<?xml version="1.0" encoding="utf-8" ?>
<NEKTAR>
<POINTS DIM="2" FIELDS="">
88.500000 -1.000000
88.500000 -0.999579
88.500000 -0.998317
88.500000 -0.996212
88.500000 -0.993266
88.500000 -0.989479
88.500000 -0.984850
88.500000 -0.979379
88.500000 -0.973066
88.500000 -0.965911
88.500000 -0.957915
88.500000 -0.949078
88.500000 -0.939398
88.500000 -0.928877
88.500000 -0.917514
88.500000 -0.905310
88.500000 -0.892263
88.500000 -0.878375
88.500000 -0.863646
88.500000 -0.848075
88.500000 -0.831662
88.500000 -0.814407
88.500000 -0.796310
88.500000 -0.777372
88.500000 -0.757593
88.500000 -0.736971
88.500000 -0.715508
88.500000 -0.693203
88.500000 -0.670057
88.500000 -0.646068
88.500000 -0.621239
88.500000 -0.595567
88.500000 -0.569054
88.500000 -0.541699
88.500000 -0.513502
88.500000 -0.484464
88.500000 -0.454583
88.500000 -0.423862
88.500000 -0.392298
88.500000 -0.359893
88.500000 -0.326646
88.500000 -0.292558
88.500000 -0.257627
88.500000 -0.221856
88.500000 -0.185242
88.500000 -0.147787
88.500000 -0.109490
88.500000 -0.070351
88.500000 -0.030371
88.500000 0.010451
88.500000 0.052115
88.500000 0.094621
88.500000 0.137968
88.500000 0.182157
88.500000 0.227187
88.500000 0.273059
88.500000 0.319773
88.500000 0.367329
88.500000 0.415726
88.500000 0.464965
88.500000 0.515046
88.500000 0.565968
88.500000 0.617732
88.500000 0.670338
88.500000 0.723786
88.500000 0.778075
88.500000 0.833206
88.500000 0.889178
88.500000 0.945992
88.500000 1.003648
88.500000 1.062146
88.500000 1.121485
88.500000 1.181666
88.500000 1.242689
88.500000 1.304553
88.500000 1.367259
88.500000 1.430807
88.500000 1.495197
88.500000 1.560428
88.500000 1.626500
88.500000 1.693415
88.500000 1.761171
88.500000 1.829769
88.500000 1.899209
88.500000 1.969490
88.500000 2.040613
88.500000 2.112578
88.500000 2.185384
88.500000 2.259032
88.500000 2.333522
88.500000 2.408853
88.500000 2.485027
88.500000 2.562041
88.500000 2.639898
88.500000 2.718596
88.500000 2.798136
88.500000 2.878518
88.500000 2.959741
88.500000 3.041806
88.500000 3.124713
88.500000 3.208461
88.500000 3.293051
88.500000 3.378483
88.500000 3.464756
88.500000 3.551871
88.500000 3.639828
88.500000 3.728627
88.500000 3.818267
88.500000 3.908749
88.500000 4.000072
88.500000 4.092238
88.500000 4.185245
88.500000 4.279093
88.500000 4.373784
88.500000 4.469316
88.500000 4.565690
88.500000 4.662905
88.500000 4.760962
88.500000 4.859861
88.500000 4.959602
88.500000 5.060184
88.500000 5.161608
88.500000 5.263873
88.500000 5.366981
88.500000 5.470930
88.500000 5.575720
88.500000 5.681353
88.500000 5.787827
88.500000 5.895142
88.500000 6.003300
88.500000 6.112299
88.500000 6.222140
88.500000 6.332822
88.500000 6.444347
88.500000 6.556712
88.500000 6.669920
88.500000 6.783969
88.500000 6.898860
88.500000 7.014593
88.500000 7.131167
88.500000 7.248583
88.500000 7.366841
88.500000 7.485941
88.500000 7.605882
88.500000 7.726665
88.500000 7.848289
88.500000 7.970755
88.500000 8.094063
88.500000 8.218213
88.500000 8.343204
88.500000 8.469037
88.500000 8.595712
88.500000 8.723228
88.500000 8.851586
88.500000 8.980786
88.500000 9.110827
88.500000 9.241711
88.500000 9.373435
88.500000 9.506002
88.500000 9.639410
88.500000 9.773660
88.500000 9.908752
88.500000 10.044685
88.500000 10.181460
88.500000 10.319077
88.500000 10.457535
88.500000 10.596835
88.500000 10.736977
88.500000 10.877960
88.500000 11.019785
88.500000 11.162452
88.500000 11.305961
88.500000 11.450311
88.500000 11.595503
88.500000 11.741536
88.500000 11.888412
88.500000 12.036129
88.500000 12.184687
88.500000 12.334088
88.500000 12.484330
88.500000 12.635414
88.500000 12.787339
88.500000 12.940106
88.500000 13.093715
88.500000 13.248165
88.500000 13.403458
88.500000 13.559592
88.500000 13.716567
88.500000 13.874384
88.500000 14.033043
88.500000 14.192544
88.500000 14.352886
88.500000 14.514070
88.500000 14.676096
88.500000 14.838964
88.500000 15.002673
88.500000 15.167224
88.500000 15.332616
88.500000 15.498850
88.500000 15.665926
88.500000 15.833844
88.500000 16.002603
88.500000 16.172204
88.500000 16.342647
88.500000 16.513931
88.500000 16.686057
88.500000 16.859025
88.500000 17.032834
88.500000 17.207485
88.500000 17.382978
88.500000 17.559313
88.500000 17.736489
88.500000 17.914507
88.500000 18.093367
88.500000 18.273068
88.500000 18.453611
88.500000 18.634995
88.500000 18.817222
88.500000 19.000290
88.500000 19.184200
88.500000 19.368951
88.500000 19.554544
88.500000 19.740979
88.500000 19.928255
88.500000 20.116374
88.500000 20.305334
88.500000 20.495135
88.500000 20.685778
88.500000 20.877263
88.500000 21.069590
88.500000 21.262758
88.500000 21.456769
88.500000 21.651620
88.500000 21.847314
88.500000 22.043849
88.500000 22.241226
88.500000 22.439444
88.500000 22.638504
88.500000 22.838406
88.500000 23.039150
88.500000 23.240735
88.500000 23.443162
88.500000 23.646431
88.500000 23.850541
88.500000 24.055493
88.500000 24.261287
88.500000 24.467922
88.500000 24.675399
88.500000 24.883718
88.500000 25.092879
88.500000 25.302881
88.500000 25.513725
88.500000 25.725410
88.500000 25.937938
88.500000 26.151307
88.500000 26.365517
88.500000 26.580570
88.500000 26.796464
88.500000 27.013200
88.500000 27.230777
88.500000 27.449196
88.500000 27.668457
88.500000 27.888559
88.500000 28.109504
88.500000 28.331289
88.500000 28.553917
88.500000 28.777386
88.500000 29.001697
88.500000 29.226850
88.500000 29.452844
88.500000 29.679680
88.500000 29.907358
88.500000 30.135878
88.500000 30.365239
88.500000 30.595441
88.500000 30.826486
88.500000 31.058372
88.500000 31.291100
88.500000 31.524670
88.500000 31.759081
88.500000 31.994334
88.500000 32.230429
88.500000 32.467365
88.500000 32.705143
88.500000 32.943763
88.500000 33.183224
88.500000 33.423527
88.500000 33.664672
88.500000 33.906659
88.500000 34.149487
88.500000 34.393157
88.500000 34.637668
88.500000 34.883022
88.500000 35.129216
88.500000 35.376253
88.500000 35.624131
88.500000 35.872852
88.500000 36.122413
88.500000 36.372817
88.500000 36.624062
88.500000 36.876149
88.500000 37.129077
88.500000 37.382847
88.500000 37.637459
88.500000 37.892913
88.500000 38.149208
88.500000 38.406345
88.500000 38.664324
88.500000 38.923144
88.500000 39.182806
88.500000 39.443310
88.500000 39.704655
88.500000 39.966842
88.500000 40.229871
88.500000 40.493742
88.500000 40.758454
88.500000 41.024008
88.500000 41.290403
88.500000 41.557641
88.500000 41.825720
88.500000 42.094640
88.500000 42.364403
88.500000 42.635007
88.500000 42.906452
88.500000 43.178740
88.500000 43.451869
88.500000 43.725840
88.500000 44.000652
88.500000 44.276306
88.500000 44.552802
88.500000 44.830140
88.500000 45.108319
88.500000 45.387340
88.500000 45.667203
88.500000 45.947907
88.500000 46.229453
88.500000 46.511841
88.500000 46.795070
88.500000 47.079141
88.500000 47.364054
88.500000 47.649809
88.500000 47.936405
88.500000 48.223843
88.500000 48.512122
88.500000 48.801244
88.500000 49.091207
88.500000 49.382011
88.500000 49.673658
88.500000 49.966146
88.500000 50.259475
88.500000 50.553647
88.500000 50.848660
88.500000 51.144515
88.500000 51.441211
88.500000 51.738749
88.500000 52.037129
88.500000 52.336351
88.500000 52.636414
88.500000 52.937319
88.500000 53.239066
88.500000 53.541654
88.500000 53.845084
88.500000 54.149356
88.500000 54.454469
88.500000 54.760424
88.500000 55.067221
88.500000 55.374860
88.500000 55.683340
88.500000 55.992662
88.500000 56.302825
88.500000 56.613831
88.500000 56.925677
88.500000 57.238366
88.500000 57.551896
88.500000 57.866268
88.500000 58.181482
88.500000 58.497538
88.500000 58.814435
88.500000 59.132174
88.500000 59.450754
88.500000 59.770176
88.500000 60.090440
88.500000 60.411546
88.500000 60.733493
88.500000 61.056282
88.500000 61.379913
88.500000 61.704385
88.500000 62.029699
88.500000 62.355855
88.500000 62.682852
88.500000 63.010691
88.500000 63.339372
88.500000 63.668894
88.500000 63.999259
88.500000 64.330465
88.500000 64.662512
88.500000 64.995401
88.500000 65.329132
88.500000 65.663705
88.500000 65.999119
88.500000 66.335375
88.500000 66.672473
88.500000 67.010412
88.500000 67.349194
88.500000 67.688816
88.500000 68.029281
88.500000 68.370587
88.500000 68.712735
88.500000 69.055724
88.500000 69.399556
88.500000 69.744229
88.500000 70.089743
88.500000 70.436100
88.500000 70.783298
88.500000 71.131337
88.500000 71.480219
88.500000 71.829942
88.500000 72.180507
88.500000 72.531913
88.500000 72.884161
88.500000 73.237251
88.500000 73.591183
88.500000 73.945956
88.500000 74.301571
88.500000 74.658028
88.500000 75.015326
88.500000 75.373466
88.500000 75.732448
88.500000 76.092271
88.500000 76.452936
88.500000 76.814443
88.500000 77.176792
88.500000 77.539982
88.500000 77.904014
88.500000 78.268887
88.500000 78.634602
88.500000 79.001159
88.500000 79.368558
88.500000 79.736798
88.500000 80.105880
88.500000 80.475804
88.500000 80.846570
88.500000 81.218177
88.500000 81.590625
88.500000 81.963916
88.500000 82.338048
88.500000 82.713022
88.500000 83.088838
88.500000 83.465495
88.500000 83.842994
88.500000 84.221334
88.500000 84.600517
88.500000 84.980541
88.500000 85.361406
88.500000 85.743114
88.500000 86.125663
88.500000 86.509054
88.500000 86.893286
88.500000 87.278360
88.500000 87.664276
88.500000 88.051034
88.500000 88.438633
88.500000 88.827074
88.500000 89.216357
88.500000 89.606481
88.500000 89.997447
88.500000 90.389255
88.500000 90.781904
88.500000 91.175395
88.500000 91.569728
88.500000 91.964903
88.500000 92.360919
88.500000 92.757777
88.500000 93.155476
88.500000 93.554017
88.500000 93.953400
88.500000 94.353625
88.500000 94.754691
88.500000 95.156599
88.500000 95.559349
88.500000 95.962940
88.500000 96.367374
88.500000 96.772648
88.500000 97.178765
88.500000 97.585723
88.500000 97.993523
88.500000 98.402164
88.500000 98.811648
88.500000 99.221973
88.500000 99.633139
88.500000 100.045148
88.500000 100.457998
88.500000 100.871689
88.500000 101.286223
88.500000 101.701598
88.500000 102.117815
88.500000 102.534873
88.500000 102.952773
88.500000 103.371515
88.500000 103.791099
88.500000 104.211524
88.500000 104.632791
88.500000 105.054900
88.500000 105.477850
88.500000 105.901642
88.500000 106.326276
88.500000 106.751751
88.500000 107.178068
88.500000 107.605227
88.500000 108.033227
88.500000 108.462070
88.500000 108.891753
88.500000 109.322279
88.500000 109.753646
88.500000 110.185855
88.500000 110.618906
88.500000 111.052798
88.500000 111.487532
88.500000 111.923108
88.500000 112.359525
88.500000 112.796784
88.500000 113.234885
88.500000 113.673828
88.500000 114.113612
88.500000 114.554238
88.500000 114.995705
88.500000 115.438014
88.500000 115.881165
88.500000 116.325158
88.500000 116.769992
88.500000 117.215668
88.500000 117.662186
88.500000 118.109545
88.500000 118.557746
88.500000 119.006789
88.500000 119.456674
88.500000 119.907400
88.500000 120.358968
88.500000 120.811377
88.500000 121.264629
88.500000 121.718722
88.500000 122.173656
88.500000 122.629432
88.500000 123.086050
88.500000 123.543510
88.500000 124.001812
88.500000 124.460955
88.500000 124.920939
88.500000 125.381766
88.500000 125.843434
88.500000 126.305944
88.500000 126.769296
88.500000 127.233489
88.500000 127.698524
88.500000 128.164400
88.500000 128.631119
88.500000 129.098679
88.500000 129.567080
88.500000 130.036324
88.500000 130.506409
88.500000 130.977336
88.500000 131.449104
88.500000 131.921714
88.500000 132.395166
88.500000 132.869460
88.500000 133.344595
88.500000 133.820572
88.500000 134.297390
88.500000 134.775051
88.500000 135.253553
88.500000 135.732897
88.500000 136.213082
88.500000 136.694109
88.500000 137.175978
88.500000 137.658688
88.500000 138.142240
88.500000 138.626634
88.500000 139.111870
88.500000 139.597947
88.500000 140.084866
88.500000 140.572627
88.500000 141.061229
88.500000 141.550673
88.500000 142.040959
88.500000 142.532086
88.500000 143.024055
88.500000 143.516866
88.500000 144.010518
88.500000 144.505013
88.500000 145.000348
88.500000 145.496526
88.500000 145.993545
88.500000 146.491406
88.500000 146.990109
88.500000 147.489653
88.500000 147.990039
88.500000 148.491267
88.500000 148.993336
88.500000 149.496247
88.500000 150.000000
</POINTS>
</NEKTAR>

