<?xml version="1.0" encoding="utf-8" ?>
<NEKTAR>
<POINTS DIM="2" FIELDS="">
883.500000 -1.000000
883.500000 -0.999579
883.500000 -0.998317
883.500000 -0.996212
883.500000 -0.993266
883.500000 -0.989479
883.500000 -0.984850
883.500000 -0.979379
883.500000 -0.973066
883.500000 -0.965911
883.500000 -0.957915
883.500000 -0.949078
883.500000 -0.939398
883.500000 -0.928877
883.500000 -0.917514
883.500000 -0.905310
883.500000 -0.892263
883.500000 -0.878375
883.500000 -0.863646
883.500000 -0.848075
883.500000 -0.831662
883.500000 -0.814407
883.500000 -0.796310
883.500000 -0.777372
883.500000 -0.757593
883.500000 -0.736971
883.500000 -0.715508
883.500000 -0.693203
883.500000 -0.670057
883.500000 -0.646068
883.500000 -0.621239
883.500000 -0.595567
883.500000 -0.569054
883.500000 -0.541699
883.500000 -0.513502
883.500000 -0.484464
883.500000 -0.454583
883.500000 -0.423862
883.500000 -0.392298
883.500000 -0.359893
883.500000 -0.326646
883.500000 -0.292558
883.500000 -0.257627
883.500000 -0.221856
883.500000 -0.185242
883.500000 -0.147787
883.500000 -0.109490
883.500000 -0.070351
883.500000 -0.030371
883.500000 0.010451
883.500000 0.052115
883.500000 0.094621
883.500000 0.137968
883.500000 0.182157
883.500000 0.227187
883.500000 0.273059
883.500000 0.319773
883.500000 0.367329
883.500000 0.415726
883.500000 0.464965
883.500000 0.515046
883.500000 0.565968
883.500000 0.617732
883.500000 0.670338
883.500000 0.723786
883.500000 0.778075
883.500000 0.833206
883.500000 0.889178
883.500000 0.945992
883.500000 1.003648
883.500000 1.062146
883.500000 1.121485
883.500000 1.181666
883.500000 1.242689
883.500000 1.304553
883.500000 1.367259
883.500000 1.430807
883.500000 1.495197
883.500000 1.560428
883.500000 1.626500
883.500000 1.693415
883.500000 1.761171
883.500000 1.829769
883.500000 1.899209
883.500000 1.969490
883.500000 2.040613
883.500000 2.112578
883.500000 2.185384
883.500000 2.259032
883.500000 2.333522
883.500000 2.408853
883.500000 2.485027
883.500000 2.562041
883.500000 2.639898
883.500000 2.718596
883.500000 2.798136
883.500000 2.878518
883.500000 2.959741
883.500000 3.041806
883.500000 3.124713
883.500000 3.208461
883.500000 3.293051
883.500000 3.378483
883.500000 3.464756
883.500000 3.551871
883.500000 3.639828
883.500000 3.728627
883.500000 3.818267
883.500000 3.908749
883.500000 4.000072
883.500000 4.092238
883.500000 4.185245
883.500000 4.279093
883.500000 4.373784
883.500000 4.469316
883.500000 4.565690
883.500000 4.662905
883.500000 4.760962
883.500000 4.859861
883.500000 4.959602
883.500000 5.060184
883.500000 5.161608
883.500000 5.263873
883.500000 5.366981
883.500000 5.470930
883.500000 5.575720
883.500000 5.681353
883.500000 5.787827
883.500000 5.895142
883.500000 6.003300
883.500000 6.112299
883.500000 6.222140
883.500000 6.332822
883.500000 6.444347
883.500000 6.556712
883.500000 6.669920
883.500000 6.783969
883.500000 6.898860
883.500000 7.014593
883.500000 7.131167
883.500000 7.248583
883.500000 7.366841
883.500000 7.485941
883.500000 7.605882
883.500000 7.726665
883.500000 7.848289
883.500000 7.970755
883.500000 8.094063
883.500000 8.218213
883.500000 8.343204
883.500000 8.469037
883.500000 8.595712
883.500000 8.723228
883.500000 8.851586
883.500000 8.980786
883.500000 9.110827
883.500000 9.241711
883.500000 9.373435
883.500000 9.506002
883.500000 9.639410
883.500000 9.773660
883.500000 9.908752
883.500000 10.044685
883.500000 10.181460
883.500000 10.319077
883.500000 10.457535
883.500000 10.596835
883.500000 10.736977
883.500000 10.877960
883.500000 11.019785
883.500000 11.162452
883.500000 11.305961
883.500000 11.450311
883.500000 11.595503
883.500000 11.741536
883.500000 11.888412
883.500000 12.036129
883.500000 12.184687
883.500000 12.334088
883.500000 12.484330
883.500000 12.635414
883.500000 12.787339
883.500000 12.940106
883.500000 13.093715
883.500000 13.248165
883.500000 13.403458
883.500000 13.559592
883.500000 13.716567
883.500000 13.874384
883.500000 14.033043
883.500000 14.192544
883.500000 14.352886
883.500000 14.514070
883.500000 14.676096
883.500000 14.838964
883.500000 15.002673
883.500000 15.167224
883.500000 15.332616
883.500000 15.498850
883.500000 15.665926
883.500000 15.833844
883.500000 16.002603
883.500000 16.172204
883.500000 16.342647
883.500000 16.513931
883.500000 16.686057
883.500000 16.859025
883.500000 17.032834
883.500000 17.207485
883.500000 17.382978
883.500000 17.559313
883.500000 17.736489
883.500000 17.914507
883.500000 18.093367
883.500000 18.273068
883.500000 18.453611
883.500000 18.634995
883.500000 18.817222
883.500000 19.000290
883.500000 19.184200
883.500000 19.368951
883.500000 19.554544
883.500000 19.740979
883.500000 19.928255
883.500000 20.116374
883.500000 20.305334
883.500000 20.495135
883.500000 20.685778
883.500000 20.877263
883.500000 21.069590
883.500000 21.262758
883.500000 21.456769
883.500000 21.651620
883.500000 21.847314
883.500000 22.043849
883.500000 22.241226
883.500000 22.439444
883.500000 22.638504
883.500000 22.838406
883.500000 23.039150
883.500000 23.240735
883.500000 23.443162
883.500000 23.646431
883.500000 23.850541
883.500000 24.055493
883.500000 24.261287
883.500000 24.467922
883.500000 24.675399
883.500000 24.883718
883.500000 25.092879
883.500000 25.302881
883.500000 25.513725
883.500000 25.725410
883.500000 25.937938
883.500000 26.151307
883.500000 26.365517
883.500000 26.580570
883.500000 26.796464
883.500000 27.013200
883.500000 27.230777
883.500000 27.449196
883.500000 27.668457
883.500000 27.888559
883.500000 28.109504
883.500000 28.331289
883.500000 28.553917
883.500000 28.777386
883.500000 29.001697
883.500000 29.226850
883.500000 29.452844
883.500000 29.679680
883.500000 29.907358
883.500000 30.135878
883.500000 30.365239
883.500000 30.595441
883.500000 30.826486
883.500000 31.058372
883.500000 31.291100
883.500000 31.524670
883.500000 31.759081
883.500000 31.994334
883.500000 32.230429
883.500000 32.467365
883.500000 32.705143
883.500000 32.943763
883.500000 33.183224
883.500000 33.423527
883.500000 33.664672
883.500000 33.906659
883.500000 34.149487
883.500000 34.393157
883.500000 34.637668
883.500000 34.883022
883.500000 35.129216
883.500000 35.376253
883.500000 35.624131
883.500000 35.872852
883.500000 36.122413
883.500000 36.372817
883.500000 36.624062
883.500000 36.876149
883.500000 37.129077
883.500000 37.382847
883.500000 37.637459
883.500000 37.892913
883.500000 38.149208
883.500000 38.406345
883.500000 38.664324
883.500000 38.923144
883.500000 39.182806
883.500000 39.443310
883.500000 39.704655
883.500000 39.966842
883.500000 40.229871
883.500000 40.493742
883.500000 40.758454
883.500000 41.024008
883.500000 41.290403
883.500000 41.557641
883.500000 41.825720
883.500000 42.094640
883.500000 42.364403
883.500000 42.635007
883.500000 42.906452
883.500000 43.178740
883.500000 43.451869
883.500000 43.725840
883.500000 44.000652
883.500000 44.276306
883.500000 44.552802
883.500000 44.830140
883.500000 45.108319
883.500000 45.387340
883.500000 45.667203
883.500000 45.947907
883.500000 46.229453
883.500000 46.511841
883.500000 46.795070
883.500000 47.079141
883.500000 47.364054
883.500000 47.649809
883.500000 47.936405
883.500000 48.223843
883.500000 48.512122
883.500000 48.801244
883.500000 49.091207
883.500000 49.382011
883.500000 49.673658
883.500000 49.966146
883.500000 50.259475
883.500000 50.553647
883.500000 50.848660
883.500000 51.144515
883.500000 51.441211
883.500000 51.738749
883.500000 52.037129
883.500000 52.336351
883.500000 52.636414
883.500000 52.937319
883.500000 53.239066
883.500000 53.541654
883.500000 53.845084
883.500000 54.149356
883.500000 54.454469
883.500000 54.760424
883.500000 55.067221
883.500000 55.374860
883.500000 55.683340
883.500000 55.992662
883.500000 56.302825
883.500000 56.613831
883.500000 56.925677
883.500000 57.238366
883.500000 57.551896
883.500000 57.866268
883.500000 58.181482
883.500000 58.497538
883.500000 58.814435
883.500000 59.132174
883.500000 59.450754
883.500000 59.770176
883.500000 60.090440
883.500000 60.411546
883.500000 60.733493
883.500000 61.056282
883.500000 61.379913
883.500000 61.704385
883.500000 62.029699
883.500000 62.355855
883.500000 62.682852
883.500000 63.010691
883.500000 63.339372
883.500000 63.668894
883.500000 63.999259
883.500000 64.330465
883.500000 64.662512
883.500000 64.995401
883.500000 65.329132
883.500000 65.663705
883.500000 65.999119
883.500000 66.335375
883.500000 66.672473
883.500000 67.010412
883.500000 67.349194
883.500000 67.688816
883.500000 68.029281
883.500000 68.370587
883.500000 68.712735
883.500000 69.055724
883.500000 69.399556
883.500000 69.744229
883.500000 70.089743
883.500000 70.436100
883.500000 70.783298
883.500000 71.131337
883.500000 71.480219
883.500000 71.829942
883.500000 72.180507
883.500000 72.531913
883.500000 72.884161
883.500000 73.237251
883.500000 73.591183
883.500000 73.945956
883.500000 74.301571
883.500000 74.658028
883.500000 75.015326
883.500000 75.373466
883.500000 75.732448
883.500000 76.092271
883.500000 76.452936
883.500000 76.814443
883.500000 77.176792
883.500000 77.539982
883.500000 77.904014
883.500000 78.268887
883.500000 78.634602
883.500000 79.001159
883.500000 79.368558
883.500000 79.736798
883.500000 80.105880
883.500000 80.475804
883.500000 80.846570
883.500000 81.218177
883.500000 81.590625
883.500000 81.963916
883.500000 82.338048
883.500000 82.713022
883.500000 83.088838
883.500000 83.465495
883.500000 83.842994
883.500000 84.221334
883.500000 84.600517
883.500000 84.980541
883.500000 85.361406
883.500000 85.743114
883.500000 86.125663
883.500000 86.509054
883.500000 86.893286
883.500000 87.278360
883.500000 87.664276
883.500000 88.051034
883.500000 88.438633
883.500000 88.827074
883.500000 89.216357
883.500000 89.606481
883.500000 89.997447
883.500000 90.389255
883.500000 90.781904
883.500000 91.175395
883.500000 91.569728
883.500000 91.964903
883.500000 92.360919
883.500000 92.757777
883.500000 93.155476
883.500000 93.554017
883.500000 93.953400
883.500000 94.353625
883.500000 94.754691
883.500000 95.156599
883.500000 95.559349
883.500000 95.962940
883.500000 96.367374
883.500000 96.772648
883.500000 97.178765
883.500000 97.585723
883.500000 97.993523
883.500000 98.402164
883.500000 98.811648
883.500000 99.221973
883.500000 99.633139
883.500000 100.045148
883.500000 100.457998
883.500000 100.871689
883.500000 101.286223
883.500000 101.701598
883.500000 102.117815
883.500000 102.534873
883.500000 102.952773
883.500000 103.371515
883.500000 103.791099
883.500000 104.211524
883.500000 104.632791
883.500000 105.054900
883.500000 105.477850
883.500000 105.901642
883.500000 106.326276
883.500000 106.751751
883.500000 107.178068
883.500000 107.605227
883.500000 108.033227
883.500000 108.462070
883.500000 108.891753
883.500000 109.322279
883.500000 109.753646
883.500000 110.185855
883.500000 110.618906
883.500000 111.052798
883.500000 111.487532
883.500000 111.923108
883.500000 112.359525
883.500000 112.796784
883.500000 113.234885
883.500000 113.673828
883.500000 114.113612
883.500000 114.554238
883.500000 114.995705
883.500000 115.438014
883.500000 115.881165
883.500000 116.325158
883.500000 116.769992
883.500000 117.215668
883.500000 117.662186
883.500000 118.109545
883.500000 118.557746
883.500000 119.006789
883.500000 119.456674
883.500000 119.907400
883.500000 120.358968
883.500000 120.811377
883.500000 121.264629
883.500000 121.718722
883.500000 122.173656
883.500000 122.629432
883.500000 123.086050
883.500000 123.543510
883.500000 124.001812
883.500000 124.460955
883.500000 124.920939
883.500000 125.381766
883.500000 125.843434
883.500000 126.305944
883.500000 126.769296
883.500000 127.233489
883.500000 127.698524
883.500000 128.164400
883.500000 128.631119
883.500000 129.098679
883.500000 129.567080
883.500000 130.036324
883.500000 130.506409
883.500000 130.977336
883.500000 131.449104
883.500000 131.921714
883.500000 132.395166
883.500000 132.869460
883.500000 133.344595
883.500000 133.820572
883.500000 134.297390
883.500000 134.775051
883.500000 135.253553
883.500000 135.732897
883.500000 136.213082
883.500000 136.694109
883.500000 137.175978
883.500000 137.658688
883.500000 138.142240
883.500000 138.626634
883.500000 139.111870
883.500000 139.597947
883.500000 140.084866
883.500000 140.572627
883.500000 141.061229
883.500000 141.550673
883.500000 142.040959
883.500000 142.532086
883.500000 143.024055
883.500000 143.516866
883.500000 144.010518
883.500000 144.505013
883.500000 145.000348
883.500000 145.496526
883.500000 145.993545
883.500000 146.491406
883.500000 146.990109
883.500000 147.489653
883.500000 147.990039
883.500000 148.491267
883.500000 148.993336
883.500000 149.496247
883.500000 150.000000
</POINTS>
</NEKTAR>

