<?xml version="1.0" encoding="utf-8" ?>
<NEKTAR>
<POINTS DIM="2" FIELDS="">
243.500000 -1.000000
243.500000 -0.999579
243.500000 -0.998317
243.500000 -0.996212
243.500000 -0.993266
243.500000 -0.989479
243.500000 -0.984850
243.500000 -0.979379
243.500000 -0.973066
243.500000 -0.965911
243.500000 -0.957915
243.500000 -0.949078
243.500000 -0.939398
243.500000 -0.928877
243.500000 -0.917514
243.500000 -0.905310
243.500000 -0.892263
243.500000 -0.878375
243.500000 -0.863646
243.500000 -0.848075
243.500000 -0.831662
243.500000 -0.814407
243.500000 -0.796310
243.500000 -0.777372
243.500000 -0.757593
243.500000 -0.736971
243.500000 -0.715508
243.500000 -0.693203
243.500000 -0.670057
243.500000 -0.646068
243.500000 -0.621239
243.500000 -0.595567
243.500000 -0.569054
243.500000 -0.541699
243.500000 -0.513502
243.500000 -0.484464
243.500000 -0.454583
243.500000 -0.423862
243.500000 -0.392298
243.500000 -0.359893
243.500000 -0.326646
243.500000 -0.292558
243.500000 -0.257627
243.500000 -0.221856
243.500000 -0.185242
243.500000 -0.147787
243.500000 -0.109490
243.500000 -0.070351
243.500000 -0.030371
243.500000 0.010451
243.500000 0.052115
243.500000 0.094621
243.500000 0.137968
243.500000 0.182157
243.500000 0.227187
243.500000 0.273059
243.500000 0.319773
243.500000 0.367329
243.500000 0.415726
243.500000 0.464965
243.500000 0.515046
243.500000 0.565968
243.500000 0.617732
243.500000 0.670338
243.500000 0.723786
243.500000 0.778075
243.500000 0.833206
243.500000 0.889178
243.500000 0.945992
243.500000 1.003648
243.500000 1.062146
243.500000 1.121485
243.500000 1.181666
243.500000 1.242689
243.500000 1.304553
243.500000 1.367259
243.500000 1.430807
243.500000 1.495197
243.500000 1.560428
243.500000 1.626500
243.500000 1.693415
243.500000 1.761171
243.500000 1.829769
243.500000 1.899209
243.500000 1.969490
243.500000 2.040613
243.500000 2.112578
243.500000 2.185384
243.500000 2.259032
243.500000 2.333522
243.500000 2.408853
243.500000 2.485027
243.500000 2.562041
243.500000 2.639898
243.500000 2.718596
243.500000 2.798136
243.500000 2.878518
243.500000 2.959741
243.500000 3.041806
243.500000 3.124713
243.500000 3.208461
243.500000 3.293051
243.500000 3.378483
243.500000 3.464756
243.500000 3.551871
243.500000 3.639828
243.500000 3.728627
243.500000 3.818267
243.500000 3.908749
243.500000 4.000072
243.500000 4.092238
243.500000 4.185245
243.500000 4.279093
243.500000 4.373784
243.500000 4.469316
243.500000 4.565690
243.500000 4.662905
243.500000 4.760962
243.500000 4.859861
243.500000 4.959602
243.500000 5.060184
243.500000 5.161608
243.500000 5.263873
243.500000 5.366981
243.500000 5.470930
243.500000 5.575720
243.500000 5.681353
243.500000 5.787827
243.500000 5.895142
243.500000 6.003300
243.500000 6.112299
243.500000 6.222140
243.500000 6.332822
243.500000 6.444347
243.500000 6.556712
243.500000 6.669920
243.500000 6.783969
243.500000 6.898860
243.500000 7.014593
243.500000 7.131167
243.500000 7.248583
243.500000 7.366841
243.500000 7.485941
243.500000 7.605882
243.500000 7.726665
243.500000 7.848289
243.500000 7.970755
243.500000 8.094063
243.500000 8.218213
243.500000 8.343204
243.500000 8.469037
243.500000 8.595712
243.500000 8.723228
243.500000 8.851586
243.500000 8.980786
243.500000 9.110827
243.500000 9.241711
243.500000 9.373435
243.500000 9.506002
243.500000 9.639410
243.500000 9.773660
243.500000 9.908752
243.500000 10.044685
243.500000 10.181460
243.500000 10.319077
243.500000 10.457535
243.500000 10.596835
243.500000 10.736977
243.500000 10.877960
243.500000 11.019785
243.500000 11.162452
243.500000 11.305961
243.500000 11.450311
243.500000 11.595503
243.500000 11.741536
243.500000 11.888412
243.500000 12.036129
243.500000 12.184687
243.500000 12.334088
243.500000 12.484330
243.500000 12.635414
243.500000 12.787339
243.500000 12.940106
243.500000 13.093715
243.500000 13.248165
243.500000 13.403458
243.500000 13.559592
243.500000 13.716567
243.500000 13.874384
243.500000 14.033043
243.500000 14.192544
243.500000 14.352886
243.500000 14.514070
243.500000 14.676096
243.500000 14.838964
243.500000 15.002673
243.500000 15.167224
243.500000 15.332616
243.500000 15.498850
243.500000 15.665926
243.500000 15.833844
243.500000 16.002603
243.500000 16.172204
243.500000 16.342647
243.500000 16.513931
243.500000 16.686057
243.500000 16.859025
243.500000 17.032834
243.500000 17.207485
243.500000 17.382978
243.500000 17.559313
243.500000 17.736489
243.500000 17.914507
243.500000 18.093367
243.500000 18.273068
243.500000 18.453611
243.500000 18.634995
243.500000 18.817222
243.500000 19.000290
243.500000 19.184200
243.500000 19.368951
243.500000 19.554544
243.500000 19.740979
243.500000 19.928255
243.500000 20.116374
243.500000 20.305334
243.500000 20.495135
243.500000 20.685778
243.500000 20.877263
243.500000 21.069590
243.500000 21.262758
243.500000 21.456769
243.500000 21.651620
243.500000 21.847314
243.500000 22.043849
243.500000 22.241226
243.500000 22.439444
243.500000 22.638504
243.500000 22.838406
243.500000 23.039150
243.500000 23.240735
243.500000 23.443162
243.500000 23.646431
243.500000 23.850541
243.500000 24.055493
243.500000 24.261287
243.500000 24.467922
243.500000 24.675399
243.500000 24.883718
243.500000 25.092879
243.500000 25.302881
243.500000 25.513725
243.500000 25.725410
243.500000 25.937938
243.500000 26.151307
243.500000 26.365517
243.500000 26.580570
243.500000 26.796464
243.500000 27.013200
243.500000 27.230777
243.500000 27.449196
243.500000 27.668457
243.500000 27.888559
243.500000 28.109504
243.500000 28.331289
243.500000 28.553917
243.500000 28.777386
243.500000 29.001697
243.500000 29.226850
243.500000 29.452844
243.500000 29.679680
243.500000 29.907358
243.500000 30.135878
243.500000 30.365239
243.500000 30.595441
243.500000 30.826486
243.500000 31.058372
243.500000 31.291100
243.500000 31.524670
243.500000 31.759081
243.500000 31.994334
243.500000 32.230429
243.500000 32.467365
243.500000 32.705143
243.500000 32.943763
243.500000 33.183224
243.500000 33.423527
243.500000 33.664672
243.500000 33.906659
243.500000 34.149487
243.500000 34.393157
243.500000 34.637668
243.500000 34.883022
243.500000 35.129216
243.500000 35.376253
243.500000 35.624131
243.500000 35.872852
243.500000 36.122413
243.500000 36.372817
243.500000 36.624062
243.500000 36.876149
243.500000 37.129077
243.500000 37.382847
243.500000 37.637459
243.500000 37.892913
243.500000 38.149208
243.500000 38.406345
243.500000 38.664324
243.500000 38.923144
243.500000 39.182806
243.500000 39.443310
243.500000 39.704655
243.500000 39.966842
243.500000 40.229871
243.500000 40.493742
243.500000 40.758454
243.500000 41.024008
243.500000 41.290403
243.500000 41.557641
243.500000 41.825720
243.500000 42.094640
243.500000 42.364403
243.500000 42.635007
243.500000 42.906452
243.500000 43.178740
243.500000 43.451869
243.500000 43.725840
243.500000 44.000652
243.500000 44.276306
243.500000 44.552802
243.500000 44.830140
243.500000 45.108319
243.500000 45.387340
243.500000 45.667203
243.500000 45.947907
243.500000 46.229453
243.500000 46.511841
243.500000 46.795070
243.500000 47.079141
243.500000 47.364054
243.500000 47.649809
243.500000 47.936405
243.500000 48.223843
243.500000 48.512122
243.500000 48.801244
243.500000 49.091207
243.500000 49.382011
243.500000 49.673658
243.500000 49.966146
243.500000 50.259475
243.500000 50.553647
243.500000 50.848660
243.500000 51.144515
243.500000 51.441211
243.500000 51.738749
243.500000 52.037129
243.500000 52.336351
243.500000 52.636414
243.500000 52.937319
243.500000 53.239066
243.500000 53.541654
243.500000 53.845084
243.500000 54.149356
243.500000 54.454469
243.500000 54.760424
243.500000 55.067221
243.500000 55.374860
243.500000 55.683340
243.500000 55.992662
243.500000 56.302825
243.500000 56.613831
243.500000 56.925677
243.500000 57.238366
243.500000 57.551896
243.500000 57.866268
243.500000 58.181482
243.500000 58.497538
243.500000 58.814435
243.500000 59.132174
243.500000 59.450754
243.500000 59.770176
243.500000 60.090440
243.500000 60.411546
243.500000 60.733493
243.500000 61.056282
243.500000 61.379913
243.500000 61.704385
243.500000 62.029699
243.500000 62.355855
243.500000 62.682852
243.500000 63.010691
243.500000 63.339372
243.500000 63.668894
243.500000 63.999259
243.500000 64.330465
243.500000 64.662512
243.500000 64.995401
243.500000 65.329132
243.500000 65.663705
243.500000 65.999119
243.500000 66.335375
243.500000 66.672473
243.500000 67.010412
243.500000 67.349194
243.500000 67.688816
243.500000 68.029281
243.500000 68.370587
243.500000 68.712735
243.500000 69.055724
243.500000 69.399556
243.500000 69.744229
243.500000 70.089743
243.500000 70.436100
243.500000 70.783298
243.500000 71.131337
243.500000 71.480219
243.500000 71.829942
243.500000 72.180507
243.500000 72.531913
243.500000 72.884161
243.500000 73.237251
243.500000 73.591183
243.500000 73.945956
243.500000 74.301571
243.500000 74.658028
243.500000 75.015326
243.500000 75.373466
243.500000 75.732448
243.500000 76.092271
243.500000 76.452936
243.500000 76.814443
243.500000 77.176792
243.500000 77.539982
243.500000 77.904014
243.500000 78.268887
243.500000 78.634602
243.500000 79.001159
243.500000 79.368558
243.500000 79.736798
243.500000 80.105880
243.500000 80.475804
243.500000 80.846570
243.500000 81.218177
243.500000 81.590625
243.500000 81.963916
243.500000 82.338048
243.500000 82.713022
243.500000 83.088838
243.500000 83.465495
243.500000 83.842994
243.500000 84.221334
243.500000 84.600517
243.500000 84.980541
243.500000 85.361406
243.500000 85.743114
243.500000 86.125663
243.500000 86.509054
243.500000 86.893286
243.500000 87.278360
243.500000 87.664276
243.500000 88.051034
243.500000 88.438633
243.500000 88.827074
243.500000 89.216357
243.500000 89.606481
243.500000 89.997447
243.500000 90.389255
243.500000 90.781904
243.500000 91.175395
243.500000 91.569728
243.500000 91.964903
243.500000 92.360919
243.500000 92.757777
243.500000 93.155476
243.500000 93.554017
243.500000 93.953400
243.500000 94.353625
243.500000 94.754691
243.500000 95.156599
243.500000 95.559349
243.500000 95.962940
243.500000 96.367374
243.500000 96.772648
243.500000 97.178765
243.500000 97.585723
243.500000 97.993523
243.500000 98.402164
243.500000 98.811648
243.500000 99.221973
243.500000 99.633139
243.500000 100.045148
243.500000 100.457998
243.500000 100.871689
243.500000 101.286223
243.500000 101.701598
243.500000 102.117815
243.500000 102.534873
243.500000 102.952773
243.500000 103.371515
243.500000 103.791099
243.500000 104.211524
243.500000 104.632791
243.500000 105.054900
243.500000 105.477850
243.500000 105.901642
243.500000 106.326276
243.500000 106.751751
243.500000 107.178068
243.500000 107.605227
243.500000 108.033227
243.500000 108.462070
243.500000 108.891753
243.500000 109.322279
243.500000 109.753646
243.500000 110.185855
243.500000 110.618906
243.500000 111.052798
243.500000 111.487532
243.500000 111.923108
243.500000 112.359525
243.500000 112.796784
243.500000 113.234885
243.500000 113.673828
243.500000 114.113612
243.500000 114.554238
243.500000 114.995705
243.500000 115.438014
243.500000 115.881165
243.500000 116.325158
243.500000 116.769992
243.500000 117.215668
243.500000 117.662186
243.500000 118.109545
243.500000 118.557746
243.500000 119.006789
243.500000 119.456674
243.500000 119.907400
243.500000 120.358968
243.500000 120.811377
243.500000 121.264629
243.500000 121.718722
243.500000 122.173656
243.500000 122.629432
243.500000 123.086050
243.500000 123.543510
243.500000 124.001812
243.500000 124.460955
243.500000 124.920939
243.500000 125.381766
243.500000 125.843434
243.500000 126.305944
243.500000 126.769296
243.500000 127.233489
243.500000 127.698524
243.500000 128.164400
243.500000 128.631119
243.500000 129.098679
243.500000 129.567080
243.500000 130.036324
243.500000 130.506409
243.500000 130.977336
243.500000 131.449104
243.500000 131.921714
243.500000 132.395166
243.500000 132.869460
243.500000 133.344595
243.500000 133.820572
243.500000 134.297390
243.500000 134.775051
243.500000 135.253553
243.500000 135.732897
243.500000 136.213082
243.500000 136.694109
243.500000 137.175978
243.500000 137.658688
243.500000 138.142240
243.500000 138.626634
243.500000 139.111870
243.500000 139.597947
243.500000 140.084866
243.500000 140.572627
243.500000 141.061229
243.500000 141.550673
243.500000 142.040959
243.500000 142.532086
243.500000 143.024055
243.500000 143.516866
243.500000 144.010518
243.500000 144.505013
243.500000 145.000348
243.500000 145.496526
243.500000 145.993545
243.500000 146.491406
243.500000 146.990109
243.500000 147.489653
243.500000 147.990039
243.500000 148.491267
243.500000 148.993336
243.500000 149.496247
243.500000 150.000000
</POINTS>
</NEKTAR>

