<?xml version="1.0" encoding="utf-8" ?>
<NEKTAR>
<POINTS DIM="2" FIELDS="">
183.500000 0.000000
183.500000 0.000418
183.500000 0.001672
183.500000 0.003763
183.500000 0.006689
183.500000 0.010451
183.500000 0.015050
183.500000 0.020485
183.500000 0.026756
183.500000 0.033863
183.500000 0.041806
183.500000 0.050585
183.500000 0.060201
183.500000 0.070652
183.500000 0.081940
183.500000 0.094063
183.500000 0.107023
183.500000 0.120819
183.500000 0.135451
183.500000 0.150919
183.500000 0.167224
183.500000 0.184364
183.500000 0.202341
183.500000 0.221153
183.500000 0.240802
183.500000 0.261287
183.500000 0.282608
183.500000 0.304765
183.500000 0.327758
183.500000 0.351588
183.500000 0.376253
183.500000 0.401755
183.500000 0.428092
183.500000 0.455266
183.500000 0.483276
183.500000 0.512122
183.500000 0.541805
183.500000 0.572323
183.500000 0.603677
183.500000 0.635868
183.500000 0.668894
183.500000 0.702757
183.500000 0.737456
183.500000 0.772991
183.500000 0.809362
183.500000 0.846570
183.500000 0.884613
183.500000 0.923492
183.500000 0.963208
183.500000 1.003760
183.500000 1.045148
183.500000 1.087372
183.500000 1.130432
183.500000 1.174328
183.500000 1.219060
183.500000 1.264629
183.500000 1.311033
183.500000 1.358274
183.500000 1.406351
183.500000 1.455264
183.500000 1.505013
183.500000 1.555598
183.500000 1.607019
183.500000 1.659276
183.500000 1.712370
183.500000 1.766299
183.500000 1.821065
183.500000 1.876667
183.500000 1.933105
183.500000 1.990379
183.500000 2.048489
183.500000 2.107436
183.500000 2.167218
183.500000 2.227837
183.500000 2.289291
183.500000 2.351582
183.500000 2.414709
183.500000 2.478672
183.500000 2.543471
183.500000 2.609106
183.500000 2.675578
183.500000 2.742885
183.500000 2.811029
183.500000 2.880009
183.500000 2.949825
183.500000 3.020477
183.500000 3.091965
183.500000 3.164289
183.500000 3.237449
183.500000 3.311446
183.500000 3.386278
183.500000 3.461947
183.500000 3.538452
183.500000 3.615793
183.500000 3.693970
183.500000 3.772983
183.500000 3.852832
183.500000 3.933517
183.500000 4.015039
183.500000 4.097397
183.500000 4.180590
183.500000 4.264620
183.500000 4.349486
183.500000 4.435188
183.500000 4.521727
183.500000 4.609101
183.500000 4.697311
183.500000 4.786358
183.500000 4.876241
183.500000 4.966959
183.500000 5.058514
183.500000 5.150905
183.500000 5.244133
183.500000 5.338196
183.500000 5.433095
183.500000 5.528831
183.500000 5.625402
183.500000 5.722810
183.500000 5.821054
183.500000 5.920134
183.500000 6.020050
183.500000 6.120802
183.500000 6.222391
183.500000 6.324815
183.500000 6.428076
183.500000 6.532172
183.500000 6.637105
183.500000 6.742874
183.500000 6.849479
183.500000 6.956920
183.500000 7.065198
183.500000 7.174311
183.500000 7.284261
183.500000 7.395046
183.500000 7.506668
183.500000 7.619126
183.500000 7.732420
183.500000 7.846550
183.500000 7.961516
183.500000 8.077319
183.500000 8.193957
183.500000 8.311432
183.500000 8.429742
183.500000 8.548889
183.500000 8.668872
183.500000 8.789691
183.500000 8.911346
183.500000 9.033838
183.500000 9.157165
183.500000 9.281329
183.500000 9.406328
183.500000 9.532164
183.500000 9.658836
183.500000 9.786344
183.500000 9.914688
183.500000 10.043868
183.500000 10.173885
183.500000 10.304737
183.500000 10.436426
183.500000 10.568950
183.500000 10.702311
183.500000 10.836508
183.500000 10.971541
183.500000 11.107411
183.500000 11.244116
183.500000 11.381657
183.500000 11.520035
183.500000 11.659248
183.500000 11.799298
183.500000 11.940184
183.500000 12.081906
183.500000 12.224464
183.500000 12.367859
183.500000 12.512089
183.500000 12.657155
183.500000 12.803058
183.500000 12.949797
183.500000 13.097372
183.500000 13.245782
183.500000 13.395030
183.500000 13.545113
183.500000 13.696032
183.500000 13.847787
183.500000 14.000379
183.500000 14.153807
183.500000 14.308070
183.500000 14.463170
183.500000 14.619106
183.500000 14.775879
183.500000 14.933487
183.500000 15.091931
183.500000 15.251212
183.500000 15.411328
183.500000 15.572281
183.500000 15.734070
183.500000 15.896695
183.500000 16.060156
183.500000 16.224453
183.500000 16.389586
183.500000 16.555556
183.500000 16.722361
183.500000 16.890003
183.500000 17.058481
183.500000 17.227795
183.500000 17.397945
183.500000 17.568931
183.500000 17.740753
183.500000 17.913412
183.500000 18.086906
183.500000 18.261237
183.500000 18.436403
183.500000 18.612406
183.500000 18.789245
183.500000 18.966920
183.500000 19.145432
183.500000 19.324779
183.500000 19.504962
183.500000 19.685982
183.500000 19.867838
183.500000 20.050529
183.500000 20.234057
183.500000 20.418421
183.500000 20.603622
183.500000 20.789658
183.500000 20.976530
183.500000 21.164239
183.500000 21.352783
183.500000 21.542164
183.500000 21.732381
183.500000 21.923434
183.500000 22.115323
183.500000 22.308048
183.500000 22.501610
183.500000 22.696007
183.500000 22.891241
183.500000 23.087310
183.500000 23.284216
183.500000 23.481958
183.500000 23.680536
183.500000 23.879950
183.500000 24.080200
183.500000 24.281287
183.500000 24.483209
183.500000 24.685968
183.500000 24.889563
183.500000 25.093994
183.500000 25.299261
183.500000 25.505364
183.500000 25.712303
183.500000 25.920078
183.500000 26.128690
183.500000 26.338137
183.500000 26.548421
183.500000 26.759541
183.500000 26.971497
183.500000 27.184289
183.500000 27.397917
183.500000 27.612381
183.500000 27.827682
183.500000 28.043818
183.500000 28.260791
183.500000 28.478600
183.500000 28.697244
183.500000 28.916725
183.500000 29.137043
183.500000 29.358196
183.500000 29.580185
183.500000 29.803011
183.500000 30.026672
183.500000 30.251170
183.500000 30.476504
183.500000 30.702674
183.500000 30.929680
183.500000 31.157522
183.500000 31.386200
183.500000 31.615715
183.500000 31.846065
183.500000 32.077252
183.500000 32.309275
183.500000 32.542133
183.500000 32.775828
183.500000 33.010360
183.500000 33.245727
183.500000 33.481930
183.500000 33.718970
183.500000 33.956845
183.500000 34.195557
183.500000 34.435105
183.500000 34.675489
183.500000 34.916709
183.500000 35.158765
183.500000 35.401657
183.500000 35.645386
183.500000 35.889950
183.500000 36.135351
183.500000 36.381588
183.500000 36.628660
183.500000 36.876569
183.500000 37.125315
183.500000 37.374896
183.500000 37.625313
183.500000 37.876567
183.500000 38.128656
183.500000 38.381582
183.500000 38.635344
183.500000 38.889942
183.500000 39.145376
183.500000 39.401646
183.500000 39.658752
183.500000 39.916695
183.500000 40.175473
183.500000 40.435088
183.500000 40.695539
183.500000 40.956826
183.500000 41.218949
183.500000 41.481908
183.500000 41.745703
183.500000 42.010334
183.500000 42.275802
183.500000 42.542106
183.500000 42.809245
183.500000 43.077221
183.500000 43.346033
183.500000 43.615681
183.500000 43.886165
183.500000 44.157486
183.500000 44.429642
183.500000 44.702635
183.500000 44.976463
183.500000 45.251128
183.500000 45.526629
183.500000 45.802966
183.500000 46.080139
183.500000 46.358148
183.500000 46.636994
183.500000 46.916675
183.500000 47.197193
183.500000 47.478547
183.500000 47.760736
183.500000 48.043762
183.500000 48.327625
183.500000 48.612323
183.500000 48.897857
183.500000 49.184227
183.500000 49.471434
183.500000 49.759477
183.500000 50.048355
183.500000 50.338070
183.500000 50.628621
183.500000 50.920009
183.500000 51.212232
183.500000 51.505291
183.500000 51.799187
183.500000 52.093918
183.500000 52.389486
183.500000 52.685890
183.500000 52.983130
183.500000 53.281206
183.500000 53.580118
183.500000 53.879867
183.500000 54.180451
183.500000 54.481872
183.500000 54.784128
183.500000 55.087221
183.500000 55.391150
183.500000 55.695915
183.500000 56.001516
183.500000 56.307953
183.500000 56.615227
183.500000 56.923336
183.500000 57.232282
183.500000 57.542064
183.500000 57.852682
183.500000 58.164136
183.500000 58.476426
183.500000 58.789552
183.500000 59.103514
183.500000 59.418313
183.500000 59.733947
183.500000 60.050418
183.500000 60.367725
183.500000 60.685868
183.500000 61.004847
183.500000 61.324662
183.500000 61.645313
183.500000 61.966801
183.500000 62.289124
183.500000 62.612284
183.500000 62.936279
183.500000 63.261111
183.500000 63.586779
183.500000 63.913283
183.500000 64.240624
183.500000 64.568800
183.500000 64.897812
183.500000 65.227661
183.500000 65.558346
183.500000 65.889867
183.500000 66.222223
183.500000 66.555417
183.500000 66.889446
183.500000 67.224311
183.500000 67.560012
183.500000 67.896550
183.500000 68.233924
183.500000 68.572133
183.500000 68.911179
183.500000 69.251061
183.500000 69.591779
183.500000 69.933334
183.500000 70.275724
183.500000 70.618950
183.500000 70.963013
183.500000 71.307912
183.500000 71.653646
183.500000 72.000217
183.500000 72.347624
183.500000 72.695868
183.500000 73.044947
183.500000 73.394862
183.500000 73.745614
183.500000 74.097202
183.500000 74.449625
183.500000 74.802885
183.500000 75.156981
183.500000 75.511913
183.500000 75.867682
183.500000 76.224286
183.500000 76.581726
183.500000 76.940003
183.500000 77.299116
183.500000 77.659064
183.500000 78.019849
183.500000 78.381471
183.500000 78.743928
183.500000 79.107221
183.500000 79.471350
183.500000 79.836316
183.500000 80.202118
183.500000 80.568755
183.500000 80.936229
183.500000 81.304539
183.500000 81.673685
183.500000 82.043668
183.500000 82.414486
183.500000 82.786141
183.500000 83.158631
183.500000 83.531958
183.500000 83.906121
183.500000 84.281120
183.500000 84.656955
183.500000 85.033626
183.500000 85.411133
183.500000 85.789477
183.500000 86.168656
183.500000 86.548672
183.500000 86.929524
183.500000 87.311212
183.500000 87.693736
183.500000 88.077096
183.500000 88.461292
183.500000 88.846324
183.500000 89.232193
183.500000 89.618897
183.500000 90.006438
183.500000 90.394815
183.500000 90.784028
183.500000 91.174077
183.500000 91.564962
183.500000 91.956684
183.500000 92.349241
183.500000 92.742634
183.500000 93.136864
183.500000 93.531930
183.500000 93.927832
183.500000 94.324570
183.500000 94.722144
183.500000 95.120554
183.500000 95.519801
183.500000 95.919883
183.500000 96.320802
183.500000 96.722557
183.500000 97.125147
183.500000 97.528574
183.500000 97.932837
183.500000 98.337937
183.500000 98.743872
183.500000 99.150643
183.500000 99.558251
183.500000 99.966695
183.500000 100.375974
183.500000 100.786090
183.500000 101.197042
183.500000 101.608831
183.500000 102.021455
183.500000 102.434915
183.500000 102.849212
183.500000 103.264344
183.500000 103.680313
183.500000 104.097118
183.500000 104.514759
183.500000 104.933236
183.500000 105.352549
183.500000 105.772699
183.500000 106.193684
183.500000 106.615506
183.500000 107.038163
183.500000 107.461657
183.500000 107.885987
183.500000 108.311153
183.500000 108.737155
183.500000 109.163993
183.500000 109.591668
183.500000 110.020178
183.500000 110.449525
183.500000 110.879708
183.500000 111.310727
183.500000 111.742582
183.500000 112.175273
183.500000 112.608800
183.500000 113.043163
183.500000 113.478363
183.500000 113.914398
183.500000 114.351270
183.500000 114.788978
183.500000 115.227522
183.500000 115.666902
183.500000 116.107118
183.500000 116.548170
183.500000 116.990059
183.500000 117.432783
183.500000 117.876344
183.500000 118.320740
183.500000 118.765973
183.500000 119.212042
183.500000 119.658947
183.500000 120.106689
183.500000 120.555266
183.500000 121.004679
183.500000 121.454929
183.500000 121.906015
183.500000 122.357937
183.500000 122.810695
183.500000 123.264289
183.500000 123.718719
183.500000 124.173985
183.500000 124.630087
183.500000 125.087026
183.500000 125.544801
183.500000 126.003411
183.500000 126.462858
183.500000 126.923141
183.500000 127.384260
183.500000 127.846216
183.500000 128.309007
183.500000 128.772634
183.500000 129.237098
183.500000 129.702398
183.500000 130.168534
183.500000 130.635505
183.500000 131.103314
183.500000 131.571958
183.500000 132.041438
183.500000 132.511754
183.500000 132.982907
183.500000 133.454896
183.500000 133.927720
183.500000 134.401381
183.500000 134.875878
183.500000 135.351211
183.500000 135.827381
183.500000 136.304386
183.500000 136.782227
183.500000 137.260905
183.500000 137.740419
183.500000 138.220769
183.500000 138.701955
183.500000 139.183977
183.500000 139.666835
183.500000 140.150529
183.500000 140.635060
183.500000 141.120426
183.500000 141.606629
183.500000 142.093668
183.500000 142.581542
183.500000 143.070253
183.500000 143.559801
183.500000 144.050184
183.500000 144.541403
183.500000 145.033459
183.500000 145.526350
183.500000 146.020078
183.500000 146.514642
183.500000 147.010042
183.500000 147.506278
183.500000 148.003350
183.500000 148.501258
183.500000 149.000003
183.500000 149.499583
183.500000 150.000000
</POINTS>
</NEKTAR>

