<?xml version="1.0" encoding="utf-8" ?>
<NEKTAR>
<POINTS DIM="2" FIELDS="">
283.500000 0.000000
283.500000 0.000418
283.500000 0.001672
283.500000 0.003763
283.500000 0.006689
283.500000 0.010451
283.500000 0.015050
283.500000 0.020485
283.500000 0.026756
283.500000 0.033863
283.500000 0.041806
283.500000 0.050585
283.500000 0.060201
283.500000 0.070652
283.500000 0.081940
283.500000 0.094063
283.500000 0.107023
283.500000 0.120819
283.500000 0.135451
283.500000 0.150919
283.500000 0.167224
283.500000 0.184364
283.500000 0.202341
283.500000 0.221153
283.500000 0.240802
283.500000 0.261287
283.500000 0.282608
283.500000 0.304765
283.500000 0.327758
283.500000 0.351588
283.500000 0.376253
283.500000 0.401755
283.500000 0.428092
283.500000 0.455266
283.500000 0.483276
283.500000 0.512122
283.500000 0.541805
283.500000 0.572323
283.500000 0.603677
283.500000 0.635868
283.500000 0.668894
283.500000 0.702757
283.500000 0.737456
283.500000 0.772991
283.500000 0.809362
283.500000 0.846570
283.500000 0.884613
283.500000 0.923492
283.500000 0.963208
283.500000 1.003760
283.500000 1.045148
283.500000 1.087372
283.500000 1.130432
283.500000 1.174328
283.500000 1.219060
283.500000 1.264629
283.500000 1.311033
283.500000 1.358274
283.500000 1.406351
283.500000 1.455264
283.500000 1.505013
283.500000 1.555598
283.500000 1.607019
283.500000 1.659276
283.500000 1.712370
283.500000 1.766299
283.500000 1.821065
283.500000 1.876667
283.500000 1.933105
283.500000 1.990379
283.500000 2.048489
283.500000 2.107436
283.500000 2.167218
283.500000 2.227837
283.500000 2.289291
283.500000 2.351582
283.500000 2.414709
283.500000 2.478672
283.500000 2.543471
283.500000 2.609106
283.500000 2.675578
283.500000 2.742885
283.500000 2.811029
283.500000 2.880009
283.500000 2.949825
283.500000 3.020477
283.500000 3.091965
283.500000 3.164289
283.500000 3.237449
283.500000 3.311446
283.500000 3.386278
283.500000 3.461947
283.500000 3.538452
283.500000 3.615793
283.500000 3.693970
283.500000 3.772983
283.500000 3.852832
283.500000 3.933517
283.500000 4.015039
283.500000 4.097397
283.500000 4.180590
283.500000 4.264620
283.500000 4.349486
283.500000 4.435188
283.500000 4.521727
283.500000 4.609101
283.500000 4.697311
283.500000 4.786358
283.500000 4.876241
283.500000 4.966959
283.500000 5.058514
283.500000 5.150905
283.500000 5.244133
283.500000 5.338196
283.500000 5.433095
283.500000 5.528831
283.500000 5.625402
283.500000 5.722810
283.500000 5.821054
283.500000 5.920134
283.500000 6.020050
283.500000 6.120802
283.500000 6.222391
283.500000 6.324815
283.500000 6.428076
283.500000 6.532172
283.500000 6.637105
283.500000 6.742874
283.500000 6.849479
283.500000 6.956920
283.500000 7.065198
283.500000 7.174311
283.500000 7.284261
283.500000 7.395046
283.500000 7.506668
283.500000 7.619126
283.500000 7.732420
283.500000 7.846550
283.500000 7.961516
283.500000 8.077319
283.500000 8.193957
283.500000 8.311432
283.500000 8.429742
283.500000 8.548889
283.500000 8.668872
283.500000 8.789691
283.500000 8.911346
283.500000 9.033838
283.500000 9.157165
283.500000 9.281329
283.500000 9.406328
283.500000 9.532164
283.500000 9.658836
283.500000 9.786344
283.500000 9.914688
283.500000 10.043868
283.500000 10.173885
283.500000 10.304737
283.500000 10.436426
283.500000 10.568950
283.500000 10.702311
283.500000 10.836508
283.500000 10.971541
283.500000 11.107411
283.500000 11.244116
283.500000 11.381657
283.500000 11.520035
283.500000 11.659248
283.500000 11.799298
283.500000 11.940184
283.500000 12.081906
283.500000 12.224464
283.500000 12.367859
283.500000 12.512089
283.500000 12.657155
283.500000 12.803058
283.500000 12.949797
283.500000 13.097372
283.500000 13.245782
283.500000 13.395030
283.500000 13.545113
283.500000 13.696032
283.500000 13.847787
283.500000 14.000379
283.500000 14.153807
283.500000 14.308070
283.500000 14.463170
283.500000 14.619106
283.500000 14.775879
283.500000 14.933487
283.500000 15.091931
283.500000 15.251212
283.500000 15.411328
283.500000 15.572281
283.500000 15.734070
283.500000 15.896695
283.500000 16.060156
283.500000 16.224453
283.500000 16.389586
283.500000 16.555556
283.500000 16.722361
283.500000 16.890003
283.500000 17.058481
283.500000 17.227795
283.500000 17.397945
283.500000 17.568931
283.500000 17.740753
283.500000 17.913412
283.500000 18.086906
283.500000 18.261237
283.500000 18.436403
283.500000 18.612406
283.500000 18.789245
283.500000 18.966920
283.500000 19.145432
283.500000 19.324779
283.500000 19.504962
283.500000 19.685982
283.500000 19.867838
283.500000 20.050529
283.500000 20.234057
283.500000 20.418421
283.500000 20.603622
283.500000 20.789658
283.500000 20.976530
283.500000 21.164239
283.500000 21.352783
283.500000 21.542164
283.500000 21.732381
283.500000 21.923434
283.500000 22.115323
283.500000 22.308048
283.500000 22.501610
283.500000 22.696007
283.500000 22.891241
283.500000 23.087310
283.500000 23.284216
283.500000 23.481958
283.500000 23.680536
283.500000 23.879950
283.500000 24.080200
283.500000 24.281287
283.500000 24.483209
283.500000 24.685968
283.500000 24.889563
283.500000 25.093994
283.500000 25.299261
283.500000 25.505364
283.500000 25.712303
283.500000 25.920078
283.500000 26.128690
283.500000 26.338137
283.500000 26.548421
283.500000 26.759541
283.500000 26.971497
283.500000 27.184289
283.500000 27.397917
283.500000 27.612381
283.500000 27.827682
283.500000 28.043818
283.500000 28.260791
283.500000 28.478600
283.500000 28.697244
283.500000 28.916725
283.500000 29.137043
283.500000 29.358196
283.500000 29.580185
283.500000 29.803011
283.500000 30.026672
283.500000 30.251170
283.500000 30.476504
283.500000 30.702674
283.500000 30.929680
283.500000 31.157522
283.500000 31.386200
283.500000 31.615715
283.500000 31.846065
283.500000 32.077252
283.500000 32.309275
283.500000 32.542133
283.500000 32.775828
283.500000 33.010360
283.500000 33.245727
283.500000 33.481930
283.500000 33.718970
283.500000 33.956845
283.500000 34.195557
283.500000 34.435105
283.500000 34.675489
283.500000 34.916709
283.500000 35.158765
283.500000 35.401657
283.500000 35.645386
283.500000 35.889950
283.500000 36.135351
283.500000 36.381588
283.500000 36.628660
283.500000 36.876569
283.500000 37.125315
283.500000 37.374896
283.500000 37.625313
283.500000 37.876567
283.500000 38.128656
283.500000 38.381582
283.500000 38.635344
283.500000 38.889942
283.500000 39.145376
283.500000 39.401646
283.500000 39.658752
283.500000 39.916695
283.500000 40.175473
283.500000 40.435088
283.500000 40.695539
283.500000 40.956826
283.500000 41.218949
283.500000 41.481908
283.500000 41.745703
283.500000 42.010334
283.500000 42.275802
283.500000 42.542106
283.500000 42.809245
283.500000 43.077221
283.500000 43.346033
283.500000 43.615681
283.500000 43.886165
283.500000 44.157486
283.500000 44.429642
283.500000 44.702635
283.500000 44.976463
283.500000 45.251128
283.500000 45.526629
283.500000 45.802966
283.500000 46.080139
283.500000 46.358148
283.500000 46.636994
283.500000 46.916675
283.500000 47.197193
283.500000 47.478547
283.500000 47.760736
283.500000 48.043762
283.500000 48.327625
283.500000 48.612323
283.500000 48.897857
283.500000 49.184227
283.500000 49.471434
283.500000 49.759477
283.500000 50.048355
283.500000 50.338070
283.500000 50.628621
283.500000 50.920009
283.500000 51.212232
283.500000 51.505291
283.500000 51.799187
283.500000 52.093918
283.500000 52.389486
283.500000 52.685890
283.500000 52.983130
283.500000 53.281206
283.500000 53.580118
283.500000 53.879867
283.500000 54.180451
283.500000 54.481872
283.500000 54.784128
283.500000 55.087221
283.500000 55.391150
283.500000 55.695915
283.500000 56.001516
283.500000 56.307953
283.500000 56.615227
283.500000 56.923336
283.500000 57.232282
283.500000 57.542064
283.500000 57.852682
283.500000 58.164136
283.500000 58.476426
283.500000 58.789552
283.500000 59.103514
283.500000 59.418313
283.500000 59.733947
283.500000 60.050418
283.500000 60.367725
283.500000 60.685868
283.500000 61.004847
283.500000 61.324662
283.500000 61.645313
283.500000 61.966801
283.500000 62.289124
283.500000 62.612284
283.500000 62.936279
283.500000 63.261111
283.500000 63.586779
283.500000 63.913283
283.500000 64.240624
283.500000 64.568800
283.500000 64.897812
283.500000 65.227661
283.500000 65.558346
283.500000 65.889867
283.500000 66.222223
283.500000 66.555417
283.500000 66.889446
283.500000 67.224311
283.500000 67.560012
283.500000 67.896550
283.500000 68.233924
283.500000 68.572133
283.500000 68.911179
283.500000 69.251061
283.500000 69.591779
283.500000 69.933334
283.500000 70.275724
283.500000 70.618950
283.500000 70.963013
283.500000 71.307912
283.500000 71.653646
283.500000 72.000217
283.500000 72.347624
283.500000 72.695868
283.500000 73.044947
283.500000 73.394862
283.500000 73.745614
283.500000 74.097202
283.500000 74.449625
283.500000 74.802885
283.500000 75.156981
283.500000 75.511913
283.500000 75.867682
283.500000 76.224286
283.500000 76.581726
283.500000 76.940003
283.500000 77.299116
283.500000 77.659064
283.500000 78.019849
283.500000 78.381471
283.500000 78.743928
283.500000 79.107221
283.500000 79.471350
283.500000 79.836316
283.500000 80.202118
283.500000 80.568755
283.500000 80.936229
283.500000 81.304539
283.500000 81.673685
283.500000 82.043668
283.500000 82.414486
283.500000 82.786141
283.500000 83.158631
283.500000 83.531958
283.500000 83.906121
283.500000 84.281120
283.500000 84.656955
283.500000 85.033626
283.500000 85.411133
283.500000 85.789477
283.500000 86.168656
283.500000 86.548672
283.500000 86.929524
283.500000 87.311212
283.500000 87.693736
283.500000 88.077096
283.500000 88.461292
283.500000 88.846324
283.500000 89.232193
283.500000 89.618897
283.500000 90.006438
283.500000 90.394815
283.500000 90.784028
283.500000 91.174077
283.500000 91.564962
283.500000 91.956684
283.500000 92.349241
283.500000 92.742634
283.500000 93.136864
283.500000 93.531930
283.500000 93.927832
283.500000 94.324570
283.500000 94.722144
283.500000 95.120554
283.500000 95.519801
283.500000 95.919883
283.500000 96.320802
283.500000 96.722557
283.500000 97.125147
283.500000 97.528574
283.500000 97.932837
283.500000 98.337937
283.500000 98.743872
283.500000 99.150643
283.500000 99.558251
283.500000 99.966695
283.500000 100.375974
283.500000 100.786090
283.500000 101.197042
283.500000 101.608831
283.500000 102.021455
283.500000 102.434915
283.500000 102.849212
283.500000 103.264344
283.500000 103.680313
283.500000 104.097118
283.500000 104.514759
283.500000 104.933236
283.500000 105.352549
283.500000 105.772699
283.500000 106.193684
283.500000 106.615506
283.500000 107.038163
283.500000 107.461657
283.500000 107.885987
283.500000 108.311153
283.500000 108.737155
283.500000 109.163993
283.500000 109.591668
283.500000 110.020178
283.500000 110.449525
283.500000 110.879708
283.500000 111.310727
283.500000 111.742582
283.500000 112.175273
283.500000 112.608800
283.500000 113.043163
283.500000 113.478363
283.500000 113.914398
283.500000 114.351270
283.500000 114.788978
283.500000 115.227522
283.500000 115.666902
283.500000 116.107118
283.500000 116.548170
283.500000 116.990059
283.500000 117.432783
283.500000 117.876344
283.500000 118.320740
283.500000 118.765973
283.500000 119.212042
283.500000 119.658947
283.500000 120.106689
283.500000 120.555266
283.500000 121.004679
283.500000 121.454929
283.500000 121.906015
283.500000 122.357937
283.500000 122.810695
283.500000 123.264289
283.500000 123.718719
283.500000 124.173985
283.500000 124.630087
283.500000 125.087026
283.500000 125.544801
283.500000 126.003411
283.500000 126.462858
283.500000 126.923141
283.500000 127.384260
283.500000 127.846216
283.500000 128.309007
283.500000 128.772634
283.500000 129.237098
283.500000 129.702398
283.500000 130.168534
283.500000 130.635505
283.500000 131.103314
283.500000 131.571958
283.500000 132.041438
283.500000 132.511754
283.500000 132.982907
283.500000 133.454896
283.500000 133.927720
283.500000 134.401381
283.500000 134.875878
283.500000 135.351211
283.500000 135.827381
283.500000 136.304386
283.500000 136.782227
283.500000 137.260905
283.500000 137.740419
283.500000 138.220769
283.500000 138.701955
283.500000 139.183977
283.500000 139.666835
283.500000 140.150529
283.500000 140.635060
283.500000 141.120426
283.500000 141.606629
283.500000 142.093668
283.500000 142.581542
283.500000 143.070253
283.500000 143.559801
283.500000 144.050184
283.500000 144.541403
283.500000 145.033459
283.500000 145.526350
283.500000 146.020078
283.500000 146.514642
283.500000 147.010042
283.500000 147.506278
283.500000 148.003350
283.500000 148.501258
283.500000 149.000003
283.500000 149.499583
283.500000 150.000000
</POINTS>
</NEKTAR>

