<?xml version="1.0" encoding="utf-8" ?>
<NEKTAR>
<POINTS DIM="2" FIELDS="">
363.500000 0.000000
363.500000 0.000418
363.500000 0.001672
363.500000 0.003763
363.500000 0.006689
363.500000 0.010451
363.500000 0.015050
363.500000 0.020485
363.500000 0.026756
363.500000 0.033863
363.500000 0.041806
363.500000 0.050585
363.500000 0.060201
363.500000 0.070652
363.500000 0.081940
363.500000 0.094063
363.500000 0.107023
363.500000 0.120819
363.500000 0.135451
363.500000 0.150919
363.500000 0.167224
363.500000 0.184364
363.500000 0.202341
363.500000 0.221153
363.500000 0.240802
363.500000 0.261287
363.500000 0.282608
363.500000 0.304765
363.500000 0.327758
363.500000 0.351588
363.500000 0.376253
363.500000 0.401755
363.500000 0.428092
363.500000 0.455266
363.500000 0.483276
363.500000 0.512122
363.500000 0.541805
363.500000 0.572323
363.500000 0.603677
363.500000 0.635868
363.500000 0.668894
363.500000 0.702757
363.500000 0.737456
363.500000 0.772991
363.500000 0.809362
363.500000 0.846570
363.500000 0.884613
363.500000 0.923492
363.500000 0.963208
363.500000 1.003760
363.500000 1.045148
363.500000 1.087372
363.500000 1.130432
363.500000 1.174328
363.500000 1.219060
363.500000 1.264629
363.500000 1.311033
363.500000 1.358274
363.500000 1.406351
363.500000 1.455264
363.500000 1.505013
363.500000 1.555598
363.500000 1.607019
363.500000 1.659276
363.500000 1.712370
363.500000 1.766299
363.500000 1.821065
363.500000 1.876667
363.500000 1.933105
363.500000 1.990379
363.500000 2.048489
363.500000 2.107436
363.500000 2.167218
363.500000 2.227837
363.500000 2.289291
363.500000 2.351582
363.500000 2.414709
363.500000 2.478672
363.500000 2.543471
363.500000 2.609106
363.500000 2.675578
363.500000 2.742885
363.500000 2.811029
363.500000 2.880009
363.500000 2.949825
363.500000 3.020477
363.500000 3.091965
363.500000 3.164289
363.500000 3.237449
363.500000 3.311446
363.500000 3.386278
363.500000 3.461947
363.500000 3.538452
363.500000 3.615793
363.500000 3.693970
363.500000 3.772983
363.500000 3.852832
363.500000 3.933517
363.500000 4.015039
363.500000 4.097397
363.500000 4.180590
363.500000 4.264620
363.500000 4.349486
363.500000 4.435188
363.500000 4.521727
363.500000 4.609101
363.500000 4.697311
363.500000 4.786358
363.500000 4.876241
363.500000 4.966959
363.500000 5.058514
363.500000 5.150905
363.500000 5.244133
363.500000 5.338196
363.500000 5.433095
363.500000 5.528831
363.500000 5.625402
363.500000 5.722810
363.500000 5.821054
363.500000 5.920134
363.500000 6.020050
363.500000 6.120802
363.500000 6.222391
363.500000 6.324815
363.500000 6.428076
363.500000 6.532172
363.500000 6.637105
363.500000 6.742874
363.500000 6.849479
363.500000 6.956920
363.500000 7.065198
363.500000 7.174311
363.500000 7.284261
363.500000 7.395046
363.500000 7.506668
363.500000 7.619126
363.500000 7.732420
363.500000 7.846550
363.500000 7.961516
363.500000 8.077319
363.500000 8.193957
363.500000 8.311432
363.500000 8.429742
363.500000 8.548889
363.500000 8.668872
363.500000 8.789691
363.500000 8.911346
363.500000 9.033838
363.500000 9.157165
363.500000 9.281329
363.500000 9.406328
363.500000 9.532164
363.500000 9.658836
363.500000 9.786344
363.500000 9.914688
363.500000 10.043868
363.500000 10.173885
363.500000 10.304737
363.500000 10.436426
363.500000 10.568950
363.500000 10.702311
363.500000 10.836508
363.500000 10.971541
363.500000 11.107411
363.500000 11.244116
363.500000 11.381657
363.500000 11.520035
363.500000 11.659248
363.500000 11.799298
363.500000 11.940184
363.500000 12.081906
363.500000 12.224464
363.500000 12.367859
363.500000 12.512089
363.500000 12.657155
363.500000 12.803058
363.500000 12.949797
363.500000 13.097372
363.500000 13.245782
363.500000 13.395030
363.500000 13.545113
363.500000 13.696032
363.500000 13.847787
363.500000 14.000379
363.500000 14.153807
363.500000 14.308070
363.500000 14.463170
363.500000 14.619106
363.500000 14.775879
363.500000 14.933487
363.500000 15.091931
363.500000 15.251212
363.500000 15.411328
363.500000 15.572281
363.500000 15.734070
363.500000 15.896695
363.500000 16.060156
363.500000 16.224453
363.500000 16.389586
363.500000 16.555556
363.500000 16.722361
363.500000 16.890003
363.500000 17.058481
363.500000 17.227795
363.500000 17.397945
363.500000 17.568931
363.500000 17.740753
363.500000 17.913412
363.500000 18.086906
363.500000 18.261237
363.500000 18.436403
363.500000 18.612406
363.500000 18.789245
363.500000 18.966920
363.500000 19.145432
363.500000 19.324779
363.500000 19.504962
363.500000 19.685982
363.500000 19.867838
363.500000 20.050529
363.500000 20.234057
363.500000 20.418421
363.500000 20.603622
363.500000 20.789658
363.500000 20.976530
363.500000 21.164239
363.500000 21.352783
363.500000 21.542164
363.500000 21.732381
363.500000 21.923434
363.500000 22.115323
363.500000 22.308048
363.500000 22.501610
363.500000 22.696007
363.500000 22.891241
363.500000 23.087310
363.500000 23.284216
363.500000 23.481958
363.500000 23.680536
363.500000 23.879950
363.500000 24.080200
363.500000 24.281287
363.500000 24.483209
363.500000 24.685968
363.500000 24.889563
363.500000 25.093994
363.500000 25.299261
363.500000 25.505364
363.500000 25.712303
363.500000 25.920078
363.500000 26.128690
363.500000 26.338137
363.500000 26.548421
363.500000 26.759541
363.500000 26.971497
363.500000 27.184289
363.500000 27.397917
363.500000 27.612381
363.500000 27.827682
363.500000 28.043818
363.500000 28.260791
363.500000 28.478600
363.500000 28.697244
363.500000 28.916725
363.500000 29.137043
363.500000 29.358196
363.500000 29.580185
363.500000 29.803011
363.500000 30.026672
363.500000 30.251170
363.500000 30.476504
363.500000 30.702674
363.500000 30.929680
363.500000 31.157522
363.500000 31.386200
363.500000 31.615715
363.500000 31.846065
363.500000 32.077252
363.500000 32.309275
363.500000 32.542133
363.500000 32.775828
363.500000 33.010360
363.500000 33.245727
363.500000 33.481930
363.500000 33.718970
363.500000 33.956845
363.500000 34.195557
363.500000 34.435105
363.500000 34.675489
363.500000 34.916709
363.500000 35.158765
363.500000 35.401657
363.500000 35.645386
363.500000 35.889950
363.500000 36.135351
363.500000 36.381588
363.500000 36.628660
363.500000 36.876569
363.500000 37.125315
363.500000 37.374896
363.500000 37.625313
363.500000 37.876567
363.500000 38.128656
363.500000 38.381582
363.500000 38.635344
363.500000 38.889942
363.500000 39.145376
363.500000 39.401646
363.500000 39.658752
363.500000 39.916695
363.500000 40.175473
363.500000 40.435088
363.500000 40.695539
363.500000 40.956826
363.500000 41.218949
363.500000 41.481908
363.500000 41.745703
363.500000 42.010334
363.500000 42.275802
363.500000 42.542106
363.500000 42.809245
363.500000 43.077221
363.500000 43.346033
363.500000 43.615681
363.500000 43.886165
363.500000 44.157486
363.500000 44.429642
363.500000 44.702635
363.500000 44.976463
363.500000 45.251128
363.500000 45.526629
363.500000 45.802966
363.500000 46.080139
363.500000 46.358148
363.500000 46.636994
363.500000 46.916675
363.500000 47.197193
363.500000 47.478547
363.500000 47.760736
363.500000 48.043762
363.500000 48.327625
363.500000 48.612323
363.500000 48.897857
363.500000 49.184227
363.500000 49.471434
363.500000 49.759477
363.500000 50.048355
363.500000 50.338070
363.500000 50.628621
363.500000 50.920009
363.500000 51.212232
363.500000 51.505291
363.500000 51.799187
363.500000 52.093918
363.500000 52.389486
363.500000 52.685890
363.500000 52.983130
363.500000 53.281206
363.500000 53.580118
363.500000 53.879867
363.500000 54.180451
363.500000 54.481872
363.500000 54.784128
363.500000 55.087221
363.500000 55.391150
363.500000 55.695915
363.500000 56.001516
363.500000 56.307953
363.500000 56.615227
363.500000 56.923336
363.500000 57.232282
363.500000 57.542064
363.500000 57.852682
363.500000 58.164136
363.500000 58.476426
363.500000 58.789552
363.500000 59.103514
363.500000 59.418313
363.500000 59.733947
363.500000 60.050418
363.500000 60.367725
363.500000 60.685868
363.500000 61.004847
363.500000 61.324662
363.500000 61.645313
363.500000 61.966801
363.500000 62.289124
363.500000 62.612284
363.500000 62.936279
363.500000 63.261111
363.500000 63.586779
363.500000 63.913283
363.500000 64.240624
363.500000 64.568800
363.500000 64.897812
363.500000 65.227661
363.500000 65.558346
363.500000 65.889867
363.500000 66.222223
363.500000 66.555417
363.500000 66.889446
363.500000 67.224311
363.500000 67.560012
363.500000 67.896550
363.500000 68.233924
363.500000 68.572133
363.500000 68.911179
363.500000 69.251061
363.500000 69.591779
363.500000 69.933334
363.500000 70.275724
363.500000 70.618950
363.500000 70.963013
363.500000 71.307912
363.500000 71.653646
363.500000 72.000217
363.500000 72.347624
363.500000 72.695868
363.500000 73.044947
363.500000 73.394862
363.500000 73.745614
363.500000 74.097202
363.500000 74.449625
363.500000 74.802885
363.500000 75.156981
363.500000 75.511913
363.500000 75.867682
363.500000 76.224286
363.500000 76.581726
363.500000 76.940003
363.500000 77.299116
363.500000 77.659064
363.500000 78.019849
363.500000 78.381471
363.500000 78.743928
363.500000 79.107221
363.500000 79.471350
363.500000 79.836316
363.500000 80.202118
363.500000 80.568755
363.500000 80.936229
363.500000 81.304539
363.500000 81.673685
363.500000 82.043668
363.500000 82.414486
363.500000 82.786141
363.500000 83.158631
363.500000 83.531958
363.500000 83.906121
363.500000 84.281120
363.500000 84.656955
363.500000 85.033626
363.500000 85.411133
363.500000 85.789477
363.500000 86.168656
363.500000 86.548672
363.500000 86.929524
363.500000 87.311212
363.500000 87.693736
363.500000 88.077096
363.500000 88.461292
363.500000 88.846324
363.500000 89.232193
363.500000 89.618897
363.500000 90.006438
363.500000 90.394815
363.500000 90.784028
363.500000 91.174077
363.500000 91.564962
363.500000 91.956684
363.500000 92.349241
363.500000 92.742634
363.500000 93.136864
363.500000 93.531930
363.500000 93.927832
363.500000 94.324570
363.500000 94.722144
363.500000 95.120554
363.500000 95.519801
363.500000 95.919883
363.500000 96.320802
363.500000 96.722557
363.500000 97.125147
363.500000 97.528574
363.500000 97.932837
363.500000 98.337937
363.500000 98.743872
363.500000 99.150643
363.500000 99.558251
363.500000 99.966695
363.500000 100.375974
363.500000 100.786090
363.500000 101.197042
363.500000 101.608831
363.500000 102.021455
363.500000 102.434915
363.500000 102.849212
363.500000 103.264344
363.500000 103.680313
363.500000 104.097118
363.500000 104.514759
363.500000 104.933236
363.500000 105.352549
363.500000 105.772699
363.500000 106.193684
363.500000 106.615506
363.500000 107.038163
363.500000 107.461657
363.500000 107.885987
363.500000 108.311153
363.500000 108.737155
363.500000 109.163993
363.500000 109.591668
363.500000 110.020178
363.500000 110.449525
363.500000 110.879708
363.500000 111.310727
363.500000 111.742582
363.500000 112.175273
363.500000 112.608800
363.500000 113.043163
363.500000 113.478363
363.500000 113.914398
363.500000 114.351270
363.500000 114.788978
363.500000 115.227522
363.500000 115.666902
363.500000 116.107118
363.500000 116.548170
363.500000 116.990059
363.500000 117.432783
363.500000 117.876344
363.500000 118.320740
363.500000 118.765973
363.500000 119.212042
363.500000 119.658947
363.500000 120.106689
363.500000 120.555266
363.500000 121.004679
363.500000 121.454929
363.500000 121.906015
363.500000 122.357937
363.500000 122.810695
363.500000 123.264289
363.500000 123.718719
363.500000 124.173985
363.500000 124.630087
363.500000 125.087026
363.500000 125.544801
363.500000 126.003411
363.500000 126.462858
363.500000 126.923141
363.500000 127.384260
363.500000 127.846216
363.500000 128.309007
363.500000 128.772634
363.500000 129.237098
363.500000 129.702398
363.500000 130.168534
363.500000 130.635505
363.500000 131.103314
363.500000 131.571958
363.500000 132.041438
363.500000 132.511754
363.500000 132.982907
363.500000 133.454896
363.500000 133.927720
363.500000 134.401381
363.500000 134.875878
363.500000 135.351211
363.500000 135.827381
363.500000 136.304386
363.500000 136.782227
363.500000 137.260905
363.500000 137.740419
363.500000 138.220769
363.500000 138.701955
363.500000 139.183977
363.500000 139.666835
363.500000 140.150529
363.500000 140.635060
363.500000 141.120426
363.500000 141.606629
363.500000 142.093668
363.500000 142.581542
363.500000 143.070253
363.500000 143.559801
363.500000 144.050184
363.500000 144.541403
363.500000 145.033459
363.500000 145.526350
363.500000 146.020078
363.500000 146.514642
363.500000 147.010042
363.500000 147.506278
363.500000 148.003350
363.500000 148.501258
363.500000 149.000003
363.500000 149.499583
363.500000 150.000000
</POINTS>
</NEKTAR>

