<?xml version="1.0" encoding="utf-8" ?>
<NEKTAR>
<POINTS DIM="2" FIELDS="">
803.500000 0.000000
803.500000 0.000418
803.500000 0.001672
803.500000 0.003763
803.500000 0.006689
803.500000 0.010451
803.500000 0.015050
803.500000 0.020485
803.500000 0.026756
803.500000 0.033863
803.500000 0.041806
803.500000 0.050585
803.500000 0.060201
803.500000 0.070652
803.500000 0.081940
803.500000 0.094063
803.500000 0.107023
803.500000 0.120819
803.500000 0.135451
803.500000 0.150919
803.500000 0.167224
803.500000 0.184364
803.500000 0.202341
803.500000 0.221153
803.500000 0.240802
803.500000 0.261287
803.500000 0.282608
803.500000 0.304765
803.500000 0.327758
803.500000 0.351588
803.500000 0.376253
803.500000 0.401755
803.500000 0.428092
803.500000 0.455266
803.500000 0.483276
803.500000 0.512122
803.500000 0.541805
803.500000 0.572323
803.500000 0.603677
803.500000 0.635868
803.500000 0.668894
803.500000 0.702757
803.500000 0.737456
803.500000 0.772991
803.500000 0.809362
803.500000 0.846570
803.500000 0.884613
803.500000 0.923492
803.500000 0.963208
803.500000 1.003760
803.500000 1.045148
803.500000 1.087372
803.500000 1.130432
803.500000 1.174328
803.500000 1.219060
803.500000 1.264629
803.500000 1.311033
803.500000 1.358274
803.500000 1.406351
803.500000 1.455264
803.500000 1.505013
803.500000 1.555598
803.500000 1.607019
803.500000 1.659276
803.500000 1.712370
803.500000 1.766299
803.500000 1.821065
803.500000 1.876667
803.500000 1.933105
803.500000 1.990379
803.500000 2.048489
803.500000 2.107436
803.500000 2.167218
803.500000 2.227837
803.500000 2.289291
803.500000 2.351582
803.500000 2.414709
803.500000 2.478672
803.500000 2.543471
803.500000 2.609106
803.500000 2.675578
803.500000 2.742885
803.500000 2.811029
803.500000 2.880009
803.500000 2.949825
803.500000 3.020477
803.500000 3.091965
803.500000 3.164289
803.500000 3.237449
803.500000 3.311446
803.500000 3.386278
803.500000 3.461947
803.500000 3.538452
803.500000 3.615793
803.500000 3.693970
803.500000 3.772983
803.500000 3.852832
803.500000 3.933517
803.500000 4.015039
803.500000 4.097397
803.500000 4.180590
803.500000 4.264620
803.500000 4.349486
803.500000 4.435188
803.500000 4.521727
803.500000 4.609101
803.500000 4.697311
803.500000 4.786358
803.500000 4.876241
803.500000 4.966959
803.500000 5.058514
803.500000 5.150905
803.500000 5.244133
803.500000 5.338196
803.500000 5.433095
803.500000 5.528831
803.500000 5.625402
803.500000 5.722810
803.500000 5.821054
803.500000 5.920134
803.500000 6.020050
803.500000 6.120802
803.500000 6.222391
803.500000 6.324815
803.500000 6.428076
803.500000 6.532172
803.500000 6.637105
803.500000 6.742874
803.500000 6.849479
803.500000 6.956920
803.500000 7.065198
803.500000 7.174311
803.500000 7.284261
803.500000 7.395046
803.500000 7.506668
803.500000 7.619126
803.500000 7.732420
803.500000 7.846550
803.500000 7.961516
803.500000 8.077319
803.500000 8.193957
803.500000 8.311432
803.500000 8.429742
803.500000 8.548889
803.500000 8.668872
803.500000 8.789691
803.500000 8.911346
803.500000 9.033838
803.500000 9.157165
803.500000 9.281329
803.500000 9.406328
803.500000 9.532164
803.500000 9.658836
803.500000 9.786344
803.500000 9.914688
803.500000 10.043868
803.500000 10.173885
803.500000 10.304737
803.500000 10.436426
803.500000 10.568950
803.500000 10.702311
803.500000 10.836508
803.500000 10.971541
803.500000 11.107411
803.500000 11.244116
803.500000 11.381657
803.500000 11.520035
803.500000 11.659248
803.500000 11.799298
803.500000 11.940184
803.500000 12.081906
803.500000 12.224464
803.500000 12.367859
803.500000 12.512089
803.500000 12.657155
803.500000 12.803058
803.500000 12.949797
803.500000 13.097372
803.500000 13.245782
803.500000 13.395030
803.500000 13.545113
803.500000 13.696032
803.500000 13.847787
803.500000 14.000379
803.500000 14.153807
803.500000 14.308070
803.500000 14.463170
803.500000 14.619106
803.500000 14.775879
803.500000 14.933487
803.500000 15.091931
803.500000 15.251212
803.500000 15.411328
803.500000 15.572281
803.500000 15.734070
803.500000 15.896695
803.500000 16.060156
803.500000 16.224453
803.500000 16.389586
803.500000 16.555556
803.500000 16.722361
803.500000 16.890003
803.500000 17.058481
803.500000 17.227795
803.500000 17.397945
803.500000 17.568931
803.500000 17.740753
803.500000 17.913412
803.500000 18.086906
803.500000 18.261237
803.500000 18.436403
803.500000 18.612406
803.500000 18.789245
803.500000 18.966920
803.500000 19.145432
803.500000 19.324779
803.500000 19.504962
803.500000 19.685982
803.500000 19.867838
803.500000 20.050529
803.500000 20.234057
803.500000 20.418421
803.500000 20.603622
803.500000 20.789658
803.500000 20.976530
803.500000 21.164239
803.500000 21.352783
803.500000 21.542164
803.500000 21.732381
803.500000 21.923434
803.500000 22.115323
803.500000 22.308048
803.500000 22.501610
803.500000 22.696007
803.500000 22.891241
803.500000 23.087310
803.500000 23.284216
803.500000 23.481958
803.500000 23.680536
803.500000 23.879950
803.500000 24.080200
803.500000 24.281287
803.500000 24.483209
803.500000 24.685968
803.500000 24.889563
803.500000 25.093994
803.500000 25.299261
803.500000 25.505364
803.500000 25.712303
803.500000 25.920078
803.500000 26.128690
803.500000 26.338137
803.500000 26.548421
803.500000 26.759541
803.500000 26.971497
803.500000 27.184289
803.500000 27.397917
803.500000 27.612381
803.500000 27.827682
803.500000 28.043818
803.500000 28.260791
803.500000 28.478600
803.500000 28.697244
803.500000 28.916725
803.500000 29.137043
803.500000 29.358196
803.500000 29.580185
803.500000 29.803011
803.500000 30.026672
803.500000 30.251170
803.500000 30.476504
803.500000 30.702674
803.500000 30.929680
803.500000 31.157522
803.500000 31.386200
803.500000 31.615715
803.500000 31.846065
803.500000 32.077252
803.500000 32.309275
803.500000 32.542133
803.500000 32.775828
803.500000 33.010360
803.500000 33.245727
803.500000 33.481930
803.500000 33.718970
803.500000 33.956845
803.500000 34.195557
803.500000 34.435105
803.500000 34.675489
803.500000 34.916709
803.500000 35.158765
803.500000 35.401657
803.500000 35.645386
803.500000 35.889950
803.500000 36.135351
803.500000 36.381588
803.500000 36.628660
803.500000 36.876569
803.500000 37.125315
803.500000 37.374896
803.500000 37.625313
803.500000 37.876567
803.500000 38.128656
803.500000 38.381582
803.500000 38.635344
803.500000 38.889942
803.500000 39.145376
803.500000 39.401646
803.500000 39.658752
803.500000 39.916695
803.500000 40.175473
803.500000 40.435088
803.500000 40.695539
803.500000 40.956826
803.500000 41.218949
803.500000 41.481908
803.500000 41.745703
803.500000 42.010334
803.500000 42.275802
803.500000 42.542106
803.500000 42.809245
803.500000 43.077221
803.500000 43.346033
803.500000 43.615681
803.500000 43.886165
803.500000 44.157486
803.500000 44.429642
803.500000 44.702635
803.500000 44.976463
803.500000 45.251128
803.500000 45.526629
803.500000 45.802966
803.500000 46.080139
803.500000 46.358148
803.500000 46.636994
803.500000 46.916675
803.500000 47.197193
803.500000 47.478547
803.500000 47.760736
803.500000 48.043762
803.500000 48.327625
803.500000 48.612323
803.500000 48.897857
803.500000 49.184227
803.500000 49.471434
803.500000 49.759477
803.500000 50.048355
803.500000 50.338070
803.500000 50.628621
803.500000 50.920009
803.500000 51.212232
803.500000 51.505291
803.500000 51.799187
803.500000 52.093918
803.500000 52.389486
803.500000 52.685890
803.500000 52.983130
803.500000 53.281206
803.500000 53.580118
803.500000 53.879867
803.500000 54.180451
803.500000 54.481872
803.500000 54.784128
803.500000 55.087221
803.500000 55.391150
803.500000 55.695915
803.500000 56.001516
803.500000 56.307953
803.500000 56.615227
803.500000 56.923336
803.500000 57.232282
803.500000 57.542064
803.500000 57.852682
803.500000 58.164136
803.500000 58.476426
803.500000 58.789552
803.500000 59.103514
803.500000 59.418313
803.500000 59.733947
803.500000 60.050418
803.500000 60.367725
803.500000 60.685868
803.500000 61.004847
803.500000 61.324662
803.500000 61.645313
803.500000 61.966801
803.500000 62.289124
803.500000 62.612284
803.500000 62.936279
803.500000 63.261111
803.500000 63.586779
803.500000 63.913283
803.500000 64.240624
803.500000 64.568800
803.500000 64.897812
803.500000 65.227661
803.500000 65.558346
803.500000 65.889867
803.500000 66.222223
803.500000 66.555417
803.500000 66.889446
803.500000 67.224311
803.500000 67.560012
803.500000 67.896550
803.500000 68.233924
803.500000 68.572133
803.500000 68.911179
803.500000 69.251061
803.500000 69.591779
803.500000 69.933334
803.500000 70.275724
803.500000 70.618950
803.500000 70.963013
803.500000 71.307912
803.500000 71.653646
803.500000 72.000217
803.500000 72.347624
803.500000 72.695868
803.500000 73.044947
803.500000 73.394862
803.500000 73.745614
803.500000 74.097202
803.500000 74.449625
803.500000 74.802885
803.500000 75.156981
803.500000 75.511913
803.500000 75.867682
803.500000 76.224286
803.500000 76.581726
803.500000 76.940003
803.500000 77.299116
803.500000 77.659064
803.500000 78.019849
803.500000 78.381471
803.500000 78.743928
803.500000 79.107221
803.500000 79.471350
803.500000 79.836316
803.500000 80.202118
803.500000 80.568755
803.500000 80.936229
803.500000 81.304539
803.500000 81.673685
803.500000 82.043668
803.500000 82.414486
803.500000 82.786141
803.500000 83.158631
803.500000 83.531958
803.500000 83.906121
803.500000 84.281120
803.500000 84.656955
803.500000 85.033626
803.500000 85.411133
803.500000 85.789477
803.500000 86.168656
803.500000 86.548672
803.500000 86.929524
803.500000 87.311212
803.500000 87.693736
803.500000 88.077096
803.500000 88.461292
803.500000 88.846324
803.500000 89.232193
803.500000 89.618897
803.500000 90.006438
803.500000 90.394815
803.500000 90.784028
803.500000 91.174077
803.500000 91.564962
803.500000 91.956684
803.500000 92.349241
803.500000 92.742634
803.500000 93.136864
803.500000 93.531930
803.500000 93.927832
803.500000 94.324570
803.500000 94.722144
803.500000 95.120554
803.500000 95.519801
803.500000 95.919883
803.500000 96.320802
803.500000 96.722557
803.500000 97.125147
803.500000 97.528574
803.500000 97.932837
803.500000 98.337937
803.500000 98.743872
803.500000 99.150643
803.500000 99.558251
803.500000 99.966695
803.500000 100.375974
803.500000 100.786090
803.500000 101.197042
803.500000 101.608831
803.500000 102.021455
803.500000 102.434915
803.500000 102.849212
803.500000 103.264344
803.500000 103.680313
803.500000 104.097118
803.500000 104.514759
803.500000 104.933236
803.500000 105.352549
803.500000 105.772699
803.500000 106.193684
803.500000 106.615506
803.500000 107.038163
803.500000 107.461657
803.500000 107.885987
803.500000 108.311153
803.500000 108.737155
803.500000 109.163993
803.500000 109.591668
803.500000 110.020178
803.500000 110.449525
803.500000 110.879708
803.500000 111.310727
803.500000 111.742582
803.500000 112.175273
803.500000 112.608800
803.500000 113.043163
803.500000 113.478363
803.500000 113.914398
803.500000 114.351270
803.500000 114.788978
803.500000 115.227522
803.500000 115.666902
803.500000 116.107118
803.500000 116.548170
803.500000 116.990059
803.500000 117.432783
803.500000 117.876344
803.500000 118.320740
803.500000 118.765973
803.500000 119.212042
803.500000 119.658947
803.500000 120.106689
803.500000 120.555266
803.500000 121.004679
803.500000 121.454929
803.500000 121.906015
803.500000 122.357937
803.500000 122.810695
803.500000 123.264289
803.500000 123.718719
803.500000 124.173985
803.500000 124.630087
803.500000 125.087026
803.500000 125.544801
803.500000 126.003411
803.500000 126.462858
803.500000 126.923141
803.500000 127.384260
803.500000 127.846216
803.500000 128.309007
803.500000 128.772634
803.500000 129.237098
803.500000 129.702398
803.500000 130.168534
803.500000 130.635505
803.500000 131.103314
803.500000 131.571958
803.500000 132.041438
803.500000 132.511754
803.500000 132.982907
803.500000 133.454896
803.500000 133.927720
803.500000 134.401381
803.500000 134.875878
803.500000 135.351211
803.500000 135.827381
803.500000 136.304386
803.500000 136.782227
803.500000 137.260905
803.500000 137.740419
803.500000 138.220769
803.500000 138.701955
803.500000 139.183977
803.500000 139.666835
803.500000 140.150529
803.500000 140.635060
803.500000 141.120426
803.500000 141.606629
803.500000 142.093668
803.500000 142.581542
803.500000 143.070253
803.500000 143.559801
803.500000 144.050184
803.500000 144.541403
803.500000 145.033459
803.500000 145.526350
803.500000 146.020078
803.500000 146.514642
803.500000 147.010042
803.500000 147.506278
803.500000 148.003350
803.500000 148.501258
803.500000 149.000003
803.500000 149.499583
803.500000 150.000000
</POINTS>
</NEKTAR>

