<?xml version="1.0" encoding="utf-8" ?>
<NEKTAR>
<POINTS DIM="2" FIELDS="">
543.500000 -1.500000
543.500000 -1.499578
543.500000 -1.498311
543.500000 -1.496200
543.500000 -1.493244
543.500000 -1.489444
543.500000 -1.484799
543.500000 -1.479310
543.500000 -1.472977
543.500000 -1.465799
543.500000 -1.457776
543.500000 -1.448909
543.500000 -1.439197
543.500000 -1.428642
543.500000 -1.417241
543.500000 -1.404996
543.500000 -1.391907
543.500000 -1.377973
543.500000 -1.363194
543.500000 -1.347571
543.500000 -1.331104
543.500000 -1.313792
543.500000 -1.295636
543.500000 -1.276635
543.500000 -1.256790
543.500000 -1.236100
543.500000 -1.214566
543.500000 -1.192187
543.500000 -1.168964
543.500000 -1.144896
543.500000 -1.119984
543.500000 -1.094228
543.500000 -1.067627
543.500000 -1.040181
543.500000 -1.011891
543.500000 -0.982756
543.500000 -0.952777
543.500000 -0.921954
543.500000 -0.890286
543.500000 -0.857774
543.500000 -0.824417
543.500000 -0.790215
543.500000 -0.755169
543.500000 -0.719279
543.500000 -0.682544
543.500000 -0.644965
543.500000 -0.606541
543.500000 -0.567273
543.500000 -0.527160
543.500000 -0.486203
543.500000 -0.444401
543.500000 -0.401755
543.500000 -0.358264
543.500000 -0.313929
543.500000 -0.268749
543.500000 -0.222725
543.500000 -0.175857
543.500000 -0.128143
543.500000 -0.079586
543.500000 -0.030184
543.500000 0.020063
543.500000 0.071154
543.500000 0.123089
543.500000 0.175869
543.500000 0.229494
543.500000 0.283962
543.500000 0.339276
543.500000 0.395434
543.500000 0.452436
543.500000 0.510283
543.500000 0.568974
543.500000 0.628510
543.500000 0.688890
543.500000 0.750115
543.500000 0.812184
543.500000 0.875098
543.500000 0.938856
543.500000 1.003459
543.500000 1.068906
543.500000 1.135198
543.500000 1.202334
543.500000 1.270314
543.500000 1.339139
543.500000 1.408809
543.500000 1.479323
543.500000 1.550681
543.500000 1.622884
543.500000 1.695932
543.500000 1.769824
543.500000 1.844560
543.500000 1.920141
543.500000 1.996566
543.500000 2.073836
543.500000 2.151951
543.500000 2.230909
543.500000 2.310713
543.500000 2.391360
543.500000 2.472853
543.500000 2.555189
543.500000 2.638371
543.500000 2.722396
543.500000 2.807266
543.500000 2.892981
543.500000 2.979540
543.500000 3.066944
543.500000 3.155192
543.500000 3.244284
543.500000 3.334221
543.500000 3.425003
543.500000 3.516629
543.500000 3.609099
543.500000 3.702414
543.500000 3.796574
543.500000 3.891578
543.500000 3.987426
543.500000 4.084119
543.500000 4.181656
543.500000 4.280038
543.500000 4.379265
543.500000 4.479335
543.500000 4.580251
543.500000 4.682010
543.500000 4.784615
543.500000 4.888063
543.500000 4.992356
543.500000 5.097494
543.500000 5.203476
543.500000 5.310303
543.500000 5.417974
543.500000 5.526490
543.500000 5.635850
543.500000 5.746054
543.500000 5.857103
543.500000 5.968997
543.500000 6.081735
543.500000 6.195317
543.500000 6.309744
543.500000 6.425016
543.500000 6.541131
543.500000 6.658092
543.500000 6.775897
543.500000 6.894546
543.500000 7.014040
543.500000 7.134378
543.500000 7.255561
543.500000 7.377588
543.500000 7.500460
543.500000 7.624176
543.500000 7.748737
543.500000 7.874142
543.500000 8.000392
543.500000 8.127486
543.500000 8.255424
543.500000 8.384207
543.500000 8.513835
543.500000 8.644307
543.500000 8.775624
543.500000 8.907785
543.500000 9.040790
543.500000 9.174640
543.500000 9.309334
543.500000 9.444873
543.500000 9.581257
543.500000 9.718485
543.500000 9.856557
543.500000 9.995474
543.500000 10.135235
543.500000 10.275841
543.500000 10.417291
543.500000 10.559586
543.500000 10.702725
543.500000 10.846709
543.500000 10.991537
543.500000 11.137210
543.500000 11.283727
543.500000 11.431089
543.500000 11.579295
543.500000 11.728345
543.500000 11.878240
543.500000 12.028980
543.500000 12.180564
543.500000 12.332992
543.500000 12.486265
543.500000 12.640383
543.500000 12.795345
543.500000 12.951151
543.500000 13.107802
543.500000 13.265297
543.500000 13.423637
543.500000 13.582822
543.500000 13.742850
543.500000 13.903724
543.500000 14.065442
543.500000 14.228004
543.500000 14.391411
543.500000 14.555662
543.500000 14.720757
543.500000 14.886698
543.500000 15.053482
543.500000 15.221111
543.500000 15.389585
543.500000 15.558903
543.500000 15.729066
543.500000 15.900073
543.500000 16.071924
543.500000 16.244620
543.500000 16.418161
543.500000 16.592546
543.500000 16.767775
543.500000 16.943849
543.500000 17.120768
543.500000 17.298530
543.500000 17.477138
543.500000 17.656590
543.500000 17.836886
543.500000 18.018027
543.500000 18.200012
543.500000 18.382842
543.500000 18.566516
543.500000 18.751035
543.500000 18.936398
543.500000 19.122606
543.500000 19.309658
543.500000 19.497554
543.500000 19.686295
543.500000 19.875881
543.500000 20.066311
543.500000 20.257586
543.500000 20.449705
543.500000 20.642668
543.500000 20.836476
543.500000 21.031129
543.500000 21.226626
543.500000 21.422967
543.500000 21.620153
543.500000 21.818183
543.500000 22.017058
543.500000 22.216778
543.500000 22.417341
543.500000 22.618750
543.500000 22.821002
543.500000 23.024100
543.500000 23.228041
543.500000 23.432828
543.500000 23.638458
543.500000 23.844934
543.500000 24.052253
543.500000 24.260417
543.500000 24.469426
543.500000 24.679279
543.500000 24.889977
543.500000 25.101519
543.500000 25.313905
543.500000 25.527136
543.500000 25.741212
543.500000 25.956132
543.500000 26.171896
543.500000 26.388505
543.500000 26.605958
543.500000 26.824256
543.500000 27.043399
543.500000 27.263386
543.500000 27.484217
543.500000 27.705893
543.500000 27.928413
543.500000 28.151778
543.500000 28.375987
543.500000 28.601041
543.500000 28.826939
543.500000 29.053682
543.500000 29.281269
543.500000 29.509700
543.500000 29.738976
543.500000 29.969097
543.500000 30.200062
543.500000 30.431872
543.500000 30.664526
543.500000 30.898024
543.500000 31.132367
543.500000 31.367555
543.500000 31.603587
543.500000 31.840463
543.500000 32.078184
543.500000 32.316749
543.500000 32.556159
543.500000 32.796414
543.500000 33.037512
543.500000 33.279456
543.500000 33.522244
543.500000 33.765876
543.500000 34.010353
543.500000 34.255674
543.500000 34.501839
543.500000 34.748850
543.500000 34.996704
543.500000 35.245403
543.500000 35.494947
543.500000 35.745335
543.500000 35.996568
543.500000 36.248645
543.500000 36.501566
543.500000 36.755332
543.500000 37.009943
543.500000 37.265398
543.500000 37.521697
543.500000 37.778841
543.500000 38.036830
543.500000 38.295662
543.500000 38.555340
543.500000 38.815862
543.500000 39.077228
543.500000 39.339439
543.500000 39.602494
543.500000 39.866394
543.500000 40.131138
543.500000 40.396727
543.500000 40.663160
543.500000 40.930438
543.500000 41.198560
543.500000 41.467527
543.500000 41.737338
543.500000 42.007993
543.500000 42.279493
543.500000 42.551838
543.500000 42.825027
543.500000 43.099060
543.500000 43.373938
543.500000 43.649661
543.500000 43.926228
543.500000 44.203639
543.500000 44.481895
543.500000 44.760996
543.500000 45.040941
543.500000 45.321730
543.500000 45.603364
543.500000 45.885842
543.500000 46.169165
543.500000 46.453332
543.500000 46.738344
543.500000 47.024200
543.500000 47.310901
543.500000 47.598446
543.500000 47.886836
543.500000 48.176070
543.500000 48.466148
543.500000 48.757071
543.500000 49.048839
543.500000 49.341451
543.500000 49.634908
543.500000 49.929209
543.500000 50.224354
543.500000 50.520344
543.500000 50.817179
543.500000 51.114858
543.500000 51.413381
543.500000 51.712749
543.500000 52.012961
543.500000 52.314018
543.500000 52.615919
543.500000 52.918665
543.500000 53.222256
543.500000 53.526690
543.500000 53.831970
543.500000 54.138093
543.500000 54.445061
543.500000 54.752874
543.500000 55.061531
543.500000 55.371033
543.500000 55.681379
543.500000 55.992570
543.500000 56.304605
543.500000 56.617484
543.500000 56.931208
543.500000 57.245777
543.500000 57.561190
543.500000 57.877447
543.500000 58.194549
543.500000 58.512496
543.500000 58.831287
543.500000 59.150922
543.500000 59.471402
543.500000 59.792726
543.500000 60.114895
543.500000 60.437908
543.500000 60.761766
543.500000 61.086469
543.500000 61.412015
543.500000 61.738407
543.500000 62.065642
543.500000 62.393722
543.500000 62.722647
543.500000 63.052416
543.500000 63.383030
543.500000 63.714488
543.500000 64.046791
543.500000 64.379938
543.500000 64.713929
543.500000 65.048765
543.500000 65.384446
543.500000 65.720971
543.500000 66.058340
543.500000 66.396554
543.500000 66.735612
543.500000 67.075515
543.500000 67.416263
543.500000 67.757855
543.500000 68.100291
543.500000 68.443572
543.500000 68.787697
543.500000 69.132667
543.500000 69.478481
543.500000 69.825140
543.500000 70.172643
543.500000 70.520991
543.500000 70.870183
543.500000 71.220220
543.500000 71.571101
543.500000 71.922826
543.500000 72.275396
543.500000 72.628811
543.500000 72.983070
543.500000 73.338174
543.500000 73.694122
543.500000 74.050914
543.500000 74.408551
543.500000 74.767032
543.500000 75.126358
543.500000 75.486529
543.500000 75.847544
543.500000 76.209403
543.500000 76.572107
543.500000 76.935655
543.500000 77.300048
543.500000 77.665285
543.500000 78.031367
543.500000 78.398293
543.500000 78.766064
543.500000 79.134679
543.500000 79.504139
543.500000 79.874443
543.500000 80.245592
543.500000 80.617585
543.500000 80.990422
543.500000 81.364104
543.500000 81.738631
543.500000 82.114002
543.500000 82.490217
543.500000 82.867277
543.500000 83.245182
543.500000 83.623931
543.500000 84.003524
543.500000 84.383962
543.500000 84.765245
543.500000 85.147371
543.500000 85.530343
543.500000 85.914159
543.500000 86.298819
543.500000 86.684324
543.500000 87.070673
543.500000 87.457867
543.500000 87.845905
543.500000 88.234788
543.500000 88.624515
543.500000 89.015086
543.500000 89.406502
543.500000 89.798763
543.500000 90.191868
543.500000 90.585818
543.500000 90.980612
543.500000 91.376250
543.500000 91.772733
543.500000 92.170061
543.500000 92.568233
543.500000 92.967249
543.500000 93.367110
543.500000 93.767816
543.500000 94.169365
543.500000 94.571760
543.500000 94.974999
543.500000 95.379082
543.500000 95.784010
543.500000 96.189782
543.500000 96.596399
543.500000 97.003860
543.500000 97.412166
543.500000 97.821316
543.500000 98.231311
543.500000 98.642150
543.500000 99.053833
543.500000 99.466362
543.500000 99.879734
543.500000 100.293951
543.500000 100.709013
543.500000 101.124919
543.500000 101.541669
543.500000 101.959264
543.500000 102.377704
543.500000 102.796988
543.500000 103.217116
543.500000 103.638089
543.500000 104.059906
543.500000 104.482568
543.500000 104.906075
543.500000 105.330426
543.500000 105.755621
543.500000 106.181661
543.500000 106.608545
543.500000 107.036274
543.500000 107.464847
543.500000 107.894265
543.500000 108.324527
543.500000 108.755633
543.500000 109.187584
543.500000 109.620380
543.500000 110.054020
543.500000 110.488505
543.500000 110.923834
543.500000 111.360007
543.500000 111.797025
543.500000 112.234888
543.500000 112.673595
543.500000 113.113146
543.500000 113.553542
543.500000 113.994783
543.500000 114.436868
543.500000 114.879797
543.500000 115.323571
543.500000 115.768189
543.500000 116.213652
543.500000 116.659959
543.500000 117.107111
543.500000 117.555107
543.500000 118.003948
543.500000 118.453633
543.500000 118.904163
543.500000 119.355537
543.500000 119.807756
543.500000 120.260819
543.500000 120.714726
543.500000 121.169478
543.500000 121.625075
543.500000 122.081516
543.500000 122.538801
543.500000 122.996931
543.500000 123.455906
543.500000 123.915725
543.500000 124.376388
543.500000 124.837896
543.500000 125.300249
543.500000 125.763445
543.500000 126.227487
543.500000 126.692373
543.500000 127.158103
543.500000 127.624678
543.500000 128.092097
543.500000 128.560361
543.500000 129.029469
543.500000 129.499422
543.500000 129.970219
543.500000 130.441861
543.500000 130.914347
543.500000 131.387677
543.500000 131.861852
543.500000 132.336872
543.500000 132.812736
543.500000 133.289445
543.500000 133.766998
543.500000 134.245395
543.500000 134.724637
543.500000 135.204724
543.500000 135.685654
543.500000 136.167430
543.500000 136.650050
543.500000 137.133514
543.500000 137.617823
543.500000 138.102976
543.500000 138.588974
543.500000 139.075816
543.500000 139.563503
543.500000 140.052034
543.500000 140.541410
543.500000 141.031630
543.500000 141.522695
543.500000 142.014604
543.500000 142.507358
543.500000 143.000956
543.500000 143.495399
543.500000 143.990686
543.500000 144.486817
543.500000 144.983793
543.500000 145.481614
543.500000 145.980279
543.500000 146.479788
543.500000 146.980142
543.500000 147.481341
543.500000 147.983384
543.500000 148.486271
543.500000 148.990003
543.500000 149.494579
543.500000 150.000000
</POINTS>
</NEKTAR>

