<?xml version="1.0" encoding="utf-8" ?>
<NEKTAR>
<POINTS DIM="2" FIELDS="">
383.500000 -1.500000
383.500000 -1.499578
383.500000 -1.498311
383.500000 -1.496200
383.500000 -1.493244
383.500000 -1.489444
383.500000 -1.484799
383.500000 -1.479310
383.500000 -1.472977
383.500000 -1.465799
383.500000 -1.457776
383.500000 -1.448909
383.500000 -1.439197
383.500000 -1.428642
383.500000 -1.417241
383.500000 -1.404996
383.500000 -1.391907
383.500000 -1.377973
383.500000 -1.363194
383.500000 -1.347571
383.500000 -1.331104
383.500000 -1.313792
383.500000 -1.295636
383.500000 -1.276635
383.500000 -1.256790
383.500000 -1.236100
383.500000 -1.214566
383.500000 -1.192187
383.500000 -1.168964
383.500000 -1.144896
383.500000 -1.119984
383.500000 -1.094228
383.500000 -1.067627
383.500000 -1.040181
383.500000 -1.011891
383.500000 -0.982756
383.500000 -0.952777
383.500000 -0.921954
383.500000 -0.890286
383.500000 -0.857774
383.500000 -0.824417
383.500000 -0.790215
383.500000 -0.755169
383.500000 -0.719279
383.500000 -0.682544
383.500000 -0.644965
383.500000 -0.606541
383.500000 -0.567273
383.500000 -0.527160
383.500000 -0.486203
383.500000 -0.444401
383.500000 -0.401755
383.500000 -0.358264
383.500000 -0.313929
383.500000 -0.268749
383.500000 -0.222725
383.500000 -0.175857
383.500000 -0.128143
383.500000 -0.079586
383.500000 -0.030184
383.500000 0.020063
383.500000 0.071154
383.500000 0.123089
383.500000 0.175869
383.500000 0.229494
383.500000 0.283962
383.500000 0.339276
383.500000 0.395434
383.500000 0.452436
383.500000 0.510283
383.500000 0.568974
383.500000 0.628510
383.500000 0.688890
383.500000 0.750115
383.500000 0.812184
383.500000 0.875098
383.500000 0.938856
383.500000 1.003459
383.500000 1.068906
383.500000 1.135198
383.500000 1.202334
383.500000 1.270314
383.500000 1.339139
383.500000 1.408809
383.500000 1.479323
383.500000 1.550681
383.500000 1.622884
383.500000 1.695932
383.500000 1.769824
383.500000 1.844560
383.500000 1.920141
383.500000 1.996566
383.500000 2.073836
383.500000 2.151951
383.500000 2.230909
383.500000 2.310713
383.500000 2.391360
383.500000 2.472853
383.500000 2.555189
383.500000 2.638371
383.500000 2.722396
383.500000 2.807266
383.500000 2.892981
383.500000 2.979540
383.500000 3.066944
383.500000 3.155192
383.500000 3.244284
383.500000 3.334221
383.500000 3.425003
383.500000 3.516629
383.500000 3.609099
383.500000 3.702414
383.500000 3.796574
383.500000 3.891578
383.500000 3.987426
383.500000 4.084119
383.500000 4.181656
383.500000 4.280038
383.500000 4.379265
383.500000 4.479335
383.500000 4.580251
383.500000 4.682010
383.500000 4.784615
383.500000 4.888063
383.500000 4.992356
383.500000 5.097494
383.500000 5.203476
383.500000 5.310303
383.500000 5.417974
383.500000 5.526490
383.500000 5.635850
383.500000 5.746054
383.500000 5.857103
383.500000 5.968997
383.500000 6.081735
383.500000 6.195317
383.500000 6.309744
383.500000 6.425016
383.500000 6.541131
383.500000 6.658092
383.500000 6.775897
383.500000 6.894546
383.500000 7.014040
383.500000 7.134378
383.500000 7.255561
383.500000 7.377588
383.500000 7.500460
383.500000 7.624176
383.500000 7.748737
383.500000 7.874142
383.500000 8.000392
383.500000 8.127486
383.500000 8.255424
383.500000 8.384207
383.500000 8.513835
383.500000 8.644307
383.500000 8.775624
383.500000 8.907785
383.500000 9.040790
383.500000 9.174640
383.500000 9.309334
383.500000 9.444873
383.500000 9.581257
383.500000 9.718485
383.500000 9.856557
383.500000 9.995474
383.500000 10.135235
383.500000 10.275841
383.500000 10.417291
383.500000 10.559586
383.500000 10.702725
383.500000 10.846709
383.500000 10.991537
383.500000 11.137210
383.500000 11.283727
383.500000 11.431089
383.500000 11.579295
383.500000 11.728345
383.500000 11.878240
383.500000 12.028980
383.500000 12.180564
383.500000 12.332992
383.500000 12.486265
383.500000 12.640383
383.500000 12.795345
383.500000 12.951151
383.500000 13.107802
383.500000 13.265297
383.500000 13.423637
383.500000 13.582822
383.500000 13.742850
383.500000 13.903724
383.500000 14.065442
383.500000 14.228004
383.500000 14.391411
383.500000 14.555662
383.500000 14.720757
383.500000 14.886698
383.500000 15.053482
383.500000 15.221111
383.500000 15.389585
383.500000 15.558903
383.500000 15.729066
383.500000 15.900073
383.500000 16.071924
383.500000 16.244620
383.500000 16.418161
383.500000 16.592546
383.500000 16.767775
383.500000 16.943849
383.500000 17.120768
383.500000 17.298530
383.500000 17.477138
383.500000 17.656590
383.500000 17.836886
383.500000 18.018027
383.500000 18.200012
383.500000 18.382842
383.500000 18.566516
383.500000 18.751035
383.500000 18.936398
383.500000 19.122606
383.500000 19.309658
383.500000 19.497554
383.500000 19.686295
383.500000 19.875881
383.500000 20.066311
383.500000 20.257586
383.500000 20.449705
383.500000 20.642668
383.500000 20.836476
383.500000 21.031129
383.500000 21.226626
383.500000 21.422967
383.500000 21.620153
383.500000 21.818183
383.500000 22.017058
383.500000 22.216778
383.500000 22.417341
383.500000 22.618750
383.500000 22.821002
383.500000 23.024100
383.500000 23.228041
383.500000 23.432828
383.500000 23.638458
383.500000 23.844934
383.500000 24.052253
383.500000 24.260417
383.500000 24.469426
383.500000 24.679279
383.500000 24.889977
383.500000 25.101519
383.500000 25.313905
383.500000 25.527136
383.500000 25.741212
383.500000 25.956132
383.500000 26.171896
383.500000 26.388505
383.500000 26.605958
383.500000 26.824256
383.500000 27.043399
383.500000 27.263386
383.500000 27.484217
383.500000 27.705893
383.500000 27.928413
383.500000 28.151778
383.500000 28.375987
383.500000 28.601041
383.500000 28.826939
383.500000 29.053682
383.500000 29.281269
383.500000 29.509700
383.500000 29.738976
383.500000 29.969097
383.500000 30.200062
383.500000 30.431872
383.500000 30.664526
383.500000 30.898024
383.500000 31.132367
383.500000 31.367555
383.500000 31.603587
383.500000 31.840463
383.500000 32.078184
383.500000 32.316749
383.500000 32.556159
383.500000 32.796414
383.500000 33.037512
383.500000 33.279456
383.500000 33.522244
383.500000 33.765876
383.500000 34.010353
383.500000 34.255674
383.500000 34.501839
383.500000 34.748850
383.500000 34.996704
383.500000 35.245403
383.500000 35.494947
383.500000 35.745335
383.500000 35.996568
383.500000 36.248645
383.500000 36.501566
383.500000 36.755332
383.500000 37.009943
383.500000 37.265398
383.500000 37.521697
383.500000 37.778841
383.500000 38.036830
383.500000 38.295662
383.500000 38.555340
383.500000 38.815862
383.500000 39.077228
383.500000 39.339439
383.500000 39.602494
383.500000 39.866394
383.500000 40.131138
383.500000 40.396727
383.500000 40.663160
383.500000 40.930438
383.500000 41.198560
383.500000 41.467527
383.500000 41.737338
383.500000 42.007993
383.500000 42.279493
383.500000 42.551838
383.500000 42.825027
383.500000 43.099060
383.500000 43.373938
383.500000 43.649661
383.500000 43.926228
383.500000 44.203639
383.500000 44.481895
383.500000 44.760996
383.500000 45.040941
383.500000 45.321730
383.500000 45.603364
383.500000 45.885842
383.500000 46.169165
383.500000 46.453332
383.500000 46.738344
383.500000 47.024200
383.500000 47.310901
383.500000 47.598446
383.500000 47.886836
383.500000 48.176070
383.500000 48.466148
383.500000 48.757071
383.500000 49.048839
383.500000 49.341451
383.500000 49.634908
383.500000 49.929209
383.500000 50.224354
383.500000 50.520344
383.500000 50.817179
383.500000 51.114858
383.500000 51.413381
383.500000 51.712749
383.500000 52.012961
383.500000 52.314018
383.500000 52.615919
383.500000 52.918665
383.500000 53.222256
383.500000 53.526690
383.500000 53.831970
383.500000 54.138093
383.500000 54.445061
383.500000 54.752874
383.500000 55.061531
383.500000 55.371033
383.500000 55.681379
383.500000 55.992570
383.500000 56.304605
383.500000 56.617484
383.500000 56.931208
383.500000 57.245777
383.500000 57.561190
383.500000 57.877447
383.500000 58.194549
383.500000 58.512496
383.500000 58.831287
383.500000 59.150922
383.500000 59.471402
383.500000 59.792726
383.500000 60.114895
383.500000 60.437908
383.500000 60.761766
383.500000 61.086469
383.500000 61.412015
383.500000 61.738407
383.500000 62.065642
383.500000 62.393722
383.500000 62.722647
383.500000 63.052416
383.500000 63.383030
383.500000 63.714488
383.500000 64.046791
383.500000 64.379938
383.500000 64.713929
383.500000 65.048765
383.500000 65.384446
383.500000 65.720971
383.500000 66.058340
383.500000 66.396554
383.500000 66.735612
383.500000 67.075515
383.500000 67.416263
383.500000 67.757855
383.500000 68.100291
383.500000 68.443572
383.500000 68.787697
383.500000 69.132667
383.500000 69.478481
383.500000 69.825140
383.500000 70.172643
383.500000 70.520991
383.500000 70.870183
383.500000 71.220220
383.500000 71.571101
383.500000 71.922826
383.500000 72.275396
383.500000 72.628811
383.500000 72.983070
383.500000 73.338174
383.500000 73.694122
383.500000 74.050914
383.500000 74.408551
383.500000 74.767032
383.500000 75.126358
383.500000 75.486529
383.500000 75.847544
383.500000 76.209403
383.500000 76.572107
383.500000 76.935655
383.500000 77.300048
383.500000 77.665285
383.500000 78.031367
383.500000 78.398293
383.500000 78.766064
383.500000 79.134679
383.500000 79.504139
383.500000 79.874443
383.500000 80.245592
383.500000 80.617585
383.500000 80.990422
383.500000 81.364104
383.500000 81.738631
383.500000 82.114002
383.500000 82.490217
383.500000 82.867277
383.500000 83.245182
383.500000 83.623931
383.500000 84.003524
383.500000 84.383962
383.500000 84.765245
383.500000 85.147371
383.500000 85.530343
383.500000 85.914159
383.500000 86.298819
383.500000 86.684324
383.500000 87.070673
383.500000 87.457867
383.500000 87.845905
383.500000 88.234788
383.500000 88.624515
383.500000 89.015086
383.500000 89.406502
383.500000 89.798763
383.500000 90.191868
383.500000 90.585818
383.500000 90.980612
383.500000 91.376250
383.500000 91.772733
383.500000 92.170061
383.500000 92.568233
383.500000 92.967249
383.500000 93.367110
383.500000 93.767816
383.500000 94.169365
383.500000 94.571760
383.500000 94.974999
383.500000 95.379082
383.500000 95.784010
383.500000 96.189782
383.500000 96.596399
383.500000 97.003860
383.500000 97.412166
383.500000 97.821316
383.500000 98.231311
383.500000 98.642150
383.500000 99.053833
383.500000 99.466362
383.500000 99.879734
383.500000 100.293951
383.500000 100.709013
383.500000 101.124919
383.500000 101.541669
383.500000 101.959264
383.500000 102.377704
383.500000 102.796988
383.500000 103.217116
383.500000 103.638089
383.500000 104.059906
383.500000 104.482568
383.500000 104.906075
383.500000 105.330426
383.500000 105.755621
383.500000 106.181661
383.500000 106.608545
383.500000 107.036274
383.500000 107.464847
383.500000 107.894265
383.500000 108.324527
383.500000 108.755633
383.500000 109.187584
383.500000 109.620380
383.500000 110.054020
383.500000 110.488505
383.500000 110.923834
383.500000 111.360007
383.500000 111.797025
383.500000 112.234888
383.500000 112.673595
383.500000 113.113146
383.500000 113.553542
383.500000 113.994783
383.500000 114.436868
383.500000 114.879797
383.500000 115.323571
383.500000 115.768189
383.500000 116.213652
383.500000 116.659959
383.500000 117.107111
383.500000 117.555107
383.500000 118.003948
383.500000 118.453633
383.500000 118.904163
383.500000 119.355537
383.500000 119.807756
383.500000 120.260819
383.500000 120.714726
383.500000 121.169478
383.500000 121.625075
383.500000 122.081516
383.500000 122.538801
383.500000 122.996931
383.500000 123.455906
383.500000 123.915725
383.500000 124.376388
383.500000 124.837896
383.500000 125.300249
383.500000 125.763445
383.500000 126.227487
383.500000 126.692373
383.500000 127.158103
383.500000 127.624678
383.500000 128.092097
383.500000 128.560361
383.500000 129.029469
383.500000 129.499422
383.500000 129.970219
383.500000 130.441861
383.500000 130.914347
383.500000 131.387677
383.500000 131.861852
383.500000 132.336872
383.500000 132.812736
383.500000 133.289445
383.500000 133.766998
383.500000 134.245395
383.500000 134.724637
383.500000 135.204724
383.500000 135.685654
383.500000 136.167430
383.500000 136.650050
383.500000 137.133514
383.500000 137.617823
383.500000 138.102976
383.500000 138.588974
383.500000 139.075816
383.500000 139.563503
383.500000 140.052034
383.500000 140.541410
383.500000 141.031630
383.500000 141.522695
383.500000 142.014604
383.500000 142.507358
383.500000 143.000956
383.500000 143.495399
383.500000 143.990686
383.500000 144.486817
383.500000 144.983793
383.500000 145.481614
383.500000 145.980279
383.500000 146.479788
383.500000 146.980142
383.500000 147.481341
383.500000 147.983384
383.500000 148.486271
383.500000 148.990003
383.500000 149.494579
383.500000 150.000000
</POINTS>
</NEKTAR>

