<?xml version="1.0" encoding="utf-8" ?>
<NEKTAR>
<POINTS DIM="2" FIELDS="">
243.500000 -1.500000
243.500000 -1.499578
243.500000 -1.498311
243.500000 -1.496200
243.500000 -1.493244
243.500000 -1.489444
243.500000 -1.484799
243.500000 -1.479310
243.500000 -1.472977
243.500000 -1.465799
243.500000 -1.457776
243.500000 -1.448909
243.500000 -1.439197
243.500000 -1.428642
243.500000 -1.417241
243.500000 -1.404996
243.500000 -1.391907
243.500000 -1.377973
243.500000 -1.363194
243.500000 -1.347571
243.500000 -1.331104
243.500000 -1.313792
243.500000 -1.295636
243.500000 -1.276635
243.500000 -1.256790
243.500000 -1.236100
243.500000 -1.214566
243.500000 -1.192187
243.500000 -1.168964
243.500000 -1.144896
243.500000 -1.119984
243.500000 -1.094228
243.500000 -1.067627
243.500000 -1.040181
243.500000 -1.011891
243.500000 -0.982756
243.500000 -0.952777
243.500000 -0.921954
243.500000 -0.890286
243.500000 -0.857774
243.500000 -0.824417
243.500000 -0.790215
243.500000 -0.755169
243.500000 -0.719279
243.500000 -0.682544
243.500000 -0.644965
243.500000 -0.606541
243.500000 -0.567273
243.500000 -0.527160
243.500000 -0.486203
243.500000 -0.444401
243.500000 -0.401755
243.500000 -0.358264
243.500000 -0.313929
243.500000 -0.268749
243.500000 -0.222725
243.500000 -0.175857
243.500000 -0.128143
243.500000 -0.079586
243.500000 -0.030184
243.500000 0.020063
243.500000 0.071154
243.500000 0.123089
243.500000 0.175869
243.500000 0.229494
243.500000 0.283962
243.500000 0.339276
243.500000 0.395434
243.500000 0.452436
243.500000 0.510283
243.500000 0.568974
243.500000 0.628510
243.500000 0.688890
243.500000 0.750115
243.500000 0.812184
243.500000 0.875098
243.500000 0.938856
243.500000 1.003459
243.500000 1.068906
243.500000 1.135198
243.500000 1.202334
243.500000 1.270314
243.500000 1.339139
243.500000 1.408809
243.500000 1.479323
243.500000 1.550681
243.500000 1.622884
243.500000 1.695932
243.500000 1.769824
243.500000 1.844560
243.500000 1.920141
243.500000 1.996566
243.500000 2.073836
243.500000 2.151951
243.500000 2.230909
243.500000 2.310713
243.500000 2.391360
243.500000 2.472853
243.500000 2.555189
243.500000 2.638371
243.500000 2.722396
243.500000 2.807266
243.500000 2.892981
243.500000 2.979540
243.500000 3.066944
243.500000 3.155192
243.500000 3.244284
243.500000 3.334221
243.500000 3.425003
243.500000 3.516629
243.500000 3.609099
243.500000 3.702414
243.500000 3.796574
243.500000 3.891578
243.500000 3.987426
243.500000 4.084119
243.500000 4.181656
243.500000 4.280038
243.500000 4.379265
243.500000 4.479335
243.500000 4.580251
243.500000 4.682010
243.500000 4.784615
243.500000 4.888063
243.500000 4.992356
243.500000 5.097494
243.500000 5.203476
243.500000 5.310303
243.500000 5.417974
243.500000 5.526490
243.500000 5.635850
243.500000 5.746054
243.500000 5.857103
243.500000 5.968997
243.500000 6.081735
243.500000 6.195317
243.500000 6.309744
243.500000 6.425016
243.500000 6.541131
243.500000 6.658092
243.500000 6.775897
243.500000 6.894546
243.500000 7.014040
243.500000 7.134378
243.500000 7.255561
243.500000 7.377588
243.500000 7.500460
243.500000 7.624176
243.500000 7.748737
243.500000 7.874142
243.500000 8.000392
243.500000 8.127486
243.500000 8.255424
243.500000 8.384207
243.500000 8.513835
243.500000 8.644307
243.500000 8.775624
243.500000 8.907785
243.500000 9.040790
243.500000 9.174640
243.500000 9.309334
243.500000 9.444873
243.500000 9.581257
243.500000 9.718485
243.500000 9.856557
243.500000 9.995474
243.500000 10.135235
243.500000 10.275841
243.500000 10.417291
243.500000 10.559586
243.500000 10.702725
243.500000 10.846709
243.500000 10.991537
243.500000 11.137210
243.500000 11.283727
243.500000 11.431089
243.500000 11.579295
243.500000 11.728345
243.500000 11.878240
243.500000 12.028980
243.500000 12.180564
243.500000 12.332992
243.500000 12.486265
243.500000 12.640383
243.500000 12.795345
243.500000 12.951151
243.500000 13.107802
243.500000 13.265297
243.500000 13.423637
243.500000 13.582822
243.500000 13.742850
243.500000 13.903724
243.500000 14.065442
243.500000 14.228004
243.500000 14.391411
243.500000 14.555662
243.500000 14.720757
243.500000 14.886698
243.500000 15.053482
243.500000 15.221111
243.500000 15.389585
243.500000 15.558903
243.500000 15.729066
243.500000 15.900073
243.500000 16.071924
243.500000 16.244620
243.500000 16.418161
243.500000 16.592546
243.500000 16.767775
243.500000 16.943849
243.500000 17.120768
243.500000 17.298530
243.500000 17.477138
243.500000 17.656590
243.500000 17.836886
243.500000 18.018027
243.500000 18.200012
243.500000 18.382842
243.500000 18.566516
243.500000 18.751035
243.500000 18.936398
243.500000 19.122606
243.500000 19.309658
243.500000 19.497554
243.500000 19.686295
243.500000 19.875881
243.500000 20.066311
243.500000 20.257586
243.500000 20.449705
243.500000 20.642668
243.500000 20.836476
243.500000 21.031129
243.500000 21.226626
243.500000 21.422967
243.500000 21.620153
243.500000 21.818183
243.500000 22.017058
243.500000 22.216778
243.500000 22.417341
243.500000 22.618750
243.500000 22.821002
243.500000 23.024100
243.500000 23.228041
243.500000 23.432828
243.500000 23.638458
243.500000 23.844934
243.500000 24.052253
243.500000 24.260417
243.500000 24.469426
243.500000 24.679279
243.500000 24.889977
243.500000 25.101519
243.500000 25.313905
243.500000 25.527136
243.500000 25.741212
243.500000 25.956132
243.500000 26.171896
243.500000 26.388505
243.500000 26.605958
243.500000 26.824256
243.500000 27.043399
243.500000 27.263386
243.500000 27.484217
243.500000 27.705893
243.500000 27.928413
243.500000 28.151778
243.500000 28.375987
243.500000 28.601041
243.500000 28.826939
243.500000 29.053682
243.500000 29.281269
243.500000 29.509700
243.500000 29.738976
243.500000 29.969097
243.500000 30.200062
243.500000 30.431872
243.500000 30.664526
243.500000 30.898024
243.500000 31.132367
243.500000 31.367555
243.500000 31.603587
243.500000 31.840463
243.500000 32.078184
243.500000 32.316749
243.500000 32.556159
243.500000 32.796414
243.500000 33.037512
243.500000 33.279456
243.500000 33.522244
243.500000 33.765876
243.500000 34.010353
243.500000 34.255674
243.500000 34.501839
243.500000 34.748850
243.500000 34.996704
243.500000 35.245403
243.500000 35.494947
243.500000 35.745335
243.500000 35.996568
243.500000 36.248645
243.500000 36.501566
243.500000 36.755332
243.500000 37.009943
243.500000 37.265398
243.500000 37.521697
243.500000 37.778841
243.500000 38.036830
243.500000 38.295662
243.500000 38.555340
243.500000 38.815862
243.500000 39.077228
243.500000 39.339439
243.500000 39.602494
243.500000 39.866394
243.500000 40.131138
243.500000 40.396727
243.500000 40.663160
243.500000 40.930438
243.500000 41.198560
243.500000 41.467527
243.500000 41.737338
243.500000 42.007993
243.500000 42.279493
243.500000 42.551838
243.500000 42.825027
243.500000 43.099060
243.500000 43.373938
243.500000 43.649661
243.500000 43.926228
243.500000 44.203639
243.500000 44.481895
243.500000 44.760996
243.500000 45.040941
243.500000 45.321730
243.500000 45.603364
243.500000 45.885842
243.500000 46.169165
243.500000 46.453332
243.500000 46.738344
243.500000 47.024200
243.500000 47.310901
243.500000 47.598446
243.500000 47.886836
243.500000 48.176070
243.500000 48.466148
243.500000 48.757071
243.500000 49.048839
243.500000 49.341451
243.500000 49.634908
243.500000 49.929209
243.500000 50.224354
243.500000 50.520344
243.500000 50.817179
243.500000 51.114858
243.500000 51.413381
243.500000 51.712749
243.500000 52.012961
243.500000 52.314018
243.500000 52.615919
243.500000 52.918665
243.500000 53.222256
243.500000 53.526690
243.500000 53.831970
243.500000 54.138093
243.500000 54.445061
243.500000 54.752874
243.500000 55.061531
243.500000 55.371033
243.500000 55.681379
243.500000 55.992570
243.500000 56.304605
243.500000 56.617484
243.500000 56.931208
243.500000 57.245777
243.500000 57.561190
243.500000 57.877447
243.500000 58.194549
243.500000 58.512496
243.500000 58.831287
243.500000 59.150922
243.500000 59.471402
243.500000 59.792726
243.500000 60.114895
243.500000 60.437908
243.500000 60.761766
243.500000 61.086469
243.500000 61.412015
243.500000 61.738407
243.500000 62.065642
243.500000 62.393722
243.500000 62.722647
243.500000 63.052416
243.500000 63.383030
243.500000 63.714488
243.500000 64.046791
243.500000 64.379938
243.500000 64.713929
243.500000 65.048765
243.500000 65.384446
243.500000 65.720971
243.500000 66.058340
243.500000 66.396554
243.500000 66.735612
243.500000 67.075515
243.500000 67.416263
243.500000 67.757855
243.500000 68.100291
243.500000 68.443572
243.500000 68.787697
243.500000 69.132667
243.500000 69.478481
243.500000 69.825140
243.500000 70.172643
243.500000 70.520991
243.500000 70.870183
243.500000 71.220220
243.500000 71.571101
243.500000 71.922826
243.500000 72.275396
243.500000 72.628811
243.500000 72.983070
243.500000 73.338174
243.500000 73.694122
243.500000 74.050914
243.500000 74.408551
243.500000 74.767032
243.500000 75.126358
243.500000 75.486529
243.500000 75.847544
243.500000 76.209403
243.500000 76.572107
243.500000 76.935655
243.500000 77.300048
243.500000 77.665285
243.500000 78.031367
243.500000 78.398293
243.500000 78.766064
243.500000 79.134679
243.500000 79.504139
243.500000 79.874443
243.500000 80.245592
243.500000 80.617585
243.500000 80.990422
243.500000 81.364104
243.500000 81.738631
243.500000 82.114002
243.500000 82.490217
243.500000 82.867277
243.500000 83.245182
243.500000 83.623931
243.500000 84.003524
243.500000 84.383962
243.500000 84.765245
243.500000 85.147371
243.500000 85.530343
243.500000 85.914159
243.500000 86.298819
243.500000 86.684324
243.500000 87.070673
243.500000 87.457867
243.500000 87.845905
243.500000 88.234788
243.500000 88.624515
243.500000 89.015086
243.500000 89.406502
243.500000 89.798763
243.500000 90.191868
243.500000 90.585818
243.500000 90.980612
243.500000 91.376250
243.500000 91.772733
243.500000 92.170061
243.500000 92.568233
243.500000 92.967249
243.500000 93.367110
243.500000 93.767816
243.500000 94.169365
243.500000 94.571760
243.500000 94.974999
243.500000 95.379082
243.500000 95.784010
243.500000 96.189782
243.500000 96.596399
243.500000 97.003860
243.500000 97.412166
243.500000 97.821316
243.500000 98.231311
243.500000 98.642150
243.500000 99.053833
243.500000 99.466362
243.500000 99.879734
243.500000 100.293951
243.500000 100.709013
243.500000 101.124919
243.500000 101.541669
243.500000 101.959264
243.500000 102.377704
243.500000 102.796988
243.500000 103.217116
243.500000 103.638089
243.500000 104.059906
243.500000 104.482568
243.500000 104.906075
243.500000 105.330426
243.500000 105.755621
243.500000 106.181661
243.500000 106.608545
243.500000 107.036274
243.500000 107.464847
243.500000 107.894265
243.500000 108.324527
243.500000 108.755633
243.500000 109.187584
243.500000 109.620380
243.500000 110.054020
243.500000 110.488505
243.500000 110.923834
243.500000 111.360007
243.500000 111.797025
243.500000 112.234888
243.500000 112.673595
243.500000 113.113146
243.500000 113.553542
243.500000 113.994783
243.500000 114.436868
243.500000 114.879797
243.500000 115.323571
243.500000 115.768189
243.500000 116.213652
243.500000 116.659959
243.500000 117.107111
243.500000 117.555107
243.500000 118.003948
243.500000 118.453633
243.500000 118.904163
243.500000 119.355537
243.500000 119.807756
243.500000 120.260819
243.500000 120.714726
243.500000 121.169478
243.500000 121.625075
243.500000 122.081516
243.500000 122.538801
243.500000 122.996931
243.500000 123.455906
243.500000 123.915725
243.500000 124.376388
243.500000 124.837896
243.500000 125.300249
243.500000 125.763445
243.500000 126.227487
243.500000 126.692373
243.500000 127.158103
243.500000 127.624678
243.500000 128.092097
243.500000 128.560361
243.500000 129.029469
243.500000 129.499422
243.500000 129.970219
243.500000 130.441861
243.500000 130.914347
243.500000 131.387677
243.500000 131.861852
243.500000 132.336872
243.500000 132.812736
243.500000 133.289445
243.500000 133.766998
243.500000 134.245395
243.500000 134.724637
243.500000 135.204724
243.500000 135.685654
243.500000 136.167430
243.500000 136.650050
243.500000 137.133514
243.500000 137.617823
243.500000 138.102976
243.500000 138.588974
243.500000 139.075816
243.500000 139.563503
243.500000 140.052034
243.500000 140.541410
243.500000 141.031630
243.500000 141.522695
243.500000 142.014604
243.500000 142.507358
243.500000 143.000956
243.500000 143.495399
243.500000 143.990686
243.500000 144.486817
243.500000 144.983793
243.500000 145.481614
243.500000 145.980279
243.500000 146.479788
243.500000 146.980142
243.500000 147.481341
243.500000 147.983384
243.500000 148.486271
243.500000 148.990003
243.500000 149.494579
243.500000 150.000000
</POINTS>
</NEKTAR>

