<?xml version="1.0" encoding="utf-8" ?>
<NEKTAR>
<POINTS DIM="2" FIELDS="">
73.500000 -1.500000
73.500000 -1.499578
73.500000 -1.498311
73.500000 -1.496200
73.500000 -1.493244
73.500000 -1.489444
73.500000 -1.484799
73.500000 -1.479310
73.500000 -1.472977
73.500000 -1.465799
73.500000 -1.457776
73.500000 -1.448909
73.500000 -1.439197
73.500000 -1.428642
73.500000 -1.417241
73.500000 -1.404996
73.500000 -1.391907
73.500000 -1.377973
73.500000 -1.363194
73.500000 -1.347571
73.500000 -1.331104
73.500000 -1.313792
73.500000 -1.295636
73.500000 -1.276635
73.500000 -1.256790
73.500000 -1.236100
73.500000 -1.214566
73.500000 -1.192187
73.500000 -1.168964
73.500000 -1.144896
73.500000 -1.119984
73.500000 -1.094228
73.500000 -1.067627
73.500000 -1.040181
73.500000 -1.011891
73.500000 -0.982756
73.500000 -0.952777
73.500000 -0.921954
73.500000 -0.890286
73.500000 -0.857774
73.500000 -0.824417
73.500000 -0.790215
73.500000 -0.755169
73.500000 -0.719279
73.500000 -0.682544
73.500000 -0.644965
73.500000 -0.606541
73.500000 -0.567273
73.500000 -0.527160
73.500000 -0.486203
73.500000 -0.444401
73.500000 -0.401755
73.500000 -0.358264
73.500000 -0.313929
73.500000 -0.268749
73.500000 -0.222725
73.500000 -0.175857
73.500000 -0.128143
73.500000 -0.079586
73.500000 -0.030184
73.500000 0.020063
73.500000 0.071154
73.500000 0.123089
73.500000 0.175869
73.500000 0.229494
73.500000 0.283962
73.500000 0.339276
73.500000 0.395434
73.500000 0.452436
73.500000 0.510283
73.500000 0.568974
73.500000 0.628510
73.500000 0.688890
73.500000 0.750115
73.500000 0.812184
73.500000 0.875098
73.500000 0.938856
73.500000 1.003459
73.500000 1.068906
73.500000 1.135198
73.500000 1.202334
73.500000 1.270314
73.500000 1.339139
73.500000 1.408809
73.500000 1.479323
73.500000 1.550681
73.500000 1.622884
73.500000 1.695932
73.500000 1.769824
73.500000 1.844560
73.500000 1.920141
73.500000 1.996566
73.500000 2.073836
73.500000 2.151951
73.500000 2.230909
73.500000 2.310713
73.500000 2.391360
73.500000 2.472853
73.500000 2.555189
73.500000 2.638371
73.500000 2.722396
73.500000 2.807266
73.500000 2.892981
73.500000 2.979540
73.500000 3.066944
73.500000 3.155192
73.500000 3.244284
73.500000 3.334221
73.500000 3.425003
73.500000 3.516629
73.500000 3.609099
73.500000 3.702414
73.500000 3.796574
73.500000 3.891578
73.500000 3.987426
73.500000 4.084119
73.500000 4.181656
73.500000 4.280038
73.500000 4.379265
73.500000 4.479335
73.500000 4.580251
73.500000 4.682010
73.500000 4.784615
73.500000 4.888063
73.500000 4.992356
73.500000 5.097494
73.500000 5.203476
73.500000 5.310303
73.500000 5.417974
73.500000 5.526490
73.500000 5.635850
73.500000 5.746054
73.500000 5.857103
73.500000 5.968997
73.500000 6.081735
73.500000 6.195317
73.500000 6.309744
73.500000 6.425016
73.500000 6.541131
73.500000 6.658092
73.500000 6.775897
73.500000 6.894546
73.500000 7.014040
73.500000 7.134378
73.500000 7.255561
73.500000 7.377588
73.500000 7.500460
73.500000 7.624176
73.500000 7.748737
73.500000 7.874142
73.500000 8.000392
73.500000 8.127486
73.500000 8.255424
73.500000 8.384207
73.500000 8.513835
73.500000 8.644307
73.500000 8.775624
73.500000 8.907785
73.500000 9.040790
73.500000 9.174640
73.500000 9.309334
73.500000 9.444873
73.500000 9.581257
73.500000 9.718485
73.500000 9.856557
73.500000 9.995474
73.500000 10.135235
73.500000 10.275841
73.500000 10.417291
73.500000 10.559586
73.500000 10.702725
73.500000 10.846709
73.500000 10.991537
73.500000 11.137210
73.500000 11.283727
73.500000 11.431089
73.500000 11.579295
73.500000 11.728345
73.500000 11.878240
73.500000 12.028980
73.500000 12.180564
73.500000 12.332992
73.500000 12.486265
73.500000 12.640383
73.500000 12.795345
73.500000 12.951151
73.500000 13.107802
73.500000 13.265297
73.500000 13.423637
73.500000 13.582822
73.500000 13.742850
73.500000 13.903724
73.500000 14.065442
73.500000 14.228004
73.500000 14.391411
73.500000 14.555662
73.500000 14.720757
73.500000 14.886698
73.500000 15.053482
73.500000 15.221111
73.500000 15.389585
73.500000 15.558903
73.500000 15.729066
73.500000 15.900073
73.500000 16.071924
73.500000 16.244620
73.500000 16.418161
73.500000 16.592546
73.500000 16.767775
73.500000 16.943849
73.500000 17.120768
73.500000 17.298530
73.500000 17.477138
73.500000 17.656590
73.500000 17.836886
73.500000 18.018027
73.500000 18.200012
73.500000 18.382842
73.500000 18.566516
73.500000 18.751035
73.500000 18.936398
73.500000 19.122606
73.500000 19.309658
73.500000 19.497554
73.500000 19.686295
73.500000 19.875881
73.500000 20.066311
73.500000 20.257586
73.500000 20.449705
73.500000 20.642668
73.500000 20.836476
73.500000 21.031129
73.500000 21.226626
73.500000 21.422967
73.500000 21.620153
73.500000 21.818183
73.500000 22.017058
73.500000 22.216778
73.500000 22.417341
73.500000 22.618750
73.500000 22.821002
73.500000 23.024100
73.500000 23.228041
73.500000 23.432828
73.500000 23.638458
73.500000 23.844934
73.500000 24.052253
73.500000 24.260417
73.500000 24.469426
73.500000 24.679279
73.500000 24.889977
73.500000 25.101519
73.500000 25.313905
73.500000 25.527136
73.500000 25.741212
73.500000 25.956132
73.500000 26.171896
73.500000 26.388505
73.500000 26.605958
73.500000 26.824256
73.500000 27.043399
73.500000 27.263386
73.500000 27.484217
73.500000 27.705893
73.500000 27.928413
73.500000 28.151778
73.500000 28.375987
73.500000 28.601041
73.500000 28.826939
73.500000 29.053682
73.500000 29.281269
73.500000 29.509700
73.500000 29.738976
73.500000 29.969097
73.500000 30.200062
73.500000 30.431872
73.500000 30.664526
73.500000 30.898024
73.500000 31.132367
73.500000 31.367555
73.500000 31.603587
73.500000 31.840463
73.500000 32.078184
73.500000 32.316749
73.500000 32.556159
73.500000 32.796414
73.500000 33.037512
73.500000 33.279456
73.500000 33.522244
73.500000 33.765876
73.500000 34.010353
73.500000 34.255674
73.500000 34.501839
73.500000 34.748850
73.500000 34.996704
73.500000 35.245403
73.500000 35.494947
73.500000 35.745335
73.500000 35.996568
73.500000 36.248645
73.500000 36.501566
73.500000 36.755332
73.500000 37.009943
73.500000 37.265398
73.500000 37.521697
73.500000 37.778841
73.500000 38.036830
73.500000 38.295662
73.500000 38.555340
73.500000 38.815862
73.500000 39.077228
73.500000 39.339439
73.500000 39.602494
73.500000 39.866394
73.500000 40.131138
73.500000 40.396727
73.500000 40.663160
73.500000 40.930438
73.500000 41.198560
73.500000 41.467527
73.500000 41.737338
73.500000 42.007993
73.500000 42.279493
73.500000 42.551838
73.500000 42.825027
73.500000 43.099060
73.500000 43.373938
73.500000 43.649661
73.500000 43.926228
73.500000 44.203639
73.500000 44.481895
73.500000 44.760996
73.500000 45.040941
73.500000 45.321730
73.500000 45.603364
73.500000 45.885842
73.500000 46.169165
73.500000 46.453332
73.500000 46.738344
73.500000 47.024200
73.500000 47.310901
73.500000 47.598446
73.500000 47.886836
73.500000 48.176070
73.500000 48.466148
73.500000 48.757071
73.500000 49.048839
73.500000 49.341451
73.500000 49.634908
73.500000 49.929209
73.500000 50.224354
73.500000 50.520344
73.500000 50.817179
73.500000 51.114858
73.500000 51.413381
73.500000 51.712749
73.500000 52.012961
73.500000 52.314018
73.500000 52.615919
73.500000 52.918665
73.500000 53.222256
73.500000 53.526690
73.500000 53.831970
73.500000 54.138093
73.500000 54.445061
73.500000 54.752874
73.500000 55.061531
73.500000 55.371033
73.500000 55.681379
73.500000 55.992570
73.500000 56.304605
73.500000 56.617484
73.500000 56.931208
73.500000 57.245777
73.500000 57.561190
73.500000 57.877447
73.500000 58.194549
73.500000 58.512496
73.500000 58.831287
73.500000 59.150922
73.500000 59.471402
73.500000 59.792726
73.500000 60.114895
73.500000 60.437908
73.500000 60.761766
73.500000 61.086469
73.500000 61.412015
73.500000 61.738407
73.500000 62.065642
73.500000 62.393722
73.500000 62.722647
73.500000 63.052416
73.500000 63.383030
73.500000 63.714488
73.500000 64.046791
73.500000 64.379938
73.500000 64.713929
73.500000 65.048765
73.500000 65.384446
73.500000 65.720971
73.500000 66.058340
73.500000 66.396554
73.500000 66.735612
73.500000 67.075515
73.500000 67.416263
73.500000 67.757855
73.500000 68.100291
73.500000 68.443572
73.500000 68.787697
73.500000 69.132667
73.500000 69.478481
73.500000 69.825140
73.500000 70.172643
73.500000 70.520991
73.500000 70.870183
73.500000 71.220220
73.500000 71.571101
73.500000 71.922826
73.500000 72.275396
73.500000 72.628811
73.500000 72.983070
73.500000 73.338174
73.500000 73.694122
73.500000 74.050914
73.500000 74.408551
73.500000 74.767032
73.500000 75.126358
73.500000 75.486529
73.500000 75.847544
73.500000 76.209403
73.500000 76.572107
73.500000 76.935655
73.500000 77.300048
73.500000 77.665285
73.500000 78.031367
73.500000 78.398293
73.500000 78.766064
73.500000 79.134679
73.500000 79.504139
73.500000 79.874443
73.500000 80.245592
73.500000 80.617585
73.500000 80.990422
73.500000 81.364104
73.500000 81.738631
73.500000 82.114002
73.500000 82.490217
73.500000 82.867277
73.500000 83.245182
73.500000 83.623931
73.500000 84.003524
73.500000 84.383962
73.500000 84.765245
73.500000 85.147371
73.500000 85.530343
73.500000 85.914159
73.500000 86.298819
73.500000 86.684324
73.500000 87.070673
73.500000 87.457867
73.500000 87.845905
73.500000 88.234788
73.500000 88.624515
73.500000 89.015086
73.500000 89.406502
73.500000 89.798763
73.500000 90.191868
73.500000 90.585818
73.500000 90.980612
73.500000 91.376250
73.500000 91.772733
73.500000 92.170061
73.500000 92.568233
73.500000 92.967249
73.500000 93.367110
73.500000 93.767816
73.500000 94.169365
73.500000 94.571760
73.500000 94.974999
73.500000 95.379082
73.500000 95.784010
73.500000 96.189782
73.500000 96.596399
73.500000 97.003860
73.500000 97.412166
73.500000 97.821316
73.500000 98.231311
73.500000 98.642150
73.500000 99.053833
73.500000 99.466362
73.500000 99.879734
73.500000 100.293951
73.500000 100.709013
73.500000 101.124919
73.500000 101.541669
73.500000 101.959264
73.500000 102.377704
73.500000 102.796988
73.500000 103.217116
73.500000 103.638089
73.500000 104.059906
73.500000 104.482568
73.500000 104.906075
73.500000 105.330426
73.500000 105.755621
73.500000 106.181661
73.500000 106.608545
73.500000 107.036274
73.500000 107.464847
73.500000 107.894265
73.500000 108.324527
73.500000 108.755633
73.500000 109.187584
73.500000 109.620380
73.500000 110.054020
73.500000 110.488505
73.500000 110.923834
73.500000 111.360007
73.500000 111.797025
73.500000 112.234888
73.500000 112.673595
73.500000 113.113146
73.500000 113.553542
73.500000 113.994783
73.500000 114.436868
73.500000 114.879797
73.500000 115.323571
73.500000 115.768189
73.500000 116.213652
73.500000 116.659959
73.500000 117.107111
73.500000 117.555107
73.500000 118.003948
73.500000 118.453633
73.500000 118.904163
73.500000 119.355537
73.500000 119.807756
73.500000 120.260819
73.500000 120.714726
73.500000 121.169478
73.500000 121.625075
73.500000 122.081516
73.500000 122.538801
73.500000 122.996931
73.500000 123.455906
73.500000 123.915725
73.500000 124.376388
73.500000 124.837896
73.500000 125.300249
73.500000 125.763445
73.500000 126.227487
73.500000 126.692373
73.500000 127.158103
73.500000 127.624678
73.500000 128.092097
73.500000 128.560361
73.500000 129.029469
73.500000 129.499422
73.500000 129.970219
73.500000 130.441861
73.500000 130.914347
73.500000 131.387677
73.500000 131.861852
73.500000 132.336872
73.500000 132.812736
73.500000 133.289445
73.500000 133.766998
73.500000 134.245395
73.500000 134.724637
73.500000 135.204724
73.500000 135.685654
73.500000 136.167430
73.500000 136.650050
73.500000 137.133514
73.500000 137.617823
73.500000 138.102976
73.500000 138.588974
73.500000 139.075816
73.500000 139.563503
73.500000 140.052034
73.500000 140.541410
73.500000 141.031630
73.500000 141.522695
73.500000 142.014604
73.500000 142.507358
73.500000 143.000956
73.500000 143.495399
73.500000 143.990686
73.500000 144.486817
73.500000 144.983793
73.500000 145.481614
73.500000 145.980279
73.500000 146.479788
73.500000 146.980142
73.500000 147.481341
73.500000 147.983384
73.500000 148.486271
73.500000 148.990003
73.500000 149.494579
73.500000 150.000000
</POINTS>
</NEKTAR>

