<?xml version="1.0" encoding="utf-8" ?>
<NEKTAR>
<POINTS DIM="2" FIELDS="">
803.500000 -1.500000
803.500000 -1.499578
803.500000 -1.498311
803.500000 -1.496200
803.500000 -1.493244
803.500000 -1.489444
803.500000 -1.484799
803.500000 -1.479310
803.500000 -1.472977
803.500000 -1.465799
803.500000 -1.457776
803.500000 -1.448909
803.500000 -1.439197
803.500000 -1.428642
803.500000 -1.417241
803.500000 -1.404996
803.500000 -1.391907
803.500000 -1.377973
803.500000 -1.363194
803.500000 -1.347571
803.500000 -1.331104
803.500000 -1.313792
803.500000 -1.295636
803.500000 -1.276635
803.500000 -1.256790
803.500000 -1.236100
803.500000 -1.214566
803.500000 -1.192187
803.500000 -1.168964
803.500000 -1.144896
803.500000 -1.119984
803.500000 -1.094228
803.500000 -1.067627
803.500000 -1.040181
803.500000 -1.011891
803.500000 -0.982756
803.500000 -0.952777
803.500000 -0.921954
803.500000 -0.890286
803.500000 -0.857774
803.500000 -0.824417
803.500000 -0.790215
803.500000 -0.755169
803.500000 -0.719279
803.500000 -0.682544
803.500000 -0.644965
803.500000 -0.606541
803.500000 -0.567273
803.500000 -0.527160
803.500000 -0.486203
803.500000 -0.444401
803.500000 -0.401755
803.500000 -0.358264
803.500000 -0.313929
803.500000 -0.268749
803.500000 -0.222725
803.500000 -0.175857
803.500000 -0.128143
803.500000 -0.079586
803.500000 -0.030184
803.500000 0.020063
803.500000 0.071154
803.500000 0.123089
803.500000 0.175869
803.500000 0.229494
803.500000 0.283962
803.500000 0.339276
803.500000 0.395434
803.500000 0.452436
803.500000 0.510283
803.500000 0.568974
803.500000 0.628510
803.500000 0.688890
803.500000 0.750115
803.500000 0.812184
803.500000 0.875098
803.500000 0.938856
803.500000 1.003459
803.500000 1.068906
803.500000 1.135198
803.500000 1.202334
803.500000 1.270314
803.500000 1.339139
803.500000 1.408809
803.500000 1.479323
803.500000 1.550681
803.500000 1.622884
803.500000 1.695932
803.500000 1.769824
803.500000 1.844560
803.500000 1.920141
803.500000 1.996566
803.500000 2.073836
803.500000 2.151951
803.500000 2.230909
803.500000 2.310713
803.500000 2.391360
803.500000 2.472853
803.500000 2.555189
803.500000 2.638371
803.500000 2.722396
803.500000 2.807266
803.500000 2.892981
803.500000 2.979540
803.500000 3.066944
803.500000 3.155192
803.500000 3.244284
803.500000 3.334221
803.500000 3.425003
803.500000 3.516629
803.500000 3.609099
803.500000 3.702414
803.500000 3.796574
803.500000 3.891578
803.500000 3.987426
803.500000 4.084119
803.500000 4.181656
803.500000 4.280038
803.500000 4.379265
803.500000 4.479335
803.500000 4.580251
803.500000 4.682010
803.500000 4.784615
803.500000 4.888063
803.500000 4.992356
803.500000 5.097494
803.500000 5.203476
803.500000 5.310303
803.500000 5.417974
803.500000 5.526490
803.500000 5.635850
803.500000 5.746054
803.500000 5.857103
803.500000 5.968997
803.500000 6.081735
803.500000 6.195317
803.500000 6.309744
803.500000 6.425016
803.500000 6.541131
803.500000 6.658092
803.500000 6.775897
803.500000 6.894546
803.500000 7.014040
803.500000 7.134378
803.500000 7.255561
803.500000 7.377588
803.500000 7.500460
803.500000 7.624176
803.500000 7.748737
803.500000 7.874142
803.500000 8.000392
803.500000 8.127486
803.500000 8.255424
803.500000 8.384207
803.500000 8.513835
803.500000 8.644307
803.500000 8.775624
803.500000 8.907785
803.500000 9.040790
803.500000 9.174640
803.500000 9.309334
803.500000 9.444873
803.500000 9.581257
803.500000 9.718485
803.500000 9.856557
803.500000 9.995474
803.500000 10.135235
803.500000 10.275841
803.500000 10.417291
803.500000 10.559586
803.500000 10.702725
803.500000 10.846709
803.500000 10.991537
803.500000 11.137210
803.500000 11.283727
803.500000 11.431089
803.500000 11.579295
803.500000 11.728345
803.500000 11.878240
803.500000 12.028980
803.500000 12.180564
803.500000 12.332992
803.500000 12.486265
803.500000 12.640383
803.500000 12.795345
803.500000 12.951151
803.500000 13.107802
803.500000 13.265297
803.500000 13.423637
803.500000 13.582822
803.500000 13.742850
803.500000 13.903724
803.500000 14.065442
803.500000 14.228004
803.500000 14.391411
803.500000 14.555662
803.500000 14.720757
803.500000 14.886698
803.500000 15.053482
803.500000 15.221111
803.500000 15.389585
803.500000 15.558903
803.500000 15.729066
803.500000 15.900073
803.500000 16.071924
803.500000 16.244620
803.500000 16.418161
803.500000 16.592546
803.500000 16.767775
803.500000 16.943849
803.500000 17.120768
803.500000 17.298530
803.500000 17.477138
803.500000 17.656590
803.500000 17.836886
803.500000 18.018027
803.500000 18.200012
803.500000 18.382842
803.500000 18.566516
803.500000 18.751035
803.500000 18.936398
803.500000 19.122606
803.500000 19.309658
803.500000 19.497554
803.500000 19.686295
803.500000 19.875881
803.500000 20.066311
803.500000 20.257586
803.500000 20.449705
803.500000 20.642668
803.500000 20.836476
803.500000 21.031129
803.500000 21.226626
803.500000 21.422967
803.500000 21.620153
803.500000 21.818183
803.500000 22.017058
803.500000 22.216778
803.500000 22.417341
803.500000 22.618750
803.500000 22.821002
803.500000 23.024100
803.500000 23.228041
803.500000 23.432828
803.500000 23.638458
803.500000 23.844934
803.500000 24.052253
803.500000 24.260417
803.500000 24.469426
803.500000 24.679279
803.500000 24.889977
803.500000 25.101519
803.500000 25.313905
803.500000 25.527136
803.500000 25.741212
803.500000 25.956132
803.500000 26.171896
803.500000 26.388505
803.500000 26.605958
803.500000 26.824256
803.500000 27.043399
803.500000 27.263386
803.500000 27.484217
803.500000 27.705893
803.500000 27.928413
803.500000 28.151778
803.500000 28.375987
803.500000 28.601041
803.500000 28.826939
803.500000 29.053682
803.500000 29.281269
803.500000 29.509700
803.500000 29.738976
803.500000 29.969097
803.500000 30.200062
803.500000 30.431872
803.500000 30.664526
803.500000 30.898024
803.500000 31.132367
803.500000 31.367555
803.500000 31.603587
803.500000 31.840463
803.500000 32.078184
803.500000 32.316749
803.500000 32.556159
803.500000 32.796414
803.500000 33.037512
803.500000 33.279456
803.500000 33.522244
803.500000 33.765876
803.500000 34.010353
803.500000 34.255674
803.500000 34.501839
803.500000 34.748850
803.500000 34.996704
803.500000 35.245403
803.500000 35.494947
803.500000 35.745335
803.500000 35.996568
803.500000 36.248645
803.500000 36.501566
803.500000 36.755332
803.500000 37.009943
803.500000 37.265398
803.500000 37.521697
803.500000 37.778841
803.500000 38.036830
803.500000 38.295662
803.500000 38.555340
803.500000 38.815862
803.500000 39.077228
803.500000 39.339439
803.500000 39.602494
803.500000 39.866394
803.500000 40.131138
803.500000 40.396727
803.500000 40.663160
803.500000 40.930438
803.500000 41.198560
803.500000 41.467527
803.500000 41.737338
803.500000 42.007993
803.500000 42.279493
803.500000 42.551838
803.500000 42.825027
803.500000 43.099060
803.500000 43.373938
803.500000 43.649661
803.500000 43.926228
803.500000 44.203639
803.500000 44.481895
803.500000 44.760996
803.500000 45.040941
803.500000 45.321730
803.500000 45.603364
803.500000 45.885842
803.500000 46.169165
803.500000 46.453332
803.500000 46.738344
803.500000 47.024200
803.500000 47.310901
803.500000 47.598446
803.500000 47.886836
803.500000 48.176070
803.500000 48.466148
803.500000 48.757071
803.500000 49.048839
803.500000 49.341451
803.500000 49.634908
803.500000 49.929209
803.500000 50.224354
803.500000 50.520344
803.500000 50.817179
803.500000 51.114858
803.500000 51.413381
803.500000 51.712749
803.500000 52.012961
803.500000 52.314018
803.500000 52.615919
803.500000 52.918665
803.500000 53.222256
803.500000 53.526690
803.500000 53.831970
803.500000 54.138093
803.500000 54.445061
803.500000 54.752874
803.500000 55.061531
803.500000 55.371033
803.500000 55.681379
803.500000 55.992570
803.500000 56.304605
803.500000 56.617484
803.500000 56.931208
803.500000 57.245777
803.500000 57.561190
803.500000 57.877447
803.500000 58.194549
803.500000 58.512496
803.500000 58.831287
803.500000 59.150922
803.500000 59.471402
803.500000 59.792726
803.500000 60.114895
803.500000 60.437908
803.500000 60.761766
803.500000 61.086469
803.500000 61.412015
803.500000 61.738407
803.500000 62.065642
803.500000 62.393722
803.500000 62.722647
803.500000 63.052416
803.500000 63.383030
803.500000 63.714488
803.500000 64.046791
803.500000 64.379938
803.500000 64.713929
803.500000 65.048765
803.500000 65.384446
803.500000 65.720971
803.500000 66.058340
803.500000 66.396554
803.500000 66.735612
803.500000 67.075515
803.500000 67.416263
803.500000 67.757855
803.500000 68.100291
803.500000 68.443572
803.500000 68.787697
803.500000 69.132667
803.500000 69.478481
803.500000 69.825140
803.500000 70.172643
803.500000 70.520991
803.500000 70.870183
803.500000 71.220220
803.500000 71.571101
803.500000 71.922826
803.500000 72.275396
803.500000 72.628811
803.500000 72.983070
803.500000 73.338174
803.500000 73.694122
803.500000 74.050914
803.500000 74.408551
803.500000 74.767032
803.500000 75.126358
803.500000 75.486529
803.500000 75.847544
803.500000 76.209403
803.500000 76.572107
803.500000 76.935655
803.500000 77.300048
803.500000 77.665285
803.500000 78.031367
803.500000 78.398293
803.500000 78.766064
803.500000 79.134679
803.500000 79.504139
803.500000 79.874443
803.500000 80.245592
803.500000 80.617585
803.500000 80.990422
803.500000 81.364104
803.500000 81.738631
803.500000 82.114002
803.500000 82.490217
803.500000 82.867277
803.500000 83.245182
803.500000 83.623931
803.500000 84.003524
803.500000 84.383962
803.500000 84.765245
803.500000 85.147371
803.500000 85.530343
803.500000 85.914159
803.500000 86.298819
803.500000 86.684324
803.500000 87.070673
803.500000 87.457867
803.500000 87.845905
803.500000 88.234788
803.500000 88.624515
803.500000 89.015086
803.500000 89.406502
803.500000 89.798763
803.500000 90.191868
803.500000 90.585818
803.500000 90.980612
803.500000 91.376250
803.500000 91.772733
803.500000 92.170061
803.500000 92.568233
803.500000 92.967249
803.500000 93.367110
803.500000 93.767816
803.500000 94.169365
803.500000 94.571760
803.500000 94.974999
803.500000 95.379082
803.500000 95.784010
803.500000 96.189782
803.500000 96.596399
803.500000 97.003860
803.500000 97.412166
803.500000 97.821316
803.500000 98.231311
803.500000 98.642150
803.500000 99.053833
803.500000 99.466362
803.500000 99.879734
803.500000 100.293951
803.500000 100.709013
803.500000 101.124919
803.500000 101.541669
803.500000 101.959264
803.500000 102.377704
803.500000 102.796988
803.500000 103.217116
803.500000 103.638089
803.500000 104.059906
803.500000 104.482568
803.500000 104.906075
803.500000 105.330426
803.500000 105.755621
803.500000 106.181661
803.500000 106.608545
803.500000 107.036274
803.500000 107.464847
803.500000 107.894265
803.500000 108.324527
803.500000 108.755633
803.500000 109.187584
803.500000 109.620380
803.500000 110.054020
803.500000 110.488505
803.500000 110.923834
803.500000 111.360007
803.500000 111.797025
803.500000 112.234888
803.500000 112.673595
803.500000 113.113146
803.500000 113.553542
803.500000 113.994783
803.500000 114.436868
803.500000 114.879797
803.500000 115.323571
803.500000 115.768189
803.500000 116.213652
803.500000 116.659959
803.500000 117.107111
803.500000 117.555107
803.500000 118.003948
803.500000 118.453633
803.500000 118.904163
803.500000 119.355537
803.500000 119.807756
803.500000 120.260819
803.500000 120.714726
803.500000 121.169478
803.500000 121.625075
803.500000 122.081516
803.500000 122.538801
803.500000 122.996931
803.500000 123.455906
803.500000 123.915725
803.500000 124.376388
803.500000 124.837896
803.500000 125.300249
803.500000 125.763445
803.500000 126.227487
803.500000 126.692373
803.500000 127.158103
803.500000 127.624678
803.500000 128.092097
803.500000 128.560361
803.500000 129.029469
803.500000 129.499422
803.500000 129.970219
803.500000 130.441861
803.500000 130.914347
803.500000 131.387677
803.500000 131.861852
803.500000 132.336872
803.500000 132.812736
803.500000 133.289445
803.500000 133.766998
803.500000 134.245395
803.500000 134.724637
803.500000 135.204724
803.500000 135.685654
803.500000 136.167430
803.500000 136.650050
803.500000 137.133514
803.500000 137.617823
803.500000 138.102976
803.500000 138.588974
803.500000 139.075816
803.500000 139.563503
803.500000 140.052034
803.500000 140.541410
803.500000 141.031630
803.500000 141.522695
803.500000 142.014604
803.500000 142.507358
803.500000 143.000956
803.500000 143.495399
803.500000 143.990686
803.500000 144.486817
803.500000 144.983793
803.500000 145.481614
803.500000 145.980279
803.500000 146.479788
803.500000 146.980142
803.500000 147.481341
803.500000 147.983384
803.500000 148.486271
803.500000 148.990003
803.500000 149.494579
803.500000 150.000000
</POINTS>
</NEKTAR>

