<?xml version="1.0" encoding="utf-8" ?>
<NEKTAR>
<POINTS DIM="2" FIELDS="">
683.500000 -1.500000
683.500000 -1.499578
683.500000 -1.498311
683.500000 -1.496200
683.500000 -1.493244
683.500000 -1.489444
683.500000 -1.484799
683.500000 -1.479310
683.500000 -1.472977
683.500000 -1.465799
683.500000 -1.457776
683.500000 -1.448909
683.500000 -1.439197
683.500000 -1.428642
683.500000 -1.417241
683.500000 -1.404996
683.500000 -1.391907
683.500000 -1.377973
683.500000 -1.363194
683.500000 -1.347571
683.500000 -1.331104
683.500000 -1.313792
683.500000 -1.295636
683.500000 -1.276635
683.500000 -1.256790
683.500000 -1.236100
683.500000 -1.214566
683.500000 -1.192187
683.500000 -1.168964
683.500000 -1.144896
683.500000 -1.119984
683.500000 -1.094228
683.500000 -1.067627
683.500000 -1.040181
683.500000 -1.011891
683.500000 -0.982756
683.500000 -0.952777
683.500000 -0.921954
683.500000 -0.890286
683.500000 -0.857774
683.500000 -0.824417
683.500000 -0.790215
683.500000 -0.755169
683.500000 -0.719279
683.500000 -0.682544
683.500000 -0.644965
683.500000 -0.606541
683.500000 -0.567273
683.500000 -0.527160
683.500000 -0.486203
683.500000 -0.444401
683.500000 -0.401755
683.500000 -0.358264
683.500000 -0.313929
683.500000 -0.268749
683.500000 -0.222725
683.500000 -0.175857
683.500000 -0.128143
683.500000 -0.079586
683.500000 -0.030184
683.500000 0.020063
683.500000 0.071154
683.500000 0.123089
683.500000 0.175869
683.500000 0.229494
683.500000 0.283962
683.500000 0.339276
683.500000 0.395434
683.500000 0.452436
683.500000 0.510283
683.500000 0.568974
683.500000 0.628510
683.500000 0.688890
683.500000 0.750115
683.500000 0.812184
683.500000 0.875098
683.500000 0.938856
683.500000 1.003459
683.500000 1.068906
683.500000 1.135198
683.500000 1.202334
683.500000 1.270314
683.500000 1.339139
683.500000 1.408809
683.500000 1.479323
683.500000 1.550681
683.500000 1.622884
683.500000 1.695932
683.500000 1.769824
683.500000 1.844560
683.500000 1.920141
683.500000 1.996566
683.500000 2.073836
683.500000 2.151951
683.500000 2.230909
683.500000 2.310713
683.500000 2.391360
683.500000 2.472853
683.500000 2.555189
683.500000 2.638371
683.500000 2.722396
683.500000 2.807266
683.500000 2.892981
683.500000 2.979540
683.500000 3.066944
683.500000 3.155192
683.500000 3.244284
683.500000 3.334221
683.500000 3.425003
683.500000 3.516629
683.500000 3.609099
683.500000 3.702414
683.500000 3.796574
683.500000 3.891578
683.500000 3.987426
683.500000 4.084119
683.500000 4.181656
683.500000 4.280038
683.500000 4.379265
683.500000 4.479335
683.500000 4.580251
683.500000 4.682010
683.500000 4.784615
683.500000 4.888063
683.500000 4.992356
683.500000 5.097494
683.500000 5.203476
683.500000 5.310303
683.500000 5.417974
683.500000 5.526490
683.500000 5.635850
683.500000 5.746054
683.500000 5.857103
683.500000 5.968997
683.500000 6.081735
683.500000 6.195317
683.500000 6.309744
683.500000 6.425016
683.500000 6.541131
683.500000 6.658092
683.500000 6.775897
683.500000 6.894546
683.500000 7.014040
683.500000 7.134378
683.500000 7.255561
683.500000 7.377588
683.500000 7.500460
683.500000 7.624176
683.500000 7.748737
683.500000 7.874142
683.500000 8.000392
683.500000 8.127486
683.500000 8.255424
683.500000 8.384207
683.500000 8.513835
683.500000 8.644307
683.500000 8.775624
683.500000 8.907785
683.500000 9.040790
683.500000 9.174640
683.500000 9.309334
683.500000 9.444873
683.500000 9.581257
683.500000 9.718485
683.500000 9.856557
683.500000 9.995474
683.500000 10.135235
683.500000 10.275841
683.500000 10.417291
683.500000 10.559586
683.500000 10.702725
683.500000 10.846709
683.500000 10.991537
683.500000 11.137210
683.500000 11.283727
683.500000 11.431089
683.500000 11.579295
683.500000 11.728345
683.500000 11.878240
683.500000 12.028980
683.500000 12.180564
683.500000 12.332992
683.500000 12.486265
683.500000 12.640383
683.500000 12.795345
683.500000 12.951151
683.500000 13.107802
683.500000 13.265297
683.500000 13.423637
683.500000 13.582822
683.500000 13.742850
683.500000 13.903724
683.500000 14.065442
683.500000 14.228004
683.500000 14.391411
683.500000 14.555662
683.500000 14.720757
683.500000 14.886698
683.500000 15.053482
683.500000 15.221111
683.500000 15.389585
683.500000 15.558903
683.500000 15.729066
683.500000 15.900073
683.500000 16.071924
683.500000 16.244620
683.500000 16.418161
683.500000 16.592546
683.500000 16.767775
683.500000 16.943849
683.500000 17.120768
683.500000 17.298530
683.500000 17.477138
683.500000 17.656590
683.500000 17.836886
683.500000 18.018027
683.500000 18.200012
683.500000 18.382842
683.500000 18.566516
683.500000 18.751035
683.500000 18.936398
683.500000 19.122606
683.500000 19.309658
683.500000 19.497554
683.500000 19.686295
683.500000 19.875881
683.500000 20.066311
683.500000 20.257586
683.500000 20.449705
683.500000 20.642668
683.500000 20.836476
683.500000 21.031129
683.500000 21.226626
683.500000 21.422967
683.500000 21.620153
683.500000 21.818183
683.500000 22.017058
683.500000 22.216778
683.500000 22.417341
683.500000 22.618750
683.500000 22.821002
683.500000 23.024100
683.500000 23.228041
683.500000 23.432828
683.500000 23.638458
683.500000 23.844934
683.500000 24.052253
683.500000 24.260417
683.500000 24.469426
683.500000 24.679279
683.500000 24.889977
683.500000 25.101519
683.500000 25.313905
683.500000 25.527136
683.500000 25.741212
683.500000 25.956132
683.500000 26.171896
683.500000 26.388505
683.500000 26.605958
683.500000 26.824256
683.500000 27.043399
683.500000 27.263386
683.500000 27.484217
683.500000 27.705893
683.500000 27.928413
683.500000 28.151778
683.500000 28.375987
683.500000 28.601041
683.500000 28.826939
683.500000 29.053682
683.500000 29.281269
683.500000 29.509700
683.500000 29.738976
683.500000 29.969097
683.500000 30.200062
683.500000 30.431872
683.500000 30.664526
683.500000 30.898024
683.500000 31.132367
683.500000 31.367555
683.500000 31.603587
683.500000 31.840463
683.500000 32.078184
683.500000 32.316749
683.500000 32.556159
683.500000 32.796414
683.500000 33.037512
683.500000 33.279456
683.500000 33.522244
683.500000 33.765876
683.500000 34.010353
683.500000 34.255674
683.500000 34.501839
683.500000 34.748850
683.500000 34.996704
683.500000 35.245403
683.500000 35.494947
683.500000 35.745335
683.500000 35.996568
683.500000 36.248645
683.500000 36.501566
683.500000 36.755332
683.500000 37.009943
683.500000 37.265398
683.500000 37.521697
683.500000 37.778841
683.500000 38.036830
683.500000 38.295662
683.500000 38.555340
683.500000 38.815862
683.500000 39.077228
683.500000 39.339439
683.500000 39.602494
683.500000 39.866394
683.500000 40.131138
683.500000 40.396727
683.500000 40.663160
683.500000 40.930438
683.500000 41.198560
683.500000 41.467527
683.500000 41.737338
683.500000 42.007993
683.500000 42.279493
683.500000 42.551838
683.500000 42.825027
683.500000 43.099060
683.500000 43.373938
683.500000 43.649661
683.500000 43.926228
683.500000 44.203639
683.500000 44.481895
683.500000 44.760996
683.500000 45.040941
683.500000 45.321730
683.500000 45.603364
683.500000 45.885842
683.500000 46.169165
683.500000 46.453332
683.500000 46.738344
683.500000 47.024200
683.500000 47.310901
683.500000 47.598446
683.500000 47.886836
683.500000 48.176070
683.500000 48.466148
683.500000 48.757071
683.500000 49.048839
683.500000 49.341451
683.500000 49.634908
683.500000 49.929209
683.500000 50.224354
683.500000 50.520344
683.500000 50.817179
683.500000 51.114858
683.500000 51.413381
683.500000 51.712749
683.500000 52.012961
683.500000 52.314018
683.500000 52.615919
683.500000 52.918665
683.500000 53.222256
683.500000 53.526690
683.500000 53.831970
683.500000 54.138093
683.500000 54.445061
683.500000 54.752874
683.500000 55.061531
683.500000 55.371033
683.500000 55.681379
683.500000 55.992570
683.500000 56.304605
683.500000 56.617484
683.500000 56.931208
683.500000 57.245777
683.500000 57.561190
683.500000 57.877447
683.500000 58.194549
683.500000 58.512496
683.500000 58.831287
683.500000 59.150922
683.500000 59.471402
683.500000 59.792726
683.500000 60.114895
683.500000 60.437908
683.500000 60.761766
683.500000 61.086469
683.500000 61.412015
683.500000 61.738407
683.500000 62.065642
683.500000 62.393722
683.500000 62.722647
683.500000 63.052416
683.500000 63.383030
683.500000 63.714488
683.500000 64.046791
683.500000 64.379938
683.500000 64.713929
683.500000 65.048765
683.500000 65.384446
683.500000 65.720971
683.500000 66.058340
683.500000 66.396554
683.500000 66.735612
683.500000 67.075515
683.500000 67.416263
683.500000 67.757855
683.500000 68.100291
683.500000 68.443572
683.500000 68.787697
683.500000 69.132667
683.500000 69.478481
683.500000 69.825140
683.500000 70.172643
683.500000 70.520991
683.500000 70.870183
683.500000 71.220220
683.500000 71.571101
683.500000 71.922826
683.500000 72.275396
683.500000 72.628811
683.500000 72.983070
683.500000 73.338174
683.500000 73.694122
683.500000 74.050914
683.500000 74.408551
683.500000 74.767032
683.500000 75.126358
683.500000 75.486529
683.500000 75.847544
683.500000 76.209403
683.500000 76.572107
683.500000 76.935655
683.500000 77.300048
683.500000 77.665285
683.500000 78.031367
683.500000 78.398293
683.500000 78.766064
683.500000 79.134679
683.500000 79.504139
683.500000 79.874443
683.500000 80.245592
683.500000 80.617585
683.500000 80.990422
683.500000 81.364104
683.500000 81.738631
683.500000 82.114002
683.500000 82.490217
683.500000 82.867277
683.500000 83.245182
683.500000 83.623931
683.500000 84.003524
683.500000 84.383962
683.500000 84.765245
683.500000 85.147371
683.500000 85.530343
683.500000 85.914159
683.500000 86.298819
683.500000 86.684324
683.500000 87.070673
683.500000 87.457867
683.500000 87.845905
683.500000 88.234788
683.500000 88.624515
683.500000 89.015086
683.500000 89.406502
683.500000 89.798763
683.500000 90.191868
683.500000 90.585818
683.500000 90.980612
683.500000 91.376250
683.500000 91.772733
683.500000 92.170061
683.500000 92.568233
683.500000 92.967249
683.500000 93.367110
683.500000 93.767816
683.500000 94.169365
683.500000 94.571760
683.500000 94.974999
683.500000 95.379082
683.500000 95.784010
683.500000 96.189782
683.500000 96.596399
683.500000 97.003860
683.500000 97.412166
683.500000 97.821316
683.500000 98.231311
683.500000 98.642150
683.500000 99.053833
683.500000 99.466362
683.500000 99.879734
683.500000 100.293951
683.500000 100.709013
683.500000 101.124919
683.500000 101.541669
683.500000 101.959264
683.500000 102.377704
683.500000 102.796988
683.500000 103.217116
683.500000 103.638089
683.500000 104.059906
683.500000 104.482568
683.500000 104.906075
683.500000 105.330426
683.500000 105.755621
683.500000 106.181661
683.500000 106.608545
683.500000 107.036274
683.500000 107.464847
683.500000 107.894265
683.500000 108.324527
683.500000 108.755633
683.500000 109.187584
683.500000 109.620380
683.500000 110.054020
683.500000 110.488505
683.500000 110.923834
683.500000 111.360007
683.500000 111.797025
683.500000 112.234888
683.500000 112.673595
683.500000 113.113146
683.500000 113.553542
683.500000 113.994783
683.500000 114.436868
683.500000 114.879797
683.500000 115.323571
683.500000 115.768189
683.500000 116.213652
683.500000 116.659959
683.500000 117.107111
683.500000 117.555107
683.500000 118.003948
683.500000 118.453633
683.500000 118.904163
683.500000 119.355537
683.500000 119.807756
683.500000 120.260819
683.500000 120.714726
683.500000 121.169478
683.500000 121.625075
683.500000 122.081516
683.500000 122.538801
683.500000 122.996931
683.500000 123.455906
683.500000 123.915725
683.500000 124.376388
683.500000 124.837896
683.500000 125.300249
683.500000 125.763445
683.500000 126.227487
683.500000 126.692373
683.500000 127.158103
683.500000 127.624678
683.500000 128.092097
683.500000 128.560361
683.500000 129.029469
683.500000 129.499422
683.500000 129.970219
683.500000 130.441861
683.500000 130.914347
683.500000 131.387677
683.500000 131.861852
683.500000 132.336872
683.500000 132.812736
683.500000 133.289445
683.500000 133.766998
683.500000 134.245395
683.500000 134.724637
683.500000 135.204724
683.500000 135.685654
683.500000 136.167430
683.500000 136.650050
683.500000 137.133514
683.500000 137.617823
683.500000 138.102976
683.500000 138.588974
683.500000 139.075816
683.500000 139.563503
683.500000 140.052034
683.500000 140.541410
683.500000 141.031630
683.500000 141.522695
683.500000 142.014604
683.500000 142.507358
683.500000 143.000956
683.500000 143.495399
683.500000 143.990686
683.500000 144.486817
683.500000 144.983793
683.500000 145.481614
683.500000 145.980279
683.500000 146.479788
683.500000 146.980142
683.500000 147.481341
683.500000 147.983384
683.500000 148.486271
683.500000 148.990003
683.500000 149.494579
683.500000 150.000000
</POINTS>
</NEKTAR>

