<?xml version="1.0" encoding="utf-8" ?>
<NEKTAR>
<POINTS DIM="2" FIELDS="">
663.500000 -1.500000
663.500000 -1.499578
663.500000 -1.498311
663.500000 -1.496200
663.500000 -1.493244
663.500000 -1.489444
663.500000 -1.484799
663.500000 -1.479310
663.500000 -1.472977
663.500000 -1.465799
663.500000 -1.457776
663.500000 -1.448909
663.500000 -1.439197
663.500000 -1.428642
663.500000 -1.417241
663.500000 -1.404996
663.500000 -1.391907
663.500000 -1.377973
663.500000 -1.363194
663.500000 -1.347571
663.500000 -1.331104
663.500000 -1.313792
663.500000 -1.295636
663.500000 -1.276635
663.500000 -1.256790
663.500000 -1.236100
663.500000 -1.214566
663.500000 -1.192187
663.500000 -1.168964
663.500000 -1.144896
663.500000 -1.119984
663.500000 -1.094228
663.500000 -1.067627
663.500000 -1.040181
663.500000 -1.011891
663.500000 -0.982756
663.500000 -0.952777
663.500000 -0.921954
663.500000 -0.890286
663.500000 -0.857774
663.500000 -0.824417
663.500000 -0.790215
663.500000 -0.755169
663.500000 -0.719279
663.500000 -0.682544
663.500000 -0.644965
663.500000 -0.606541
663.500000 -0.567273
663.500000 -0.527160
663.500000 -0.486203
663.500000 -0.444401
663.500000 -0.401755
663.500000 -0.358264
663.500000 -0.313929
663.500000 -0.268749
663.500000 -0.222725
663.500000 -0.175857
663.500000 -0.128143
663.500000 -0.079586
663.500000 -0.030184
663.500000 0.020063
663.500000 0.071154
663.500000 0.123089
663.500000 0.175869
663.500000 0.229494
663.500000 0.283962
663.500000 0.339276
663.500000 0.395434
663.500000 0.452436
663.500000 0.510283
663.500000 0.568974
663.500000 0.628510
663.500000 0.688890
663.500000 0.750115
663.500000 0.812184
663.500000 0.875098
663.500000 0.938856
663.500000 1.003459
663.500000 1.068906
663.500000 1.135198
663.500000 1.202334
663.500000 1.270314
663.500000 1.339139
663.500000 1.408809
663.500000 1.479323
663.500000 1.550681
663.500000 1.622884
663.500000 1.695932
663.500000 1.769824
663.500000 1.844560
663.500000 1.920141
663.500000 1.996566
663.500000 2.073836
663.500000 2.151951
663.500000 2.230909
663.500000 2.310713
663.500000 2.391360
663.500000 2.472853
663.500000 2.555189
663.500000 2.638371
663.500000 2.722396
663.500000 2.807266
663.500000 2.892981
663.500000 2.979540
663.500000 3.066944
663.500000 3.155192
663.500000 3.244284
663.500000 3.334221
663.500000 3.425003
663.500000 3.516629
663.500000 3.609099
663.500000 3.702414
663.500000 3.796574
663.500000 3.891578
663.500000 3.987426
663.500000 4.084119
663.500000 4.181656
663.500000 4.280038
663.500000 4.379265
663.500000 4.479335
663.500000 4.580251
663.500000 4.682010
663.500000 4.784615
663.500000 4.888063
663.500000 4.992356
663.500000 5.097494
663.500000 5.203476
663.500000 5.310303
663.500000 5.417974
663.500000 5.526490
663.500000 5.635850
663.500000 5.746054
663.500000 5.857103
663.500000 5.968997
663.500000 6.081735
663.500000 6.195317
663.500000 6.309744
663.500000 6.425016
663.500000 6.541131
663.500000 6.658092
663.500000 6.775897
663.500000 6.894546
663.500000 7.014040
663.500000 7.134378
663.500000 7.255561
663.500000 7.377588
663.500000 7.500460
663.500000 7.624176
663.500000 7.748737
663.500000 7.874142
663.500000 8.000392
663.500000 8.127486
663.500000 8.255424
663.500000 8.384207
663.500000 8.513835
663.500000 8.644307
663.500000 8.775624
663.500000 8.907785
663.500000 9.040790
663.500000 9.174640
663.500000 9.309334
663.500000 9.444873
663.500000 9.581257
663.500000 9.718485
663.500000 9.856557
663.500000 9.995474
663.500000 10.135235
663.500000 10.275841
663.500000 10.417291
663.500000 10.559586
663.500000 10.702725
663.500000 10.846709
663.500000 10.991537
663.500000 11.137210
663.500000 11.283727
663.500000 11.431089
663.500000 11.579295
663.500000 11.728345
663.500000 11.878240
663.500000 12.028980
663.500000 12.180564
663.500000 12.332992
663.500000 12.486265
663.500000 12.640383
663.500000 12.795345
663.500000 12.951151
663.500000 13.107802
663.500000 13.265297
663.500000 13.423637
663.500000 13.582822
663.500000 13.742850
663.500000 13.903724
663.500000 14.065442
663.500000 14.228004
663.500000 14.391411
663.500000 14.555662
663.500000 14.720757
663.500000 14.886698
663.500000 15.053482
663.500000 15.221111
663.500000 15.389585
663.500000 15.558903
663.500000 15.729066
663.500000 15.900073
663.500000 16.071924
663.500000 16.244620
663.500000 16.418161
663.500000 16.592546
663.500000 16.767775
663.500000 16.943849
663.500000 17.120768
663.500000 17.298530
663.500000 17.477138
663.500000 17.656590
663.500000 17.836886
663.500000 18.018027
663.500000 18.200012
663.500000 18.382842
663.500000 18.566516
663.500000 18.751035
663.500000 18.936398
663.500000 19.122606
663.500000 19.309658
663.500000 19.497554
663.500000 19.686295
663.500000 19.875881
663.500000 20.066311
663.500000 20.257586
663.500000 20.449705
663.500000 20.642668
663.500000 20.836476
663.500000 21.031129
663.500000 21.226626
663.500000 21.422967
663.500000 21.620153
663.500000 21.818183
663.500000 22.017058
663.500000 22.216778
663.500000 22.417341
663.500000 22.618750
663.500000 22.821002
663.500000 23.024100
663.500000 23.228041
663.500000 23.432828
663.500000 23.638458
663.500000 23.844934
663.500000 24.052253
663.500000 24.260417
663.500000 24.469426
663.500000 24.679279
663.500000 24.889977
663.500000 25.101519
663.500000 25.313905
663.500000 25.527136
663.500000 25.741212
663.500000 25.956132
663.500000 26.171896
663.500000 26.388505
663.500000 26.605958
663.500000 26.824256
663.500000 27.043399
663.500000 27.263386
663.500000 27.484217
663.500000 27.705893
663.500000 27.928413
663.500000 28.151778
663.500000 28.375987
663.500000 28.601041
663.500000 28.826939
663.500000 29.053682
663.500000 29.281269
663.500000 29.509700
663.500000 29.738976
663.500000 29.969097
663.500000 30.200062
663.500000 30.431872
663.500000 30.664526
663.500000 30.898024
663.500000 31.132367
663.500000 31.367555
663.500000 31.603587
663.500000 31.840463
663.500000 32.078184
663.500000 32.316749
663.500000 32.556159
663.500000 32.796414
663.500000 33.037512
663.500000 33.279456
663.500000 33.522244
663.500000 33.765876
663.500000 34.010353
663.500000 34.255674
663.500000 34.501839
663.500000 34.748850
663.500000 34.996704
663.500000 35.245403
663.500000 35.494947
663.500000 35.745335
663.500000 35.996568
663.500000 36.248645
663.500000 36.501566
663.500000 36.755332
663.500000 37.009943
663.500000 37.265398
663.500000 37.521697
663.500000 37.778841
663.500000 38.036830
663.500000 38.295662
663.500000 38.555340
663.500000 38.815862
663.500000 39.077228
663.500000 39.339439
663.500000 39.602494
663.500000 39.866394
663.500000 40.131138
663.500000 40.396727
663.500000 40.663160
663.500000 40.930438
663.500000 41.198560
663.500000 41.467527
663.500000 41.737338
663.500000 42.007993
663.500000 42.279493
663.500000 42.551838
663.500000 42.825027
663.500000 43.099060
663.500000 43.373938
663.500000 43.649661
663.500000 43.926228
663.500000 44.203639
663.500000 44.481895
663.500000 44.760996
663.500000 45.040941
663.500000 45.321730
663.500000 45.603364
663.500000 45.885842
663.500000 46.169165
663.500000 46.453332
663.500000 46.738344
663.500000 47.024200
663.500000 47.310901
663.500000 47.598446
663.500000 47.886836
663.500000 48.176070
663.500000 48.466148
663.500000 48.757071
663.500000 49.048839
663.500000 49.341451
663.500000 49.634908
663.500000 49.929209
663.500000 50.224354
663.500000 50.520344
663.500000 50.817179
663.500000 51.114858
663.500000 51.413381
663.500000 51.712749
663.500000 52.012961
663.500000 52.314018
663.500000 52.615919
663.500000 52.918665
663.500000 53.222256
663.500000 53.526690
663.500000 53.831970
663.500000 54.138093
663.500000 54.445061
663.500000 54.752874
663.500000 55.061531
663.500000 55.371033
663.500000 55.681379
663.500000 55.992570
663.500000 56.304605
663.500000 56.617484
663.500000 56.931208
663.500000 57.245777
663.500000 57.561190
663.500000 57.877447
663.500000 58.194549
663.500000 58.512496
663.500000 58.831287
663.500000 59.150922
663.500000 59.471402
663.500000 59.792726
663.500000 60.114895
663.500000 60.437908
663.500000 60.761766
663.500000 61.086469
663.500000 61.412015
663.500000 61.738407
663.500000 62.065642
663.500000 62.393722
663.500000 62.722647
663.500000 63.052416
663.500000 63.383030
663.500000 63.714488
663.500000 64.046791
663.500000 64.379938
663.500000 64.713929
663.500000 65.048765
663.500000 65.384446
663.500000 65.720971
663.500000 66.058340
663.500000 66.396554
663.500000 66.735612
663.500000 67.075515
663.500000 67.416263
663.500000 67.757855
663.500000 68.100291
663.500000 68.443572
663.500000 68.787697
663.500000 69.132667
663.500000 69.478481
663.500000 69.825140
663.500000 70.172643
663.500000 70.520991
663.500000 70.870183
663.500000 71.220220
663.500000 71.571101
663.500000 71.922826
663.500000 72.275396
663.500000 72.628811
663.500000 72.983070
663.500000 73.338174
663.500000 73.694122
663.500000 74.050914
663.500000 74.408551
663.500000 74.767032
663.500000 75.126358
663.500000 75.486529
663.500000 75.847544
663.500000 76.209403
663.500000 76.572107
663.500000 76.935655
663.500000 77.300048
663.500000 77.665285
663.500000 78.031367
663.500000 78.398293
663.500000 78.766064
663.500000 79.134679
663.500000 79.504139
663.500000 79.874443
663.500000 80.245592
663.500000 80.617585
663.500000 80.990422
663.500000 81.364104
663.500000 81.738631
663.500000 82.114002
663.500000 82.490217
663.500000 82.867277
663.500000 83.245182
663.500000 83.623931
663.500000 84.003524
663.500000 84.383962
663.500000 84.765245
663.500000 85.147371
663.500000 85.530343
663.500000 85.914159
663.500000 86.298819
663.500000 86.684324
663.500000 87.070673
663.500000 87.457867
663.500000 87.845905
663.500000 88.234788
663.500000 88.624515
663.500000 89.015086
663.500000 89.406502
663.500000 89.798763
663.500000 90.191868
663.500000 90.585818
663.500000 90.980612
663.500000 91.376250
663.500000 91.772733
663.500000 92.170061
663.500000 92.568233
663.500000 92.967249
663.500000 93.367110
663.500000 93.767816
663.500000 94.169365
663.500000 94.571760
663.500000 94.974999
663.500000 95.379082
663.500000 95.784010
663.500000 96.189782
663.500000 96.596399
663.500000 97.003860
663.500000 97.412166
663.500000 97.821316
663.500000 98.231311
663.500000 98.642150
663.500000 99.053833
663.500000 99.466362
663.500000 99.879734
663.500000 100.293951
663.500000 100.709013
663.500000 101.124919
663.500000 101.541669
663.500000 101.959264
663.500000 102.377704
663.500000 102.796988
663.500000 103.217116
663.500000 103.638089
663.500000 104.059906
663.500000 104.482568
663.500000 104.906075
663.500000 105.330426
663.500000 105.755621
663.500000 106.181661
663.500000 106.608545
663.500000 107.036274
663.500000 107.464847
663.500000 107.894265
663.500000 108.324527
663.500000 108.755633
663.500000 109.187584
663.500000 109.620380
663.500000 110.054020
663.500000 110.488505
663.500000 110.923834
663.500000 111.360007
663.500000 111.797025
663.500000 112.234888
663.500000 112.673595
663.500000 113.113146
663.500000 113.553542
663.500000 113.994783
663.500000 114.436868
663.500000 114.879797
663.500000 115.323571
663.500000 115.768189
663.500000 116.213652
663.500000 116.659959
663.500000 117.107111
663.500000 117.555107
663.500000 118.003948
663.500000 118.453633
663.500000 118.904163
663.500000 119.355537
663.500000 119.807756
663.500000 120.260819
663.500000 120.714726
663.500000 121.169478
663.500000 121.625075
663.500000 122.081516
663.500000 122.538801
663.500000 122.996931
663.500000 123.455906
663.500000 123.915725
663.500000 124.376388
663.500000 124.837896
663.500000 125.300249
663.500000 125.763445
663.500000 126.227487
663.500000 126.692373
663.500000 127.158103
663.500000 127.624678
663.500000 128.092097
663.500000 128.560361
663.500000 129.029469
663.500000 129.499422
663.500000 129.970219
663.500000 130.441861
663.500000 130.914347
663.500000 131.387677
663.500000 131.861852
663.500000 132.336872
663.500000 132.812736
663.500000 133.289445
663.500000 133.766998
663.500000 134.245395
663.500000 134.724637
663.500000 135.204724
663.500000 135.685654
663.500000 136.167430
663.500000 136.650050
663.500000 137.133514
663.500000 137.617823
663.500000 138.102976
663.500000 138.588974
663.500000 139.075816
663.500000 139.563503
663.500000 140.052034
663.500000 140.541410
663.500000 141.031630
663.500000 141.522695
663.500000 142.014604
663.500000 142.507358
663.500000 143.000956
663.500000 143.495399
663.500000 143.990686
663.500000 144.486817
663.500000 144.983793
663.500000 145.481614
663.500000 145.980279
663.500000 146.479788
663.500000 146.980142
663.500000 147.481341
663.500000 147.983384
663.500000 148.486271
663.500000 148.990003
663.500000 149.494579
663.500000 150.000000
</POINTS>
</NEKTAR>

