<?xml version="1.0" encoding="utf-8" ?>
<NEKTAR>
<POINTS DIM="2" FIELDS="">
843.500000 -1.500000
843.500000 -1.499578
843.500000 -1.498311
843.500000 -1.496200
843.500000 -1.493244
843.500000 -1.489444
843.500000 -1.484799
843.500000 -1.479310
843.500000 -1.472977
843.500000 -1.465799
843.500000 -1.457776
843.500000 -1.448909
843.500000 -1.439197
843.500000 -1.428642
843.500000 -1.417241
843.500000 -1.404996
843.500000 -1.391907
843.500000 -1.377973
843.500000 -1.363194
843.500000 -1.347571
843.500000 -1.331104
843.500000 -1.313792
843.500000 -1.295636
843.500000 -1.276635
843.500000 -1.256790
843.500000 -1.236100
843.500000 -1.214566
843.500000 -1.192187
843.500000 -1.168964
843.500000 -1.144896
843.500000 -1.119984
843.500000 -1.094228
843.500000 -1.067627
843.500000 -1.040181
843.500000 -1.011891
843.500000 -0.982756
843.500000 -0.952777
843.500000 -0.921954
843.500000 -0.890286
843.500000 -0.857774
843.500000 -0.824417
843.500000 -0.790215
843.500000 -0.755169
843.500000 -0.719279
843.500000 -0.682544
843.500000 -0.644965
843.500000 -0.606541
843.500000 -0.567273
843.500000 -0.527160
843.500000 -0.486203
843.500000 -0.444401
843.500000 -0.401755
843.500000 -0.358264
843.500000 -0.313929
843.500000 -0.268749
843.500000 -0.222725
843.500000 -0.175857
843.500000 -0.128143
843.500000 -0.079586
843.500000 -0.030184
843.500000 0.020063
843.500000 0.071154
843.500000 0.123089
843.500000 0.175869
843.500000 0.229494
843.500000 0.283962
843.500000 0.339276
843.500000 0.395434
843.500000 0.452436
843.500000 0.510283
843.500000 0.568974
843.500000 0.628510
843.500000 0.688890
843.500000 0.750115
843.500000 0.812184
843.500000 0.875098
843.500000 0.938856
843.500000 1.003459
843.500000 1.068906
843.500000 1.135198
843.500000 1.202334
843.500000 1.270314
843.500000 1.339139
843.500000 1.408809
843.500000 1.479323
843.500000 1.550681
843.500000 1.622884
843.500000 1.695932
843.500000 1.769824
843.500000 1.844560
843.500000 1.920141
843.500000 1.996566
843.500000 2.073836
843.500000 2.151951
843.500000 2.230909
843.500000 2.310713
843.500000 2.391360
843.500000 2.472853
843.500000 2.555189
843.500000 2.638371
843.500000 2.722396
843.500000 2.807266
843.500000 2.892981
843.500000 2.979540
843.500000 3.066944
843.500000 3.155192
843.500000 3.244284
843.500000 3.334221
843.500000 3.425003
843.500000 3.516629
843.500000 3.609099
843.500000 3.702414
843.500000 3.796574
843.500000 3.891578
843.500000 3.987426
843.500000 4.084119
843.500000 4.181656
843.500000 4.280038
843.500000 4.379265
843.500000 4.479335
843.500000 4.580251
843.500000 4.682010
843.500000 4.784615
843.500000 4.888063
843.500000 4.992356
843.500000 5.097494
843.500000 5.203476
843.500000 5.310303
843.500000 5.417974
843.500000 5.526490
843.500000 5.635850
843.500000 5.746054
843.500000 5.857103
843.500000 5.968997
843.500000 6.081735
843.500000 6.195317
843.500000 6.309744
843.500000 6.425016
843.500000 6.541131
843.500000 6.658092
843.500000 6.775897
843.500000 6.894546
843.500000 7.014040
843.500000 7.134378
843.500000 7.255561
843.500000 7.377588
843.500000 7.500460
843.500000 7.624176
843.500000 7.748737
843.500000 7.874142
843.500000 8.000392
843.500000 8.127486
843.500000 8.255424
843.500000 8.384207
843.500000 8.513835
843.500000 8.644307
843.500000 8.775624
843.500000 8.907785
843.500000 9.040790
843.500000 9.174640
843.500000 9.309334
843.500000 9.444873
843.500000 9.581257
843.500000 9.718485
843.500000 9.856557
843.500000 9.995474
843.500000 10.135235
843.500000 10.275841
843.500000 10.417291
843.500000 10.559586
843.500000 10.702725
843.500000 10.846709
843.500000 10.991537
843.500000 11.137210
843.500000 11.283727
843.500000 11.431089
843.500000 11.579295
843.500000 11.728345
843.500000 11.878240
843.500000 12.028980
843.500000 12.180564
843.500000 12.332992
843.500000 12.486265
843.500000 12.640383
843.500000 12.795345
843.500000 12.951151
843.500000 13.107802
843.500000 13.265297
843.500000 13.423637
843.500000 13.582822
843.500000 13.742850
843.500000 13.903724
843.500000 14.065442
843.500000 14.228004
843.500000 14.391411
843.500000 14.555662
843.500000 14.720757
843.500000 14.886698
843.500000 15.053482
843.500000 15.221111
843.500000 15.389585
843.500000 15.558903
843.500000 15.729066
843.500000 15.900073
843.500000 16.071924
843.500000 16.244620
843.500000 16.418161
843.500000 16.592546
843.500000 16.767775
843.500000 16.943849
843.500000 17.120768
843.500000 17.298530
843.500000 17.477138
843.500000 17.656590
843.500000 17.836886
843.500000 18.018027
843.500000 18.200012
843.500000 18.382842
843.500000 18.566516
843.500000 18.751035
843.500000 18.936398
843.500000 19.122606
843.500000 19.309658
843.500000 19.497554
843.500000 19.686295
843.500000 19.875881
843.500000 20.066311
843.500000 20.257586
843.500000 20.449705
843.500000 20.642668
843.500000 20.836476
843.500000 21.031129
843.500000 21.226626
843.500000 21.422967
843.500000 21.620153
843.500000 21.818183
843.500000 22.017058
843.500000 22.216778
843.500000 22.417341
843.500000 22.618750
843.500000 22.821002
843.500000 23.024100
843.500000 23.228041
843.500000 23.432828
843.500000 23.638458
843.500000 23.844934
843.500000 24.052253
843.500000 24.260417
843.500000 24.469426
843.500000 24.679279
843.500000 24.889977
843.500000 25.101519
843.500000 25.313905
843.500000 25.527136
843.500000 25.741212
843.500000 25.956132
843.500000 26.171896
843.500000 26.388505
843.500000 26.605958
843.500000 26.824256
843.500000 27.043399
843.500000 27.263386
843.500000 27.484217
843.500000 27.705893
843.500000 27.928413
843.500000 28.151778
843.500000 28.375987
843.500000 28.601041
843.500000 28.826939
843.500000 29.053682
843.500000 29.281269
843.500000 29.509700
843.500000 29.738976
843.500000 29.969097
843.500000 30.200062
843.500000 30.431872
843.500000 30.664526
843.500000 30.898024
843.500000 31.132367
843.500000 31.367555
843.500000 31.603587
843.500000 31.840463
843.500000 32.078184
843.500000 32.316749
843.500000 32.556159
843.500000 32.796414
843.500000 33.037512
843.500000 33.279456
843.500000 33.522244
843.500000 33.765876
843.500000 34.010353
843.500000 34.255674
843.500000 34.501839
843.500000 34.748850
843.500000 34.996704
843.500000 35.245403
843.500000 35.494947
843.500000 35.745335
843.500000 35.996568
843.500000 36.248645
843.500000 36.501566
843.500000 36.755332
843.500000 37.009943
843.500000 37.265398
843.500000 37.521697
843.500000 37.778841
843.500000 38.036830
843.500000 38.295662
843.500000 38.555340
843.500000 38.815862
843.500000 39.077228
843.500000 39.339439
843.500000 39.602494
843.500000 39.866394
843.500000 40.131138
843.500000 40.396727
843.500000 40.663160
843.500000 40.930438
843.500000 41.198560
843.500000 41.467527
843.500000 41.737338
843.500000 42.007993
843.500000 42.279493
843.500000 42.551838
843.500000 42.825027
843.500000 43.099060
843.500000 43.373938
843.500000 43.649661
843.500000 43.926228
843.500000 44.203639
843.500000 44.481895
843.500000 44.760996
843.500000 45.040941
843.500000 45.321730
843.500000 45.603364
843.500000 45.885842
843.500000 46.169165
843.500000 46.453332
843.500000 46.738344
843.500000 47.024200
843.500000 47.310901
843.500000 47.598446
843.500000 47.886836
843.500000 48.176070
843.500000 48.466148
843.500000 48.757071
843.500000 49.048839
843.500000 49.341451
843.500000 49.634908
843.500000 49.929209
843.500000 50.224354
843.500000 50.520344
843.500000 50.817179
843.500000 51.114858
843.500000 51.413381
843.500000 51.712749
843.500000 52.012961
843.500000 52.314018
843.500000 52.615919
843.500000 52.918665
843.500000 53.222256
843.500000 53.526690
843.500000 53.831970
843.500000 54.138093
843.500000 54.445061
843.500000 54.752874
843.500000 55.061531
843.500000 55.371033
843.500000 55.681379
843.500000 55.992570
843.500000 56.304605
843.500000 56.617484
843.500000 56.931208
843.500000 57.245777
843.500000 57.561190
843.500000 57.877447
843.500000 58.194549
843.500000 58.512496
843.500000 58.831287
843.500000 59.150922
843.500000 59.471402
843.500000 59.792726
843.500000 60.114895
843.500000 60.437908
843.500000 60.761766
843.500000 61.086469
843.500000 61.412015
843.500000 61.738407
843.500000 62.065642
843.500000 62.393722
843.500000 62.722647
843.500000 63.052416
843.500000 63.383030
843.500000 63.714488
843.500000 64.046791
843.500000 64.379938
843.500000 64.713929
843.500000 65.048765
843.500000 65.384446
843.500000 65.720971
843.500000 66.058340
843.500000 66.396554
843.500000 66.735612
843.500000 67.075515
843.500000 67.416263
843.500000 67.757855
843.500000 68.100291
843.500000 68.443572
843.500000 68.787697
843.500000 69.132667
843.500000 69.478481
843.500000 69.825140
843.500000 70.172643
843.500000 70.520991
843.500000 70.870183
843.500000 71.220220
843.500000 71.571101
843.500000 71.922826
843.500000 72.275396
843.500000 72.628811
843.500000 72.983070
843.500000 73.338174
843.500000 73.694122
843.500000 74.050914
843.500000 74.408551
843.500000 74.767032
843.500000 75.126358
843.500000 75.486529
843.500000 75.847544
843.500000 76.209403
843.500000 76.572107
843.500000 76.935655
843.500000 77.300048
843.500000 77.665285
843.500000 78.031367
843.500000 78.398293
843.500000 78.766064
843.500000 79.134679
843.500000 79.504139
843.500000 79.874443
843.500000 80.245592
843.500000 80.617585
843.500000 80.990422
843.500000 81.364104
843.500000 81.738631
843.500000 82.114002
843.500000 82.490217
843.500000 82.867277
843.500000 83.245182
843.500000 83.623931
843.500000 84.003524
843.500000 84.383962
843.500000 84.765245
843.500000 85.147371
843.500000 85.530343
843.500000 85.914159
843.500000 86.298819
843.500000 86.684324
843.500000 87.070673
843.500000 87.457867
843.500000 87.845905
843.500000 88.234788
843.500000 88.624515
843.500000 89.015086
843.500000 89.406502
843.500000 89.798763
843.500000 90.191868
843.500000 90.585818
843.500000 90.980612
843.500000 91.376250
843.500000 91.772733
843.500000 92.170061
843.500000 92.568233
843.500000 92.967249
843.500000 93.367110
843.500000 93.767816
843.500000 94.169365
843.500000 94.571760
843.500000 94.974999
843.500000 95.379082
843.500000 95.784010
843.500000 96.189782
843.500000 96.596399
843.500000 97.003860
843.500000 97.412166
843.500000 97.821316
843.500000 98.231311
843.500000 98.642150
843.500000 99.053833
843.500000 99.466362
843.500000 99.879734
843.500000 100.293951
843.500000 100.709013
843.500000 101.124919
843.500000 101.541669
843.500000 101.959264
843.500000 102.377704
843.500000 102.796988
843.500000 103.217116
843.500000 103.638089
843.500000 104.059906
843.500000 104.482568
843.500000 104.906075
843.500000 105.330426
843.500000 105.755621
843.500000 106.181661
843.500000 106.608545
843.500000 107.036274
843.500000 107.464847
843.500000 107.894265
843.500000 108.324527
843.500000 108.755633
843.500000 109.187584
843.500000 109.620380
843.500000 110.054020
843.500000 110.488505
843.500000 110.923834
843.500000 111.360007
843.500000 111.797025
843.500000 112.234888
843.500000 112.673595
843.500000 113.113146
843.500000 113.553542
843.500000 113.994783
843.500000 114.436868
843.500000 114.879797
843.500000 115.323571
843.500000 115.768189
843.500000 116.213652
843.500000 116.659959
843.500000 117.107111
843.500000 117.555107
843.500000 118.003948
843.500000 118.453633
843.500000 118.904163
843.500000 119.355537
843.500000 119.807756
843.500000 120.260819
843.500000 120.714726
843.500000 121.169478
843.500000 121.625075
843.500000 122.081516
843.500000 122.538801
843.500000 122.996931
843.500000 123.455906
843.500000 123.915725
843.500000 124.376388
843.500000 124.837896
843.500000 125.300249
843.500000 125.763445
843.500000 126.227487
843.500000 126.692373
843.500000 127.158103
843.500000 127.624678
843.500000 128.092097
843.500000 128.560361
843.500000 129.029469
843.500000 129.499422
843.500000 129.970219
843.500000 130.441861
843.500000 130.914347
843.500000 131.387677
843.500000 131.861852
843.500000 132.336872
843.500000 132.812736
843.500000 133.289445
843.500000 133.766998
843.500000 134.245395
843.500000 134.724637
843.500000 135.204724
843.500000 135.685654
843.500000 136.167430
843.500000 136.650050
843.500000 137.133514
843.500000 137.617823
843.500000 138.102976
843.500000 138.588974
843.500000 139.075816
843.500000 139.563503
843.500000 140.052034
843.500000 140.541410
843.500000 141.031630
843.500000 141.522695
843.500000 142.014604
843.500000 142.507358
843.500000 143.000956
843.500000 143.495399
843.500000 143.990686
843.500000 144.486817
843.500000 144.983793
843.500000 145.481614
843.500000 145.980279
843.500000 146.479788
843.500000 146.980142
843.500000 147.481341
843.500000 147.983384
843.500000 148.486271
843.500000 148.990003
843.500000 149.494579
843.500000 150.000000
</POINTS>
</NEKTAR>

