<?xml version="1.0" encoding="utf-8" ?>
<NEKTAR>
<POINTS DIM="2" FIELDS="">
403.500000 -1.500000
403.500000 -1.499578
403.500000 -1.498311
403.500000 -1.496200
403.500000 -1.493244
403.500000 -1.489444
403.500000 -1.484799
403.500000 -1.479310
403.500000 -1.472977
403.500000 -1.465799
403.500000 -1.457776
403.500000 -1.448909
403.500000 -1.439197
403.500000 -1.428642
403.500000 -1.417241
403.500000 -1.404996
403.500000 -1.391907
403.500000 -1.377973
403.500000 -1.363194
403.500000 -1.347571
403.500000 -1.331104
403.500000 -1.313792
403.500000 -1.295636
403.500000 -1.276635
403.500000 -1.256790
403.500000 -1.236100
403.500000 -1.214566
403.500000 -1.192187
403.500000 -1.168964
403.500000 -1.144896
403.500000 -1.119984
403.500000 -1.094228
403.500000 -1.067627
403.500000 -1.040181
403.500000 -1.011891
403.500000 -0.982756
403.500000 -0.952777
403.500000 -0.921954
403.500000 -0.890286
403.500000 -0.857774
403.500000 -0.824417
403.500000 -0.790215
403.500000 -0.755169
403.500000 -0.719279
403.500000 -0.682544
403.500000 -0.644965
403.500000 -0.606541
403.500000 -0.567273
403.500000 -0.527160
403.500000 -0.486203
403.500000 -0.444401
403.500000 -0.401755
403.500000 -0.358264
403.500000 -0.313929
403.500000 -0.268749
403.500000 -0.222725
403.500000 -0.175857
403.500000 -0.128143
403.500000 -0.079586
403.500000 -0.030184
403.500000 0.020063
403.500000 0.071154
403.500000 0.123089
403.500000 0.175869
403.500000 0.229494
403.500000 0.283962
403.500000 0.339276
403.500000 0.395434
403.500000 0.452436
403.500000 0.510283
403.500000 0.568974
403.500000 0.628510
403.500000 0.688890
403.500000 0.750115
403.500000 0.812184
403.500000 0.875098
403.500000 0.938856
403.500000 1.003459
403.500000 1.068906
403.500000 1.135198
403.500000 1.202334
403.500000 1.270314
403.500000 1.339139
403.500000 1.408809
403.500000 1.479323
403.500000 1.550681
403.500000 1.622884
403.500000 1.695932
403.500000 1.769824
403.500000 1.844560
403.500000 1.920141
403.500000 1.996566
403.500000 2.073836
403.500000 2.151951
403.500000 2.230909
403.500000 2.310713
403.500000 2.391360
403.500000 2.472853
403.500000 2.555189
403.500000 2.638371
403.500000 2.722396
403.500000 2.807266
403.500000 2.892981
403.500000 2.979540
403.500000 3.066944
403.500000 3.155192
403.500000 3.244284
403.500000 3.334221
403.500000 3.425003
403.500000 3.516629
403.500000 3.609099
403.500000 3.702414
403.500000 3.796574
403.500000 3.891578
403.500000 3.987426
403.500000 4.084119
403.500000 4.181656
403.500000 4.280038
403.500000 4.379265
403.500000 4.479335
403.500000 4.580251
403.500000 4.682010
403.500000 4.784615
403.500000 4.888063
403.500000 4.992356
403.500000 5.097494
403.500000 5.203476
403.500000 5.310303
403.500000 5.417974
403.500000 5.526490
403.500000 5.635850
403.500000 5.746054
403.500000 5.857103
403.500000 5.968997
403.500000 6.081735
403.500000 6.195317
403.500000 6.309744
403.500000 6.425016
403.500000 6.541131
403.500000 6.658092
403.500000 6.775897
403.500000 6.894546
403.500000 7.014040
403.500000 7.134378
403.500000 7.255561
403.500000 7.377588
403.500000 7.500460
403.500000 7.624176
403.500000 7.748737
403.500000 7.874142
403.500000 8.000392
403.500000 8.127486
403.500000 8.255424
403.500000 8.384207
403.500000 8.513835
403.500000 8.644307
403.500000 8.775624
403.500000 8.907785
403.500000 9.040790
403.500000 9.174640
403.500000 9.309334
403.500000 9.444873
403.500000 9.581257
403.500000 9.718485
403.500000 9.856557
403.500000 9.995474
403.500000 10.135235
403.500000 10.275841
403.500000 10.417291
403.500000 10.559586
403.500000 10.702725
403.500000 10.846709
403.500000 10.991537
403.500000 11.137210
403.500000 11.283727
403.500000 11.431089
403.500000 11.579295
403.500000 11.728345
403.500000 11.878240
403.500000 12.028980
403.500000 12.180564
403.500000 12.332992
403.500000 12.486265
403.500000 12.640383
403.500000 12.795345
403.500000 12.951151
403.500000 13.107802
403.500000 13.265297
403.500000 13.423637
403.500000 13.582822
403.500000 13.742850
403.500000 13.903724
403.500000 14.065442
403.500000 14.228004
403.500000 14.391411
403.500000 14.555662
403.500000 14.720757
403.500000 14.886698
403.500000 15.053482
403.500000 15.221111
403.500000 15.389585
403.500000 15.558903
403.500000 15.729066
403.500000 15.900073
403.500000 16.071924
403.500000 16.244620
403.500000 16.418161
403.500000 16.592546
403.500000 16.767775
403.500000 16.943849
403.500000 17.120768
403.500000 17.298530
403.500000 17.477138
403.500000 17.656590
403.500000 17.836886
403.500000 18.018027
403.500000 18.200012
403.500000 18.382842
403.500000 18.566516
403.500000 18.751035
403.500000 18.936398
403.500000 19.122606
403.500000 19.309658
403.500000 19.497554
403.500000 19.686295
403.500000 19.875881
403.500000 20.066311
403.500000 20.257586
403.500000 20.449705
403.500000 20.642668
403.500000 20.836476
403.500000 21.031129
403.500000 21.226626
403.500000 21.422967
403.500000 21.620153
403.500000 21.818183
403.500000 22.017058
403.500000 22.216778
403.500000 22.417341
403.500000 22.618750
403.500000 22.821002
403.500000 23.024100
403.500000 23.228041
403.500000 23.432828
403.500000 23.638458
403.500000 23.844934
403.500000 24.052253
403.500000 24.260417
403.500000 24.469426
403.500000 24.679279
403.500000 24.889977
403.500000 25.101519
403.500000 25.313905
403.500000 25.527136
403.500000 25.741212
403.500000 25.956132
403.500000 26.171896
403.500000 26.388505
403.500000 26.605958
403.500000 26.824256
403.500000 27.043399
403.500000 27.263386
403.500000 27.484217
403.500000 27.705893
403.500000 27.928413
403.500000 28.151778
403.500000 28.375987
403.500000 28.601041
403.500000 28.826939
403.500000 29.053682
403.500000 29.281269
403.500000 29.509700
403.500000 29.738976
403.500000 29.969097
403.500000 30.200062
403.500000 30.431872
403.500000 30.664526
403.500000 30.898024
403.500000 31.132367
403.500000 31.367555
403.500000 31.603587
403.500000 31.840463
403.500000 32.078184
403.500000 32.316749
403.500000 32.556159
403.500000 32.796414
403.500000 33.037512
403.500000 33.279456
403.500000 33.522244
403.500000 33.765876
403.500000 34.010353
403.500000 34.255674
403.500000 34.501839
403.500000 34.748850
403.500000 34.996704
403.500000 35.245403
403.500000 35.494947
403.500000 35.745335
403.500000 35.996568
403.500000 36.248645
403.500000 36.501566
403.500000 36.755332
403.500000 37.009943
403.500000 37.265398
403.500000 37.521697
403.500000 37.778841
403.500000 38.036830
403.500000 38.295662
403.500000 38.555340
403.500000 38.815862
403.500000 39.077228
403.500000 39.339439
403.500000 39.602494
403.500000 39.866394
403.500000 40.131138
403.500000 40.396727
403.500000 40.663160
403.500000 40.930438
403.500000 41.198560
403.500000 41.467527
403.500000 41.737338
403.500000 42.007993
403.500000 42.279493
403.500000 42.551838
403.500000 42.825027
403.500000 43.099060
403.500000 43.373938
403.500000 43.649661
403.500000 43.926228
403.500000 44.203639
403.500000 44.481895
403.500000 44.760996
403.500000 45.040941
403.500000 45.321730
403.500000 45.603364
403.500000 45.885842
403.500000 46.169165
403.500000 46.453332
403.500000 46.738344
403.500000 47.024200
403.500000 47.310901
403.500000 47.598446
403.500000 47.886836
403.500000 48.176070
403.500000 48.466148
403.500000 48.757071
403.500000 49.048839
403.500000 49.341451
403.500000 49.634908
403.500000 49.929209
403.500000 50.224354
403.500000 50.520344
403.500000 50.817179
403.500000 51.114858
403.500000 51.413381
403.500000 51.712749
403.500000 52.012961
403.500000 52.314018
403.500000 52.615919
403.500000 52.918665
403.500000 53.222256
403.500000 53.526690
403.500000 53.831970
403.500000 54.138093
403.500000 54.445061
403.500000 54.752874
403.500000 55.061531
403.500000 55.371033
403.500000 55.681379
403.500000 55.992570
403.500000 56.304605
403.500000 56.617484
403.500000 56.931208
403.500000 57.245777
403.500000 57.561190
403.500000 57.877447
403.500000 58.194549
403.500000 58.512496
403.500000 58.831287
403.500000 59.150922
403.500000 59.471402
403.500000 59.792726
403.500000 60.114895
403.500000 60.437908
403.500000 60.761766
403.500000 61.086469
403.500000 61.412015
403.500000 61.738407
403.500000 62.065642
403.500000 62.393722
403.500000 62.722647
403.500000 63.052416
403.500000 63.383030
403.500000 63.714488
403.500000 64.046791
403.500000 64.379938
403.500000 64.713929
403.500000 65.048765
403.500000 65.384446
403.500000 65.720971
403.500000 66.058340
403.500000 66.396554
403.500000 66.735612
403.500000 67.075515
403.500000 67.416263
403.500000 67.757855
403.500000 68.100291
403.500000 68.443572
403.500000 68.787697
403.500000 69.132667
403.500000 69.478481
403.500000 69.825140
403.500000 70.172643
403.500000 70.520991
403.500000 70.870183
403.500000 71.220220
403.500000 71.571101
403.500000 71.922826
403.500000 72.275396
403.500000 72.628811
403.500000 72.983070
403.500000 73.338174
403.500000 73.694122
403.500000 74.050914
403.500000 74.408551
403.500000 74.767032
403.500000 75.126358
403.500000 75.486529
403.500000 75.847544
403.500000 76.209403
403.500000 76.572107
403.500000 76.935655
403.500000 77.300048
403.500000 77.665285
403.500000 78.031367
403.500000 78.398293
403.500000 78.766064
403.500000 79.134679
403.500000 79.504139
403.500000 79.874443
403.500000 80.245592
403.500000 80.617585
403.500000 80.990422
403.500000 81.364104
403.500000 81.738631
403.500000 82.114002
403.500000 82.490217
403.500000 82.867277
403.500000 83.245182
403.500000 83.623931
403.500000 84.003524
403.500000 84.383962
403.500000 84.765245
403.500000 85.147371
403.500000 85.530343
403.500000 85.914159
403.500000 86.298819
403.500000 86.684324
403.500000 87.070673
403.500000 87.457867
403.500000 87.845905
403.500000 88.234788
403.500000 88.624515
403.500000 89.015086
403.500000 89.406502
403.500000 89.798763
403.500000 90.191868
403.500000 90.585818
403.500000 90.980612
403.500000 91.376250
403.500000 91.772733
403.500000 92.170061
403.500000 92.568233
403.500000 92.967249
403.500000 93.367110
403.500000 93.767816
403.500000 94.169365
403.500000 94.571760
403.500000 94.974999
403.500000 95.379082
403.500000 95.784010
403.500000 96.189782
403.500000 96.596399
403.500000 97.003860
403.500000 97.412166
403.500000 97.821316
403.500000 98.231311
403.500000 98.642150
403.500000 99.053833
403.500000 99.466362
403.500000 99.879734
403.500000 100.293951
403.500000 100.709013
403.500000 101.124919
403.500000 101.541669
403.500000 101.959264
403.500000 102.377704
403.500000 102.796988
403.500000 103.217116
403.500000 103.638089
403.500000 104.059906
403.500000 104.482568
403.500000 104.906075
403.500000 105.330426
403.500000 105.755621
403.500000 106.181661
403.500000 106.608545
403.500000 107.036274
403.500000 107.464847
403.500000 107.894265
403.500000 108.324527
403.500000 108.755633
403.500000 109.187584
403.500000 109.620380
403.500000 110.054020
403.500000 110.488505
403.500000 110.923834
403.500000 111.360007
403.500000 111.797025
403.500000 112.234888
403.500000 112.673595
403.500000 113.113146
403.500000 113.553542
403.500000 113.994783
403.500000 114.436868
403.500000 114.879797
403.500000 115.323571
403.500000 115.768189
403.500000 116.213652
403.500000 116.659959
403.500000 117.107111
403.500000 117.555107
403.500000 118.003948
403.500000 118.453633
403.500000 118.904163
403.500000 119.355537
403.500000 119.807756
403.500000 120.260819
403.500000 120.714726
403.500000 121.169478
403.500000 121.625075
403.500000 122.081516
403.500000 122.538801
403.500000 122.996931
403.500000 123.455906
403.500000 123.915725
403.500000 124.376388
403.500000 124.837896
403.500000 125.300249
403.500000 125.763445
403.500000 126.227487
403.500000 126.692373
403.500000 127.158103
403.500000 127.624678
403.500000 128.092097
403.500000 128.560361
403.500000 129.029469
403.500000 129.499422
403.500000 129.970219
403.500000 130.441861
403.500000 130.914347
403.500000 131.387677
403.500000 131.861852
403.500000 132.336872
403.500000 132.812736
403.500000 133.289445
403.500000 133.766998
403.500000 134.245395
403.500000 134.724637
403.500000 135.204724
403.500000 135.685654
403.500000 136.167430
403.500000 136.650050
403.500000 137.133514
403.500000 137.617823
403.500000 138.102976
403.500000 138.588974
403.500000 139.075816
403.500000 139.563503
403.500000 140.052034
403.500000 140.541410
403.500000 141.031630
403.500000 141.522695
403.500000 142.014604
403.500000 142.507358
403.500000 143.000956
403.500000 143.495399
403.500000 143.990686
403.500000 144.486817
403.500000 144.983793
403.500000 145.481614
403.500000 145.980279
403.500000 146.479788
403.500000 146.980142
403.500000 147.481341
403.500000 147.983384
403.500000 148.486271
403.500000 148.990003
403.500000 149.494579
403.500000 150.000000
</POINTS>
</NEKTAR>

