<?xml version="1.0" encoding="utf-8" ?>
<NEKTAR>
<POINTS DIM="2" FIELDS="">
88.500000 -1.500000
88.500000 -1.499578
88.500000 -1.498311
88.500000 -1.496200
88.500000 -1.493244
88.500000 -1.489444
88.500000 -1.484799
88.500000 -1.479310
88.500000 -1.472977
88.500000 -1.465799
88.500000 -1.457776
88.500000 -1.448909
88.500000 -1.439197
88.500000 -1.428642
88.500000 -1.417241
88.500000 -1.404996
88.500000 -1.391907
88.500000 -1.377973
88.500000 -1.363194
88.500000 -1.347571
88.500000 -1.331104
88.500000 -1.313792
88.500000 -1.295636
88.500000 -1.276635
88.500000 -1.256790
88.500000 -1.236100
88.500000 -1.214566
88.500000 -1.192187
88.500000 -1.168964
88.500000 -1.144896
88.500000 -1.119984
88.500000 -1.094228
88.500000 -1.067627
88.500000 -1.040181
88.500000 -1.011891
88.500000 -0.982756
88.500000 -0.952777
88.500000 -0.921954
88.500000 -0.890286
88.500000 -0.857774
88.500000 -0.824417
88.500000 -0.790215
88.500000 -0.755169
88.500000 -0.719279
88.500000 -0.682544
88.500000 -0.644965
88.500000 -0.606541
88.500000 -0.567273
88.500000 -0.527160
88.500000 -0.486203
88.500000 -0.444401
88.500000 -0.401755
88.500000 -0.358264
88.500000 -0.313929
88.500000 -0.268749
88.500000 -0.222725
88.500000 -0.175857
88.500000 -0.128143
88.500000 -0.079586
88.500000 -0.030184
88.500000 0.020063
88.500000 0.071154
88.500000 0.123089
88.500000 0.175869
88.500000 0.229494
88.500000 0.283962
88.500000 0.339276
88.500000 0.395434
88.500000 0.452436
88.500000 0.510283
88.500000 0.568974
88.500000 0.628510
88.500000 0.688890
88.500000 0.750115
88.500000 0.812184
88.500000 0.875098
88.500000 0.938856
88.500000 1.003459
88.500000 1.068906
88.500000 1.135198
88.500000 1.202334
88.500000 1.270314
88.500000 1.339139
88.500000 1.408809
88.500000 1.479323
88.500000 1.550681
88.500000 1.622884
88.500000 1.695932
88.500000 1.769824
88.500000 1.844560
88.500000 1.920141
88.500000 1.996566
88.500000 2.073836
88.500000 2.151951
88.500000 2.230909
88.500000 2.310713
88.500000 2.391360
88.500000 2.472853
88.500000 2.555189
88.500000 2.638371
88.500000 2.722396
88.500000 2.807266
88.500000 2.892981
88.500000 2.979540
88.500000 3.066944
88.500000 3.155192
88.500000 3.244284
88.500000 3.334221
88.500000 3.425003
88.500000 3.516629
88.500000 3.609099
88.500000 3.702414
88.500000 3.796574
88.500000 3.891578
88.500000 3.987426
88.500000 4.084119
88.500000 4.181656
88.500000 4.280038
88.500000 4.379265
88.500000 4.479335
88.500000 4.580251
88.500000 4.682010
88.500000 4.784615
88.500000 4.888063
88.500000 4.992356
88.500000 5.097494
88.500000 5.203476
88.500000 5.310303
88.500000 5.417974
88.500000 5.526490
88.500000 5.635850
88.500000 5.746054
88.500000 5.857103
88.500000 5.968997
88.500000 6.081735
88.500000 6.195317
88.500000 6.309744
88.500000 6.425016
88.500000 6.541131
88.500000 6.658092
88.500000 6.775897
88.500000 6.894546
88.500000 7.014040
88.500000 7.134378
88.500000 7.255561
88.500000 7.377588
88.500000 7.500460
88.500000 7.624176
88.500000 7.748737
88.500000 7.874142
88.500000 8.000392
88.500000 8.127486
88.500000 8.255424
88.500000 8.384207
88.500000 8.513835
88.500000 8.644307
88.500000 8.775624
88.500000 8.907785
88.500000 9.040790
88.500000 9.174640
88.500000 9.309334
88.500000 9.444873
88.500000 9.581257
88.500000 9.718485
88.500000 9.856557
88.500000 9.995474
88.500000 10.135235
88.500000 10.275841
88.500000 10.417291
88.500000 10.559586
88.500000 10.702725
88.500000 10.846709
88.500000 10.991537
88.500000 11.137210
88.500000 11.283727
88.500000 11.431089
88.500000 11.579295
88.500000 11.728345
88.500000 11.878240
88.500000 12.028980
88.500000 12.180564
88.500000 12.332992
88.500000 12.486265
88.500000 12.640383
88.500000 12.795345
88.500000 12.951151
88.500000 13.107802
88.500000 13.265297
88.500000 13.423637
88.500000 13.582822
88.500000 13.742850
88.500000 13.903724
88.500000 14.065442
88.500000 14.228004
88.500000 14.391411
88.500000 14.555662
88.500000 14.720757
88.500000 14.886698
88.500000 15.053482
88.500000 15.221111
88.500000 15.389585
88.500000 15.558903
88.500000 15.729066
88.500000 15.900073
88.500000 16.071924
88.500000 16.244620
88.500000 16.418161
88.500000 16.592546
88.500000 16.767775
88.500000 16.943849
88.500000 17.120768
88.500000 17.298530
88.500000 17.477138
88.500000 17.656590
88.500000 17.836886
88.500000 18.018027
88.500000 18.200012
88.500000 18.382842
88.500000 18.566516
88.500000 18.751035
88.500000 18.936398
88.500000 19.122606
88.500000 19.309658
88.500000 19.497554
88.500000 19.686295
88.500000 19.875881
88.500000 20.066311
88.500000 20.257586
88.500000 20.449705
88.500000 20.642668
88.500000 20.836476
88.500000 21.031129
88.500000 21.226626
88.500000 21.422967
88.500000 21.620153
88.500000 21.818183
88.500000 22.017058
88.500000 22.216778
88.500000 22.417341
88.500000 22.618750
88.500000 22.821002
88.500000 23.024100
88.500000 23.228041
88.500000 23.432828
88.500000 23.638458
88.500000 23.844934
88.500000 24.052253
88.500000 24.260417
88.500000 24.469426
88.500000 24.679279
88.500000 24.889977
88.500000 25.101519
88.500000 25.313905
88.500000 25.527136
88.500000 25.741212
88.500000 25.956132
88.500000 26.171896
88.500000 26.388505
88.500000 26.605958
88.500000 26.824256
88.500000 27.043399
88.500000 27.263386
88.500000 27.484217
88.500000 27.705893
88.500000 27.928413
88.500000 28.151778
88.500000 28.375987
88.500000 28.601041
88.500000 28.826939
88.500000 29.053682
88.500000 29.281269
88.500000 29.509700
88.500000 29.738976
88.500000 29.969097
88.500000 30.200062
88.500000 30.431872
88.500000 30.664526
88.500000 30.898024
88.500000 31.132367
88.500000 31.367555
88.500000 31.603587
88.500000 31.840463
88.500000 32.078184
88.500000 32.316749
88.500000 32.556159
88.500000 32.796414
88.500000 33.037512
88.500000 33.279456
88.500000 33.522244
88.500000 33.765876
88.500000 34.010353
88.500000 34.255674
88.500000 34.501839
88.500000 34.748850
88.500000 34.996704
88.500000 35.245403
88.500000 35.494947
88.500000 35.745335
88.500000 35.996568
88.500000 36.248645
88.500000 36.501566
88.500000 36.755332
88.500000 37.009943
88.500000 37.265398
88.500000 37.521697
88.500000 37.778841
88.500000 38.036830
88.500000 38.295662
88.500000 38.555340
88.500000 38.815862
88.500000 39.077228
88.500000 39.339439
88.500000 39.602494
88.500000 39.866394
88.500000 40.131138
88.500000 40.396727
88.500000 40.663160
88.500000 40.930438
88.500000 41.198560
88.500000 41.467527
88.500000 41.737338
88.500000 42.007993
88.500000 42.279493
88.500000 42.551838
88.500000 42.825027
88.500000 43.099060
88.500000 43.373938
88.500000 43.649661
88.500000 43.926228
88.500000 44.203639
88.500000 44.481895
88.500000 44.760996
88.500000 45.040941
88.500000 45.321730
88.500000 45.603364
88.500000 45.885842
88.500000 46.169165
88.500000 46.453332
88.500000 46.738344
88.500000 47.024200
88.500000 47.310901
88.500000 47.598446
88.500000 47.886836
88.500000 48.176070
88.500000 48.466148
88.500000 48.757071
88.500000 49.048839
88.500000 49.341451
88.500000 49.634908
88.500000 49.929209
88.500000 50.224354
88.500000 50.520344
88.500000 50.817179
88.500000 51.114858
88.500000 51.413381
88.500000 51.712749
88.500000 52.012961
88.500000 52.314018
88.500000 52.615919
88.500000 52.918665
88.500000 53.222256
88.500000 53.526690
88.500000 53.831970
88.500000 54.138093
88.500000 54.445061
88.500000 54.752874
88.500000 55.061531
88.500000 55.371033
88.500000 55.681379
88.500000 55.992570
88.500000 56.304605
88.500000 56.617484
88.500000 56.931208
88.500000 57.245777
88.500000 57.561190
88.500000 57.877447
88.500000 58.194549
88.500000 58.512496
88.500000 58.831287
88.500000 59.150922
88.500000 59.471402
88.500000 59.792726
88.500000 60.114895
88.500000 60.437908
88.500000 60.761766
88.500000 61.086469
88.500000 61.412015
88.500000 61.738407
88.500000 62.065642
88.500000 62.393722
88.500000 62.722647
88.500000 63.052416
88.500000 63.383030
88.500000 63.714488
88.500000 64.046791
88.500000 64.379938
88.500000 64.713929
88.500000 65.048765
88.500000 65.384446
88.500000 65.720971
88.500000 66.058340
88.500000 66.396554
88.500000 66.735612
88.500000 67.075515
88.500000 67.416263
88.500000 67.757855
88.500000 68.100291
88.500000 68.443572
88.500000 68.787697
88.500000 69.132667
88.500000 69.478481
88.500000 69.825140
88.500000 70.172643
88.500000 70.520991
88.500000 70.870183
88.500000 71.220220
88.500000 71.571101
88.500000 71.922826
88.500000 72.275396
88.500000 72.628811
88.500000 72.983070
88.500000 73.338174
88.500000 73.694122
88.500000 74.050914
88.500000 74.408551
88.500000 74.767032
88.500000 75.126358
88.500000 75.486529
88.500000 75.847544
88.500000 76.209403
88.500000 76.572107
88.500000 76.935655
88.500000 77.300048
88.500000 77.665285
88.500000 78.031367
88.500000 78.398293
88.500000 78.766064
88.500000 79.134679
88.500000 79.504139
88.500000 79.874443
88.500000 80.245592
88.500000 80.617585
88.500000 80.990422
88.500000 81.364104
88.500000 81.738631
88.500000 82.114002
88.500000 82.490217
88.500000 82.867277
88.500000 83.245182
88.500000 83.623931
88.500000 84.003524
88.500000 84.383962
88.500000 84.765245
88.500000 85.147371
88.500000 85.530343
88.500000 85.914159
88.500000 86.298819
88.500000 86.684324
88.500000 87.070673
88.500000 87.457867
88.500000 87.845905
88.500000 88.234788
88.500000 88.624515
88.500000 89.015086
88.500000 89.406502
88.500000 89.798763
88.500000 90.191868
88.500000 90.585818
88.500000 90.980612
88.500000 91.376250
88.500000 91.772733
88.500000 92.170061
88.500000 92.568233
88.500000 92.967249
88.500000 93.367110
88.500000 93.767816
88.500000 94.169365
88.500000 94.571760
88.500000 94.974999
88.500000 95.379082
88.500000 95.784010
88.500000 96.189782
88.500000 96.596399
88.500000 97.003860
88.500000 97.412166
88.500000 97.821316
88.500000 98.231311
88.500000 98.642150
88.500000 99.053833
88.500000 99.466362
88.500000 99.879734
88.500000 100.293951
88.500000 100.709013
88.500000 101.124919
88.500000 101.541669
88.500000 101.959264
88.500000 102.377704
88.500000 102.796988
88.500000 103.217116
88.500000 103.638089
88.500000 104.059906
88.500000 104.482568
88.500000 104.906075
88.500000 105.330426
88.500000 105.755621
88.500000 106.181661
88.500000 106.608545
88.500000 107.036274
88.500000 107.464847
88.500000 107.894265
88.500000 108.324527
88.500000 108.755633
88.500000 109.187584
88.500000 109.620380
88.500000 110.054020
88.500000 110.488505
88.500000 110.923834
88.500000 111.360007
88.500000 111.797025
88.500000 112.234888
88.500000 112.673595
88.500000 113.113146
88.500000 113.553542
88.500000 113.994783
88.500000 114.436868
88.500000 114.879797
88.500000 115.323571
88.500000 115.768189
88.500000 116.213652
88.500000 116.659959
88.500000 117.107111
88.500000 117.555107
88.500000 118.003948
88.500000 118.453633
88.500000 118.904163
88.500000 119.355537
88.500000 119.807756
88.500000 120.260819
88.500000 120.714726
88.500000 121.169478
88.500000 121.625075
88.500000 122.081516
88.500000 122.538801
88.500000 122.996931
88.500000 123.455906
88.500000 123.915725
88.500000 124.376388
88.500000 124.837896
88.500000 125.300249
88.500000 125.763445
88.500000 126.227487
88.500000 126.692373
88.500000 127.158103
88.500000 127.624678
88.500000 128.092097
88.500000 128.560361
88.500000 129.029469
88.500000 129.499422
88.500000 129.970219
88.500000 130.441861
88.500000 130.914347
88.500000 131.387677
88.500000 131.861852
88.500000 132.336872
88.500000 132.812736
88.500000 133.289445
88.500000 133.766998
88.500000 134.245395
88.500000 134.724637
88.500000 135.204724
88.500000 135.685654
88.500000 136.167430
88.500000 136.650050
88.500000 137.133514
88.500000 137.617823
88.500000 138.102976
88.500000 138.588974
88.500000 139.075816
88.500000 139.563503
88.500000 140.052034
88.500000 140.541410
88.500000 141.031630
88.500000 141.522695
88.500000 142.014604
88.500000 142.507358
88.500000 143.000956
88.500000 143.495399
88.500000 143.990686
88.500000 144.486817
88.500000 144.983793
88.500000 145.481614
88.500000 145.980279
88.500000 146.479788
88.500000 146.980142
88.500000 147.481341
88.500000 147.983384
88.500000 148.486271
88.500000 148.990003
88.500000 149.494579
88.500000 150.000000
</POINTS>
</NEKTAR>

