<?xml version="1.0" encoding="utf-8" ?>
<NEKTAR>
<POINTS DIM="2" FIELDS="">
883.500000 -1.500000
883.500000 -1.499578
883.500000 -1.498311
883.500000 -1.496200
883.500000 -1.493244
883.500000 -1.489444
883.500000 -1.484799
883.500000 -1.479310
883.500000 -1.472977
883.500000 -1.465799
883.500000 -1.457776
883.500000 -1.448909
883.500000 -1.439197
883.500000 -1.428642
883.500000 -1.417241
883.500000 -1.404996
883.500000 -1.391907
883.500000 -1.377973
883.500000 -1.363194
883.500000 -1.347571
883.500000 -1.331104
883.500000 -1.313792
883.500000 -1.295636
883.500000 -1.276635
883.500000 -1.256790
883.500000 -1.236100
883.500000 -1.214566
883.500000 -1.192187
883.500000 -1.168964
883.500000 -1.144896
883.500000 -1.119984
883.500000 -1.094228
883.500000 -1.067627
883.500000 -1.040181
883.500000 -1.011891
883.500000 -0.982756
883.500000 -0.952777
883.500000 -0.921954
883.500000 -0.890286
883.500000 -0.857774
883.500000 -0.824417
883.500000 -0.790215
883.500000 -0.755169
883.500000 -0.719279
883.500000 -0.682544
883.500000 -0.644965
883.500000 -0.606541
883.500000 -0.567273
883.500000 -0.527160
883.500000 -0.486203
883.500000 -0.444401
883.500000 -0.401755
883.500000 -0.358264
883.500000 -0.313929
883.500000 -0.268749
883.500000 -0.222725
883.500000 -0.175857
883.500000 -0.128143
883.500000 -0.079586
883.500000 -0.030184
883.500000 0.020063
883.500000 0.071154
883.500000 0.123089
883.500000 0.175869
883.500000 0.229494
883.500000 0.283962
883.500000 0.339276
883.500000 0.395434
883.500000 0.452436
883.500000 0.510283
883.500000 0.568974
883.500000 0.628510
883.500000 0.688890
883.500000 0.750115
883.500000 0.812184
883.500000 0.875098
883.500000 0.938856
883.500000 1.003459
883.500000 1.068906
883.500000 1.135198
883.500000 1.202334
883.500000 1.270314
883.500000 1.339139
883.500000 1.408809
883.500000 1.479323
883.500000 1.550681
883.500000 1.622884
883.500000 1.695932
883.500000 1.769824
883.500000 1.844560
883.500000 1.920141
883.500000 1.996566
883.500000 2.073836
883.500000 2.151951
883.500000 2.230909
883.500000 2.310713
883.500000 2.391360
883.500000 2.472853
883.500000 2.555189
883.500000 2.638371
883.500000 2.722396
883.500000 2.807266
883.500000 2.892981
883.500000 2.979540
883.500000 3.066944
883.500000 3.155192
883.500000 3.244284
883.500000 3.334221
883.500000 3.425003
883.500000 3.516629
883.500000 3.609099
883.500000 3.702414
883.500000 3.796574
883.500000 3.891578
883.500000 3.987426
883.500000 4.084119
883.500000 4.181656
883.500000 4.280038
883.500000 4.379265
883.500000 4.479335
883.500000 4.580251
883.500000 4.682010
883.500000 4.784615
883.500000 4.888063
883.500000 4.992356
883.500000 5.097494
883.500000 5.203476
883.500000 5.310303
883.500000 5.417974
883.500000 5.526490
883.500000 5.635850
883.500000 5.746054
883.500000 5.857103
883.500000 5.968997
883.500000 6.081735
883.500000 6.195317
883.500000 6.309744
883.500000 6.425016
883.500000 6.541131
883.500000 6.658092
883.500000 6.775897
883.500000 6.894546
883.500000 7.014040
883.500000 7.134378
883.500000 7.255561
883.500000 7.377588
883.500000 7.500460
883.500000 7.624176
883.500000 7.748737
883.500000 7.874142
883.500000 8.000392
883.500000 8.127486
883.500000 8.255424
883.500000 8.384207
883.500000 8.513835
883.500000 8.644307
883.500000 8.775624
883.500000 8.907785
883.500000 9.040790
883.500000 9.174640
883.500000 9.309334
883.500000 9.444873
883.500000 9.581257
883.500000 9.718485
883.500000 9.856557
883.500000 9.995474
883.500000 10.135235
883.500000 10.275841
883.500000 10.417291
883.500000 10.559586
883.500000 10.702725
883.500000 10.846709
883.500000 10.991537
883.500000 11.137210
883.500000 11.283727
883.500000 11.431089
883.500000 11.579295
883.500000 11.728345
883.500000 11.878240
883.500000 12.028980
883.500000 12.180564
883.500000 12.332992
883.500000 12.486265
883.500000 12.640383
883.500000 12.795345
883.500000 12.951151
883.500000 13.107802
883.500000 13.265297
883.500000 13.423637
883.500000 13.582822
883.500000 13.742850
883.500000 13.903724
883.500000 14.065442
883.500000 14.228004
883.500000 14.391411
883.500000 14.555662
883.500000 14.720757
883.500000 14.886698
883.500000 15.053482
883.500000 15.221111
883.500000 15.389585
883.500000 15.558903
883.500000 15.729066
883.500000 15.900073
883.500000 16.071924
883.500000 16.244620
883.500000 16.418161
883.500000 16.592546
883.500000 16.767775
883.500000 16.943849
883.500000 17.120768
883.500000 17.298530
883.500000 17.477138
883.500000 17.656590
883.500000 17.836886
883.500000 18.018027
883.500000 18.200012
883.500000 18.382842
883.500000 18.566516
883.500000 18.751035
883.500000 18.936398
883.500000 19.122606
883.500000 19.309658
883.500000 19.497554
883.500000 19.686295
883.500000 19.875881
883.500000 20.066311
883.500000 20.257586
883.500000 20.449705
883.500000 20.642668
883.500000 20.836476
883.500000 21.031129
883.500000 21.226626
883.500000 21.422967
883.500000 21.620153
883.500000 21.818183
883.500000 22.017058
883.500000 22.216778
883.500000 22.417341
883.500000 22.618750
883.500000 22.821002
883.500000 23.024100
883.500000 23.228041
883.500000 23.432828
883.500000 23.638458
883.500000 23.844934
883.500000 24.052253
883.500000 24.260417
883.500000 24.469426
883.500000 24.679279
883.500000 24.889977
883.500000 25.101519
883.500000 25.313905
883.500000 25.527136
883.500000 25.741212
883.500000 25.956132
883.500000 26.171896
883.500000 26.388505
883.500000 26.605958
883.500000 26.824256
883.500000 27.043399
883.500000 27.263386
883.500000 27.484217
883.500000 27.705893
883.500000 27.928413
883.500000 28.151778
883.500000 28.375987
883.500000 28.601041
883.500000 28.826939
883.500000 29.053682
883.500000 29.281269
883.500000 29.509700
883.500000 29.738976
883.500000 29.969097
883.500000 30.200062
883.500000 30.431872
883.500000 30.664526
883.500000 30.898024
883.500000 31.132367
883.500000 31.367555
883.500000 31.603587
883.500000 31.840463
883.500000 32.078184
883.500000 32.316749
883.500000 32.556159
883.500000 32.796414
883.500000 33.037512
883.500000 33.279456
883.500000 33.522244
883.500000 33.765876
883.500000 34.010353
883.500000 34.255674
883.500000 34.501839
883.500000 34.748850
883.500000 34.996704
883.500000 35.245403
883.500000 35.494947
883.500000 35.745335
883.500000 35.996568
883.500000 36.248645
883.500000 36.501566
883.500000 36.755332
883.500000 37.009943
883.500000 37.265398
883.500000 37.521697
883.500000 37.778841
883.500000 38.036830
883.500000 38.295662
883.500000 38.555340
883.500000 38.815862
883.500000 39.077228
883.500000 39.339439
883.500000 39.602494
883.500000 39.866394
883.500000 40.131138
883.500000 40.396727
883.500000 40.663160
883.500000 40.930438
883.500000 41.198560
883.500000 41.467527
883.500000 41.737338
883.500000 42.007993
883.500000 42.279493
883.500000 42.551838
883.500000 42.825027
883.500000 43.099060
883.500000 43.373938
883.500000 43.649661
883.500000 43.926228
883.500000 44.203639
883.500000 44.481895
883.500000 44.760996
883.500000 45.040941
883.500000 45.321730
883.500000 45.603364
883.500000 45.885842
883.500000 46.169165
883.500000 46.453332
883.500000 46.738344
883.500000 47.024200
883.500000 47.310901
883.500000 47.598446
883.500000 47.886836
883.500000 48.176070
883.500000 48.466148
883.500000 48.757071
883.500000 49.048839
883.500000 49.341451
883.500000 49.634908
883.500000 49.929209
883.500000 50.224354
883.500000 50.520344
883.500000 50.817179
883.500000 51.114858
883.500000 51.413381
883.500000 51.712749
883.500000 52.012961
883.500000 52.314018
883.500000 52.615919
883.500000 52.918665
883.500000 53.222256
883.500000 53.526690
883.500000 53.831970
883.500000 54.138093
883.500000 54.445061
883.500000 54.752874
883.500000 55.061531
883.500000 55.371033
883.500000 55.681379
883.500000 55.992570
883.500000 56.304605
883.500000 56.617484
883.500000 56.931208
883.500000 57.245777
883.500000 57.561190
883.500000 57.877447
883.500000 58.194549
883.500000 58.512496
883.500000 58.831287
883.500000 59.150922
883.500000 59.471402
883.500000 59.792726
883.500000 60.114895
883.500000 60.437908
883.500000 60.761766
883.500000 61.086469
883.500000 61.412015
883.500000 61.738407
883.500000 62.065642
883.500000 62.393722
883.500000 62.722647
883.500000 63.052416
883.500000 63.383030
883.500000 63.714488
883.500000 64.046791
883.500000 64.379938
883.500000 64.713929
883.500000 65.048765
883.500000 65.384446
883.500000 65.720971
883.500000 66.058340
883.500000 66.396554
883.500000 66.735612
883.500000 67.075515
883.500000 67.416263
883.500000 67.757855
883.500000 68.100291
883.500000 68.443572
883.500000 68.787697
883.500000 69.132667
883.500000 69.478481
883.500000 69.825140
883.500000 70.172643
883.500000 70.520991
883.500000 70.870183
883.500000 71.220220
883.500000 71.571101
883.500000 71.922826
883.500000 72.275396
883.500000 72.628811
883.500000 72.983070
883.500000 73.338174
883.500000 73.694122
883.500000 74.050914
883.500000 74.408551
883.500000 74.767032
883.500000 75.126358
883.500000 75.486529
883.500000 75.847544
883.500000 76.209403
883.500000 76.572107
883.500000 76.935655
883.500000 77.300048
883.500000 77.665285
883.500000 78.031367
883.500000 78.398293
883.500000 78.766064
883.500000 79.134679
883.500000 79.504139
883.500000 79.874443
883.500000 80.245592
883.500000 80.617585
883.500000 80.990422
883.500000 81.364104
883.500000 81.738631
883.500000 82.114002
883.500000 82.490217
883.500000 82.867277
883.500000 83.245182
883.500000 83.623931
883.500000 84.003524
883.500000 84.383962
883.500000 84.765245
883.500000 85.147371
883.500000 85.530343
883.500000 85.914159
883.500000 86.298819
883.500000 86.684324
883.500000 87.070673
883.500000 87.457867
883.500000 87.845905
883.500000 88.234788
883.500000 88.624515
883.500000 89.015086
883.500000 89.406502
883.500000 89.798763
883.500000 90.191868
883.500000 90.585818
883.500000 90.980612
883.500000 91.376250
883.500000 91.772733
883.500000 92.170061
883.500000 92.568233
883.500000 92.967249
883.500000 93.367110
883.500000 93.767816
883.500000 94.169365
883.500000 94.571760
883.500000 94.974999
883.500000 95.379082
883.500000 95.784010
883.500000 96.189782
883.500000 96.596399
883.500000 97.003860
883.500000 97.412166
883.500000 97.821316
883.500000 98.231311
883.500000 98.642150
883.500000 99.053833
883.500000 99.466362
883.500000 99.879734
883.500000 100.293951
883.500000 100.709013
883.500000 101.124919
883.500000 101.541669
883.500000 101.959264
883.500000 102.377704
883.500000 102.796988
883.500000 103.217116
883.500000 103.638089
883.500000 104.059906
883.500000 104.482568
883.500000 104.906075
883.500000 105.330426
883.500000 105.755621
883.500000 106.181661
883.500000 106.608545
883.500000 107.036274
883.500000 107.464847
883.500000 107.894265
883.500000 108.324527
883.500000 108.755633
883.500000 109.187584
883.500000 109.620380
883.500000 110.054020
883.500000 110.488505
883.500000 110.923834
883.500000 111.360007
883.500000 111.797025
883.500000 112.234888
883.500000 112.673595
883.500000 113.113146
883.500000 113.553542
883.500000 113.994783
883.500000 114.436868
883.500000 114.879797
883.500000 115.323571
883.500000 115.768189
883.500000 116.213652
883.500000 116.659959
883.500000 117.107111
883.500000 117.555107
883.500000 118.003948
883.500000 118.453633
883.500000 118.904163
883.500000 119.355537
883.500000 119.807756
883.500000 120.260819
883.500000 120.714726
883.500000 121.169478
883.500000 121.625075
883.500000 122.081516
883.500000 122.538801
883.500000 122.996931
883.500000 123.455906
883.500000 123.915725
883.500000 124.376388
883.500000 124.837896
883.500000 125.300249
883.500000 125.763445
883.500000 126.227487
883.500000 126.692373
883.500000 127.158103
883.500000 127.624678
883.500000 128.092097
883.500000 128.560361
883.500000 129.029469
883.500000 129.499422
883.500000 129.970219
883.500000 130.441861
883.500000 130.914347
883.500000 131.387677
883.500000 131.861852
883.500000 132.336872
883.500000 132.812736
883.500000 133.289445
883.500000 133.766998
883.500000 134.245395
883.500000 134.724637
883.500000 135.204724
883.500000 135.685654
883.500000 136.167430
883.500000 136.650050
883.500000 137.133514
883.500000 137.617823
883.500000 138.102976
883.500000 138.588974
883.500000 139.075816
883.500000 139.563503
883.500000 140.052034
883.500000 140.541410
883.500000 141.031630
883.500000 141.522695
883.500000 142.014604
883.500000 142.507358
883.500000 143.000956
883.500000 143.495399
883.500000 143.990686
883.500000 144.486817
883.500000 144.983793
883.500000 145.481614
883.500000 145.980279
883.500000 146.479788
883.500000 146.980142
883.500000 147.481341
883.500000 147.983384
883.500000 148.486271
883.500000 148.990003
883.500000 149.494579
883.500000 150.000000
</POINTS>
</NEKTAR>

