<?xml version="1.0" encoding="utf-8" ?>
<NEKTAR>
<POINTS DIM="2" FIELDS="">
963.500000 -1.500000
963.500000 -1.499578
963.500000 -1.498311
963.500000 -1.496200
963.500000 -1.493244
963.500000 -1.489444
963.500000 -1.484799
963.500000 -1.479310
963.500000 -1.472977
963.500000 -1.465799
963.500000 -1.457776
963.500000 -1.448909
963.500000 -1.439197
963.500000 -1.428642
963.500000 -1.417241
963.500000 -1.404996
963.500000 -1.391907
963.500000 -1.377973
963.500000 -1.363194
963.500000 -1.347571
963.500000 -1.331104
963.500000 -1.313792
963.500000 -1.295636
963.500000 -1.276635
963.500000 -1.256790
963.500000 -1.236100
963.500000 -1.214566
963.500000 -1.192187
963.500000 -1.168964
963.500000 -1.144896
963.500000 -1.119984
963.500000 -1.094228
963.500000 -1.067627
963.500000 -1.040181
963.500000 -1.011891
963.500000 -0.982756
963.500000 -0.952777
963.500000 -0.921954
963.500000 -0.890286
963.500000 -0.857774
963.500000 -0.824417
963.500000 -0.790215
963.500000 -0.755169
963.500000 -0.719279
963.500000 -0.682544
963.500000 -0.644965
963.500000 -0.606541
963.500000 -0.567273
963.500000 -0.527160
963.500000 -0.486203
963.500000 -0.444401
963.500000 -0.401755
963.500000 -0.358264
963.500000 -0.313929
963.500000 -0.268749
963.500000 -0.222725
963.500000 -0.175857
963.500000 -0.128143
963.500000 -0.079586
963.500000 -0.030184
963.500000 0.020063
963.500000 0.071154
963.500000 0.123089
963.500000 0.175869
963.500000 0.229494
963.500000 0.283962
963.500000 0.339276
963.500000 0.395434
963.500000 0.452436
963.500000 0.510283
963.500000 0.568974
963.500000 0.628510
963.500000 0.688890
963.500000 0.750115
963.500000 0.812184
963.500000 0.875098
963.500000 0.938856
963.500000 1.003459
963.500000 1.068906
963.500000 1.135198
963.500000 1.202334
963.500000 1.270314
963.500000 1.339139
963.500000 1.408809
963.500000 1.479323
963.500000 1.550681
963.500000 1.622884
963.500000 1.695932
963.500000 1.769824
963.500000 1.844560
963.500000 1.920141
963.500000 1.996566
963.500000 2.073836
963.500000 2.151951
963.500000 2.230909
963.500000 2.310713
963.500000 2.391360
963.500000 2.472853
963.500000 2.555189
963.500000 2.638371
963.500000 2.722396
963.500000 2.807266
963.500000 2.892981
963.500000 2.979540
963.500000 3.066944
963.500000 3.155192
963.500000 3.244284
963.500000 3.334221
963.500000 3.425003
963.500000 3.516629
963.500000 3.609099
963.500000 3.702414
963.500000 3.796574
963.500000 3.891578
963.500000 3.987426
963.500000 4.084119
963.500000 4.181656
963.500000 4.280038
963.500000 4.379265
963.500000 4.479335
963.500000 4.580251
963.500000 4.682010
963.500000 4.784615
963.500000 4.888063
963.500000 4.992356
963.500000 5.097494
963.500000 5.203476
963.500000 5.310303
963.500000 5.417974
963.500000 5.526490
963.500000 5.635850
963.500000 5.746054
963.500000 5.857103
963.500000 5.968997
963.500000 6.081735
963.500000 6.195317
963.500000 6.309744
963.500000 6.425016
963.500000 6.541131
963.500000 6.658092
963.500000 6.775897
963.500000 6.894546
963.500000 7.014040
963.500000 7.134378
963.500000 7.255561
963.500000 7.377588
963.500000 7.500460
963.500000 7.624176
963.500000 7.748737
963.500000 7.874142
963.500000 8.000392
963.500000 8.127486
963.500000 8.255424
963.500000 8.384207
963.500000 8.513835
963.500000 8.644307
963.500000 8.775624
963.500000 8.907785
963.500000 9.040790
963.500000 9.174640
963.500000 9.309334
963.500000 9.444873
963.500000 9.581257
963.500000 9.718485
963.500000 9.856557
963.500000 9.995474
963.500000 10.135235
963.500000 10.275841
963.500000 10.417291
963.500000 10.559586
963.500000 10.702725
963.500000 10.846709
963.500000 10.991537
963.500000 11.137210
963.500000 11.283727
963.500000 11.431089
963.500000 11.579295
963.500000 11.728345
963.500000 11.878240
963.500000 12.028980
963.500000 12.180564
963.500000 12.332992
963.500000 12.486265
963.500000 12.640383
963.500000 12.795345
963.500000 12.951151
963.500000 13.107802
963.500000 13.265297
963.500000 13.423637
963.500000 13.582822
963.500000 13.742850
963.500000 13.903724
963.500000 14.065442
963.500000 14.228004
963.500000 14.391411
963.500000 14.555662
963.500000 14.720757
963.500000 14.886698
963.500000 15.053482
963.500000 15.221111
963.500000 15.389585
963.500000 15.558903
963.500000 15.729066
963.500000 15.900073
963.500000 16.071924
963.500000 16.244620
963.500000 16.418161
963.500000 16.592546
963.500000 16.767775
963.500000 16.943849
963.500000 17.120768
963.500000 17.298530
963.500000 17.477138
963.500000 17.656590
963.500000 17.836886
963.500000 18.018027
963.500000 18.200012
963.500000 18.382842
963.500000 18.566516
963.500000 18.751035
963.500000 18.936398
963.500000 19.122606
963.500000 19.309658
963.500000 19.497554
963.500000 19.686295
963.500000 19.875881
963.500000 20.066311
963.500000 20.257586
963.500000 20.449705
963.500000 20.642668
963.500000 20.836476
963.500000 21.031129
963.500000 21.226626
963.500000 21.422967
963.500000 21.620153
963.500000 21.818183
963.500000 22.017058
963.500000 22.216778
963.500000 22.417341
963.500000 22.618750
963.500000 22.821002
963.500000 23.024100
963.500000 23.228041
963.500000 23.432828
963.500000 23.638458
963.500000 23.844934
963.500000 24.052253
963.500000 24.260417
963.500000 24.469426
963.500000 24.679279
963.500000 24.889977
963.500000 25.101519
963.500000 25.313905
963.500000 25.527136
963.500000 25.741212
963.500000 25.956132
963.500000 26.171896
963.500000 26.388505
963.500000 26.605958
963.500000 26.824256
963.500000 27.043399
963.500000 27.263386
963.500000 27.484217
963.500000 27.705893
963.500000 27.928413
963.500000 28.151778
963.500000 28.375987
963.500000 28.601041
963.500000 28.826939
963.500000 29.053682
963.500000 29.281269
963.500000 29.509700
963.500000 29.738976
963.500000 29.969097
963.500000 30.200062
963.500000 30.431872
963.500000 30.664526
963.500000 30.898024
963.500000 31.132367
963.500000 31.367555
963.500000 31.603587
963.500000 31.840463
963.500000 32.078184
963.500000 32.316749
963.500000 32.556159
963.500000 32.796414
963.500000 33.037512
963.500000 33.279456
963.500000 33.522244
963.500000 33.765876
963.500000 34.010353
963.500000 34.255674
963.500000 34.501839
963.500000 34.748850
963.500000 34.996704
963.500000 35.245403
963.500000 35.494947
963.500000 35.745335
963.500000 35.996568
963.500000 36.248645
963.500000 36.501566
963.500000 36.755332
963.500000 37.009943
963.500000 37.265398
963.500000 37.521697
963.500000 37.778841
963.500000 38.036830
963.500000 38.295662
963.500000 38.555340
963.500000 38.815862
963.500000 39.077228
963.500000 39.339439
963.500000 39.602494
963.500000 39.866394
963.500000 40.131138
963.500000 40.396727
963.500000 40.663160
963.500000 40.930438
963.500000 41.198560
963.500000 41.467527
963.500000 41.737338
963.500000 42.007993
963.500000 42.279493
963.500000 42.551838
963.500000 42.825027
963.500000 43.099060
963.500000 43.373938
963.500000 43.649661
963.500000 43.926228
963.500000 44.203639
963.500000 44.481895
963.500000 44.760996
963.500000 45.040941
963.500000 45.321730
963.500000 45.603364
963.500000 45.885842
963.500000 46.169165
963.500000 46.453332
963.500000 46.738344
963.500000 47.024200
963.500000 47.310901
963.500000 47.598446
963.500000 47.886836
963.500000 48.176070
963.500000 48.466148
963.500000 48.757071
963.500000 49.048839
963.500000 49.341451
963.500000 49.634908
963.500000 49.929209
963.500000 50.224354
963.500000 50.520344
963.500000 50.817179
963.500000 51.114858
963.500000 51.413381
963.500000 51.712749
963.500000 52.012961
963.500000 52.314018
963.500000 52.615919
963.500000 52.918665
963.500000 53.222256
963.500000 53.526690
963.500000 53.831970
963.500000 54.138093
963.500000 54.445061
963.500000 54.752874
963.500000 55.061531
963.500000 55.371033
963.500000 55.681379
963.500000 55.992570
963.500000 56.304605
963.500000 56.617484
963.500000 56.931208
963.500000 57.245777
963.500000 57.561190
963.500000 57.877447
963.500000 58.194549
963.500000 58.512496
963.500000 58.831287
963.500000 59.150922
963.500000 59.471402
963.500000 59.792726
963.500000 60.114895
963.500000 60.437908
963.500000 60.761766
963.500000 61.086469
963.500000 61.412015
963.500000 61.738407
963.500000 62.065642
963.500000 62.393722
963.500000 62.722647
963.500000 63.052416
963.500000 63.383030
963.500000 63.714488
963.500000 64.046791
963.500000 64.379938
963.500000 64.713929
963.500000 65.048765
963.500000 65.384446
963.500000 65.720971
963.500000 66.058340
963.500000 66.396554
963.500000 66.735612
963.500000 67.075515
963.500000 67.416263
963.500000 67.757855
963.500000 68.100291
963.500000 68.443572
963.500000 68.787697
963.500000 69.132667
963.500000 69.478481
963.500000 69.825140
963.500000 70.172643
963.500000 70.520991
963.500000 70.870183
963.500000 71.220220
963.500000 71.571101
963.500000 71.922826
963.500000 72.275396
963.500000 72.628811
963.500000 72.983070
963.500000 73.338174
963.500000 73.694122
963.500000 74.050914
963.500000 74.408551
963.500000 74.767032
963.500000 75.126358
963.500000 75.486529
963.500000 75.847544
963.500000 76.209403
963.500000 76.572107
963.500000 76.935655
963.500000 77.300048
963.500000 77.665285
963.500000 78.031367
963.500000 78.398293
963.500000 78.766064
963.500000 79.134679
963.500000 79.504139
963.500000 79.874443
963.500000 80.245592
963.500000 80.617585
963.500000 80.990422
963.500000 81.364104
963.500000 81.738631
963.500000 82.114002
963.500000 82.490217
963.500000 82.867277
963.500000 83.245182
963.500000 83.623931
963.500000 84.003524
963.500000 84.383962
963.500000 84.765245
963.500000 85.147371
963.500000 85.530343
963.500000 85.914159
963.500000 86.298819
963.500000 86.684324
963.500000 87.070673
963.500000 87.457867
963.500000 87.845905
963.500000 88.234788
963.500000 88.624515
963.500000 89.015086
963.500000 89.406502
963.500000 89.798763
963.500000 90.191868
963.500000 90.585818
963.500000 90.980612
963.500000 91.376250
963.500000 91.772733
963.500000 92.170061
963.500000 92.568233
963.500000 92.967249
963.500000 93.367110
963.500000 93.767816
963.500000 94.169365
963.500000 94.571760
963.500000 94.974999
963.500000 95.379082
963.500000 95.784010
963.500000 96.189782
963.500000 96.596399
963.500000 97.003860
963.500000 97.412166
963.500000 97.821316
963.500000 98.231311
963.500000 98.642150
963.500000 99.053833
963.500000 99.466362
963.500000 99.879734
963.500000 100.293951
963.500000 100.709013
963.500000 101.124919
963.500000 101.541669
963.500000 101.959264
963.500000 102.377704
963.500000 102.796988
963.500000 103.217116
963.500000 103.638089
963.500000 104.059906
963.500000 104.482568
963.500000 104.906075
963.500000 105.330426
963.500000 105.755621
963.500000 106.181661
963.500000 106.608545
963.500000 107.036274
963.500000 107.464847
963.500000 107.894265
963.500000 108.324527
963.500000 108.755633
963.500000 109.187584
963.500000 109.620380
963.500000 110.054020
963.500000 110.488505
963.500000 110.923834
963.500000 111.360007
963.500000 111.797025
963.500000 112.234888
963.500000 112.673595
963.500000 113.113146
963.500000 113.553542
963.500000 113.994783
963.500000 114.436868
963.500000 114.879797
963.500000 115.323571
963.500000 115.768189
963.500000 116.213652
963.500000 116.659959
963.500000 117.107111
963.500000 117.555107
963.500000 118.003948
963.500000 118.453633
963.500000 118.904163
963.500000 119.355537
963.500000 119.807756
963.500000 120.260819
963.500000 120.714726
963.500000 121.169478
963.500000 121.625075
963.500000 122.081516
963.500000 122.538801
963.500000 122.996931
963.500000 123.455906
963.500000 123.915725
963.500000 124.376388
963.500000 124.837896
963.500000 125.300249
963.500000 125.763445
963.500000 126.227487
963.500000 126.692373
963.500000 127.158103
963.500000 127.624678
963.500000 128.092097
963.500000 128.560361
963.500000 129.029469
963.500000 129.499422
963.500000 129.970219
963.500000 130.441861
963.500000 130.914347
963.500000 131.387677
963.500000 131.861852
963.500000 132.336872
963.500000 132.812736
963.500000 133.289445
963.500000 133.766998
963.500000 134.245395
963.500000 134.724637
963.500000 135.204724
963.500000 135.685654
963.500000 136.167430
963.500000 136.650050
963.500000 137.133514
963.500000 137.617823
963.500000 138.102976
963.500000 138.588974
963.500000 139.075816
963.500000 139.563503
963.500000 140.052034
963.500000 140.541410
963.500000 141.031630
963.500000 141.522695
963.500000 142.014604
963.500000 142.507358
963.500000 143.000956
963.500000 143.495399
963.500000 143.990686
963.500000 144.486817
963.500000 144.983793
963.500000 145.481614
963.500000 145.980279
963.500000 146.479788
963.500000 146.980142
963.500000 147.481341
963.500000 147.983384
963.500000 148.486271
963.500000 148.990003
963.500000 149.494579
963.500000 150.000000
</POINTS>
</NEKTAR>

