<?xml version="1.0" encoding="utf-8" ?>
<NEKTAR>
<POINTS DIM="2" FIELDS="">
363.500000 -1.500000
363.500000 -1.499578
363.500000 -1.498311
363.500000 -1.496200
363.500000 -1.493244
363.500000 -1.489444
363.500000 -1.484799
363.500000 -1.479310
363.500000 -1.472977
363.500000 -1.465799
363.500000 -1.457776
363.500000 -1.448909
363.500000 -1.439197
363.500000 -1.428642
363.500000 -1.417241
363.500000 -1.404996
363.500000 -1.391907
363.500000 -1.377973
363.500000 -1.363194
363.500000 -1.347571
363.500000 -1.331104
363.500000 -1.313792
363.500000 -1.295636
363.500000 -1.276635
363.500000 -1.256790
363.500000 -1.236100
363.500000 -1.214566
363.500000 -1.192187
363.500000 -1.168964
363.500000 -1.144896
363.500000 -1.119984
363.500000 -1.094228
363.500000 -1.067627
363.500000 -1.040181
363.500000 -1.011891
363.500000 -0.982756
363.500000 -0.952777
363.500000 -0.921954
363.500000 -0.890286
363.500000 -0.857774
363.500000 -0.824417
363.500000 -0.790215
363.500000 -0.755169
363.500000 -0.719279
363.500000 -0.682544
363.500000 -0.644965
363.500000 -0.606541
363.500000 -0.567273
363.500000 -0.527160
363.500000 -0.486203
363.500000 -0.444401
363.500000 -0.401755
363.500000 -0.358264
363.500000 -0.313929
363.500000 -0.268749
363.500000 -0.222725
363.500000 -0.175857
363.500000 -0.128143
363.500000 -0.079586
363.500000 -0.030184
363.500000 0.020063
363.500000 0.071154
363.500000 0.123089
363.500000 0.175869
363.500000 0.229494
363.500000 0.283962
363.500000 0.339276
363.500000 0.395434
363.500000 0.452436
363.500000 0.510283
363.500000 0.568974
363.500000 0.628510
363.500000 0.688890
363.500000 0.750115
363.500000 0.812184
363.500000 0.875098
363.500000 0.938856
363.500000 1.003459
363.500000 1.068906
363.500000 1.135198
363.500000 1.202334
363.500000 1.270314
363.500000 1.339139
363.500000 1.408809
363.500000 1.479323
363.500000 1.550681
363.500000 1.622884
363.500000 1.695932
363.500000 1.769824
363.500000 1.844560
363.500000 1.920141
363.500000 1.996566
363.500000 2.073836
363.500000 2.151951
363.500000 2.230909
363.500000 2.310713
363.500000 2.391360
363.500000 2.472853
363.500000 2.555189
363.500000 2.638371
363.500000 2.722396
363.500000 2.807266
363.500000 2.892981
363.500000 2.979540
363.500000 3.066944
363.500000 3.155192
363.500000 3.244284
363.500000 3.334221
363.500000 3.425003
363.500000 3.516629
363.500000 3.609099
363.500000 3.702414
363.500000 3.796574
363.500000 3.891578
363.500000 3.987426
363.500000 4.084119
363.500000 4.181656
363.500000 4.280038
363.500000 4.379265
363.500000 4.479335
363.500000 4.580251
363.500000 4.682010
363.500000 4.784615
363.500000 4.888063
363.500000 4.992356
363.500000 5.097494
363.500000 5.203476
363.500000 5.310303
363.500000 5.417974
363.500000 5.526490
363.500000 5.635850
363.500000 5.746054
363.500000 5.857103
363.500000 5.968997
363.500000 6.081735
363.500000 6.195317
363.500000 6.309744
363.500000 6.425016
363.500000 6.541131
363.500000 6.658092
363.500000 6.775897
363.500000 6.894546
363.500000 7.014040
363.500000 7.134378
363.500000 7.255561
363.500000 7.377588
363.500000 7.500460
363.500000 7.624176
363.500000 7.748737
363.500000 7.874142
363.500000 8.000392
363.500000 8.127486
363.500000 8.255424
363.500000 8.384207
363.500000 8.513835
363.500000 8.644307
363.500000 8.775624
363.500000 8.907785
363.500000 9.040790
363.500000 9.174640
363.500000 9.309334
363.500000 9.444873
363.500000 9.581257
363.500000 9.718485
363.500000 9.856557
363.500000 9.995474
363.500000 10.135235
363.500000 10.275841
363.500000 10.417291
363.500000 10.559586
363.500000 10.702725
363.500000 10.846709
363.500000 10.991537
363.500000 11.137210
363.500000 11.283727
363.500000 11.431089
363.500000 11.579295
363.500000 11.728345
363.500000 11.878240
363.500000 12.028980
363.500000 12.180564
363.500000 12.332992
363.500000 12.486265
363.500000 12.640383
363.500000 12.795345
363.500000 12.951151
363.500000 13.107802
363.500000 13.265297
363.500000 13.423637
363.500000 13.582822
363.500000 13.742850
363.500000 13.903724
363.500000 14.065442
363.500000 14.228004
363.500000 14.391411
363.500000 14.555662
363.500000 14.720757
363.500000 14.886698
363.500000 15.053482
363.500000 15.221111
363.500000 15.389585
363.500000 15.558903
363.500000 15.729066
363.500000 15.900073
363.500000 16.071924
363.500000 16.244620
363.500000 16.418161
363.500000 16.592546
363.500000 16.767775
363.500000 16.943849
363.500000 17.120768
363.500000 17.298530
363.500000 17.477138
363.500000 17.656590
363.500000 17.836886
363.500000 18.018027
363.500000 18.200012
363.500000 18.382842
363.500000 18.566516
363.500000 18.751035
363.500000 18.936398
363.500000 19.122606
363.500000 19.309658
363.500000 19.497554
363.500000 19.686295
363.500000 19.875881
363.500000 20.066311
363.500000 20.257586
363.500000 20.449705
363.500000 20.642668
363.500000 20.836476
363.500000 21.031129
363.500000 21.226626
363.500000 21.422967
363.500000 21.620153
363.500000 21.818183
363.500000 22.017058
363.500000 22.216778
363.500000 22.417341
363.500000 22.618750
363.500000 22.821002
363.500000 23.024100
363.500000 23.228041
363.500000 23.432828
363.500000 23.638458
363.500000 23.844934
363.500000 24.052253
363.500000 24.260417
363.500000 24.469426
363.500000 24.679279
363.500000 24.889977
363.500000 25.101519
363.500000 25.313905
363.500000 25.527136
363.500000 25.741212
363.500000 25.956132
363.500000 26.171896
363.500000 26.388505
363.500000 26.605958
363.500000 26.824256
363.500000 27.043399
363.500000 27.263386
363.500000 27.484217
363.500000 27.705893
363.500000 27.928413
363.500000 28.151778
363.500000 28.375987
363.500000 28.601041
363.500000 28.826939
363.500000 29.053682
363.500000 29.281269
363.500000 29.509700
363.500000 29.738976
363.500000 29.969097
363.500000 30.200062
363.500000 30.431872
363.500000 30.664526
363.500000 30.898024
363.500000 31.132367
363.500000 31.367555
363.500000 31.603587
363.500000 31.840463
363.500000 32.078184
363.500000 32.316749
363.500000 32.556159
363.500000 32.796414
363.500000 33.037512
363.500000 33.279456
363.500000 33.522244
363.500000 33.765876
363.500000 34.010353
363.500000 34.255674
363.500000 34.501839
363.500000 34.748850
363.500000 34.996704
363.500000 35.245403
363.500000 35.494947
363.500000 35.745335
363.500000 35.996568
363.500000 36.248645
363.500000 36.501566
363.500000 36.755332
363.500000 37.009943
363.500000 37.265398
363.500000 37.521697
363.500000 37.778841
363.500000 38.036830
363.500000 38.295662
363.500000 38.555340
363.500000 38.815862
363.500000 39.077228
363.500000 39.339439
363.500000 39.602494
363.500000 39.866394
363.500000 40.131138
363.500000 40.396727
363.500000 40.663160
363.500000 40.930438
363.500000 41.198560
363.500000 41.467527
363.500000 41.737338
363.500000 42.007993
363.500000 42.279493
363.500000 42.551838
363.500000 42.825027
363.500000 43.099060
363.500000 43.373938
363.500000 43.649661
363.500000 43.926228
363.500000 44.203639
363.500000 44.481895
363.500000 44.760996
363.500000 45.040941
363.500000 45.321730
363.500000 45.603364
363.500000 45.885842
363.500000 46.169165
363.500000 46.453332
363.500000 46.738344
363.500000 47.024200
363.500000 47.310901
363.500000 47.598446
363.500000 47.886836
363.500000 48.176070
363.500000 48.466148
363.500000 48.757071
363.500000 49.048839
363.500000 49.341451
363.500000 49.634908
363.500000 49.929209
363.500000 50.224354
363.500000 50.520344
363.500000 50.817179
363.500000 51.114858
363.500000 51.413381
363.500000 51.712749
363.500000 52.012961
363.500000 52.314018
363.500000 52.615919
363.500000 52.918665
363.500000 53.222256
363.500000 53.526690
363.500000 53.831970
363.500000 54.138093
363.500000 54.445061
363.500000 54.752874
363.500000 55.061531
363.500000 55.371033
363.500000 55.681379
363.500000 55.992570
363.500000 56.304605
363.500000 56.617484
363.500000 56.931208
363.500000 57.245777
363.500000 57.561190
363.500000 57.877447
363.500000 58.194549
363.500000 58.512496
363.500000 58.831287
363.500000 59.150922
363.500000 59.471402
363.500000 59.792726
363.500000 60.114895
363.500000 60.437908
363.500000 60.761766
363.500000 61.086469
363.500000 61.412015
363.500000 61.738407
363.500000 62.065642
363.500000 62.393722
363.500000 62.722647
363.500000 63.052416
363.500000 63.383030
363.500000 63.714488
363.500000 64.046791
363.500000 64.379938
363.500000 64.713929
363.500000 65.048765
363.500000 65.384446
363.500000 65.720971
363.500000 66.058340
363.500000 66.396554
363.500000 66.735612
363.500000 67.075515
363.500000 67.416263
363.500000 67.757855
363.500000 68.100291
363.500000 68.443572
363.500000 68.787697
363.500000 69.132667
363.500000 69.478481
363.500000 69.825140
363.500000 70.172643
363.500000 70.520991
363.500000 70.870183
363.500000 71.220220
363.500000 71.571101
363.500000 71.922826
363.500000 72.275396
363.500000 72.628811
363.500000 72.983070
363.500000 73.338174
363.500000 73.694122
363.500000 74.050914
363.500000 74.408551
363.500000 74.767032
363.500000 75.126358
363.500000 75.486529
363.500000 75.847544
363.500000 76.209403
363.500000 76.572107
363.500000 76.935655
363.500000 77.300048
363.500000 77.665285
363.500000 78.031367
363.500000 78.398293
363.500000 78.766064
363.500000 79.134679
363.500000 79.504139
363.500000 79.874443
363.500000 80.245592
363.500000 80.617585
363.500000 80.990422
363.500000 81.364104
363.500000 81.738631
363.500000 82.114002
363.500000 82.490217
363.500000 82.867277
363.500000 83.245182
363.500000 83.623931
363.500000 84.003524
363.500000 84.383962
363.500000 84.765245
363.500000 85.147371
363.500000 85.530343
363.500000 85.914159
363.500000 86.298819
363.500000 86.684324
363.500000 87.070673
363.500000 87.457867
363.500000 87.845905
363.500000 88.234788
363.500000 88.624515
363.500000 89.015086
363.500000 89.406502
363.500000 89.798763
363.500000 90.191868
363.500000 90.585818
363.500000 90.980612
363.500000 91.376250
363.500000 91.772733
363.500000 92.170061
363.500000 92.568233
363.500000 92.967249
363.500000 93.367110
363.500000 93.767816
363.500000 94.169365
363.500000 94.571760
363.500000 94.974999
363.500000 95.379082
363.500000 95.784010
363.500000 96.189782
363.500000 96.596399
363.500000 97.003860
363.500000 97.412166
363.500000 97.821316
363.500000 98.231311
363.500000 98.642150
363.500000 99.053833
363.500000 99.466362
363.500000 99.879734
363.500000 100.293951
363.500000 100.709013
363.500000 101.124919
363.500000 101.541669
363.500000 101.959264
363.500000 102.377704
363.500000 102.796988
363.500000 103.217116
363.500000 103.638089
363.500000 104.059906
363.500000 104.482568
363.500000 104.906075
363.500000 105.330426
363.500000 105.755621
363.500000 106.181661
363.500000 106.608545
363.500000 107.036274
363.500000 107.464847
363.500000 107.894265
363.500000 108.324527
363.500000 108.755633
363.500000 109.187584
363.500000 109.620380
363.500000 110.054020
363.500000 110.488505
363.500000 110.923834
363.500000 111.360007
363.500000 111.797025
363.500000 112.234888
363.500000 112.673595
363.500000 113.113146
363.500000 113.553542
363.500000 113.994783
363.500000 114.436868
363.500000 114.879797
363.500000 115.323571
363.500000 115.768189
363.500000 116.213652
363.500000 116.659959
363.500000 117.107111
363.500000 117.555107
363.500000 118.003948
363.500000 118.453633
363.500000 118.904163
363.500000 119.355537
363.500000 119.807756
363.500000 120.260819
363.500000 120.714726
363.500000 121.169478
363.500000 121.625075
363.500000 122.081516
363.500000 122.538801
363.500000 122.996931
363.500000 123.455906
363.500000 123.915725
363.500000 124.376388
363.500000 124.837896
363.500000 125.300249
363.500000 125.763445
363.500000 126.227487
363.500000 126.692373
363.500000 127.158103
363.500000 127.624678
363.500000 128.092097
363.500000 128.560361
363.500000 129.029469
363.500000 129.499422
363.500000 129.970219
363.500000 130.441861
363.500000 130.914347
363.500000 131.387677
363.500000 131.861852
363.500000 132.336872
363.500000 132.812736
363.500000 133.289445
363.500000 133.766998
363.500000 134.245395
363.500000 134.724637
363.500000 135.204724
363.500000 135.685654
363.500000 136.167430
363.500000 136.650050
363.500000 137.133514
363.500000 137.617823
363.500000 138.102976
363.500000 138.588974
363.500000 139.075816
363.500000 139.563503
363.500000 140.052034
363.500000 140.541410
363.500000 141.031630
363.500000 141.522695
363.500000 142.014604
363.500000 142.507358
363.500000 143.000956
363.500000 143.495399
363.500000 143.990686
363.500000 144.486817
363.500000 144.983793
363.500000 145.481614
363.500000 145.980279
363.500000 146.479788
363.500000 146.980142
363.500000 147.481341
363.500000 147.983384
363.500000 148.486271
363.500000 148.990003
363.500000 149.494579
363.500000 150.000000
</POINTS>
</NEKTAR>

