<?xml version="1.0" encoding="utf-8" ?>
<NEKTAR>
<POINTS DIM="2" FIELDS="">
863.500000 -1.500000
863.500000 -1.499578
863.500000 -1.498311
863.500000 -1.496200
863.500000 -1.493244
863.500000 -1.489444
863.500000 -1.484799
863.500000 -1.479310
863.500000 -1.472977
863.500000 -1.465799
863.500000 -1.457776
863.500000 -1.448909
863.500000 -1.439197
863.500000 -1.428642
863.500000 -1.417241
863.500000 -1.404996
863.500000 -1.391907
863.500000 -1.377973
863.500000 -1.363194
863.500000 -1.347571
863.500000 -1.331104
863.500000 -1.313792
863.500000 -1.295636
863.500000 -1.276635
863.500000 -1.256790
863.500000 -1.236100
863.500000 -1.214566
863.500000 -1.192187
863.500000 -1.168964
863.500000 -1.144896
863.500000 -1.119984
863.500000 -1.094228
863.500000 -1.067627
863.500000 -1.040181
863.500000 -1.011891
863.500000 -0.982756
863.500000 -0.952777
863.500000 -0.921954
863.500000 -0.890286
863.500000 -0.857774
863.500000 -0.824417
863.500000 -0.790215
863.500000 -0.755169
863.500000 -0.719279
863.500000 -0.682544
863.500000 -0.644965
863.500000 -0.606541
863.500000 -0.567273
863.500000 -0.527160
863.500000 -0.486203
863.500000 -0.444401
863.500000 -0.401755
863.500000 -0.358264
863.500000 -0.313929
863.500000 -0.268749
863.500000 -0.222725
863.500000 -0.175857
863.500000 -0.128143
863.500000 -0.079586
863.500000 -0.030184
863.500000 0.020063
863.500000 0.071154
863.500000 0.123089
863.500000 0.175869
863.500000 0.229494
863.500000 0.283962
863.500000 0.339276
863.500000 0.395434
863.500000 0.452436
863.500000 0.510283
863.500000 0.568974
863.500000 0.628510
863.500000 0.688890
863.500000 0.750115
863.500000 0.812184
863.500000 0.875098
863.500000 0.938856
863.500000 1.003459
863.500000 1.068906
863.500000 1.135198
863.500000 1.202334
863.500000 1.270314
863.500000 1.339139
863.500000 1.408809
863.500000 1.479323
863.500000 1.550681
863.500000 1.622884
863.500000 1.695932
863.500000 1.769824
863.500000 1.844560
863.500000 1.920141
863.500000 1.996566
863.500000 2.073836
863.500000 2.151951
863.500000 2.230909
863.500000 2.310713
863.500000 2.391360
863.500000 2.472853
863.500000 2.555189
863.500000 2.638371
863.500000 2.722396
863.500000 2.807266
863.500000 2.892981
863.500000 2.979540
863.500000 3.066944
863.500000 3.155192
863.500000 3.244284
863.500000 3.334221
863.500000 3.425003
863.500000 3.516629
863.500000 3.609099
863.500000 3.702414
863.500000 3.796574
863.500000 3.891578
863.500000 3.987426
863.500000 4.084119
863.500000 4.181656
863.500000 4.280038
863.500000 4.379265
863.500000 4.479335
863.500000 4.580251
863.500000 4.682010
863.500000 4.784615
863.500000 4.888063
863.500000 4.992356
863.500000 5.097494
863.500000 5.203476
863.500000 5.310303
863.500000 5.417974
863.500000 5.526490
863.500000 5.635850
863.500000 5.746054
863.500000 5.857103
863.500000 5.968997
863.500000 6.081735
863.500000 6.195317
863.500000 6.309744
863.500000 6.425016
863.500000 6.541131
863.500000 6.658092
863.500000 6.775897
863.500000 6.894546
863.500000 7.014040
863.500000 7.134378
863.500000 7.255561
863.500000 7.377588
863.500000 7.500460
863.500000 7.624176
863.500000 7.748737
863.500000 7.874142
863.500000 8.000392
863.500000 8.127486
863.500000 8.255424
863.500000 8.384207
863.500000 8.513835
863.500000 8.644307
863.500000 8.775624
863.500000 8.907785
863.500000 9.040790
863.500000 9.174640
863.500000 9.309334
863.500000 9.444873
863.500000 9.581257
863.500000 9.718485
863.500000 9.856557
863.500000 9.995474
863.500000 10.135235
863.500000 10.275841
863.500000 10.417291
863.500000 10.559586
863.500000 10.702725
863.500000 10.846709
863.500000 10.991537
863.500000 11.137210
863.500000 11.283727
863.500000 11.431089
863.500000 11.579295
863.500000 11.728345
863.500000 11.878240
863.500000 12.028980
863.500000 12.180564
863.500000 12.332992
863.500000 12.486265
863.500000 12.640383
863.500000 12.795345
863.500000 12.951151
863.500000 13.107802
863.500000 13.265297
863.500000 13.423637
863.500000 13.582822
863.500000 13.742850
863.500000 13.903724
863.500000 14.065442
863.500000 14.228004
863.500000 14.391411
863.500000 14.555662
863.500000 14.720757
863.500000 14.886698
863.500000 15.053482
863.500000 15.221111
863.500000 15.389585
863.500000 15.558903
863.500000 15.729066
863.500000 15.900073
863.500000 16.071924
863.500000 16.244620
863.500000 16.418161
863.500000 16.592546
863.500000 16.767775
863.500000 16.943849
863.500000 17.120768
863.500000 17.298530
863.500000 17.477138
863.500000 17.656590
863.500000 17.836886
863.500000 18.018027
863.500000 18.200012
863.500000 18.382842
863.500000 18.566516
863.500000 18.751035
863.500000 18.936398
863.500000 19.122606
863.500000 19.309658
863.500000 19.497554
863.500000 19.686295
863.500000 19.875881
863.500000 20.066311
863.500000 20.257586
863.500000 20.449705
863.500000 20.642668
863.500000 20.836476
863.500000 21.031129
863.500000 21.226626
863.500000 21.422967
863.500000 21.620153
863.500000 21.818183
863.500000 22.017058
863.500000 22.216778
863.500000 22.417341
863.500000 22.618750
863.500000 22.821002
863.500000 23.024100
863.500000 23.228041
863.500000 23.432828
863.500000 23.638458
863.500000 23.844934
863.500000 24.052253
863.500000 24.260417
863.500000 24.469426
863.500000 24.679279
863.500000 24.889977
863.500000 25.101519
863.500000 25.313905
863.500000 25.527136
863.500000 25.741212
863.500000 25.956132
863.500000 26.171896
863.500000 26.388505
863.500000 26.605958
863.500000 26.824256
863.500000 27.043399
863.500000 27.263386
863.500000 27.484217
863.500000 27.705893
863.500000 27.928413
863.500000 28.151778
863.500000 28.375987
863.500000 28.601041
863.500000 28.826939
863.500000 29.053682
863.500000 29.281269
863.500000 29.509700
863.500000 29.738976
863.500000 29.969097
863.500000 30.200062
863.500000 30.431872
863.500000 30.664526
863.500000 30.898024
863.500000 31.132367
863.500000 31.367555
863.500000 31.603587
863.500000 31.840463
863.500000 32.078184
863.500000 32.316749
863.500000 32.556159
863.500000 32.796414
863.500000 33.037512
863.500000 33.279456
863.500000 33.522244
863.500000 33.765876
863.500000 34.010353
863.500000 34.255674
863.500000 34.501839
863.500000 34.748850
863.500000 34.996704
863.500000 35.245403
863.500000 35.494947
863.500000 35.745335
863.500000 35.996568
863.500000 36.248645
863.500000 36.501566
863.500000 36.755332
863.500000 37.009943
863.500000 37.265398
863.500000 37.521697
863.500000 37.778841
863.500000 38.036830
863.500000 38.295662
863.500000 38.555340
863.500000 38.815862
863.500000 39.077228
863.500000 39.339439
863.500000 39.602494
863.500000 39.866394
863.500000 40.131138
863.500000 40.396727
863.500000 40.663160
863.500000 40.930438
863.500000 41.198560
863.500000 41.467527
863.500000 41.737338
863.500000 42.007993
863.500000 42.279493
863.500000 42.551838
863.500000 42.825027
863.500000 43.099060
863.500000 43.373938
863.500000 43.649661
863.500000 43.926228
863.500000 44.203639
863.500000 44.481895
863.500000 44.760996
863.500000 45.040941
863.500000 45.321730
863.500000 45.603364
863.500000 45.885842
863.500000 46.169165
863.500000 46.453332
863.500000 46.738344
863.500000 47.024200
863.500000 47.310901
863.500000 47.598446
863.500000 47.886836
863.500000 48.176070
863.500000 48.466148
863.500000 48.757071
863.500000 49.048839
863.500000 49.341451
863.500000 49.634908
863.500000 49.929209
863.500000 50.224354
863.500000 50.520344
863.500000 50.817179
863.500000 51.114858
863.500000 51.413381
863.500000 51.712749
863.500000 52.012961
863.500000 52.314018
863.500000 52.615919
863.500000 52.918665
863.500000 53.222256
863.500000 53.526690
863.500000 53.831970
863.500000 54.138093
863.500000 54.445061
863.500000 54.752874
863.500000 55.061531
863.500000 55.371033
863.500000 55.681379
863.500000 55.992570
863.500000 56.304605
863.500000 56.617484
863.500000 56.931208
863.500000 57.245777
863.500000 57.561190
863.500000 57.877447
863.500000 58.194549
863.500000 58.512496
863.500000 58.831287
863.500000 59.150922
863.500000 59.471402
863.500000 59.792726
863.500000 60.114895
863.500000 60.437908
863.500000 60.761766
863.500000 61.086469
863.500000 61.412015
863.500000 61.738407
863.500000 62.065642
863.500000 62.393722
863.500000 62.722647
863.500000 63.052416
863.500000 63.383030
863.500000 63.714488
863.500000 64.046791
863.500000 64.379938
863.500000 64.713929
863.500000 65.048765
863.500000 65.384446
863.500000 65.720971
863.500000 66.058340
863.500000 66.396554
863.500000 66.735612
863.500000 67.075515
863.500000 67.416263
863.500000 67.757855
863.500000 68.100291
863.500000 68.443572
863.500000 68.787697
863.500000 69.132667
863.500000 69.478481
863.500000 69.825140
863.500000 70.172643
863.500000 70.520991
863.500000 70.870183
863.500000 71.220220
863.500000 71.571101
863.500000 71.922826
863.500000 72.275396
863.500000 72.628811
863.500000 72.983070
863.500000 73.338174
863.500000 73.694122
863.500000 74.050914
863.500000 74.408551
863.500000 74.767032
863.500000 75.126358
863.500000 75.486529
863.500000 75.847544
863.500000 76.209403
863.500000 76.572107
863.500000 76.935655
863.500000 77.300048
863.500000 77.665285
863.500000 78.031367
863.500000 78.398293
863.500000 78.766064
863.500000 79.134679
863.500000 79.504139
863.500000 79.874443
863.500000 80.245592
863.500000 80.617585
863.500000 80.990422
863.500000 81.364104
863.500000 81.738631
863.500000 82.114002
863.500000 82.490217
863.500000 82.867277
863.500000 83.245182
863.500000 83.623931
863.500000 84.003524
863.500000 84.383962
863.500000 84.765245
863.500000 85.147371
863.500000 85.530343
863.500000 85.914159
863.500000 86.298819
863.500000 86.684324
863.500000 87.070673
863.500000 87.457867
863.500000 87.845905
863.500000 88.234788
863.500000 88.624515
863.500000 89.015086
863.500000 89.406502
863.500000 89.798763
863.500000 90.191868
863.500000 90.585818
863.500000 90.980612
863.500000 91.376250
863.500000 91.772733
863.500000 92.170061
863.500000 92.568233
863.500000 92.967249
863.500000 93.367110
863.500000 93.767816
863.500000 94.169365
863.500000 94.571760
863.500000 94.974999
863.500000 95.379082
863.500000 95.784010
863.500000 96.189782
863.500000 96.596399
863.500000 97.003860
863.500000 97.412166
863.500000 97.821316
863.500000 98.231311
863.500000 98.642150
863.500000 99.053833
863.500000 99.466362
863.500000 99.879734
863.500000 100.293951
863.500000 100.709013
863.500000 101.124919
863.500000 101.541669
863.500000 101.959264
863.500000 102.377704
863.500000 102.796988
863.500000 103.217116
863.500000 103.638089
863.500000 104.059906
863.500000 104.482568
863.500000 104.906075
863.500000 105.330426
863.500000 105.755621
863.500000 106.181661
863.500000 106.608545
863.500000 107.036274
863.500000 107.464847
863.500000 107.894265
863.500000 108.324527
863.500000 108.755633
863.500000 109.187584
863.500000 109.620380
863.500000 110.054020
863.500000 110.488505
863.500000 110.923834
863.500000 111.360007
863.500000 111.797025
863.500000 112.234888
863.500000 112.673595
863.500000 113.113146
863.500000 113.553542
863.500000 113.994783
863.500000 114.436868
863.500000 114.879797
863.500000 115.323571
863.500000 115.768189
863.500000 116.213652
863.500000 116.659959
863.500000 117.107111
863.500000 117.555107
863.500000 118.003948
863.500000 118.453633
863.500000 118.904163
863.500000 119.355537
863.500000 119.807756
863.500000 120.260819
863.500000 120.714726
863.500000 121.169478
863.500000 121.625075
863.500000 122.081516
863.500000 122.538801
863.500000 122.996931
863.500000 123.455906
863.500000 123.915725
863.500000 124.376388
863.500000 124.837896
863.500000 125.300249
863.500000 125.763445
863.500000 126.227487
863.500000 126.692373
863.500000 127.158103
863.500000 127.624678
863.500000 128.092097
863.500000 128.560361
863.500000 129.029469
863.500000 129.499422
863.500000 129.970219
863.500000 130.441861
863.500000 130.914347
863.500000 131.387677
863.500000 131.861852
863.500000 132.336872
863.500000 132.812736
863.500000 133.289445
863.500000 133.766998
863.500000 134.245395
863.500000 134.724637
863.500000 135.204724
863.500000 135.685654
863.500000 136.167430
863.500000 136.650050
863.500000 137.133514
863.500000 137.617823
863.500000 138.102976
863.500000 138.588974
863.500000 139.075816
863.500000 139.563503
863.500000 140.052034
863.500000 140.541410
863.500000 141.031630
863.500000 141.522695
863.500000 142.014604
863.500000 142.507358
863.500000 143.000956
863.500000 143.495399
863.500000 143.990686
863.500000 144.486817
863.500000 144.983793
863.500000 145.481614
863.500000 145.980279
863.500000 146.479788
863.500000 146.980142
863.500000 147.481341
863.500000 147.983384
863.500000 148.486271
863.500000 148.990003
863.500000 149.494579
863.500000 150.000000
</POINTS>
</NEKTAR>

