<?xml version="1.0" encoding="utf-8" ?>
<NEKTAR>
<POINTS DIM="2" FIELDS="">
123.500000 -1.500000
123.500000 -1.499578
123.500000 -1.498311
123.500000 -1.496200
123.500000 -1.493244
123.500000 -1.489444
123.500000 -1.484799
123.500000 -1.479310
123.500000 -1.472977
123.500000 -1.465799
123.500000 -1.457776
123.500000 -1.448909
123.500000 -1.439197
123.500000 -1.428642
123.500000 -1.417241
123.500000 -1.404996
123.500000 -1.391907
123.500000 -1.377973
123.500000 -1.363194
123.500000 -1.347571
123.500000 -1.331104
123.500000 -1.313792
123.500000 -1.295636
123.500000 -1.276635
123.500000 -1.256790
123.500000 -1.236100
123.500000 -1.214566
123.500000 -1.192187
123.500000 -1.168964
123.500000 -1.144896
123.500000 -1.119984
123.500000 -1.094228
123.500000 -1.067627
123.500000 -1.040181
123.500000 -1.011891
123.500000 -0.982756
123.500000 -0.952777
123.500000 -0.921954
123.500000 -0.890286
123.500000 -0.857774
123.500000 -0.824417
123.500000 -0.790215
123.500000 -0.755169
123.500000 -0.719279
123.500000 -0.682544
123.500000 -0.644965
123.500000 -0.606541
123.500000 -0.567273
123.500000 -0.527160
123.500000 -0.486203
123.500000 -0.444401
123.500000 -0.401755
123.500000 -0.358264
123.500000 -0.313929
123.500000 -0.268749
123.500000 -0.222725
123.500000 -0.175857
123.500000 -0.128143
123.500000 -0.079586
123.500000 -0.030184
123.500000 0.020063
123.500000 0.071154
123.500000 0.123089
123.500000 0.175869
123.500000 0.229494
123.500000 0.283962
123.500000 0.339276
123.500000 0.395434
123.500000 0.452436
123.500000 0.510283
123.500000 0.568974
123.500000 0.628510
123.500000 0.688890
123.500000 0.750115
123.500000 0.812184
123.500000 0.875098
123.500000 0.938856
123.500000 1.003459
123.500000 1.068906
123.500000 1.135198
123.500000 1.202334
123.500000 1.270314
123.500000 1.339139
123.500000 1.408809
123.500000 1.479323
123.500000 1.550681
123.500000 1.622884
123.500000 1.695932
123.500000 1.769824
123.500000 1.844560
123.500000 1.920141
123.500000 1.996566
123.500000 2.073836
123.500000 2.151951
123.500000 2.230909
123.500000 2.310713
123.500000 2.391360
123.500000 2.472853
123.500000 2.555189
123.500000 2.638371
123.500000 2.722396
123.500000 2.807266
123.500000 2.892981
123.500000 2.979540
123.500000 3.066944
123.500000 3.155192
123.500000 3.244284
123.500000 3.334221
123.500000 3.425003
123.500000 3.516629
123.500000 3.609099
123.500000 3.702414
123.500000 3.796574
123.500000 3.891578
123.500000 3.987426
123.500000 4.084119
123.500000 4.181656
123.500000 4.280038
123.500000 4.379265
123.500000 4.479335
123.500000 4.580251
123.500000 4.682010
123.500000 4.784615
123.500000 4.888063
123.500000 4.992356
123.500000 5.097494
123.500000 5.203476
123.500000 5.310303
123.500000 5.417974
123.500000 5.526490
123.500000 5.635850
123.500000 5.746054
123.500000 5.857103
123.500000 5.968997
123.500000 6.081735
123.500000 6.195317
123.500000 6.309744
123.500000 6.425016
123.500000 6.541131
123.500000 6.658092
123.500000 6.775897
123.500000 6.894546
123.500000 7.014040
123.500000 7.134378
123.500000 7.255561
123.500000 7.377588
123.500000 7.500460
123.500000 7.624176
123.500000 7.748737
123.500000 7.874142
123.500000 8.000392
123.500000 8.127486
123.500000 8.255424
123.500000 8.384207
123.500000 8.513835
123.500000 8.644307
123.500000 8.775624
123.500000 8.907785
123.500000 9.040790
123.500000 9.174640
123.500000 9.309334
123.500000 9.444873
123.500000 9.581257
123.500000 9.718485
123.500000 9.856557
123.500000 9.995474
123.500000 10.135235
123.500000 10.275841
123.500000 10.417291
123.500000 10.559586
123.500000 10.702725
123.500000 10.846709
123.500000 10.991537
123.500000 11.137210
123.500000 11.283727
123.500000 11.431089
123.500000 11.579295
123.500000 11.728345
123.500000 11.878240
123.500000 12.028980
123.500000 12.180564
123.500000 12.332992
123.500000 12.486265
123.500000 12.640383
123.500000 12.795345
123.500000 12.951151
123.500000 13.107802
123.500000 13.265297
123.500000 13.423637
123.500000 13.582822
123.500000 13.742850
123.500000 13.903724
123.500000 14.065442
123.500000 14.228004
123.500000 14.391411
123.500000 14.555662
123.500000 14.720757
123.500000 14.886698
123.500000 15.053482
123.500000 15.221111
123.500000 15.389585
123.500000 15.558903
123.500000 15.729066
123.500000 15.900073
123.500000 16.071924
123.500000 16.244620
123.500000 16.418161
123.500000 16.592546
123.500000 16.767775
123.500000 16.943849
123.500000 17.120768
123.500000 17.298530
123.500000 17.477138
123.500000 17.656590
123.500000 17.836886
123.500000 18.018027
123.500000 18.200012
123.500000 18.382842
123.500000 18.566516
123.500000 18.751035
123.500000 18.936398
123.500000 19.122606
123.500000 19.309658
123.500000 19.497554
123.500000 19.686295
123.500000 19.875881
123.500000 20.066311
123.500000 20.257586
123.500000 20.449705
123.500000 20.642668
123.500000 20.836476
123.500000 21.031129
123.500000 21.226626
123.500000 21.422967
123.500000 21.620153
123.500000 21.818183
123.500000 22.017058
123.500000 22.216778
123.500000 22.417341
123.500000 22.618750
123.500000 22.821002
123.500000 23.024100
123.500000 23.228041
123.500000 23.432828
123.500000 23.638458
123.500000 23.844934
123.500000 24.052253
123.500000 24.260417
123.500000 24.469426
123.500000 24.679279
123.500000 24.889977
123.500000 25.101519
123.500000 25.313905
123.500000 25.527136
123.500000 25.741212
123.500000 25.956132
123.500000 26.171896
123.500000 26.388505
123.500000 26.605958
123.500000 26.824256
123.500000 27.043399
123.500000 27.263386
123.500000 27.484217
123.500000 27.705893
123.500000 27.928413
123.500000 28.151778
123.500000 28.375987
123.500000 28.601041
123.500000 28.826939
123.500000 29.053682
123.500000 29.281269
123.500000 29.509700
123.500000 29.738976
123.500000 29.969097
123.500000 30.200062
123.500000 30.431872
123.500000 30.664526
123.500000 30.898024
123.500000 31.132367
123.500000 31.367555
123.500000 31.603587
123.500000 31.840463
123.500000 32.078184
123.500000 32.316749
123.500000 32.556159
123.500000 32.796414
123.500000 33.037512
123.500000 33.279456
123.500000 33.522244
123.500000 33.765876
123.500000 34.010353
123.500000 34.255674
123.500000 34.501839
123.500000 34.748850
123.500000 34.996704
123.500000 35.245403
123.500000 35.494947
123.500000 35.745335
123.500000 35.996568
123.500000 36.248645
123.500000 36.501566
123.500000 36.755332
123.500000 37.009943
123.500000 37.265398
123.500000 37.521697
123.500000 37.778841
123.500000 38.036830
123.500000 38.295662
123.500000 38.555340
123.500000 38.815862
123.500000 39.077228
123.500000 39.339439
123.500000 39.602494
123.500000 39.866394
123.500000 40.131138
123.500000 40.396727
123.500000 40.663160
123.500000 40.930438
123.500000 41.198560
123.500000 41.467527
123.500000 41.737338
123.500000 42.007993
123.500000 42.279493
123.500000 42.551838
123.500000 42.825027
123.500000 43.099060
123.500000 43.373938
123.500000 43.649661
123.500000 43.926228
123.500000 44.203639
123.500000 44.481895
123.500000 44.760996
123.500000 45.040941
123.500000 45.321730
123.500000 45.603364
123.500000 45.885842
123.500000 46.169165
123.500000 46.453332
123.500000 46.738344
123.500000 47.024200
123.500000 47.310901
123.500000 47.598446
123.500000 47.886836
123.500000 48.176070
123.500000 48.466148
123.500000 48.757071
123.500000 49.048839
123.500000 49.341451
123.500000 49.634908
123.500000 49.929209
123.500000 50.224354
123.500000 50.520344
123.500000 50.817179
123.500000 51.114858
123.500000 51.413381
123.500000 51.712749
123.500000 52.012961
123.500000 52.314018
123.500000 52.615919
123.500000 52.918665
123.500000 53.222256
123.500000 53.526690
123.500000 53.831970
123.500000 54.138093
123.500000 54.445061
123.500000 54.752874
123.500000 55.061531
123.500000 55.371033
123.500000 55.681379
123.500000 55.992570
123.500000 56.304605
123.500000 56.617484
123.500000 56.931208
123.500000 57.245777
123.500000 57.561190
123.500000 57.877447
123.500000 58.194549
123.500000 58.512496
123.500000 58.831287
123.500000 59.150922
123.500000 59.471402
123.500000 59.792726
123.500000 60.114895
123.500000 60.437908
123.500000 60.761766
123.500000 61.086469
123.500000 61.412015
123.500000 61.738407
123.500000 62.065642
123.500000 62.393722
123.500000 62.722647
123.500000 63.052416
123.500000 63.383030
123.500000 63.714488
123.500000 64.046791
123.500000 64.379938
123.500000 64.713929
123.500000 65.048765
123.500000 65.384446
123.500000 65.720971
123.500000 66.058340
123.500000 66.396554
123.500000 66.735612
123.500000 67.075515
123.500000 67.416263
123.500000 67.757855
123.500000 68.100291
123.500000 68.443572
123.500000 68.787697
123.500000 69.132667
123.500000 69.478481
123.500000 69.825140
123.500000 70.172643
123.500000 70.520991
123.500000 70.870183
123.500000 71.220220
123.500000 71.571101
123.500000 71.922826
123.500000 72.275396
123.500000 72.628811
123.500000 72.983070
123.500000 73.338174
123.500000 73.694122
123.500000 74.050914
123.500000 74.408551
123.500000 74.767032
123.500000 75.126358
123.500000 75.486529
123.500000 75.847544
123.500000 76.209403
123.500000 76.572107
123.500000 76.935655
123.500000 77.300048
123.500000 77.665285
123.500000 78.031367
123.500000 78.398293
123.500000 78.766064
123.500000 79.134679
123.500000 79.504139
123.500000 79.874443
123.500000 80.245592
123.500000 80.617585
123.500000 80.990422
123.500000 81.364104
123.500000 81.738631
123.500000 82.114002
123.500000 82.490217
123.500000 82.867277
123.500000 83.245182
123.500000 83.623931
123.500000 84.003524
123.500000 84.383962
123.500000 84.765245
123.500000 85.147371
123.500000 85.530343
123.500000 85.914159
123.500000 86.298819
123.500000 86.684324
123.500000 87.070673
123.500000 87.457867
123.500000 87.845905
123.500000 88.234788
123.500000 88.624515
123.500000 89.015086
123.500000 89.406502
123.500000 89.798763
123.500000 90.191868
123.500000 90.585818
123.500000 90.980612
123.500000 91.376250
123.500000 91.772733
123.500000 92.170061
123.500000 92.568233
123.500000 92.967249
123.500000 93.367110
123.500000 93.767816
123.500000 94.169365
123.500000 94.571760
123.500000 94.974999
123.500000 95.379082
123.500000 95.784010
123.500000 96.189782
123.500000 96.596399
123.500000 97.003860
123.500000 97.412166
123.500000 97.821316
123.500000 98.231311
123.500000 98.642150
123.500000 99.053833
123.500000 99.466362
123.500000 99.879734
123.500000 100.293951
123.500000 100.709013
123.500000 101.124919
123.500000 101.541669
123.500000 101.959264
123.500000 102.377704
123.500000 102.796988
123.500000 103.217116
123.500000 103.638089
123.500000 104.059906
123.500000 104.482568
123.500000 104.906075
123.500000 105.330426
123.500000 105.755621
123.500000 106.181661
123.500000 106.608545
123.500000 107.036274
123.500000 107.464847
123.500000 107.894265
123.500000 108.324527
123.500000 108.755633
123.500000 109.187584
123.500000 109.620380
123.500000 110.054020
123.500000 110.488505
123.500000 110.923834
123.500000 111.360007
123.500000 111.797025
123.500000 112.234888
123.500000 112.673595
123.500000 113.113146
123.500000 113.553542
123.500000 113.994783
123.500000 114.436868
123.500000 114.879797
123.500000 115.323571
123.500000 115.768189
123.500000 116.213652
123.500000 116.659959
123.500000 117.107111
123.500000 117.555107
123.500000 118.003948
123.500000 118.453633
123.500000 118.904163
123.500000 119.355537
123.500000 119.807756
123.500000 120.260819
123.500000 120.714726
123.500000 121.169478
123.500000 121.625075
123.500000 122.081516
123.500000 122.538801
123.500000 122.996931
123.500000 123.455906
123.500000 123.915725
123.500000 124.376388
123.500000 124.837896
123.500000 125.300249
123.500000 125.763445
123.500000 126.227487
123.500000 126.692373
123.500000 127.158103
123.500000 127.624678
123.500000 128.092097
123.500000 128.560361
123.500000 129.029469
123.500000 129.499422
123.500000 129.970219
123.500000 130.441861
123.500000 130.914347
123.500000 131.387677
123.500000 131.861852
123.500000 132.336872
123.500000 132.812736
123.500000 133.289445
123.500000 133.766998
123.500000 134.245395
123.500000 134.724637
123.500000 135.204724
123.500000 135.685654
123.500000 136.167430
123.500000 136.650050
123.500000 137.133514
123.500000 137.617823
123.500000 138.102976
123.500000 138.588974
123.500000 139.075816
123.500000 139.563503
123.500000 140.052034
123.500000 140.541410
123.500000 141.031630
123.500000 141.522695
123.500000 142.014604
123.500000 142.507358
123.500000 143.000956
123.500000 143.495399
123.500000 143.990686
123.500000 144.486817
123.500000 144.983793
123.500000 145.481614
123.500000 145.980279
123.500000 146.479788
123.500000 146.980142
123.500000 147.481341
123.500000 147.983384
123.500000 148.486271
123.500000 148.990003
123.500000 149.494579
123.500000 150.000000
</POINTS>
</NEKTAR>

