<?xml version="1.0" encoding="utf-8" ?>
<NEKTAR>
<POINTS DIM="2" FIELDS="">
416.500000 0.000000
416.500000 0.000418
416.500000 0.001672
416.500000 0.003763
416.500000 0.006689
416.500000 0.010451
416.500000 0.015050
416.500000 0.020485
416.500000 0.026756
416.500000 0.033863
416.500000 0.041806
416.500000 0.050585
416.500000 0.060201
416.500000 0.070652
416.500000 0.081940
416.500000 0.094063
416.500000 0.107023
416.500000 0.120819
416.500000 0.135451
416.500000 0.150919
416.500000 0.167224
416.500000 0.184364
416.500000 0.202341
416.500000 0.221153
416.500000 0.240802
416.500000 0.261287
416.500000 0.282608
416.500000 0.304765
416.500000 0.327758
416.500000 0.351588
416.500000 0.376253
416.500000 0.401755
416.500000 0.428092
416.500000 0.455266
416.500000 0.483276
416.500000 0.512122
416.500000 0.541805
416.500000 0.572323
416.500000 0.603677
416.500000 0.635868
416.500000 0.668894
416.500000 0.702757
416.500000 0.737456
416.500000 0.772991
416.500000 0.809362
416.500000 0.846570
416.500000 0.884613
416.500000 0.923492
416.500000 0.963208
416.500000 1.003760
416.500000 1.045148
416.500000 1.087372
416.500000 1.130432
416.500000 1.174328
416.500000 1.219060
416.500000 1.264629
416.500000 1.311033
416.500000 1.358274
416.500000 1.406351
416.500000 1.455264
416.500000 1.505013
416.500000 1.555598
416.500000 1.607019
416.500000 1.659276
416.500000 1.712370
416.500000 1.766299
416.500000 1.821065
416.500000 1.876667
416.500000 1.933105
416.500000 1.990379
416.500000 2.048489
416.500000 2.107436
416.500000 2.167218
416.500000 2.227837
416.500000 2.289291
416.500000 2.351582
416.500000 2.414709
416.500000 2.478672
416.500000 2.543471
416.500000 2.609106
416.500000 2.675578
416.500000 2.742885
416.500000 2.811029
416.500000 2.880009
416.500000 2.949825
416.500000 3.020477
416.500000 3.091965
416.500000 3.164289
416.500000 3.237449
416.500000 3.311446
416.500000 3.386278
416.500000 3.461947
416.500000 3.538452
416.500000 3.615793
416.500000 3.693970
416.500000 3.772983
416.500000 3.852832
416.500000 3.933517
416.500000 4.015039
416.500000 4.097397
416.500000 4.180590
416.500000 4.264620
416.500000 4.349486
416.500000 4.435188
416.500000 4.521727
416.500000 4.609101
416.500000 4.697311
416.500000 4.786358
416.500000 4.876241
416.500000 4.966959
416.500000 5.058514
416.500000 5.150905
416.500000 5.244133
416.500000 5.338196
416.500000 5.433095
416.500000 5.528831
416.500000 5.625402
416.500000 5.722810
416.500000 5.821054
416.500000 5.920134
416.500000 6.020050
416.500000 6.120802
416.500000 6.222391
416.500000 6.324815
416.500000 6.428076
416.500000 6.532172
416.500000 6.637105
416.500000 6.742874
416.500000 6.849479
416.500000 6.956920
416.500000 7.065198
416.500000 7.174311
416.500000 7.284261
416.500000 7.395046
416.500000 7.506668
416.500000 7.619126
416.500000 7.732420
416.500000 7.846550
416.500000 7.961516
416.500000 8.077319
416.500000 8.193957
416.500000 8.311432
416.500000 8.429742
416.500000 8.548889
416.500000 8.668872
416.500000 8.789691
416.500000 8.911346
416.500000 9.033838
416.500000 9.157165
416.500000 9.281329
416.500000 9.406328
416.500000 9.532164
416.500000 9.658836
416.500000 9.786344
416.500000 9.914688
416.500000 10.043868
416.500000 10.173885
416.500000 10.304737
416.500000 10.436426
416.500000 10.568950
416.500000 10.702311
416.500000 10.836508
416.500000 10.971541
416.500000 11.107411
416.500000 11.244116
416.500000 11.381657
416.500000 11.520035
416.500000 11.659248
416.500000 11.799298
416.500000 11.940184
416.500000 12.081906
416.500000 12.224464
416.500000 12.367859
416.500000 12.512089
416.500000 12.657155
416.500000 12.803058
416.500000 12.949797
416.500000 13.097372
416.500000 13.245782
416.500000 13.395030
416.500000 13.545113
416.500000 13.696032
416.500000 13.847787
416.500000 14.000379
416.500000 14.153807
416.500000 14.308070
416.500000 14.463170
416.500000 14.619106
416.500000 14.775879
416.500000 14.933487
416.500000 15.091931
416.500000 15.251212
416.500000 15.411328
416.500000 15.572281
416.500000 15.734070
416.500000 15.896695
416.500000 16.060156
416.500000 16.224453
416.500000 16.389586
416.500000 16.555556
416.500000 16.722361
416.500000 16.890003
416.500000 17.058481
416.500000 17.227795
416.500000 17.397945
416.500000 17.568931
416.500000 17.740753
416.500000 17.913412
416.500000 18.086906
416.500000 18.261237
416.500000 18.436403
416.500000 18.612406
416.500000 18.789245
416.500000 18.966920
416.500000 19.145432
416.500000 19.324779
416.500000 19.504962
416.500000 19.685982
416.500000 19.867838
416.500000 20.050529
416.500000 20.234057
416.500000 20.418421
416.500000 20.603622
416.500000 20.789658
416.500000 20.976530
416.500000 21.164239
416.500000 21.352783
416.500000 21.542164
416.500000 21.732381
416.500000 21.923434
416.500000 22.115323
416.500000 22.308048
416.500000 22.501610
416.500000 22.696007
416.500000 22.891241
416.500000 23.087310
416.500000 23.284216
416.500000 23.481958
416.500000 23.680536
416.500000 23.879950
416.500000 24.080200
416.500000 24.281287
416.500000 24.483209
416.500000 24.685968
416.500000 24.889563
416.500000 25.093994
416.500000 25.299261
416.500000 25.505364
416.500000 25.712303
416.500000 25.920078
416.500000 26.128690
416.500000 26.338137
416.500000 26.548421
416.500000 26.759541
416.500000 26.971497
416.500000 27.184289
416.500000 27.397917
416.500000 27.612381
416.500000 27.827682
416.500000 28.043818
416.500000 28.260791
416.500000 28.478600
416.500000 28.697244
416.500000 28.916725
416.500000 29.137043
416.500000 29.358196
416.500000 29.580185
416.500000 29.803011
416.500000 30.026672
416.500000 30.251170
416.500000 30.476504
416.500000 30.702674
416.500000 30.929680
416.500000 31.157522
416.500000 31.386200
416.500000 31.615715
416.500000 31.846065
416.500000 32.077252
416.500000 32.309275
416.500000 32.542133
416.500000 32.775828
416.500000 33.010360
416.500000 33.245727
416.500000 33.481930
416.500000 33.718970
416.500000 33.956845
416.500000 34.195557
416.500000 34.435105
416.500000 34.675489
416.500000 34.916709
416.500000 35.158765
416.500000 35.401657
416.500000 35.645386
416.500000 35.889950
416.500000 36.135351
416.500000 36.381588
416.500000 36.628660
416.500000 36.876569
416.500000 37.125315
416.500000 37.374896
416.500000 37.625313
416.500000 37.876567
416.500000 38.128656
416.500000 38.381582
416.500000 38.635344
416.500000 38.889942
416.500000 39.145376
416.500000 39.401646
416.500000 39.658752
416.500000 39.916695
416.500000 40.175473
416.500000 40.435088
416.500000 40.695539
416.500000 40.956826
416.500000 41.218949
416.500000 41.481908
416.500000 41.745703
416.500000 42.010334
416.500000 42.275802
416.500000 42.542106
416.500000 42.809245
416.500000 43.077221
416.500000 43.346033
416.500000 43.615681
416.500000 43.886165
416.500000 44.157486
416.500000 44.429642
416.500000 44.702635
416.500000 44.976463
416.500000 45.251128
416.500000 45.526629
416.500000 45.802966
416.500000 46.080139
416.500000 46.358148
416.500000 46.636994
416.500000 46.916675
416.500000 47.197193
416.500000 47.478547
416.500000 47.760736
416.500000 48.043762
416.500000 48.327625
416.500000 48.612323
416.500000 48.897857
416.500000 49.184227
416.500000 49.471434
416.500000 49.759477
416.500000 50.048355
416.500000 50.338070
416.500000 50.628621
416.500000 50.920009
416.500000 51.212232
416.500000 51.505291
416.500000 51.799187
416.500000 52.093918
416.500000 52.389486
416.500000 52.685890
416.500000 52.983130
416.500000 53.281206
416.500000 53.580118
416.500000 53.879867
416.500000 54.180451
416.500000 54.481872
416.500000 54.784128
416.500000 55.087221
416.500000 55.391150
416.500000 55.695915
416.500000 56.001516
416.500000 56.307953
416.500000 56.615227
416.500000 56.923336
416.500000 57.232282
416.500000 57.542064
416.500000 57.852682
416.500000 58.164136
416.500000 58.476426
416.500000 58.789552
416.500000 59.103514
416.500000 59.418313
416.500000 59.733947
416.500000 60.050418
416.500000 60.367725
416.500000 60.685868
416.500000 61.004847
416.500000 61.324662
416.500000 61.645313
416.500000 61.966801
416.500000 62.289124
416.500000 62.612284
416.500000 62.936279
416.500000 63.261111
416.500000 63.586779
416.500000 63.913283
416.500000 64.240624
416.500000 64.568800
416.500000 64.897812
416.500000 65.227661
416.500000 65.558346
416.500000 65.889867
416.500000 66.222223
416.500000 66.555417
416.500000 66.889446
416.500000 67.224311
416.500000 67.560012
416.500000 67.896550
416.500000 68.233924
416.500000 68.572133
416.500000 68.911179
416.500000 69.251061
416.500000 69.591779
416.500000 69.933334
416.500000 70.275724
416.500000 70.618950
416.500000 70.963013
416.500000 71.307912
416.500000 71.653646
416.500000 72.000217
416.500000 72.347624
416.500000 72.695868
416.500000 73.044947
416.500000 73.394862
416.500000 73.745614
416.500000 74.097202
416.500000 74.449625
416.500000 74.802885
416.500000 75.156981
416.500000 75.511913
416.500000 75.867682
416.500000 76.224286
416.500000 76.581726
416.500000 76.940003
416.500000 77.299116
416.500000 77.659064
416.500000 78.019849
416.500000 78.381471
416.500000 78.743928
416.500000 79.107221
416.500000 79.471350
416.500000 79.836316
416.500000 80.202118
416.500000 80.568755
416.500000 80.936229
416.500000 81.304539
416.500000 81.673685
416.500000 82.043668
416.500000 82.414486
416.500000 82.786141
416.500000 83.158631
416.500000 83.531958
416.500000 83.906121
416.500000 84.281120
416.500000 84.656955
416.500000 85.033626
416.500000 85.411133
416.500000 85.789477
416.500000 86.168656
416.500000 86.548672
416.500000 86.929524
416.500000 87.311212
416.500000 87.693736
416.500000 88.077096
416.500000 88.461292
416.500000 88.846324
416.500000 89.232193
416.500000 89.618897
416.500000 90.006438
416.500000 90.394815
416.500000 90.784028
416.500000 91.174077
416.500000 91.564962
416.500000 91.956684
416.500000 92.349241
416.500000 92.742634
416.500000 93.136864
416.500000 93.531930
416.500000 93.927832
416.500000 94.324570
416.500000 94.722144
416.500000 95.120554
416.500000 95.519801
416.500000 95.919883
416.500000 96.320802
416.500000 96.722557
416.500000 97.125147
416.500000 97.528574
416.500000 97.932837
416.500000 98.337937
416.500000 98.743872
416.500000 99.150643
416.500000 99.558251
416.500000 99.966695
416.500000 100.375974
416.500000 100.786090
416.500000 101.197042
416.500000 101.608831
416.500000 102.021455
416.500000 102.434915
416.500000 102.849212
416.500000 103.264344
416.500000 103.680313
416.500000 104.097118
416.500000 104.514759
416.500000 104.933236
416.500000 105.352549
416.500000 105.772699
416.500000 106.193684
416.500000 106.615506
416.500000 107.038163
416.500000 107.461657
416.500000 107.885987
416.500000 108.311153
416.500000 108.737155
416.500000 109.163993
416.500000 109.591668
416.500000 110.020178
416.500000 110.449525
416.500000 110.879708
416.500000 111.310727
416.500000 111.742582
416.500000 112.175273
416.500000 112.608800
416.500000 113.043163
416.500000 113.478363
416.500000 113.914398
416.500000 114.351270
416.500000 114.788978
416.500000 115.227522
416.500000 115.666902
416.500000 116.107118
416.500000 116.548170
416.500000 116.990059
416.500000 117.432783
416.500000 117.876344
416.500000 118.320740
416.500000 118.765973
416.500000 119.212042
416.500000 119.658947
416.500000 120.106689
416.500000 120.555266
416.500000 121.004679
416.500000 121.454929
416.500000 121.906015
416.500000 122.357937
416.500000 122.810695
416.500000 123.264289
416.500000 123.718719
416.500000 124.173985
416.500000 124.630087
416.500000 125.087026
416.500000 125.544801
416.500000 126.003411
416.500000 126.462858
416.500000 126.923141
416.500000 127.384260
416.500000 127.846216
416.500000 128.309007
416.500000 128.772634
416.500000 129.237098
416.500000 129.702398
416.500000 130.168534
416.500000 130.635505
416.500000 131.103314
416.500000 131.571958
416.500000 132.041438
416.500000 132.511754
416.500000 132.982907
416.500000 133.454896
416.500000 133.927720
416.500000 134.401381
416.500000 134.875878
416.500000 135.351211
416.500000 135.827381
416.500000 136.304386
416.500000 136.782227
416.500000 137.260905
416.500000 137.740419
416.500000 138.220769
416.500000 138.701955
416.500000 139.183977
416.500000 139.666835
416.500000 140.150529
416.500000 140.635060
416.500000 141.120426
416.500000 141.606629
416.500000 142.093668
416.500000 142.581542
416.500000 143.070253
416.500000 143.559801
416.500000 144.050184
416.500000 144.541403
416.500000 145.033459
416.500000 145.526350
416.500000 146.020078
416.500000 146.514642
416.500000 147.010042
416.500000 147.506278
416.500000 148.003350
416.500000 148.501258
416.500000 149.000003
416.500000 149.499583
416.500000 150.000000
</POINTS>
</NEKTAR>

