<?xml version="1.0" encoding="utf-8" ?>
<NEKTAR>
<POINTS DIM="2" FIELDS="">
15.500000 -1.750000
15.500000 -1.749577
15.500000 -1.748308
15.500000 -1.746194
15.500000 -1.743233
15.500000 -1.739427
15.500000 -1.734774
15.500000 -1.729276
15.500000 -1.722932
15.500000 -1.715742
15.500000 -1.707706
15.500000 -1.698825
15.500000 -1.689097
15.500000 -1.678524
15.500000 -1.667104
15.500000 -1.654839
15.500000 -1.641728
15.500000 -1.627771
15.500000 -1.612969
15.500000 -1.597320
15.500000 -1.580825
15.500000 -1.563485
15.500000 -1.545299
15.500000 -1.526267
15.500000 -1.506389
15.500000 -1.485665
15.500000 -1.464095
15.500000 -1.441679
15.500000 -1.418418
15.500000 -1.394310
15.500000 -1.369357
15.500000 -1.343558
15.500000 -1.316913
15.500000 -1.289422
15.500000 -1.261086
15.500000 -1.231903
15.500000 -1.201874
15.500000 -1.171000
15.500000 -1.139280
15.500000 -1.106714
15.500000 -1.073302
15.500000 -1.039044
15.500000 -1.003940
15.500000 -0.967991
15.500000 -0.931195
15.500000 -0.893554
15.500000 -0.855067
15.500000 -0.815734
15.500000 -0.775555
15.500000 -0.734530
15.500000 -0.692659
15.500000 -0.649942
15.500000 -0.606380
15.500000 -0.561972
15.500000 -0.516717
15.500000 -0.470617
15.500000 -0.423671
15.500000 -0.375880
15.500000 -0.327242
15.500000 -0.277758
15.500000 -0.227429
15.500000 -0.176254
15.500000 -0.124233
15.500000 -0.071365
15.500000 -0.017653
15.500000 0.036906
15.500000 0.092311
15.500000 0.148561
15.500000 0.205658
15.500000 0.263600
15.500000 0.322388
15.500000 0.382022
15.500000 0.442502
15.500000 0.503828
15.500000 0.566000
15.500000 0.629017
15.500000 0.692881
15.500000 0.757590
15.500000 0.823145
15.500000 0.889546
15.500000 0.956793
15.500000 1.024886
15.500000 1.093824
15.500000 1.163609
15.500000 1.234239
15.500000 1.305715
15.500000 1.378038
15.500000 1.451206
15.500000 1.525219
15.500000 1.600079
15.500000 1.675785
15.500000 1.752336
15.500000 1.829734
15.500000 1.907977
15.500000 1.987066
15.500000 2.067001
15.500000 2.147782
15.500000 2.229409
15.500000 2.311881
15.500000 2.395200
15.500000 2.479364
15.500000 2.564374
15.500000 2.650230
15.500000 2.736932
15.500000 2.824480
15.500000 2.912874
15.500000 3.002113
15.500000 3.092199
15.500000 3.183130
15.500000 3.274907
15.500000 3.367530
15.500000 3.460999
15.500000 3.555314
15.500000 3.650475
15.500000 3.746481
15.500000 3.843334
15.500000 3.941032
15.500000 4.039576
15.500000 4.138966
15.500000 4.239202
15.500000 4.340284
15.500000 4.442212
15.500000 4.544985
15.500000 4.648605
15.500000 4.753070
15.500000 4.858381
15.500000 4.964538
15.500000 5.071541
15.500000 5.179390
15.500000 5.288084
15.500000 5.397625
15.500000 5.508011
15.500000 5.619244
15.500000 5.731322
15.500000 5.844246
15.500000 5.958016
15.500000 6.072631
15.500000 6.188093
15.500000 6.304401
15.500000 6.421554
15.500000 6.539553
15.500000 6.658398
15.500000 6.778089
15.500000 6.898626
15.500000 7.020009
15.500000 7.142238
15.500000 7.265312
15.500000 7.389232
15.500000 7.513999
15.500000 7.639611
15.500000 7.766069
15.500000 7.893373
15.500000 8.021522
15.500000 8.150518
15.500000 8.280359
15.500000 8.411047
15.500000 8.542580
15.500000 8.674959
15.500000 8.808184
15.500000 8.942255
15.500000 9.077172
15.500000 9.212934
15.500000 9.349543
15.500000 9.486997
15.500000 9.625297
15.500000 9.764443
15.500000 9.904435
15.500000 10.045273
15.500000 10.186957
15.500000 10.329486
15.500000 10.472862
15.500000 10.617083
15.500000 10.762150
15.500000 10.908063
15.500000 11.054822
15.500000 11.202427
15.500000 11.350878
15.500000 11.500174
15.500000 11.650317
15.500000 11.801305
15.500000 11.953139
15.500000 12.105819
15.500000 12.259345
15.500000 12.413717
15.500000 12.568934
15.500000 12.724998
15.500000 12.881907
15.500000 13.039663
15.500000 13.198264
15.500000 13.357711
15.500000 13.518004
15.500000 13.679142
15.500000 13.841127
15.500000 14.003958
15.500000 14.167634
15.500000 14.332156
15.500000 14.497524
15.500000 14.663738
15.500000 14.830798
15.500000 14.998704
15.500000 15.167456
15.500000 15.337053
15.500000 15.507496
15.500000 15.678786
15.500000 15.850921
15.500000 16.023902
15.500000 16.197729
15.500000 16.372401
15.500000 16.547920
15.500000 16.724284
15.500000 16.901495
15.500000 17.079551
15.500000 17.258453
15.500000 17.438201
15.500000 17.618795
15.500000 17.800235
15.500000 17.982520
15.500000 18.165652
15.500000 18.349629
15.500000 18.534452
15.500000 18.720121
15.500000 18.906636
15.500000 19.093997
15.500000 19.282204
15.500000 19.471256
15.500000 19.661155
15.500000 19.851899
15.500000 20.043489
15.500000 20.235925
15.500000 20.429207
15.500000 20.623335
15.500000 20.818309
15.500000 21.014128
15.500000 21.210794
15.500000 21.408305
15.500000 21.606662
15.500000 21.805865
15.500000 22.005914
15.500000 22.206809
15.500000 22.408550
15.500000 22.611136
15.500000 22.814569
15.500000 23.018847
15.500000 23.223971
15.500000 23.429941
15.500000 23.636757
15.500000 23.844419
15.500000 24.052926
15.500000 24.262280
15.500000 24.472479
15.500000 24.683524
15.500000 24.895416
15.500000 25.108153
15.500000 25.321735
15.500000 25.536164
15.500000 25.751439
15.500000 25.967559
15.500000 26.184526
15.500000 26.402338
15.500000 26.620996
15.500000 26.840500
15.500000 27.060850
15.500000 27.282046
15.500000 27.504087
15.500000 27.726975
15.500000 27.950708
15.500000 28.175287
15.500000 28.400712
15.500000 28.626983
15.500000 28.854100
15.500000 29.082063
15.500000 29.310871
15.500000 29.540526
15.500000 29.771026
15.500000 30.002372
15.500000 30.234565
15.500000 30.467603
15.500000 30.701486
15.500000 30.936216
15.500000 31.171792
15.500000 31.408213
15.500000 31.645480
15.500000 31.883594
15.500000 32.122553
15.500000 32.362358
15.500000 32.603008
15.500000 32.844505
15.500000 33.086848
15.500000 33.330036
15.500000 33.574070
15.500000 33.818950
15.500000 34.064677
15.500000 34.311248
15.500000 34.558666
15.500000 34.806930
15.500000 35.056039
15.500000 35.305995
15.500000 35.556796
15.500000 35.808443
15.500000 36.060936
15.500000 36.314275
15.500000 36.568460
15.500000 36.823491
15.500000 37.079367
15.500000 37.336090
15.500000 37.593658
15.500000 37.852072
15.500000 38.111332
15.500000 38.371438
15.500000 38.632390
15.500000 38.894187
15.500000 39.156831
15.500000 39.420320
15.500000 39.684655
15.500000 39.949836
15.500000 40.215863
15.500000 40.482736
15.500000 40.750455
15.500000 41.019020
15.500000 41.288430
15.500000 41.558686
15.500000 41.829789
15.500000 42.101737
15.500000 42.374531
15.500000 42.648171
15.500000 42.922656
15.500000 43.197988
15.500000 43.474165
15.500000 43.751189
15.500000 44.029058
15.500000 44.307773
15.500000 44.587334
15.500000 44.867741
15.500000 45.148993
15.500000 45.431092
15.500000 45.714036
15.500000 45.997827
15.500000 46.282463
15.500000 46.567945
15.500000 46.854273
15.500000 47.141447
15.500000 47.429466
15.500000 47.718332
15.500000 48.008043
15.500000 48.298601
15.500000 48.590004
15.500000 48.882253
15.500000 49.175348
15.500000 49.469289
15.500000 49.764075
15.500000 50.059708
15.500000 50.356186
15.500000 50.653511
15.500000 50.951681
15.500000 51.250697
15.500000 51.550559
15.500000 51.851266
15.500000 52.152820
15.500000 52.455220
15.500000 52.758465
15.500000 53.062556
15.500000 53.367493
15.500000 53.673276
15.500000 53.979905
15.500000 54.287380
15.500000 54.595701
15.500000 54.904867
15.500000 55.214880
15.500000 55.525738
15.500000 55.837442
15.500000 56.149992
15.500000 56.463388
15.500000 56.777630
15.500000 57.092717
15.500000 57.408651
15.500000 57.725430
15.500000 58.043055
15.500000 58.361526
15.500000 58.680843
15.500000 59.001006
15.500000 59.322015
15.500000 59.643869
15.500000 59.966570
15.500000 60.290116
15.500000 60.614508
15.500000 60.939747
15.500000 61.265831
15.500000 61.592760
15.500000 61.920536
15.500000 62.249158
15.500000 62.578625
15.500000 62.908938
15.500000 63.240098
15.500000 63.572103
15.500000 63.904954
15.500000 64.238650
15.500000 64.573193
15.500000 64.908582
15.500000 65.244816
15.500000 65.581896
15.500000 65.919823
15.500000 66.258595
15.500000 66.598213
15.500000 66.938676
15.500000 67.279986
15.500000 67.622142
15.500000 67.965143
15.500000 68.308990
15.500000 68.653683
15.500000 68.999222
15.500000 69.345607
15.500000 69.692838
15.500000 70.040915
15.500000 70.389837
15.500000 70.739606
15.500000 71.090220
15.500000 71.441680
15.500000 71.793986
15.500000 72.147138
15.500000 72.501136
15.500000 72.855979
15.500000 73.211669
15.500000 73.568204
15.500000 73.925585
15.500000 74.283813
15.500000 74.642886
15.500000 75.002804
15.500000 75.363569
15.500000 75.725180
15.500000 76.087636
15.500000 76.450939
15.500000 76.815087
15.500000 77.180081
15.500000 77.545921
15.500000 77.912607
15.500000 78.280139
15.500000 78.648516
15.500000 79.017740
15.500000 79.387809
15.500000 79.758724
15.500000 80.130485
15.500000 80.503092
15.500000 80.876545
15.500000 81.250844
15.500000 81.625988
15.500000 82.001979
15.500000 82.378815
15.500000 82.756497
15.500000 83.135025
15.500000 83.514399
15.500000 83.894619
15.500000 84.275685
15.500000 84.657596
15.500000 85.040354
15.500000 85.423957
15.500000 85.808406
15.500000 86.193701
15.500000 86.579842
15.500000 86.966829
15.500000 87.354662
15.500000 87.743340
15.500000 88.132865
15.500000 88.523235
15.500000 88.914451
15.500000 89.306513
15.500000 89.699421
15.500000 90.093175
15.500000 90.487775
15.500000 90.883220
15.500000 91.279511
15.500000 91.676649
15.500000 92.074632
15.500000 92.473461
15.500000 92.873136
15.500000 93.273657
15.500000 93.675023
15.500000 94.077236
15.500000 94.480294
15.500000 94.884198
15.500000 95.288948
15.500000 95.694544
15.500000 96.100986
15.500000 96.508274
15.500000 96.916408
15.500000 97.325387
15.500000 97.735213
15.500000 98.145884
15.500000 98.557401
15.500000 98.969764
15.500000 99.382973
15.500000 99.797027
15.500000 100.211928
15.500000 100.627675
15.500000 101.044267
15.500000 101.461705
15.500000 101.879989
15.500000 102.299119
15.500000 102.719095
15.500000 103.139917
15.500000 103.561584
15.500000 103.984098
15.500000 104.407457
15.500000 104.831662
15.500000 105.256713
15.500000 105.682610
15.500000 106.109353
15.500000 106.536942
15.500000 106.965376
15.500000 107.394657
15.500000 107.824783
15.500000 108.255755
15.500000 108.687573
15.500000 109.120237
15.500000 109.553747
15.500000 109.988103
15.500000 110.423304
15.500000 110.859352
15.500000 111.296245
15.500000 111.733984
15.500000 112.172569
15.500000 112.612000
15.500000 113.052277
15.500000 113.493400
15.500000 113.935368
15.500000 114.378182
15.500000 114.821843
15.500000 115.266349
15.500000 115.711701
15.500000 116.157899
15.500000 116.604943
15.500000 117.052832
15.500000 117.501568
15.500000 117.951149
15.500000 118.401576
15.500000 118.852849
15.500000 119.304968
15.500000 119.757933
15.500000 120.211744
15.500000 120.666401
15.500000 121.121903
15.500000 121.578252
15.500000 122.035446
15.500000 122.493486
15.500000 122.952372
15.500000 123.412104
15.500000 123.872682
15.500000 124.334105
15.500000 124.796375
15.500000 125.259490
15.500000 125.723451
15.500000 126.188258
15.500000 126.653911
15.500000 127.120410
15.500000 127.587755
15.500000 128.055945
15.500000 128.524982
15.500000 128.994864
15.500000 129.465592
15.500000 129.937166
15.500000 130.409586
15.500000 130.882852
15.500000 131.356964
15.500000 131.831921
15.500000 132.307725
15.500000 132.784374
15.500000 133.261869
15.500000 133.740210
15.500000 134.219397
15.500000 134.699430
15.500000 135.180309
15.500000 135.662033
15.500000 136.144604
15.500000 136.628020
15.500000 137.112282
15.500000 137.597390
15.500000 138.083344
15.500000 138.570144
15.500000 139.057790
15.500000 139.546281
15.500000 140.035619
15.500000 140.525802
15.500000 141.016831
15.500000 141.508706
15.500000 142.001427
15.500000 142.494994
15.500000 142.989406
15.500000 143.484665
15.500000 143.980769
15.500000 144.477720
15.500000 144.975516
15.500000 145.474158
15.500000 145.973646
15.500000 146.473979
15.500000 146.975159
15.500000 147.477184
15.500000 147.980056
15.500000 148.483773
15.500000 148.988336
15.500000 149.493745
15.500000 150.000000
</POINTS>
</NEKTAR>

