<?xml version="1.0" encoding="utf-8" ?>
<NEKTAR>
<POINTS DIM="2" FIELDS="">
196.500000 0.000000
196.500000 0.000418
196.500000 0.001672
196.500000 0.003763
196.500000 0.006689
196.500000 0.010451
196.500000 0.015050
196.500000 0.020485
196.500000 0.026756
196.500000 0.033863
196.500000 0.041806
196.500000 0.050585
196.500000 0.060201
196.500000 0.070652
196.500000 0.081940
196.500000 0.094063
196.500000 0.107023
196.500000 0.120819
196.500000 0.135451
196.500000 0.150919
196.500000 0.167224
196.500000 0.184364
196.500000 0.202341
196.500000 0.221153
196.500000 0.240802
196.500000 0.261287
196.500000 0.282608
196.500000 0.304765
196.500000 0.327758
196.500000 0.351588
196.500000 0.376253
196.500000 0.401755
196.500000 0.428092
196.500000 0.455266
196.500000 0.483276
196.500000 0.512122
196.500000 0.541805
196.500000 0.572323
196.500000 0.603677
196.500000 0.635868
196.500000 0.668894
196.500000 0.702757
196.500000 0.737456
196.500000 0.772991
196.500000 0.809362
196.500000 0.846570
196.500000 0.884613
196.500000 0.923492
196.500000 0.963208
196.500000 1.003760
196.500000 1.045148
196.500000 1.087372
196.500000 1.130432
196.500000 1.174328
196.500000 1.219060
196.500000 1.264629
196.500000 1.311033
196.500000 1.358274
196.500000 1.406351
196.500000 1.455264
196.500000 1.505013
196.500000 1.555598
196.500000 1.607019
196.500000 1.659276
196.500000 1.712370
196.500000 1.766299
196.500000 1.821065
196.500000 1.876667
196.500000 1.933105
196.500000 1.990379
196.500000 2.048489
196.500000 2.107436
196.500000 2.167218
196.500000 2.227837
196.500000 2.289291
196.500000 2.351582
196.500000 2.414709
196.500000 2.478672
196.500000 2.543471
196.500000 2.609106
196.500000 2.675578
196.500000 2.742885
196.500000 2.811029
196.500000 2.880009
196.500000 2.949825
196.500000 3.020477
196.500000 3.091965
196.500000 3.164289
196.500000 3.237449
196.500000 3.311446
196.500000 3.386278
196.500000 3.461947
196.500000 3.538452
196.500000 3.615793
196.500000 3.693970
196.500000 3.772983
196.500000 3.852832
196.500000 3.933517
196.500000 4.015039
196.500000 4.097397
196.500000 4.180590
196.500000 4.264620
196.500000 4.349486
196.500000 4.435188
196.500000 4.521727
196.500000 4.609101
196.500000 4.697311
196.500000 4.786358
196.500000 4.876241
196.500000 4.966959
196.500000 5.058514
196.500000 5.150905
196.500000 5.244133
196.500000 5.338196
196.500000 5.433095
196.500000 5.528831
196.500000 5.625402
196.500000 5.722810
196.500000 5.821054
196.500000 5.920134
196.500000 6.020050
196.500000 6.120802
196.500000 6.222391
196.500000 6.324815
196.500000 6.428076
196.500000 6.532172
196.500000 6.637105
196.500000 6.742874
196.500000 6.849479
196.500000 6.956920
196.500000 7.065198
196.500000 7.174311
196.500000 7.284261
196.500000 7.395046
196.500000 7.506668
196.500000 7.619126
196.500000 7.732420
196.500000 7.846550
196.500000 7.961516
196.500000 8.077319
196.500000 8.193957
196.500000 8.311432
196.500000 8.429742
196.500000 8.548889
196.500000 8.668872
196.500000 8.789691
196.500000 8.911346
196.500000 9.033838
196.500000 9.157165
196.500000 9.281329
196.500000 9.406328
196.500000 9.532164
196.500000 9.658836
196.500000 9.786344
196.500000 9.914688
196.500000 10.043868
196.500000 10.173885
196.500000 10.304737
196.500000 10.436426
196.500000 10.568950
196.500000 10.702311
196.500000 10.836508
196.500000 10.971541
196.500000 11.107411
196.500000 11.244116
196.500000 11.381657
196.500000 11.520035
196.500000 11.659248
196.500000 11.799298
196.500000 11.940184
196.500000 12.081906
196.500000 12.224464
196.500000 12.367859
196.500000 12.512089
196.500000 12.657155
196.500000 12.803058
196.500000 12.949797
196.500000 13.097372
196.500000 13.245782
196.500000 13.395030
196.500000 13.545113
196.500000 13.696032
196.500000 13.847787
196.500000 14.000379
196.500000 14.153807
196.500000 14.308070
196.500000 14.463170
196.500000 14.619106
196.500000 14.775879
196.500000 14.933487
196.500000 15.091931
196.500000 15.251212
196.500000 15.411328
196.500000 15.572281
196.500000 15.734070
196.500000 15.896695
196.500000 16.060156
196.500000 16.224453
196.500000 16.389586
196.500000 16.555556
196.500000 16.722361
196.500000 16.890003
196.500000 17.058481
196.500000 17.227795
196.500000 17.397945
196.500000 17.568931
196.500000 17.740753
196.500000 17.913412
196.500000 18.086906
196.500000 18.261237
196.500000 18.436403
196.500000 18.612406
196.500000 18.789245
196.500000 18.966920
196.500000 19.145432
196.500000 19.324779
196.500000 19.504962
196.500000 19.685982
196.500000 19.867838
196.500000 20.050529
196.500000 20.234057
196.500000 20.418421
196.500000 20.603622
196.500000 20.789658
196.500000 20.976530
196.500000 21.164239
196.500000 21.352783
196.500000 21.542164
196.500000 21.732381
196.500000 21.923434
196.500000 22.115323
196.500000 22.308048
196.500000 22.501610
196.500000 22.696007
196.500000 22.891241
196.500000 23.087310
196.500000 23.284216
196.500000 23.481958
196.500000 23.680536
196.500000 23.879950
196.500000 24.080200
196.500000 24.281287
196.500000 24.483209
196.500000 24.685968
196.500000 24.889563
196.500000 25.093994
196.500000 25.299261
196.500000 25.505364
196.500000 25.712303
196.500000 25.920078
196.500000 26.128690
196.500000 26.338137
196.500000 26.548421
196.500000 26.759541
196.500000 26.971497
196.500000 27.184289
196.500000 27.397917
196.500000 27.612381
196.500000 27.827682
196.500000 28.043818
196.500000 28.260791
196.500000 28.478600
196.500000 28.697244
196.500000 28.916725
196.500000 29.137043
196.500000 29.358196
196.500000 29.580185
196.500000 29.803011
196.500000 30.026672
196.500000 30.251170
196.500000 30.476504
196.500000 30.702674
196.500000 30.929680
196.500000 31.157522
196.500000 31.386200
196.500000 31.615715
196.500000 31.846065
196.500000 32.077252
196.500000 32.309275
196.500000 32.542133
196.500000 32.775828
196.500000 33.010360
196.500000 33.245727
196.500000 33.481930
196.500000 33.718970
196.500000 33.956845
196.500000 34.195557
196.500000 34.435105
196.500000 34.675489
196.500000 34.916709
196.500000 35.158765
196.500000 35.401657
196.500000 35.645386
196.500000 35.889950
196.500000 36.135351
196.500000 36.381588
196.500000 36.628660
196.500000 36.876569
196.500000 37.125315
196.500000 37.374896
196.500000 37.625313
196.500000 37.876567
196.500000 38.128656
196.500000 38.381582
196.500000 38.635344
196.500000 38.889942
196.500000 39.145376
196.500000 39.401646
196.500000 39.658752
196.500000 39.916695
196.500000 40.175473
196.500000 40.435088
196.500000 40.695539
196.500000 40.956826
196.500000 41.218949
196.500000 41.481908
196.500000 41.745703
196.500000 42.010334
196.500000 42.275802
196.500000 42.542106
196.500000 42.809245
196.500000 43.077221
196.500000 43.346033
196.500000 43.615681
196.500000 43.886165
196.500000 44.157486
196.500000 44.429642
196.500000 44.702635
196.500000 44.976463
196.500000 45.251128
196.500000 45.526629
196.500000 45.802966
196.500000 46.080139
196.500000 46.358148
196.500000 46.636994
196.500000 46.916675
196.500000 47.197193
196.500000 47.478547
196.500000 47.760736
196.500000 48.043762
196.500000 48.327625
196.500000 48.612323
196.500000 48.897857
196.500000 49.184227
196.500000 49.471434
196.500000 49.759477
196.500000 50.048355
196.500000 50.338070
196.500000 50.628621
196.500000 50.920009
196.500000 51.212232
196.500000 51.505291
196.500000 51.799187
196.500000 52.093918
196.500000 52.389486
196.500000 52.685890
196.500000 52.983130
196.500000 53.281206
196.500000 53.580118
196.500000 53.879867
196.500000 54.180451
196.500000 54.481872
196.500000 54.784128
196.500000 55.087221
196.500000 55.391150
196.500000 55.695915
196.500000 56.001516
196.500000 56.307953
196.500000 56.615227
196.500000 56.923336
196.500000 57.232282
196.500000 57.542064
196.500000 57.852682
196.500000 58.164136
196.500000 58.476426
196.500000 58.789552
196.500000 59.103514
196.500000 59.418313
196.500000 59.733947
196.500000 60.050418
196.500000 60.367725
196.500000 60.685868
196.500000 61.004847
196.500000 61.324662
196.500000 61.645313
196.500000 61.966801
196.500000 62.289124
196.500000 62.612284
196.500000 62.936279
196.500000 63.261111
196.500000 63.586779
196.500000 63.913283
196.500000 64.240624
196.500000 64.568800
196.500000 64.897812
196.500000 65.227661
196.500000 65.558346
196.500000 65.889867
196.500000 66.222223
196.500000 66.555417
196.500000 66.889446
196.500000 67.224311
196.500000 67.560012
196.500000 67.896550
196.500000 68.233924
196.500000 68.572133
196.500000 68.911179
196.500000 69.251061
196.500000 69.591779
196.500000 69.933334
196.500000 70.275724
196.500000 70.618950
196.500000 70.963013
196.500000 71.307912
196.500000 71.653646
196.500000 72.000217
196.500000 72.347624
196.500000 72.695868
196.500000 73.044947
196.500000 73.394862
196.500000 73.745614
196.500000 74.097202
196.500000 74.449625
196.500000 74.802885
196.500000 75.156981
196.500000 75.511913
196.500000 75.867682
196.500000 76.224286
196.500000 76.581726
196.500000 76.940003
196.500000 77.299116
196.500000 77.659064
196.500000 78.019849
196.500000 78.381471
196.500000 78.743928
196.500000 79.107221
196.500000 79.471350
196.500000 79.836316
196.500000 80.202118
196.500000 80.568755
196.500000 80.936229
196.500000 81.304539
196.500000 81.673685
196.500000 82.043668
196.500000 82.414486
196.500000 82.786141
196.500000 83.158631
196.500000 83.531958
196.500000 83.906121
196.500000 84.281120
196.500000 84.656955
196.500000 85.033626
196.500000 85.411133
196.500000 85.789477
196.500000 86.168656
196.500000 86.548672
196.500000 86.929524
196.500000 87.311212
196.500000 87.693736
196.500000 88.077096
196.500000 88.461292
196.500000 88.846324
196.500000 89.232193
196.500000 89.618897
196.500000 90.006438
196.500000 90.394815
196.500000 90.784028
196.500000 91.174077
196.500000 91.564962
196.500000 91.956684
196.500000 92.349241
196.500000 92.742634
196.500000 93.136864
196.500000 93.531930
196.500000 93.927832
196.500000 94.324570
196.500000 94.722144
196.500000 95.120554
196.500000 95.519801
196.500000 95.919883
196.500000 96.320802
196.500000 96.722557
196.500000 97.125147
196.500000 97.528574
196.500000 97.932837
196.500000 98.337937
196.500000 98.743872
196.500000 99.150643
196.500000 99.558251
196.500000 99.966695
196.500000 100.375974
196.500000 100.786090
196.500000 101.197042
196.500000 101.608831
196.500000 102.021455
196.500000 102.434915
196.500000 102.849212
196.500000 103.264344
196.500000 103.680313
196.500000 104.097118
196.500000 104.514759
196.500000 104.933236
196.500000 105.352549
196.500000 105.772699
196.500000 106.193684
196.500000 106.615506
196.500000 107.038163
196.500000 107.461657
196.500000 107.885987
196.500000 108.311153
196.500000 108.737155
196.500000 109.163993
196.500000 109.591668
196.500000 110.020178
196.500000 110.449525
196.500000 110.879708
196.500000 111.310727
196.500000 111.742582
196.500000 112.175273
196.500000 112.608800
196.500000 113.043163
196.500000 113.478363
196.500000 113.914398
196.500000 114.351270
196.500000 114.788978
196.500000 115.227522
196.500000 115.666902
196.500000 116.107118
196.500000 116.548170
196.500000 116.990059
196.500000 117.432783
196.500000 117.876344
196.500000 118.320740
196.500000 118.765973
196.500000 119.212042
196.500000 119.658947
196.500000 120.106689
196.500000 120.555266
196.500000 121.004679
196.500000 121.454929
196.500000 121.906015
196.500000 122.357937
196.500000 122.810695
196.500000 123.264289
196.500000 123.718719
196.500000 124.173985
196.500000 124.630087
196.500000 125.087026
196.500000 125.544801
196.500000 126.003411
196.500000 126.462858
196.500000 126.923141
196.500000 127.384260
196.500000 127.846216
196.500000 128.309007
196.500000 128.772634
196.500000 129.237098
196.500000 129.702398
196.500000 130.168534
196.500000 130.635505
196.500000 131.103314
196.500000 131.571958
196.500000 132.041438
196.500000 132.511754
196.500000 132.982907
196.500000 133.454896
196.500000 133.927720
196.500000 134.401381
196.500000 134.875878
196.500000 135.351211
196.500000 135.827381
196.500000 136.304386
196.500000 136.782227
196.500000 137.260905
196.500000 137.740419
196.500000 138.220769
196.500000 138.701955
196.500000 139.183977
196.500000 139.666835
196.500000 140.150529
196.500000 140.635060
196.500000 141.120426
196.500000 141.606629
196.500000 142.093668
196.500000 142.581542
196.500000 143.070253
196.500000 143.559801
196.500000 144.050184
196.500000 144.541403
196.500000 145.033459
196.500000 145.526350
196.500000 146.020078
196.500000 146.514642
196.500000 147.010042
196.500000 147.506278
196.500000 148.003350
196.500000 148.501258
196.500000 149.000003
196.500000 149.499583
196.500000 150.000000
</POINTS>
</NEKTAR>

