<?xml version="1.0" encoding="utf-8" ?>
<NEKTAR>
<POINTS DIM="2" FIELDS="">
10.500000 -1.750000
10.500000 -1.749577
10.500000 -1.748308
10.500000 -1.746194
10.500000 -1.743233
10.500000 -1.739427
10.500000 -1.734774
10.500000 -1.729276
10.500000 -1.722932
10.500000 -1.715742
10.500000 -1.707706
10.500000 -1.698825
10.500000 -1.689097
10.500000 -1.678524
10.500000 -1.667104
10.500000 -1.654839
10.500000 -1.641728
10.500000 -1.627771
10.500000 -1.612969
10.500000 -1.597320
10.500000 -1.580825
10.500000 -1.563485
10.500000 -1.545299
10.500000 -1.526267
10.500000 -1.506389
10.500000 -1.485665
10.500000 -1.464095
10.500000 -1.441679
10.500000 -1.418418
10.500000 -1.394310
10.500000 -1.369357
10.500000 -1.343558
10.500000 -1.316913
10.500000 -1.289422
10.500000 -1.261086
10.500000 -1.231903
10.500000 -1.201874
10.500000 -1.171000
10.500000 -1.139280
10.500000 -1.106714
10.500000 -1.073302
10.500000 -1.039044
10.500000 -1.003940
10.500000 -0.967991
10.500000 -0.931195
10.500000 -0.893554
10.500000 -0.855067
10.500000 -0.815734
10.500000 -0.775555
10.500000 -0.734530
10.500000 -0.692659
10.500000 -0.649942
10.500000 -0.606380
10.500000 -0.561972
10.500000 -0.516717
10.500000 -0.470617
10.500000 -0.423671
10.500000 -0.375880
10.500000 -0.327242
10.500000 -0.277758
10.500000 -0.227429
10.500000 -0.176254
10.500000 -0.124233
10.500000 -0.071365
10.500000 -0.017653
10.500000 0.036906
10.500000 0.092311
10.500000 0.148561
10.500000 0.205658
10.500000 0.263600
10.500000 0.322388
10.500000 0.382022
10.500000 0.442502
10.500000 0.503828
10.500000 0.566000
10.500000 0.629017
10.500000 0.692881
10.500000 0.757590
10.500000 0.823145
10.500000 0.889546
10.500000 0.956793
10.500000 1.024886
10.500000 1.093824
10.500000 1.163609
10.500000 1.234239
10.500000 1.305715
10.500000 1.378038
10.500000 1.451206
10.500000 1.525219
10.500000 1.600079
10.500000 1.675785
10.500000 1.752336
10.500000 1.829734
10.500000 1.907977
10.500000 1.987066
10.500000 2.067001
10.500000 2.147782
10.500000 2.229409
10.500000 2.311881
10.500000 2.395200
10.500000 2.479364
10.500000 2.564374
10.500000 2.650230
10.500000 2.736932
10.500000 2.824480
10.500000 2.912874
10.500000 3.002113
10.500000 3.092199
10.500000 3.183130
10.500000 3.274907
10.500000 3.367530
10.500000 3.460999
10.500000 3.555314
10.500000 3.650475
10.500000 3.746481
10.500000 3.843334
10.500000 3.941032
10.500000 4.039576
10.500000 4.138966
10.500000 4.239202
10.500000 4.340284
10.500000 4.442212
10.500000 4.544985
10.500000 4.648605
10.500000 4.753070
10.500000 4.858381
10.500000 4.964538
10.500000 5.071541
10.500000 5.179390
10.500000 5.288084
10.500000 5.397625
10.500000 5.508011
10.500000 5.619244
10.500000 5.731322
10.500000 5.844246
10.500000 5.958016
10.500000 6.072631
10.500000 6.188093
10.500000 6.304401
10.500000 6.421554
10.500000 6.539553
10.500000 6.658398
10.500000 6.778089
10.500000 6.898626
10.500000 7.020009
10.500000 7.142238
10.500000 7.265312
10.500000 7.389232
10.500000 7.513999
10.500000 7.639611
10.500000 7.766069
10.500000 7.893373
10.500000 8.021522
10.500000 8.150518
10.500000 8.280359
10.500000 8.411047
10.500000 8.542580
10.500000 8.674959
10.500000 8.808184
10.500000 8.942255
10.500000 9.077172
10.500000 9.212934
10.500000 9.349543
10.500000 9.486997
10.500000 9.625297
10.500000 9.764443
10.500000 9.904435
10.500000 10.045273
10.500000 10.186957
10.500000 10.329486
10.500000 10.472862
10.500000 10.617083
10.500000 10.762150
10.500000 10.908063
10.500000 11.054822
10.500000 11.202427
10.500000 11.350878
10.500000 11.500174
10.500000 11.650317
10.500000 11.801305
10.500000 11.953139
10.500000 12.105819
10.500000 12.259345
10.500000 12.413717
10.500000 12.568934
10.500000 12.724998
10.500000 12.881907
10.500000 13.039663
10.500000 13.198264
10.500000 13.357711
10.500000 13.518004
10.500000 13.679142
10.500000 13.841127
10.500000 14.003958
10.500000 14.167634
10.500000 14.332156
10.500000 14.497524
10.500000 14.663738
10.500000 14.830798
10.500000 14.998704
10.500000 15.167456
10.500000 15.337053
10.500000 15.507496
10.500000 15.678786
10.500000 15.850921
10.500000 16.023902
10.500000 16.197729
10.500000 16.372401
10.500000 16.547920
10.500000 16.724284
10.500000 16.901495
10.500000 17.079551
10.500000 17.258453
10.500000 17.438201
10.500000 17.618795
10.500000 17.800235
10.500000 17.982520
10.500000 18.165652
10.500000 18.349629
10.500000 18.534452
10.500000 18.720121
10.500000 18.906636
10.500000 19.093997
10.500000 19.282204
10.500000 19.471256
10.500000 19.661155
10.500000 19.851899
10.500000 20.043489
10.500000 20.235925
10.500000 20.429207
10.500000 20.623335
10.500000 20.818309
10.500000 21.014128
10.500000 21.210794
10.500000 21.408305
10.500000 21.606662
10.500000 21.805865
10.500000 22.005914
10.500000 22.206809
10.500000 22.408550
10.500000 22.611136
10.500000 22.814569
10.500000 23.018847
10.500000 23.223971
10.500000 23.429941
10.500000 23.636757
10.500000 23.844419
10.500000 24.052926
10.500000 24.262280
10.500000 24.472479
10.500000 24.683524
10.500000 24.895416
10.500000 25.108153
10.500000 25.321735
10.500000 25.536164
10.500000 25.751439
10.500000 25.967559
10.500000 26.184526
10.500000 26.402338
10.500000 26.620996
10.500000 26.840500
10.500000 27.060850
10.500000 27.282046
10.500000 27.504087
10.500000 27.726975
10.500000 27.950708
10.500000 28.175287
10.500000 28.400712
10.500000 28.626983
10.500000 28.854100
10.500000 29.082063
10.500000 29.310871
10.500000 29.540526
10.500000 29.771026
10.500000 30.002372
10.500000 30.234565
10.500000 30.467603
10.500000 30.701486
10.500000 30.936216
10.500000 31.171792
10.500000 31.408213
10.500000 31.645480
10.500000 31.883594
10.500000 32.122553
10.500000 32.362358
10.500000 32.603008
10.500000 32.844505
10.500000 33.086848
10.500000 33.330036
10.500000 33.574070
10.500000 33.818950
10.500000 34.064677
10.500000 34.311248
10.500000 34.558666
10.500000 34.806930
10.500000 35.056039
10.500000 35.305995
10.500000 35.556796
10.500000 35.808443
10.500000 36.060936
10.500000 36.314275
10.500000 36.568460
10.500000 36.823491
10.500000 37.079367
10.500000 37.336090
10.500000 37.593658
10.500000 37.852072
10.500000 38.111332
10.500000 38.371438
10.500000 38.632390
10.500000 38.894187
10.500000 39.156831
10.500000 39.420320
10.500000 39.684655
10.500000 39.949836
10.500000 40.215863
10.500000 40.482736
10.500000 40.750455
10.500000 41.019020
10.500000 41.288430
10.500000 41.558686
10.500000 41.829789
10.500000 42.101737
10.500000 42.374531
10.500000 42.648171
10.500000 42.922656
10.500000 43.197988
10.500000 43.474165
10.500000 43.751189
10.500000 44.029058
10.500000 44.307773
10.500000 44.587334
10.500000 44.867741
10.500000 45.148993
10.500000 45.431092
10.500000 45.714036
10.500000 45.997827
10.500000 46.282463
10.500000 46.567945
10.500000 46.854273
10.500000 47.141447
10.500000 47.429466
10.500000 47.718332
10.500000 48.008043
10.500000 48.298601
10.500000 48.590004
10.500000 48.882253
10.500000 49.175348
10.500000 49.469289
10.500000 49.764075
10.500000 50.059708
10.500000 50.356186
10.500000 50.653511
10.500000 50.951681
10.500000 51.250697
10.500000 51.550559
10.500000 51.851266
10.500000 52.152820
10.500000 52.455220
10.500000 52.758465
10.500000 53.062556
10.500000 53.367493
10.500000 53.673276
10.500000 53.979905
10.500000 54.287380
10.500000 54.595701
10.500000 54.904867
10.500000 55.214880
10.500000 55.525738
10.500000 55.837442
10.500000 56.149992
10.500000 56.463388
10.500000 56.777630
10.500000 57.092717
10.500000 57.408651
10.500000 57.725430
10.500000 58.043055
10.500000 58.361526
10.500000 58.680843
10.500000 59.001006
10.500000 59.322015
10.500000 59.643869
10.500000 59.966570
10.500000 60.290116
10.500000 60.614508
10.500000 60.939747
10.500000 61.265831
10.500000 61.592760
10.500000 61.920536
10.500000 62.249158
10.500000 62.578625
10.500000 62.908938
10.500000 63.240098
10.500000 63.572103
10.500000 63.904954
10.500000 64.238650
10.500000 64.573193
10.500000 64.908582
10.500000 65.244816
10.500000 65.581896
10.500000 65.919823
10.500000 66.258595
10.500000 66.598213
10.500000 66.938676
10.500000 67.279986
10.500000 67.622142
10.500000 67.965143
10.500000 68.308990
10.500000 68.653683
10.500000 68.999222
10.500000 69.345607
10.500000 69.692838
10.500000 70.040915
10.500000 70.389837
10.500000 70.739606
10.500000 71.090220
10.500000 71.441680
10.500000 71.793986
10.500000 72.147138
10.500000 72.501136
10.500000 72.855979
10.500000 73.211669
10.500000 73.568204
10.500000 73.925585
10.500000 74.283813
10.500000 74.642886
10.500000 75.002804
10.500000 75.363569
10.500000 75.725180
10.500000 76.087636
10.500000 76.450939
10.500000 76.815087
10.500000 77.180081
10.500000 77.545921
10.500000 77.912607
10.500000 78.280139
10.500000 78.648516
10.500000 79.017740
10.500000 79.387809
10.500000 79.758724
10.500000 80.130485
10.500000 80.503092
10.500000 80.876545
10.500000 81.250844
10.500000 81.625988
10.500000 82.001979
10.500000 82.378815
10.500000 82.756497
10.500000 83.135025
10.500000 83.514399
10.500000 83.894619
10.500000 84.275685
10.500000 84.657596
10.500000 85.040354
10.500000 85.423957
10.500000 85.808406
10.500000 86.193701
10.500000 86.579842
10.500000 86.966829
10.500000 87.354662
10.500000 87.743340
10.500000 88.132865
10.500000 88.523235
10.500000 88.914451
10.500000 89.306513
10.500000 89.699421
10.500000 90.093175
10.500000 90.487775
10.500000 90.883220
10.500000 91.279511
10.500000 91.676649
10.500000 92.074632
10.500000 92.473461
10.500000 92.873136
10.500000 93.273657
10.500000 93.675023
10.500000 94.077236
10.500000 94.480294
10.500000 94.884198
10.500000 95.288948
10.500000 95.694544
10.500000 96.100986
10.500000 96.508274
10.500000 96.916408
10.500000 97.325387
10.500000 97.735213
10.500000 98.145884
10.500000 98.557401
10.500000 98.969764
10.500000 99.382973
10.500000 99.797027
10.500000 100.211928
10.500000 100.627675
10.500000 101.044267
10.500000 101.461705
10.500000 101.879989
10.500000 102.299119
10.500000 102.719095
10.500000 103.139917
10.500000 103.561584
10.500000 103.984098
10.500000 104.407457
10.500000 104.831662
10.500000 105.256713
10.500000 105.682610
10.500000 106.109353
10.500000 106.536942
10.500000 106.965376
10.500000 107.394657
10.500000 107.824783
10.500000 108.255755
10.500000 108.687573
10.500000 109.120237
10.500000 109.553747
10.500000 109.988103
10.500000 110.423304
10.500000 110.859352
10.500000 111.296245
10.500000 111.733984
10.500000 112.172569
10.500000 112.612000
10.500000 113.052277
10.500000 113.493400
10.500000 113.935368
10.500000 114.378182
10.500000 114.821843
10.500000 115.266349
10.500000 115.711701
10.500000 116.157899
10.500000 116.604943
10.500000 117.052832
10.500000 117.501568
10.500000 117.951149
10.500000 118.401576
10.500000 118.852849
10.500000 119.304968
10.500000 119.757933
10.500000 120.211744
10.500000 120.666401
10.500000 121.121903
10.500000 121.578252
10.500000 122.035446
10.500000 122.493486
10.500000 122.952372
10.500000 123.412104
10.500000 123.872682
10.500000 124.334105
10.500000 124.796375
10.500000 125.259490
10.500000 125.723451
10.500000 126.188258
10.500000 126.653911
10.500000 127.120410
10.500000 127.587755
10.500000 128.055945
10.500000 128.524982
10.500000 128.994864
10.500000 129.465592
10.500000 129.937166
10.500000 130.409586
10.500000 130.882852
10.500000 131.356964
10.500000 131.831921
10.500000 132.307725
10.500000 132.784374
10.500000 133.261869
10.500000 133.740210
10.500000 134.219397
10.500000 134.699430
10.500000 135.180309
10.500000 135.662033
10.500000 136.144604
10.500000 136.628020
10.500000 137.112282
10.500000 137.597390
10.500000 138.083344
10.500000 138.570144
10.500000 139.057790
10.500000 139.546281
10.500000 140.035619
10.500000 140.525802
10.500000 141.016831
10.500000 141.508706
10.500000 142.001427
10.500000 142.494994
10.500000 142.989406
10.500000 143.484665
10.500000 143.980769
10.500000 144.477720
10.500000 144.975516
10.500000 145.474158
10.500000 145.973646
10.500000 146.473979
10.500000 146.975159
10.500000 147.477184
10.500000 147.980056
10.500000 148.483773
10.500000 148.988336
10.500000 149.493745
10.500000 150.000000
</POINTS>
</NEKTAR>

