<?xml version="1.0" encoding="utf-8" ?>
<NEKTAR>
<POINTS DIM="2" FIELDS="">
976.500000 0.000000
976.500000 0.000418
976.500000 0.001672
976.500000 0.003763
976.500000 0.006689
976.500000 0.010451
976.500000 0.015050
976.500000 0.020485
976.500000 0.026756
976.500000 0.033863
976.500000 0.041806
976.500000 0.050585
976.500000 0.060201
976.500000 0.070652
976.500000 0.081940
976.500000 0.094063
976.500000 0.107023
976.500000 0.120819
976.500000 0.135451
976.500000 0.150919
976.500000 0.167224
976.500000 0.184364
976.500000 0.202341
976.500000 0.221153
976.500000 0.240802
976.500000 0.261287
976.500000 0.282608
976.500000 0.304765
976.500000 0.327758
976.500000 0.351588
976.500000 0.376253
976.500000 0.401755
976.500000 0.428092
976.500000 0.455266
976.500000 0.483276
976.500000 0.512122
976.500000 0.541805
976.500000 0.572323
976.500000 0.603677
976.500000 0.635868
976.500000 0.668894
976.500000 0.702757
976.500000 0.737456
976.500000 0.772991
976.500000 0.809362
976.500000 0.846570
976.500000 0.884613
976.500000 0.923492
976.500000 0.963208
976.500000 1.003760
976.500000 1.045148
976.500000 1.087372
976.500000 1.130432
976.500000 1.174328
976.500000 1.219060
976.500000 1.264629
976.500000 1.311033
976.500000 1.358274
976.500000 1.406351
976.500000 1.455264
976.500000 1.505013
976.500000 1.555598
976.500000 1.607019
976.500000 1.659276
976.500000 1.712370
976.500000 1.766299
976.500000 1.821065
976.500000 1.876667
976.500000 1.933105
976.500000 1.990379
976.500000 2.048489
976.500000 2.107436
976.500000 2.167218
976.500000 2.227837
976.500000 2.289291
976.500000 2.351582
976.500000 2.414709
976.500000 2.478672
976.500000 2.543471
976.500000 2.609106
976.500000 2.675578
976.500000 2.742885
976.500000 2.811029
976.500000 2.880009
976.500000 2.949825
976.500000 3.020477
976.500000 3.091965
976.500000 3.164289
976.500000 3.237449
976.500000 3.311446
976.500000 3.386278
976.500000 3.461947
976.500000 3.538452
976.500000 3.615793
976.500000 3.693970
976.500000 3.772983
976.500000 3.852832
976.500000 3.933517
976.500000 4.015039
976.500000 4.097397
976.500000 4.180590
976.500000 4.264620
976.500000 4.349486
976.500000 4.435188
976.500000 4.521727
976.500000 4.609101
976.500000 4.697311
976.500000 4.786358
976.500000 4.876241
976.500000 4.966959
976.500000 5.058514
976.500000 5.150905
976.500000 5.244133
976.500000 5.338196
976.500000 5.433095
976.500000 5.528831
976.500000 5.625402
976.500000 5.722810
976.500000 5.821054
976.500000 5.920134
976.500000 6.020050
976.500000 6.120802
976.500000 6.222391
976.500000 6.324815
976.500000 6.428076
976.500000 6.532172
976.500000 6.637105
976.500000 6.742874
976.500000 6.849479
976.500000 6.956920
976.500000 7.065198
976.500000 7.174311
976.500000 7.284261
976.500000 7.395046
976.500000 7.506668
976.500000 7.619126
976.500000 7.732420
976.500000 7.846550
976.500000 7.961516
976.500000 8.077319
976.500000 8.193957
976.500000 8.311432
976.500000 8.429742
976.500000 8.548889
976.500000 8.668872
976.500000 8.789691
976.500000 8.911346
976.500000 9.033838
976.500000 9.157165
976.500000 9.281329
976.500000 9.406328
976.500000 9.532164
976.500000 9.658836
976.500000 9.786344
976.500000 9.914688
976.500000 10.043868
976.500000 10.173885
976.500000 10.304737
976.500000 10.436426
976.500000 10.568950
976.500000 10.702311
976.500000 10.836508
976.500000 10.971541
976.500000 11.107411
976.500000 11.244116
976.500000 11.381657
976.500000 11.520035
976.500000 11.659248
976.500000 11.799298
976.500000 11.940184
976.500000 12.081906
976.500000 12.224464
976.500000 12.367859
976.500000 12.512089
976.500000 12.657155
976.500000 12.803058
976.500000 12.949797
976.500000 13.097372
976.500000 13.245782
976.500000 13.395030
976.500000 13.545113
976.500000 13.696032
976.500000 13.847787
976.500000 14.000379
976.500000 14.153807
976.500000 14.308070
976.500000 14.463170
976.500000 14.619106
976.500000 14.775879
976.500000 14.933487
976.500000 15.091931
976.500000 15.251212
976.500000 15.411328
976.500000 15.572281
976.500000 15.734070
976.500000 15.896695
976.500000 16.060156
976.500000 16.224453
976.500000 16.389586
976.500000 16.555556
976.500000 16.722361
976.500000 16.890003
976.500000 17.058481
976.500000 17.227795
976.500000 17.397945
976.500000 17.568931
976.500000 17.740753
976.500000 17.913412
976.500000 18.086906
976.500000 18.261237
976.500000 18.436403
976.500000 18.612406
976.500000 18.789245
976.500000 18.966920
976.500000 19.145432
976.500000 19.324779
976.500000 19.504962
976.500000 19.685982
976.500000 19.867838
976.500000 20.050529
976.500000 20.234057
976.500000 20.418421
976.500000 20.603622
976.500000 20.789658
976.500000 20.976530
976.500000 21.164239
976.500000 21.352783
976.500000 21.542164
976.500000 21.732381
976.500000 21.923434
976.500000 22.115323
976.500000 22.308048
976.500000 22.501610
976.500000 22.696007
976.500000 22.891241
976.500000 23.087310
976.500000 23.284216
976.500000 23.481958
976.500000 23.680536
976.500000 23.879950
976.500000 24.080200
976.500000 24.281287
976.500000 24.483209
976.500000 24.685968
976.500000 24.889563
976.500000 25.093994
976.500000 25.299261
976.500000 25.505364
976.500000 25.712303
976.500000 25.920078
976.500000 26.128690
976.500000 26.338137
976.500000 26.548421
976.500000 26.759541
976.500000 26.971497
976.500000 27.184289
976.500000 27.397917
976.500000 27.612381
976.500000 27.827682
976.500000 28.043818
976.500000 28.260791
976.500000 28.478600
976.500000 28.697244
976.500000 28.916725
976.500000 29.137043
976.500000 29.358196
976.500000 29.580185
976.500000 29.803011
976.500000 30.026672
976.500000 30.251170
976.500000 30.476504
976.500000 30.702674
976.500000 30.929680
976.500000 31.157522
976.500000 31.386200
976.500000 31.615715
976.500000 31.846065
976.500000 32.077252
976.500000 32.309275
976.500000 32.542133
976.500000 32.775828
976.500000 33.010360
976.500000 33.245727
976.500000 33.481930
976.500000 33.718970
976.500000 33.956845
976.500000 34.195557
976.500000 34.435105
976.500000 34.675489
976.500000 34.916709
976.500000 35.158765
976.500000 35.401657
976.500000 35.645386
976.500000 35.889950
976.500000 36.135351
976.500000 36.381588
976.500000 36.628660
976.500000 36.876569
976.500000 37.125315
976.500000 37.374896
976.500000 37.625313
976.500000 37.876567
976.500000 38.128656
976.500000 38.381582
976.500000 38.635344
976.500000 38.889942
976.500000 39.145376
976.500000 39.401646
976.500000 39.658752
976.500000 39.916695
976.500000 40.175473
976.500000 40.435088
976.500000 40.695539
976.500000 40.956826
976.500000 41.218949
976.500000 41.481908
976.500000 41.745703
976.500000 42.010334
976.500000 42.275802
976.500000 42.542106
976.500000 42.809245
976.500000 43.077221
976.500000 43.346033
976.500000 43.615681
976.500000 43.886165
976.500000 44.157486
976.500000 44.429642
976.500000 44.702635
976.500000 44.976463
976.500000 45.251128
976.500000 45.526629
976.500000 45.802966
976.500000 46.080139
976.500000 46.358148
976.500000 46.636994
976.500000 46.916675
976.500000 47.197193
976.500000 47.478547
976.500000 47.760736
976.500000 48.043762
976.500000 48.327625
976.500000 48.612323
976.500000 48.897857
976.500000 49.184227
976.500000 49.471434
976.500000 49.759477
976.500000 50.048355
976.500000 50.338070
976.500000 50.628621
976.500000 50.920009
976.500000 51.212232
976.500000 51.505291
976.500000 51.799187
976.500000 52.093918
976.500000 52.389486
976.500000 52.685890
976.500000 52.983130
976.500000 53.281206
976.500000 53.580118
976.500000 53.879867
976.500000 54.180451
976.500000 54.481872
976.500000 54.784128
976.500000 55.087221
976.500000 55.391150
976.500000 55.695915
976.500000 56.001516
976.500000 56.307953
976.500000 56.615227
976.500000 56.923336
976.500000 57.232282
976.500000 57.542064
976.500000 57.852682
976.500000 58.164136
976.500000 58.476426
976.500000 58.789552
976.500000 59.103514
976.500000 59.418313
976.500000 59.733947
976.500000 60.050418
976.500000 60.367725
976.500000 60.685868
976.500000 61.004847
976.500000 61.324662
976.500000 61.645313
976.500000 61.966801
976.500000 62.289124
976.500000 62.612284
976.500000 62.936279
976.500000 63.261111
976.500000 63.586779
976.500000 63.913283
976.500000 64.240624
976.500000 64.568800
976.500000 64.897812
976.500000 65.227661
976.500000 65.558346
976.500000 65.889867
976.500000 66.222223
976.500000 66.555417
976.500000 66.889446
976.500000 67.224311
976.500000 67.560012
976.500000 67.896550
976.500000 68.233924
976.500000 68.572133
976.500000 68.911179
976.500000 69.251061
976.500000 69.591779
976.500000 69.933334
976.500000 70.275724
976.500000 70.618950
976.500000 70.963013
976.500000 71.307912
976.500000 71.653646
976.500000 72.000217
976.500000 72.347624
976.500000 72.695868
976.500000 73.044947
976.500000 73.394862
976.500000 73.745614
976.500000 74.097202
976.500000 74.449625
976.500000 74.802885
976.500000 75.156981
976.500000 75.511913
976.500000 75.867682
976.500000 76.224286
976.500000 76.581726
976.500000 76.940003
976.500000 77.299116
976.500000 77.659064
976.500000 78.019849
976.500000 78.381471
976.500000 78.743928
976.500000 79.107221
976.500000 79.471350
976.500000 79.836316
976.500000 80.202118
976.500000 80.568755
976.500000 80.936229
976.500000 81.304539
976.500000 81.673685
976.500000 82.043668
976.500000 82.414486
976.500000 82.786141
976.500000 83.158631
976.500000 83.531958
976.500000 83.906121
976.500000 84.281120
976.500000 84.656955
976.500000 85.033626
976.500000 85.411133
976.500000 85.789477
976.500000 86.168656
976.500000 86.548672
976.500000 86.929524
976.500000 87.311212
976.500000 87.693736
976.500000 88.077096
976.500000 88.461292
976.500000 88.846324
976.500000 89.232193
976.500000 89.618897
976.500000 90.006438
976.500000 90.394815
976.500000 90.784028
976.500000 91.174077
976.500000 91.564962
976.500000 91.956684
976.500000 92.349241
976.500000 92.742634
976.500000 93.136864
976.500000 93.531930
976.500000 93.927832
976.500000 94.324570
976.500000 94.722144
976.500000 95.120554
976.500000 95.519801
976.500000 95.919883
976.500000 96.320802
976.500000 96.722557
976.500000 97.125147
976.500000 97.528574
976.500000 97.932837
976.500000 98.337937
976.500000 98.743872
976.500000 99.150643
976.500000 99.558251
976.500000 99.966695
976.500000 100.375974
976.500000 100.786090
976.500000 101.197042
976.500000 101.608831
976.500000 102.021455
976.500000 102.434915
976.500000 102.849212
976.500000 103.264344
976.500000 103.680313
976.500000 104.097118
976.500000 104.514759
976.500000 104.933236
976.500000 105.352549
976.500000 105.772699
976.500000 106.193684
976.500000 106.615506
976.500000 107.038163
976.500000 107.461657
976.500000 107.885987
976.500000 108.311153
976.500000 108.737155
976.500000 109.163993
976.500000 109.591668
976.500000 110.020178
976.500000 110.449525
976.500000 110.879708
976.500000 111.310727
976.500000 111.742582
976.500000 112.175273
976.500000 112.608800
976.500000 113.043163
976.500000 113.478363
976.500000 113.914398
976.500000 114.351270
976.500000 114.788978
976.500000 115.227522
976.500000 115.666902
976.500000 116.107118
976.500000 116.548170
976.500000 116.990059
976.500000 117.432783
976.500000 117.876344
976.500000 118.320740
976.500000 118.765973
976.500000 119.212042
976.500000 119.658947
976.500000 120.106689
976.500000 120.555266
976.500000 121.004679
976.500000 121.454929
976.500000 121.906015
976.500000 122.357937
976.500000 122.810695
976.500000 123.264289
976.500000 123.718719
976.500000 124.173985
976.500000 124.630087
976.500000 125.087026
976.500000 125.544801
976.500000 126.003411
976.500000 126.462858
976.500000 126.923141
976.500000 127.384260
976.500000 127.846216
976.500000 128.309007
976.500000 128.772634
976.500000 129.237098
976.500000 129.702398
976.500000 130.168534
976.500000 130.635505
976.500000 131.103314
976.500000 131.571958
976.500000 132.041438
976.500000 132.511754
976.500000 132.982907
976.500000 133.454896
976.500000 133.927720
976.500000 134.401381
976.500000 134.875878
976.500000 135.351211
976.500000 135.827381
976.500000 136.304386
976.500000 136.782227
976.500000 137.260905
976.500000 137.740419
976.500000 138.220769
976.500000 138.701955
976.500000 139.183977
976.500000 139.666835
976.500000 140.150529
976.500000 140.635060
976.500000 141.120426
976.500000 141.606629
976.500000 142.093668
976.500000 142.581542
976.500000 143.070253
976.500000 143.559801
976.500000 144.050184
976.500000 144.541403
976.500000 145.033459
976.500000 145.526350
976.500000 146.020078
976.500000 146.514642
976.500000 147.010042
976.500000 147.506278
976.500000 148.003350
976.500000 148.501258
976.500000 149.000003
976.500000 149.499583
976.500000 150.000000
</POINTS>
</NEKTAR>

