<?xml version="1.0" encoding="utf-8" ?>
<NEKTAR>
<POINTS DIM="2" FIELDS="">
476.500000 0.000000
476.500000 0.000418
476.500000 0.001672
476.500000 0.003763
476.500000 0.006689
476.500000 0.010451
476.500000 0.015050
476.500000 0.020485
476.500000 0.026756
476.500000 0.033863
476.500000 0.041806
476.500000 0.050585
476.500000 0.060201
476.500000 0.070652
476.500000 0.081940
476.500000 0.094063
476.500000 0.107023
476.500000 0.120819
476.500000 0.135451
476.500000 0.150919
476.500000 0.167224
476.500000 0.184364
476.500000 0.202341
476.500000 0.221153
476.500000 0.240802
476.500000 0.261287
476.500000 0.282608
476.500000 0.304765
476.500000 0.327758
476.500000 0.351588
476.500000 0.376253
476.500000 0.401755
476.500000 0.428092
476.500000 0.455266
476.500000 0.483276
476.500000 0.512122
476.500000 0.541805
476.500000 0.572323
476.500000 0.603677
476.500000 0.635868
476.500000 0.668894
476.500000 0.702757
476.500000 0.737456
476.500000 0.772991
476.500000 0.809362
476.500000 0.846570
476.500000 0.884613
476.500000 0.923492
476.500000 0.963208
476.500000 1.003760
476.500000 1.045148
476.500000 1.087372
476.500000 1.130432
476.500000 1.174328
476.500000 1.219060
476.500000 1.264629
476.500000 1.311033
476.500000 1.358274
476.500000 1.406351
476.500000 1.455264
476.500000 1.505013
476.500000 1.555598
476.500000 1.607019
476.500000 1.659276
476.500000 1.712370
476.500000 1.766299
476.500000 1.821065
476.500000 1.876667
476.500000 1.933105
476.500000 1.990379
476.500000 2.048489
476.500000 2.107436
476.500000 2.167218
476.500000 2.227837
476.500000 2.289291
476.500000 2.351582
476.500000 2.414709
476.500000 2.478672
476.500000 2.543471
476.500000 2.609106
476.500000 2.675578
476.500000 2.742885
476.500000 2.811029
476.500000 2.880009
476.500000 2.949825
476.500000 3.020477
476.500000 3.091965
476.500000 3.164289
476.500000 3.237449
476.500000 3.311446
476.500000 3.386278
476.500000 3.461947
476.500000 3.538452
476.500000 3.615793
476.500000 3.693970
476.500000 3.772983
476.500000 3.852832
476.500000 3.933517
476.500000 4.015039
476.500000 4.097397
476.500000 4.180590
476.500000 4.264620
476.500000 4.349486
476.500000 4.435188
476.500000 4.521727
476.500000 4.609101
476.500000 4.697311
476.500000 4.786358
476.500000 4.876241
476.500000 4.966959
476.500000 5.058514
476.500000 5.150905
476.500000 5.244133
476.500000 5.338196
476.500000 5.433095
476.500000 5.528831
476.500000 5.625402
476.500000 5.722810
476.500000 5.821054
476.500000 5.920134
476.500000 6.020050
476.500000 6.120802
476.500000 6.222391
476.500000 6.324815
476.500000 6.428076
476.500000 6.532172
476.500000 6.637105
476.500000 6.742874
476.500000 6.849479
476.500000 6.956920
476.500000 7.065198
476.500000 7.174311
476.500000 7.284261
476.500000 7.395046
476.500000 7.506668
476.500000 7.619126
476.500000 7.732420
476.500000 7.846550
476.500000 7.961516
476.500000 8.077319
476.500000 8.193957
476.500000 8.311432
476.500000 8.429742
476.500000 8.548889
476.500000 8.668872
476.500000 8.789691
476.500000 8.911346
476.500000 9.033838
476.500000 9.157165
476.500000 9.281329
476.500000 9.406328
476.500000 9.532164
476.500000 9.658836
476.500000 9.786344
476.500000 9.914688
476.500000 10.043868
476.500000 10.173885
476.500000 10.304737
476.500000 10.436426
476.500000 10.568950
476.500000 10.702311
476.500000 10.836508
476.500000 10.971541
476.500000 11.107411
476.500000 11.244116
476.500000 11.381657
476.500000 11.520035
476.500000 11.659248
476.500000 11.799298
476.500000 11.940184
476.500000 12.081906
476.500000 12.224464
476.500000 12.367859
476.500000 12.512089
476.500000 12.657155
476.500000 12.803058
476.500000 12.949797
476.500000 13.097372
476.500000 13.245782
476.500000 13.395030
476.500000 13.545113
476.500000 13.696032
476.500000 13.847787
476.500000 14.000379
476.500000 14.153807
476.500000 14.308070
476.500000 14.463170
476.500000 14.619106
476.500000 14.775879
476.500000 14.933487
476.500000 15.091931
476.500000 15.251212
476.500000 15.411328
476.500000 15.572281
476.500000 15.734070
476.500000 15.896695
476.500000 16.060156
476.500000 16.224453
476.500000 16.389586
476.500000 16.555556
476.500000 16.722361
476.500000 16.890003
476.500000 17.058481
476.500000 17.227795
476.500000 17.397945
476.500000 17.568931
476.500000 17.740753
476.500000 17.913412
476.500000 18.086906
476.500000 18.261237
476.500000 18.436403
476.500000 18.612406
476.500000 18.789245
476.500000 18.966920
476.500000 19.145432
476.500000 19.324779
476.500000 19.504962
476.500000 19.685982
476.500000 19.867838
476.500000 20.050529
476.500000 20.234057
476.500000 20.418421
476.500000 20.603622
476.500000 20.789658
476.500000 20.976530
476.500000 21.164239
476.500000 21.352783
476.500000 21.542164
476.500000 21.732381
476.500000 21.923434
476.500000 22.115323
476.500000 22.308048
476.500000 22.501610
476.500000 22.696007
476.500000 22.891241
476.500000 23.087310
476.500000 23.284216
476.500000 23.481958
476.500000 23.680536
476.500000 23.879950
476.500000 24.080200
476.500000 24.281287
476.500000 24.483209
476.500000 24.685968
476.500000 24.889563
476.500000 25.093994
476.500000 25.299261
476.500000 25.505364
476.500000 25.712303
476.500000 25.920078
476.500000 26.128690
476.500000 26.338137
476.500000 26.548421
476.500000 26.759541
476.500000 26.971497
476.500000 27.184289
476.500000 27.397917
476.500000 27.612381
476.500000 27.827682
476.500000 28.043818
476.500000 28.260791
476.500000 28.478600
476.500000 28.697244
476.500000 28.916725
476.500000 29.137043
476.500000 29.358196
476.500000 29.580185
476.500000 29.803011
476.500000 30.026672
476.500000 30.251170
476.500000 30.476504
476.500000 30.702674
476.500000 30.929680
476.500000 31.157522
476.500000 31.386200
476.500000 31.615715
476.500000 31.846065
476.500000 32.077252
476.500000 32.309275
476.500000 32.542133
476.500000 32.775828
476.500000 33.010360
476.500000 33.245727
476.500000 33.481930
476.500000 33.718970
476.500000 33.956845
476.500000 34.195557
476.500000 34.435105
476.500000 34.675489
476.500000 34.916709
476.500000 35.158765
476.500000 35.401657
476.500000 35.645386
476.500000 35.889950
476.500000 36.135351
476.500000 36.381588
476.500000 36.628660
476.500000 36.876569
476.500000 37.125315
476.500000 37.374896
476.500000 37.625313
476.500000 37.876567
476.500000 38.128656
476.500000 38.381582
476.500000 38.635344
476.500000 38.889942
476.500000 39.145376
476.500000 39.401646
476.500000 39.658752
476.500000 39.916695
476.500000 40.175473
476.500000 40.435088
476.500000 40.695539
476.500000 40.956826
476.500000 41.218949
476.500000 41.481908
476.500000 41.745703
476.500000 42.010334
476.500000 42.275802
476.500000 42.542106
476.500000 42.809245
476.500000 43.077221
476.500000 43.346033
476.500000 43.615681
476.500000 43.886165
476.500000 44.157486
476.500000 44.429642
476.500000 44.702635
476.500000 44.976463
476.500000 45.251128
476.500000 45.526629
476.500000 45.802966
476.500000 46.080139
476.500000 46.358148
476.500000 46.636994
476.500000 46.916675
476.500000 47.197193
476.500000 47.478547
476.500000 47.760736
476.500000 48.043762
476.500000 48.327625
476.500000 48.612323
476.500000 48.897857
476.500000 49.184227
476.500000 49.471434
476.500000 49.759477
476.500000 50.048355
476.500000 50.338070
476.500000 50.628621
476.500000 50.920009
476.500000 51.212232
476.500000 51.505291
476.500000 51.799187
476.500000 52.093918
476.500000 52.389486
476.500000 52.685890
476.500000 52.983130
476.500000 53.281206
476.500000 53.580118
476.500000 53.879867
476.500000 54.180451
476.500000 54.481872
476.500000 54.784128
476.500000 55.087221
476.500000 55.391150
476.500000 55.695915
476.500000 56.001516
476.500000 56.307953
476.500000 56.615227
476.500000 56.923336
476.500000 57.232282
476.500000 57.542064
476.500000 57.852682
476.500000 58.164136
476.500000 58.476426
476.500000 58.789552
476.500000 59.103514
476.500000 59.418313
476.500000 59.733947
476.500000 60.050418
476.500000 60.367725
476.500000 60.685868
476.500000 61.004847
476.500000 61.324662
476.500000 61.645313
476.500000 61.966801
476.500000 62.289124
476.500000 62.612284
476.500000 62.936279
476.500000 63.261111
476.500000 63.586779
476.500000 63.913283
476.500000 64.240624
476.500000 64.568800
476.500000 64.897812
476.500000 65.227661
476.500000 65.558346
476.500000 65.889867
476.500000 66.222223
476.500000 66.555417
476.500000 66.889446
476.500000 67.224311
476.500000 67.560012
476.500000 67.896550
476.500000 68.233924
476.500000 68.572133
476.500000 68.911179
476.500000 69.251061
476.500000 69.591779
476.500000 69.933334
476.500000 70.275724
476.500000 70.618950
476.500000 70.963013
476.500000 71.307912
476.500000 71.653646
476.500000 72.000217
476.500000 72.347624
476.500000 72.695868
476.500000 73.044947
476.500000 73.394862
476.500000 73.745614
476.500000 74.097202
476.500000 74.449625
476.500000 74.802885
476.500000 75.156981
476.500000 75.511913
476.500000 75.867682
476.500000 76.224286
476.500000 76.581726
476.500000 76.940003
476.500000 77.299116
476.500000 77.659064
476.500000 78.019849
476.500000 78.381471
476.500000 78.743928
476.500000 79.107221
476.500000 79.471350
476.500000 79.836316
476.500000 80.202118
476.500000 80.568755
476.500000 80.936229
476.500000 81.304539
476.500000 81.673685
476.500000 82.043668
476.500000 82.414486
476.500000 82.786141
476.500000 83.158631
476.500000 83.531958
476.500000 83.906121
476.500000 84.281120
476.500000 84.656955
476.500000 85.033626
476.500000 85.411133
476.500000 85.789477
476.500000 86.168656
476.500000 86.548672
476.500000 86.929524
476.500000 87.311212
476.500000 87.693736
476.500000 88.077096
476.500000 88.461292
476.500000 88.846324
476.500000 89.232193
476.500000 89.618897
476.500000 90.006438
476.500000 90.394815
476.500000 90.784028
476.500000 91.174077
476.500000 91.564962
476.500000 91.956684
476.500000 92.349241
476.500000 92.742634
476.500000 93.136864
476.500000 93.531930
476.500000 93.927832
476.500000 94.324570
476.500000 94.722144
476.500000 95.120554
476.500000 95.519801
476.500000 95.919883
476.500000 96.320802
476.500000 96.722557
476.500000 97.125147
476.500000 97.528574
476.500000 97.932837
476.500000 98.337937
476.500000 98.743872
476.500000 99.150643
476.500000 99.558251
476.500000 99.966695
476.500000 100.375974
476.500000 100.786090
476.500000 101.197042
476.500000 101.608831
476.500000 102.021455
476.500000 102.434915
476.500000 102.849212
476.500000 103.264344
476.500000 103.680313
476.500000 104.097118
476.500000 104.514759
476.500000 104.933236
476.500000 105.352549
476.500000 105.772699
476.500000 106.193684
476.500000 106.615506
476.500000 107.038163
476.500000 107.461657
476.500000 107.885987
476.500000 108.311153
476.500000 108.737155
476.500000 109.163993
476.500000 109.591668
476.500000 110.020178
476.500000 110.449525
476.500000 110.879708
476.500000 111.310727
476.500000 111.742582
476.500000 112.175273
476.500000 112.608800
476.500000 113.043163
476.500000 113.478363
476.500000 113.914398
476.500000 114.351270
476.500000 114.788978
476.500000 115.227522
476.500000 115.666902
476.500000 116.107118
476.500000 116.548170
476.500000 116.990059
476.500000 117.432783
476.500000 117.876344
476.500000 118.320740
476.500000 118.765973
476.500000 119.212042
476.500000 119.658947
476.500000 120.106689
476.500000 120.555266
476.500000 121.004679
476.500000 121.454929
476.500000 121.906015
476.500000 122.357937
476.500000 122.810695
476.500000 123.264289
476.500000 123.718719
476.500000 124.173985
476.500000 124.630087
476.500000 125.087026
476.500000 125.544801
476.500000 126.003411
476.500000 126.462858
476.500000 126.923141
476.500000 127.384260
476.500000 127.846216
476.500000 128.309007
476.500000 128.772634
476.500000 129.237098
476.500000 129.702398
476.500000 130.168534
476.500000 130.635505
476.500000 131.103314
476.500000 131.571958
476.500000 132.041438
476.500000 132.511754
476.500000 132.982907
476.500000 133.454896
476.500000 133.927720
476.500000 134.401381
476.500000 134.875878
476.500000 135.351211
476.500000 135.827381
476.500000 136.304386
476.500000 136.782227
476.500000 137.260905
476.500000 137.740419
476.500000 138.220769
476.500000 138.701955
476.500000 139.183977
476.500000 139.666835
476.500000 140.150529
476.500000 140.635060
476.500000 141.120426
476.500000 141.606629
476.500000 142.093668
476.500000 142.581542
476.500000 143.070253
476.500000 143.559801
476.500000 144.050184
476.500000 144.541403
476.500000 145.033459
476.500000 145.526350
476.500000 146.020078
476.500000 146.514642
476.500000 147.010042
476.500000 147.506278
476.500000 148.003350
476.500000 148.501258
476.500000 149.000003
476.500000 149.499583
476.500000 150.000000
</POINTS>
</NEKTAR>

