<?xml version="1.0" encoding="utf-8" ?>
<NEKTAR>
<POINTS DIM="2" FIELDS="">
456.500000 0.000000
456.500000 0.000418
456.500000 0.001672
456.500000 0.003763
456.500000 0.006689
456.500000 0.010451
456.500000 0.015050
456.500000 0.020485
456.500000 0.026756
456.500000 0.033863
456.500000 0.041806
456.500000 0.050585
456.500000 0.060201
456.500000 0.070652
456.500000 0.081940
456.500000 0.094063
456.500000 0.107023
456.500000 0.120819
456.500000 0.135451
456.500000 0.150919
456.500000 0.167224
456.500000 0.184364
456.500000 0.202341
456.500000 0.221153
456.500000 0.240802
456.500000 0.261287
456.500000 0.282608
456.500000 0.304765
456.500000 0.327758
456.500000 0.351588
456.500000 0.376253
456.500000 0.401755
456.500000 0.428092
456.500000 0.455266
456.500000 0.483276
456.500000 0.512122
456.500000 0.541805
456.500000 0.572323
456.500000 0.603677
456.500000 0.635868
456.500000 0.668894
456.500000 0.702757
456.500000 0.737456
456.500000 0.772991
456.500000 0.809362
456.500000 0.846570
456.500000 0.884613
456.500000 0.923492
456.500000 0.963208
456.500000 1.003760
456.500000 1.045148
456.500000 1.087372
456.500000 1.130432
456.500000 1.174328
456.500000 1.219060
456.500000 1.264629
456.500000 1.311033
456.500000 1.358274
456.500000 1.406351
456.500000 1.455264
456.500000 1.505013
456.500000 1.555598
456.500000 1.607019
456.500000 1.659276
456.500000 1.712370
456.500000 1.766299
456.500000 1.821065
456.500000 1.876667
456.500000 1.933105
456.500000 1.990379
456.500000 2.048489
456.500000 2.107436
456.500000 2.167218
456.500000 2.227837
456.500000 2.289291
456.500000 2.351582
456.500000 2.414709
456.500000 2.478672
456.500000 2.543471
456.500000 2.609106
456.500000 2.675578
456.500000 2.742885
456.500000 2.811029
456.500000 2.880009
456.500000 2.949825
456.500000 3.020477
456.500000 3.091965
456.500000 3.164289
456.500000 3.237449
456.500000 3.311446
456.500000 3.386278
456.500000 3.461947
456.500000 3.538452
456.500000 3.615793
456.500000 3.693970
456.500000 3.772983
456.500000 3.852832
456.500000 3.933517
456.500000 4.015039
456.500000 4.097397
456.500000 4.180590
456.500000 4.264620
456.500000 4.349486
456.500000 4.435188
456.500000 4.521727
456.500000 4.609101
456.500000 4.697311
456.500000 4.786358
456.500000 4.876241
456.500000 4.966959
456.500000 5.058514
456.500000 5.150905
456.500000 5.244133
456.500000 5.338196
456.500000 5.433095
456.500000 5.528831
456.500000 5.625402
456.500000 5.722810
456.500000 5.821054
456.500000 5.920134
456.500000 6.020050
456.500000 6.120802
456.500000 6.222391
456.500000 6.324815
456.500000 6.428076
456.500000 6.532172
456.500000 6.637105
456.500000 6.742874
456.500000 6.849479
456.500000 6.956920
456.500000 7.065198
456.500000 7.174311
456.500000 7.284261
456.500000 7.395046
456.500000 7.506668
456.500000 7.619126
456.500000 7.732420
456.500000 7.846550
456.500000 7.961516
456.500000 8.077319
456.500000 8.193957
456.500000 8.311432
456.500000 8.429742
456.500000 8.548889
456.500000 8.668872
456.500000 8.789691
456.500000 8.911346
456.500000 9.033838
456.500000 9.157165
456.500000 9.281329
456.500000 9.406328
456.500000 9.532164
456.500000 9.658836
456.500000 9.786344
456.500000 9.914688
456.500000 10.043868
456.500000 10.173885
456.500000 10.304737
456.500000 10.436426
456.500000 10.568950
456.500000 10.702311
456.500000 10.836508
456.500000 10.971541
456.500000 11.107411
456.500000 11.244116
456.500000 11.381657
456.500000 11.520035
456.500000 11.659248
456.500000 11.799298
456.500000 11.940184
456.500000 12.081906
456.500000 12.224464
456.500000 12.367859
456.500000 12.512089
456.500000 12.657155
456.500000 12.803058
456.500000 12.949797
456.500000 13.097372
456.500000 13.245782
456.500000 13.395030
456.500000 13.545113
456.500000 13.696032
456.500000 13.847787
456.500000 14.000379
456.500000 14.153807
456.500000 14.308070
456.500000 14.463170
456.500000 14.619106
456.500000 14.775879
456.500000 14.933487
456.500000 15.091931
456.500000 15.251212
456.500000 15.411328
456.500000 15.572281
456.500000 15.734070
456.500000 15.896695
456.500000 16.060156
456.500000 16.224453
456.500000 16.389586
456.500000 16.555556
456.500000 16.722361
456.500000 16.890003
456.500000 17.058481
456.500000 17.227795
456.500000 17.397945
456.500000 17.568931
456.500000 17.740753
456.500000 17.913412
456.500000 18.086906
456.500000 18.261237
456.500000 18.436403
456.500000 18.612406
456.500000 18.789245
456.500000 18.966920
456.500000 19.145432
456.500000 19.324779
456.500000 19.504962
456.500000 19.685982
456.500000 19.867838
456.500000 20.050529
456.500000 20.234057
456.500000 20.418421
456.500000 20.603622
456.500000 20.789658
456.500000 20.976530
456.500000 21.164239
456.500000 21.352783
456.500000 21.542164
456.500000 21.732381
456.500000 21.923434
456.500000 22.115323
456.500000 22.308048
456.500000 22.501610
456.500000 22.696007
456.500000 22.891241
456.500000 23.087310
456.500000 23.284216
456.500000 23.481958
456.500000 23.680536
456.500000 23.879950
456.500000 24.080200
456.500000 24.281287
456.500000 24.483209
456.500000 24.685968
456.500000 24.889563
456.500000 25.093994
456.500000 25.299261
456.500000 25.505364
456.500000 25.712303
456.500000 25.920078
456.500000 26.128690
456.500000 26.338137
456.500000 26.548421
456.500000 26.759541
456.500000 26.971497
456.500000 27.184289
456.500000 27.397917
456.500000 27.612381
456.500000 27.827682
456.500000 28.043818
456.500000 28.260791
456.500000 28.478600
456.500000 28.697244
456.500000 28.916725
456.500000 29.137043
456.500000 29.358196
456.500000 29.580185
456.500000 29.803011
456.500000 30.026672
456.500000 30.251170
456.500000 30.476504
456.500000 30.702674
456.500000 30.929680
456.500000 31.157522
456.500000 31.386200
456.500000 31.615715
456.500000 31.846065
456.500000 32.077252
456.500000 32.309275
456.500000 32.542133
456.500000 32.775828
456.500000 33.010360
456.500000 33.245727
456.500000 33.481930
456.500000 33.718970
456.500000 33.956845
456.500000 34.195557
456.500000 34.435105
456.500000 34.675489
456.500000 34.916709
456.500000 35.158765
456.500000 35.401657
456.500000 35.645386
456.500000 35.889950
456.500000 36.135351
456.500000 36.381588
456.500000 36.628660
456.500000 36.876569
456.500000 37.125315
456.500000 37.374896
456.500000 37.625313
456.500000 37.876567
456.500000 38.128656
456.500000 38.381582
456.500000 38.635344
456.500000 38.889942
456.500000 39.145376
456.500000 39.401646
456.500000 39.658752
456.500000 39.916695
456.500000 40.175473
456.500000 40.435088
456.500000 40.695539
456.500000 40.956826
456.500000 41.218949
456.500000 41.481908
456.500000 41.745703
456.500000 42.010334
456.500000 42.275802
456.500000 42.542106
456.500000 42.809245
456.500000 43.077221
456.500000 43.346033
456.500000 43.615681
456.500000 43.886165
456.500000 44.157486
456.500000 44.429642
456.500000 44.702635
456.500000 44.976463
456.500000 45.251128
456.500000 45.526629
456.500000 45.802966
456.500000 46.080139
456.500000 46.358148
456.500000 46.636994
456.500000 46.916675
456.500000 47.197193
456.500000 47.478547
456.500000 47.760736
456.500000 48.043762
456.500000 48.327625
456.500000 48.612323
456.500000 48.897857
456.500000 49.184227
456.500000 49.471434
456.500000 49.759477
456.500000 50.048355
456.500000 50.338070
456.500000 50.628621
456.500000 50.920009
456.500000 51.212232
456.500000 51.505291
456.500000 51.799187
456.500000 52.093918
456.500000 52.389486
456.500000 52.685890
456.500000 52.983130
456.500000 53.281206
456.500000 53.580118
456.500000 53.879867
456.500000 54.180451
456.500000 54.481872
456.500000 54.784128
456.500000 55.087221
456.500000 55.391150
456.500000 55.695915
456.500000 56.001516
456.500000 56.307953
456.500000 56.615227
456.500000 56.923336
456.500000 57.232282
456.500000 57.542064
456.500000 57.852682
456.500000 58.164136
456.500000 58.476426
456.500000 58.789552
456.500000 59.103514
456.500000 59.418313
456.500000 59.733947
456.500000 60.050418
456.500000 60.367725
456.500000 60.685868
456.500000 61.004847
456.500000 61.324662
456.500000 61.645313
456.500000 61.966801
456.500000 62.289124
456.500000 62.612284
456.500000 62.936279
456.500000 63.261111
456.500000 63.586779
456.500000 63.913283
456.500000 64.240624
456.500000 64.568800
456.500000 64.897812
456.500000 65.227661
456.500000 65.558346
456.500000 65.889867
456.500000 66.222223
456.500000 66.555417
456.500000 66.889446
456.500000 67.224311
456.500000 67.560012
456.500000 67.896550
456.500000 68.233924
456.500000 68.572133
456.500000 68.911179
456.500000 69.251061
456.500000 69.591779
456.500000 69.933334
456.500000 70.275724
456.500000 70.618950
456.500000 70.963013
456.500000 71.307912
456.500000 71.653646
456.500000 72.000217
456.500000 72.347624
456.500000 72.695868
456.500000 73.044947
456.500000 73.394862
456.500000 73.745614
456.500000 74.097202
456.500000 74.449625
456.500000 74.802885
456.500000 75.156981
456.500000 75.511913
456.500000 75.867682
456.500000 76.224286
456.500000 76.581726
456.500000 76.940003
456.500000 77.299116
456.500000 77.659064
456.500000 78.019849
456.500000 78.381471
456.500000 78.743928
456.500000 79.107221
456.500000 79.471350
456.500000 79.836316
456.500000 80.202118
456.500000 80.568755
456.500000 80.936229
456.500000 81.304539
456.500000 81.673685
456.500000 82.043668
456.500000 82.414486
456.500000 82.786141
456.500000 83.158631
456.500000 83.531958
456.500000 83.906121
456.500000 84.281120
456.500000 84.656955
456.500000 85.033626
456.500000 85.411133
456.500000 85.789477
456.500000 86.168656
456.500000 86.548672
456.500000 86.929524
456.500000 87.311212
456.500000 87.693736
456.500000 88.077096
456.500000 88.461292
456.500000 88.846324
456.500000 89.232193
456.500000 89.618897
456.500000 90.006438
456.500000 90.394815
456.500000 90.784028
456.500000 91.174077
456.500000 91.564962
456.500000 91.956684
456.500000 92.349241
456.500000 92.742634
456.500000 93.136864
456.500000 93.531930
456.500000 93.927832
456.500000 94.324570
456.500000 94.722144
456.500000 95.120554
456.500000 95.519801
456.500000 95.919883
456.500000 96.320802
456.500000 96.722557
456.500000 97.125147
456.500000 97.528574
456.500000 97.932837
456.500000 98.337937
456.500000 98.743872
456.500000 99.150643
456.500000 99.558251
456.500000 99.966695
456.500000 100.375974
456.500000 100.786090
456.500000 101.197042
456.500000 101.608831
456.500000 102.021455
456.500000 102.434915
456.500000 102.849212
456.500000 103.264344
456.500000 103.680313
456.500000 104.097118
456.500000 104.514759
456.500000 104.933236
456.500000 105.352549
456.500000 105.772699
456.500000 106.193684
456.500000 106.615506
456.500000 107.038163
456.500000 107.461657
456.500000 107.885987
456.500000 108.311153
456.500000 108.737155
456.500000 109.163993
456.500000 109.591668
456.500000 110.020178
456.500000 110.449525
456.500000 110.879708
456.500000 111.310727
456.500000 111.742582
456.500000 112.175273
456.500000 112.608800
456.500000 113.043163
456.500000 113.478363
456.500000 113.914398
456.500000 114.351270
456.500000 114.788978
456.500000 115.227522
456.500000 115.666902
456.500000 116.107118
456.500000 116.548170
456.500000 116.990059
456.500000 117.432783
456.500000 117.876344
456.500000 118.320740
456.500000 118.765973
456.500000 119.212042
456.500000 119.658947
456.500000 120.106689
456.500000 120.555266
456.500000 121.004679
456.500000 121.454929
456.500000 121.906015
456.500000 122.357937
456.500000 122.810695
456.500000 123.264289
456.500000 123.718719
456.500000 124.173985
456.500000 124.630087
456.500000 125.087026
456.500000 125.544801
456.500000 126.003411
456.500000 126.462858
456.500000 126.923141
456.500000 127.384260
456.500000 127.846216
456.500000 128.309007
456.500000 128.772634
456.500000 129.237098
456.500000 129.702398
456.500000 130.168534
456.500000 130.635505
456.500000 131.103314
456.500000 131.571958
456.500000 132.041438
456.500000 132.511754
456.500000 132.982907
456.500000 133.454896
456.500000 133.927720
456.500000 134.401381
456.500000 134.875878
456.500000 135.351211
456.500000 135.827381
456.500000 136.304386
456.500000 136.782227
456.500000 137.260905
456.500000 137.740419
456.500000 138.220769
456.500000 138.701955
456.500000 139.183977
456.500000 139.666835
456.500000 140.150529
456.500000 140.635060
456.500000 141.120426
456.500000 141.606629
456.500000 142.093668
456.500000 142.581542
456.500000 143.070253
456.500000 143.559801
456.500000 144.050184
456.500000 144.541403
456.500000 145.033459
456.500000 145.526350
456.500000 146.020078
456.500000 146.514642
456.500000 147.010042
456.500000 147.506278
456.500000 148.003350
456.500000 148.501258
456.500000 149.000003
456.500000 149.499583
456.500000 150.000000
</POINTS>
</NEKTAR>

