<?xml version="1.0" encoding="utf-8" ?>
<NEKTAR>
<POINTS DIM="2" FIELDS="">
796.500000 0.000000
796.500000 0.000418
796.500000 0.001672
796.500000 0.003763
796.500000 0.006689
796.500000 0.010451
796.500000 0.015050
796.500000 0.020485
796.500000 0.026756
796.500000 0.033863
796.500000 0.041806
796.500000 0.050585
796.500000 0.060201
796.500000 0.070652
796.500000 0.081940
796.500000 0.094063
796.500000 0.107023
796.500000 0.120819
796.500000 0.135451
796.500000 0.150919
796.500000 0.167224
796.500000 0.184364
796.500000 0.202341
796.500000 0.221153
796.500000 0.240802
796.500000 0.261287
796.500000 0.282608
796.500000 0.304765
796.500000 0.327758
796.500000 0.351588
796.500000 0.376253
796.500000 0.401755
796.500000 0.428092
796.500000 0.455266
796.500000 0.483276
796.500000 0.512122
796.500000 0.541805
796.500000 0.572323
796.500000 0.603677
796.500000 0.635868
796.500000 0.668894
796.500000 0.702757
796.500000 0.737456
796.500000 0.772991
796.500000 0.809362
796.500000 0.846570
796.500000 0.884613
796.500000 0.923492
796.500000 0.963208
796.500000 1.003760
796.500000 1.045148
796.500000 1.087372
796.500000 1.130432
796.500000 1.174328
796.500000 1.219060
796.500000 1.264629
796.500000 1.311033
796.500000 1.358274
796.500000 1.406351
796.500000 1.455264
796.500000 1.505013
796.500000 1.555598
796.500000 1.607019
796.500000 1.659276
796.500000 1.712370
796.500000 1.766299
796.500000 1.821065
796.500000 1.876667
796.500000 1.933105
796.500000 1.990379
796.500000 2.048489
796.500000 2.107436
796.500000 2.167218
796.500000 2.227837
796.500000 2.289291
796.500000 2.351582
796.500000 2.414709
796.500000 2.478672
796.500000 2.543471
796.500000 2.609106
796.500000 2.675578
796.500000 2.742885
796.500000 2.811029
796.500000 2.880009
796.500000 2.949825
796.500000 3.020477
796.500000 3.091965
796.500000 3.164289
796.500000 3.237449
796.500000 3.311446
796.500000 3.386278
796.500000 3.461947
796.500000 3.538452
796.500000 3.615793
796.500000 3.693970
796.500000 3.772983
796.500000 3.852832
796.500000 3.933517
796.500000 4.015039
796.500000 4.097397
796.500000 4.180590
796.500000 4.264620
796.500000 4.349486
796.500000 4.435188
796.500000 4.521727
796.500000 4.609101
796.500000 4.697311
796.500000 4.786358
796.500000 4.876241
796.500000 4.966959
796.500000 5.058514
796.500000 5.150905
796.500000 5.244133
796.500000 5.338196
796.500000 5.433095
796.500000 5.528831
796.500000 5.625402
796.500000 5.722810
796.500000 5.821054
796.500000 5.920134
796.500000 6.020050
796.500000 6.120802
796.500000 6.222391
796.500000 6.324815
796.500000 6.428076
796.500000 6.532172
796.500000 6.637105
796.500000 6.742874
796.500000 6.849479
796.500000 6.956920
796.500000 7.065198
796.500000 7.174311
796.500000 7.284261
796.500000 7.395046
796.500000 7.506668
796.500000 7.619126
796.500000 7.732420
796.500000 7.846550
796.500000 7.961516
796.500000 8.077319
796.500000 8.193957
796.500000 8.311432
796.500000 8.429742
796.500000 8.548889
796.500000 8.668872
796.500000 8.789691
796.500000 8.911346
796.500000 9.033838
796.500000 9.157165
796.500000 9.281329
796.500000 9.406328
796.500000 9.532164
796.500000 9.658836
796.500000 9.786344
796.500000 9.914688
796.500000 10.043868
796.500000 10.173885
796.500000 10.304737
796.500000 10.436426
796.500000 10.568950
796.500000 10.702311
796.500000 10.836508
796.500000 10.971541
796.500000 11.107411
796.500000 11.244116
796.500000 11.381657
796.500000 11.520035
796.500000 11.659248
796.500000 11.799298
796.500000 11.940184
796.500000 12.081906
796.500000 12.224464
796.500000 12.367859
796.500000 12.512089
796.500000 12.657155
796.500000 12.803058
796.500000 12.949797
796.500000 13.097372
796.500000 13.245782
796.500000 13.395030
796.500000 13.545113
796.500000 13.696032
796.500000 13.847787
796.500000 14.000379
796.500000 14.153807
796.500000 14.308070
796.500000 14.463170
796.500000 14.619106
796.500000 14.775879
796.500000 14.933487
796.500000 15.091931
796.500000 15.251212
796.500000 15.411328
796.500000 15.572281
796.500000 15.734070
796.500000 15.896695
796.500000 16.060156
796.500000 16.224453
796.500000 16.389586
796.500000 16.555556
796.500000 16.722361
796.500000 16.890003
796.500000 17.058481
796.500000 17.227795
796.500000 17.397945
796.500000 17.568931
796.500000 17.740753
796.500000 17.913412
796.500000 18.086906
796.500000 18.261237
796.500000 18.436403
796.500000 18.612406
796.500000 18.789245
796.500000 18.966920
796.500000 19.145432
796.500000 19.324779
796.500000 19.504962
796.500000 19.685982
796.500000 19.867838
796.500000 20.050529
796.500000 20.234057
796.500000 20.418421
796.500000 20.603622
796.500000 20.789658
796.500000 20.976530
796.500000 21.164239
796.500000 21.352783
796.500000 21.542164
796.500000 21.732381
796.500000 21.923434
796.500000 22.115323
796.500000 22.308048
796.500000 22.501610
796.500000 22.696007
796.500000 22.891241
796.500000 23.087310
796.500000 23.284216
796.500000 23.481958
796.500000 23.680536
796.500000 23.879950
796.500000 24.080200
796.500000 24.281287
796.500000 24.483209
796.500000 24.685968
796.500000 24.889563
796.500000 25.093994
796.500000 25.299261
796.500000 25.505364
796.500000 25.712303
796.500000 25.920078
796.500000 26.128690
796.500000 26.338137
796.500000 26.548421
796.500000 26.759541
796.500000 26.971497
796.500000 27.184289
796.500000 27.397917
796.500000 27.612381
796.500000 27.827682
796.500000 28.043818
796.500000 28.260791
796.500000 28.478600
796.500000 28.697244
796.500000 28.916725
796.500000 29.137043
796.500000 29.358196
796.500000 29.580185
796.500000 29.803011
796.500000 30.026672
796.500000 30.251170
796.500000 30.476504
796.500000 30.702674
796.500000 30.929680
796.500000 31.157522
796.500000 31.386200
796.500000 31.615715
796.500000 31.846065
796.500000 32.077252
796.500000 32.309275
796.500000 32.542133
796.500000 32.775828
796.500000 33.010360
796.500000 33.245727
796.500000 33.481930
796.500000 33.718970
796.500000 33.956845
796.500000 34.195557
796.500000 34.435105
796.500000 34.675489
796.500000 34.916709
796.500000 35.158765
796.500000 35.401657
796.500000 35.645386
796.500000 35.889950
796.500000 36.135351
796.500000 36.381588
796.500000 36.628660
796.500000 36.876569
796.500000 37.125315
796.500000 37.374896
796.500000 37.625313
796.500000 37.876567
796.500000 38.128656
796.500000 38.381582
796.500000 38.635344
796.500000 38.889942
796.500000 39.145376
796.500000 39.401646
796.500000 39.658752
796.500000 39.916695
796.500000 40.175473
796.500000 40.435088
796.500000 40.695539
796.500000 40.956826
796.500000 41.218949
796.500000 41.481908
796.500000 41.745703
796.500000 42.010334
796.500000 42.275802
796.500000 42.542106
796.500000 42.809245
796.500000 43.077221
796.500000 43.346033
796.500000 43.615681
796.500000 43.886165
796.500000 44.157486
796.500000 44.429642
796.500000 44.702635
796.500000 44.976463
796.500000 45.251128
796.500000 45.526629
796.500000 45.802966
796.500000 46.080139
796.500000 46.358148
796.500000 46.636994
796.500000 46.916675
796.500000 47.197193
796.500000 47.478547
796.500000 47.760736
796.500000 48.043762
796.500000 48.327625
796.500000 48.612323
796.500000 48.897857
796.500000 49.184227
796.500000 49.471434
796.500000 49.759477
796.500000 50.048355
796.500000 50.338070
796.500000 50.628621
796.500000 50.920009
796.500000 51.212232
796.500000 51.505291
796.500000 51.799187
796.500000 52.093918
796.500000 52.389486
796.500000 52.685890
796.500000 52.983130
796.500000 53.281206
796.500000 53.580118
796.500000 53.879867
796.500000 54.180451
796.500000 54.481872
796.500000 54.784128
796.500000 55.087221
796.500000 55.391150
796.500000 55.695915
796.500000 56.001516
796.500000 56.307953
796.500000 56.615227
796.500000 56.923336
796.500000 57.232282
796.500000 57.542064
796.500000 57.852682
796.500000 58.164136
796.500000 58.476426
796.500000 58.789552
796.500000 59.103514
796.500000 59.418313
796.500000 59.733947
796.500000 60.050418
796.500000 60.367725
796.500000 60.685868
796.500000 61.004847
796.500000 61.324662
796.500000 61.645313
796.500000 61.966801
796.500000 62.289124
796.500000 62.612284
796.500000 62.936279
796.500000 63.261111
796.500000 63.586779
796.500000 63.913283
796.500000 64.240624
796.500000 64.568800
796.500000 64.897812
796.500000 65.227661
796.500000 65.558346
796.500000 65.889867
796.500000 66.222223
796.500000 66.555417
796.500000 66.889446
796.500000 67.224311
796.500000 67.560012
796.500000 67.896550
796.500000 68.233924
796.500000 68.572133
796.500000 68.911179
796.500000 69.251061
796.500000 69.591779
796.500000 69.933334
796.500000 70.275724
796.500000 70.618950
796.500000 70.963013
796.500000 71.307912
796.500000 71.653646
796.500000 72.000217
796.500000 72.347624
796.500000 72.695868
796.500000 73.044947
796.500000 73.394862
796.500000 73.745614
796.500000 74.097202
796.500000 74.449625
796.500000 74.802885
796.500000 75.156981
796.500000 75.511913
796.500000 75.867682
796.500000 76.224286
796.500000 76.581726
796.500000 76.940003
796.500000 77.299116
796.500000 77.659064
796.500000 78.019849
796.500000 78.381471
796.500000 78.743928
796.500000 79.107221
796.500000 79.471350
796.500000 79.836316
796.500000 80.202118
796.500000 80.568755
796.500000 80.936229
796.500000 81.304539
796.500000 81.673685
796.500000 82.043668
796.500000 82.414486
796.500000 82.786141
796.500000 83.158631
796.500000 83.531958
796.500000 83.906121
796.500000 84.281120
796.500000 84.656955
796.500000 85.033626
796.500000 85.411133
796.500000 85.789477
796.500000 86.168656
796.500000 86.548672
796.500000 86.929524
796.500000 87.311212
796.500000 87.693736
796.500000 88.077096
796.500000 88.461292
796.500000 88.846324
796.500000 89.232193
796.500000 89.618897
796.500000 90.006438
796.500000 90.394815
796.500000 90.784028
796.500000 91.174077
796.500000 91.564962
796.500000 91.956684
796.500000 92.349241
796.500000 92.742634
796.500000 93.136864
796.500000 93.531930
796.500000 93.927832
796.500000 94.324570
796.500000 94.722144
796.500000 95.120554
796.500000 95.519801
796.500000 95.919883
796.500000 96.320802
796.500000 96.722557
796.500000 97.125147
796.500000 97.528574
796.500000 97.932837
796.500000 98.337937
796.500000 98.743872
796.500000 99.150643
796.500000 99.558251
796.500000 99.966695
796.500000 100.375974
796.500000 100.786090
796.500000 101.197042
796.500000 101.608831
796.500000 102.021455
796.500000 102.434915
796.500000 102.849212
796.500000 103.264344
796.500000 103.680313
796.500000 104.097118
796.500000 104.514759
796.500000 104.933236
796.500000 105.352549
796.500000 105.772699
796.500000 106.193684
796.500000 106.615506
796.500000 107.038163
796.500000 107.461657
796.500000 107.885987
796.500000 108.311153
796.500000 108.737155
796.500000 109.163993
796.500000 109.591668
796.500000 110.020178
796.500000 110.449525
796.500000 110.879708
796.500000 111.310727
796.500000 111.742582
796.500000 112.175273
796.500000 112.608800
796.500000 113.043163
796.500000 113.478363
796.500000 113.914398
796.500000 114.351270
796.500000 114.788978
796.500000 115.227522
796.500000 115.666902
796.500000 116.107118
796.500000 116.548170
796.500000 116.990059
796.500000 117.432783
796.500000 117.876344
796.500000 118.320740
796.500000 118.765973
796.500000 119.212042
796.500000 119.658947
796.500000 120.106689
796.500000 120.555266
796.500000 121.004679
796.500000 121.454929
796.500000 121.906015
796.500000 122.357937
796.500000 122.810695
796.500000 123.264289
796.500000 123.718719
796.500000 124.173985
796.500000 124.630087
796.500000 125.087026
796.500000 125.544801
796.500000 126.003411
796.500000 126.462858
796.500000 126.923141
796.500000 127.384260
796.500000 127.846216
796.500000 128.309007
796.500000 128.772634
796.500000 129.237098
796.500000 129.702398
796.500000 130.168534
796.500000 130.635505
796.500000 131.103314
796.500000 131.571958
796.500000 132.041438
796.500000 132.511754
796.500000 132.982907
796.500000 133.454896
796.500000 133.927720
796.500000 134.401381
796.500000 134.875878
796.500000 135.351211
796.500000 135.827381
796.500000 136.304386
796.500000 136.782227
796.500000 137.260905
796.500000 137.740419
796.500000 138.220769
796.500000 138.701955
796.500000 139.183977
796.500000 139.666835
796.500000 140.150529
796.500000 140.635060
796.500000 141.120426
796.500000 141.606629
796.500000 142.093668
796.500000 142.581542
796.500000 143.070253
796.500000 143.559801
796.500000 144.050184
796.500000 144.541403
796.500000 145.033459
796.500000 145.526350
796.500000 146.020078
796.500000 146.514642
796.500000 147.010042
796.500000 147.506278
796.500000 148.003350
796.500000 148.501258
796.500000 149.000003
796.500000 149.499583
796.500000 150.000000
</POINTS>
</NEKTAR>

