<?xml version="1.0" encoding="utf-8" ?>
<NEKTAR>
<POINTS DIM="2" FIELDS="">
188.500000 0.000000
188.500000 0.000418
188.500000 0.001672
188.500000 0.003763
188.500000 0.006689
188.500000 0.010451
188.500000 0.015050
188.500000 0.020485
188.500000 0.026756
188.500000 0.033863
188.500000 0.041806
188.500000 0.050585
188.500000 0.060201
188.500000 0.070652
188.500000 0.081940
188.500000 0.094063
188.500000 0.107023
188.500000 0.120819
188.500000 0.135451
188.500000 0.150919
188.500000 0.167224
188.500000 0.184364
188.500000 0.202341
188.500000 0.221153
188.500000 0.240802
188.500000 0.261287
188.500000 0.282608
188.500000 0.304765
188.500000 0.327758
188.500000 0.351588
188.500000 0.376253
188.500000 0.401755
188.500000 0.428092
188.500000 0.455266
188.500000 0.483276
188.500000 0.512122
188.500000 0.541805
188.500000 0.572323
188.500000 0.603677
188.500000 0.635868
188.500000 0.668894
188.500000 0.702757
188.500000 0.737456
188.500000 0.772991
188.500000 0.809362
188.500000 0.846570
188.500000 0.884613
188.500000 0.923492
188.500000 0.963208
188.500000 1.003760
188.500000 1.045148
188.500000 1.087372
188.500000 1.130432
188.500000 1.174328
188.500000 1.219060
188.500000 1.264629
188.500000 1.311033
188.500000 1.358274
188.500000 1.406351
188.500000 1.455264
188.500000 1.505013
188.500000 1.555598
188.500000 1.607019
188.500000 1.659276
188.500000 1.712370
188.500000 1.766299
188.500000 1.821065
188.500000 1.876667
188.500000 1.933105
188.500000 1.990379
188.500000 2.048489
188.500000 2.107436
188.500000 2.167218
188.500000 2.227837
188.500000 2.289291
188.500000 2.351582
188.500000 2.414709
188.500000 2.478672
188.500000 2.543471
188.500000 2.609106
188.500000 2.675578
188.500000 2.742885
188.500000 2.811029
188.500000 2.880009
188.500000 2.949825
188.500000 3.020477
188.500000 3.091965
188.500000 3.164289
188.500000 3.237449
188.500000 3.311446
188.500000 3.386278
188.500000 3.461947
188.500000 3.538452
188.500000 3.615793
188.500000 3.693970
188.500000 3.772983
188.500000 3.852832
188.500000 3.933517
188.500000 4.015039
188.500000 4.097397
188.500000 4.180590
188.500000 4.264620
188.500000 4.349486
188.500000 4.435188
188.500000 4.521727
188.500000 4.609101
188.500000 4.697311
188.500000 4.786358
188.500000 4.876241
188.500000 4.966959
188.500000 5.058514
188.500000 5.150905
188.500000 5.244133
188.500000 5.338196
188.500000 5.433095
188.500000 5.528831
188.500000 5.625402
188.500000 5.722810
188.500000 5.821054
188.500000 5.920134
188.500000 6.020050
188.500000 6.120802
188.500000 6.222391
188.500000 6.324815
188.500000 6.428076
188.500000 6.532172
188.500000 6.637105
188.500000 6.742874
188.500000 6.849479
188.500000 6.956920
188.500000 7.065198
188.500000 7.174311
188.500000 7.284261
188.500000 7.395046
188.500000 7.506668
188.500000 7.619126
188.500000 7.732420
188.500000 7.846550
188.500000 7.961516
188.500000 8.077319
188.500000 8.193957
188.500000 8.311432
188.500000 8.429742
188.500000 8.548889
188.500000 8.668872
188.500000 8.789691
188.500000 8.911346
188.500000 9.033838
188.500000 9.157165
188.500000 9.281329
188.500000 9.406328
188.500000 9.532164
188.500000 9.658836
188.500000 9.786344
188.500000 9.914688
188.500000 10.043868
188.500000 10.173885
188.500000 10.304737
188.500000 10.436426
188.500000 10.568950
188.500000 10.702311
188.500000 10.836508
188.500000 10.971541
188.500000 11.107411
188.500000 11.244116
188.500000 11.381657
188.500000 11.520035
188.500000 11.659248
188.500000 11.799298
188.500000 11.940184
188.500000 12.081906
188.500000 12.224464
188.500000 12.367859
188.500000 12.512089
188.500000 12.657155
188.500000 12.803058
188.500000 12.949797
188.500000 13.097372
188.500000 13.245782
188.500000 13.395030
188.500000 13.545113
188.500000 13.696032
188.500000 13.847787
188.500000 14.000379
188.500000 14.153807
188.500000 14.308070
188.500000 14.463170
188.500000 14.619106
188.500000 14.775879
188.500000 14.933487
188.500000 15.091931
188.500000 15.251212
188.500000 15.411328
188.500000 15.572281
188.500000 15.734070
188.500000 15.896695
188.500000 16.060156
188.500000 16.224453
188.500000 16.389586
188.500000 16.555556
188.500000 16.722361
188.500000 16.890003
188.500000 17.058481
188.500000 17.227795
188.500000 17.397945
188.500000 17.568931
188.500000 17.740753
188.500000 17.913412
188.500000 18.086906
188.500000 18.261237
188.500000 18.436403
188.500000 18.612406
188.500000 18.789245
188.500000 18.966920
188.500000 19.145432
188.500000 19.324779
188.500000 19.504962
188.500000 19.685982
188.500000 19.867838
188.500000 20.050529
188.500000 20.234057
188.500000 20.418421
188.500000 20.603622
188.500000 20.789658
188.500000 20.976530
188.500000 21.164239
188.500000 21.352783
188.500000 21.542164
188.500000 21.732381
188.500000 21.923434
188.500000 22.115323
188.500000 22.308048
188.500000 22.501610
188.500000 22.696007
188.500000 22.891241
188.500000 23.087310
188.500000 23.284216
188.500000 23.481958
188.500000 23.680536
188.500000 23.879950
188.500000 24.080200
188.500000 24.281287
188.500000 24.483209
188.500000 24.685968
188.500000 24.889563
188.500000 25.093994
188.500000 25.299261
188.500000 25.505364
188.500000 25.712303
188.500000 25.920078
188.500000 26.128690
188.500000 26.338137
188.500000 26.548421
188.500000 26.759541
188.500000 26.971497
188.500000 27.184289
188.500000 27.397917
188.500000 27.612381
188.500000 27.827682
188.500000 28.043818
188.500000 28.260791
188.500000 28.478600
188.500000 28.697244
188.500000 28.916725
188.500000 29.137043
188.500000 29.358196
188.500000 29.580185
188.500000 29.803011
188.500000 30.026672
188.500000 30.251170
188.500000 30.476504
188.500000 30.702674
188.500000 30.929680
188.500000 31.157522
188.500000 31.386200
188.500000 31.615715
188.500000 31.846065
188.500000 32.077252
188.500000 32.309275
188.500000 32.542133
188.500000 32.775828
188.500000 33.010360
188.500000 33.245727
188.500000 33.481930
188.500000 33.718970
188.500000 33.956845
188.500000 34.195557
188.500000 34.435105
188.500000 34.675489
188.500000 34.916709
188.500000 35.158765
188.500000 35.401657
188.500000 35.645386
188.500000 35.889950
188.500000 36.135351
188.500000 36.381588
188.500000 36.628660
188.500000 36.876569
188.500000 37.125315
188.500000 37.374896
188.500000 37.625313
188.500000 37.876567
188.500000 38.128656
188.500000 38.381582
188.500000 38.635344
188.500000 38.889942
188.500000 39.145376
188.500000 39.401646
188.500000 39.658752
188.500000 39.916695
188.500000 40.175473
188.500000 40.435088
188.500000 40.695539
188.500000 40.956826
188.500000 41.218949
188.500000 41.481908
188.500000 41.745703
188.500000 42.010334
188.500000 42.275802
188.500000 42.542106
188.500000 42.809245
188.500000 43.077221
188.500000 43.346033
188.500000 43.615681
188.500000 43.886165
188.500000 44.157486
188.500000 44.429642
188.500000 44.702635
188.500000 44.976463
188.500000 45.251128
188.500000 45.526629
188.500000 45.802966
188.500000 46.080139
188.500000 46.358148
188.500000 46.636994
188.500000 46.916675
188.500000 47.197193
188.500000 47.478547
188.500000 47.760736
188.500000 48.043762
188.500000 48.327625
188.500000 48.612323
188.500000 48.897857
188.500000 49.184227
188.500000 49.471434
188.500000 49.759477
188.500000 50.048355
188.500000 50.338070
188.500000 50.628621
188.500000 50.920009
188.500000 51.212232
188.500000 51.505291
188.500000 51.799187
188.500000 52.093918
188.500000 52.389486
188.500000 52.685890
188.500000 52.983130
188.500000 53.281206
188.500000 53.580118
188.500000 53.879867
188.500000 54.180451
188.500000 54.481872
188.500000 54.784128
188.500000 55.087221
188.500000 55.391150
188.500000 55.695915
188.500000 56.001516
188.500000 56.307953
188.500000 56.615227
188.500000 56.923336
188.500000 57.232282
188.500000 57.542064
188.500000 57.852682
188.500000 58.164136
188.500000 58.476426
188.500000 58.789552
188.500000 59.103514
188.500000 59.418313
188.500000 59.733947
188.500000 60.050418
188.500000 60.367725
188.500000 60.685868
188.500000 61.004847
188.500000 61.324662
188.500000 61.645313
188.500000 61.966801
188.500000 62.289124
188.500000 62.612284
188.500000 62.936279
188.500000 63.261111
188.500000 63.586779
188.500000 63.913283
188.500000 64.240624
188.500000 64.568800
188.500000 64.897812
188.500000 65.227661
188.500000 65.558346
188.500000 65.889867
188.500000 66.222223
188.500000 66.555417
188.500000 66.889446
188.500000 67.224311
188.500000 67.560012
188.500000 67.896550
188.500000 68.233924
188.500000 68.572133
188.500000 68.911179
188.500000 69.251061
188.500000 69.591779
188.500000 69.933334
188.500000 70.275724
188.500000 70.618950
188.500000 70.963013
188.500000 71.307912
188.500000 71.653646
188.500000 72.000217
188.500000 72.347624
188.500000 72.695868
188.500000 73.044947
188.500000 73.394862
188.500000 73.745614
188.500000 74.097202
188.500000 74.449625
188.500000 74.802885
188.500000 75.156981
188.500000 75.511913
188.500000 75.867682
188.500000 76.224286
188.500000 76.581726
188.500000 76.940003
188.500000 77.299116
188.500000 77.659064
188.500000 78.019849
188.500000 78.381471
188.500000 78.743928
188.500000 79.107221
188.500000 79.471350
188.500000 79.836316
188.500000 80.202118
188.500000 80.568755
188.500000 80.936229
188.500000 81.304539
188.500000 81.673685
188.500000 82.043668
188.500000 82.414486
188.500000 82.786141
188.500000 83.158631
188.500000 83.531958
188.500000 83.906121
188.500000 84.281120
188.500000 84.656955
188.500000 85.033626
188.500000 85.411133
188.500000 85.789477
188.500000 86.168656
188.500000 86.548672
188.500000 86.929524
188.500000 87.311212
188.500000 87.693736
188.500000 88.077096
188.500000 88.461292
188.500000 88.846324
188.500000 89.232193
188.500000 89.618897
188.500000 90.006438
188.500000 90.394815
188.500000 90.784028
188.500000 91.174077
188.500000 91.564962
188.500000 91.956684
188.500000 92.349241
188.500000 92.742634
188.500000 93.136864
188.500000 93.531930
188.500000 93.927832
188.500000 94.324570
188.500000 94.722144
188.500000 95.120554
188.500000 95.519801
188.500000 95.919883
188.500000 96.320802
188.500000 96.722557
188.500000 97.125147
188.500000 97.528574
188.500000 97.932837
188.500000 98.337937
188.500000 98.743872
188.500000 99.150643
188.500000 99.558251
188.500000 99.966695
188.500000 100.375974
188.500000 100.786090
188.500000 101.197042
188.500000 101.608831
188.500000 102.021455
188.500000 102.434915
188.500000 102.849212
188.500000 103.264344
188.500000 103.680313
188.500000 104.097118
188.500000 104.514759
188.500000 104.933236
188.500000 105.352549
188.500000 105.772699
188.500000 106.193684
188.500000 106.615506
188.500000 107.038163
188.500000 107.461657
188.500000 107.885987
188.500000 108.311153
188.500000 108.737155
188.500000 109.163993
188.500000 109.591668
188.500000 110.020178
188.500000 110.449525
188.500000 110.879708
188.500000 111.310727
188.500000 111.742582
188.500000 112.175273
188.500000 112.608800
188.500000 113.043163
188.500000 113.478363
188.500000 113.914398
188.500000 114.351270
188.500000 114.788978
188.500000 115.227522
188.500000 115.666902
188.500000 116.107118
188.500000 116.548170
188.500000 116.990059
188.500000 117.432783
188.500000 117.876344
188.500000 118.320740
188.500000 118.765973
188.500000 119.212042
188.500000 119.658947
188.500000 120.106689
188.500000 120.555266
188.500000 121.004679
188.500000 121.454929
188.500000 121.906015
188.500000 122.357937
188.500000 122.810695
188.500000 123.264289
188.500000 123.718719
188.500000 124.173985
188.500000 124.630087
188.500000 125.087026
188.500000 125.544801
188.500000 126.003411
188.500000 126.462858
188.500000 126.923141
188.500000 127.384260
188.500000 127.846216
188.500000 128.309007
188.500000 128.772634
188.500000 129.237098
188.500000 129.702398
188.500000 130.168534
188.500000 130.635505
188.500000 131.103314
188.500000 131.571958
188.500000 132.041438
188.500000 132.511754
188.500000 132.982907
188.500000 133.454896
188.500000 133.927720
188.500000 134.401381
188.500000 134.875878
188.500000 135.351211
188.500000 135.827381
188.500000 136.304386
188.500000 136.782227
188.500000 137.260905
188.500000 137.740419
188.500000 138.220769
188.500000 138.701955
188.500000 139.183977
188.500000 139.666835
188.500000 140.150529
188.500000 140.635060
188.500000 141.120426
188.500000 141.606629
188.500000 142.093668
188.500000 142.581542
188.500000 143.070253
188.500000 143.559801
188.500000 144.050184
188.500000 144.541403
188.500000 145.033459
188.500000 145.526350
188.500000 146.020078
188.500000 146.514642
188.500000 147.010042
188.500000 147.506278
188.500000 148.003350
188.500000 148.501258
188.500000 149.000003
188.500000 149.499583
188.500000 150.000000
</POINTS>
</NEKTAR>

