<?xml version="1.0" encoding="utf-8" ?>
<NEKTAR>
<POINTS DIM="2" FIELDS="">
818.500000 0.000000
818.500000 0.000418
818.500000 0.001672
818.500000 0.003763
818.500000 0.006689
818.500000 0.010451
818.500000 0.015050
818.500000 0.020485
818.500000 0.026756
818.500000 0.033863
818.500000 0.041806
818.500000 0.050585
818.500000 0.060201
818.500000 0.070652
818.500000 0.081940
818.500000 0.094063
818.500000 0.107023
818.500000 0.120819
818.500000 0.135451
818.500000 0.150919
818.500000 0.167224
818.500000 0.184364
818.500000 0.202341
818.500000 0.221153
818.500000 0.240802
818.500000 0.261287
818.500000 0.282608
818.500000 0.304765
818.500000 0.327758
818.500000 0.351588
818.500000 0.376253
818.500000 0.401755
818.500000 0.428092
818.500000 0.455266
818.500000 0.483276
818.500000 0.512122
818.500000 0.541805
818.500000 0.572323
818.500000 0.603677
818.500000 0.635868
818.500000 0.668894
818.500000 0.702757
818.500000 0.737456
818.500000 0.772991
818.500000 0.809362
818.500000 0.846570
818.500000 0.884613
818.500000 0.923492
818.500000 0.963208
818.500000 1.003760
818.500000 1.045148
818.500000 1.087372
818.500000 1.130432
818.500000 1.174328
818.500000 1.219060
818.500000 1.264629
818.500000 1.311033
818.500000 1.358274
818.500000 1.406351
818.500000 1.455264
818.500000 1.505013
818.500000 1.555598
818.500000 1.607019
818.500000 1.659276
818.500000 1.712370
818.500000 1.766299
818.500000 1.821065
818.500000 1.876667
818.500000 1.933105
818.500000 1.990379
818.500000 2.048489
818.500000 2.107436
818.500000 2.167218
818.500000 2.227837
818.500000 2.289291
818.500000 2.351582
818.500000 2.414709
818.500000 2.478672
818.500000 2.543471
818.500000 2.609106
818.500000 2.675578
818.500000 2.742885
818.500000 2.811029
818.500000 2.880009
818.500000 2.949825
818.500000 3.020477
818.500000 3.091965
818.500000 3.164289
818.500000 3.237449
818.500000 3.311446
818.500000 3.386278
818.500000 3.461947
818.500000 3.538452
818.500000 3.615793
818.500000 3.693970
818.500000 3.772983
818.500000 3.852832
818.500000 3.933517
818.500000 4.015039
818.500000 4.097397
818.500000 4.180590
818.500000 4.264620
818.500000 4.349486
818.500000 4.435188
818.500000 4.521727
818.500000 4.609101
818.500000 4.697311
818.500000 4.786358
818.500000 4.876241
818.500000 4.966959
818.500000 5.058514
818.500000 5.150905
818.500000 5.244133
818.500000 5.338196
818.500000 5.433095
818.500000 5.528831
818.500000 5.625402
818.500000 5.722810
818.500000 5.821054
818.500000 5.920134
818.500000 6.020050
818.500000 6.120802
818.500000 6.222391
818.500000 6.324815
818.500000 6.428076
818.500000 6.532172
818.500000 6.637105
818.500000 6.742874
818.500000 6.849479
818.500000 6.956920
818.500000 7.065198
818.500000 7.174311
818.500000 7.284261
818.500000 7.395046
818.500000 7.506668
818.500000 7.619126
818.500000 7.732420
818.500000 7.846550
818.500000 7.961516
818.500000 8.077319
818.500000 8.193957
818.500000 8.311432
818.500000 8.429742
818.500000 8.548889
818.500000 8.668872
818.500000 8.789691
818.500000 8.911346
818.500000 9.033838
818.500000 9.157165
818.500000 9.281329
818.500000 9.406328
818.500000 9.532164
818.500000 9.658836
818.500000 9.786344
818.500000 9.914688
818.500000 10.043868
818.500000 10.173885
818.500000 10.304737
818.500000 10.436426
818.500000 10.568950
818.500000 10.702311
818.500000 10.836508
818.500000 10.971541
818.500000 11.107411
818.500000 11.244116
818.500000 11.381657
818.500000 11.520035
818.500000 11.659248
818.500000 11.799298
818.500000 11.940184
818.500000 12.081906
818.500000 12.224464
818.500000 12.367859
818.500000 12.512089
818.500000 12.657155
818.500000 12.803058
818.500000 12.949797
818.500000 13.097372
818.500000 13.245782
818.500000 13.395030
818.500000 13.545113
818.500000 13.696032
818.500000 13.847787
818.500000 14.000379
818.500000 14.153807
818.500000 14.308070
818.500000 14.463170
818.500000 14.619106
818.500000 14.775879
818.500000 14.933487
818.500000 15.091931
818.500000 15.251212
818.500000 15.411328
818.500000 15.572281
818.500000 15.734070
818.500000 15.896695
818.500000 16.060156
818.500000 16.224453
818.500000 16.389586
818.500000 16.555556
818.500000 16.722361
818.500000 16.890003
818.500000 17.058481
818.500000 17.227795
818.500000 17.397945
818.500000 17.568931
818.500000 17.740753
818.500000 17.913412
818.500000 18.086906
818.500000 18.261237
818.500000 18.436403
818.500000 18.612406
818.500000 18.789245
818.500000 18.966920
818.500000 19.145432
818.500000 19.324779
818.500000 19.504962
818.500000 19.685982
818.500000 19.867838
818.500000 20.050529
818.500000 20.234057
818.500000 20.418421
818.500000 20.603622
818.500000 20.789658
818.500000 20.976530
818.500000 21.164239
818.500000 21.352783
818.500000 21.542164
818.500000 21.732381
818.500000 21.923434
818.500000 22.115323
818.500000 22.308048
818.500000 22.501610
818.500000 22.696007
818.500000 22.891241
818.500000 23.087310
818.500000 23.284216
818.500000 23.481958
818.500000 23.680536
818.500000 23.879950
818.500000 24.080200
818.500000 24.281287
818.500000 24.483209
818.500000 24.685968
818.500000 24.889563
818.500000 25.093994
818.500000 25.299261
818.500000 25.505364
818.500000 25.712303
818.500000 25.920078
818.500000 26.128690
818.500000 26.338137
818.500000 26.548421
818.500000 26.759541
818.500000 26.971497
818.500000 27.184289
818.500000 27.397917
818.500000 27.612381
818.500000 27.827682
818.500000 28.043818
818.500000 28.260791
818.500000 28.478600
818.500000 28.697244
818.500000 28.916725
818.500000 29.137043
818.500000 29.358196
818.500000 29.580185
818.500000 29.803011
818.500000 30.026672
818.500000 30.251170
818.500000 30.476504
818.500000 30.702674
818.500000 30.929680
818.500000 31.157522
818.500000 31.386200
818.500000 31.615715
818.500000 31.846065
818.500000 32.077252
818.500000 32.309275
818.500000 32.542133
818.500000 32.775828
818.500000 33.010360
818.500000 33.245727
818.500000 33.481930
818.500000 33.718970
818.500000 33.956845
818.500000 34.195557
818.500000 34.435105
818.500000 34.675489
818.500000 34.916709
818.500000 35.158765
818.500000 35.401657
818.500000 35.645386
818.500000 35.889950
818.500000 36.135351
818.500000 36.381588
818.500000 36.628660
818.500000 36.876569
818.500000 37.125315
818.500000 37.374896
818.500000 37.625313
818.500000 37.876567
818.500000 38.128656
818.500000 38.381582
818.500000 38.635344
818.500000 38.889942
818.500000 39.145376
818.500000 39.401646
818.500000 39.658752
818.500000 39.916695
818.500000 40.175473
818.500000 40.435088
818.500000 40.695539
818.500000 40.956826
818.500000 41.218949
818.500000 41.481908
818.500000 41.745703
818.500000 42.010334
818.500000 42.275802
818.500000 42.542106
818.500000 42.809245
818.500000 43.077221
818.500000 43.346033
818.500000 43.615681
818.500000 43.886165
818.500000 44.157486
818.500000 44.429642
818.500000 44.702635
818.500000 44.976463
818.500000 45.251128
818.500000 45.526629
818.500000 45.802966
818.500000 46.080139
818.500000 46.358148
818.500000 46.636994
818.500000 46.916675
818.500000 47.197193
818.500000 47.478547
818.500000 47.760736
818.500000 48.043762
818.500000 48.327625
818.500000 48.612323
818.500000 48.897857
818.500000 49.184227
818.500000 49.471434
818.500000 49.759477
818.500000 50.048355
818.500000 50.338070
818.500000 50.628621
818.500000 50.920009
818.500000 51.212232
818.500000 51.505291
818.500000 51.799187
818.500000 52.093918
818.500000 52.389486
818.500000 52.685890
818.500000 52.983130
818.500000 53.281206
818.500000 53.580118
818.500000 53.879867
818.500000 54.180451
818.500000 54.481872
818.500000 54.784128
818.500000 55.087221
818.500000 55.391150
818.500000 55.695915
818.500000 56.001516
818.500000 56.307953
818.500000 56.615227
818.500000 56.923336
818.500000 57.232282
818.500000 57.542064
818.500000 57.852682
818.500000 58.164136
818.500000 58.476426
818.500000 58.789552
818.500000 59.103514
818.500000 59.418313
818.500000 59.733947
818.500000 60.050418
818.500000 60.367725
818.500000 60.685868
818.500000 61.004847
818.500000 61.324662
818.500000 61.645313
818.500000 61.966801
818.500000 62.289124
818.500000 62.612284
818.500000 62.936279
818.500000 63.261111
818.500000 63.586779
818.500000 63.913283
818.500000 64.240624
818.500000 64.568800
818.500000 64.897812
818.500000 65.227661
818.500000 65.558346
818.500000 65.889867
818.500000 66.222223
818.500000 66.555417
818.500000 66.889446
818.500000 67.224311
818.500000 67.560012
818.500000 67.896550
818.500000 68.233924
818.500000 68.572133
818.500000 68.911179
818.500000 69.251061
818.500000 69.591779
818.500000 69.933334
818.500000 70.275724
818.500000 70.618950
818.500000 70.963013
818.500000 71.307912
818.500000 71.653646
818.500000 72.000217
818.500000 72.347624
818.500000 72.695868
818.500000 73.044947
818.500000 73.394862
818.500000 73.745614
818.500000 74.097202
818.500000 74.449625
818.500000 74.802885
818.500000 75.156981
818.500000 75.511913
818.500000 75.867682
818.500000 76.224286
818.500000 76.581726
818.500000 76.940003
818.500000 77.299116
818.500000 77.659064
818.500000 78.019849
818.500000 78.381471
818.500000 78.743928
818.500000 79.107221
818.500000 79.471350
818.500000 79.836316
818.500000 80.202118
818.500000 80.568755
818.500000 80.936229
818.500000 81.304539
818.500000 81.673685
818.500000 82.043668
818.500000 82.414486
818.500000 82.786141
818.500000 83.158631
818.500000 83.531958
818.500000 83.906121
818.500000 84.281120
818.500000 84.656955
818.500000 85.033626
818.500000 85.411133
818.500000 85.789477
818.500000 86.168656
818.500000 86.548672
818.500000 86.929524
818.500000 87.311212
818.500000 87.693736
818.500000 88.077096
818.500000 88.461292
818.500000 88.846324
818.500000 89.232193
818.500000 89.618897
818.500000 90.006438
818.500000 90.394815
818.500000 90.784028
818.500000 91.174077
818.500000 91.564962
818.500000 91.956684
818.500000 92.349241
818.500000 92.742634
818.500000 93.136864
818.500000 93.531930
818.500000 93.927832
818.500000 94.324570
818.500000 94.722144
818.500000 95.120554
818.500000 95.519801
818.500000 95.919883
818.500000 96.320802
818.500000 96.722557
818.500000 97.125147
818.500000 97.528574
818.500000 97.932837
818.500000 98.337937
818.500000 98.743872
818.500000 99.150643
818.500000 99.558251
818.500000 99.966695
818.500000 100.375974
818.500000 100.786090
818.500000 101.197042
818.500000 101.608831
818.500000 102.021455
818.500000 102.434915
818.500000 102.849212
818.500000 103.264344
818.500000 103.680313
818.500000 104.097118
818.500000 104.514759
818.500000 104.933236
818.500000 105.352549
818.500000 105.772699
818.500000 106.193684
818.500000 106.615506
818.500000 107.038163
818.500000 107.461657
818.500000 107.885987
818.500000 108.311153
818.500000 108.737155
818.500000 109.163993
818.500000 109.591668
818.500000 110.020178
818.500000 110.449525
818.500000 110.879708
818.500000 111.310727
818.500000 111.742582
818.500000 112.175273
818.500000 112.608800
818.500000 113.043163
818.500000 113.478363
818.500000 113.914398
818.500000 114.351270
818.500000 114.788978
818.500000 115.227522
818.500000 115.666902
818.500000 116.107118
818.500000 116.548170
818.500000 116.990059
818.500000 117.432783
818.500000 117.876344
818.500000 118.320740
818.500000 118.765973
818.500000 119.212042
818.500000 119.658947
818.500000 120.106689
818.500000 120.555266
818.500000 121.004679
818.500000 121.454929
818.500000 121.906015
818.500000 122.357937
818.500000 122.810695
818.500000 123.264289
818.500000 123.718719
818.500000 124.173985
818.500000 124.630087
818.500000 125.087026
818.500000 125.544801
818.500000 126.003411
818.500000 126.462858
818.500000 126.923141
818.500000 127.384260
818.500000 127.846216
818.500000 128.309007
818.500000 128.772634
818.500000 129.237098
818.500000 129.702398
818.500000 130.168534
818.500000 130.635505
818.500000 131.103314
818.500000 131.571958
818.500000 132.041438
818.500000 132.511754
818.500000 132.982907
818.500000 133.454896
818.500000 133.927720
818.500000 134.401381
818.500000 134.875878
818.500000 135.351211
818.500000 135.827381
818.500000 136.304386
818.500000 136.782227
818.500000 137.260905
818.500000 137.740419
818.500000 138.220769
818.500000 138.701955
818.500000 139.183977
818.500000 139.666835
818.500000 140.150529
818.500000 140.635060
818.500000 141.120426
818.500000 141.606629
818.500000 142.093668
818.500000 142.581542
818.500000 143.070253
818.500000 143.559801
818.500000 144.050184
818.500000 144.541403
818.500000 145.033459
818.500000 145.526350
818.500000 146.020078
818.500000 146.514642
818.500000 147.010042
818.500000 147.506278
818.500000 148.003350
818.500000 148.501258
818.500000 149.000003
818.500000 149.499583
818.500000 150.000000
</POINTS>
</NEKTAR>

