<?xml version="1.0" encoding="utf-8" ?>
<NEKTAR>
<POINTS DIM="2" FIELDS="">
619.500000 0.000000
619.500000 0.000418
619.500000 0.001672
619.500000 0.003763
619.500000 0.006689
619.500000 0.010451
619.500000 0.015050
619.500000 0.020485
619.500000 0.026756
619.500000 0.033863
619.500000 0.041806
619.500000 0.050585
619.500000 0.060201
619.500000 0.070652
619.500000 0.081940
619.500000 0.094063
619.500000 0.107023
619.500000 0.120819
619.500000 0.135451
619.500000 0.150919
619.500000 0.167224
619.500000 0.184364
619.500000 0.202341
619.500000 0.221153
619.500000 0.240802
619.500000 0.261287
619.500000 0.282608
619.500000 0.304765
619.500000 0.327758
619.500000 0.351588
619.500000 0.376253
619.500000 0.401755
619.500000 0.428092
619.500000 0.455266
619.500000 0.483276
619.500000 0.512122
619.500000 0.541805
619.500000 0.572323
619.500000 0.603677
619.500000 0.635868
619.500000 0.668894
619.500000 0.702757
619.500000 0.737456
619.500000 0.772991
619.500000 0.809362
619.500000 0.846570
619.500000 0.884613
619.500000 0.923492
619.500000 0.963208
619.500000 1.003760
619.500000 1.045148
619.500000 1.087372
619.500000 1.130432
619.500000 1.174328
619.500000 1.219060
619.500000 1.264629
619.500000 1.311033
619.500000 1.358274
619.500000 1.406351
619.500000 1.455264
619.500000 1.505013
619.500000 1.555598
619.500000 1.607019
619.500000 1.659276
619.500000 1.712370
619.500000 1.766299
619.500000 1.821065
619.500000 1.876667
619.500000 1.933105
619.500000 1.990379
619.500000 2.048489
619.500000 2.107436
619.500000 2.167218
619.500000 2.227837
619.500000 2.289291
619.500000 2.351582
619.500000 2.414709
619.500000 2.478672
619.500000 2.543471
619.500000 2.609106
619.500000 2.675578
619.500000 2.742885
619.500000 2.811029
619.500000 2.880009
619.500000 2.949825
619.500000 3.020477
619.500000 3.091965
619.500000 3.164289
619.500000 3.237449
619.500000 3.311446
619.500000 3.386278
619.500000 3.461947
619.500000 3.538452
619.500000 3.615793
619.500000 3.693970
619.500000 3.772983
619.500000 3.852832
619.500000 3.933517
619.500000 4.015039
619.500000 4.097397
619.500000 4.180590
619.500000 4.264620
619.500000 4.349486
619.500000 4.435188
619.500000 4.521727
619.500000 4.609101
619.500000 4.697311
619.500000 4.786358
619.500000 4.876241
619.500000 4.966959
619.500000 5.058514
619.500000 5.150905
619.500000 5.244133
619.500000 5.338196
619.500000 5.433095
619.500000 5.528831
619.500000 5.625402
619.500000 5.722810
619.500000 5.821054
619.500000 5.920134
619.500000 6.020050
619.500000 6.120802
619.500000 6.222391
619.500000 6.324815
619.500000 6.428076
619.500000 6.532172
619.500000 6.637105
619.500000 6.742874
619.500000 6.849479
619.500000 6.956920
619.500000 7.065198
619.500000 7.174311
619.500000 7.284261
619.500000 7.395046
619.500000 7.506668
619.500000 7.619126
619.500000 7.732420
619.500000 7.846550
619.500000 7.961516
619.500000 8.077319
619.500000 8.193957
619.500000 8.311432
619.500000 8.429742
619.500000 8.548889
619.500000 8.668872
619.500000 8.789691
619.500000 8.911346
619.500000 9.033838
619.500000 9.157165
619.500000 9.281329
619.500000 9.406328
619.500000 9.532164
619.500000 9.658836
619.500000 9.786344
619.500000 9.914688
619.500000 10.043868
619.500000 10.173885
619.500000 10.304737
619.500000 10.436426
619.500000 10.568950
619.500000 10.702311
619.500000 10.836508
619.500000 10.971541
619.500000 11.107411
619.500000 11.244116
619.500000 11.381657
619.500000 11.520035
619.500000 11.659248
619.500000 11.799298
619.500000 11.940184
619.500000 12.081906
619.500000 12.224464
619.500000 12.367859
619.500000 12.512089
619.500000 12.657155
619.500000 12.803058
619.500000 12.949797
619.500000 13.097372
619.500000 13.245782
619.500000 13.395030
619.500000 13.545113
619.500000 13.696032
619.500000 13.847787
619.500000 14.000379
619.500000 14.153807
619.500000 14.308070
619.500000 14.463170
619.500000 14.619106
619.500000 14.775879
619.500000 14.933487
619.500000 15.091931
619.500000 15.251212
619.500000 15.411328
619.500000 15.572281
619.500000 15.734070
619.500000 15.896695
619.500000 16.060156
619.500000 16.224453
619.500000 16.389586
619.500000 16.555556
619.500000 16.722361
619.500000 16.890003
619.500000 17.058481
619.500000 17.227795
619.500000 17.397945
619.500000 17.568931
619.500000 17.740753
619.500000 17.913412
619.500000 18.086906
619.500000 18.261237
619.500000 18.436403
619.500000 18.612406
619.500000 18.789245
619.500000 18.966920
619.500000 19.145432
619.500000 19.324779
619.500000 19.504962
619.500000 19.685982
619.500000 19.867838
619.500000 20.050529
619.500000 20.234057
619.500000 20.418421
619.500000 20.603622
619.500000 20.789658
619.500000 20.976530
619.500000 21.164239
619.500000 21.352783
619.500000 21.542164
619.500000 21.732381
619.500000 21.923434
619.500000 22.115323
619.500000 22.308048
619.500000 22.501610
619.500000 22.696007
619.500000 22.891241
619.500000 23.087310
619.500000 23.284216
619.500000 23.481958
619.500000 23.680536
619.500000 23.879950
619.500000 24.080200
619.500000 24.281287
619.500000 24.483209
619.500000 24.685968
619.500000 24.889563
619.500000 25.093994
619.500000 25.299261
619.500000 25.505364
619.500000 25.712303
619.500000 25.920078
619.500000 26.128690
619.500000 26.338137
619.500000 26.548421
619.500000 26.759541
619.500000 26.971497
619.500000 27.184289
619.500000 27.397917
619.500000 27.612381
619.500000 27.827682
619.500000 28.043818
619.500000 28.260791
619.500000 28.478600
619.500000 28.697244
619.500000 28.916725
619.500000 29.137043
619.500000 29.358196
619.500000 29.580185
619.500000 29.803011
619.500000 30.026672
619.500000 30.251170
619.500000 30.476504
619.500000 30.702674
619.500000 30.929680
619.500000 31.157522
619.500000 31.386200
619.500000 31.615715
619.500000 31.846065
619.500000 32.077252
619.500000 32.309275
619.500000 32.542133
619.500000 32.775828
619.500000 33.010360
619.500000 33.245727
619.500000 33.481930
619.500000 33.718970
619.500000 33.956845
619.500000 34.195557
619.500000 34.435105
619.500000 34.675489
619.500000 34.916709
619.500000 35.158765
619.500000 35.401657
619.500000 35.645386
619.500000 35.889950
619.500000 36.135351
619.500000 36.381588
619.500000 36.628660
619.500000 36.876569
619.500000 37.125315
619.500000 37.374896
619.500000 37.625313
619.500000 37.876567
619.500000 38.128656
619.500000 38.381582
619.500000 38.635344
619.500000 38.889942
619.500000 39.145376
619.500000 39.401646
619.500000 39.658752
619.500000 39.916695
619.500000 40.175473
619.500000 40.435088
619.500000 40.695539
619.500000 40.956826
619.500000 41.218949
619.500000 41.481908
619.500000 41.745703
619.500000 42.010334
619.500000 42.275802
619.500000 42.542106
619.500000 42.809245
619.500000 43.077221
619.500000 43.346033
619.500000 43.615681
619.500000 43.886165
619.500000 44.157486
619.500000 44.429642
619.500000 44.702635
619.500000 44.976463
619.500000 45.251128
619.500000 45.526629
619.500000 45.802966
619.500000 46.080139
619.500000 46.358148
619.500000 46.636994
619.500000 46.916675
619.500000 47.197193
619.500000 47.478547
619.500000 47.760736
619.500000 48.043762
619.500000 48.327625
619.500000 48.612323
619.500000 48.897857
619.500000 49.184227
619.500000 49.471434
619.500000 49.759477
619.500000 50.048355
619.500000 50.338070
619.500000 50.628621
619.500000 50.920009
619.500000 51.212232
619.500000 51.505291
619.500000 51.799187
619.500000 52.093918
619.500000 52.389486
619.500000 52.685890
619.500000 52.983130
619.500000 53.281206
619.500000 53.580118
619.500000 53.879867
619.500000 54.180451
619.500000 54.481872
619.500000 54.784128
619.500000 55.087221
619.500000 55.391150
619.500000 55.695915
619.500000 56.001516
619.500000 56.307953
619.500000 56.615227
619.500000 56.923336
619.500000 57.232282
619.500000 57.542064
619.500000 57.852682
619.500000 58.164136
619.500000 58.476426
619.500000 58.789552
619.500000 59.103514
619.500000 59.418313
619.500000 59.733947
619.500000 60.050418
619.500000 60.367725
619.500000 60.685868
619.500000 61.004847
619.500000 61.324662
619.500000 61.645313
619.500000 61.966801
619.500000 62.289124
619.500000 62.612284
619.500000 62.936279
619.500000 63.261111
619.500000 63.586779
619.500000 63.913283
619.500000 64.240624
619.500000 64.568800
619.500000 64.897812
619.500000 65.227661
619.500000 65.558346
619.500000 65.889867
619.500000 66.222223
619.500000 66.555417
619.500000 66.889446
619.500000 67.224311
619.500000 67.560012
619.500000 67.896550
619.500000 68.233924
619.500000 68.572133
619.500000 68.911179
619.500000 69.251061
619.500000 69.591779
619.500000 69.933334
619.500000 70.275724
619.500000 70.618950
619.500000 70.963013
619.500000 71.307912
619.500000 71.653646
619.500000 72.000217
619.500000 72.347624
619.500000 72.695868
619.500000 73.044947
619.500000 73.394862
619.500000 73.745614
619.500000 74.097202
619.500000 74.449625
619.500000 74.802885
619.500000 75.156981
619.500000 75.511913
619.500000 75.867682
619.500000 76.224286
619.500000 76.581726
619.500000 76.940003
619.500000 77.299116
619.500000 77.659064
619.500000 78.019849
619.500000 78.381471
619.500000 78.743928
619.500000 79.107221
619.500000 79.471350
619.500000 79.836316
619.500000 80.202118
619.500000 80.568755
619.500000 80.936229
619.500000 81.304539
619.500000 81.673685
619.500000 82.043668
619.500000 82.414486
619.500000 82.786141
619.500000 83.158631
619.500000 83.531958
619.500000 83.906121
619.500000 84.281120
619.500000 84.656955
619.500000 85.033626
619.500000 85.411133
619.500000 85.789477
619.500000 86.168656
619.500000 86.548672
619.500000 86.929524
619.500000 87.311212
619.500000 87.693736
619.500000 88.077096
619.500000 88.461292
619.500000 88.846324
619.500000 89.232193
619.500000 89.618897
619.500000 90.006438
619.500000 90.394815
619.500000 90.784028
619.500000 91.174077
619.500000 91.564962
619.500000 91.956684
619.500000 92.349241
619.500000 92.742634
619.500000 93.136864
619.500000 93.531930
619.500000 93.927832
619.500000 94.324570
619.500000 94.722144
619.500000 95.120554
619.500000 95.519801
619.500000 95.919883
619.500000 96.320802
619.500000 96.722557
619.500000 97.125147
619.500000 97.528574
619.500000 97.932837
619.500000 98.337937
619.500000 98.743872
619.500000 99.150643
619.500000 99.558251
619.500000 99.966695
619.500000 100.375974
619.500000 100.786090
619.500000 101.197042
619.500000 101.608831
619.500000 102.021455
619.500000 102.434915
619.500000 102.849212
619.500000 103.264344
619.500000 103.680313
619.500000 104.097118
619.500000 104.514759
619.500000 104.933236
619.500000 105.352549
619.500000 105.772699
619.500000 106.193684
619.500000 106.615506
619.500000 107.038163
619.500000 107.461657
619.500000 107.885987
619.500000 108.311153
619.500000 108.737155
619.500000 109.163993
619.500000 109.591668
619.500000 110.020178
619.500000 110.449525
619.500000 110.879708
619.500000 111.310727
619.500000 111.742582
619.500000 112.175273
619.500000 112.608800
619.500000 113.043163
619.500000 113.478363
619.500000 113.914398
619.500000 114.351270
619.500000 114.788978
619.500000 115.227522
619.500000 115.666902
619.500000 116.107118
619.500000 116.548170
619.500000 116.990059
619.500000 117.432783
619.500000 117.876344
619.500000 118.320740
619.500000 118.765973
619.500000 119.212042
619.500000 119.658947
619.500000 120.106689
619.500000 120.555266
619.500000 121.004679
619.500000 121.454929
619.500000 121.906015
619.500000 122.357937
619.500000 122.810695
619.500000 123.264289
619.500000 123.718719
619.500000 124.173985
619.500000 124.630087
619.500000 125.087026
619.500000 125.544801
619.500000 126.003411
619.500000 126.462858
619.500000 126.923141
619.500000 127.384260
619.500000 127.846216
619.500000 128.309007
619.500000 128.772634
619.500000 129.237098
619.500000 129.702398
619.500000 130.168534
619.500000 130.635505
619.500000 131.103314
619.500000 131.571958
619.500000 132.041438
619.500000 132.511754
619.500000 132.982907
619.500000 133.454896
619.500000 133.927720
619.500000 134.401381
619.500000 134.875878
619.500000 135.351211
619.500000 135.827381
619.500000 136.304386
619.500000 136.782227
619.500000 137.260905
619.500000 137.740419
619.500000 138.220769
619.500000 138.701955
619.500000 139.183977
619.500000 139.666835
619.500000 140.150529
619.500000 140.635060
619.500000 141.120426
619.500000 141.606629
619.500000 142.093668
619.500000 142.581542
619.500000 143.070253
619.500000 143.559801
619.500000 144.050184
619.500000 144.541403
619.500000 145.033459
619.500000 145.526350
619.500000 146.020078
619.500000 146.514642
619.500000 147.010042
619.500000 147.506278
619.500000 148.003350
619.500000 148.501258
619.500000 149.000003
619.500000 149.499583
619.500000 150.000000
</POINTS>
</NEKTAR>

