<?xml version="1.0" encoding="utf-8" ?>
<NEKTAR>
<POINTS DIM="2" FIELDS="">
439.500000 0.000000
439.500000 0.000418
439.500000 0.001672
439.500000 0.003763
439.500000 0.006689
439.500000 0.010451
439.500000 0.015050
439.500000 0.020485
439.500000 0.026756
439.500000 0.033863
439.500000 0.041806
439.500000 0.050585
439.500000 0.060201
439.500000 0.070652
439.500000 0.081940
439.500000 0.094063
439.500000 0.107023
439.500000 0.120819
439.500000 0.135451
439.500000 0.150919
439.500000 0.167224
439.500000 0.184364
439.500000 0.202341
439.500000 0.221153
439.500000 0.240802
439.500000 0.261287
439.500000 0.282608
439.500000 0.304765
439.500000 0.327758
439.500000 0.351588
439.500000 0.376253
439.500000 0.401755
439.500000 0.428092
439.500000 0.455266
439.500000 0.483276
439.500000 0.512122
439.500000 0.541805
439.500000 0.572323
439.500000 0.603677
439.500000 0.635868
439.500000 0.668894
439.500000 0.702757
439.500000 0.737456
439.500000 0.772991
439.500000 0.809362
439.500000 0.846570
439.500000 0.884613
439.500000 0.923492
439.500000 0.963208
439.500000 1.003760
439.500000 1.045148
439.500000 1.087372
439.500000 1.130432
439.500000 1.174328
439.500000 1.219060
439.500000 1.264629
439.500000 1.311033
439.500000 1.358274
439.500000 1.406351
439.500000 1.455264
439.500000 1.505013
439.500000 1.555598
439.500000 1.607019
439.500000 1.659276
439.500000 1.712370
439.500000 1.766299
439.500000 1.821065
439.500000 1.876667
439.500000 1.933105
439.500000 1.990379
439.500000 2.048489
439.500000 2.107436
439.500000 2.167218
439.500000 2.227837
439.500000 2.289291
439.500000 2.351582
439.500000 2.414709
439.500000 2.478672
439.500000 2.543471
439.500000 2.609106
439.500000 2.675578
439.500000 2.742885
439.500000 2.811029
439.500000 2.880009
439.500000 2.949825
439.500000 3.020477
439.500000 3.091965
439.500000 3.164289
439.500000 3.237449
439.500000 3.311446
439.500000 3.386278
439.500000 3.461947
439.500000 3.538452
439.500000 3.615793
439.500000 3.693970
439.500000 3.772983
439.500000 3.852832
439.500000 3.933517
439.500000 4.015039
439.500000 4.097397
439.500000 4.180590
439.500000 4.264620
439.500000 4.349486
439.500000 4.435188
439.500000 4.521727
439.500000 4.609101
439.500000 4.697311
439.500000 4.786358
439.500000 4.876241
439.500000 4.966959
439.500000 5.058514
439.500000 5.150905
439.500000 5.244133
439.500000 5.338196
439.500000 5.433095
439.500000 5.528831
439.500000 5.625402
439.500000 5.722810
439.500000 5.821054
439.500000 5.920134
439.500000 6.020050
439.500000 6.120802
439.500000 6.222391
439.500000 6.324815
439.500000 6.428076
439.500000 6.532172
439.500000 6.637105
439.500000 6.742874
439.500000 6.849479
439.500000 6.956920
439.500000 7.065198
439.500000 7.174311
439.500000 7.284261
439.500000 7.395046
439.500000 7.506668
439.500000 7.619126
439.500000 7.732420
439.500000 7.846550
439.500000 7.961516
439.500000 8.077319
439.500000 8.193957
439.500000 8.311432
439.500000 8.429742
439.500000 8.548889
439.500000 8.668872
439.500000 8.789691
439.500000 8.911346
439.500000 9.033838
439.500000 9.157165
439.500000 9.281329
439.500000 9.406328
439.500000 9.532164
439.500000 9.658836
439.500000 9.786344
439.500000 9.914688
439.500000 10.043868
439.500000 10.173885
439.500000 10.304737
439.500000 10.436426
439.500000 10.568950
439.500000 10.702311
439.500000 10.836508
439.500000 10.971541
439.500000 11.107411
439.500000 11.244116
439.500000 11.381657
439.500000 11.520035
439.500000 11.659248
439.500000 11.799298
439.500000 11.940184
439.500000 12.081906
439.500000 12.224464
439.500000 12.367859
439.500000 12.512089
439.500000 12.657155
439.500000 12.803058
439.500000 12.949797
439.500000 13.097372
439.500000 13.245782
439.500000 13.395030
439.500000 13.545113
439.500000 13.696032
439.500000 13.847787
439.500000 14.000379
439.500000 14.153807
439.500000 14.308070
439.500000 14.463170
439.500000 14.619106
439.500000 14.775879
439.500000 14.933487
439.500000 15.091931
439.500000 15.251212
439.500000 15.411328
439.500000 15.572281
439.500000 15.734070
439.500000 15.896695
439.500000 16.060156
439.500000 16.224453
439.500000 16.389586
439.500000 16.555556
439.500000 16.722361
439.500000 16.890003
439.500000 17.058481
439.500000 17.227795
439.500000 17.397945
439.500000 17.568931
439.500000 17.740753
439.500000 17.913412
439.500000 18.086906
439.500000 18.261237
439.500000 18.436403
439.500000 18.612406
439.500000 18.789245
439.500000 18.966920
439.500000 19.145432
439.500000 19.324779
439.500000 19.504962
439.500000 19.685982
439.500000 19.867838
439.500000 20.050529
439.500000 20.234057
439.500000 20.418421
439.500000 20.603622
439.500000 20.789658
439.500000 20.976530
439.500000 21.164239
439.500000 21.352783
439.500000 21.542164
439.500000 21.732381
439.500000 21.923434
439.500000 22.115323
439.500000 22.308048
439.500000 22.501610
439.500000 22.696007
439.500000 22.891241
439.500000 23.087310
439.500000 23.284216
439.500000 23.481958
439.500000 23.680536
439.500000 23.879950
439.500000 24.080200
439.500000 24.281287
439.500000 24.483209
439.500000 24.685968
439.500000 24.889563
439.500000 25.093994
439.500000 25.299261
439.500000 25.505364
439.500000 25.712303
439.500000 25.920078
439.500000 26.128690
439.500000 26.338137
439.500000 26.548421
439.500000 26.759541
439.500000 26.971497
439.500000 27.184289
439.500000 27.397917
439.500000 27.612381
439.500000 27.827682
439.500000 28.043818
439.500000 28.260791
439.500000 28.478600
439.500000 28.697244
439.500000 28.916725
439.500000 29.137043
439.500000 29.358196
439.500000 29.580185
439.500000 29.803011
439.500000 30.026672
439.500000 30.251170
439.500000 30.476504
439.500000 30.702674
439.500000 30.929680
439.500000 31.157522
439.500000 31.386200
439.500000 31.615715
439.500000 31.846065
439.500000 32.077252
439.500000 32.309275
439.500000 32.542133
439.500000 32.775828
439.500000 33.010360
439.500000 33.245727
439.500000 33.481930
439.500000 33.718970
439.500000 33.956845
439.500000 34.195557
439.500000 34.435105
439.500000 34.675489
439.500000 34.916709
439.500000 35.158765
439.500000 35.401657
439.500000 35.645386
439.500000 35.889950
439.500000 36.135351
439.500000 36.381588
439.500000 36.628660
439.500000 36.876569
439.500000 37.125315
439.500000 37.374896
439.500000 37.625313
439.500000 37.876567
439.500000 38.128656
439.500000 38.381582
439.500000 38.635344
439.500000 38.889942
439.500000 39.145376
439.500000 39.401646
439.500000 39.658752
439.500000 39.916695
439.500000 40.175473
439.500000 40.435088
439.500000 40.695539
439.500000 40.956826
439.500000 41.218949
439.500000 41.481908
439.500000 41.745703
439.500000 42.010334
439.500000 42.275802
439.500000 42.542106
439.500000 42.809245
439.500000 43.077221
439.500000 43.346033
439.500000 43.615681
439.500000 43.886165
439.500000 44.157486
439.500000 44.429642
439.500000 44.702635
439.500000 44.976463
439.500000 45.251128
439.500000 45.526629
439.500000 45.802966
439.500000 46.080139
439.500000 46.358148
439.500000 46.636994
439.500000 46.916675
439.500000 47.197193
439.500000 47.478547
439.500000 47.760736
439.500000 48.043762
439.500000 48.327625
439.500000 48.612323
439.500000 48.897857
439.500000 49.184227
439.500000 49.471434
439.500000 49.759477
439.500000 50.048355
439.500000 50.338070
439.500000 50.628621
439.500000 50.920009
439.500000 51.212232
439.500000 51.505291
439.500000 51.799187
439.500000 52.093918
439.500000 52.389486
439.500000 52.685890
439.500000 52.983130
439.500000 53.281206
439.500000 53.580118
439.500000 53.879867
439.500000 54.180451
439.500000 54.481872
439.500000 54.784128
439.500000 55.087221
439.500000 55.391150
439.500000 55.695915
439.500000 56.001516
439.500000 56.307953
439.500000 56.615227
439.500000 56.923336
439.500000 57.232282
439.500000 57.542064
439.500000 57.852682
439.500000 58.164136
439.500000 58.476426
439.500000 58.789552
439.500000 59.103514
439.500000 59.418313
439.500000 59.733947
439.500000 60.050418
439.500000 60.367725
439.500000 60.685868
439.500000 61.004847
439.500000 61.324662
439.500000 61.645313
439.500000 61.966801
439.500000 62.289124
439.500000 62.612284
439.500000 62.936279
439.500000 63.261111
439.500000 63.586779
439.500000 63.913283
439.500000 64.240624
439.500000 64.568800
439.500000 64.897812
439.500000 65.227661
439.500000 65.558346
439.500000 65.889867
439.500000 66.222223
439.500000 66.555417
439.500000 66.889446
439.500000 67.224311
439.500000 67.560012
439.500000 67.896550
439.500000 68.233924
439.500000 68.572133
439.500000 68.911179
439.500000 69.251061
439.500000 69.591779
439.500000 69.933334
439.500000 70.275724
439.500000 70.618950
439.500000 70.963013
439.500000 71.307912
439.500000 71.653646
439.500000 72.000217
439.500000 72.347624
439.500000 72.695868
439.500000 73.044947
439.500000 73.394862
439.500000 73.745614
439.500000 74.097202
439.500000 74.449625
439.500000 74.802885
439.500000 75.156981
439.500000 75.511913
439.500000 75.867682
439.500000 76.224286
439.500000 76.581726
439.500000 76.940003
439.500000 77.299116
439.500000 77.659064
439.500000 78.019849
439.500000 78.381471
439.500000 78.743928
439.500000 79.107221
439.500000 79.471350
439.500000 79.836316
439.500000 80.202118
439.500000 80.568755
439.500000 80.936229
439.500000 81.304539
439.500000 81.673685
439.500000 82.043668
439.500000 82.414486
439.500000 82.786141
439.500000 83.158631
439.500000 83.531958
439.500000 83.906121
439.500000 84.281120
439.500000 84.656955
439.500000 85.033626
439.500000 85.411133
439.500000 85.789477
439.500000 86.168656
439.500000 86.548672
439.500000 86.929524
439.500000 87.311212
439.500000 87.693736
439.500000 88.077096
439.500000 88.461292
439.500000 88.846324
439.500000 89.232193
439.500000 89.618897
439.500000 90.006438
439.500000 90.394815
439.500000 90.784028
439.500000 91.174077
439.500000 91.564962
439.500000 91.956684
439.500000 92.349241
439.500000 92.742634
439.500000 93.136864
439.500000 93.531930
439.500000 93.927832
439.500000 94.324570
439.500000 94.722144
439.500000 95.120554
439.500000 95.519801
439.500000 95.919883
439.500000 96.320802
439.500000 96.722557
439.500000 97.125147
439.500000 97.528574
439.500000 97.932837
439.500000 98.337937
439.500000 98.743872
439.500000 99.150643
439.500000 99.558251
439.500000 99.966695
439.500000 100.375974
439.500000 100.786090
439.500000 101.197042
439.500000 101.608831
439.500000 102.021455
439.500000 102.434915
439.500000 102.849212
439.500000 103.264344
439.500000 103.680313
439.500000 104.097118
439.500000 104.514759
439.500000 104.933236
439.500000 105.352549
439.500000 105.772699
439.500000 106.193684
439.500000 106.615506
439.500000 107.038163
439.500000 107.461657
439.500000 107.885987
439.500000 108.311153
439.500000 108.737155
439.500000 109.163993
439.500000 109.591668
439.500000 110.020178
439.500000 110.449525
439.500000 110.879708
439.500000 111.310727
439.500000 111.742582
439.500000 112.175273
439.500000 112.608800
439.500000 113.043163
439.500000 113.478363
439.500000 113.914398
439.500000 114.351270
439.500000 114.788978
439.500000 115.227522
439.500000 115.666902
439.500000 116.107118
439.500000 116.548170
439.500000 116.990059
439.500000 117.432783
439.500000 117.876344
439.500000 118.320740
439.500000 118.765973
439.500000 119.212042
439.500000 119.658947
439.500000 120.106689
439.500000 120.555266
439.500000 121.004679
439.500000 121.454929
439.500000 121.906015
439.500000 122.357937
439.500000 122.810695
439.500000 123.264289
439.500000 123.718719
439.500000 124.173985
439.500000 124.630087
439.500000 125.087026
439.500000 125.544801
439.500000 126.003411
439.500000 126.462858
439.500000 126.923141
439.500000 127.384260
439.500000 127.846216
439.500000 128.309007
439.500000 128.772634
439.500000 129.237098
439.500000 129.702398
439.500000 130.168534
439.500000 130.635505
439.500000 131.103314
439.500000 131.571958
439.500000 132.041438
439.500000 132.511754
439.500000 132.982907
439.500000 133.454896
439.500000 133.927720
439.500000 134.401381
439.500000 134.875878
439.500000 135.351211
439.500000 135.827381
439.500000 136.304386
439.500000 136.782227
439.500000 137.260905
439.500000 137.740419
439.500000 138.220769
439.500000 138.701955
439.500000 139.183977
439.500000 139.666835
439.500000 140.150529
439.500000 140.635060
439.500000 141.120426
439.500000 141.606629
439.500000 142.093668
439.500000 142.581542
439.500000 143.070253
439.500000 143.559801
439.500000 144.050184
439.500000 144.541403
439.500000 145.033459
439.500000 145.526350
439.500000 146.020078
439.500000 146.514642
439.500000 147.010042
439.500000 147.506278
439.500000 148.003350
439.500000 148.501258
439.500000 149.000003
439.500000 149.499583
439.500000 150.000000
</POINTS>
</NEKTAR>

