<?xml version="1.0" encoding="utf-8" ?>
<NEKTAR>
<POINTS DIM="2" FIELDS="">
553.500000 0.000000
553.500000 0.000418
553.500000 0.001672
553.500000 0.003763
553.500000 0.006689
553.500000 0.010451
553.500000 0.015050
553.500000 0.020485
553.500000 0.026756
553.500000 0.033863
553.500000 0.041806
553.500000 0.050585
553.500000 0.060201
553.500000 0.070652
553.500000 0.081940
553.500000 0.094063
553.500000 0.107023
553.500000 0.120819
553.500000 0.135451
553.500000 0.150919
553.500000 0.167224
553.500000 0.184364
553.500000 0.202341
553.500000 0.221153
553.500000 0.240802
553.500000 0.261287
553.500000 0.282608
553.500000 0.304765
553.500000 0.327758
553.500000 0.351588
553.500000 0.376253
553.500000 0.401755
553.500000 0.428092
553.500000 0.455266
553.500000 0.483276
553.500000 0.512122
553.500000 0.541805
553.500000 0.572323
553.500000 0.603677
553.500000 0.635868
553.500000 0.668894
553.500000 0.702757
553.500000 0.737456
553.500000 0.772991
553.500000 0.809362
553.500000 0.846570
553.500000 0.884613
553.500000 0.923492
553.500000 0.963208
553.500000 1.003760
553.500000 1.045148
553.500000 1.087372
553.500000 1.130432
553.500000 1.174328
553.500000 1.219060
553.500000 1.264629
553.500000 1.311033
553.500000 1.358274
553.500000 1.406351
553.500000 1.455264
553.500000 1.505013
553.500000 1.555598
553.500000 1.607019
553.500000 1.659276
553.500000 1.712370
553.500000 1.766299
553.500000 1.821065
553.500000 1.876667
553.500000 1.933105
553.500000 1.990379
553.500000 2.048489
553.500000 2.107436
553.500000 2.167218
553.500000 2.227837
553.500000 2.289291
553.500000 2.351582
553.500000 2.414709
553.500000 2.478672
553.500000 2.543471
553.500000 2.609106
553.500000 2.675578
553.500000 2.742885
553.500000 2.811029
553.500000 2.880009
553.500000 2.949825
553.500000 3.020477
553.500000 3.091965
553.500000 3.164289
553.500000 3.237449
553.500000 3.311446
553.500000 3.386278
553.500000 3.461947
553.500000 3.538452
553.500000 3.615793
553.500000 3.693970
553.500000 3.772983
553.500000 3.852832
553.500000 3.933517
553.500000 4.015039
553.500000 4.097397
553.500000 4.180590
553.500000 4.264620
553.500000 4.349486
553.500000 4.435188
553.500000 4.521727
553.500000 4.609101
553.500000 4.697311
553.500000 4.786358
553.500000 4.876241
553.500000 4.966959
553.500000 5.058514
553.500000 5.150905
553.500000 5.244133
553.500000 5.338196
553.500000 5.433095
553.500000 5.528831
553.500000 5.625402
553.500000 5.722810
553.500000 5.821054
553.500000 5.920134
553.500000 6.020050
553.500000 6.120802
553.500000 6.222391
553.500000 6.324815
553.500000 6.428076
553.500000 6.532172
553.500000 6.637105
553.500000 6.742874
553.500000 6.849479
553.500000 6.956920
553.500000 7.065198
553.500000 7.174311
553.500000 7.284261
553.500000 7.395046
553.500000 7.506668
553.500000 7.619126
553.500000 7.732420
553.500000 7.846550
553.500000 7.961516
553.500000 8.077319
553.500000 8.193957
553.500000 8.311432
553.500000 8.429742
553.500000 8.548889
553.500000 8.668872
553.500000 8.789691
553.500000 8.911346
553.500000 9.033838
553.500000 9.157165
553.500000 9.281329
553.500000 9.406328
553.500000 9.532164
553.500000 9.658836
553.500000 9.786344
553.500000 9.914688
553.500000 10.043868
553.500000 10.173885
553.500000 10.304737
553.500000 10.436426
553.500000 10.568950
553.500000 10.702311
553.500000 10.836508
553.500000 10.971541
553.500000 11.107411
553.500000 11.244116
553.500000 11.381657
553.500000 11.520035
553.500000 11.659248
553.500000 11.799298
553.500000 11.940184
553.500000 12.081906
553.500000 12.224464
553.500000 12.367859
553.500000 12.512089
553.500000 12.657155
553.500000 12.803058
553.500000 12.949797
553.500000 13.097372
553.500000 13.245782
553.500000 13.395030
553.500000 13.545113
553.500000 13.696032
553.500000 13.847787
553.500000 14.000379
553.500000 14.153807
553.500000 14.308070
553.500000 14.463170
553.500000 14.619106
553.500000 14.775879
553.500000 14.933487
553.500000 15.091931
553.500000 15.251212
553.500000 15.411328
553.500000 15.572281
553.500000 15.734070
553.500000 15.896695
553.500000 16.060156
553.500000 16.224453
553.500000 16.389586
553.500000 16.555556
553.500000 16.722361
553.500000 16.890003
553.500000 17.058481
553.500000 17.227795
553.500000 17.397945
553.500000 17.568931
553.500000 17.740753
553.500000 17.913412
553.500000 18.086906
553.500000 18.261237
553.500000 18.436403
553.500000 18.612406
553.500000 18.789245
553.500000 18.966920
553.500000 19.145432
553.500000 19.324779
553.500000 19.504962
553.500000 19.685982
553.500000 19.867838
553.500000 20.050529
553.500000 20.234057
553.500000 20.418421
553.500000 20.603622
553.500000 20.789658
553.500000 20.976530
553.500000 21.164239
553.500000 21.352783
553.500000 21.542164
553.500000 21.732381
553.500000 21.923434
553.500000 22.115323
553.500000 22.308048
553.500000 22.501610
553.500000 22.696007
553.500000 22.891241
553.500000 23.087310
553.500000 23.284216
553.500000 23.481958
553.500000 23.680536
553.500000 23.879950
553.500000 24.080200
553.500000 24.281287
553.500000 24.483209
553.500000 24.685968
553.500000 24.889563
553.500000 25.093994
553.500000 25.299261
553.500000 25.505364
553.500000 25.712303
553.500000 25.920078
553.500000 26.128690
553.500000 26.338137
553.500000 26.548421
553.500000 26.759541
553.500000 26.971497
553.500000 27.184289
553.500000 27.397917
553.500000 27.612381
553.500000 27.827682
553.500000 28.043818
553.500000 28.260791
553.500000 28.478600
553.500000 28.697244
553.500000 28.916725
553.500000 29.137043
553.500000 29.358196
553.500000 29.580185
553.500000 29.803011
553.500000 30.026672
553.500000 30.251170
553.500000 30.476504
553.500000 30.702674
553.500000 30.929680
553.500000 31.157522
553.500000 31.386200
553.500000 31.615715
553.500000 31.846065
553.500000 32.077252
553.500000 32.309275
553.500000 32.542133
553.500000 32.775828
553.500000 33.010360
553.500000 33.245727
553.500000 33.481930
553.500000 33.718970
553.500000 33.956845
553.500000 34.195557
553.500000 34.435105
553.500000 34.675489
553.500000 34.916709
553.500000 35.158765
553.500000 35.401657
553.500000 35.645386
553.500000 35.889950
553.500000 36.135351
553.500000 36.381588
553.500000 36.628660
553.500000 36.876569
553.500000 37.125315
553.500000 37.374896
553.500000 37.625313
553.500000 37.876567
553.500000 38.128656
553.500000 38.381582
553.500000 38.635344
553.500000 38.889942
553.500000 39.145376
553.500000 39.401646
553.500000 39.658752
553.500000 39.916695
553.500000 40.175473
553.500000 40.435088
553.500000 40.695539
553.500000 40.956826
553.500000 41.218949
553.500000 41.481908
553.500000 41.745703
553.500000 42.010334
553.500000 42.275802
553.500000 42.542106
553.500000 42.809245
553.500000 43.077221
553.500000 43.346033
553.500000 43.615681
553.500000 43.886165
553.500000 44.157486
553.500000 44.429642
553.500000 44.702635
553.500000 44.976463
553.500000 45.251128
553.500000 45.526629
553.500000 45.802966
553.500000 46.080139
553.500000 46.358148
553.500000 46.636994
553.500000 46.916675
553.500000 47.197193
553.500000 47.478547
553.500000 47.760736
553.500000 48.043762
553.500000 48.327625
553.500000 48.612323
553.500000 48.897857
553.500000 49.184227
553.500000 49.471434
553.500000 49.759477
553.500000 50.048355
553.500000 50.338070
553.500000 50.628621
553.500000 50.920009
553.500000 51.212232
553.500000 51.505291
553.500000 51.799187
553.500000 52.093918
553.500000 52.389486
553.500000 52.685890
553.500000 52.983130
553.500000 53.281206
553.500000 53.580118
553.500000 53.879867
553.500000 54.180451
553.500000 54.481872
553.500000 54.784128
553.500000 55.087221
553.500000 55.391150
553.500000 55.695915
553.500000 56.001516
553.500000 56.307953
553.500000 56.615227
553.500000 56.923336
553.500000 57.232282
553.500000 57.542064
553.500000 57.852682
553.500000 58.164136
553.500000 58.476426
553.500000 58.789552
553.500000 59.103514
553.500000 59.418313
553.500000 59.733947
553.500000 60.050418
553.500000 60.367725
553.500000 60.685868
553.500000 61.004847
553.500000 61.324662
553.500000 61.645313
553.500000 61.966801
553.500000 62.289124
553.500000 62.612284
553.500000 62.936279
553.500000 63.261111
553.500000 63.586779
553.500000 63.913283
553.500000 64.240624
553.500000 64.568800
553.500000 64.897812
553.500000 65.227661
553.500000 65.558346
553.500000 65.889867
553.500000 66.222223
553.500000 66.555417
553.500000 66.889446
553.500000 67.224311
553.500000 67.560012
553.500000 67.896550
553.500000 68.233924
553.500000 68.572133
553.500000 68.911179
553.500000 69.251061
553.500000 69.591779
553.500000 69.933334
553.500000 70.275724
553.500000 70.618950
553.500000 70.963013
553.500000 71.307912
553.500000 71.653646
553.500000 72.000217
553.500000 72.347624
553.500000 72.695868
553.500000 73.044947
553.500000 73.394862
553.500000 73.745614
553.500000 74.097202
553.500000 74.449625
553.500000 74.802885
553.500000 75.156981
553.500000 75.511913
553.500000 75.867682
553.500000 76.224286
553.500000 76.581726
553.500000 76.940003
553.500000 77.299116
553.500000 77.659064
553.500000 78.019849
553.500000 78.381471
553.500000 78.743928
553.500000 79.107221
553.500000 79.471350
553.500000 79.836316
553.500000 80.202118
553.500000 80.568755
553.500000 80.936229
553.500000 81.304539
553.500000 81.673685
553.500000 82.043668
553.500000 82.414486
553.500000 82.786141
553.500000 83.158631
553.500000 83.531958
553.500000 83.906121
553.500000 84.281120
553.500000 84.656955
553.500000 85.033626
553.500000 85.411133
553.500000 85.789477
553.500000 86.168656
553.500000 86.548672
553.500000 86.929524
553.500000 87.311212
553.500000 87.693736
553.500000 88.077096
553.500000 88.461292
553.500000 88.846324
553.500000 89.232193
553.500000 89.618897
553.500000 90.006438
553.500000 90.394815
553.500000 90.784028
553.500000 91.174077
553.500000 91.564962
553.500000 91.956684
553.500000 92.349241
553.500000 92.742634
553.500000 93.136864
553.500000 93.531930
553.500000 93.927832
553.500000 94.324570
553.500000 94.722144
553.500000 95.120554
553.500000 95.519801
553.500000 95.919883
553.500000 96.320802
553.500000 96.722557
553.500000 97.125147
553.500000 97.528574
553.500000 97.932837
553.500000 98.337937
553.500000 98.743872
553.500000 99.150643
553.500000 99.558251
553.500000 99.966695
553.500000 100.375974
553.500000 100.786090
553.500000 101.197042
553.500000 101.608831
553.500000 102.021455
553.500000 102.434915
553.500000 102.849212
553.500000 103.264344
553.500000 103.680313
553.500000 104.097118
553.500000 104.514759
553.500000 104.933236
553.500000 105.352549
553.500000 105.772699
553.500000 106.193684
553.500000 106.615506
553.500000 107.038163
553.500000 107.461657
553.500000 107.885987
553.500000 108.311153
553.500000 108.737155
553.500000 109.163993
553.500000 109.591668
553.500000 110.020178
553.500000 110.449525
553.500000 110.879708
553.500000 111.310727
553.500000 111.742582
553.500000 112.175273
553.500000 112.608800
553.500000 113.043163
553.500000 113.478363
553.500000 113.914398
553.500000 114.351270
553.500000 114.788978
553.500000 115.227522
553.500000 115.666902
553.500000 116.107118
553.500000 116.548170
553.500000 116.990059
553.500000 117.432783
553.500000 117.876344
553.500000 118.320740
553.500000 118.765973
553.500000 119.212042
553.500000 119.658947
553.500000 120.106689
553.500000 120.555266
553.500000 121.004679
553.500000 121.454929
553.500000 121.906015
553.500000 122.357937
553.500000 122.810695
553.500000 123.264289
553.500000 123.718719
553.500000 124.173985
553.500000 124.630087
553.500000 125.087026
553.500000 125.544801
553.500000 126.003411
553.500000 126.462858
553.500000 126.923141
553.500000 127.384260
553.500000 127.846216
553.500000 128.309007
553.500000 128.772634
553.500000 129.237098
553.500000 129.702398
553.500000 130.168534
553.500000 130.635505
553.500000 131.103314
553.500000 131.571958
553.500000 132.041438
553.500000 132.511754
553.500000 132.982907
553.500000 133.454896
553.500000 133.927720
553.500000 134.401381
553.500000 134.875878
553.500000 135.351211
553.500000 135.827381
553.500000 136.304386
553.500000 136.782227
553.500000 137.260905
553.500000 137.740419
553.500000 138.220769
553.500000 138.701955
553.500000 139.183977
553.500000 139.666835
553.500000 140.150529
553.500000 140.635060
553.500000 141.120426
553.500000 141.606629
553.500000 142.093668
553.500000 142.581542
553.500000 143.070253
553.500000 143.559801
553.500000 144.050184
553.500000 144.541403
553.500000 145.033459
553.500000 145.526350
553.500000 146.020078
553.500000 146.514642
553.500000 147.010042
553.500000 147.506278
553.500000 148.003350
553.500000 148.501258
553.500000 149.000003
553.500000 149.499583
553.500000 150.000000
</POINTS>
</NEKTAR>

