<?xml version="1.0" encoding="utf-8" ?>
<NEKTAR>
<POINTS DIM="2" FIELDS="">
243.500000 -0.500000
243.500000 -0.499581
243.500000 -0.498322
243.500000 -0.496225
243.500000 -0.493289
243.500000 -0.489514
243.500000 -0.484900
243.500000 -0.479447
243.500000 -0.473155
243.500000 -0.466024
243.500000 -0.458055
243.500000 -0.449246
243.500000 -0.439599
243.500000 -0.429113
243.500000 -0.417787
243.500000 -0.405623
243.500000 -0.392620
243.500000 -0.378778
243.500000 -0.364097
243.500000 -0.348578
243.500000 -0.332219
243.500000 -0.315021
243.500000 -0.296985
243.500000 -0.278110
243.500000 -0.258395
243.500000 -0.237842
243.500000 -0.216450
243.500000 -0.194219
243.500000 -0.171149
243.500000 -0.147240
243.500000 -0.122493
243.500000 -0.096906
243.500000 -0.070481
243.500000 -0.043216
243.500000 -0.015113
243.500000 0.013829
243.500000 0.043611
243.500000 0.074231
243.500000 0.105690
243.500000 0.137987
243.500000 0.171124
243.500000 0.205100
243.500000 0.239914
243.500000 0.275568
243.500000 0.312060
243.500000 0.349391
243.500000 0.387562
243.500000 0.426571
243.500000 0.466419
243.500000 0.507106
243.500000 0.548631
243.500000 0.590996
243.500000 0.634200
243.500000 0.678242
243.500000 0.723124
243.500000 0.768844
243.500000 0.815403
243.500000 0.862801
243.500000 0.911038
243.500000 0.960114
243.500000 1.010029
243.500000 1.060783
243.500000 1.112376
243.500000 1.164807
243.500000 1.218078
243.500000 1.272187
243.500000 1.327135
243.500000 1.382923
243.500000 1.439549
243.500000 1.497014
243.500000 1.555318
243.500000 1.614460
243.500000 1.674442
243.500000 1.735263
243.500000 1.796922
243.500000 1.859421
243.500000 1.922758
243.500000 1.986934
243.500000 2.051949
243.500000 2.117803
243.500000 2.184496
243.500000 2.252028
243.500000 2.320399
243.500000 2.389609
243.500000 2.459657
243.500000 2.530545
243.500000 2.602271
243.500000 2.674836
243.500000 2.748241
243.500000 2.822484
243.500000 2.897566
243.500000 2.973487
243.500000 3.050247
243.500000 3.127845
243.500000 3.206283
243.500000 3.285559
243.500000 3.365675
243.500000 3.446629
243.500000 3.528422
243.500000 3.611055
243.500000 3.694526
243.500000 3.778836
243.500000 3.863984
243.500000 3.949972
243.500000 4.036799
243.500000 4.124465
243.500000 4.212969
243.500000 4.302312
243.500000 4.392495
243.500000 4.483516
243.500000 4.575376
243.500000 4.668075
243.500000 4.761613
243.500000 4.855990
243.500000 4.951206
243.500000 5.047260
243.500000 5.144154
243.500000 5.241886
243.500000 5.340458
243.500000 5.439868
243.500000 5.540117
243.500000 5.641205
243.500000 5.743132
243.500000 5.845898
243.500000 5.949503
243.500000 6.053946
243.500000 6.159229
243.500000 6.265350
243.500000 6.372311
243.500000 6.480110
243.500000 6.588748
243.500000 6.698225
243.500000 6.808542
243.500000 6.919696
243.500000 7.031690
243.500000 7.144523
243.500000 7.258195
243.500000 7.372705
243.500000 7.488055
243.500000 7.604243
243.500000 7.721270
243.500000 7.839136
243.500000 7.957842
243.500000 8.077386
243.500000 8.197768
243.500000 8.318990
243.500000 8.441051
243.500000 8.563950
243.500000 8.687689
243.500000 8.812266
243.500000 8.937683
243.500000 9.063938
243.500000 9.191032
243.500000 9.318965
243.500000 9.447737
243.500000 9.577348
243.500000 9.707798
243.500000 9.839086
243.500000 9.971214
243.500000 10.104180
243.500000 10.237986
243.500000 10.372630
243.500000 10.508113
243.500000 10.644435
243.500000 10.781596
243.500000 10.919596
243.500000 11.058435
243.500000 11.198113
243.500000 11.338629
243.500000 11.479985
243.500000 11.622179
243.500000 11.765212
243.500000 11.909085
243.500000 12.053796
243.500000 12.199346
243.500000 12.345735
243.500000 12.492963
243.500000 12.641029
243.500000 12.789935
243.500000 12.939680
243.500000 13.090263
243.500000 13.241686
243.500000 13.393947
243.500000 13.547047
243.500000 13.700986
243.500000 13.855764
243.500000 14.011381
243.500000 14.167837
243.500000 14.325131
243.500000 14.483265
243.500000 14.642238
243.500000 14.802049
243.500000 14.962699
243.500000 15.124189
243.500000 15.286517
243.500000 15.449684
243.500000 15.613690
243.500000 15.778535
243.500000 15.944218
243.500000 16.110741
243.500000 16.278103
243.500000 16.446303
243.500000 16.615342
243.500000 16.785221
243.500000 16.955938
243.500000 17.127494
243.500000 17.299889
243.500000 17.473123
243.500000 17.647196
243.500000 17.822108
243.500000 17.997858
243.500000 18.174448
243.500000 18.351876
243.500000 18.530143
243.500000 18.709250
243.500000 18.889195
243.500000 19.069979
243.500000 19.251602
243.500000 19.434064
243.500000 19.617365
243.500000 19.801504
243.500000 19.986483
243.500000 20.172300
243.500000 20.358957
243.500000 20.546452
243.500000 20.734786
243.500000 20.923959
243.500000 21.113971
243.500000 21.304822
243.500000 21.496512
243.500000 21.689041
243.500000 21.882408
243.500000 22.076615
243.500000 22.271660
243.500000 22.467545
243.500000 22.664268
243.500000 22.861830
243.500000 23.060231
243.500000 23.259471
243.500000 23.459550
243.500000 23.660468
243.500000 23.862224
243.500000 24.064820
243.500000 24.268255
243.500000 24.472528
243.500000 24.677640
243.500000 24.883591
243.500000 25.090382
243.500000 25.298011
243.500000 25.506479
243.500000 25.715785
243.500000 25.925931
243.500000 26.136916
243.500000 26.348739
243.500000 26.561402
243.500000 26.774903
243.500000 26.989243
243.500000 27.204423
243.500000 27.420441
243.500000 27.637298
243.500000 27.854993
243.500000 28.073528
243.500000 28.292902
243.500000 28.513115
243.500000 28.734166
243.500000 28.956056
243.500000 29.178786
243.500000 29.402354
243.500000 29.626761
243.500000 29.852007
243.500000 30.078092
243.500000 30.305016
243.500000 30.532779
243.500000 30.761380
243.500000 30.990821
243.500000 31.221100
243.500000 31.452219
243.500000 31.684176
243.500000 31.916972
243.500000 32.150607
243.500000 32.385081
243.500000 32.620394
243.500000 32.856546
243.500000 33.093537
243.500000 33.331366
243.500000 33.570035
243.500000 33.809542
243.500000 34.049888
243.500000 34.291074
243.500000 34.533098
243.500000 34.775961
243.500000 35.019663
243.500000 35.264204
243.500000 35.509583
243.500000 35.755802
243.500000 36.002860
243.500000 36.250756
243.500000 36.499491
243.500000 36.749066
243.500000 36.999479
243.500000 37.250731
243.500000 37.502822
243.500000 37.755752
243.500000 38.009521
243.500000 38.264128
243.500000 38.519575
243.500000 38.775860
243.500000 39.032985
243.500000 39.290948
243.500000 39.549750
243.500000 39.809392
243.500000 40.069872
243.500000 40.331191
243.500000 40.593348
243.500000 40.856345
243.500000 41.120181
243.500000 41.384855
243.500000 41.650369
243.500000 41.916721
243.500000 42.183913
243.500000 42.451943
243.500000 42.720812
243.500000 42.990520
243.500000 43.261067
243.500000 43.532453
243.500000 43.804677
243.500000 44.077741
243.500000 44.351643
243.500000 44.626385
243.500000 44.901965
243.500000 45.178384
243.500000 45.455643
243.500000 45.733740
243.500000 46.012676
243.500000 46.292450
243.500000 46.573064
243.500000 46.854517
243.500000 47.136808
243.500000 47.419939
243.500000 47.703908
243.500000 47.988717
243.500000 48.274364
243.500000 48.560850
243.500000 48.848175
243.500000 49.136339
243.500000 49.425342
243.500000 49.715183
243.500000 50.005864
243.500000 50.297384
243.500000 50.589742
243.500000 50.882939
243.500000 51.176976
243.500000 51.471851
243.500000 51.767565
243.500000 52.064118
243.500000 52.361510
243.500000 52.659740
243.500000 52.958810
243.500000 53.258719
243.500000 53.559466
243.500000 53.861053
243.500000 54.163478
243.500000 54.466742
243.500000 54.770845
243.500000 55.075787
243.500000 55.381568
243.500000 55.688188
243.500000 55.995647
243.500000 56.303944
243.500000 56.613081
243.500000 56.923056
243.500000 57.233871
243.500000 57.545524
243.500000 57.858016
243.500000 58.171347
243.500000 58.485517
243.500000 58.800526
243.500000 59.116374
243.500000 59.433060
243.500000 59.750586
243.500000 60.068950
243.500000 60.388154
243.500000 60.708196
243.500000 61.029077
243.500000 61.350798
243.500000 61.673357
243.500000 61.996754
243.500000 62.320991
243.500000 62.646067
243.500000 62.971982
243.500000 63.298735
243.500000 63.626328
243.500000 63.954759
243.500000 64.284029
243.500000 64.614138
243.500000 64.945087
243.500000 65.276874
243.500000 65.609499
243.500000 65.942964
243.500000 66.277268
243.500000 66.612411
243.500000 66.948392
243.500000 67.285212
243.500000 67.622872
243.500000 67.961370
243.500000 68.300707
243.500000 68.640883
243.500000 68.981898
243.500000 69.323752
243.500000 69.666445
243.500000 70.009976
243.500000 70.354347
243.500000 70.699556
243.500000 71.045605
243.500000 71.392492
243.500000 71.740218
243.500000 72.088783
243.500000 72.438187
243.500000 72.788430
243.500000 73.139512
243.500000 73.491433
243.500000 73.844192
243.500000 74.197791
243.500000 74.552228
243.500000 74.907504
243.500000 75.263620
243.500000 75.620574
243.500000 75.978367
243.500000 76.336999
243.500000 76.696470
243.500000 77.056779
243.500000 77.417928
243.500000 77.779916
243.500000 78.142742
243.500000 78.506407
243.500000 78.870912
243.500000 79.236255
243.500000 79.602437
243.500000 79.969458
243.500000 80.337318
243.500000 80.706017
243.500000 81.075554
243.500000 81.445931
243.500000 81.817147
243.500000 82.189201
243.500000 82.562094
243.500000 82.935827
243.500000 83.310398
243.500000 83.685808
243.500000 84.062057
243.500000 84.439145
243.500000 84.817071
243.500000 85.195837
243.500000 85.575442
243.500000 85.955885
243.500000 86.337167
243.500000 86.719289
243.500000 87.102249
243.500000 87.486048
243.500000 87.870686
243.500000 88.256163
243.500000 88.642479
243.500000 89.029633
243.500000 89.417627
243.500000 89.806460
243.500000 90.196131
243.500000 90.586641
243.500000 90.977991
243.500000 91.370179
243.500000 91.763206
243.500000 92.157072
243.500000 92.551777
243.500000 92.947320
243.500000 93.343703
243.500000 93.740925
243.500000 94.138985
243.500000 94.537885
243.500000 94.937623
243.500000 95.338200
243.500000 95.739616
243.500000 96.141871
243.500000 96.544965
243.500000 96.948898
243.500000 97.353670
243.500000 97.759280
243.500000 98.165730
243.500000 98.573018
243.500000 98.981146
243.500000 99.390112
243.500000 99.799917
243.500000 100.210561
243.500000 100.622044
243.500000 101.034366
243.500000 101.447527
243.500000 101.861526
243.500000 102.276365
243.500000 102.692042
243.500000 103.108559
243.500000 103.525914
243.500000 103.944108
243.500000 104.363141
243.500000 104.783013
243.500000 105.203724
243.500000 105.625274
243.500000 106.047663
243.500000 106.470891
243.500000 106.894957
243.500000 107.319863
243.500000 107.745607
243.500000 108.172190
243.500000 108.599612
243.500000 109.027873
243.500000 109.456973
243.500000 109.886912
243.500000 110.317690
243.500000 110.749307
243.500000 111.181762
243.500000 111.615057
243.500000 112.049190
243.500000 112.484163
243.500000 112.919974
243.500000 113.356624
243.500000 113.794113
243.500000 114.232441
243.500000 114.671608
243.500000 115.111613
243.500000 115.552458
243.500000 115.994142
243.500000 116.436664
243.500000 116.880025
243.500000 117.324226
243.500000 117.769265
243.500000 118.215143
243.500000 118.661860
243.500000 119.109416
243.500000 119.557811
243.500000 120.007044
243.500000 120.457117
243.500000 120.908028
243.500000 121.359779
243.500000 121.812368
243.500000 122.265796
243.500000 122.720063
243.500000 123.175170
243.500000 123.631114
243.500000 124.087898
243.500000 124.545521
243.500000 125.003983
243.500000 125.463283
243.500000 125.923423
243.500000 126.384401
243.500000 126.846218
243.500000 127.308875
243.500000 127.772370
243.500000 128.236704
243.500000 128.701877
243.500000 129.167888
243.500000 129.634739
243.500000 130.102429
243.500000 130.570957
243.500000 131.040325
243.500000 131.510531
243.500000 131.981576
243.500000 132.453460
243.500000 132.926183
243.500000 133.399745
243.500000 133.874146
243.500000 134.349386
243.500000 134.825465
243.500000 135.302382
243.500000 135.780139
243.500000 136.258734
243.500000 136.738168
243.500000 137.218441
243.500000 137.699554
243.500000 138.181505
243.500000 138.664294
243.500000 139.147923
243.500000 139.632391
243.500000 140.117698
243.500000 140.603843
243.500000 141.090828
243.500000 141.578651
243.500000 142.067313
243.500000 142.556814
243.500000 143.047154
243.500000 143.538333
243.500000 144.030351
243.500000 144.523208
243.500000 145.016904
243.500000 145.511438
243.500000 146.006812
243.500000 146.503024
243.500000 147.000075
243.500000 147.497965
243.500000 147.996695
243.500000 148.496263
243.500000 148.996669
243.500000 149.497915
243.500000 150.000000
</POINTS>
</NEKTAR>

