<?xml version="1.0" encoding="utf-8" ?>
<NEKTAR>
<POINTS DIM="2" FIELDS="">
423.500000 -0.500000
423.500000 -0.499581
423.500000 -0.498322
423.500000 -0.496225
423.500000 -0.493289
423.500000 -0.489514
423.500000 -0.484900
423.500000 -0.479447
423.500000 -0.473155
423.500000 -0.466024
423.500000 -0.458055
423.500000 -0.449246
423.500000 -0.439599
423.500000 -0.429113
423.500000 -0.417787
423.500000 -0.405623
423.500000 -0.392620
423.500000 -0.378778
423.500000 -0.364097
423.500000 -0.348578
423.500000 -0.332219
423.500000 -0.315021
423.500000 -0.296985
423.500000 -0.278110
423.500000 -0.258395
423.500000 -0.237842
423.500000 -0.216450
423.500000 -0.194219
423.500000 -0.171149
423.500000 -0.147240
423.500000 -0.122493
423.500000 -0.096906
423.500000 -0.070481
423.500000 -0.043216
423.500000 -0.015113
423.500000 0.013829
423.500000 0.043611
423.500000 0.074231
423.500000 0.105690
423.500000 0.137987
423.500000 0.171124
423.500000 0.205100
423.500000 0.239914
423.500000 0.275568
423.500000 0.312060
423.500000 0.349391
423.500000 0.387562
423.500000 0.426571
423.500000 0.466419
423.500000 0.507106
423.500000 0.548631
423.500000 0.590996
423.500000 0.634200
423.500000 0.678242
423.500000 0.723124
423.500000 0.768844
423.500000 0.815403
423.500000 0.862801
423.500000 0.911038
423.500000 0.960114
423.500000 1.010029
423.500000 1.060783
423.500000 1.112376
423.500000 1.164807
423.500000 1.218078
423.500000 1.272187
423.500000 1.327135
423.500000 1.382923
423.500000 1.439549
423.500000 1.497014
423.500000 1.555318
423.500000 1.614460
423.500000 1.674442
423.500000 1.735263
423.500000 1.796922
423.500000 1.859421
423.500000 1.922758
423.500000 1.986934
423.500000 2.051949
423.500000 2.117803
423.500000 2.184496
423.500000 2.252028
423.500000 2.320399
423.500000 2.389609
423.500000 2.459657
423.500000 2.530545
423.500000 2.602271
423.500000 2.674836
423.500000 2.748241
423.500000 2.822484
423.500000 2.897566
423.500000 2.973487
423.500000 3.050247
423.500000 3.127845
423.500000 3.206283
423.500000 3.285559
423.500000 3.365675
423.500000 3.446629
423.500000 3.528422
423.500000 3.611055
423.500000 3.694526
423.500000 3.778836
423.500000 3.863984
423.500000 3.949972
423.500000 4.036799
423.500000 4.124465
423.500000 4.212969
423.500000 4.302312
423.500000 4.392495
423.500000 4.483516
423.500000 4.575376
423.500000 4.668075
423.500000 4.761613
423.500000 4.855990
423.500000 4.951206
423.500000 5.047260
423.500000 5.144154
423.500000 5.241886
423.500000 5.340458
423.500000 5.439868
423.500000 5.540117
423.500000 5.641205
423.500000 5.743132
423.500000 5.845898
423.500000 5.949503
423.500000 6.053946
423.500000 6.159229
423.500000 6.265350
423.500000 6.372311
423.500000 6.480110
423.500000 6.588748
423.500000 6.698225
423.500000 6.808542
423.500000 6.919696
423.500000 7.031690
423.500000 7.144523
423.500000 7.258195
423.500000 7.372705
423.500000 7.488055
423.500000 7.604243
423.500000 7.721270
423.500000 7.839136
423.500000 7.957842
423.500000 8.077386
423.500000 8.197768
423.500000 8.318990
423.500000 8.441051
423.500000 8.563950
423.500000 8.687689
423.500000 8.812266
423.500000 8.937683
423.500000 9.063938
423.500000 9.191032
423.500000 9.318965
423.500000 9.447737
423.500000 9.577348
423.500000 9.707798
423.500000 9.839086
423.500000 9.971214
423.500000 10.104180
423.500000 10.237986
423.500000 10.372630
423.500000 10.508113
423.500000 10.644435
423.500000 10.781596
423.500000 10.919596
423.500000 11.058435
423.500000 11.198113
423.500000 11.338629
423.500000 11.479985
423.500000 11.622179
423.500000 11.765212
423.500000 11.909085
423.500000 12.053796
423.500000 12.199346
423.500000 12.345735
423.500000 12.492963
423.500000 12.641029
423.500000 12.789935
423.500000 12.939680
423.500000 13.090263
423.500000 13.241686
423.500000 13.393947
423.500000 13.547047
423.500000 13.700986
423.500000 13.855764
423.500000 14.011381
423.500000 14.167837
423.500000 14.325131
423.500000 14.483265
423.500000 14.642238
423.500000 14.802049
423.500000 14.962699
423.500000 15.124189
423.500000 15.286517
423.500000 15.449684
423.500000 15.613690
423.500000 15.778535
423.500000 15.944218
423.500000 16.110741
423.500000 16.278103
423.500000 16.446303
423.500000 16.615342
423.500000 16.785221
423.500000 16.955938
423.500000 17.127494
423.500000 17.299889
423.500000 17.473123
423.500000 17.647196
423.500000 17.822108
423.500000 17.997858
423.500000 18.174448
423.500000 18.351876
423.500000 18.530143
423.500000 18.709250
423.500000 18.889195
423.500000 19.069979
423.500000 19.251602
423.500000 19.434064
423.500000 19.617365
423.500000 19.801504
423.500000 19.986483
423.500000 20.172300
423.500000 20.358957
423.500000 20.546452
423.500000 20.734786
423.500000 20.923959
423.500000 21.113971
423.500000 21.304822
423.500000 21.496512
423.500000 21.689041
423.500000 21.882408
423.500000 22.076615
423.500000 22.271660
423.500000 22.467545
423.500000 22.664268
423.500000 22.861830
423.500000 23.060231
423.500000 23.259471
423.500000 23.459550
423.500000 23.660468
423.500000 23.862224
423.500000 24.064820
423.500000 24.268255
423.500000 24.472528
423.500000 24.677640
423.500000 24.883591
423.500000 25.090382
423.500000 25.298011
423.500000 25.506479
423.500000 25.715785
423.500000 25.925931
423.500000 26.136916
423.500000 26.348739
423.500000 26.561402
423.500000 26.774903
423.500000 26.989243
423.500000 27.204423
423.500000 27.420441
423.500000 27.637298
423.500000 27.854993
423.500000 28.073528
423.500000 28.292902
423.500000 28.513115
423.500000 28.734166
423.500000 28.956056
423.500000 29.178786
423.500000 29.402354
423.500000 29.626761
423.500000 29.852007
423.500000 30.078092
423.500000 30.305016
423.500000 30.532779
423.500000 30.761380
423.500000 30.990821
423.500000 31.221100
423.500000 31.452219
423.500000 31.684176
423.500000 31.916972
423.500000 32.150607
423.500000 32.385081
423.500000 32.620394
423.500000 32.856546
423.500000 33.093537
423.500000 33.331366
423.500000 33.570035
423.500000 33.809542
423.500000 34.049888
423.500000 34.291074
423.500000 34.533098
423.500000 34.775961
423.500000 35.019663
423.500000 35.264204
423.500000 35.509583
423.500000 35.755802
423.500000 36.002860
423.500000 36.250756
423.500000 36.499491
423.500000 36.749066
423.500000 36.999479
423.500000 37.250731
423.500000 37.502822
423.500000 37.755752
423.500000 38.009521
423.500000 38.264128
423.500000 38.519575
423.500000 38.775860
423.500000 39.032985
423.500000 39.290948
423.500000 39.549750
423.500000 39.809392
423.500000 40.069872
423.500000 40.331191
423.500000 40.593348
423.500000 40.856345
423.500000 41.120181
423.500000 41.384855
423.500000 41.650369
423.500000 41.916721
423.500000 42.183913
423.500000 42.451943
423.500000 42.720812
423.500000 42.990520
423.500000 43.261067
423.500000 43.532453
423.500000 43.804677
423.500000 44.077741
423.500000 44.351643
423.500000 44.626385
423.500000 44.901965
423.500000 45.178384
423.500000 45.455643
423.500000 45.733740
423.500000 46.012676
423.500000 46.292450
423.500000 46.573064
423.500000 46.854517
423.500000 47.136808
423.500000 47.419939
423.500000 47.703908
423.500000 47.988717
423.500000 48.274364
423.500000 48.560850
423.500000 48.848175
423.500000 49.136339
423.500000 49.425342
423.500000 49.715183
423.500000 50.005864
423.500000 50.297384
423.500000 50.589742
423.500000 50.882939
423.500000 51.176976
423.500000 51.471851
423.500000 51.767565
423.500000 52.064118
423.500000 52.361510
423.500000 52.659740
423.500000 52.958810
423.500000 53.258719
423.500000 53.559466
423.500000 53.861053
423.500000 54.163478
423.500000 54.466742
423.500000 54.770845
423.500000 55.075787
423.500000 55.381568
423.500000 55.688188
423.500000 55.995647
423.500000 56.303944
423.500000 56.613081
423.500000 56.923056
423.500000 57.233871
423.500000 57.545524
423.500000 57.858016
423.500000 58.171347
423.500000 58.485517
423.500000 58.800526
423.500000 59.116374
423.500000 59.433060
423.500000 59.750586
423.500000 60.068950
423.500000 60.388154
423.500000 60.708196
423.500000 61.029077
423.500000 61.350798
423.500000 61.673357
423.500000 61.996754
423.500000 62.320991
423.500000 62.646067
423.500000 62.971982
423.500000 63.298735
423.500000 63.626328
423.500000 63.954759
423.500000 64.284029
423.500000 64.614138
423.500000 64.945087
423.500000 65.276874
423.500000 65.609499
423.500000 65.942964
423.500000 66.277268
423.500000 66.612411
423.500000 66.948392
423.500000 67.285212
423.500000 67.622872
423.500000 67.961370
423.500000 68.300707
423.500000 68.640883
423.500000 68.981898
423.500000 69.323752
423.500000 69.666445
423.500000 70.009976
423.500000 70.354347
423.500000 70.699556
423.500000 71.045605
423.500000 71.392492
423.500000 71.740218
423.500000 72.088783
423.500000 72.438187
423.500000 72.788430
423.500000 73.139512
423.500000 73.491433
423.500000 73.844192
423.500000 74.197791
423.500000 74.552228
423.500000 74.907504
423.500000 75.263620
423.500000 75.620574
423.500000 75.978367
423.500000 76.336999
423.500000 76.696470
423.500000 77.056779
423.500000 77.417928
423.500000 77.779916
423.500000 78.142742
423.500000 78.506407
423.500000 78.870912
423.500000 79.236255
423.500000 79.602437
423.500000 79.969458
423.500000 80.337318
423.500000 80.706017
423.500000 81.075554
423.500000 81.445931
423.500000 81.817147
423.500000 82.189201
423.500000 82.562094
423.500000 82.935827
423.500000 83.310398
423.500000 83.685808
423.500000 84.062057
423.500000 84.439145
423.500000 84.817071
423.500000 85.195837
423.500000 85.575442
423.500000 85.955885
423.500000 86.337167
423.500000 86.719289
423.500000 87.102249
423.500000 87.486048
423.500000 87.870686
423.500000 88.256163
423.500000 88.642479
423.500000 89.029633
423.500000 89.417627
423.500000 89.806460
423.500000 90.196131
423.500000 90.586641
423.500000 90.977991
423.500000 91.370179
423.500000 91.763206
423.500000 92.157072
423.500000 92.551777
423.500000 92.947320
423.500000 93.343703
423.500000 93.740925
423.500000 94.138985
423.500000 94.537885
423.500000 94.937623
423.500000 95.338200
423.500000 95.739616
423.500000 96.141871
423.500000 96.544965
423.500000 96.948898
423.500000 97.353670
423.500000 97.759280
423.500000 98.165730
423.500000 98.573018
423.500000 98.981146
423.500000 99.390112
423.500000 99.799917
423.500000 100.210561
423.500000 100.622044
423.500000 101.034366
423.500000 101.447527
423.500000 101.861526
423.500000 102.276365
423.500000 102.692042
423.500000 103.108559
423.500000 103.525914
423.500000 103.944108
423.500000 104.363141
423.500000 104.783013
423.500000 105.203724
423.500000 105.625274
423.500000 106.047663
423.500000 106.470891
423.500000 106.894957
423.500000 107.319863
423.500000 107.745607
423.500000 108.172190
423.500000 108.599612
423.500000 109.027873
423.500000 109.456973
423.500000 109.886912
423.500000 110.317690
423.500000 110.749307
423.500000 111.181762
423.500000 111.615057
423.500000 112.049190
423.500000 112.484163
423.500000 112.919974
423.500000 113.356624
423.500000 113.794113
423.500000 114.232441
423.500000 114.671608
423.500000 115.111613
423.500000 115.552458
423.500000 115.994142
423.500000 116.436664
423.500000 116.880025
423.500000 117.324226
423.500000 117.769265
423.500000 118.215143
423.500000 118.661860
423.500000 119.109416
423.500000 119.557811
423.500000 120.007044
423.500000 120.457117
423.500000 120.908028
423.500000 121.359779
423.500000 121.812368
423.500000 122.265796
423.500000 122.720063
423.500000 123.175170
423.500000 123.631114
423.500000 124.087898
423.500000 124.545521
423.500000 125.003983
423.500000 125.463283
423.500000 125.923423
423.500000 126.384401
423.500000 126.846218
423.500000 127.308875
423.500000 127.772370
423.500000 128.236704
423.500000 128.701877
423.500000 129.167888
423.500000 129.634739
423.500000 130.102429
423.500000 130.570957
423.500000 131.040325
423.500000 131.510531
423.500000 131.981576
423.500000 132.453460
423.500000 132.926183
423.500000 133.399745
423.500000 133.874146
423.500000 134.349386
423.500000 134.825465
423.500000 135.302382
423.500000 135.780139
423.500000 136.258734
423.500000 136.738168
423.500000 137.218441
423.500000 137.699554
423.500000 138.181505
423.500000 138.664294
423.500000 139.147923
423.500000 139.632391
423.500000 140.117698
423.500000 140.603843
423.500000 141.090828
423.500000 141.578651
423.500000 142.067313
423.500000 142.556814
423.500000 143.047154
423.500000 143.538333
423.500000 144.030351
423.500000 144.523208
423.500000 145.016904
423.500000 145.511438
423.500000 146.006812
423.500000 146.503024
423.500000 147.000075
423.500000 147.497965
423.500000 147.996695
423.500000 148.496263
423.500000 148.996669
423.500000 149.497915
423.500000 150.000000
</POINTS>
</NEKTAR>

