<?xml version="1.0" encoding="utf-8" ?>
<NEKTAR>
<POINTS DIM="2" FIELDS="">
203.500000 -0.500000
203.500000 -0.499581
203.500000 -0.498322
203.500000 -0.496225
203.500000 -0.493289
203.500000 -0.489514
203.500000 -0.484900
203.500000 -0.479447
203.500000 -0.473155
203.500000 -0.466024
203.500000 -0.458055
203.500000 -0.449246
203.500000 -0.439599
203.500000 -0.429113
203.500000 -0.417787
203.500000 -0.405623
203.500000 -0.392620
203.500000 -0.378778
203.500000 -0.364097
203.500000 -0.348578
203.500000 -0.332219
203.500000 -0.315021
203.500000 -0.296985
203.500000 -0.278110
203.500000 -0.258395
203.500000 -0.237842
203.500000 -0.216450
203.500000 -0.194219
203.500000 -0.171149
203.500000 -0.147240
203.500000 -0.122493
203.500000 -0.096906
203.500000 -0.070481
203.500000 -0.043216
203.500000 -0.015113
203.500000 0.013829
203.500000 0.043611
203.500000 0.074231
203.500000 0.105690
203.500000 0.137987
203.500000 0.171124
203.500000 0.205100
203.500000 0.239914
203.500000 0.275568
203.500000 0.312060
203.500000 0.349391
203.500000 0.387562
203.500000 0.426571
203.500000 0.466419
203.500000 0.507106
203.500000 0.548631
203.500000 0.590996
203.500000 0.634200
203.500000 0.678242
203.500000 0.723124
203.500000 0.768844
203.500000 0.815403
203.500000 0.862801
203.500000 0.911038
203.500000 0.960114
203.500000 1.010029
203.500000 1.060783
203.500000 1.112376
203.500000 1.164807
203.500000 1.218078
203.500000 1.272187
203.500000 1.327135
203.500000 1.382923
203.500000 1.439549
203.500000 1.497014
203.500000 1.555318
203.500000 1.614460
203.500000 1.674442
203.500000 1.735263
203.500000 1.796922
203.500000 1.859421
203.500000 1.922758
203.500000 1.986934
203.500000 2.051949
203.500000 2.117803
203.500000 2.184496
203.500000 2.252028
203.500000 2.320399
203.500000 2.389609
203.500000 2.459657
203.500000 2.530545
203.500000 2.602271
203.500000 2.674836
203.500000 2.748241
203.500000 2.822484
203.500000 2.897566
203.500000 2.973487
203.500000 3.050247
203.500000 3.127845
203.500000 3.206283
203.500000 3.285559
203.500000 3.365675
203.500000 3.446629
203.500000 3.528422
203.500000 3.611055
203.500000 3.694526
203.500000 3.778836
203.500000 3.863984
203.500000 3.949972
203.500000 4.036799
203.500000 4.124465
203.500000 4.212969
203.500000 4.302312
203.500000 4.392495
203.500000 4.483516
203.500000 4.575376
203.500000 4.668075
203.500000 4.761613
203.500000 4.855990
203.500000 4.951206
203.500000 5.047260
203.500000 5.144154
203.500000 5.241886
203.500000 5.340458
203.500000 5.439868
203.500000 5.540117
203.500000 5.641205
203.500000 5.743132
203.500000 5.845898
203.500000 5.949503
203.500000 6.053946
203.500000 6.159229
203.500000 6.265350
203.500000 6.372311
203.500000 6.480110
203.500000 6.588748
203.500000 6.698225
203.500000 6.808542
203.500000 6.919696
203.500000 7.031690
203.500000 7.144523
203.500000 7.258195
203.500000 7.372705
203.500000 7.488055
203.500000 7.604243
203.500000 7.721270
203.500000 7.839136
203.500000 7.957842
203.500000 8.077386
203.500000 8.197768
203.500000 8.318990
203.500000 8.441051
203.500000 8.563950
203.500000 8.687689
203.500000 8.812266
203.500000 8.937683
203.500000 9.063938
203.500000 9.191032
203.500000 9.318965
203.500000 9.447737
203.500000 9.577348
203.500000 9.707798
203.500000 9.839086
203.500000 9.971214
203.500000 10.104180
203.500000 10.237986
203.500000 10.372630
203.500000 10.508113
203.500000 10.644435
203.500000 10.781596
203.500000 10.919596
203.500000 11.058435
203.500000 11.198113
203.500000 11.338629
203.500000 11.479985
203.500000 11.622179
203.500000 11.765212
203.500000 11.909085
203.500000 12.053796
203.500000 12.199346
203.500000 12.345735
203.500000 12.492963
203.500000 12.641029
203.500000 12.789935
203.500000 12.939680
203.500000 13.090263
203.500000 13.241686
203.500000 13.393947
203.500000 13.547047
203.500000 13.700986
203.500000 13.855764
203.500000 14.011381
203.500000 14.167837
203.500000 14.325131
203.500000 14.483265
203.500000 14.642238
203.500000 14.802049
203.500000 14.962699
203.500000 15.124189
203.500000 15.286517
203.500000 15.449684
203.500000 15.613690
203.500000 15.778535
203.500000 15.944218
203.500000 16.110741
203.500000 16.278103
203.500000 16.446303
203.500000 16.615342
203.500000 16.785221
203.500000 16.955938
203.500000 17.127494
203.500000 17.299889
203.500000 17.473123
203.500000 17.647196
203.500000 17.822108
203.500000 17.997858
203.500000 18.174448
203.500000 18.351876
203.500000 18.530143
203.500000 18.709250
203.500000 18.889195
203.500000 19.069979
203.500000 19.251602
203.500000 19.434064
203.500000 19.617365
203.500000 19.801504
203.500000 19.986483
203.500000 20.172300
203.500000 20.358957
203.500000 20.546452
203.500000 20.734786
203.500000 20.923959
203.500000 21.113971
203.500000 21.304822
203.500000 21.496512
203.500000 21.689041
203.500000 21.882408
203.500000 22.076615
203.500000 22.271660
203.500000 22.467545
203.500000 22.664268
203.500000 22.861830
203.500000 23.060231
203.500000 23.259471
203.500000 23.459550
203.500000 23.660468
203.500000 23.862224
203.500000 24.064820
203.500000 24.268255
203.500000 24.472528
203.500000 24.677640
203.500000 24.883591
203.500000 25.090382
203.500000 25.298011
203.500000 25.506479
203.500000 25.715785
203.500000 25.925931
203.500000 26.136916
203.500000 26.348739
203.500000 26.561402
203.500000 26.774903
203.500000 26.989243
203.500000 27.204423
203.500000 27.420441
203.500000 27.637298
203.500000 27.854993
203.500000 28.073528
203.500000 28.292902
203.500000 28.513115
203.500000 28.734166
203.500000 28.956056
203.500000 29.178786
203.500000 29.402354
203.500000 29.626761
203.500000 29.852007
203.500000 30.078092
203.500000 30.305016
203.500000 30.532779
203.500000 30.761380
203.500000 30.990821
203.500000 31.221100
203.500000 31.452219
203.500000 31.684176
203.500000 31.916972
203.500000 32.150607
203.500000 32.385081
203.500000 32.620394
203.500000 32.856546
203.500000 33.093537
203.500000 33.331366
203.500000 33.570035
203.500000 33.809542
203.500000 34.049888
203.500000 34.291074
203.500000 34.533098
203.500000 34.775961
203.500000 35.019663
203.500000 35.264204
203.500000 35.509583
203.500000 35.755802
203.500000 36.002860
203.500000 36.250756
203.500000 36.499491
203.500000 36.749066
203.500000 36.999479
203.500000 37.250731
203.500000 37.502822
203.500000 37.755752
203.500000 38.009521
203.500000 38.264128
203.500000 38.519575
203.500000 38.775860
203.500000 39.032985
203.500000 39.290948
203.500000 39.549750
203.500000 39.809392
203.500000 40.069872
203.500000 40.331191
203.500000 40.593348
203.500000 40.856345
203.500000 41.120181
203.500000 41.384855
203.500000 41.650369
203.500000 41.916721
203.500000 42.183913
203.500000 42.451943
203.500000 42.720812
203.500000 42.990520
203.500000 43.261067
203.500000 43.532453
203.500000 43.804677
203.500000 44.077741
203.500000 44.351643
203.500000 44.626385
203.500000 44.901965
203.500000 45.178384
203.500000 45.455643
203.500000 45.733740
203.500000 46.012676
203.500000 46.292450
203.500000 46.573064
203.500000 46.854517
203.500000 47.136808
203.500000 47.419939
203.500000 47.703908
203.500000 47.988717
203.500000 48.274364
203.500000 48.560850
203.500000 48.848175
203.500000 49.136339
203.500000 49.425342
203.500000 49.715183
203.500000 50.005864
203.500000 50.297384
203.500000 50.589742
203.500000 50.882939
203.500000 51.176976
203.500000 51.471851
203.500000 51.767565
203.500000 52.064118
203.500000 52.361510
203.500000 52.659740
203.500000 52.958810
203.500000 53.258719
203.500000 53.559466
203.500000 53.861053
203.500000 54.163478
203.500000 54.466742
203.500000 54.770845
203.500000 55.075787
203.500000 55.381568
203.500000 55.688188
203.500000 55.995647
203.500000 56.303944
203.500000 56.613081
203.500000 56.923056
203.500000 57.233871
203.500000 57.545524
203.500000 57.858016
203.500000 58.171347
203.500000 58.485517
203.500000 58.800526
203.500000 59.116374
203.500000 59.433060
203.500000 59.750586
203.500000 60.068950
203.500000 60.388154
203.500000 60.708196
203.500000 61.029077
203.500000 61.350798
203.500000 61.673357
203.500000 61.996754
203.500000 62.320991
203.500000 62.646067
203.500000 62.971982
203.500000 63.298735
203.500000 63.626328
203.500000 63.954759
203.500000 64.284029
203.500000 64.614138
203.500000 64.945087
203.500000 65.276874
203.500000 65.609499
203.500000 65.942964
203.500000 66.277268
203.500000 66.612411
203.500000 66.948392
203.500000 67.285212
203.500000 67.622872
203.500000 67.961370
203.500000 68.300707
203.500000 68.640883
203.500000 68.981898
203.500000 69.323752
203.500000 69.666445
203.500000 70.009976
203.500000 70.354347
203.500000 70.699556
203.500000 71.045605
203.500000 71.392492
203.500000 71.740218
203.500000 72.088783
203.500000 72.438187
203.500000 72.788430
203.500000 73.139512
203.500000 73.491433
203.500000 73.844192
203.500000 74.197791
203.500000 74.552228
203.500000 74.907504
203.500000 75.263620
203.500000 75.620574
203.500000 75.978367
203.500000 76.336999
203.500000 76.696470
203.500000 77.056779
203.500000 77.417928
203.500000 77.779916
203.500000 78.142742
203.500000 78.506407
203.500000 78.870912
203.500000 79.236255
203.500000 79.602437
203.500000 79.969458
203.500000 80.337318
203.500000 80.706017
203.500000 81.075554
203.500000 81.445931
203.500000 81.817147
203.500000 82.189201
203.500000 82.562094
203.500000 82.935827
203.500000 83.310398
203.500000 83.685808
203.500000 84.062057
203.500000 84.439145
203.500000 84.817071
203.500000 85.195837
203.500000 85.575442
203.500000 85.955885
203.500000 86.337167
203.500000 86.719289
203.500000 87.102249
203.500000 87.486048
203.500000 87.870686
203.500000 88.256163
203.500000 88.642479
203.500000 89.029633
203.500000 89.417627
203.500000 89.806460
203.500000 90.196131
203.500000 90.586641
203.500000 90.977991
203.500000 91.370179
203.500000 91.763206
203.500000 92.157072
203.500000 92.551777
203.500000 92.947320
203.500000 93.343703
203.500000 93.740925
203.500000 94.138985
203.500000 94.537885
203.500000 94.937623
203.500000 95.338200
203.500000 95.739616
203.500000 96.141871
203.500000 96.544965
203.500000 96.948898
203.500000 97.353670
203.500000 97.759280
203.500000 98.165730
203.500000 98.573018
203.500000 98.981146
203.500000 99.390112
203.500000 99.799917
203.500000 100.210561
203.500000 100.622044
203.500000 101.034366
203.500000 101.447527
203.500000 101.861526
203.500000 102.276365
203.500000 102.692042
203.500000 103.108559
203.500000 103.525914
203.500000 103.944108
203.500000 104.363141
203.500000 104.783013
203.500000 105.203724
203.500000 105.625274
203.500000 106.047663
203.500000 106.470891
203.500000 106.894957
203.500000 107.319863
203.500000 107.745607
203.500000 108.172190
203.500000 108.599612
203.500000 109.027873
203.500000 109.456973
203.500000 109.886912
203.500000 110.317690
203.500000 110.749307
203.500000 111.181762
203.500000 111.615057
203.500000 112.049190
203.500000 112.484163
203.500000 112.919974
203.500000 113.356624
203.500000 113.794113
203.500000 114.232441
203.500000 114.671608
203.500000 115.111613
203.500000 115.552458
203.500000 115.994142
203.500000 116.436664
203.500000 116.880025
203.500000 117.324226
203.500000 117.769265
203.500000 118.215143
203.500000 118.661860
203.500000 119.109416
203.500000 119.557811
203.500000 120.007044
203.500000 120.457117
203.500000 120.908028
203.500000 121.359779
203.500000 121.812368
203.500000 122.265796
203.500000 122.720063
203.500000 123.175170
203.500000 123.631114
203.500000 124.087898
203.500000 124.545521
203.500000 125.003983
203.500000 125.463283
203.500000 125.923423
203.500000 126.384401
203.500000 126.846218
203.500000 127.308875
203.500000 127.772370
203.500000 128.236704
203.500000 128.701877
203.500000 129.167888
203.500000 129.634739
203.500000 130.102429
203.500000 130.570957
203.500000 131.040325
203.500000 131.510531
203.500000 131.981576
203.500000 132.453460
203.500000 132.926183
203.500000 133.399745
203.500000 133.874146
203.500000 134.349386
203.500000 134.825465
203.500000 135.302382
203.500000 135.780139
203.500000 136.258734
203.500000 136.738168
203.500000 137.218441
203.500000 137.699554
203.500000 138.181505
203.500000 138.664294
203.500000 139.147923
203.500000 139.632391
203.500000 140.117698
203.500000 140.603843
203.500000 141.090828
203.500000 141.578651
203.500000 142.067313
203.500000 142.556814
203.500000 143.047154
203.500000 143.538333
203.500000 144.030351
203.500000 144.523208
203.500000 145.016904
203.500000 145.511438
203.500000 146.006812
203.500000 146.503024
203.500000 147.000075
203.500000 147.497965
203.500000 147.996695
203.500000 148.496263
203.500000 148.996669
203.500000 149.497915
203.500000 150.000000
</POINTS>
</NEKTAR>

