<?xml version="1.0" encoding="utf-8" ?>
<NEKTAR>
<POINTS DIM="2" FIELDS="">
263.500000 -0.500000
263.500000 -0.499581
263.500000 -0.498322
263.500000 -0.496225
263.500000 -0.493289
263.500000 -0.489514
263.500000 -0.484900
263.500000 -0.479447
263.500000 -0.473155
263.500000 -0.466024
263.500000 -0.458055
263.500000 -0.449246
263.500000 -0.439599
263.500000 -0.429113
263.500000 -0.417787
263.500000 -0.405623
263.500000 -0.392620
263.500000 -0.378778
263.500000 -0.364097
263.500000 -0.348578
263.500000 -0.332219
263.500000 -0.315021
263.500000 -0.296985
263.500000 -0.278110
263.500000 -0.258395
263.500000 -0.237842
263.500000 -0.216450
263.500000 -0.194219
263.500000 -0.171149
263.500000 -0.147240
263.500000 -0.122493
263.500000 -0.096906
263.500000 -0.070481
263.500000 -0.043216
263.500000 -0.015113
263.500000 0.013829
263.500000 0.043611
263.500000 0.074231
263.500000 0.105690
263.500000 0.137987
263.500000 0.171124
263.500000 0.205100
263.500000 0.239914
263.500000 0.275568
263.500000 0.312060
263.500000 0.349391
263.500000 0.387562
263.500000 0.426571
263.500000 0.466419
263.500000 0.507106
263.500000 0.548631
263.500000 0.590996
263.500000 0.634200
263.500000 0.678242
263.500000 0.723124
263.500000 0.768844
263.500000 0.815403
263.500000 0.862801
263.500000 0.911038
263.500000 0.960114
263.500000 1.010029
263.500000 1.060783
263.500000 1.112376
263.500000 1.164807
263.500000 1.218078
263.500000 1.272187
263.500000 1.327135
263.500000 1.382923
263.500000 1.439549
263.500000 1.497014
263.500000 1.555318
263.500000 1.614460
263.500000 1.674442
263.500000 1.735263
263.500000 1.796922
263.500000 1.859421
263.500000 1.922758
263.500000 1.986934
263.500000 2.051949
263.500000 2.117803
263.500000 2.184496
263.500000 2.252028
263.500000 2.320399
263.500000 2.389609
263.500000 2.459657
263.500000 2.530545
263.500000 2.602271
263.500000 2.674836
263.500000 2.748241
263.500000 2.822484
263.500000 2.897566
263.500000 2.973487
263.500000 3.050247
263.500000 3.127845
263.500000 3.206283
263.500000 3.285559
263.500000 3.365675
263.500000 3.446629
263.500000 3.528422
263.500000 3.611055
263.500000 3.694526
263.500000 3.778836
263.500000 3.863984
263.500000 3.949972
263.500000 4.036799
263.500000 4.124465
263.500000 4.212969
263.500000 4.302312
263.500000 4.392495
263.500000 4.483516
263.500000 4.575376
263.500000 4.668075
263.500000 4.761613
263.500000 4.855990
263.500000 4.951206
263.500000 5.047260
263.500000 5.144154
263.500000 5.241886
263.500000 5.340458
263.500000 5.439868
263.500000 5.540117
263.500000 5.641205
263.500000 5.743132
263.500000 5.845898
263.500000 5.949503
263.500000 6.053946
263.500000 6.159229
263.500000 6.265350
263.500000 6.372311
263.500000 6.480110
263.500000 6.588748
263.500000 6.698225
263.500000 6.808542
263.500000 6.919696
263.500000 7.031690
263.500000 7.144523
263.500000 7.258195
263.500000 7.372705
263.500000 7.488055
263.500000 7.604243
263.500000 7.721270
263.500000 7.839136
263.500000 7.957842
263.500000 8.077386
263.500000 8.197768
263.500000 8.318990
263.500000 8.441051
263.500000 8.563950
263.500000 8.687689
263.500000 8.812266
263.500000 8.937683
263.500000 9.063938
263.500000 9.191032
263.500000 9.318965
263.500000 9.447737
263.500000 9.577348
263.500000 9.707798
263.500000 9.839086
263.500000 9.971214
263.500000 10.104180
263.500000 10.237986
263.500000 10.372630
263.500000 10.508113
263.500000 10.644435
263.500000 10.781596
263.500000 10.919596
263.500000 11.058435
263.500000 11.198113
263.500000 11.338629
263.500000 11.479985
263.500000 11.622179
263.500000 11.765212
263.500000 11.909085
263.500000 12.053796
263.500000 12.199346
263.500000 12.345735
263.500000 12.492963
263.500000 12.641029
263.500000 12.789935
263.500000 12.939680
263.500000 13.090263
263.500000 13.241686
263.500000 13.393947
263.500000 13.547047
263.500000 13.700986
263.500000 13.855764
263.500000 14.011381
263.500000 14.167837
263.500000 14.325131
263.500000 14.483265
263.500000 14.642238
263.500000 14.802049
263.500000 14.962699
263.500000 15.124189
263.500000 15.286517
263.500000 15.449684
263.500000 15.613690
263.500000 15.778535
263.500000 15.944218
263.500000 16.110741
263.500000 16.278103
263.500000 16.446303
263.500000 16.615342
263.500000 16.785221
263.500000 16.955938
263.500000 17.127494
263.500000 17.299889
263.500000 17.473123
263.500000 17.647196
263.500000 17.822108
263.500000 17.997858
263.500000 18.174448
263.500000 18.351876
263.500000 18.530143
263.500000 18.709250
263.500000 18.889195
263.500000 19.069979
263.500000 19.251602
263.500000 19.434064
263.500000 19.617365
263.500000 19.801504
263.500000 19.986483
263.500000 20.172300
263.500000 20.358957
263.500000 20.546452
263.500000 20.734786
263.500000 20.923959
263.500000 21.113971
263.500000 21.304822
263.500000 21.496512
263.500000 21.689041
263.500000 21.882408
263.500000 22.076615
263.500000 22.271660
263.500000 22.467545
263.500000 22.664268
263.500000 22.861830
263.500000 23.060231
263.500000 23.259471
263.500000 23.459550
263.500000 23.660468
263.500000 23.862224
263.500000 24.064820
263.500000 24.268255
263.500000 24.472528
263.500000 24.677640
263.500000 24.883591
263.500000 25.090382
263.500000 25.298011
263.500000 25.506479
263.500000 25.715785
263.500000 25.925931
263.500000 26.136916
263.500000 26.348739
263.500000 26.561402
263.500000 26.774903
263.500000 26.989243
263.500000 27.204423
263.500000 27.420441
263.500000 27.637298
263.500000 27.854993
263.500000 28.073528
263.500000 28.292902
263.500000 28.513115
263.500000 28.734166
263.500000 28.956056
263.500000 29.178786
263.500000 29.402354
263.500000 29.626761
263.500000 29.852007
263.500000 30.078092
263.500000 30.305016
263.500000 30.532779
263.500000 30.761380
263.500000 30.990821
263.500000 31.221100
263.500000 31.452219
263.500000 31.684176
263.500000 31.916972
263.500000 32.150607
263.500000 32.385081
263.500000 32.620394
263.500000 32.856546
263.500000 33.093537
263.500000 33.331366
263.500000 33.570035
263.500000 33.809542
263.500000 34.049888
263.500000 34.291074
263.500000 34.533098
263.500000 34.775961
263.500000 35.019663
263.500000 35.264204
263.500000 35.509583
263.500000 35.755802
263.500000 36.002860
263.500000 36.250756
263.500000 36.499491
263.500000 36.749066
263.500000 36.999479
263.500000 37.250731
263.500000 37.502822
263.500000 37.755752
263.500000 38.009521
263.500000 38.264128
263.500000 38.519575
263.500000 38.775860
263.500000 39.032985
263.500000 39.290948
263.500000 39.549750
263.500000 39.809392
263.500000 40.069872
263.500000 40.331191
263.500000 40.593348
263.500000 40.856345
263.500000 41.120181
263.500000 41.384855
263.500000 41.650369
263.500000 41.916721
263.500000 42.183913
263.500000 42.451943
263.500000 42.720812
263.500000 42.990520
263.500000 43.261067
263.500000 43.532453
263.500000 43.804677
263.500000 44.077741
263.500000 44.351643
263.500000 44.626385
263.500000 44.901965
263.500000 45.178384
263.500000 45.455643
263.500000 45.733740
263.500000 46.012676
263.500000 46.292450
263.500000 46.573064
263.500000 46.854517
263.500000 47.136808
263.500000 47.419939
263.500000 47.703908
263.500000 47.988717
263.500000 48.274364
263.500000 48.560850
263.500000 48.848175
263.500000 49.136339
263.500000 49.425342
263.500000 49.715183
263.500000 50.005864
263.500000 50.297384
263.500000 50.589742
263.500000 50.882939
263.500000 51.176976
263.500000 51.471851
263.500000 51.767565
263.500000 52.064118
263.500000 52.361510
263.500000 52.659740
263.500000 52.958810
263.500000 53.258719
263.500000 53.559466
263.500000 53.861053
263.500000 54.163478
263.500000 54.466742
263.500000 54.770845
263.500000 55.075787
263.500000 55.381568
263.500000 55.688188
263.500000 55.995647
263.500000 56.303944
263.500000 56.613081
263.500000 56.923056
263.500000 57.233871
263.500000 57.545524
263.500000 57.858016
263.500000 58.171347
263.500000 58.485517
263.500000 58.800526
263.500000 59.116374
263.500000 59.433060
263.500000 59.750586
263.500000 60.068950
263.500000 60.388154
263.500000 60.708196
263.500000 61.029077
263.500000 61.350798
263.500000 61.673357
263.500000 61.996754
263.500000 62.320991
263.500000 62.646067
263.500000 62.971982
263.500000 63.298735
263.500000 63.626328
263.500000 63.954759
263.500000 64.284029
263.500000 64.614138
263.500000 64.945087
263.500000 65.276874
263.500000 65.609499
263.500000 65.942964
263.500000 66.277268
263.500000 66.612411
263.500000 66.948392
263.500000 67.285212
263.500000 67.622872
263.500000 67.961370
263.500000 68.300707
263.500000 68.640883
263.500000 68.981898
263.500000 69.323752
263.500000 69.666445
263.500000 70.009976
263.500000 70.354347
263.500000 70.699556
263.500000 71.045605
263.500000 71.392492
263.500000 71.740218
263.500000 72.088783
263.500000 72.438187
263.500000 72.788430
263.500000 73.139512
263.500000 73.491433
263.500000 73.844192
263.500000 74.197791
263.500000 74.552228
263.500000 74.907504
263.500000 75.263620
263.500000 75.620574
263.500000 75.978367
263.500000 76.336999
263.500000 76.696470
263.500000 77.056779
263.500000 77.417928
263.500000 77.779916
263.500000 78.142742
263.500000 78.506407
263.500000 78.870912
263.500000 79.236255
263.500000 79.602437
263.500000 79.969458
263.500000 80.337318
263.500000 80.706017
263.500000 81.075554
263.500000 81.445931
263.500000 81.817147
263.500000 82.189201
263.500000 82.562094
263.500000 82.935827
263.500000 83.310398
263.500000 83.685808
263.500000 84.062057
263.500000 84.439145
263.500000 84.817071
263.500000 85.195837
263.500000 85.575442
263.500000 85.955885
263.500000 86.337167
263.500000 86.719289
263.500000 87.102249
263.500000 87.486048
263.500000 87.870686
263.500000 88.256163
263.500000 88.642479
263.500000 89.029633
263.500000 89.417627
263.500000 89.806460
263.500000 90.196131
263.500000 90.586641
263.500000 90.977991
263.500000 91.370179
263.500000 91.763206
263.500000 92.157072
263.500000 92.551777
263.500000 92.947320
263.500000 93.343703
263.500000 93.740925
263.500000 94.138985
263.500000 94.537885
263.500000 94.937623
263.500000 95.338200
263.500000 95.739616
263.500000 96.141871
263.500000 96.544965
263.500000 96.948898
263.500000 97.353670
263.500000 97.759280
263.500000 98.165730
263.500000 98.573018
263.500000 98.981146
263.500000 99.390112
263.500000 99.799917
263.500000 100.210561
263.500000 100.622044
263.500000 101.034366
263.500000 101.447527
263.500000 101.861526
263.500000 102.276365
263.500000 102.692042
263.500000 103.108559
263.500000 103.525914
263.500000 103.944108
263.500000 104.363141
263.500000 104.783013
263.500000 105.203724
263.500000 105.625274
263.500000 106.047663
263.500000 106.470891
263.500000 106.894957
263.500000 107.319863
263.500000 107.745607
263.500000 108.172190
263.500000 108.599612
263.500000 109.027873
263.500000 109.456973
263.500000 109.886912
263.500000 110.317690
263.500000 110.749307
263.500000 111.181762
263.500000 111.615057
263.500000 112.049190
263.500000 112.484163
263.500000 112.919974
263.500000 113.356624
263.500000 113.794113
263.500000 114.232441
263.500000 114.671608
263.500000 115.111613
263.500000 115.552458
263.500000 115.994142
263.500000 116.436664
263.500000 116.880025
263.500000 117.324226
263.500000 117.769265
263.500000 118.215143
263.500000 118.661860
263.500000 119.109416
263.500000 119.557811
263.500000 120.007044
263.500000 120.457117
263.500000 120.908028
263.500000 121.359779
263.500000 121.812368
263.500000 122.265796
263.500000 122.720063
263.500000 123.175170
263.500000 123.631114
263.500000 124.087898
263.500000 124.545521
263.500000 125.003983
263.500000 125.463283
263.500000 125.923423
263.500000 126.384401
263.500000 126.846218
263.500000 127.308875
263.500000 127.772370
263.500000 128.236704
263.500000 128.701877
263.500000 129.167888
263.500000 129.634739
263.500000 130.102429
263.500000 130.570957
263.500000 131.040325
263.500000 131.510531
263.500000 131.981576
263.500000 132.453460
263.500000 132.926183
263.500000 133.399745
263.500000 133.874146
263.500000 134.349386
263.500000 134.825465
263.500000 135.302382
263.500000 135.780139
263.500000 136.258734
263.500000 136.738168
263.500000 137.218441
263.500000 137.699554
263.500000 138.181505
263.500000 138.664294
263.500000 139.147923
263.500000 139.632391
263.500000 140.117698
263.500000 140.603843
263.500000 141.090828
263.500000 141.578651
263.500000 142.067313
263.500000 142.556814
263.500000 143.047154
263.500000 143.538333
263.500000 144.030351
263.500000 144.523208
263.500000 145.016904
263.500000 145.511438
263.500000 146.006812
263.500000 146.503024
263.500000 147.000075
263.500000 147.497965
263.500000 147.996695
263.500000 148.496263
263.500000 148.996669
263.500000 149.497915
263.500000 150.000000
</POINTS>
</NEKTAR>

