<?xml version="1.0" encoding="utf-8" ?>
<NEKTAR>
<POINTS DIM="2" FIELDS="">
803.500000 -0.500000
803.500000 -0.499581
803.500000 -0.498322
803.500000 -0.496225
803.500000 -0.493289
803.500000 -0.489514
803.500000 -0.484900
803.500000 -0.479447
803.500000 -0.473155
803.500000 -0.466024
803.500000 -0.458055
803.500000 -0.449246
803.500000 -0.439599
803.500000 -0.429113
803.500000 -0.417787
803.500000 -0.405623
803.500000 -0.392620
803.500000 -0.378778
803.500000 -0.364097
803.500000 -0.348578
803.500000 -0.332219
803.500000 -0.315021
803.500000 -0.296985
803.500000 -0.278110
803.500000 -0.258395
803.500000 -0.237842
803.500000 -0.216450
803.500000 -0.194219
803.500000 -0.171149
803.500000 -0.147240
803.500000 -0.122493
803.500000 -0.096906
803.500000 -0.070481
803.500000 -0.043216
803.500000 -0.015113
803.500000 0.013829
803.500000 0.043611
803.500000 0.074231
803.500000 0.105690
803.500000 0.137987
803.500000 0.171124
803.500000 0.205100
803.500000 0.239914
803.500000 0.275568
803.500000 0.312060
803.500000 0.349391
803.500000 0.387562
803.500000 0.426571
803.500000 0.466419
803.500000 0.507106
803.500000 0.548631
803.500000 0.590996
803.500000 0.634200
803.500000 0.678242
803.500000 0.723124
803.500000 0.768844
803.500000 0.815403
803.500000 0.862801
803.500000 0.911038
803.500000 0.960114
803.500000 1.010029
803.500000 1.060783
803.500000 1.112376
803.500000 1.164807
803.500000 1.218078
803.500000 1.272187
803.500000 1.327135
803.500000 1.382923
803.500000 1.439549
803.500000 1.497014
803.500000 1.555318
803.500000 1.614460
803.500000 1.674442
803.500000 1.735263
803.500000 1.796922
803.500000 1.859421
803.500000 1.922758
803.500000 1.986934
803.500000 2.051949
803.500000 2.117803
803.500000 2.184496
803.500000 2.252028
803.500000 2.320399
803.500000 2.389609
803.500000 2.459657
803.500000 2.530545
803.500000 2.602271
803.500000 2.674836
803.500000 2.748241
803.500000 2.822484
803.500000 2.897566
803.500000 2.973487
803.500000 3.050247
803.500000 3.127845
803.500000 3.206283
803.500000 3.285559
803.500000 3.365675
803.500000 3.446629
803.500000 3.528422
803.500000 3.611055
803.500000 3.694526
803.500000 3.778836
803.500000 3.863984
803.500000 3.949972
803.500000 4.036799
803.500000 4.124465
803.500000 4.212969
803.500000 4.302312
803.500000 4.392495
803.500000 4.483516
803.500000 4.575376
803.500000 4.668075
803.500000 4.761613
803.500000 4.855990
803.500000 4.951206
803.500000 5.047260
803.500000 5.144154
803.500000 5.241886
803.500000 5.340458
803.500000 5.439868
803.500000 5.540117
803.500000 5.641205
803.500000 5.743132
803.500000 5.845898
803.500000 5.949503
803.500000 6.053946
803.500000 6.159229
803.500000 6.265350
803.500000 6.372311
803.500000 6.480110
803.500000 6.588748
803.500000 6.698225
803.500000 6.808542
803.500000 6.919696
803.500000 7.031690
803.500000 7.144523
803.500000 7.258195
803.500000 7.372705
803.500000 7.488055
803.500000 7.604243
803.500000 7.721270
803.500000 7.839136
803.500000 7.957842
803.500000 8.077386
803.500000 8.197768
803.500000 8.318990
803.500000 8.441051
803.500000 8.563950
803.500000 8.687689
803.500000 8.812266
803.500000 8.937683
803.500000 9.063938
803.500000 9.191032
803.500000 9.318965
803.500000 9.447737
803.500000 9.577348
803.500000 9.707798
803.500000 9.839086
803.500000 9.971214
803.500000 10.104180
803.500000 10.237986
803.500000 10.372630
803.500000 10.508113
803.500000 10.644435
803.500000 10.781596
803.500000 10.919596
803.500000 11.058435
803.500000 11.198113
803.500000 11.338629
803.500000 11.479985
803.500000 11.622179
803.500000 11.765212
803.500000 11.909085
803.500000 12.053796
803.500000 12.199346
803.500000 12.345735
803.500000 12.492963
803.500000 12.641029
803.500000 12.789935
803.500000 12.939680
803.500000 13.090263
803.500000 13.241686
803.500000 13.393947
803.500000 13.547047
803.500000 13.700986
803.500000 13.855764
803.500000 14.011381
803.500000 14.167837
803.500000 14.325131
803.500000 14.483265
803.500000 14.642238
803.500000 14.802049
803.500000 14.962699
803.500000 15.124189
803.500000 15.286517
803.500000 15.449684
803.500000 15.613690
803.500000 15.778535
803.500000 15.944218
803.500000 16.110741
803.500000 16.278103
803.500000 16.446303
803.500000 16.615342
803.500000 16.785221
803.500000 16.955938
803.500000 17.127494
803.500000 17.299889
803.500000 17.473123
803.500000 17.647196
803.500000 17.822108
803.500000 17.997858
803.500000 18.174448
803.500000 18.351876
803.500000 18.530143
803.500000 18.709250
803.500000 18.889195
803.500000 19.069979
803.500000 19.251602
803.500000 19.434064
803.500000 19.617365
803.500000 19.801504
803.500000 19.986483
803.500000 20.172300
803.500000 20.358957
803.500000 20.546452
803.500000 20.734786
803.500000 20.923959
803.500000 21.113971
803.500000 21.304822
803.500000 21.496512
803.500000 21.689041
803.500000 21.882408
803.500000 22.076615
803.500000 22.271660
803.500000 22.467545
803.500000 22.664268
803.500000 22.861830
803.500000 23.060231
803.500000 23.259471
803.500000 23.459550
803.500000 23.660468
803.500000 23.862224
803.500000 24.064820
803.500000 24.268255
803.500000 24.472528
803.500000 24.677640
803.500000 24.883591
803.500000 25.090382
803.500000 25.298011
803.500000 25.506479
803.500000 25.715785
803.500000 25.925931
803.500000 26.136916
803.500000 26.348739
803.500000 26.561402
803.500000 26.774903
803.500000 26.989243
803.500000 27.204423
803.500000 27.420441
803.500000 27.637298
803.500000 27.854993
803.500000 28.073528
803.500000 28.292902
803.500000 28.513115
803.500000 28.734166
803.500000 28.956056
803.500000 29.178786
803.500000 29.402354
803.500000 29.626761
803.500000 29.852007
803.500000 30.078092
803.500000 30.305016
803.500000 30.532779
803.500000 30.761380
803.500000 30.990821
803.500000 31.221100
803.500000 31.452219
803.500000 31.684176
803.500000 31.916972
803.500000 32.150607
803.500000 32.385081
803.500000 32.620394
803.500000 32.856546
803.500000 33.093537
803.500000 33.331366
803.500000 33.570035
803.500000 33.809542
803.500000 34.049888
803.500000 34.291074
803.500000 34.533098
803.500000 34.775961
803.500000 35.019663
803.500000 35.264204
803.500000 35.509583
803.500000 35.755802
803.500000 36.002860
803.500000 36.250756
803.500000 36.499491
803.500000 36.749066
803.500000 36.999479
803.500000 37.250731
803.500000 37.502822
803.500000 37.755752
803.500000 38.009521
803.500000 38.264128
803.500000 38.519575
803.500000 38.775860
803.500000 39.032985
803.500000 39.290948
803.500000 39.549750
803.500000 39.809392
803.500000 40.069872
803.500000 40.331191
803.500000 40.593348
803.500000 40.856345
803.500000 41.120181
803.500000 41.384855
803.500000 41.650369
803.500000 41.916721
803.500000 42.183913
803.500000 42.451943
803.500000 42.720812
803.500000 42.990520
803.500000 43.261067
803.500000 43.532453
803.500000 43.804677
803.500000 44.077741
803.500000 44.351643
803.500000 44.626385
803.500000 44.901965
803.500000 45.178384
803.500000 45.455643
803.500000 45.733740
803.500000 46.012676
803.500000 46.292450
803.500000 46.573064
803.500000 46.854517
803.500000 47.136808
803.500000 47.419939
803.500000 47.703908
803.500000 47.988717
803.500000 48.274364
803.500000 48.560850
803.500000 48.848175
803.500000 49.136339
803.500000 49.425342
803.500000 49.715183
803.500000 50.005864
803.500000 50.297384
803.500000 50.589742
803.500000 50.882939
803.500000 51.176976
803.500000 51.471851
803.500000 51.767565
803.500000 52.064118
803.500000 52.361510
803.500000 52.659740
803.500000 52.958810
803.500000 53.258719
803.500000 53.559466
803.500000 53.861053
803.500000 54.163478
803.500000 54.466742
803.500000 54.770845
803.500000 55.075787
803.500000 55.381568
803.500000 55.688188
803.500000 55.995647
803.500000 56.303944
803.500000 56.613081
803.500000 56.923056
803.500000 57.233871
803.500000 57.545524
803.500000 57.858016
803.500000 58.171347
803.500000 58.485517
803.500000 58.800526
803.500000 59.116374
803.500000 59.433060
803.500000 59.750586
803.500000 60.068950
803.500000 60.388154
803.500000 60.708196
803.500000 61.029077
803.500000 61.350798
803.500000 61.673357
803.500000 61.996754
803.500000 62.320991
803.500000 62.646067
803.500000 62.971982
803.500000 63.298735
803.500000 63.626328
803.500000 63.954759
803.500000 64.284029
803.500000 64.614138
803.500000 64.945087
803.500000 65.276874
803.500000 65.609499
803.500000 65.942964
803.500000 66.277268
803.500000 66.612411
803.500000 66.948392
803.500000 67.285212
803.500000 67.622872
803.500000 67.961370
803.500000 68.300707
803.500000 68.640883
803.500000 68.981898
803.500000 69.323752
803.500000 69.666445
803.500000 70.009976
803.500000 70.354347
803.500000 70.699556
803.500000 71.045605
803.500000 71.392492
803.500000 71.740218
803.500000 72.088783
803.500000 72.438187
803.500000 72.788430
803.500000 73.139512
803.500000 73.491433
803.500000 73.844192
803.500000 74.197791
803.500000 74.552228
803.500000 74.907504
803.500000 75.263620
803.500000 75.620574
803.500000 75.978367
803.500000 76.336999
803.500000 76.696470
803.500000 77.056779
803.500000 77.417928
803.500000 77.779916
803.500000 78.142742
803.500000 78.506407
803.500000 78.870912
803.500000 79.236255
803.500000 79.602437
803.500000 79.969458
803.500000 80.337318
803.500000 80.706017
803.500000 81.075554
803.500000 81.445931
803.500000 81.817147
803.500000 82.189201
803.500000 82.562094
803.500000 82.935827
803.500000 83.310398
803.500000 83.685808
803.500000 84.062057
803.500000 84.439145
803.500000 84.817071
803.500000 85.195837
803.500000 85.575442
803.500000 85.955885
803.500000 86.337167
803.500000 86.719289
803.500000 87.102249
803.500000 87.486048
803.500000 87.870686
803.500000 88.256163
803.500000 88.642479
803.500000 89.029633
803.500000 89.417627
803.500000 89.806460
803.500000 90.196131
803.500000 90.586641
803.500000 90.977991
803.500000 91.370179
803.500000 91.763206
803.500000 92.157072
803.500000 92.551777
803.500000 92.947320
803.500000 93.343703
803.500000 93.740925
803.500000 94.138985
803.500000 94.537885
803.500000 94.937623
803.500000 95.338200
803.500000 95.739616
803.500000 96.141871
803.500000 96.544965
803.500000 96.948898
803.500000 97.353670
803.500000 97.759280
803.500000 98.165730
803.500000 98.573018
803.500000 98.981146
803.500000 99.390112
803.500000 99.799917
803.500000 100.210561
803.500000 100.622044
803.500000 101.034366
803.500000 101.447527
803.500000 101.861526
803.500000 102.276365
803.500000 102.692042
803.500000 103.108559
803.500000 103.525914
803.500000 103.944108
803.500000 104.363141
803.500000 104.783013
803.500000 105.203724
803.500000 105.625274
803.500000 106.047663
803.500000 106.470891
803.500000 106.894957
803.500000 107.319863
803.500000 107.745607
803.500000 108.172190
803.500000 108.599612
803.500000 109.027873
803.500000 109.456973
803.500000 109.886912
803.500000 110.317690
803.500000 110.749307
803.500000 111.181762
803.500000 111.615057
803.500000 112.049190
803.500000 112.484163
803.500000 112.919974
803.500000 113.356624
803.500000 113.794113
803.500000 114.232441
803.500000 114.671608
803.500000 115.111613
803.500000 115.552458
803.500000 115.994142
803.500000 116.436664
803.500000 116.880025
803.500000 117.324226
803.500000 117.769265
803.500000 118.215143
803.500000 118.661860
803.500000 119.109416
803.500000 119.557811
803.500000 120.007044
803.500000 120.457117
803.500000 120.908028
803.500000 121.359779
803.500000 121.812368
803.500000 122.265796
803.500000 122.720063
803.500000 123.175170
803.500000 123.631114
803.500000 124.087898
803.500000 124.545521
803.500000 125.003983
803.500000 125.463283
803.500000 125.923423
803.500000 126.384401
803.500000 126.846218
803.500000 127.308875
803.500000 127.772370
803.500000 128.236704
803.500000 128.701877
803.500000 129.167888
803.500000 129.634739
803.500000 130.102429
803.500000 130.570957
803.500000 131.040325
803.500000 131.510531
803.500000 131.981576
803.500000 132.453460
803.500000 132.926183
803.500000 133.399745
803.500000 133.874146
803.500000 134.349386
803.500000 134.825465
803.500000 135.302382
803.500000 135.780139
803.500000 136.258734
803.500000 136.738168
803.500000 137.218441
803.500000 137.699554
803.500000 138.181505
803.500000 138.664294
803.500000 139.147923
803.500000 139.632391
803.500000 140.117698
803.500000 140.603843
803.500000 141.090828
803.500000 141.578651
803.500000 142.067313
803.500000 142.556814
803.500000 143.047154
803.500000 143.538333
803.500000 144.030351
803.500000 144.523208
803.500000 145.016904
803.500000 145.511438
803.500000 146.006812
803.500000 146.503024
803.500000 147.000075
803.500000 147.497965
803.500000 147.996695
803.500000 148.496263
803.500000 148.996669
803.500000 149.497915
803.500000 150.000000
</POINTS>
</NEKTAR>

