<?xml version="1.0" encoding="utf-8" ?>
<NEKTAR>
<POINTS DIM="2" FIELDS="">
703.500000 -0.500000
703.500000 -0.499581
703.500000 -0.498322
703.500000 -0.496225
703.500000 -0.493289
703.500000 -0.489514
703.500000 -0.484900
703.500000 -0.479447
703.500000 -0.473155
703.500000 -0.466024
703.500000 -0.458055
703.500000 -0.449246
703.500000 -0.439599
703.500000 -0.429113
703.500000 -0.417787
703.500000 -0.405623
703.500000 -0.392620
703.500000 -0.378778
703.500000 -0.364097
703.500000 -0.348578
703.500000 -0.332219
703.500000 -0.315021
703.500000 -0.296985
703.500000 -0.278110
703.500000 -0.258395
703.500000 -0.237842
703.500000 -0.216450
703.500000 -0.194219
703.500000 -0.171149
703.500000 -0.147240
703.500000 -0.122493
703.500000 -0.096906
703.500000 -0.070481
703.500000 -0.043216
703.500000 -0.015113
703.500000 0.013829
703.500000 0.043611
703.500000 0.074231
703.500000 0.105690
703.500000 0.137987
703.500000 0.171124
703.500000 0.205100
703.500000 0.239914
703.500000 0.275568
703.500000 0.312060
703.500000 0.349391
703.500000 0.387562
703.500000 0.426571
703.500000 0.466419
703.500000 0.507106
703.500000 0.548631
703.500000 0.590996
703.500000 0.634200
703.500000 0.678242
703.500000 0.723124
703.500000 0.768844
703.500000 0.815403
703.500000 0.862801
703.500000 0.911038
703.500000 0.960114
703.500000 1.010029
703.500000 1.060783
703.500000 1.112376
703.500000 1.164807
703.500000 1.218078
703.500000 1.272187
703.500000 1.327135
703.500000 1.382923
703.500000 1.439549
703.500000 1.497014
703.500000 1.555318
703.500000 1.614460
703.500000 1.674442
703.500000 1.735263
703.500000 1.796922
703.500000 1.859421
703.500000 1.922758
703.500000 1.986934
703.500000 2.051949
703.500000 2.117803
703.500000 2.184496
703.500000 2.252028
703.500000 2.320399
703.500000 2.389609
703.500000 2.459657
703.500000 2.530545
703.500000 2.602271
703.500000 2.674836
703.500000 2.748241
703.500000 2.822484
703.500000 2.897566
703.500000 2.973487
703.500000 3.050247
703.500000 3.127845
703.500000 3.206283
703.500000 3.285559
703.500000 3.365675
703.500000 3.446629
703.500000 3.528422
703.500000 3.611055
703.500000 3.694526
703.500000 3.778836
703.500000 3.863984
703.500000 3.949972
703.500000 4.036799
703.500000 4.124465
703.500000 4.212969
703.500000 4.302312
703.500000 4.392495
703.500000 4.483516
703.500000 4.575376
703.500000 4.668075
703.500000 4.761613
703.500000 4.855990
703.500000 4.951206
703.500000 5.047260
703.500000 5.144154
703.500000 5.241886
703.500000 5.340458
703.500000 5.439868
703.500000 5.540117
703.500000 5.641205
703.500000 5.743132
703.500000 5.845898
703.500000 5.949503
703.500000 6.053946
703.500000 6.159229
703.500000 6.265350
703.500000 6.372311
703.500000 6.480110
703.500000 6.588748
703.500000 6.698225
703.500000 6.808542
703.500000 6.919696
703.500000 7.031690
703.500000 7.144523
703.500000 7.258195
703.500000 7.372705
703.500000 7.488055
703.500000 7.604243
703.500000 7.721270
703.500000 7.839136
703.500000 7.957842
703.500000 8.077386
703.500000 8.197768
703.500000 8.318990
703.500000 8.441051
703.500000 8.563950
703.500000 8.687689
703.500000 8.812266
703.500000 8.937683
703.500000 9.063938
703.500000 9.191032
703.500000 9.318965
703.500000 9.447737
703.500000 9.577348
703.500000 9.707798
703.500000 9.839086
703.500000 9.971214
703.500000 10.104180
703.500000 10.237986
703.500000 10.372630
703.500000 10.508113
703.500000 10.644435
703.500000 10.781596
703.500000 10.919596
703.500000 11.058435
703.500000 11.198113
703.500000 11.338629
703.500000 11.479985
703.500000 11.622179
703.500000 11.765212
703.500000 11.909085
703.500000 12.053796
703.500000 12.199346
703.500000 12.345735
703.500000 12.492963
703.500000 12.641029
703.500000 12.789935
703.500000 12.939680
703.500000 13.090263
703.500000 13.241686
703.500000 13.393947
703.500000 13.547047
703.500000 13.700986
703.500000 13.855764
703.500000 14.011381
703.500000 14.167837
703.500000 14.325131
703.500000 14.483265
703.500000 14.642238
703.500000 14.802049
703.500000 14.962699
703.500000 15.124189
703.500000 15.286517
703.500000 15.449684
703.500000 15.613690
703.500000 15.778535
703.500000 15.944218
703.500000 16.110741
703.500000 16.278103
703.500000 16.446303
703.500000 16.615342
703.500000 16.785221
703.500000 16.955938
703.500000 17.127494
703.500000 17.299889
703.500000 17.473123
703.500000 17.647196
703.500000 17.822108
703.500000 17.997858
703.500000 18.174448
703.500000 18.351876
703.500000 18.530143
703.500000 18.709250
703.500000 18.889195
703.500000 19.069979
703.500000 19.251602
703.500000 19.434064
703.500000 19.617365
703.500000 19.801504
703.500000 19.986483
703.500000 20.172300
703.500000 20.358957
703.500000 20.546452
703.500000 20.734786
703.500000 20.923959
703.500000 21.113971
703.500000 21.304822
703.500000 21.496512
703.500000 21.689041
703.500000 21.882408
703.500000 22.076615
703.500000 22.271660
703.500000 22.467545
703.500000 22.664268
703.500000 22.861830
703.500000 23.060231
703.500000 23.259471
703.500000 23.459550
703.500000 23.660468
703.500000 23.862224
703.500000 24.064820
703.500000 24.268255
703.500000 24.472528
703.500000 24.677640
703.500000 24.883591
703.500000 25.090382
703.500000 25.298011
703.500000 25.506479
703.500000 25.715785
703.500000 25.925931
703.500000 26.136916
703.500000 26.348739
703.500000 26.561402
703.500000 26.774903
703.500000 26.989243
703.500000 27.204423
703.500000 27.420441
703.500000 27.637298
703.500000 27.854993
703.500000 28.073528
703.500000 28.292902
703.500000 28.513115
703.500000 28.734166
703.500000 28.956056
703.500000 29.178786
703.500000 29.402354
703.500000 29.626761
703.500000 29.852007
703.500000 30.078092
703.500000 30.305016
703.500000 30.532779
703.500000 30.761380
703.500000 30.990821
703.500000 31.221100
703.500000 31.452219
703.500000 31.684176
703.500000 31.916972
703.500000 32.150607
703.500000 32.385081
703.500000 32.620394
703.500000 32.856546
703.500000 33.093537
703.500000 33.331366
703.500000 33.570035
703.500000 33.809542
703.500000 34.049888
703.500000 34.291074
703.500000 34.533098
703.500000 34.775961
703.500000 35.019663
703.500000 35.264204
703.500000 35.509583
703.500000 35.755802
703.500000 36.002860
703.500000 36.250756
703.500000 36.499491
703.500000 36.749066
703.500000 36.999479
703.500000 37.250731
703.500000 37.502822
703.500000 37.755752
703.500000 38.009521
703.500000 38.264128
703.500000 38.519575
703.500000 38.775860
703.500000 39.032985
703.500000 39.290948
703.500000 39.549750
703.500000 39.809392
703.500000 40.069872
703.500000 40.331191
703.500000 40.593348
703.500000 40.856345
703.500000 41.120181
703.500000 41.384855
703.500000 41.650369
703.500000 41.916721
703.500000 42.183913
703.500000 42.451943
703.500000 42.720812
703.500000 42.990520
703.500000 43.261067
703.500000 43.532453
703.500000 43.804677
703.500000 44.077741
703.500000 44.351643
703.500000 44.626385
703.500000 44.901965
703.500000 45.178384
703.500000 45.455643
703.500000 45.733740
703.500000 46.012676
703.500000 46.292450
703.500000 46.573064
703.500000 46.854517
703.500000 47.136808
703.500000 47.419939
703.500000 47.703908
703.500000 47.988717
703.500000 48.274364
703.500000 48.560850
703.500000 48.848175
703.500000 49.136339
703.500000 49.425342
703.500000 49.715183
703.500000 50.005864
703.500000 50.297384
703.500000 50.589742
703.500000 50.882939
703.500000 51.176976
703.500000 51.471851
703.500000 51.767565
703.500000 52.064118
703.500000 52.361510
703.500000 52.659740
703.500000 52.958810
703.500000 53.258719
703.500000 53.559466
703.500000 53.861053
703.500000 54.163478
703.500000 54.466742
703.500000 54.770845
703.500000 55.075787
703.500000 55.381568
703.500000 55.688188
703.500000 55.995647
703.500000 56.303944
703.500000 56.613081
703.500000 56.923056
703.500000 57.233871
703.500000 57.545524
703.500000 57.858016
703.500000 58.171347
703.500000 58.485517
703.500000 58.800526
703.500000 59.116374
703.500000 59.433060
703.500000 59.750586
703.500000 60.068950
703.500000 60.388154
703.500000 60.708196
703.500000 61.029077
703.500000 61.350798
703.500000 61.673357
703.500000 61.996754
703.500000 62.320991
703.500000 62.646067
703.500000 62.971982
703.500000 63.298735
703.500000 63.626328
703.500000 63.954759
703.500000 64.284029
703.500000 64.614138
703.500000 64.945087
703.500000 65.276874
703.500000 65.609499
703.500000 65.942964
703.500000 66.277268
703.500000 66.612411
703.500000 66.948392
703.500000 67.285212
703.500000 67.622872
703.500000 67.961370
703.500000 68.300707
703.500000 68.640883
703.500000 68.981898
703.500000 69.323752
703.500000 69.666445
703.500000 70.009976
703.500000 70.354347
703.500000 70.699556
703.500000 71.045605
703.500000 71.392492
703.500000 71.740218
703.500000 72.088783
703.500000 72.438187
703.500000 72.788430
703.500000 73.139512
703.500000 73.491433
703.500000 73.844192
703.500000 74.197791
703.500000 74.552228
703.500000 74.907504
703.500000 75.263620
703.500000 75.620574
703.500000 75.978367
703.500000 76.336999
703.500000 76.696470
703.500000 77.056779
703.500000 77.417928
703.500000 77.779916
703.500000 78.142742
703.500000 78.506407
703.500000 78.870912
703.500000 79.236255
703.500000 79.602437
703.500000 79.969458
703.500000 80.337318
703.500000 80.706017
703.500000 81.075554
703.500000 81.445931
703.500000 81.817147
703.500000 82.189201
703.500000 82.562094
703.500000 82.935827
703.500000 83.310398
703.500000 83.685808
703.500000 84.062057
703.500000 84.439145
703.500000 84.817071
703.500000 85.195837
703.500000 85.575442
703.500000 85.955885
703.500000 86.337167
703.500000 86.719289
703.500000 87.102249
703.500000 87.486048
703.500000 87.870686
703.500000 88.256163
703.500000 88.642479
703.500000 89.029633
703.500000 89.417627
703.500000 89.806460
703.500000 90.196131
703.500000 90.586641
703.500000 90.977991
703.500000 91.370179
703.500000 91.763206
703.500000 92.157072
703.500000 92.551777
703.500000 92.947320
703.500000 93.343703
703.500000 93.740925
703.500000 94.138985
703.500000 94.537885
703.500000 94.937623
703.500000 95.338200
703.500000 95.739616
703.500000 96.141871
703.500000 96.544965
703.500000 96.948898
703.500000 97.353670
703.500000 97.759280
703.500000 98.165730
703.500000 98.573018
703.500000 98.981146
703.500000 99.390112
703.500000 99.799917
703.500000 100.210561
703.500000 100.622044
703.500000 101.034366
703.500000 101.447527
703.500000 101.861526
703.500000 102.276365
703.500000 102.692042
703.500000 103.108559
703.500000 103.525914
703.500000 103.944108
703.500000 104.363141
703.500000 104.783013
703.500000 105.203724
703.500000 105.625274
703.500000 106.047663
703.500000 106.470891
703.500000 106.894957
703.500000 107.319863
703.500000 107.745607
703.500000 108.172190
703.500000 108.599612
703.500000 109.027873
703.500000 109.456973
703.500000 109.886912
703.500000 110.317690
703.500000 110.749307
703.500000 111.181762
703.500000 111.615057
703.500000 112.049190
703.500000 112.484163
703.500000 112.919974
703.500000 113.356624
703.500000 113.794113
703.500000 114.232441
703.500000 114.671608
703.500000 115.111613
703.500000 115.552458
703.500000 115.994142
703.500000 116.436664
703.500000 116.880025
703.500000 117.324226
703.500000 117.769265
703.500000 118.215143
703.500000 118.661860
703.500000 119.109416
703.500000 119.557811
703.500000 120.007044
703.500000 120.457117
703.500000 120.908028
703.500000 121.359779
703.500000 121.812368
703.500000 122.265796
703.500000 122.720063
703.500000 123.175170
703.500000 123.631114
703.500000 124.087898
703.500000 124.545521
703.500000 125.003983
703.500000 125.463283
703.500000 125.923423
703.500000 126.384401
703.500000 126.846218
703.500000 127.308875
703.500000 127.772370
703.500000 128.236704
703.500000 128.701877
703.500000 129.167888
703.500000 129.634739
703.500000 130.102429
703.500000 130.570957
703.500000 131.040325
703.500000 131.510531
703.500000 131.981576
703.500000 132.453460
703.500000 132.926183
703.500000 133.399745
703.500000 133.874146
703.500000 134.349386
703.500000 134.825465
703.500000 135.302382
703.500000 135.780139
703.500000 136.258734
703.500000 136.738168
703.500000 137.218441
703.500000 137.699554
703.500000 138.181505
703.500000 138.664294
703.500000 139.147923
703.500000 139.632391
703.500000 140.117698
703.500000 140.603843
703.500000 141.090828
703.500000 141.578651
703.500000 142.067313
703.500000 142.556814
703.500000 143.047154
703.500000 143.538333
703.500000 144.030351
703.500000 144.523208
703.500000 145.016904
703.500000 145.511438
703.500000 146.006812
703.500000 146.503024
703.500000 147.000075
703.500000 147.497965
703.500000 147.996695
703.500000 148.496263
703.500000 148.996669
703.500000 149.497915
703.500000 150.000000
</POINTS>
</NEKTAR>

