<?xml version="1.0" encoding="utf-8" ?>
<NEKTAR>
<POINTS DIM="2" FIELDS="">
863.500000 -0.750000
863.500000 -0.749580
863.500000 -0.748319
863.500000 -0.746219
863.500000 -0.743278
863.500000 -0.739496
863.500000 -0.734875
863.500000 -0.729413
863.500000 -0.723110
863.500000 -0.715968
863.500000 -0.707985
863.500000 -0.699162
863.500000 -0.689498
863.500000 -0.678995
863.500000 -0.667651
863.500000 -0.655466
863.500000 -0.642442
863.500000 -0.628577
863.500000 -0.613872
863.500000 -0.598326
863.500000 -0.581940
863.500000 -0.564714
863.500000 -0.546648
863.500000 -0.527741
863.500000 -0.507994
863.500000 -0.487407
863.500000 -0.465979
863.500000 -0.443711
863.500000 -0.420603
863.500000 -0.396654
863.500000 -0.371866
863.500000 -0.346236
863.500000 -0.319767
863.500000 -0.292457
863.500000 -0.264307
863.500000 -0.235317
863.500000 -0.205486
863.500000 -0.174816
863.500000 -0.143304
863.500000 -0.110953
863.500000 -0.077761
863.500000 -0.043729
863.500000 -0.008857
863.500000 0.026856
863.500000 0.063409
863.500000 0.100802
863.500000 0.139036
863.500000 0.178110
863.500000 0.218024
863.500000 0.258779
863.500000 0.300373
863.500000 0.342808
863.500000 0.386084
863.500000 0.430199
863.500000 0.475155
863.500000 0.520952
863.500000 0.567588
863.500000 0.615065
863.500000 0.663382
863.500000 0.712540
863.500000 0.762538
863.500000 0.813376
863.500000 0.865054
863.500000 0.917573
863.500000 0.970932
863.500000 1.025131
863.500000 1.080170
863.500000 1.136050
863.500000 1.192771
863.500000 1.250331
863.500000 1.308732
863.500000 1.367973
863.500000 1.428054
863.500000 1.488976
863.500000 1.550738
863.500000 1.613340
863.500000 1.676783
863.500000 1.741065
863.500000 1.806189
863.500000 1.872152
863.500000 1.938956
863.500000 2.006600
863.500000 2.075084
863.500000 2.144409
863.500000 2.214574
863.500000 2.285579
863.500000 2.357424
863.500000 2.430110
863.500000 2.503636
863.500000 2.578003
863.500000 2.653210
863.500000 2.729257
863.500000 2.806144
863.500000 2.883872
863.500000 2.962439
863.500000 3.041848
863.500000 3.122096
863.500000 3.203185
863.500000 3.285114
863.500000 3.367884
863.500000 3.451493
863.500000 3.535943
863.500000 3.621234
863.500000 3.707364
863.500000 3.794335
863.500000 3.882146
863.500000 3.970798
863.500000 4.060290
863.500000 4.150622
863.500000 4.241794
863.500000 4.333807
863.500000 4.426660
863.500000 4.520353
863.500000 4.614887
863.500000 4.710261
863.500000 4.806475
863.500000 4.903529
863.500000 5.001424
863.500000 5.100159
863.500000 5.199735
863.500000 5.300150
863.500000 5.401406
863.500000 5.503503
863.500000 5.606439
863.500000 5.710216
863.500000 5.814833
863.500000 5.920291
863.500000 6.026589
863.500000 6.133727
863.500000 6.241705
863.500000 6.350524
863.500000 6.460183
863.500000 6.570682
863.500000 6.682022
863.500000 6.794201
863.500000 6.907222
863.500000 7.021082
863.500000 7.135783
863.500000 7.251324
863.500000 7.367705
863.500000 7.484927
863.500000 7.602989
863.500000 7.721891
863.500000 7.841634
863.500000 7.962217
863.500000 8.083640
863.500000 8.205903
863.500000 8.329007
863.500000 8.452951
863.500000 8.577735
863.500000 8.703360
863.500000 8.829825
863.500000 8.957130
863.500000 9.085276
863.500000 9.214262
863.500000 9.344088
863.500000 9.474754
863.500000 9.606261
863.500000 9.738608
863.500000 9.871795
863.500000 10.005823
863.500000 10.140691
863.500000 10.276399
863.500000 10.412948
863.500000 10.550336
863.500000 10.688566
863.500000 10.827635
863.500000 10.967545
863.500000 11.108295
863.500000 11.249885
863.500000 11.392316
863.500000 11.535587
863.500000 11.679698
863.500000 11.824649
863.500000 11.970441
863.500000 12.117073
863.500000 12.264546
863.500000 12.412858
863.500000 12.562011
863.500000 12.712005
863.500000 12.862838
863.500000 13.014512
863.500000 13.167026
863.500000 13.320381
863.500000 13.474576
863.500000 13.629611
863.500000 13.785486
863.500000 13.942202
863.500000 14.099758
863.500000 14.258154
863.500000 14.417391
863.500000 14.577468
863.500000 14.738385
863.500000 14.900142
863.500000 15.062740
863.500000 15.226178
863.500000 15.390457
863.500000 15.555575
863.500000 15.721534
863.500000 15.888334
863.500000 16.055973
863.500000 16.224453
863.500000 16.393773
863.500000 16.563934
863.500000 16.734935
863.500000 16.906776
863.500000 17.079457
863.500000 17.252979
863.500000 17.427341
863.500000 17.602543
863.500000 17.778585
863.500000 17.955468
863.500000 18.133192
863.500000 18.311755
863.500000 18.491159
863.500000 18.671403
863.500000 18.852487
863.500000 19.034412
863.500000 19.217177
863.500000 19.400782
863.500000 19.585228
863.500000 19.770513
863.500000 19.956640
863.500000 20.143606
863.500000 20.331413
863.500000 20.520060
863.500000 20.709547
863.500000 20.899875
863.500000 21.091043
863.500000 21.283051
863.500000 21.475900
863.500000 21.669588
863.500000 21.864118
863.500000 22.059487
863.500000 22.255697
863.500000 22.452747
863.500000 22.650637
863.500000 22.849368
863.500000 23.048939
863.500000 23.249350
863.500000 23.450601
863.500000 23.652693
863.500000 23.855625
863.500000 24.059398
863.500000 24.264011
863.500000 24.469464
863.500000 24.675757
863.500000 24.882891
863.500000 25.090864
863.500000 25.299679
863.500000 25.509333
863.500000 25.719828
863.500000 25.931163
863.500000 26.143339
863.500000 26.356354
863.500000 26.570210
863.500000 26.784907
863.500000 27.000443
863.500000 27.216820
863.500000 27.434037
863.500000 27.652095
863.500000 27.870993
863.500000 28.090731
863.500000 28.311309
863.500000 28.532728
863.500000 28.754987
863.500000 28.978086
863.500000 29.202026
863.500000 29.426806
863.500000 29.652426
863.500000 29.878886
863.500000 30.106187
863.500000 30.334328
863.500000 30.563309
863.500000 30.793131
863.500000 31.023793
863.500000 31.255295
863.500000 31.487638
863.500000 31.720821
863.500000 31.954844
863.500000 32.189708
863.500000 32.425411
863.500000 32.661955
863.500000 32.899340
863.500000 33.137564
863.500000 33.376629
863.500000 33.616535
863.500000 33.857280
863.500000 34.098866
863.500000 34.341292
863.500000 34.584559
863.500000 34.828665
863.500000 35.073613
863.500000 35.319400
863.500000 35.566028
863.500000 35.813496
863.500000 36.061804
863.500000 36.310952
863.500000 36.560941
863.500000 36.811770
863.500000 37.063440
863.500000 37.315950
863.500000 37.569300
863.500000 37.823490
863.500000 38.078521
863.500000 38.334391
863.500000 38.591103
863.500000 38.848654
863.500000 39.107046
863.500000 39.366278
863.500000 39.626351
863.500000 39.887263
863.500000 40.149016
863.500000 40.411610
863.500000 40.675043
863.500000 40.939317
863.500000 41.204432
863.500000 41.470386
863.500000 41.737181
863.500000 42.004816
863.500000 42.273291
863.500000 42.542607
863.500000 42.812763
863.500000 43.083760
863.500000 43.355596
863.500000 43.628273
863.500000 43.901790
863.500000 44.176148
863.500000 44.451346
863.500000 44.727384
863.500000 45.004262
863.500000 45.281981
863.500000 45.560540
863.500000 45.839939
863.500000 46.120179
863.500000 46.401259
863.500000 46.683179
863.500000 46.965939
863.500000 47.249540
863.500000 47.533981
863.500000 47.819263
863.500000 48.105384
863.500000 48.392346
863.500000 48.680149
863.500000 48.968791
863.500000 49.258274
863.500000 49.548597
863.500000 49.839761
863.500000 50.131765
863.500000 50.424609
863.500000 50.718293
863.500000 51.012818
863.500000 51.308183
863.500000 51.604388
863.500000 51.901434
863.500000 52.199319
863.500000 52.498046
863.500000 52.797612
863.500000 53.098019
863.500000 53.399266
863.500000 53.701353
863.500000 54.004281
863.500000 54.308049
863.500000 54.612657
863.500000 54.918106
863.500000 55.224395
863.500000 55.531524
863.500000 55.839493
863.500000 56.148303
863.500000 56.457953
863.500000 56.768443
863.500000 57.079774
863.500000 57.391945
863.500000 57.704956
863.500000 58.018808
863.500000 58.333500
863.500000 58.649032
863.500000 58.965404
863.500000 59.282617
863.500000 59.600670
863.500000 59.919563
863.500000 60.239297
863.500000 60.559871
863.500000 60.881285
863.500000 61.203540
863.500000 61.526635
863.500000 61.850570
863.500000 62.175345
863.500000 62.500961
863.500000 62.827417
863.500000 63.154713
863.500000 63.482850
863.500000 63.811827
863.500000 64.141644
863.500000 64.472301
863.500000 64.803799
863.500000 65.136137
863.500000 65.469316
863.500000 65.803335
863.500000 66.138194
863.500000 66.473893
863.500000 66.810433
863.500000 67.147812
863.500000 67.486033
863.500000 67.825093
863.500000 68.164994
863.500000 68.505735
863.500000 68.847316
863.500000 69.189738
863.500000 69.533000
863.500000 69.877102
863.500000 70.222045
863.500000 70.567828
863.500000 70.914451
863.500000 71.261915
863.500000 71.610218
863.500000 71.959363
863.500000 72.309347
863.500000 72.660172
863.500000 73.011837
863.500000 73.364342
863.500000 73.717688
863.500000 74.071873
863.500000 74.426900
863.500000 74.782766
863.500000 75.139473
863.500000 75.497020
863.500000 75.855407
863.500000 76.214635
863.500000 76.574703
863.500000 76.935611
863.500000 77.297360
863.500000 77.659949
863.500000 78.023378
863.500000 78.387647
863.500000 78.752757
863.500000 79.118707
863.500000 79.485498
863.500000 79.853128
863.500000 80.221599
863.500000 80.590910
863.500000 80.961062
863.500000 81.332054
863.500000 81.703886
863.500000 82.076558
863.500000 82.450071
863.500000 82.824424
863.500000 83.199618
863.500000 83.575651
863.500000 83.952525
863.500000 84.330239
863.500000 84.708794
863.500000 85.088189
863.500000 85.468424
863.500000 85.849499
863.500000 86.231415
863.500000 86.614171
863.500000 86.997768
863.500000 87.382204
863.500000 87.767481
863.500000 88.153598
863.500000 88.540556
863.500000 88.928354
863.500000 89.316992
863.500000 89.706470
863.500000 90.096789
863.500000 90.487948
863.500000 90.879947
863.500000 91.272787
863.500000 91.666467
863.500000 92.060987
863.500000 92.456348
863.500000 92.852548
863.500000 93.249590
863.500000 93.647471
863.500000 94.046193
863.500000 94.445755
863.500000 94.846157
863.500000 95.247400
863.500000 95.649483
863.500000 96.052406
863.500000 96.456169
863.500000 96.860773
863.500000 97.266217
863.500000 97.672502
863.500000 98.079626
863.500000 98.487591
863.500000 98.896397
863.500000 99.306042
863.500000 99.716528
863.500000 100.127854
863.500000 100.540021
863.500000 100.953028
863.500000 101.366875
863.500000 101.781562
863.500000 102.197090
863.500000 102.613458
863.500000 103.030666
863.500000 103.448715
863.500000 103.867603
863.500000 104.287333
863.500000 104.707902
863.500000 105.129312
863.500000 105.551562
863.500000 105.974652
863.500000 106.398583
863.500000 106.823354
863.500000 107.248965
863.500000 107.675417
863.500000 108.102709
863.500000 108.530841
863.500000 108.959813
863.500000 109.389626
863.500000 109.820279
863.500000 110.251773
863.500000 110.684106
863.500000 111.117280
863.500000 111.551294
863.500000 111.986149
863.500000 112.421844
863.500000 112.858379
863.500000 113.295754
863.500000 113.733970
863.500000 114.173026
863.500000 114.612923
863.500000 115.053659
863.500000 115.495236
863.500000 115.937653
863.500000 116.380911
863.500000 116.825009
863.500000 117.269947
863.500000 117.715725
863.500000 118.162344
863.500000 118.609803
863.500000 119.058103
863.500000 119.507242
863.500000 119.957222
863.500000 120.408042
863.500000 120.859703
863.500000 121.312204
863.500000 121.765545
863.500000 122.219726
863.500000 122.674748
863.500000 123.130610
863.500000 123.587312
863.500000 124.044855
863.500000 124.503238
863.500000 124.962461
863.500000 125.422525
863.500000 125.883428
863.500000 126.345173
863.500000 126.807757
863.500000 127.271182
863.500000 127.735447
863.500000 128.200552
863.500000 128.666498
863.500000 129.133283
863.500000 129.600910
863.500000 130.069376
863.500000 130.538683
863.500000 131.008830
863.500000 131.479818
863.500000 131.951645
863.500000 132.424313
863.500000 132.897821
863.500000 133.372170
863.500000 133.847359
863.500000 134.323388
863.500000 134.800258
863.500000 135.277967
863.500000 135.756518
863.500000 136.235908
863.500000 136.716139
863.500000 137.197210
863.500000 137.679121
863.500000 138.161872
863.500000 138.645464
863.500000 139.129897
863.500000 139.615169
863.500000 140.101282
863.500000 140.588235
863.500000 141.076028
863.500000 141.564662
863.500000 142.054136
863.500000 142.544450
863.500000 143.035605
863.500000 143.527600
863.500000 144.020435
863.500000 144.514110
863.500000 145.008626
863.500000 145.503982
863.500000 146.000178
863.500000 146.497215
863.500000 146.995092
863.500000 147.493809
863.500000 147.993367
863.500000 148.493765
863.500000 148.995003
863.500000 149.497081
863.500000 150.000000
</POINTS>
</NEKTAR>

