<?xml version="1.0" encoding="utf-8" ?>
<NEKTAR>
<POINTS DIM="2" FIELDS="">
343.500000 -0.750000
343.500000 -0.749580
343.500000 -0.748319
343.500000 -0.746219
343.500000 -0.743278
343.500000 -0.739496
343.500000 -0.734875
343.500000 -0.729413
343.500000 -0.723110
343.500000 -0.715968
343.500000 -0.707985
343.500000 -0.699162
343.500000 -0.689498
343.500000 -0.678995
343.500000 -0.667651
343.500000 -0.655466
343.500000 -0.642442
343.500000 -0.628577
343.500000 -0.613872
343.500000 -0.598326
343.500000 -0.581940
343.500000 -0.564714
343.500000 -0.546648
343.500000 -0.527741
343.500000 -0.507994
343.500000 -0.487407
343.500000 -0.465979
343.500000 -0.443711
343.500000 -0.420603
343.500000 -0.396654
343.500000 -0.371866
343.500000 -0.346236
343.500000 -0.319767
343.500000 -0.292457
343.500000 -0.264307
343.500000 -0.235317
343.500000 -0.205486
343.500000 -0.174816
343.500000 -0.143304
343.500000 -0.110953
343.500000 -0.077761
343.500000 -0.043729
343.500000 -0.008857
343.500000 0.026856
343.500000 0.063409
343.500000 0.100802
343.500000 0.139036
343.500000 0.178110
343.500000 0.218024
343.500000 0.258779
343.500000 0.300373
343.500000 0.342808
343.500000 0.386084
343.500000 0.430199
343.500000 0.475155
343.500000 0.520952
343.500000 0.567588
343.500000 0.615065
343.500000 0.663382
343.500000 0.712540
343.500000 0.762538
343.500000 0.813376
343.500000 0.865054
343.500000 0.917573
343.500000 0.970932
343.500000 1.025131
343.500000 1.080170
343.500000 1.136050
343.500000 1.192771
343.500000 1.250331
343.500000 1.308732
343.500000 1.367973
343.500000 1.428054
343.500000 1.488976
343.500000 1.550738
343.500000 1.613340
343.500000 1.676783
343.500000 1.741065
343.500000 1.806189
343.500000 1.872152
343.500000 1.938956
343.500000 2.006600
343.500000 2.075084
343.500000 2.144409
343.500000 2.214574
343.500000 2.285579
343.500000 2.357424
343.500000 2.430110
343.500000 2.503636
343.500000 2.578003
343.500000 2.653210
343.500000 2.729257
343.500000 2.806144
343.500000 2.883872
343.500000 2.962439
343.500000 3.041848
343.500000 3.122096
343.500000 3.203185
343.500000 3.285114
343.500000 3.367884
343.500000 3.451493
343.500000 3.535943
343.500000 3.621234
343.500000 3.707364
343.500000 3.794335
343.500000 3.882146
343.500000 3.970798
343.500000 4.060290
343.500000 4.150622
343.500000 4.241794
343.500000 4.333807
343.500000 4.426660
343.500000 4.520353
343.500000 4.614887
343.500000 4.710261
343.500000 4.806475
343.500000 4.903529
343.500000 5.001424
343.500000 5.100159
343.500000 5.199735
343.500000 5.300150
343.500000 5.401406
343.500000 5.503503
343.500000 5.606439
343.500000 5.710216
343.500000 5.814833
343.500000 5.920291
343.500000 6.026589
343.500000 6.133727
343.500000 6.241705
343.500000 6.350524
343.500000 6.460183
343.500000 6.570682
343.500000 6.682022
343.500000 6.794201
343.500000 6.907222
343.500000 7.021082
343.500000 7.135783
343.500000 7.251324
343.500000 7.367705
343.500000 7.484927
343.500000 7.602989
343.500000 7.721891
343.500000 7.841634
343.500000 7.962217
343.500000 8.083640
343.500000 8.205903
343.500000 8.329007
343.500000 8.452951
343.500000 8.577735
343.500000 8.703360
343.500000 8.829825
343.500000 8.957130
343.500000 9.085276
343.500000 9.214262
343.500000 9.344088
343.500000 9.474754
343.500000 9.606261
343.500000 9.738608
343.500000 9.871795
343.500000 10.005823
343.500000 10.140691
343.500000 10.276399
343.500000 10.412948
343.500000 10.550336
343.500000 10.688566
343.500000 10.827635
343.500000 10.967545
343.500000 11.108295
343.500000 11.249885
343.500000 11.392316
343.500000 11.535587
343.500000 11.679698
343.500000 11.824649
343.500000 11.970441
343.500000 12.117073
343.500000 12.264546
343.500000 12.412858
343.500000 12.562011
343.500000 12.712005
343.500000 12.862838
343.500000 13.014512
343.500000 13.167026
343.500000 13.320381
343.500000 13.474576
343.500000 13.629611
343.500000 13.785486
343.500000 13.942202
343.500000 14.099758
343.500000 14.258154
343.500000 14.417391
343.500000 14.577468
343.500000 14.738385
343.500000 14.900142
343.500000 15.062740
343.500000 15.226178
343.500000 15.390457
343.500000 15.555575
343.500000 15.721534
343.500000 15.888334
343.500000 16.055973
343.500000 16.224453
343.500000 16.393773
343.500000 16.563934
343.500000 16.734935
343.500000 16.906776
343.500000 17.079457
343.500000 17.252979
343.500000 17.427341
343.500000 17.602543
343.500000 17.778585
343.500000 17.955468
343.500000 18.133192
343.500000 18.311755
343.500000 18.491159
343.500000 18.671403
343.500000 18.852487
343.500000 19.034412
343.500000 19.217177
343.500000 19.400782
343.500000 19.585228
343.500000 19.770513
343.500000 19.956640
343.500000 20.143606
343.500000 20.331413
343.500000 20.520060
343.500000 20.709547
343.500000 20.899875
343.500000 21.091043
343.500000 21.283051
343.500000 21.475900
343.500000 21.669588
343.500000 21.864118
343.500000 22.059487
343.500000 22.255697
343.500000 22.452747
343.500000 22.650637
343.500000 22.849368
343.500000 23.048939
343.500000 23.249350
343.500000 23.450601
343.500000 23.652693
343.500000 23.855625
343.500000 24.059398
343.500000 24.264011
343.500000 24.469464
343.500000 24.675757
343.500000 24.882891
343.500000 25.090864
343.500000 25.299679
343.500000 25.509333
343.500000 25.719828
343.500000 25.931163
343.500000 26.143339
343.500000 26.356354
343.500000 26.570210
343.500000 26.784907
343.500000 27.000443
343.500000 27.216820
343.500000 27.434037
343.500000 27.652095
343.500000 27.870993
343.500000 28.090731
343.500000 28.311309
343.500000 28.532728
343.500000 28.754987
343.500000 28.978086
343.500000 29.202026
343.500000 29.426806
343.500000 29.652426
343.500000 29.878886
343.500000 30.106187
343.500000 30.334328
343.500000 30.563309
343.500000 30.793131
343.500000 31.023793
343.500000 31.255295
343.500000 31.487638
343.500000 31.720821
343.500000 31.954844
343.500000 32.189708
343.500000 32.425411
343.500000 32.661955
343.500000 32.899340
343.500000 33.137564
343.500000 33.376629
343.500000 33.616535
343.500000 33.857280
343.500000 34.098866
343.500000 34.341292
343.500000 34.584559
343.500000 34.828665
343.500000 35.073613
343.500000 35.319400
343.500000 35.566028
343.500000 35.813496
343.500000 36.061804
343.500000 36.310952
343.500000 36.560941
343.500000 36.811770
343.500000 37.063440
343.500000 37.315950
343.500000 37.569300
343.500000 37.823490
343.500000 38.078521
343.500000 38.334391
343.500000 38.591103
343.500000 38.848654
343.500000 39.107046
343.500000 39.366278
343.500000 39.626351
343.500000 39.887263
343.500000 40.149016
343.500000 40.411610
343.500000 40.675043
343.500000 40.939317
343.500000 41.204432
343.500000 41.470386
343.500000 41.737181
343.500000 42.004816
343.500000 42.273291
343.500000 42.542607
343.500000 42.812763
343.500000 43.083760
343.500000 43.355596
343.500000 43.628273
343.500000 43.901790
343.500000 44.176148
343.500000 44.451346
343.500000 44.727384
343.500000 45.004262
343.500000 45.281981
343.500000 45.560540
343.500000 45.839939
343.500000 46.120179
343.500000 46.401259
343.500000 46.683179
343.500000 46.965939
343.500000 47.249540
343.500000 47.533981
343.500000 47.819263
343.500000 48.105384
343.500000 48.392346
343.500000 48.680149
343.500000 48.968791
343.500000 49.258274
343.500000 49.548597
343.500000 49.839761
343.500000 50.131765
343.500000 50.424609
343.500000 50.718293
343.500000 51.012818
343.500000 51.308183
343.500000 51.604388
343.500000 51.901434
343.500000 52.199319
343.500000 52.498046
343.500000 52.797612
343.500000 53.098019
343.500000 53.399266
343.500000 53.701353
343.500000 54.004281
343.500000 54.308049
343.500000 54.612657
343.500000 54.918106
343.500000 55.224395
343.500000 55.531524
343.500000 55.839493
343.500000 56.148303
343.500000 56.457953
343.500000 56.768443
343.500000 57.079774
343.500000 57.391945
343.500000 57.704956
343.500000 58.018808
343.500000 58.333500
343.500000 58.649032
343.500000 58.965404
343.500000 59.282617
343.500000 59.600670
343.500000 59.919563
343.500000 60.239297
343.500000 60.559871
343.500000 60.881285
343.500000 61.203540
343.500000 61.526635
343.500000 61.850570
343.500000 62.175345
343.500000 62.500961
343.500000 62.827417
343.500000 63.154713
343.500000 63.482850
343.500000 63.811827
343.500000 64.141644
343.500000 64.472301
343.500000 64.803799
343.500000 65.136137
343.500000 65.469316
343.500000 65.803335
343.500000 66.138194
343.500000 66.473893
343.500000 66.810433
343.500000 67.147812
343.500000 67.486033
343.500000 67.825093
343.500000 68.164994
343.500000 68.505735
343.500000 68.847316
343.500000 69.189738
343.500000 69.533000
343.500000 69.877102
343.500000 70.222045
343.500000 70.567828
343.500000 70.914451
343.500000 71.261915
343.500000 71.610218
343.500000 71.959363
343.500000 72.309347
343.500000 72.660172
343.500000 73.011837
343.500000 73.364342
343.500000 73.717688
343.500000 74.071873
343.500000 74.426900
343.500000 74.782766
343.500000 75.139473
343.500000 75.497020
343.500000 75.855407
343.500000 76.214635
343.500000 76.574703
343.500000 76.935611
343.500000 77.297360
343.500000 77.659949
343.500000 78.023378
343.500000 78.387647
343.500000 78.752757
343.500000 79.118707
343.500000 79.485498
343.500000 79.853128
343.500000 80.221599
343.500000 80.590910
343.500000 80.961062
343.500000 81.332054
343.500000 81.703886
343.500000 82.076558
343.500000 82.450071
343.500000 82.824424
343.500000 83.199618
343.500000 83.575651
343.500000 83.952525
343.500000 84.330239
343.500000 84.708794
343.500000 85.088189
343.500000 85.468424
343.500000 85.849499
343.500000 86.231415
343.500000 86.614171
343.500000 86.997768
343.500000 87.382204
343.500000 87.767481
343.500000 88.153598
343.500000 88.540556
343.500000 88.928354
343.500000 89.316992
343.500000 89.706470
343.500000 90.096789
343.500000 90.487948
343.500000 90.879947
343.500000 91.272787
343.500000 91.666467
343.500000 92.060987
343.500000 92.456348
343.500000 92.852548
343.500000 93.249590
343.500000 93.647471
343.500000 94.046193
343.500000 94.445755
343.500000 94.846157
343.500000 95.247400
343.500000 95.649483
343.500000 96.052406
343.500000 96.456169
343.500000 96.860773
343.500000 97.266217
343.500000 97.672502
343.500000 98.079626
343.500000 98.487591
343.500000 98.896397
343.500000 99.306042
343.500000 99.716528
343.500000 100.127854
343.500000 100.540021
343.500000 100.953028
343.500000 101.366875
343.500000 101.781562
343.500000 102.197090
343.500000 102.613458
343.500000 103.030666
343.500000 103.448715
343.500000 103.867603
343.500000 104.287333
343.500000 104.707902
343.500000 105.129312
343.500000 105.551562
343.500000 105.974652
343.500000 106.398583
343.500000 106.823354
343.500000 107.248965
343.500000 107.675417
343.500000 108.102709
343.500000 108.530841
343.500000 108.959813
343.500000 109.389626
343.500000 109.820279
343.500000 110.251773
343.500000 110.684106
343.500000 111.117280
343.500000 111.551294
343.500000 111.986149
343.500000 112.421844
343.500000 112.858379
343.500000 113.295754
343.500000 113.733970
343.500000 114.173026
343.500000 114.612923
343.500000 115.053659
343.500000 115.495236
343.500000 115.937653
343.500000 116.380911
343.500000 116.825009
343.500000 117.269947
343.500000 117.715725
343.500000 118.162344
343.500000 118.609803
343.500000 119.058103
343.500000 119.507242
343.500000 119.957222
343.500000 120.408042
343.500000 120.859703
343.500000 121.312204
343.500000 121.765545
343.500000 122.219726
343.500000 122.674748
343.500000 123.130610
343.500000 123.587312
343.500000 124.044855
343.500000 124.503238
343.500000 124.962461
343.500000 125.422525
343.500000 125.883428
343.500000 126.345173
343.500000 126.807757
343.500000 127.271182
343.500000 127.735447
343.500000 128.200552
343.500000 128.666498
343.500000 129.133283
343.500000 129.600910
343.500000 130.069376
343.500000 130.538683
343.500000 131.008830
343.500000 131.479818
343.500000 131.951645
343.500000 132.424313
343.500000 132.897821
343.500000 133.372170
343.500000 133.847359
343.500000 134.323388
343.500000 134.800258
343.500000 135.277967
343.500000 135.756518
343.500000 136.235908
343.500000 136.716139
343.500000 137.197210
343.500000 137.679121
343.500000 138.161872
343.500000 138.645464
343.500000 139.129897
343.500000 139.615169
343.500000 140.101282
343.500000 140.588235
343.500000 141.076028
343.500000 141.564662
343.500000 142.054136
343.500000 142.544450
343.500000 143.035605
343.500000 143.527600
343.500000 144.020435
343.500000 144.514110
343.500000 145.008626
343.500000 145.503982
343.500000 146.000178
343.500000 146.497215
343.500000 146.995092
343.500000 147.493809
343.500000 147.993367
343.500000 148.493765
343.500000 148.995003
343.500000 149.497081
343.500000 150.000000
</POINTS>
</NEKTAR>

