<?xml version="1.0" encoding="utf-8" ?>
<NEKTAR>
<POINTS DIM="2" FIELDS="">
668.500000 0.000000
668.500000 0.000418
668.500000 0.001672
668.500000 0.003763
668.500000 0.006689
668.500000 0.010451
668.500000 0.015050
668.500000 0.020485
668.500000 0.026756
668.500000 0.033863
668.500000 0.041806
668.500000 0.050585
668.500000 0.060201
668.500000 0.070652
668.500000 0.081940
668.500000 0.094063
668.500000 0.107023
668.500000 0.120819
668.500000 0.135451
668.500000 0.150919
668.500000 0.167224
668.500000 0.184364
668.500000 0.202341
668.500000 0.221153
668.500000 0.240802
668.500000 0.261287
668.500000 0.282608
668.500000 0.304765
668.500000 0.327758
668.500000 0.351588
668.500000 0.376253
668.500000 0.401755
668.500000 0.428092
668.500000 0.455266
668.500000 0.483276
668.500000 0.512122
668.500000 0.541805
668.500000 0.572323
668.500000 0.603677
668.500000 0.635868
668.500000 0.668894
668.500000 0.702757
668.500000 0.737456
668.500000 0.772991
668.500000 0.809362
668.500000 0.846570
668.500000 0.884613
668.500000 0.923492
668.500000 0.963208
668.500000 1.003760
668.500000 1.045148
668.500000 1.087372
668.500000 1.130432
668.500000 1.174328
668.500000 1.219060
668.500000 1.264629
668.500000 1.311033
668.500000 1.358274
668.500000 1.406351
668.500000 1.455264
668.500000 1.505013
668.500000 1.555598
668.500000 1.607019
668.500000 1.659276
668.500000 1.712370
668.500000 1.766299
668.500000 1.821065
668.500000 1.876667
668.500000 1.933105
668.500000 1.990379
668.500000 2.048489
668.500000 2.107436
668.500000 2.167218
668.500000 2.227837
668.500000 2.289291
668.500000 2.351582
668.500000 2.414709
668.500000 2.478672
668.500000 2.543471
668.500000 2.609106
668.500000 2.675578
668.500000 2.742885
668.500000 2.811029
668.500000 2.880009
668.500000 2.949825
668.500000 3.020477
668.500000 3.091965
668.500000 3.164289
668.500000 3.237449
668.500000 3.311446
668.500000 3.386278
668.500000 3.461947
668.500000 3.538452
668.500000 3.615793
668.500000 3.693970
668.500000 3.772983
668.500000 3.852832
668.500000 3.933517
668.500000 4.015039
668.500000 4.097397
668.500000 4.180590
668.500000 4.264620
668.500000 4.349486
668.500000 4.435188
668.500000 4.521727
668.500000 4.609101
668.500000 4.697311
668.500000 4.786358
668.500000 4.876241
668.500000 4.966959
668.500000 5.058514
668.500000 5.150905
668.500000 5.244133
668.500000 5.338196
668.500000 5.433095
668.500000 5.528831
668.500000 5.625402
668.500000 5.722810
668.500000 5.821054
668.500000 5.920134
668.500000 6.020050
668.500000 6.120802
668.500000 6.222391
668.500000 6.324815
668.500000 6.428076
668.500000 6.532172
668.500000 6.637105
668.500000 6.742874
668.500000 6.849479
668.500000 6.956920
668.500000 7.065198
668.500000 7.174311
668.500000 7.284261
668.500000 7.395046
668.500000 7.506668
668.500000 7.619126
668.500000 7.732420
668.500000 7.846550
668.500000 7.961516
668.500000 8.077319
668.500000 8.193957
668.500000 8.311432
668.500000 8.429742
668.500000 8.548889
668.500000 8.668872
668.500000 8.789691
668.500000 8.911346
668.500000 9.033838
668.500000 9.157165
668.500000 9.281329
668.500000 9.406328
668.500000 9.532164
668.500000 9.658836
668.500000 9.786344
668.500000 9.914688
668.500000 10.043868
668.500000 10.173885
668.500000 10.304737
668.500000 10.436426
668.500000 10.568950
668.500000 10.702311
668.500000 10.836508
668.500000 10.971541
668.500000 11.107411
668.500000 11.244116
668.500000 11.381657
668.500000 11.520035
668.500000 11.659248
668.500000 11.799298
668.500000 11.940184
668.500000 12.081906
668.500000 12.224464
668.500000 12.367859
668.500000 12.512089
668.500000 12.657155
668.500000 12.803058
668.500000 12.949797
668.500000 13.097372
668.500000 13.245782
668.500000 13.395030
668.500000 13.545113
668.500000 13.696032
668.500000 13.847787
668.500000 14.000379
668.500000 14.153807
668.500000 14.308070
668.500000 14.463170
668.500000 14.619106
668.500000 14.775879
668.500000 14.933487
668.500000 15.091931
668.500000 15.251212
668.500000 15.411328
668.500000 15.572281
668.500000 15.734070
668.500000 15.896695
668.500000 16.060156
668.500000 16.224453
668.500000 16.389586
668.500000 16.555556
668.500000 16.722361
668.500000 16.890003
668.500000 17.058481
668.500000 17.227795
668.500000 17.397945
668.500000 17.568931
668.500000 17.740753
668.500000 17.913412
668.500000 18.086906
668.500000 18.261237
668.500000 18.436403
668.500000 18.612406
668.500000 18.789245
668.500000 18.966920
668.500000 19.145432
668.500000 19.324779
668.500000 19.504962
668.500000 19.685982
668.500000 19.867838
668.500000 20.050529
668.500000 20.234057
668.500000 20.418421
668.500000 20.603622
668.500000 20.789658
668.500000 20.976530
668.500000 21.164239
668.500000 21.352783
668.500000 21.542164
668.500000 21.732381
668.500000 21.923434
668.500000 22.115323
668.500000 22.308048
668.500000 22.501610
668.500000 22.696007
668.500000 22.891241
668.500000 23.087310
668.500000 23.284216
668.500000 23.481958
668.500000 23.680536
668.500000 23.879950
668.500000 24.080200
668.500000 24.281287
668.500000 24.483209
668.500000 24.685968
668.500000 24.889563
668.500000 25.093994
668.500000 25.299261
668.500000 25.505364
668.500000 25.712303
668.500000 25.920078
668.500000 26.128690
668.500000 26.338137
668.500000 26.548421
668.500000 26.759541
668.500000 26.971497
668.500000 27.184289
668.500000 27.397917
668.500000 27.612381
668.500000 27.827682
668.500000 28.043818
668.500000 28.260791
668.500000 28.478600
668.500000 28.697244
668.500000 28.916725
668.500000 29.137043
668.500000 29.358196
668.500000 29.580185
668.500000 29.803011
668.500000 30.026672
668.500000 30.251170
668.500000 30.476504
668.500000 30.702674
668.500000 30.929680
668.500000 31.157522
668.500000 31.386200
668.500000 31.615715
668.500000 31.846065
668.500000 32.077252
668.500000 32.309275
668.500000 32.542133
668.500000 32.775828
668.500000 33.010360
668.500000 33.245727
668.500000 33.481930
668.500000 33.718970
668.500000 33.956845
668.500000 34.195557
668.500000 34.435105
668.500000 34.675489
668.500000 34.916709
668.500000 35.158765
668.500000 35.401657
668.500000 35.645386
668.500000 35.889950
668.500000 36.135351
668.500000 36.381588
668.500000 36.628660
668.500000 36.876569
668.500000 37.125315
668.500000 37.374896
668.500000 37.625313
668.500000 37.876567
668.500000 38.128656
668.500000 38.381582
668.500000 38.635344
668.500000 38.889942
668.500000 39.145376
668.500000 39.401646
668.500000 39.658752
668.500000 39.916695
668.500000 40.175473
668.500000 40.435088
668.500000 40.695539
668.500000 40.956826
668.500000 41.218949
668.500000 41.481908
668.500000 41.745703
668.500000 42.010334
668.500000 42.275802
668.500000 42.542106
668.500000 42.809245
668.500000 43.077221
668.500000 43.346033
668.500000 43.615681
668.500000 43.886165
668.500000 44.157486
668.500000 44.429642
668.500000 44.702635
668.500000 44.976463
668.500000 45.251128
668.500000 45.526629
668.500000 45.802966
668.500000 46.080139
668.500000 46.358148
668.500000 46.636994
668.500000 46.916675
668.500000 47.197193
668.500000 47.478547
668.500000 47.760736
668.500000 48.043762
668.500000 48.327625
668.500000 48.612323
668.500000 48.897857
668.500000 49.184227
668.500000 49.471434
668.500000 49.759477
668.500000 50.048355
668.500000 50.338070
668.500000 50.628621
668.500000 50.920009
668.500000 51.212232
668.500000 51.505291
668.500000 51.799187
668.500000 52.093918
668.500000 52.389486
668.500000 52.685890
668.500000 52.983130
668.500000 53.281206
668.500000 53.580118
668.500000 53.879867
668.500000 54.180451
668.500000 54.481872
668.500000 54.784128
668.500000 55.087221
668.500000 55.391150
668.500000 55.695915
668.500000 56.001516
668.500000 56.307953
668.500000 56.615227
668.500000 56.923336
668.500000 57.232282
668.500000 57.542064
668.500000 57.852682
668.500000 58.164136
668.500000 58.476426
668.500000 58.789552
668.500000 59.103514
668.500000 59.418313
668.500000 59.733947
668.500000 60.050418
668.500000 60.367725
668.500000 60.685868
668.500000 61.004847
668.500000 61.324662
668.500000 61.645313
668.500000 61.966801
668.500000 62.289124
668.500000 62.612284
668.500000 62.936279
668.500000 63.261111
668.500000 63.586779
668.500000 63.913283
668.500000 64.240624
668.500000 64.568800
668.500000 64.897812
668.500000 65.227661
668.500000 65.558346
668.500000 65.889867
668.500000 66.222223
668.500000 66.555417
668.500000 66.889446
668.500000 67.224311
668.500000 67.560012
668.500000 67.896550
668.500000 68.233924
668.500000 68.572133
668.500000 68.911179
668.500000 69.251061
668.500000 69.591779
668.500000 69.933334
668.500000 70.275724
668.500000 70.618950
668.500000 70.963013
668.500000 71.307912
668.500000 71.653646
668.500000 72.000217
668.500000 72.347624
668.500000 72.695868
668.500000 73.044947
668.500000 73.394862
668.500000 73.745614
668.500000 74.097202
668.500000 74.449625
668.500000 74.802885
668.500000 75.156981
668.500000 75.511913
668.500000 75.867682
668.500000 76.224286
668.500000 76.581726
668.500000 76.940003
668.500000 77.299116
668.500000 77.659064
668.500000 78.019849
668.500000 78.381471
668.500000 78.743928
668.500000 79.107221
668.500000 79.471350
668.500000 79.836316
668.500000 80.202118
668.500000 80.568755
668.500000 80.936229
668.500000 81.304539
668.500000 81.673685
668.500000 82.043668
668.500000 82.414486
668.500000 82.786141
668.500000 83.158631
668.500000 83.531958
668.500000 83.906121
668.500000 84.281120
668.500000 84.656955
668.500000 85.033626
668.500000 85.411133
668.500000 85.789477
668.500000 86.168656
668.500000 86.548672
668.500000 86.929524
668.500000 87.311212
668.500000 87.693736
668.500000 88.077096
668.500000 88.461292
668.500000 88.846324
668.500000 89.232193
668.500000 89.618897
668.500000 90.006438
668.500000 90.394815
668.500000 90.784028
668.500000 91.174077
668.500000 91.564962
668.500000 91.956684
668.500000 92.349241
668.500000 92.742634
668.500000 93.136864
668.500000 93.531930
668.500000 93.927832
668.500000 94.324570
668.500000 94.722144
668.500000 95.120554
668.500000 95.519801
668.500000 95.919883
668.500000 96.320802
668.500000 96.722557
668.500000 97.125147
668.500000 97.528574
668.500000 97.932837
668.500000 98.337937
668.500000 98.743872
668.500000 99.150643
668.500000 99.558251
668.500000 99.966695
668.500000 100.375974
668.500000 100.786090
668.500000 101.197042
668.500000 101.608831
668.500000 102.021455
668.500000 102.434915
668.500000 102.849212
668.500000 103.264344
668.500000 103.680313
668.500000 104.097118
668.500000 104.514759
668.500000 104.933236
668.500000 105.352549
668.500000 105.772699
668.500000 106.193684
668.500000 106.615506
668.500000 107.038163
668.500000 107.461657
668.500000 107.885987
668.500000 108.311153
668.500000 108.737155
668.500000 109.163993
668.500000 109.591668
668.500000 110.020178
668.500000 110.449525
668.500000 110.879708
668.500000 111.310727
668.500000 111.742582
668.500000 112.175273
668.500000 112.608800
668.500000 113.043163
668.500000 113.478363
668.500000 113.914398
668.500000 114.351270
668.500000 114.788978
668.500000 115.227522
668.500000 115.666902
668.500000 116.107118
668.500000 116.548170
668.500000 116.990059
668.500000 117.432783
668.500000 117.876344
668.500000 118.320740
668.500000 118.765973
668.500000 119.212042
668.500000 119.658947
668.500000 120.106689
668.500000 120.555266
668.500000 121.004679
668.500000 121.454929
668.500000 121.906015
668.500000 122.357937
668.500000 122.810695
668.500000 123.264289
668.500000 123.718719
668.500000 124.173985
668.500000 124.630087
668.500000 125.087026
668.500000 125.544801
668.500000 126.003411
668.500000 126.462858
668.500000 126.923141
668.500000 127.384260
668.500000 127.846216
668.500000 128.309007
668.500000 128.772634
668.500000 129.237098
668.500000 129.702398
668.500000 130.168534
668.500000 130.635505
668.500000 131.103314
668.500000 131.571958
668.500000 132.041438
668.500000 132.511754
668.500000 132.982907
668.500000 133.454896
668.500000 133.927720
668.500000 134.401381
668.500000 134.875878
668.500000 135.351211
668.500000 135.827381
668.500000 136.304386
668.500000 136.782227
668.500000 137.260905
668.500000 137.740419
668.500000 138.220769
668.500000 138.701955
668.500000 139.183977
668.500000 139.666835
668.500000 140.150529
668.500000 140.635060
668.500000 141.120426
668.500000 141.606629
668.500000 142.093668
668.500000 142.581542
668.500000 143.070253
668.500000 143.559801
668.500000 144.050184
668.500000 144.541403
668.500000 145.033459
668.500000 145.526350
668.500000 146.020078
668.500000 146.514642
668.500000 147.010042
668.500000 147.506278
668.500000 148.003350
668.500000 148.501258
668.500000 149.000003
668.500000 149.499583
668.500000 150.000000
</POINTS>
</NEKTAR>

