<?xml version="1.0" encoding="utf-8" ?>
<NEKTAR>
<POINTS DIM="2" FIELDS="">
423.500000 0.000000
423.500000 0.000418
423.500000 0.001672
423.500000 0.003763
423.500000 0.006689
423.500000 0.010451
423.500000 0.015050
423.500000 0.020485
423.500000 0.026756
423.500000 0.033863
423.500000 0.041806
423.500000 0.050585
423.500000 0.060201
423.500000 0.070652
423.500000 0.081940
423.500000 0.094063
423.500000 0.107023
423.500000 0.120819
423.500000 0.135451
423.500000 0.150919
423.500000 0.167224
423.500000 0.184364
423.500000 0.202341
423.500000 0.221153
423.500000 0.240802
423.500000 0.261287
423.500000 0.282608
423.500000 0.304765
423.500000 0.327758
423.500000 0.351588
423.500000 0.376253
423.500000 0.401755
423.500000 0.428092
423.500000 0.455266
423.500000 0.483276
423.500000 0.512122
423.500000 0.541805
423.500000 0.572323
423.500000 0.603677
423.500000 0.635868
423.500000 0.668894
423.500000 0.702757
423.500000 0.737456
423.500000 0.772991
423.500000 0.809362
423.500000 0.846570
423.500000 0.884613
423.500000 0.923492
423.500000 0.963208
423.500000 1.003760
423.500000 1.045148
423.500000 1.087372
423.500000 1.130432
423.500000 1.174328
423.500000 1.219060
423.500000 1.264629
423.500000 1.311033
423.500000 1.358274
423.500000 1.406351
423.500000 1.455264
423.500000 1.505013
423.500000 1.555598
423.500000 1.607019
423.500000 1.659276
423.500000 1.712370
423.500000 1.766299
423.500000 1.821065
423.500000 1.876667
423.500000 1.933105
423.500000 1.990379
423.500000 2.048489
423.500000 2.107436
423.500000 2.167218
423.500000 2.227837
423.500000 2.289291
423.500000 2.351582
423.500000 2.414709
423.500000 2.478672
423.500000 2.543471
423.500000 2.609106
423.500000 2.675578
423.500000 2.742885
423.500000 2.811029
423.500000 2.880009
423.500000 2.949825
423.500000 3.020477
423.500000 3.091965
423.500000 3.164289
423.500000 3.237449
423.500000 3.311446
423.500000 3.386278
423.500000 3.461947
423.500000 3.538452
423.500000 3.615793
423.500000 3.693970
423.500000 3.772983
423.500000 3.852832
423.500000 3.933517
423.500000 4.015039
423.500000 4.097397
423.500000 4.180590
423.500000 4.264620
423.500000 4.349486
423.500000 4.435188
423.500000 4.521727
423.500000 4.609101
423.500000 4.697311
423.500000 4.786358
423.500000 4.876241
423.500000 4.966959
423.500000 5.058514
423.500000 5.150905
423.500000 5.244133
423.500000 5.338196
423.500000 5.433095
423.500000 5.528831
423.500000 5.625402
423.500000 5.722810
423.500000 5.821054
423.500000 5.920134
423.500000 6.020050
423.500000 6.120802
423.500000 6.222391
423.500000 6.324815
423.500000 6.428076
423.500000 6.532172
423.500000 6.637105
423.500000 6.742874
423.500000 6.849479
423.500000 6.956920
423.500000 7.065198
423.500000 7.174311
423.500000 7.284261
423.500000 7.395046
423.500000 7.506668
423.500000 7.619126
423.500000 7.732420
423.500000 7.846550
423.500000 7.961516
423.500000 8.077319
423.500000 8.193957
423.500000 8.311432
423.500000 8.429742
423.500000 8.548889
423.500000 8.668872
423.500000 8.789691
423.500000 8.911346
423.500000 9.033838
423.500000 9.157165
423.500000 9.281329
423.500000 9.406328
423.500000 9.532164
423.500000 9.658836
423.500000 9.786344
423.500000 9.914688
423.500000 10.043868
423.500000 10.173885
423.500000 10.304737
423.500000 10.436426
423.500000 10.568950
423.500000 10.702311
423.500000 10.836508
423.500000 10.971541
423.500000 11.107411
423.500000 11.244116
423.500000 11.381657
423.500000 11.520035
423.500000 11.659248
423.500000 11.799298
423.500000 11.940184
423.500000 12.081906
423.500000 12.224464
423.500000 12.367859
423.500000 12.512089
423.500000 12.657155
423.500000 12.803058
423.500000 12.949797
423.500000 13.097372
423.500000 13.245782
423.500000 13.395030
423.500000 13.545113
423.500000 13.696032
423.500000 13.847787
423.500000 14.000379
423.500000 14.153807
423.500000 14.308070
423.500000 14.463170
423.500000 14.619106
423.500000 14.775879
423.500000 14.933487
423.500000 15.091931
423.500000 15.251212
423.500000 15.411328
423.500000 15.572281
423.500000 15.734070
423.500000 15.896695
423.500000 16.060156
423.500000 16.224453
423.500000 16.389586
423.500000 16.555556
423.500000 16.722361
423.500000 16.890003
423.500000 17.058481
423.500000 17.227795
423.500000 17.397945
423.500000 17.568931
423.500000 17.740753
423.500000 17.913412
423.500000 18.086906
423.500000 18.261237
423.500000 18.436403
423.500000 18.612406
423.500000 18.789245
423.500000 18.966920
423.500000 19.145432
423.500000 19.324779
423.500000 19.504962
423.500000 19.685982
423.500000 19.867838
423.500000 20.050529
423.500000 20.234057
423.500000 20.418421
423.500000 20.603622
423.500000 20.789658
423.500000 20.976530
423.500000 21.164239
423.500000 21.352783
423.500000 21.542164
423.500000 21.732381
423.500000 21.923434
423.500000 22.115323
423.500000 22.308048
423.500000 22.501610
423.500000 22.696007
423.500000 22.891241
423.500000 23.087310
423.500000 23.284216
423.500000 23.481958
423.500000 23.680536
423.500000 23.879950
423.500000 24.080200
423.500000 24.281287
423.500000 24.483209
423.500000 24.685968
423.500000 24.889563
423.500000 25.093994
423.500000 25.299261
423.500000 25.505364
423.500000 25.712303
423.500000 25.920078
423.500000 26.128690
423.500000 26.338137
423.500000 26.548421
423.500000 26.759541
423.500000 26.971497
423.500000 27.184289
423.500000 27.397917
423.500000 27.612381
423.500000 27.827682
423.500000 28.043818
423.500000 28.260791
423.500000 28.478600
423.500000 28.697244
423.500000 28.916725
423.500000 29.137043
423.500000 29.358196
423.500000 29.580185
423.500000 29.803011
423.500000 30.026672
423.500000 30.251170
423.500000 30.476504
423.500000 30.702674
423.500000 30.929680
423.500000 31.157522
423.500000 31.386200
423.500000 31.615715
423.500000 31.846065
423.500000 32.077252
423.500000 32.309275
423.500000 32.542133
423.500000 32.775828
423.500000 33.010360
423.500000 33.245727
423.500000 33.481930
423.500000 33.718970
423.500000 33.956845
423.500000 34.195557
423.500000 34.435105
423.500000 34.675489
423.500000 34.916709
423.500000 35.158765
423.500000 35.401657
423.500000 35.645386
423.500000 35.889950
423.500000 36.135351
423.500000 36.381588
423.500000 36.628660
423.500000 36.876569
423.500000 37.125315
423.500000 37.374896
423.500000 37.625313
423.500000 37.876567
423.500000 38.128656
423.500000 38.381582
423.500000 38.635344
423.500000 38.889942
423.500000 39.145376
423.500000 39.401646
423.500000 39.658752
423.500000 39.916695
423.500000 40.175473
423.500000 40.435088
423.500000 40.695539
423.500000 40.956826
423.500000 41.218949
423.500000 41.481908
423.500000 41.745703
423.500000 42.010334
423.500000 42.275802
423.500000 42.542106
423.500000 42.809245
423.500000 43.077221
423.500000 43.346033
423.500000 43.615681
423.500000 43.886165
423.500000 44.157486
423.500000 44.429642
423.500000 44.702635
423.500000 44.976463
423.500000 45.251128
423.500000 45.526629
423.500000 45.802966
423.500000 46.080139
423.500000 46.358148
423.500000 46.636994
423.500000 46.916675
423.500000 47.197193
423.500000 47.478547
423.500000 47.760736
423.500000 48.043762
423.500000 48.327625
423.500000 48.612323
423.500000 48.897857
423.500000 49.184227
423.500000 49.471434
423.500000 49.759477
423.500000 50.048355
423.500000 50.338070
423.500000 50.628621
423.500000 50.920009
423.500000 51.212232
423.500000 51.505291
423.500000 51.799187
423.500000 52.093918
423.500000 52.389486
423.500000 52.685890
423.500000 52.983130
423.500000 53.281206
423.500000 53.580118
423.500000 53.879867
423.500000 54.180451
423.500000 54.481872
423.500000 54.784128
423.500000 55.087221
423.500000 55.391150
423.500000 55.695915
423.500000 56.001516
423.500000 56.307953
423.500000 56.615227
423.500000 56.923336
423.500000 57.232282
423.500000 57.542064
423.500000 57.852682
423.500000 58.164136
423.500000 58.476426
423.500000 58.789552
423.500000 59.103514
423.500000 59.418313
423.500000 59.733947
423.500000 60.050418
423.500000 60.367725
423.500000 60.685868
423.500000 61.004847
423.500000 61.324662
423.500000 61.645313
423.500000 61.966801
423.500000 62.289124
423.500000 62.612284
423.500000 62.936279
423.500000 63.261111
423.500000 63.586779
423.500000 63.913283
423.500000 64.240624
423.500000 64.568800
423.500000 64.897812
423.500000 65.227661
423.500000 65.558346
423.500000 65.889867
423.500000 66.222223
423.500000 66.555417
423.500000 66.889446
423.500000 67.224311
423.500000 67.560012
423.500000 67.896550
423.500000 68.233924
423.500000 68.572133
423.500000 68.911179
423.500000 69.251061
423.500000 69.591779
423.500000 69.933334
423.500000 70.275724
423.500000 70.618950
423.500000 70.963013
423.500000 71.307912
423.500000 71.653646
423.500000 72.000217
423.500000 72.347624
423.500000 72.695868
423.500000 73.044947
423.500000 73.394862
423.500000 73.745614
423.500000 74.097202
423.500000 74.449625
423.500000 74.802885
423.500000 75.156981
423.500000 75.511913
423.500000 75.867682
423.500000 76.224286
423.500000 76.581726
423.500000 76.940003
423.500000 77.299116
423.500000 77.659064
423.500000 78.019849
423.500000 78.381471
423.500000 78.743928
423.500000 79.107221
423.500000 79.471350
423.500000 79.836316
423.500000 80.202118
423.500000 80.568755
423.500000 80.936229
423.500000 81.304539
423.500000 81.673685
423.500000 82.043668
423.500000 82.414486
423.500000 82.786141
423.500000 83.158631
423.500000 83.531958
423.500000 83.906121
423.500000 84.281120
423.500000 84.656955
423.500000 85.033626
423.500000 85.411133
423.500000 85.789477
423.500000 86.168656
423.500000 86.548672
423.500000 86.929524
423.500000 87.311212
423.500000 87.693736
423.500000 88.077096
423.500000 88.461292
423.500000 88.846324
423.500000 89.232193
423.500000 89.618897
423.500000 90.006438
423.500000 90.394815
423.500000 90.784028
423.500000 91.174077
423.500000 91.564962
423.500000 91.956684
423.500000 92.349241
423.500000 92.742634
423.500000 93.136864
423.500000 93.531930
423.500000 93.927832
423.500000 94.324570
423.500000 94.722144
423.500000 95.120554
423.500000 95.519801
423.500000 95.919883
423.500000 96.320802
423.500000 96.722557
423.500000 97.125147
423.500000 97.528574
423.500000 97.932837
423.500000 98.337937
423.500000 98.743872
423.500000 99.150643
423.500000 99.558251
423.500000 99.966695
423.500000 100.375974
423.500000 100.786090
423.500000 101.197042
423.500000 101.608831
423.500000 102.021455
423.500000 102.434915
423.500000 102.849212
423.500000 103.264344
423.500000 103.680313
423.500000 104.097118
423.500000 104.514759
423.500000 104.933236
423.500000 105.352549
423.500000 105.772699
423.500000 106.193684
423.500000 106.615506
423.500000 107.038163
423.500000 107.461657
423.500000 107.885987
423.500000 108.311153
423.500000 108.737155
423.500000 109.163993
423.500000 109.591668
423.500000 110.020178
423.500000 110.449525
423.500000 110.879708
423.500000 111.310727
423.500000 111.742582
423.500000 112.175273
423.500000 112.608800
423.500000 113.043163
423.500000 113.478363
423.500000 113.914398
423.500000 114.351270
423.500000 114.788978
423.500000 115.227522
423.500000 115.666902
423.500000 116.107118
423.500000 116.548170
423.500000 116.990059
423.500000 117.432783
423.500000 117.876344
423.500000 118.320740
423.500000 118.765973
423.500000 119.212042
423.500000 119.658947
423.500000 120.106689
423.500000 120.555266
423.500000 121.004679
423.500000 121.454929
423.500000 121.906015
423.500000 122.357937
423.500000 122.810695
423.500000 123.264289
423.500000 123.718719
423.500000 124.173985
423.500000 124.630087
423.500000 125.087026
423.500000 125.544801
423.500000 126.003411
423.500000 126.462858
423.500000 126.923141
423.500000 127.384260
423.500000 127.846216
423.500000 128.309007
423.500000 128.772634
423.500000 129.237098
423.500000 129.702398
423.500000 130.168534
423.500000 130.635505
423.500000 131.103314
423.500000 131.571958
423.500000 132.041438
423.500000 132.511754
423.500000 132.982907
423.500000 133.454896
423.500000 133.927720
423.500000 134.401381
423.500000 134.875878
423.500000 135.351211
423.500000 135.827381
423.500000 136.304386
423.500000 136.782227
423.500000 137.260905
423.500000 137.740419
423.500000 138.220769
423.500000 138.701955
423.500000 139.183977
423.500000 139.666835
423.500000 140.150529
423.500000 140.635060
423.500000 141.120426
423.500000 141.606629
423.500000 142.093668
423.500000 142.581542
423.500000 143.070253
423.500000 143.559801
423.500000 144.050184
423.500000 144.541403
423.500000 145.033459
423.500000 145.526350
423.500000 146.020078
423.500000 146.514642
423.500000 147.010042
423.500000 147.506278
423.500000 148.003350
423.500000 148.501258
423.500000 149.000003
423.500000 149.499583
423.500000 150.000000
</POINTS>
</NEKTAR>

