<?xml version="1.0" encoding="utf-8" ?>
<NEKTAR>
<POINTS DIM="2" FIELDS="">
403.500000 0.000000
403.500000 0.000418
403.500000 0.001672
403.500000 0.003763
403.500000 0.006689
403.500000 0.010451
403.500000 0.015050
403.500000 0.020485
403.500000 0.026756
403.500000 0.033863
403.500000 0.041806
403.500000 0.050585
403.500000 0.060201
403.500000 0.070652
403.500000 0.081940
403.500000 0.094063
403.500000 0.107023
403.500000 0.120819
403.500000 0.135451
403.500000 0.150919
403.500000 0.167224
403.500000 0.184364
403.500000 0.202341
403.500000 0.221153
403.500000 0.240802
403.500000 0.261287
403.500000 0.282608
403.500000 0.304765
403.500000 0.327758
403.500000 0.351588
403.500000 0.376253
403.500000 0.401755
403.500000 0.428092
403.500000 0.455266
403.500000 0.483276
403.500000 0.512122
403.500000 0.541805
403.500000 0.572323
403.500000 0.603677
403.500000 0.635868
403.500000 0.668894
403.500000 0.702757
403.500000 0.737456
403.500000 0.772991
403.500000 0.809362
403.500000 0.846570
403.500000 0.884613
403.500000 0.923492
403.500000 0.963208
403.500000 1.003760
403.500000 1.045148
403.500000 1.087372
403.500000 1.130432
403.500000 1.174328
403.500000 1.219060
403.500000 1.264629
403.500000 1.311033
403.500000 1.358274
403.500000 1.406351
403.500000 1.455264
403.500000 1.505013
403.500000 1.555598
403.500000 1.607019
403.500000 1.659276
403.500000 1.712370
403.500000 1.766299
403.500000 1.821065
403.500000 1.876667
403.500000 1.933105
403.500000 1.990379
403.500000 2.048489
403.500000 2.107436
403.500000 2.167218
403.500000 2.227837
403.500000 2.289291
403.500000 2.351582
403.500000 2.414709
403.500000 2.478672
403.500000 2.543471
403.500000 2.609106
403.500000 2.675578
403.500000 2.742885
403.500000 2.811029
403.500000 2.880009
403.500000 2.949825
403.500000 3.020477
403.500000 3.091965
403.500000 3.164289
403.500000 3.237449
403.500000 3.311446
403.500000 3.386278
403.500000 3.461947
403.500000 3.538452
403.500000 3.615793
403.500000 3.693970
403.500000 3.772983
403.500000 3.852832
403.500000 3.933517
403.500000 4.015039
403.500000 4.097397
403.500000 4.180590
403.500000 4.264620
403.500000 4.349486
403.500000 4.435188
403.500000 4.521727
403.500000 4.609101
403.500000 4.697311
403.500000 4.786358
403.500000 4.876241
403.500000 4.966959
403.500000 5.058514
403.500000 5.150905
403.500000 5.244133
403.500000 5.338196
403.500000 5.433095
403.500000 5.528831
403.500000 5.625402
403.500000 5.722810
403.500000 5.821054
403.500000 5.920134
403.500000 6.020050
403.500000 6.120802
403.500000 6.222391
403.500000 6.324815
403.500000 6.428076
403.500000 6.532172
403.500000 6.637105
403.500000 6.742874
403.500000 6.849479
403.500000 6.956920
403.500000 7.065198
403.500000 7.174311
403.500000 7.284261
403.500000 7.395046
403.500000 7.506668
403.500000 7.619126
403.500000 7.732420
403.500000 7.846550
403.500000 7.961516
403.500000 8.077319
403.500000 8.193957
403.500000 8.311432
403.500000 8.429742
403.500000 8.548889
403.500000 8.668872
403.500000 8.789691
403.500000 8.911346
403.500000 9.033838
403.500000 9.157165
403.500000 9.281329
403.500000 9.406328
403.500000 9.532164
403.500000 9.658836
403.500000 9.786344
403.500000 9.914688
403.500000 10.043868
403.500000 10.173885
403.500000 10.304737
403.500000 10.436426
403.500000 10.568950
403.500000 10.702311
403.500000 10.836508
403.500000 10.971541
403.500000 11.107411
403.500000 11.244116
403.500000 11.381657
403.500000 11.520035
403.500000 11.659248
403.500000 11.799298
403.500000 11.940184
403.500000 12.081906
403.500000 12.224464
403.500000 12.367859
403.500000 12.512089
403.500000 12.657155
403.500000 12.803058
403.500000 12.949797
403.500000 13.097372
403.500000 13.245782
403.500000 13.395030
403.500000 13.545113
403.500000 13.696032
403.500000 13.847787
403.500000 14.000379
403.500000 14.153807
403.500000 14.308070
403.500000 14.463170
403.500000 14.619106
403.500000 14.775879
403.500000 14.933487
403.500000 15.091931
403.500000 15.251212
403.500000 15.411328
403.500000 15.572281
403.500000 15.734070
403.500000 15.896695
403.500000 16.060156
403.500000 16.224453
403.500000 16.389586
403.500000 16.555556
403.500000 16.722361
403.500000 16.890003
403.500000 17.058481
403.500000 17.227795
403.500000 17.397945
403.500000 17.568931
403.500000 17.740753
403.500000 17.913412
403.500000 18.086906
403.500000 18.261237
403.500000 18.436403
403.500000 18.612406
403.500000 18.789245
403.500000 18.966920
403.500000 19.145432
403.500000 19.324779
403.500000 19.504962
403.500000 19.685982
403.500000 19.867838
403.500000 20.050529
403.500000 20.234057
403.500000 20.418421
403.500000 20.603622
403.500000 20.789658
403.500000 20.976530
403.500000 21.164239
403.500000 21.352783
403.500000 21.542164
403.500000 21.732381
403.500000 21.923434
403.500000 22.115323
403.500000 22.308048
403.500000 22.501610
403.500000 22.696007
403.500000 22.891241
403.500000 23.087310
403.500000 23.284216
403.500000 23.481958
403.500000 23.680536
403.500000 23.879950
403.500000 24.080200
403.500000 24.281287
403.500000 24.483209
403.500000 24.685968
403.500000 24.889563
403.500000 25.093994
403.500000 25.299261
403.500000 25.505364
403.500000 25.712303
403.500000 25.920078
403.500000 26.128690
403.500000 26.338137
403.500000 26.548421
403.500000 26.759541
403.500000 26.971497
403.500000 27.184289
403.500000 27.397917
403.500000 27.612381
403.500000 27.827682
403.500000 28.043818
403.500000 28.260791
403.500000 28.478600
403.500000 28.697244
403.500000 28.916725
403.500000 29.137043
403.500000 29.358196
403.500000 29.580185
403.500000 29.803011
403.500000 30.026672
403.500000 30.251170
403.500000 30.476504
403.500000 30.702674
403.500000 30.929680
403.500000 31.157522
403.500000 31.386200
403.500000 31.615715
403.500000 31.846065
403.500000 32.077252
403.500000 32.309275
403.500000 32.542133
403.500000 32.775828
403.500000 33.010360
403.500000 33.245727
403.500000 33.481930
403.500000 33.718970
403.500000 33.956845
403.500000 34.195557
403.500000 34.435105
403.500000 34.675489
403.500000 34.916709
403.500000 35.158765
403.500000 35.401657
403.500000 35.645386
403.500000 35.889950
403.500000 36.135351
403.500000 36.381588
403.500000 36.628660
403.500000 36.876569
403.500000 37.125315
403.500000 37.374896
403.500000 37.625313
403.500000 37.876567
403.500000 38.128656
403.500000 38.381582
403.500000 38.635344
403.500000 38.889942
403.500000 39.145376
403.500000 39.401646
403.500000 39.658752
403.500000 39.916695
403.500000 40.175473
403.500000 40.435088
403.500000 40.695539
403.500000 40.956826
403.500000 41.218949
403.500000 41.481908
403.500000 41.745703
403.500000 42.010334
403.500000 42.275802
403.500000 42.542106
403.500000 42.809245
403.500000 43.077221
403.500000 43.346033
403.500000 43.615681
403.500000 43.886165
403.500000 44.157486
403.500000 44.429642
403.500000 44.702635
403.500000 44.976463
403.500000 45.251128
403.500000 45.526629
403.500000 45.802966
403.500000 46.080139
403.500000 46.358148
403.500000 46.636994
403.500000 46.916675
403.500000 47.197193
403.500000 47.478547
403.500000 47.760736
403.500000 48.043762
403.500000 48.327625
403.500000 48.612323
403.500000 48.897857
403.500000 49.184227
403.500000 49.471434
403.500000 49.759477
403.500000 50.048355
403.500000 50.338070
403.500000 50.628621
403.500000 50.920009
403.500000 51.212232
403.500000 51.505291
403.500000 51.799187
403.500000 52.093918
403.500000 52.389486
403.500000 52.685890
403.500000 52.983130
403.500000 53.281206
403.500000 53.580118
403.500000 53.879867
403.500000 54.180451
403.500000 54.481872
403.500000 54.784128
403.500000 55.087221
403.500000 55.391150
403.500000 55.695915
403.500000 56.001516
403.500000 56.307953
403.500000 56.615227
403.500000 56.923336
403.500000 57.232282
403.500000 57.542064
403.500000 57.852682
403.500000 58.164136
403.500000 58.476426
403.500000 58.789552
403.500000 59.103514
403.500000 59.418313
403.500000 59.733947
403.500000 60.050418
403.500000 60.367725
403.500000 60.685868
403.500000 61.004847
403.500000 61.324662
403.500000 61.645313
403.500000 61.966801
403.500000 62.289124
403.500000 62.612284
403.500000 62.936279
403.500000 63.261111
403.500000 63.586779
403.500000 63.913283
403.500000 64.240624
403.500000 64.568800
403.500000 64.897812
403.500000 65.227661
403.500000 65.558346
403.500000 65.889867
403.500000 66.222223
403.500000 66.555417
403.500000 66.889446
403.500000 67.224311
403.500000 67.560012
403.500000 67.896550
403.500000 68.233924
403.500000 68.572133
403.500000 68.911179
403.500000 69.251061
403.500000 69.591779
403.500000 69.933334
403.500000 70.275724
403.500000 70.618950
403.500000 70.963013
403.500000 71.307912
403.500000 71.653646
403.500000 72.000217
403.500000 72.347624
403.500000 72.695868
403.500000 73.044947
403.500000 73.394862
403.500000 73.745614
403.500000 74.097202
403.500000 74.449625
403.500000 74.802885
403.500000 75.156981
403.500000 75.511913
403.500000 75.867682
403.500000 76.224286
403.500000 76.581726
403.500000 76.940003
403.500000 77.299116
403.500000 77.659064
403.500000 78.019849
403.500000 78.381471
403.500000 78.743928
403.500000 79.107221
403.500000 79.471350
403.500000 79.836316
403.500000 80.202118
403.500000 80.568755
403.500000 80.936229
403.500000 81.304539
403.500000 81.673685
403.500000 82.043668
403.500000 82.414486
403.500000 82.786141
403.500000 83.158631
403.500000 83.531958
403.500000 83.906121
403.500000 84.281120
403.500000 84.656955
403.500000 85.033626
403.500000 85.411133
403.500000 85.789477
403.500000 86.168656
403.500000 86.548672
403.500000 86.929524
403.500000 87.311212
403.500000 87.693736
403.500000 88.077096
403.500000 88.461292
403.500000 88.846324
403.500000 89.232193
403.500000 89.618897
403.500000 90.006438
403.500000 90.394815
403.500000 90.784028
403.500000 91.174077
403.500000 91.564962
403.500000 91.956684
403.500000 92.349241
403.500000 92.742634
403.500000 93.136864
403.500000 93.531930
403.500000 93.927832
403.500000 94.324570
403.500000 94.722144
403.500000 95.120554
403.500000 95.519801
403.500000 95.919883
403.500000 96.320802
403.500000 96.722557
403.500000 97.125147
403.500000 97.528574
403.500000 97.932837
403.500000 98.337937
403.500000 98.743872
403.500000 99.150643
403.500000 99.558251
403.500000 99.966695
403.500000 100.375974
403.500000 100.786090
403.500000 101.197042
403.500000 101.608831
403.500000 102.021455
403.500000 102.434915
403.500000 102.849212
403.500000 103.264344
403.500000 103.680313
403.500000 104.097118
403.500000 104.514759
403.500000 104.933236
403.500000 105.352549
403.500000 105.772699
403.500000 106.193684
403.500000 106.615506
403.500000 107.038163
403.500000 107.461657
403.500000 107.885987
403.500000 108.311153
403.500000 108.737155
403.500000 109.163993
403.500000 109.591668
403.500000 110.020178
403.500000 110.449525
403.500000 110.879708
403.500000 111.310727
403.500000 111.742582
403.500000 112.175273
403.500000 112.608800
403.500000 113.043163
403.500000 113.478363
403.500000 113.914398
403.500000 114.351270
403.500000 114.788978
403.500000 115.227522
403.500000 115.666902
403.500000 116.107118
403.500000 116.548170
403.500000 116.990059
403.500000 117.432783
403.500000 117.876344
403.500000 118.320740
403.500000 118.765973
403.500000 119.212042
403.500000 119.658947
403.500000 120.106689
403.500000 120.555266
403.500000 121.004679
403.500000 121.454929
403.500000 121.906015
403.500000 122.357937
403.500000 122.810695
403.500000 123.264289
403.500000 123.718719
403.500000 124.173985
403.500000 124.630087
403.500000 125.087026
403.500000 125.544801
403.500000 126.003411
403.500000 126.462858
403.500000 126.923141
403.500000 127.384260
403.500000 127.846216
403.500000 128.309007
403.500000 128.772634
403.500000 129.237098
403.500000 129.702398
403.500000 130.168534
403.500000 130.635505
403.500000 131.103314
403.500000 131.571958
403.500000 132.041438
403.500000 132.511754
403.500000 132.982907
403.500000 133.454896
403.500000 133.927720
403.500000 134.401381
403.500000 134.875878
403.500000 135.351211
403.500000 135.827381
403.500000 136.304386
403.500000 136.782227
403.500000 137.260905
403.500000 137.740419
403.500000 138.220769
403.500000 138.701955
403.500000 139.183977
403.500000 139.666835
403.500000 140.150529
403.500000 140.635060
403.500000 141.120426
403.500000 141.606629
403.500000 142.093668
403.500000 142.581542
403.500000 143.070253
403.500000 143.559801
403.500000 144.050184
403.500000 144.541403
403.500000 145.033459
403.500000 145.526350
403.500000 146.020078
403.500000 146.514642
403.500000 147.010042
403.500000 147.506278
403.500000 148.003350
403.500000 148.501258
403.500000 149.000003
403.500000 149.499583
403.500000 150.000000
</POINTS>
</NEKTAR>

