<?xml version="1.0" encoding="utf-8" ?>
<NEKTAR>
<POINTS DIM="2" FIELDS="">
394.500000 0.000000
394.500000 0.000418
394.500000 0.001672
394.500000 0.003763
394.500000 0.006689
394.500000 0.010451
394.500000 0.015050
394.500000 0.020485
394.500000 0.026756
394.500000 0.033863
394.500000 0.041806
394.500000 0.050585
394.500000 0.060201
394.500000 0.070652
394.500000 0.081940
394.500000 0.094063
394.500000 0.107023
394.500000 0.120819
394.500000 0.135451
394.500000 0.150919
394.500000 0.167224
394.500000 0.184364
394.500000 0.202341
394.500000 0.221153
394.500000 0.240802
394.500000 0.261287
394.500000 0.282608
394.500000 0.304765
394.500000 0.327758
394.500000 0.351588
394.500000 0.376253
394.500000 0.401755
394.500000 0.428092
394.500000 0.455266
394.500000 0.483276
394.500000 0.512122
394.500000 0.541805
394.500000 0.572323
394.500000 0.603677
394.500000 0.635868
394.500000 0.668894
394.500000 0.702757
394.500000 0.737456
394.500000 0.772991
394.500000 0.809362
394.500000 0.846570
394.500000 0.884613
394.500000 0.923492
394.500000 0.963208
394.500000 1.003760
394.500000 1.045148
394.500000 1.087372
394.500000 1.130432
394.500000 1.174328
394.500000 1.219060
394.500000 1.264629
394.500000 1.311033
394.500000 1.358274
394.500000 1.406351
394.500000 1.455264
394.500000 1.505013
394.500000 1.555598
394.500000 1.607019
394.500000 1.659276
394.500000 1.712370
394.500000 1.766299
394.500000 1.821065
394.500000 1.876667
394.500000 1.933105
394.500000 1.990379
394.500000 2.048489
394.500000 2.107436
394.500000 2.167218
394.500000 2.227837
394.500000 2.289291
394.500000 2.351582
394.500000 2.414709
394.500000 2.478672
394.500000 2.543471
394.500000 2.609106
394.500000 2.675578
394.500000 2.742885
394.500000 2.811029
394.500000 2.880009
394.500000 2.949825
394.500000 3.020477
394.500000 3.091965
394.500000 3.164289
394.500000 3.237449
394.500000 3.311446
394.500000 3.386278
394.500000 3.461947
394.500000 3.538452
394.500000 3.615793
394.500000 3.693970
394.500000 3.772983
394.500000 3.852832
394.500000 3.933517
394.500000 4.015039
394.500000 4.097397
394.500000 4.180590
394.500000 4.264620
394.500000 4.349486
394.500000 4.435188
394.500000 4.521727
394.500000 4.609101
394.500000 4.697311
394.500000 4.786358
394.500000 4.876241
394.500000 4.966959
394.500000 5.058514
394.500000 5.150905
394.500000 5.244133
394.500000 5.338196
394.500000 5.433095
394.500000 5.528831
394.500000 5.625402
394.500000 5.722810
394.500000 5.821054
394.500000 5.920134
394.500000 6.020050
394.500000 6.120802
394.500000 6.222391
394.500000 6.324815
394.500000 6.428076
394.500000 6.532172
394.500000 6.637105
394.500000 6.742874
394.500000 6.849479
394.500000 6.956920
394.500000 7.065198
394.500000 7.174311
394.500000 7.284261
394.500000 7.395046
394.500000 7.506668
394.500000 7.619126
394.500000 7.732420
394.500000 7.846550
394.500000 7.961516
394.500000 8.077319
394.500000 8.193957
394.500000 8.311432
394.500000 8.429742
394.500000 8.548889
394.500000 8.668872
394.500000 8.789691
394.500000 8.911346
394.500000 9.033838
394.500000 9.157165
394.500000 9.281329
394.500000 9.406328
394.500000 9.532164
394.500000 9.658836
394.500000 9.786344
394.500000 9.914688
394.500000 10.043868
394.500000 10.173885
394.500000 10.304737
394.500000 10.436426
394.500000 10.568950
394.500000 10.702311
394.500000 10.836508
394.500000 10.971541
394.500000 11.107411
394.500000 11.244116
394.500000 11.381657
394.500000 11.520035
394.500000 11.659248
394.500000 11.799298
394.500000 11.940184
394.500000 12.081906
394.500000 12.224464
394.500000 12.367859
394.500000 12.512089
394.500000 12.657155
394.500000 12.803058
394.500000 12.949797
394.500000 13.097372
394.500000 13.245782
394.500000 13.395030
394.500000 13.545113
394.500000 13.696032
394.500000 13.847787
394.500000 14.000379
394.500000 14.153807
394.500000 14.308070
394.500000 14.463170
394.500000 14.619106
394.500000 14.775879
394.500000 14.933487
394.500000 15.091931
394.500000 15.251212
394.500000 15.411328
394.500000 15.572281
394.500000 15.734070
394.500000 15.896695
394.500000 16.060156
394.500000 16.224453
394.500000 16.389586
394.500000 16.555556
394.500000 16.722361
394.500000 16.890003
394.500000 17.058481
394.500000 17.227795
394.500000 17.397945
394.500000 17.568931
394.500000 17.740753
394.500000 17.913412
394.500000 18.086906
394.500000 18.261237
394.500000 18.436403
394.500000 18.612406
394.500000 18.789245
394.500000 18.966920
394.500000 19.145432
394.500000 19.324779
394.500000 19.504962
394.500000 19.685982
394.500000 19.867838
394.500000 20.050529
394.500000 20.234057
394.500000 20.418421
394.500000 20.603622
394.500000 20.789658
394.500000 20.976530
394.500000 21.164239
394.500000 21.352783
394.500000 21.542164
394.500000 21.732381
394.500000 21.923434
394.500000 22.115323
394.500000 22.308048
394.500000 22.501610
394.500000 22.696007
394.500000 22.891241
394.500000 23.087310
394.500000 23.284216
394.500000 23.481958
394.500000 23.680536
394.500000 23.879950
394.500000 24.080200
394.500000 24.281287
394.500000 24.483209
394.500000 24.685968
394.500000 24.889563
394.500000 25.093994
394.500000 25.299261
394.500000 25.505364
394.500000 25.712303
394.500000 25.920078
394.500000 26.128690
394.500000 26.338137
394.500000 26.548421
394.500000 26.759541
394.500000 26.971497
394.500000 27.184289
394.500000 27.397917
394.500000 27.612381
394.500000 27.827682
394.500000 28.043818
394.500000 28.260791
394.500000 28.478600
394.500000 28.697244
394.500000 28.916725
394.500000 29.137043
394.500000 29.358196
394.500000 29.580185
394.500000 29.803011
394.500000 30.026672
394.500000 30.251170
394.500000 30.476504
394.500000 30.702674
394.500000 30.929680
394.500000 31.157522
394.500000 31.386200
394.500000 31.615715
394.500000 31.846065
394.500000 32.077252
394.500000 32.309275
394.500000 32.542133
394.500000 32.775828
394.500000 33.010360
394.500000 33.245727
394.500000 33.481930
394.500000 33.718970
394.500000 33.956845
394.500000 34.195557
394.500000 34.435105
394.500000 34.675489
394.500000 34.916709
394.500000 35.158765
394.500000 35.401657
394.500000 35.645386
394.500000 35.889950
394.500000 36.135351
394.500000 36.381588
394.500000 36.628660
394.500000 36.876569
394.500000 37.125315
394.500000 37.374896
394.500000 37.625313
394.500000 37.876567
394.500000 38.128656
394.500000 38.381582
394.500000 38.635344
394.500000 38.889942
394.500000 39.145376
394.500000 39.401646
394.500000 39.658752
394.500000 39.916695
394.500000 40.175473
394.500000 40.435088
394.500000 40.695539
394.500000 40.956826
394.500000 41.218949
394.500000 41.481908
394.500000 41.745703
394.500000 42.010334
394.500000 42.275802
394.500000 42.542106
394.500000 42.809245
394.500000 43.077221
394.500000 43.346033
394.500000 43.615681
394.500000 43.886165
394.500000 44.157486
394.500000 44.429642
394.500000 44.702635
394.500000 44.976463
394.500000 45.251128
394.500000 45.526629
394.500000 45.802966
394.500000 46.080139
394.500000 46.358148
394.500000 46.636994
394.500000 46.916675
394.500000 47.197193
394.500000 47.478547
394.500000 47.760736
394.500000 48.043762
394.500000 48.327625
394.500000 48.612323
394.500000 48.897857
394.500000 49.184227
394.500000 49.471434
394.500000 49.759477
394.500000 50.048355
394.500000 50.338070
394.500000 50.628621
394.500000 50.920009
394.500000 51.212232
394.500000 51.505291
394.500000 51.799187
394.500000 52.093918
394.500000 52.389486
394.500000 52.685890
394.500000 52.983130
394.500000 53.281206
394.500000 53.580118
394.500000 53.879867
394.500000 54.180451
394.500000 54.481872
394.500000 54.784128
394.500000 55.087221
394.500000 55.391150
394.500000 55.695915
394.500000 56.001516
394.500000 56.307953
394.500000 56.615227
394.500000 56.923336
394.500000 57.232282
394.500000 57.542064
394.500000 57.852682
394.500000 58.164136
394.500000 58.476426
394.500000 58.789552
394.500000 59.103514
394.500000 59.418313
394.500000 59.733947
394.500000 60.050418
394.500000 60.367725
394.500000 60.685868
394.500000 61.004847
394.500000 61.324662
394.500000 61.645313
394.500000 61.966801
394.500000 62.289124
394.500000 62.612284
394.500000 62.936279
394.500000 63.261111
394.500000 63.586779
394.500000 63.913283
394.500000 64.240624
394.500000 64.568800
394.500000 64.897812
394.500000 65.227661
394.500000 65.558346
394.500000 65.889867
394.500000 66.222223
394.500000 66.555417
394.500000 66.889446
394.500000 67.224311
394.500000 67.560012
394.500000 67.896550
394.500000 68.233924
394.500000 68.572133
394.500000 68.911179
394.500000 69.251061
394.500000 69.591779
394.500000 69.933334
394.500000 70.275724
394.500000 70.618950
394.500000 70.963013
394.500000 71.307912
394.500000 71.653646
394.500000 72.000217
394.500000 72.347624
394.500000 72.695868
394.500000 73.044947
394.500000 73.394862
394.500000 73.745614
394.500000 74.097202
394.500000 74.449625
394.500000 74.802885
394.500000 75.156981
394.500000 75.511913
394.500000 75.867682
394.500000 76.224286
394.500000 76.581726
394.500000 76.940003
394.500000 77.299116
394.500000 77.659064
394.500000 78.019849
394.500000 78.381471
394.500000 78.743928
394.500000 79.107221
394.500000 79.471350
394.500000 79.836316
394.500000 80.202118
394.500000 80.568755
394.500000 80.936229
394.500000 81.304539
394.500000 81.673685
394.500000 82.043668
394.500000 82.414486
394.500000 82.786141
394.500000 83.158631
394.500000 83.531958
394.500000 83.906121
394.500000 84.281120
394.500000 84.656955
394.500000 85.033626
394.500000 85.411133
394.500000 85.789477
394.500000 86.168656
394.500000 86.548672
394.500000 86.929524
394.500000 87.311212
394.500000 87.693736
394.500000 88.077096
394.500000 88.461292
394.500000 88.846324
394.500000 89.232193
394.500000 89.618897
394.500000 90.006438
394.500000 90.394815
394.500000 90.784028
394.500000 91.174077
394.500000 91.564962
394.500000 91.956684
394.500000 92.349241
394.500000 92.742634
394.500000 93.136864
394.500000 93.531930
394.500000 93.927832
394.500000 94.324570
394.500000 94.722144
394.500000 95.120554
394.500000 95.519801
394.500000 95.919883
394.500000 96.320802
394.500000 96.722557
394.500000 97.125147
394.500000 97.528574
394.500000 97.932837
394.500000 98.337937
394.500000 98.743872
394.500000 99.150643
394.500000 99.558251
394.500000 99.966695
394.500000 100.375974
394.500000 100.786090
394.500000 101.197042
394.500000 101.608831
394.500000 102.021455
394.500000 102.434915
394.500000 102.849212
394.500000 103.264344
394.500000 103.680313
394.500000 104.097118
394.500000 104.514759
394.500000 104.933236
394.500000 105.352549
394.500000 105.772699
394.500000 106.193684
394.500000 106.615506
394.500000 107.038163
394.500000 107.461657
394.500000 107.885987
394.500000 108.311153
394.500000 108.737155
394.500000 109.163993
394.500000 109.591668
394.500000 110.020178
394.500000 110.449525
394.500000 110.879708
394.500000 111.310727
394.500000 111.742582
394.500000 112.175273
394.500000 112.608800
394.500000 113.043163
394.500000 113.478363
394.500000 113.914398
394.500000 114.351270
394.500000 114.788978
394.500000 115.227522
394.500000 115.666902
394.500000 116.107118
394.500000 116.548170
394.500000 116.990059
394.500000 117.432783
394.500000 117.876344
394.500000 118.320740
394.500000 118.765973
394.500000 119.212042
394.500000 119.658947
394.500000 120.106689
394.500000 120.555266
394.500000 121.004679
394.500000 121.454929
394.500000 121.906015
394.500000 122.357937
394.500000 122.810695
394.500000 123.264289
394.500000 123.718719
394.500000 124.173985
394.500000 124.630087
394.500000 125.087026
394.500000 125.544801
394.500000 126.003411
394.500000 126.462858
394.500000 126.923141
394.500000 127.384260
394.500000 127.846216
394.500000 128.309007
394.500000 128.772634
394.500000 129.237098
394.500000 129.702398
394.500000 130.168534
394.500000 130.635505
394.500000 131.103314
394.500000 131.571958
394.500000 132.041438
394.500000 132.511754
394.500000 132.982907
394.500000 133.454896
394.500000 133.927720
394.500000 134.401381
394.500000 134.875878
394.500000 135.351211
394.500000 135.827381
394.500000 136.304386
394.500000 136.782227
394.500000 137.260905
394.500000 137.740419
394.500000 138.220769
394.500000 138.701955
394.500000 139.183977
394.500000 139.666835
394.500000 140.150529
394.500000 140.635060
394.500000 141.120426
394.500000 141.606629
394.500000 142.093668
394.500000 142.581542
394.500000 143.070253
394.500000 143.559801
394.500000 144.050184
394.500000 144.541403
394.500000 145.033459
394.500000 145.526350
394.500000 146.020078
394.500000 146.514642
394.500000 147.010042
394.500000 147.506278
394.500000 148.003350
394.500000 148.501258
394.500000 149.000003
394.500000 149.499583
394.500000 150.000000
</POINTS>
</NEKTAR>

