<?xml version="1.0" encoding="utf-8" ?>
<NEKTAR>
<POINTS DIM="2" FIELDS="">
594.500000 0.000000
594.500000 0.000418
594.500000 0.001672
594.500000 0.003763
594.500000 0.006689
594.500000 0.010451
594.500000 0.015050
594.500000 0.020485
594.500000 0.026756
594.500000 0.033863
594.500000 0.041806
594.500000 0.050585
594.500000 0.060201
594.500000 0.070652
594.500000 0.081940
594.500000 0.094063
594.500000 0.107023
594.500000 0.120819
594.500000 0.135451
594.500000 0.150919
594.500000 0.167224
594.500000 0.184364
594.500000 0.202341
594.500000 0.221153
594.500000 0.240802
594.500000 0.261287
594.500000 0.282608
594.500000 0.304765
594.500000 0.327758
594.500000 0.351588
594.500000 0.376253
594.500000 0.401755
594.500000 0.428092
594.500000 0.455266
594.500000 0.483276
594.500000 0.512122
594.500000 0.541805
594.500000 0.572323
594.500000 0.603677
594.500000 0.635868
594.500000 0.668894
594.500000 0.702757
594.500000 0.737456
594.500000 0.772991
594.500000 0.809362
594.500000 0.846570
594.500000 0.884613
594.500000 0.923492
594.500000 0.963208
594.500000 1.003760
594.500000 1.045148
594.500000 1.087372
594.500000 1.130432
594.500000 1.174328
594.500000 1.219060
594.500000 1.264629
594.500000 1.311033
594.500000 1.358274
594.500000 1.406351
594.500000 1.455264
594.500000 1.505013
594.500000 1.555598
594.500000 1.607019
594.500000 1.659276
594.500000 1.712370
594.500000 1.766299
594.500000 1.821065
594.500000 1.876667
594.500000 1.933105
594.500000 1.990379
594.500000 2.048489
594.500000 2.107436
594.500000 2.167218
594.500000 2.227837
594.500000 2.289291
594.500000 2.351582
594.500000 2.414709
594.500000 2.478672
594.500000 2.543471
594.500000 2.609106
594.500000 2.675578
594.500000 2.742885
594.500000 2.811029
594.500000 2.880009
594.500000 2.949825
594.500000 3.020477
594.500000 3.091965
594.500000 3.164289
594.500000 3.237449
594.500000 3.311446
594.500000 3.386278
594.500000 3.461947
594.500000 3.538452
594.500000 3.615793
594.500000 3.693970
594.500000 3.772983
594.500000 3.852832
594.500000 3.933517
594.500000 4.015039
594.500000 4.097397
594.500000 4.180590
594.500000 4.264620
594.500000 4.349486
594.500000 4.435188
594.500000 4.521727
594.500000 4.609101
594.500000 4.697311
594.500000 4.786358
594.500000 4.876241
594.500000 4.966959
594.500000 5.058514
594.500000 5.150905
594.500000 5.244133
594.500000 5.338196
594.500000 5.433095
594.500000 5.528831
594.500000 5.625402
594.500000 5.722810
594.500000 5.821054
594.500000 5.920134
594.500000 6.020050
594.500000 6.120802
594.500000 6.222391
594.500000 6.324815
594.500000 6.428076
594.500000 6.532172
594.500000 6.637105
594.500000 6.742874
594.500000 6.849479
594.500000 6.956920
594.500000 7.065198
594.500000 7.174311
594.500000 7.284261
594.500000 7.395046
594.500000 7.506668
594.500000 7.619126
594.500000 7.732420
594.500000 7.846550
594.500000 7.961516
594.500000 8.077319
594.500000 8.193957
594.500000 8.311432
594.500000 8.429742
594.500000 8.548889
594.500000 8.668872
594.500000 8.789691
594.500000 8.911346
594.500000 9.033838
594.500000 9.157165
594.500000 9.281329
594.500000 9.406328
594.500000 9.532164
594.500000 9.658836
594.500000 9.786344
594.500000 9.914688
594.500000 10.043868
594.500000 10.173885
594.500000 10.304737
594.500000 10.436426
594.500000 10.568950
594.500000 10.702311
594.500000 10.836508
594.500000 10.971541
594.500000 11.107411
594.500000 11.244116
594.500000 11.381657
594.500000 11.520035
594.500000 11.659248
594.500000 11.799298
594.500000 11.940184
594.500000 12.081906
594.500000 12.224464
594.500000 12.367859
594.500000 12.512089
594.500000 12.657155
594.500000 12.803058
594.500000 12.949797
594.500000 13.097372
594.500000 13.245782
594.500000 13.395030
594.500000 13.545113
594.500000 13.696032
594.500000 13.847787
594.500000 14.000379
594.500000 14.153807
594.500000 14.308070
594.500000 14.463170
594.500000 14.619106
594.500000 14.775879
594.500000 14.933487
594.500000 15.091931
594.500000 15.251212
594.500000 15.411328
594.500000 15.572281
594.500000 15.734070
594.500000 15.896695
594.500000 16.060156
594.500000 16.224453
594.500000 16.389586
594.500000 16.555556
594.500000 16.722361
594.500000 16.890003
594.500000 17.058481
594.500000 17.227795
594.500000 17.397945
594.500000 17.568931
594.500000 17.740753
594.500000 17.913412
594.500000 18.086906
594.500000 18.261237
594.500000 18.436403
594.500000 18.612406
594.500000 18.789245
594.500000 18.966920
594.500000 19.145432
594.500000 19.324779
594.500000 19.504962
594.500000 19.685982
594.500000 19.867838
594.500000 20.050529
594.500000 20.234057
594.500000 20.418421
594.500000 20.603622
594.500000 20.789658
594.500000 20.976530
594.500000 21.164239
594.500000 21.352783
594.500000 21.542164
594.500000 21.732381
594.500000 21.923434
594.500000 22.115323
594.500000 22.308048
594.500000 22.501610
594.500000 22.696007
594.500000 22.891241
594.500000 23.087310
594.500000 23.284216
594.500000 23.481958
594.500000 23.680536
594.500000 23.879950
594.500000 24.080200
594.500000 24.281287
594.500000 24.483209
594.500000 24.685968
594.500000 24.889563
594.500000 25.093994
594.500000 25.299261
594.500000 25.505364
594.500000 25.712303
594.500000 25.920078
594.500000 26.128690
594.500000 26.338137
594.500000 26.548421
594.500000 26.759541
594.500000 26.971497
594.500000 27.184289
594.500000 27.397917
594.500000 27.612381
594.500000 27.827682
594.500000 28.043818
594.500000 28.260791
594.500000 28.478600
594.500000 28.697244
594.500000 28.916725
594.500000 29.137043
594.500000 29.358196
594.500000 29.580185
594.500000 29.803011
594.500000 30.026672
594.500000 30.251170
594.500000 30.476504
594.500000 30.702674
594.500000 30.929680
594.500000 31.157522
594.500000 31.386200
594.500000 31.615715
594.500000 31.846065
594.500000 32.077252
594.500000 32.309275
594.500000 32.542133
594.500000 32.775828
594.500000 33.010360
594.500000 33.245727
594.500000 33.481930
594.500000 33.718970
594.500000 33.956845
594.500000 34.195557
594.500000 34.435105
594.500000 34.675489
594.500000 34.916709
594.500000 35.158765
594.500000 35.401657
594.500000 35.645386
594.500000 35.889950
594.500000 36.135351
594.500000 36.381588
594.500000 36.628660
594.500000 36.876569
594.500000 37.125315
594.500000 37.374896
594.500000 37.625313
594.500000 37.876567
594.500000 38.128656
594.500000 38.381582
594.500000 38.635344
594.500000 38.889942
594.500000 39.145376
594.500000 39.401646
594.500000 39.658752
594.500000 39.916695
594.500000 40.175473
594.500000 40.435088
594.500000 40.695539
594.500000 40.956826
594.500000 41.218949
594.500000 41.481908
594.500000 41.745703
594.500000 42.010334
594.500000 42.275802
594.500000 42.542106
594.500000 42.809245
594.500000 43.077221
594.500000 43.346033
594.500000 43.615681
594.500000 43.886165
594.500000 44.157486
594.500000 44.429642
594.500000 44.702635
594.500000 44.976463
594.500000 45.251128
594.500000 45.526629
594.500000 45.802966
594.500000 46.080139
594.500000 46.358148
594.500000 46.636994
594.500000 46.916675
594.500000 47.197193
594.500000 47.478547
594.500000 47.760736
594.500000 48.043762
594.500000 48.327625
594.500000 48.612323
594.500000 48.897857
594.500000 49.184227
594.500000 49.471434
594.500000 49.759477
594.500000 50.048355
594.500000 50.338070
594.500000 50.628621
594.500000 50.920009
594.500000 51.212232
594.500000 51.505291
594.500000 51.799187
594.500000 52.093918
594.500000 52.389486
594.500000 52.685890
594.500000 52.983130
594.500000 53.281206
594.500000 53.580118
594.500000 53.879867
594.500000 54.180451
594.500000 54.481872
594.500000 54.784128
594.500000 55.087221
594.500000 55.391150
594.500000 55.695915
594.500000 56.001516
594.500000 56.307953
594.500000 56.615227
594.500000 56.923336
594.500000 57.232282
594.500000 57.542064
594.500000 57.852682
594.500000 58.164136
594.500000 58.476426
594.500000 58.789552
594.500000 59.103514
594.500000 59.418313
594.500000 59.733947
594.500000 60.050418
594.500000 60.367725
594.500000 60.685868
594.500000 61.004847
594.500000 61.324662
594.500000 61.645313
594.500000 61.966801
594.500000 62.289124
594.500000 62.612284
594.500000 62.936279
594.500000 63.261111
594.500000 63.586779
594.500000 63.913283
594.500000 64.240624
594.500000 64.568800
594.500000 64.897812
594.500000 65.227661
594.500000 65.558346
594.500000 65.889867
594.500000 66.222223
594.500000 66.555417
594.500000 66.889446
594.500000 67.224311
594.500000 67.560012
594.500000 67.896550
594.500000 68.233924
594.500000 68.572133
594.500000 68.911179
594.500000 69.251061
594.500000 69.591779
594.500000 69.933334
594.500000 70.275724
594.500000 70.618950
594.500000 70.963013
594.500000 71.307912
594.500000 71.653646
594.500000 72.000217
594.500000 72.347624
594.500000 72.695868
594.500000 73.044947
594.500000 73.394862
594.500000 73.745614
594.500000 74.097202
594.500000 74.449625
594.500000 74.802885
594.500000 75.156981
594.500000 75.511913
594.500000 75.867682
594.500000 76.224286
594.500000 76.581726
594.500000 76.940003
594.500000 77.299116
594.500000 77.659064
594.500000 78.019849
594.500000 78.381471
594.500000 78.743928
594.500000 79.107221
594.500000 79.471350
594.500000 79.836316
594.500000 80.202118
594.500000 80.568755
594.500000 80.936229
594.500000 81.304539
594.500000 81.673685
594.500000 82.043668
594.500000 82.414486
594.500000 82.786141
594.500000 83.158631
594.500000 83.531958
594.500000 83.906121
594.500000 84.281120
594.500000 84.656955
594.500000 85.033626
594.500000 85.411133
594.500000 85.789477
594.500000 86.168656
594.500000 86.548672
594.500000 86.929524
594.500000 87.311212
594.500000 87.693736
594.500000 88.077096
594.500000 88.461292
594.500000 88.846324
594.500000 89.232193
594.500000 89.618897
594.500000 90.006438
594.500000 90.394815
594.500000 90.784028
594.500000 91.174077
594.500000 91.564962
594.500000 91.956684
594.500000 92.349241
594.500000 92.742634
594.500000 93.136864
594.500000 93.531930
594.500000 93.927832
594.500000 94.324570
594.500000 94.722144
594.500000 95.120554
594.500000 95.519801
594.500000 95.919883
594.500000 96.320802
594.500000 96.722557
594.500000 97.125147
594.500000 97.528574
594.500000 97.932837
594.500000 98.337937
594.500000 98.743872
594.500000 99.150643
594.500000 99.558251
594.500000 99.966695
594.500000 100.375974
594.500000 100.786090
594.500000 101.197042
594.500000 101.608831
594.500000 102.021455
594.500000 102.434915
594.500000 102.849212
594.500000 103.264344
594.500000 103.680313
594.500000 104.097118
594.500000 104.514759
594.500000 104.933236
594.500000 105.352549
594.500000 105.772699
594.500000 106.193684
594.500000 106.615506
594.500000 107.038163
594.500000 107.461657
594.500000 107.885987
594.500000 108.311153
594.500000 108.737155
594.500000 109.163993
594.500000 109.591668
594.500000 110.020178
594.500000 110.449525
594.500000 110.879708
594.500000 111.310727
594.500000 111.742582
594.500000 112.175273
594.500000 112.608800
594.500000 113.043163
594.500000 113.478363
594.500000 113.914398
594.500000 114.351270
594.500000 114.788978
594.500000 115.227522
594.500000 115.666902
594.500000 116.107118
594.500000 116.548170
594.500000 116.990059
594.500000 117.432783
594.500000 117.876344
594.500000 118.320740
594.500000 118.765973
594.500000 119.212042
594.500000 119.658947
594.500000 120.106689
594.500000 120.555266
594.500000 121.004679
594.500000 121.454929
594.500000 121.906015
594.500000 122.357937
594.500000 122.810695
594.500000 123.264289
594.500000 123.718719
594.500000 124.173985
594.500000 124.630087
594.500000 125.087026
594.500000 125.544801
594.500000 126.003411
594.500000 126.462858
594.500000 126.923141
594.500000 127.384260
594.500000 127.846216
594.500000 128.309007
594.500000 128.772634
594.500000 129.237098
594.500000 129.702398
594.500000 130.168534
594.500000 130.635505
594.500000 131.103314
594.500000 131.571958
594.500000 132.041438
594.500000 132.511754
594.500000 132.982907
594.500000 133.454896
594.500000 133.927720
594.500000 134.401381
594.500000 134.875878
594.500000 135.351211
594.500000 135.827381
594.500000 136.304386
594.500000 136.782227
594.500000 137.260905
594.500000 137.740419
594.500000 138.220769
594.500000 138.701955
594.500000 139.183977
594.500000 139.666835
594.500000 140.150529
594.500000 140.635060
594.500000 141.120426
594.500000 141.606629
594.500000 142.093668
594.500000 142.581542
594.500000 143.070253
594.500000 143.559801
594.500000 144.050184
594.500000 144.541403
594.500000 145.033459
594.500000 145.526350
594.500000 146.020078
594.500000 146.514642
594.500000 147.010042
594.500000 147.506278
594.500000 148.003350
594.500000 148.501258
594.500000 149.000003
594.500000 149.499583
594.500000 150.000000
</POINTS>
</NEKTAR>

