<?xml version="1.0" encoding="utf-8" ?>
<NEKTAR>
<POINTS DIM="2" FIELDS="">
414.500000 0.000000
414.500000 0.000418
414.500000 0.001672
414.500000 0.003763
414.500000 0.006689
414.500000 0.010451
414.500000 0.015050
414.500000 0.020485
414.500000 0.026756
414.500000 0.033863
414.500000 0.041806
414.500000 0.050585
414.500000 0.060201
414.500000 0.070652
414.500000 0.081940
414.500000 0.094063
414.500000 0.107023
414.500000 0.120819
414.500000 0.135451
414.500000 0.150919
414.500000 0.167224
414.500000 0.184364
414.500000 0.202341
414.500000 0.221153
414.500000 0.240802
414.500000 0.261287
414.500000 0.282608
414.500000 0.304765
414.500000 0.327758
414.500000 0.351588
414.500000 0.376253
414.500000 0.401755
414.500000 0.428092
414.500000 0.455266
414.500000 0.483276
414.500000 0.512122
414.500000 0.541805
414.500000 0.572323
414.500000 0.603677
414.500000 0.635868
414.500000 0.668894
414.500000 0.702757
414.500000 0.737456
414.500000 0.772991
414.500000 0.809362
414.500000 0.846570
414.500000 0.884613
414.500000 0.923492
414.500000 0.963208
414.500000 1.003760
414.500000 1.045148
414.500000 1.087372
414.500000 1.130432
414.500000 1.174328
414.500000 1.219060
414.500000 1.264629
414.500000 1.311033
414.500000 1.358274
414.500000 1.406351
414.500000 1.455264
414.500000 1.505013
414.500000 1.555598
414.500000 1.607019
414.500000 1.659276
414.500000 1.712370
414.500000 1.766299
414.500000 1.821065
414.500000 1.876667
414.500000 1.933105
414.500000 1.990379
414.500000 2.048489
414.500000 2.107436
414.500000 2.167218
414.500000 2.227837
414.500000 2.289291
414.500000 2.351582
414.500000 2.414709
414.500000 2.478672
414.500000 2.543471
414.500000 2.609106
414.500000 2.675578
414.500000 2.742885
414.500000 2.811029
414.500000 2.880009
414.500000 2.949825
414.500000 3.020477
414.500000 3.091965
414.500000 3.164289
414.500000 3.237449
414.500000 3.311446
414.500000 3.386278
414.500000 3.461947
414.500000 3.538452
414.500000 3.615793
414.500000 3.693970
414.500000 3.772983
414.500000 3.852832
414.500000 3.933517
414.500000 4.015039
414.500000 4.097397
414.500000 4.180590
414.500000 4.264620
414.500000 4.349486
414.500000 4.435188
414.500000 4.521727
414.500000 4.609101
414.500000 4.697311
414.500000 4.786358
414.500000 4.876241
414.500000 4.966959
414.500000 5.058514
414.500000 5.150905
414.500000 5.244133
414.500000 5.338196
414.500000 5.433095
414.500000 5.528831
414.500000 5.625402
414.500000 5.722810
414.500000 5.821054
414.500000 5.920134
414.500000 6.020050
414.500000 6.120802
414.500000 6.222391
414.500000 6.324815
414.500000 6.428076
414.500000 6.532172
414.500000 6.637105
414.500000 6.742874
414.500000 6.849479
414.500000 6.956920
414.500000 7.065198
414.500000 7.174311
414.500000 7.284261
414.500000 7.395046
414.500000 7.506668
414.500000 7.619126
414.500000 7.732420
414.500000 7.846550
414.500000 7.961516
414.500000 8.077319
414.500000 8.193957
414.500000 8.311432
414.500000 8.429742
414.500000 8.548889
414.500000 8.668872
414.500000 8.789691
414.500000 8.911346
414.500000 9.033838
414.500000 9.157165
414.500000 9.281329
414.500000 9.406328
414.500000 9.532164
414.500000 9.658836
414.500000 9.786344
414.500000 9.914688
414.500000 10.043868
414.500000 10.173885
414.500000 10.304737
414.500000 10.436426
414.500000 10.568950
414.500000 10.702311
414.500000 10.836508
414.500000 10.971541
414.500000 11.107411
414.500000 11.244116
414.500000 11.381657
414.500000 11.520035
414.500000 11.659248
414.500000 11.799298
414.500000 11.940184
414.500000 12.081906
414.500000 12.224464
414.500000 12.367859
414.500000 12.512089
414.500000 12.657155
414.500000 12.803058
414.500000 12.949797
414.500000 13.097372
414.500000 13.245782
414.500000 13.395030
414.500000 13.545113
414.500000 13.696032
414.500000 13.847787
414.500000 14.000379
414.500000 14.153807
414.500000 14.308070
414.500000 14.463170
414.500000 14.619106
414.500000 14.775879
414.500000 14.933487
414.500000 15.091931
414.500000 15.251212
414.500000 15.411328
414.500000 15.572281
414.500000 15.734070
414.500000 15.896695
414.500000 16.060156
414.500000 16.224453
414.500000 16.389586
414.500000 16.555556
414.500000 16.722361
414.500000 16.890003
414.500000 17.058481
414.500000 17.227795
414.500000 17.397945
414.500000 17.568931
414.500000 17.740753
414.500000 17.913412
414.500000 18.086906
414.500000 18.261237
414.500000 18.436403
414.500000 18.612406
414.500000 18.789245
414.500000 18.966920
414.500000 19.145432
414.500000 19.324779
414.500000 19.504962
414.500000 19.685982
414.500000 19.867838
414.500000 20.050529
414.500000 20.234057
414.500000 20.418421
414.500000 20.603622
414.500000 20.789658
414.500000 20.976530
414.500000 21.164239
414.500000 21.352783
414.500000 21.542164
414.500000 21.732381
414.500000 21.923434
414.500000 22.115323
414.500000 22.308048
414.500000 22.501610
414.500000 22.696007
414.500000 22.891241
414.500000 23.087310
414.500000 23.284216
414.500000 23.481958
414.500000 23.680536
414.500000 23.879950
414.500000 24.080200
414.500000 24.281287
414.500000 24.483209
414.500000 24.685968
414.500000 24.889563
414.500000 25.093994
414.500000 25.299261
414.500000 25.505364
414.500000 25.712303
414.500000 25.920078
414.500000 26.128690
414.500000 26.338137
414.500000 26.548421
414.500000 26.759541
414.500000 26.971497
414.500000 27.184289
414.500000 27.397917
414.500000 27.612381
414.500000 27.827682
414.500000 28.043818
414.500000 28.260791
414.500000 28.478600
414.500000 28.697244
414.500000 28.916725
414.500000 29.137043
414.500000 29.358196
414.500000 29.580185
414.500000 29.803011
414.500000 30.026672
414.500000 30.251170
414.500000 30.476504
414.500000 30.702674
414.500000 30.929680
414.500000 31.157522
414.500000 31.386200
414.500000 31.615715
414.500000 31.846065
414.500000 32.077252
414.500000 32.309275
414.500000 32.542133
414.500000 32.775828
414.500000 33.010360
414.500000 33.245727
414.500000 33.481930
414.500000 33.718970
414.500000 33.956845
414.500000 34.195557
414.500000 34.435105
414.500000 34.675489
414.500000 34.916709
414.500000 35.158765
414.500000 35.401657
414.500000 35.645386
414.500000 35.889950
414.500000 36.135351
414.500000 36.381588
414.500000 36.628660
414.500000 36.876569
414.500000 37.125315
414.500000 37.374896
414.500000 37.625313
414.500000 37.876567
414.500000 38.128656
414.500000 38.381582
414.500000 38.635344
414.500000 38.889942
414.500000 39.145376
414.500000 39.401646
414.500000 39.658752
414.500000 39.916695
414.500000 40.175473
414.500000 40.435088
414.500000 40.695539
414.500000 40.956826
414.500000 41.218949
414.500000 41.481908
414.500000 41.745703
414.500000 42.010334
414.500000 42.275802
414.500000 42.542106
414.500000 42.809245
414.500000 43.077221
414.500000 43.346033
414.500000 43.615681
414.500000 43.886165
414.500000 44.157486
414.500000 44.429642
414.500000 44.702635
414.500000 44.976463
414.500000 45.251128
414.500000 45.526629
414.500000 45.802966
414.500000 46.080139
414.500000 46.358148
414.500000 46.636994
414.500000 46.916675
414.500000 47.197193
414.500000 47.478547
414.500000 47.760736
414.500000 48.043762
414.500000 48.327625
414.500000 48.612323
414.500000 48.897857
414.500000 49.184227
414.500000 49.471434
414.500000 49.759477
414.500000 50.048355
414.500000 50.338070
414.500000 50.628621
414.500000 50.920009
414.500000 51.212232
414.500000 51.505291
414.500000 51.799187
414.500000 52.093918
414.500000 52.389486
414.500000 52.685890
414.500000 52.983130
414.500000 53.281206
414.500000 53.580118
414.500000 53.879867
414.500000 54.180451
414.500000 54.481872
414.500000 54.784128
414.500000 55.087221
414.500000 55.391150
414.500000 55.695915
414.500000 56.001516
414.500000 56.307953
414.500000 56.615227
414.500000 56.923336
414.500000 57.232282
414.500000 57.542064
414.500000 57.852682
414.500000 58.164136
414.500000 58.476426
414.500000 58.789552
414.500000 59.103514
414.500000 59.418313
414.500000 59.733947
414.500000 60.050418
414.500000 60.367725
414.500000 60.685868
414.500000 61.004847
414.500000 61.324662
414.500000 61.645313
414.500000 61.966801
414.500000 62.289124
414.500000 62.612284
414.500000 62.936279
414.500000 63.261111
414.500000 63.586779
414.500000 63.913283
414.500000 64.240624
414.500000 64.568800
414.500000 64.897812
414.500000 65.227661
414.500000 65.558346
414.500000 65.889867
414.500000 66.222223
414.500000 66.555417
414.500000 66.889446
414.500000 67.224311
414.500000 67.560012
414.500000 67.896550
414.500000 68.233924
414.500000 68.572133
414.500000 68.911179
414.500000 69.251061
414.500000 69.591779
414.500000 69.933334
414.500000 70.275724
414.500000 70.618950
414.500000 70.963013
414.500000 71.307912
414.500000 71.653646
414.500000 72.000217
414.500000 72.347624
414.500000 72.695868
414.500000 73.044947
414.500000 73.394862
414.500000 73.745614
414.500000 74.097202
414.500000 74.449625
414.500000 74.802885
414.500000 75.156981
414.500000 75.511913
414.500000 75.867682
414.500000 76.224286
414.500000 76.581726
414.500000 76.940003
414.500000 77.299116
414.500000 77.659064
414.500000 78.019849
414.500000 78.381471
414.500000 78.743928
414.500000 79.107221
414.500000 79.471350
414.500000 79.836316
414.500000 80.202118
414.500000 80.568755
414.500000 80.936229
414.500000 81.304539
414.500000 81.673685
414.500000 82.043668
414.500000 82.414486
414.500000 82.786141
414.500000 83.158631
414.500000 83.531958
414.500000 83.906121
414.500000 84.281120
414.500000 84.656955
414.500000 85.033626
414.500000 85.411133
414.500000 85.789477
414.500000 86.168656
414.500000 86.548672
414.500000 86.929524
414.500000 87.311212
414.500000 87.693736
414.500000 88.077096
414.500000 88.461292
414.500000 88.846324
414.500000 89.232193
414.500000 89.618897
414.500000 90.006438
414.500000 90.394815
414.500000 90.784028
414.500000 91.174077
414.500000 91.564962
414.500000 91.956684
414.500000 92.349241
414.500000 92.742634
414.500000 93.136864
414.500000 93.531930
414.500000 93.927832
414.500000 94.324570
414.500000 94.722144
414.500000 95.120554
414.500000 95.519801
414.500000 95.919883
414.500000 96.320802
414.500000 96.722557
414.500000 97.125147
414.500000 97.528574
414.500000 97.932837
414.500000 98.337937
414.500000 98.743872
414.500000 99.150643
414.500000 99.558251
414.500000 99.966695
414.500000 100.375974
414.500000 100.786090
414.500000 101.197042
414.500000 101.608831
414.500000 102.021455
414.500000 102.434915
414.500000 102.849212
414.500000 103.264344
414.500000 103.680313
414.500000 104.097118
414.500000 104.514759
414.500000 104.933236
414.500000 105.352549
414.500000 105.772699
414.500000 106.193684
414.500000 106.615506
414.500000 107.038163
414.500000 107.461657
414.500000 107.885987
414.500000 108.311153
414.500000 108.737155
414.500000 109.163993
414.500000 109.591668
414.500000 110.020178
414.500000 110.449525
414.500000 110.879708
414.500000 111.310727
414.500000 111.742582
414.500000 112.175273
414.500000 112.608800
414.500000 113.043163
414.500000 113.478363
414.500000 113.914398
414.500000 114.351270
414.500000 114.788978
414.500000 115.227522
414.500000 115.666902
414.500000 116.107118
414.500000 116.548170
414.500000 116.990059
414.500000 117.432783
414.500000 117.876344
414.500000 118.320740
414.500000 118.765973
414.500000 119.212042
414.500000 119.658947
414.500000 120.106689
414.500000 120.555266
414.500000 121.004679
414.500000 121.454929
414.500000 121.906015
414.500000 122.357937
414.500000 122.810695
414.500000 123.264289
414.500000 123.718719
414.500000 124.173985
414.500000 124.630087
414.500000 125.087026
414.500000 125.544801
414.500000 126.003411
414.500000 126.462858
414.500000 126.923141
414.500000 127.384260
414.500000 127.846216
414.500000 128.309007
414.500000 128.772634
414.500000 129.237098
414.500000 129.702398
414.500000 130.168534
414.500000 130.635505
414.500000 131.103314
414.500000 131.571958
414.500000 132.041438
414.500000 132.511754
414.500000 132.982907
414.500000 133.454896
414.500000 133.927720
414.500000 134.401381
414.500000 134.875878
414.500000 135.351211
414.500000 135.827381
414.500000 136.304386
414.500000 136.782227
414.500000 137.260905
414.500000 137.740419
414.500000 138.220769
414.500000 138.701955
414.500000 139.183977
414.500000 139.666835
414.500000 140.150529
414.500000 140.635060
414.500000 141.120426
414.500000 141.606629
414.500000 142.093668
414.500000 142.581542
414.500000 143.070253
414.500000 143.559801
414.500000 144.050184
414.500000 144.541403
414.500000 145.033459
414.500000 145.526350
414.500000 146.020078
414.500000 146.514642
414.500000 147.010042
414.500000 147.506278
414.500000 148.003350
414.500000 148.501258
414.500000 149.000003
414.500000 149.499583
414.500000 150.000000
</POINTS>
</NEKTAR>

