<?xml version="1.0" encoding="utf-8" ?>
<NEKTAR>
<POINTS DIM="2" FIELDS="">
16.500000 -3.000000
16.500000 -2.999574
16.500000 -2.998294
16.500000 -2.996162
16.500000 -2.993177
16.500000 -2.989339
16.500000 -2.984649
16.500000 -2.979105
16.500000 -2.972709
16.500000 -2.965460
16.500000 -2.957358
16.500000 -2.948403
16.500000 -2.938595
16.500000 -2.927935
16.500000 -2.916422
16.500000 -2.904055
16.500000 -2.890836
16.500000 -2.876765
16.500000 -2.861840
16.500000 -2.846062
16.500000 -2.829432
16.500000 -2.811949
16.500000 -2.793613
16.500000 -2.774424
16.500000 -2.754382
16.500000 -2.733487
16.500000 -2.711740
16.500000 -2.689140
16.500000 -2.665687
16.500000 -2.641381
16.500000 -2.616222
16.500000 -2.590210
16.500000 -2.563346
16.500000 -2.535628
16.500000 -2.507058
16.500000 -2.477635
16.500000 -2.447359
16.500000 -2.416231
16.500000 -2.384249
16.500000 -2.351415
16.500000 -2.317728
16.500000 -2.283188
16.500000 -2.247795
16.500000 -2.211549
16.500000 -2.174450
16.500000 -2.136499
16.500000 -2.097695
16.500000 -2.058038
16.500000 -2.017528
16.500000 -1.976165
16.500000 -1.933949
16.500000 -1.890881
16.500000 -1.846960
16.500000 -1.802186
16.500000 -1.756559
16.500000 -1.710079
16.500000 -1.662746
16.500000 -1.614561
16.500000 -1.565522
16.500000 -1.515631
16.500000 -1.464887
16.500000 -1.413290
16.500000 -1.360841
16.500000 -1.307538
16.500000 -1.253383
16.500000 -1.198375
16.500000 -1.142514
16.500000 -1.085800
16.500000 -1.028233
16.500000 -0.969813
16.500000 -0.910541
16.500000 -0.850416
16.500000 -0.789438
16.500000 -0.727607
16.500000 -0.664923
16.500000 -0.601386
16.500000 -0.536997
16.500000 -0.471755
16.500000 -0.405659
16.500000 -0.338711
16.500000 -0.270911
16.500000 -0.202257
16.500000 -0.132750
16.500000 -0.062391
16.500000 0.008821
16.500000 0.080886
16.500000 0.153804
16.500000 0.227575
16.500000 0.302198
16.500000 0.377675
16.500000 0.454004
16.500000 0.531186
16.500000 0.609221
16.500000 0.688108
16.500000 0.767849
16.500000 0.848442
16.500000 0.929889
16.500000 1.012188
16.500000 1.095340
16.500000 1.179345
16.500000 1.264202
16.500000 1.349913
16.500000 1.436476
16.500000 1.523892
16.500000 1.612161
16.500000 1.701283
16.500000 1.791258
16.500000 1.882085
16.500000 1.973765
16.500000 2.066299
16.500000 2.159685
16.500000 2.253923
16.500000 2.349015
16.500000 2.444960
16.500000 2.541757
16.500000 2.639407
16.500000 2.737910
16.500000 2.837266
16.500000 2.937475
16.500000 3.038537
16.500000 3.140451
16.500000 3.243218
16.500000 3.346838
16.500000 3.451311
16.500000 3.556637
16.500000 3.662816
16.500000 3.769847
16.500000 3.877732
16.500000 3.986469
16.500000 4.096059
16.500000 4.206502
16.500000 4.317797
16.500000 4.429946
16.500000 4.542947
16.500000 4.656801
16.500000 4.771508
16.500000 4.887068
16.500000 5.003481
16.500000 5.120747
16.500000 5.238865
16.500000 5.357836
16.500000 5.477660
16.500000 5.598337
16.500000 5.719867
16.500000 5.842250
16.500000 5.965485
16.500000 6.089573
16.500000 6.214514
16.500000 6.340308
16.500000 6.466955
16.500000 6.594455
16.500000 6.722807
16.500000 6.852013
16.500000 6.982071
16.500000 7.112982
16.500000 7.244746
16.500000 7.377362
16.500000 7.510832
16.500000 7.645154
16.500000 7.780329
16.500000 7.916358
16.500000 8.053238
16.500000 8.190972
16.500000 8.329559
16.500000 8.468998
16.500000 8.609290
16.500000 8.750435
16.500000 8.892433
16.500000 9.035284
16.500000 9.178988
16.500000 9.323544
16.500000 9.468954
16.500000 9.615216
16.500000 9.762331
16.500000 9.910298
16.500000 10.059119
16.500000 10.208793
16.500000 10.359319
16.500000 10.510698
16.500000 10.662930
16.500000 10.816015
16.500000 10.969953
16.500000 11.124743
16.500000 11.280387
16.500000 11.436883
16.500000 11.594232
16.500000 11.752434
16.500000 11.911489
16.500000 12.071396
16.500000 12.232157
16.500000 12.393770
16.500000 12.556236
16.500000 12.719555
16.500000 12.883727
16.500000 13.048751
16.500000 13.214629
16.500000 13.381359
16.500000 13.548942
16.500000 13.717378
16.500000 13.886667
16.500000 14.056809
16.500000 14.227803
16.500000 14.399651
16.500000 14.572351
16.500000 14.745904
16.500000 14.920310
16.500000 15.095568
16.500000 15.271680
16.500000 15.448644
16.500000 15.626461
16.500000 15.805132
16.500000 15.984654
16.500000 16.165030
16.500000 16.346259
16.500000 16.528340
16.500000 16.711274
16.500000 16.895062
16.500000 17.079702
16.500000 17.265194
16.500000 17.451540
16.500000 17.638738
16.500000 17.826790
16.500000 18.015694
16.500000 18.205451
16.500000 18.396061
16.500000 18.587523
16.500000 18.779839
16.500000 18.973007
16.500000 19.167029
16.500000 19.361903
16.500000 19.557629
16.500000 19.754209
16.500000 19.951642
16.500000 20.149927
16.500000 20.349065
16.500000 20.549056
16.500000 20.749900
16.500000 20.951597
16.500000 21.154147
16.500000 21.357549
16.500000 21.561804
16.500000 21.766913
16.500000 21.972874
16.500000 22.179687
16.500000 22.387354
16.500000 22.595873
16.500000 22.805246
16.500000 23.015471
16.500000 23.226549
16.500000 23.438480
16.500000 23.651264
16.500000 23.864900
16.500000 24.079389
16.500000 24.294732
16.500000 24.510927
16.500000 24.727975
16.500000 24.945875
16.500000 25.164629
16.500000 25.384235
16.500000 25.604695
16.500000 25.826007
16.500000 26.048172
16.500000 26.271189
16.500000 26.495060
16.500000 26.719783
16.500000 26.945360
16.500000 27.171789
16.500000 27.399071
16.500000 27.627206
16.500000 27.856193
16.500000 28.086034
16.500000 28.316727
16.500000 28.548273
16.500000 28.780672
16.500000 29.013924
16.500000 29.248029
16.500000 29.482986
16.500000 29.718797
16.500000 29.955460
16.500000 30.192976
16.500000 30.431345
16.500000 30.670567
16.500000 30.910641
16.500000 31.151569
16.500000 31.393349
16.500000 31.635982
16.500000 31.879468
16.500000 32.123807
16.500000 32.368998
16.500000 32.615043
16.500000 32.861940
16.500000 33.109690
16.500000 33.358293
16.500000 33.607749
16.500000 33.858058
16.500000 34.109219
16.500000 34.361234
16.500000 34.614101
16.500000 34.867821
16.500000 35.122394
16.500000 35.377819
16.500000 35.634098
16.500000 35.891229
16.500000 36.149214
16.500000 36.408051
16.500000 36.667741
16.500000 36.928283
16.500000 37.189679
16.500000 37.451927
16.500000 37.715029
16.500000 37.978983
16.500000 38.243790
16.500000 38.509450
16.500000 38.775962
16.500000 39.043328
16.500000 39.311546
16.500000 39.580617
16.500000 39.850541
16.500000 40.121318
16.500000 40.392948
16.500000 40.665430
16.500000 40.938765
16.500000 41.212954
16.500000 41.487995
16.500000 41.763889
16.500000 42.040635
16.500000 42.318235
16.500000 42.596687
16.500000 42.875993
16.500000 43.156151
16.500000 43.437162
16.500000 43.719025
16.500000 44.001742
16.500000 44.285311
16.500000 44.569734
16.500000 44.855009
16.500000 45.141137
16.500000 45.428118
16.500000 45.715951
16.500000 46.004638
16.500000 46.294177
16.500000 46.584569
16.500000 46.875814
16.500000 47.167912
16.500000 47.460863
16.500000 47.754666
16.500000 48.049323
16.500000 48.344832
16.500000 48.641194
16.500000 48.938409
16.500000 49.236476
16.500000 49.535397
16.500000 49.835170
16.500000 50.135797
16.500000 50.437276
16.500000 50.739608
16.500000 51.042793
16.500000 51.346830
16.500000 51.651721
16.500000 51.957464
16.500000 52.264060
16.500000 52.571509
16.500000 52.879811
16.500000 53.188965
16.500000 53.498973
16.500000 53.809833
16.500000 54.121546
16.500000 54.434113
16.500000 54.747531
16.500000 55.061803
16.500000 55.376928
16.500000 55.692905
16.500000 56.009735
16.500000 56.327418
16.500000 56.645954
16.500000 56.965343
16.500000 57.285584
16.500000 57.606679
16.500000 57.928626
16.500000 58.251426
16.500000 58.575079
16.500000 58.899585
16.500000 59.224944
16.500000 59.551155
16.500000 59.878219
16.500000 60.206137
16.500000 60.534907
16.500000 60.864529
16.500000 61.195005
16.500000 61.526334
16.500000 61.858515
16.500000 62.191549
16.500000 62.525436
16.500000 62.860176
16.500000 63.195769
16.500000 63.532214
16.500000 63.869513
16.500000 64.207664
16.500000 64.546668
16.500000 64.886525
16.500000 65.227235
16.500000 65.568797
16.500000 65.911213
16.500000 66.254481
16.500000 66.598602
16.500000 66.943576
16.500000 67.289403
16.500000 67.636082
16.500000 67.983615
16.500000 68.332000
16.500000 68.681238
16.500000 69.031329
16.500000 69.382273
16.500000 69.734070
16.500000 70.086719
16.500000 70.440222
16.500000 70.794577
16.500000 71.149785
16.500000 71.505846
16.500000 71.862760
16.500000 72.220526
16.500000 72.579146
16.500000 72.938618
16.500000 73.298943
16.500000 73.660121
16.500000 74.022152
16.500000 74.385035
16.500000 74.748772
16.500000 75.113361
16.500000 75.478803
16.500000 75.845098
16.500000 76.212246
16.500000 76.580246
16.500000 76.949100
16.500000 77.318806
16.500000 77.689365
16.500000 78.060777
16.500000 78.433042
16.500000 78.806160
16.500000 79.180130
16.500000 79.554954
16.500000 79.930630
16.500000 80.307159
16.500000 80.684541
16.500000 81.062776
16.500000 81.441863
16.500000 81.821804
16.500000 82.202597
16.500000 82.584243
16.500000 82.966742
16.500000 83.350094
16.500000 83.734298
16.500000 84.119356
16.500000 84.505266
16.500000 84.892029
16.500000 85.279645
16.500000 85.668114
16.500000 86.057436
16.500000 86.447610
16.500000 86.838638
16.500000 87.230518
16.500000 87.623251
16.500000 88.016837
16.500000 88.411275
16.500000 88.806567
16.500000 89.202711
16.500000 89.599708
16.500000 89.997559
16.500000 90.396261
16.500000 90.795817
16.500000 91.196226
16.500000 91.597487
16.500000 91.999601
16.500000 92.402569
16.500000 92.806388
16.500000 93.211061
16.500000 93.616587
16.500000 94.022965
16.500000 94.430197
16.500000 94.838281
16.500000 95.247218
16.500000 95.657008
16.500000 96.067650
16.500000 96.479146
16.500000 96.891494
16.500000 97.304695
16.500000 97.718749
16.500000 98.133656
16.500000 98.549416
16.500000 98.966029
16.500000 99.383494
16.500000 99.801812
16.500000 100.220983
16.500000 100.641007
16.500000 101.061884
16.500000 101.483613
16.500000 101.906196
16.500000 102.329631
16.500000 102.753919
16.500000 103.179060
16.500000 103.605054
16.500000 104.031901
16.500000 104.459600
16.500000 104.888152
16.500000 105.317558
16.500000 105.747816
16.500000 106.178926
16.500000 106.610890
16.500000 107.043707
16.500000 107.477376
16.500000 107.911898
16.500000 108.347273
16.500000 108.783501
16.500000 109.220582
16.500000 109.658515
16.500000 110.097302
16.500000 110.536941
16.500000 110.977433
16.500000 111.418778
16.500000 111.860976
16.500000 112.304026
16.500000 112.747930
16.500000 113.192686
16.500000 113.638295
16.500000 114.084757
16.500000 114.532072
16.500000 114.980240
16.500000 115.429260
16.500000 115.879134
16.500000 116.329860
16.500000 116.781439
16.500000 117.233871
16.500000 117.687155
16.500000 118.141293
16.500000 118.596283
16.500000 119.052126
16.500000 119.508822
16.500000 119.966371
16.500000 120.424773
16.500000 120.884028
16.500000 121.344135
16.500000 121.805095
16.500000 122.266908
16.500000 122.729574
16.500000 123.193093
16.500000 123.657465
16.500000 124.122689
16.500000 124.588766
16.500000 125.055697
16.500000 125.523480
16.500000 125.992115
16.500000 126.461604
16.500000 126.931946
16.500000 127.403140
16.500000 127.875187
16.500000 128.348087
16.500000 128.821840
16.500000 129.296446
16.500000 129.771904
16.500000 130.248216
16.500000 130.725380
16.500000 131.203397
16.500000 131.682267
16.500000 132.161990
16.500000 132.642565
16.500000 133.123994
16.500000 133.606275
16.500000 134.089409
16.500000 134.573396
16.500000 135.058236
16.500000 135.543928
16.500000 136.030474
16.500000 136.517872
16.500000 137.006123
16.500000 137.495227
16.500000 137.985184
16.500000 138.475994
16.500000 138.967656
16.500000 139.460172
16.500000 139.953540
16.500000 140.447761
16.500000 140.942835
16.500000 141.438761
16.500000 141.935541
16.500000 142.433173
16.500000 142.931658
16.500000 143.430997
16.500000 143.931187
16.500000 144.432231
16.500000 144.934128
16.500000 145.436877
16.500000 145.940480
16.500000 146.444935
16.500000 146.950243
16.500000 147.456403
16.500000 147.963417
16.500000 148.471284
16.500000 148.980003
16.500000 149.489575
16.500000 150.000000
</POINTS>
</NEKTAR>

