<?xml version="1.0" encoding="utf-8" ?>
<NEKTAR>
<POINTS DIM="2" FIELDS="">
18.500000 -3.000000
18.500000 -2.999574
18.500000 -2.998294
18.500000 -2.996162
18.500000 -2.993177
18.500000 -2.989339
18.500000 -2.984649
18.500000 -2.979105
18.500000 -2.972709
18.500000 -2.965460
18.500000 -2.957358
18.500000 -2.948403
18.500000 -2.938595
18.500000 -2.927935
18.500000 -2.916422
18.500000 -2.904055
18.500000 -2.890836
18.500000 -2.876765
18.500000 -2.861840
18.500000 -2.846062
18.500000 -2.829432
18.500000 -2.811949
18.500000 -2.793613
18.500000 -2.774424
18.500000 -2.754382
18.500000 -2.733487
18.500000 -2.711740
18.500000 -2.689140
18.500000 -2.665687
18.500000 -2.641381
18.500000 -2.616222
18.500000 -2.590210
18.500000 -2.563346
18.500000 -2.535628
18.500000 -2.507058
18.500000 -2.477635
18.500000 -2.447359
18.500000 -2.416231
18.500000 -2.384249
18.500000 -2.351415
18.500000 -2.317728
18.500000 -2.283188
18.500000 -2.247795
18.500000 -2.211549
18.500000 -2.174450
18.500000 -2.136499
18.500000 -2.097695
18.500000 -2.058038
18.500000 -2.017528
18.500000 -1.976165
18.500000 -1.933949
18.500000 -1.890881
18.500000 -1.846960
18.500000 -1.802186
18.500000 -1.756559
18.500000 -1.710079
18.500000 -1.662746
18.500000 -1.614561
18.500000 -1.565522
18.500000 -1.515631
18.500000 -1.464887
18.500000 -1.413290
18.500000 -1.360841
18.500000 -1.307538
18.500000 -1.253383
18.500000 -1.198375
18.500000 -1.142514
18.500000 -1.085800
18.500000 -1.028233
18.500000 -0.969813
18.500000 -0.910541
18.500000 -0.850416
18.500000 -0.789438
18.500000 -0.727607
18.500000 -0.664923
18.500000 -0.601386
18.500000 -0.536997
18.500000 -0.471755
18.500000 -0.405659
18.500000 -0.338711
18.500000 -0.270911
18.500000 -0.202257
18.500000 -0.132750
18.500000 -0.062391
18.500000 0.008821
18.500000 0.080886
18.500000 0.153804
18.500000 0.227575
18.500000 0.302198
18.500000 0.377675
18.500000 0.454004
18.500000 0.531186
18.500000 0.609221
18.500000 0.688108
18.500000 0.767849
18.500000 0.848442
18.500000 0.929889
18.500000 1.012188
18.500000 1.095340
18.500000 1.179345
18.500000 1.264202
18.500000 1.349913
18.500000 1.436476
18.500000 1.523892
18.500000 1.612161
18.500000 1.701283
18.500000 1.791258
18.500000 1.882085
18.500000 1.973765
18.500000 2.066299
18.500000 2.159685
18.500000 2.253923
18.500000 2.349015
18.500000 2.444960
18.500000 2.541757
18.500000 2.639407
18.500000 2.737910
18.500000 2.837266
18.500000 2.937475
18.500000 3.038537
18.500000 3.140451
18.500000 3.243218
18.500000 3.346838
18.500000 3.451311
18.500000 3.556637
18.500000 3.662816
18.500000 3.769847
18.500000 3.877732
18.500000 3.986469
18.500000 4.096059
18.500000 4.206502
18.500000 4.317797
18.500000 4.429946
18.500000 4.542947
18.500000 4.656801
18.500000 4.771508
18.500000 4.887068
18.500000 5.003481
18.500000 5.120747
18.500000 5.238865
18.500000 5.357836
18.500000 5.477660
18.500000 5.598337
18.500000 5.719867
18.500000 5.842250
18.500000 5.965485
18.500000 6.089573
18.500000 6.214514
18.500000 6.340308
18.500000 6.466955
18.500000 6.594455
18.500000 6.722807
18.500000 6.852013
18.500000 6.982071
18.500000 7.112982
18.500000 7.244746
18.500000 7.377362
18.500000 7.510832
18.500000 7.645154
18.500000 7.780329
18.500000 7.916358
18.500000 8.053238
18.500000 8.190972
18.500000 8.329559
18.500000 8.468998
18.500000 8.609290
18.500000 8.750435
18.500000 8.892433
18.500000 9.035284
18.500000 9.178988
18.500000 9.323544
18.500000 9.468954
18.500000 9.615216
18.500000 9.762331
18.500000 9.910298
18.500000 10.059119
18.500000 10.208793
18.500000 10.359319
18.500000 10.510698
18.500000 10.662930
18.500000 10.816015
18.500000 10.969953
18.500000 11.124743
18.500000 11.280387
18.500000 11.436883
18.500000 11.594232
18.500000 11.752434
18.500000 11.911489
18.500000 12.071396
18.500000 12.232157
18.500000 12.393770
18.500000 12.556236
18.500000 12.719555
18.500000 12.883727
18.500000 13.048751
18.500000 13.214629
18.500000 13.381359
18.500000 13.548942
18.500000 13.717378
18.500000 13.886667
18.500000 14.056809
18.500000 14.227803
18.500000 14.399651
18.500000 14.572351
18.500000 14.745904
18.500000 14.920310
18.500000 15.095568
18.500000 15.271680
18.500000 15.448644
18.500000 15.626461
18.500000 15.805132
18.500000 15.984654
18.500000 16.165030
18.500000 16.346259
18.500000 16.528340
18.500000 16.711274
18.500000 16.895062
18.500000 17.079702
18.500000 17.265194
18.500000 17.451540
18.500000 17.638738
18.500000 17.826790
18.500000 18.015694
18.500000 18.205451
18.500000 18.396061
18.500000 18.587523
18.500000 18.779839
18.500000 18.973007
18.500000 19.167029
18.500000 19.361903
18.500000 19.557629
18.500000 19.754209
18.500000 19.951642
18.500000 20.149927
18.500000 20.349065
18.500000 20.549056
18.500000 20.749900
18.500000 20.951597
18.500000 21.154147
18.500000 21.357549
18.500000 21.561804
18.500000 21.766913
18.500000 21.972874
18.500000 22.179687
18.500000 22.387354
18.500000 22.595873
18.500000 22.805246
18.500000 23.015471
18.500000 23.226549
18.500000 23.438480
18.500000 23.651264
18.500000 23.864900
18.500000 24.079389
18.500000 24.294732
18.500000 24.510927
18.500000 24.727975
18.500000 24.945875
18.500000 25.164629
18.500000 25.384235
18.500000 25.604695
18.500000 25.826007
18.500000 26.048172
18.500000 26.271189
18.500000 26.495060
18.500000 26.719783
18.500000 26.945360
18.500000 27.171789
18.500000 27.399071
18.500000 27.627206
18.500000 27.856193
18.500000 28.086034
18.500000 28.316727
18.500000 28.548273
18.500000 28.780672
18.500000 29.013924
18.500000 29.248029
18.500000 29.482986
18.500000 29.718797
18.500000 29.955460
18.500000 30.192976
18.500000 30.431345
18.500000 30.670567
18.500000 30.910641
18.500000 31.151569
18.500000 31.393349
18.500000 31.635982
18.500000 31.879468
18.500000 32.123807
18.500000 32.368998
18.500000 32.615043
18.500000 32.861940
18.500000 33.109690
18.500000 33.358293
18.500000 33.607749
18.500000 33.858058
18.500000 34.109219
18.500000 34.361234
18.500000 34.614101
18.500000 34.867821
18.500000 35.122394
18.500000 35.377819
18.500000 35.634098
18.500000 35.891229
18.500000 36.149214
18.500000 36.408051
18.500000 36.667741
18.500000 36.928283
18.500000 37.189679
18.500000 37.451927
18.500000 37.715029
18.500000 37.978983
18.500000 38.243790
18.500000 38.509450
18.500000 38.775962
18.500000 39.043328
18.500000 39.311546
18.500000 39.580617
18.500000 39.850541
18.500000 40.121318
18.500000 40.392948
18.500000 40.665430
18.500000 40.938765
18.500000 41.212954
18.500000 41.487995
18.500000 41.763889
18.500000 42.040635
18.500000 42.318235
18.500000 42.596687
18.500000 42.875993
18.500000 43.156151
18.500000 43.437162
18.500000 43.719025
18.500000 44.001742
18.500000 44.285311
18.500000 44.569734
18.500000 44.855009
18.500000 45.141137
18.500000 45.428118
18.500000 45.715951
18.500000 46.004638
18.500000 46.294177
18.500000 46.584569
18.500000 46.875814
18.500000 47.167912
18.500000 47.460863
18.500000 47.754666
18.500000 48.049323
18.500000 48.344832
18.500000 48.641194
18.500000 48.938409
18.500000 49.236476
18.500000 49.535397
18.500000 49.835170
18.500000 50.135797
18.500000 50.437276
18.500000 50.739608
18.500000 51.042793
18.500000 51.346830
18.500000 51.651721
18.500000 51.957464
18.500000 52.264060
18.500000 52.571509
18.500000 52.879811
18.500000 53.188965
18.500000 53.498973
18.500000 53.809833
18.500000 54.121546
18.500000 54.434113
18.500000 54.747531
18.500000 55.061803
18.500000 55.376928
18.500000 55.692905
18.500000 56.009735
18.500000 56.327418
18.500000 56.645954
18.500000 56.965343
18.500000 57.285584
18.500000 57.606679
18.500000 57.928626
18.500000 58.251426
18.500000 58.575079
18.500000 58.899585
18.500000 59.224944
18.500000 59.551155
18.500000 59.878219
18.500000 60.206137
18.500000 60.534907
18.500000 60.864529
18.500000 61.195005
18.500000 61.526334
18.500000 61.858515
18.500000 62.191549
18.500000 62.525436
18.500000 62.860176
18.500000 63.195769
18.500000 63.532214
18.500000 63.869513
18.500000 64.207664
18.500000 64.546668
18.500000 64.886525
18.500000 65.227235
18.500000 65.568797
18.500000 65.911213
18.500000 66.254481
18.500000 66.598602
18.500000 66.943576
18.500000 67.289403
18.500000 67.636082
18.500000 67.983615
18.500000 68.332000
18.500000 68.681238
18.500000 69.031329
18.500000 69.382273
18.500000 69.734070
18.500000 70.086719
18.500000 70.440222
18.500000 70.794577
18.500000 71.149785
18.500000 71.505846
18.500000 71.862760
18.500000 72.220526
18.500000 72.579146
18.500000 72.938618
18.500000 73.298943
18.500000 73.660121
18.500000 74.022152
18.500000 74.385035
18.500000 74.748772
18.500000 75.113361
18.500000 75.478803
18.500000 75.845098
18.500000 76.212246
18.500000 76.580246
18.500000 76.949100
18.500000 77.318806
18.500000 77.689365
18.500000 78.060777
18.500000 78.433042
18.500000 78.806160
18.500000 79.180130
18.500000 79.554954
18.500000 79.930630
18.500000 80.307159
18.500000 80.684541
18.500000 81.062776
18.500000 81.441863
18.500000 81.821804
18.500000 82.202597
18.500000 82.584243
18.500000 82.966742
18.500000 83.350094
18.500000 83.734298
18.500000 84.119356
18.500000 84.505266
18.500000 84.892029
18.500000 85.279645
18.500000 85.668114
18.500000 86.057436
18.500000 86.447610
18.500000 86.838638
18.500000 87.230518
18.500000 87.623251
18.500000 88.016837
18.500000 88.411275
18.500000 88.806567
18.500000 89.202711
18.500000 89.599708
18.500000 89.997559
18.500000 90.396261
18.500000 90.795817
18.500000 91.196226
18.500000 91.597487
18.500000 91.999601
18.500000 92.402569
18.500000 92.806388
18.500000 93.211061
18.500000 93.616587
18.500000 94.022965
18.500000 94.430197
18.500000 94.838281
18.500000 95.247218
18.500000 95.657008
18.500000 96.067650
18.500000 96.479146
18.500000 96.891494
18.500000 97.304695
18.500000 97.718749
18.500000 98.133656
18.500000 98.549416
18.500000 98.966029
18.500000 99.383494
18.500000 99.801812
18.500000 100.220983
18.500000 100.641007
18.500000 101.061884
18.500000 101.483613
18.500000 101.906196
18.500000 102.329631
18.500000 102.753919
18.500000 103.179060
18.500000 103.605054
18.500000 104.031901
18.500000 104.459600
18.500000 104.888152
18.500000 105.317558
18.500000 105.747816
18.500000 106.178926
18.500000 106.610890
18.500000 107.043707
18.500000 107.477376
18.500000 107.911898
18.500000 108.347273
18.500000 108.783501
18.500000 109.220582
18.500000 109.658515
18.500000 110.097302
18.500000 110.536941
18.500000 110.977433
18.500000 111.418778
18.500000 111.860976
18.500000 112.304026
18.500000 112.747930
18.500000 113.192686
18.500000 113.638295
18.500000 114.084757
18.500000 114.532072
18.500000 114.980240
18.500000 115.429260
18.500000 115.879134
18.500000 116.329860
18.500000 116.781439
18.500000 117.233871
18.500000 117.687155
18.500000 118.141293
18.500000 118.596283
18.500000 119.052126
18.500000 119.508822
18.500000 119.966371
18.500000 120.424773
18.500000 120.884028
18.500000 121.344135
18.500000 121.805095
18.500000 122.266908
18.500000 122.729574
18.500000 123.193093
18.500000 123.657465
18.500000 124.122689
18.500000 124.588766
18.500000 125.055697
18.500000 125.523480
18.500000 125.992115
18.500000 126.461604
18.500000 126.931946
18.500000 127.403140
18.500000 127.875187
18.500000 128.348087
18.500000 128.821840
18.500000 129.296446
18.500000 129.771904
18.500000 130.248216
18.500000 130.725380
18.500000 131.203397
18.500000 131.682267
18.500000 132.161990
18.500000 132.642565
18.500000 133.123994
18.500000 133.606275
18.500000 134.089409
18.500000 134.573396
18.500000 135.058236
18.500000 135.543928
18.500000 136.030474
18.500000 136.517872
18.500000 137.006123
18.500000 137.495227
18.500000 137.985184
18.500000 138.475994
18.500000 138.967656
18.500000 139.460172
18.500000 139.953540
18.500000 140.447761
18.500000 140.942835
18.500000 141.438761
18.500000 141.935541
18.500000 142.433173
18.500000 142.931658
18.500000 143.430997
18.500000 143.931187
18.500000 144.432231
18.500000 144.934128
18.500000 145.436877
18.500000 145.940480
18.500000 146.444935
18.500000 146.950243
18.500000 147.456403
18.500000 147.963417
18.500000 148.471284
18.500000 148.980003
18.500000 149.489575
18.500000 150.000000
</POINTS>
</NEKTAR>

