<?xml version="1.0" encoding="utf-8" ?>
<NEKTAR>
<POINTS DIM="2" FIELDS="">
954.500000 0.000000
954.500000 0.000418
954.500000 0.001672
954.500000 0.003763
954.500000 0.006689
954.500000 0.010451
954.500000 0.015050
954.500000 0.020485
954.500000 0.026756
954.500000 0.033863
954.500000 0.041806
954.500000 0.050585
954.500000 0.060201
954.500000 0.070652
954.500000 0.081940
954.500000 0.094063
954.500000 0.107023
954.500000 0.120819
954.500000 0.135451
954.500000 0.150919
954.500000 0.167224
954.500000 0.184364
954.500000 0.202341
954.500000 0.221153
954.500000 0.240802
954.500000 0.261287
954.500000 0.282608
954.500000 0.304765
954.500000 0.327758
954.500000 0.351588
954.500000 0.376253
954.500000 0.401755
954.500000 0.428092
954.500000 0.455266
954.500000 0.483276
954.500000 0.512122
954.500000 0.541805
954.500000 0.572323
954.500000 0.603677
954.500000 0.635868
954.500000 0.668894
954.500000 0.702757
954.500000 0.737456
954.500000 0.772991
954.500000 0.809362
954.500000 0.846570
954.500000 0.884613
954.500000 0.923492
954.500000 0.963208
954.500000 1.003760
954.500000 1.045148
954.500000 1.087372
954.500000 1.130432
954.500000 1.174328
954.500000 1.219060
954.500000 1.264629
954.500000 1.311033
954.500000 1.358274
954.500000 1.406351
954.500000 1.455264
954.500000 1.505013
954.500000 1.555598
954.500000 1.607019
954.500000 1.659276
954.500000 1.712370
954.500000 1.766299
954.500000 1.821065
954.500000 1.876667
954.500000 1.933105
954.500000 1.990379
954.500000 2.048489
954.500000 2.107436
954.500000 2.167218
954.500000 2.227837
954.500000 2.289291
954.500000 2.351582
954.500000 2.414709
954.500000 2.478672
954.500000 2.543471
954.500000 2.609106
954.500000 2.675578
954.500000 2.742885
954.500000 2.811029
954.500000 2.880009
954.500000 2.949825
954.500000 3.020477
954.500000 3.091965
954.500000 3.164289
954.500000 3.237449
954.500000 3.311446
954.500000 3.386278
954.500000 3.461947
954.500000 3.538452
954.500000 3.615793
954.500000 3.693970
954.500000 3.772983
954.500000 3.852832
954.500000 3.933517
954.500000 4.015039
954.500000 4.097397
954.500000 4.180590
954.500000 4.264620
954.500000 4.349486
954.500000 4.435188
954.500000 4.521727
954.500000 4.609101
954.500000 4.697311
954.500000 4.786358
954.500000 4.876241
954.500000 4.966959
954.500000 5.058514
954.500000 5.150905
954.500000 5.244133
954.500000 5.338196
954.500000 5.433095
954.500000 5.528831
954.500000 5.625402
954.500000 5.722810
954.500000 5.821054
954.500000 5.920134
954.500000 6.020050
954.500000 6.120802
954.500000 6.222391
954.500000 6.324815
954.500000 6.428076
954.500000 6.532172
954.500000 6.637105
954.500000 6.742874
954.500000 6.849479
954.500000 6.956920
954.500000 7.065198
954.500000 7.174311
954.500000 7.284261
954.500000 7.395046
954.500000 7.506668
954.500000 7.619126
954.500000 7.732420
954.500000 7.846550
954.500000 7.961516
954.500000 8.077319
954.500000 8.193957
954.500000 8.311432
954.500000 8.429742
954.500000 8.548889
954.500000 8.668872
954.500000 8.789691
954.500000 8.911346
954.500000 9.033838
954.500000 9.157165
954.500000 9.281329
954.500000 9.406328
954.500000 9.532164
954.500000 9.658836
954.500000 9.786344
954.500000 9.914688
954.500000 10.043868
954.500000 10.173885
954.500000 10.304737
954.500000 10.436426
954.500000 10.568950
954.500000 10.702311
954.500000 10.836508
954.500000 10.971541
954.500000 11.107411
954.500000 11.244116
954.500000 11.381657
954.500000 11.520035
954.500000 11.659248
954.500000 11.799298
954.500000 11.940184
954.500000 12.081906
954.500000 12.224464
954.500000 12.367859
954.500000 12.512089
954.500000 12.657155
954.500000 12.803058
954.500000 12.949797
954.500000 13.097372
954.500000 13.245782
954.500000 13.395030
954.500000 13.545113
954.500000 13.696032
954.500000 13.847787
954.500000 14.000379
954.500000 14.153807
954.500000 14.308070
954.500000 14.463170
954.500000 14.619106
954.500000 14.775879
954.500000 14.933487
954.500000 15.091931
954.500000 15.251212
954.500000 15.411328
954.500000 15.572281
954.500000 15.734070
954.500000 15.896695
954.500000 16.060156
954.500000 16.224453
954.500000 16.389586
954.500000 16.555556
954.500000 16.722361
954.500000 16.890003
954.500000 17.058481
954.500000 17.227795
954.500000 17.397945
954.500000 17.568931
954.500000 17.740753
954.500000 17.913412
954.500000 18.086906
954.500000 18.261237
954.500000 18.436403
954.500000 18.612406
954.500000 18.789245
954.500000 18.966920
954.500000 19.145432
954.500000 19.324779
954.500000 19.504962
954.500000 19.685982
954.500000 19.867838
954.500000 20.050529
954.500000 20.234057
954.500000 20.418421
954.500000 20.603622
954.500000 20.789658
954.500000 20.976530
954.500000 21.164239
954.500000 21.352783
954.500000 21.542164
954.500000 21.732381
954.500000 21.923434
954.500000 22.115323
954.500000 22.308048
954.500000 22.501610
954.500000 22.696007
954.500000 22.891241
954.500000 23.087310
954.500000 23.284216
954.500000 23.481958
954.500000 23.680536
954.500000 23.879950
954.500000 24.080200
954.500000 24.281287
954.500000 24.483209
954.500000 24.685968
954.500000 24.889563
954.500000 25.093994
954.500000 25.299261
954.500000 25.505364
954.500000 25.712303
954.500000 25.920078
954.500000 26.128690
954.500000 26.338137
954.500000 26.548421
954.500000 26.759541
954.500000 26.971497
954.500000 27.184289
954.500000 27.397917
954.500000 27.612381
954.500000 27.827682
954.500000 28.043818
954.500000 28.260791
954.500000 28.478600
954.500000 28.697244
954.500000 28.916725
954.500000 29.137043
954.500000 29.358196
954.500000 29.580185
954.500000 29.803011
954.500000 30.026672
954.500000 30.251170
954.500000 30.476504
954.500000 30.702674
954.500000 30.929680
954.500000 31.157522
954.500000 31.386200
954.500000 31.615715
954.500000 31.846065
954.500000 32.077252
954.500000 32.309275
954.500000 32.542133
954.500000 32.775828
954.500000 33.010360
954.500000 33.245727
954.500000 33.481930
954.500000 33.718970
954.500000 33.956845
954.500000 34.195557
954.500000 34.435105
954.500000 34.675489
954.500000 34.916709
954.500000 35.158765
954.500000 35.401657
954.500000 35.645386
954.500000 35.889950
954.500000 36.135351
954.500000 36.381588
954.500000 36.628660
954.500000 36.876569
954.500000 37.125315
954.500000 37.374896
954.500000 37.625313
954.500000 37.876567
954.500000 38.128656
954.500000 38.381582
954.500000 38.635344
954.500000 38.889942
954.500000 39.145376
954.500000 39.401646
954.500000 39.658752
954.500000 39.916695
954.500000 40.175473
954.500000 40.435088
954.500000 40.695539
954.500000 40.956826
954.500000 41.218949
954.500000 41.481908
954.500000 41.745703
954.500000 42.010334
954.500000 42.275802
954.500000 42.542106
954.500000 42.809245
954.500000 43.077221
954.500000 43.346033
954.500000 43.615681
954.500000 43.886165
954.500000 44.157486
954.500000 44.429642
954.500000 44.702635
954.500000 44.976463
954.500000 45.251128
954.500000 45.526629
954.500000 45.802966
954.500000 46.080139
954.500000 46.358148
954.500000 46.636994
954.500000 46.916675
954.500000 47.197193
954.500000 47.478547
954.500000 47.760736
954.500000 48.043762
954.500000 48.327625
954.500000 48.612323
954.500000 48.897857
954.500000 49.184227
954.500000 49.471434
954.500000 49.759477
954.500000 50.048355
954.500000 50.338070
954.500000 50.628621
954.500000 50.920009
954.500000 51.212232
954.500000 51.505291
954.500000 51.799187
954.500000 52.093918
954.500000 52.389486
954.500000 52.685890
954.500000 52.983130
954.500000 53.281206
954.500000 53.580118
954.500000 53.879867
954.500000 54.180451
954.500000 54.481872
954.500000 54.784128
954.500000 55.087221
954.500000 55.391150
954.500000 55.695915
954.500000 56.001516
954.500000 56.307953
954.500000 56.615227
954.500000 56.923336
954.500000 57.232282
954.500000 57.542064
954.500000 57.852682
954.500000 58.164136
954.500000 58.476426
954.500000 58.789552
954.500000 59.103514
954.500000 59.418313
954.500000 59.733947
954.500000 60.050418
954.500000 60.367725
954.500000 60.685868
954.500000 61.004847
954.500000 61.324662
954.500000 61.645313
954.500000 61.966801
954.500000 62.289124
954.500000 62.612284
954.500000 62.936279
954.500000 63.261111
954.500000 63.586779
954.500000 63.913283
954.500000 64.240624
954.500000 64.568800
954.500000 64.897812
954.500000 65.227661
954.500000 65.558346
954.500000 65.889867
954.500000 66.222223
954.500000 66.555417
954.500000 66.889446
954.500000 67.224311
954.500000 67.560012
954.500000 67.896550
954.500000 68.233924
954.500000 68.572133
954.500000 68.911179
954.500000 69.251061
954.500000 69.591779
954.500000 69.933334
954.500000 70.275724
954.500000 70.618950
954.500000 70.963013
954.500000 71.307912
954.500000 71.653646
954.500000 72.000217
954.500000 72.347624
954.500000 72.695868
954.500000 73.044947
954.500000 73.394862
954.500000 73.745614
954.500000 74.097202
954.500000 74.449625
954.500000 74.802885
954.500000 75.156981
954.500000 75.511913
954.500000 75.867682
954.500000 76.224286
954.500000 76.581726
954.500000 76.940003
954.500000 77.299116
954.500000 77.659064
954.500000 78.019849
954.500000 78.381471
954.500000 78.743928
954.500000 79.107221
954.500000 79.471350
954.500000 79.836316
954.500000 80.202118
954.500000 80.568755
954.500000 80.936229
954.500000 81.304539
954.500000 81.673685
954.500000 82.043668
954.500000 82.414486
954.500000 82.786141
954.500000 83.158631
954.500000 83.531958
954.500000 83.906121
954.500000 84.281120
954.500000 84.656955
954.500000 85.033626
954.500000 85.411133
954.500000 85.789477
954.500000 86.168656
954.500000 86.548672
954.500000 86.929524
954.500000 87.311212
954.500000 87.693736
954.500000 88.077096
954.500000 88.461292
954.500000 88.846324
954.500000 89.232193
954.500000 89.618897
954.500000 90.006438
954.500000 90.394815
954.500000 90.784028
954.500000 91.174077
954.500000 91.564962
954.500000 91.956684
954.500000 92.349241
954.500000 92.742634
954.500000 93.136864
954.500000 93.531930
954.500000 93.927832
954.500000 94.324570
954.500000 94.722144
954.500000 95.120554
954.500000 95.519801
954.500000 95.919883
954.500000 96.320802
954.500000 96.722557
954.500000 97.125147
954.500000 97.528574
954.500000 97.932837
954.500000 98.337937
954.500000 98.743872
954.500000 99.150643
954.500000 99.558251
954.500000 99.966695
954.500000 100.375974
954.500000 100.786090
954.500000 101.197042
954.500000 101.608831
954.500000 102.021455
954.500000 102.434915
954.500000 102.849212
954.500000 103.264344
954.500000 103.680313
954.500000 104.097118
954.500000 104.514759
954.500000 104.933236
954.500000 105.352549
954.500000 105.772699
954.500000 106.193684
954.500000 106.615506
954.500000 107.038163
954.500000 107.461657
954.500000 107.885987
954.500000 108.311153
954.500000 108.737155
954.500000 109.163993
954.500000 109.591668
954.500000 110.020178
954.500000 110.449525
954.500000 110.879708
954.500000 111.310727
954.500000 111.742582
954.500000 112.175273
954.500000 112.608800
954.500000 113.043163
954.500000 113.478363
954.500000 113.914398
954.500000 114.351270
954.500000 114.788978
954.500000 115.227522
954.500000 115.666902
954.500000 116.107118
954.500000 116.548170
954.500000 116.990059
954.500000 117.432783
954.500000 117.876344
954.500000 118.320740
954.500000 118.765973
954.500000 119.212042
954.500000 119.658947
954.500000 120.106689
954.500000 120.555266
954.500000 121.004679
954.500000 121.454929
954.500000 121.906015
954.500000 122.357937
954.500000 122.810695
954.500000 123.264289
954.500000 123.718719
954.500000 124.173985
954.500000 124.630087
954.500000 125.087026
954.500000 125.544801
954.500000 126.003411
954.500000 126.462858
954.500000 126.923141
954.500000 127.384260
954.500000 127.846216
954.500000 128.309007
954.500000 128.772634
954.500000 129.237098
954.500000 129.702398
954.500000 130.168534
954.500000 130.635505
954.500000 131.103314
954.500000 131.571958
954.500000 132.041438
954.500000 132.511754
954.500000 132.982907
954.500000 133.454896
954.500000 133.927720
954.500000 134.401381
954.500000 134.875878
954.500000 135.351211
954.500000 135.827381
954.500000 136.304386
954.500000 136.782227
954.500000 137.260905
954.500000 137.740419
954.500000 138.220769
954.500000 138.701955
954.500000 139.183977
954.500000 139.666835
954.500000 140.150529
954.500000 140.635060
954.500000 141.120426
954.500000 141.606629
954.500000 142.093668
954.500000 142.581542
954.500000 143.070253
954.500000 143.559801
954.500000 144.050184
954.500000 144.541403
954.500000 145.033459
954.500000 145.526350
954.500000 146.020078
954.500000 146.514642
954.500000 147.010042
954.500000 147.506278
954.500000 148.003350
954.500000 148.501258
954.500000 149.000003
954.500000 149.499583
954.500000 150.000000
</POINTS>
</NEKTAR>

