<?xml version="1.0" encoding="utf-8" ?>
<NEKTAR>
<POINTS DIM="2" FIELDS="">
754.500000 0.000000
754.500000 0.000418
754.500000 0.001672
754.500000 0.003763
754.500000 0.006689
754.500000 0.010451
754.500000 0.015050
754.500000 0.020485
754.500000 0.026756
754.500000 0.033863
754.500000 0.041806
754.500000 0.050585
754.500000 0.060201
754.500000 0.070652
754.500000 0.081940
754.500000 0.094063
754.500000 0.107023
754.500000 0.120819
754.500000 0.135451
754.500000 0.150919
754.500000 0.167224
754.500000 0.184364
754.500000 0.202341
754.500000 0.221153
754.500000 0.240802
754.500000 0.261287
754.500000 0.282608
754.500000 0.304765
754.500000 0.327758
754.500000 0.351588
754.500000 0.376253
754.500000 0.401755
754.500000 0.428092
754.500000 0.455266
754.500000 0.483276
754.500000 0.512122
754.500000 0.541805
754.500000 0.572323
754.500000 0.603677
754.500000 0.635868
754.500000 0.668894
754.500000 0.702757
754.500000 0.737456
754.500000 0.772991
754.500000 0.809362
754.500000 0.846570
754.500000 0.884613
754.500000 0.923492
754.500000 0.963208
754.500000 1.003760
754.500000 1.045148
754.500000 1.087372
754.500000 1.130432
754.500000 1.174328
754.500000 1.219060
754.500000 1.264629
754.500000 1.311033
754.500000 1.358274
754.500000 1.406351
754.500000 1.455264
754.500000 1.505013
754.500000 1.555598
754.500000 1.607019
754.500000 1.659276
754.500000 1.712370
754.500000 1.766299
754.500000 1.821065
754.500000 1.876667
754.500000 1.933105
754.500000 1.990379
754.500000 2.048489
754.500000 2.107436
754.500000 2.167218
754.500000 2.227837
754.500000 2.289291
754.500000 2.351582
754.500000 2.414709
754.500000 2.478672
754.500000 2.543471
754.500000 2.609106
754.500000 2.675578
754.500000 2.742885
754.500000 2.811029
754.500000 2.880009
754.500000 2.949825
754.500000 3.020477
754.500000 3.091965
754.500000 3.164289
754.500000 3.237449
754.500000 3.311446
754.500000 3.386278
754.500000 3.461947
754.500000 3.538452
754.500000 3.615793
754.500000 3.693970
754.500000 3.772983
754.500000 3.852832
754.500000 3.933517
754.500000 4.015039
754.500000 4.097397
754.500000 4.180590
754.500000 4.264620
754.500000 4.349486
754.500000 4.435188
754.500000 4.521727
754.500000 4.609101
754.500000 4.697311
754.500000 4.786358
754.500000 4.876241
754.500000 4.966959
754.500000 5.058514
754.500000 5.150905
754.500000 5.244133
754.500000 5.338196
754.500000 5.433095
754.500000 5.528831
754.500000 5.625402
754.500000 5.722810
754.500000 5.821054
754.500000 5.920134
754.500000 6.020050
754.500000 6.120802
754.500000 6.222391
754.500000 6.324815
754.500000 6.428076
754.500000 6.532172
754.500000 6.637105
754.500000 6.742874
754.500000 6.849479
754.500000 6.956920
754.500000 7.065198
754.500000 7.174311
754.500000 7.284261
754.500000 7.395046
754.500000 7.506668
754.500000 7.619126
754.500000 7.732420
754.500000 7.846550
754.500000 7.961516
754.500000 8.077319
754.500000 8.193957
754.500000 8.311432
754.500000 8.429742
754.500000 8.548889
754.500000 8.668872
754.500000 8.789691
754.500000 8.911346
754.500000 9.033838
754.500000 9.157165
754.500000 9.281329
754.500000 9.406328
754.500000 9.532164
754.500000 9.658836
754.500000 9.786344
754.500000 9.914688
754.500000 10.043868
754.500000 10.173885
754.500000 10.304737
754.500000 10.436426
754.500000 10.568950
754.500000 10.702311
754.500000 10.836508
754.500000 10.971541
754.500000 11.107411
754.500000 11.244116
754.500000 11.381657
754.500000 11.520035
754.500000 11.659248
754.500000 11.799298
754.500000 11.940184
754.500000 12.081906
754.500000 12.224464
754.500000 12.367859
754.500000 12.512089
754.500000 12.657155
754.500000 12.803058
754.500000 12.949797
754.500000 13.097372
754.500000 13.245782
754.500000 13.395030
754.500000 13.545113
754.500000 13.696032
754.500000 13.847787
754.500000 14.000379
754.500000 14.153807
754.500000 14.308070
754.500000 14.463170
754.500000 14.619106
754.500000 14.775879
754.500000 14.933487
754.500000 15.091931
754.500000 15.251212
754.500000 15.411328
754.500000 15.572281
754.500000 15.734070
754.500000 15.896695
754.500000 16.060156
754.500000 16.224453
754.500000 16.389586
754.500000 16.555556
754.500000 16.722361
754.500000 16.890003
754.500000 17.058481
754.500000 17.227795
754.500000 17.397945
754.500000 17.568931
754.500000 17.740753
754.500000 17.913412
754.500000 18.086906
754.500000 18.261237
754.500000 18.436403
754.500000 18.612406
754.500000 18.789245
754.500000 18.966920
754.500000 19.145432
754.500000 19.324779
754.500000 19.504962
754.500000 19.685982
754.500000 19.867838
754.500000 20.050529
754.500000 20.234057
754.500000 20.418421
754.500000 20.603622
754.500000 20.789658
754.500000 20.976530
754.500000 21.164239
754.500000 21.352783
754.500000 21.542164
754.500000 21.732381
754.500000 21.923434
754.500000 22.115323
754.500000 22.308048
754.500000 22.501610
754.500000 22.696007
754.500000 22.891241
754.500000 23.087310
754.500000 23.284216
754.500000 23.481958
754.500000 23.680536
754.500000 23.879950
754.500000 24.080200
754.500000 24.281287
754.500000 24.483209
754.500000 24.685968
754.500000 24.889563
754.500000 25.093994
754.500000 25.299261
754.500000 25.505364
754.500000 25.712303
754.500000 25.920078
754.500000 26.128690
754.500000 26.338137
754.500000 26.548421
754.500000 26.759541
754.500000 26.971497
754.500000 27.184289
754.500000 27.397917
754.500000 27.612381
754.500000 27.827682
754.500000 28.043818
754.500000 28.260791
754.500000 28.478600
754.500000 28.697244
754.500000 28.916725
754.500000 29.137043
754.500000 29.358196
754.500000 29.580185
754.500000 29.803011
754.500000 30.026672
754.500000 30.251170
754.500000 30.476504
754.500000 30.702674
754.500000 30.929680
754.500000 31.157522
754.500000 31.386200
754.500000 31.615715
754.500000 31.846065
754.500000 32.077252
754.500000 32.309275
754.500000 32.542133
754.500000 32.775828
754.500000 33.010360
754.500000 33.245727
754.500000 33.481930
754.500000 33.718970
754.500000 33.956845
754.500000 34.195557
754.500000 34.435105
754.500000 34.675489
754.500000 34.916709
754.500000 35.158765
754.500000 35.401657
754.500000 35.645386
754.500000 35.889950
754.500000 36.135351
754.500000 36.381588
754.500000 36.628660
754.500000 36.876569
754.500000 37.125315
754.500000 37.374896
754.500000 37.625313
754.500000 37.876567
754.500000 38.128656
754.500000 38.381582
754.500000 38.635344
754.500000 38.889942
754.500000 39.145376
754.500000 39.401646
754.500000 39.658752
754.500000 39.916695
754.500000 40.175473
754.500000 40.435088
754.500000 40.695539
754.500000 40.956826
754.500000 41.218949
754.500000 41.481908
754.500000 41.745703
754.500000 42.010334
754.500000 42.275802
754.500000 42.542106
754.500000 42.809245
754.500000 43.077221
754.500000 43.346033
754.500000 43.615681
754.500000 43.886165
754.500000 44.157486
754.500000 44.429642
754.500000 44.702635
754.500000 44.976463
754.500000 45.251128
754.500000 45.526629
754.500000 45.802966
754.500000 46.080139
754.500000 46.358148
754.500000 46.636994
754.500000 46.916675
754.500000 47.197193
754.500000 47.478547
754.500000 47.760736
754.500000 48.043762
754.500000 48.327625
754.500000 48.612323
754.500000 48.897857
754.500000 49.184227
754.500000 49.471434
754.500000 49.759477
754.500000 50.048355
754.500000 50.338070
754.500000 50.628621
754.500000 50.920009
754.500000 51.212232
754.500000 51.505291
754.500000 51.799187
754.500000 52.093918
754.500000 52.389486
754.500000 52.685890
754.500000 52.983130
754.500000 53.281206
754.500000 53.580118
754.500000 53.879867
754.500000 54.180451
754.500000 54.481872
754.500000 54.784128
754.500000 55.087221
754.500000 55.391150
754.500000 55.695915
754.500000 56.001516
754.500000 56.307953
754.500000 56.615227
754.500000 56.923336
754.500000 57.232282
754.500000 57.542064
754.500000 57.852682
754.500000 58.164136
754.500000 58.476426
754.500000 58.789552
754.500000 59.103514
754.500000 59.418313
754.500000 59.733947
754.500000 60.050418
754.500000 60.367725
754.500000 60.685868
754.500000 61.004847
754.500000 61.324662
754.500000 61.645313
754.500000 61.966801
754.500000 62.289124
754.500000 62.612284
754.500000 62.936279
754.500000 63.261111
754.500000 63.586779
754.500000 63.913283
754.500000 64.240624
754.500000 64.568800
754.500000 64.897812
754.500000 65.227661
754.500000 65.558346
754.500000 65.889867
754.500000 66.222223
754.500000 66.555417
754.500000 66.889446
754.500000 67.224311
754.500000 67.560012
754.500000 67.896550
754.500000 68.233924
754.500000 68.572133
754.500000 68.911179
754.500000 69.251061
754.500000 69.591779
754.500000 69.933334
754.500000 70.275724
754.500000 70.618950
754.500000 70.963013
754.500000 71.307912
754.500000 71.653646
754.500000 72.000217
754.500000 72.347624
754.500000 72.695868
754.500000 73.044947
754.500000 73.394862
754.500000 73.745614
754.500000 74.097202
754.500000 74.449625
754.500000 74.802885
754.500000 75.156981
754.500000 75.511913
754.500000 75.867682
754.500000 76.224286
754.500000 76.581726
754.500000 76.940003
754.500000 77.299116
754.500000 77.659064
754.500000 78.019849
754.500000 78.381471
754.500000 78.743928
754.500000 79.107221
754.500000 79.471350
754.500000 79.836316
754.500000 80.202118
754.500000 80.568755
754.500000 80.936229
754.500000 81.304539
754.500000 81.673685
754.500000 82.043668
754.500000 82.414486
754.500000 82.786141
754.500000 83.158631
754.500000 83.531958
754.500000 83.906121
754.500000 84.281120
754.500000 84.656955
754.500000 85.033626
754.500000 85.411133
754.500000 85.789477
754.500000 86.168656
754.500000 86.548672
754.500000 86.929524
754.500000 87.311212
754.500000 87.693736
754.500000 88.077096
754.500000 88.461292
754.500000 88.846324
754.500000 89.232193
754.500000 89.618897
754.500000 90.006438
754.500000 90.394815
754.500000 90.784028
754.500000 91.174077
754.500000 91.564962
754.500000 91.956684
754.500000 92.349241
754.500000 92.742634
754.500000 93.136864
754.500000 93.531930
754.500000 93.927832
754.500000 94.324570
754.500000 94.722144
754.500000 95.120554
754.500000 95.519801
754.500000 95.919883
754.500000 96.320802
754.500000 96.722557
754.500000 97.125147
754.500000 97.528574
754.500000 97.932837
754.500000 98.337937
754.500000 98.743872
754.500000 99.150643
754.500000 99.558251
754.500000 99.966695
754.500000 100.375974
754.500000 100.786090
754.500000 101.197042
754.500000 101.608831
754.500000 102.021455
754.500000 102.434915
754.500000 102.849212
754.500000 103.264344
754.500000 103.680313
754.500000 104.097118
754.500000 104.514759
754.500000 104.933236
754.500000 105.352549
754.500000 105.772699
754.500000 106.193684
754.500000 106.615506
754.500000 107.038163
754.500000 107.461657
754.500000 107.885987
754.500000 108.311153
754.500000 108.737155
754.500000 109.163993
754.500000 109.591668
754.500000 110.020178
754.500000 110.449525
754.500000 110.879708
754.500000 111.310727
754.500000 111.742582
754.500000 112.175273
754.500000 112.608800
754.500000 113.043163
754.500000 113.478363
754.500000 113.914398
754.500000 114.351270
754.500000 114.788978
754.500000 115.227522
754.500000 115.666902
754.500000 116.107118
754.500000 116.548170
754.500000 116.990059
754.500000 117.432783
754.500000 117.876344
754.500000 118.320740
754.500000 118.765973
754.500000 119.212042
754.500000 119.658947
754.500000 120.106689
754.500000 120.555266
754.500000 121.004679
754.500000 121.454929
754.500000 121.906015
754.500000 122.357937
754.500000 122.810695
754.500000 123.264289
754.500000 123.718719
754.500000 124.173985
754.500000 124.630087
754.500000 125.087026
754.500000 125.544801
754.500000 126.003411
754.500000 126.462858
754.500000 126.923141
754.500000 127.384260
754.500000 127.846216
754.500000 128.309007
754.500000 128.772634
754.500000 129.237098
754.500000 129.702398
754.500000 130.168534
754.500000 130.635505
754.500000 131.103314
754.500000 131.571958
754.500000 132.041438
754.500000 132.511754
754.500000 132.982907
754.500000 133.454896
754.500000 133.927720
754.500000 134.401381
754.500000 134.875878
754.500000 135.351211
754.500000 135.827381
754.500000 136.304386
754.500000 136.782227
754.500000 137.260905
754.500000 137.740419
754.500000 138.220769
754.500000 138.701955
754.500000 139.183977
754.500000 139.666835
754.500000 140.150529
754.500000 140.635060
754.500000 141.120426
754.500000 141.606629
754.500000 142.093668
754.500000 142.581542
754.500000 143.070253
754.500000 143.559801
754.500000 144.050184
754.500000 144.541403
754.500000 145.033459
754.500000 145.526350
754.500000 146.020078
754.500000 146.514642
754.500000 147.010042
754.500000 147.506278
754.500000 148.003350
754.500000 148.501258
754.500000 149.000003
754.500000 149.499583
754.500000 150.000000
</POINTS>
</NEKTAR>

