<?xml version="1.0" encoding="utf-8" ?>
<NEKTAR>
<POINTS DIM="2" FIELDS="">
514.500000 0.000000
514.500000 0.000418
514.500000 0.001672
514.500000 0.003763
514.500000 0.006689
514.500000 0.010451
514.500000 0.015050
514.500000 0.020485
514.500000 0.026756
514.500000 0.033863
514.500000 0.041806
514.500000 0.050585
514.500000 0.060201
514.500000 0.070652
514.500000 0.081940
514.500000 0.094063
514.500000 0.107023
514.500000 0.120819
514.500000 0.135451
514.500000 0.150919
514.500000 0.167224
514.500000 0.184364
514.500000 0.202341
514.500000 0.221153
514.500000 0.240802
514.500000 0.261287
514.500000 0.282608
514.500000 0.304765
514.500000 0.327758
514.500000 0.351588
514.500000 0.376253
514.500000 0.401755
514.500000 0.428092
514.500000 0.455266
514.500000 0.483276
514.500000 0.512122
514.500000 0.541805
514.500000 0.572323
514.500000 0.603677
514.500000 0.635868
514.500000 0.668894
514.500000 0.702757
514.500000 0.737456
514.500000 0.772991
514.500000 0.809362
514.500000 0.846570
514.500000 0.884613
514.500000 0.923492
514.500000 0.963208
514.500000 1.003760
514.500000 1.045148
514.500000 1.087372
514.500000 1.130432
514.500000 1.174328
514.500000 1.219060
514.500000 1.264629
514.500000 1.311033
514.500000 1.358274
514.500000 1.406351
514.500000 1.455264
514.500000 1.505013
514.500000 1.555598
514.500000 1.607019
514.500000 1.659276
514.500000 1.712370
514.500000 1.766299
514.500000 1.821065
514.500000 1.876667
514.500000 1.933105
514.500000 1.990379
514.500000 2.048489
514.500000 2.107436
514.500000 2.167218
514.500000 2.227837
514.500000 2.289291
514.500000 2.351582
514.500000 2.414709
514.500000 2.478672
514.500000 2.543471
514.500000 2.609106
514.500000 2.675578
514.500000 2.742885
514.500000 2.811029
514.500000 2.880009
514.500000 2.949825
514.500000 3.020477
514.500000 3.091965
514.500000 3.164289
514.500000 3.237449
514.500000 3.311446
514.500000 3.386278
514.500000 3.461947
514.500000 3.538452
514.500000 3.615793
514.500000 3.693970
514.500000 3.772983
514.500000 3.852832
514.500000 3.933517
514.500000 4.015039
514.500000 4.097397
514.500000 4.180590
514.500000 4.264620
514.500000 4.349486
514.500000 4.435188
514.500000 4.521727
514.500000 4.609101
514.500000 4.697311
514.500000 4.786358
514.500000 4.876241
514.500000 4.966959
514.500000 5.058514
514.500000 5.150905
514.500000 5.244133
514.500000 5.338196
514.500000 5.433095
514.500000 5.528831
514.500000 5.625402
514.500000 5.722810
514.500000 5.821054
514.500000 5.920134
514.500000 6.020050
514.500000 6.120802
514.500000 6.222391
514.500000 6.324815
514.500000 6.428076
514.500000 6.532172
514.500000 6.637105
514.500000 6.742874
514.500000 6.849479
514.500000 6.956920
514.500000 7.065198
514.500000 7.174311
514.500000 7.284261
514.500000 7.395046
514.500000 7.506668
514.500000 7.619126
514.500000 7.732420
514.500000 7.846550
514.500000 7.961516
514.500000 8.077319
514.500000 8.193957
514.500000 8.311432
514.500000 8.429742
514.500000 8.548889
514.500000 8.668872
514.500000 8.789691
514.500000 8.911346
514.500000 9.033838
514.500000 9.157165
514.500000 9.281329
514.500000 9.406328
514.500000 9.532164
514.500000 9.658836
514.500000 9.786344
514.500000 9.914688
514.500000 10.043868
514.500000 10.173885
514.500000 10.304737
514.500000 10.436426
514.500000 10.568950
514.500000 10.702311
514.500000 10.836508
514.500000 10.971541
514.500000 11.107411
514.500000 11.244116
514.500000 11.381657
514.500000 11.520035
514.500000 11.659248
514.500000 11.799298
514.500000 11.940184
514.500000 12.081906
514.500000 12.224464
514.500000 12.367859
514.500000 12.512089
514.500000 12.657155
514.500000 12.803058
514.500000 12.949797
514.500000 13.097372
514.500000 13.245782
514.500000 13.395030
514.500000 13.545113
514.500000 13.696032
514.500000 13.847787
514.500000 14.000379
514.500000 14.153807
514.500000 14.308070
514.500000 14.463170
514.500000 14.619106
514.500000 14.775879
514.500000 14.933487
514.500000 15.091931
514.500000 15.251212
514.500000 15.411328
514.500000 15.572281
514.500000 15.734070
514.500000 15.896695
514.500000 16.060156
514.500000 16.224453
514.500000 16.389586
514.500000 16.555556
514.500000 16.722361
514.500000 16.890003
514.500000 17.058481
514.500000 17.227795
514.500000 17.397945
514.500000 17.568931
514.500000 17.740753
514.500000 17.913412
514.500000 18.086906
514.500000 18.261237
514.500000 18.436403
514.500000 18.612406
514.500000 18.789245
514.500000 18.966920
514.500000 19.145432
514.500000 19.324779
514.500000 19.504962
514.500000 19.685982
514.500000 19.867838
514.500000 20.050529
514.500000 20.234057
514.500000 20.418421
514.500000 20.603622
514.500000 20.789658
514.500000 20.976530
514.500000 21.164239
514.500000 21.352783
514.500000 21.542164
514.500000 21.732381
514.500000 21.923434
514.500000 22.115323
514.500000 22.308048
514.500000 22.501610
514.500000 22.696007
514.500000 22.891241
514.500000 23.087310
514.500000 23.284216
514.500000 23.481958
514.500000 23.680536
514.500000 23.879950
514.500000 24.080200
514.500000 24.281287
514.500000 24.483209
514.500000 24.685968
514.500000 24.889563
514.500000 25.093994
514.500000 25.299261
514.500000 25.505364
514.500000 25.712303
514.500000 25.920078
514.500000 26.128690
514.500000 26.338137
514.500000 26.548421
514.500000 26.759541
514.500000 26.971497
514.500000 27.184289
514.500000 27.397917
514.500000 27.612381
514.500000 27.827682
514.500000 28.043818
514.500000 28.260791
514.500000 28.478600
514.500000 28.697244
514.500000 28.916725
514.500000 29.137043
514.500000 29.358196
514.500000 29.580185
514.500000 29.803011
514.500000 30.026672
514.500000 30.251170
514.500000 30.476504
514.500000 30.702674
514.500000 30.929680
514.500000 31.157522
514.500000 31.386200
514.500000 31.615715
514.500000 31.846065
514.500000 32.077252
514.500000 32.309275
514.500000 32.542133
514.500000 32.775828
514.500000 33.010360
514.500000 33.245727
514.500000 33.481930
514.500000 33.718970
514.500000 33.956845
514.500000 34.195557
514.500000 34.435105
514.500000 34.675489
514.500000 34.916709
514.500000 35.158765
514.500000 35.401657
514.500000 35.645386
514.500000 35.889950
514.500000 36.135351
514.500000 36.381588
514.500000 36.628660
514.500000 36.876569
514.500000 37.125315
514.500000 37.374896
514.500000 37.625313
514.500000 37.876567
514.500000 38.128656
514.500000 38.381582
514.500000 38.635344
514.500000 38.889942
514.500000 39.145376
514.500000 39.401646
514.500000 39.658752
514.500000 39.916695
514.500000 40.175473
514.500000 40.435088
514.500000 40.695539
514.500000 40.956826
514.500000 41.218949
514.500000 41.481908
514.500000 41.745703
514.500000 42.010334
514.500000 42.275802
514.500000 42.542106
514.500000 42.809245
514.500000 43.077221
514.500000 43.346033
514.500000 43.615681
514.500000 43.886165
514.500000 44.157486
514.500000 44.429642
514.500000 44.702635
514.500000 44.976463
514.500000 45.251128
514.500000 45.526629
514.500000 45.802966
514.500000 46.080139
514.500000 46.358148
514.500000 46.636994
514.500000 46.916675
514.500000 47.197193
514.500000 47.478547
514.500000 47.760736
514.500000 48.043762
514.500000 48.327625
514.500000 48.612323
514.500000 48.897857
514.500000 49.184227
514.500000 49.471434
514.500000 49.759477
514.500000 50.048355
514.500000 50.338070
514.500000 50.628621
514.500000 50.920009
514.500000 51.212232
514.500000 51.505291
514.500000 51.799187
514.500000 52.093918
514.500000 52.389486
514.500000 52.685890
514.500000 52.983130
514.500000 53.281206
514.500000 53.580118
514.500000 53.879867
514.500000 54.180451
514.500000 54.481872
514.500000 54.784128
514.500000 55.087221
514.500000 55.391150
514.500000 55.695915
514.500000 56.001516
514.500000 56.307953
514.500000 56.615227
514.500000 56.923336
514.500000 57.232282
514.500000 57.542064
514.500000 57.852682
514.500000 58.164136
514.500000 58.476426
514.500000 58.789552
514.500000 59.103514
514.500000 59.418313
514.500000 59.733947
514.500000 60.050418
514.500000 60.367725
514.500000 60.685868
514.500000 61.004847
514.500000 61.324662
514.500000 61.645313
514.500000 61.966801
514.500000 62.289124
514.500000 62.612284
514.500000 62.936279
514.500000 63.261111
514.500000 63.586779
514.500000 63.913283
514.500000 64.240624
514.500000 64.568800
514.500000 64.897812
514.500000 65.227661
514.500000 65.558346
514.500000 65.889867
514.500000 66.222223
514.500000 66.555417
514.500000 66.889446
514.500000 67.224311
514.500000 67.560012
514.500000 67.896550
514.500000 68.233924
514.500000 68.572133
514.500000 68.911179
514.500000 69.251061
514.500000 69.591779
514.500000 69.933334
514.500000 70.275724
514.500000 70.618950
514.500000 70.963013
514.500000 71.307912
514.500000 71.653646
514.500000 72.000217
514.500000 72.347624
514.500000 72.695868
514.500000 73.044947
514.500000 73.394862
514.500000 73.745614
514.500000 74.097202
514.500000 74.449625
514.500000 74.802885
514.500000 75.156981
514.500000 75.511913
514.500000 75.867682
514.500000 76.224286
514.500000 76.581726
514.500000 76.940003
514.500000 77.299116
514.500000 77.659064
514.500000 78.019849
514.500000 78.381471
514.500000 78.743928
514.500000 79.107221
514.500000 79.471350
514.500000 79.836316
514.500000 80.202118
514.500000 80.568755
514.500000 80.936229
514.500000 81.304539
514.500000 81.673685
514.500000 82.043668
514.500000 82.414486
514.500000 82.786141
514.500000 83.158631
514.500000 83.531958
514.500000 83.906121
514.500000 84.281120
514.500000 84.656955
514.500000 85.033626
514.500000 85.411133
514.500000 85.789477
514.500000 86.168656
514.500000 86.548672
514.500000 86.929524
514.500000 87.311212
514.500000 87.693736
514.500000 88.077096
514.500000 88.461292
514.500000 88.846324
514.500000 89.232193
514.500000 89.618897
514.500000 90.006438
514.500000 90.394815
514.500000 90.784028
514.500000 91.174077
514.500000 91.564962
514.500000 91.956684
514.500000 92.349241
514.500000 92.742634
514.500000 93.136864
514.500000 93.531930
514.500000 93.927832
514.500000 94.324570
514.500000 94.722144
514.500000 95.120554
514.500000 95.519801
514.500000 95.919883
514.500000 96.320802
514.500000 96.722557
514.500000 97.125147
514.500000 97.528574
514.500000 97.932837
514.500000 98.337937
514.500000 98.743872
514.500000 99.150643
514.500000 99.558251
514.500000 99.966695
514.500000 100.375974
514.500000 100.786090
514.500000 101.197042
514.500000 101.608831
514.500000 102.021455
514.500000 102.434915
514.500000 102.849212
514.500000 103.264344
514.500000 103.680313
514.500000 104.097118
514.500000 104.514759
514.500000 104.933236
514.500000 105.352549
514.500000 105.772699
514.500000 106.193684
514.500000 106.615506
514.500000 107.038163
514.500000 107.461657
514.500000 107.885987
514.500000 108.311153
514.500000 108.737155
514.500000 109.163993
514.500000 109.591668
514.500000 110.020178
514.500000 110.449525
514.500000 110.879708
514.500000 111.310727
514.500000 111.742582
514.500000 112.175273
514.500000 112.608800
514.500000 113.043163
514.500000 113.478363
514.500000 113.914398
514.500000 114.351270
514.500000 114.788978
514.500000 115.227522
514.500000 115.666902
514.500000 116.107118
514.500000 116.548170
514.500000 116.990059
514.500000 117.432783
514.500000 117.876344
514.500000 118.320740
514.500000 118.765973
514.500000 119.212042
514.500000 119.658947
514.500000 120.106689
514.500000 120.555266
514.500000 121.004679
514.500000 121.454929
514.500000 121.906015
514.500000 122.357937
514.500000 122.810695
514.500000 123.264289
514.500000 123.718719
514.500000 124.173985
514.500000 124.630087
514.500000 125.087026
514.500000 125.544801
514.500000 126.003411
514.500000 126.462858
514.500000 126.923141
514.500000 127.384260
514.500000 127.846216
514.500000 128.309007
514.500000 128.772634
514.500000 129.237098
514.500000 129.702398
514.500000 130.168534
514.500000 130.635505
514.500000 131.103314
514.500000 131.571958
514.500000 132.041438
514.500000 132.511754
514.500000 132.982907
514.500000 133.454896
514.500000 133.927720
514.500000 134.401381
514.500000 134.875878
514.500000 135.351211
514.500000 135.827381
514.500000 136.304386
514.500000 136.782227
514.500000 137.260905
514.500000 137.740419
514.500000 138.220769
514.500000 138.701955
514.500000 139.183977
514.500000 139.666835
514.500000 140.150529
514.500000 140.635060
514.500000 141.120426
514.500000 141.606629
514.500000 142.093668
514.500000 142.581542
514.500000 143.070253
514.500000 143.559801
514.500000 144.050184
514.500000 144.541403
514.500000 145.033459
514.500000 145.526350
514.500000 146.020078
514.500000 146.514642
514.500000 147.010042
514.500000 147.506278
514.500000 148.003350
514.500000 148.501258
514.500000 149.000003
514.500000 149.499583
514.500000 150.000000
</POINTS>
</NEKTAR>

