<?xml version="1.0" encoding="utf-8" ?>
<NEKTAR>
<POINTS DIM="2" FIELDS="">
214.500000 0.000000
214.500000 0.000418
214.500000 0.001672
214.500000 0.003763
214.500000 0.006689
214.500000 0.010451
214.500000 0.015050
214.500000 0.020485
214.500000 0.026756
214.500000 0.033863
214.500000 0.041806
214.500000 0.050585
214.500000 0.060201
214.500000 0.070652
214.500000 0.081940
214.500000 0.094063
214.500000 0.107023
214.500000 0.120819
214.500000 0.135451
214.500000 0.150919
214.500000 0.167224
214.500000 0.184364
214.500000 0.202341
214.500000 0.221153
214.500000 0.240802
214.500000 0.261287
214.500000 0.282608
214.500000 0.304765
214.500000 0.327758
214.500000 0.351588
214.500000 0.376253
214.500000 0.401755
214.500000 0.428092
214.500000 0.455266
214.500000 0.483276
214.500000 0.512122
214.500000 0.541805
214.500000 0.572323
214.500000 0.603677
214.500000 0.635868
214.500000 0.668894
214.500000 0.702757
214.500000 0.737456
214.500000 0.772991
214.500000 0.809362
214.500000 0.846570
214.500000 0.884613
214.500000 0.923492
214.500000 0.963208
214.500000 1.003760
214.500000 1.045148
214.500000 1.087372
214.500000 1.130432
214.500000 1.174328
214.500000 1.219060
214.500000 1.264629
214.500000 1.311033
214.500000 1.358274
214.500000 1.406351
214.500000 1.455264
214.500000 1.505013
214.500000 1.555598
214.500000 1.607019
214.500000 1.659276
214.500000 1.712370
214.500000 1.766299
214.500000 1.821065
214.500000 1.876667
214.500000 1.933105
214.500000 1.990379
214.500000 2.048489
214.500000 2.107436
214.500000 2.167218
214.500000 2.227837
214.500000 2.289291
214.500000 2.351582
214.500000 2.414709
214.500000 2.478672
214.500000 2.543471
214.500000 2.609106
214.500000 2.675578
214.500000 2.742885
214.500000 2.811029
214.500000 2.880009
214.500000 2.949825
214.500000 3.020477
214.500000 3.091965
214.500000 3.164289
214.500000 3.237449
214.500000 3.311446
214.500000 3.386278
214.500000 3.461947
214.500000 3.538452
214.500000 3.615793
214.500000 3.693970
214.500000 3.772983
214.500000 3.852832
214.500000 3.933517
214.500000 4.015039
214.500000 4.097397
214.500000 4.180590
214.500000 4.264620
214.500000 4.349486
214.500000 4.435188
214.500000 4.521727
214.500000 4.609101
214.500000 4.697311
214.500000 4.786358
214.500000 4.876241
214.500000 4.966959
214.500000 5.058514
214.500000 5.150905
214.500000 5.244133
214.500000 5.338196
214.500000 5.433095
214.500000 5.528831
214.500000 5.625402
214.500000 5.722810
214.500000 5.821054
214.500000 5.920134
214.500000 6.020050
214.500000 6.120802
214.500000 6.222391
214.500000 6.324815
214.500000 6.428076
214.500000 6.532172
214.500000 6.637105
214.500000 6.742874
214.500000 6.849479
214.500000 6.956920
214.500000 7.065198
214.500000 7.174311
214.500000 7.284261
214.500000 7.395046
214.500000 7.506668
214.500000 7.619126
214.500000 7.732420
214.500000 7.846550
214.500000 7.961516
214.500000 8.077319
214.500000 8.193957
214.500000 8.311432
214.500000 8.429742
214.500000 8.548889
214.500000 8.668872
214.500000 8.789691
214.500000 8.911346
214.500000 9.033838
214.500000 9.157165
214.500000 9.281329
214.500000 9.406328
214.500000 9.532164
214.500000 9.658836
214.500000 9.786344
214.500000 9.914688
214.500000 10.043868
214.500000 10.173885
214.500000 10.304737
214.500000 10.436426
214.500000 10.568950
214.500000 10.702311
214.500000 10.836508
214.500000 10.971541
214.500000 11.107411
214.500000 11.244116
214.500000 11.381657
214.500000 11.520035
214.500000 11.659248
214.500000 11.799298
214.500000 11.940184
214.500000 12.081906
214.500000 12.224464
214.500000 12.367859
214.500000 12.512089
214.500000 12.657155
214.500000 12.803058
214.500000 12.949797
214.500000 13.097372
214.500000 13.245782
214.500000 13.395030
214.500000 13.545113
214.500000 13.696032
214.500000 13.847787
214.500000 14.000379
214.500000 14.153807
214.500000 14.308070
214.500000 14.463170
214.500000 14.619106
214.500000 14.775879
214.500000 14.933487
214.500000 15.091931
214.500000 15.251212
214.500000 15.411328
214.500000 15.572281
214.500000 15.734070
214.500000 15.896695
214.500000 16.060156
214.500000 16.224453
214.500000 16.389586
214.500000 16.555556
214.500000 16.722361
214.500000 16.890003
214.500000 17.058481
214.500000 17.227795
214.500000 17.397945
214.500000 17.568931
214.500000 17.740753
214.500000 17.913412
214.500000 18.086906
214.500000 18.261237
214.500000 18.436403
214.500000 18.612406
214.500000 18.789245
214.500000 18.966920
214.500000 19.145432
214.500000 19.324779
214.500000 19.504962
214.500000 19.685982
214.500000 19.867838
214.500000 20.050529
214.500000 20.234057
214.500000 20.418421
214.500000 20.603622
214.500000 20.789658
214.500000 20.976530
214.500000 21.164239
214.500000 21.352783
214.500000 21.542164
214.500000 21.732381
214.500000 21.923434
214.500000 22.115323
214.500000 22.308048
214.500000 22.501610
214.500000 22.696007
214.500000 22.891241
214.500000 23.087310
214.500000 23.284216
214.500000 23.481958
214.500000 23.680536
214.500000 23.879950
214.500000 24.080200
214.500000 24.281287
214.500000 24.483209
214.500000 24.685968
214.500000 24.889563
214.500000 25.093994
214.500000 25.299261
214.500000 25.505364
214.500000 25.712303
214.500000 25.920078
214.500000 26.128690
214.500000 26.338137
214.500000 26.548421
214.500000 26.759541
214.500000 26.971497
214.500000 27.184289
214.500000 27.397917
214.500000 27.612381
214.500000 27.827682
214.500000 28.043818
214.500000 28.260791
214.500000 28.478600
214.500000 28.697244
214.500000 28.916725
214.500000 29.137043
214.500000 29.358196
214.500000 29.580185
214.500000 29.803011
214.500000 30.026672
214.500000 30.251170
214.500000 30.476504
214.500000 30.702674
214.500000 30.929680
214.500000 31.157522
214.500000 31.386200
214.500000 31.615715
214.500000 31.846065
214.500000 32.077252
214.500000 32.309275
214.500000 32.542133
214.500000 32.775828
214.500000 33.010360
214.500000 33.245727
214.500000 33.481930
214.500000 33.718970
214.500000 33.956845
214.500000 34.195557
214.500000 34.435105
214.500000 34.675489
214.500000 34.916709
214.500000 35.158765
214.500000 35.401657
214.500000 35.645386
214.500000 35.889950
214.500000 36.135351
214.500000 36.381588
214.500000 36.628660
214.500000 36.876569
214.500000 37.125315
214.500000 37.374896
214.500000 37.625313
214.500000 37.876567
214.500000 38.128656
214.500000 38.381582
214.500000 38.635344
214.500000 38.889942
214.500000 39.145376
214.500000 39.401646
214.500000 39.658752
214.500000 39.916695
214.500000 40.175473
214.500000 40.435088
214.500000 40.695539
214.500000 40.956826
214.500000 41.218949
214.500000 41.481908
214.500000 41.745703
214.500000 42.010334
214.500000 42.275802
214.500000 42.542106
214.500000 42.809245
214.500000 43.077221
214.500000 43.346033
214.500000 43.615681
214.500000 43.886165
214.500000 44.157486
214.500000 44.429642
214.500000 44.702635
214.500000 44.976463
214.500000 45.251128
214.500000 45.526629
214.500000 45.802966
214.500000 46.080139
214.500000 46.358148
214.500000 46.636994
214.500000 46.916675
214.500000 47.197193
214.500000 47.478547
214.500000 47.760736
214.500000 48.043762
214.500000 48.327625
214.500000 48.612323
214.500000 48.897857
214.500000 49.184227
214.500000 49.471434
214.500000 49.759477
214.500000 50.048355
214.500000 50.338070
214.500000 50.628621
214.500000 50.920009
214.500000 51.212232
214.500000 51.505291
214.500000 51.799187
214.500000 52.093918
214.500000 52.389486
214.500000 52.685890
214.500000 52.983130
214.500000 53.281206
214.500000 53.580118
214.500000 53.879867
214.500000 54.180451
214.500000 54.481872
214.500000 54.784128
214.500000 55.087221
214.500000 55.391150
214.500000 55.695915
214.500000 56.001516
214.500000 56.307953
214.500000 56.615227
214.500000 56.923336
214.500000 57.232282
214.500000 57.542064
214.500000 57.852682
214.500000 58.164136
214.500000 58.476426
214.500000 58.789552
214.500000 59.103514
214.500000 59.418313
214.500000 59.733947
214.500000 60.050418
214.500000 60.367725
214.500000 60.685868
214.500000 61.004847
214.500000 61.324662
214.500000 61.645313
214.500000 61.966801
214.500000 62.289124
214.500000 62.612284
214.500000 62.936279
214.500000 63.261111
214.500000 63.586779
214.500000 63.913283
214.500000 64.240624
214.500000 64.568800
214.500000 64.897812
214.500000 65.227661
214.500000 65.558346
214.500000 65.889867
214.500000 66.222223
214.500000 66.555417
214.500000 66.889446
214.500000 67.224311
214.500000 67.560012
214.500000 67.896550
214.500000 68.233924
214.500000 68.572133
214.500000 68.911179
214.500000 69.251061
214.500000 69.591779
214.500000 69.933334
214.500000 70.275724
214.500000 70.618950
214.500000 70.963013
214.500000 71.307912
214.500000 71.653646
214.500000 72.000217
214.500000 72.347624
214.500000 72.695868
214.500000 73.044947
214.500000 73.394862
214.500000 73.745614
214.500000 74.097202
214.500000 74.449625
214.500000 74.802885
214.500000 75.156981
214.500000 75.511913
214.500000 75.867682
214.500000 76.224286
214.500000 76.581726
214.500000 76.940003
214.500000 77.299116
214.500000 77.659064
214.500000 78.019849
214.500000 78.381471
214.500000 78.743928
214.500000 79.107221
214.500000 79.471350
214.500000 79.836316
214.500000 80.202118
214.500000 80.568755
214.500000 80.936229
214.500000 81.304539
214.500000 81.673685
214.500000 82.043668
214.500000 82.414486
214.500000 82.786141
214.500000 83.158631
214.500000 83.531958
214.500000 83.906121
214.500000 84.281120
214.500000 84.656955
214.500000 85.033626
214.500000 85.411133
214.500000 85.789477
214.500000 86.168656
214.500000 86.548672
214.500000 86.929524
214.500000 87.311212
214.500000 87.693736
214.500000 88.077096
214.500000 88.461292
214.500000 88.846324
214.500000 89.232193
214.500000 89.618897
214.500000 90.006438
214.500000 90.394815
214.500000 90.784028
214.500000 91.174077
214.500000 91.564962
214.500000 91.956684
214.500000 92.349241
214.500000 92.742634
214.500000 93.136864
214.500000 93.531930
214.500000 93.927832
214.500000 94.324570
214.500000 94.722144
214.500000 95.120554
214.500000 95.519801
214.500000 95.919883
214.500000 96.320802
214.500000 96.722557
214.500000 97.125147
214.500000 97.528574
214.500000 97.932837
214.500000 98.337937
214.500000 98.743872
214.500000 99.150643
214.500000 99.558251
214.500000 99.966695
214.500000 100.375974
214.500000 100.786090
214.500000 101.197042
214.500000 101.608831
214.500000 102.021455
214.500000 102.434915
214.500000 102.849212
214.500000 103.264344
214.500000 103.680313
214.500000 104.097118
214.500000 104.514759
214.500000 104.933236
214.500000 105.352549
214.500000 105.772699
214.500000 106.193684
214.500000 106.615506
214.500000 107.038163
214.500000 107.461657
214.500000 107.885987
214.500000 108.311153
214.500000 108.737155
214.500000 109.163993
214.500000 109.591668
214.500000 110.020178
214.500000 110.449525
214.500000 110.879708
214.500000 111.310727
214.500000 111.742582
214.500000 112.175273
214.500000 112.608800
214.500000 113.043163
214.500000 113.478363
214.500000 113.914398
214.500000 114.351270
214.500000 114.788978
214.500000 115.227522
214.500000 115.666902
214.500000 116.107118
214.500000 116.548170
214.500000 116.990059
214.500000 117.432783
214.500000 117.876344
214.500000 118.320740
214.500000 118.765973
214.500000 119.212042
214.500000 119.658947
214.500000 120.106689
214.500000 120.555266
214.500000 121.004679
214.500000 121.454929
214.500000 121.906015
214.500000 122.357937
214.500000 122.810695
214.500000 123.264289
214.500000 123.718719
214.500000 124.173985
214.500000 124.630087
214.500000 125.087026
214.500000 125.544801
214.500000 126.003411
214.500000 126.462858
214.500000 126.923141
214.500000 127.384260
214.500000 127.846216
214.500000 128.309007
214.500000 128.772634
214.500000 129.237098
214.500000 129.702398
214.500000 130.168534
214.500000 130.635505
214.500000 131.103314
214.500000 131.571958
214.500000 132.041438
214.500000 132.511754
214.500000 132.982907
214.500000 133.454896
214.500000 133.927720
214.500000 134.401381
214.500000 134.875878
214.500000 135.351211
214.500000 135.827381
214.500000 136.304386
214.500000 136.782227
214.500000 137.260905
214.500000 137.740419
214.500000 138.220769
214.500000 138.701955
214.500000 139.183977
214.500000 139.666835
214.500000 140.150529
214.500000 140.635060
214.500000 141.120426
214.500000 141.606629
214.500000 142.093668
214.500000 142.581542
214.500000 143.070253
214.500000 143.559801
214.500000 144.050184
214.500000 144.541403
214.500000 145.033459
214.500000 145.526350
214.500000 146.020078
214.500000 146.514642
214.500000 147.010042
214.500000 147.506278
214.500000 148.003350
214.500000 148.501258
214.500000 149.000003
214.500000 149.499583
214.500000 150.000000
</POINTS>
</NEKTAR>

