<?xml version="1.0" encoding="utf-8" ?>
<NEKTAR>
<POINTS DIM="2" FIELDS="">
234.500000 0.000000
234.500000 0.000418
234.500000 0.001672
234.500000 0.003763
234.500000 0.006689
234.500000 0.010451
234.500000 0.015050
234.500000 0.020485
234.500000 0.026756
234.500000 0.033863
234.500000 0.041806
234.500000 0.050585
234.500000 0.060201
234.500000 0.070652
234.500000 0.081940
234.500000 0.094063
234.500000 0.107023
234.500000 0.120819
234.500000 0.135451
234.500000 0.150919
234.500000 0.167224
234.500000 0.184364
234.500000 0.202341
234.500000 0.221153
234.500000 0.240802
234.500000 0.261287
234.500000 0.282608
234.500000 0.304765
234.500000 0.327758
234.500000 0.351588
234.500000 0.376253
234.500000 0.401755
234.500000 0.428092
234.500000 0.455266
234.500000 0.483276
234.500000 0.512122
234.500000 0.541805
234.500000 0.572323
234.500000 0.603677
234.500000 0.635868
234.500000 0.668894
234.500000 0.702757
234.500000 0.737456
234.500000 0.772991
234.500000 0.809362
234.500000 0.846570
234.500000 0.884613
234.500000 0.923492
234.500000 0.963208
234.500000 1.003760
234.500000 1.045148
234.500000 1.087372
234.500000 1.130432
234.500000 1.174328
234.500000 1.219060
234.500000 1.264629
234.500000 1.311033
234.500000 1.358274
234.500000 1.406351
234.500000 1.455264
234.500000 1.505013
234.500000 1.555598
234.500000 1.607019
234.500000 1.659276
234.500000 1.712370
234.500000 1.766299
234.500000 1.821065
234.500000 1.876667
234.500000 1.933105
234.500000 1.990379
234.500000 2.048489
234.500000 2.107436
234.500000 2.167218
234.500000 2.227837
234.500000 2.289291
234.500000 2.351582
234.500000 2.414709
234.500000 2.478672
234.500000 2.543471
234.500000 2.609106
234.500000 2.675578
234.500000 2.742885
234.500000 2.811029
234.500000 2.880009
234.500000 2.949825
234.500000 3.020477
234.500000 3.091965
234.500000 3.164289
234.500000 3.237449
234.500000 3.311446
234.500000 3.386278
234.500000 3.461947
234.500000 3.538452
234.500000 3.615793
234.500000 3.693970
234.500000 3.772983
234.500000 3.852832
234.500000 3.933517
234.500000 4.015039
234.500000 4.097397
234.500000 4.180590
234.500000 4.264620
234.500000 4.349486
234.500000 4.435188
234.500000 4.521727
234.500000 4.609101
234.500000 4.697311
234.500000 4.786358
234.500000 4.876241
234.500000 4.966959
234.500000 5.058514
234.500000 5.150905
234.500000 5.244133
234.500000 5.338196
234.500000 5.433095
234.500000 5.528831
234.500000 5.625402
234.500000 5.722810
234.500000 5.821054
234.500000 5.920134
234.500000 6.020050
234.500000 6.120802
234.500000 6.222391
234.500000 6.324815
234.500000 6.428076
234.500000 6.532172
234.500000 6.637105
234.500000 6.742874
234.500000 6.849479
234.500000 6.956920
234.500000 7.065198
234.500000 7.174311
234.500000 7.284261
234.500000 7.395046
234.500000 7.506668
234.500000 7.619126
234.500000 7.732420
234.500000 7.846550
234.500000 7.961516
234.500000 8.077319
234.500000 8.193957
234.500000 8.311432
234.500000 8.429742
234.500000 8.548889
234.500000 8.668872
234.500000 8.789691
234.500000 8.911346
234.500000 9.033838
234.500000 9.157165
234.500000 9.281329
234.500000 9.406328
234.500000 9.532164
234.500000 9.658836
234.500000 9.786344
234.500000 9.914688
234.500000 10.043868
234.500000 10.173885
234.500000 10.304737
234.500000 10.436426
234.500000 10.568950
234.500000 10.702311
234.500000 10.836508
234.500000 10.971541
234.500000 11.107411
234.500000 11.244116
234.500000 11.381657
234.500000 11.520035
234.500000 11.659248
234.500000 11.799298
234.500000 11.940184
234.500000 12.081906
234.500000 12.224464
234.500000 12.367859
234.500000 12.512089
234.500000 12.657155
234.500000 12.803058
234.500000 12.949797
234.500000 13.097372
234.500000 13.245782
234.500000 13.395030
234.500000 13.545113
234.500000 13.696032
234.500000 13.847787
234.500000 14.000379
234.500000 14.153807
234.500000 14.308070
234.500000 14.463170
234.500000 14.619106
234.500000 14.775879
234.500000 14.933487
234.500000 15.091931
234.500000 15.251212
234.500000 15.411328
234.500000 15.572281
234.500000 15.734070
234.500000 15.896695
234.500000 16.060156
234.500000 16.224453
234.500000 16.389586
234.500000 16.555556
234.500000 16.722361
234.500000 16.890003
234.500000 17.058481
234.500000 17.227795
234.500000 17.397945
234.500000 17.568931
234.500000 17.740753
234.500000 17.913412
234.500000 18.086906
234.500000 18.261237
234.500000 18.436403
234.500000 18.612406
234.500000 18.789245
234.500000 18.966920
234.500000 19.145432
234.500000 19.324779
234.500000 19.504962
234.500000 19.685982
234.500000 19.867838
234.500000 20.050529
234.500000 20.234057
234.500000 20.418421
234.500000 20.603622
234.500000 20.789658
234.500000 20.976530
234.500000 21.164239
234.500000 21.352783
234.500000 21.542164
234.500000 21.732381
234.500000 21.923434
234.500000 22.115323
234.500000 22.308048
234.500000 22.501610
234.500000 22.696007
234.500000 22.891241
234.500000 23.087310
234.500000 23.284216
234.500000 23.481958
234.500000 23.680536
234.500000 23.879950
234.500000 24.080200
234.500000 24.281287
234.500000 24.483209
234.500000 24.685968
234.500000 24.889563
234.500000 25.093994
234.500000 25.299261
234.500000 25.505364
234.500000 25.712303
234.500000 25.920078
234.500000 26.128690
234.500000 26.338137
234.500000 26.548421
234.500000 26.759541
234.500000 26.971497
234.500000 27.184289
234.500000 27.397917
234.500000 27.612381
234.500000 27.827682
234.500000 28.043818
234.500000 28.260791
234.500000 28.478600
234.500000 28.697244
234.500000 28.916725
234.500000 29.137043
234.500000 29.358196
234.500000 29.580185
234.500000 29.803011
234.500000 30.026672
234.500000 30.251170
234.500000 30.476504
234.500000 30.702674
234.500000 30.929680
234.500000 31.157522
234.500000 31.386200
234.500000 31.615715
234.500000 31.846065
234.500000 32.077252
234.500000 32.309275
234.500000 32.542133
234.500000 32.775828
234.500000 33.010360
234.500000 33.245727
234.500000 33.481930
234.500000 33.718970
234.500000 33.956845
234.500000 34.195557
234.500000 34.435105
234.500000 34.675489
234.500000 34.916709
234.500000 35.158765
234.500000 35.401657
234.500000 35.645386
234.500000 35.889950
234.500000 36.135351
234.500000 36.381588
234.500000 36.628660
234.500000 36.876569
234.500000 37.125315
234.500000 37.374896
234.500000 37.625313
234.500000 37.876567
234.500000 38.128656
234.500000 38.381582
234.500000 38.635344
234.500000 38.889942
234.500000 39.145376
234.500000 39.401646
234.500000 39.658752
234.500000 39.916695
234.500000 40.175473
234.500000 40.435088
234.500000 40.695539
234.500000 40.956826
234.500000 41.218949
234.500000 41.481908
234.500000 41.745703
234.500000 42.010334
234.500000 42.275802
234.500000 42.542106
234.500000 42.809245
234.500000 43.077221
234.500000 43.346033
234.500000 43.615681
234.500000 43.886165
234.500000 44.157486
234.500000 44.429642
234.500000 44.702635
234.500000 44.976463
234.500000 45.251128
234.500000 45.526629
234.500000 45.802966
234.500000 46.080139
234.500000 46.358148
234.500000 46.636994
234.500000 46.916675
234.500000 47.197193
234.500000 47.478547
234.500000 47.760736
234.500000 48.043762
234.500000 48.327625
234.500000 48.612323
234.500000 48.897857
234.500000 49.184227
234.500000 49.471434
234.500000 49.759477
234.500000 50.048355
234.500000 50.338070
234.500000 50.628621
234.500000 50.920009
234.500000 51.212232
234.500000 51.505291
234.500000 51.799187
234.500000 52.093918
234.500000 52.389486
234.500000 52.685890
234.500000 52.983130
234.500000 53.281206
234.500000 53.580118
234.500000 53.879867
234.500000 54.180451
234.500000 54.481872
234.500000 54.784128
234.500000 55.087221
234.500000 55.391150
234.500000 55.695915
234.500000 56.001516
234.500000 56.307953
234.500000 56.615227
234.500000 56.923336
234.500000 57.232282
234.500000 57.542064
234.500000 57.852682
234.500000 58.164136
234.500000 58.476426
234.500000 58.789552
234.500000 59.103514
234.500000 59.418313
234.500000 59.733947
234.500000 60.050418
234.500000 60.367725
234.500000 60.685868
234.500000 61.004847
234.500000 61.324662
234.500000 61.645313
234.500000 61.966801
234.500000 62.289124
234.500000 62.612284
234.500000 62.936279
234.500000 63.261111
234.500000 63.586779
234.500000 63.913283
234.500000 64.240624
234.500000 64.568800
234.500000 64.897812
234.500000 65.227661
234.500000 65.558346
234.500000 65.889867
234.500000 66.222223
234.500000 66.555417
234.500000 66.889446
234.500000 67.224311
234.500000 67.560012
234.500000 67.896550
234.500000 68.233924
234.500000 68.572133
234.500000 68.911179
234.500000 69.251061
234.500000 69.591779
234.500000 69.933334
234.500000 70.275724
234.500000 70.618950
234.500000 70.963013
234.500000 71.307912
234.500000 71.653646
234.500000 72.000217
234.500000 72.347624
234.500000 72.695868
234.500000 73.044947
234.500000 73.394862
234.500000 73.745614
234.500000 74.097202
234.500000 74.449625
234.500000 74.802885
234.500000 75.156981
234.500000 75.511913
234.500000 75.867682
234.500000 76.224286
234.500000 76.581726
234.500000 76.940003
234.500000 77.299116
234.500000 77.659064
234.500000 78.019849
234.500000 78.381471
234.500000 78.743928
234.500000 79.107221
234.500000 79.471350
234.500000 79.836316
234.500000 80.202118
234.500000 80.568755
234.500000 80.936229
234.500000 81.304539
234.500000 81.673685
234.500000 82.043668
234.500000 82.414486
234.500000 82.786141
234.500000 83.158631
234.500000 83.531958
234.500000 83.906121
234.500000 84.281120
234.500000 84.656955
234.500000 85.033626
234.500000 85.411133
234.500000 85.789477
234.500000 86.168656
234.500000 86.548672
234.500000 86.929524
234.500000 87.311212
234.500000 87.693736
234.500000 88.077096
234.500000 88.461292
234.500000 88.846324
234.500000 89.232193
234.500000 89.618897
234.500000 90.006438
234.500000 90.394815
234.500000 90.784028
234.500000 91.174077
234.500000 91.564962
234.500000 91.956684
234.500000 92.349241
234.500000 92.742634
234.500000 93.136864
234.500000 93.531930
234.500000 93.927832
234.500000 94.324570
234.500000 94.722144
234.500000 95.120554
234.500000 95.519801
234.500000 95.919883
234.500000 96.320802
234.500000 96.722557
234.500000 97.125147
234.500000 97.528574
234.500000 97.932837
234.500000 98.337937
234.500000 98.743872
234.500000 99.150643
234.500000 99.558251
234.500000 99.966695
234.500000 100.375974
234.500000 100.786090
234.500000 101.197042
234.500000 101.608831
234.500000 102.021455
234.500000 102.434915
234.500000 102.849212
234.500000 103.264344
234.500000 103.680313
234.500000 104.097118
234.500000 104.514759
234.500000 104.933236
234.500000 105.352549
234.500000 105.772699
234.500000 106.193684
234.500000 106.615506
234.500000 107.038163
234.500000 107.461657
234.500000 107.885987
234.500000 108.311153
234.500000 108.737155
234.500000 109.163993
234.500000 109.591668
234.500000 110.020178
234.500000 110.449525
234.500000 110.879708
234.500000 111.310727
234.500000 111.742582
234.500000 112.175273
234.500000 112.608800
234.500000 113.043163
234.500000 113.478363
234.500000 113.914398
234.500000 114.351270
234.500000 114.788978
234.500000 115.227522
234.500000 115.666902
234.500000 116.107118
234.500000 116.548170
234.500000 116.990059
234.500000 117.432783
234.500000 117.876344
234.500000 118.320740
234.500000 118.765973
234.500000 119.212042
234.500000 119.658947
234.500000 120.106689
234.500000 120.555266
234.500000 121.004679
234.500000 121.454929
234.500000 121.906015
234.500000 122.357937
234.500000 122.810695
234.500000 123.264289
234.500000 123.718719
234.500000 124.173985
234.500000 124.630087
234.500000 125.087026
234.500000 125.544801
234.500000 126.003411
234.500000 126.462858
234.500000 126.923141
234.500000 127.384260
234.500000 127.846216
234.500000 128.309007
234.500000 128.772634
234.500000 129.237098
234.500000 129.702398
234.500000 130.168534
234.500000 130.635505
234.500000 131.103314
234.500000 131.571958
234.500000 132.041438
234.500000 132.511754
234.500000 132.982907
234.500000 133.454896
234.500000 133.927720
234.500000 134.401381
234.500000 134.875878
234.500000 135.351211
234.500000 135.827381
234.500000 136.304386
234.500000 136.782227
234.500000 137.260905
234.500000 137.740419
234.500000 138.220769
234.500000 138.701955
234.500000 139.183977
234.500000 139.666835
234.500000 140.150529
234.500000 140.635060
234.500000 141.120426
234.500000 141.606629
234.500000 142.093668
234.500000 142.581542
234.500000 143.070253
234.500000 143.559801
234.500000 144.050184
234.500000 144.541403
234.500000 145.033459
234.500000 145.526350
234.500000 146.020078
234.500000 146.514642
234.500000 147.010042
234.500000 147.506278
234.500000 148.003350
234.500000 148.501258
234.500000 149.000003
234.500000 149.499583
234.500000 150.000000
</POINTS>
</NEKTAR>

