<?xml version="1.0" encoding="utf-8" ?>
<NEKTAR>
<POINTS DIM="2" FIELDS="">
134.500000 0.000000
134.500000 0.000418
134.500000 0.001672
134.500000 0.003763
134.500000 0.006689
134.500000 0.010451
134.500000 0.015050
134.500000 0.020485
134.500000 0.026756
134.500000 0.033863
134.500000 0.041806
134.500000 0.050585
134.500000 0.060201
134.500000 0.070652
134.500000 0.081940
134.500000 0.094063
134.500000 0.107023
134.500000 0.120819
134.500000 0.135451
134.500000 0.150919
134.500000 0.167224
134.500000 0.184364
134.500000 0.202341
134.500000 0.221153
134.500000 0.240802
134.500000 0.261287
134.500000 0.282608
134.500000 0.304765
134.500000 0.327758
134.500000 0.351588
134.500000 0.376253
134.500000 0.401755
134.500000 0.428092
134.500000 0.455266
134.500000 0.483276
134.500000 0.512122
134.500000 0.541805
134.500000 0.572323
134.500000 0.603677
134.500000 0.635868
134.500000 0.668894
134.500000 0.702757
134.500000 0.737456
134.500000 0.772991
134.500000 0.809362
134.500000 0.846570
134.500000 0.884613
134.500000 0.923492
134.500000 0.963208
134.500000 1.003760
134.500000 1.045148
134.500000 1.087372
134.500000 1.130432
134.500000 1.174328
134.500000 1.219060
134.500000 1.264629
134.500000 1.311033
134.500000 1.358274
134.500000 1.406351
134.500000 1.455264
134.500000 1.505013
134.500000 1.555598
134.500000 1.607019
134.500000 1.659276
134.500000 1.712370
134.500000 1.766299
134.500000 1.821065
134.500000 1.876667
134.500000 1.933105
134.500000 1.990379
134.500000 2.048489
134.500000 2.107436
134.500000 2.167218
134.500000 2.227837
134.500000 2.289291
134.500000 2.351582
134.500000 2.414709
134.500000 2.478672
134.500000 2.543471
134.500000 2.609106
134.500000 2.675578
134.500000 2.742885
134.500000 2.811029
134.500000 2.880009
134.500000 2.949825
134.500000 3.020477
134.500000 3.091965
134.500000 3.164289
134.500000 3.237449
134.500000 3.311446
134.500000 3.386278
134.500000 3.461947
134.500000 3.538452
134.500000 3.615793
134.500000 3.693970
134.500000 3.772983
134.500000 3.852832
134.500000 3.933517
134.500000 4.015039
134.500000 4.097397
134.500000 4.180590
134.500000 4.264620
134.500000 4.349486
134.500000 4.435188
134.500000 4.521727
134.500000 4.609101
134.500000 4.697311
134.500000 4.786358
134.500000 4.876241
134.500000 4.966959
134.500000 5.058514
134.500000 5.150905
134.500000 5.244133
134.500000 5.338196
134.500000 5.433095
134.500000 5.528831
134.500000 5.625402
134.500000 5.722810
134.500000 5.821054
134.500000 5.920134
134.500000 6.020050
134.500000 6.120802
134.500000 6.222391
134.500000 6.324815
134.500000 6.428076
134.500000 6.532172
134.500000 6.637105
134.500000 6.742874
134.500000 6.849479
134.500000 6.956920
134.500000 7.065198
134.500000 7.174311
134.500000 7.284261
134.500000 7.395046
134.500000 7.506668
134.500000 7.619126
134.500000 7.732420
134.500000 7.846550
134.500000 7.961516
134.500000 8.077319
134.500000 8.193957
134.500000 8.311432
134.500000 8.429742
134.500000 8.548889
134.500000 8.668872
134.500000 8.789691
134.500000 8.911346
134.500000 9.033838
134.500000 9.157165
134.500000 9.281329
134.500000 9.406328
134.500000 9.532164
134.500000 9.658836
134.500000 9.786344
134.500000 9.914688
134.500000 10.043868
134.500000 10.173885
134.500000 10.304737
134.500000 10.436426
134.500000 10.568950
134.500000 10.702311
134.500000 10.836508
134.500000 10.971541
134.500000 11.107411
134.500000 11.244116
134.500000 11.381657
134.500000 11.520035
134.500000 11.659248
134.500000 11.799298
134.500000 11.940184
134.500000 12.081906
134.500000 12.224464
134.500000 12.367859
134.500000 12.512089
134.500000 12.657155
134.500000 12.803058
134.500000 12.949797
134.500000 13.097372
134.500000 13.245782
134.500000 13.395030
134.500000 13.545113
134.500000 13.696032
134.500000 13.847787
134.500000 14.000379
134.500000 14.153807
134.500000 14.308070
134.500000 14.463170
134.500000 14.619106
134.500000 14.775879
134.500000 14.933487
134.500000 15.091931
134.500000 15.251212
134.500000 15.411328
134.500000 15.572281
134.500000 15.734070
134.500000 15.896695
134.500000 16.060156
134.500000 16.224453
134.500000 16.389586
134.500000 16.555556
134.500000 16.722361
134.500000 16.890003
134.500000 17.058481
134.500000 17.227795
134.500000 17.397945
134.500000 17.568931
134.500000 17.740753
134.500000 17.913412
134.500000 18.086906
134.500000 18.261237
134.500000 18.436403
134.500000 18.612406
134.500000 18.789245
134.500000 18.966920
134.500000 19.145432
134.500000 19.324779
134.500000 19.504962
134.500000 19.685982
134.500000 19.867838
134.500000 20.050529
134.500000 20.234057
134.500000 20.418421
134.500000 20.603622
134.500000 20.789658
134.500000 20.976530
134.500000 21.164239
134.500000 21.352783
134.500000 21.542164
134.500000 21.732381
134.500000 21.923434
134.500000 22.115323
134.500000 22.308048
134.500000 22.501610
134.500000 22.696007
134.500000 22.891241
134.500000 23.087310
134.500000 23.284216
134.500000 23.481958
134.500000 23.680536
134.500000 23.879950
134.500000 24.080200
134.500000 24.281287
134.500000 24.483209
134.500000 24.685968
134.500000 24.889563
134.500000 25.093994
134.500000 25.299261
134.500000 25.505364
134.500000 25.712303
134.500000 25.920078
134.500000 26.128690
134.500000 26.338137
134.500000 26.548421
134.500000 26.759541
134.500000 26.971497
134.500000 27.184289
134.500000 27.397917
134.500000 27.612381
134.500000 27.827682
134.500000 28.043818
134.500000 28.260791
134.500000 28.478600
134.500000 28.697244
134.500000 28.916725
134.500000 29.137043
134.500000 29.358196
134.500000 29.580185
134.500000 29.803011
134.500000 30.026672
134.500000 30.251170
134.500000 30.476504
134.500000 30.702674
134.500000 30.929680
134.500000 31.157522
134.500000 31.386200
134.500000 31.615715
134.500000 31.846065
134.500000 32.077252
134.500000 32.309275
134.500000 32.542133
134.500000 32.775828
134.500000 33.010360
134.500000 33.245727
134.500000 33.481930
134.500000 33.718970
134.500000 33.956845
134.500000 34.195557
134.500000 34.435105
134.500000 34.675489
134.500000 34.916709
134.500000 35.158765
134.500000 35.401657
134.500000 35.645386
134.500000 35.889950
134.500000 36.135351
134.500000 36.381588
134.500000 36.628660
134.500000 36.876569
134.500000 37.125315
134.500000 37.374896
134.500000 37.625313
134.500000 37.876567
134.500000 38.128656
134.500000 38.381582
134.500000 38.635344
134.500000 38.889942
134.500000 39.145376
134.500000 39.401646
134.500000 39.658752
134.500000 39.916695
134.500000 40.175473
134.500000 40.435088
134.500000 40.695539
134.500000 40.956826
134.500000 41.218949
134.500000 41.481908
134.500000 41.745703
134.500000 42.010334
134.500000 42.275802
134.500000 42.542106
134.500000 42.809245
134.500000 43.077221
134.500000 43.346033
134.500000 43.615681
134.500000 43.886165
134.500000 44.157486
134.500000 44.429642
134.500000 44.702635
134.500000 44.976463
134.500000 45.251128
134.500000 45.526629
134.500000 45.802966
134.500000 46.080139
134.500000 46.358148
134.500000 46.636994
134.500000 46.916675
134.500000 47.197193
134.500000 47.478547
134.500000 47.760736
134.500000 48.043762
134.500000 48.327625
134.500000 48.612323
134.500000 48.897857
134.500000 49.184227
134.500000 49.471434
134.500000 49.759477
134.500000 50.048355
134.500000 50.338070
134.500000 50.628621
134.500000 50.920009
134.500000 51.212232
134.500000 51.505291
134.500000 51.799187
134.500000 52.093918
134.500000 52.389486
134.500000 52.685890
134.500000 52.983130
134.500000 53.281206
134.500000 53.580118
134.500000 53.879867
134.500000 54.180451
134.500000 54.481872
134.500000 54.784128
134.500000 55.087221
134.500000 55.391150
134.500000 55.695915
134.500000 56.001516
134.500000 56.307953
134.500000 56.615227
134.500000 56.923336
134.500000 57.232282
134.500000 57.542064
134.500000 57.852682
134.500000 58.164136
134.500000 58.476426
134.500000 58.789552
134.500000 59.103514
134.500000 59.418313
134.500000 59.733947
134.500000 60.050418
134.500000 60.367725
134.500000 60.685868
134.500000 61.004847
134.500000 61.324662
134.500000 61.645313
134.500000 61.966801
134.500000 62.289124
134.500000 62.612284
134.500000 62.936279
134.500000 63.261111
134.500000 63.586779
134.500000 63.913283
134.500000 64.240624
134.500000 64.568800
134.500000 64.897812
134.500000 65.227661
134.500000 65.558346
134.500000 65.889867
134.500000 66.222223
134.500000 66.555417
134.500000 66.889446
134.500000 67.224311
134.500000 67.560012
134.500000 67.896550
134.500000 68.233924
134.500000 68.572133
134.500000 68.911179
134.500000 69.251061
134.500000 69.591779
134.500000 69.933334
134.500000 70.275724
134.500000 70.618950
134.500000 70.963013
134.500000 71.307912
134.500000 71.653646
134.500000 72.000217
134.500000 72.347624
134.500000 72.695868
134.500000 73.044947
134.500000 73.394862
134.500000 73.745614
134.500000 74.097202
134.500000 74.449625
134.500000 74.802885
134.500000 75.156981
134.500000 75.511913
134.500000 75.867682
134.500000 76.224286
134.500000 76.581726
134.500000 76.940003
134.500000 77.299116
134.500000 77.659064
134.500000 78.019849
134.500000 78.381471
134.500000 78.743928
134.500000 79.107221
134.500000 79.471350
134.500000 79.836316
134.500000 80.202118
134.500000 80.568755
134.500000 80.936229
134.500000 81.304539
134.500000 81.673685
134.500000 82.043668
134.500000 82.414486
134.500000 82.786141
134.500000 83.158631
134.500000 83.531958
134.500000 83.906121
134.500000 84.281120
134.500000 84.656955
134.500000 85.033626
134.500000 85.411133
134.500000 85.789477
134.500000 86.168656
134.500000 86.548672
134.500000 86.929524
134.500000 87.311212
134.500000 87.693736
134.500000 88.077096
134.500000 88.461292
134.500000 88.846324
134.500000 89.232193
134.500000 89.618897
134.500000 90.006438
134.500000 90.394815
134.500000 90.784028
134.500000 91.174077
134.500000 91.564962
134.500000 91.956684
134.500000 92.349241
134.500000 92.742634
134.500000 93.136864
134.500000 93.531930
134.500000 93.927832
134.500000 94.324570
134.500000 94.722144
134.500000 95.120554
134.500000 95.519801
134.500000 95.919883
134.500000 96.320802
134.500000 96.722557
134.500000 97.125147
134.500000 97.528574
134.500000 97.932837
134.500000 98.337937
134.500000 98.743872
134.500000 99.150643
134.500000 99.558251
134.500000 99.966695
134.500000 100.375974
134.500000 100.786090
134.500000 101.197042
134.500000 101.608831
134.500000 102.021455
134.500000 102.434915
134.500000 102.849212
134.500000 103.264344
134.500000 103.680313
134.500000 104.097118
134.500000 104.514759
134.500000 104.933236
134.500000 105.352549
134.500000 105.772699
134.500000 106.193684
134.500000 106.615506
134.500000 107.038163
134.500000 107.461657
134.500000 107.885987
134.500000 108.311153
134.500000 108.737155
134.500000 109.163993
134.500000 109.591668
134.500000 110.020178
134.500000 110.449525
134.500000 110.879708
134.500000 111.310727
134.500000 111.742582
134.500000 112.175273
134.500000 112.608800
134.500000 113.043163
134.500000 113.478363
134.500000 113.914398
134.500000 114.351270
134.500000 114.788978
134.500000 115.227522
134.500000 115.666902
134.500000 116.107118
134.500000 116.548170
134.500000 116.990059
134.500000 117.432783
134.500000 117.876344
134.500000 118.320740
134.500000 118.765973
134.500000 119.212042
134.500000 119.658947
134.500000 120.106689
134.500000 120.555266
134.500000 121.004679
134.500000 121.454929
134.500000 121.906015
134.500000 122.357937
134.500000 122.810695
134.500000 123.264289
134.500000 123.718719
134.500000 124.173985
134.500000 124.630087
134.500000 125.087026
134.500000 125.544801
134.500000 126.003411
134.500000 126.462858
134.500000 126.923141
134.500000 127.384260
134.500000 127.846216
134.500000 128.309007
134.500000 128.772634
134.500000 129.237098
134.500000 129.702398
134.500000 130.168534
134.500000 130.635505
134.500000 131.103314
134.500000 131.571958
134.500000 132.041438
134.500000 132.511754
134.500000 132.982907
134.500000 133.454896
134.500000 133.927720
134.500000 134.401381
134.500000 134.875878
134.500000 135.351211
134.500000 135.827381
134.500000 136.304386
134.500000 136.782227
134.500000 137.260905
134.500000 137.740419
134.500000 138.220769
134.500000 138.701955
134.500000 139.183977
134.500000 139.666835
134.500000 140.150529
134.500000 140.635060
134.500000 141.120426
134.500000 141.606629
134.500000 142.093668
134.500000 142.581542
134.500000 143.070253
134.500000 143.559801
134.500000 144.050184
134.500000 144.541403
134.500000 145.033459
134.500000 145.526350
134.500000 146.020078
134.500000 146.514642
134.500000 147.010042
134.500000 147.506278
134.500000 148.003350
134.500000 148.501258
134.500000 149.000003
134.500000 149.499583
134.500000 150.000000
</POINTS>
</NEKTAR>

