<?xml version="1.0" encoding="utf-8" ?>
<NEKTAR>
<POINTS DIM="2" FIELDS="">
654.500000 0.000000
654.500000 0.000418
654.500000 0.001672
654.500000 0.003763
654.500000 0.006689
654.500000 0.010451
654.500000 0.015050
654.500000 0.020485
654.500000 0.026756
654.500000 0.033863
654.500000 0.041806
654.500000 0.050585
654.500000 0.060201
654.500000 0.070652
654.500000 0.081940
654.500000 0.094063
654.500000 0.107023
654.500000 0.120819
654.500000 0.135451
654.500000 0.150919
654.500000 0.167224
654.500000 0.184364
654.500000 0.202341
654.500000 0.221153
654.500000 0.240802
654.500000 0.261287
654.500000 0.282608
654.500000 0.304765
654.500000 0.327758
654.500000 0.351588
654.500000 0.376253
654.500000 0.401755
654.500000 0.428092
654.500000 0.455266
654.500000 0.483276
654.500000 0.512122
654.500000 0.541805
654.500000 0.572323
654.500000 0.603677
654.500000 0.635868
654.500000 0.668894
654.500000 0.702757
654.500000 0.737456
654.500000 0.772991
654.500000 0.809362
654.500000 0.846570
654.500000 0.884613
654.500000 0.923492
654.500000 0.963208
654.500000 1.003760
654.500000 1.045148
654.500000 1.087372
654.500000 1.130432
654.500000 1.174328
654.500000 1.219060
654.500000 1.264629
654.500000 1.311033
654.500000 1.358274
654.500000 1.406351
654.500000 1.455264
654.500000 1.505013
654.500000 1.555598
654.500000 1.607019
654.500000 1.659276
654.500000 1.712370
654.500000 1.766299
654.500000 1.821065
654.500000 1.876667
654.500000 1.933105
654.500000 1.990379
654.500000 2.048489
654.500000 2.107436
654.500000 2.167218
654.500000 2.227837
654.500000 2.289291
654.500000 2.351582
654.500000 2.414709
654.500000 2.478672
654.500000 2.543471
654.500000 2.609106
654.500000 2.675578
654.500000 2.742885
654.500000 2.811029
654.500000 2.880009
654.500000 2.949825
654.500000 3.020477
654.500000 3.091965
654.500000 3.164289
654.500000 3.237449
654.500000 3.311446
654.500000 3.386278
654.500000 3.461947
654.500000 3.538452
654.500000 3.615793
654.500000 3.693970
654.500000 3.772983
654.500000 3.852832
654.500000 3.933517
654.500000 4.015039
654.500000 4.097397
654.500000 4.180590
654.500000 4.264620
654.500000 4.349486
654.500000 4.435188
654.500000 4.521727
654.500000 4.609101
654.500000 4.697311
654.500000 4.786358
654.500000 4.876241
654.500000 4.966959
654.500000 5.058514
654.500000 5.150905
654.500000 5.244133
654.500000 5.338196
654.500000 5.433095
654.500000 5.528831
654.500000 5.625402
654.500000 5.722810
654.500000 5.821054
654.500000 5.920134
654.500000 6.020050
654.500000 6.120802
654.500000 6.222391
654.500000 6.324815
654.500000 6.428076
654.500000 6.532172
654.500000 6.637105
654.500000 6.742874
654.500000 6.849479
654.500000 6.956920
654.500000 7.065198
654.500000 7.174311
654.500000 7.284261
654.500000 7.395046
654.500000 7.506668
654.500000 7.619126
654.500000 7.732420
654.500000 7.846550
654.500000 7.961516
654.500000 8.077319
654.500000 8.193957
654.500000 8.311432
654.500000 8.429742
654.500000 8.548889
654.500000 8.668872
654.500000 8.789691
654.500000 8.911346
654.500000 9.033838
654.500000 9.157165
654.500000 9.281329
654.500000 9.406328
654.500000 9.532164
654.500000 9.658836
654.500000 9.786344
654.500000 9.914688
654.500000 10.043868
654.500000 10.173885
654.500000 10.304737
654.500000 10.436426
654.500000 10.568950
654.500000 10.702311
654.500000 10.836508
654.500000 10.971541
654.500000 11.107411
654.500000 11.244116
654.500000 11.381657
654.500000 11.520035
654.500000 11.659248
654.500000 11.799298
654.500000 11.940184
654.500000 12.081906
654.500000 12.224464
654.500000 12.367859
654.500000 12.512089
654.500000 12.657155
654.500000 12.803058
654.500000 12.949797
654.500000 13.097372
654.500000 13.245782
654.500000 13.395030
654.500000 13.545113
654.500000 13.696032
654.500000 13.847787
654.500000 14.000379
654.500000 14.153807
654.500000 14.308070
654.500000 14.463170
654.500000 14.619106
654.500000 14.775879
654.500000 14.933487
654.500000 15.091931
654.500000 15.251212
654.500000 15.411328
654.500000 15.572281
654.500000 15.734070
654.500000 15.896695
654.500000 16.060156
654.500000 16.224453
654.500000 16.389586
654.500000 16.555556
654.500000 16.722361
654.500000 16.890003
654.500000 17.058481
654.500000 17.227795
654.500000 17.397945
654.500000 17.568931
654.500000 17.740753
654.500000 17.913412
654.500000 18.086906
654.500000 18.261237
654.500000 18.436403
654.500000 18.612406
654.500000 18.789245
654.500000 18.966920
654.500000 19.145432
654.500000 19.324779
654.500000 19.504962
654.500000 19.685982
654.500000 19.867838
654.500000 20.050529
654.500000 20.234057
654.500000 20.418421
654.500000 20.603622
654.500000 20.789658
654.500000 20.976530
654.500000 21.164239
654.500000 21.352783
654.500000 21.542164
654.500000 21.732381
654.500000 21.923434
654.500000 22.115323
654.500000 22.308048
654.500000 22.501610
654.500000 22.696007
654.500000 22.891241
654.500000 23.087310
654.500000 23.284216
654.500000 23.481958
654.500000 23.680536
654.500000 23.879950
654.500000 24.080200
654.500000 24.281287
654.500000 24.483209
654.500000 24.685968
654.500000 24.889563
654.500000 25.093994
654.500000 25.299261
654.500000 25.505364
654.500000 25.712303
654.500000 25.920078
654.500000 26.128690
654.500000 26.338137
654.500000 26.548421
654.500000 26.759541
654.500000 26.971497
654.500000 27.184289
654.500000 27.397917
654.500000 27.612381
654.500000 27.827682
654.500000 28.043818
654.500000 28.260791
654.500000 28.478600
654.500000 28.697244
654.500000 28.916725
654.500000 29.137043
654.500000 29.358196
654.500000 29.580185
654.500000 29.803011
654.500000 30.026672
654.500000 30.251170
654.500000 30.476504
654.500000 30.702674
654.500000 30.929680
654.500000 31.157522
654.500000 31.386200
654.500000 31.615715
654.500000 31.846065
654.500000 32.077252
654.500000 32.309275
654.500000 32.542133
654.500000 32.775828
654.500000 33.010360
654.500000 33.245727
654.500000 33.481930
654.500000 33.718970
654.500000 33.956845
654.500000 34.195557
654.500000 34.435105
654.500000 34.675489
654.500000 34.916709
654.500000 35.158765
654.500000 35.401657
654.500000 35.645386
654.500000 35.889950
654.500000 36.135351
654.500000 36.381588
654.500000 36.628660
654.500000 36.876569
654.500000 37.125315
654.500000 37.374896
654.500000 37.625313
654.500000 37.876567
654.500000 38.128656
654.500000 38.381582
654.500000 38.635344
654.500000 38.889942
654.500000 39.145376
654.500000 39.401646
654.500000 39.658752
654.500000 39.916695
654.500000 40.175473
654.500000 40.435088
654.500000 40.695539
654.500000 40.956826
654.500000 41.218949
654.500000 41.481908
654.500000 41.745703
654.500000 42.010334
654.500000 42.275802
654.500000 42.542106
654.500000 42.809245
654.500000 43.077221
654.500000 43.346033
654.500000 43.615681
654.500000 43.886165
654.500000 44.157486
654.500000 44.429642
654.500000 44.702635
654.500000 44.976463
654.500000 45.251128
654.500000 45.526629
654.500000 45.802966
654.500000 46.080139
654.500000 46.358148
654.500000 46.636994
654.500000 46.916675
654.500000 47.197193
654.500000 47.478547
654.500000 47.760736
654.500000 48.043762
654.500000 48.327625
654.500000 48.612323
654.500000 48.897857
654.500000 49.184227
654.500000 49.471434
654.500000 49.759477
654.500000 50.048355
654.500000 50.338070
654.500000 50.628621
654.500000 50.920009
654.500000 51.212232
654.500000 51.505291
654.500000 51.799187
654.500000 52.093918
654.500000 52.389486
654.500000 52.685890
654.500000 52.983130
654.500000 53.281206
654.500000 53.580118
654.500000 53.879867
654.500000 54.180451
654.500000 54.481872
654.500000 54.784128
654.500000 55.087221
654.500000 55.391150
654.500000 55.695915
654.500000 56.001516
654.500000 56.307953
654.500000 56.615227
654.500000 56.923336
654.500000 57.232282
654.500000 57.542064
654.500000 57.852682
654.500000 58.164136
654.500000 58.476426
654.500000 58.789552
654.500000 59.103514
654.500000 59.418313
654.500000 59.733947
654.500000 60.050418
654.500000 60.367725
654.500000 60.685868
654.500000 61.004847
654.500000 61.324662
654.500000 61.645313
654.500000 61.966801
654.500000 62.289124
654.500000 62.612284
654.500000 62.936279
654.500000 63.261111
654.500000 63.586779
654.500000 63.913283
654.500000 64.240624
654.500000 64.568800
654.500000 64.897812
654.500000 65.227661
654.500000 65.558346
654.500000 65.889867
654.500000 66.222223
654.500000 66.555417
654.500000 66.889446
654.500000 67.224311
654.500000 67.560012
654.500000 67.896550
654.500000 68.233924
654.500000 68.572133
654.500000 68.911179
654.500000 69.251061
654.500000 69.591779
654.500000 69.933334
654.500000 70.275724
654.500000 70.618950
654.500000 70.963013
654.500000 71.307912
654.500000 71.653646
654.500000 72.000217
654.500000 72.347624
654.500000 72.695868
654.500000 73.044947
654.500000 73.394862
654.500000 73.745614
654.500000 74.097202
654.500000 74.449625
654.500000 74.802885
654.500000 75.156981
654.500000 75.511913
654.500000 75.867682
654.500000 76.224286
654.500000 76.581726
654.500000 76.940003
654.500000 77.299116
654.500000 77.659064
654.500000 78.019849
654.500000 78.381471
654.500000 78.743928
654.500000 79.107221
654.500000 79.471350
654.500000 79.836316
654.500000 80.202118
654.500000 80.568755
654.500000 80.936229
654.500000 81.304539
654.500000 81.673685
654.500000 82.043668
654.500000 82.414486
654.500000 82.786141
654.500000 83.158631
654.500000 83.531958
654.500000 83.906121
654.500000 84.281120
654.500000 84.656955
654.500000 85.033626
654.500000 85.411133
654.500000 85.789477
654.500000 86.168656
654.500000 86.548672
654.500000 86.929524
654.500000 87.311212
654.500000 87.693736
654.500000 88.077096
654.500000 88.461292
654.500000 88.846324
654.500000 89.232193
654.500000 89.618897
654.500000 90.006438
654.500000 90.394815
654.500000 90.784028
654.500000 91.174077
654.500000 91.564962
654.500000 91.956684
654.500000 92.349241
654.500000 92.742634
654.500000 93.136864
654.500000 93.531930
654.500000 93.927832
654.500000 94.324570
654.500000 94.722144
654.500000 95.120554
654.500000 95.519801
654.500000 95.919883
654.500000 96.320802
654.500000 96.722557
654.500000 97.125147
654.500000 97.528574
654.500000 97.932837
654.500000 98.337937
654.500000 98.743872
654.500000 99.150643
654.500000 99.558251
654.500000 99.966695
654.500000 100.375974
654.500000 100.786090
654.500000 101.197042
654.500000 101.608831
654.500000 102.021455
654.500000 102.434915
654.500000 102.849212
654.500000 103.264344
654.500000 103.680313
654.500000 104.097118
654.500000 104.514759
654.500000 104.933236
654.500000 105.352549
654.500000 105.772699
654.500000 106.193684
654.500000 106.615506
654.500000 107.038163
654.500000 107.461657
654.500000 107.885987
654.500000 108.311153
654.500000 108.737155
654.500000 109.163993
654.500000 109.591668
654.500000 110.020178
654.500000 110.449525
654.500000 110.879708
654.500000 111.310727
654.500000 111.742582
654.500000 112.175273
654.500000 112.608800
654.500000 113.043163
654.500000 113.478363
654.500000 113.914398
654.500000 114.351270
654.500000 114.788978
654.500000 115.227522
654.500000 115.666902
654.500000 116.107118
654.500000 116.548170
654.500000 116.990059
654.500000 117.432783
654.500000 117.876344
654.500000 118.320740
654.500000 118.765973
654.500000 119.212042
654.500000 119.658947
654.500000 120.106689
654.500000 120.555266
654.500000 121.004679
654.500000 121.454929
654.500000 121.906015
654.500000 122.357937
654.500000 122.810695
654.500000 123.264289
654.500000 123.718719
654.500000 124.173985
654.500000 124.630087
654.500000 125.087026
654.500000 125.544801
654.500000 126.003411
654.500000 126.462858
654.500000 126.923141
654.500000 127.384260
654.500000 127.846216
654.500000 128.309007
654.500000 128.772634
654.500000 129.237098
654.500000 129.702398
654.500000 130.168534
654.500000 130.635505
654.500000 131.103314
654.500000 131.571958
654.500000 132.041438
654.500000 132.511754
654.500000 132.982907
654.500000 133.454896
654.500000 133.927720
654.500000 134.401381
654.500000 134.875878
654.500000 135.351211
654.500000 135.827381
654.500000 136.304386
654.500000 136.782227
654.500000 137.260905
654.500000 137.740419
654.500000 138.220769
654.500000 138.701955
654.500000 139.183977
654.500000 139.666835
654.500000 140.150529
654.500000 140.635060
654.500000 141.120426
654.500000 141.606629
654.500000 142.093668
654.500000 142.581542
654.500000 143.070253
654.500000 143.559801
654.500000 144.050184
654.500000 144.541403
654.500000 145.033459
654.500000 145.526350
654.500000 146.020078
654.500000 146.514642
654.500000 147.010042
654.500000 147.506278
654.500000 148.003350
654.500000 148.501258
654.500000 149.000003
654.500000 149.499583
654.500000 150.000000
</POINTS>
</NEKTAR>

