<?xml version="1.0" encoding="utf-8" ?>
<NEKTAR>
<POINTS DIM="2" FIELDS="">
858.500000 0.000000
858.500000 0.000418
858.500000 0.001672
858.500000 0.003763
858.500000 0.006689
858.500000 0.010451
858.500000 0.015050
858.500000 0.020485
858.500000 0.026756
858.500000 0.033863
858.500000 0.041806
858.500000 0.050585
858.500000 0.060201
858.500000 0.070652
858.500000 0.081940
858.500000 0.094063
858.500000 0.107023
858.500000 0.120819
858.500000 0.135451
858.500000 0.150919
858.500000 0.167224
858.500000 0.184364
858.500000 0.202341
858.500000 0.221153
858.500000 0.240802
858.500000 0.261287
858.500000 0.282608
858.500000 0.304765
858.500000 0.327758
858.500000 0.351588
858.500000 0.376253
858.500000 0.401755
858.500000 0.428092
858.500000 0.455266
858.500000 0.483276
858.500000 0.512122
858.500000 0.541805
858.500000 0.572323
858.500000 0.603677
858.500000 0.635868
858.500000 0.668894
858.500000 0.702757
858.500000 0.737456
858.500000 0.772991
858.500000 0.809362
858.500000 0.846570
858.500000 0.884613
858.500000 0.923492
858.500000 0.963208
858.500000 1.003760
858.500000 1.045148
858.500000 1.087372
858.500000 1.130432
858.500000 1.174328
858.500000 1.219060
858.500000 1.264629
858.500000 1.311033
858.500000 1.358274
858.500000 1.406351
858.500000 1.455264
858.500000 1.505013
858.500000 1.555598
858.500000 1.607019
858.500000 1.659276
858.500000 1.712370
858.500000 1.766299
858.500000 1.821065
858.500000 1.876667
858.500000 1.933105
858.500000 1.990379
858.500000 2.048489
858.500000 2.107436
858.500000 2.167218
858.500000 2.227837
858.500000 2.289291
858.500000 2.351582
858.500000 2.414709
858.500000 2.478672
858.500000 2.543471
858.500000 2.609106
858.500000 2.675578
858.500000 2.742885
858.500000 2.811029
858.500000 2.880009
858.500000 2.949825
858.500000 3.020477
858.500000 3.091965
858.500000 3.164289
858.500000 3.237449
858.500000 3.311446
858.500000 3.386278
858.500000 3.461947
858.500000 3.538452
858.500000 3.615793
858.500000 3.693970
858.500000 3.772983
858.500000 3.852832
858.500000 3.933517
858.500000 4.015039
858.500000 4.097397
858.500000 4.180590
858.500000 4.264620
858.500000 4.349486
858.500000 4.435188
858.500000 4.521727
858.500000 4.609101
858.500000 4.697311
858.500000 4.786358
858.500000 4.876241
858.500000 4.966959
858.500000 5.058514
858.500000 5.150905
858.500000 5.244133
858.500000 5.338196
858.500000 5.433095
858.500000 5.528831
858.500000 5.625402
858.500000 5.722810
858.500000 5.821054
858.500000 5.920134
858.500000 6.020050
858.500000 6.120802
858.500000 6.222391
858.500000 6.324815
858.500000 6.428076
858.500000 6.532172
858.500000 6.637105
858.500000 6.742874
858.500000 6.849479
858.500000 6.956920
858.500000 7.065198
858.500000 7.174311
858.500000 7.284261
858.500000 7.395046
858.500000 7.506668
858.500000 7.619126
858.500000 7.732420
858.500000 7.846550
858.500000 7.961516
858.500000 8.077319
858.500000 8.193957
858.500000 8.311432
858.500000 8.429742
858.500000 8.548889
858.500000 8.668872
858.500000 8.789691
858.500000 8.911346
858.500000 9.033838
858.500000 9.157165
858.500000 9.281329
858.500000 9.406328
858.500000 9.532164
858.500000 9.658836
858.500000 9.786344
858.500000 9.914688
858.500000 10.043868
858.500000 10.173885
858.500000 10.304737
858.500000 10.436426
858.500000 10.568950
858.500000 10.702311
858.500000 10.836508
858.500000 10.971541
858.500000 11.107411
858.500000 11.244116
858.500000 11.381657
858.500000 11.520035
858.500000 11.659248
858.500000 11.799298
858.500000 11.940184
858.500000 12.081906
858.500000 12.224464
858.500000 12.367859
858.500000 12.512089
858.500000 12.657155
858.500000 12.803058
858.500000 12.949797
858.500000 13.097372
858.500000 13.245782
858.500000 13.395030
858.500000 13.545113
858.500000 13.696032
858.500000 13.847787
858.500000 14.000379
858.500000 14.153807
858.500000 14.308070
858.500000 14.463170
858.500000 14.619106
858.500000 14.775879
858.500000 14.933487
858.500000 15.091931
858.500000 15.251212
858.500000 15.411328
858.500000 15.572281
858.500000 15.734070
858.500000 15.896695
858.500000 16.060156
858.500000 16.224453
858.500000 16.389586
858.500000 16.555556
858.500000 16.722361
858.500000 16.890003
858.500000 17.058481
858.500000 17.227795
858.500000 17.397945
858.500000 17.568931
858.500000 17.740753
858.500000 17.913412
858.500000 18.086906
858.500000 18.261237
858.500000 18.436403
858.500000 18.612406
858.500000 18.789245
858.500000 18.966920
858.500000 19.145432
858.500000 19.324779
858.500000 19.504962
858.500000 19.685982
858.500000 19.867838
858.500000 20.050529
858.500000 20.234057
858.500000 20.418421
858.500000 20.603622
858.500000 20.789658
858.500000 20.976530
858.500000 21.164239
858.500000 21.352783
858.500000 21.542164
858.500000 21.732381
858.500000 21.923434
858.500000 22.115323
858.500000 22.308048
858.500000 22.501610
858.500000 22.696007
858.500000 22.891241
858.500000 23.087310
858.500000 23.284216
858.500000 23.481958
858.500000 23.680536
858.500000 23.879950
858.500000 24.080200
858.500000 24.281287
858.500000 24.483209
858.500000 24.685968
858.500000 24.889563
858.500000 25.093994
858.500000 25.299261
858.500000 25.505364
858.500000 25.712303
858.500000 25.920078
858.500000 26.128690
858.500000 26.338137
858.500000 26.548421
858.500000 26.759541
858.500000 26.971497
858.500000 27.184289
858.500000 27.397917
858.500000 27.612381
858.500000 27.827682
858.500000 28.043818
858.500000 28.260791
858.500000 28.478600
858.500000 28.697244
858.500000 28.916725
858.500000 29.137043
858.500000 29.358196
858.500000 29.580185
858.500000 29.803011
858.500000 30.026672
858.500000 30.251170
858.500000 30.476504
858.500000 30.702674
858.500000 30.929680
858.500000 31.157522
858.500000 31.386200
858.500000 31.615715
858.500000 31.846065
858.500000 32.077252
858.500000 32.309275
858.500000 32.542133
858.500000 32.775828
858.500000 33.010360
858.500000 33.245727
858.500000 33.481930
858.500000 33.718970
858.500000 33.956845
858.500000 34.195557
858.500000 34.435105
858.500000 34.675489
858.500000 34.916709
858.500000 35.158765
858.500000 35.401657
858.500000 35.645386
858.500000 35.889950
858.500000 36.135351
858.500000 36.381588
858.500000 36.628660
858.500000 36.876569
858.500000 37.125315
858.500000 37.374896
858.500000 37.625313
858.500000 37.876567
858.500000 38.128656
858.500000 38.381582
858.500000 38.635344
858.500000 38.889942
858.500000 39.145376
858.500000 39.401646
858.500000 39.658752
858.500000 39.916695
858.500000 40.175473
858.500000 40.435088
858.500000 40.695539
858.500000 40.956826
858.500000 41.218949
858.500000 41.481908
858.500000 41.745703
858.500000 42.010334
858.500000 42.275802
858.500000 42.542106
858.500000 42.809245
858.500000 43.077221
858.500000 43.346033
858.500000 43.615681
858.500000 43.886165
858.500000 44.157486
858.500000 44.429642
858.500000 44.702635
858.500000 44.976463
858.500000 45.251128
858.500000 45.526629
858.500000 45.802966
858.500000 46.080139
858.500000 46.358148
858.500000 46.636994
858.500000 46.916675
858.500000 47.197193
858.500000 47.478547
858.500000 47.760736
858.500000 48.043762
858.500000 48.327625
858.500000 48.612323
858.500000 48.897857
858.500000 49.184227
858.500000 49.471434
858.500000 49.759477
858.500000 50.048355
858.500000 50.338070
858.500000 50.628621
858.500000 50.920009
858.500000 51.212232
858.500000 51.505291
858.500000 51.799187
858.500000 52.093918
858.500000 52.389486
858.500000 52.685890
858.500000 52.983130
858.500000 53.281206
858.500000 53.580118
858.500000 53.879867
858.500000 54.180451
858.500000 54.481872
858.500000 54.784128
858.500000 55.087221
858.500000 55.391150
858.500000 55.695915
858.500000 56.001516
858.500000 56.307953
858.500000 56.615227
858.500000 56.923336
858.500000 57.232282
858.500000 57.542064
858.500000 57.852682
858.500000 58.164136
858.500000 58.476426
858.500000 58.789552
858.500000 59.103514
858.500000 59.418313
858.500000 59.733947
858.500000 60.050418
858.500000 60.367725
858.500000 60.685868
858.500000 61.004847
858.500000 61.324662
858.500000 61.645313
858.500000 61.966801
858.500000 62.289124
858.500000 62.612284
858.500000 62.936279
858.500000 63.261111
858.500000 63.586779
858.500000 63.913283
858.500000 64.240624
858.500000 64.568800
858.500000 64.897812
858.500000 65.227661
858.500000 65.558346
858.500000 65.889867
858.500000 66.222223
858.500000 66.555417
858.500000 66.889446
858.500000 67.224311
858.500000 67.560012
858.500000 67.896550
858.500000 68.233924
858.500000 68.572133
858.500000 68.911179
858.500000 69.251061
858.500000 69.591779
858.500000 69.933334
858.500000 70.275724
858.500000 70.618950
858.500000 70.963013
858.500000 71.307912
858.500000 71.653646
858.500000 72.000217
858.500000 72.347624
858.500000 72.695868
858.500000 73.044947
858.500000 73.394862
858.500000 73.745614
858.500000 74.097202
858.500000 74.449625
858.500000 74.802885
858.500000 75.156981
858.500000 75.511913
858.500000 75.867682
858.500000 76.224286
858.500000 76.581726
858.500000 76.940003
858.500000 77.299116
858.500000 77.659064
858.500000 78.019849
858.500000 78.381471
858.500000 78.743928
858.500000 79.107221
858.500000 79.471350
858.500000 79.836316
858.500000 80.202118
858.500000 80.568755
858.500000 80.936229
858.500000 81.304539
858.500000 81.673685
858.500000 82.043668
858.500000 82.414486
858.500000 82.786141
858.500000 83.158631
858.500000 83.531958
858.500000 83.906121
858.500000 84.281120
858.500000 84.656955
858.500000 85.033626
858.500000 85.411133
858.500000 85.789477
858.500000 86.168656
858.500000 86.548672
858.500000 86.929524
858.500000 87.311212
858.500000 87.693736
858.500000 88.077096
858.500000 88.461292
858.500000 88.846324
858.500000 89.232193
858.500000 89.618897
858.500000 90.006438
858.500000 90.394815
858.500000 90.784028
858.500000 91.174077
858.500000 91.564962
858.500000 91.956684
858.500000 92.349241
858.500000 92.742634
858.500000 93.136864
858.500000 93.531930
858.500000 93.927832
858.500000 94.324570
858.500000 94.722144
858.500000 95.120554
858.500000 95.519801
858.500000 95.919883
858.500000 96.320802
858.500000 96.722557
858.500000 97.125147
858.500000 97.528574
858.500000 97.932837
858.500000 98.337937
858.500000 98.743872
858.500000 99.150643
858.500000 99.558251
858.500000 99.966695
858.500000 100.375974
858.500000 100.786090
858.500000 101.197042
858.500000 101.608831
858.500000 102.021455
858.500000 102.434915
858.500000 102.849212
858.500000 103.264344
858.500000 103.680313
858.500000 104.097118
858.500000 104.514759
858.500000 104.933236
858.500000 105.352549
858.500000 105.772699
858.500000 106.193684
858.500000 106.615506
858.500000 107.038163
858.500000 107.461657
858.500000 107.885987
858.500000 108.311153
858.500000 108.737155
858.500000 109.163993
858.500000 109.591668
858.500000 110.020178
858.500000 110.449525
858.500000 110.879708
858.500000 111.310727
858.500000 111.742582
858.500000 112.175273
858.500000 112.608800
858.500000 113.043163
858.500000 113.478363
858.500000 113.914398
858.500000 114.351270
858.500000 114.788978
858.500000 115.227522
858.500000 115.666902
858.500000 116.107118
858.500000 116.548170
858.500000 116.990059
858.500000 117.432783
858.500000 117.876344
858.500000 118.320740
858.500000 118.765973
858.500000 119.212042
858.500000 119.658947
858.500000 120.106689
858.500000 120.555266
858.500000 121.004679
858.500000 121.454929
858.500000 121.906015
858.500000 122.357937
858.500000 122.810695
858.500000 123.264289
858.500000 123.718719
858.500000 124.173985
858.500000 124.630087
858.500000 125.087026
858.500000 125.544801
858.500000 126.003411
858.500000 126.462858
858.500000 126.923141
858.500000 127.384260
858.500000 127.846216
858.500000 128.309007
858.500000 128.772634
858.500000 129.237098
858.500000 129.702398
858.500000 130.168534
858.500000 130.635505
858.500000 131.103314
858.500000 131.571958
858.500000 132.041438
858.500000 132.511754
858.500000 132.982907
858.500000 133.454896
858.500000 133.927720
858.500000 134.401381
858.500000 134.875878
858.500000 135.351211
858.500000 135.827381
858.500000 136.304386
858.500000 136.782227
858.500000 137.260905
858.500000 137.740419
858.500000 138.220769
858.500000 138.701955
858.500000 139.183977
858.500000 139.666835
858.500000 140.150529
858.500000 140.635060
858.500000 141.120426
858.500000 141.606629
858.500000 142.093668
858.500000 142.581542
858.500000 143.070253
858.500000 143.559801
858.500000 144.050184
858.500000 144.541403
858.500000 145.033459
858.500000 145.526350
858.500000 146.020078
858.500000 146.514642
858.500000 147.010042
858.500000 147.506278
858.500000 148.003350
858.500000 148.501258
858.500000 149.000003
858.500000 149.499583
858.500000 150.000000
</POINTS>
</NEKTAR>

