<?xml version="1.0" encoding="utf-8" ?>
<NEKTAR>
<POINTS DIM="2" FIELDS="">
44.500000 0.000000
44.500000 0.000418
44.500000 0.001672
44.500000 0.003763
44.500000 0.006689
44.500000 0.010451
44.500000 0.015050
44.500000 0.020485
44.500000 0.026756
44.500000 0.033863
44.500000 0.041806
44.500000 0.050585
44.500000 0.060201
44.500000 0.070652
44.500000 0.081940
44.500000 0.094063
44.500000 0.107023
44.500000 0.120819
44.500000 0.135451
44.500000 0.150919
44.500000 0.167224
44.500000 0.184364
44.500000 0.202341
44.500000 0.221153
44.500000 0.240802
44.500000 0.261287
44.500000 0.282608
44.500000 0.304765
44.500000 0.327758
44.500000 0.351588
44.500000 0.376253
44.500000 0.401755
44.500000 0.428092
44.500000 0.455266
44.500000 0.483276
44.500000 0.512122
44.500000 0.541805
44.500000 0.572323
44.500000 0.603677
44.500000 0.635868
44.500000 0.668894
44.500000 0.702757
44.500000 0.737456
44.500000 0.772991
44.500000 0.809362
44.500000 0.846570
44.500000 0.884613
44.500000 0.923492
44.500000 0.963208
44.500000 1.003760
44.500000 1.045148
44.500000 1.087372
44.500000 1.130432
44.500000 1.174328
44.500000 1.219060
44.500000 1.264629
44.500000 1.311033
44.500000 1.358274
44.500000 1.406351
44.500000 1.455264
44.500000 1.505013
44.500000 1.555598
44.500000 1.607019
44.500000 1.659276
44.500000 1.712370
44.500000 1.766299
44.500000 1.821065
44.500000 1.876667
44.500000 1.933105
44.500000 1.990379
44.500000 2.048489
44.500000 2.107436
44.500000 2.167218
44.500000 2.227837
44.500000 2.289291
44.500000 2.351582
44.500000 2.414709
44.500000 2.478672
44.500000 2.543471
44.500000 2.609106
44.500000 2.675578
44.500000 2.742885
44.500000 2.811029
44.500000 2.880009
44.500000 2.949825
44.500000 3.020477
44.500000 3.091965
44.500000 3.164289
44.500000 3.237449
44.500000 3.311446
44.500000 3.386278
44.500000 3.461947
44.500000 3.538452
44.500000 3.615793
44.500000 3.693970
44.500000 3.772983
44.500000 3.852832
44.500000 3.933517
44.500000 4.015039
44.500000 4.097397
44.500000 4.180590
44.500000 4.264620
44.500000 4.349486
44.500000 4.435188
44.500000 4.521727
44.500000 4.609101
44.500000 4.697311
44.500000 4.786358
44.500000 4.876241
44.500000 4.966959
44.500000 5.058514
44.500000 5.150905
44.500000 5.244133
44.500000 5.338196
44.500000 5.433095
44.500000 5.528831
44.500000 5.625402
44.500000 5.722810
44.500000 5.821054
44.500000 5.920134
44.500000 6.020050
44.500000 6.120802
44.500000 6.222391
44.500000 6.324815
44.500000 6.428076
44.500000 6.532172
44.500000 6.637105
44.500000 6.742874
44.500000 6.849479
44.500000 6.956920
44.500000 7.065198
44.500000 7.174311
44.500000 7.284261
44.500000 7.395046
44.500000 7.506668
44.500000 7.619126
44.500000 7.732420
44.500000 7.846550
44.500000 7.961516
44.500000 8.077319
44.500000 8.193957
44.500000 8.311432
44.500000 8.429742
44.500000 8.548889
44.500000 8.668872
44.500000 8.789691
44.500000 8.911346
44.500000 9.033838
44.500000 9.157165
44.500000 9.281329
44.500000 9.406328
44.500000 9.532164
44.500000 9.658836
44.500000 9.786344
44.500000 9.914688
44.500000 10.043868
44.500000 10.173885
44.500000 10.304737
44.500000 10.436426
44.500000 10.568950
44.500000 10.702311
44.500000 10.836508
44.500000 10.971541
44.500000 11.107411
44.500000 11.244116
44.500000 11.381657
44.500000 11.520035
44.500000 11.659248
44.500000 11.799298
44.500000 11.940184
44.500000 12.081906
44.500000 12.224464
44.500000 12.367859
44.500000 12.512089
44.500000 12.657155
44.500000 12.803058
44.500000 12.949797
44.500000 13.097372
44.500000 13.245782
44.500000 13.395030
44.500000 13.545113
44.500000 13.696032
44.500000 13.847787
44.500000 14.000379
44.500000 14.153807
44.500000 14.308070
44.500000 14.463170
44.500000 14.619106
44.500000 14.775879
44.500000 14.933487
44.500000 15.091931
44.500000 15.251212
44.500000 15.411328
44.500000 15.572281
44.500000 15.734070
44.500000 15.896695
44.500000 16.060156
44.500000 16.224453
44.500000 16.389586
44.500000 16.555556
44.500000 16.722361
44.500000 16.890003
44.500000 17.058481
44.500000 17.227795
44.500000 17.397945
44.500000 17.568931
44.500000 17.740753
44.500000 17.913412
44.500000 18.086906
44.500000 18.261237
44.500000 18.436403
44.500000 18.612406
44.500000 18.789245
44.500000 18.966920
44.500000 19.145432
44.500000 19.324779
44.500000 19.504962
44.500000 19.685982
44.500000 19.867838
44.500000 20.050529
44.500000 20.234057
44.500000 20.418421
44.500000 20.603622
44.500000 20.789658
44.500000 20.976530
44.500000 21.164239
44.500000 21.352783
44.500000 21.542164
44.500000 21.732381
44.500000 21.923434
44.500000 22.115323
44.500000 22.308048
44.500000 22.501610
44.500000 22.696007
44.500000 22.891241
44.500000 23.087310
44.500000 23.284216
44.500000 23.481958
44.500000 23.680536
44.500000 23.879950
44.500000 24.080200
44.500000 24.281287
44.500000 24.483209
44.500000 24.685968
44.500000 24.889563
44.500000 25.093994
44.500000 25.299261
44.500000 25.505364
44.500000 25.712303
44.500000 25.920078
44.500000 26.128690
44.500000 26.338137
44.500000 26.548421
44.500000 26.759541
44.500000 26.971497
44.500000 27.184289
44.500000 27.397917
44.500000 27.612381
44.500000 27.827682
44.500000 28.043818
44.500000 28.260791
44.500000 28.478600
44.500000 28.697244
44.500000 28.916725
44.500000 29.137043
44.500000 29.358196
44.500000 29.580185
44.500000 29.803011
44.500000 30.026672
44.500000 30.251170
44.500000 30.476504
44.500000 30.702674
44.500000 30.929680
44.500000 31.157522
44.500000 31.386200
44.500000 31.615715
44.500000 31.846065
44.500000 32.077252
44.500000 32.309275
44.500000 32.542133
44.500000 32.775828
44.500000 33.010360
44.500000 33.245727
44.500000 33.481930
44.500000 33.718970
44.500000 33.956845
44.500000 34.195557
44.500000 34.435105
44.500000 34.675489
44.500000 34.916709
44.500000 35.158765
44.500000 35.401657
44.500000 35.645386
44.500000 35.889950
44.500000 36.135351
44.500000 36.381588
44.500000 36.628660
44.500000 36.876569
44.500000 37.125315
44.500000 37.374896
44.500000 37.625313
44.500000 37.876567
44.500000 38.128656
44.500000 38.381582
44.500000 38.635344
44.500000 38.889942
44.500000 39.145376
44.500000 39.401646
44.500000 39.658752
44.500000 39.916695
44.500000 40.175473
44.500000 40.435088
44.500000 40.695539
44.500000 40.956826
44.500000 41.218949
44.500000 41.481908
44.500000 41.745703
44.500000 42.010334
44.500000 42.275802
44.500000 42.542106
44.500000 42.809245
44.500000 43.077221
44.500000 43.346033
44.500000 43.615681
44.500000 43.886165
44.500000 44.157486
44.500000 44.429642
44.500000 44.702635
44.500000 44.976463
44.500000 45.251128
44.500000 45.526629
44.500000 45.802966
44.500000 46.080139
44.500000 46.358148
44.500000 46.636994
44.500000 46.916675
44.500000 47.197193
44.500000 47.478547
44.500000 47.760736
44.500000 48.043762
44.500000 48.327625
44.500000 48.612323
44.500000 48.897857
44.500000 49.184227
44.500000 49.471434
44.500000 49.759477
44.500000 50.048355
44.500000 50.338070
44.500000 50.628621
44.500000 50.920009
44.500000 51.212232
44.500000 51.505291
44.500000 51.799187
44.500000 52.093918
44.500000 52.389486
44.500000 52.685890
44.500000 52.983130
44.500000 53.281206
44.500000 53.580118
44.500000 53.879867
44.500000 54.180451
44.500000 54.481872
44.500000 54.784128
44.500000 55.087221
44.500000 55.391150
44.500000 55.695915
44.500000 56.001516
44.500000 56.307953
44.500000 56.615227
44.500000 56.923336
44.500000 57.232282
44.500000 57.542064
44.500000 57.852682
44.500000 58.164136
44.500000 58.476426
44.500000 58.789552
44.500000 59.103514
44.500000 59.418313
44.500000 59.733947
44.500000 60.050418
44.500000 60.367725
44.500000 60.685868
44.500000 61.004847
44.500000 61.324662
44.500000 61.645313
44.500000 61.966801
44.500000 62.289124
44.500000 62.612284
44.500000 62.936279
44.500000 63.261111
44.500000 63.586779
44.500000 63.913283
44.500000 64.240624
44.500000 64.568800
44.500000 64.897812
44.500000 65.227661
44.500000 65.558346
44.500000 65.889867
44.500000 66.222223
44.500000 66.555417
44.500000 66.889446
44.500000 67.224311
44.500000 67.560012
44.500000 67.896550
44.500000 68.233924
44.500000 68.572133
44.500000 68.911179
44.500000 69.251061
44.500000 69.591779
44.500000 69.933334
44.500000 70.275724
44.500000 70.618950
44.500000 70.963013
44.500000 71.307912
44.500000 71.653646
44.500000 72.000217
44.500000 72.347624
44.500000 72.695868
44.500000 73.044947
44.500000 73.394862
44.500000 73.745614
44.500000 74.097202
44.500000 74.449625
44.500000 74.802885
44.500000 75.156981
44.500000 75.511913
44.500000 75.867682
44.500000 76.224286
44.500000 76.581726
44.500000 76.940003
44.500000 77.299116
44.500000 77.659064
44.500000 78.019849
44.500000 78.381471
44.500000 78.743928
44.500000 79.107221
44.500000 79.471350
44.500000 79.836316
44.500000 80.202118
44.500000 80.568755
44.500000 80.936229
44.500000 81.304539
44.500000 81.673685
44.500000 82.043668
44.500000 82.414486
44.500000 82.786141
44.500000 83.158631
44.500000 83.531958
44.500000 83.906121
44.500000 84.281120
44.500000 84.656955
44.500000 85.033626
44.500000 85.411133
44.500000 85.789477
44.500000 86.168656
44.500000 86.548672
44.500000 86.929524
44.500000 87.311212
44.500000 87.693736
44.500000 88.077096
44.500000 88.461292
44.500000 88.846324
44.500000 89.232193
44.500000 89.618897
44.500000 90.006438
44.500000 90.394815
44.500000 90.784028
44.500000 91.174077
44.500000 91.564962
44.500000 91.956684
44.500000 92.349241
44.500000 92.742634
44.500000 93.136864
44.500000 93.531930
44.500000 93.927832
44.500000 94.324570
44.500000 94.722144
44.500000 95.120554
44.500000 95.519801
44.500000 95.919883
44.500000 96.320802
44.500000 96.722557
44.500000 97.125147
44.500000 97.528574
44.500000 97.932837
44.500000 98.337937
44.500000 98.743872
44.500000 99.150643
44.500000 99.558251
44.500000 99.966695
44.500000 100.375974
44.500000 100.786090
44.500000 101.197042
44.500000 101.608831
44.500000 102.021455
44.500000 102.434915
44.500000 102.849212
44.500000 103.264344
44.500000 103.680313
44.500000 104.097118
44.500000 104.514759
44.500000 104.933236
44.500000 105.352549
44.500000 105.772699
44.500000 106.193684
44.500000 106.615506
44.500000 107.038163
44.500000 107.461657
44.500000 107.885987
44.500000 108.311153
44.500000 108.737155
44.500000 109.163993
44.500000 109.591668
44.500000 110.020178
44.500000 110.449525
44.500000 110.879708
44.500000 111.310727
44.500000 111.742582
44.500000 112.175273
44.500000 112.608800
44.500000 113.043163
44.500000 113.478363
44.500000 113.914398
44.500000 114.351270
44.500000 114.788978
44.500000 115.227522
44.500000 115.666902
44.500000 116.107118
44.500000 116.548170
44.500000 116.990059
44.500000 117.432783
44.500000 117.876344
44.500000 118.320740
44.500000 118.765973
44.500000 119.212042
44.500000 119.658947
44.500000 120.106689
44.500000 120.555266
44.500000 121.004679
44.500000 121.454929
44.500000 121.906015
44.500000 122.357937
44.500000 122.810695
44.500000 123.264289
44.500000 123.718719
44.500000 124.173985
44.500000 124.630087
44.500000 125.087026
44.500000 125.544801
44.500000 126.003411
44.500000 126.462858
44.500000 126.923141
44.500000 127.384260
44.500000 127.846216
44.500000 128.309007
44.500000 128.772634
44.500000 129.237098
44.500000 129.702398
44.500000 130.168534
44.500000 130.635505
44.500000 131.103314
44.500000 131.571958
44.500000 132.041438
44.500000 132.511754
44.500000 132.982907
44.500000 133.454896
44.500000 133.927720
44.500000 134.401381
44.500000 134.875878
44.500000 135.351211
44.500000 135.827381
44.500000 136.304386
44.500000 136.782227
44.500000 137.260905
44.500000 137.740419
44.500000 138.220769
44.500000 138.701955
44.500000 139.183977
44.500000 139.666835
44.500000 140.150529
44.500000 140.635060
44.500000 141.120426
44.500000 141.606629
44.500000 142.093668
44.500000 142.581542
44.500000 143.070253
44.500000 143.559801
44.500000 144.050184
44.500000 144.541403
44.500000 145.033459
44.500000 145.526350
44.500000 146.020078
44.500000 146.514642
44.500000 147.010042
44.500000 147.506278
44.500000 148.003350
44.500000 148.501258
44.500000 149.000003
44.500000 149.499583
44.500000 150.000000
</POINTS>
</NEKTAR>

