<?xml version="1.0" encoding="utf-8" ?>
<NEKTAR>
<POINTS DIM="2" FIELDS="">
523.500000 -1.250000
523.500000 -1.249578
523.500000 -1.248314
523.500000 -1.246206
523.500000 -1.243255
523.500000 -1.239461
523.500000 -1.234824
523.500000 -1.229344
523.500000 -1.223021
523.500000 -1.215855
523.500000 -1.207846
523.500000 -1.198993
523.500000 -1.189298
523.500000 -1.178759
523.500000 -1.167378
523.500000 -1.155153
523.500000 -1.142085
523.500000 -1.128174
523.500000 -1.113420
523.500000 -1.097823
523.500000 -1.081383
523.500000 -1.064100
523.500000 -1.045973
523.500000 -1.027004
523.500000 -1.007191
523.500000 -0.986536
523.500000 -0.965037
523.500000 -0.942695
523.500000 -0.919510
523.500000 -0.895482
523.500000 -0.870611
523.500000 -0.844897
523.500000 -0.818340
523.500000 -0.790940
523.500000 -0.762696
523.500000 -0.733610
523.500000 -0.703680
523.500000 -0.672908
523.500000 -0.641292
523.500000 -0.608833
523.500000 -0.575531
523.500000 -0.541386
523.500000 -0.506398
523.500000 -0.470567
523.500000 -0.433893
523.500000 -0.396376
523.500000 -0.358015
523.500000 -0.318812
523.500000 -0.278765
523.500000 -0.237876
523.500000 -0.196143
523.500000 -0.153567
523.500000 -0.110148
523.500000 -0.065886
523.500000 -0.020781
523.500000 0.025167
523.500000 0.071958
523.500000 0.119593
523.500000 0.168070
523.500000 0.217391
523.500000 0.267554
523.500000 0.318561
523.500000 0.370411
523.500000 0.423104
523.500000 0.476640
523.500000 0.531019
523.500000 0.586241
523.500000 0.642306
523.500000 0.699214
523.500000 0.756966
523.500000 0.815560
523.500000 0.874998
523.500000 0.935278
523.500000 0.996402
523.500000 1.058369
523.500000 1.121179
523.500000 1.184832
523.500000 1.249328
523.500000 1.314667
523.500000 1.380849
523.500000 1.447874
523.500000 1.515743
523.500000 1.584454
523.500000 1.654009
523.500000 1.724406
523.500000 1.795647
523.500000 1.867731
523.500000 1.940658
523.500000 2.014428
523.500000 2.089041
523.500000 2.164497
523.500000 2.240796
523.500000 2.317939
523.500000 2.395924
523.500000 2.474753
523.500000 2.554424
523.500000 2.634939
523.500000 2.716297
523.500000 2.798498
523.500000 2.881542
523.500000 2.965429
523.500000 3.050159
523.500000 3.135732
523.500000 3.222148
523.500000 3.309408
523.500000 3.397510
523.500000 3.486456
523.500000 3.576244
523.500000 3.666876
523.500000 3.758351
523.500000 3.850669
523.500000 3.943830
523.500000 4.037834
523.500000 4.132681
523.500000 4.228371
523.500000 4.324904
523.500000 4.422281
523.500000 4.520500
523.500000 4.619563
523.500000 4.719468
523.500000 4.820217
523.500000 4.921809
523.500000 5.024244
523.500000 5.127522
523.500000 5.231643
523.500000 5.336607
523.500000 5.442414
523.500000 5.549065
523.500000 5.656558
523.500000 5.764895
523.500000 5.874074
523.500000 5.984097
523.500000 6.094963
523.500000 6.206672
523.500000 6.319224
523.500000 6.432619
523.500000 6.546857
523.500000 6.661938
523.500000 6.777862
523.500000 6.894630
523.500000 7.012240
523.500000 7.130694
523.500000 7.249990
523.500000 7.370130
523.500000 7.491113
523.500000 7.612939
523.500000 7.735608
523.500000 7.859120
523.500000 7.983475
523.500000 8.108673
523.500000 8.234714
523.500000 8.361599
523.500000 8.489326
523.500000 8.617897
523.500000 8.747310
523.500000 8.877567
523.500000 9.008667
523.500000 9.140610
523.500000 9.273396
523.500000 9.407025
523.500000 9.541497
523.500000 9.676812
523.500000 9.812971
523.500000 9.949972
523.500000 10.087817
523.500000 10.226504
523.500000 10.366035
523.500000 10.506409
523.500000 10.647626
523.500000 10.789686
523.500000 10.932589
523.500000 11.076335
523.500000 11.220924
523.500000 11.366356
523.500000 11.512632
523.500000 11.659750
523.500000 11.807712
523.500000 11.956516
523.500000 12.106164
523.500000 12.256655
523.500000 12.407989
523.500000 12.560166
523.500000 12.713186
523.500000 12.867049
523.500000 13.021755
523.500000 13.177304
523.500000 13.333697
523.500000 13.490932
523.500000 13.649011
523.500000 13.807933
523.500000 13.967697
523.500000 14.128305
523.500000 14.289756
523.500000 14.452050
523.500000 14.615187
523.500000 14.779167
523.500000 14.943991
523.500000 15.109657
523.500000 15.276166
523.500000 15.443519
523.500000 15.611714
523.500000 15.780753
523.500000 15.950635
523.500000 16.121360
523.500000 16.292928
523.500000 16.465339
523.500000 16.638593
523.500000 16.812690
523.500000 16.987630
523.500000 17.163414
523.500000 17.340040
523.500000 17.517510
523.500000 17.695822
523.500000 17.874978
523.500000 18.054977
523.500000 18.235819
523.500000 18.417504
523.500000 18.600032
523.500000 18.783403
523.500000 18.967617
523.500000 19.152674
523.500000 19.338575
523.500000 19.525318
523.500000 19.712905
523.500000 19.901335
523.500000 20.090607
523.500000 20.280723
523.500000 20.471682
523.500000 20.663484
523.500000 20.856129
523.500000 21.049617
523.500000 21.243949
523.500000 21.439123
523.500000 21.635140
523.500000 21.832001
523.500000 22.029704
523.500000 22.228251
523.500000 22.427641
523.500000 22.627874
523.500000 22.828950
523.500000 23.030869
523.500000 23.233631
523.500000 23.437236
523.500000 23.641684
523.500000 23.846976
523.500000 24.053110
523.500000 24.260088
523.500000 24.467908
523.500000 24.676572
523.500000 24.886079
523.500000 25.096429
523.500000 25.307622
523.500000 25.519658
523.500000 25.732537
523.500000 25.946259
523.500000 26.160825
523.500000 26.376233
523.500000 26.592484
523.500000 26.809579
523.500000 27.027517
523.500000 27.246297
523.500000 27.465921
523.500000 27.686388
523.500000 27.907698
523.500000 28.129851
523.500000 28.352847
523.500000 28.576687
523.500000 28.801369
523.500000 29.026894
523.500000 29.253263
523.500000 29.480475
523.500000 29.708529
523.500000 29.937427
523.500000 30.167168
523.500000 30.397752
523.500000 30.629179
523.500000 30.861449
523.500000 31.094562
523.500000 31.328518
523.500000 31.563318
523.500000 31.798960
523.500000 32.035446
523.500000 32.272774
523.500000 32.510946
523.500000 32.749961
523.500000 32.989819
523.500000 33.230520
523.500000 33.472064
523.500000 33.714451
523.500000 33.957681
523.500000 34.201755
523.500000 34.446671
523.500000 34.692430
523.500000 34.939033
523.500000 35.186479
523.500000 35.434767
523.500000 35.683899
523.500000 35.933874
523.500000 36.184692
523.500000 36.436353
523.500000 36.688857
523.500000 36.942205
523.500000 37.196395
523.500000 37.451429
523.500000 37.707305
523.500000 37.964025
523.500000 38.221587
523.500000 38.479993
523.500000 38.739242
523.500000 38.999334
523.500000 39.260269
523.500000 39.522047
523.500000 39.784668
523.500000 40.048133
523.500000 40.312440
523.500000 40.577590
523.500000 40.843584
523.500000 41.110421
523.500000 41.378100
523.500000 41.646623
523.500000 41.915989
523.500000 42.186198
523.500000 42.457250
523.500000 42.729145
523.500000 43.001883
523.500000 43.275465
523.500000 43.549889
523.500000 43.825157
523.500000 44.101267
523.500000 44.378221
523.500000 44.656018
523.500000 44.934657
523.500000 45.214140
523.500000 45.494466
523.500000 45.775635
523.500000 46.057648
523.500000 46.340503
523.500000 46.624201
523.500000 46.908743
523.500000 47.194127
523.500000 47.480355
523.500000 47.767425
523.500000 48.055339
523.500000 48.344096
523.500000 48.633696
523.500000 48.924139
523.500000 49.215425
523.500000 49.507554
523.500000 49.800527
523.500000 50.094342
523.500000 50.389000
523.500000 50.684502
523.500000 50.980847
523.500000 51.278034
523.500000 51.576065
523.500000 51.874939
523.500000 52.174656
523.500000 52.475216
523.500000 52.776619
523.500000 53.078865
523.500000 53.381955
523.500000 53.685887
523.500000 53.990663
523.500000 54.296281
523.500000 54.602743
523.500000 54.910048
523.500000 55.218195
523.500000 55.527186
523.500000 55.837020
523.500000 56.147697
523.500000 56.459218
523.500000 56.771581
523.500000 57.084787
523.500000 57.398837
523.500000 57.713729
523.500000 58.029465
523.500000 58.346043
523.500000 58.663465
523.500000 58.981730
523.500000 59.300838
523.500000 59.620789
523.500000 59.941583
523.500000 60.263220
523.500000 60.585701
523.500000 60.909024
523.500000 61.233191
523.500000 61.558200
523.500000 61.884053
523.500000 62.210748
523.500000 62.538287
523.500000 62.866669
523.500000 63.195894
523.500000 63.525962
523.500000 63.856873
523.500000 64.188628
523.500000 64.521225
523.500000 64.854665
523.500000 65.188949
523.500000 65.524075
523.500000 65.860045
523.500000 66.196858
523.500000 66.534514
523.500000 66.873012
523.500000 67.212354
523.500000 67.552540
523.500000 67.893568
523.500000 68.235439
523.500000 68.578153
523.500000 68.921711
523.500000 69.266111
523.500000 69.611355
523.500000 69.957442
523.500000 70.304371
523.500000 70.652144
523.500000 71.000760
523.500000 71.350219
523.500000 71.700521
523.500000 72.051667
523.500000 72.403655
523.500000 72.756486
523.500000 73.110161
523.500000 73.464678
523.500000 73.820039
523.500000 74.176243
523.500000 74.533289
523.500000 74.891179
523.500000 75.249912
523.500000 75.609488
523.500000 75.969907
523.500000 76.331170
523.500000 76.693275
523.500000 77.056223
523.500000 77.420015
523.500000 77.784649
523.500000 78.150127
523.500000 78.516448
523.500000 78.883612
523.500000 79.251619
523.500000 79.620469
523.500000 79.990162
523.500000 80.360698
523.500000 80.732077
523.500000 81.104299
523.500000 81.477365
523.500000 81.851273
523.500000 82.226025
523.500000 82.601620
523.500000 82.978057
523.500000 83.355338
523.500000 83.733462
523.500000 84.112429
523.500000 84.492239
523.500000 84.872893
523.500000 85.254389
523.500000 85.636728
523.500000 86.019911
523.500000 86.403936
523.500000 86.788805
523.500000 87.174517
523.500000 87.561071
523.500000 87.948469
523.500000 88.336710
523.500000 88.725794
523.500000 89.115722
523.500000 89.506492
523.500000 89.898105
523.500000 90.290561
523.500000 90.683861
523.500000 91.078004
523.500000 91.472989
523.500000 91.868818
523.500000 92.265490
523.500000 92.663005
523.500000 93.061363
523.500000 93.460564
523.500000 93.860608
523.500000 94.261495
523.500000 94.663226
523.500000 95.065799
523.500000 95.469216
523.500000 95.873475
523.500000 96.278578
523.500000 96.684524
523.500000 97.091312
523.500000 97.498944
523.500000 97.907419
523.500000 98.316738
523.500000 98.726899
523.500000 99.137903
523.500000 99.549750
523.500000 99.962441
523.500000 100.375974
523.500000 100.790351
523.500000 101.205571
523.500000 101.621634
523.500000 102.038539
523.500000 102.456288
523.500000 102.874881
523.500000 103.294316
523.500000 103.714594
523.500000 104.135715
523.500000 104.557680
523.500000 104.980487
523.500000 105.404138
523.500000 105.828631
523.500000 106.253968
523.500000 106.680148
523.500000 107.107171
523.500000 107.535037
523.500000 107.963746
523.500000 108.393298
523.500000 108.823693
523.500000 109.254932
523.500000 109.687013
523.500000 110.119938
523.500000 110.553705
523.500000 110.988316
523.500000 111.423770
523.500000 111.860067
523.500000 112.297207
523.500000 112.735190
523.500000 113.174016
523.500000 113.613685
523.500000 114.054197
523.500000 114.495553
523.500000 114.937751
523.500000 115.380793
523.500000 115.824677
523.500000 116.269405
523.500000 116.714976
523.500000 117.161390
523.500000 117.608647
523.500000 118.056747
523.500000 118.505690
523.500000 118.955476
523.500000 119.406105
523.500000 119.857578
523.500000 120.309893
523.500000 120.763052
523.500000 121.217053
523.500000 121.671898
523.500000 122.127586
523.500000 122.584117
523.500000 123.041491
523.500000 123.499708
523.500000 123.958768
523.500000 124.418671
523.500000 124.879418
523.500000 125.341007
523.500000 125.803440
523.500000 126.266715
523.500000 126.730834
523.500000 127.195796
523.500000 127.661601
523.500000 128.128249
523.500000 128.595740
523.500000 129.064074
523.500000 129.533251
523.500000 130.003271
523.500000 130.474135
523.500000 130.945841
523.500000 131.418391
523.500000 131.891783
523.500000 132.366019
523.500000 132.841098
523.500000 133.317020
523.500000 133.793785
523.500000 134.271393
523.500000 134.749844
523.500000 135.229138
523.500000 135.709275
523.500000 136.190256
523.500000 136.672079
523.500000 137.154746
523.500000 137.638256
523.500000 138.122608
523.500000 138.607804
523.500000 139.093843
523.500000 139.580725
523.500000 140.068450
523.500000 140.557018
523.500000 141.046430
523.500000 141.536684
523.500000 142.027781
523.500000 142.519722
523.500000 143.012506
523.500000 143.506132
523.500000 144.000602
523.500000 144.495915
523.500000 144.992071
523.500000 145.489070
523.500000 145.986912
523.500000 146.485597
523.500000 146.985125
523.500000 147.485497
523.500000 147.986711
523.500000 148.488769
523.500000 148.991669
523.500000 149.495413
523.500000 150.000000
</POINTS>
</NEKTAR>

