<?xml version="1.0" encoding="utf-8" ?>
<NEKTAR>
<POINTS DIM="2" FIELDS="">
783.500000 -1.250000
783.500000 -1.249578
783.500000 -1.248314
783.500000 -1.246206
783.500000 -1.243255
783.500000 -1.239461
783.500000 -1.234824
783.500000 -1.229344
783.500000 -1.223021
783.500000 -1.215855
783.500000 -1.207846
783.500000 -1.198993
783.500000 -1.189298
783.500000 -1.178759
783.500000 -1.167378
783.500000 -1.155153
783.500000 -1.142085
783.500000 -1.128174
783.500000 -1.113420
783.500000 -1.097823
783.500000 -1.081383
783.500000 -1.064100
783.500000 -1.045973
783.500000 -1.027004
783.500000 -1.007191
783.500000 -0.986536
783.500000 -0.965037
783.500000 -0.942695
783.500000 -0.919510
783.500000 -0.895482
783.500000 -0.870611
783.500000 -0.844897
783.500000 -0.818340
783.500000 -0.790940
783.500000 -0.762696
783.500000 -0.733610
783.500000 -0.703680
783.500000 -0.672908
783.500000 -0.641292
783.500000 -0.608833
783.500000 -0.575531
783.500000 -0.541386
783.500000 -0.506398
783.500000 -0.470567
783.500000 -0.433893
783.500000 -0.396376
783.500000 -0.358015
783.500000 -0.318812
783.500000 -0.278765
783.500000 -0.237876
783.500000 -0.196143
783.500000 -0.153567
783.500000 -0.110148
783.500000 -0.065886
783.500000 -0.020781
783.500000 0.025167
783.500000 0.071958
783.500000 0.119593
783.500000 0.168070
783.500000 0.217391
783.500000 0.267554
783.500000 0.318561
783.500000 0.370411
783.500000 0.423104
783.500000 0.476640
783.500000 0.531019
783.500000 0.586241
783.500000 0.642306
783.500000 0.699214
783.500000 0.756966
783.500000 0.815560
783.500000 0.874998
783.500000 0.935278
783.500000 0.996402
783.500000 1.058369
783.500000 1.121179
783.500000 1.184832
783.500000 1.249328
783.500000 1.314667
783.500000 1.380849
783.500000 1.447874
783.500000 1.515743
783.500000 1.584454
783.500000 1.654009
783.500000 1.724406
783.500000 1.795647
783.500000 1.867731
783.500000 1.940658
783.500000 2.014428
783.500000 2.089041
783.500000 2.164497
783.500000 2.240796
783.500000 2.317939
783.500000 2.395924
783.500000 2.474753
783.500000 2.554424
783.500000 2.634939
783.500000 2.716297
783.500000 2.798498
783.500000 2.881542
783.500000 2.965429
783.500000 3.050159
783.500000 3.135732
783.500000 3.222148
783.500000 3.309408
783.500000 3.397510
783.500000 3.486456
783.500000 3.576244
783.500000 3.666876
783.500000 3.758351
783.500000 3.850669
783.500000 3.943830
783.500000 4.037834
783.500000 4.132681
783.500000 4.228371
783.500000 4.324904
783.500000 4.422281
783.500000 4.520500
783.500000 4.619563
783.500000 4.719468
783.500000 4.820217
783.500000 4.921809
783.500000 5.024244
783.500000 5.127522
783.500000 5.231643
783.500000 5.336607
783.500000 5.442414
783.500000 5.549065
783.500000 5.656558
783.500000 5.764895
783.500000 5.874074
783.500000 5.984097
783.500000 6.094963
783.500000 6.206672
783.500000 6.319224
783.500000 6.432619
783.500000 6.546857
783.500000 6.661938
783.500000 6.777862
783.500000 6.894630
783.500000 7.012240
783.500000 7.130694
783.500000 7.249990
783.500000 7.370130
783.500000 7.491113
783.500000 7.612939
783.500000 7.735608
783.500000 7.859120
783.500000 7.983475
783.500000 8.108673
783.500000 8.234714
783.500000 8.361599
783.500000 8.489326
783.500000 8.617897
783.500000 8.747310
783.500000 8.877567
783.500000 9.008667
783.500000 9.140610
783.500000 9.273396
783.500000 9.407025
783.500000 9.541497
783.500000 9.676812
783.500000 9.812971
783.500000 9.949972
783.500000 10.087817
783.500000 10.226504
783.500000 10.366035
783.500000 10.506409
783.500000 10.647626
783.500000 10.789686
783.500000 10.932589
783.500000 11.076335
783.500000 11.220924
783.500000 11.366356
783.500000 11.512632
783.500000 11.659750
783.500000 11.807712
783.500000 11.956516
783.500000 12.106164
783.500000 12.256655
783.500000 12.407989
783.500000 12.560166
783.500000 12.713186
783.500000 12.867049
783.500000 13.021755
783.500000 13.177304
783.500000 13.333697
783.500000 13.490932
783.500000 13.649011
783.500000 13.807933
783.500000 13.967697
783.500000 14.128305
783.500000 14.289756
783.500000 14.452050
783.500000 14.615187
783.500000 14.779167
783.500000 14.943991
783.500000 15.109657
783.500000 15.276166
783.500000 15.443519
783.500000 15.611714
783.500000 15.780753
783.500000 15.950635
783.500000 16.121360
783.500000 16.292928
783.500000 16.465339
783.500000 16.638593
783.500000 16.812690
783.500000 16.987630
783.500000 17.163414
783.500000 17.340040
783.500000 17.517510
783.500000 17.695822
783.500000 17.874978
783.500000 18.054977
783.500000 18.235819
783.500000 18.417504
783.500000 18.600032
783.500000 18.783403
783.500000 18.967617
783.500000 19.152674
783.500000 19.338575
783.500000 19.525318
783.500000 19.712905
783.500000 19.901335
783.500000 20.090607
783.500000 20.280723
783.500000 20.471682
783.500000 20.663484
783.500000 20.856129
783.500000 21.049617
783.500000 21.243949
783.500000 21.439123
783.500000 21.635140
783.500000 21.832001
783.500000 22.029704
783.500000 22.228251
783.500000 22.427641
783.500000 22.627874
783.500000 22.828950
783.500000 23.030869
783.500000 23.233631
783.500000 23.437236
783.500000 23.641684
783.500000 23.846976
783.500000 24.053110
783.500000 24.260088
783.500000 24.467908
783.500000 24.676572
783.500000 24.886079
783.500000 25.096429
783.500000 25.307622
783.500000 25.519658
783.500000 25.732537
783.500000 25.946259
783.500000 26.160825
783.500000 26.376233
783.500000 26.592484
783.500000 26.809579
783.500000 27.027517
783.500000 27.246297
783.500000 27.465921
783.500000 27.686388
783.500000 27.907698
783.500000 28.129851
783.500000 28.352847
783.500000 28.576687
783.500000 28.801369
783.500000 29.026894
783.500000 29.253263
783.500000 29.480475
783.500000 29.708529
783.500000 29.937427
783.500000 30.167168
783.500000 30.397752
783.500000 30.629179
783.500000 30.861449
783.500000 31.094562
783.500000 31.328518
783.500000 31.563318
783.500000 31.798960
783.500000 32.035446
783.500000 32.272774
783.500000 32.510946
783.500000 32.749961
783.500000 32.989819
783.500000 33.230520
783.500000 33.472064
783.500000 33.714451
783.500000 33.957681
783.500000 34.201755
783.500000 34.446671
783.500000 34.692430
783.500000 34.939033
783.500000 35.186479
783.500000 35.434767
783.500000 35.683899
783.500000 35.933874
783.500000 36.184692
783.500000 36.436353
783.500000 36.688857
783.500000 36.942205
783.500000 37.196395
783.500000 37.451429
783.500000 37.707305
783.500000 37.964025
783.500000 38.221587
783.500000 38.479993
783.500000 38.739242
783.500000 38.999334
783.500000 39.260269
783.500000 39.522047
783.500000 39.784668
783.500000 40.048133
783.500000 40.312440
783.500000 40.577590
783.500000 40.843584
783.500000 41.110421
783.500000 41.378100
783.500000 41.646623
783.500000 41.915989
783.500000 42.186198
783.500000 42.457250
783.500000 42.729145
783.500000 43.001883
783.500000 43.275465
783.500000 43.549889
783.500000 43.825157
783.500000 44.101267
783.500000 44.378221
783.500000 44.656018
783.500000 44.934657
783.500000 45.214140
783.500000 45.494466
783.500000 45.775635
783.500000 46.057648
783.500000 46.340503
783.500000 46.624201
783.500000 46.908743
783.500000 47.194127
783.500000 47.480355
783.500000 47.767425
783.500000 48.055339
783.500000 48.344096
783.500000 48.633696
783.500000 48.924139
783.500000 49.215425
783.500000 49.507554
783.500000 49.800527
783.500000 50.094342
783.500000 50.389000
783.500000 50.684502
783.500000 50.980847
783.500000 51.278034
783.500000 51.576065
783.500000 51.874939
783.500000 52.174656
783.500000 52.475216
783.500000 52.776619
783.500000 53.078865
783.500000 53.381955
783.500000 53.685887
783.500000 53.990663
783.500000 54.296281
783.500000 54.602743
783.500000 54.910048
783.500000 55.218195
783.500000 55.527186
783.500000 55.837020
783.500000 56.147697
783.500000 56.459218
783.500000 56.771581
783.500000 57.084787
783.500000 57.398837
783.500000 57.713729
783.500000 58.029465
783.500000 58.346043
783.500000 58.663465
783.500000 58.981730
783.500000 59.300838
783.500000 59.620789
783.500000 59.941583
783.500000 60.263220
783.500000 60.585701
783.500000 60.909024
783.500000 61.233191
783.500000 61.558200
783.500000 61.884053
783.500000 62.210748
783.500000 62.538287
783.500000 62.866669
783.500000 63.195894
783.500000 63.525962
783.500000 63.856873
783.500000 64.188628
783.500000 64.521225
783.500000 64.854665
783.500000 65.188949
783.500000 65.524075
783.500000 65.860045
783.500000 66.196858
783.500000 66.534514
783.500000 66.873012
783.500000 67.212354
783.500000 67.552540
783.500000 67.893568
783.500000 68.235439
783.500000 68.578153
783.500000 68.921711
783.500000 69.266111
783.500000 69.611355
783.500000 69.957442
783.500000 70.304371
783.500000 70.652144
783.500000 71.000760
783.500000 71.350219
783.500000 71.700521
783.500000 72.051667
783.500000 72.403655
783.500000 72.756486
783.500000 73.110161
783.500000 73.464678
783.500000 73.820039
783.500000 74.176243
783.500000 74.533289
783.500000 74.891179
783.500000 75.249912
783.500000 75.609488
783.500000 75.969907
783.500000 76.331170
783.500000 76.693275
783.500000 77.056223
783.500000 77.420015
783.500000 77.784649
783.500000 78.150127
783.500000 78.516448
783.500000 78.883612
783.500000 79.251619
783.500000 79.620469
783.500000 79.990162
783.500000 80.360698
783.500000 80.732077
783.500000 81.104299
783.500000 81.477365
783.500000 81.851273
783.500000 82.226025
783.500000 82.601620
783.500000 82.978057
783.500000 83.355338
783.500000 83.733462
783.500000 84.112429
783.500000 84.492239
783.500000 84.872893
783.500000 85.254389
783.500000 85.636728
783.500000 86.019911
783.500000 86.403936
783.500000 86.788805
783.500000 87.174517
783.500000 87.561071
783.500000 87.948469
783.500000 88.336710
783.500000 88.725794
783.500000 89.115722
783.500000 89.506492
783.500000 89.898105
783.500000 90.290561
783.500000 90.683861
783.500000 91.078004
783.500000 91.472989
783.500000 91.868818
783.500000 92.265490
783.500000 92.663005
783.500000 93.061363
783.500000 93.460564
783.500000 93.860608
783.500000 94.261495
783.500000 94.663226
783.500000 95.065799
783.500000 95.469216
783.500000 95.873475
783.500000 96.278578
783.500000 96.684524
783.500000 97.091312
783.500000 97.498944
783.500000 97.907419
783.500000 98.316738
783.500000 98.726899
783.500000 99.137903
783.500000 99.549750
783.500000 99.962441
783.500000 100.375974
783.500000 100.790351
783.500000 101.205571
783.500000 101.621634
783.500000 102.038539
783.500000 102.456288
783.500000 102.874881
783.500000 103.294316
783.500000 103.714594
783.500000 104.135715
783.500000 104.557680
783.500000 104.980487
783.500000 105.404138
783.500000 105.828631
783.500000 106.253968
783.500000 106.680148
783.500000 107.107171
783.500000 107.535037
783.500000 107.963746
783.500000 108.393298
783.500000 108.823693
783.500000 109.254932
783.500000 109.687013
783.500000 110.119938
783.500000 110.553705
783.500000 110.988316
783.500000 111.423770
783.500000 111.860067
783.500000 112.297207
783.500000 112.735190
783.500000 113.174016
783.500000 113.613685
783.500000 114.054197
783.500000 114.495553
783.500000 114.937751
783.500000 115.380793
783.500000 115.824677
783.500000 116.269405
783.500000 116.714976
783.500000 117.161390
783.500000 117.608647
783.500000 118.056747
783.500000 118.505690
783.500000 118.955476
783.500000 119.406105
783.500000 119.857578
783.500000 120.309893
783.500000 120.763052
783.500000 121.217053
783.500000 121.671898
783.500000 122.127586
783.500000 122.584117
783.500000 123.041491
783.500000 123.499708
783.500000 123.958768
783.500000 124.418671
783.500000 124.879418
783.500000 125.341007
783.500000 125.803440
783.500000 126.266715
783.500000 126.730834
783.500000 127.195796
783.500000 127.661601
783.500000 128.128249
783.500000 128.595740
783.500000 129.064074
783.500000 129.533251
783.500000 130.003271
783.500000 130.474135
783.500000 130.945841
783.500000 131.418391
783.500000 131.891783
783.500000 132.366019
783.500000 132.841098
783.500000 133.317020
783.500000 133.793785
783.500000 134.271393
783.500000 134.749844
783.500000 135.229138
783.500000 135.709275
783.500000 136.190256
783.500000 136.672079
783.500000 137.154746
783.500000 137.638256
783.500000 138.122608
783.500000 138.607804
783.500000 139.093843
783.500000 139.580725
783.500000 140.068450
783.500000 140.557018
783.500000 141.046430
783.500000 141.536684
783.500000 142.027781
783.500000 142.519722
783.500000 143.012506
783.500000 143.506132
783.500000 144.000602
783.500000 144.495915
783.500000 144.992071
783.500000 145.489070
783.500000 145.986912
783.500000 146.485597
783.500000 146.985125
783.500000 147.485497
783.500000 147.986711
783.500000 148.488769
783.500000 148.991669
783.500000 149.495413
783.500000 150.000000
</POINTS>
</NEKTAR>

