<?xml version="1.0" encoding="utf-8" ?>
<NEKTAR>
<POINTS DIM="2" FIELDS="">
583.500000 -1.250000
583.500000 -1.249578
583.500000 -1.248314
583.500000 -1.246206
583.500000 -1.243255
583.500000 -1.239461
583.500000 -1.234824
583.500000 -1.229344
583.500000 -1.223021
583.500000 -1.215855
583.500000 -1.207846
583.500000 -1.198993
583.500000 -1.189298
583.500000 -1.178759
583.500000 -1.167378
583.500000 -1.155153
583.500000 -1.142085
583.500000 -1.128174
583.500000 -1.113420
583.500000 -1.097823
583.500000 -1.081383
583.500000 -1.064100
583.500000 -1.045973
583.500000 -1.027004
583.500000 -1.007191
583.500000 -0.986536
583.500000 -0.965037
583.500000 -0.942695
583.500000 -0.919510
583.500000 -0.895482
583.500000 -0.870611
583.500000 -0.844897
583.500000 -0.818340
583.500000 -0.790940
583.500000 -0.762696
583.500000 -0.733610
583.500000 -0.703680
583.500000 -0.672908
583.500000 -0.641292
583.500000 -0.608833
583.500000 -0.575531
583.500000 -0.541386
583.500000 -0.506398
583.500000 -0.470567
583.500000 -0.433893
583.500000 -0.396376
583.500000 -0.358015
583.500000 -0.318812
583.500000 -0.278765
583.500000 -0.237876
583.500000 -0.196143
583.500000 -0.153567
583.500000 -0.110148
583.500000 -0.065886
583.500000 -0.020781
583.500000 0.025167
583.500000 0.071958
583.500000 0.119593
583.500000 0.168070
583.500000 0.217391
583.500000 0.267554
583.500000 0.318561
583.500000 0.370411
583.500000 0.423104
583.500000 0.476640
583.500000 0.531019
583.500000 0.586241
583.500000 0.642306
583.500000 0.699214
583.500000 0.756966
583.500000 0.815560
583.500000 0.874998
583.500000 0.935278
583.500000 0.996402
583.500000 1.058369
583.500000 1.121179
583.500000 1.184832
583.500000 1.249328
583.500000 1.314667
583.500000 1.380849
583.500000 1.447874
583.500000 1.515743
583.500000 1.584454
583.500000 1.654009
583.500000 1.724406
583.500000 1.795647
583.500000 1.867731
583.500000 1.940658
583.500000 2.014428
583.500000 2.089041
583.500000 2.164497
583.500000 2.240796
583.500000 2.317939
583.500000 2.395924
583.500000 2.474753
583.500000 2.554424
583.500000 2.634939
583.500000 2.716297
583.500000 2.798498
583.500000 2.881542
583.500000 2.965429
583.500000 3.050159
583.500000 3.135732
583.500000 3.222148
583.500000 3.309408
583.500000 3.397510
583.500000 3.486456
583.500000 3.576244
583.500000 3.666876
583.500000 3.758351
583.500000 3.850669
583.500000 3.943830
583.500000 4.037834
583.500000 4.132681
583.500000 4.228371
583.500000 4.324904
583.500000 4.422281
583.500000 4.520500
583.500000 4.619563
583.500000 4.719468
583.500000 4.820217
583.500000 4.921809
583.500000 5.024244
583.500000 5.127522
583.500000 5.231643
583.500000 5.336607
583.500000 5.442414
583.500000 5.549065
583.500000 5.656558
583.500000 5.764895
583.500000 5.874074
583.500000 5.984097
583.500000 6.094963
583.500000 6.206672
583.500000 6.319224
583.500000 6.432619
583.500000 6.546857
583.500000 6.661938
583.500000 6.777862
583.500000 6.894630
583.500000 7.012240
583.500000 7.130694
583.500000 7.249990
583.500000 7.370130
583.500000 7.491113
583.500000 7.612939
583.500000 7.735608
583.500000 7.859120
583.500000 7.983475
583.500000 8.108673
583.500000 8.234714
583.500000 8.361599
583.500000 8.489326
583.500000 8.617897
583.500000 8.747310
583.500000 8.877567
583.500000 9.008667
583.500000 9.140610
583.500000 9.273396
583.500000 9.407025
583.500000 9.541497
583.500000 9.676812
583.500000 9.812971
583.500000 9.949972
583.500000 10.087817
583.500000 10.226504
583.500000 10.366035
583.500000 10.506409
583.500000 10.647626
583.500000 10.789686
583.500000 10.932589
583.500000 11.076335
583.500000 11.220924
583.500000 11.366356
583.500000 11.512632
583.500000 11.659750
583.500000 11.807712
583.500000 11.956516
583.500000 12.106164
583.500000 12.256655
583.500000 12.407989
583.500000 12.560166
583.500000 12.713186
583.500000 12.867049
583.500000 13.021755
583.500000 13.177304
583.500000 13.333697
583.500000 13.490932
583.500000 13.649011
583.500000 13.807933
583.500000 13.967697
583.500000 14.128305
583.500000 14.289756
583.500000 14.452050
583.500000 14.615187
583.500000 14.779167
583.500000 14.943991
583.500000 15.109657
583.500000 15.276166
583.500000 15.443519
583.500000 15.611714
583.500000 15.780753
583.500000 15.950635
583.500000 16.121360
583.500000 16.292928
583.500000 16.465339
583.500000 16.638593
583.500000 16.812690
583.500000 16.987630
583.500000 17.163414
583.500000 17.340040
583.500000 17.517510
583.500000 17.695822
583.500000 17.874978
583.500000 18.054977
583.500000 18.235819
583.500000 18.417504
583.500000 18.600032
583.500000 18.783403
583.500000 18.967617
583.500000 19.152674
583.500000 19.338575
583.500000 19.525318
583.500000 19.712905
583.500000 19.901335
583.500000 20.090607
583.500000 20.280723
583.500000 20.471682
583.500000 20.663484
583.500000 20.856129
583.500000 21.049617
583.500000 21.243949
583.500000 21.439123
583.500000 21.635140
583.500000 21.832001
583.500000 22.029704
583.500000 22.228251
583.500000 22.427641
583.500000 22.627874
583.500000 22.828950
583.500000 23.030869
583.500000 23.233631
583.500000 23.437236
583.500000 23.641684
583.500000 23.846976
583.500000 24.053110
583.500000 24.260088
583.500000 24.467908
583.500000 24.676572
583.500000 24.886079
583.500000 25.096429
583.500000 25.307622
583.500000 25.519658
583.500000 25.732537
583.500000 25.946259
583.500000 26.160825
583.500000 26.376233
583.500000 26.592484
583.500000 26.809579
583.500000 27.027517
583.500000 27.246297
583.500000 27.465921
583.500000 27.686388
583.500000 27.907698
583.500000 28.129851
583.500000 28.352847
583.500000 28.576687
583.500000 28.801369
583.500000 29.026894
583.500000 29.253263
583.500000 29.480475
583.500000 29.708529
583.500000 29.937427
583.500000 30.167168
583.500000 30.397752
583.500000 30.629179
583.500000 30.861449
583.500000 31.094562
583.500000 31.328518
583.500000 31.563318
583.500000 31.798960
583.500000 32.035446
583.500000 32.272774
583.500000 32.510946
583.500000 32.749961
583.500000 32.989819
583.500000 33.230520
583.500000 33.472064
583.500000 33.714451
583.500000 33.957681
583.500000 34.201755
583.500000 34.446671
583.500000 34.692430
583.500000 34.939033
583.500000 35.186479
583.500000 35.434767
583.500000 35.683899
583.500000 35.933874
583.500000 36.184692
583.500000 36.436353
583.500000 36.688857
583.500000 36.942205
583.500000 37.196395
583.500000 37.451429
583.500000 37.707305
583.500000 37.964025
583.500000 38.221587
583.500000 38.479993
583.500000 38.739242
583.500000 38.999334
583.500000 39.260269
583.500000 39.522047
583.500000 39.784668
583.500000 40.048133
583.500000 40.312440
583.500000 40.577590
583.500000 40.843584
583.500000 41.110421
583.500000 41.378100
583.500000 41.646623
583.500000 41.915989
583.500000 42.186198
583.500000 42.457250
583.500000 42.729145
583.500000 43.001883
583.500000 43.275465
583.500000 43.549889
583.500000 43.825157
583.500000 44.101267
583.500000 44.378221
583.500000 44.656018
583.500000 44.934657
583.500000 45.214140
583.500000 45.494466
583.500000 45.775635
583.500000 46.057648
583.500000 46.340503
583.500000 46.624201
583.500000 46.908743
583.500000 47.194127
583.500000 47.480355
583.500000 47.767425
583.500000 48.055339
583.500000 48.344096
583.500000 48.633696
583.500000 48.924139
583.500000 49.215425
583.500000 49.507554
583.500000 49.800527
583.500000 50.094342
583.500000 50.389000
583.500000 50.684502
583.500000 50.980847
583.500000 51.278034
583.500000 51.576065
583.500000 51.874939
583.500000 52.174656
583.500000 52.475216
583.500000 52.776619
583.500000 53.078865
583.500000 53.381955
583.500000 53.685887
583.500000 53.990663
583.500000 54.296281
583.500000 54.602743
583.500000 54.910048
583.500000 55.218195
583.500000 55.527186
583.500000 55.837020
583.500000 56.147697
583.500000 56.459218
583.500000 56.771581
583.500000 57.084787
583.500000 57.398837
583.500000 57.713729
583.500000 58.029465
583.500000 58.346043
583.500000 58.663465
583.500000 58.981730
583.500000 59.300838
583.500000 59.620789
583.500000 59.941583
583.500000 60.263220
583.500000 60.585701
583.500000 60.909024
583.500000 61.233191
583.500000 61.558200
583.500000 61.884053
583.500000 62.210748
583.500000 62.538287
583.500000 62.866669
583.500000 63.195894
583.500000 63.525962
583.500000 63.856873
583.500000 64.188628
583.500000 64.521225
583.500000 64.854665
583.500000 65.188949
583.500000 65.524075
583.500000 65.860045
583.500000 66.196858
583.500000 66.534514
583.500000 66.873012
583.500000 67.212354
583.500000 67.552540
583.500000 67.893568
583.500000 68.235439
583.500000 68.578153
583.500000 68.921711
583.500000 69.266111
583.500000 69.611355
583.500000 69.957442
583.500000 70.304371
583.500000 70.652144
583.500000 71.000760
583.500000 71.350219
583.500000 71.700521
583.500000 72.051667
583.500000 72.403655
583.500000 72.756486
583.500000 73.110161
583.500000 73.464678
583.500000 73.820039
583.500000 74.176243
583.500000 74.533289
583.500000 74.891179
583.500000 75.249912
583.500000 75.609488
583.500000 75.969907
583.500000 76.331170
583.500000 76.693275
583.500000 77.056223
583.500000 77.420015
583.500000 77.784649
583.500000 78.150127
583.500000 78.516448
583.500000 78.883612
583.500000 79.251619
583.500000 79.620469
583.500000 79.990162
583.500000 80.360698
583.500000 80.732077
583.500000 81.104299
583.500000 81.477365
583.500000 81.851273
583.500000 82.226025
583.500000 82.601620
583.500000 82.978057
583.500000 83.355338
583.500000 83.733462
583.500000 84.112429
583.500000 84.492239
583.500000 84.872893
583.500000 85.254389
583.500000 85.636728
583.500000 86.019911
583.500000 86.403936
583.500000 86.788805
583.500000 87.174517
583.500000 87.561071
583.500000 87.948469
583.500000 88.336710
583.500000 88.725794
583.500000 89.115722
583.500000 89.506492
583.500000 89.898105
583.500000 90.290561
583.500000 90.683861
583.500000 91.078004
583.500000 91.472989
583.500000 91.868818
583.500000 92.265490
583.500000 92.663005
583.500000 93.061363
583.500000 93.460564
583.500000 93.860608
583.500000 94.261495
583.500000 94.663226
583.500000 95.065799
583.500000 95.469216
583.500000 95.873475
583.500000 96.278578
583.500000 96.684524
583.500000 97.091312
583.500000 97.498944
583.500000 97.907419
583.500000 98.316738
583.500000 98.726899
583.500000 99.137903
583.500000 99.549750
583.500000 99.962441
583.500000 100.375974
583.500000 100.790351
583.500000 101.205571
583.500000 101.621634
583.500000 102.038539
583.500000 102.456288
583.500000 102.874881
583.500000 103.294316
583.500000 103.714594
583.500000 104.135715
583.500000 104.557680
583.500000 104.980487
583.500000 105.404138
583.500000 105.828631
583.500000 106.253968
583.500000 106.680148
583.500000 107.107171
583.500000 107.535037
583.500000 107.963746
583.500000 108.393298
583.500000 108.823693
583.500000 109.254932
583.500000 109.687013
583.500000 110.119938
583.500000 110.553705
583.500000 110.988316
583.500000 111.423770
583.500000 111.860067
583.500000 112.297207
583.500000 112.735190
583.500000 113.174016
583.500000 113.613685
583.500000 114.054197
583.500000 114.495553
583.500000 114.937751
583.500000 115.380793
583.500000 115.824677
583.500000 116.269405
583.500000 116.714976
583.500000 117.161390
583.500000 117.608647
583.500000 118.056747
583.500000 118.505690
583.500000 118.955476
583.500000 119.406105
583.500000 119.857578
583.500000 120.309893
583.500000 120.763052
583.500000 121.217053
583.500000 121.671898
583.500000 122.127586
583.500000 122.584117
583.500000 123.041491
583.500000 123.499708
583.500000 123.958768
583.500000 124.418671
583.500000 124.879418
583.500000 125.341007
583.500000 125.803440
583.500000 126.266715
583.500000 126.730834
583.500000 127.195796
583.500000 127.661601
583.500000 128.128249
583.500000 128.595740
583.500000 129.064074
583.500000 129.533251
583.500000 130.003271
583.500000 130.474135
583.500000 130.945841
583.500000 131.418391
583.500000 131.891783
583.500000 132.366019
583.500000 132.841098
583.500000 133.317020
583.500000 133.793785
583.500000 134.271393
583.500000 134.749844
583.500000 135.229138
583.500000 135.709275
583.500000 136.190256
583.500000 136.672079
583.500000 137.154746
583.500000 137.638256
583.500000 138.122608
583.500000 138.607804
583.500000 139.093843
583.500000 139.580725
583.500000 140.068450
583.500000 140.557018
583.500000 141.046430
583.500000 141.536684
583.500000 142.027781
583.500000 142.519722
583.500000 143.012506
583.500000 143.506132
583.500000 144.000602
583.500000 144.495915
583.500000 144.992071
583.500000 145.489070
583.500000 145.986912
583.500000 146.485597
583.500000 146.985125
583.500000 147.485497
583.500000 147.986711
583.500000 148.488769
583.500000 148.991669
583.500000 149.495413
583.500000 150.000000
</POINTS>
</NEKTAR>

