<?xml version="1.0" encoding="utf-8" ?>
<NEKTAR>
<POINTS DIM="2" FIELDS="">
283.500000 -1.250000
283.500000 -1.249578
283.500000 -1.248314
283.500000 -1.246206
283.500000 -1.243255
283.500000 -1.239461
283.500000 -1.234824
283.500000 -1.229344
283.500000 -1.223021
283.500000 -1.215855
283.500000 -1.207846
283.500000 -1.198993
283.500000 -1.189298
283.500000 -1.178759
283.500000 -1.167378
283.500000 -1.155153
283.500000 -1.142085
283.500000 -1.128174
283.500000 -1.113420
283.500000 -1.097823
283.500000 -1.081383
283.500000 -1.064100
283.500000 -1.045973
283.500000 -1.027004
283.500000 -1.007191
283.500000 -0.986536
283.500000 -0.965037
283.500000 -0.942695
283.500000 -0.919510
283.500000 -0.895482
283.500000 -0.870611
283.500000 -0.844897
283.500000 -0.818340
283.500000 -0.790940
283.500000 -0.762696
283.500000 -0.733610
283.500000 -0.703680
283.500000 -0.672908
283.500000 -0.641292
283.500000 -0.608833
283.500000 -0.575531
283.500000 -0.541386
283.500000 -0.506398
283.500000 -0.470567
283.500000 -0.433893
283.500000 -0.396376
283.500000 -0.358015
283.500000 -0.318812
283.500000 -0.278765
283.500000 -0.237876
283.500000 -0.196143
283.500000 -0.153567
283.500000 -0.110148
283.500000 -0.065886
283.500000 -0.020781
283.500000 0.025167
283.500000 0.071958
283.500000 0.119593
283.500000 0.168070
283.500000 0.217391
283.500000 0.267554
283.500000 0.318561
283.500000 0.370411
283.500000 0.423104
283.500000 0.476640
283.500000 0.531019
283.500000 0.586241
283.500000 0.642306
283.500000 0.699214
283.500000 0.756966
283.500000 0.815560
283.500000 0.874998
283.500000 0.935278
283.500000 0.996402
283.500000 1.058369
283.500000 1.121179
283.500000 1.184832
283.500000 1.249328
283.500000 1.314667
283.500000 1.380849
283.500000 1.447874
283.500000 1.515743
283.500000 1.584454
283.500000 1.654009
283.500000 1.724406
283.500000 1.795647
283.500000 1.867731
283.500000 1.940658
283.500000 2.014428
283.500000 2.089041
283.500000 2.164497
283.500000 2.240796
283.500000 2.317939
283.500000 2.395924
283.500000 2.474753
283.500000 2.554424
283.500000 2.634939
283.500000 2.716297
283.500000 2.798498
283.500000 2.881542
283.500000 2.965429
283.500000 3.050159
283.500000 3.135732
283.500000 3.222148
283.500000 3.309408
283.500000 3.397510
283.500000 3.486456
283.500000 3.576244
283.500000 3.666876
283.500000 3.758351
283.500000 3.850669
283.500000 3.943830
283.500000 4.037834
283.500000 4.132681
283.500000 4.228371
283.500000 4.324904
283.500000 4.422281
283.500000 4.520500
283.500000 4.619563
283.500000 4.719468
283.500000 4.820217
283.500000 4.921809
283.500000 5.024244
283.500000 5.127522
283.500000 5.231643
283.500000 5.336607
283.500000 5.442414
283.500000 5.549065
283.500000 5.656558
283.500000 5.764895
283.500000 5.874074
283.500000 5.984097
283.500000 6.094963
283.500000 6.206672
283.500000 6.319224
283.500000 6.432619
283.500000 6.546857
283.500000 6.661938
283.500000 6.777862
283.500000 6.894630
283.500000 7.012240
283.500000 7.130694
283.500000 7.249990
283.500000 7.370130
283.500000 7.491113
283.500000 7.612939
283.500000 7.735608
283.500000 7.859120
283.500000 7.983475
283.500000 8.108673
283.500000 8.234714
283.500000 8.361599
283.500000 8.489326
283.500000 8.617897
283.500000 8.747310
283.500000 8.877567
283.500000 9.008667
283.500000 9.140610
283.500000 9.273396
283.500000 9.407025
283.500000 9.541497
283.500000 9.676812
283.500000 9.812971
283.500000 9.949972
283.500000 10.087817
283.500000 10.226504
283.500000 10.366035
283.500000 10.506409
283.500000 10.647626
283.500000 10.789686
283.500000 10.932589
283.500000 11.076335
283.500000 11.220924
283.500000 11.366356
283.500000 11.512632
283.500000 11.659750
283.500000 11.807712
283.500000 11.956516
283.500000 12.106164
283.500000 12.256655
283.500000 12.407989
283.500000 12.560166
283.500000 12.713186
283.500000 12.867049
283.500000 13.021755
283.500000 13.177304
283.500000 13.333697
283.500000 13.490932
283.500000 13.649011
283.500000 13.807933
283.500000 13.967697
283.500000 14.128305
283.500000 14.289756
283.500000 14.452050
283.500000 14.615187
283.500000 14.779167
283.500000 14.943991
283.500000 15.109657
283.500000 15.276166
283.500000 15.443519
283.500000 15.611714
283.500000 15.780753
283.500000 15.950635
283.500000 16.121360
283.500000 16.292928
283.500000 16.465339
283.500000 16.638593
283.500000 16.812690
283.500000 16.987630
283.500000 17.163414
283.500000 17.340040
283.500000 17.517510
283.500000 17.695822
283.500000 17.874978
283.500000 18.054977
283.500000 18.235819
283.500000 18.417504
283.500000 18.600032
283.500000 18.783403
283.500000 18.967617
283.500000 19.152674
283.500000 19.338575
283.500000 19.525318
283.500000 19.712905
283.500000 19.901335
283.500000 20.090607
283.500000 20.280723
283.500000 20.471682
283.500000 20.663484
283.500000 20.856129
283.500000 21.049617
283.500000 21.243949
283.500000 21.439123
283.500000 21.635140
283.500000 21.832001
283.500000 22.029704
283.500000 22.228251
283.500000 22.427641
283.500000 22.627874
283.500000 22.828950
283.500000 23.030869
283.500000 23.233631
283.500000 23.437236
283.500000 23.641684
283.500000 23.846976
283.500000 24.053110
283.500000 24.260088
283.500000 24.467908
283.500000 24.676572
283.500000 24.886079
283.500000 25.096429
283.500000 25.307622
283.500000 25.519658
283.500000 25.732537
283.500000 25.946259
283.500000 26.160825
283.500000 26.376233
283.500000 26.592484
283.500000 26.809579
283.500000 27.027517
283.500000 27.246297
283.500000 27.465921
283.500000 27.686388
283.500000 27.907698
283.500000 28.129851
283.500000 28.352847
283.500000 28.576687
283.500000 28.801369
283.500000 29.026894
283.500000 29.253263
283.500000 29.480475
283.500000 29.708529
283.500000 29.937427
283.500000 30.167168
283.500000 30.397752
283.500000 30.629179
283.500000 30.861449
283.500000 31.094562
283.500000 31.328518
283.500000 31.563318
283.500000 31.798960
283.500000 32.035446
283.500000 32.272774
283.500000 32.510946
283.500000 32.749961
283.500000 32.989819
283.500000 33.230520
283.500000 33.472064
283.500000 33.714451
283.500000 33.957681
283.500000 34.201755
283.500000 34.446671
283.500000 34.692430
283.500000 34.939033
283.500000 35.186479
283.500000 35.434767
283.500000 35.683899
283.500000 35.933874
283.500000 36.184692
283.500000 36.436353
283.500000 36.688857
283.500000 36.942205
283.500000 37.196395
283.500000 37.451429
283.500000 37.707305
283.500000 37.964025
283.500000 38.221587
283.500000 38.479993
283.500000 38.739242
283.500000 38.999334
283.500000 39.260269
283.500000 39.522047
283.500000 39.784668
283.500000 40.048133
283.500000 40.312440
283.500000 40.577590
283.500000 40.843584
283.500000 41.110421
283.500000 41.378100
283.500000 41.646623
283.500000 41.915989
283.500000 42.186198
283.500000 42.457250
283.500000 42.729145
283.500000 43.001883
283.500000 43.275465
283.500000 43.549889
283.500000 43.825157
283.500000 44.101267
283.500000 44.378221
283.500000 44.656018
283.500000 44.934657
283.500000 45.214140
283.500000 45.494466
283.500000 45.775635
283.500000 46.057648
283.500000 46.340503
283.500000 46.624201
283.500000 46.908743
283.500000 47.194127
283.500000 47.480355
283.500000 47.767425
283.500000 48.055339
283.500000 48.344096
283.500000 48.633696
283.500000 48.924139
283.500000 49.215425
283.500000 49.507554
283.500000 49.800527
283.500000 50.094342
283.500000 50.389000
283.500000 50.684502
283.500000 50.980847
283.500000 51.278034
283.500000 51.576065
283.500000 51.874939
283.500000 52.174656
283.500000 52.475216
283.500000 52.776619
283.500000 53.078865
283.500000 53.381955
283.500000 53.685887
283.500000 53.990663
283.500000 54.296281
283.500000 54.602743
283.500000 54.910048
283.500000 55.218195
283.500000 55.527186
283.500000 55.837020
283.500000 56.147697
283.500000 56.459218
283.500000 56.771581
283.500000 57.084787
283.500000 57.398837
283.500000 57.713729
283.500000 58.029465
283.500000 58.346043
283.500000 58.663465
283.500000 58.981730
283.500000 59.300838
283.500000 59.620789
283.500000 59.941583
283.500000 60.263220
283.500000 60.585701
283.500000 60.909024
283.500000 61.233191
283.500000 61.558200
283.500000 61.884053
283.500000 62.210748
283.500000 62.538287
283.500000 62.866669
283.500000 63.195894
283.500000 63.525962
283.500000 63.856873
283.500000 64.188628
283.500000 64.521225
283.500000 64.854665
283.500000 65.188949
283.500000 65.524075
283.500000 65.860045
283.500000 66.196858
283.500000 66.534514
283.500000 66.873012
283.500000 67.212354
283.500000 67.552540
283.500000 67.893568
283.500000 68.235439
283.500000 68.578153
283.500000 68.921711
283.500000 69.266111
283.500000 69.611355
283.500000 69.957442
283.500000 70.304371
283.500000 70.652144
283.500000 71.000760
283.500000 71.350219
283.500000 71.700521
283.500000 72.051667
283.500000 72.403655
283.500000 72.756486
283.500000 73.110161
283.500000 73.464678
283.500000 73.820039
283.500000 74.176243
283.500000 74.533289
283.500000 74.891179
283.500000 75.249912
283.500000 75.609488
283.500000 75.969907
283.500000 76.331170
283.500000 76.693275
283.500000 77.056223
283.500000 77.420015
283.500000 77.784649
283.500000 78.150127
283.500000 78.516448
283.500000 78.883612
283.500000 79.251619
283.500000 79.620469
283.500000 79.990162
283.500000 80.360698
283.500000 80.732077
283.500000 81.104299
283.500000 81.477365
283.500000 81.851273
283.500000 82.226025
283.500000 82.601620
283.500000 82.978057
283.500000 83.355338
283.500000 83.733462
283.500000 84.112429
283.500000 84.492239
283.500000 84.872893
283.500000 85.254389
283.500000 85.636728
283.500000 86.019911
283.500000 86.403936
283.500000 86.788805
283.500000 87.174517
283.500000 87.561071
283.500000 87.948469
283.500000 88.336710
283.500000 88.725794
283.500000 89.115722
283.500000 89.506492
283.500000 89.898105
283.500000 90.290561
283.500000 90.683861
283.500000 91.078004
283.500000 91.472989
283.500000 91.868818
283.500000 92.265490
283.500000 92.663005
283.500000 93.061363
283.500000 93.460564
283.500000 93.860608
283.500000 94.261495
283.500000 94.663226
283.500000 95.065799
283.500000 95.469216
283.500000 95.873475
283.500000 96.278578
283.500000 96.684524
283.500000 97.091312
283.500000 97.498944
283.500000 97.907419
283.500000 98.316738
283.500000 98.726899
283.500000 99.137903
283.500000 99.549750
283.500000 99.962441
283.500000 100.375974
283.500000 100.790351
283.500000 101.205571
283.500000 101.621634
283.500000 102.038539
283.500000 102.456288
283.500000 102.874881
283.500000 103.294316
283.500000 103.714594
283.500000 104.135715
283.500000 104.557680
283.500000 104.980487
283.500000 105.404138
283.500000 105.828631
283.500000 106.253968
283.500000 106.680148
283.500000 107.107171
283.500000 107.535037
283.500000 107.963746
283.500000 108.393298
283.500000 108.823693
283.500000 109.254932
283.500000 109.687013
283.500000 110.119938
283.500000 110.553705
283.500000 110.988316
283.500000 111.423770
283.500000 111.860067
283.500000 112.297207
283.500000 112.735190
283.500000 113.174016
283.500000 113.613685
283.500000 114.054197
283.500000 114.495553
283.500000 114.937751
283.500000 115.380793
283.500000 115.824677
283.500000 116.269405
283.500000 116.714976
283.500000 117.161390
283.500000 117.608647
283.500000 118.056747
283.500000 118.505690
283.500000 118.955476
283.500000 119.406105
283.500000 119.857578
283.500000 120.309893
283.500000 120.763052
283.500000 121.217053
283.500000 121.671898
283.500000 122.127586
283.500000 122.584117
283.500000 123.041491
283.500000 123.499708
283.500000 123.958768
283.500000 124.418671
283.500000 124.879418
283.500000 125.341007
283.500000 125.803440
283.500000 126.266715
283.500000 126.730834
283.500000 127.195796
283.500000 127.661601
283.500000 128.128249
283.500000 128.595740
283.500000 129.064074
283.500000 129.533251
283.500000 130.003271
283.500000 130.474135
283.500000 130.945841
283.500000 131.418391
283.500000 131.891783
283.500000 132.366019
283.500000 132.841098
283.500000 133.317020
283.500000 133.793785
283.500000 134.271393
283.500000 134.749844
283.500000 135.229138
283.500000 135.709275
283.500000 136.190256
283.500000 136.672079
283.500000 137.154746
283.500000 137.638256
283.500000 138.122608
283.500000 138.607804
283.500000 139.093843
283.500000 139.580725
283.500000 140.068450
283.500000 140.557018
283.500000 141.046430
283.500000 141.536684
283.500000 142.027781
283.500000 142.519722
283.500000 143.012506
283.500000 143.506132
283.500000 144.000602
283.500000 144.495915
283.500000 144.992071
283.500000 145.489070
283.500000 145.986912
283.500000 146.485597
283.500000 146.985125
283.500000 147.485497
283.500000 147.986711
283.500000 148.488769
283.500000 148.991669
283.500000 149.495413
283.500000 150.000000
</POINTS>
</NEKTAR>

