<?xml version="1.0" encoding="utf-8" ?>
<NEKTAR>
<POINTS DIM="2" FIELDS="">
83.500000 -1.250000
83.500000 -1.249578
83.500000 -1.248314
83.500000 -1.246206
83.500000 -1.243255
83.500000 -1.239461
83.500000 -1.234824
83.500000 -1.229344
83.500000 -1.223021
83.500000 -1.215855
83.500000 -1.207846
83.500000 -1.198993
83.500000 -1.189298
83.500000 -1.178759
83.500000 -1.167378
83.500000 -1.155153
83.500000 -1.142085
83.500000 -1.128174
83.500000 -1.113420
83.500000 -1.097823
83.500000 -1.081383
83.500000 -1.064100
83.500000 -1.045973
83.500000 -1.027004
83.500000 -1.007191
83.500000 -0.986536
83.500000 -0.965037
83.500000 -0.942695
83.500000 -0.919510
83.500000 -0.895482
83.500000 -0.870611
83.500000 -0.844897
83.500000 -0.818340
83.500000 -0.790940
83.500000 -0.762696
83.500000 -0.733610
83.500000 -0.703680
83.500000 -0.672908
83.500000 -0.641292
83.500000 -0.608833
83.500000 -0.575531
83.500000 -0.541386
83.500000 -0.506398
83.500000 -0.470567
83.500000 -0.433893
83.500000 -0.396376
83.500000 -0.358015
83.500000 -0.318812
83.500000 -0.278765
83.500000 -0.237876
83.500000 -0.196143
83.500000 -0.153567
83.500000 -0.110148
83.500000 -0.065886
83.500000 -0.020781
83.500000 0.025167
83.500000 0.071958
83.500000 0.119593
83.500000 0.168070
83.500000 0.217391
83.500000 0.267554
83.500000 0.318561
83.500000 0.370411
83.500000 0.423104
83.500000 0.476640
83.500000 0.531019
83.500000 0.586241
83.500000 0.642306
83.500000 0.699214
83.500000 0.756966
83.500000 0.815560
83.500000 0.874998
83.500000 0.935278
83.500000 0.996402
83.500000 1.058369
83.500000 1.121179
83.500000 1.184832
83.500000 1.249328
83.500000 1.314667
83.500000 1.380849
83.500000 1.447874
83.500000 1.515743
83.500000 1.584454
83.500000 1.654009
83.500000 1.724406
83.500000 1.795647
83.500000 1.867731
83.500000 1.940658
83.500000 2.014428
83.500000 2.089041
83.500000 2.164497
83.500000 2.240796
83.500000 2.317939
83.500000 2.395924
83.500000 2.474753
83.500000 2.554424
83.500000 2.634939
83.500000 2.716297
83.500000 2.798498
83.500000 2.881542
83.500000 2.965429
83.500000 3.050159
83.500000 3.135732
83.500000 3.222148
83.500000 3.309408
83.500000 3.397510
83.500000 3.486456
83.500000 3.576244
83.500000 3.666876
83.500000 3.758351
83.500000 3.850669
83.500000 3.943830
83.500000 4.037834
83.500000 4.132681
83.500000 4.228371
83.500000 4.324904
83.500000 4.422281
83.500000 4.520500
83.500000 4.619563
83.500000 4.719468
83.500000 4.820217
83.500000 4.921809
83.500000 5.024244
83.500000 5.127522
83.500000 5.231643
83.500000 5.336607
83.500000 5.442414
83.500000 5.549065
83.500000 5.656558
83.500000 5.764895
83.500000 5.874074
83.500000 5.984097
83.500000 6.094963
83.500000 6.206672
83.500000 6.319224
83.500000 6.432619
83.500000 6.546857
83.500000 6.661938
83.500000 6.777862
83.500000 6.894630
83.500000 7.012240
83.500000 7.130694
83.500000 7.249990
83.500000 7.370130
83.500000 7.491113
83.500000 7.612939
83.500000 7.735608
83.500000 7.859120
83.500000 7.983475
83.500000 8.108673
83.500000 8.234714
83.500000 8.361599
83.500000 8.489326
83.500000 8.617897
83.500000 8.747310
83.500000 8.877567
83.500000 9.008667
83.500000 9.140610
83.500000 9.273396
83.500000 9.407025
83.500000 9.541497
83.500000 9.676812
83.500000 9.812971
83.500000 9.949972
83.500000 10.087817
83.500000 10.226504
83.500000 10.366035
83.500000 10.506409
83.500000 10.647626
83.500000 10.789686
83.500000 10.932589
83.500000 11.076335
83.500000 11.220924
83.500000 11.366356
83.500000 11.512632
83.500000 11.659750
83.500000 11.807712
83.500000 11.956516
83.500000 12.106164
83.500000 12.256655
83.500000 12.407989
83.500000 12.560166
83.500000 12.713186
83.500000 12.867049
83.500000 13.021755
83.500000 13.177304
83.500000 13.333697
83.500000 13.490932
83.500000 13.649011
83.500000 13.807933
83.500000 13.967697
83.500000 14.128305
83.500000 14.289756
83.500000 14.452050
83.500000 14.615187
83.500000 14.779167
83.500000 14.943991
83.500000 15.109657
83.500000 15.276166
83.500000 15.443519
83.500000 15.611714
83.500000 15.780753
83.500000 15.950635
83.500000 16.121360
83.500000 16.292928
83.500000 16.465339
83.500000 16.638593
83.500000 16.812690
83.500000 16.987630
83.500000 17.163414
83.500000 17.340040
83.500000 17.517510
83.500000 17.695822
83.500000 17.874978
83.500000 18.054977
83.500000 18.235819
83.500000 18.417504
83.500000 18.600032
83.500000 18.783403
83.500000 18.967617
83.500000 19.152674
83.500000 19.338575
83.500000 19.525318
83.500000 19.712905
83.500000 19.901335
83.500000 20.090607
83.500000 20.280723
83.500000 20.471682
83.500000 20.663484
83.500000 20.856129
83.500000 21.049617
83.500000 21.243949
83.500000 21.439123
83.500000 21.635140
83.500000 21.832001
83.500000 22.029704
83.500000 22.228251
83.500000 22.427641
83.500000 22.627874
83.500000 22.828950
83.500000 23.030869
83.500000 23.233631
83.500000 23.437236
83.500000 23.641684
83.500000 23.846976
83.500000 24.053110
83.500000 24.260088
83.500000 24.467908
83.500000 24.676572
83.500000 24.886079
83.500000 25.096429
83.500000 25.307622
83.500000 25.519658
83.500000 25.732537
83.500000 25.946259
83.500000 26.160825
83.500000 26.376233
83.500000 26.592484
83.500000 26.809579
83.500000 27.027517
83.500000 27.246297
83.500000 27.465921
83.500000 27.686388
83.500000 27.907698
83.500000 28.129851
83.500000 28.352847
83.500000 28.576687
83.500000 28.801369
83.500000 29.026894
83.500000 29.253263
83.500000 29.480475
83.500000 29.708529
83.500000 29.937427
83.500000 30.167168
83.500000 30.397752
83.500000 30.629179
83.500000 30.861449
83.500000 31.094562
83.500000 31.328518
83.500000 31.563318
83.500000 31.798960
83.500000 32.035446
83.500000 32.272774
83.500000 32.510946
83.500000 32.749961
83.500000 32.989819
83.500000 33.230520
83.500000 33.472064
83.500000 33.714451
83.500000 33.957681
83.500000 34.201755
83.500000 34.446671
83.500000 34.692430
83.500000 34.939033
83.500000 35.186479
83.500000 35.434767
83.500000 35.683899
83.500000 35.933874
83.500000 36.184692
83.500000 36.436353
83.500000 36.688857
83.500000 36.942205
83.500000 37.196395
83.500000 37.451429
83.500000 37.707305
83.500000 37.964025
83.500000 38.221587
83.500000 38.479993
83.500000 38.739242
83.500000 38.999334
83.500000 39.260269
83.500000 39.522047
83.500000 39.784668
83.500000 40.048133
83.500000 40.312440
83.500000 40.577590
83.500000 40.843584
83.500000 41.110421
83.500000 41.378100
83.500000 41.646623
83.500000 41.915989
83.500000 42.186198
83.500000 42.457250
83.500000 42.729145
83.500000 43.001883
83.500000 43.275465
83.500000 43.549889
83.500000 43.825157
83.500000 44.101267
83.500000 44.378221
83.500000 44.656018
83.500000 44.934657
83.500000 45.214140
83.500000 45.494466
83.500000 45.775635
83.500000 46.057648
83.500000 46.340503
83.500000 46.624201
83.500000 46.908743
83.500000 47.194127
83.500000 47.480355
83.500000 47.767425
83.500000 48.055339
83.500000 48.344096
83.500000 48.633696
83.500000 48.924139
83.500000 49.215425
83.500000 49.507554
83.500000 49.800527
83.500000 50.094342
83.500000 50.389000
83.500000 50.684502
83.500000 50.980847
83.500000 51.278034
83.500000 51.576065
83.500000 51.874939
83.500000 52.174656
83.500000 52.475216
83.500000 52.776619
83.500000 53.078865
83.500000 53.381955
83.500000 53.685887
83.500000 53.990663
83.500000 54.296281
83.500000 54.602743
83.500000 54.910048
83.500000 55.218195
83.500000 55.527186
83.500000 55.837020
83.500000 56.147697
83.500000 56.459218
83.500000 56.771581
83.500000 57.084787
83.500000 57.398837
83.500000 57.713729
83.500000 58.029465
83.500000 58.346043
83.500000 58.663465
83.500000 58.981730
83.500000 59.300838
83.500000 59.620789
83.500000 59.941583
83.500000 60.263220
83.500000 60.585701
83.500000 60.909024
83.500000 61.233191
83.500000 61.558200
83.500000 61.884053
83.500000 62.210748
83.500000 62.538287
83.500000 62.866669
83.500000 63.195894
83.500000 63.525962
83.500000 63.856873
83.500000 64.188628
83.500000 64.521225
83.500000 64.854665
83.500000 65.188949
83.500000 65.524075
83.500000 65.860045
83.500000 66.196858
83.500000 66.534514
83.500000 66.873012
83.500000 67.212354
83.500000 67.552540
83.500000 67.893568
83.500000 68.235439
83.500000 68.578153
83.500000 68.921711
83.500000 69.266111
83.500000 69.611355
83.500000 69.957442
83.500000 70.304371
83.500000 70.652144
83.500000 71.000760
83.500000 71.350219
83.500000 71.700521
83.500000 72.051667
83.500000 72.403655
83.500000 72.756486
83.500000 73.110161
83.500000 73.464678
83.500000 73.820039
83.500000 74.176243
83.500000 74.533289
83.500000 74.891179
83.500000 75.249912
83.500000 75.609488
83.500000 75.969907
83.500000 76.331170
83.500000 76.693275
83.500000 77.056223
83.500000 77.420015
83.500000 77.784649
83.500000 78.150127
83.500000 78.516448
83.500000 78.883612
83.500000 79.251619
83.500000 79.620469
83.500000 79.990162
83.500000 80.360698
83.500000 80.732077
83.500000 81.104299
83.500000 81.477365
83.500000 81.851273
83.500000 82.226025
83.500000 82.601620
83.500000 82.978057
83.500000 83.355338
83.500000 83.733462
83.500000 84.112429
83.500000 84.492239
83.500000 84.872893
83.500000 85.254389
83.500000 85.636728
83.500000 86.019911
83.500000 86.403936
83.500000 86.788805
83.500000 87.174517
83.500000 87.561071
83.500000 87.948469
83.500000 88.336710
83.500000 88.725794
83.500000 89.115722
83.500000 89.506492
83.500000 89.898105
83.500000 90.290561
83.500000 90.683861
83.500000 91.078004
83.500000 91.472989
83.500000 91.868818
83.500000 92.265490
83.500000 92.663005
83.500000 93.061363
83.500000 93.460564
83.500000 93.860608
83.500000 94.261495
83.500000 94.663226
83.500000 95.065799
83.500000 95.469216
83.500000 95.873475
83.500000 96.278578
83.500000 96.684524
83.500000 97.091312
83.500000 97.498944
83.500000 97.907419
83.500000 98.316738
83.500000 98.726899
83.500000 99.137903
83.500000 99.549750
83.500000 99.962441
83.500000 100.375974
83.500000 100.790351
83.500000 101.205571
83.500000 101.621634
83.500000 102.038539
83.500000 102.456288
83.500000 102.874881
83.500000 103.294316
83.500000 103.714594
83.500000 104.135715
83.500000 104.557680
83.500000 104.980487
83.500000 105.404138
83.500000 105.828631
83.500000 106.253968
83.500000 106.680148
83.500000 107.107171
83.500000 107.535037
83.500000 107.963746
83.500000 108.393298
83.500000 108.823693
83.500000 109.254932
83.500000 109.687013
83.500000 110.119938
83.500000 110.553705
83.500000 110.988316
83.500000 111.423770
83.500000 111.860067
83.500000 112.297207
83.500000 112.735190
83.500000 113.174016
83.500000 113.613685
83.500000 114.054197
83.500000 114.495553
83.500000 114.937751
83.500000 115.380793
83.500000 115.824677
83.500000 116.269405
83.500000 116.714976
83.500000 117.161390
83.500000 117.608647
83.500000 118.056747
83.500000 118.505690
83.500000 118.955476
83.500000 119.406105
83.500000 119.857578
83.500000 120.309893
83.500000 120.763052
83.500000 121.217053
83.500000 121.671898
83.500000 122.127586
83.500000 122.584117
83.500000 123.041491
83.500000 123.499708
83.500000 123.958768
83.500000 124.418671
83.500000 124.879418
83.500000 125.341007
83.500000 125.803440
83.500000 126.266715
83.500000 126.730834
83.500000 127.195796
83.500000 127.661601
83.500000 128.128249
83.500000 128.595740
83.500000 129.064074
83.500000 129.533251
83.500000 130.003271
83.500000 130.474135
83.500000 130.945841
83.500000 131.418391
83.500000 131.891783
83.500000 132.366019
83.500000 132.841098
83.500000 133.317020
83.500000 133.793785
83.500000 134.271393
83.500000 134.749844
83.500000 135.229138
83.500000 135.709275
83.500000 136.190256
83.500000 136.672079
83.500000 137.154746
83.500000 137.638256
83.500000 138.122608
83.500000 138.607804
83.500000 139.093843
83.500000 139.580725
83.500000 140.068450
83.500000 140.557018
83.500000 141.046430
83.500000 141.536684
83.500000 142.027781
83.500000 142.519722
83.500000 143.012506
83.500000 143.506132
83.500000 144.000602
83.500000 144.495915
83.500000 144.992071
83.500000 145.489070
83.500000 145.986912
83.500000 146.485597
83.500000 146.985125
83.500000 147.485497
83.500000 147.986711
83.500000 148.488769
83.500000 148.991669
83.500000 149.495413
83.500000 150.000000
</POINTS>
</NEKTAR>

