<?xml version="1.0" encoding="utf-8" ?>
<NEKTAR>
<POINTS DIM="2" FIELDS="">
93.500000 -1.250000
93.500000 -1.249578
93.500000 -1.248314
93.500000 -1.246206
93.500000 -1.243255
93.500000 -1.239461
93.500000 -1.234824
93.500000 -1.229344
93.500000 -1.223021
93.500000 -1.215855
93.500000 -1.207846
93.500000 -1.198993
93.500000 -1.189298
93.500000 -1.178759
93.500000 -1.167378
93.500000 -1.155153
93.500000 -1.142085
93.500000 -1.128174
93.500000 -1.113420
93.500000 -1.097823
93.500000 -1.081383
93.500000 -1.064100
93.500000 -1.045973
93.500000 -1.027004
93.500000 -1.007191
93.500000 -0.986536
93.500000 -0.965037
93.500000 -0.942695
93.500000 -0.919510
93.500000 -0.895482
93.500000 -0.870611
93.500000 -0.844897
93.500000 -0.818340
93.500000 -0.790940
93.500000 -0.762696
93.500000 -0.733610
93.500000 -0.703680
93.500000 -0.672908
93.500000 -0.641292
93.500000 -0.608833
93.500000 -0.575531
93.500000 -0.541386
93.500000 -0.506398
93.500000 -0.470567
93.500000 -0.433893
93.500000 -0.396376
93.500000 -0.358015
93.500000 -0.318812
93.500000 -0.278765
93.500000 -0.237876
93.500000 -0.196143
93.500000 -0.153567
93.500000 -0.110148
93.500000 -0.065886
93.500000 -0.020781
93.500000 0.025167
93.500000 0.071958
93.500000 0.119593
93.500000 0.168070
93.500000 0.217391
93.500000 0.267554
93.500000 0.318561
93.500000 0.370411
93.500000 0.423104
93.500000 0.476640
93.500000 0.531019
93.500000 0.586241
93.500000 0.642306
93.500000 0.699214
93.500000 0.756966
93.500000 0.815560
93.500000 0.874998
93.500000 0.935278
93.500000 0.996402
93.500000 1.058369
93.500000 1.121179
93.500000 1.184832
93.500000 1.249328
93.500000 1.314667
93.500000 1.380849
93.500000 1.447874
93.500000 1.515743
93.500000 1.584454
93.500000 1.654009
93.500000 1.724406
93.500000 1.795647
93.500000 1.867731
93.500000 1.940658
93.500000 2.014428
93.500000 2.089041
93.500000 2.164497
93.500000 2.240796
93.500000 2.317939
93.500000 2.395924
93.500000 2.474753
93.500000 2.554424
93.500000 2.634939
93.500000 2.716297
93.500000 2.798498
93.500000 2.881542
93.500000 2.965429
93.500000 3.050159
93.500000 3.135732
93.500000 3.222148
93.500000 3.309408
93.500000 3.397510
93.500000 3.486456
93.500000 3.576244
93.500000 3.666876
93.500000 3.758351
93.500000 3.850669
93.500000 3.943830
93.500000 4.037834
93.500000 4.132681
93.500000 4.228371
93.500000 4.324904
93.500000 4.422281
93.500000 4.520500
93.500000 4.619563
93.500000 4.719468
93.500000 4.820217
93.500000 4.921809
93.500000 5.024244
93.500000 5.127522
93.500000 5.231643
93.500000 5.336607
93.500000 5.442414
93.500000 5.549065
93.500000 5.656558
93.500000 5.764895
93.500000 5.874074
93.500000 5.984097
93.500000 6.094963
93.500000 6.206672
93.500000 6.319224
93.500000 6.432619
93.500000 6.546857
93.500000 6.661938
93.500000 6.777862
93.500000 6.894630
93.500000 7.012240
93.500000 7.130694
93.500000 7.249990
93.500000 7.370130
93.500000 7.491113
93.500000 7.612939
93.500000 7.735608
93.500000 7.859120
93.500000 7.983475
93.500000 8.108673
93.500000 8.234714
93.500000 8.361599
93.500000 8.489326
93.500000 8.617897
93.500000 8.747310
93.500000 8.877567
93.500000 9.008667
93.500000 9.140610
93.500000 9.273396
93.500000 9.407025
93.500000 9.541497
93.500000 9.676812
93.500000 9.812971
93.500000 9.949972
93.500000 10.087817
93.500000 10.226504
93.500000 10.366035
93.500000 10.506409
93.500000 10.647626
93.500000 10.789686
93.500000 10.932589
93.500000 11.076335
93.500000 11.220924
93.500000 11.366356
93.500000 11.512632
93.500000 11.659750
93.500000 11.807712
93.500000 11.956516
93.500000 12.106164
93.500000 12.256655
93.500000 12.407989
93.500000 12.560166
93.500000 12.713186
93.500000 12.867049
93.500000 13.021755
93.500000 13.177304
93.500000 13.333697
93.500000 13.490932
93.500000 13.649011
93.500000 13.807933
93.500000 13.967697
93.500000 14.128305
93.500000 14.289756
93.500000 14.452050
93.500000 14.615187
93.500000 14.779167
93.500000 14.943991
93.500000 15.109657
93.500000 15.276166
93.500000 15.443519
93.500000 15.611714
93.500000 15.780753
93.500000 15.950635
93.500000 16.121360
93.500000 16.292928
93.500000 16.465339
93.500000 16.638593
93.500000 16.812690
93.500000 16.987630
93.500000 17.163414
93.500000 17.340040
93.500000 17.517510
93.500000 17.695822
93.500000 17.874978
93.500000 18.054977
93.500000 18.235819
93.500000 18.417504
93.500000 18.600032
93.500000 18.783403
93.500000 18.967617
93.500000 19.152674
93.500000 19.338575
93.500000 19.525318
93.500000 19.712905
93.500000 19.901335
93.500000 20.090607
93.500000 20.280723
93.500000 20.471682
93.500000 20.663484
93.500000 20.856129
93.500000 21.049617
93.500000 21.243949
93.500000 21.439123
93.500000 21.635140
93.500000 21.832001
93.500000 22.029704
93.500000 22.228251
93.500000 22.427641
93.500000 22.627874
93.500000 22.828950
93.500000 23.030869
93.500000 23.233631
93.500000 23.437236
93.500000 23.641684
93.500000 23.846976
93.500000 24.053110
93.500000 24.260088
93.500000 24.467908
93.500000 24.676572
93.500000 24.886079
93.500000 25.096429
93.500000 25.307622
93.500000 25.519658
93.500000 25.732537
93.500000 25.946259
93.500000 26.160825
93.500000 26.376233
93.500000 26.592484
93.500000 26.809579
93.500000 27.027517
93.500000 27.246297
93.500000 27.465921
93.500000 27.686388
93.500000 27.907698
93.500000 28.129851
93.500000 28.352847
93.500000 28.576687
93.500000 28.801369
93.500000 29.026894
93.500000 29.253263
93.500000 29.480475
93.500000 29.708529
93.500000 29.937427
93.500000 30.167168
93.500000 30.397752
93.500000 30.629179
93.500000 30.861449
93.500000 31.094562
93.500000 31.328518
93.500000 31.563318
93.500000 31.798960
93.500000 32.035446
93.500000 32.272774
93.500000 32.510946
93.500000 32.749961
93.500000 32.989819
93.500000 33.230520
93.500000 33.472064
93.500000 33.714451
93.500000 33.957681
93.500000 34.201755
93.500000 34.446671
93.500000 34.692430
93.500000 34.939033
93.500000 35.186479
93.500000 35.434767
93.500000 35.683899
93.500000 35.933874
93.500000 36.184692
93.500000 36.436353
93.500000 36.688857
93.500000 36.942205
93.500000 37.196395
93.500000 37.451429
93.500000 37.707305
93.500000 37.964025
93.500000 38.221587
93.500000 38.479993
93.500000 38.739242
93.500000 38.999334
93.500000 39.260269
93.500000 39.522047
93.500000 39.784668
93.500000 40.048133
93.500000 40.312440
93.500000 40.577590
93.500000 40.843584
93.500000 41.110421
93.500000 41.378100
93.500000 41.646623
93.500000 41.915989
93.500000 42.186198
93.500000 42.457250
93.500000 42.729145
93.500000 43.001883
93.500000 43.275465
93.500000 43.549889
93.500000 43.825157
93.500000 44.101267
93.500000 44.378221
93.500000 44.656018
93.500000 44.934657
93.500000 45.214140
93.500000 45.494466
93.500000 45.775635
93.500000 46.057648
93.500000 46.340503
93.500000 46.624201
93.500000 46.908743
93.500000 47.194127
93.500000 47.480355
93.500000 47.767425
93.500000 48.055339
93.500000 48.344096
93.500000 48.633696
93.500000 48.924139
93.500000 49.215425
93.500000 49.507554
93.500000 49.800527
93.500000 50.094342
93.500000 50.389000
93.500000 50.684502
93.500000 50.980847
93.500000 51.278034
93.500000 51.576065
93.500000 51.874939
93.500000 52.174656
93.500000 52.475216
93.500000 52.776619
93.500000 53.078865
93.500000 53.381955
93.500000 53.685887
93.500000 53.990663
93.500000 54.296281
93.500000 54.602743
93.500000 54.910048
93.500000 55.218195
93.500000 55.527186
93.500000 55.837020
93.500000 56.147697
93.500000 56.459218
93.500000 56.771581
93.500000 57.084787
93.500000 57.398837
93.500000 57.713729
93.500000 58.029465
93.500000 58.346043
93.500000 58.663465
93.500000 58.981730
93.500000 59.300838
93.500000 59.620789
93.500000 59.941583
93.500000 60.263220
93.500000 60.585701
93.500000 60.909024
93.500000 61.233191
93.500000 61.558200
93.500000 61.884053
93.500000 62.210748
93.500000 62.538287
93.500000 62.866669
93.500000 63.195894
93.500000 63.525962
93.500000 63.856873
93.500000 64.188628
93.500000 64.521225
93.500000 64.854665
93.500000 65.188949
93.500000 65.524075
93.500000 65.860045
93.500000 66.196858
93.500000 66.534514
93.500000 66.873012
93.500000 67.212354
93.500000 67.552540
93.500000 67.893568
93.500000 68.235439
93.500000 68.578153
93.500000 68.921711
93.500000 69.266111
93.500000 69.611355
93.500000 69.957442
93.500000 70.304371
93.500000 70.652144
93.500000 71.000760
93.500000 71.350219
93.500000 71.700521
93.500000 72.051667
93.500000 72.403655
93.500000 72.756486
93.500000 73.110161
93.500000 73.464678
93.500000 73.820039
93.500000 74.176243
93.500000 74.533289
93.500000 74.891179
93.500000 75.249912
93.500000 75.609488
93.500000 75.969907
93.500000 76.331170
93.500000 76.693275
93.500000 77.056223
93.500000 77.420015
93.500000 77.784649
93.500000 78.150127
93.500000 78.516448
93.500000 78.883612
93.500000 79.251619
93.500000 79.620469
93.500000 79.990162
93.500000 80.360698
93.500000 80.732077
93.500000 81.104299
93.500000 81.477365
93.500000 81.851273
93.500000 82.226025
93.500000 82.601620
93.500000 82.978057
93.500000 83.355338
93.500000 83.733462
93.500000 84.112429
93.500000 84.492239
93.500000 84.872893
93.500000 85.254389
93.500000 85.636728
93.500000 86.019911
93.500000 86.403936
93.500000 86.788805
93.500000 87.174517
93.500000 87.561071
93.500000 87.948469
93.500000 88.336710
93.500000 88.725794
93.500000 89.115722
93.500000 89.506492
93.500000 89.898105
93.500000 90.290561
93.500000 90.683861
93.500000 91.078004
93.500000 91.472989
93.500000 91.868818
93.500000 92.265490
93.500000 92.663005
93.500000 93.061363
93.500000 93.460564
93.500000 93.860608
93.500000 94.261495
93.500000 94.663226
93.500000 95.065799
93.500000 95.469216
93.500000 95.873475
93.500000 96.278578
93.500000 96.684524
93.500000 97.091312
93.500000 97.498944
93.500000 97.907419
93.500000 98.316738
93.500000 98.726899
93.500000 99.137903
93.500000 99.549750
93.500000 99.962441
93.500000 100.375974
93.500000 100.790351
93.500000 101.205571
93.500000 101.621634
93.500000 102.038539
93.500000 102.456288
93.500000 102.874881
93.500000 103.294316
93.500000 103.714594
93.500000 104.135715
93.500000 104.557680
93.500000 104.980487
93.500000 105.404138
93.500000 105.828631
93.500000 106.253968
93.500000 106.680148
93.500000 107.107171
93.500000 107.535037
93.500000 107.963746
93.500000 108.393298
93.500000 108.823693
93.500000 109.254932
93.500000 109.687013
93.500000 110.119938
93.500000 110.553705
93.500000 110.988316
93.500000 111.423770
93.500000 111.860067
93.500000 112.297207
93.500000 112.735190
93.500000 113.174016
93.500000 113.613685
93.500000 114.054197
93.500000 114.495553
93.500000 114.937751
93.500000 115.380793
93.500000 115.824677
93.500000 116.269405
93.500000 116.714976
93.500000 117.161390
93.500000 117.608647
93.500000 118.056747
93.500000 118.505690
93.500000 118.955476
93.500000 119.406105
93.500000 119.857578
93.500000 120.309893
93.500000 120.763052
93.500000 121.217053
93.500000 121.671898
93.500000 122.127586
93.500000 122.584117
93.500000 123.041491
93.500000 123.499708
93.500000 123.958768
93.500000 124.418671
93.500000 124.879418
93.500000 125.341007
93.500000 125.803440
93.500000 126.266715
93.500000 126.730834
93.500000 127.195796
93.500000 127.661601
93.500000 128.128249
93.500000 128.595740
93.500000 129.064074
93.500000 129.533251
93.500000 130.003271
93.500000 130.474135
93.500000 130.945841
93.500000 131.418391
93.500000 131.891783
93.500000 132.366019
93.500000 132.841098
93.500000 133.317020
93.500000 133.793785
93.500000 134.271393
93.500000 134.749844
93.500000 135.229138
93.500000 135.709275
93.500000 136.190256
93.500000 136.672079
93.500000 137.154746
93.500000 137.638256
93.500000 138.122608
93.500000 138.607804
93.500000 139.093843
93.500000 139.580725
93.500000 140.068450
93.500000 140.557018
93.500000 141.046430
93.500000 141.536684
93.500000 142.027781
93.500000 142.519722
93.500000 143.012506
93.500000 143.506132
93.500000 144.000602
93.500000 144.495915
93.500000 144.992071
93.500000 145.489070
93.500000 145.986912
93.500000 146.485597
93.500000 146.985125
93.500000 147.485497
93.500000 147.986711
93.500000 148.488769
93.500000 148.991669
93.500000 149.495413
93.500000 150.000000
</POINTS>
</NEKTAR>

