<?xml version="1.0" encoding="utf-8" ?>
<NEKTAR>
<POINTS DIM="2" FIELDS="">
383.500000 -1.250000
383.500000 -1.249578
383.500000 -1.248314
383.500000 -1.246206
383.500000 -1.243255
383.500000 -1.239461
383.500000 -1.234824
383.500000 -1.229344
383.500000 -1.223021
383.500000 -1.215855
383.500000 -1.207846
383.500000 -1.198993
383.500000 -1.189298
383.500000 -1.178759
383.500000 -1.167378
383.500000 -1.155153
383.500000 -1.142085
383.500000 -1.128174
383.500000 -1.113420
383.500000 -1.097823
383.500000 -1.081383
383.500000 -1.064100
383.500000 -1.045973
383.500000 -1.027004
383.500000 -1.007191
383.500000 -0.986536
383.500000 -0.965037
383.500000 -0.942695
383.500000 -0.919510
383.500000 -0.895482
383.500000 -0.870611
383.500000 -0.844897
383.500000 -0.818340
383.500000 -0.790940
383.500000 -0.762696
383.500000 -0.733610
383.500000 -0.703680
383.500000 -0.672908
383.500000 -0.641292
383.500000 -0.608833
383.500000 -0.575531
383.500000 -0.541386
383.500000 -0.506398
383.500000 -0.470567
383.500000 -0.433893
383.500000 -0.396376
383.500000 -0.358015
383.500000 -0.318812
383.500000 -0.278765
383.500000 -0.237876
383.500000 -0.196143
383.500000 -0.153567
383.500000 -0.110148
383.500000 -0.065886
383.500000 -0.020781
383.500000 0.025167
383.500000 0.071958
383.500000 0.119593
383.500000 0.168070
383.500000 0.217391
383.500000 0.267554
383.500000 0.318561
383.500000 0.370411
383.500000 0.423104
383.500000 0.476640
383.500000 0.531019
383.500000 0.586241
383.500000 0.642306
383.500000 0.699214
383.500000 0.756966
383.500000 0.815560
383.500000 0.874998
383.500000 0.935278
383.500000 0.996402
383.500000 1.058369
383.500000 1.121179
383.500000 1.184832
383.500000 1.249328
383.500000 1.314667
383.500000 1.380849
383.500000 1.447874
383.500000 1.515743
383.500000 1.584454
383.500000 1.654009
383.500000 1.724406
383.500000 1.795647
383.500000 1.867731
383.500000 1.940658
383.500000 2.014428
383.500000 2.089041
383.500000 2.164497
383.500000 2.240796
383.500000 2.317939
383.500000 2.395924
383.500000 2.474753
383.500000 2.554424
383.500000 2.634939
383.500000 2.716297
383.500000 2.798498
383.500000 2.881542
383.500000 2.965429
383.500000 3.050159
383.500000 3.135732
383.500000 3.222148
383.500000 3.309408
383.500000 3.397510
383.500000 3.486456
383.500000 3.576244
383.500000 3.666876
383.500000 3.758351
383.500000 3.850669
383.500000 3.943830
383.500000 4.037834
383.500000 4.132681
383.500000 4.228371
383.500000 4.324904
383.500000 4.422281
383.500000 4.520500
383.500000 4.619563
383.500000 4.719468
383.500000 4.820217
383.500000 4.921809
383.500000 5.024244
383.500000 5.127522
383.500000 5.231643
383.500000 5.336607
383.500000 5.442414
383.500000 5.549065
383.500000 5.656558
383.500000 5.764895
383.500000 5.874074
383.500000 5.984097
383.500000 6.094963
383.500000 6.206672
383.500000 6.319224
383.500000 6.432619
383.500000 6.546857
383.500000 6.661938
383.500000 6.777862
383.500000 6.894630
383.500000 7.012240
383.500000 7.130694
383.500000 7.249990
383.500000 7.370130
383.500000 7.491113
383.500000 7.612939
383.500000 7.735608
383.500000 7.859120
383.500000 7.983475
383.500000 8.108673
383.500000 8.234714
383.500000 8.361599
383.500000 8.489326
383.500000 8.617897
383.500000 8.747310
383.500000 8.877567
383.500000 9.008667
383.500000 9.140610
383.500000 9.273396
383.500000 9.407025
383.500000 9.541497
383.500000 9.676812
383.500000 9.812971
383.500000 9.949972
383.500000 10.087817
383.500000 10.226504
383.500000 10.366035
383.500000 10.506409
383.500000 10.647626
383.500000 10.789686
383.500000 10.932589
383.500000 11.076335
383.500000 11.220924
383.500000 11.366356
383.500000 11.512632
383.500000 11.659750
383.500000 11.807712
383.500000 11.956516
383.500000 12.106164
383.500000 12.256655
383.500000 12.407989
383.500000 12.560166
383.500000 12.713186
383.500000 12.867049
383.500000 13.021755
383.500000 13.177304
383.500000 13.333697
383.500000 13.490932
383.500000 13.649011
383.500000 13.807933
383.500000 13.967697
383.500000 14.128305
383.500000 14.289756
383.500000 14.452050
383.500000 14.615187
383.500000 14.779167
383.500000 14.943991
383.500000 15.109657
383.500000 15.276166
383.500000 15.443519
383.500000 15.611714
383.500000 15.780753
383.500000 15.950635
383.500000 16.121360
383.500000 16.292928
383.500000 16.465339
383.500000 16.638593
383.500000 16.812690
383.500000 16.987630
383.500000 17.163414
383.500000 17.340040
383.500000 17.517510
383.500000 17.695822
383.500000 17.874978
383.500000 18.054977
383.500000 18.235819
383.500000 18.417504
383.500000 18.600032
383.500000 18.783403
383.500000 18.967617
383.500000 19.152674
383.500000 19.338575
383.500000 19.525318
383.500000 19.712905
383.500000 19.901335
383.500000 20.090607
383.500000 20.280723
383.500000 20.471682
383.500000 20.663484
383.500000 20.856129
383.500000 21.049617
383.500000 21.243949
383.500000 21.439123
383.500000 21.635140
383.500000 21.832001
383.500000 22.029704
383.500000 22.228251
383.500000 22.427641
383.500000 22.627874
383.500000 22.828950
383.500000 23.030869
383.500000 23.233631
383.500000 23.437236
383.500000 23.641684
383.500000 23.846976
383.500000 24.053110
383.500000 24.260088
383.500000 24.467908
383.500000 24.676572
383.500000 24.886079
383.500000 25.096429
383.500000 25.307622
383.500000 25.519658
383.500000 25.732537
383.500000 25.946259
383.500000 26.160825
383.500000 26.376233
383.500000 26.592484
383.500000 26.809579
383.500000 27.027517
383.500000 27.246297
383.500000 27.465921
383.500000 27.686388
383.500000 27.907698
383.500000 28.129851
383.500000 28.352847
383.500000 28.576687
383.500000 28.801369
383.500000 29.026894
383.500000 29.253263
383.500000 29.480475
383.500000 29.708529
383.500000 29.937427
383.500000 30.167168
383.500000 30.397752
383.500000 30.629179
383.500000 30.861449
383.500000 31.094562
383.500000 31.328518
383.500000 31.563318
383.500000 31.798960
383.500000 32.035446
383.500000 32.272774
383.500000 32.510946
383.500000 32.749961
383.500000 32.989819
383.500000 33.230520
383.500000 33.472064
383.500000 33.714451
383.500000 33.957681
383.500000 34.201755
383.500000 34.446671
383.500000 34.692430
383.500000 34.939033
383.500000 35.186479
383.500000 35.434767
383.500000 35.683899
383.500000 35.933874
383.500000 36.184692
383.500000 36.436353
383.500000 36.688857
383.500000 36.942205
383.500000 37.196395
383.500000 37.451429
383.500000 37.707305
383.500000 37.964025
383.500000 38.221587
383.500000 38.479993
383.500000 38.739242
383.500000 38.999334
383.500000 39.260269
383.500000 39.522047
383.500000 39.784668
383.500000 40.048133
383.500000 40.312440
383.500000 40.577590
383.500000 40.843584
383.500000 41.110421
383.500000 41.378100
383.500000 41.646623
383.500000 41.915989
383.500000 42.186198
383.500000 42.457250
383.500000 42.729145
383.500000 43.001883
383.500000 43.275465
383.500000 43.549889
383.500000 43.825157
383.500000 44.101267
383.500000 44.378221
383.500000 44.656018
383.500000 44.934657
383.500000 45.214140
383.500000 45.494466
383.500000 45.775635
383.500000 46.057648
383.500000 46.340503
383.500000 46.624201
383.500000 46.908743
383.500000 47.194127
383.500000 47.480355
383.500000 47.767425
383.500000 48.055339
383.500000 48.344096
383.500000 48.633696
383.500000 48.924139
383.500000 49.215425
383.500000 49.507554
383.500000 49.800527
383.500000 50.094342
383.500000 50.389000
383.500000 50.684502
383.500000 50.980847
383.500000 51.278034
383.500000 51.576065
383.500000 51.874939
383.500000 52.174656
383.500000 52.475216
383.500000 52.776619
383.500000 53.078865
383.500000 53.381955
383.500000 53.685887
383.500000 53.990663
383.500000 54.296281
383.500000 54.602743
383.500000 54.910048
383.500000 55.218195
383.500000 55.527186
383.500000 55.837020
383.500000 56.147697
383.500000 56.459218
383.500000 56.771581
383.500000 57.084787
383.500000 57.398837
383.500000 57.713729
383.500000 58.029465
383.500000 58.346043
383.500000 58.663465
383.500000 58.981730
383.500000 59.300838
383.500000 59.620789
383.500000 59.941583
383.500000 60.263220
383.500000 60.585701
383.500000 60.909024
383.500000 61.233191
383.500000 61.558200
383.500000 61.884053
383.500000 62.210748
383.500000 62.538287
383.500000 62.866669
383.500000 63.195894
383.500000 63.525962
383.500000 63.856873
383.500000 64.188628
383.500000 64.521225
383.500000 64.854665
383.500000 65.188949
383.500000 65.524075
383.500000 65.860045
383.500000 66.196858
383.500000 66.534514
383.500000 66.873012
383.500000 67.212354
383.500000 67.552540
383.500000 67.893568
383.500000 68.235439
383.500000 68.578153
383.500000 68.921711
383.500000 69.266111
383.500000 69.611355
383.500000 69.957442
383.500000 70.304371
383.500000 70.652144
383.500000 71.000760
383.500000 71.350219
383.500000 71.700521
383.500000 72.051667
383.500000 72.403655
383.500000 72.756486
383.500000 73.110161
383.500000 73.464678
383.500000 73.820039
383.500000 74.176243
383.500000 74.533289
383.500000 74.891179
383.500000 75.249912
383.500000 75.609488
383.500000 75.969907
383.500000 76.331170
383.500000 76.693275
383.500000 77.056223
383.500000 77.420015
383.500000 77.784649
383.500000 78.150127
383.500000 78.516448
383.500000 78.883612
383.500000 79.251619
383.500000 79.620469
383.500000 79.990162
383.500000 80.360698
383.500000 80.732077
383.500000 81.104299
383.500000 81.477365
383.500000 81.851273
383.500000 82.226025
383.500000 82.601620
383.500000 82.978057
383.500000 83.355338
383.500000 83.733462
383.500000 84.112429
383.500000 84.492239
383.500000 84.872893
383.500000 85.254389
383.500000 85.636728
383.500000 86.019911
383.500000 86.403936
383.500000 86.788805
383.500000 87.174517
383.500000 87.561071
383.500000 87.948469
383.500000 88.336710
383.500000 88.725794
383.500000 89.115722
383.500000 89.506492
383.500000 89.898105
383.500000 90.290561
383.500000 90.683861
383.500000 91.078004
383.500000 91.472989
383.500000 91.868818
383.500000 92.265490
383.500000 92.663005
383.500000 93.061363
383.500000 93.460564
383.500000 93.860608
383.500000 94.261495
383.500000 94.663226
383.500000 95.065799
383.500000 95.469216
383.500000 95.873475
383.500000 96.278578
383.500000 96.684524
383.500000 97.091312
383.500000 97.498944
383.500000 97.907419
383.500000 98.316738
383.500000 98.726899
383.500000 99.137903
383.500000 99.549750
383.500000 99.962441
383.500000 100.375974
383.500000 100.790351
383.500000 101.205571
383.500000 101.621634
383.500000 102.038539
383.500000 102.456288
383.500000 102.874881
383.500000 103.294316
383.500000 103.714594
383.500000 104.135715
383.500000 104.557680
383.500000 104.980487
383.500000 105.404138
383.500000 105.828631
383.500000 106.253968
383.500000 106.680148
383.500000 107.107171
383.500000 107.535037
383.500000 107.963746
383.500000 108.393298
383.500000 108.823693
383.500000 109.254932
383.500000 109.687013
383.500000 110.119938
383.500000 110.553705
383.500000 110.988316
383.500000 111.423770
383.500000 111.860067
383.500000 112.297207
383.500000 112.735190
383.500000 113.174016
383.500000 113.613685
383.500000 114.054197
383.500000 114.495553
383.500000 114.937751
383.500000 115.380793
383.500000 115.824677
383.500000 116.269405
383.500000 116.714976
383.500000 117.161390
383.500000 117.608647
383.500000 118.056747
383.500000 118.505690
383.500000 118.955476
383.500000 119.406105
383.500000 119.857578
383.500000 120.309893
383.500000 120.763052
383.500000 121.217053
383.500000 121.671898
383.500000 122.127586
383.500000 122.584117
383.500000 123.041491
383.500000 123.499708
383.500000 123.958768
383.500000 124.418671
383.500000 124.879418
383.500000 125.341007
383.500000 125.803440
383.500000 126.266715
383.500000 126.730834
383.500000 127.195796
383.500000 127.661601
383.500000 128.128249
383.500000 128.595740
383.500000 129.064074
383.500000 129.533251
383.500000 130.003271
383.500000 130.474135
383.500000 130.945841
383.500000 131.418391
383.500000 131.891783
383.500000 132.366019
383.500000 132.841098
383.500000 133.317020
383.500000 133.793785
383.500000 134.271393
383.500000 134.749844
383.500000 135.229138
383.500000 135.709275
383.500000 136.190256
383.500000 136.672079
383.500000 137.154746
383.500000 137.638256
383.500000 138.122608
383.500000 138.607804
383.500000 139.093843
383.500000 139.580725
383.500000 140.068450
383.500000 140.557018
383.500000 141.046430
383.500000 141.536684
383.500000 142.027781
383.500000 142.519722
383.500000 143.012506
383.500000 143.506132
383.500000 144.000602
383.500000 144.495915
383.500000 144.992071
383.500000 145.489070
383.500000 145.986912
383.500000 146.485597
383.500000 146.985125
383.500000 147.485497
383.500000 147.986711
383.500000 148.488769
383.500000 148.991669
383.500000 149.495413
383.500000 150.000000
</POINTS>
</NEKTAR>

