<?xml version="1.0" encoding="utf-8" ?>
<NEKTAR>
<POINTS DIM="2" FIELDS="">
323.500000 -1.250000
323.500000 -1.249578
323.500000 -1.248314
323.500000 -1.246206
323.500000 -1.243255
323.500000 -1.239461
323.500000 -1.234824
323.500000 -1.229344
323.500000 -1.223021
323.500000 -1.215855
323.500000 -1.207846
323.500000 -1.198993
323.500000 -1.189298
323.500000 -1.178759
323.500000 -1.167378
323.500000 -1.155153
323.500000 -1.142085
323.500000 -1.128174
323.500000 -1.113420
323.500000 -1.097823
323.500000 -1.081383
323.500000 -1.064100
323.500000 -1.045973
323.500000 -1.027004
323.500000 -1.007191
323.500000 -0.986536
323.500000 -0.965037
323.500000 -0.942695
323.500000 -0.919510
323.500000 -0.895482
323.500000 -0.870611
323.500000 -0.844897
323.500000 -0.818340
323.500000 -0.790940
323.500000 -0.762696
323.500000 -0.733610
323.500000 -0.703680
323.500000 -0.672908
323.500000 -0.641292
323.500000 -0.608833
323.500000 -0.575531
323.500000 -0.541386
323.500000 -0.506398
323.500000 -0.470567
323.500000 -0.433893
323.500000 -0.396376
323.500000 -0.358015
323.500000 -0.318812
323.500000 -0.278765
323.500000 -0.237876
323.500000 -0.196143
323.500000 -0.153567
323.500000 -0.110148
323.500000 -0.065886
323.500000 -0.020781
323.500000 0.025167
323.500000 0.071958
323.500000 0.119593
323.500000 0.168070
323.500000 0.217391
323.500000 0.267554
323.500000 0.318561
323.500000 0.370411
323.500000 0.423104
323.500000 0.476640
323.500000 0.531019
323.500000 0.586241
323.500000 0.642306
323.500000 0.699214
323.500000 0.756966
323.500000 0.815560
323.500000 0.874998
323.500000 0.935278
323.500000 0.996402
323.500000 1.058369
323.500000 1.121179
323.500000 1.184832
323.500000 1.249328
323.500000 1.314667
323.500000 1.380849
323.500000 1.447874
323.500000 1.515743
323.500000 1.584454
323.500000 1.654009
323.500000 1.724406
323.500000 1.795647
323.500000 1.867731
323.500000 1.940658
323.500000 2.014428
323.500000 2.089041
323.500000 2.164497
323.500000 2.240796
323.500000 2.317939
323.500000 2.395924
323.500000 2.474753
323.500000 2.554424
323.500000 2.634939
323.500000 2.716297
323.500000 2.798498
323.500000 2.881542
323.500000 2.965429
323.500000 3.050159
323.500000 3.135732
323.500000 3.222148
323.500000 3.309408
323.500000 3.397510
323.500000 3.486456
323.500000 3.576244
323.500000 3.666876
323.500000 3.758351
323.500000 3.850669
323.500000 3.943830
323.500000 4.037834
323.500000 4.132681
323.500000 4.228371
323.500000 4.324904
323.500000 4.422281
323.500000 4.520500
323.500000 4.619563
323.500000 4.719468
323.500000 4.820217
323.500000 4.921809
323.500000 5.024244
323.500000 5.127522
323.500000 5.231643
323.500000 5.336607
323.500000 5.442414
323.500000 5.549065
323.500000 5.656558
323.500000 5.764895
323.500000 5.874074
323.500000 5.984097
323.500000 6.094963
323.500000 6.206672
323.500000 6.319224
323.500000 6.432619
323.500000 6.546857
323.500000 6.661938
323.500000 6.777862
323.500000 6.894630
323.500000 7.012240
323.500000 7.130694
323.500000 7.249990
323.500000 7.370130
323.500000 7.491113
323.500000 7.612939
323.500000 7.735608
323.500000 7.859120
323.500000 7.983475
323.500000 8.108673
323.500000 8.234714
323.500000 8.361599
323.500000 8.489326
323.500000 8.617897
323.500000 8.747310
323.500000 8.877567
323.500000 9.008667
323.500000 9.140610
323.500000 9.273396
323.500000 9.407025
323.500000 9.541497
323.500000 9.676812
323.500000 9.812971
323.500000 9.949972
323.500000 10.087817
323.500000 10.226504
323.500000 10.366035
323.500000 10.506409
323.500000 10.647626
323.500000 10.789686
323.500000 10.932589
323.500000 11.076335
323.500000 11.220924
323.500000 11.366356
323.500000 11.512632
323.500000 11.659750
323.500000 11.807712
323.500000 11.956516
323.500000 12.106164
323.500000 12.256655
323.500000 12.407989
323.500000 12.560166
323.500000 12.713186
323.500000 12.867049
323.500000 13.021755
323.500000 13.177304
323.500000 13.333697
323.500000 13.490932
323.500000 13.649011
323.500000 13.807933
323.500000 13.967697
323.500000 14.128305
323.500000 14.289756
323.500000 14.452050
323.500000 14.615187
323.500000 14.779167
323.500000 14.943991
323.500000 15.109657
323.500000 15.276166
323.500000 15.443519
323.500000 15.611714
323.500000 15.780753
323.500000 15.950635
323.500000 16.121360
323.500000 16.292928
323.500000 16.465339
323.500000 16.638593
323.500000 16.812690
323.500000 16.987630
323.500000 17.163414
323.500000 17.340040
323.500000 17.517510
323.500000 17.695822
323.500000 17.874978
323.500000 18.054977
323.500000 18.235819
323.500000 18.417504
323.500000 18.600032
323.500000 18.783403
323.500000 18.967617
323.500000 19.152674
323.500000 19.338575
323.500000 19.525318
323.500000 19.712905
323.500000 19.901335
323.500000 20.090607
323.500000 20.280723
323.500000 20.471682
323.500000 20.663484
323.500000 20.856129
323.500000 21.049617
323.500000 21.243949
323.500000 21.439123
323.500000 21.635140
323.500000 21.832001
323.500000 22.029704
323.500000 22.228251
323.500000 22.427641
323.500000 22.627874
323.500000 22.828950
323.500000 23.030869
323.500000 23.233631
323.500000 23.437236
323.500000 23.641684
323.500000 23.846976
323.500000 24.053110
323.500000 24.260088
323.500000 24.467908
323.500000 24.676572
323.500000 24.886079
323.500000 25.096429
323.500000 25.307622
323.500000 25.519658
323.500000 25.732537
323.500000 25.946259
323.500000 26.160825
323.500000 26.376233
323.500000 26.592484
323.500000 26.809579
323.500000 27.027517
323.500000 27.246297
323.500000 27.465921
323.500000 27.686388
323.500000 27.907698
323.500000 28.129851
323.500000 28.352847
323.500000 28.576687
323.500000 28.801369
323.500000 29.026894
323.500000 29.253263
323.500000 29.480475
323.500000 29.708529
323.500000 29.937427
323.500000 30.167168
323.500000 30.397752
323.500000 30.629179
323.500000 30.861449
323.500000 31.094562
323.500000 31.328518
323.500000 31.563318
323.500000 31.798960
323.500000 32.035446
323.500000 32.272774
323.500000 32.510946
323.500000 32.749961
323.500000 32.989819
323.500000 33.230520
323.500000 33.472064
323.500000 33.714451
323.500000 33.957681
323.500000 34.201755
323.500000 34.446671
323.500000 34.692430
323.500000 34.939033
323.500000 35.186479
323.500000 35.434767
323.500000 35.683899
323.500000 35.933874
323.500000 36.184692
323.500000 36.436353
323.500000 36.688857
323.500000 36.942205
323.500000 37.196395
323.500000 37.451429
323.500000 37.707305
323.500000 37.964025
323.500000 38.221587
323.500000 38.479993
323.500000 38.739242
323.500000 38.999334
323.500000 39.260269
323.500000 39.522047
323.500000 39.784668
323.500000 40.048133
323.500000 40.312440
323.500000 40.577590
323.500000 40.843584
323.500000 41.110421
323.500000 41.378100
323.500000 41.646623
323.500000 41.915989
323.500000 42.186198
323.500000 42.457250
323.500000 42.729145
323.500000 43.001883
323.500000 43.275465
323.500000 43.549889
323.500000 43.825157
323.500000 44.101267
323.500000 44.378221
323.500000 44.656018
323.500000 44.934657
323.500000 45.214140
323.500000 45.494466
323.500000 45.775635
323.500000 46.057648
323.500000 46.340503
323.500000 46.624201
323.500000 46.908743
323.500000 47.194127
323.500000 47.480355
323.500000 47.767425
323.500000 48.055339
323.500000 48.344096
323.500000 48.633696
323.500000 48.924139
323.500000 49.215425
323.500000 49.507554
323.500000 49.800527
323.500000 50.094342
323.500000 50.389000
323.500000 50.684502
323.500000 50.980847
323.500000 51.278034
323.500000 51.576065
323.500000 51.874939
323.500000 52.174656
323.500000 52.475216
323.500000 52.776619
323.500000 53.078865
323.500000 53.381955
323.500000 53.685887
323.500000 53.990663
323.500000 54.296281
323.500000 54.602743
323.500000 54.910048
323.500000 55.218195
323.500000 55.527186
323.500000 55.837020
323.500000 56.147697
323.500000 56.459218
323.500000 56.771581
323.500000 57.084787
323.500000 57.398837
323.500000 57.713729
323.500000 58.029465
323.500000 58.346043
323.500000 58.663465
323.500000 58.981730
323.500000 59.300838
323.500000 59.620789
323.500000 59.941583
323.500000 60.263220
323.500000 60.585701
323.500000 60.909024
323.500000 61.233191
323.500000 61.558200
323.500000 61.884053
323.500000 62.210748
323.500000 62.538287
323.500000 62.866669
323.500000 63.195894
323.500000 63.525962
323.500000 63.856873
323.500000 64.188628
323.500000 64.521225
323.500000 64.854665
323.500000 65.188949
323.500000 65.524075
323.500000 65.860045
323.500000 66.196858
323.500000 66.534514
323.500000 66.873012
323.500000 67.212354
323.500000 67.552540
323.500000 67.893568
323.500000 68.235439
323.500000 68.578153
323.500000 68.921711
323.500000 69.266111
323.500000 69.611355
323.500000 69.957442
323.500000 70.304371
323.500000 70.652144
323.500000 71.000760
323.500000 71.350219
323.500000 71.700521
323.500000 72.051667
323.500000 72.403655
323.500000 72.756486
323.500000 73.110161
323.500000 73.464678
323.500000 73.820039
323.500000 74.176243
323.500000 74.533289
323.500000 74.891179
323.500000 75.249912
323.500000 75.609488
323.500000 75.969907
323.500000 76.331170
323.500000 76.693275
323.500000 77.056223
323.500000 77.420015
323.500000 77.784649
323.500000 78.150127
323.500000 78.516448
323.500000 78.883612
323.500000 79.251619
323.500000 79.620469
323.500000 79.990162
323.500000 80.360698
323.500000 80.732077
323.500000 81.104299
323.500000 81.477365
323.500000 81.851273
323.500000 82.226025
323.500000 82.601620
323.500000 82.978057
323.500000 83.355338
323.500000 83.733462
323.500000 84.112429
323.500000 84.492239
323.500000 84.872893
323.500000 85.254389
323.500000 85.636728
323.500000 86.019911
323.500000 86.403936
323.500000 86.788805
323.500000 87.174517
323.500000 87.561071
323.500000 87.948469
323.500000 88.336710
323.500000 88.725794
323.500000 89.115722
323.500000 89.506492
323.500000 89.898105
323.500000 90.290561
323.500000 90.683861
323.500000 91.078004
323.500000 91.472989
323.500000 91.868818
323.500000 92.265490
323.500000 92.663005
323.500000 93.061363
323.500000 93.460564
323.500000 93.860608
323.500000 94.261495
323.500000 94.663226
323.500000 95.065799
323.500000 95.469216
323.500000 95.873475
323.500000 96.278578
323.500000 96.684524
323.500000 97.091312
323.500000 97.498944
323.500000 97.907419
323.500000 98.316738
323.500000 98.726899
323.500000 99.137903
323.500000 99.549750
323.500000 99.962441
323.500000 100.375974
323.500000 100.790351
323.500000 101.205571
323.500000 101.621634
323.500000 102.038539
323.500000 102.456288
323.500000 102.874881
323.500000 103.294316
323.500000 103.714594
323.500000 104.135715
323.500000 104.557680
323.500000 104.980487
323.500000 105.404138
323.500000 105.828631
323.500000 106.253968
323.500000 106.680148
323.500000 107.107171
323.500000 107.535037
323.500000 107.963746
323.500000 108.393298
323.500000 108.823693
323.500000 109.254932
323.500000 109.687013
323.500000 110.119938
323.500000 110.553705
323.500000 110.988316
323.500000 111.423770
323.500000 111.860067
323.500000 112.297207
323.500000 112.735190
323.500000 113.174016
323.500000 113.613685
323.500000 114.054197
323.500000 114.495553
323.500000 114.937751
323.500000 115.380793
323.500000 115.824677
323.500000 116.269405
323.500000 116.714976
323.500000 117.161390
323.500000 117.608647
323.500000 118.056747
323.500000 118.505690
323.500000 118.955476
323.500000 119.406105
323.500000 119.857578
323.500000 120.309893
323.500000 120.763052
323.500000 121.217053
323.500000 121.671898
323.500000 122.127586
323.500000 122.584117
323.500000 123.041491
323.500000 123.499708
323.500000 123.958768
323.500000 124.418671
323.500000 124.879418
323.500000 125.341007
323.500000 125.803440
323.500000 126.266715
323.500000 126.730834
323.500000 127.195796
323.500000 127.661601
323.500000 128.128249
323.500000 128.595740
323.500000 129.064074
323.500000 129.533251
323.500000 130.003271
323.500000 130.474135
323.500000 130.945841
323.500000 131.418391
323.500000 131.891783
323.500000 132.366019
323.500000 132.841098
323.500000 133.317020
323.500000 133.793785
323.500000 134.271393
323.500000 134.749844
323.500000 135.229138
323.500000 135.709275
323.500000 136.190256
323.500000 136.672079
323.500000 137.154746
323.500000 137.638256
323.500000 138.122608
323.500000 138.607804
323.500000 139.093843
323.500000 139.580725
323.500000 140.068450
323.500000 140.557018
323.500000 141.046430
323.500000 141.536684
323.500000 142.027781
323.500000 142.519722
323.500000 143.012506
323.500000 143.506132
323.500000 144.000602
323.500000 144.495915
323.500000 144.992071
323.500000 145.489070
323.500000 145.986912
323.500000 146.485597
323.500000 146.985125
323.500000 147.485497
323.500000 147.986711
323.500000 148.488769
323.500000 148.991669
323.500000 149.495413
323.500000 150.000000
</POINTS>
</NEKTAR>

