<?xml version="1.0" encoding="utf-8" ?>
<NEKTAR>
<POINTS DIM="2" FIELDS="">
595.500000 0.000000
595.500000 0.000418
595.500000 0.001672
595.500000 0.003763
595.500000 0.006689
595.500000 0.010451
595.500000 0.015050
595.500000 0.020485
595.500000 0.026756
595.500000 0.033863
595.500000 0.041806
595.500000 0.050585
595.500000 0.060201
595.500000 0.070652
595.500000 0.081940
595.500000 0.094063
595.500000 0.107023
595.500000 0.120819
595.500000 0.135451
595.500000 0.150919
595.500000 0.167224
595.500000 0.184364
595.500000 0.202341
595.500000 0.221153
595.500000 0.240802
595.500000 0.261287
595.500000 0.282608
595.500000 0.304765
595.500000 0.327758
595.500000 0.351588
595.500000 0.376253
595.500000 0.401755
595.500000 0.428092
595.500000 0.455266
595.500000 0.483276
595.500000 0.512122
595.500000 0.541805
595.500000 0.572323
595.500000 0.603677
595.500000 0.635868
595.500000 0.668894
595.500000 0.702757
595.500000 0.737456
595.500000 0.772991
595.500000 0.809362
595.500000 0.846570
595.500000 0.884613
595.500000 0.923492
595.500000 0.963208
595.500000 1.003760
595.500000 1.045148
595.500000 1.087372
595.500000 1.130432
595.500000 1.174328
595.500000 1.219060
595.500000 1.264629
595.500000 1.311033
595.500000 1.358274
595.500000 1.406351
595.500000 1.455264
595.500000 1.505013
595.500000 1.555598
595.500000 1.607019
595.500000 1.659276
595.500000 1.712370
595.500000 1.766299
595.500000 1.821065
595.500000 1.876667
595.500000 1.933105
595.500000 1.990379
595.500000 2.048489
595.500000 2.107436
595.500000 2.167218
595.500000 2.227837
595.500000 2.289291
595.500000 2.351582
595.500000 2.414709
595.500000 2.478672
595.500000 2.543471
595.500000 2.609106
595.500000 2.675578
595.500000 2.742885
595.500000 2.811029
595.500000 2.880009
595.500000 2.949825
595.500000 3.020477
595.500000 3.091965
595.500000 3.164289
595.500000 3.237449
595.500000 3.311446
595.500000 3.386278
595.500000 3.461947
595.500000 3.538452
595.500000 3.615793
595.500000 3.693970
595.500000 3.772983
595.500000 3.852832
595.500000 3.933517
595.500000 4.015039
595.500000 4.097397
595.500000 4.180590
595.500000 4.264620
595.500000 4.349486
595.500000 4.435188
595.500000 4.521727
595.500000 4.609101
595.500000 4.697311
595.500000 4.786358
595.500000 4.876241
595.500000 4.966959
595.500000 5.058514
595.500000 5.150905
595.500000 5.244133
595.500000 5.338196
595.500000 5.433095
595.500000 5.528831
595.500000 5.625402
595.500000 5.722810
595.500000 5.821054
595.500000 5.920134
595.500000 6.020050
595.500000 6.120802
595.500000 6.222391
595.500000 6.324815
595.500000 6.428076
595.500000 6.532172
595.500000 6.637105
595.500000 6.742874
595.500000 6.849479
595.500000 6.956920
595.500000 7.065198
595.500000 7.174311
595.500000 7.284261
595.500000 7.395046
595.500000 7.506668
595.500000 7.619126
595.500000 7.732420
595.500000 7.846550
595.500000 7.961516
595.500000 8.077319
595.500000 8.193957
595.500000 8.311432
595.500000 8.429742
595.500000 8.548889
595.500000 8.668872
595.500000 8.789691
595.500000 8.911346
595.500000 9.033838
595.500000 9.157165
595.500000 9.281329
595.500000 9.406328
595.500000 9.532164
595.500000 9.658836
595.500000 9.786344
595.500000 9.914688
595.500000 10.043868
595.500000 10.173885
595.500000 10.304737
595.500000 10.436426
595.500000 10.568950
595.500000 10.702311
595.500000 10.836508
595.500000 10.971541
595.500000 11.107411
595.500000 11.244116
595.500000 11.381657
595.500000 11.520035
595.500000 11.659248
595.500000 11.799298
595.500000 11.940184
595.500000 12.081906
595.500000 12.224464
595.500000 12.367859
595.500000 12.512089
595.500000 12.657155
595.500000 12.803058
595.500000 12.949797
595.500000 13.097372
595.500000 13.245782
595.500000 13.395030
595.500000 13.545113
595.500000 13.696032
595.500000 13.847787
595.500000 14.000379
595.500000 14.153807
595.500000 14.308070
595.500000 14.463170
595.500000 14.619106
595.500000 14.775879
595.500000 14.933487
595.500000 15.091931
595.500000 15.251212
595.500000 15.411328
595.500000 15.572281
595.500000 15.734070
595.500000 15.896695
595.500000 16.060156
595.500000 16.224453
595.500000 16.389586
595.500000 16.555556
595.500000 16.722361
595.500000 16.890003
595.500000 17.058481
595.500000 17.227795
595.500000 17.397945
595.500000 17.568931
595.500000 17.740753
595.500000 17.913412
595.500000 18.086906
595.500000 18.261237
595.500000 18.436403
595.500000 18.612406
595.500000 18.789245
595.500000 18.966920
595.500000 19.145432
595.500000 19.324779
595.500000 19.504962
595.500000 19.685982
595.500000 19.867838
595.500000 20.050529
595.500000 20.234057
595.500000 20.418421
595.500000 20.603622
595.500000 20.789658
595.500000 20.976530
595.500000 21.164239
595.500000 21.352783
595.500000 21.542164
595.500000 21.732381
595.500000 21.923434
595.500000 22.115323
595.500000 22.308048
595.500000 22.501610
595.500000 22.696007
595.500000 22.891241
595.500000 23.087310
595.500000 23.284216
595.500000 23.481958
595.500000 23.680536
595.500000 23.879950
595.500000 24.080200
595.500000 24.281287
595.500000 24.483209
595.500000 24.685968
595.500000 24.889563
595.500000 25.093994
595.500000 25.299261
595.500000 25.505364
595.500000 25.712303
595.500000 25.920078
595.500000 26.128690
595.500000 26.338137
595.500000 26.548421
595.500000 26.759541
595.500000 26.971497
595.500000 27.184289
595.500000 27.397917
595.500000 27.612381
595.500000 27.827682
595.500000 28.043818
595.500000 28.260791
595.500000 28.478600
595.500000 28.697244
595.500000 28.916725
595.500000 29.137043
595.500000 29.358196
595.500000 29.580185
595.500000 29.803011
595.500000 30.026672
595.500000 30.251170
595.500000 30.476504
595.500000 30.702674
595.500000 30.929680
595.500000 31.157522
595.500000 31.386200
595.500000 31.615715
595.500000 31.846065
595.500000 32.077252
595.500000 32.309275
595.500000 32.542133
595.500000 32.775828
595.500000 33.010360
595.500000 33.245727
595.500000 33.481930
595.500000 33.718970
595.500000 33.956845
595.500000 34.195557
595.500000 34.435105
595.500000 34.675489
595.500000 34.916709
595.500000 35.158765
595.500000 35.401657
595.500000 35.645386
595.500000 35.889950
595.500000 36.135351
595.500000 36.381588
595.500000 36.628660
595.500000 36.876569
595.500000 37.125315
595.500000 37.374896
595.500000 37.625313
595.500000 37.876567
595.500000 38.128656
595.500000 38.381582
595.500000 38.635344
595.500000 38.889942
595.500000 39.145376
595.500000 39.401646
595.500000 39.658752
595.500000 39.916695
595.500000 40.175473
595.500000 40.435088
595.500000 40.695539
595.500000 40.956826
595.500000 41.218949
595.500000 41.481908
595.500000 41.745703
595.500000 42.010334
595.500000 42.275802
595.500000 42.542106
595.500000 42.809245
595.500000 43.077221
595.500000 43.346033
595.500000 43.615681
595.500000 43.886165
595.500000 44.157486
595.500000 44.429642
595.500000 44.702635
595.500000 44.976463
595.500000 45.251128
595.500000 45.526629
595.500000 45.802966
595.500000 46.080139
595.500000 46.358148
595.500000 46.636994
595.500000 46.916675
595.500000 47.197193
595.500000 47.478547
595.500000 47.760736
595.500000 48.043762
595.500000 48.327625
595.500000 48.612323
595.500000 48.897857
595.500000 49.184227
595.500000 49.471434
595.500000 49.759477
595.500000 50.048355
595.500000 50.338070
595.500000 50.628621
595.500000 50.920009
595.500000 51.212232
595.500000 51.505291
595.500000 51.799187
595.500000 52.093918
595.500000 52.389486
595.500000 52.685890
595.500000 52.983130
595.500000 53.281206
595.500000 53.580118
595.500000 53.879867
595.500000 54.180451
595.500000 54.481872
595.500000 54.784128
595.500000 55.087221
595.500000 55.391150
595.500000 55.695915
595.500000 56.001516
595.500000 56.307953
595.500000 56.615227
595.500000 56.923336
595.500000 57.232282
595.500000 57.542064
595.500000 57.852682
595.500000 58.164136
595.500000 58.476426
595.500000 58.789552
595.500000 59.103514
595.500000 59.418313
595.500000 59.733947
595.500000 60.050418
595.500000 60.367725
595.500000 60.685868
595.500000 61.004847
595.500000 61.324662
595.500000 61.645313
595.500000 61.966801
595.500000 62.289124
595.500000 62.612284
595.500000 62.936279
595.500000 63.261111
595.500000 63.586779
595.500000 63.913283
595.500000 64.240624
595.500000 64.568800
595.500000 64.897812
595.500000 65.227661
595.500000 65.558346
595.500000 65.889867
595.500000 66.222223
595.500000 66.555417
595.500000 66.889446
595.500000 67.224311
595.500000 67.560012
595.500000 67.896550
595.500000 68.233924
595.500000 68.572133
595.500000 68.911179
595.500000 69.251061
595.500000 69.591779
595.500000 69.933334
595.500000 70.275724
595.500000 70.618950
595.500000 70.963013
595.500000 71.307912
595.500000 71.653646
595.500000 72.000217
595.500000 72.347624
595.500000 72.695868
595.500000 73.044947
595.500000 73.394862
595.500000 73.745614
595.500000 74.097202
595.500000 74.449625
595.500000 74.802885
595.500000 75.156981
595.500000 75.511913
595.500000 75.867682
595.500000 76.224286
595.500000 76.581726
595.500000 76.940003
595.500000 77.299116
595.500000 77.659064
595.500000 78.019849
595.500000 78.381471
595.500000 78.743928
595.500000 79.107221
595.500000 79.471350
595.500000 79.836316
595.500000 80.202118
595.500000 80.568755
595.500000 80.936229
595.500000 81.304539
595.500000 81.673685
595.500000 82.043668
595.500000 82.414486
595.500000 82.786141
595.500000 83.158631
595.500000 83.531958
595.500000 83.906121
595.500000 84.281120
595.500000 84.656955
595.500000 85.033626
595.500000 85.411133
595.500000 85.789477
595.500000 86.168656
595.500000 86.548672
595.500000 86.929524
595.500000 87.311212
595.500000 87.693736
595.500000 88.077096
595.500000 88.461292
595.500000 88.846324
595.500000 89.232193
595.500000 89.618897
595.500000 90.006438
595.500000 90.394815
595.500000 90.784028
595.500000 91.174077
595.500000 91.564962
595.500000 91.956684
595.500000 92.349241
595.500000 92.742634
595.500000 93.136864
595.500000 93.531930
595.500000 93.927832
595.500000 94.324570
595.500000 94.722144
595.500000 95.120554
595.500000 95.519801
595.500000 95.919883
595.500000 96.320802
595.500000 96.722557
595.500000 97.125147
595.500000 97.528574
595.500000 97.932837
595.500000 98.337937
595.500000 98.743872
595.500000 99.150643
595.500000 99.558251
595.500000 99.966695
595.500000 100.375974
595.500000 100.786090
595.500000 101.197042
595.500000 101.608831
595.500000 102.021455
595.500000 102.434915
595.500000 102.849212
595.500000 103.264344
595.500000 103.680313
595.500000 104.097118
595.500000 104.514759
595.500000 104.933236
595.500000 105.352549
595.500000 105.772699
595.500000 106.193684
595.500000 106.615506
595.500000 107.038163
595.500000 107.461657
595.500000 107.885987
595.500000 108.311153
595.500000 108.737155
595.500000 109.163993
595.500000 109.591668
595.500000 110.020178
595.500000 110.449525
595.500000 110.879708
595.500000 111.310727
595.500000 111.742582
595.500000 112.175273
595.500000 112.608800
595.500000 113.043163
595.500000 113.478363
595.500000 113.914398
595.500000 114.351270
595.500000 114.788978
595.500000 115.227522
595.500000 115.666902
595.500000 116.107118
595.500000 116.548170
595.500000 116.990059
595.500000 117.432783
595.500000 117.876344
595.500000 118.320740
595.500000 118.765973
595.500000 119.212042
595.500000 119.658947
595.500000 120.106689
595.500000 120.555266
595.500000 121.004679
595.500000 121.454929
595.500000 121.906015
595.500000 122.357937
595.500000 122.810695
595.500000 123.264289
595.500000 123.718719
595.500000 124.173985
595.500000 124.630087
595.500000 125.087026
595.500000 125.544801
595.500000 126.003411
595.500000 126.462858
595.500000 126.923141
595.500000 127.384260
595.500000 127.846216
595.500000 128.309007
595.500000 128.772634
595.500000 129.237098
595.500000 129.702398
595.500000 130.168534
595.500000 130.635505
595.500000 131.103314
595.500000 131.571958
595.500000 132.041438
595.500000 132.511754
595.500000 132.982907
595.500000 133.454896
595.500000 133.927720
595.500000 134.401381
595.500000 134.875878
595.500000 135.351211
595.500000 135.827381
595.500000 136.304386
595.500000 136.782227
595.500000 137.260905
595.500000 137.740419
595.500000 138.220769
595.500000 138.701955
595.500000 139.183977
595.500000 139.666835
595.500000 140.150529
595.500000 140.635060
595.500000 141.120426
595.500000 141.606629
595.500000 142.093668
595.500000 142.581542
595.500000 143.070253
595.500000 143.559801
595.500000 144.050184
595.500000 144.541403
595.500000 145.033459
595.500000 145.526350
595.500000 146.020078
595.500000 146.514642
595.500000 147.010042
595.500000 147.506278
595.500000 148.003350
595.500000 148.501258
595.500000 149.000003
595.500000 149.499583
595.500000 150.000000
</POINTS>
</NEKTAR>

