<?xml version="1.0" encoding="utf-8" ?>
<NEKTAR>
<POINTS DIM="2" FIELDS="">
415.500000 0.000000
415.500000 0.000418
415.500000 0.001672
415.500000 0.003763
415.500000 0.006689
415.500000 0.010451
415.500000 0.015050
415.500000 0.020485
415.500000 0.026756
415.500000 0.033863
415.500000 0.041806
415.500000 0.050585
415.500000 0.060201
415.500000 0.070652
415.500000 0.081940
415.500000 0.094063
415.500000 0.107023
415.500000 0.120819
415.500000 0.135451
415.500000 0.150919
415.500000 0.167224
415.500000 0.184364
415.500000 0.202341
415.500000 0.221153
415.500000 0.240802
415.500000 0.261287
415.500000 0.282608
415.500000 0.304765
415.500000 0.327758
415.500000 0.351588
415.500000 0.376253
415.500000 0.401755
415.500000 0.428092
415.500000 0.455266
415.500000 0.483276
415.500000 0.512122
415.500000 0.541805
415.500000 0.572323
415.500000 0.603677
415.500000 0.635868
415.500000 0.668894
415.500000 0.702757
415.500000 0.737456
415.500000 0.772991
415.500000 0.809362
415.500000 0.846570
415.500000 0.884613
415.500000 0.923492
415.500000 0.963208
415.500000 1.003760
415.500000 1.045148
415.500000 1.087372
415.500000 1.130432
415.500000 1.174328
415.500000 1.219060
415.500000 1.264629
415.500000 1.311033
415.500000 1.358274
415.500000 1.406351
415.500000 1.455264
415.500000 1.505013
415.500000 1.555598
415.500000 1.607019
415.500000 1.659276
415.500000 1.712370
415.500000 1.766299
415.500000 1.821065
415.500000 1.876667
415.500000 1.933105
415.500000 1.990379
415.500000 2.048489
415.500000 2.107436
415.500000 2.167218
415.500000 2.227837
415.500000 2.289291
415.500000 2.351582
415.500000 2.414709
415.500000 2.478672
415.500000 2.543471
415.500000 2.609106
415.500000 2.675578
415.500000 2.742885
415.500000 2.811029
415.500000 2.880009
415.500000 2.949825
415.500000 3.020477
415.500000 3.091965
415.500000 3.164289
415.500000 3.237449
415.500000 3.311446
415.500000 3.386278
415.500000 3.461947
415.500000 3.538452
415.500000 3.615793
415.500000 3.693970
415.500000 3.772983
415.500000 3.852832
415.500000 3.933517
415.500000 4.015039
415.500000 4.097397
415.500000 4.180590
415.500000 4.264620
415.500000 4.349486
415.500000 4.435188
415.500000 4.521727
415.500000 4.609101
415.500000 4.697311
415.500000 4.786358
415.500000 4.876241
415.500000 4.966959
415.500000 5.058514
415.500000 5.150905
415.500000 5.244133
415.500000 5.338196
415.500000 5.433095
415.500000 5.528831
415.500000 5.625402
415.500000 5.722810
415.500000 5.821054
415.500000 5.920134
415.500000 6.020050
415.500000 6.120802
415.500000 6.222391
415.500000 6.324815
415.500000 6.428076
415.500000 6.532172
415.500000 6.637105
415.500000 6.742874
415.500000 6.849479
415.500000 6.956920
415.500000 7.065198
415.500000 7.174311
415.500000 7.284261
415.500000 7.395046
415.500000 7.506668
415.500000 7.619126
415.500000 7.732420
415.500000 7.846550
415.500000 7.961516
415.500000 8.077319
415.500000 8.193957
415.500000 8.311432
415.500000 8.429742
415.500000 8.548889
415.500000 8.668872
415.500000 8.789691
415.500000 8.911346
415.500000 9.033838
415.500000 9.157165
415.500000 9.281329
415.500000 9.406328
415.500000 9.532164
415.500000 9.658836
415.500000 9.786344
415.500000 9.914688
415.500000 10.043868
415.500000 10.173885
415.500000 10.304737
415.500000 10.436426
415.500000 10.568950
415.500000 10.702311
415.500000 10.836508
415.500000 10.971541
415.500000 11.107411
415.500000 11.244116
415.500000 11.381657
415.500000 11.520035
415.500000 11.659248
415.500000 11.799298
415.500000 11.940184
415.500000 12.081906
415.500000 12.224464
415.500000 12.367859
415.500000 12.512089
415.500000 12.657155
415.500000 12.803058
415.500000 12.949797
415.500000 13.097372
415.500000 13.245782
415.500000 13.395030
415.500000 13.545113
415.500000 13.696032
415.500000 13.847787
415.500000 14.000379
415.500000 14.153807
415.500000 14.308070
415.500000 14.463170
415.500000 14.619106
415.500000 14.775879
415.500000 14.933487
415.500000 15.091931
415.500000 15.251212
415.500000 15.411328
415.500000 15.572281
415.500000 15.734070
415.500000 15.896695
415.500000 16.060156
415.500000 16.224453
415.500000 16.389586
415.500000 16.555556
415.500000 16.722361
415.500000 16.890003
415.500000 17.058481
415.500000 17.227795
415.500000 17.397945
415.500000 17.568931
415.500000 17.740753
415.500000 17.913412
415.500000 18.086906
415.500000 18.261237
415.500000 18.436403
415.500000 18.612406
415.500000 18.789245
415.500000 18.966920
415.500000 19.145432
415.500000 19.324779
415.500000 19.504962
415.500000 19.685982
415.500000 19.867838
415.500000 20.050529
415.500000 20.234057
415.500000 20.418421
415.500000 20.603622
415.500000 20.789658
415.500000 20.976530
415.500000 21.164239
415.500000 21.352783
415.500000 21.542164
415.500000 21.732381
415.500000 21.923434
415.500000 22.115323
415.500000 22.308048
415.500000 22.501610
415.500000 22.696007
415.500000 22.891241
415.500000 23.087310
415.500000 23.284216
415.500000 23.481958
415.500000 23.680536
415.500000 23.879950
415.500000 24.080200
415.500000 24.281287
415.500000 24.483209
415.500000 24.685968
415.500000 24.889563
415.500000 25.093994
415.500000 25.299261
415.500000 25.505364
415.500000 25.712303
415.500000 25.920078
415.500000 26.128690
415.500000 26.338137
415.500000 26.548421
415.500000 26.759541
415.500000 26.971497
415.500000 27.184289
415.500000 27.397917
415.500000 27.612381
415.500000 27.827682
415.500000 28.043818
415.500000 28.260791
415.500000 28.478600
415.500000 28.697244
415.500000 28.916725
415.500000 29.137043
415.500000 29.358196
415.500000 29.580185
415.500000 29.803011
415.500000 30.026672
415.500000 30.251170
415.500000 30.476504
415.500000 30.702674
415.500000 30.929680
415.500000 31.157522
415.500000 31.386200
415.500000 31.615715
415.500000 31.846065
415.500000 32.077252
415.500000 32.309275
415.500000 32.542133
415.500000 32.775828
415.500000 33.010360
415.500000 33.245727
415.500000 33.481930
415.500000 33.718970
415.500000 33.956845
415.500000 34.195557
415.500000 34.435105
415.500000 34.675489
415.500000 34.916709
415.500000 35.158765
415.500000 35.401657
415.500000 35.645386
415.500000 35.889950
415.500000 36.135351
415.500000 36.381588
415.500000 36.628660
415.500000 36.876569
415.500000 37.125315
415.500000 37.374896
415.500000 37.625313
415.500000 37.876567
415.500000 38.128656
415.500000 38.381582
415.500000 38.635344
415.500000 38.889942
415.500000 39.145376
415.500000 39.401646
415.500000 39.658752
415.500000 39.916695
415.500000 40.175473
415.500000 40.435088
415.500000 40.695539
415.500000 40.956826
415.500000 41.218949
415.500000 41.481908
415.500000 41.745703
415.500000 42.010334
415.500000 42.275802
415.500000 42.542106
415.500000 42.809245
415.500000 43.077221
415.500000 43.346033
415.500000 43.615681
415.500000 43.886165
415.500000 44.157486
415.500000 44.429642
415.500000 44.702635
415.500000 44.976463
415.500000 45.251128
415.500000 45.526629
415.500000 45.802966
415.500000 46.080139
415.500000 46.358148
415.500000 46.636994
415.500000 46.916675
415.500000 47.197193
415.500000 47.478547
415.500000 47.760736
415.500000 48.043762
415.500000 48.327625
415.500000 48.612323
415.500000 48.897857
415.500000 49.184227
415.500000 49.471434
415.500000 49.759477
415.500000 50.048355
415.500000 50.338070
415.500000 50.628621
415.500000 50.920009
415.500000 51.212232
415.500000 51.505291
415.500000 51.799187
415.500000 52.093918
415.500000 52.389486
415.500000 52.685890
415.500000 52.983130
415.500000 53.281206
415.500000 53.580118
415.500000 53.879867
415.500000 54.180451
415.500000 54.481872
415.500000 54.784128
415.500000 55.087221
415.500000 55.391150
415.500000 55.695915
415.500000 56.001516
415.500000 56.307953
415.500000 56.615227
415.500000 56.923336
415.500000 57.232282
415.500000 57.542064
415.500000 57.852682
415.500000 58.164136
415.500000 58.476426
415.500000 58.789552
415.500000 59.103514
415.500000 59.418313
415.500000 59.733947
415.500000 60.050418
415.500000 60.367725
415.500000 60.685868
415.500000 61.004847
415.500000 61.324662
415.500000 61.645313
415.500000 61.966801
415.500000 62.289124
415.500000 62.612284
415.500000 62.936279
415.500000 63.261111
415.500000 63.586779
415.500000 63.913283
415.500000 64.240624
415.500000 64.568800
415.500000 64.897812
415.500000 65.227661
415.500000 65.558346
415.500000 65.889867
415.500000 66.222223
415.500000 66.555417
415.500000 66.889446
415.500000 67.224311
415.500000 67.560012
415.500000 67.896550
415.500000 68.233924
415.500000 68.572133
415.500000 68.911179
415.500000 69.251061
415.500000 69.591779
415.500000 69.933334
415.500000 70.275724
415.500000 70.618950
415.500000 70.963013
415.500000 71.307912
415.500000 71.653646
415.500000 72.000217
415.500000 72.347624
415.500000 72.695868
415.500000 73.044947
415.500000 73.394862
415.500000 73.745614
415.500000 74.097202
415.500000 74.449625
415.500000 74.802885
415.500000 75.156981
415.500000 75.511913
415.500000 75.867682
415.500000 76.224286
415.500000 76.581726
415.500000 76.940003
415.500000 77.299116
415.500000 77.659064
415.500000 78.019849
415.500000 78.381471
415.500000 78.743928
415.500000 79.107221
415.500000 79.471350
415.500000 79.836316
415.500000 80.202118
415.500000 80.568755
415.500000 80.936229
415.500000 81.304539
415.500000 81.673685
415.500000 82.043668
415.500000 82.414486
415.500000 82.786141
415.500000 83.158631
415.500000 83.531958
415.500000 83.906121
415.500000 84.281120
415.500000 84.656955
415.500000 85.033626
415.500000 85.411133
415.500000 85.789477
415.500000 86.168656
415.500000 86.548672
415.500000 86.929524
415.500000 87.311212
415.500000 87.693736
415.500000 88.077096
415.500000 88.461292
415.500000 88.846324
415.500000 89.232193
415.500000 89.618897
415.500000 90.006438
415.500000 90.394815
415.500000 90.784028
415.500000 91.174077
415.500000 91.564962
415.500000 91.956684
415.500000 92.349241
415.500000 92.742634
415.500000 93.136864
415.500000 93.531930
415.500000 93.927832
415.500000 94.324570
415.500000 94.722144
415.500000 95.120554
415.500000 95.519801
415.500000 95.919883
415.500000 96.320802
415.500000 96.722557
415.500000 97.125147
415.500000 97.528574
415.500000 97.932837
415.500000 98.337937
415.500000 98.743872
415.500000 99.150643
415.500000 99.558251
415.500000 99.966695
415.500000 100.375974
415.500000 100.786090
415.500000 101.197042
415.500000 101.608831
415.500000 102.021455
415.500000 102.434915
415.500000 102.849212
415.500000 103.264344
415.500000 103.680313
415.500000 104.097118
415.500000 104.514759
415.500000 104.933236
415.500000 105.352549
415.500000 105.772699
415.500000 106.193684
415.500000 106.615506
415.500000 107.038163
415.500000 107.461657
415.500000 107.885987
415.500000 108.311153
415.500000 108.737155
415.500000 109.163993
415.500000 109.591668
415.500000 110.020178
415.500000 110.449525
415.500000 110.879708
415.500000 111.310727
415.500000 111.742582
415.500000 112.175273
415.500000 112.608800
415.500000 113.043163
415.500000 113.478363
415.500000 113.914398
415.500000 114.351270
415.500000 114.788978
415.500000 115.227522
415.500000 115.666902
415.500000 116.107118
415.500000 116.548170
415.500000 116.990059
415.500000 117.432783
415.500000 117.876344
415.500000 118.320740
415.500000 118.765973
415.500000 119.212042
415.500000 119.658947
415.500000 120.106689
415.500000 120.555266
415.500000 121.004679
415.500000 121.454929
415.500000 121.906015
415.500000 122.357937
415.500000 122.810695
415.500000 123.264289
415.500000 123.718719
415.500000 124.173985
415.500000 124.630087
415.500000 125.087026
415.500000 125.544801
415.500000 126.003411
415.500000 126.462858
415.500000 126.923141
415.500000 127.384260
415.500000 127.846216
415.500000 128.309007
415.500000 128.772634
415.500000 129.237098
415.500000 129.702398
415.500000 130.168534
415.500000 130.635505
415.500000 131.103314
415.500000 131.571958
415.500000 132.041438
415.500000 132.511754
415.500000 132.982907
415.500000 133.454896
415.500000 133.927720
415.500000 134.401381
415.500000 134.875878
415.500000 135.351211
415.500000 135.827381
415.500000 136.304386
415.500000 136.782227
415.500000 137.260905
415.500000 137.740419
415.500000 138.220769
415.500000 138.701955
415.500000 139.183977
415.500000 139.666835
415.500000 140.150529
415.500000 140.635060
415.500000 141.120426
415.500000 141.606629
415.500000 142.093668
415.500000 142.581542
415.500000 143.070253
415.500000 143.559801
415.500000 144.050184
415.500000 144.541403
415.500000 145.033459
415.500000 145.526350
415.500000 146.020078
415.500000 146.514642
415.500000 147.010042
415.500000 147.506278
415.500000 148.003350
415.500000 148.501258
415.500000 149.000003
415.500000 149.499583
415.500000 150.000000
</POINTS>
</NEKTAR>

