<?xml version="1.0" encoding="utf-8" ?>
<NEKTAR>
<POINTS DIM="2" FIELDS="">
535.500000 0.000000
535.500000 0.000418
535.500000 0.001672
535.500000 0.003763
535.500000 0.006689
535.500000 0.010451
535.500000 0.015050
535.500000 0.020485
535.500000 0.026756
535.500000 0.033863
535.500000 0.041806
535.500000 0.050585
535.500000 0.060201
535.500000 0.070652
535.500000 0.081940
535.500000 0.094063
535.500000 0.107023
535.500000 0.120819
535.500000 0.135451
535.500000 0.150919
535.500000 0.167224
535.500000 0.184364
535.500000 0.202341
535.500000 0.221153
535.500000 0.240802
535.500000 0.261287
535.500000 0.282608
535.500000 0.304765
535.500000 0.327758
535.500000 0.351588
535.500000 0.376253
535.500000 0.401755
535.500000 0.428092
535.500000 0.455266
535.500000 0.483276
535.500000 0.512122
535.500000 0.541805
535.500000 0.572323
535.500000 0.603677
535.500000 0.635868
535.500000 0.668894
535.500000 0.702757
535.500000 0.737456
535.500000 0.772991
535.500000 0.809362
535.500000 0.846570
535.500000 0.884613
535.500000 0.923492
535.500000 0.963208
535.500000 1.003760
535.500000 1.045148
535.500000 1.087372
535.500000 1.130432
535.500000 1.174328
535.500000 1.219060
535.500000 1.264629
535.500000 1.311033
535.500000 1.358274
535.500000 1.406351
535.500000 1.455264
535.500000 1.505013
535.500000 1.555598
535.500000 1.607019
535.500000 1.659276
535.500000 1.712370
535.500000 1.766299
535.500000 1.821065
535.500000 1.876667
535.500000 1.933105
535.500000 1.990379
535.500000 2.048489
535.500000 2.107436
535.500000 2.167218
535.500000 2.227837
535.500000 2.289291
535.500000 2.351582
535.500000 2.414709
535.500000 2.478672
535.500000 2.543471
535.500000 2.609106
535.500000 2.675578
535.500000 2.742885
535.500000 2.811029
535.500000 2.880009
535.500000 2.949825
535.500000 3.020477
535.500000 3.091965
535.500000 3.164289
535.500000 3.237449
535.500000 3.311446
535.500000 3.386278
535.500000 3.461947
535.500000 3.538452
535.500000 3.615793
535.500000 3.693970
535.500000 3.772983
535.500000 3.852832
535.500000 3.933517
535.500000 4.015039
535.500000 4.097397
535.500000 4.180590
535.500000 4.264620
535.500000 4.349486
535.500000 4.435188
535.500000 4.521727
535.500000 4.609101
535.500000 4.697311
535.500000 4.786358
535.500000 4.876241
535.500000 4.966959
535.500000 5.058514
535.500000 5.150905
535.500000 5.244133
535.500000 5.338196
535.500000 5.433095
535.500000 5.528831
535.500000 5.625402
535.500000 5.722810
535.500000 5.821054
535.500000 5.920134
535.500000 6.020050
535.500000 6.120802
535.500000 6.222391
535.500000 6.324815
535.500000 6.428076
535.500000 6.532172
535.500000 6.637105
535.500000 6.742874
535.500000 6.849479
535.500000 6.956920
535.500000 7.065198
535.500000 7.174311
535.500000 7.284261
535.500000 7.395046
535.500000 7.506668
535.500000 7.619126
535.500000 7.732420
535.500000 7.846550
535.500000 7.961516
535.500000 8.077319
535.500000 8.193957
535.500000 8.311432
535.500000 8.429742
535.500000 8.548889
535.500000 8.668872
535.500000 8.789691
535.500000 8.911346
535.500000 9.033838
535.500000 9.157165
535.500000 9.281329
535.500000 9.406328
535.500000 9.532164
535.500000 9.658836
535.500000 9.786344
535.500000 9.914688
535.500000 10.043868
535.500000 10.173885
535.500000 10.304737
535.500000 10.436426
535.500000 10.568950
535.500000 10.702311
535.500000 10.836508
535.500000 10.971541
535.500000 11.107411
535.500000 11.244116
535.500000 11.381657
535.500000 11.520035
535.500000 11.659248
535.500000 11.799298
535.500000 11.940184
535.500000 12.081906
535.500000 12.224464
535.500000 12.367859
535.500000 12.512089
535.500000 12.657155
535.500000 12.803058
535.500000 12.949797
535.500000 13.097372
535.500000 13.245782
535.500000 13.395030
535.500000 13.545113
535.500000 13.696032
535.500000 13.847787
535.500000 14.000379
535.500000 14.153807
535.500000 14.308070
535.500000 14.463170
535.500000 14.619106
535.500000 14.775879
535.500000 14.933487
535.500000 15.091931
535.500000 15.251212
535.500000 15.411328
535.500000 15.572281
535.500000 15.734070
535.500000 15.896695
535.500000 16.060156
535.500000 16.224453
535.500000 16.389586
535.500000 16.555556
535.500000 16.722361
535.500000 16.890003
535.500000 17.058481
535.500000 17.227795
535.500000 17.397945
535.500000 17.568931
535.500000 17.740753
535.500000 17.913412
535.500000 18.086906
535.500000 18.261237
535.500000 18.436403
535.500000 18.612406
535.500000 18.789245
535.500000 18.966920
535.500000 19.145432
535.500000 19.324779
535.500000 19.504962
535.500000 19.685982
535.500000 19.867838
535.500000 20.050529
535.500000 20.234057
535.500000 20.418421
535.500000 20.603622
535.500000 20.789658
535.500000 20.976530
535.500000 21.164239
535.500000 21.352783
535.500000 21.542164
535.500000 21.732381
535.500000 21.923434
535.500000 22.115323
535.500000 22.308048
535.500000 22.501610
535.500000 22.696007
535.500000 22.891241
535.500000 23.087310
535.500000 23.284216
535.500000 23.481958
535.500000 23.680536
535.500000 23.879950
535.500000 24.080200
535.500000 24.281287
535.500000 24.483209
535.500000 24.685968
535.500000 24.889563
535.500000 25.093994
535.500000 25.299261
535.500000 25.505364
535.500000 25.712303
535.500000 25.920078
535.500000 26.128690
535.500000 26.338137
535.500000 26.548421
535.500000 26.759541
535.500000 26.971497
535.500000 27.184289
535.500000 27.397917
535.500000 27.612381
535.500000 27.827682
535.500000 28.043818
535.500000 28.260791
535.500000 28.478600
535.500000 28.697244
535.500000 28.916725
535.500000 29.137043
535.500000 29.358196
535.500000 29.580185
535.500000 29.803011
535.500000 30.026672
535.500000 30.251170
535.500000 30.476504
535.500000 30.702674
535.500000 30.929680
535.500000 31.157522
535.500000 31.386200
535.500000 31.615715
535.500000 31.846065
535.500000 32.077252
535.500000 32.309275
535.500000 32.542133
535.500000 32.775828
535.500000 33.010360
535.500000 33.245727
535.500000 33.481930
535.500000 33.718970
535.500000 33.956845
535.500000 34.195557
535.500000 34.435105
535.500000 34.675489
535.500000 34.916709
535.500000 35.158765
535.500000 35.401657
535.500000 35.645386
535.500000 35.889950
535.500000 36.135351
535.500000 36.381588
535.500000 36.628660
535.500000 36.876569
535.500000 37.125315
535.500000 37.374896
535.500000 37.625313
535.500000 37.876567
535.500000 38.128656
535.500000 38.381582
535.500000 38.635344
535.500000 38.889942
535.500000 39.145376
535.500000 39.401646
535.500000 39.658752
535.500000 39.916695
535.500000 40.175473
535.500000 40.435088
535.500000 40.695539
535.500000 40.956826
535.500000 41.218949
535.500000 41.481908
535.500000 41.745703
535.500000 42.010334
535.500000 42.275802
535.500000 42.542106
535.500000 42.809245
535.500000 43.077221
535.500000 43.346033
535.500000 43.615681
535.500000 43.886165
535.500000 44.157486
535.500000 44.429642
535.500000 44.702635
535.500000 44.976463
535.500000 45.251128
535.500000 45.526629
535.500000 45.802966
535.500000 46.080139
535.500000 46.358148
535.500000 46.636994
535.500000 46.916675
535.500000 47.197193
535.500000 47.478547
535.500000 47.760736
535.500000 48.043762
535.500000 48.327625
535.500000 48.612323
535.500000 48.897857
535.500000 49.184227
535.500000 49.471434
535.500000 49.759477
535.500000 50.048355
535.500000 50.338070
535.500000 50.628621
535.500000 50.920009
535.500000 51.212232
535.500000 51.505291
535.500000 51.799187
535.500000 52.093918
535.500000 52.389486
535.500000 52.685890
535.500000 52.983130
535.500000 53.281206
535.500000 53.580118
535.500000 53.879867
535.500000 54.180451
535.500000 54.481872
535.500000 54.784128
535.500000 55.087221
535.500000 55.391150
535.500000 55.695915
535.500000 56.001516
535.500000 56.307953
535.500000 56.615227
535.500000 56.923336
535.500000 57.232282
535.500000 57.542064
535.500000 57.852682
535.500000 58.164136
535.500000 58.476426
535.500000 58.789552
535.500000 59.103514
535.500000 59.418313
535.500000 59.733947
535.500000 60.050418
535.500000 60.367725
535.500000 60.685868
535.500000 61.004847
535.500000 61.324662
535.500000 61.645313
535.500000 61.966801
535.500000 62.289124
535.500000 62.612284
535.500000 62.936279
535.500000 63.261111
535.500000 63.586779
535.500000 63.913283
535.500000 64.240624
535.500000 64.568800
535.500000 64.897812
535.500000 65.227661
535.500000 65.558346
535.500000 65.889867
535.500000 66.222223
535.500000 66.555417
535.500000 66.889446
535.500000 67.224311
535.500000 67.560012
535.500000 67.896550
535.500000 68.233924
535.500000 68.572133
535.500000 68.911179
535.500000 69.251061
535.500000 69.591779
535.500000 69.933334
535.500000 70.275724
535.500000 70.618950
535.500000 70.963013
535.500000 71.307912
535.500000 71.653646
535.500000 72.000217
535.500000 72.347624
535.500000 72.695868
535.500000 73.044947
535.500000 73.394862
535.500000 73.745614
535.500000 74.097202
535.500000 74.449625
535.500000 74.802885
535.500000 75.156981
535.500000 75.511913
535.500000 75.867682
535.500000 76.224286
535.500000 76.581726
535.500000 76.940003
535.500000 77.299116
535.500000 77.659064
535.500000 78.019849
535.500000 78.381471
535.500000 78.743928
535.500000 79.107221
535.500000 79.471350
535.500000 79.836316
535.500000 80.202118
535.500000 80.568755
535.500000 80.936229
535.500000 81.304539
535.500000 81.673685
535.500000 82.043668
535.500000 82.414486
535.500000 82.786141
535.500000 83.158631
535.500000 83.531958
535.500000 83.906121
535.500000 84.281120
535.500000 84.656955
535.500000 85.033626
535.500000 85.411133
535.500000 85.789477
535.500000 86.168656
535.500000 86.548672
535.500000 86.929524
535.500000 87.311212
535.500000 87.693736
535.500000 88.077096
535.500000 88.461292
535.500000 88.846324
535.500000 89.232193
535.500000 89.618897
535.500000 90.006438
535.500000 90.394815
535.500000 90.784028
535.500000 91.174077
535.500000 91.564962
535.500000 91.956684
535.500000 92.349241
535.500000 92.742634
535.500000 93.136864
535.500000 93.531930
535.500000 93.927832
535.500000 94.324570
535.500000 94.722144
535.500000 95.120554
535.500000 95.519801
535.500000 95.919883
535.500000 96.320802
535.500000 96.722557
535.500000 97.125147
535.500000 97.528574
535.500000 97.932837
535.500000 98.337937
535.500000 98.743872
535.500000 99.150643
535.500000 99.558251
535.500000 99.966695
535.500000 100.375974
535.500000 100.786090
535.500000 101.197042
535.500000 101.608831
535.500000 102.021455
535.500000 102.434915
535.500000 102.849212
535.500000 103.264344
535.500000 103.680313
535.500000 104.097118
535.500000 104.514759
535.500000 104.933236
535.500000 105.352549
535.500000 105.772699
535.500000 106.193684
535.500000 106.615506
535.500000 107.038163
535.500000 107.461657
535.500000 107.885987
535.500000 108.311153
535.500000 108.737155
535.500000 109.163993
535.500000 109.591668
535.500000 110.020178
535.500000 110.449525
535.500000 110.879708
535.500000 111.310727
535.500000 111.742582
535.500000 112.175273
535.500000 112.608800
535.500000 113.043163
535.500000 113.478363
535.500000 113.914398
535.500000 114.351270
535.500000 114.788978
535.500000 115.227522
535.500000 115.666902
535.500000 116.107118
535.500000 116.548170
535.500000 116.990059
535.500000 117.432783
535.500000 117.876344
535.500000 118.320740
535.500000 118.765973
535.500000 119.212042
535.500000 119.658947
535.500000 120.106689
535.500000 120.555266
535.500000 121.004679
535.500000 121.454929
535.500000 121.906015
535.500000 122.357937
535.500000 122.810695
535.500000 123.264289
535.500000 123.718719
535.500000 124.173985
535.500000 124.630087
535.500000 125.087026
535.500000 125.544801
535.500000 126.003411
535.500000 126.462858
535.500000 126.923141
535.500000 127.384260
535.500000 127.846216
535.500000 128.309007
535.500000 128.772634
535.500000 129.237098
535.500000 129.702398
535.500000 130.168534
535.500000 130.635505
535.500000 131.103314
535.500000 131.571958
535.500000 132.041438
535.500000 132.511754
535.500000 132.982907
535.500000 133.454896
535.500000 133.927720
535.500000 134.401381
535.500000 134.875878
535.500000 135.351211
535.500000 135.827381
535.500000 136.304386
535.500000 136.782227
535.500000 137.260905
535.500000 137.740419
535.500000 138.220769
535.500000 138.701955
535.500000 139.183977
535.500000 139.666835
535.500000 140.150529
535.500000 140.635060
535.500000 141.120426
535.500000 141.606629
535.500000 142.093668
535.500000 142.581542
535.500000 143.070253
535.500000 143.559801
535.500000 144.050184
535.500000 144.541403
535.500000 145.033459
535.500000 145.526350
535.500000 146.020078
535.500000 146.514642
535.500000 147.010042
535.500000 147.506278
535.500000 148.003350
535.500000 148.501258
535.500000 149.000003
535.500000 149.499583
535.500000 150.000000
</POINTS>
</NEKTAR>

