<?xml version="1.0" encoding="utf-8" ?>
<NEKTAR>
<POINTS DIM="2" FIELDS="">
35.500000 -0.500000
35.500000 -0.499581
35.500000 -0.498322
35.500000 -0.496225
35.500000 -0.493289
35.500000 -0.489514
35.500000 -0.484900
35.500000 -0.479447
35.500000 -0.473155
35.500000 -0.466024
35.500000 -0.458055
35.500000 -0.449246
35.500000 -0.439599
35.500000 -0.429113
35.500000 -0.417787
35.500000 -0.405623
35.500000 -0.392620
35.500000 -0.378778
35.500000 -0.364097
35.500000 -0.348578
35.500000 -0.332219
35.500000 -0.315021
35.500000 -0.296985
35.500000 -0.278110
35.500000 -0.258395
35.500000 -0.237842
35.500000 -0.216450
35.500000 -0.194219
35.500000 -0.171149
35.500000 -0.147240
35.500000 -0.122493
35.500000 -0.096906
35.500000 -0.070481
35.500000 -0.043216
35.500000 -0.015113
35.500000 0.013829
35.500000 0.043611
35.500000 0.074231
35.500000 0.105690
35.500000 0.137987
35.500000 0.171124
35.500000 0.205100
35.500000 0.239914
35.500000 0.275568
35.500000 0.312060
35.500000 0.349391
35.500000 0.387562
35.500000 0.426571
35.500000 0.466419
35.500000 0.507106
35.500000 0.548631
35.500000 0.590996
35.500000 0.634200
35.500000 0.678242
35.500000 0.723124
35.500000 0.768844
35.500000 0.815403
35.500000 0.862801
35.500000 0.911038
35.500000 0.960114
35.500000 1.010029
35.500000 1.060783
35.500000 1.112376
35.500000 1.164807
35.500000 1.218078
35.500000 1.272187
35.500000 1.327135
35.500000 1.382923
35.500000 1.439549
35.500000 1.497014
35.500000 1.555318
35.500000 1.614460
35.500000 1.674442
35.500000 1.735263
35.500000 1.796922
35.500000 1.859421
35.500000 1.922758
35.500000 1.986934
35.500000 2.051949
35.500000 2.117803
35.500000 2.184496
35.500000 2.252028
35.500000 2.320399
35.500000 2.389609
35.500000 2.459657
35.500000 2.530545
35.500000 2.602271
35.500000 2.674836
35.500000 2.748241
35.500000 2.822484
35.500000 2.897566
35.500000 2.973487
35.500000 3.050247
35.500000 3.127845
35.500000 3.206283
35.500000 3.285559
35.500000 3.365675
35.500000 3.446629
35.500000 3.528422
35.500000 3.611055
35.500000 3.694526
35.500000 3.778836
35.500000 3.863984
35.500000 3.949972
35.500000 4.036799
35.500000 4.124465
35.500000 4.212969
35.500000 4.302312
35.500000 4.392495
35.500000 4.483516
35.500000 4.575376
35.500000 4.668075
35.500000 4.761613
35.500000 4.855990
35.500000 4.951206
35.500000 5.047260
35.500000 5.144154
35.500000 5.241886
35.500000 5.340458
35.500000 5.439868
35.500000 5.540117
35.500000 5.641205
35.500000 5.743132
35.500000 5.845898
35.500000 5.949503
35.500000 6.053946
35.500000 6.159229
35.500000 6.265350
35.500000 6.372311
35.500000 6.480110
35.500000 6.588748
35.500000 6.698225
35.500000 6.808542
35.500000 6.919696
35.500000 7.031690
35.500000 7.144523
35.500000 7.258195
35.500000 7.372705
35.500000 7.488055
35.500000 7.604243
35.500000 7.721270
35.500000 7.839136
35.500000 7.957842
35.500000 8.077386
35.500000 8.197768
35.500000 8.318990
35.500000 8.441051
35.500000 8.563950
35.500000 8.687689
35.500000 8.812266
35.500000 8.937683
35.500000 9.063938
35.500000 9.191032
35.500000 9.318965
35.500000 9.447737
35.500000 9.577348
35.500000 9.707798
35.500000 9.839086
35.500000 9.971214
35.500000 10.104180
35.500000 10.237986
35.500000 10.372630
35.500000 10.508113
35.500000 10.644435
35.500000 10.781596
35.500000 10.919596
35.500000 11.058435
35.500000 11.198113
35.500000 11.338629
35.500000 11.479985
35.500000 11.622179
35.500000 11.765212
35.500000 11.909085
35.500000 12.053796
35.500000 12.199346
35.500000 12.345735
35.500000 12.492963
35.500000 12.641029
35.500000 12.789935
35.500000 12.939680
35.500000 13.090263
35.500000 13.241686
35.500000 13.393947
35.500000 13.547047
35.500000 13.700986
35.500000 13.855764
35.500000 14.011381
35.500000 14.167837
35.500000 14.325131
35.500000 14.483265
35.500000 14.642238
35.500000 14.802049
35.500000 14.962699
35.500000 15.124189
35.500000 15.286517
35.500000 15.449684
35.500000 15.613690
35.500000 15.778535
35.500000 15.944218
35.500000 16.110741
35.500000 16.278103
35.500000 16.446303
35.500000 16.615342
35.500000 16.785221
35.500000 16.955938
35.500000 17.127494
35.500000 17.299889
35.500000 17.473123
35.500000 17.647196
35.500000 17.822108
35.500000 17.997858
35.500000 18.174448
35.500000 18.351876
35.500000 18.530143
35.500000 18.709250
35.500000 18.889195
35.500000 19.069979
35.500000 19.251602
35.500000 19.434064
35.500000 19.617365
35.500000 19.801504
35.500000 19.986483
35.500000 20.172300
35.500000 20.358957
35.500000 20.546452
35.500000 20.734786
35.500000 20.923959
35.500000 21.113971
35.500000 21.304822
35.500000 21.496512
35.500000 21.689041
35.500000 21.882408
35.500000 22.076615
35.500000 22.271660
35.500000 22.467545
35.500000 22.664268
35.500000 22.861830
35.500000 23.060231
35.500000 23.259471
35.500000 23.459550
35.500000 23.660468
35.500000 23.862224
35.500000 24.064820
35.500000 24.268255
35.500000 24.472528
35.500000 24.677640
35.500000 24.883591
35.500000 25.090382
35.500000 25.298011
35.500000 25.506479
35.500000 25.715785
35.500000 25.925931
35.500000 26.136916
35.500000 26.348739
35.500000 26.561402
35.500000 26.774903
35.500000 26.989243
35.500000 27.204423
35.500000 27.420441
35.500000 27.637298
35.500000 27.854993
35.500000 28.073528
35.500000 28.292902
35.500000 28.513115
35.500000 28.734166
35.500000 28.956056
35.500000 29.178786
35.500000 29.402354
35.500000 29.626761
35.500000 29.852007
35.500000 30.078092
35.500000 30.305016
35.500000 30.532779
35.500000 30.761380
35.500000 30.990821
35.500000 31.221100
35.500000 31.452219
35.500000 31.684176
35.500000 31.916972
35.500000 32.150607
35.500000 32.385081
35.500000 32.620394
35.500000 32.856546
35.500000 33.093537
35.500000 33.331366
35.500000 33.570035
35.500000 33.809542
35.500000 34.049888
35.500000 34.291074
35.500000 34.533098
35.500000 34.775961
35.500000 35.019663
35.500000 35.264204
35.500000 35.509583
35.500000 35.755802
35.500000 36.002860
35.500000 36.250756
35.500000 36.499491
35.500000 36.749066
35.500000 36.999479
35.500000 37.250731
35.500000 37.502822
35.500000 37.755752
35.500000 38.009521
35.500000 38.264128
35.500000 38.519575
35.500000 38.775860
35.500000 39.032985
35.500000 39.290948
35.500000 39.549750
35.500000 39.809392
35.500000 40.069872
35.500000 40.331191
35.500000 40.593348
35.500000 40.856345
35.500000 41.120181
35.500000 41.384855
35.500000 41.650369
35.500000 41.916721
35.500000 42.183913
35.500000 42.451943
35.500000 42.720812
35.500000 42.990520
35.500000 43.261067
35.500000 43.532453
35.500000 43.804677
35.500000 44.077741
35.500000 44.351643
35.500000 44.626385
35.500000 44.901965
35.500000 45.178384
35.500000 45.455643
35.500000 45.733740
35.500000 46.012676
35.500000 46.292450
35.500000 46.573064
35.500000 46.854517
35.500000 47.136808
35.500000 47.419939
35.500000 47.703908
35.500000 47.988717
35.500000 48.274364
35.500000 48.560850
35.500000 48.848175
35.500000 49.136339
35.500000 49.425342
35.500000 49.715183
35.500000 50.005864
35.500000 50.297384
35.500000 50.589742
35.500000 50.882939
35.500000 51.176976
35.500000 51.471851
35.500000 51.767565
35.500000 52.064118
35.500000 52.361510
35.500000 52.659740
35.500000 52.958810
35.500000 53.258719
35.500000 53.559466
35.500000 53.861053
35.500000 54.163478
35.500000 54.466742
35.500000 54.770845
35.500000 55.075787
35.500000 55.381568
35.500000 55.688188
35.500000 55.995647
35.500000 56.303944
35.500000 56.613081
35.500000 56.923056
35.500000 57.233871
35.500000 57.545524
35.500000 57.858016
35.500000 58.171347
35.500000 58.485517
35.500000 58.800526
35.500000 59.116374
35.500000 59.433060
35.500000 59.750586
35.500000 60.068950
35.500000 60.388154
35.500000 60.708196
35.500000 61.029077
35.500000 61.350798
35.500000 61.673357
35.500000 61.996754
35.500000 62.320991
35.500000 62.646067
35.500000 62.971982
35.500000 63.298735
35.500000 63.626328
35.500000 63.954759
35.500000 64.284029
35.500000 64.614138
35.500000 64.945087
35.500000 65.276874
35.500000 65.609499
35.500000 65.942964
35.500000 66.277268
35.500000 66.612411
35.500000 66.948392
35.500000 67.285212
35.500000 67.622872
35.500000 67.961370
35.500000 68.300707
35.500000 68.640883
35.500000 68.981898
35.500000 69.323752
35.500000 69.666445
35.500000 70.009976
35.500000 70.354347
35.500000 70.699556
35.500000 71.045605
35.500000 71.392492
35.500000 71.740218
35.500000 72.088783
35.500000 72.438187
35.500000 72.788430
35.500000 73.139512
35.500000 73.491433
35.500000 73.844192
35.500000 74.197791
35.500000 74.552228
35.500000 74.907504
35.500000 75.263620
35.500000 75.620574
35.500000 75.978367
35.500000 76.336999
35.500000 76.696470
35.500000 77.056779
35.500000 77.417928
35.500000 77.779916
35.500000 78.142742
35.500000 78.506407
35.500000 78.870912
35.500000 79.236255
35.500000 79.602437
35.500000 79.969458
35.500000 80.337318
35.500000 80.706017
35.500000 81.075554
35.500000 81.445931
35.500000 81.817147
35.500000 82.189201
35.500000 82.562094
35.500000 82.935827
35.500000 83.310398
35.500000 83.685808
35.500000 84.062057
35.500000 84.439145
35.500000 84.817071
35.500000 85.195837
35.500000 85.575442
35.500000 85.955885
35.500000 86.337167
35.500000 86.719289
35.500000 87.102249
35.500000 87.486048
35.500000 87.870686
35.500000 88.256163
35.500000 88.642479
35.500000 89.029633
35.500000 89.417627
35.500000 89.806460
35.500000 90.196131
35.500000 90.586641
35.500000 90.977991
35.500000 91.370179
35.500000 91.763206
35.500000 92.157072
35.500000 92.551777
35.500000 92.947320
35.500000 93.343703
35.500000 93.740925
35.500000 94.138985
35.500000 94.537885
35.500000 94.937623
35.500000 95.338200
35.500000 95.739616
35.500000 96.141871
35.500000 96.544965
35.500000 96.948898
35.500000 97.353670
35.500000 97.759280
35.500000 98.165730
35.500000 98.573018
35.500000 98.981146
35.500000 99.390112
35.500000 99.799917
35.500000 100.210561
35.500000 100.622044
35.500000 101.034366
35.500000 101.447527
35.500000 101.861526
35.500000 102.276365
35.500000 102.692042
35.500000 103.108559
35.500000 103.525914
35.500000 103.944108
35.500000 104.363141
35.500000 104.783013
35.500000 105.203724
35.500000 105.625274
35.500000 106.047663
35.500000 106.470891
35.500000 106.894957
35.500000 107.319863
35.500000 107.745607
35.500000 108.172190
35.500000 108.599612
35.500000 109.027873
35.500000 109.456973
35.500000 109.886912
35.500000 110.317690
35.500000 110.749307
35.500000 111.181762
35.500000 111.615057
35.500000 112.049190
35.500000 112.484163
35.500000 112.919974
35.500000 113.356624
35.500000 113.794113
35.500000 114.232441
35.500000 114.671608
35.500000 115.111613
35.500000 115.552458
35.500000 115.994142
35.500000 116.436664
35.500000 116.880025
35.500000 117.324226
35.500000 117.769265
35.500000 118.215143
35.500000 118.661860
35.500000 119.109416
35.500000 119.557811
35.500000 120.007044
35.500000 120.457117
35.500000 120.908028
35.500000 121.359779
35.500000 121.812368
35.500000 122.265796
35.500000 122.720063
35.500000 123.175170
35.500000 123.631114
35.500000 124.087898
35.500000 124.545521
35.500000 125.003983
35.500000 125.463283
35.500000 125.923423
35.500000 126.384401
35.500000 126.846218
35.500000 127.308875
35.500000 127.772370
35.500000 128.236704
35.500000 128.701877
35.500000 129.167888
35.500000 129.634739
35.500000 130.102429
35.500000 130.570957
35.500000 131.040325
35.500000 131.510531
35.500000 131.981576
35.500000 132.453460
35.500000 132.926183
35.500000 133.399745
35.500000 133.874146
35.500000 134.349386
35.500000 134.825465
35.500000 135.302382
35.500000 135.780139
35.500000 136.258734
35.500000 136.738168
35.500000 137.218441
35.500000 137.699554
35.500000 138.181505
35.500000 138.664294
35.500000 139.147923
35.500000 139.632391
35.500000 140.117698
35.500000 140.603843
35.500000 141.090828
35.500000 141.578651
35.500000 142.067313
35.500000 142.556814
35.500000 143.047154
35.500000 143.538333
35.500000 144.030351
35.500000 144.523208
35.500000 145.016904
35.500000 145.511438
35.500000 146.006812
35.500000 146.503024
35.500000 147.000075
35.500000 147.497965
35.500000 147.996695
35.500000 148.496263
35.500000 148.996669
35.500000 149.497915
35.500000 150.000000
</POINTS>
</NEKTAR>

