<?xml version="1.0" encoding="utf-8" ?>
<NEKTAR>
<POINTS DIM="2" FIELDS="">
96.500000 0.000000
96.500000 0.000418
96.500000 0.001672
96.500000 0.003763
96.500000 0.006689
96.500000 0.010451
96.500000 0.015050
96.500000 0.020485
96.500000 0.026756
96.500000 0.033863
96.500000 0.041806
96.500000 0.050585
96.500000 0.060201
96.500000 0.070652
96.500000 0.081940
96.500000 0.094063
96.500000 0.107023
96.500000 0.120819
96.500000 0.135451
96.500000 0.150919
96.500000 0.167224
96.500000 0.184364
96.500000 0.202341
96.500000 0.221153
96.500000 0.240802
96.500000 0.261287
96.500000 0.282608
96.500000 0.304765
96.500000 0.327758
96.500000 0.351588
96.500000 0.376253
96.500000 0.401755
96.500000 0.428092
96.500000 0.455266
96.500000 0.483276
96.500000 0.512122
96.500000 0.541805
96.500000 0.572323
96.500000 0.603677
96.500000 0.635868
96.500000 0.668894
96.500000 0.702757
96.500000 0.737456
96.500000 0.772991
96.500000 0.809362
96.500000 0.846570
96.500000 0.884613
96.500000 0.923492
96.500000 0.963208
96.500000 1.003760
96.500000 1.045148
96.500000 1.087372
96.500000 1.130432
96.500000 1.174328
96.500000 1.219060
96.500000 1.264629
96.500000 1.311033
96.500000 1.358274
96.500000 1.406351
96.500000 1.455264
96.500000 1.505013
96.500000 1.555598
96.500000 1.607019
96.500000 1.659276
96.500000 1.712370
96.500000 1.766299
96.500000 1.821065
96.500000 1.876667
96.500000 1.933105
96.500000 1.990379
96.500000 2.048489
96.500000 2.107436
96.500000 2.167218
96.500000 2.227837
96.500000 2.289291
96.500000 2.351582
96.500000 2.414709
96.500000 2.478672
96.500000 2.543471
96.500000 2.609106
96.500000 2.675578
96.500000 2.742885
96.500000 2.811029
96.500000 2.880009
96.500000 2.949825
96.500000 3.020477
96.500000 3.091965
96.500000 3.164289
96.500000 3.237449
96.500000 3.311446
96.500000 3.386278
96.500000 3.461947
96.500000 3.538452
96.500000 3.615793
96.500000 3.693970
96.500000 3.772983
96.500000 3.852832
96.500000 3.933517
96.500000 4.015039
96.500000 4.097397
96.500000 4.180590
96.500000 4.264620
96.500000 4.349486
96.500000 4.435188
96.500000 4.521727
96.500000 4.609101
96.500000 4.697311
96.500000 4.786358
96.500000 4.876241
96.500000 4.966959
96.500000 5.058514
96.500000 5.150905
96.500000 5.244133
96.500000 5.338196
96.500000 5.433095
96.500000 5.528831
96.500000 5.625402
96.500000 5.722810
96.500000 5.821054
96.500000 5.920134
96.500000 6.020050
96.500000 6.120802
96.500000 6.222391
96.500000 6.324815
96.500000 6.428076
96.500000 6.532172
96.500000 6.637105
96.500000 6.742874
96.500000 6.849479
96.500000 6.956920
96.500000 7.065198
96.500000 7.174311
96.500000 7.284261
96.500000 7.395046
96.500000 7.506668
96.500000 7.619126
96.500000 7.732420
96.500000 7.846550
96.500000 7.961516
96.500000 8.077319
96.500000 8.193957
96.500000 8.311432
96.500000 8.429742
96.500000 8.548889
96.500000 8.668872
96.500000 8.789691
96.500000 8.911346
96.500000 9.033838
96.500000 9.157165
96.500000 9.281329
96.500000 9.406328
96.500000 9.532164
96.500000 9.658836
96.500000 9.786344
96.500000 9.914688
96.500000 10.043868
96.500000 10.173885
96.500000 10.304737
96.500000 10.436426
96.500000 10.568950
96.500000 10.702311
96.500000 10.836508
96.500000 10.971541
96.500000 11.107411
96.500000 11.244116
96.500000 11.381657
96.500000 11.520035
96.500000 11.659248
96.500000 11.799298
96.500000 11.940184
96.500000 12.081906
96.500000 12.224464
96.500000 12.367859
96.500000 12.512089
96.500000 12.657155
96.500000 12.803058
96.500000 12.949797
96.500000 13.097372
96.500000 13.245782
96.500000 13.395030
96.500000 13.545113
96.500000 13.696032
96.500000 13.847787
96.500000 14.000379
96.500000 14.153807
96.500000 14.308070
96.500000 14.463170
96.500000 14.619106
96.500000 14.775879
96.500000 14.933487
96.500000 15.091931
96.500000 15.251212
96.500000 15.411328
96.500000 15.572281
96.500000 15.734070
96.500000 15.896695
96.500000 16.060156
96.500000 16.224453
96.500000 16.389586
96.500000 16.555556
96.500000 16.722361
96.500000 16.890003
96.500000 17.058481
96.500000 17.227795
96.500000 17.397945
96.500000 17.568931
96.500000 17.740753
96.500000 17.913412
96.500000 18.086906
96.500000 18.261237
96.500000 18.436403
96.500000 18.612406
96.500000 18.789245
96.500000 18.966920
96.500000 19.145432
96.500000 19.324779
96.500000 19.504962
96.500000 19.685982
96.500000 19.867838
96.500000 20.050529
96.500000 20.234057
96.500000 20.418421
96.500000 20.603622
96.500000 20.789658
96.500000 20.976530
96.500000 21.164239
96.500000 21.352783
96.500000 21.542164
96.500000 21.732381
96.500000 21.923434
96.500000 22.115323
96.500000 22.308048
96.500000 22.501610
96.500000 22.696007
96.500000 22.891241
96.500000 23.087310
96.500000 23.284216
96.500000 23.481958
96.500000 23.680536
96.500000 23.879950
96.500000 24.080200
96.500000 24.281287
96.500000 24.483209
96.500000 24.685968
96.500000 24.889563
96.500000 25.093994
96.500000 25.299261
96.500000 25.505364
96.500000 25.712303
96.500000 25.920078
96.500000 26.128690
96.500000 26.338137
96.500000 26.548421
96.500000 26.759541
96.500000 26.971497
96.500000 27.184289
96.500000 27.397917
96.500000 27.612381
96.500000 27.827682
96.500000 28.043818
96.500000 28.260791
96.500000 28.478600
96.500000 28.697244
96.500000 28.916725
96.500000 29.137043
96.500000 29.358196
96.500000 29.580185
96.500000 29.803011
96.500000 30.026672
96.500000 30.251170
96.500000 30.476504
96.500000 30.702674
96.500000 30.929680
96.500000 31.157522
96.500000 31.386200
96.500000 31.615715
96.500000 31.846065
96.500000 32.077252
96.500000 32.309275
96.500000 32.542133
96.500000 32.775828
96.500000 33.010360
96.500000 33.245727
96.500000 33.481930
96.500000 33.718970
96.500000 33.956845
96.500000 34.195557
96.500000 34.435105
96.500000 34.675489
96.500000 34.916709
96.500000 35.158765
96.500000 35.401657
96.500000 35.645386
96.500000 35.889950
96.500000 36.135351
96.500000 36.381588
96.500000 36.628660
96.500000 36.876569
96.500000 37.125315
96.500000 37.374896
96.500000 37.625313
96.500000 37.876567
96.500000 38.128656
96.500000 38.381582
96.500000 38.635344
96.500000 38.889942
96.500000 39.145376
96.500000 39.401646
96.500000 39.658752
96.500000 39.916695
96.500000 40.175473
96.500000 40.435088
96.500000 40.695539
96.500000 40.956826
96.500000 41.218949
96.500000 41.481908
96.500000 41.745703
96.500000 42.010334
96.500000 42.275802
96.500000 42.542106
96.500000 42.809245
96.500000 43.077221
96.500000 43.346033
96.500000 43.615681
96.500000 43.886165
96.500000 44.157486
96.500000 44.429642
96.500000 44.702635
96.500000 44.976463
96.500000 45.251128
96.500000 45.526629
96.500000 45.802966
96.500000 46.080139
96.500000 46.358148
96.500000 46.636994
96.500000 46.916675
96.500000 47.197193
96.500000 47.478547
96.500000 47.760736
96.500000 48.043762
96.500000 48.327625
96.500000 48.612323
96.500000 48.897857
96.500000 49.184227
96.500000 49.471434
96.500000 49.759477
96.500000 50.048355
96.500000 50.338070
96.500000 50.628621
96.500000 50.920009
96.500000 51.212232
96.500000 51.505291
96.500000 51.799187
96.500000 52.093918
96.500000 52.389486
96.500000 52.685890
96.500000 52.983130
96.500000 53.281206
96.500000 53.580118
96.500000 53.879867
96.500000 54.180451
96.500000 54.481872
96.500000 54.784128
96.500000 55.087221
96.500000 55.391150
96.500000 55.695915
96.500000 56.001516
96.500000 56.307953
96.500000 56.615227
96.500000 56.923336
96.500000 57.232282
96.500000 57.542064
96.500000 57.852682
96.500000 58.164136
96.500000 58.476426
96.500000 58.789552
96.500000 59.103514
96.500000 59.418313
96.500000 59.733947
96.500000 60.050418
96.500000 60.367725
96.500000 60.685868
96.500000 61.004847
96.500000 61.324662
96.500000 61.645313
96.500000 61.966801
96.500000 62.289124
96.500000 62.612284
96.500000 62.936279
96.500000 63.261111
96.500000 63.586779
96.500000 63.913283
96.500000 64.240624
96.500000 64.568800
96.500000 64.897812
96.500000 65.227661
96.500000 65.558346
96.500000 65.889867
96.500000 66.222223
96.500000 66.555417
96.500000 66.889446
96.500000 67.224311
96.500000 67.560012
96.500000 67.896550
96.500000 68.233924
96.500000 68.572133
96.500000 68.911179
96.500000 69.251061
96.500000 69.591779
96.500000 69.933334
96.500000 70.275724
96.500000 70.618950
96.500000 70.963013
96.500000 71.307912
96.500000 71.653646
96.500000 72.000217
96.500000 72.347624
96.500000 72.695868
96.500000 73.044947
96.500000 73.394862
96.500000 73.745614
96.500000 74.097202
96.500000 74.449625
96.500000 74.802885
96.500000 75.156981
96.500000 75.511913
96.500000 75.867682
96.500000 76.224286
96.500000 76.581726
96.500000 76.940003
96.500000 77.299116
96.500000 77.659064
96.500000 78.019849
96.500000 78.381471
96.500000 78.743928
96.500000 79.107221
96.500000 79.471350
96.500000 79.836316
96.500000 80.202118
96.500000 80.568755
96.500000 80.936229
96.500000 81.304539
96.500000 81.673685
96.500000 82.043668
96.500000 82.414486
96.500000 82.786141
96.500000 83.158631
96.500000 83.531958
96.500000 83.906121
96.500000 84.281120
96.500000 84.656955
96.500000 85.033626
96.500000 85.411133
96.500000 85.789477
96.500000 86.168656
96.500000 86.548672
96.500000 86.929524
96.500000 87.311212
96.500000 87.693736
96.500000 88.077096
96.500000 88.461292
96.500000 88.846324
96.500000 89.232193
96.500000 89.618897
96.500000 90.006438
96.500000 90.394815
96.500000 90.784028
96.500000 91.174077
96.500000 91.564962
96.500000 91.956684
96.500000 92.349241
96.500000 92.742634
96.500000 93.136864
96.500000 93.531930
96.500000 93.927832
96.500000 94.324570
96.500000 94.722144
96.500000 95.120554
96.500000 95.519801
96.500000 95.919883
96.500000 96.320802
96.500000 96.722557
96.500000 97.125147
96.500000 97.528574
96.500000 97.932837
96.500000 98.337937
96.500000 98.743872
96.500000 99.150643
96.500000 99.558251
96.500000 99.966695
96.500000 100.375974
96.500000 100.786090
96.500000 101.197042
96.500000 101.608831
96.500000 102.021455
96.500000 102.434915
96.500000 102.849212
96.500000 103.264344
96.500000 103.680313
96.500000 104.097118
96.500000 104.514759
96.500000 104.933236
96.500000 105.352549
96.500000 105.772699
96.500000 106.193684
96.500000 106.615506
96.500000 107.038163
96.500000 107.461657
96.500000 107.885987
96.500000 108.311153
96.500000 108.737155
96.500000 109.163993
96.500000 109.591668
96.500000 110.020178
96.500000 110.449525
96.500000 110.879708
96.500000 111.310727
96.500000 111.742582
96.500000 112.175273
96.500000 112.608800
96.500000 113.043163
96.500000 113.478363
96.500000 113.914398
96.500000 114.351270
96.500000 114.788978
96.500000 115.227522
96.500000 115.666902
96.500000 116.107118
96.500000 116.548170
96.500000 116.990059
96.500000 117.432783
96.500000 117.876344
96.500000 118.320740
96.500000 118.765973
96.500000 119.212042
96.500000 119.658947
96.500000 120.106689
96.500000 120.555266
96.500000 121.004679
96.500000 121.454929
96.500000 121.906015
96.500000 122.357937
96.500000 122.810695
96.500000 123.264289
96.500000 123.718719
96.500000 124.173985
96.500000 124.630087
96.500000 125.087026
96.500000 125.544801
96.500000 126.003411
96.500000 126.462858
96.500000 126.923141
96.500000 127.384260
96.500000 127.846216
96.500000 128.309007
96.500000 128.772634
96.500000 129.237098
96.500000 129.702398
96.500000 130.168534
96.500000 130.635505
96.500000 131.103314
96.500000 131.571958
96.500000 132.041438
96.500000 132.511754
96.500000 132.982907
96.500000 133.454896
96.500000 133.927720
96.500000 134.401381
96.500000 134.875878
96.500000 135.351211
96.500000 135.827381
96.500000 136.304386
96.500000 136.782227
96.500000 137.260905
96.500000 137.740419
96.500000 138.220769
96.500000 138.701955
96.500000 139.183977
96.500000 139.666835
96.500000 140.150529
96.500000 140.635060
96.500000 141.120426
96.500000 141.606629
96.500000 142.093668
96.500000 142.581542
96.500000 143.070253
96.500000 143.559801
96.500000 144.050184
96.500000 144.541403
96.500000 145.033459
96.500000 145.526350
96.500000 146.020078
96.500000 146.514642
96.500000 147.010042
96.500000 147.506278
96.500000 148.003350
96.500000 148.501258
96.500000 149.000003
96.500000 149.499583
96.500000 150.000000
</POINTS>
</NEKTAR>

