<?xml version="1.0" encoding="utf-8" ?>
<NEKTAR>
<POINTS DIM="2" FIELDS="">
14.500000 -0.500000
14.500000 -0.499581
14.500000 -0.498322
14.500000 -0.496225
14.500000 -0.493289
14.500000 -0.489514
14.500000 -0.484900
14.500000 -0.479447
14.500000 -0.473155
14.500000 -0.466024
14.500000 -0.458055
14.500000 -0.449246
14.500000 -0.439599
14.500000 -0.429113
14.500000 -0.417787
14.500000 -0.405623
14.500000 -0.392620
14.500000 -0.378778
14.500000 -0.364097
14.500000 -0.348578
14.500000 -0.332219
14.500000 -0.315021
14.500000 -0.296985
14.500000 -0.278110
14.500000 -0.258395
14.500000 -0.237842
14.500000 -0.216450
14.500000 -0.194219
14.500000 -0.171149
14.500000 -0.147240
14.500000 -0.122493
14.500000 -0.096906
14.500000 -0.070481
14.500000 -0.043216
14.500000 -0.015113
14.500000 0.013829
14.500000 0.043611
14.500000 0.074231
14.500000 0.105690
14.500000 0.137987
14.500000 0.171124
14.500000 0.205100
14.500000 0.239914
14.500000 0.275568
14.500000 0.312060
14.500000 0.349391
14.500000 0.387562
14.500000 0.426571
14.500000 0.466419
14.500000 0.507106
14.500000 0.548631
14.500000 0.590996
14.500000 0.634200
14.500000 0.678242
14.500000 0.723124
14.500000 0.768844
14.500000 0.815403
14.500000 0.862801
14.500000 0.911038
14.500000 0.960114
14.500000 1.010029
14.500000 1.060783
14.500000 1.112376
14.500000 1.164807
14.500000 1.218078
14.500000 1.272187
14.500000 1.327135
14.500000 1.382923
14.500000 1.439549
14.500000 1.497014
14.500000 1.555318
14.500000 1.614460
14.500000 1.674442
14.500000 1.735263
14.500000 1.796922
14.500000 1.859421
14.500000 1.922758
14.500000 1.986934
14.500000 2.051949
14.500000 2.117803
14.500000 2.184496
14.500000 2.252028
14.500000 2.320399
14.500000 2.389609
14.500000 2.459657
14.500000 2.530545
14.500000 2.602271
14.500000 2.674836
14.500000 2.748241
14.500000 2.822484
14.500000 2.897566
14.500000 2.973487
14.500000 3.050247
14.500000 3.127845
14.500000 3.206283
14.500000 3.285559
14.500000 3.365675
14.500000 3.446629
14.500000 3.528422
14.500000 3.611055
14.500000 3.694526
14.500000 3.778836
14.500000 3.863984
14.500000 3.949972
14.500000 4.036799
14.500000 4.124465
14.500000 4.212969
14.500000 4.302312
14.500000 4.392495
14.500000 4.483516
14.500000 4.575376
14.500000 4.668075
14.500000 4.761613
14.500000 4.855990
14.500000 4.951206
14.500000 5.047260
14.500000 5.144154
14.500000 5.241886
14.500000 5.340458
14.500000 5.439868
14.500000 5.540117
14.500000 5.641205
14.500000 5.743132
14.500000 5.845898
14.500000 5.949503
14.500000 6.053946
14.500000 6.159229
14.500000 6.265350
14.500000 6.372311
14.500000 6.480110
14.500000 6.588748
14.500000 6.698225
14.500000 6.808542
14.500000 6.919696
14.500000 7.031690
14.500000 7.144523
14.500000 7.258195
14.500000 7.372705
14.500000 7.488055
14.500000 7.604243
14.500000 7.721270
14.500000 7.839136
14.500000 7.957842
14.500000 8.077386
14.500000 8.197768
14.500000 8.318990
14.500000 8.441051
14.500000 8.563950
14.500000 8.687689
14.500000 8.812266
14.500000 8.937683
14.500000 9.063938
14.500000 9.191032
14.500000 9.318965
14.500000 9.447737
14.500000 9.577348
14.500000 9.707798
14.500000 9.839086
14.500000 9.971214
14.500000 10.104180
14.500000 10.237986
14.500000 10.372630
14.500000 10.508113
14.500000 10.644435
14.500000 10.781596
14.500000 10.919596
14.500000 11.058435
14.500000 11.198113
14.500000 11.338629
14.500000 11.479985
14.500000 11.622179
14.500000 11.765212
14.500000 11.909085
14.500000 12.053796
14.500000 12.199346
14.500000 12.345735
14.500000 12.492963
14.500000 12.641029
14.500000 12.789935
14.500000 12.939680
14.500000 13.090263
14.500000 13.241686
14.500000 13.393947
14.500000 13.547047
14.500000 13.700986
14.500000 13.855764
14.500000 14.011381
14.500000 14.167837
14.500000 14.325131
14.500000 14.483265
14.500000 14.642238
14.500000 14.802049
14.500000 14.962699
14.500000 15.124189
14.500000 15.286517
14.500000 15.449684
14.500000 15.613690
14.500000 15.778535
14.500000 15.944218
14.500000 16.110741
14.500000 16.278103
14.500000 16.446303
14.500000 16.615342
14.500000 16.785221
14.500000 16.955938
14.500000 17.127494
14.500000 17.299889
14.500000 17.473123
14.500000 17.647196
14.500000 17.822108
14.500000 17.997858
14.500000 18.174448
14.500000 18.351876
14.500000 18.530143
14.500000 18.709250
14.500000 18.889195
14.500000 19.069979
14.500000 19.251602
14.500000 19.434064
14.500000 19.617365
14.500000 19.801504
14.500000 19.986483
14.500000 20.172300
14.500000 20.358957
14.500000 20.546452
14.500000 20.734786
14.500000 20.923959
14.500000 21.113971
14.500000 21.304822
14.500000 21.496512
14.500000 21.689041
14.500000 21.882408
14.500000 22.076615
14.500000 22.271660
14.500000 22.467545
14.500000 22.664268
14.500000 22.861830
14.500000 23.060231
14.500000 23.259471
14.500000 23.459550
14.500000 23.660468
14.500000 23.862224
14.500000 24.064820
14.500000 24.268255
14.500000 24.472528
14.500000 24.677640
14.500000 24.883591
14.500000 25.090382
14.500000 25.298011
14.500000 25.506479
14.500000 25.715785
14.500000 25.925931
14.500000 26.136916
14.500000 26.348739
14.500000 26.561402
14.500000 26.774903
14.500000 26.989243
14.500000 27.204423
14.500000 27.420441
14.500000 27.637298
14.500000 27.854993
14.500000 28.073528
14.500000 28.292902
14.500000 28.513115
14.500000 28.734166
14.500000 28.956056
14.500000 29.178786
14.500000 29.402354
14.500000 29.626761
14.500000 29.852007
14.500000 30.078092
14.500000 30.305016
14.500000 30.532779
14.500000 30.761380
14.500000 30.990821
14.500000 31.221100
14.500000 31.452219
14.500000 31.684176
14.500000 31.916972
14.500000 32.150607
14.500000 32.385081
14.500000 32.620394
14.500000 32.856546
14.500000 33.093537
14.500000 33.331366
14.500000 33.570035
14.500000 33.809542
14.500000 34.049888
14.500000 34.291074
14.500000 34.533098
14.500000 34.775961
14.500000 35.019663
14.500000 35.264204
14.500000 35.509583
14.500000 35.755802
14.500000 36.002860
14.500000 36.250756
14.500000 36.499491
14.500000 36.749066
14.500000 36.999479
14.500000 37.250731
14.500000 37.502822
14.500000 37.755752
14.500000 38.009521
14.500000 38.264128
14.500000 38.519575
14.500000 38.775860
14.500000 39.032985
14.500000 39.290948
14.500000 39.549750
14.500000 39.809392
14.500000 40.069872
14.500000 40.331191
14.500000 40.593348
14.500000 40.856345
14.500000 41.120181
14.500000 41.384855
14.500000 41.650369
14.500000 41.916721
14.500000 42.183913
14.500000 42.451943
14.500000 42.720812
14.500000 42.990520
14.500000 43.261067
14.500000 43.532453
14.500000 43.804677
14.500000 44.077741
14.500000 44.351643
14.500000 44.626385
14.500000 44.901965
14.500000 45.178384
14.500000 45.455643
14.500000 45.733740
14.500000 46.012676
14.500000 46.292450
14.500000 46.573064
14.500000 46.854517
14.500000 47.136808
14.500000 47.419939
14.500000 47.703908
14.500000 47.988717
14.500000 48.274364
14.500000 48.560850
14.500000 48.848175
14.500000 49.136339
14.500000 49.425342
14.500000 49.715183
14.500000 50.005864
14.500000 50.297384
14.500000 50.589742
14.500000 50.882939
14.500000 51.176976
14.500000 51.471851
14.500000 51.767565
14.500000 52.064118
14.500000 52.361510
14.500000 52.659740
14.500000 52.958810
14.500000 53.258719
14.500000 53.559466
14.500000 53.861053
14.500000 54.163478
14.500000 54.466742
14.500000 54.770845
14.500000 55.075787
14.500000 55.381568
14.500000 55.688188
14.500000 55.995647
14.500000 56.303944
14.500000 56.613081
14.500000 56.923056
14.500000 57.233871
14.500000 57.545524
14.500000 57.858016
14.500000 58.171347
14.500000 58.485517
14.500000 58.800526
14.500000 59.116374
14.500000 59.433060
14.500000 59.750586
14.500000 60.068950
14.500000 60.388154
14.500000 60.708196
14.500000 61.029077
14.500000 61.350798
14.500000 61.673357
14.500000 61.996754
14.500000 62.320991
14.500000 62.646067
14.500000 62.971982
14.500000 63.298735
14.500000 63.626328
14.500000 63.954759
14.500000 64.284029
14.500000 64.614138
14.500000 64.945087
14.500000 65.276874
14.500000 65.609499
14.500000 65.942964
14.500000 66.277268
14.500000 66.612411
14.500000 66.948392
14.500000 67.285212
14.500000 67.622872
14.500000 67.961370
14.500000 68.300707
14.500000 68.640883
14.500000 68.981898
14.500000 69.323752
14.500000 69.666445
14.500000 70.009976
14.500000 70.354347
14.500000 70.699556
14.500000 71.045605
14.500000 71.392492
14.500000 71.740218
14.500000 72.088783
14.500000 72.438187
14.500000 72.788430
14.500000 73.139512
14.500000 73.491433
14.500000 73.844192
14.500000 74.197791
14.500000 74.552228
14.500000 74.907504
14.500000 75.263620
14.500000 75.620574
14.500000 75.978367
14.500000 76.336999
14.500000 76.696470
14.500000 77.056779
14.500000 77.417928
14.500000 77.779916
14.500000 78.142742
14.500000 78.506407
14.500000 78.870912
14.500000 79.236255
14.500000 79.602437
14.500000 79.969458
14.500000 80.337318
14.500000 80.706017
14.500000 81.075554
14.500000 81.445931
14.500000 81.817147
14.500000 82.189201
14.500000 82.562094
14.500000 82.935827
14.500000 83.310398
14.500000 83.685808
14.500000 84.062057
14.500000 84.439145
14.500000 84.817071
14.500000 85.195837
14.500000 85.575442
14.500000 85.955885
14.500000 86.337167
14.500000 86.719289
14.500000 87.102249
14.500000 87.486048
14.500000 87.870686
14.500000 88.256163
14.500000 88.642479
14.500000 89.029633
14.500000 89.417627
14.500000 89.806460
14.500000 90.196131
14.500000 90.586641
14.500000 90.977991
14.500000 91.370179
14.500000 91.763206
14.500000 92.157072
14.500000 92.551777
14.500000 92.947320
14.500000 93.343703
14.500000 93.740925
14.500000 94.138985
14.500000 94.537885
14.500000 94.937623
14.500000 95.338200
14.500000 95.739616
14.500000 96.141871
14.500000 96.544965
14.500000 96.948898
14.500000 97.353670
14.500000 97.759280
14.500000 98.165730
14.500000 98.573018
14.500000 98.981146
14.500000 99.390112
14.500000 99.799917
14.500000 100.210561
14.500000 100.622044
14.500000 101.034366
14.500000 101.447527
14.500000 101.861526
14.500000 102.276365
14.500000 102.692042
14.500000 103.108559
14.500000 103.525914
14.500000 103.944108
14.500000 104.363141
14.500000 104.783013
14.500000 105.203724
14.500000 105.625274
14.500000 106.047663
14.500000 106.470891
14.500000 106.894957
14.500000 107.319863
14.500000 107.745607
14.500000 108.172190
14.500000 108.599612
14.500000 109.027873
14.500000 109.456973
14.500000 109.886912
14.500000 110.317690
14.500000 110.749307
14.500000 111.181762
14.500000 111.615057
14.500000 112.049190
14.500000 112.484163
14.500000 112.919974
14.500000 113.356624
14.500000 113.794113
14.500000 114.232441
14.500000 114.671608
14.500000 115.111613
14.500000 115.552458
14.500000 115.994142
14.500000 116.436664
14.500000 116.880025
14.500000 117.324226
14.500000 117.769265
14.500000 118.215143
14.500000 118.661860
14.500000 119.109416
14.500000 119.557811
14.500000 120.007044
14.500000 120.457117
14.500000 120.908028
14.500000 121.359779
14.500000 121.812368
14.500000 122.265796
14.500000 122.720063
14.500000 123.175170
14.500000 123.631114
14.500000 124.087898
14.500000 124.545521
14.500000 125.003983
14.500000 125.463283
14.500000 125.923423
14.500000 126.384401
14.500000 126.846218
14.500000 127.308875
14.500000 127.772370
14.500000 128.236704
14.500000 128.701877
14.500000 129.167888
14.500000 129.634739
14.500000 130.102429
14.500000 130.570957
14.500000 131.040325
14.500000 131.510531
14.500000 131.981576
14.500000 132.453460
14.500000 132.926183
14.500000 133.399745
14.500000 133.874146
14.500000 134.349386
14.500000 134.825465
14.500000 135.302382
14.500000 135.780139
14.500000 136.258734
14.500000 136.738168
14.500000 137.218441
14.500000 137.699554
14.500000 138.181505
14.500000 138.664294
14.500000 139.147923
14.500000 139.632391
14.500000 140.117698
14.500000 140.603843
14.500000 141.090828
14.500000 141.578651
14.500000 142.067313
14.500000 142.556814
14.500000 143.047154
14.500000 143.538333
14.500000 144.030351
14.500000 144.523208
14.500000 145.016904
14.500000 145.511438
14.500000 146.006812
14.500000 146.503024
14.500000 147.000075
14.500000 147.497965
14.500000 147.996695
14.500000 148.496263
14.500000 148.996669
14.500000 149.497915
14.500000 150.000000
</POINTS>
</NEKTAR>

