<?xml version="1.0" encoding="utf-8" ?>
<NEKTAR>
<POINTS DIM="2" FIELDS="">
48.500000 -0.500000
48.500000 -0.499581
48.500000 -0.498322
48.500000 -0.496225
48.500000 -0.493289
48.500000 -0.489514
48.500000 -0.484900
48.500000 -0.479447
48.500000 -0.473155
48.500000 -0.466024
48.500000 -0.458055
48.500000 -0.449246
48.500000 -0.439599
48.500000 -0.429113
48.500000 -0.417787
48.500000 -0.405623
48.500000 -0.392620
48.500000 -0.378778
48.500000 -0.364097
48.500000 -0.348578
48.500000 -0.332219
48.500000 -0.315021
48.500000 -0.296985
48.500000 -0.278110
48.500000 -0.258395
48.500000 -0.237842
48.500000 -0.216450
48.500000 -0.194219
48.500000 -0.171149
48.500000 -0.147240
48.500000 -0.122493
48.500000 -0.096906
48.500000 -0.070481
48.500000 -0.043216
48.500000 -0.015113
48.500000 0.013829
48.500000 0.043611
48.500000 0.074231
48.500000 0.105690
48.500000 0.137987
48.500000 0.171124
48.500000 0.205100
48.500000 0.239914
48.500000 0.275568
48.500000 0.312060
48.500000 0.349391
48.500000 0.387562
48.500000 0.426571
48.500000 0.466419
48.500000 0.507106
48.500000 0.548631
48.500000 0.590996
48.500000 0.634200
48.500000 0.678242
48.500000 0.723124
48.500000 0.768844
48.500000 0.815403
48.500000 0.862801
48.500000 0.911038
48.500000 0.960114
48.500000 1.010029
48.500000 1.060783
48.500000 1.112376
48.500000 1.164807
48.500000 1.218078
48.500000 1.272187
48.500000 1.327135
48.500000 1.382923
48.500000 1.439549
48.500000 1.497014
48.500000 1.555318
48.500000 1.614460
48.500000 1.674442
48.500000 1.735263
48.500000 1.796922
48.500000 1.859421
48.500000 1.922758
48.500000 1.986934
48.500000 2.051949
48.500000 2.117803
48.500000 2.184496
48.500000 2.252028
48.500000 2.320399
48.500000 2.389609
48.500000 2.459657
48.500000 2.530545
48.500000 2.602271
48.500000 2.674836
48.500000 2.748241
48.500000 2.822484
48.500000 2.897566
48.500000 2.973487
48.500000 3.050247
48.500000 3.127845
48.500000 3.206283
48.500000 3.285559
48.500000 3.365675
48.500000 3.446629
48.500000 3.528422
48.500000 3.611055
48.500000 3.694526
48.500000 3.778836
48.500000 3.863984
48.500000 3.949972
48.500000 4.036799
48.500000 4.124465
48.500000 4.212969
48.500000 4.302312
48.500000 4.392495
48.500000 4.483516
48.500000 4.575376
48.500000 4.668075
48.500000 4.761613
48.500000 4.855990
48.500000 4.951206
48.500000 5.047260
48.500000 5.144154
48.500000 5.241886
48.500000 5.340458
48.500000 5.439868
48.500000 5.540117
48.500000 5.641205
48.500000 5.743132
48.500000 5.845898
48.500000 5.949503
48.500000 6.053946
48.500000 6.159229
48.500000 6.265350
48.500000 6.372311
48.500000 6.480110
48.500000 6.588748
48.500000 6.698225
48.500000 6.808542
48.500000 6.919696
48.500000 7.031690
48.500000 7.144523
48.500000 7.258195
48.500000 7.372705
48.500000 7.488055
48.500000 7.604243
48.500000 7.721270
48.500000 7.839136
48.500000 7.957842
48.500000 8.077386
48.500000 8.197768
48.500000 8.318990
48.500000 8.441051
48.500000 8.563950
48.500000 8.687689
48.500000 8.812266
48.500000 8.937683
48.500000 9.063938
48.500000 9.191032
48.500000 9.318965
48.500000 9.447737
48.500000 9.577348
48.500000 9.707798
48.500000 9.839086
48.500000 9.971214
48.500000 10.104180
48.500000 10.237986
48.500000 10.372630
48.500000 10.508113
48.500000 10.644435
48.500000 10.781596
48.500000 10.919596
48.500000 11.058435
48.500000 11.198113
48.500000 11.338629
48.500000 11.479985
48.500000 11.622179
48.500000 11.765212
48.500000 11.909085
48.500000 12.053796
48.500000 12.199346
48.500000 12.345735
48.500000 12.492963
48.500000 12.641029
48.500000 12.789935
48.500000 12.939680
48.500000 13.090263
48.500000 13.241686
48.500000 13.393947
48.500000 13.547047
48.500000 13.700986
48.500000 13.855764
48.500000 14.011381
48.500000 14.167837
48.500000 14.325131
48.500000 14.483265
48.500000 14.642238
48.500000 14.802049
48.500000 14.962699
48.500000 15.124189
48.500000 15.286517
48.500000 15.449684
48.500000 15.613690
48.500000 15.778535
48.500000 15.944218
48.500000 16.110741
48.500000 16.278103
48.500000 16.446303
48.500000 16.615342
48.500000 16.785221
48.500000 16.955938
48.500000 17.127494
48.500000 17.299889
48.500000 17.473123
48.500000 17.647196
48.500000 17.822108
48.500000 17.997858
48.500000 18.174448
48.500000 18.351876
48.500000 18.530143
48.500000 18.709250
48.500000 18.889195
48.500000 19.069979
48.500000 19.251602
48.500000 19.434064
48.500000 19.617365
48.500000 19.801504
48.500000 19.986483
48.500000 20.172300
48.500000 20.358957
48.500000 20.546452
48.500000 20.734786
48.500000 20.923959
48.500000 21.113971
48.500000 21.304822
48.500000 21.496512
48.500000 21.689041
48.500000 21.882408
48.500000 22.076615
48.500000 22.271660
48.500000 22.467545
48.500000 22.664268
48.500000 22.861830
48.500000 23.060231
48.500000 23.259471
48.500000 23.459550
48.500000 23.660468
48.500000 23.862224
48.500000 24.064820
48.500000 24.268255
48.500000 24.472528
48.500000 24.677640
48.500000 24.883591
48.500000 25.090382
48.500000 25.298011
48.500000 25.506479
48.500000 25.715785
48.500000 25.925931
48.500000 26.136916
48.500000 26.348739
48.500000 26.561402
48.500000 26.774903
48.500000 26.989243
48.500000 27.204423
48.500000 27.420441
48.500000 27.637298
48.500000 27.854993
48.500000 28.073528
48.500000 28.292902
48.500000 28.513115
48.500000 28.734166
48.500000 28.956056
48.500000 29.178786
48.500000 29.402354
48.500000 29.626761
48.500000 29.852007
48.500000 30.078092
48.500000 30.305016
48.500000 30.532779
48.500000 30.761380
48.500000 30.990821
48.500000 31.221100
48.500000 31.452219
48.500000 31.684176
48.500000 31.916972
48.500000 32.150607
48.500000 32.385081
48.500000 32.620394
48.500000 32.856546
48.500000 33.093537
48.500000 33.331366
48.500000 33.570035
48.500000 33.809542
48.500000 34.049888
48.500000 34.291074
48.500000 34.533098
48.500000 34.775961
48.500000 35.019663
48.500000 35.264204
48.500000 35.509583
48.500000 35.755802
48.500000 36.002860
48.500000 36.250756
48.500000 36.499491
48.500000 36.749066
48.500000 36.999479
48.500000 37.250731
48.500000 37.502822
48.500000 37.755752
48.500000 38.009521
48.500000 38.264128
48.500000 38.519575
48.500000 38.775860
48.500000 39.032985
48.500000 39.290948
48.500000 39.549750
48.500000 39.809392
48.500000 40.069872
48.500000 40.331191
48.500000 40.593348
48.500000 40.856345
48.500000 41.120181
48.500000 41.384855
48.500000 41.650369
48.500000 41.916721
48.500000 42.183913
48.500000 42.451943
48.500000 42.720812
48.500000 42.990520
48.500000 43.261067
48.500000 43.532453
48.500000 43.804677
48.500000 44.077741
48.500000 44.351643
48.500000 44.626385
48.500000 44.901965
48.500000 45.178384
48.500000 45.455643
48.500000 45.733740
48.500000 46.012676
48.500000 46.292450
48.500000 46.573064
48.500000 46.854517
48.500000 47.136808
48.500000 47.419939
48.500000 47.703908
48.500000 47.988717
48.500000 48.274364
48.500000 48.560850
48.500000 48.848175
48.500000 49.136339
48.500000 49.425342
48.500000 49.715183
48.500000 50.005864
48.500000 50.297384
48.500000 50.589742
48.500000 50.882939
48.500000 51.176976
48.500000 51.471851
48.500000 51.767565
48.500000 52.064118
48.500000 52.361510
48.500000 52.659740
48.500000 52.958810
48.500000 53.258719
48.500000 53.559466
48.500000 53.861053
48.500000 54.163478
48.500000 54.466742
48.500000 54.770845
48.500000 55.075787
48.500000 55.381568
48.500000 55.688188
48.500000 55.995647
48.500000 56.303944
48.500000 56.613081
48.500000 56.923056
48.500000 57.233871
48.500000 57.545524
48.500000 57.858016
48.500000 58.171347
48.500000 58.485517
48.500000 58.800526
48.500000 59.116374
48.500000 59.433060
48.500000 59.750586
48.500000 60.068950
48.500000 60.388154
48.500000 60.708196
48.500000 61.029077
48.500000 61.350798
48.500000 61.673357
48.500000 61.996754
48.500000 62.320991
48.500000 62.646067
48.500000 62.971982
48.500000 63.298735
48.500000 63.626328
48.500000 63.954759
48.500000 64.284029
48.500000 64.614138
48.500000 64.945087
48.500000 65.276874
48.500000 65.609499
48.500000 65.942964
48.500000 66.277268
48.500000 66.612411
48.500000 66.948392
48.500000 67.285212
48.500000 67.622872
48.500000 67.961370
48.500000 68.300707
48.500000 68.640883
48.500000 68.981898
48.500000 69.323752
48.500000 69.666445
48.500000 70.009976
48.500000 70.354347
48.500000 70.699556
48.500000 71.045605
48.500000 71.392492
48.500000 71.740218
48.500000 72.088783
48.500000 72.438187
48.500000 72.788430
48.500000 73.139512
48.500000 73.491433
48.500000 73.844192
48.500000 74.197791
48.500000 74.552228
48.500000 74.907504
48.500000 75.263620
48.500000 75.620574
48.500000 75.978367
48.500000 76.336999
48.500000 76.696470
48.500000 77.056779
48.500000 77.417928
48.500000 77.779916
48.500000 78.142742
48.500000 78.506407
48.500000 78.870912
48.500000 79.236255
48.500000 79.602437
48.500000 79.969458
48.500000 80.337318
48.500000 80.706017
48.500000 81.075554
48.500000 81.445931
48.500000 81.817147
48.500000 82.189201
48.500000 82.562094
48.500000 82.935827
48.500000 83.310398
48.500000 83.685808
48.500000 84.062057
48.500000 84.439145
48.500000 84.817071
48.500000 85.195837
48.500000 85.575442
48.500000 85.955885
48.500000 86.337167
48.500000 86.719289
48.500000 87.102249
48.500000 87.486048
48.500000 87.870686
48.500000 88.256163
48.500000 88.642479
48.500000 89.029633
48.500000 89.417627
48.500000 89.806460
48.500000 90.196131
48.500000 90.586641
48.500000 90.977991
48.500000 91.370179
48.500000 91.763206
48.500000 92.157072
48.500000 92.551777
48.500000 92.947320
48.500000 93.343703
48.500000 93.740925
48.500000 94.138985
48.500000 94.537885
48.500000 94.937623
48.500000 95.338200
48.500000 95.739616
48.500000 96.141871
48.500000 96.544965
48.500000 96.948898
48.500000 97.353670
48.500000 97.759280
48.500000 98.165730
48.500000 98.573018
48.500000 98.981146
48.500000 99.390112
48.500000 99.799917
48.500000 100.210561
48.500000 100.622044
48.500000 101.034366
48.500000 101.447527
48.500000 101.861526
48.500000 102.276365
48.500000 102.692042
48.500000 103.108559
48.500000 103.525914
48.500000 103.944108
48.500000 104.363141
48.500000 104.783013
48.500000 105.203724
48.500000 105.625274
48.500000 106.047663
48.500000 106.470891
48.500000 106.894957
48.500000 107.319863
48.500000 107.745607
48.500000 108.172190
48.500000 108.599612
48.500000 109.027873
48.500000 109.456973
48.500000 109.886912
48.500000 110.317690
48.500000 110.749307
48.500000 111.181762
48.500000 111.615057
48.500000 112.049190
48.500000 112.484163
48.500000 112.919974
48.500000 113.356624
48.500000 113.794113
48.500000 114.232441
48.500000 114.671608
48.500000 115.111613
48.500000 115.552458
48.500000 115.994142
48.500000 116.436664
48.500000 116.880025
48.500000 117.324226
48.500000 117.769265
48.500000 118.215143
48.500000 118.661860
48.500000 119.109416
48.500000 119.557811
48.500000 120.007044
48.500000 120.457117
48.500000 120.908028
48.500000 121.359779
48.500000 121.812368
48.500000 122.265796
48.500000 122.720063
48.500000 123.175170
48.500000 123.631114
48.500000 124.087898
48.500000 124.545521
48.500000 125.003983
48.500000 125.463283
48.500000 125.923423
48.500000 126.384401
48.500000 126.846218
48.500000 127.308875
48.500000 127.772370
48.500000 128.236704
48.500000 128.701877
48.500000 129.167888
48.500000 129.634739
48.500000 130.102429
48.500000 130.570957
48.500000 131.040325
48.500000 131.510531
48.500000 131.981576
48.500000 132.453460
48.500000 132.926183
48.500000 133.399745
48.500000 133.874146
48.500000 134.349386
48.500000 134.825465
48.500000 135.302382
48.500000 135.780139
48.500000 136.258734
48.500000 136.738168
48.500000 137.218441
48.500000 137.699554
48.500000 138.181505
48.500000 138.664294
48.500000 139.147923
48.500000 139.632391
48.500000 140.117698
48.500000 140.603843
48.500000 141.090828
48.500000 141.578651
48.500000 142.067313
48.500000 142.556814
48.500000 143.047154
48.500000 143.538333
48.500000 144.030351
48.500000 144.523208
48.500000 145.016904
48.500000 145.511438
48.500000 146.006812
48.500000 146.503024
48.500000 147.000075
48.500000 147.497965
48.500000 147.996695
48.500000 148.496263
48.500000 148.996669
48.500000 149.497915
48.500000 150.000000
</POINTS>
</NEKTAR>

