<?xml version="1.0" encoding="utf-8" ?>
<NEKTAR>
<POINTS DIM="2" FIELDS="">
129.500000 0.000000
129.500000 0.000418
129.500000 0.001672
129.500000 0.003763
129.500000 0.006689
129.500000 0.010451
129.500000 0.015050
129.500000 0.020485
129.500000 0.026756
129.500000 0.033863
129.500000 0.041806
129.500000 0.050585
129.500000 0.060201
129.500000 0.070652
129.500000 0.081940
129.500000 0.094063
129.500000 0.107023
129.500000 0.120819
129.500000 0.135451
129.500000 0.150919
129.500000 0.167224
129.500000 0.184364
129.500000 0.202341
129.500000 0.221153
129.500000 0.240802
129.500000 0.261287
129.500000 0.282608
129.500000 0.304765
129.500000 0.327758
129.500000 0.351588
129.500000 0.376253
129.500000 0.401755
129.500000 0.428092
129.500000 0.455266
129.500000 0.483276
129.500000 0.512122
129.500000 0.541805
129.500000 0.572323
129.500000 0.603677
129.500000 0.635868
129.500000 0.668894
129.500000 0.702757
129.500000 0.737456
129.500000 0.772991
129.500000 0.809362
129.500000 0.846570
129.500000 0.884613
129.500000 0.923492
129.500000 0.963208
129.500000 1.003760
129.500000 1.045148
129.500000 1.087372
129.500000 1.130432
129.500000 1.174328
129.500000 1.219060
129.500000 1.264629
129.500000 1.311033
129.500000 1.358274
129.500000 1.406351
129.500000 1.455264
129.500000 1.505013
129.500000 1.555598
129.500000 1.607019
129.500000 1.659276
129.500000 1.712370
129.500000 1.766299
129.500000 1.821065
129.500000 1.876667
129.500000 1.933105
129.500000 1.990379
129.500000 2.048489
129.500000 2.107436
129.500000 2.167218
129.500000 2.227837
129.500000 2.289291
129.500000 2.351582
129.500000 2.414709
129.500000 2.478672
129.500000 2.543471
129.500000 2.609106
129.500000 2.675578
129.500000 2.742885
129.500000 2.811029
129.500000 2.880009
129.500000 2.949825
129.500000 3.020477
129.500000 3.091965
129.500000 3.164289
129.500000 3.237449
129.500000 3.311446
129.500000 3.386278
129.500000 3.461947
129.500000 3.538452
129.500000 3.615793
129.500000 3.693970
129.500000 3.772983
129.500000 3.852832
129.500000 3.933517
129.500000 4.015039
129.500000 4.097397
129.500000 4.180590
129.500000 4.264620
129.500000 4.349486
129.500000 4.435188
129.500000 4.521727
129.500000 4.609101
129.500000 4.697311
129.500000 4.786358
129.500000 4.876241
129.500000 4.966959
129.500000 5.058514
129.500000 5.150905
129.500000 5.244133
129.500000 5.338196
129.500000 5.433095
129.500000 5.528831
129.500000 5.625402
129.500000 5.722810
129.500000 5.821054
129.500000 5.920134
129.500000 6.020050
129.500000 6.120802
129.500000 6.222391
129.500000 6.324815
129.500000 6.428076
129.500000 6.532172
129.500000 6.637105
129.500000 6.742874
129.500000 6.849479
129.500000 6.956920
129.500000 7.065198
129.500000 7.174311
129.500000 7.284261
129.500000 7.395046
129.500000 7.506668
129.500000 7.619126
129.500000 7.732420
129.500000 7.846550
129.500000 7.961516
129.500000 8.077319
129.500000 8.193957
129.500000 8.311432
129.500000 8.429742
129.500000 8.548889
129.500000 8.668872
129.500000 8.789691
129.500000 8.911346
129.500000 9.033838
129.500000 9.157165
129.500000 9.281329
129.500000 9.406328
129.500000 9.532164
129.500000 9.658836
129.500000 9.786344
129.500000 9.914688
129.500000 10.043868
129.500000 10.173885
129.500000 10.304737
129.500000 10.436426
129.500000 10.568950
129.500000 10.702311
129.500000 10.836508
129.500000 10.971541
129.500000 11.107411
129.500000 11.244116
129.500000 11.381657
129.500000 11.520035
129.500000 11.659248
129.500000 11.799298
129.500000 11.940184
129.500000 12.081906
129.500000 12.224464
129.500000 12.367859
129.500000 12.512089
129.500000 12.657155
129.500000 12.803058
129.500000 12.949797
129.500000 13.097372
129.500000 13.245782
129.500000 13.395030
129.500000 13.545113
129.500000 13.696032
129.500000 13.847787
129.500000 14.000379
129.500000 14.153807
129.500000 14.308070
129.500000 14.463170
129.500000 14.619106
129.500000 14.775879
129.500000 14.933487
129.500000 15.091931
129.500000 15.251212
129.500000 15.411328
129.500000 15.572281
129.500000 15.734070
129.500000 15.896695
129.500000 16.060156
129.500000 16.224453
129.500000 16.389586
129.500000 16.555556
129.500000 16.722361
129.500000 16.890003
129.500000 17.058481
129.500000 17.227795
129.500000 17.397945
129.500000 17.568931
129.500000 17.740753
129.500000 17.913412
129.500000 18.086906
129.500000 18.261237
129.500000 18.436403
129.500000 18.612406
129.500000 18.789245
129.500000 18.966920
129.500000 19.145432
129.500000 19.324779
129.500000 19.504962
129.500000 19.685982
129.500000 19.867838
129.500000 20.050529
129.500000 20.234057
129.500000 20.418421
129.500000 20.603622
129.500000 20.789658
129.500000 20.976530
129.500000 21.164239
129.500000 21.352783
129.500000 21.542164
129.500000 21.732381
129.500000 21.923434
129.500000 22.115323
129.500000 22.308048
129.500000 22.501610
129.500000 22.696007
129.500000 22.891241
129.500000 23.087310
129.500000 23.284216
129.500000 23.481958
129.500000 23.680536
129.500000 23.879950
129.500000 24.080200
129.500000 24.281287
129.500000 24.483209
129.500000 24.685968
129.500000 24.889563
129.500000 25.093994
129.500000 25.299261
129.500000 25.505364
129.500000 25.712303
129.500000 25.920078
129.500000 26.128690
129.500000 26.338137
129.500000 26.548421
129.500000 26.759541
129.500000 26.971497
129.500000 27.184289
129.500000 27.397917
129.500000 27.612381
129.500000 27.827682
129.500000 28.043818
129.500000 28.260791
129.500000 28.478600
129.500000 28.697244
129.500000 28.916725
129.500000 29.137043
129.500000 29.358196
129.500000 29.580185
129.500000 29.803011
129.500000 30.026672
129.500000 30.251170
129.500000 30.476504
129.500000 30.702674
129.500000 30.929680
129.500000 31.157522
129.500000 31.386200
129.500000 31.615715
129.500000 31.846065
129.500000 32.077252
129.500000 32.309275
129.500000 32.542133
129.500000 32.775828
129.500000 33.010360
129.500000 33.245727
129.500000 33.481930
129.500000 33.718970
129.500000 33.956845
129.500000 34.195557
129.500000 34.435105
129.500000 34.675489
129.500000 34.916709
129.500000 35.158765
129.500000 35.401657
129.500000 35.645386
129.500000 35.889950
129.500000 36.135351
129.500000 36.381588
129.500000 36.628660
129.500000 36.876569
129.500000 37.125315
129.500000 37.374896
129.500000 37.625313
129.500000 37.876567
129.500000 38.128656
129.500000 38.381582
129.500000 38.635344
129.500000 38.889942
129.500000 39.145376
129.500000 39.401646
129.500000 39.658752
129.500000 39.916695
129.500000 40.175473
129.500000 40.435088
129.500000 40.695539
129.500000 40.956826
129.500000 41.218949
129.500000 41.481908
129.500000 41.745703
129.500000 42.010334
129.500000 42.275802
129.500000 42.542106
129.500000 42.809245
129.500000 43.077221
129.500000 43.346033
129.500000 43.615681
129.500000 43.886165
129.500000 44.157486
129.500000 44.429642
129.500000 44.702635
129.500000 44.976463
129.500000 45.251128
129.500000 45.526629
129.500000 45.802966
129.500000 46.080139
129.500000 46.358148
129.500000 46.636994
129.500000 46.916675
129.500000 47.197193
129.500000 47.478547
129.500000 47.760736
129.500000 48.043762
129.500000 48.327625
129.500000 48.612323
129.500000 48.897857
129.500000 49.184227
129.500000 49.471434
129.500000 49.759477
129.500000 50.048355
129.500000 50.338070
129.500000 50.628621
129.500000 50.920009
129.500000 51.212232
129.500000 51.505291
129.500000 51.799187
129.500000 52.093918
129.500000 52.389486
129.500000 52.685890
129.500000 52.983130
129.500000 53.281206
129.500000 53.580118
129.500000 53.879867
129.500000 54.180451
129.500000 54.481872
129.500000 54.784128
129.500000 55.087221
129.500000 55.391150
129.500000 55.695915
129.500000 56.001516
129.500000 56.307953
129.500000 56.615227
129.500000 56.923336
129.500000 57.232282
129.500000 57.542064
129.500000 57.852682
129.500000 58.164136
129.500000 58.476426
129.500000 58.789552
129.500000 59.103514
129.500000 59.418313
129.500000 59.733947
129.500000 60.050418
129.500000 60.367725
129.500000 60.685868
129.500000 61.004847
129.500000 61.324662
129.500000 61.645313
129.500000 61.966801
129.500000 62.289124
129.500000 62.612284
129.500000 62.936279
129.500000 63.261111
129.500000 63.586779
129.500000 63.913283
129.500000 64.240624
129.500000 64.568800
129.500000 64.897812
129.500000 65.227661
129.500000 65.558346
129.500000 65.889867
129.500000 66.222223
129.500000 66.555417
129.500000 66.889446
129.500000 67.224311
129.500000 67.560012
129.500000 67.896550
129.500000 68.233924
129.500000 68.572133
129.500000 68.911179
129.500000 69.251061
129.500000 69.591779
129.500000 69.933334
129.500000 70.275724
129.500000 70.618950
129.500000 70.963013
129.500000 71.307912
129.500000 71.653646
129.500000 72.000217
129.500000 72.347624
129.500000 72.695868
129.500000 73.044947
129.500000 73.394862
129.500000 73.745614
129.500000 74.097202
129.500000 74.449625
129.500000 74.802885
129.500000 75.156981
129.500000 75.511913
129.500000 75.867682
129.500000 76.224286
129.500000 76.581726
129.500000 76.940003
129.500000 77.299116
129.500000 77.659064
129.500000 78.019849
129.500000 78.381471
129.500000 78.743928
129.500000 79.107221
129.500000 79.471350
129.500000 79.836316
129.500000 80.202118
129.500000 80.568755
129.500000 80.936229
129.500000 81.304539
129.500000 81.673685
129.500000 82.043668
129.500000 82.414486
129.500000 82.786141
129.500000 83.158631
129.500000 83.531958
129.500000 83.906121
129.500000 84.281120
129.500000 84.656955
129.500000 85.033626
129.500000 85.411133
129.500000 85.789477
129.500000 86.168656
129.500000 86.548672
129.500000 86.929524
129.500000 87.311212
129.500000 87.693736
129.500000 88.077096
129.500000 88.461292
129.500000 88.846324
129.500000 89.232193
129.500000 89.618897
129.500000 90.006438
129.500000 90.394815
129.500000 90.784028
129.500000 91.174077
129.500000 91.564962
129.500000 91.956684
129.500000 92.349241
129.500000 92.742634
129.500000 93.136864
129.500000 93.531930
129.500000 93.927832
129.500000 94.324570
129.500000 94.722144
129.500000 95.120554
129.500000 95.519801
129.500000 95.919883
129.500000 96.320802
129.500000 96.722557
129.500000 97.125147
129.500000 97.528574
129.500000 97.932837
129.500000 98.337937
129.500000 98.743872
129.500000 99.150643
129.500000 99.558251
129.500000 99.966695
129.500000 100.375974
129.500000 100.786090
129.500000 101.197042
129.500000 101.608831
129.500000 102.021455
129.500000 102.434915
129.500000 102.849212
129.500000 103.264344
129.500000 103.680313
129.500000 104.097118
129.500000 104.514759
129.500000 104.933236
129.500000 105.352549
129.500000 105.772699
129.500000 106.193684
129.500000 106.615506
129.500000 107.038163
129.500000 107.461657
129.500000 107.885987
129.500000 108.311153
129.500000 108.737155
129.500000 109.163993
129.500000 109.591668
129.500000 110.020178
129.500000 110.449525
129.500000 110.879708
129.500000 111.310727
129.500000 111.742582
129.500000 112.175273
129.500000 112.608800
129.500000 113.043163
129.500000 113.478363
129.500000 113.914398
129.500000 114.351270
129.500000 114.788978
129.500000 115.227522
129.500000 115.666902
129.500000 116.107118
129.500000 116.548170
129.500000 116.990059
129.500000 117.432783
129.500000 117.876344
129.500000 118.320740
129.500000 118.765973
129.500000 119.212042
129.500000 119.658947
129.500000 120.106689
129.500000 120.555266
129.500000 121.004679
129.500000 121.454929
129.500000 121.906015
129.500000 122.357937
129.500000 122.810695
129.500000 123.264289
129.500000 123.718719
129.500000 124.173985
129.500000 124.630087
129.500000 125.087026
129.500000 125.544801
129.500000 126.003411
129.500000 126.462858
129.500000 126.923141
129.500000 127.384260
129.500000 127.846216
129.500000 128.309007
129.500000 128.772634
129.500000 129.237098
129.500000 129.702398
129.500000 130.168534
129.500000 130.635505
129.500000 131.103314
129.500000 131.571958
129.500000 132.041438
129.500000 132.511754
129.500000 132.982907
129.500000 133.454896
129.500000 133.927720
129.500000 134.401381
129.500000 134.875878
129.500000 135.351211
129.500000 135.827381
129.500000 136.304386
129.500000 136.782227
129.500000 137.260905
129.500000 137.740419
129.500000 138.220769
129.500000 138.701955
129.500000 139.183977
129.500000 139.666835
129.500000 140.150529
129.500000 140.635060
129.500000 141.120426
129.500000 141.606629
129.500000 142.093668
129.500000 142.581542
129.500000 143.070253
129.500000 143.559801
129.500000 144.050184
129.500000 144.541403
129.500000 145.033459
129.500000 145.526350
129.500000 146.020078
129.500000 146.514642
129.500000 147.010042
129.500000 147.506278
129.500000 148.003350
129.500000 148.501258
129.500000 149.000003
129.500000 149.499583
129.500000 150.000000
</POINTS>
</NEKTAR>

