<?xml version="1.0" encoding="utf-8" ?>
<NEKTAR>
<POINTS DIM="2" FIELDS="">
513.500000 0.000000
513.500000 0.000418
513.500000 0.001672
513.500000 0.003763
513.500000 0.006689
513.500000 0.010451
513.500000 0.015050
513.500000 0.020485
513.500000 0.026756
513.500000 0.033863
513.500000 0.041806
513.500000 0.050585
513.500000 0.060201
513.500000 0.070652
513.500000 0.081940
513.500000 0.094063
513.500000 0.107023
513.500000 0.120819
513.500000 0.135451
513.500000 0.150919
513.500000 0.167224
513.500000 0.184364
513.500000 0.202341
513.500000 0.221153
513.500000 0.240802
513.500000 0.261287
513.500000 0.282608
513.500000 0.304765
513.500000 0.327758
513.500000 0.351588
513.500000 0.376253
513.500000 0.401755
513.500000 0.428092
513.500000 0.455266
513.500000 0.483276
513.500000 0.512122
513.500000 0.541805
513.500000 0.572323
513.500000 0.603677
513.500000 0.635868
513.500000 0.668894
513.500000 0.702757
513.500000 0.737456
513.500000 0.772991
513.500000 0.809362
513.500000 0.846570
513.500000 0.884613
513.500000 0.923492
513.500000 0.963208
513.500000 1.003760
513.500000 1.045148
513.500000 1.087372
513.500000 1.130432
513.500000 1.174328
513.500000 1.219060
513.500000 1.264629
513.500000 1.311033
513.500000 1.358274
513.500000 1.406351
513.500000 1.455264
513.500000 1.505013
513.500000 1.555598
513.500000 1.607019
513.500000 1.659276
513.500000 1.712370
513.500000 1.766299
513.500000 1.821065
513.500000 1.876667
513.500000 1.933105
513.500000 1.990379
513.500000 2.048489
513.500000 2.107436
513.500000 2.167218
513.500000 2.227837
513.500000 2.289291
513.500000 2.351582
513.500000 2.414709
513.500000 2.478672
513.500000 2.543471
513.500000 2.609106
513.500000 2.675578
513.500000 2.742885
513.500000 2.811029
513.500000 2.880009
513.500000 2.949825
513.500000 3.020477
513.500000 3.091965
513.500000 3.164289
513.500000 3.237449
513.500000 3.311446
513.500000 3.386278
513.500000 3.461947
513.500000 3.538452
513.500000 3.615793
513.500000 3.693970
513.500000 3.772983
513.500000 3.852832
513.500000 3.933517
513.500000 4.015039
513.500000 4.097397
513.500000 4.180590
513.500000 4.264620
513.500000 4.349486
513.500000 4.435188
513.500000 4.521727
513.500000 4.609101
513.500000 4.697311
513.500000 4.786358
513.500000 4.876241
513.500000 4.966959
513.500000 5.058514
513.500000 5.150905
513.500000 5.244133
513.500000 5.338196
513.500000 5.433095
513.500000 5.528831
513.500000 5.625402
513.500000 5.722810
513.500000 5.821054
513.500000 5.920134
513.500000 6.020050
513.500000 6.120802
513.500000 6.222391
513.500000 6.324815
513.500000 6.428076
513.500000 6.532172
513.500000 6.637105
513.500000 6.742874
513.500000 6.849479
513.500000 6.956920
513.500000 7.065198
513.500000 7.174311
513.500000 7.284261
513.500000 7.395046
513.500000 7.506668
513.500000 7.619126
513.500000 7.732420
513.500000 7.846550
513.500000 7.961516
513.500000 8.077319
513.500000 8.193957
513.500000 8.311432
513.500000 8.429742
513.500000 8.548889
513.500000 8.668872
513.500000 8.789691
513.500000 8.911346
513.500000 9.033838
513.500000 9.157165
513.500000 9.281329
513.500000 9.406328
513.500000 9.532164
513.500000 9.658836
513.500000 9.786344
513.500000 9.914688
513.500000 10.043868
513.500000 10.173885
513.500000 10.304737
513.500000 10.436426
513.500000 10.568950
513.500000 10.702311
513.500000 10.836508
513.500000 10.971541
513.500000 11.107411
513.500000 11.244116
513.500000 11.381657
513.500000 11.520035
513.500000 11.659248
513.500000 11.799298
513.500000 11.940184
513.500000 12.081906
513.500000 12.224464
513.500000 12.367859
513.500000 12.512089
513.500000 12.657155
513.500000 12.803058
513.500000 12.949797
513.500000 13.097372
513.500000 13.245782
513.500000 13.395030
513.500000 13.545113
513.500000 13.696032
513.500000 13.847787
513.500000 14.000379
513.500000 14.153807
513.500000 14.308070
513.500000 14.463170
513.500000 14.619106
513.500000 14.775879
513.500000 14.933487
513.500000 15.091931
513.500000 15.251212
513.500000 15.411328
513.500000 15.572281
513.500000 15.734070
513.500000 15.896695
513.500000 16.060156
513.500000 16.224453
513.500000 16.389586
513.500000 16.555556
513.500000 16.722361
513.500000 16.890003
513.500000 17.058481
513.500000 17.227795
513.500000 17.397945
513.500000 17.568931
513.500000 17.740753
513.500000 17.913412
513.500000 18.086906
513.500000 18.261237
513.500000 18.436403
513.500000 18.612406
513.500000 18.789245
513.500000 18.966920
513.500000 19.145432
513.500000 19.324779
513.500000 19.504962
513.500000 19.685982
513.500000 19.867838
513.500000 20.050529
513.500000 20.234057
513.500000 20.418421
513.500000 20.603622
513.500000 20.789658
513.500000 20.976530
513.500000 21.164239
513.500000 21.352783
513.500000 21.542164
513.500000 21.732381
513.500000 21.923434
513.500000 22.115323
513.500000 22.308048
513.500000 22.501610
513.500000 22.696007
513.500000 22.891241
513.500000 23.087310
513.500000 23.284216
513.500000 23.481958
513.500000 23.680536
513.500000 23.879950
513.500000 24.080200
513.500000 24.281287
513.500000 24.483209
513.500000 24.685968
513.500000 24.889563
513.500000 25.093994
513.500000 25.299261
513.500000 25.505364
513.500000 25.712303
513.500000 25.920078
513.500000 26.128690
513.500000 26.338137
513.500000 26.548421
513.500000 26.759541
513.500000 26.971497
513.500000 27.184289
513.500000 27.397917
513.500000 27.612381
513.500000 27.827682
513.500000 28.043818
513.500000 28.260791
513.500000 28.478600
513.500000 28.697244
513.500000 28.916725
513.500000 29.137043
513.500000 29.358196
513.500000 29.580185
513.500000 29.803011
513.500000 30.026672
513.500000 30.251170
513.500000 30.476504
513.500000 30.702674
513.500000 30.929680
513.500000 31.157522
513.500000 31.386200
513.500000 31.615715
513.500000 31.846065
513.500000 32.077252
513.500000 32.309275
513.500000 32.542133
513.500000 32.775828
513.500000 33.010360
513.500000 33.245727
513.500000 33.481930
513.500000 33.718970
513.500000 33.956845
513.500000 34.195557
513.500000 34.435105
513.500000 34.675489
513.500000 34.916709
513.500000 35.158765
513.500000 35.401657
513.500000 35.645386
513.500000 35.889950
513.500000 36.135351
513.500000 36.381588
513.500000 36.628660
513.500000 36.876569
513.500000 37.125315
513.500000 37.374896
513.500000 37.625313
513.500000 37.876567
513.500000 38.128656
513.500000 38.381582
513.500000 38.635344
513.500000 38.889942
513.500000 39.145376
513.500000 39.401646
513.500000 39.658752
513.500000 39.916695
513.500000 40.175473
513.500000 40.435088
513.500000 40.695539
513.500000 40.956826
513.500000 41.218949
513.500000 41.481908
513.500000 41.745703
513.500000 42.010334
513.500000 42.275802
513.500000 42.542106
513.500000 42.809245
513.500000 43.077221
513.500000 43.346033
513.500000 43.615681
513.500000 43.886165
513.500000 44.157486
513.500000 44.429642
513.500000 44.702635
513.500000 44.976463
513.500000 45.251128
513.500000 45.526629
513.500000 45.802966
513.500000 46.080139
513.500000 46.358148
513.500000 46.636994
513.500000 46.916675
513.500000 47.197193
513.500000 47.478547
513.500000 47.760736
513.500000 48.043762
513.500000 48.327625
513.500000 48.612323
513.500000 48.897857
513.500000 49.184227
513.500000 49.471434
513.500000 49.759477
513.500000 50.048355
513.500000 50.338070
513.500000 50.628621
513.500000 50.920009
513.500000 51.212232
513.500000 51.505291
513.500000 51.799187
513.500000 52.093918
513.500000 52.389486
513.500000 52.685890
513.500000 52.983130
513.500000 53.281206
513.500000 53.580118
513.500000 53.879867
513.500000 54.180451
513.500000 54.481872
513.500000 54.784128
513.500000 55.087221
513.500000 55.391150
513.500000 55.695915
513.500000 56.001516
513.500000 56.307953
513.500000 56.615227
513.500000 56.923336
513.500000 57.232282
513.500000 57.542064
513.500000 57.852682
513.500000 58.164136
513.500000 58.476426
513.500000 58.789552
513.500000 59.103514
513.500000 59.418313
513.500000 59.733947
513.500000 60.050418
513.500000 60.367725
513.500000 60.685868
513.500000 61.004847
513.500000 61.324662
513.500000 61.645313
513.500000 61.966801
513.500000 62.289124
513.500000 62.612284
513.500000 62.936279
513.500000 63.261111
513.500000 63.586779
513.500000 63.913283
513.500000 64.240624
513.500000 64.568800
513.500000 64.897812
513.500000 65.227661
513.500000 65.558346
513.500000 65.889867
513.500000 66.222223
513.500000 66.555417
513.500000 66.889446
513.500000 67.224311
513.500000 67.560012
513.500000 67.896550
513.500000 68.233924
513.500000 68.572133
513.500000 68.911179
513.500000 69.251061
513.500000 69.591779
513.500000 69.933334
513.500000 70.275724
513.500000 70.618950
513.500000 70.963013
513.500000 71.307912
513.500000 71.653646
513.500000 72.000217
513.500000 72.347624
513.500000 72.695868
513.500000 73.044947
513.500000 73.394862
513.500000 73.745614
513.500000 74.097202
513.500000 74.449625
513.500000 74.802885
513.500000 75.156981
513.500000 75.511913
513.500000 75.867682
513.500000 76.224286
513.500000 76.581726
513.500000 76.940003
513.500000 77.299116
513.500000 77.659064
513.500000 78.019849
513.500000 78.381471
513.500000 78.743928
513.500000 79.107221
513.500000 79.471350
513.500000 79.836316
513.500000 80.202118
513.500000 80.568755
513.500000 80.936229
513.500000 81.304539
513.500000 81.673685
513.500000 82.043668
513.500000 82.414486
513.500000 82.786141
513.500000 83.158631
513.500000 83.531958
513.500000 83.906121
513.500000 84.281120
513.500000 84.656955
513.500000 85.033626
513.500000 85.411133
513.500000 85.789477
513.500000 86.168656
513.500000 86.548672
513.500000 86.929524
513.500000 87.311212
513.500000 87.693736
513.500000 88.077096
513.500000 88.461292
513.500000 88.846324
513.500000 89.232193
513.500000 89.618897
513.500000 90.006438
513.500000 90.394815
513.500000 90.784028
513.500000 91.174077
513.500000 91.564962
513.500000 91.956684
513.500000 92.349241
513.500000 92.742634
513.500000 93.136864
513.500000 93.531930
513.500000 93.927832
513.500000 94.324570
513.500000 94.722144
513.500000 95.120554
513.500000 95.519801
513.500000 95.919883
513.500000 96.320802
513.500000 96.722557
513.500000 97.125147
513.500000 97.528574
513.500000 97.932837
513.500000 98.337937
513.500000 98.743872
513.500000 99.150643
513.500000 99.558251
513.500000 99.966695
513.500000 100.375974
513.500000 100.786090
513.500000 101.197042
513.500000 101.608831
513.500000 102.021455
513.500000 102.434915
513.500000 102.849212
513.500000 103.264344
513.500000 103.680313
513.500000 104.097118
513.500000 104.514759
513.500000 104.933236
513.500000 105.352549
513.500000 105.772699
513.500000 106.193684
513.500000 106.615506
513.500000 107.038163
513.500000 107.461657
513.500000 107.885987
513.500000 108.311153
513.500000 108.737155
513.500000 109.163993
513.500000 109.591668
513.500000 110.020178
513.500000 110.449525
513.500000 110.879708
513.500000 111.310727
513.500000 111.742582
513.500000 112.175273
513.500000 112.608800
513.500000 113.043163
513.500000 113.478363
513.500000 113.914398
513.500000 114.351270
513.500000 114.788978
513.500000 115.227522
513.500000 115.666902
513.500000 116.107118
513.500000 116.548170
513.500000 116.990059
513.500000 117.432783
513.500000 117.876344
513.500000 118.320740
513.500000 118.765973
513.500000 119.212042
513.500000 119.658947
513.500000 120.106689
513.500000 120.555266
513.500000 121.004679
513.500000 121.454929
513.500000 121.906015
513.500000 122.357937
513.500000 122.810695
513.500000 123.264289
513.500000 123.718719
513.500000 124.173985
513.500000 124.630087
513.500000 125.087026
513.500000 125.544801
513.500000 126.003411
513.500000 126.462858
513.500000 126.923141
513.500000 127.384260
513.500000 127.846216
513.500000 128.309007
513.500000 128.772634
513.500000 129.237098
513.500000 129.702398
513.500000 130.168534
513.500000 130.635505
513.500000 131.103314
513.500000 131.571958
513.500000 132.041438
513.500000 132.511754
513.500000 132.982907
513.500000 133.454896
513.500000 133.927720
513.500000 134.401381
513.500000 134.875878
513.500000 135.351211
513.500000 135.827381
513.500000 136.304386
513.500000 136.782227
513.500000 137.260905
513.500000 137.740419
513.500000 138.220769
513.500000 138.701955
513.500000 139.183977
513.500000 139.666835
513.500000 140.150529
513.500000 140.635060
513.500000 141.120426
513.500000 141.606629
513.500000 142.093668
513.500000 142.581542
513.500000 143.070253
513.500000 143.559801
513.500000 144.050184
513.500000 144.541403
513.500000 145.033459
513.500000 145.526350
513.500000 146.020078
513.500000 146.514642
513.500000 147.010042
513.500000 147.506278
513.500000 148.003350
513.500000 148.501258
513.500000 149.000003
513.500000 149.499583
513.500000 150.000000
</POINTS>
</NEKTAR>

