<?xml version="1.0" encoding="utf-8" ?>
<NEKTAR>
<POINTS DIM="2" FIELDS="">
13.500000 -1.500000
13.500000 -1.499578
13.500000 -1.498311
13.500000 -1.496200
13.500000 -1.493244
13.500000 -1.489444
13.500000 -1.484799
13.500000 -1.479310
13.500000 -1.472977
13.500000 -1.465799
13.500000 -1.457776
13.500000 -1.448909
13.500000 -1.439197
13.500000 -1.428642
13.500000 -1.417241
13.500000 -1.404996
13.500000 -1.391907
13.500000 -1.377973
13.500000 -1.363194
13.500000 -1.347571
13.500000 -1.331104
13.500000 -1.313792
13.500000 -1.295636
13.500000 -1.276635
13.500000 -1.256790
13.500000 -1.236100
13.500000 -1.214566
13.500000 -1.192187
13.500000 -1.168964
13.500000 -1.144896
13.500000 -1.119984
13.500000 -1.094228
13.500000 -1.067627
13.500000 -1.040181
13.500000 -1.011891
13.500000 -0.982756
13.500000 -0.952777
13.500000 -0.921954
13.500000 -0.890286
13.500000 -0.857774
13.500000 -0.824417
13.500000 -0.790215
13.500000 -0.755169
13.500000 -0.719279
13.500000 -0.682544
13.500000 -0.644965
13.500000 -0.606541
13.500000 -0.567273
13.500000 -0.527160
13.500000 -0.486203
13.500000 -0.444401
13.500000 -0.401755
13.500000 -0.358264
13.500000 -0.313929
13.500000 -0.268749
13.500000 -0.222725
13.500000 -0.175857
13.500000 -0.128143
13.500000 -0.079586
13.500000 -0.030184
13.500000 0.020063
13.500000 0.071154
13.500000 0.123089
13.500000 0.175869
13.500000 0.229494
13.500000 0.283962
13.500000 0.339276
13.500000 0.395434
13.500000 0.452436
13.500000 0.510283
13.500000 0.568974
13.500000 0.628510
13.500000 0.688890
13.500000 0.750115
13.500000 0.812184
13.500000 0.875098
13.500000 0.938856
13.500000 1.003459
13.500000 1.068906
13.500000 1.135198
13.500000 1.202334
13.500000 1.270314
13.500000 1.339139
13.500000 1.408809
13.500000 1.479323
13.500000 1.550681
13.500000 1.622884
13.500000 1.695932
13.500000 1.769824
13.500000 1.844560
13.500000 1.920141
13.500000 1.996566
13.500000 2.073836
13.500000 2.151951
13.500000 2.230909
13.500000 2.310713
13.500000 2.391360
13.500000 2.472853
13.500000 2.555189
13.500000 2.638371
13.500000 2.722396
13.500000 2.807266
13.500000 2.892981
13.500000 2.979540
13.500000 3.066944
13.500000 3.155192
13.500000 3.244284
13.500000 3.334221
13.500000 3.425003
13.500000 3.516629
13.500000 3.609099
13.500000 3.702414
13.500000 3.796574
13.500000 3.891578
13.500000 3.987426
13.500000 4.084119
13.500000 4.181656
13.500000 4.280038
13.500000 4.379265
13.500000 4.479335
13.500000 4.580251
13.500000 4.682010
13.500000 4.784615
13.500000 4.888063
13.500000 4.992356
13.500000 5.097494
13.500000 5.203476
13.500000 5.310303
13.500000 5.417974
13.500000 5.526490
13.500000 5.635850
13.500000 5.746054
13.500000 5.857103
13.500000 5.968997
13.500000 6.081735
13.500000 6.195317
13.500000 6.309744
13.500000 6.425016
13.500000 6.541131
13.500000 6.658092
13.500000 6.775897
13.500000 6.894546
13.500000 7.014040
13.500000 7.134378
13.500000 7.255561
13.500000 7.377588
13.500000 7.500460
13.500000 7.624176
13.500000 7.748737
13.500000 7.874142
13.500000 8.000392
13.500000 8.127486
13.500000 8.255424
13.500000 8.384207
13.500000 8.513835
13.500000 8.644307
13.500000 8.775624
13.500000 8.907785
13.500000 9.040790
13.500000 9.174640
13.500000 9.309334
13.500000 9.444873
13.500000 9.581257
13.500000 9.718485
13.500000 9.856557
13.500000 9.995474
13.500000 10.135235
13.500000 10.275841
13.500000 10.417291
13.500000 10.559586
13.500000 10.702725
13.500000 10.846709
13.500000 10.991537
13.500000 11.137210
13.500000 11.283727
13.500000 11.431089
13.500000 11.579295
13.500000 11.728345
13.500000 11.878240
13.500000 12.028980
13.500000 12.180564
13.500000 12.332992
13.500000 12.486265
13.500000 12.640383
13.500000 12.795345
13.500000 12.951151
13.500000 13.107802
13.500000 13.265297
13.500000 13.423637
13.500000 13.582822
13.500000 13.742850
13.500000 13.903724
13.500000 14.065442
13.500000 14.228004
13.500000 14.391411
13.500000 14.555662
13.500000 14.720757
13.500000 14.886698
13.500000 15.053482
13.500000 15.221111
13.500000 15.389585
13.500000 15.558903
13.500000 15.729066
13.500000 15.900073
13.500000 16.071924
13.500000 16.244620
13.500000 16.418161
13.500000 16.592546
13.500000 16.767775
13.500000 16.943849
13.500000 17.120768
13.500000 17.298530
13.500000 17.477138
13.500000 17.656590
13.500000 17.836886
13.500000 18.018027
13.500000 18.200012
13.500000 18.382842
13.500000 18.566516
13.500000 18.751035
13.500000 18.936398
13.500000 19.122606
13.500000 19.309658
13.500000 19.497554
13.500000 19.686295
13.500000 19.875881
13.500000 20.066311
13.500000 20.257586
13.500000 20.449705
13.500000 20.642668
13.500000 20.836476
13.500000 21.031129
13.500000 21.226626
13.500000 21.422967
13.500000 21.620153
13.500000 21.818183
13.500000 22.017058
13.500000 22.216778
13.500000 22.417341
13.500000 22.618750
13.500000 22.821002
13.500000 23.024100
13.500000 23.228041
13.500000 23.432828
13.500000 23.638458
13.500000 23.844934
13.500000 24.052253
13.500000 24.260417
13.500000 24.469426
13.500000 24.679279
13.500000 24.889977
13.500000 25.101519
13.500000 25.313905
13.500000 25.527136
13.500000 25.741212
13.500000 25.956132
13.500000 26.171896
13.500000 26.388505
13.500000 26.605958
13.500000 26.824256
13.500000 27.043399
13.500000 27.263386
13.500000 27.484217
13.500000 27.705893
13.500000 27.928413
13.500000 28.151778
13.500000 28.375987
13.500000 28.601041
13.500000 28.826939
13.500000 29.053682
13.500000 29.281269
13.500000 29.509700
13.500000 29.738976
13.500000 29.969097
13.500000 30.200062
13.500000 30.431872
13.500000 30.664526
13.500000 30.898024
13.500000 31.132367
13.500000 31.367555
13.500000 31.603587
13.500000 31.840463
13.500000 32.078184
13.500000 32.316749
13.500000 32.556159
13.500000 32.796414
13.500000 33.037512
13.500000 33.279456
13.500000 33.522244
13.500000 33.765876
13.500000 34.010353
13.500000 34.255674
13.500000 34.501839
13.500000 34.748850
13.500000 34.996704
13.500000 35.245403
13.500000 35.494947
13.500000 35.745335
13.500000 35.996568
13.500000 36.248645
13.500000 36.501566
13.500000 36.755332
13.500000 37.009943
13.500000 37.265398
13.500000 37.521697
13.500000 37.778841
13.500000 38.036830
13.500000 38.295662
13.500000 38.555340
13.500000 38.815862
13.500000 39.077228
13.500000 39.339439
13.500000 39.602494
13.500000 39.866394
13.500000 40.131138
13.500000 40.396727
13.500000 40.663160
13.500000 40.930438
13.500000 41.198560
13.500000 41.467527
13.500000 41.737338
13.500000 42.007993
13.500000 42.279493
13.500000 42.551838
13.500000 42.825027
13.500000 43.099060
13.500000 43.373938
13.500000 43.649661
13.500000 43.926228
13.500000 44.203639
13.500000 44.481895
13.500000 44.760996
13.500000 45.040941
13.500000 45.321730
13.500000 45.603364
13.500000 45.885842
13.500000 46.169165
13.500000 46.453332
13.500000 46.738344
13.500000 47.024200
13.500000 47.310901
13.500000 47.598446
13.500000 47.886836
13.500000 48.176070
13.500000 48.466148
13.500000 48.757071
13.500000 49.048839
13.500000 49.341451
13.500000 49.634908
13.500000 49.929209
13.500000 50.224354
13.500000 50.520344
13.500000 50.817179
13.500000 51.114858
13.500000 51.413381
13.500000 51.712749
13.500000 52.012961
13.500000 52.314018
13.500000 52.615919
13.500000 52.918665
13.500000 53.222256
13.500000 53.526690
13.500000 53.831970
13.500000 54.138093
13.500000 54.445061
13.500000 54.752874
13.500000 55.061531
13.500000 55.371033
13.500000 55.681379
13.500000 55.992570
13.500000 56.304605
13.500000 56.617484
13.500000 56.931208
13.500000 57.245777
13.500000 57.561190
13.500000 57.877447
13.500000 58.194549
13.500000 58.512496
13.500000 58.831287
13.500000 59.150922
13.500000 59.471402
13.500000 59.792726
13.500000 60.114895
13.500000 60.437908
13.500000 60.761766
13.500000 61.086469
13.500000 61.412015
13.500000 61.738407
13.500000 62.065642
13.500000 62.393722
13.500000 62.722647
13.500000 63.052416
13.500000 63.383030
13.500000 63.714488
13.500000 64.046791
13.500000 64.379938
13.500000 64.713929
13.500000 65.048765
13.500000 65.384446
13.500000 65.720971
13.500000 66.058340
13.500000 66.396554
13.500000 66.735612
13.500000 67.075515
13.500000 67.416263
13.500000 67.757855
13.500000 68.100291
13.500000 68.443572
13.500000 68.787697
13.500000 69.132667
13.500000 69.478481
13.500000 69.825140
13.500000 70.172643
13.500000 70.520991
13.500000 70.870183
13.500000 71.220220
13.500000 71.571101
13.500000 71.922826
13.500000 72.275396
13.500000 72.628811
13.500000 72.983070
13.500000 73.338174
13.500000 73.694122
13.500000 74.050914
13.500000 74.408551
13.500000 74.767032
13.500000 75.126358
13.500000 75.486529
13.500000 75.847544
13.500000 76.209403
13.500000 76.572107
13.500000 76.935655
13.500000 77.300048
13.500000 77.665285
13.500000 78.031367
13.500000 78.398293
13.500000 78.766064
13.500000 79.134679
13.500000 79.504139
13.500000 79.874443
13.500000 80.245592
13.500000 80.617585
13.500000 80.990422
13.500000 81.364104
13.500000 81.738631
13.500000 82.114002
13.500000 82.490217
13.500000 82.867277
13.500000 83.245182
13.500000 83.623931
13.500000 84.003524
13.500000 84.383962
13.500000 84.765245
13.500000 85.147371
13.500000 85.530343
13.500000 85.914159
13.500000 86.298819
13.500000 86.684324
13.500000 87.070673
13.500000 87.457867
13.500000 87.845905
13.500000 88.234788
13.500000 88.624515
13.500000 89.015086
13.500000 89.406502
13.500000 89.798763
13.500000 90.191868
13.500000 90.585818
13.500000 90.980612
13.500000 91.376250
13.500000 91.772733
13.500000 92.170061
13.500000 92.568233
13.500000 92.967249
13.500000 93.367110
13.500000 93.767816
13.500000 94.169365
13.500000 94.571760
13.500000 94.974999
13.500000 95.379082
13.500000 95.784010
13.500000 96.189782
13.500000 96.596399
13.500000 97.003860
13.500000 97.412166
13.500000 97.821316
13.500000 98.231311
13.500000 98.642150
13.500000 99.053833
13.500000 99.466362
13.500000 99.879734
13.500000 100.293951
13.500000 100.709013
13.500000 101.124919
13.500000 101.541669
13.500000 101.959264
13.500000 102.377704
13.500000 102.796988
13.500000 103.217116
13.500000 103.638089
13.500000 104.059906
13.500000 104.482568
13.500000 104.906075
13.500000 105.330426
13.500000 105.755621
13.500000 106.181661
13.500000 106.608545
13.500000 107.036274
13.500000 107.464847
13.500000 107.894265
13.500000 108.324527
13.500000 108.755633
13.500000 109.187584
13.500000 109.620380
13.500000 110.054020
13.500000 110.488505
13.500000 110.923834
13.500000 111.360007
13.500000 111.797025
13.500000 112.234888
13.500000 112.673595
13.500000 113.113146
13.500000 113.553542
13.500000 113.994783
13.500000 114.436868
13.500000 114.879797
13.500000 115.323571
13.500000 115.768189
13.500000 116.213652
13.500000 116.659959
13.500000 117.107111
13.500000 117.555107
13.500000 118.003948
13.500000 118.453633
13.500000 118.904163
13.500000 119.355537
13.500000 119.807756
13.500000 120.260819
13.500000 120.714726
13.500000 121.169478
13.500000 121.625075
13.500000 122.081516
13.500000 122.538801
13.500000 122.996931
13.500000 123.455906
13.500000 123.915725
13.500000 124.376388
13.500000 124.837896
13.500000 125.300249
13.500000 125.763445
13.500000 126.227487
13.500000 126.692373
13.500000 127.158103
13.500000 127.624678
13.500000 128.092097
13.500000 128.560361
13.500000 129.029469
13.500000 129.499422
13.500000 129.970219
13.500000 130.441861
13.500000 130.914347
13.500000 131.387677
13.500000 131.861852
13.500000 132.336872
13.500000 132.812736
13.500000 133.289445
13.500000 133.766998
13.500000 134.245395
13.500000 134.724637
13.500000 135.204724
13.500000 135.685654
13.500000 136.167430
13.500000 136.650050
13.500000 137.133514
13.500000 137.617823
13.500000 138.102976
13.500000 138.588974
13.500000 139.075816
13.500000 139.563503
13.500000 140.052034
13.500000 140.541410
13.500000 141.031630
13.500000 141.522695
13.500000 142.014604
13.500000 142.507358
13.500000 143.000956
13.500000 143.495399
13.500000 143.990686
13.500000 144.486817
13.500000 144.983793
13.500000 145.481614
13.500000 145.980279
13.500000 146.479788
13.500000 146.980142
13.500000 147.481341
13.500000 147.983384
13.500000 148.486271
13.500000 148.990003
13.500000 149.494579
13.500000 150.000000
</POINTS>
</NEKTAR>

