<?xml version="1.0" encoding="utf-8" ?>
<NEKTAR>
<POINTS DIM="2" FIELDS="">
375.500000 0.000000
375.500000 0.000418
375.500000 0.001672
375.500000 0.003763
375.500000 0.006689
375.500000 0.010451
375.500000 0.015050
375.500000 0.020485
375.500000 0.026756
375.500000 0.033863
375.500000 0.041806
375.500000 0.050585
375.500000 0.060201
375.500000 0.070652
375.500000 0.081940
375.500000 0.094063
375.500000 0.107023
375.500000 0.120819
375.500000 0.135451
375.500000 0.150919
375.500000 0.167224
375.500000 0.184364
375.500000 0.202341
375.500000 0.221153
375.500000 0.240802
375.500000 0.261287
375.500000 0.282608
375.500000 0.304765
375.500000 0.327758
375.500000 0.351588
375.500000 0.376253
375.500000 0.401755
375.500000 0.428092
375.500000 0.455266
375.500000 0.483276
375.500000 0.512122
375.500000 0.541805
375.500000 0.572323
375.500000 0.603677
375.500000 0.635868
375.500000 0.668894
375.500000 0.702757
375.500000 0.737456
375.500000 0.772991
375.500000 0.809362
375.500000 0.846570
375.500000 0.884613
375.500000 0.923492
375.500000 0.963208
375.500000 1.003760
375.500000 1.045148
375.500000 1.087372
375.500000 1.130432
375.500000 1.174328
375.500000 1.219060
375.500000 1.264629
375.500000 1.311033
375.500000 1.358274
375.500000 1.406351
375.500000 1.455264
375.500000 1.505013
375.500000 1.555598
375.500000 1.607019
375.500000 1.659276
375.500000 1.712370
375.500000 1.766299
375.500000 1.821065
375.500000 1.876667
375.500000 1.933105
375.500000 1.990379
375.500000 2.048489
375.500000 2.107436
375.500000 2.167218
375.500000 2.227837
375.500000 2.289291
375.500000 2.351582
375.500000 2.414709
375.500000 2.478672
375.500000 2.543471
375.500000 2.609106
375.500000 2.675578
375.500000 2.742885
375.500000 2.811029
375.500000 2.880009
375.500000 2.949825
375.500000 3.020477
375.500000 3.091965
375.500000 3.164289
375.500000 3.237449
375.500000 3.311446
375.500000 3.386278
375.500000 3.461947
375.500000 3.538452
375.500000 3.615793
375.500000 3.693970
375.500000 3.772983
375.500000 3.852832
375.500000 3.933517
375.500000 4.015039
375.500000 4.097397
375.500000 4.180590
375.500000 4.264620
375.500000 4.349486
375.500000 4.435188
375.500000 4.521727
375.500000 4.609101
375.500000 4.697311
375.500000 4.786358
375.500000 4.876241
375.500000 4.966959
375.500000 5.058514
375.500000 5.150905
375.500000 5.244133
375.500000 5.338196
375.500000 5.433095
375.500000 5.528831
375.500000 5.625402
375.500000 5.722810
375.500000 5.821054
375.500000 5.920134
375.500000 6.020050
375.500000 6.120802
375.500000 6.222391
375.500000 6.324815
375.500000 6.428076
375.500000 6.532172
375.500000 6.637105
375.500000 6.742874
375.500000 6.849479
375.500000 6.956920
375.500000 7.065198
375.500000 7.174311
375.500000 7.284261
375.500000 7.395046
375.500000 7.506668
375.500000 7.619126
375.500000 7.732420
375.500000 7.846550
375.500000 7.961516
375.500000 8.077319
375.500000 8.193957
375.500000 8.311432
375.500000 8.429742
375.500000 8.548889
375.500000 8.668872
375.500000 8.789691
375.500000 8.911346
375.500000 9.033838
375.500000 9.157165
375.500000 9.281329
375.500000 9.406328
375.500000 9.532164
375.500000 9.658836
375.500000 9.786344
375.500000 9.914688
375.500000 10.043868
375.500000 10.173885
375.500000 10.304737
375.500000 10.436426
375.500000 10.568950
375.500000 10.702311
375.500000 10.836508
375.500000 10.971541
375.500000 11.107411
375.500000 11.244116
375.500000 11.381657
375.500000 11.520035
375.500000 11.659248
375.500000 11.799298
375.500000 11.940184
375.500000 12.081906
375.500000 12.224464
375.500000 12.367859
375.500000 12.512089
375.500000 12.657155
375.500000 12.803058
375.500000 12.949797
375.500000 13.097372
375.500000 13.245782
375.500000 13.395030
375.500000 13.545113
375.500000 13.696032
375.500000 13.847787
375.500000 14.000379
375.500000 14.153807
375.500000 14.308070
375.500000 14.463170
375.500000 14.619106
375.500000 14.775879
375.500000 14.933487
375.500000 15.091931
375.500000 15.251212
375.500000 15.411328
375.500000 15.572281
375.500000 15.734070
375.500000 15.896695
375.500000 16.060156
375.500000 16.224453
375.500000 16.389586
375.500000 16.555556
375.500000 16.722361
375.500000 16.890003
375.500000 17.058481
375.500000 17.227795
375.500000 17.397945
375.500000 17.568931
375.500000 17.740753
375.500000 17.913412
375.500000 18.086906
375.500000 18.261237
375.500000 18.436403
375.500000 18.612406
375.500000 18.789245
375.500000 18.966920
375.500000 19.145432
375.500000 19.324779
375.500000 19.504962
375.500000 19.685982
375.500000 19.867838
375.500000 20.050529
375.500000 20.234057
375.500000 20.418421
375.500000 20.603622
375.500000 20.789658
375.500000 20.976530
375.500000 21.164239
375.500000 21.352783
375.500000 21.542164
375.500000 21.732381
375.500000 21.923434
375.500000 22.115323
375.500000 22.308048
375.500000 22.501610
375.500000 22.696007
375.500000 22.891241
375.500000 23.087310
375.500000 23.284216
375.500000 23.481958
375.500000 23.680536
375.500000 23.879950
375.500000 24.080200
375.500000 24.281287
375.500000 24.483209
375.500000 24.685968
375.500000 24.889563
375.500000 25.093994
375.500000 25.299261
375.500000 25.505364
375.500000 25.712303
375.500000 25.920078
375.500000 26.128690
375.500000 26.338137
375.500000 26.548421
375.500000 26.759541
375.500000 26.971497
375.500000 27.184289
375.500000 27.397917
375.500000 27.612381
375.500000 27.827682
375.500000 28.043818
375.500000 28.260791
375.500000 28.478600
375.500000 28.697244
375.500000 28.916725
375.500000 29.137043
375.500000 29.358196
375.500000 29.580185
375.500000 29.803011
375.500000 30.026672
375.500000 30.251170
375.500000 30.476504
375.500000 30.702674
375.500000 30.929680
375.500000 31.157522
375.500000 31.386200
375.500000 31.615715
375.500000 31.846065
375.500000 32.077252
375.500000 32.309275
375.500000 32.542133
375.500000 32.775828
375.500000 33.010360
375.500000 33.245727
375.500000 33.481930
375.500000 33.718970
375.500000 33.956845
375.500000 34.195557
375.500000 34.435105
375.500000 34.675489
375.500000 34.916709
375.500000 35.158765
375.500000 35.401657
375.500000 35.645386
375.500000 35.889950
375.500000 36.135351
375.500000 36.381588
375.500000 36.628660
375.500000 36.876569
375.500000 37.125315
375.500000 37.374896
375.500000 37.625313
375.500000 37.876567
375.500000 38.128656
375.500000 38.381582
375.500000 38.635344
375.500000 38.889942
375.500000 39.145376
375.500000 39.401646
375.500000 39.658752
375.500000 39.916695
375.500000 40.175473
375.500000 40.435088
375.500000 40.695539
375.500000 40.956826
375.500000 41.218949
375.500000 41.481908
375.500000 41.745703
375.500000 42.010334
375.500000 42.275802
375.500000 42.542106
375.500000 42.809245
375.500000 43.077221
375.500000 43.346033
375.500000 43.615681
375.500000 43.886165
375.500000 44.157486
375.500000 44.429642
375.500000 44.702635
375.500000 44.976463
375.500000 45.251128
375.500000 45.526629
375.500000 45.802966
375.500000 46.080139
375.500000 46.358148
375.500000 46.636994
375.500000 46.916675
375.500000 47.197193
375.500000 47.478547
375.500000 47.760736
375.500000 48.043762
375.500000 48.327625
375.500000 48.612323
375.500000 48.897857
375.500000 49.184227
375.500000 49.471434
375.500000 49.759477
375.500000 50.048355
375.500000 50.338070
375.500000 50.628621
375.500000 50.920009
375.500000 51.212232
375.500000 51.505291
375.500000 51.799187
375.500000 52.093918
375.500000 52.389486
375.500000 52.685890
375.500000 52.983130
375.500000 53.281206
375.500000 53.580118
375.500000 53.879867
375.500000 54.180451
375.500000 54.481872
375.500000 54.784128
375.500000 55.087221
375.500000 55.391150
375.500000 55.695915
375.500000 56.001516
375.500000 56.307953
375.500000 56.615227
375.500000 56.923336
375.500000 57.232282
375.500000 57.542064
375.500000 57.852682
375.500000 58.164136
375.500000 58.476426
375.500000 58.789552
375.500000 59.103514
375.500000 59.418313
375.500000 59.733947
375.500000 60.050418
375.500000 60.367725
375.500000 60.685868
375.500000 61.004847
375.500000 61.324662
375.500000 61.645313
375.500000 61.966801
375.500000 62.289124
375.500000 62.612284
375.500000 62.936279
375.500000 63.261111
375.500000 63.586779
375.500000 63.913283
375.500000 64.240624
375.500000 64.568800
375.500000 64.897812
375.500000 65.227661
375.500000 65.558346
375.500000 65.889867
375.500000 66.222223
375.500000 66.555417
375.500000 66.889446
375.500000 67.224311
375.500000 67.560012
375.500000 67.896550
375.500000 68.233924
375.500000 68.572133
375.500000 68.911179
375.500000 69.251061
375.500000 69.591779
375.500000 69.933334
375.500000 70.275724
375.500000 70.618950
375.500000 70.963013
375.500000 71.307912
375.500000 71.653646
375.500000 72.000217
375.500000 72.347624
375.500000 72.695868
375.500000 73.044947
375.500000 73.394862
375.500000 73.745614
375.500000 74.097202
375.500000 74.449625
375.500000 74.802885
375.500000 75.156981
375.500000 75.511913
375.500000 75.867682
375.500000 76.224286
375.500000 76.581726
375.500000 76.940003
375.500000 77.299116
375.500000 77.659064
375.500000 78.019849
375.500000 78.381471
375.500000 78.743928
375.500000 79.107221
375.500000 79.471350
375.500000 79.836316
375.500000 80.202118
375.500000 80.568755
375.500000 80.936229
375.500000 81.304539
375.500000 81.673685
375.500000 82.043668
375.500000 82.414486
375.500000 82.786141
375.500000 83.158631
375.500000 83.531958
375.500000 83.906121
375.500000 84.281120
375.500000 84.656955
375.500000 85.033626
375.500000 85.411133
375.500000 85.789477
375.500000 86.168656
375.500000 86.548672
375.500000 86.929524
375.500000 87.311212
375.500000 87.693736
375.500000 88.077096
375.500000 88.461292
375.500000 88.846324
375.500000 89.232193
375.500000 89.618897
375.500000 90.006438
375.500000 90.394815
375.500000 90.784028
375.500000 91.174077
375.500000 91.564962
375.500000 91.956684
375.500000 92.349241
375.500000 92.742634
375.500000 93.136864
375.500000 93.531930
375.500000 93.927832
375.500000 94.324570
375.500000 94.722144
375.500000 95.120554
375.500000 95.519801
375.500000 95.919883
375.500000 96.320802
375.500000 96.722557
375.500000 97.125147
375.500000 97.528574
375.500000 97.932837
375.500000 98.337937
375.500000 98.743872
375.500000 99.150643
375.500000 99.558251
375.500000 99.966695
375.500000 100.375974
375.500000 100.786090
375.500000 101.197042
375.500000 101.608831
375.500000 102.021455
375.500000 102.434915
375.500000 102.849212
375.500000 103.264344
375.500000 103.680313
375.500000 104.097118
375.500000 104.514759
375.500000 104.933236
375.500000 105.352549
375.500000 105.772699
375.500000 106.193684
375.500000 106.615506
375.500000 107.038163
375.500000 107.461657
375.500000 107.885987
375.500000 108.311153
375.500000 108.737155
375.500000 109.163993
375.500000 109.591668
375.500000 110.020178
375.500000 110.449525
375.500000 110.879708
375.500000 111.310727
375.500000 111.742582
375.500000 112.175273
375.500000 112.608800
375.500000 113.043163
375.500000 113.478363
375.500000 113.914398
375.500000 114.351270
375.500000 114.788978
375.500000 115.227522
375.500000 115.666902
375.500000 116.107118
375.500000 116.548170
375.500000 116.990059
375.500000 117.432783
375.500000 117.876344
375.500000 118.320740
375.500000 118.765973
375.500000 119.212042
375.500000 119.658947
375.500000 120.106689
375.500000 120.555266
375.500000 121.004679
375.500000 121.454929
375.500000 121.906015
375.500000 122.357937
375.500000 122.810695
375.500000 123.264289
375.500000 123.718719
375.500000 124.173985
375.500000 124.630087
375.500000 125.087026
375.500000 125.544801
375.500000 126.003411
375.500000 126.462858
375.500000 126.923141
375.500000 127.384260
375.500000 127.846216
375.500000 128.309007
375.500000 128.772634
375.500000 129.237098
375.500000 129.702398
375.500000 130.168534
375.500000 130.635505
375.500000 131.103314
375.500000 131.571958
375.500000 132.041438
375.500000 132.511754
375.500000 132.982907
375.500000 133.454896
375.500000 133.927720
375.500000 134.401381
375.500000 134.875878
375.500000 135.351211
375.500000 135.827381
375.500000 136.304386
375.500000 136.782227
375.500000 137.260905
375.500000 137.740419
375.500000 138.220769
375.500000 138.701955
375.500000 139.183977
375.500000 139.666835
375.500000 140.150529
375.500000 140.635060
375.500000 141.120426
375.500000 141.606629
375.500000 142.093668
375.500000 142.581542
375.500000 143.070253
375.500000 143.559801
375.500000 144.050184
375.500000 144.541403
375.500000 145.033459
375.500000 145.526350
375.500000 146.020078
375.500000 146.514642
375.500000 147.010042
375.500000 147.506278
375.500000 148.003350
375.500000 148.501258
375.500000 149.000003
375.500000 149.499583
375.500000 150.000000
</POINTS>
</NEKTAR>

