<?xml version="1.0" encoding="utf-8" ?>
<NEKTAR>
<POINTS DIM="2" FIELDS="">
195.500000 0.000000
195.500000 0.000418
195.500000 0.001672
195.500000 0.003763
195.500000 0.006689
195.500000 0.010451
195.500000 0.015050
195.500000 0.020485
195.500000 0.026756
195.500000 0.033863
195.500000 0.041806
195.500000 0.050585
195.500000 0.060201
195.500000 0.070652
195.500000 0.081940
195.500000 0.094063
195.500000 0.107023
195.500000 0.120819
195.500000 0.135451
195.500000 0.150919
195.500000 0.167224
195.500000 0.184364
195.500000 0.202341
195.500000 0.221153
195.500000 0.240802
195.500000 0.261287
195.500000 0.282608
195.500000 0.304765
195.500000 0.327758
195.500000 0.351588
195.500000 0.376253
195.500000 0.401755
195.500000 0.428092
195.500000 0.455266
195.500000 0.483276
195.500000 0.512122
195.500000 0.541805
195.500000 0.572323
195.500000 0.603677
195.500000 0.635868
195.500000 0.668894
195.500000 0.702757
195.500000 0.737456
195.500000 0.772991
195.500000 0.809362
195.500000 0.846570
195.500000 0.884613
195.500000 0.923492
195.500000 0.963208
195.500000 1.003760
195.500000 1.045148
195.500000 1.087372
195.500000 1.130432
195.500000 1.174328
195.500000 1.219060
195.500000 1.264629
195.500000 1.311033
195.500000 1.358274
195.500000 1.406351
195.500000 1.455264
195.500000 1.505013
195.500000 1.555598
195.500000 1.607019
195.500000 1.659276
195.500000 1.712370
195.500000 1.766299
195.500000 1.821065
195.500000 1.876667
195.500000 1.933105
195.500000 1.990379
195.500000 2.048489
195.500000 2.107436
195.500000 2.167218
195.500000 2.227837
195.500000 2.289291
195.500000 2.351582
195.500000 2.414709
195.500000 2.478672
195.500000 2.543471
195.500000 2.609106
195.500000 2.675578
195.500000 2.742885
195.500000 2.811029
195.500000 2.880009
195.500000 2.949825
195.500000 3.020477
195.500000 3.091965
195.500000 3.164289
195.500000 3.237449
195.500000 3.311446
195.500000 3.386278
195.500000 3.461947
195.500000 3.538452
195.500000 3.615793
195.500000 3.693970
195.500000 3.772983
195.500000 3.852832
195.500000 3.933517
195.500000 4.015039
195.500000 4.097397
195.500000 4.180590
195.500000 4.264620
195.500000 4.349486
195.500000 4.435188
195.500000 4.521727
195.500000 4.609101
195.500000 4.697311
195.500000 4.786358
195.500000 4.876241
195.500000 4.966959
195.500000 5.058514
195.500000 5.150905
195.500000 5.244133
195.500000 5.338196
195.500000 5.433095
195.500000 5.528831
195.500000 5.625402
195.500000 5.722810
195.500000 5.821054
195.500000 5.920134
195.500000 6.020050
195.500000 6.120802
195.500000 6.222391
195.500000 6.324815
195.500000 6.428076
195.500000 6.532172
195.500000 6.637105
195.500000 6.742874
195.500000 6.849479
195.500000 6.956920
195.500000 7.065198
195.500000 7.174311
195.500000 7.284261
195.500000 7.395046
195.500000 7.506668
195.500000 7.619126
195.500000 7.732420
195.500000 7.846550
195.500000 7.961516
195.500000 8.077319
195.500000 8.193957
195.500000 8.311432
195.500000 8.429742
195.500000 8.548889
195.500000 8.668872
195.500000 8.789691
195.500000 8.911346
195.500000 9.033838
195.500000 9.157165
195.500000 9.281329
195.500000 9.406328
195.500000 9.532164
195.500000 9.658836
195.500000 9.786344
195.500000 9.914688
195.500000 10.043868
195.500000 10.173885
195.500000 10.304737
195.500000 10.436426
195.500000 10.568950
195.500000 10.702311
195.500000 10.836508
195.500000 10.971541
195.500000 11.107411
195.500000 11.244116
195.500000 11.381657
195.500000 11.520035
195.500000 11.659248
195.500000 11.799298
195.500000 11.940184
195.500000 12.081906
195.500000 12.224464
195.500000 12.367859
195.500000 12.512089
195.500000 12.657155
195.500000 12.803058
195.500000 12.949797
195.500000 13.097372
195.500000 13.245782
195.500000 13.395030
195.500000 13.545113
195.500000 13.696032
195.500000 13.847787
195.500000 14.000379
195.500000 14.153807
195.500000 14.308070
195.500000 14.463170
195.500000 14.619106
195.500000 14.775879
195.500000 14.933487
195.500000 15.091931
195.500000 15.251212
195.500000 15.411328
195.500000 15.572281
195.500000 15.734070
195.500000 15.896695
195.500000 16.060156
195.500000 16.224453
195.500000 16.389586
195.500000 16.555556
195.500000 16.722361
195.500000 16.890003
195.500000 17.058481
195.500000 17.227795
195.500000 17.397945
195.500000 17.568931
195.500000 17.740753
195.500000 17.913412
195.500000 18.086906
195.500000 18.261237
195.500000 18.436403
195.500000 18.612406
195.500000 18.789245
195.500000 18.966920
195.500000 19.145432
195.500000 19.324779
195.500000 19.504962
195.500000 19.685982
195.500000 19.867838
195.500000 20.050529
195.500000 20.234057
195.500000 20.418421
195.500000 20.603622
195.500000 20.789658
195.500000 20.976530
195.500000 21.164239
195.500000 21.352783
195.500000 21.542164
195.500000 21.732381
195.500000 21.923434
195.500000 22.115323
195.500000 22.308048
195.500000 22.501610
195.500000 22.696007
195.500000 22.891241
195.500000 23.087310
195.500000 23.284216
195.500000 23.481958
195.500000 23.680536
195.500000 23.879950
195.500000 24.080200
195.500000 24.281287
195.500000 24.483209
195.500000 24.685968
195.500000 24.889563
195.500000 25.093994
195.500000 25.299261
195.500000 25.505364
195.500000 25.712303
195.500000 25.920078
195.500000 26.128690
195.500000 26.338137
195.500000 26.548421
195.500000 26.759541
195.500000 26.971497
195.500000 27.184289
195.500000 27.397917
195.500000 27.612381
195.500000 27.827682
195.500000 28.043818
195.500000 28.260791
195.500000 28.478600
195.500000 28.697244
195.500000 28.916725
195.500000 29.137043
195.500000 29.358196
195.500000 29.580185
195.500000 29.803011
195.500000 30.026672
195.500000 30.251170
195.500000 30.476504
195.500000 30.702674
195.500000 30.929680
195.500000 31.157522
195.500000 31.386200
195.500000 31.615715
195.500000 31.846065
195.500000 32.077252
195.500000 32.309275
195.500000 32.542133
195.500000 32.775828
195.500000 33.010360
195.500000 33.245727
195.500000 33.481930
195.500000 33.718970
195.500000 33.956845
195.500000 34.195557
195.500000 34.435105
195.500000 34.675489
195.500000 34.916709
195.500000 35.158765
195.500000 35.401657
195.500000 35.645386
195.500000 35.889950
195.500000 36.135351
195.500000 36.381588
195.500000 36.628660
195.500000 36.876569
195.500000 37.125315
195.500000 37.374896
195.500000 37.625313
195.500000 37.876567
195.500000 38.128656
195.500000 38.381582
195.500000 38.635344
195.500000 38.889942
195.500000 39.145376
195.500000 39.401646
195.500000 39.658752
195.500000 39.916695
195.500000 40.175473
195.500000 40.435088
195.500000 40.695539
195.500000 40.956826
195.500000 41.218949
195.500000 41.481908
195.500000 41.745703
195.500000 42.010334
195.500000 42.275802
195.500000 42.542106
195.500000 42.809245
195.500000 43.077221
195.500000 43.346033
195.500000 43.615681
195.500000 43.886165
195.500000 44.157486
195.500000 44.429642
195.500000 44.702635
195.500000 44.976463
195.500000 45.251128
195.500000 45.526629
195.500000 45.802966
195.500000 46.080139
195.500000 46.358148
195.500000 46.636994
195.500000 46.916675
195.500000 47.197193
195.500000 47.478547
195.500000 47.760736
195.500000 48.043762
195.500000 48.327625
195.500000 48.612323
195.500000 48.897857
195.500000 49.184227
195.500000 49.471434
195.500000 49.759477
195.500000 50.048355
195.500000 50.338070
195.500000 50.628621
195.500000 50.920009
195.500000 51.212232
195.500000 51.505291
195.500000 51.799187
195.500000 52.093918
195.500000 52.389486
195.500000 52.685890
195.500000 52.983130
195.500000 53.281206
195.500000 53.580118
195.500000 53.879867
195.500000 54.180451
195.500000 54.481872
195.500000 54.784128
195.500000 55.087221
195.500000 55.391150
195.500000 55.695915
195.500000 56.001516
195.500000 56.307953
195.500000 56.615227
195.500000 56.923336
195.500000 57.232282
195.500000 57.542064
195.500000 57.852682
195.500000 58.164136
195.500000 58.476426
195.500000 58.789552
195.500000 59.103514
195.500000 59.418313
195.500000 59.733947
195.500000 60.050418
195.500000 60.367725
195.500000 60.685868
195.500000 61.004847
195.500000 61.324662
195.500000 61.645313
195.500000 61.966801
195.500000 62.289124
195.500000 62.612284
195.500000 62.936279
195.500000 63.261111
195.500000 63.586779
195.500000 63.913283
195.500000 64.240624
195.500000 64.568800
195.500000 64.897812
195.500000 65.227661
195.500000 65.558346
195.500000 65.889867
195.500000 66.222223
195.500000 66.555417
195.500000 66.889446
195.500000 67.224311
195.500000 67.560012
195.500000 67.896550
195.500000 68.233924
195.500000 68.572133
195.500000 68.911179
195.500000 69.251061
195.500000 69.591779
195.500000 69.933334
195.500000 70.275724
195.500000 70.618950
195.500000 70.963013
195.500000 71.307912
195.500000 71.653646
195.500000 72.000217
195.500000 72.347624
195.500000 72.695868
195.500000 73.044947
195.500000 73.394862
195.500000 73.745614
195.500000 74.097202
195.500000 74.449625
195.500000 74.802885
195.500000 75.156981
195.500000 75.511913
195.500000 75.867682
195.500000 76.224286
195.500000 76.581726
195.500000 76.940003
195.500000 77.299116
195.500000 77.659064
195.500000 78.019849
195.500000 78.381471
195.500000 78.743928
195.500000 79.107221
195.500000 79.471350
195.500000 79.836316
195.500000 80.202118
195.500000 80.568755
195.500000 80.936229
195.500000 81.304539
195.500000 81.673685
195.500000 82.043668
195.500000 82.414486
195.500000 82.786141
195.500000 83.158631
195.500000 83.531958
195.500000 83.906121
195.500000 84.281120
195.500000 84.656955
195.500000 85.033626
195.500000 85.411133
195.500000 85.789477
195.500000 86.168656
195.500000 86.548672
195.500000 86.929524
195.500000 87.311212
195.500000 87.693736
195.500000 88.077096
195.500000 88.461292
195.500000 88.846324
195.500000 89.232193
195.500000 89.618897
195.500000 90.006438
195.500000 90.394815
195.500000 90.784028
195.500000 91.174077
195.500000 91.564962
195.500000 91.956684
195.500000 92.349241
195.500000 92.742634
195.500000 93.136864
195.500000 93.531930
195.500000 93.927832
195.500000 94.324570
195.500000 94.722144
195.500000 95.120554
195.500000 95.519801
195.500000 95.919883
195.500000 96.320802
195.500000 96.722557
195.500000 97.125147
195.500000 97.528574
195.500000 97.932837
195.500000 98.337937
195.500000 98.743872
195.500000 99.150643
195.500000 99.558251
195.500000 99.966695
195.500000 100.375974
195.500000 100.786090
195.500000 101.197042
195.500000 101.608831
195.500000 102.021455
195.500000 102.434915
195.500000 102.849212
195.500000 103.264344
195.500000 103.680313
195.500000 104.097118
195.500000 104.514759
195.500000 104.933236
195.500000 105.352549
195.500000 105.772699
195.500000 106.193684
195.500000 106.615506
195.500000 107.038163
195.500000 107.461657
195.500000 107.885987
195.500000 108.311153
195.500000 108.737155
195.500000 109.163993
195.500000 109.591668
195.500000 110.020178
195.500000 110.449525
195.500000 110.879708
195.500000 111.310727
195.500000 111.742582
195.500000 112.175273
195.500000 112.608800
195.500000 113.043163
195.500000 113.478363
195.500000 113.914398
195.500000 114.351270
195.500000 114.788978
195.500000 115.227522
195.500000 115.666902
195.500000 116.107118
195.500000 116.548170
195.500000 116.990059
195.500000 117.432783
195.500000 117.876344
195.500000 118.320740
195.500000 118.765973
195.500000 119.212042
195.500000 119.658947
195.500000 120.106689
195.500000 120.555266
195.500000 121.004679
195.500000 121.454929
195.500000 121.906015
195.500000 122.357937
195.500000 122.810695
195.500000 123.264289
195.500000 123.718719
195.500000 124.173985
195.500000 124.630087
195.500000 125.087026
195.500000 125.544801
195.500000 126.003411
195.500000 126.462858
195.500000 126.923141
195.500000 127.384260
195.500000 127.846216
195.500000 128.309007
195.500000 128.772634
195.500000 129.237098
195.500000 129.702398
195.500000 130.168534
195.500000 130.635505
195.500000 131.103314
195.500000 131.571958
195.500000 132.041438
195.500000 132.511754
195.500000 132.982907
195.500000 133.454896
195.500000 133.927720
195.500000 134.401381
195.500000 134.875878
195.500000 135.351211
195.500000 135.827381
195.500000 136.304386
195.500000 136.782227
195.500000 137.260905
195.500000 137.740419
195.500000 138.220769
195.500000 138.701955
195.500000 139.183977
195.500000 139.666835
195.500000 140.150529
195.500000 140.635060
195.500000 141.120426
195.500000 141.606629
195.500000 142.093668
195.500000 142.581542
195.500000 143.070253
195.500000 143.559801
195.500000 144.050184
195.500000 144.541403
195.500000 145.033459
195.500000 145.526350
195.500000 146.020078
195.500000 146.514642
195.500000 147.010042
195.500000 147.506278
195.500000 148.003350
195.500000 148.501258
195.500000 149.000003
195.500000 149.499583
195.500000 150.000000
</POINTS>
</NEKTAR>

