<?xml version="1.0" encoding="utf-8" ?>
<NEKTAR>
<POINTS DIM="2" FIELDS="">
135.500000 0.000000
135.500000 0.000418
135.500000 0.001672
135.500000 0.003763
135.500000 0.006689
135.500000 0.010451
135.500000 0.015050
135.500000 0.020485
135.500000 0.026756
135.500000 0.033863
135.500000 0.041806
135.500000 0.050585
135.500000 0.060201
135.500000 0.070652
135.500000 0.081940
135.500000 0.094063
135.500000 0.107023
135.500000 0.120819
135.500000 0.135451
135.500000 0.150919
135.500000 0.167224
135.500000 0.184364
135.500000 0.202341
135.500000 0.221153
135.500000 0.240802
135.500000 0.261287
135.500000 0.282608
135.500000 0.304765
135.500000 0.327758
135.500000 0.351588
135.500000 0.376253
135.500000 0.401755
135.500000 0.428092
135.500000 0.455266
135.500000 0.483276
135.500000 0.512122
135.500000 0.541805
135.500000 0.572323
135.500000 0.603677
135.500000 0.635868
135.500000 0.668894
135.500000 0.702757
135.500000 0.737456
135.500000 0.772991
135.500000 0.809362
135.500000 0.846570
135.500000 0.884613
135.500000 0.923492
135.500000 0.963208
135.500000 1.003760
135.500000 1.045148
135.500000 1.087372
135.500000 1.130432
135.500000 1.174328
135.500000 1.219060
135.500000 1.264629
135.500000 1.311033
135.500000 1.358274
135.500000 1.406351
135.500000 1.455264
135.500000 1.505013
135.500000 1.555598
135.500000 1.607019
135.500000 1.659276
135.500000 1.712370
135.500000 1.766299
135.500000 1.821065
135.500000 1.876667
135.500000 1.933105
135.500000 1.990379
135.500000 2.048489
135.500000 2.107436
135.500000 2.167218
135.500000 2.227837
135.500000 2.289291
135.500000 2.351582
135.500000 2.414709
135.500000 2.478672
135.500000 2.543471
135.500000 2.609106
135.500000 2.675578
135.500000 2.742885
135.500000 2.811029
135.500000 2.880009
135.500000 2.949825
135.500000 3.020477
135.500000 3.091965
135.500000 3.164289
135.500000 3.237449
135.500000 3.311446
135.500000 3.386278
135.500000 3.461947
135.500000 3.538452
135.500000 3.615793
135.500000 3.693970
135.500000 3.772983
135.500000 3.852832
135.500000 3.933517
135.500000 4.015039
135.500000 4.097397
135.500000 4.180590
135.500000 4.264620
135.500000 4.349486
135.500000 4.435188
135.500000 4.521727
135.500000 4.609101
135.500000 4.697311
135.500000 4.786358
135.500000 4.876241
135.500000 4.966959
135.500000 5.058514
135.500000 5.150905
135.500000 5.244133
135.500000 5.338196
135.500000 5.433095
135.500000 5.528831
135.500000 5.625402
135.500000 5.722810
135.500000 5.821054
135.500000 5.920134
135.500000 6.020050
135.500000 6.120802
135.500000 6.222391
135.500000 6.324815
135.500000 6.428076
135.500000 6.532172
135.500000 6.637105
135.500000 6.742874
135.500000 6.849479
135.500000 6.956920
135.500000 7.065198
135.500000 7.174311
135.500000 7.284261
135.500000 7.395046
135.500000 7.506668
135.500000 7.619126
135.500000 7.732420
135.500000 7.846550
135.500000 7.961516
135.500000 8.077319
135.500000 8.193957
135.500000 8.311432
135.500000 8.429742
135.500000 8.548889
135.500000 8.668872
135.500000 8.789691
135.500000 8.911346
135.500000 9.033838
135.500000 9.157165
135.500000 9.281329
135.500000 9.406328
135.500000 9.532164
135.500000 9.658836
135.500000 9.786344
135.500000 9.914688
135.500000 10.043868
135.500000 10.173885
135.500000 10.304737
135.500000 10.436426
135.500000 10.568950
135.500000 10.702311
135.500000 10.836508
135.500000 10.971541
135.500000 11.107411
135.500000 11.244116
135.500000 11.381657
135.500000 11.520035
135.500000 11.659248
135.500000 11.799298
135.500000 11.940184
135.500000 12.081906
135.500000 12.224464
135.500000 12.367859
135.500000 12.512089
135.500000 12.657155
135.500000 12.803058
135.500000 12.949797
135.500000 13.097372
135.500000 13.245782
135.500000 13.395030
135.500000 13.545113
135.500000 13.696032
135.500000 13.847787
135.500000 14.000379
135.500000 14.153807
135.500000 14.308070
135.500000 14.463170
135.500000 14.619106
135.500000 14.775879
135.500000 14.933487
135.500000 15.091931
135.500000 15.251212
135.500000 15.411328
135.500000 15.572281
135.500000 15.734070
135.500000 15.896695
135.500000 16.060156
135.500000 16.224453
135.500000 16.389586
135.500000 16.555556
135.500000 16.722361
135.500000 16.890003
135.500000 17.058481
135.500000 17.227795
135.500000 17.397945
135.500000 17.568931
135.500000 17.740753
135.500000 17.913412
135.500000 18.086906
135.500000 18.261237
135.500000 18.436403
135.500000 18.612406
135.500000 18.789245
135.500000 18.966920
135.500000 19.145432
135.500000 19.324779
135.500000 19.504962
135.500000 19.685982
135.500000 19.867838
135.500000 20.050529
135.500000 20.234057
135.500000 20.418421
135.500000 20.603622
135.500000 20.789658
135.500000 20.976530
135.500000 21.164239
135.500000 21.352783
135.500000 21.542164
135.500000 21.732381
135.500000 21.923434
135.500000 22.115323
135.500000 22.308048
135.500000 22.501610
135.500000 22.696007
135.500000 22.891241
135.500000 23.087310
135.500000 23.284216
135.500000 23.481958
135.500000 23.680536
135.500000 23.879950
135.500000 24.080200
135.500000 24.281287
135.500000 24.483209
135.500000 24.685968
135.500000 24.889563
135.500000 25.093994
135.500000 25.299261
135.500000 25.505364
135.500000 25.712303
135.500000 25.920078
135.500000 26.128690
135.500000 26.338137
135.500000 26.548421
135.500000 26.759541
135.500000 26.971497
135.500000 27.184289
135.500000 27.397917
135.500000 27.612381
135.500000 27.827682
135.500000 28.043818
135.500000 28.260791
135.500000 28.478600
135.500000 28.697244
135.500000 28.916725
135.500000 29.137043
135.500000 29.358196
135.500000 29.580185
135.500000 29.803011
135.500000 30.026672
135.500000 30.251170
135.500000 30.476504
135.500000 30.702674
135.500000 30.929680
135.500000 31.157522
135.500000 31.386200
135.500000 31.615715
135.500000 31.846065
135.500000 32.077252
135.500000 32.309275
135.500000 32.542133
135.500000 32.775828
135.500000 33.010360
135.500000 33.245727
135.500000 33.481930
135.500000 33.718970
135.500000 33.956845
135.500000 34.195557
135.500000 34.435105
135.500000 34.675489
135.500000 34.916709
135.500000 35.158765
135.500000 35.401657
135.500000 35.645386
135.500000 35.889950
135.500000 36.135351
135.500000 36.381588
135.500000 36.628660
135.500000 36.876569
135.500000 37.125315
135.500000 37.374896
135.500000 37.625313
135.500000 37.876567
135.500000 38.128656
135.500000 38.381582
135.500000 38.635344
135.500000 38.889942
135.500000 39.145376
135.500000 39.401646
135.500000 39.658752
135.500000 39.916695
135.500000 40.175473
135.500000 40.435088
135.500000 40.695539
135.500000 40.956826
135.500000 41.218949
135.500000 41.481908
135.500000 41.745703
135.500000 42.010334
135.500000 42.275802
135.500000 42.542106
135.500000 42.809245
135.500000 43.077221
135.500000 43.346033
135.500000 43.615681
135.500000 43.886165
135.500000 44.157486
135.500000 44.429642
135.500000 44.702635
135.500000 44.976463
135.500000 45.251128
135.500000 45.526629
135.500000 45.802966
135.500000 46.080139
135.500000 46.358148
135.500000 46.636994
135.500000 46.916675
135.500000 47.197193
135.500000 47.478547
135.500000 47.760736
135.500000 48.043762
135.500000 48.327625
135.500000 48.612323
135.500000 48.897857
135.500000 49.184227
135.500000 49.471434
135.500000 49.759477
135.500000 50.048355
135.500000 50.338070
135.500000 50.628621
135.500000 50.920009
135.500000 51.212232
135.500000 51.505291
135.500000 51.799187
135.500000 52.093918
135.500000 52.389486
135.500000 52.685890
135.500000 52.983130
135.500000 53.281206
135.500000 53.580118
135.500000 53.879867
135.500000 54.180451
135.500000 54.481872
135.500000 54.784128
135.500000 55.087221
135.500000 55.391150
135.500000 55.695915
135.500000 56.001516
135.500000 56.307953
135.500000 56.615227
135.500000 56.923336
135.500000 57.232282
135.500000 57.542064
135.500000 57.852682
135.500000 58.164136
135.500000 58.476426
135.500000 58.789552
135.500000 59.103514
135.500000 59.418313
135.500000 59.733947
135.500000 60.050418
135.500000 60.367725
135.500000 60.685868
135.500000 61.004847
135.500000 61.324662
135.500000 61.645313
135.500000 61.966801
135.500000 62.289124
135.500000 62.612284
135.500000 62.936279
135.500000 63.261111
135.500000 63.586779
135.500000 63.913283
135.500000 64.240624
135.500000 64.568800
135.500000 64.897812
135.500000 65.227661
135.500000 65.558346
135.500000 65.889867
135.500000 66.222223
135.500000 66.555417
135.500000 66.889446
135.500000 67.224311
135.500000 67.560012
135.500000 67.896550
135.500000 68.233924
135.500000 68.572133
135.500000 68.911179
135.500000 69.251061
135.500000 69.591779
135.500000 69.933334
135.500000 70.275724
135.500000 70.618950
135.500000 70.963013
135.500000 71.307912
135.500000 71.653646
135.500000 72.000217
135.500000 72.347624
135.500000 72.695868
135.500000 73.044947
135.500000 73.394862
135.500000 73.745614
135.500000 74.097202
135.500000 74.449625
135.500000 74.802885
135.500000 75.156981
135.500000 75.511913
135.500000 75.867682
135.500000 76.224286
135.500000 76.581726
135.500000 76.940003
135.500000 77.299116
135.500000 77.659064
135.500000 78.019849
135.500000 78.381471
135.500000 78.743928
135.500000 79.107221
135.500000 79.471350
135.500000 79.836316
135.500000 80.202118
135.500000 80.568755
135.500000 80.936229
135.500000 81.304539
135.500000 81.673685
135.500000 82.043668
135.500000 82.414486
135.500000 82.786141
135.500000 83.158631
135.500000 83.531958
135.500000 83.906121
135.500000 84.281120
135.500000 84.656955
135.500000 85.033626
135.500000 85.411133
135.500000 85.789477
135.500000 86.168656
135.500000 86.548672
135.500000 86.929524
135.500000 87.311212
135.500000 87.693736
135.500000 88.077096
135.500000 88.461292
135.500000 88.846324
135.500000 89.232193
135.500000 89.618897
135.500000 90.006438
135.500000 90.394815
135.500000 90.784028
135.500000 91.174077
135.500000 91.564962
135.500000 91.956684
135.500000 92.349241
135.500000 92.742634
135.500000 93.136864
135.500000 93.531930
135.500000 93.927832
135.500000 94.324570
135.500000 94.722144
135.500000 95.120554
135.500000 95.519801
135.500000 95.919883
135.500000 96.320802
135.500000 96.722557
135.500000 97.125147
135.500000 97.528574
135.500000 97.932837
135.500000 98.337937
135.500000 98.743872
135.500000 99.150643
135.500000 99.558251
135.500000 99.966695
135.500000 100.375974
135.500000 100.786090
135.500000 101.197042
135.500000 101.608831
135.500000 102.021455
135.500000 102.434915
135.500000 102.849212
135.500000 103.264344
135.500000 103.680313
135.500000 104.097118
135.500000 104.514759
135.500000 104.933236
135.500000 105.352549
135.500000 105.772699
135.500000 106.193684
135.500000 106.615506
135.500000 107.038163
135.500000 107.461657
135.500000 107.885987
135.500000 108.311153
135.500000 108.737155
135.500000 109.163993
135.500000 109.591668
135.500000 110.020178
135.500000 110.449525
135.500000 110.879708
135.500000 111.310727
135.500000 111.742582
135.500000 112.175273
135.500000 112.608800
135.500000 113.043163
135.500000 113.478363
135.500000 113.914398
135.500000 114.351270
135.500000 114.788978
135.500000 115.227522
135.500000 115.666902
135.500000 116.107118
135.500000 116.548170
135.500000 116.990059
135.500000 117.432783
135.500000 117.876344
135.500000 118.320740
135.500000 118.765973
135.500000 119.212042
135.500000 119.658947
135.500000 120.106689
135.500000 120.555266
135.500000 121.004679
135.500000 121.454929
135.500000 121.906015
135.500000 122.357937
135.500000 122.810695
135.500000 123.264289
135.500000 123.718719
135.500000 124.173985
135.500000 124.630087
135.500000 125.087026
135.500000 125.544801
135.500000 126.003411
135.500000 126.462858
135.500000 126.923141
135.500000 127.384260
135.500000 127.846216
135.500000 128.309007
135.500000 128.772634
135.500000 129.237098
135.500000 129.702398
135.500000 130.168534
135.500000 130.635505
135.500000 131.103314
135.500000 131.571958
135.500000 132.041438
135.500000 132.511754
135.500000 132.982907
135.500000 133.454896
135.500000 133.927720
135.500000 134.401381
135.500000 134.875878
135.500000 135.351211
135.500000 135.827381
135.500000 136.304386
135.500000 136.782227
135.500000 137.260905
135.500000 137.740419
135.500000 138.220769
135.500000 138.701955
135.500000 139.183977
135.500000 139.666835
135.500000 140.150529
135.500000 140.635060
135.500000 141.120426
135.500000 141.606629
135.500000 142.093668
135.500000 142.581542
135.500000 143.070253
135.500000 143.559801
135.500000 144.050184
135.500000 144.541403
135.500000 145.033459
135.500000 145.526350
135.500000 146.020078
135.500000 146.514642
135.500000 147.010042
135.500000 147.506278
135.500000 148.003350
135.500000 148.501258
135.500000 149.000003
135.500000 149.499583
135.500000 150.000000
</POINTS>
</NEKTAR>

