<?xml version="1.0" encoding="utf-8" ?>
<NEKTAR>
<POINTS DIM="2" FIELDS="">
255.500000 0.000000
255.500000 0.000418
255.500000 0.001672
255.500000 0.003763
255.500000 0.006689
255.500000 0.010451
255.500000 0.015050
255.500000 0.020485
255.500000 0.026756
255.500000 0.033863
255.500000 0.041806
255.500000 0.050585
255.500000 0.060201
255.500000 0.070652
255.500000 0.081940
255.500000 0.094063
255.500000 0.107023
255.500000 0.120819
255.500000 0.135451
255.500000 0.150919
255.500000 0.167224
255.500000 0.184364
255.500000 0.202341
255.500000 0.221153
255.500000 0.240802
255.500000 0.261287
255.500000 0.282608
255.500000 0.304765
255.500000 0.327758
255.500000 0.351588
255.500000 0.376253
255.500000 0.401755
255.500000 0.428092
255.500000 0.455266
255.500000 0.483276
255.500000 0.512122
255.500000 0.541805
255.500000 0.572323
255.500000 0.603677
255.500000 0.635868
255.500000 0.668894
255.500000 0.702757
255.500000 0.737456
255.500000 0.772991
255.500000 0.809362
255.500000 0.846570
255.500000 0.884613
255.500000 0.923492
255.500000 0.963208
255.500000 1.003760
255.500000 1.045148
255.500000 1.087372
255.500000 1.130432
255.500000 1.174328
255.500000 1.219060
255.500000 1.264629
255.500000 1.311033
255.500000 1.358274
255.500000 1.406351
255.500000 1.455264
255.500000 1.505013
255.500000 1.555598
255.500000 1.607019
255.500000 1.659276
255.500000 1.712370
255.500000 1.766299
255.500000 1.821065
255.500000 1.876667
255.500000 1.933105
255.500000 1.990379
255.500000 2.048489
255.500000 2.107436
255.500000 2.167218
255.500000 2.227837
255.500000 2.289291
255.500000 2.351582
255.500000 2.414709
255.500000 2.478672
255.500000 2.543471
255.500000 2.609106
255.500000 2.675578
255.500000 2.742885
255.500000 2.811029
255.500000 2.880009
255.500000 2.949825
255.500000 3.020477
255.500000 3.091965
255.500000 3.164289
255.500000 3.237449
255.500000 3.311446
255.500000 3.386278
255.500000 3.461947
255.500000 3.538452
255.500000 3.615793
255.500000 3.693970
255.500000 3.772983
255.500000 3.852832
255.500000 3.933517
255.500000 4.015039
255.500000 4.097397
255.500000 4.180590
255.500000 4.264620
255.500000 4.349486
255.500000 4.435188
255.500000 4.521727
255.500000 4.609101
255.500000 4.697311
255.500000 4.786358
255.500000 4.876241
255.500000 4.966959
255.500000 5.058514
255.500000 5.150905
255.500000 5.244133
255.500000 5.338196
255.500000 5.433095
255.500000 5.528831
255.500000 5.625402
255.500000 5.722810
255.500000 5.821054
255.500000 5.920134
255.500000 6.020050
255.500000 6.120802
255.500000 6.222391
255.500000 6.324815
255.500000 6.428076
255.500000 6.532172
255.500000 6.637105
255.500000 6.742874
255.500000 6.849479
255.500000 6.956920
255.500000 7.065198
255.500000 7.174311
255.500000 7.284261
255.500000 7.395046
255.500000 7.506668
255.500000 7.619126
255.500000 7.732420
255.500000 7.846550
255.500000 7.961516
255.500000 8.077319
255.500000 8.193957
255.500000 8.311432
255.500000 8.429742
255.500000 8.548889
255.500000 8.668872
255.500000 8.789691
255.500000 8.911346
255.500000 9.033838
255.500000 9.157165
255.500000 9.281329
255.500000 9.406328
255.500000 9.532164
255.500000 9.658836
255.500000 9.786344
255.500000 9.914688
255.500000 10.043868
255.500000 10.173885
255.500000 10.304737
255.500000 10.436426
255.500000 10.568950
255.500000 10.702311
255.500000 10.836508
255.500000 10.971541
255.500000 11.107411
255.500000 11.244116
255.500000 11.381657
255.500000 11.520035
255.500000 11.659248
255.500000 11.799298
255.500000 11.940184
255.500000 12.081906
255.500000 12.224464
255.500000 12.367859
255.500000 12.512089
255.500000 12.657155
255.500000 12.803058
255.500000 12.949797
255.500000 13.097372
255.500000 13.245782
255.500000 13.395030
255.500000 13.545113
255.500000 13.696032
255.500000 13.847787
255.500000 14.000379
255.500000 14.153807
255.500000 14.308070
255.500000 14.463170
255.500000 14.619106
255.500000 14.775879
255.500000 14.933487
255.500000 15.091931
255.500000 15.251212
255.500000 15.411328
255.500000 15.572281
255.500000 15.734070
255.500000 15.896695
255.500000 16.060156
255.500000 16.224453
255.500000 16.389586
255.500000 16.555556
255.500000 16.722361
255.500000 16.890003
255.500000 17.058481
255.500000 17.227795
255.500000 17.397945
255.500000 17.568931
255.500000 17.740753
255.500000 17.913412
255.500000 18.086906
255.500000 18.261237
255.500000 18.436403
255.500000 18.612406
255.500000 18.789245
255.500000 18.966920
255.500000 19.145432
255.500000 19.324779
255.500000 19.504962
255.500000 19.685982
255.500000 19.867838
255.500000 20.050529
255.500000 20.234057
255.500000 20.418421
255.500000 20.603622
255.500000 20.789658
255.500000 20.976530
255.500000 21.164239
255.500000 21.352783
255.500000 21.542164
255.500000 21.732381
255.500000 21.923434
255.500000 22.115323
255.500000 22.308048
255.500000 22.501610
255.500000 22.696007
255.500000 22.891241
255.500000 23.087310
255.500000 23.284216
255.500000 23.481958
255.500000 23.680536
255.500000 23.879950
255.500000 24.080200
255.500000 24.281287
255.500000 24.483209
255.500000 24.685968
255.500000 24.889563
255.500000 25.093994
255.500000 25.299261
255.500000 25.505364
255.500000 25.712303
255.500000 25.920078
255.500000 26.128690
255.500000 26.338137
255.500000 26.548421
255.500000 26.759541
255.500000 26.971497
255.500000 27.184289
255.500000 27.397917
255.500000 27.612381
255.500000 27.827682
255.500000 28.043818
255.500000 28.260791
255.500000 28.478600
255.500000 28.697244
255.500000 28.916725
255.500000 29.137043
255.500000 29.358196
255.500000 29.580185
255.500000 29.803011
255.500000 30.026672
255.500000 30.251170
255.500000 30.476504
255.500000 30.702674
255.500000 30.929680
255.500000 31.157522
255.500000 31.386200
255.500000 31.615715
255.500000 31.846065
255.500000 32.077252
255.500000 32.309275
255.500000 32.542133
255.500000 32.775828
255.500000 33.010360
255.500000 33.245727
255.500000 33.481930
255.500000 33.718970
255.500000 33.956845
255.500000 34.195557
255.500000 34.435105
255.500000 34.675489
255.500000 34.916709
255.500000 35.158765
255.500000 35.401657
255.500000 35.645386
255.500000 35.889950
255.500000 36.135351
255.500000 36.381588
255.500000 36.628660
255.500000 36.876569
255.500000 37.125315
255.500000 37.374896
255.500000 37.625313
255.500000 37.876567
255.500000 38.128656
255.500000 38.381582
255.500000 38.635344
255.500000 38.889942
255.500000 39.145376
255.500000 39.401646
255.500000 39.658752
255.500000 39.916695
255.500000 40.175473
255.500000 40.435088
255.500000 40.695539
255.500000 40.956826
255.500000 41.218949
255.500000 41.481908
255.500000 41.745703
255.500000 42.010334
255.500000 42.275802
255.500000 42.542106
255.500000 42.809245
255.500000 43.077221
255.500000 43.346033
255.500000 43.615681
255.500000 43.886165
255.500000 44.157486
255.500000 44.429642
255.500000 44.702635
255.500000 44.976463
255.500000 45.251128
255.500000 45.526629
255.500000 45.802966
255.500000 46.080139
255.500000 46.358148
255.500000 46.636994
255.500000 46.916675
255.500000 47.197193
255.500000 47.478547
255.500000 47.760736
255.500000 48.043762
255.500000 48.327625
255.500000 48.612323
255.500000 48.897857
255.500000 49.184227
255.500000 49.471434
255.500000 49.759477
255.500000 50.048355
255.500000 50.338070
255.500000 50.628621
255.500000 50.920009
255.500000 51.212232
255.500000 51.505291
255.500000 51.799187
255.500000 52.093918
255.500000 52.389486
255.500000 52.685890
255.500000 52.983130
255.500000 53.281206
255.500000 53.580118
255.500000 53.879867
255.500000 54.180451
255.500000 54.481872
255.500000 54.784128
255.500000 55.087221
255.500000 55.391150
255.500000 55.695915
255.500000 56.001516
255.500000 56.307953
255.500000 56.615227
255.500000 56.923336
255.500000 57.232282
255.500000 57.542064
255.500000 57.852682
255.500000 58.164136
255.500000 58.476426
255.500000 58.789552
255.500000 59.103514
255.500000 59.418313
255.500000 59.733947
255.500000 60.050418
255.500000 60.367725
255.500000 60.685868
255.500000 61.004847
255.500000 61.324662
255.500000 61.645313
255.500000 61.966801
255.500000 62.289124
255.500000 62.612284
255.500000 62.936279
255.500000 63.261111
255.500000 63.586779
255.500000 63.913283
255.500000 64.240624
255.500000 64.568800
255.500000 64.897812
255.500000 65.227661
255.500000 65.558346
255.500000 65.889867
255.500000 66.222223
255.500000 66.555417
255.500000 66.889446
255.500000 67.224311
255.500000 67.560012
255.500000 67.896550
255.500000 68.233924
255.500000 68.572133
255.500000 68.911179
255.500000 69.251061
255.500000 69.591779
255.500000 69.933334
255.500000 70.275724
255.500000 70.618950
255.500000 70.963013
255.500000 71.307912
255.500000 71.653646
255.500000 72.000217
255.500000 72.347624
255.500000 72.695868
255.500000 73.044947
255.500000 73.394862
255.500000 73.745614
255.500000 74.097202
255.500000 74.449625
255.500000 74.802885
255.500000 75.156981
255.500000 75.511913
255.500000 75.867682
255.500000 76.224286
255.500000 76.581726
255.500000 76.940003
255.500000 77.299116
255.500000 77.659064
255.500000 78.019849
255.500000 78.381471
255.500000 78.743928
255.500000 79.107221
255.500000 79.471350
255.500000 79.836316
255.500000 80.202118
255.500000 80.568755
255.500000 80.936229
255.500000 81.304539
255.500000 81.673685
255.500000 82.043668
255.500000 82.414486
255.500000 82.786141
255.500000 83.158631
255.500000 83.531958
255.500000 83.906121
255.500000 84.281120
255.500000 84.656955
255.500000 85.033626
255.500000 85.411133
255.500000 85.789477
255.500000 86.168656
255.500000 86.548672
255.500000 86.929524
255.500000 87.311212
255.500000 87.693736
255.500000 88.077096
255.500000 88.461292
255.500000 88.846324
255.500000 89.232193
255.500000 89.618897
255.500000 90.006438
255.500000 90.394815
255.500000 90.784028
255.500000 91.174077
255.500000 91.564962
255.500000 91.956684
255.500000 92.349241
255.500000 92.742634
255.500000 93.136864
255.500000 93.531930
255.500000 93.927832
255.500000 94.324570
255.500000 94.722144
255.500000 95.120554
255.500000 95.519801
255.500000 95.919883
255.500000 96.320802
255.500000 96.722557
255.500000 97.125147
255.500000 97.528574
255.500000 97.932837
255.500000 98.337937
255.500000 98.743872
255.500000 99.150643
255.500000 99.558251
255.500000 99.966695
255.500000 100.375974
255.500000 100.786090
255.500000 101.197042
255.500000 101.608831
255.500000 102.021455
255.500000 102.434915
255.500000 102.849212
255.500000 103.264344
255.500000 103.680313
255.500000 104.097118
255.500000 104.514759
255.500000 104.933236
255.500000 105.352549
255.500000 105.772699
255.500000 106.193684
255.500000 106.615506
255.500000 107.038163
255.500000 107.461657
255.500000 107.885987
255.500000 108.311153
255.500000 108.737155
255.500000 109.163993
255.500000 109.591668
255.500000 110.020178
255.500000 110.449525
255.500000 110.879708
255.500000 111.310727
255.500000 111.742582
255.500000 112.175273
255.500000 112.608800
255.500000 113.043163
255.500000 113.478363
255.500000 113.914398
255.500000 114.351270
255.500000 114.788978
255.500000 115.227522
255.500000 115.666902
255.500000 116.107118
255.500000 116.548170
255.500000 116.990059
255.500000 117.432783
255.500000 117.876344
255.500000 118.320740
255.500000 118.765973
255.500000 119.212042
255.500000 119.658947
255.500000 120.106689
255.500000 120.555266
255.500000 121.004679
255.500000 121.454929
255.500000 121.906015
255.500000 122.357937
255.500000 122.810695
255.500000 123.264289
255.500000 123.718719
255.500000 124.173985
255.500000 124.630087
255.500000 125.087026
255.500000 125.544801
255.500000 126.003411
255.500000 126.462858
255.500000 126.923141
255.500000 127.384260
255.500000 127.846216
255.500000 128.309007
255.500000 128.772634
255.500000 129.237098
255.500000 129.702398
255.500000 130.168534
255.500000 130.635505
255.500000 131.103314
255.500000 131.571958
255.500000 132.041438
255.500000 132.511754
255.500000 132.982907
255.500000 133.454896
255.500000 133.927720
255.500000 134.401381
255.500000 134.875878
255.500000 135.351211
255.500000 135.827381
255.500000 136.304386
255.500000 136.782227
255.500000 137.260905
255.500000 137.740419
255.500000 138.220769
255.500000 138.701955
255.500000 139.183977
255.500000 139.666835
255.500000 140.150529
255.500000 140.635060
255.500000 141.120426
255.500000 141.606629
255.500000 142.093668
255.500000 142.581542
255.500000 143.070253
255.500000 143.559801
255.500000 144.050184
255.500000 144.541403
255.500000 145.033459
255.500000 145.526350
255.500000 146.020078
255.500000 146.514642
255.500000 147.010042
255.500000 147.506278
255.500000 148.003350
255.500000 148.501258
255.500000 149.000003
255.500000 149.499583
255.500000 150.000000
</POINTS>
</NEKTAR>

