<?xml version="1.0" encoding="utf-8" ?>
<NEKTAR>
<POINTS DIM="2" FIELDS="">
835.500000 0.000000
835.500000 0.000418
835.500000 0.001672
835.500000 0.003763
835.500000 0.006689
835.500000 0.010451
835.500000 0.015050
835.500000 0.020485
835.500000 0.026756
835.500000 0.033863
835.500000 0.041806
835.500000 0.050585
835.500000 0.060201
835.500000 0.070652
835.500000 0.081940
835.500000 0.094063
835.500000 0.107023
835.500000 0.120819
835.500000 0.135451
835.500000 0.150919
835.500000 0.167224
835.500000 0.184364
835.500000 0.202341
835.500000 0.221153
835.500000 0.240802
835.500000 0.261287
835.500000 0.282608
835.500000 0.304765
835.500000 0.327758
835.500000 0.351588
835.500000 0.376253
835.500000 0.401755
835.500000 0.428092
835.500000 0.455266
835.500000 0.483276
835.500000 0.512122
835.500000 0.541805
835.500000 0.572323
835.500000 0.603677
835.500000 0.635868
835.500000 0.668894
835.500000 0.702757
835.500000 0.737456
835.500000 0.772991
835.500000 0.809362
835.500000 0.846570
835.500000 0.884613
835.500000 0.923492
835.500000 0.963208
835.500000 1.003760
835.500000 1.045148
835.500000 1.087372
835.500000 1.130432
835.500000 1.174328
835.500000 1.219060
835.500000 1.264629
835.500000 1.311033
835.500000 1.358274
835.500000 1.406351
835.500000 1.455264
835.500000 1.505013
835.500000 1.555598
835.500000 1.607019
835.500000 1.659276
835.500000 1.712370
835.500000 1.766299
835.500000 1.821065
835.500000 1.876667
835.500000 1.933105
835.500000 1.990379
835.500000 2.048489
835.500000 2.107436
835.500000 2.167218
835.500000 2.227837
835.500000 2.289291
835.500000 2.351582
835.500000 2.414709
835.500000 2.478672
835.500000 2.543471
835.500000 2.609106
835.500000 2.675578
835.500000 2.742885
835.500000 2.811029
835.500000 2.880009
835.500000 2.949825
835.500000 3.020477
835.500000 3.091965
835.500000 3.164289
835.500000 3.237449
835.500000 3.311446
835.500000 3.386278
835.500000 3.461947
835.500000 3.538452
835.500000 3.615793
835.500000 3.693970
835.500000 3.772983
835.500000 3.852832
835.500000 3.933517
835.500000 4.015039
835.500000 4.097397
835.500000 4.180590
835.500000 4.264620
835.500000 4.349486
835.500000 4.435188
835.500000 4.521727
835.500000 4.609101
835.500000 4.697311
835.500000 4.786358
835.500000 4.876241
835.500000 4.966959
835.500000 5.058514
835.500000 5.150905
835.500000 5.244133
835.500000 5.338196
835.500000 5.433095
835.500000 5.528831
835.500000 5.625402
835.500000 5.722810
835.500000 5.821054
835.500000 5.920134
835.500000 6.020050
835.500000 6.120802
835.500000 6.222391
835.500000 6.324815
835.500000 6.428076
835.500000 6.532172
835.500000 6.637105
835.500000 6.742874
835.500000 6.849479
835.500000 6.956920
835.500000 7.065198
835.500000 7.174311
835.500000 7.284261
835.500000 7.395046
835.500000 7.506668
835.500000 7.619126
835.500000 7.732420
835.500000 7.846550
835.500000 7.961516
835.500000 8.077319
835.500000 8.193957
835.500000 8.311432
835.500000 8.429742
835.500000 8.548889
835.500000 8.668872
835.500000 8.789691
835.500000 8.911346
835.500000 9.033838
835.500000 9.157165
835.500000 9.281329
835.500000 9.406328
835.500000 9.532164
835.500000 9.658836
835.500000 9.786344
835.500000 9.914688
835.500000 10.043868
835.500000 10.173885
835.500000 10.304737
835.500000 10.436426
835.500000 10.568950
835.500000 10.702311
835.500000 10.836508
835.500000 10.971541
835.500000 11.107411
835.500000 11.244116
835.500000 11.381657
835.500000 11.520035
835.500000 11.659248
835.500000 11.799298
835.500000 11.940184
835.500000 12.081906
835.500000 12.224464
835.500000 12.367859
835.500000 12.512089
835.500000 12.657155
835.500000 12.803058
835.500000 12.949797
835.500000 13.097372
835.500000 13.245782
835.500000 13.395030
835.500000 13.545113
835.500000 13.696032
835.500000 13.847787
835.500000 14.000379
835.500000 14.153807
835.500000 14.308070
835.500000 14.463170
835.500000 14.619106
835.500000 14.775879
835.500000 14.933487
835.500000 15.091931
835.500000 15.251212
835.500000 15.411328
835.500000 15.572281
835.500000 15.734070
835.500000 15.896695
835.500000 16.060156
835.500000 16.224453
835.500000 16.389586
835.500000 16.555556
835.500000 16.722361
835.500000 16.890003
835.500000 17.058481
835.500000 17.227795
835.500000 17.397945
835.500000 17.568931
835.500000 17.740753
835.500000 17.913412
835.500000 18.086906
835.500000 18.261237
835.500000 18.436403
835.500000 18.612406
835.500000 18.789245
835.500000 18.966920
835.500000 19.145432
835.500000 19.324779
835.500000 19.504962
835.500000 19.685982
835.500000 19.867838
835.500000 20.050529
835.500000 20.234057
835.500000 20.418421
835.500000 20.603622
835.500000 20.789658
835.500000 20.976530
835.500000 21.164239
835.500000 21.352783
835.500000 21.542164
835.500000 21.732381
835.500000 21.923434
835.500000 22.115323
835.500000 22.308048
835.500000 22.501610
835.500000 22.696007
835.500000 22.891241
835.500000 23.087310
835.500000 23.284216
835.500000 23.481958
835.500000 23.680536
835.500000 23.879950
835.500000 24.080200
835.500000 24.281287
835.500000 24.483209
835.500000 24.685968
835.500000 24.889563
835.500000 25.093994
835.500000 25.299261
835.500000 25.505364
835.500000 25.712303
835.500000 25.920078
835.500000 26.128690
835.500000 26.338137
835.500000 26.548421
835.500000 26.759541
835.500000 26.971497
835.500000 27.184289
835.500000 27.397917
835.500000 27.612381
835.500000 27.827682
835.500000 28.043818
835.500000 28.260791
835.500000 28.478600
835.500000 28.697244
835.500000 28.916725
835.500000 29.137043
835.500000 29.358196
835.500000 29.580185
835.500000 29.803011
835.500000 30.026672
835.500000 30.251170
835.500000 30.476504
835.500000 30.702674
835.500000 30.929680
835.500000 31.157522
835.500000 31.386200
835.500000 31.615715
835.500000 31.846065
835.500000 32.077252
835.500000 32.309275
835.500000 32.542133
835.500000 32.775828
835.500000 33.010360
835.500000 33.245727
835.500000 33.481930
835.500000 33.718970
835.500000 33.956845
835.500000 34.195557
835.500000 34.435105
835.500000 34.675489
835.500000 34.916709
835.500000 35.158765
835.500000 35.401657
835.500000 35.645386
835.500000 35.889950
835.500000 36.135351
835.500000 36.381588
835.500000 36.628660
835.500000 36.876569
835.500000 37.125315
835.500000 37.374896
835.500000 37.625313
835.500000 37.876567
835.500000 38.128656
835.500000 38.381582
835.500000 38.635344
835.500000 38.889942
835.500000 39.145376
835.500000 39.401646
835.500000 39.658752
835.500000 39.916695
835.500000 40.175473
835.500000 40.435088
835.500000 40.695539
835.500000 40.956826
835.500000 41.218949
835.500000 41.481908
835.500000 41.745703
835.500000 42.010334
835.500000 42.275802
835.500000 42.542106
835.500000 42.809245
835.500000 43.077221
835.500000 43.346033
835.500000 43.615681
835.500000 43.886165
835.500000 44.157486
835.500000 44.429642
835.500000 44.702635
835.500000 44.976463
835.500000 45.251128
835.500000 45.526629
835.500000 45.802966
835.500000 46.080139
835.500000 46.358148
835.500000 46.636994
835.500000 46.916675
835.500000 47.197193
835.500000 47.478547
835.500000 47.760736
835.500000 48.043762
835.500000 48.327625
835.500000 48.612323
835.500000 48.897857
835.500000 49.184227
835.500000 49.471434
835.500000 49.759477
835.500000 50.048355
835.500000 50.338070
835.500000 50.628621
835.500000 50.920009
835.500000 51.212232
835.500000 51.505291
835.500000 51.799187
835.500000 52.093918
835.500000 52.389486
835.500000 52.685890
835.500000 52.983130
835.500000 53.281206
835.500000 53.580118
835.500000 53.879867
835.500000 54.180451
835.500000 54.481872
835.500000 54.784128
835.500000 55.087221
835.500000 55.391150
835.500000 55.695915
835.500000 56.001516
835.500000 56.307953
835.500000 56.615227
835.500000 56.923336
835.500000 57.232282
835.500000 57.542064
835.500000 57.852682
835.500000 58.164136
835.500000 58.476426
835.500000 58.789552
835.500000 59.103514
835.500000 59.418313
835.500000 59.733947
835.500000 60.050418
835.500000 60.367725
835.500000 60.685868
835.500000 61.004847
835.500000 61.324662
835.500000 61.645313
835.500000 61.966801
835.500000 62.289124
835.500000 62.612284
835.500000 62.936279
835.500000 63.261111
835.500000 63.586779
835.500000 63.913283
835.500000 64.240624
835.500000 64.568800
835.500000 64.897812
835.500000 65.227661
835.500000 65.558346
835.500000 65.889867
835.500000 66.222223
835.500000 66.555417
835.500000 66.889446
835.500000 67.224311
835.500000 67.560012
835.500000 67.896550
835.500000 68.233924
835.500000 68.572133
835.500000 68.911179
835.500000 69.251061
835.500000 69.591779
835.500000 69.933334
835.500000 70.275724
835.500000 70.618950
835.500000 70.963013
835.500000 71.307912
835.500000 71.653646
835.500000 72.000217
835.500000 72.347624
835.500000 72.695868
835.500000 73.044947
835.500000 73.394862
835.500000 73.745614
835.500000 74.097202
835.500000 74.449625
835.500000 74.802885
835.500000 75.156981
835.500000 75.511913
835.500000 75.867682
835.500000 76.224286
835.500000 76.581726
835.500000 76.940003
835.500000 77.299116
835.500000 77.659064
835.500000 78.019849
835.500000 78.381471
835.500000 78.743928
835.500000 79.107221
835.500000 79.471350
835.500000 79.836316
835.500000 80.202118
835.500000 80.568755
835.500000 80.936229
835.500000 81.304539
835.500000 81.673685
835.500000 82.043668
835.500000 82.414486
835.500000 82.786141
835.500000 83.158631
835.500000 83.531958
835.500000 83.906121
835.500000 84.281120
835.500000 84.656955
835.500000 85.033626
835.500000 85.411133
835.500000 85.789477
835.500000 86.168656
835.500000 86.548672
835.500000 86.929524
835.500000 87.311212
835.500000 87.693736
835.500000 88.077096
835.500000 88.461292
835.500000 88.846324
835.500000 89.232193
835.500000 89.618897
835.500000 90.006438
835.500000 90.394815
835.500000 90.784028
835.500000 91.174077
835.500000 91.564962
835.500000 91.956684
835.500000 92.349241
835.500000 92.742634
835.500000 93.136864
835.500000 93.531930
835.500000 93.927832
835.500000 94.324570
835.500000 94.722144
835.500000 95.120554
835.500000 95.519801
835.500000 95.919883
835.500000 96.320802
835.500000 96.722557
835.500000 97.125147
835.500000 97.528574
835.500000 97.932837
835.500000 98.337937
835.500000 98.743872
835.500000 99.150643
835.500000 99.558251
835.500000 99.966695
835.500000 100.375974
835.500000 100.786090
835.500000 101.197042
835.500000 101.608831
835.500000 102.021455
835.500000 102.434915
835.500000 102.849212
835.500000 103.264344
835.500000 103.680313
835.500000 104.097118
835.500000 104.514759
835.500000 104.933236
835.500000 105.352549
835.500000 105.772699
835.500000 106.193684
835.500000 106.615506
835.500000 107.038163
835.500000 107.461657
835.500000 107.885987
835.500000 108.311153
835.500000 108.737155
835.500000 109.163993
835.500000 109.591668
835.500000 110.020178
835.500000 110.449525
835.500000 110.879708
835.500000 111.310727
835.500000 111.742582
835.500000 112.175273
835.500000 112.608800
835.500000 113.043163
835.500000 113.478363
835.500000 113.914398
835.500000 114.351270
835.500000 114.788978
835.500000 115.227522
835.500000 115.666902
835.500000 116.107118
835.500000 116.548170
835.500000 116.990059
835.500000 117.432783
835.500000 117.876344
835.500000 118.320740
835.500000 118.765973
835.500000 119.212042
835.500000 119.658947
835.500000 120.106689
835.500000 120.555266
835.500000 121.004679
835.500000 121.454929
835.500000 121.906015
835.500000 122.357937
835.500000 122.810695
835.500000 123.264289
835.500000 123.718719
835.500000 124.173985
835.500000 124.630087
835.500000 125.087026
835.500000 125.544801
835.500000 126.003411
835.500000 126.462858
835.500000 126.923141
835.500000 127.384260
835.500000 127.846216
835.500000 128.309007
835.500000 128.772634
835.500000 129.237098
835.500000 129.702398
835.500000 130.168534
835.500000 130.635505
835.500000 131.103314
835.500000 131.571958
835.500000 132.041438
835.500000 132.511754
835.500000 132.982907
835.500000 133.454896
835.500000 133.927720
835.500000 134.401381
835.500000 134.875878
835.500000 135.351211
835.500000 135.827381
835.500000 136.304386
835.500000 136.782227
835.500000 137.260905
835.500000 137.740419
835.500000 138.220769
835.500000 138.701955
835.500000 139.183977
835.500000 139.666835
835.500000 140.150529
835.500000 140.635060
835.500000 141.120426
835.500000 141.606629
835.500000 142.093668
835.500000 142.581542
835.500000 143.070253
835.500000 143.559801
835.500000 144.050184
835.500000 144.541403
835.500000 145.033459
835.500000 145.526350
835.500000 146.020078
835.500000 146.514642
835.500000 147.010042
835.500000 147.506278
835.500000 148.003350
835.500000 148.501258
835.500000 149.000003
835.500000 149.499583
835.500000 150.000000
</POINTS>
</NEKTAR>

