<?xml version="1.0" encoding="utf-8" ?>
<NEKTAR>
<POINTS DIM="2" FIELDS="">
176.500000 0.000000
176.500000 0.000418
176.500000 0.001672
176.500000 0.003763
176.500000 0.006689
176.500000 0.010451
176.500000 0.015050
176.500000 0.020485
176.500000 0.026756
176.500000 0.033863
176.500000 0.041806
176.500000 0.050585
176.500000 0.060201
176.500000 0.070652
176.500000 0.081940
176.500000 0.094063
176.500000 0.107023
176.500000 0.120819
176.500000 0.135451
176.500000 0.150919
176.500000 0.167224
176.500000 0.184364
176.500000 0.202341
176.500000 0.221153
176.500000 0.240802
176.500000 0.261287
176.500000 0.282608
176.500000 0.304765
176.500000 0.327758
176.500000 0.351588
176.500000 0.376253
176.500000 0.401755
176.500000 0.428092
176.500000 0.455266
176.500000 0.483276
176.500000 0.512122
176.500000 0.541805
176.500000 0.572323
176.500000 0.603677
176.500000 0.635868
176.500000 0.668894
176.500000 0.702757
176.500000 0.737456
176.500000 0.772991
176.500000 0.809362
176.500000 0.846570
176.500000 0.884613
176.500000 0.923492
176.500000 0.963208
176.500000 1.003760
176.500000 1.045148
176.500000 1.087372
176.500000 1.130432
176.500000 1.174328
176.500000 1.219060
176.500000 1.264629
176.500000 1.311033
176.500000 1.358274
176.500000 1.406351
176.500000 1.455264
176.500000 1.505013
176.500000 1.555598
176.500000 1.607019
176.500000 1.659276
176.500000 1.712370
176.500000 1.766299
176.500000 1.821065
176.500000 1.876667
176.500000 1.933105
176.500000 1.990379
176.500000 2.048489
176.500000 2.107436
176.500000 2.167218
176.500000 2.227837
176.500000 2.289291
176.500000 2.351582
176.500000 2.414709
176.500000 2.478672
176.500000 2.543471
176.500000 2.609106
176.500000 2.675578
176.500000 2.742885
176.500000 2.811029
176.500000 2.880009
176.500000 2.949825
176.500000 3.020477
176.500000 3.091965
176.500000 3.164289
176.500000 3.237449
176.500000 3.311446
176.500000 3.386278
176.500000 3.461947
176.500000 3.538452
176.500000 3.615793
176.500000 3.693970
176.500000 3.772983
176.500000 3.852832
176.500000 3.933517
176.500000 4.015039
176.500000 4.097397
176.500000 4.180590
176.500000 4.264620
176.500000 4.349486
176.500000 4.435188
176.500000 4.521727
176.500000 4.609101
176.500000 4.697311
176.500000 4.786358
176.500000 4.876241
176.500000 4.966959
176.500000 5.058514
176.500000 5.150905
176.500000 5.244133
176.500000 5.338196
176.500000 5.433095
176.500000 5.528831
176.500000 5.625402
176.500000 5.722810
176.500000 5.821054
176.500000 5.920134
176.500000 6.020050
176.500000 6.120802
176.500000 6.222391
176.500000 6.324815
176.500000 6.428076
176.500000 6.532172
176.500000 6.637105
176.500000 6.742874
176.500000 6.849479
176.500000 6.956920
176.500000 7.065198
176.500000 7.174311
176.500000 7.284261
176.500000 7.395046
176.500000 7.506668
176.500000 7.619126
176.500000 7.732420
176.500000 7.846550
176.500000 7.961516
176.500000 8.077319
176.500000 8.193957
176.500000 8.311432
176.500000 8.429742
176.500000 8.548889
176.500000 8.668872
176.500000 8.789691
176.500000 8.911346
176.500000 9.033838
176.500000 9.157165
176.500000 9.281329
176.500000 9.406328
176.500000 9.532164
176.500000 9.658836
176.500000 9.786344
176.500000 9.914688
176.500000 10.043868
176.500000 10.173885
176.500000 10.304737
176.500000 10.436426
176.500000 10.568950
176.500000 10.702311
176.500000 10.836508
176.500000 10.971541
176.500000 11.107411
176.500000 11.244116
176.500000 11.381657
176.500000 11.520035
176.500000 11.659248
176.500000 11.799298
176.500000 11.940184
176.500000 12.081906
176.500000 12.224464
176.500000 12.367859
176.500000 12.512089
176.500000 12.657155
176.500000 12.803058
176.500000 12.949797
176.500000 13.097372
176.500000 13.245782
176.500000 13.395030
176.500000 13.545113
176.500000 13.696032
176.500000 13.847787
176.500000 14.000379
176.500000 14.153807
176.500000 14.308070
176.500000 14.463170
176.500000 14.619106
176.500000 14.775879
176.500000 14.933487
176.500000 15.091931
176.500000 15.251212
176.500000 15.411328
176.500000 15.572281
176.500000 15.734070
176.500000 15.896695
176.500000 16.060156
176.500000 16.224453
176.500000 16.389586
176.500000 16.555556
176.500000 16.722361
176.500000 16.890003
176.500000 17.058481
176.500000 17.227795
176.500000 17.397945
176.500000 17.568931
176.500000 17.740753
176.500000 17.913412
176.500000 18.086906
176.500000 18.261237
176.500000 18.436403
176.500000 18.612406
176.500000 18.789245
176.500000 18.966920
176.500000 19.145432
176.500000 19.324779
176.500000 19.504962
176.500000 19.685982
176.500000 19.867838
176.500000 20.050529
176.500000 20.234057
176.500000 20.418421
176.500000 20.603622
176.500000 20.789658
176.500000 20.976530
176.500000 21.164239
176.500000 21.352783
176.500000 21.542164
176.500000 21.732381
176.500000 21.923434
176.500000 22.115323
176.500000 22.308048
176.500000 22.501610
176.500000 22.696007
176.500000 22.891241
176.500000 23.087310
176.500000 23.284216
176.500000 23.481958
176.500000 23.680536
176.500000 23.879950
176.500000 24.080200
176.500000 24.281287
176.500000 24.483209
176.500000 24.685968
176.500000 24.889563
176.500000 25.093994
176.500000 25.299261
176.500000 25.505364
176.500000 25.712303
176.500000 25.920078
176.500000 26.128690
176.500000 26.338137
176.500000 26.548421
176.500000 26.759541
176.500000 26.971497
176.500000 27.184289
176.500000 27.397917
176.500000 27.612381
176.500000 27.827682
176.500000 28.043818
176.500000 28.260791
176.500000 28.478600
176.500000 28.697244
176.500000 28.916725
176.500000 29.137043
176.500000 29.358196
176.500000 29.580185
176.500000 29.803011
176.500000 30.026672
176.500000 30.251170
176.500000 30.476504
176.500000 30.702674
176.500000 30.929680
176.500000 31.157522
176.500000 31.386200
176.500000 31.615715
176.500000 31.846065
176.500000 32.077252
176.500000 32.309275
176.500000 32.542133
176.500000 32.775828
176.500000 33.010360
176.500000 33.245727
176.500000 33.481930
176.500000 33.718970
176.500000 33.956845
176.500000 34.195557
176.500000 34.435105
176.500000 34.675489
176.500000 34.916709
176.500000 35.158765
176.500000 35.401657
176.500000 35.645386
176.500000 35.889950
176.500000 36.135351
176.500000 36.381588
176.500000 36.628660
176.500000 36.876569
176.500000 37.125315
176.500000 37.374896
176.500000 37.625313
176.500000 37.876567
176.500000 38.128656
176.500000 38.381582
176.500000 38.635344
176.500000 38.889942
176.500000 39.145376
176.500000 39.401646
176.500000 39.658752
176.500000 39.916695
176.500000 40.175473
176.500000 40.435088
176.500000 40.695539
176.500000 40.956826
176.500000 41.218949
176.500000 41.481908
176.500000 41.745703
176.500000 42.010334
176.500000 42.275802
176.500000 42.542106
176.500000 42.809245
176.500000 43.077221
176.500000 43.346033
176.500000 43.615681
176.500000 43.886165
176.500000 44.157486
176.500000 44.429642
176.500000 44.702635
176.500000 44.976463
176.500000 45.251128
176.500000 45.526629
176.500000 45.802966
176.500000 46.080139
176.500000 46.358148
176.500000 46.636994
176.500000 46.916675
176.500000 47.197193
176.500000 47.478547
176.500000 47.760736
176.500000 48.043762
176.500000 48.327625
176.500000 48.612323
176.500000 48.897857
176.500000 49.184227
176.500000 49.471434
176.500000 49.759477
176.500000 50.048355
176.500000 50.338070
176.500000 50.628621
176.500000 50.920009
176.500000 51.212232
176.500000 51.505291
176.500000 51.799187
176.500000 52.093918
176.500000 52.389486
176.500000 52.685890
176.500000 52.983130
176.500000 53.281206
176.500000 53.580118
176.500000 53.879867
176.500000 54.180451
176.500000 54.481872
176.500000 54.784128
176.500000 55.087221
176.500000 55.391150
176.500000 55.695915
176.500000 56.001516
176.500000 56.307953
176.500000 56.615227
176.500000 56.923336
176.500000 57.232282
176.500000 57.542064
176.500000 57.852682
176.500000 58.164136
176.500000 58.476426
176.500000 58.789552
176.500000 59.103514
176.500000 59.418313
176.500000 59.733947
176.500000 60.050418
176.500000 60.367725
176.500000 60.685868
176.500000 61.004847
176.500000 61.324662
176.500000 61.645313
176.500000 61.966801
176.500000 62.289124
176.500000 62.612284
176.500000 62.936279
176.500000 63.261111
176.500000 63.586779
176.500000 63.913283
176.500000 64.240624
176.500000 64.568800
176.500000 64.897812
176.500000 65.227661
176.500000 65.558346
176.500000 65.889867
176.500000 66.222223
176.500000 66.555417
176.500000 66.889446
176.500000 67.224311
176.500000 67.560012
176.500000 67.896550
176.500000 68.233924
176.500000 68.572133
176.500000 68.911179
176.500000 69.251061
176.500000 69.591779
176.500000 69.933334
176.500000 70.275724
176.500000 70.618950
176.500000 70.963013
176.500000 71.307912
176.500000 71.653646
176.500000 72.000217
176.500000 72.347624
176.500000 72.695868
176.500000 73.044947
176.500000 73.394862
176.500000 73.745614
176.500000 74.097202
176.500000 74.449625
176.500000 74.802885
176.500000 75.156981
176.500000 75.511913
176.500000 75.867682
176.500000 76.224286
176.500000 76.581726
176.500000 76.940003
176.500000 77.299116
176.500000 77.659064
176.500000 78.019849
176.500000 78.381471
176.500000 78.743928
176.500000 79.107221
176.500000 79.471350
176.500000 79.836316
176.500000 80.202118
176.500000 80.568755
176.500000 80.936229
176.500000 81.304539
176.500000 81.673685
176.500000 82.043668
176.500000 82.414486
176.500000 82.786141
176.500000 83.158631
176.500000 83.531958
176.500000 83.906121
176.500000 84.281120
176.500000 84.656955
176.500000 85.033626
176.500000 85.411133
176.500000 85.789477
176.500000 86.168656
176.500000 86.548672
176.500000 86.929524
176.500000 87.311212
176.500000 87.693736
176.500000 88.077096
176.500000 88.461292
176.500000 88.846324
176.500000 89.232193
176.500000 89.618897
176.500000 90.006438
176.500000 90.394815
176.500000 90.784028
176.500000 91.174077
176.500000 91.564962
176.500000 91.956684
176.500000 92.349241
176.500000 92.742634
176.500000 93.136864
176.500000 93.531930
176.500000 93.927832
176.500000 94.324570
176.500000 94.722144
176.500000 95.120554
176.500000 95.519801
176.500000 95.919883
176.500000 96.320802
176.500000 96.722557
176.500000 97.125147
176.500000 97.528574
176.500000 97.932837
176.500000 98.337937
176.500000 98.743872
176.500000 99.150643
176.500000 99.558251
176.500000 99.966695
176.500000 100.375974
176.500000 100.786090
176.500000 101.197042
176.500000 101.608831
176.500000 102.021455
176.500000 102.434915
176.500000 102.849212
176.500000 103.264344
176.500000 103.680313
176.500000 104.097118
176.500000 104.514759
176.500000 104.933236
176.500000 105.352549
176.500000 105.772699
176.500000 106.193684
176.500000 106.615506
176.500000 107.038163
176.500000 107.461657
176.500000 107.885987
176.500000 108.311153
176.500000 108.737155
176.500000 109.163993
176.500000 109.591668
176.500000 110.020178
176.500000 110.449525
176.500000 110.879708
176.500000 111.310727
176.500000 111.742582
176.500000 112.175273
176.500000 112.608800
176.500000 113.043163
176.500000 113.478363
176.500000 113.914398
176.500000 114.351270
176.500000 114.788978
176.500000 115.227522
176.500000 115.666902
176.500000 116.107118
176.500000 116.548170
176.500000 116.990059
176.500000 117.432783
176.500000 117.876344
176.500000 118.320740
176.500000 118.765973
176.500000 119.212042
176.500000 119.658947
176.500000 120.106689
176.500000 120.555266
176.500000 121.004679
176.500000 121.454929
176.500000 121.906015
176.500000 122.357937
176.500000 122.810695
176.500000 123.264289
176.500000 123.718719
176.500000 124.173985
176.500000 124.630087
176.500000 125.087026
176.500000 125.544801
176.500000 126.003411
176.500000 126.462858
176.500000 126.923141
176.500000 127.384260
176.500000 127.846216
176.500000 128.309007
176.500000 128.772634
176.500000 129.237098
176.500000 129.702398
176.500000 130.168534
176.500000 130.635505
176.500000 131.103314
176.500000 131.571958
176.500000 132.041438
176.500000 132.511754
176.500000 132.982907
176.500000 133.454896
176.500000 133.927720
176.500000 134.401381
176.500000 134.875878
176.500000 135.351211
176.500000 135.827381
176.500000 136.304386
176.500000 136.782227
176.500000 137.260905
176.500000 137.740419
176.500000 138.220769
176.500000 138.701955
176.500000 139.183977
176.500000 139.666835
176.500000 140.150529
176.500000 140.635060
176.500000 141.120426
176.500000 141.606629
176.500000 142.093668
176.500000 142.581542
176.500000 143.070253
176.500000 143.559801
176.500000 144.050184
176.500000 144.541403
176.500000 145.033459
176.500000 145.526350
176.500000 146.020078
176.500000 146.514642
176.500000 147.010042
176.500000 147.506278
176.500000 148.003350
176.500000 148.501258
176.500000 149.000003
176.500000 149.499583
176.500000 150.000000
</POINTS>
</NEKTAR>

