<?xml version="1.0" encoding="utf-8" ?>
<NEKTAR>
<POINTS DIM="2" FIELDS="">
396.500000 0.000000
396.500000 0.000418
396.500000 0.001672
396.500000 0.003763
396.500000 0.006689
396.500000 0.010451
396.500000 0.015050
396.500000 0.020485
396.500000 0.026756
396.500000 0.033863
396.500000 0.041806
396.500000 0.050585
396.500000 0.060201
396.500000 0.070652
396.500000 0.081940
396.500000 0.094063
396.500000 0.107023
396.500000 0.120819
396.500000 0.135451
396.500000 0.150919
396.500000 0.167224
396.500000 0.184364
396.500000 0.202341
396.500000 0.221153
396.500000 0.240802
396.500000 0.261287
396.500000 0.282608
396.500000 0.304765
396.500000 0.327758
396.500000 0.351588
396.500000 0.376253
396.500000 0.401755
396.500000 0.428092
396.500000 0.455266
396.500000 0.483276
396.500000 0.512122
396.500000 0.541805
396.500000 0.572323
396.500000 0.603677
396.500000 0.635868
396.500000 0.668894
396.500000 0.702757
396.500000 0.737456
396.500000 0.772991
396.500000 0.809362
396.500000 0.846570
396.500000 0.884613
396.500000 0.923492
396.500000 0.963208
396.500000 1.003760
396.500000 1.045148
396.500000 1.087372
396.500000 1.130432
396.500000 1.174328
396.500000 1.219060
396.500000 1.264629
396.500000 1.311033
396.500000 1.358274
396.500000 1.406351
396.500000 1.455264
396.500000 1.505013
396.500000 1.555598
396.500000 1.607019
396.500000 1.659276
396.500000 1.712370
396.500000 1.766299
396.500000 1.821065
396.500000 1.876667
396.500000 1.933105
396.500000 1.990379
396.500000 2.048489
396.500000 2.107436
396.500000 2.167218
396.500000 2.227837
396.500000 2.289291
396.500000 2.351582
396.500000 2.414709
396.500000 2.478672
396.500000 2.543471
396.500000 2.609106
396.500000 2.675578
396.500000 2.742885
396.500000 2.811029
396.500000 2.880009
396.500000 2.949825
396.500000 3.020477
396.500000 3.091965
396.500000 3.164289
396.500000 3.237449
396.500000 3.311446
396.500000 3.386278
396.500000 3.461947
396.500000 3.538452
396.500000 3.615793
396.500000 3.693970
396.500000 3.772983
396.500000 3.852832
396.500000 3.933517
396.500000 4.015039
396.500000 4.097397
396.500000 4.180590
396.500000 4.264620
396.500000 4.349486
396.500000 4.435188
396.500000 4.521727
396.500000 4.609101
396.500000 4.697311
396.500000 4.786358
396.500000 4.876241
396.500000 4.966959
396.500000 5.058514
396.500000 5.150905
396.500000 5.244133
396.500000 5.338196
396.500000 5.433095
396.500000 5.528831
396.500000 5.625402
396.500000 5.722810
396.500000 5.821054
396.500000 5.920134
396.500000 6.020050
396.500000 6.120802
396.500000 6.222391
396.500000 6.324815
396.500000 6.428076
396.500000 6.532172
396.500000 6.637105
396.500000 6.742874
396.500000 6.849479
396.500000 6.956920
396.500000 7.065198
396.500000 7.174311
396.500000 7.284261
396.500000 7.395046
396.500000 7.506668
396.500000 7.619126
396.500000 7.732420
396.500000 7.846550
396.500000 7.961516
396.500000 8.077319
396.500000 8.193957
396.500000 8.311432
396.500000 8.429742
396.500000 8.548889
396.500000 8.668872
396.500000 8.789691
396.500000 8.911346
396.500000 9.033838
396.500000 9.157165
396.500000 9.281329
396.500000 9.406328
396.500000 9.532164
396.500000 9.658836
396.500000 9.786344
396.500000 9.914688
396.500000 10.043868
396.500000 10.173885
396.500000 10.304737
396.500000 10.436426
396.500000 10.568950
396.500000 10.702311
396.500000 10.836508
396.500000 10.971541
396.500000 11.107411
396.500000 11.244116
396.500000 11.381657
396.500000 11.520035
396.500000 11.659248
396.500000 11.799298
396.500000 11.940184
396.500000 12.081906
396.500000 12.224464
396.500000 12.367859
396.500000 12.512089
396.500000 12.657155
396.500000 12.803058
396.500000 12.949797
396.500000 13.097372
396.500000 13.245782
396.500000 13.395030
396.500000 13.545113
396.500000 13.696032
396.500000 13.847787
396.500000 14.000379
396.500000 14.153807
396.500000 14.308070
396.500000 14.463170
396.500000 14.619106
396.500000 14.775879
396.500000 14.933487
396.500000 15.091931
396.500000 15.251212
396.500000 15.411328
396.500000 15.572281
396.500000 15.734070
396.500000 15.896695
396.500000 16.060156
396.500000 16.224453
396.500000 16.389586
396.500000 16.555556
396.500000 16.722361
396.500000 16.890003
396.500000 17.058481
396.500000 17.227795
396.500000 17.397945
396.500000 17.568931
396.500000 17.740753
396.500000 17.913412
396.500000 18.086906
396.500000 18.261237
396.500000 18.436403
396.500000 18.612406
396.500000 18.789245
396.500000 18.966920
396.500000 19.145432
396.500000 19.324779
396.500000 19.504962
396.500000 19.685982
396.500000 19.867838
396.500000 20.050529
396.500000 20.234057
396.500000 20.418421
396.500000 20.603622
396.500000 20.789658
396.500000 20.976530
396.500000 21.164239
396.500000 21.352783
396.500000 21.542164
396.500000 21.732381
396.500000 21.923434
396.500000 22.115323
396.500000 22.308048
396.500000 22.501610
396.500000 22.696007
396.500000 22.891241
396.500000 23.087310
396.500000 23.284216
396.500000 23.481958
396.500000 23.680536
396.500000 23.879950
396.500000 24.080200
396.500000 24.281287
396.500000 24.483209
396.500000 24.685968
396.500000 24.889563
396.500000 25.093994
396.500000 25.299261
396.500000 25.505364
396.500000 25.712303
396.500000 25.920078
396.500000 26.128690
396.500000 26.338137
396.500000 26.548421
396.500000 26.759541
396.500000 26.971497
396.500000 27.184289
396.500000 27.397917
396.500000 27.612381
396.500000 27.827682
396.500000 28.043818
396.500000 28.260791
396.500000 28.478600
396.500000 28.697244
396.500000 28.916725
396.500000 29.137043
396.500000 29.358196
396.500000 29.580185
396.500000 29.803011
396.500000 30.026672
396.500000 30.251170
396.500000 30.476504
396.500000 30.702674
396.500000 30.929680
396.500000 31.157522
396.500000 31.386200
396.500000 31.615715
396.500000 31.846065
396.500000 32.077252
396.500000 32.309275
396.500000 32.542133
396.500000 32.775828
396.500000 33.010360
396.500000 33.245727
396.500000 33.481930
396.500000 33.718970
396.500000 33.956845
396.500000 34.195557
396.500000 34.435105
396.500000 34.675489
396.500000 34.916709
396.500000 35.158765
396.500000 35.401657
396.500000 35.645386
396.500000 35.889950
396.500000 36.135351
396.500000 36.381588
396.500000 36.628660
396.500000 36.876569
396.500000 37.125315
396.500000 37.374896
396.500000 37.625313
396.500000 37.876567
396.500000 38.128656
396.500000 38.381582
396.500000 38.635344
396.500000 38.889942
396.500000 39.145376
396.500000 39.401646
396.500000 39.658752
396.500000 39.916695
396.500000 40.175473
396.500000 40.435088
396.500000 40.695539
396.500000 40.956826
396.500000 41.218949
396.500000 41.481908
396.500000 41.745703
396.500000 42.010334
396.500000 42.275802
396.500000 42.542106
396.500000 42.809245
396.500000 43.077221
396.500000 43.346033
396.500000 43.615681
396.500000 43.886165
396.500000 44.157486
396.500000 44.429642
396.500000 44.702635
396.500000 44.976463
396.500000 45.251128
396.500000 45.526629
396.500000 45.802966
396.500000 46.080139
396.500000 46.358148
396.500000 46.636994
396.500000 46.916675
396.500000 47.197193
396.500000 47.478547
396.500000 47.760736
396.500000 48.043762
396.500000 48.327625
396.500000 48.612323
396.500000 48.897857
396.500000 49.184227
396.500000 49.471434
396.500000 49.759477
396.500000 50.048355
396.500000 50.338070
396.500000 50.628621
396.500000 50.920009
396.500000 51.212232
396.500000 51.505291
396.500000 51.799187
396.500000 52.093918
396.500000 52.389486
396.500000 52.685890
396.500000 52.983130
396.500000 53.281206
396.500000 53.580118
396.500000 53.879867
396.500000 54.180451
396.500000 54.481872
396.500000 54.784128
396.500000 55.087221
396.500000 55.391150
396.500000 55.695915
396.500000 56.001516
396.500000 56.307953
396.500000 56.615227
396.500000 56.923336
396.500000 57.232282
396.500000 57.542064
396.500000 57.852682
396.500000 58.164136
396.500000 58.476426
396.500000 58.789552
396.500000 59.103514
396.500000 59.418313
396.500000 59.733947
396.500000 60.050418
396.500000 60.367725
396.500000 60.685868
396.500000 61.004847
396.500000 61.324662
396.500000 61.645313
396.500000 61.966801
396.500000 62.289124
396.500000 62.612284
396.500000 62.936279
396.500000 63.261111
396.500000 63.586779
396.500000 63.913283
396.500000 64.240624
396.500000 64.568800
396.500000 64.897812
396.500000 65.227661
396.500000 65.558346
396.500000 65.889867
396.500000 66.222223
396.500000 66.555417
396.500000 66.889446
396.500000 67.224311
396.500000 67.560012
396.500000 67.896550
396.500000 68.233924
396.500000 68.572133
396.500000 68.911179
396.500000 69.251061
396.500000 69.591779
396.500000 69.933334
396.500000 70.275724
396.500000 70.618950
396.500000 70.963013
396.500000 71.307912
396.500000 71.653646
396.500000 72.000217
396.500000 72.347624
396.500000 72.695868
396.500000 73.044947
396.500000 73.394862
396.500000 73.745614
396.500000 74.097202
396.500000 74.449625
396.500000 74.802885
396.500000 75.156981
396.500000 75.511913
396.500000 75.867682
396.500000 76.224286
396.500000 76.581726
396.500000 76.940003
396.500000 77.299116
396.500000 77.659064
396.500000 78.019849
396.500000 78.381471
396.500000 78.743928
396.500000 79.107221
396.500000 79.471350
396.500000 79.836316
396.500000 80.202118
396.500000 80.568755
396.500000 80.936229
396.500000 81.304539
396.500000 81.673685
396.500000 82.043668
396.500000 82.414486
396.500000 82.786141
396.500000 83.158631
396.500000 83.531958
396.500000 83.906121
396.500000 84.281120
396.500000 84.656955
396.500000 85.033626
396.500000 85.411133
396.500000 85.789477
396.500000 86.168656
396.500000 86.548672
396.500000 86.929524
396.500000 87.311212
396.500000 87.693736
396.500000 88.077096
396.500000 88.461292
396.500000 88.846324
396.500000 89.232193
396.500000 89.618897
396.500000 90.006438
396.500000 90.394815
396.500000 90.784028
396.500000 91.174077
396.500000 91.564962
396.500000 91.956684
396.500000 92.349241
396.500000 92.742634
396.500000 93.136864
396.500000 93.531930
396.500000 93.927832
396.500000 94.324570
396.500000 94.722144
396.500000 95.120554
396.500000 95.519801
396.500000 95.919883
396.500000 96.320802
396.500000 96.722557
396.500000 97.125147
396.500000 97.528574
396.500000 97.932837
396.500000 98.337937
396.500000 98.743872
396.500000 99.150643
396.500000 99.558251
396.500000 99.966695
396.500000 100.375974
396.500000 100.786090
396.500000 101.197042
396.500000 101.608831
396.500000 102.021455
396.500000 102.434915
396.500000 102.849212
396.500000 103.264344
396.500000 103.680313
396.500000 104.097118
396.500000 104.514759
396.500000 104.933236
396.500000 105.352549
396.500000 105.772699
396.500000 106.193684
396.500000 106.615506
396.500000 107.038163
396.500000 107.461657
396.500000 107.885987
396.500000 108.311153
396.500000 108.737155
396.500000 109.163993
396.500000 109.591668
396.500000 110.020178
396.500000 110.449525
396.500000 110.879708
396.500000 111.310727
396.500000 111.742582
396.500000 112.175273
396.500000 112.608800
396.500000 113.043163
396.500000 113.478363
396.500000 113.914398
396.500000 114.351270
396.500000 114.788978
396.500000 115.227522
396.500000 115.666902
396.500000 116.107118
396.500000 116.548170
396.500000 116.990059
396.500000 117.432783
396.500000 117.876344
396.500000 118.320740
396.500000 118.765973
396.500000 119.212042
396.500000 119.658947
396.500000 120.106689
396.500000 120.555266
396.500000 121.004679
396.500000 121.454929
396.500000 121.906015
396.500000 122.357937
396.500000 122.810695
396.500000 123.264289
396.500000 123.718719
396.500000 124.173985
396.500000 124.630087
396.500000 125.087026
396.500000 125.544801
396.500000 126.003411
396.500000 126.462858
396.500000 126.923141
396.500000 127.384260
396.500000 127.846216
396.500000 128.309007
396.500000 128.772634
396.500000 129.237098
396.500000 129.702398
396.500000 130.168534
396.500000 130.635505
396.500000 131.103314
396.500000 131.571958
396.500000 132.041438
396.500000 132.511754
396.500000 132.982907
396.500000 133.454896
396.500000 133.927720
396.500000 134.401381
396.500000 134.875878
396.500000 135.351211
396.500000 135.827381
396.500000 136.304386
396.500000 136.782227
396.500000 137.260905
396.500000 137.740419
396.500000 138.220769
396.500000 138.701955
396.500000 139.183977
396.500000 139.666835
396.500000 140.150529
396.500000 140.635060
396.500000 141.120426
396.500000 141.606629
396.500000 142.093668
396.500000 142.581542
396.500000 143.070253
396.500000 143.559801
396.500000 144.050184
396.500000 144.541403
396.500000 145.033459
396.500000 145.526350
396.500000 146.020078
396.500000 146.514642
396.500000 147.010042
396.500000 147.506278
396.500000 148.003350
396.500000 148.501258
396.500000 149.000003
396.500000 149.499583
396.500000 150.000000
</POINTS>
</NEKTAR>

